<?xml version="1.0" encoding="UTF-8"?>
<svg width="443px" height="407px" viewBox="0 0 443 407" version="1.1" xmlns="http://www.w3.org/2000/svg" xmlns:xlink="http://www.w3.org/1999/xlink">
    <!-- Generator: Sketch 48.2 (47327) - http://www.bohemiancoding.com/sketch -->
    <title>Artboard 4</title>
    <desc>Created with Sketch.</desc>
    <defs>
        <polygon id="path-1" points="0 43.0625 180 43.0625 180 0.9995 0 0.9995"></polygon>
        <polygon id="path-3" points="0 43.0625 180 43.0625 180 0.9995 0 0.9995"></polygon>
        <polygon id="path-5" points="0 43.0625 180 43.0625 180 0.9995 0 0.9995"></polygon>
        <polygon id="path-7" points="0 43.0625 180 43.0625 180 0.9995 0 0.9995"></polygon>
    </defs>
    <g id="Page-1" stroke="none" stroke-width="1" fill="none" fill-rule="evenodd">
        <g id="Artboard" transform="translate(-17297.000000, -11737.000000)" stroke="#C2C2C2">
            <rect id="Rectangle" x="17302.5" y="11742.5" width="432" height="396"></rect>
        </g>
        <g id="Artboard-4">
            <text id="Continuous-availabil" font-family="OpenSans-Regular, Open Sans" font-size="12" font-weight="normal" fill="#000000">
                <tspan x="152" y="363">Continuous availability</tspan>
            </text>
            <text id="No-availability" font-family="OpenSans-Regular, Open Sans" font-size="12" font-weight="normal" fill="#000000">
                <tspan x="178" y="103">No availability</tspan>
            </text>
            <g id="Page-1" opacity="0.400192482" transform="translate(131.000000, 182.000000)">
                <path d="M5,31 C2.238,31 0,28.762 0,26 L0,6 C0,3.238 2.238,1 5,1 L175,1 C177.762,1 180,3.238 180,6 L180,26 C180,28.762 177.762,31 175,31 L5,31 Z" id="Fill-1" fill="#D6D6D6"></path>
                <path d="M20,20.4375 C20,21.8185 18.881,22.9375 17.5,22.9375 C16.119,22.9375 15,21.8185 15,20.4375 C15,19.0565 16.119,17.9375 17.5,17.9375 C18.881,17.9375 20,19.0565 20,20.4375" id="Fill-3" fill="#F16667"></path>
                <path d="M20,11.4375 C20,12.8185 18.881,13.9375 17.5,13.9375 C16.119,13.9375 15,12.8185 15,11.4375 C15,10.0565 16.119,8.9375 17.5,8.9375 C18.881,8.9375 20,10.0565 20,11.4375" id="Fill-5" fill="#8DCC93"></path>
                <path d="M149,23.4375 L146,23.4375 C145.447,23.4375 145,22.9905 145,22.4375 L145,9.4375 C145,8.8845 145.447,8.4375 146,8.4375 L149,8.4375 C149.553,8.4375 150,8.8845 150,9.4375 L150,22.4375 C150,22.9905 149.553,23.4375 149,23.4375" id="Fill-7" fill="#C2C2C2"></path>
                <path d="M158.9961,23.4375 L156.0041,23.4375 C155.4491,23.4375 155.0001,22.9885 155.0001,22.4335 L155.0001,9.4415 C155.0001,8.8865 155.4491,8.4375 156.0041,8.4375 L158.9961,8.4375 C159.5511,8.4375 160.0001,8.8865 160.0001,9.4415 L160.0001,22.4335 C160.0001,22.9885 159.5511,23.4375 158.9961,23.4375" id="Fill-9" fill="#C2C2C2"></path>
                <path d="M169.0049,23.4375 L165.9949,23.4375 C165.4449,23.4375 164.9999,22.9925 164.9999,22.4425 L164.9999,9.4325 C164.9999,8.8825 165.4449,8.4375 165.9949,8.4375 L169.0049,8.4375 C169.5549,8.4375 169.9999,8.8825 169.9999,9.4325 L169.9999,22.4425 C169.9999,22.9925 169.5549,23.4375 169.0049,23.4375" id="Fill-11" fill="#C2C2C2"></path>
                <path d="M108,11.4961 L108,20.5041 C108,21.3301 107.33,22.0001 106.504,22.0001 L73.496,22.0001 C72.67,22.0001 72,21.3301 72,20.5041 L72,11.4961 C72,10.6701 72.67,10.0001 73.496,10.0001 L106.504,10.0001 C107.33,10.0001 108,10.6701 108,11.4961" id="Fill-13" fill="#C2C2C2"></path>
                <mask id="mask-2" fill="white">
                    <use xlink:href="#path-1"></use>
                </mask>
                <g id="Clip-16"></g>
                <polygon id="Fill-15" fill="#C2C2C2" mask="url(#mask-2)" points="20 43.0625 160 43.0625 160 31.0625 20 31.0625"></polygon>
            </g>
            <g id="Page-1-Copy-10" transform="translate(131.000000, 266.000000)">
                <path d="M175,31 L5,31 C2.238,31 0,28.762 0,26 L0,6 C0,3.238 2.238,1 5,1 L175,1 C177.762,1 180,3.238 180,6 L180,26 C180,28.762 177.762,31 175,31" id="Fill-1" fill="#D6D6D6"></path>
                <path d="M20,20.4375 C20,21.8185 18.881,22.9375 17.5,22.9375 C16.119,22.9375 15,21.8185 15,20.4375 C15,19.0565 16.119,17.9375 17.5,17.9375 C18.881,17.9375 20,19.0565 20,20.4375" id="Fill-3" fill="#F16667"></path>
                <path d="M20,11.4375 C20,12.8185 18.881,13.9375 17.5,13.9375 C16.119,13.9375 15,12.8185 15,11.4375 C15,10.0565 16.119,8.9375 17.5,8.9375 C18.881,8.9375 20,10.0565 20,11.4375" id="Fill-5" fill="#8DCC93"></path>
                <path d="M149,23.4375 L146,23.4375 C145.447,23.4375 145,22.9905 145,22.4375 L145,9.4375 C145,8.8845 145.447,8.4375 146,8.4375 L149,8.4375 C149.553,8.4375 150,8.8845 150,9.4375 L150,22.4375 C150,22.9905 149.553,23.4375 149,23.4375" id="Fill-7" fill="#C2C2C2"></path>
                <path d="M158.9961,23.4375 L156.0041,23.4375 C155.4491,23.4375 155.0001,22.9885 155.0001,22.4335 L155.0001,9.4415 C155.0001,8.8865 155.4491,8.4375 156.0041,8.4375 L158.9961,8.4375 C159.5511,8.4375 160.0001,8.8865 160.0001,9.4415 L160.0001,22.4335 C160.0001,22.9885 159.5511,23.4375 158.9961,23.4375" id="Fill-9" fill="#C2C2C2"></path>
                <path d="M169.0049,23.4375 L165.9949,23.4375 C165.4449,23.4375 164.9999,22.9925 164.9999,22.4425 L164.9999,9.4325 C164.9999,8.8825 165.4449,8.4375 165.9949,8.4375 L169.0049,8.4375 C169.5549,8.4375 169.9999,8.8825 169.9999,9.4325 L169.9999,22.4425 C169.9999,22.9925 169.5549,23.4375 169.0049,23.4375" id="Fill-11" fill="#C2C2C2"></path>
                <path d="M108,11.4961 L108,20.5041 C108,21.3301 107.33,22.0001 106.504,22.0001 L73.496,22.0001 C72.67,22.0001 72,21.3301 72,20.5041 L72,11.4961 C72,10.6701 72.67,10.0001 73.496,10.0001 L106.504,10.0001 C107.33,10.0001 108,10.6701 108,11.4961" id="Fill-13" fill="#C2C2C2"></path>
                <mask id="mask-4" fill="white">
                    <use xlink:href="#path-3"></use>
                </mask>
                <g id="Clip-16"></g>
                <polygon id="Fill-15" fill="#C2C2C2" mask="url(#mask-4)" points="20 43.0625 160 43.0625 160 31.0625 20 31.0625"></polygon>
            </g>
            <g id="Page-1-Copy-9" transform="translate(131.000000, 224.000000)">
                <path d="M5,31 C2.238,31 0,28.762 0,26 L0,6 C0,3.238 2.238,1 5,1 L175,1 C177.762,1 180,3.238 180,6 L180,26 C180,28.762 177.762,31 175,31 L5,31 Z" id="Fill-1" fill="#D6D6D6"></path>
                <path d="M20,20.4375 C20,21.8185 18.881,22.9375 17.5,22.9375 C16.119,22.9375 15,21.8185 15,20.4375 C15,19.0565 16.119,17.9375 17.5,17.9375 C18.881,17.9375 20,19.0565 20,20.4375" id="Fill-3" fill="#F16667"></path>
                <path d="M20,11.4375 C20,12.8185 18.881,13.9375 17.5,13.9375 C16.119,13.9375 15,12.8185 15,11.4375 C15,10.0565 16.119,8.9375 17.5,8.9375 C18.881,8.9375 20,10.0565 20,11.4375" id="Fill-5" fill="#8DCC93"></path>
                <path d="M149,23.4375 L146,23.4375 C145.447,23.4375 145,22.9905 145,22.4375 L145,9.4375 C145,8.8845 145.447,8.4375 146,8.4375 L149,8.4375 C149.553,8.4375 150,8.8845 150,9.4375 L150,22.4375 C150,22.9905 149.553,23.4375 149,23.4375" id="Fill-7" fill="#C2C2C2"></path>
                <path d="M158.9961,23.4375 L156.0041,23.4375 C155.4491,23.4375 155.0001,22.9885 155.0001,22.4335 L155.0001,9.4415 C155.0001,8.8865 155.4491,8.4375 156.0041,8.4375 L158.9961,8.4375 C159.5511,8.4375 160.0001,8.8865 160.0001,9.4415 L160.0001,22.4335 C160.0001,22.9885 159.5511,23.4375 158.9961,23.4375" id="Fill-9" fill="#C2C2C2"></path>
                <path d="M169.0049,23.4375 L165.9949,23.4375 C165.4449,23.4375 164.9999,22.9925 164.9999,22.4425 L164.9999,9.4325 C164.9999,8.8825 165.4449,8.4375 165.9949,8.4375 L169.0049,8.4375 C169.5549,8.4375 169.9999,8.8825 169.9999,9.4325 L169.9999,22.4425 C169.9999,22.9925 169.5549,23.4375 169.0049,23.4375" id="Fill-11" fill="#C2C2C2"></path>
                <path d="M108,20.5041 C108,21.3301 107.33,22.0001 106.504,22.0001 L73.496,22.0001 C72.67,22.0001 72,21.3301 72,20.5041 L72,11.4961 C72,10.6701 72.67,10.0001 73.496,10.0001 L106.504,10.0001 C107.33,10.0001 108,10.6701 108,11.4961 L108,20.5041 Z" id="Fill-13" fill="#C2C2C2"></path>
                <mask id="mask-6" fill="white">
                    <use xlink:href="#path-5"></use>
                </mask>
                <g id="Clip-16"></g>
                <polygon id="Fill-15" fill="#C2C2C2" mask="url(#mask-6)" points="20 43.0625 160 43.0625 160 31.0625 20 31.0625"></polygon>
            </g>
            <g id="Page-1-Copy-11" transform="translate(131.000000, 308.000000)">
                <path d="M175,31 L5,31 C2.238,31 0,28.762 0,26 L0,6 C0,3.238 2.238,1 5,1 L175,1 C177.762,1 180,3.238 180,6 L180,26 C180,28.762 177.762,31 175,31" id="Fill-1" fill="#D6D6D6"></path>
                <path d="M20,20.4375 C20,21.8185 18.881,22.9375 17.5,22.9375 C16.119,22.9375 15,21.8185 15,20.4375 C15,19.0565 16.119,17.9375 17.5,17.9375 C18.881,17.9375 20,19.0565 20,20.4375" id="Fill-3" fill="#F16667"></path>
                <path d="M20,11.4375 C20,12.8185 18.881,13.9375 17.5,13.9375 C16.119,13.9375 15,12.8185 15,11.4375 C15,10.0565 16.119,8.9375 17.5,8.9375 C18.881,8.9375 20,10.0565 20,11.4375" id="Fill-5" fill="#8DCC93"></path>
                <path d="M149,23.4375 L146,23.4375 C145.447,23.4375 145,22.9905 145,22.4375 L145,9.4375 C145,8.8845 145.447,8.4375 146,8.4375 L149,8.4375 C149.553,8.4375 150,8.8845 150,9.4375 L150,22.4375 C150,22.9905 149.553,23.4375 149,23.4375" id="Fill-7" fill="#C2C2C2"></path>
                <path d="M158.9961,23.4375 L156.0041,23.4375 C155.4491,23.4375 155.0001,22.9885 155.0001,22.4335 L155.0001,9.4415 C155.0001,8.8865 155.4491,8.4375 156.0041,8.4375 L158.9961,8.4375 C159.5511,8.4375 160.0001,8.8865 160.0001,9.4415 L160.0001,22.4335 C160.0001,22.9885 159.5511,23.4375 158.9961,23.4375" id="Fill-9" fill="#C2C2C2"></path>
                <path d="M169.0049,23.4375 L165.9949,23.4375 C165.4449,23.4375 164.9999,22.9925 164.9999,22.4425 L164.9999,9.4325 C164.9999,8.8825 165.4449,8.4375 165.9949,8.4375 L169.0049,8.4375 C169.5549,8.4375 169.9999,8.8825 169.9999,9.4325 L169.9999,22.4425 C169.9999,22.9925 169.5549,23.4375 169.0049,23.4375" id="Fill-11" fill="#C2C2C2"></path>
                <path d="M108,11.4961 L108,20.5041 C108,21.3301 107.33,22.0001 106.504,22.0001 L73.496,22.0001 C72.67,22.0001 72,21.3301 72,20.5041 L72,11.4961 C72,10.6701 72.67,10.0001 73.496,10.0001 L106.504,10.0001 C107.33,10.0001 108,10.6701 108,11.4961" id="Fill-13" fill="#C2C2C2"></path>
                <mask id="mask-8" fill="white">
                    <use xlink:href="#path-7"></use>
                </mask>
                <g id="Clip-16"></g>
            </g>
            <g id="remove-circle-1" transform="translate(302.000000, 173.000000)">
                <g id="Group" stroke-linecap="round" stroke-linejoin="round">
                    <path d="M14.4586185,2.791371 C17.680446,6.0131985 17.680446,11.236821 14.4586185,14.458596 C11.236791,17.6804235 6.0131685,17.6804235 2.7913935,14.458596 C-0.430434,11.2367685 -0.430434,6.013146 2.7913935,2.791371 C6.013221,-0.4304565 11.2368435,-0.4304565 14.4586185,2.791371" id="Shape" fill="#F16667"></path>
                    <path d="M11.805,5.445 L5.445,11.805" id="Shape" stroke="#FFFFFF"></path>
                    <path d="M11.805,11.805 L5.445,5.445" id="Shape" stroke="#FFFFFF"></path>
                </g>
                <polygon id="Shape" points="0 0 18 0 18 18 0 18"></polygon>
            </g>
            <g id="check-circle-2-copy-9" transform="translate(302.000000, 217.000000)" stroke-linecap="round" stroke-linejoin="round">
                <g id="Group">
                    <path d="M15.0988072,2.90120475 C18.4670797,6.26947725 18.4670797,11.7305047 15.0988072,15.0988298 C11.7305347,18.4671022 6.26950725,18.4671022 2.90118225,15.0988298 C-0.46709025,11.7305572 -0.46709025,6.26952975 2.90118225,2.90120475 C6.26945475,-0.46706775 11.7304822,-0.46706775 15.0988072,2.90120475" id="Shape" fill="#8DCC93"></path>
                    <polyline id="Shape" stroke="#FFFFFF" points="12.75 6.375 7.125 11.625 5.25 9.75"></polyline>
                </g>
            </g>
            <g id="check-circle-2-copy-11" transform="translate(302.000000, 257.000000)" stroke-linecap="round" stroke-linejoin="round">
                <g id="Group">
                    <path d="M15.0988072,2.90120475 C18.4670797,6.26947725 18.4670797,11.7305047 15.0988072,15.0988298 C11.7305347,18.4671022 6.26950725,18.4671022 2.90118225,15.0988298 C-0.46709025,11.7305572 -0.46709025,6.26952975 2.90118225,2.90120475 C6.26945475,-0.46706775 11.7304822,-0.46706775 15.0988072,2.90120475" id="Shape" fill="#8DCC93"></path>
                    <polyline id="Shape" stroke="#FFFFFF" points="12.75 6.375 7.125 11.625 5.25 9.75"></polyline>
                </g>
            </g>
            <g id="check-circle-2-copy-12" transform="translate(302.000000, 301.000000)" stroke-linecap="round" stroke-linejoin="round">
                <g id="Group">
                    <path d="M15.0988072,2.90120475 C18.4670797,6.26947725 18.4670797,11.7305047 15.0988072,15.0988298 C11.7305347,18.4671022 6.26950725,18.4671022 2.90118225,15.0988298 C-0.46709025,11.7305572 -0.46709025,6.26952975 2.90118225,2.90120475 C6.26945475,-0.46706775 11.7304822,-0.46706775 15.0988072,2.90120475" id="Shape" fill="#8DCC93"></path>
                    <polyline id="Shape" stroke="#FFFFFF" points="12.75 6.375 7.125 11.625 5.25 9.75"></polyline>
                </g>
            </g>
            <g id="Page-1" opacity="0.394474638" transform="translate(131.000000, 50.000000)">
                <path d="M175,30 L5,30 C2.238,30 0,27.762 0,25 L0,5 C0,2.238 2.238,0 5,0 L175,0 C177.762,0 180,2.238 180,5 L180,25 C180,27.762 177.762,30 175,30" id="Fill-1" fill="#D6D6D6"></path>
                <path d="M20,19.4375 C20,20.8185 18.881,21.9375 17.5,21.9375 C16.119,21.9375 15,20.8185 15,19.4375 C15,18.0565 16.119,16.9375 17.5,16.9375 C18.881,16.9375 20,18.0565 20,19.4375" id="Fill-3" fill="#F16667"></path>
                <path d="M20,10.4375 C20,11.8185 18.881,12.9375 17.5,12.9375 C16.119,12.9375 15,11.8185 15,10.4375 C15,9.0565 16.119,7.9375 17.5,7.9375 C18.881,7.9375 20,9.0565 20,10.4375" id="Fill-5" fill="#8DCC93"></path>
                <path d="M149,22.4375 L146,22.4375 C145.447,22.4375 145,21.9905 145,21.4375 L145,8.4375 C145,7.8845 145.447,7.4375 146,7.4375 L149,7.4375 C149.553,7.4375 150,7.8845 150,8.4375 L150,21.4375 C150,21.9905 149.553,22.4375 149,22.4375" id="Fill-7" fill="#C2C2C2"></path>
                <path d="M158.9961,22.4375 L156.0041,22.4375 C155.4491,22.4375 155.0001,21.9885 155.0001,21.4335 L155.0001,8.4415 C155.0001,7.8865 155.4491,7.4375 156.0041,7.4375 L158.9961,7.4375 C159.5511,7.4375 160.0001,7.8865 160.0001,8.4415 L160.0001,21.4335 C160.0001,21.9885 159.5511,22.4375 158.9961,22.4375" id="Fill-9" fill="#C2C2C2"></path>
                <path d="M169.0049,22.4375 L165.9949,22.4375 C165.4449,22.4375 164.9999,21.9925 164.9999,21.4425 L164.9999,8.4325 C164.9999,7.8825 165.4449,7.4375 165.9949,7.4375 L169.0049,7.4375 C169.5549,7.4375 169.9999,7.8825 169.9999,8.4325 L169.9999,21.4425 C169.9999,21.9925 169.5549,22.4375 169.0049,22.4375" id="Fill-11" fill="#C2C2C2"></path>
                <path d="M108,10.4961 L108,19.5041 C108,20.3301 107.33,21.0001 106.504,21.0001 L73.496,21.0001 C72.67,21.0001 72,20.3301 72,19.5041 L72,10.4961 C72,9.6701 72.67,9.0001 73.496,9.0001 L106.504,9.0001 C107.33,9.0001 108,9.6701 108,10.4961" id="Fill-13" fill="#C2C2C2"></path>
            </g>
            <g id="Page-1-Copy-3" transform="translate(103.500000, 241.500000) rotate(-90.000000) translate(-103.500000, -241.500000) translate(99.000000, 222.500000)" fill="#8DCC93">
                <polygon id="Fill-1" points="0 30 4.5 38 9 30"></polygon>
                <polygon id="Fill-2" points="3.375 30 5.625 30 5.625 0 3.375 0"></polygon>
            </g>
            <g id="Page-1-Copy-3" transform="translate(103.500000, 283.500000) rotate(-90.000000) translate(-103.500000, -283.500000) translate(99.000000, 264.500000)" fill="#8DCC93">
                <polygon id="Fill-1" points="0 30 4.5 38 9 30"></polygon>
                <polygon id="Fill-2" points="3.375 30 5.625 30 5.625 0 3.375 0"></polygon>
            </g>
            <g id="Page-1-Copy-3" transform="translate(104.000000, 325.500000) rotate(-90.000000) translate(-104.000000, -325.500000) translate(99.500000, 306.500000)" fill="#8DCC93">
                <polygon id="Fill-1" points="0 30 4.5 38 9 30"></polygon>
                <polygon id="Fill-2" points="3.375 30 5.625 30 5.625 0 3.375 0"></polygon>
            </g>
            <g id="Page-1-Copy-19" transform="translate(104.000000, 199.500000) rotate(-90.000000) translate(-104.000000, -199.500000) translate(99.500000, 180.500000)" fill="#F16667">
                <polygon id="Fill-1" points="0 30 4.5 38 9 30"></polygon>
                <polygon id="Fill-2" points="3.375 30 5.625 30 5.625 0 3.375 0"></polygon>
            </g>
            <g id="Page-1-Copy-22" transform="translate(103.500000, 66.000000) rotate(-90.000000) translate(-103.500000, -66.000000) translate(99.000000, 47.000000)" fill="#F16667">
                <polygon id="Fill-1" points="0 30 4.5 38 9 30"></polygon>
                <polygon id="Fill-2" points="3.375 30 5.625 30 5.625 0 3.375 0"></polygon>
            </g>
            <g id="remove-circle-1-copy-2" transform="translate(302.000000, 41.000000)">
                <g id="Group" stroke-linecap="round" stroke-linejoin="round">
                    <path d="M14.4586185,2.791371 C17.680446,6.0131985 17.680446,11.236821 14.4586185,14.458596 C11.236791,17.6804235 6.0131685,17.6804235 2.7913935,14.458596 C-0.430434,11.2367685 -0.430434,6.013146 2.7913935,2.791371 C6.013221,-0.4304565 11.2368435,-0.4304565 14.4586185,2.791371" id="Shape" fill="#F16667"></path>
                    <path d="M11.805,5.445 L5.445,11.805" id="Shape" stroke="#FFFFFF"></path>
                    <path d="M11.805,11.805 L5.445,5.445" id="Shape" stroke="#FFFFFF"></path>
                </g>
                <polygon id="Shape" points="0 0 18 0 18 18 0 18"></polygon>
            </g>
            <rect id="Rectangle-2" stroke="#D6D6D6" x="11.5" y="11.5" width="420" height="118"></rect>
            <rect id="Rectangle-2" stroke="#D6D6D6" x="11.5" y="135.5" width="420" height="260"></rect>
        </g>
    </g>
</svg>