<?xml version="1.0" encoding="UTF-8"?>
<svg width="800px" height="270px" viewBox="0 0 800 270" version="1.1" xmlns="http://www.w3.org/2000/svg" xmlns:xlink="http://www.w3.org/1999/xlink">
    <!-- Generator: Sketch 52.1 (67048) - http://www.bohemiancoding.com/sketch -->
    <title>backup-causal_clustering.transaction</title>
    <desc>Created with Sketch.</desc>
    <defs>
        <polygon id="path-1" points="0 0 118.999868 0 118.999868 72.9619792 0 72.9619792"></polygon>
        <polygon id="path-3" points="0 0 118.999868 0 118.999868 56 0 56"></polygon>
        <polygon id="path-5" points="0 90 119 90 119 0 0 0"></polygon>
    </defs>
    <g id="backup-causal_clustering.transaction" stroke="none" stroke-width="1" fill="none" fill-rule="evenodd">
        <rect id="Rectangle-45" stroke="#979797" x="5.5" y="5.5" width="789" height="259"></rect>
        <g id="Group-2" transform="translate(578.000000, 29.000000)">
            <rect id="Rectangle-15" fill="#C2C2C2" x="23" y="95" width="100" height="9"></rect>
            <rect id="Rectangle-15" fill="#C2C2C2" x="23" y="65" width="100" height="9"></rect>
            <path d="M134.388889,126 L11.6111111,126 C9.61633333,126 8,124.3588 8,122.333333 L8,107.666667 C8,105.6412 9.61633333,104 11.6111111,104 L134.388889,104 C136.383667,104 138,105.6412 138,107.666667 L138,122.333333 C138,124.3588 136.383667,126 134.388889,126" id="Fill-1" fill="#D6D6D6"></path>
            <path d="M22.4444444,118.254167 C22.4444444,119.2669 21.6362778,120.0875 20.6388889,120.0875 C19.6415,120.0875 18.8333333,119.2669 18.8333333,118.254167 C18.8333333,117.241433 19.6415,116.420833 20.6388889,116.420833 C21.6362778,116.420833 22.4444444,117.241433 22.4444444,118.254167" id="Fill-3" fill="#F16667"></path>
            <path d="M22.4444444,111.654167 C22.4444444,112.6669 21.6362778,113.4875 20.6388889,113.4875 C19.6415,113.4875 18.8333333,112.6669 18.8333333,111.654167 C18.8333333,110.641433 19.6415,109.820833 20.6388889,109.820833 C21.6362778,109.820833 22.4444444,110.641433 22.4444444,111.654167" id="Fill-5" fill="#8DCC93"></path>
            <path d="M115.611111,120.454167 L113.444444,120.454167 C113.045056,120.454167 112.722222,120.126367 112.722222,119.720833 L112.722222,110.1875 C112.722222,109.781967 113.045056,109.454167 113.444444,109.454167 L115.611111,109.454167 C116.0105,109.454167 116.333333,109.781967 116.333333,110.1875 L116.333333,119.720833 C116.333333,120.126367 116.0105,120.454167 115.611111,120.454167" id="Fill-7" fill="#C2C2C2"></path>
            <path d="M122.830517,120.454167 L120.669628,120.454167 C120.268794,120.454167 119.944517,120.1249 119.944517,119.7179 L119.944517,110.190433 C119.944517,109.783433 120.268794,109.454167 120.669628,109.454167 L122.830517,109.454167 C123.23135,109.454167 123.555628,109.783433 123.555628,110.190433 L123.555628,119.7179 C123.555628,120.1249 123.23135,120.454167 122.830517,120.454167" id="Fill-9" fill="#C2C2C2"></path>
            <path d="M130.059094,120.454167 L127.885206,120.454167 C127.487983,120.454167 127.166594,120.127833 127.166594,119.7245 L127.166594,110.183833 C127.166594,109.7805 127.487983,109.454167 127.885206,109.454167 L130.059094,109.454167 C130.456317,109.454167 130.777706,109.7805 130.777706,110.183833 L130.777706,119.7245 C130.777706,120.127833 130.456317,120.454167 130.059094,120.454167" id="Fill-11" fill="#C2C2C2"></path>
            <path d="M86,111.69714 L86,118.303007 C86,118.90874 85.5161111,119.400073 84.9195556,119.400073 L61.0804444,119.400073 C60.4838889,119.400073 60,118.90874 60,118.303007 L60,111.69714 C60,111.091407 60.4838889,110.600073 61.0804444,110.600073 L84.9195556,110.600073 C85.5161111,110.600073 86,111.091407 86,111.69714" id="Fill-13" fill="#C2C2C2"></path>
            <path d="M134.388889,96 L11.6111111,96 C9.61633333,96 8,94.3588 8,92.3333333 L8,77.6666667 C8,75.6412 9.61633333,74 11.6111111,74 L134.388889,74 C136.383667,74 138,75.6412 138,77.6666667 L138,92.3333333 C138,94.3588 136.383667,96 134.388889,96" id="Fill-1" fill="#D6D6D6"></path>
            <path d="M22.4444444,88.2541667 C22.4444444,89.2669 21.6362778,90.0875 20.6388889,90.0875 C19.6415,90.0875 18.8333333,89.2669 18.8333333,88.2541667 C18.8333333,87.2414333 19.6415,86.4208333 20.6388889,86.4208333 C21.6362778,86.4208333 22.4444444,87.2414333 22.4444444,88.2541667" id="Fill-3" fill="#F16667"></path>
            <path d="M22.4444444,81.6541667 C22.4444444,82.6669 21.6362778,83.4875 20.6388889,83.4875 C19.6415,83.4875 18.8333333,82.6669 18.8333333,81.6541667 C18.8333333,80.6414333 19.6415,79.8208333 20.6388889,79.8208333 C21.6362778,79.8208333 22.4444444,80.6414333 22.4444444,81.6541667" id="Fill-5" fill="#8DCC93"></path>
            <path d="M115.611111,90.4541667 L113.444444,90.4541667 C113.045056,90.4541667 112.722222,90.1263667 112.722222,89.7208333 L112.722222,80.1875 C112.722222,79.7819667 113.045056,79.4541667 113.444444,79.4541667 L115.611111,79.4541667 C116.0105,79.4541667 116.333333,79.7819667 116.333333,80.1875 L116.333333,89.7208333 C116.333333,90.1263667 116.0105,90.4541667 115.611111,90.4541667" id="Fill-7" fill="#C2C2C2"></path>
            <path d="M122.830517,90.4541667 L120.669628,90.4541667 C120.268794,90.4541667 119.944517,90.1249 119.944517,89.7179 L119.944517,80.1904333 C119.944517,79.7834333 120.268794,79.4541667 120.669628,79.4541667 L122.830517,79.4541667 C123.23135,79.4541667 123.555628,79.7834333 123.555628,80.1904333 L123.555628,89.7179 C123.555628,90.1249 123.23135,90.4541667 122.830517,90.4541667" id="Fill-9" fill="#C2C2C2"></path>
            <path d="M130.059094,90.4541667 L127.885206,90.4541667 C127.487983,90.4541667 127.166594,90.1278333 127.166594,89.7245 L127.166594,80.1838333 C127.166594,79.7805 127.487983,79.4541667 127.885206,79.4541667 L130.059094,79.4541667 C130.456317,79.4541667 130.777706,79.7805 130.777706,80.1838333 L130.777706,89.7245 C130.777706,90.1278333 130.456317,90.4541667 130.059094,90.4541667" id="Fill-11" fill="#C2C2C2"></path>
            <path d="M86,81.69714 L86,88.3030067 C86,88.90874 85.5161111,89.4000733 84.9195556,89.4000733 L61.0804444,89.4000733 C60.4838889,89.4000733 60,88.90874 60,88.3030067 L60,81.69714 C60,81.0914067 60.4838889,80.6000733 61.0804444,80.6000733 L84.9195556,80.6000733 C85.5161111,80.6000733 86,81.0914067 86,81.69714" id="Fill-13" fill="#C2C2C2"></path>
            <path d="M134.388889,65.6666667 L11.6111111,65.6666667 C9.61633333,65.6666667 8,64.0503333 8,62.0555556 L8,47.6111111 C8,45.6163333 9.61633333,44 11.6111111,44 L134.388889,44 C136.383667,44 138,45.6163333 138,47.6111111 L138,62.0555556 C138,64.0503333 136.383667,65.6666667 134.388889,65.6666667" id="Fill-1" fill="#D6D6D6"></path>
            <path d="M23.4444444,58.0381944 C23.4444444,59.0355833 22.6362778,59.84375 21.6388889,59.84375 C20.6415,59.84375 19.8333333,59.0355833 19.8333333,58.0381944 C19.8333333,57.0408056 20.6415,56.2326389 21.6388889,56.2326389 C22.6362778,56.2326389 23.4444444,57.0408056 23.4444444,58.0381944" id="Fill-3" fill="#F16667"></path>
            <path d="M23.4444444,51.5381944 C23.4444444,52.5355833 22.6362778,53.34375 21.6388889,53.34375 C20.6415,53.34375 19.8333333,52.5355833 19.8333333,51.5381944 C19.8333333,50.5408056 20.6415,49.7326389 21.6388889,49.7326389 C22.6362778,49.7326389 23.4444444,50.5408056 23.4444444,51.5381944" id="Fill-5" fill="#8DCC93"></path>
            <path d="M116.611111,60.2048611 L114.444444,60.2048611 C114.045056,60.2048611 113.722222,59.8820278 113.722222,59.4826389 L113.722222,50.09375 C113.722222,49.6943611 114.045056,49.3715278 114.444444,49.3715278 L116.611111,49.3715278 C117.0105,49.3715278 117.333333,49.6943611 117.333333,50.09375 L117.333333,59.4826389 C117.333333,59.8820278 117.0105,60.2048611 116.611111,60.2048611" id="Fill-7" fill="#C2C2C2"></path>
            <path d="M123.830517,60.2048611 L121.669628,60.2048611 C121.268794,60.2048611 120.944517,59.8805833 120.944517,59.47975 L120.944517,50.0966389 C120.944517,49.6958056 121.268794,49.3715278 121.669628,49.3715278 L123.830517,49.3715278 C124.23135,49.3715278 124.555628,49.6958056 124.555628,50.0966389 L124.555628,59.47975 C124.555628,59.8805833 124.23135,60.2048611 123.830517,60.2048611" id="Fill-9" fill="#C2C2C2"></path>
            <path d="M131.059094,60.2048611 L128.885206,60.2048611 C128.487983,60.2048611 128.166594,59.8834722 128.166594,59.48625 L128.166594,50.0901389 C128.166594,49.6929167 128.487983,49.3715278 128.885206,49.3715278 L131.059094,49.3715278 C131.456317,49.3715278 131.777706,49.6929167 131.777706,50.0901389 L131.777706,59.48625 C131.777706,59.8834722 131.456317,60.2048611 131.059094,60.2048611" id="Fill-11" fill="#C2C2C2"></path>
            <path d="M87,51.5805167 L87,58.0862944 C87,58.68285 86.5161111,59.1667389 85.9195556,59.1667389 L62.0804444,59.1667389 C61.4838889,59.1667389 61,58.68285 61,58.0862944 L61,51.5805167 C61,50.9839611 61.4838889,50.5000722 62.0804444,50.5000722 L85.9195556,50.5000722 C86.5161111,50.5000722 87,50.9839611 87,51.5805167" id="Fill-13" fill="#C2C2C2"></path>
            <text id="Causal-Clustering-Co" font-family="OpenSans-Regular, Open Sans" font-size="12" font-weight="normal" fill="#333333">
                <tspan x="28.1513672" y="13">Causal Clustering</tspan>
                <tspan x="0.0966796875" y="30">Core / Read Replica Servers</tspan>
            </text>
        </g>
        <rect id="Rectangle-43" stroke="#DFDFDF" x="514.5" y="16.5" width="269" height="224"></rect>
        <rect id="Rectangle-44" stroke="#DFDFDF" fill="#E8F5E9" x="514.5" y="169.5" width="269" height="65"></rect>
        <text id="causal_clustering.tr" font-family="CourierNewPSMT, Courier New" font-size="11" font-weight="normal" fill="#333333">
            <tspan x="524" y="186">causal_clustering.transaction_listen</tspan>
            <tspan x="524" y="198">_address=127.0.0.1:6000</tspan>
            <tspan x="524" y="210">causal_clustering.ssl_policy=</tspan>
            <tspan x="524" y="222">cluster_policy</tspan>
        </text>
        <rect id="Rectangle-44" stroke="#DFDFDF" fill="#E8F5E9" x="16.5" y="178.5" width="269" height="43"></rect>
        <text id="dbms.backup.ssl_poli" font-family="CourierNewPSMT, Courier New" font-size="11" font-weight="normal" fill="#333333">
            <tspan x="24" y="204">dbms.backup.ssl_policy=cluster_policy</tspan>
        </text>
        <rect id="Rectangle-43" stroke="#DFDFDF" x="16.5" y="16.5" width="269" height="224"></rect>
        <g id="Group" transform="translate(77.000000, 37.000000)">
            <text id="neo4j-admin-backup-c" font-family="OpenSans-Regular, Open Sans" font-size="12" font-weight="normal" fill="#333333">
                <tspan x="0" y="13">neo4j-admin backup client</tspan>
            </text>
            <g id="Page-1" transform="translate(14.000000, 31.000000)">
                <g id="Group-3">
                    <mask id="mask-2" fill="white">
                        <use xlink:href="#path-1"></use>
                    </mask>
                    <g id="Clip-2"></g>
                    <path d="M115.694312,72.9619792 L3.30542333,72.9619792 C1.48009556,72.9619792 -0.000132222222,71.6005292 -0.000132222222,69.9203125 L-0.000132222222,3.0413625 C-0.000132222222,1.36175417 1.48009556,-0.000304166667 3.30542333,-0.000304166667 L115.694312,-0.000304166667 C117.520301,-0.000304166667 118.999868,1.36175417 118.999868,3.0413625 L118.999868,69.9203125 C118.999868,71.6005292 117.520301,72.9619792 115.694312,72.9619792" id="Fill-1" fill="#D6D6D6" mask="url(#mask-2)"></path>
                </g>
                <path d="M59.5,62 C61.4334,62 63,63.3428 63,65 C63,66.6572 61.4334,68 59.5,68 C57.5673,68 56,66.6572 56,65 C56,63.3428 57.5673,62 59.5,62" id="Fill-4" fill="#C2C2C2"></path>
                <g id="Group-8">
                    <mask id="mask-4" fill="white">
                        <use xlink:href="#path-3"></use>
                    </mask>
                    <g id="Clip-7"></g>
                    <path d="M118.999868,3.04347826 L118.999868,56 L-0.000132222222,56 L-0.000132222222,3.04347826 C-0.000132222222,1.36226087 1.48009556,0 3.30542333,0 L115.694312,0 C117.520301,0 118.999868,1.36226087 118.999868,3.04347826" id="Fill-6" fill="#C2C2C2" mask="url(#mask-4)"></path>
                </g>
                <mask id="mask-6" fill="white">
                    <use xlink:href="#path-5"></use>
                </mask>
                <g id="Clip-10"></g>
                <polygon id="Fill-9" fill="#C2C2C2" mask="url(#mask-6)" points="41 87 78 87 78 73 41 73"></polygon>
                <polygon id="Fill-11" fill="#D6D6D6" mask="url(#mask-6)" points="36 90 84 90 84 88 36 88"></polygon>
                <rect id="Rectangle-46" stroke="#000000" fill="#000000" mask="url(#mask-6)" x="16.5" y="11.5" width="52" height="33"></rect>
            </g>
            <path d="M33.5,46.5 L48.5,46.5" id="Line-2" stroke="#8DCC93" stroke-linecap="square"></path>
            <path d="M33.5,49.5 L42.5,49.5" id="Line-2" stroke="#8DCC93" stroke-linecap="square"></path>
            <path d="M33.5,52.5 L45.5,52.5" id="Line-2" stroke="#8DCC93" stroke-linecap="square"></path>
            <path d="M33.5,55.5 L36.5,55.5" id="Line-2" stroke="#8DCC93" stroke-linecap="square"></path>
        </g>
        <text id="neo4j_admin-backup--" font-family="CourierNewPSMT, Courier New" font-size="10" font-weight="normal" fill="#333333">
            <tspan x="289" y="94">neo4j_admin backup --protocol=catchup</tspan>
            <tspan x="289" y="105">                   --from=neo01:6000</tspan>
        </text>
        <path d="M286.5,116.5 L513.5,117.5" id="Line-36" stroke="#979797" stroke-linecap="square" fill-rule="nonzero"></path>
        <text id="neo01" font-family="OpenSans-Italic, Open Sans" font-size="12" font-style="italic" font-weight="normal" fill="#333333">
            <tspan x="633" y="255">neo01</tspan>
        </text>
        <text id="neo-client" font-family="OpenSans-Italic, Open Sans" font-size="12" font-style="italic" font-weight="normal" fill="#333333">
            <tspan x="125" y="255">neo-client</tspan>
        </text>
    </g>
</svg>