<svg version="1.1" viewBox="0.0 0.0 960.0 540.0" fill="none" stroke="none" stroke-linecap="square" stroke-miterlimit="10" xmlns:xlink="http://www.w3.org/1999/xlink" xmlns="http://www.w3.org/2000/svg"><clipPath id="g145fe62d2d5_0_0.0"><path d="m0 0l960.0 0l0 540.0l-960.0 0l0 -540.0z" clip-rule="nonzero"/></clipPath><g clip-path="url(#g145fe62d2d5_0_0.0)"><path fill="#ffffff" d="m0 0l960.0 0l0 540.0l-960.0 0z" fill-rule="evenodd"/><path fill="#eeeeee" d="m47.417324 181.45145l133.90813 0l0 93.15485l-133.90813 0z" fill-rule="evenodd"/><path stroke="#595959" stroke-width="1.0" stroke-linejoin="round" stroke-linecap="butt" stroke-dasharray="4.0,3.0" d="m47.417324 181.45145l133.90813 0l0 93.15485l-133.90813 0z" fill-rule="evenodd"/><path fill="#000000" d="m63.917908 220.94887l0 -13.359375l9.15625 0l0 2.265625l-6.453125 0l0 3.15625l5.5625 0l0 2.265625l-5.5625 0l0 5.671875l-2.703125 0zm17.724106 0l0 -1.453125q-0.53125 0.78125 -1.390625 1.234375q-0.859375 0.4375 -1.8125 0.4375q-0.96875 0 -1.75 -0.421875q-0.765625 -0.4375 -1.125 -1.203125q-0.34375 -0.78125 -0.34375 -2.140625l0 -6.125l2.5625 0l0 4.4375q0 2.046875 0.140625 2.515625q0.140625 0.453125 0.515625 0.71875q0.375 0.265625 0.953125 0.265625q0.65625 0 1.171875 -0.359375q0.515625 -0.359375 0.703125 -0.890625q0.203125 -0.53125 0.203125 -2.609375l0 -4.078125l2.546875 0l0 9.671875l-2.375 0zm5.036606 0l0 -13.359375l2.5625 0l0 13.359375l-2.5625 0zm5.183304 0l0 -13.359375l2.5625 0l0 13.359375l-2.5625 0zm10.257233 0l0 -13.359375l2.5625 0l0 4.8125q1.171875 -1.34375 2.796875 -1.34375q1.765625 0 2.921875 1.28125q1.1562424 1.28125 1.1562424 3.671875q0 2.484375 -1.1874924 3.828125q-1.171875 1.328125 -2.859375 1.328125q-0.828125 0 -1.640625 -0.40625q-0.796875 -0.421875 -1.375 -1.234375l0 1.421875l-2.375 0zm2.53125 -5.046875q0 1.5 0.484375 2.21875q0.65625 1.03125 1.765625 1.03125q0.84375 0 1.4375 -0.71875q0.59375 -0.734375 0.59375 -2.296875q0 -1.65625 -0.609375 -2.390625q-0.59375 -0.734375 -1.53125 -0.734375q-0.921875 0 -1.53125 0.71875q-0.609375 0.71875 -0.609375 2.171875zm10.880348 -1.671875l-2.328125 -0.421875q0.40625 -1.40625 1.359375 -2.078125q0.953125 -0.671875 2.84375 -0.671875q1.703125 0 2.546875 0.40625q0.84375 0.40625 1.171875 1.03125q0.34375 0.625 0.34375 2.28125l-0.015625 3.0q0 1.265625 0.109375 1.875q0.125 0.609375 0.46875 1.296875l-2.53125 0q-0.109375 -0.25 -0.25 -0.75q-0.0625 -0.234375 -0.09375 -0.3125q-0.65625 0.640625 -1.40625 0.96875q-0.734375 0.3125 -1.59375 0.3125q-1.484375 0 -2.34375 -0.8125q-0.859375 -0.8125 -0.859375 -2.046875q0 -0.828125 0.390625 -1.46875q0.390625 -0.640625 1.09375 -0.96875q0.703125 -0.34375 2.03125 -0.609375q1.796875 -0.328125 2.484375 -0.625l0 -0.25q0 -0.75 -0.359375 -1.0625q-0.359375 -0.3125 -1.375 -0.3125q-0.6875 0 -1.078125 0.28125q-0.375 0.265625 -0.609375 0.9375zm3.421875 2.078125q-0.484375 0.15625 -1.5625 0.390625q-1.0625 0.21875 -1.390625 0.4375q-0.5 0.359375 -0.5 0.90625q0 0.53125 0.40625 0.9375q0.40625 0.390625 1.015625 0.390625q0.703125 0 1.328125 -0.46875q0.46875 -0.34375 0.609375 -0.84375q0.09375 -0.328125 0.09375 -1.25l0 -0.5zm13.4851 -2.171875l-2.53125 0.453125q-0.125 -0.75 -0.578125 -1.125q-0.453125 -0.390625 -1.171875 -0.390625q-0.9531326 0 -1.5312576 0.65625q-0.5625 0.65625 -0.5625 2.203125q0 1.734375 0.578125 2.4375q0.578125 0.703125 1.5468826 0.703125q0.734375 0 1.203125 -0.40625q0.46875 -0.421875 0.65625 -1.421875l2.515625 0.421875q-0.390625 1.734375 -1.515625 2.625q-1.109375 0.875 -2.96875 0.875q-2.1250076 0 -3.3906326 -1.328125q-1.25 -1.34375 -1.25 -3.71875q0 -2.390625 1.265625 -3.71875q1.265625 -1.34375 3.4218826 -1.34375q1.765625 0 2.796875 0.765625q1.046875 0.75 1.515625 2.3125zm1.8444672 6.8125l0 -13.359375l2.5625 0l0 7.09375l3.0 -3.40625l3.140625 0l-3.296875 3.53125l3.53125 6.140625l-2.75 0l-2.4375 -4.34375l-1.1875 1.25l0 3.09375l-2.5625 0zm16.828842 0l0 -1.453125q-0.53125 0.78125 -1.390625 1.234375q-0.859375 0.4375 -1.8125 0.4375q-0.96875 0 -1.75 -0.421875q-0.765625 -0.4375 -1.125 -1.203125q-0.34375 -0.78125 -0.34375 -2.140625l0 -6.125l2.5625 0l0 4.4375q0 2.046875 0.140625 2.515625q0.140625 0.453125 0.515625 0.71875q0.375 0.265625 0.953125 0.265625q0.65625 0 1.171875 -0.359375q0.515625 -0.359375 0.703125 -0.890625q0.203125 -0.53125 0.203125 -2.609375l0 -4.078125l2.546875 0l0 9.671875l-2.375 0zm4.958481 -9.671875l2.390625 0l0 1.421875q0.46875 -0.734375 1.25 -1.1875q0.796875 -0.453125 1.765625 -0.453125q1.6875 0 2.859375 1.328125q1.171875 1.3125 1.171875 3.671875q0 2.421875 -1.1875 3.765625q-1.1875 1.34375 -2.859375 1.34375q-0.8125 0 -1.46875 -0.3125q-0.640625 -0.328125 -1.359375 -1.09375l0 4.875l-2.5625 0l0 -13.359375zm2.53125 4.671875q0 1.625 0.640625 2.40625q0.65625 0.78125 1.578125 0.78125q0.90625 0 1.484375 -0.71875q0.59375 -0.71875 0.59375 -2.34375q0 -1.515625 -0.609375 -2.25q-0.609375 -0.75 -1.515625 -0.75q-0.9375 0 -1.5625 0.734375q-0.609375 0.71875 -0.609375 2.140625z" fill-rule="nonzero"/><path fill="#000000" d="m65.22675 236.54887l0 -7.875l0.984375 0l0 7.015625l3.890625 0l0 0.859375l-4.875 0zm9.184433 0.140625q-0.765625 0 -1.421875 -0.359375q-0.640625 -0.359375 -1.046875 -1.03125q-0.40625 -0.6875 -0.40625 -1.65625q0 -0.984375 0.40625 -1.65625q0.40625 -0.6875 1.046875 -1.046875q0.65625 -0.359375 1.421875 -0.359375q0.78125 0 1.421875 0.359375q0.65625 0.359375 1.0625 1.046875q0.40625 0.671875 0.40625 1.65625q0 0.96875 -0.40625 1.65625q-0.40625 0.671875 -1.0625 1.03125q-0.640625 0.359375 -1.421875 0.359375zm0 -0.8125q0.5625 0 0.984375 -0.28125q0.421875 -0.28125 0.640625 -0.78125q0.234375 -0.515625 0.234375 -1.171875q0 -0.671875 -0.234375 -1.171875q-0.21875 -0.515625 -0.640625 -0.796875q-0.421875 -0.28125 -0.984375 -0.28125q-0.5625 0 -0.984375 0.28125q-0.40625 0.28125 -0.640625 0.796875q-0.234375 0.5 -0.234375 1.171875q0 0.65625 0.234375 1.171875q0.234375 0.5 0.640625 0.78125q0.421875 0.28125 0.984375 0.28125zm4.981308 0.671875l-1.28125 -5.828125l0.984375 0l0.703125 3.375q0.078125 0.40625 0.140625 0.796875q0.0625 0.390625 0.125 0.8125l0.046875 0q0.046875 -0.421875 0.140625 -0.8125q0.09375 -0.390625 0.1875 -0.796875l0.71875 -3.015625l0.984375 0l0.703125 3.015625q0.09375 0.40625 0.203125 0.796875q0.109375 0.390625 0.15625 0.8125l0.046875 0q0.0625 -0.421875 0.109375 -0.8125q0.0625 -0.390625 0.15625 -0.796875l0.6875 -3.375l0.921875 0l-1.25 5.828125l-1.28125 0l-0.671875 -2.78125q-0.0625 -0.3125 -0.140625 -0.734375q-0.0625 -0.4375 -0.140625 -1.0l-0.046875 0q-0.078125 0.5625 -0.15625 1.0q-0.0625 0.421875 -0.140625 0.734375l-0.640625 2.78125l-1.265625 0zm9.778183 0.140625q-0.875 0 -1.59375 -0.359375q-0.703125 -0.359375 -1.125 -1.046875q-0.421875 -0.6875 -0.421875 -1.65625q0 -0.953125 0.421875 -1.640625q0.421875 -0.6875 1.09375 -1.046875q0.6875 -0.359375 1.46875 -0.359375q0.828125 0 1.421875 0.34375q0.59375 0.328125 0.90625 0.953125q0.328125 0.609375 0.328125 1.4375q0 0.15625 -0.015625 0.3125q0 0.15625 -0.03125 0.28125l-4.9375 0l0 -0.765625l4.34375 0l-0.25 0.28125q0 -1.03125 -0.46875 -1.546875q-0.46875 -0.53125 -1.28125 -0.53125q-0.53125 0 -1.0 0.265625q-0.453125 0.265625 -0.734375 0.78125q-0.28125 0.5 -0.28125 1.234375q0 0.75 0.296875 1.265625q0.3125 0.5 0.828125 0.765625q0.515625 0.25 1.15625 0.25q0.53125 0 0.953125 -0.15625q0.421875 -0.15625 0.828125 -0.40625l0.359375 0.65625q-0.4375 0.28125 -1.0 0.484375q-0.546875 0.203125 -1.265625 0.203125zm6.965683 0q-0.84375 0 -1.59375 -0.265625q-0.75 -0.28125 -1.265625 -0.640625l0.453125 -0.65625q0.5 0.359375 1.109375 0.578125q0.609375 0.21875 1.421875 0.21875q0.734375 0 1.09375 -0.265625q0.375 -0.28125 0.375 -0.640625q0 -0.171875 -0.0625 -0.3125q-0.0625 -0.140625 -0.25 -0.265625q-0.1875 -0.140625 -0.546875 -0.265625q-0.359375 -0.125 -0.96875 -0.234375q-1.125 -0.25 -1.703125 -0.65625q-0.5625 -0.40625 -0.5625 -1.046875q0 -0.71875 0.609375 -1.1875q0.609375 -0.46875 1.8125 -0.46875q0.671875 0 1.296875 0.21875q0.625 0.21875 1.046875 0.515625l-0.46875 0.640625q-0.40625 -0.296875 -0.90625 -0.453125q-0.5 -0.15625 -1.0625 -0.15625q-0.5 0 -0.796875 0.109375q-0.296875 0.109375 -0.421875 0.3125q-0.125 0.1875 -0.125 0.40625q0 0.375 0.40625 0.59375q0.40625 0.203125 1.296875 0.390625q0.96875 0.203125 1.484375 0.453125q0.53125 0.25 0.71875 0.578125q0.203125 0.3125 0.203125 0.765625q0 0.484375 -0.296875 0.875q-0.296875 0.375 -0.875 0.625q-0.578125 0.234375 -1.421875 0.234375zm8.215683 0q-0.859375 0 -1.359375 -0.296875q-0.484375 -0.3125 -0.703125 -0.84375q-0.203125 -0.546875 -0.203125 -1.265625l0 -2.765625l-1.640625 0l0 -0.734375l1.6875 -0.0625l0.125 -1.875l0.8125 0l0 1.875l2.875 0l0 0.796875l-2.875 0l0 2.78125q0 0.515625 0.125 0.875q0.140625 0.359375 0.46875 0.546875q0.328125 0.171875 0.890625 0.171875q0.421875 0 0.75 -0.0625q0.34375 -0.078125 0.65625 -0.203125l0.203125 0.71875q-0.390625 0.140625 -0.828125 0.234375q-0.4375 0.109375 -0.984375 0.109375zm14.400116 0q-0.859375 0 -1.359375 -0.296875q-0.484375 -0.3125 -0.703125 -0.84375q-0.203125 -0.546875 -0.203125 -1.265625l0 -2.765625l-1.640625 0l0 -0.734375l1.6875 -0.0625l0.125 -1.875l0.8125 0l0 1.875l2.875 0l0 0.796875l-2.875 0l0 2.78125q0 0.515625 0.125 0.875q0.140625 0.359375 0.46875 0.546875q0.328125 0.171875 0.890625 0.171875q0.421875 0 0.75 -0.0625q0.34375 -0.078125 0.65625 -0.203125l0.203125 0.71875q-0.390625 0.140625 -0.828125 0.234375q-0.4375 0.109375 -0.984375 0.109375zm3.231308 -0.140625l2.21875 -3.03125l-2.046875 -2.796875l1.09375 0l0.921875 1.28125q0.15625 0.234375 0.328125 0.484375q0.1875 0.25 0.359375 0.5l0.046875 0q0.15625 -0.25 0.328125 -0.5q0.171875 -0.265625 0.328125 -0.515625l0.875 -1.25l1.046875 0l-2.078125 2.890625l2.234375 2.9375l-1.078125 0l-1.03125 -1.34375q-0.171875 -0.25 -0.375 -0.515625q-0.1875 -0.28125 -0.390625 -0.546875l-0.046875 0q-0.171875 0.265625 -0.359375 0.53125q-0.171875 0.25 -0.359375 0.53125l-0.953125 1.34375l-1.0625 0zm14.650124 -4.875l0 -0.734375l5.171875 0l0 0.734375l-5.171875 0zm0 2.5625l0 -0.734375l5.171875 0l0 0.734375l-5.171875 0zm14.540741 2.3125l0 -0.8125l2.21875 0l0 -5.640625l-1.71875 0l0 -0.640625q0.453125 -0.0625 0.796875 -0.140625q0.359375 -0.078125 0.640625 -0.1875q0.296875 -0.109375 0.53125 -0.234375l0.734375 0l0 6.84375l2.0 0l0 0.8125l-5.203125 0z" fill-rule="nonzero"/><path fill="#000000" d="m64.5705 250.54887l0 -7.875l1.0 0l0 3.296875l3.296875 0l0 -3.296875l1.0 0l0 7.875l-1.0 0l0 -3.703125l-3.296875 0l0 3.703125l-1.0 0zm10.043808 0l0 -5.03125l-2.71875 0l0 -0.796875l3.703125 0l0 5.828125l-0.984375 0zm0.375 -7.0625q-0.328125 0 -0.5625 -0.203125q-0.21875 -0.203125 -0.21875 -0.5625q0 -0.34375 0.21875 -0.546875q0.234375 -0.21875 0.5625 -0.21875q0.34375 0 0.5625 0.21875q0.234375 0.203125 0.234375 0.546875q0 0.359375 -0.234375 0.5625q-0.21875 0.203125 -0.5625 0.203125zm6.575058 9.75q-0.84375 0 -1.453125 -0.203125q-0.59375 -0.1875 -0.921875 -0.546875q-0.3125 -0.359375 -0.3125 -0.875q0 -0.34375 0.25 -0.6875q0.25 -0.34375 0.71875 -0.609375l0 -0.046875q-0.234375 -0.125 -0.421875 -0.34375q-0.1875 -0.234375 -0.1875 -0.609375q0 -0.28125 0.171875 -0.5625q0.1875 -0.296875 0.53125 -0.53125l0 -0.046875q-0.296875 -0.234375 -0.515625 -0.609375q-0.203125 -0.390625 -0.203125 -0.90625q0 -0.640625 0.3125 -1.09375q0.328125 -0.46875 0.84375 -0.71875q0.515625 -0.265625 1.125 -0.265625q0.5 0 0.875 0.140625l2.40625 0l0 0.796875l-1.515625 0q0.203125 0.203125 0.34375 0.515625q0.15625 0.3125 0.15625 0.65625q0 0.625 -0.3125 1.078125q-0.296875 0.453125 -0.8125 0.703125q-0.5 0.234375 -1.140625 0.234375q-0.21875 0 -0.484375 -0.046875q-0.25 -0.0625 -0.484375 -0.171875q-0.21875 0.125 -0.34375 0.296875q-0.125 0.171875 -0.125 0.375q0 0.328125 0.3125 0.5q0.328125 0.171875 0.90625 0.171875l1.3125 0q1.125 0 1.671875 0.3125q0.546875 0.3125 0.546875 1.046875q0 0.546875 -0.40625 1.015625q-0.390625 0.46875 -1.125 0.75q-0.71875 0.28125 -1.71875 0.28125zm-0.0625 -5.203125q0.375 0 0.671875 -0.15625q0.3125 -0.171875 0.5 -0.484375q0.1875 -0.3125 0.1875 -0.734375q0 -0.40625 -0.1875 -0.703125q-0.1875 -0.3125 -0.5 -0.484375q-0.296875 -0.171875 -0.671875 -0.171875q-0.359375 0 -0.671875 0.171875q-0.296875 0.171875 -0.484375 0.484375q-0.1875 0.296875 -0.1875 0.703125q0 0.421875 0.1875 0.734375q0.1875 0.3125 0.484375 0.484375q0.3125 0.15625 0.671875 0.15625zm0.140625 4.484375q0.6875 0 1.171875 -0.171875q0.5 -0.171875 0.75 -0.4375q0.265625 -0.25 0.265625 -0.5625q0 -0.40625 -0.328125 -0.5625q-0.328125 -0.140625 -1.0 -0.140625l-1.140625 0q-0.25 0 -0.46875 -0.03125q-0.21875 -0.015625 -0.421875 -0.0625q-0.40625 0.234375 -0.578125 0.46875q-0.15625 0.25 -0.15625 0.5q0 0.453125 0.484375 0.71875q0.484375 0.28125 1.421875 0.28125zm4.684433 -1.96875l0 -8.546875l0.984375 0l0 2.328125l-0.046875 1.375l0.03125 0q0.4375 -0.46875 0.96875 -0.796875q0.53125 -0.328125 1.21875 -0.328125q1.03125 0 1.515625 0.59375q0.5 0.59375 0.5 1.75l0 3.625l-0.984375 0l0 -3.484375q0 -0.828125 -0.3125 -1.234375q-0.3125 -0.40625 -1.03125 -0.40625q-0.515625 0 -0.9375 0.265625q-0.40625 0.265625 -0.921875 0.796875l0 4.0625l-0.984375 0zm10.043808 0.140625q-0.875 0 -1.59375 -0.359375q-0.703125 -0.359375 -1.125 -1.046875q-0.421875 -0.6875 -0.421875 -1.65625q0 -0.953125 0.421875 -1.640625q0.421875 -0.6875 1.09375 -1.046875q0.6875 -0.359375 1.46875 -0.359375q0.828125 0 1.421875 0.34375q0.59375 0.328125 0.90625 0.953125q0.328125 0.609375 0.328125 1.4375q0 0.15625 -0.015625 0.3125q0 0.15625 -0.03125 0.28125l-4.9375 0l0 -0.765625l4.34375 0l-0.25 0.28125q0 -1.03125 -0.46875 -1.546875q-0.46875 -0.53125 -1.28125 -0.53125q-0.53125 0 -1.0 0.265625q-0.453125 0.265625 -0.734375 0.78125q-0.28125 0.5 -0.28125 1.234375q0 0.75 0.296875 1.265625q0.3125 0.5 0.828125 0.765625q0.515625 0.25 1.15625 0.25q0.53125 0 0.953125 -0.15625q0.421875 -0.15625 0.828125 -0.40625l0.359375 0.65625q-0.4375 0.28125 -1.0 0.484375q-0.546875 0.203125 -1.265625 0.203125zm6.965683 0q-0.84375 0 -1.59375 -0.265625q-0.75 -0.28125 -1.265625 -0.640625l0.453125 -0.65625q0.5 0.359375 1.109375 0.578125q0.609375 0.21875 1.421875 0.21875q0.734375 0 1.09375 -0.265625q0.375 -0.28125 0.375 -0.640625q0 -0.171875 -0.0625 -0.3125q-0.0625 -0.140625 -0.25 -0.265625q-0.1875 -0.140625 -0.546875 -0.265625q-0.359375 -0.125 -0.96875 -0.234375q-1.125 -0.25 -1.703125 -0.65625q-0.5625 -0.40625 -0.5625 -1.046875q0 -0.71875 0.609375 -1.1875q0.609375 -0.46875 1.8125 -0.46875q0.671875 0 1.296875 0.21875q0.625 0.21875 1.046875 0.515625l-0.46875 0.640625q-0.40625 -0.296875 -0.90625 -0.453125q-0.5 -0.15625 -1.0625 -0.15625q-0.5 0 -0.796875 0.109375q-0.296875 0.109375 -0.421875 0.3125q-0.125 0.1875 -0.125 0.40625q0 0.375 0.40625 0.59375q0.40625 0.203125 1.296875 0.390625q0.96875 0.203125 1.484375 0.453125q0.53125 0.25 0.71875 0.578125q0.203125 0.3125 0.203125 0.765625q0 0.484375 -0.296875 0.875q-0.296875 0.375 -0.875 0.625q-0.578125 0.234375 -1.421875 0.234375zm8.215683 0q-0.859375 0 -1.359375 -0.296875q-0.484375 -0.3125 -0.703125 -0.84375q-0.203125 -0.546875 -0.203125 -1.265625l0 -2.765625l-1.640625 0l0 -0.734375l1.6875 -0.0625l0.125 -1.875l0.8125 0l0 1.875l2.875 0l0 0.796875l-2.875 0l0 2.78125q0 0.515625 0.125 0.875q0.140625 0.359375 0.46875 0.546875q0.328125 0.171875 0.890625 0.171875q0.421875 0 0.75 -0.0625q0.34375 -0.078125 0.65625 -0.203125l0.203125 0.71875q-0.390625 0.140625 -0.828125 0.234375q-0.4375 0.109375 -0.984375 0.109375zm14.400116 0q-0.859375 0 -1.359375 -0.296875q-0.484375 -0.3125 -0.703125 -0.84375q-0.203125 -0.546875 -0.203125 -1.265625l0 -2.765625l-1.640625 0l0 -0.734375l1.6875 -0.0625l0.125 -1.875l0.8125 0l0 1.875l2.875 0l0 0.796875l-2.875 0l0 2.78125q0 0.515625 0.125 0.875q0.140625 0.359375 0.46875 0.546875q0.328125 0.171875 0.890625 0.171875q0.421875 0 0.75 -0.0625q0.34375 -0.078125 0.65625 -0.203125l0.203125 0.71875q-0.390625 0.140625 -0.828125 0.234375q-0.4375 0.109375 -0.984375 0.109375zm3.2313156 -0.140625l2.21875 -3.03125l-2.046875 -2.796875l1.09375 0l0.921875 1.28125q0.15625 0.234375 0.328125 0.484375q0.1875 0.25 0.359375 0.5l0.046875 0q0.15625 -0.25 0.328125 -0.5q0.171875 -0.265625 0.328125 -0.515625l0.875 -1.25l1.046875 0l-2.078125 2.890625l2.234375 2.9375l-1.078125 0l-1.03125 -1.34375q-0.171875 -0.25 -0.375 -0.515625q-0.1875 -0.28125 -0.390625 -0.546875l-0.046875 0q-0.171875 0.265625 -0.359375 0.53125q-0.171875 0.25 -0.359375 0.53125l-0.953125 1.34375l-1.0625 0zm14.650116 -4.875l0 -0.734375l5.171875 0l0 0.734375l-5.171875 0zm0 2.5625l0 -0.734375l5.171875 0l0 0.734375l-5.171875 0zm16.821991 2.453125q-0.6875 0 -1.203125 -0.140625q-0.515625 -0.15625 -0.90625 -0.390625q-0.375 -0.25 -0.65625 -0.515625l0.484375 -0.640625q0.265625 0.234375 0.5625 0.4375q0.3125 0.1875 0.703125 0.3125q0.390625 0.125 0.90625 0.125q0.53125 0 0.96875 -0.21875q0.453125 -0.21875 0.703125 -0.609375q0.265625 -0.390625 0.265625 -0.921875q0 -0.796875 -0.515625 -1.234375q-0.515625 -0.453125 -1.359375 -0.453125q-0.484375 0 -0.828125 0.125q-0.328125 0.125 -0.734375 0.34375l-0.53125 -0.328125l0.25 -3.6875l4.328125 0l0 0.859375l-3.453125 0l-0.203125 2.265625q0.328125 -0.15625 0.65625 -0.234375q0.328125 -0.078125 0.765625 -0.078125q0.734375 0 1.328125 0.25q0.59375 0.25 0.9375 0.78125q0.359375 0.53125 0.359375 1.359375q0 0.828125 -0.40625 1.421875q-0.40625 0.578125 -1.0625 0.875q-0.640625 0.296875 -1.359375 0.296875z" fill-rule="nonzero"/><path fill="#eeeeee" d="m229.34645 181.45145l133.90816 0l0 93.15485l-133.90816 0z" fill-rule="evenodd"/><path stroke="#595959" stroke-width="1.0" stroke-linejoin="round" stroke-linecap="butt" stroke-dasharray="4.0,3.0" d="m229.34645 181.45145l133.90816 0l0 93.15485l-133.90816 0z" fill-rule="evenodd"/><path fill="#000000" d="m246.85428 207.5895l4.9375 0q1.65625 0 2.53125 0.265625q1.1875 0.34375 2.015625 1.234375q0.84375 0.875 1.28125 2.15625q0.4375 1.28125 0.4375 3.15625q0 1.640625 -0.40625 2.84375q-0.5 1.453125 -1.4375 2.359375q-0.703125 0.671875 -1.890625 1.0625q-0.890625 0.28125 -2.390625 0.28125l-5.078125 0l0 -13.359375zm2.703125 2.265625l0 8.84375l2.015625 0q1.125 0 1.625 -0.125q0.65625 -0.171875 1.078125 -0.5625q0.4375 -0.390625 0.703125 -1.28125q0.28125 -0.90625 0.28125 -2.453125q0 -1.546875 -0.28125 -2.375q-0.265625 -0.828125 -0.765625 -1.28125q-0.484375 -0.46875 -1.234375 -0.640625q-0.5625 -0.125 -2.21875 -0.125l-1.203125 0zm10.769806 0.109375l0 -2.375l2.5625 0l0 2.375l-2.5625 0zm0 10.984375l0 -9.671875l2.5625 0l0 9.671875l-2.5625 0zm4.058319 -9.671875l1.421875 0l0 -0.734375q0 -1.21875 0.25 -1.8125q0.265625 -0.609375 0.953125 -0.984375q0.703125 -0.375 1.78125 -0.375q1.09375 0 2.140625 0.328125l-0.359375 1.78125q-0.609375 -0.140625 -1.171875 -0.140625q-0.546875 0 -0.796875 0.265625q-0.234375 0.25 -0.234375 0.984375l0 0.6875l1.90625 0l0 2.015625l-1.90625 0l0 7.65625l-2.5625 0l0 -7.65625l-1.421875 0l0 -2.015625zm6.212677 0l1.421875 0l0 -0.734375q0 -1.21875 0.25 -1.8125q0.265625 -0.609375 0.953125 -0.984375q0.703125 -0.375 1.78125 -0.375q1.09375 0 2.140625 0.328125l-0.359375 1.78125q-0.609375 -0.140625 -1.171875 -0.140625q-0.546875 0 -0.796875 0.265625q-0.234375 0.25 -0.234375 0.984375l0 0.6875l1.90625 0l0 2.015625l-1.90625 0l0 7.65625l-2.5625 0l0 -7.65625l-1.421875 0l0 -2.015625zm12.411591 9.671875l0 -13.359375l2.5625 0l0 4.8125q1.171875 -1.34375 2.796875 -1.34375q1.765625 0 2.921875 1.28125q1.15625 1.28125 1.15625 3.671875q0 2.484375 -1.1875 3.828125q-1.171875 1.328125 -2.859375 1.328125q-0.828125 0 -1.640625 -0.40625q-0.796875 -0.421875 -1.375 -1.234375l0 1.421875l-2.375 0zm2.53125 -5.046875q0 1.5 0.484375 2.21875q0.65625 1.03125 1.765625 1.03125q0.84375 0 1.4375 -0.71875q0.59375 -0.734375 0.59375 -2.296875q0 -1.65625 -0.609375 -2.390625q-0.59375 -0.734375 -1.53125 -0.734375q-0.921875 0 -1.53125 0.71875q-0.609375 0.71875 -0.609375 2.171875zm10.880371 -1.671875l-2.328125 -0.421875q0.40625 -1.40625 1.359375 -2.078125q0.953125 -0.671875 2.84375 -0.671875q1.703125 0 2.546875 0.40625q0.84375 0.40625 1.171875 1.03125q0.34375 0.625 0.34375 2.28125l-0.015625 3.0q0 1.265625 0.109375 1.875q0.125 0.609375 0.46875 1.296875l-2.53125 0q-0.109375 -0.25 -0.25 -0.75q-0.0625 -0.234375 -0.09375 -0.3125q-0.65625 0.640625 -1.40625 0.96875q-0.734375 0.3125 -1.59375 0.3125q-1.484375 0 -2.34375 -0.8125q-0.859375 -0.8125 -0.859375 -2.046875q0 -0.828125 0.390625 -1.46875q0.390625 -0.640625 1.09375 -0.96875q0.703125 -0.34375 2.03125 -0.609375q1.796875 -0.328125 2.484375 -0.625l0 -0.25q0 -0.75 -0.359375 -1.0625q-0.359375 -0.3125 -1.375 -0.3125q-0.6875 0 -1.078125 0.28125q-0.375 0.265625 -0.609375 0.9375zm3.421875 2.078125q-0.484375 0.15625 -1.5625 0.390625q-1.0625 0.21875 -1.390625 0.4375q-0.5 0.359375 -0.5 0.90625q0 0.53125 0.40625 0.9375q0.40625 0.390625 1.015625 0.390625q0.703125 0 1.328125 -0.46875q0.46875 -0.34375 0.609375 -0.84375q0.09375 -0.328125 0.09375 -1.25l0 -0.5zm13.485077 -2.171875l-2.53125 0.453125q-0.125 -0.75 -0.578125 -1.125q-0.453125 -0.390625 -1.171875 -0.390625q-0.953125 0 -1.53125 0.65625q-0.5625 0.65625 -0.5625 2.203125q0 1.734375 0.578125 2.4375q0.578125 0.703125 1.546875 0.703125q0.734375 0 1.203125 -0.40625q0.46875 -0.421875 0.65625 -1.421875l2.515625 0.421875q-0.390625 1.734375 -1.515625 2.625q-1.109375 0.875 -2.96875 0.875q-2.125 0 -3.390625 -1.328125q-1.25 -1.34375 -1.25 -3.71875q0 -2.390625 1.265625 -3.71875q1.265625 -1.34375 3.421875 -1.34375q1.765625 0 2.796875 0.765625q1.046875 0.75 1.515625 2.3125zm1.8444824 6.8125l0 -13.359375l2.5625 0l0 7.09375l3.0 -3.40625l3.140625 0l-3.296875 3.53125l3.53125 6.140625l-2.75 0l-2.4375 -4.34375l-1.1875 1.25l0 3.09375l-2.5625 0zm16.828827 0l0 -1.453125q-0.53125 0.78125 -1.390625 1.234375q-0.859375 0.4375 -1.8125 0.4375q-0.96875 0 -1.75 -0.421875q-0.765625 -0.4375 -1.125 -1.203125q-0.34375 -0.78125 -0.34375 -2.140625l0 -6.125l2.5625 0l0 4.4375q0 2.046875 0.140625 2.515625q0.140625 0.453125 0.515625 0.71875q0.375 0.265625 0.953125 0.265625q0.65625 0 1.171875 -0.359375q0.515625 -0.359375 0.703125 -0.890625q0.203125 -0.53125 0.203125 -2.609375l0 -4.078125l2.546875 0l0 9.671875l-2.375 0zm4.958496 -9.671875l2.390625 0l0 1.421875q0.46875 -0.734375 1.25 -1.1875q0.796875 -0.453125 1.765625 -0.453125q1.6875 0 2.859375 1.328125q1.171875 1.3125 1.171875 3.671875q0 2.421875 -1.1875 3.765625q-1.1875 1.34375 -2.859375 1.34375q-0.8125 0 -1.46875 -0.3125q-0.640625 -0.328125 -1.359375 -1.09375l0 4.875l-2.5625 0l0 -13.359375zm2.53125 4.671875q0 1.625 0.640625 2.40625q0.65625 0.78125 1.578125 0.78125q0.90625 0 1.484375 -0.71875q0.59375 -0.71875 0.59375 -2.34375q0 -1.515625 -0.609375 -2.25q-0.609375 -0.75 -1.515625 -0.75q-0.9375 0 -1.5625 0.734375q-0.609375 0.71875 -0.609375 2.140625z" fill-rule="nonzero"/><path fill="#000000" d="m247.15588 236.54887l0 -7.875l0.984375 0l0 7.015625l3.890625 0l0 0.859375l-4.875 0zm9.184448 0.140625q-0.76564026 0 -1.4218903 -0.359375q-0.640625 -0.359375 -1.046875 -1.03125q-0.40625 -0.6875 -0.40625 -1.65625q0 -0.984375 0.40625 -1.65625q0.40625 -0.6875 1.046875 -1.046875q0.65625 -0.359375 1.4218903 -0.359375q0.78125 0 1.421875 0.359375q0.65625 0.359375 1.0625 1.046875q0.40625 0.671875 0.40625 1.65625q0 0.96875 -0.40625 1.65625q-0.40625 0.671875 -1.0625 1.03125q-0.640625 0.359375 -1.421875 0.359375zm0 -0.8125q0.5625 0 0.984375 -0.28125q0.421875 -0.28125 0.640625 -0.78125q0.234375 -0.515625 0.234375 -1.171875q0 -0.671875 -0.234375 -1.171875q-0.21875 -0.515625 -0.640625 -0.796875q-0.421875 -0.28125 -0.984375 -0.28125q-0.56251526 0 -0.98439026 0.28125q-0.40625 0.28125 -0.640625 0.796875q-0.234375 0.5 -0.234375 1.171875q0 0.65625 0.234375 1.171875q0.234375 0.5 0.640625 0.78125q0.421875 0.28125 0.98439026 0.28125zm4.9812927 0.671875l-1.28125 -5.828125l0.984375 0l0.703125 3.375q0.078125 0.40625 0.140625 0.796875q0.0625 0.390625 0.125 0.8125l0.046875 0q0.046875 -0.421875 0.140625 -0.8125q0.09375 -0.390625 0.1875 -0.796875l0.71875 -3.015625l0.984375 0l0.703125 3.015625q0.09375 0.40625 0.203125 0.796875q0.109375 0.390625 0.15625 0.8125l0.046875 0q0.0625 -0.421875 0.109375 -0.8125q0.0625 -0.390625 0.15625 -0.796875l0.6875 -3.375l0.921875 0l-1.25 5.828125l-1.28125 0l-0.671875 -2.78125q-0.0625 -0.3125 -0.140625 -0.734375q-0.0625 -0.4375 -0.140625 -1.0l-0.046875 0q-0.078125 0.5625 -0.15625 1.0q-0.0625 0.421875 -0.140625 0.734375l-0.640625 2.78125l-1.265625 0zm9.778198 0.140625q-0.875 0 -1.59375 -0.359375q-0.703125 -0.359375 -1.125 -1.046875q-0.421875 -0.6875 -0.421875 -1.65625q0 -0.953125 0.421875 -1.640625q0.421875 -0.6875 1.09375 -1.046875q0.6875 -0.359375 1.46875 -0.359375q0.828125 0 1.421875 0.34375q0.59375 0.328125 0.90625 0.953125q0.328125 0.609375 0.328125 1.4375q0 0.15625 -0.015625 0.3125q0 0.15625 -0.03125 0.28125l-4.9375 0l0 -0.765625l4.34375 0l-0.25 0.28125q0 -1.03125 -0.46875 -1.546875q-0.46875 -0.53125 -1.28125 -0.53125q-0.53125 0 -1.0 0.265625q-0.453125 0.265625 -0.734375 0.78125q-0.28125 0.5 -0.28125 1.234375q0 0.75 0.296875 1.265625q0.3125 0.5 0.828125 0.765625q0.515625 0.25 1.15625 0.25q0.53125 0 0.953125 -0.15625q0.421875 -0.15625 0.828125 -0.40625l0.359375 0.65625q-0.4375 0.28125 -1.0 0.484375q-0.546875 0.203125 -1.265625 0.203125zm6.9656677 0q-0.84375 0 -1.59375 -0.265625q-0.75 -0.28125 -1.265625 -0.640625l0.453125 -0.65625q0.5 0.359375 1.109375 0.578125q0.609375 0.21875 1.421875 0.21875q0.734375 0 1.09375 -0.265625q0.375 -0.28125 0.375 -0.640625q0 -0.171875 -0.0625 -0.3125q-0.0625 -0.140625 -0.25 -0.265625q-0.1875 -0.140625 -0.546875 -0.265625q-0.359375 -0.125 -0.96875 -0.234375q-1.125 -0.25 -1.703125 -0.65625q-0.5625 -0.40625 -0.5625 -1.046875q0 -0.71875 0.609375 -1.1875q0.609375 -0.46875 1.8125 -0.46875q0.671875 0 1.296875 0.21875q0.625 0.21875 1.046875 0.515625l-0.46875 0.640625q-0.40625 -0.296875 -0.90625 -0.453125q-0.5 -0.15625 -1.0625 -0.15625q-0.5 0 -0.796875 0.109375q-0.296875 0.109375 -0.421875 0.3125q-0.125 0.1875 -0.125 0.40625q0 0.375 0.40625 0.59375q0.40625 0.203125 1.296875 0.390625q0.96875 0.203125 1.484375 0.453125q0.53125 0.25 0.71875 0.578125q0.203125 0.3125 0.203125 0.765625q0 0.484375 -0.296875 0.875q-0.296875 0.375 -0.875 0.625q-0.578125 0.234375 -1.421875 0.234375zm8.215698 0q-0.859375 0 -1.359375 -0.296875q-0.484375 -0.3125 -0.703125 -0.84375q-0.203125 -0.546875 -0.203125 -1.265625l0 -2.765625l-1.640625 0l0 -0.734375l1.6875 -0.0625l0.125 -1.875l0.8125 0l0 1.875l2.875 0l0 0.796875l-2.875 0l0 2.78125q0 0.515625 0.125 0.875q0.140625 0.359375 0.46875 0.546875q0.328125 0.171875 0.890625 0.171875q0.421875 0 0.75 -0.0625q0.34375 -0.078125 0.65625 -0.203125l0.203125 0.71875q-0.390625 0.140625 -0.828125 0.234375q-0.4375 0.109375 -0.984375 0.109375zm14.400116 0q-0.859375 0 -1.359375 -0.296875q-0.484375 -0.3125 -0.703125 -0.84375q-0.203125 -0.546875 -0.203125 -1.265625l0 -2.765625l-1.640625 0l0 -0.734375l1.6875 -0.0625l0.125 -1.875l0.8125 0l0 1.875l2.875 0l0 0.796875l-2.875 0l0 2.78125q0 0.515625 0.125 0.875q0.140625 0.359375 0.46875 0.546875q0.328125 0.171875 0.890625 0.171875q0.421875 0 0.75 -0.0625q0.34375 -0.078125 0.65625 -0.203125l0.203125 0.71875q-0.390625 0.140625 -0.828125 0.234375q-0.4375 0.109375 -0.984375 0.109375zm3.2312927 -0.140625l2.21875 -3.03125l-2.046875 -2.796875l1.09375 0l0.921875 1.28125q0.15625 0.234375 0.328125 0.484375q0.1875 0.25 0.359375 0.5l0.046875 0q0.15625 -0.25 0.328125 -0.5q0.171875 -0.265625 0.328125 -0.515625l0.875 -1.25l1.046875 0l-2.078125 2.890625l2.234375 2.9375l-1.078125 0l-1.03125 -1.34375q-0.171875 -0.25 -0.375 -0.515625q-0.1875 -0.28125 -0.390625 -0.546875l-0.046875 0q-0.171875 0.265625 -0.359375 0.53125q-0.171875 0.25 -0.359375 0.53125l-0.953125 1.34375l-1.0625 0zm14.650116 -4.875l0 -0.734375l5.171875 0l0 0.734375l-5.171875 0zm0 2.5625l0 -0.734375l5.171875 0l0 0.734375l-5.171875 0zm17.243866 2.453125q-0.625 0 -1.171875 -0.21875q-0.53125 -0.234375 -0.921875 -0.6875q-0.390625 -0.46875 -0.625 -1.15625q-0.21875 -0.6875 -0.21875 -1.625q0 -1.140625 0.265625 -1.953125q0.265625 -0.8125 0.71875 -1.3125q0.453125 -0.5 1.015625 -0.734375q0.578125 -0.25 1.203125 -0.25q0.703125 0 1.21875 0.234375q0.53125 0.234375 0.921875 0.578125l-0.546875 0.609375q-0.296875 -0.265625 -0.703125 -0.421875q-0.390625 -0.171875 -0.828125 -0.171875q-0.625 0 -1.15625 0.328125q-0.515625 0.3125 -0.859375 1.0625q-0.328125 0.75 -0.328125 2.03125q0 0.953125 0.234375 1.609375q0.234375 0.640625 0.6875 0.96875q0.453125 0.328125 1.09375 0.328125q0.453125 0 0.8125 -0.203125q0.375 -0.21875 0.578125 -0.59375q0.21875 -0.375 0.21875 -0.875q0 -0.796875 -0.421875 -1.203125q-0.421875 -0.421875 -1.203125 -0.421875q-0.453125 0 -0.984375 0.25q-0.53125 0.25 -1.015625 0.828125l-0.046875 -0.78125q0.484375 -0.46875 1.046875 -0.75q0.578125 -0.296875 1.171875 -0.296875q0.71875 0 1.25 0.265625q0.546875 0.265625 0.84375 0.796875q0.296875 0.53125 0.296875 1.3125q0 0.734375 -0.359375 1.28125q-0.34375 0.546875 -0.9375 0.859375q-0.578125 0.3125 -1.25 0.3125z" fill-rule="nonzero"/><path fill="#000000" d="m246.49963 250.54887l0 -7.875l1.0 0l0 3.296875l3.296875 0l0 -3.296875l1.0 0l0 7.875l-1.0 0l0 -3.703125l-3.296875 0l0 3.703125l-1.0 0zm10.043823 0l0 -5.03125l-2.7187653 0l0 -0.796875l3.7031403 0l0 5.828125l-0.984375 0zm0.375 -7.0625q-0.328125 0 -0.5625 -0.203125q-0.21875 -0.203125 -0.21875 -0.5625q0 -0.34375 0.21875 -0.546875q0.234375 -0.21875 0.5625 -0.21875q0.34375 0 0.5625 0.21875q0.234375 0.203125 0.234375 0.546875q0 0.359375 -0.234375 0.5625q-0.21875 0.203125 -0.5625 0.203125zm6.5750427 9.75q-0.84375 0 -1.453125 -0.203125q-0.59375 -0.1875 -0.921875 -0.546875q-0.3125 -0.359375 -0.3125 -0.875q0 -0.34375 0.25 -0.6875q0.25 -0.34375 0.71875 -0.609375l0 -0.046875q-0.234375 -0.125 -0.421875 -0.34375q-0.1875 -0.234375 -0.1875 -0.609375q0 -0.28125 0.171875 -0.5625q0.1875 -0.296875 0.53125 -0.53125l0 -0.046875q-0.296875 -0.234375 -0.515625 -0.609375q-0.203125 -0.390625 -0.203125 -0.90625q0 -0.640625 0.3125 -1.09375q0.328125 -0.46875 0.84375 -0.71875q0.515625 -0.265625 1.125 -0.265625q0.5 0 0.875 0.140625l2.40625 0l0 0.796875l-1.515625 0q0.203125 0.203125 0.34375 0.515625q0.15625 0.3125 0.15625 0.65625q0 0.625 -0.3125 1.078125q-0.296875 0.453125 -0.8125 0.703125q-0.5 0.234375 -1.140625 0.234375q-0.21875 0 -0.484375 -0.046875q-0.25 -0.0625 -0.484375 -0.171875q-0.21875 0.125 -0.34375 0.296875q-0.125 0.171875 -0.125 0.375q0 0.328125 0.3125 0.5q0.328125 0.171875 0.90625 0.171875l1.3125 0q1.125 0 1.671875 0.3125q0.546875 0.3125 0.546875 1.046875q0 0.546875 -0.40625 1.015625q-0.390625 0.46875 -1.125 0.75q-0.71875 0.28125 -1.71875 0.28125zm-0.0625 -5.203125q0.375 0 0.671875 -0.15625q0.3125 -0.171875 0.5 -0.484375q0.1875 -0.3125 0.1875 -0.734375q0 -0.40625 -0.1875 -0.703125q-0.1875 -0.3125 -0.5 -0.484375q-0.296875 -0.171875 -0.671875 -0.171875q-0.359375 0 -0.671875 0.171875q-0.296875 0.171875 -0.484375 0.484375q-0.1875 0.296875 -0.1875 0.703125q0 0.421875 0.1875 0.734375q0.1875 0.3125 0.484375 0.484375q0.3125 0.15625 0.671875 0.15625zm0.140625 4.484375q0.6875 0 1.171875 -0.171875q0.5 -0.171875 0.75 -0.4375q0.265625 -0.25 0.265625 -0.5625q0 -0.40625 -0.328125 -0.5625q-0.328125 -0.140625 -1.0 -0.140625l-1.140625 0q-0.25 0 -0.46875 -0.03125q-0.21875 -0.015625 -0.421875 -0.0625q-0.40625 0.234375 -0.578125 0.46875q-0.15625 0.25 -0.15625 0.5q0 0.453125 0.484375 0.71875q0.484375 0.28125 1.421875 0.28125zm4.6844482 -1.96875l0 -8.546875l0.984375 0l0 2.328125l-0.046875 1.375l0.03125 0q0.4375 -0.46875 0.96875 -0.796875q0.53125 -0.328125 1.21875 -0.328125q1.03125 0 1.515625 0.59375q0.5 0.59375 0.5 1.75l0 3.625l-0.984375 0l0 -3.484375q0 -0.828125 -0.3125 -1.234375q-0.3125 -0.40625 -1.03125 -0.40625q-0.515625 0 -0.9375 0.265625q-0.40625 0.265625 -0.921875 0.796875l0 4.0625l-0.984375 0zm10.043793 0.140625q-0.875 0 -1.59375 -0.359375q-0.703125 -0.359375 -1.125 -1.046875q-0.421875 -0.6875 -0.421875 -1.65625q0 -0.953125 0.421875 -1.640625q0.421875 -0.6875 1.09375 -1.046875q0.6875 -0.359375 1.46875 -0.359375q0.828125 0 1.421875 0.34375q0.59375 0.328125 0.90625 0.953125q0.328125 0.609375 0.328125 1.4375q0 0.15625 -0.015625 0.3125q0 0.15625 -0.03125 0.28125l-4.9375 0l0 -0.765625l4.34375 0l-0.25 0.28125q0 -1.03125 -0.46875 -1.546875q-0.46875 -0.53125 -1.28125 -0.53125q-0.53125 0 -1.0 0.265625q-0.453125 0.265625 -0.734375 0.78125q-0.28125 0.5 -0.28125 1.234375q0 0.75 0.296875 1.265625q0.3125 0.5 0.828125 0.765625q0.515625 0.25 1.15625 0.25q0.53125 0 0.953125 -0.15625q0.421875 -0.15625 0.828125 -0.40625l0.359375 0.65625q-0.4375 0.28125 -1.0 0.484375q-0.546875 0.203125 -1.265625 0.203125zm6.9656982 0q-0.84375 0 -1.59375 -0.265625q-0.75 -0.28125 -1.265625 -0.640625l0.453125 -0.65625q0.5 0.359375 1.109375 0.578125q0.609375 0.21875 1.421875 0.21875q0.734375 0 1.09375 -0.265625q0.375 -0.28125 0.375 -0.640625q0 -0.171875 -0.0625 -0.3125q-0.0625 -0.140625 -0.25 -0.265625q-0.1875 -0.140625 -0.546875 -0.265625q-0.359375 -0.125 -0.96875 -0.234375q-1.125 -0.25 -1.703125 -0.65625q-0.5625 -0.40625 -0.5625 -1.046875q0 -0.71875 0.609375 -1.1875q0.609375 -0.46875 1.8125 -0.46875q0.671875 0 1.296875 0.21875q0.625 0.21875 1.046875 0.515625l-0.46875 0.640625q-0.40625 -0.296875 -0.90625 -0.453125q-0.5 -0.15625 -1.0625 -0.15625q-0.5 0 -0.796875 0.109375q-0.296875 0.109375 -0.421875 0.3125q-0.125 0.1875 -0.125 0.40625q0 0.375 0.40625 0.59375q0.40625 0.203125 1.296875 0.390625q0.96875 0.203125 1.484375 0.453125q0.53125 0.25 0.71875 0.578125q0.203125 0.3125 0.203125 0.765625q0 0.484375 -0.296875 0.875q-0.296875 0.375 -0.875 0.625q-0.578125 0.234375 -1.421875 0.234375zm8.215668 0q-0.859375 0 -1.359375 -0.296875q-0.484375 -0.3125 -0.703125 -0.84375q-0.203125 -0.546875 -0.203125 -1.265625l0 -2.765625l-1.640625 0l0 -0.734375l1.6875 -0.0625l0.125 -1.875l0.8125 0l0 1.875l2.875 0l0 0.796875l-2.875 0l0 2.78125q0 0.515625 0.125 0.875q0.140625 0.359375 0.46875 0.546875q0.328125 0.171875 0.890625 0.171875q0.421875 0 0.75 -0.0625q0.34375 -0.078125 0.65625 -0.203125l0.203125 0.71875q-0.390625 0.140625 -0.828125 0.234375q-0.4375 0.109375 -0.984375 0.109375zm14.400116 0q-0.859375 0 -1.359375 -0.296875q-0.484375 -0.3125 -0.703125 -0.84375q-0.203125 -0.546875 -0.203125 -1.265625l0 -2.765625l-1.640625 0l0 -0.734375l1.6875 -0.0625l0.125 -1.875l0.8125 0l0 1.875l2.875 0l0 0.796875l-2.875 0l0 2.78125q0 0.515625 0.125 0.875q0.140625 0.359375 0.46875 0.546875q0.328125 0.171875 0.890625 0.171875q0.421875 0 0.75 -0.0625q0.34375 -0.078125 0.65625 -0.203125l0.203125 0.71875q-0.390625 0.140625 -0.828125 0.234375q-0.4375 0.109375 -0.984375 0.109375zm3.2313232 -0.140625l2.21875 -3.03125l-2.046875 -2.796875l1.09375 0l0.921875 1.28125q0.15625 0.234375 0.328125 0.484375q0.1875 0.25 0.359375 0.5l0.046875 0q0.15625 -0.25 0.328125 -0.5q0.171875 -0.265625 0.328125 -0.515625l0.875 -1.25l1.046875 0l-2.078125 2.890625l2.234375 2.9375l-1.078125 0l-1.03125 -1.34375q-0.171875 -0.25 -0.375 -0.515625q-0.1875 -0.28125 -0.390625 -0.546875l-0.046875 0q-0.171875 0.265625 -0.359375 0.53125q-0.171875 0.25 -0.359375 0.53125l-0.953125 1.34375l-1.0625 0zm14.650116 -4.875l0 -0.734375l5.171875 0l0 0.734375l-5.171875 0zm0 2.5625l0 -0.734375l5.171875 0l0 0.734375l-5.171875 0zm17.009491 2.453125q-0.859375 0 -1.5 -0.265625q-0.625 -0.265625 -0.96875 -0.75q-0.34375 -0.484375 -0.34375 -1.078125q0 -0.53125 0.234375 -0.921875q0.25 -0.390625 0.625 -0.65625q0.375 -0.265625 0.78125 -0.46875l0 -0.046875q-0.46875 -0.3125 -0.8125 -0.75q-0.34375 -0.4375 -0.34375 -1.03125q0 -0.59375 0.296875 -1.03125q0.3125 -0.453125 0.84375 -0.6875q0.53125 -0.25 1.21875 -0.25q1.125 0 1.75 0.578125q0.625 0.5625 0.625 1.453125q0 0.546875 -0.34375 1.03125q-0.328125 0.46875 -0.8125 0.796875l0 0.046875q0.421875 0.21875 0.75 0.46875q0.34375 0.25 0.546875 0.609375q0.203125 0.359375 0.203125 0.921875q0 0.5625 -0.328125 1.03125q-0.3125 0.453125 -0.921875 0.734375q-0.609375 0.265625 -1.5 0.265625zm0.59375 -4.3125q0.96875 -0.703125 0.96875 -1.546875q0 -0.359375 -0.1875 -0.671875q-0.171875 -0.3125 -0.515625 -0.484375q-0.34375 -0.1875 -0.84375 -0.1875q-0.625 0 -1.03125 0.34375q-0.40625 0.328125 -0.40625 0.890625q0 0.453125 0.265625 0.75q0.265625 0.296875 0.71875 0.515625q0.46875 0.203125 1.03125 0.390625zm-0.578125 3.578125q0.859375 0 1.3125 -0.359375q0.46875 -0.375 0.46875 -0.984375q0 -0.390625 -0.1875 -0.65625q-0.1875 -0.28125 -0.515625 -0.453125q-0.3125 -0.1875 -0.75 -0.34375q-0.4375 -0.15625 -0.9375 -0.328125q-0.375 0.203125 -0.6875 0.453125q-0.296875 0.234375 -0.46875 0.53125q-0.15625 0.296875 -0.15625 0.6875q0 0.421875 0.234375 0.75q0.234375 0.328125 0.671875 0.515625q0.4375 0.1875 1.015625 0.1875z" fill-rule="nonzero"/><path fill="#eeeeee" d="m411.2756 181.45145l138.09445 0l0 93.15485l-138.09445 0z" fill-rule="evenodd"/><path stroke="#595959" stroke-width="1.0" stroke-linejoin="round" stroke-linecap="butt" stroke-dasharray="4.0,3.0" d="m411.2756 181.45145l138.09445 0l0 93.15485l-138.09445 0z" fill-rule="evenodd"/><path fill="#000000" d="m430.8766 207.5895l4.9375 0q1.65625 0 2.53125 0.265625q1.1875 0.34375 2.015625 1.234375q0.84375 0.875 1.28125 2.15625q0.4375 1.28125 0.4375 3.15625q0 1.640625 -0.40625 2.84375q-0.5 1.453125 -1.4375 2.359375q-0.703125 0.671875 -1.890625 1.0625q-0.890625 0.28125 -2.390625 0.28125l-5.078125 0l0 -13.359375zm2.703125 2.265625l0 8.84375l2.015625 0q1.125 0 1.625 -0.125q0.65625 -0.171875 1.078125 -0.5625q0.4375 -0.390625 0.703125 -1.28125q0.28125 -0.90625 0.28125 -2.453125q0 -1.546875 -0.28125 -2.375q-0.265625 -0.828125 -0.765625 -1.28125q-0.484375 -0.46875 -1.234375 -0.640625q-0.5625 -0.125 -2.21875 -0.125l-1.203125 0zm10.769806 0.109375l0 -2.375l2.5625 0l0 2.375l-2.5625 0zm0 10.984375l0 -9.671875l2.5625 0l0 9.671875l-2.5625 0zm4.058319 -9.671875l1.421875 0l0 -0.734375q0 -1.21875 0.25 -1.8125q0.265625 -0.609375 0.953125 -0.984375q0.703125 -0.375 1.78125 -0.375q1.09375 0 2.140625 0.328125l-0.359375 1.78125q-0.609375 -0.140625 -1.171875 -0.140625q-0.546875 0 -0.796875 0.265625q-0.234375 0.25 -0.234375 0.984375l0 0.6875l1.90625 0l0 2.015625l-1.90625 0l0 7.65625l-2.5625 0l0 -7.65625l-1.421875 0l0 -2.015625zm6.212677 0l1.421875 0l0 -0.734375q0 -1.21875 0.25 -1.8125q0.265625 -0.609375 0.953125 -0.984375q0.703125 -0.375 1.78125 -0.375q1.09375 0 2.140625 0.328125l-0.359375 1.78125q-0.609375 -0.140625 -1.171875 -0.140625q-0.546875 0 -0.796875 0.265625q-0.234375 0.25 -0.234375 0.984375l0 0.6875l1.90625 0l0 2.015625l-1.90625 0l0 7.65625l-2.5625 0l0 -7.65625l-1.421875 0l0 -2.015625zm12.411591 9.671875l0 -13.359375l2.5625 0l0 4.8125q1.171875 -1.34375 2.796875 -1.34375q1.765625 0 2.9219055 1.28125q1.15625 1.28125 1.15625 3.671875q0 2.484375 -1.1875 3.828125q-1.1719055 1.328125 -2.8594055 1.328125q-0.828125 0 -1.640625 -0.40625q-0.796875 -0.421875 -1.375 -1.234375l0 1.421875l-2.375 0zm2.53125 -5.046875q0 1.5 0.484375 2.21875q0.65625 1.03125 1.765625 1.03125q0.84375 0 1.4375 -0.71875q0.59375 -0.734375 0.59375 -2.296875q0 -1.65625 -0.609375 -2.390625q-0.59375 -0.734375 -1.53125 -0.734375q-0.921875 0 -1.53125 0.71875q-0.609375 0.71875 -0.609375 2.171875zm10.880371 -1.671875l-2.328125 -0.421875q0.40625 -1.40625 1.359375 -2.078125q0.953125 -0.671875 2.84375 -0.671875q1.703125 0 2.546875 0.40625q0.84375 0.40625 1.171875 1.03125q0.34375 0.625 0.34375 2.28125l-0.015625 3.0q0 1.265625 0.109375 1.875q0.125 0.609375 0.46875 1.296875l-2.53125 0q-0.109375 -0.25 -0.25 -0.75q-0.0625 -0.234375 -0.09375 -0.3125q-0.65625 0.640625 -1.40625 0.96875q-0.734375 0.3125 -1.59375 0.3125q-1.484375 0 -2.34375 -0.8125q-0.859375 -0.8125 -0.859375 -2.046875q0 -0.828125 0.390625 -1.46875q0.390625 -0.640625 1.09375 -0.96875q0.703125 -0.34375 2.03125 -0.609375q1.796875 -0.328125 2.484375 -0.625l0 -0.25q0 -0.75 -0.359375 -1.0625q-0.359375 -0.3125 -1.375 -0.3125q-0.6875 0 -1.078125 0.28125q-0.375 0.265625 -0.609375 0.9375zm3.421875 2.078125q-0.484375 0.15625 -1.5625 0.390625q-1.0625 0.21875 -1.390625 0.4375q-0.5 0.359375 -0.5 0.90625q0 0.53125 0.40625 0.9375q0.40625 0.390625 1.015625 0.390625q0.703125 0 1.328125 -0.46875q0.46875 -0.34375 0.609375 -0.84375q0.09375 -0.328125 0.09375 -1.25l0 -0.5zm13.485107 -2.171875l-2.53125 0.453125q-0.125 -0.75 -0.578125 -1.125q-0.453125 -0.390625 -1.171875 -0.390625q-0.953125 0 -1.53125 0.65625q-0.5625 0.65625 -0.5625 2.203125q0 1.734375 0.578125 2.4375q0.578125 0.703125 1.546875 0.703125q0.734375 0 1.203125 -0.40625q0.46875 -0.421875 0.65625 -1.421875l2.515625 0.421875q-0.390625 1.734375 -1.515625 2.625q-1.109375 0.875 -2.96875 0.875q-2.125 0 -3.390625 -1.328125q-1.25 -1.34375 -1.25 -3.71875q0 -2.390625 1.265625 -3.71875q1.265625 -1.34375 3.421875 -1.34375q1.765625 0 2.796875 0.765625q1.046875 0.75 1.515625 2.3125zm1.8444519 6.8125l0 -13.359375l2.5625 0l0 7.09375l3.0 -3.40625l3.140625 0l-3.296875 3.53125l3.53125 6.140625l-2.75 0l-2.4375 -4.34375l-1.1875 1.25l0 3.09375l-2.5625 0zm16.828827 0l0 -1.453125q-0.53125 0.78125 -1.390625 1.234375q-0.859375 0.4375 -1.8125 0.4375q-0.9687195 0 -1.7499695 -0.421875q-0.765625 -0.4375 -1.125 -1.203125q-0.34375 -0.78125 -0.34375 -2.140625l0 -6.125l2.5624695 0l0 4.4375q0 2.046875 0.140625 2.515625q0.140625 0.453125 0.515625 0.71875q0.375 0.265625 0.953125 0.265625q0.65625 0 1.171875 -0.359375q0.515625 -0.359375 0.703125 -0.890625q0.203125 -0.53125 0.203125 -2.609375l0 -4.078125l2.546875 0l0 9.671875l-2.375 0zm4.958496 -9.671875l2.390625 0l0 1.421875q0.46875 -0.734375 1.25 -1.1875q0.796875 -0.453125 1.765625 -0.453125q1.6875 0 2.859375 1.328125q1.171875 1.3125 1.171875 3.671875q0 2.421875 -1.1875 3.765625q-1.1875 1.34375 -2.859375 1.34375q-0.8125 0 -1.46875 -0.3125q-0.640625 -0.328125 -1.359375 -1.09375l0 4.875l-2.5625 0l0 -13.359375zm2.53125 4.671875q0 1.625 0.640625 2.40625q0.65625 0.78125 1.578125 0.78125q0.90625 0 1.484375 -0.71875q0.59375 -0.71875 0.59375 -2.34375q0 -1.515625 -0.609375 -2.25q-0.609375 -0.75 -1.515625 -0.75q-0.9375 0 -1.5625 0.734375q-0.609375 0.71875 -0.609375 2.140625z" fill-rule="nonzero"/><path fill="#000000" d="m429.08502 236.54887l0 -7.875l0.984375 0l0 7.015625l3.890625 0l0 0.859375l-4.875 0zm9.184448 0.140625q-0.765625 0 -1.421875 -0.359375q-0.640625 -0.359375 -1.046875 -1.03125q-0.40625 -0.6875 -0.40625 -1.65625q0 -0.984375 0.40625 -1.65625q0.40625 -0.6875 1.046875 -1.046875q0.65625 -0.359375 1.421875 -0.359375q0.78125 0 1.421875 0.359375q0.65625 0.359375 1.0625 1.046875q0.40625 0.671875 0.40625 1.65625q0 0.96875 -0.40625 1.65625q-0.40625 0.671875 -1.0625 1.03125q-0.640625 0.359375 -1.421875 0.359375zm0 -0.8125q0.5625 0 0.984375 -0.28125q0.421875 -0.28125 0.640625 -0.78125q0.234375 -0.515625 0.234375 -1.171875q0 -0.671875 -0.234375 -1.171875q-0.21875 -0.515625 -0.640625 -0.796875q-0.421875 -0.28125 -0.984375 -0.28125q-0.5625 0 -0.984375 0.28125q-0.40625 0.28125 -0.640625 0.796875q-0.234375 0.5 -0.234375 1.171875q0 0.65625 0.234375 1.171875q0.234375 0.5 0.640625 0.78125q0.421875 0.28125 0.984375 0.28125zm4.9812927 0.671875l-1.28125 -5.828125l0.984375 0l0.703125 3.375q0.078125 0.40625 0.140625 0.796875q0.0625 0.390625 0.125 0.8125l0.046875 0q0.046875 -0.421875 0.140625 -0.8125q0.09375 -0.390625 0.1875 -0.796875l0.71875 -3.015625l0.984375 0l0.703125 3.015625q0.09375 0.40625 0.203125 0.796875q0.109375 0.390625 0.15625 0.8125l0.046875 0q0.0625 -0.421875 0.109375 -0.8125q0.0625 -0.390625 0.15625 -0.796875l0.6875 -3.375l0.921875 0l-1.25 5.828125l-1.28125 0l-0.671875 -2.78125q-0.0625 -0.3125 -0.140625 -0.734375q-0.0625 -0.4375 -0.140625 -1.0l-0.046875 0q-0.078125 0.5625 -0.15625 1.0q-0.0625 0.421875 -0.140625 0.734375l-0.640625 2.78125l-1.265625 0zm9.778198 0.140625q-0.875 0 -1.59375 -0.359375q-0.703125 -0.359375 -1.125 -1.046875q-0.421875 -0.6875 -0.421875 -1.65625q0 -0.953125 0.421875 -1.640625q0.421875 -0.6875 1.09375 -1.046875q0.6875 -0.359375 1.46875 -0.359375q0.828125 0 1.421875 0.34375q0.59375 0.328125 0.90625 0.953125q0.328125 0.609375 0.328125 1.4375q0 0.15625 -0.015625 0.3125q0 0.15625 -0.03125 0.28125l-4.9375 0l0 -0.765625l4.34375 0l-0.25 0.28125q0 -1.03125 -0.46875 -1.546875q-0.46875 -0.53125 -1.28125 -0.53125q-0.53125 0 -1.0 0.265625q-0.453125 0.265625 -0.734375 0.78125q-0.28125 0.5 -0.28125 1.234375q0 0.75 0.296875 1.265625q0.3125 0.5 0.828125 0.765625q0.515625 0.25 1.15625 0.25q0.53125 0 0.953125 -0.15625q0.421875 -0.15625 0.828125 -0.40625l0.359375 0.65625q-0.4375 0.28125 -1.0 0.484375q-0.546875 0.203125 -1.265625 0.203125zm6.9656677 0q-0.84375 0 -1.59375 -0.265625q-0.75 -0.28125 -1.265625 -0.640625l0.453125 -0.65625q0.5 0.359375 1.109375 0.578125q0.609375 0.21875 1.421875 0.21875q0.734375 0 1.09375 -0.265625q0.375 -0.28125 0.375 -0.640625q0 -0.171875 -0.0625 -0.3125q-0.0625 -0.140625 -0.25 -0.265625q-0.1875 -0.140625 -0.546875 -0.265625q-0.359375 -0.125 -0.96875 -0.234375q-1.125 -0.25 -1.703125 -0.65625q-0.5625 -0.40625 -0.5625 -1.046875q0 -0.71875 0.609375 -1.1875q0.609375 -0.46875 1.8125 -0.46875q0.671875 0 1.296875 0.21875q0.625 0.21875 1.046875 0.515625l-0.46875 0.640625q-0.40625 -0.296875 -0.90625 -0.453125q-0.5 -0.15625 -1.0625 -0.15625q-0.5 0 -0.796875 0.109375q-0.296875 0.109375 -0.421875 0.3125q-0.125 0.1875 -0.125 0.40625q0 0.375 0.40625 0.59375q0.40625 0.203125 1.296875 0.390625q0.96875 0.203125 1.484375 0.453125q0.53125 0.25 0.71875 0.578125q0.203125 0.3125 0.203125 0.765625q0 0.484375 -0.296875 0.875q-0.296875 0.375 -0.875 0.625q-0.578125 0.234375 -1.421875 0.234375zm8.215698 0q-0.859375 0 -1.359375 -0.296875q-0.484375 -0.3125 -0.703125 -0.84375q-0.203125 -0.546875 -0.203125 -1.265625l0 -2.765625l-1.640625 0l0 -0.734375l1.6875 -0.0625l0.125 -1.875l0.8125 0l0 1.875l2.875 0l0 0.796875l-2.875 0l0 2.78125q0 0.515625 0.125 0.875q0.140625 0.359375 0.46875 0.546875q0.328125 0.171875 0.890625 0.171875q0.421875 0 0.75 -0.0625q0.34375 -0.078125 0.65625 -0.203125l0.203125 0.71875q-0.390625 0.140625 -0.828125 0.234375q-0.4375 0.109375 -0.984375 0.109375zm14.400116 0q-0.859375 0 -1.359375 -0.296875q-0.484375 -0.3125 -0.703125 -0.84375q-0.203125 -0.546875 -0.203125 -1.265625l0 -2.765625l-1.640625 0l0 -0.734375l1.6875 -0.0625l0.125 -1.875l0.8125 0l0 1.875l2.875 0l0 0.796875l-2.875 0l0 2.78125q0 0.515625 0.125 0.875q0.140625 0.359375 0.46875 0.546875q0.328125 0.171875 0.890625 0.171875q0.421875 0 0.75 -0.0625q0.34375 -0.078125 0.65625 -0.203125l0.203125 0.71875q-0.390625 0.140625 -0.828125 0.234375q-0.4375 0.109375 -0.984375 0.109375zm3.2312927 -0.140625l2.21875 -3.03125l-2.046875 -2.796875l1.09375 0l0.921875 1.28125q0.15625 0.234375 0.328125 0.484375q0.1875 0.25 0.359375 0.5l0.046875 0q0.15625 -0.25 0.328125 -0.5q0.171875 -0.265625 0.328125 -0.515625l0.875 -1.25l1.046875 0l-2.078125 2.890625l2.234375 2.9375l-1.078125 0l-1.03125 -1.34375q-0.171875 -0.25 -0.375 -0.515625q-0.1875 -0.28125 -0.390625 -0.546875l-0.046875 0q-0.171875 0.265625 -0.359375 0.53125q-0.171875 0.25 -0.359375 0.53125l-0.953125 1.34375l-1.0625 0zm14.650116 -4.875l0 -0.734375l5.171875 0l0 0.734375l-5.171875 0zm0 2.5625l0 -0.734375l5.171875 0l0 0.734375l-5.171875 0zm16.462616 2.453125q-0.703125 0 -1.234375 -0.234375q-0.53125 -0.234375 -0.890625 -0.5625l0.546875 -0.625q0.28125 0.265625 0.6875 0.4375q0.40625 0.171875 0.84375 0.171875q0.609375 0 1.140625 -0.328125q0.53125 -0.328125 0.859375 -1.078125q0.328125 -0.75 0.328125 -2.03125q0 -0.953125 -0.234375 -1.59375q-0.234375 -0.640625 -0.6875 -0.96875q-0.4375 -0.34375 -1.078125 -0.34375q-0.453125 0 -0.828125 0.21875q-0.359375 0.203125 -0.578125 0.578125q-0.21875 0.375 -0.21875 0.875q0 0.78125 0.421875 1.203125q0.421875 0.421875 1.21875 0.421875q0.453125 0 0.984375 -0.25q0.53125 -0.25 1.015625 -0.828125l0.03125 0.78125q-0.46875 0.46875 -1.046875 0.765625q-0.578125 0.28125 -1.171875 0.28125q-0.71875 0 -1.25 -0.265625q-0.53125 -0.265625 -0.84375 -0.796875q-0.296875 -0.53125 -0.296875 -1.3125q0 -0.734375 0.359375 -1.28125q0.359375 -0.5625 0.9375 -0.859375q0.578125 -0.3125 1.25 -0.3125q0.640625 0 1.171875 0.234375q0.53125 0.21875 0.921875 0.6875q0.40625 0.453125 0.625 1.140625q0.21875 0.6875 0.21875 1.625q0 1.140625 -0.265625 1.96875q-0.25 0.8125 -0.703125 1.3125q-0.453125 0.5 -1.03125 0.734375q-0.578125 0.234375 -1.203125 0.234375z" fill-rule="nonzero"/><path fill="#000000" d="m428.42877 250.54887l0 -7.875l1.0 0l0 3.296875l3.296875 0l0 -3.296875l1.0 0l0 7.875l-1.0 0l0 -3.703125l-3.296875 0l0 3.703125l-1.0 0zm10.043823 0l0 -5.03125l-2.71875 0l0 -0.796875l3.703125 0l0 5.828125l-0.984375 0zm0.375 -7.0625q-0.328125 0 -0.5625 -0.203125q-0.21875 -0.203125 -0.21875 -0.5625q0 -0.34375 0.21875 -0.546875q0.234375 -0.21875 0.5625 -0.21875q0.34375 0 0.5625 0.21875q0.234375 0.203125 0.234375 0.546875q0 0.359375 -0.234375 0.5625q-0.21875 0.203125 -0.5625 0.203125zm6.5750427 9.75q-0.84375 0 -1.453125 -0.203125q-0.59375 -0.1875 -0.921875 -0.546875q-0.3125 -0.359375 -0.3125 -0.875q0 -0.34375 0.25 -0.6875q0.25 -0.34375 0.71875 -0.609375l0 -0.046875q-0.234375 -0.125 -0.421875 -0.34375q-0.1875 -0.234375 -0.1875 -0.609375q0 -0.28125 0.171875 -0.5625q0.1875 -0.296875 0.53125 -0.53125l0 -0.046875q-0.296875 -0.234375 -0.515625 -0.609375q-0.203125 -0.390625 -0.203125 -0.90625q0 -0.640625 0.3125 -1.09375q0.328125 -0.46875 0.84375 -0.71875q0.515625 -0.265625 1.125 -0.265625q0.5 0 0.875 0.140625l2.40625 0l0 0.796875l-1.515625 0q0.203125 0.203125 0.34375 0.515625q0.15625 0.3125 0.15625 0.65625q0 0.625 -0.3125 1.078125q-0.296875 0.453125 -0.8125 0.703125q-0.5 0.234375 -1.140625 0.234375q-0.21875 0 -0.484375 -0.046875q-0.25 -0.0625 -0.484375 -0.171875q-0.21875 0.125 -0.34375 0.296875q-0.125 0.171875 -0.125 0.375q0 0.328125 0.3125 0.5q0.328125 0.171875 0.90625 0.171875l1.3125 0q1.125 0 1.671875 0.3125q0.546875 0.3125 0.546875 1.046875q0 0.546875 -0.40625 1.015625q-0.390625 0.46875 -1.125 0.75q-0.71875 0.28125 -1.71875 0.28125zm-0.0625 -5.203125q0.375 0 0.671875 -0.15625q0.3125 -0.171875 0.5 -0.484375q0.1875 -0.3125 0.1875 -0.734375q0 -0.40625 -0.1875 -0.703125q-0.1875 -0.3125 -0.5 -0.484375q-0.296875 -0.171875 -0.671875 -0.171875q-0.359375 0 -0.671875 0.171875q-0.296875 0.171875 -0.484375 0.484375q-0.1875 0.296875 -0.1875 0.703125q0 0.421875 0.1875 0.734375q0.1875 0.3125 0.484375 0.484375q0.3125 0.15625 0.671875 0.15625zm0.140625 4.484375q0.6875 0 1.171875 -0.171875q0.5 -0.171875 0.75 -0.4375q0.265625 -0.25 0.265625 -0.5625q0 -0.40625 -0.328125 -0.5625q-0.328125 -0.140625 -1.0 -0.140625l-1.140625 0q-0.25 0 -0.46875 -0.03125q-0.21875 -0.015625 -0.421875 -0.0625q-0.40625 0.234375 -0.578125 0.46875q-0.15625 0.25 -0.15625 0.5q0 0.453125 0.484375 0.71875q0.484375 0.28125 1.421875 0.28125zm4.6844482 -1.96875l0 -8.546875l0.984375 0l0 2.328125l-0.046875 1.375l0.03125 0q0.4375 -0.46875 0.96875 -0.796875q0.53125 -0.328125 1.21875 -0.328125q1.03125 0 1.515625 0.59375q0.5 0.59375 0.5 1.75l0 3.625l-0.984375 0l0 -3.484375q0 -0.828125 -0.3125 -1.234375q-0.3125 -0.40625 -1.03125 -0.40625q-0.515625 0 -0.9375 0.265625q-0.40625 0.265625 -0.921875 0.796875l0 4.0625l-0.984375 0zm10.043793 0.140625q-0.875 0 -1.59375 -0.359375q-0.703125 -0.359375 -1.125 -1.046875q-0.421875 -0.6875 -0.421875 -1.65625q0 -0.953125 0.421875 -1.640625q0.421875 -0.6875 1.09375 -1.046875q0.6875 -0.359375 1.46875 -0.359375q0.828125 0 1.421875 0.34375q0.59375 0.328125 0.90625 0.953125q0.328125 0.609375 0.328125 1.4375q0 0.15625 -0.015625 0.3125q0 0.15625 -0.03125 0.28125l-4.9375 0l0 -0.765625l4.34375 0l-0.25 0.28125q0 -1.03125 -0.46875 -1.546875q-0.46875 -0.53125 -1.28125 -0.53125q-0.53125 0 -1.0 0.265625q-0.453125 0.265625 -0.734375 0.78125q-0.28125 0.5 -0.28125 1.234375q0 0.75 0.296875 1.265625q0.3125 0.5 0.828125 0.765625q0.515625 0.25 1.15625 0.25q0.53125 0 0.953125 -0.15625q0.421875 -0.15625 0.828125 -0.40625l0.359375 0.65625q-0.4375 0.28125 -1.0 0.484375q-0.546875 0.203125 -1.265625 0.203125zm6.9656982 0q-0.84375 0 -1.59375 -0.265625q-0.75 -0.28125 -1.265625 -0.640625l0.453125 -0.65625q0.5 0.359375 1.109375 0.578125q0.609375 0.21875 1.421875 0.21875q0.734375 0 1.09375 -0.265625q0.375 -0.28125 0.375 -0.640625q0 -0.171875 -0.0625 -0.3125q-0.0625 -0.140625 -0.25 -0.265625q-0.1875 -0.140625 -0.546875 -0.265625q-0.359375 -0.125 -0.96875 -0.234375q-1.125 -0.25 -1.703125 -0.65625q-0.5625 -0.40625 -0.5625 -1.046875q0 -0.71875 0.609375 -1.1875q0.609375 -0.46875 1.8125 -0.46875q0.671875 0 1.296875 0.21875q0.625 0.21875 1.046875 0.515625l-0.46875 0.640625q-0.40625 -0.296875 -0.90625 -0.453125q-0.5 -0.15625 -1.0625 -0.15625q-0.5 0 -0.796875 0.109375q-0.296875 0.109375 -0.421875 0.3125q-0.125 0.1875 -0.125 0.40625q0 0.375 0.40625 0.59375q0.40625 0.203125 1.296875 0.390625q0.96875 0.203125 1.484375 0.453125q0.53125 0.25 0.71875 0.578125q0.203125 0.3125 0.203125 0.765625q0 0.484375 -0.296875 0.875q-0.296875 0.375 -0.875 0.625q-0.578125 0.234375 -1.421875 0.234375zm8.215668 0q-0.859375 0 -1.359375 -0.296875q-0.484375 -0.3125 -0.703125 -0.84375q-0.203125 -0.546875 -0.203125 -1.265625l0 -2.765625l-1.640625 0l0 -0.734375l1.6875 -0.0625l0.125 -1.875l0.8125 0l0 1.875l2.875 0l0 0.796875l-2.875 0l0 2.78125q0 0.515625 0.125 0.875q0.140625 0.359375 0.46875 0.546875q0.328125 0.171875 0.890625 0.171875q0.421875 0 0.75 -0.0625q0.34375 -0.078125 0.65625 -0.203125l0.203125 0.71875q-0.390625 0.140625 -0.828125 0.234375q-0.4375 0.109375 -0.984375 0.109375zm14.400116 0q-0.859375 0 -1.359375 -0.296875q-0.484375 -0.3125 -0.703125 -0.84375q-0.203125 -0.546875 -0.203125 -1.265625l0 -2.765625l-1.640625 0l0 -0.734375l1.6875 -0.0625l0.125 -1.875l0.8125 0l0 1.875l2.875 0l0 0.796875l-2.875 0l0 2.78125q0 0.515625 0.125 0.875q0.140625 0.359375 0.46875 0.546875q0.328125 0.171875 0.890625 0.171875q0.421875 0 0.75 -0.0625q0.34375 -0.078125 0.65625 -0.203125l0.203125 0.71875q-0.390625 0.140625 -0.828125 0.234375q-0.4375 0.109375 -0.984375 0.109375zm3.2313232 -0.140625l2.21875 -3.03125l-2.046875 -2.796875l1.09375 0l0.921875 1.28125q0.15625 0.234375 0.328125 0.484375q0.1875 0.25 0.359375 0.5l0.046875 0q0.15625 -0.25 0.328125 -0.5q0.171875 -0.265625 0.328125 -0.515625l0.875 -1.25l1.046875 0l-2.078125 2.890625l2.234375 2.9375l-1.078125 0l-1.03125 -1.34375q-0.171875 -0.25 -0.375 -0.515625q-0.1875 -0.28125 -0.390625 -0.546875l-0.046875 0q-0.171875 0.265625 -0.359375 0.53125q-0.171875 0.25 -0.359375 0.53125l-0.953125 1.34375l-1.0625 0zm14.650116 -4.875l0 -0.734375l5.1718445 0l0 0.734375l-5.1718445 0zm0 2.5625l0 -0.734375l5.1718445 0l0 0.734375l-5.1718445 0zm14.540741 2.3125l0 -0.8125l2.21875 0l0 -5.640625l-1.71875 0l0 -0.640625q0.453125 -0.0625 0.796875 -0.140625q0.359375 -0.078125 0.640625 -0.1875q0.296875 -0.109375 0.53125 -0.234375l0.734375 0l0 6.84375l2.0 0l0 0.8125l-5.203125 0zm6.9188232 0l0 -0.59375q1.296875 -1.140625 2.1875 -2.0q0.890625 -0.875 1.359375 -1.5625q0.46875 -0.703125 0.46875 -1.34375q0 -0.65625 -0.40625 -1.078125q-0.40625 -0.421875 -1.25 -0.421875q-0.546875 0 -1.015625 0.265625q-0.453125 0.265625 -0.828125 0.65625l-0.5625 -0.5625q0.515625 -0.515625 1.109375 -0.828125q0.59375 -0.328125 1.40625 -0.328125q0.765625 0 1.328125 0.28125q0.5625 0.28125 0.859375 0.78125q0.3125 0.5 0.3125 1.1875q0 0.71875 -0.453125 1.453125q-0.4375 0.734375 -1.234375 1.546875q-0.796875 0.8125 -1.84375 1.765625q0.359375 -0.03125 0.71875 -0.046875q0.359375 -0.03125 0.71875 -0.03125l2.515625 0l0 0.859375l-5.390625 0z" fill-rule="nonzero"/><path fill="#eeeeee" d="m759.1312 181.45145l138.09448 0l0 93.15485l-138.09448 0z" fill-rule="evenodd"/><path stroke="#595959" stroke-width="1.0" stroke-linejoin="round" stroke-linecap="butt" stroke-dasharray="4.0,3.0" d="m759.1312 181.45145l138.09448 0l0 93.15485l-138.09448 0z" fill-rule="evenodd"/><path fill="#000000" d="m777.725 220.94887l0 -13.359375l9.15625 0l0 2.265625l-6.453125 0l0 3.15625l5.5625 0l0 2.265625l-5.5625 0l0 5.671875l-2.703125 0zm17.724121 0l0 -1.453125q-0.53125 0.78125 -1.390625 1.234375q-0.859375 0.4375 -1.8125 0.4375q-0.96875 0 -1.75 -0.421875q-0.765625 -0.4375 -1.125 -1.203125q-0.34375 -0.78125 -0.34375 -2.140625l0 -6.125l2.5625 0l0 4.4375q0 2.046875 0.140625 2.515625q0.140625 0.453125 0.515625 0.71875q0.375 0.265625 0.953125 0.265625q0.65625 0 1.171875 -0.359375q0.515625 -0.359375 0.703125 -0.890625q0.203125 -0.53125 0.203125 -2.609375l0 -4.078125l2.546875 0l0 9.671875l-2.375 0zm5.036621 0l0 -13.359375l2.5625 0l0 13.359375l-2.5625 0zm5.1832886 0l0 -13.359375l2.5625 0l0 13.359375l-2.5625 0zm10.257263 0l0 -13.359375l2.5625 0l0 4.8125q1.171875 -1.34375 2.796875 -1.34375q1.765625 0 2.921875 1.28125q1.15625 1.28125 1.15625 3.671875q0 2.484375 -1.1875 3.828125q-1.171875 1.328125 -2.859375 1.328125q-0.828125 0 -1.640625 -0.40625q-0.796875 -0.421875 -1.375 -1.234375l0 1.421875l-2.375 0zm2.53125 -5.046875q0 1.5 0.484375 2.21875q0.65625 1.03125 1.765625 1.03125q0.84375 0 1.4375 -0.71875q0.59375 -0.734375 0.59375 -2.296875q0 -1.65625 -0.609375 -2.390625q-0.59375 -0.734375 -1.53125 -0.734375q-0.921875 0 -1.53125 0.71875q-0.609375 0.71875 -0.609375 2.171875zm10.88031 -1.671875l-2.328125 -0.421875q0.40625 -1.40625 1.359375 -2.078125q0.953125 -0.671875 2.84375 -0.671875q1.703125 0 2.546875 0.40625q0.84375 0.40625 1.171875 1.03125q0.34375 0.625 0.34375 2.28125l-0.015625 3.0q0 1.265625 0.109375 1.875q0.125 0.609375 0.46875 1.296875l-2.53125 0q-0.109375 -0.25 -0.25 -0.75q-0.0625 -0.234375 -0.09375 -0.3125q-0.65625 0.640625 -1.40625 0.96875q-0.734375 0.3125 -1.59375 0.3125q-1.484375 0 -2.34375 -0.8125q-0.859375 -0.8125 -0.859375 -2.046875q0 -0.828125 0.390625 -1.46875q0.390625 -0.640625 1.09375 -0.96875q0.703125 -0.34375 2.03125 -0.609375q1.796875 -0.328125 2.484375 -0.625l0 -0.25q0 -0.75 -0.359375 -1.0625q-0.359375 -0.3125 -1.375 -0.3125q-0.6875 0 -1.078125 0.28125q-0.375 0.265625 -0.609375 0.9375zm3.421875 2.078125q-0.484375 0.15625 -1.5625 0.390625q-1.0625 0.21875 -1.390625 0.4375q-0.5 0.359375 -0.5 0.90625q0 0.53125 0.40625 0.9375q0.40625 0.390625 1.015625 0.390625q0.703125 0 1.328125 -0.46875q0.46875 -0.34375 0.609375 -0.84375q0.09375 -0.328125 0.09375 -1.25l0 -0.5zm13.485107 -2.171875l-2.53125 0.453125q-0.125 -0.75 -0.578125 -1.125q-0.453125 -0.390625 -1.171875 -0.390625q-0.953125 0 -1.53125 0.65625q-0.5625 0.65625 -0.5625 2.203125q0 1.734375 0.578125 2.4375q0.578125 0.703125 1.546875 0.703125q0.734375 0 1.203125 -0.40625q0.46875 -0.421875 0.65625 -1.421875l2.515625 0.421875q-0.390625 1.734375 -1.515625 2.625q-1.109375 0.875 -2.96875 0.875q-2.125 0 -3.390625 -1.328125q-1.25 -1.34375 -1.25 -3.71875q0 -2.390625 1.265625 -3.71875q1.265625 -1.34375 3.421875 -1.34375q1.765625 0 2.796875 0.765625q1.046875 0.75 1.515625 2.3125zm1.8444824 6.8125l0 -13.359375l2.5625 0l0 7.09375l3.0 -3.40625l3.140625 0l-3.296875 3.53125l3.53125 6.140625l-2.75 0l-2.4375 -4.34375l-1.1875 1.25l0 3.09375l-2.5625 0zm16.828857 0l0 -1.453125q-0.53125 0.78125 -1.390625 1.234375q-0.859375 0.4375 -1.8125 0.4375q-0.96875 0 -1.75 -0.421875q-0.765625 -0.4375 -1.125 -1.203125q-0.34375 -0.78125 -0.34375 -2.140625l0 -6.125l2.5625 0l0 4.4375q0 2.046875 0.140625 2.515625q0.140625 0.453125 0.515625 0.71875q0.375 0.265625 0.953125 0.265625q0.65625 0 1.171875 -0.359375q0.515625 -0.359375 0.703125 -0.890625q0.203125 -0.53125 0.203125 -2.609375l0 -4.078125l2.546875 0l0 9.671875l-2.375 0zm4.958435 -9.671875l2.390625 0l0 1.421875q0.46875 -0.734375 1.25 -1.1875q0.796875 -0.453125 1.765625 -0.453125q1.6875 0 2.859375 1.328125q1.171875 1.3125 1.171875 3.671875q0 2.421875 -1.1875 3.765625q-1.1875 1.34375 -2.859375 1.34375q-0.8125 0 -1.46875 -0.3125q-0.640625 -0.328125 -1.359375 -1.09375l0 4.875l-2.5625 0l0 -13.359375zm2.53125 4.671875q0 1.625 0.640625 2.40625q0.65625 0.78125 1.578125 0.78125q0.90625 0 1.484375 -0.71875q0.59375 -0.71875 0.59375 -2.34375q0 -1.515625 -0.609375 -2.25q-0.609375 -0.75 -1.515625 -0.75q-0.9375 0 -1.5625 0.734375q-0.609375 0.71875 -0.609375 2.140625z" fill-rule="nonzero"/><path fill="#000000" d="m776.9407 236.54887l0 -7.875l0.984375 0l0 7.015625l3.890625 0l0 0.859375l-4.875 0zm9.184448 0.140625q-0.765625 0 -1.421875 -0.359375q-0.640625 -0.359375 -1.046875 -1.03125q-0.40625 -0.6875 -0.40625 -1.65625q0 -0.984375 0.40625 -1.65625q0.40625 -0.6875 1.046875 -1.046875q0.65625 -0.359375 1.421875 -0.359375q0.78125 0 1.421875 0.359375q0.65625 0.359375 1.0625 1.046875q0.40625 0.671875 0.40625 1.65625q0 0.96875 -0.40625 1.65625q-0.40625 0.671875 -1.0625 1.03125q-0.640625 0.359375 -1.421875 0.359375zm0 -0.8125q0.5625 0 0.984375 -0.28125q0.421875 -0.28125 0.640625 -0.78125q0.234375 -0.515625 0.234375 -1.171875q0 -0.671875 -0.234375 -1.171875q-0.21875 -0.515625 -0.640625 -0.796875q-0.421875 -0.28125 -0.984375 -0.28125q-0.5625 0 -0.984375 0.28125q-0.40625 0.28125 -0.640625 0.796875q-0.234375 0.5 -0.234375 1.171875q0 0.65625 0.234375 1.171875q0.234375 0.5 0.640625 0.78125q0.421875 0.28125 0.984375 0.28125zm4.981262 0.671875l-1.28125 -5.828125l0.984375 0l0.703125 3.375q0.078125 0.40625 0.140625 0.796875q0.0625 0.390625 0.125 0.8125l0.046875 0q0.046875 -0.421875 0.140625 -0.8125q0.09375 -0.390625 0.1875 -0.796875l0.71875 -3.015625l0.984375 0l0.703125 3.015625q0.09375 0.40625 0.203125 0.796875q0.109375 0.390625 0.15625 0.8125l0.046875 0q0.0625 -0.421875 0.109375 -0.8125q0.0625 -0.390625 0.15625 -0.796875l0.6875 -3.375l0.921875 0l-1.25 5.828125l-1.28125 0l-0.671875 -2.78125q-0.0625 -0.3125 -0.140625 -0.734375q-0.0625 -0.4375 -0.140625 -1.0l-0.046875 0q-0.078125 0.5625 -0.15625 1.0q-0.0625 0.421875 -0.140625 0.734375l-0.640625 2.78125l-1.265625 0zm9.778198 0.140625q-0.875 0 -1.59375 -0.359375q-0.703125 -0.359375 -1.125 -1.046875q-0.421875 -0.6875 -0.421875 -1.65625q0 -0.953125 0.421875 -1.640625q0.421875 -0.6875 1.09375 -1.046875q0.6875 -0.359375 1.46875 -0.359375q0.828125 0 1.421875 0.34375q0.59375 0.328125 0.90625 0.953125q0.328125 0.609375 0.328125 1.4375q0 0.15625 -0.015625 0.3125q0 0.15625 -0.03125 0.28125l-4.9375 0l0 -0.765625l4.34375 0l-0.25 0.28125q0 -1.03125 -0.46875 -1.546875q-0.46875 -0.53125 -1.28125 -0.53125q-0.53125 0 -1.0 0.265625q-0.453125 0.265625 -0.734375 0.78125q-0.28125 0.5 -0.28125 1.234375q0 0.75 0.296875 1.265625q0.3125 0.5 0.828125 0.765625q0.515625 0.25 1.15625 0.25q0.53125 0 0.953125 -0.15625q0.421875 -0.15625 0.828125 -0.40625l0.359375 0.65625q-0.4375 0.28125 -1.0 0.484375q-0.546875 0.203125 -1.265625 0.203125zm6.9656982 0q-0.84375 0 -1.59375 -0.265625q-0.75 -0.28125 -1.265625 -0.640625l0.453125 -0.65625q0.5 0.359375 1.109375 0.578125q0.609375 0.21875 1.421875 0.21875q0.734375 0 1.09375 -0.265625q0.375 -0.28125 0.375 -0.640625q0 -0.171875 -0.0625 -0.3125q-0.0625 -0.140625 -0.25 -0.265625q-0.1875 -0.140625 -0.546875 -0.265625q-0.359375 -0.125 -0.96875 -0.234375q-1.125 -0.25 -1.703125 -0.65625q-0.5625 -0.40625 -0.5625 -1.046875q0 -0.71875 0.609375 -1.1875q0.609375 -0.46875 1.8125 -0.46875q0.671875 0 1.296875 0.21875q0.625 0.21875 1.046875 0.515625l-0.46875 0.640625q-0.40625 -0.296875 -0.90625 -0.453125q-0.5 -0.15625 -1.0625 -0.15625q-0.5 0 -0.796875 0.109375q-0.296875 0.109375 -0.421875 0.3125q-0.125 0.1875 -0.125 0.40625q0 0.375 0.40625 0.59375q0.40625 0.203125 1.296875 0.390625q0.96875 0.203125 1.484375 0.453125q0.53125 0.25 0.71875 0.578125q0.203125 0.3125 0.203125 0.765625q0 0.484375 -0.296875 0.875q-0.296875 0.375 -0.875 0.625q-0.578125 0.234375 -1.421875 0.234375zm8.215698 0q-0.859375 0 -1.359375 -0.296875q-0.484375 -0.3125 -0.703125 -0.84375q-0.203125 -0.546875 -0.203125 -1.265625l0 -2.765625l-1.640625 0l0 -0.734375l1.6875 -0.0625l0.125 -1.875l0.8125 0l0 1.875l2.875 0l0 0.796875l-2.875 0l0 2.78125q0 0.515625 0.125 0.875q0.140625 0.359375 0.46875 0.546875q0.328125 0.171875 0.890625 0.171875q0.421875 0 0.75 -0.0625q0.34375 -0.078125 0.65625 -0.203125l0.203125 0.71875q-0.390625 0.140625 -0.828125 0.234375q-0.4375 0.109375 -0.984375 0.109375zm14.400085 0q-0.859375 0 -1.359375 -0.296875q-0.484375 -0.3125 -0.703125 -0.84375q-0.203125 -0.546875 -0.203125 -1.265625l0 -2.765625l-1.640625 0l0 -0.734375l1.6875 -0.0625l0.125 -1.875l0.8125 0l0 1.875l2.875 0l0 0.796875l-2.875 0l0 2.78125q0 0.515625 0.125 0.875q0.140625 0.359375 0.46875 0.546875q0.328125 0.171875 0.890625 0.171875q0.421875 0 0.75 -0.0625q0.34375 -0.078125 0.65625 -0.203125l0.203125 0.71875q-0.390625 0.140625 -0.828125 0.234375q-0.4375 0.109375 -0.984375 0.109375zm3.2313232 -0.140625l2.21875 -3.03125l-2.046875 -2.796875l1.09375 0l0.921875 1.28125q0.15625 0.234375 0.328125 0.484375q0.1875 0.25 0.359375 0.5l0.046875 0q0.15625 -0.25 0.328125 -0.5q0.171875 -0.265625 0.328125 -0.515625l0.875 -1.25l1.046875 0l-2.078125 2.890625l2.234375 2.9375l-1.078125 0l-1.03125 -1.34375q-0.171875 -0.25 -0.375 -0.515625q-0.1875 -0.28125 -0.390625 -0.546875l-0.046875 0q-0.171875 0.265625 -0.359375 0.53125q-0.171875 0.25 -0.359375 0.53125l-0.953125 1.34375l-1.0625 0zm14.650085 -4.875l0 -0.734375l5.171875 0l0 0.734375l-5.171875 0zm0 2.5625l0 -0.734375l5.171875 0l0 0.734375l-5.171875 0zm14.5407715 2.3125l0 -0.8125l2.21875 0l0 -5.640625l-1.71875 0l0 -0.640625q0.453125 -0.0625 0.796875 -0.140625q0.359375 -0.078125 0.640625 -0.1875q0.296875 -0.109375 0.53125 -0.234375l0.734375 0l0 6.84375l2.0 0l0 0.8125l-5.203125 0z" fill-rule="nonzero"/><path fill="#000000" d="m776.2844 250.54887l0 -7.875l1.0 0l0 3.296875l3.296875 0l0 -3.296875l1.0 0l0 7.875l-1.0 0l0 -3.703125l-3.296875 0l0 3.703125l-1.0 0zm10.043823 0l0 -5.03125l-2.71875 0l0 -0.796875l3.703125 0l0 5.828125l-0.984375 0zm0.375 -7.0625q-0.328125 0 -0.5625 -0.203125q-0.21875 -0.203125 -0.21875 -0.5625q0 -0.34375 0.21875 -0.546875q0.234375 -0.21875 0.5625 -0.21875q0.34375 0 0.5625 0.21875q0.234375 0.203125 0.234375 0.546875q0 0.359375 -0.234375 0.5625q-0.21875 0.203125 -0.5625 0.203125zm6.575012 9.75q-0.84375 0 -1.453125 -0.203125q-0.59375 -0.1875 -0.921875 -0.546875q-0.3125 -0.359375 -0.3125 -0.875q0 -0.34375 0.25 -0.6875q0.25 -0.34375 0.71875 -0.609375l0 -0.046875q-0.234375 -0.125 -0.421875 -0.34375q-0.1875 -0.234375 -0.1875 -0.609375q0 -0.28125 0.171875 -0.5625q0.1875 -0.296875 0.53125 -0.53125l0 -0.046875q-0.296875 -0.234375 -0.515625 -0.609375q-0.203125 -0.390625 -0.203125 -0.90625q0 -0.640625 0.3125 -1.09375q0.328125 -0.46875 0.84375 -0.71875q0.515625 -0.265625 1.125 -0.265625q0.5 0 0.875 0.140625l2.40625 0l0 0.796875l-1.515625 0q0.203125 0.203125 0.34375 0.515625q0.15625 0.3125 0.15625 0.65625q0 0.625 -0.3125 1.078125q-0.296875 0.453125 -0.8125 0.703125q-0.5 0.234375 -1.140625 0.234375q-0.21875 0 -0.484375 -0.046875q-0.25 -0.0625 -0.484375 -0.171875q-0.21875 0.125 -0.34375 0.296875q-0.125 0.171875 -0.125 0.375q0 0.328125 0.3125 0.5q0.328125 0.171875 0.90625 0.171875l1.3125 0q1.125 0 1.671875 0.3125q0.546875 0.3125 0.546875 1.046875q0 0.546875 -0.40625 1.015625q-0.390625 0.46875 -1.125 0.75q-0.71875 0.28125 -1.71875 0.28125zm-0.0625 -5.203125q0.375 0 0.671875 -0.15625q0.3125 -0.171875 0.5 -0.484375q0.1875 -0.3125 0.1875 -0.734375q0 -0.40625 -0.1875 -0.703125q-0.1875 -0.3125 -0.5 -0.484375q-0.296875 -0.171875 -0.671875 -0.171875q-0.359375 0 -0.671875 0.171875q-0.296875 0.171875 -0.484375 0.484375q-0.1875 0.296875 -0.1875 0.703125q0 0.421875 0.1875 0.734375q0.1875 0.3125 0.484375 0.484375q0.3125 0.15625 0.671875 0.15625zm0.140625 4.484375q0.6875 0 1.171875 -0.171875q0.5 -0.171875 0.75 -0.4375q0.265625 -0.25 0.265625 -0.5625q0 -0.40625 -0.328125 -0.5625q-0.328125 -0.140625 -1.0 -0.140625l-1.140625 0q-0.25 0 -0.46875 -0.03125q-0.21875 -0.015625 -0.421875 -0.0625q-0.40625 0.234375 -0.578125 0.46875q-0.15625 0.25 -0.15625 0.5q0 0.453125 0.484375 0.71875q0.484375 0.28125 1.421875 0.28125zm4.6844482 -1.96875l0 -8.546875l0.984375 0l0 2.328125l-0.046875 1.375l0.03125 0q0.4375 -0.46875 0.96875 -0.796875q0.53125 -0.328125 1.21875 -0.328125q1.03125 0 1.515625 0.59375q0.5 0.59375 0.5 1.75l0 3.625l-0.984375 0l0 -3.484375q0 -0.828125 -0.3125 -1.234375q-0.3125 -0.40625 -1.03125 -0.40625q-0.515625 0 -0.9375 0.265625q-0.40625 0.265625 -0.921875 0.796875l0 4.0625l-0.984375 0zm10.043823 0.140625q-0.875 0 -1.59375 -0.359375q-0.703125 -0.359375 -1.125 -1.046875q-0.421875 -0.6875 -0.421875 -1.65625q0 -0.953125 0.421875 -1.640625q0.421875 -0.6875 1.09375 -1.046875q0.6875 -0.359375 1.46875 -0.359375q0.828125 0 1.421875 0.34375q0.59375 0.328125 0.90625 0.953125q0.328125 0.609375 0.328125 1.4375q0 0.15625 -0.015625 0.3125q0 0.15625 -0.03125 0.28125l-4.9375 0l0 -0.765625l4.34375 0l-0.25 0.28125q0 -1.03125 -0.46875 -1.546875q-0.46875 -0.53125 -1.28125 -0.53125q-0.53125 0 -1.0 0.265625q-0.453125 0.265625 -0.734375 0.78125q-0.28125 0.5 -0.28125 1.234375q0 0.75 0.296875 1.265625q0.3125 0.5 0.828125 0.765625q0.515625 0.25 1.15625 0.25q0.53125 0 0.953125 -0.15625q0.421875 -0.15625 0.828125 -0.40625l0.359375 0.65625q-0.4375 0.28125 -1.0 0.484375q-0.546875 0.203125 -1.265625 0.203125zm6.9656982 0q-0.84375 0 -1.59375 -0.265625q-0.75 -0.28125 -1.265625 -0.640625l0.453125 -0.65625q0.5 0.359375 1.109375 0.578125q0.609375 0.21875 1.421875 0.21875q0.734375 0 1.09375 -0.265625q0.375 -0.28125 0.375 -0.640625q0 -0.171875 -0.0625 -0.3125q-0.0625 -0.140625 -0.25 -0.265625q-0.1875 -0.140625 -0.546875 -0.265625q-0.359375 -0.125 -0.96875 -0.234375q-1.125 -0.25 -1.703125 -0.65625q-0.5625 -0.40625 -0.5625 -1.046875q0 -0.71875 0.609375 -1.1875q0.609375 -0.46875 1.8125 -0.46875q0.671875 0 1.296875 0.21875q0.625 0.21875 1.046875 0.515625l-0.46875 0.640625q-0.40625 -0.296875 -0.90625 -0.453125q-0.5 -0.15625 -1.0625 -0.15625q-0.5 0 -0.796875 0.109375q-0.296875 0.109375 -0.421875 0.3125q-0.125 0.1875 -0.125 0.40625q0 0.375 0.40625 0.59375q0.40625 0.203125 1.296875 0.390625q0.96875 0.203125 1.484375 0.453125q0.53125 0.25 0.71875 0.578125q0.203125 0.3125 0.203125 0.765625q0 0.484375 -0.296875 0.875q-0.296875 0.375 -0.875 0.625q-0.578125 0.234375 -1.421875 0.234375zm8.215637 0q-0.859375 0 -1.359375 -0.296875q-0.484375 -0.3125 -0.703125 -0.84375q-0.203125 -0.546875 -0.203125 -1.265625l0 -2.765625l-1.640625 0l0 -0.734375l1.6875 -0.0625l0.125 -1.875l0.8125 0l0 1.875l2.875 0l0 0.796875l-2.875 0l0 2.78125q0 0.515625 0.125 0.875q0.140625 0.359375 0.46875 0.546875q0.328125 0.171875 0.890625 0.171875q0.421875 0 0.75 -0.0625q0.34375 -0.078125 0.65625 -0.203125l0.203125 0.71875q-0.390625 0.140625 -0.828125 0.234375q-0.4375 0.109375 -0.984375 0.109375zm14.4001465 0q-0.859375 0 -1.359375 -0.296875q-0.484375 -0.3125 -0.703125 -0.84375q-0.203125 -0.546875 -0.203125 -1.265625l0 -2.765625l-1.640625 0l0 -0.734375l1.6875 -0.0625l0.125 -1.875l0.8125 0l0 1.875l2.875 0l0 0.796875l-2.875 0l0 2.78125q0 0.515625 0.125 0.875q0.140625 0.359375 0.46875 0.546875q0.328125 0.171875 0.890625 0.171875q0.421875 0 0.75 -0.0625q0.34375 -0.078125 0.65625 -0.203125l0.203125 0.71875q-0.390625 0.140625 -0.828125 0.234375q-0.4375 0.109375 -0.984375 0.109375zm3.2313232 -0.140625l2.21875 -3.03125l-2.046875 -2.796875l1.09375 0l0.921875 1.28125q0.15625 0.234375 0.328125 0.484375q0.1875 0.25 0.359375 0.5l0.046875 0q0.15625 -0.25 0.328125 -0.5q0.171875 -0.265625 0.328125 -0.515625l0.875 -1.25l1.046875 0l-2.078125 2.890625l2.234375 2.9375l-1.078125 0l-1.03125 -1.34375q-0.171875 -0.25 -0.375 -0.515625q-0.1875 -0.28125 -0.390625 -0.546875l-0.046875 0q-0.171875 0.265625 -0.359375 0.53125q-0.171875 0.25 -0.359375 0.53125l-0.953125 1.34375l-1.0625 0zm14.650085 -4.875l0 -0.734375l5.171875 0l0 0.734375l-5.171875 0zm0 2.5625l0 -0.734375l5.171875 0l0 0.734375l-5.171875 0zm14.5407715 2.3125l0 -0.8125l2.21875 0l0 -5.640625l-1.71875 0l0 -0.640625q0.453125 -0.0625 0.796875 -0.140625q0.359375 -0.078125 0.640625 -0.1875q0.296875 -0.109375 0.53125 -0.234375l0.734375 0l0 6.84375l2.0 0l0 0.8125l-5.203125 0zm6.918762 0l0 -0.59375q1.296875 -1.140625 2.1875 -2.0q0.890625 -0.875 1.359375 -1.5625q0.46875 -0.703125 0.46875 -1.34375q0 -0.65625 -0.40625 -1.078125q-0.40625 -0.421875 -1.25 -0.421875q-0.546875 0 -1.015625 0.265625q-0.453125 0.265625 -0.828125 0.65625l-0.5625 -0.5625q0.515625 -0.515625 1.109375 -0.828125q0.59375 -0.328125 1.40625 -0.328125q0.765625 0 1.328125 0.28125q0.5625 0.28125 0.859375 0.78125q0.3125 0.5 0.3125 1.1875q0 0.71875 -0.453125 1.453125q-0.4375 0.734375 -1.234375 1.546875q-0.796875 0.8125 -1.84375 1.765625q0.359375 -0.03125 0.71875 -0.046875q0.359375 -0.03125 0.71875 -0.03125l2.515625 0l0 0.859375l-5.390625 0z" fill-rule="nonzero"/><path fill="#000000" fill-opacity="0.0" d="m181.32545 228.02887l48.031494 0" fill-rule="evenodd"/><path stroke="#595959" stroke-width="3.0" stroke-linejoin="round" stroke-linecap="butt" d="m181.32545 228.02887l30.031494 0" fill-rule="evenodd"/><path fill="#595959" stroke="#595959" stroke-width="3.0" stroke-linecap="butt" d="m211.35695 232.98407l13.614304 -4.9552l-13.614304 -4.9552z" fill-rule="evenodd"/><path fill="#000000" fill-opacity="0.0" d="m363.2546 228.02887l48.031494 0" fill-rule="evenodd"/><path stroke="#595959" stroke-width="3.0" stroke-linejoin="round" stroke-linecap="butt" d="m363.2546 228.02887l30.031494 0" fill-rule="evenodd"/><path fill="#595959" stroke="#595959" stroke-width="3.0" stroke-linecap="butt" d="m393.2861 232.98407l13.614288 -4.9552l-13.614288 -4.9552z" fill-rule="evenodd"/><path fill="#ff9900" d="m628.8845 220.2021l46.204712 0l0 -7.826767l15.653564 15.653534l-15.653564 15.653549l0 -7.826782l-46.204712 0z" fill-rule="evenodd"/><path stroke="#595959" stroke-width="1.0" stroke-linejoin="round" stroke-linecap="butt" d="m628.8845 220.2021l46.204712 0l0 -7.826767l15.653564 15.653534l-15.653564 15.653549l0 -7.826782l-46.204712 0z" fill-rule="evenodd"/><path fill="#000000" fill-opacity="0.0" d="m609.9659 236.77121l113.543335 0l0 37.165344l-113.543335 0z" fill-rule="evenodd"/><path fill="#000000" d="m621.5284 254.56996l-1.828125 -0.328125q0.296875 -1.109375 1.046875 -1.625q0.765625 -0.53125 2.234375 -0.53125q1.359375 0 2.015625 0.3125q0.65625 0.3125 0.921875 0.8125q0.265625 0.484375 0.265625 1.796875l-0.015625 2.3437653q0 1.0 0.09375 1.484375q0.09375 0.46875 0.359375 1.015625l-1.984375 0q-0.078125 -0.203125 -0.203125 -0.59375q-0.046875 -0.171875 -0.0625 -0.234375q-0.515625 0.5 -1.109375 0.75q-0.578125 0.25 -1.25 0.25q-1.171875 0 -1.859375 -0.640625q-0.671875 -0.640625 -0.671875 -1.609375q0 -0.640625 0.3125 -1.140625q0.3125 -0.515625 0.859375 -0.78126526q0.5625 -0.265625 1.609375 -0.46875q1.40625 -0.265625 1.953125 -0.484375l0 -0.203125q0 -0.578125 -0.296875 -0.828125q-0.28125 -0.25 -1.078125 -0.25q-0.53125 0 -0.84375 0.21875q-0.296875 0.203125 -0.46875 0.734375zm2.6875 1.6250153q-0.390625 0.140625 -1.234375 0.328125q-0.828125 0.171875 -1.09375 0.34375q-0.390625 0.265625 -0.390625 0.703125q0 0.421875 0.3125 0.734375q0.3125 0.296875 0.8125 0.296875q0.53125 0 1.03125 -0.359375q0.359375 -0.265625 0.484375 -0.65625q0.078125 -0.265625 0.078125 -0.984375l0 -0.40625zm3.760498 4.15625l2.296875 0.28125q0.0625 0.40625 0.265625 0.546875q0.296875 0.21875 0.90625 0.21875q0.78125 0 1.1875 -0.234375q0.265625 -0.15625 0.390625 -0.515625q0.09375 -0.25 0.09375 -0.921875l0 -1.109375q-0.890625 1.234375 -2.265625 1.234375q-1.53125 0 -2.4375 -1.296875q-0.703125 -1.015625 -0.703125 -2.546875q0 -1.9062653 0.921875 -2.9062653q0.921875 -1.015625 2.296875 -1.015625q1.40625 0 2.328125 1.234375l0 -1.0625l1.875 0l0 6.8125153q0 1.34375 -0.21875 2.0q-0.21875 0.671875 -0.625 1.046875q-0.40625 0.390625 -1.078125 0.59375q-0.65625 0.21875 -1.6875 0.21875q-1.9375 0 -2.75 -0.65625q-0.796875 -0.65625 -0.796875 -1.671875q0 -0.109375 0 -0.25zm1.796875 -4.4531403q0 1.2031403 0.46875 1.7656403q0.46875 0.5625 1.15625 0.5625q0.75 0 1.25 -0.578125q0.515625 -0.578125 0.515625 -1.7031403q0 -1.1875 -0.5 -1.75q-0.484375 -0.578125 -1.21875 -0.578125q-0.734375 0 -1.203125 0.5625q-0.46875 0.5625 -0.46875 1.71875zm7.1557007 4.4531403l2.296875 0.28125q0.0625 0.40625 0.265625 0.546875q0.296875 0.21875 0.90625 0.21875q0.78125 0 1.1875 -0.234375q0.265625 -0.15625 0.390625 -0.515625q0.09375 -0.25 0.09375 -0.921875l0 -1.109375q-0.890625 1.234375 -2.265625 1.234375q-1.53125 0 -2.4375 -1.296875q-0.703125 -1.015625 -0.703125 -2.546875q0 -1.9062653 0.921875 -2.9062653q0.921875 -1.015625 2.296875 -1.015625q1.40625 0 2.328125 1.234375l0 -1.0625l1.875 0l0 6.8125153q0 1.34375 -0.21875 2.0q-0.21875 0.671875 -0.625 1.046875q-0.40625 0.390625 -1.078125 0.59375q-0.65625 0.21875 -1.6875 0.21875q-1.9375 0 -2.75 -0.65625q-0.796875 -0.65625 -0.796875 -1.671875q0 -0.109375 0 -0.25zm1.796875 -4.4531403q0 1.2031403 0.46875 1.7656403q0.46875 0.5625 1.15625 0.5625q0.75 0 1.25 -0.578125q0.515625 -0.578125 0.515625 -1.7031403q0 -1.1875 -0.5 -1.75q-0.484375 -0.578125 -1.21875 -0.578125q-0.734375 0 -1.203125 0.5625q-0.46875 0.5625 -0.46875 1.71875zm9.280762 3.9531403l-2.015625 0l0 -7.5937653l1.859375 0l0 1.078125q0.484375 -0.765625 0.859375 -1.0q0.390625 -0.25 0.875 -0.25q0.6875 0 1.328125 0.375l-0.625 1.75q-0.5 -0.328125 -0.9375 -0.328125q-0.421875 0 -0.71875 0.234375q-0.296875 0.234375 -0.46875 0.84375q-0.15625 0.609375 -0.15625 2.5468903l0 2.34375zm8.172363 -2.421875l2.0 0.34375q-0.375 1.09375 -1.21875 1.671875q-0.828125 0.578125 -2.078125 0.578125q-1.984375 0 -2.9375 -1.296875q-0.75 -1.03125 -0.75 -2.625q0 -1.8750153 0.984375 -2.9375153q0.984375 -1.078125 2.5 -1.078125q1.6875 0 2.671875 1.125q0.984375 1.109375 0.9375 3.4218903l-5.03125 0q0.015625 0.890625 0.484375 1.390625q0.46875 0.5 1.15625 0.5q0.46875 0 0.78125 -0.25q0.328125 -0.265625 0.5 -0.84375zm0.109375 -2.0312653q-0.015625 -0.875 -0.453125 -1.328125q-0.421875 -0.453125 -1.03125 -0.453125q-0.671875 0 -1.09375 0.484375q-0.421875 0.46875 -0.421875 1.296875l3.0 0zm3.447998 4.9531403l2.296875 0.28125q0.0625 0.40625 0.265625 0.546875q0.296875 0.21875 0.90625 0.21875q0.78125 0 1.1875 -0.234375q0.265625 -0.15625 0.390625 -0.515625q0.09375 -0.25 0.09375 -0.921875l0 -1.109375q-0.890625 1.234375 -2.265625 1.234375q-1.53125 0 -2.4375 -1.296875q-0.703125 -1.015625 -0.703125 -2.546875q0 -1.9062653 0.921875 -2.9062653q0.921875 -1.015625 2.296875 -1.015625q1.40625 0 2.328125 1.234375l0 -1.0625l1.875 0l0 6.8125153q0 1.34375 -0.21875 2.0q-0.21875 0.671875 -0.625 1.046875q-0.40625 0.390625 -1.078125 0.59375q-0.65625 0.21875 -1.6875 0.21875q-1.9375 0 -2.75 -0.65625q-0.796875 -0.65625 -0.796875 -1.671875q0 -0.109375 0 -0.25zm1.796875 -4.4531403q0 1.2031403 0.46875 1.7656403q0.46875 0.5625 1.15625 0.5625q0.75 0 1.25 -0.578125q0.515625 -0.578125 0.515625 -1.7031403q0 -1.1875 -0.5 -1.75q-0.484375 -0.578125 -1.21875 -0.578125q-0.734375 0 -1.203125 0.5625q-0.46875 0.5625 -0.46875 1.71875zm8.858887 -1.328125l-1.828125 -0.328125q0.296875 -1.109375 1.046875 -1.625q0.765625 -0.53125 2.234375 -0.53125q1.359375 0 2.015625 0.3125q0.65625 0.3125 0.921875 0.8125q0.265625 0.484375 0.265625 1.796875l-0.015625 2.3437653q0 1.0 0.09375 1.484375q0.09375 0.46875 0.359375 1.015625l-1.984375 0q-0.078125 -0.203125 -0.203125 -0.59375q-0.046875 -0.171875 -0.0625 -0.234375q-0.515625 0.5 -1.109375 0.75q-0.578125 0.25 -1.25 0.25q-1.171875 0 -1.859375 -0.640625q-0.671875 -0.640625 -0.671875 -1.609375q0 -0.640625 0.3125 -1.140625q0.3125 -0.515625 0.859375 -0.78126526q0.5625 -0.265625 1.609375 -0.46875q1.40625 -0.265625 1.953125 -0.484375l0 -0.203125q0 -0.578125 -0.296875 -0.828125q-0.28125 -0.25 -1.078125 -0.25q-0.53125 0 -0.84375 0.21875q-0.296875 0.203125 -0.46875 0.734375zm2.6875 1.6250153q-0.390625 0.140625 -1.234375 0.328125q-0.828125 0.171875 -1.09375 0.34375q-0.390625 0.265625 -0.390625 0.703125q0 0.421875 0.3125 0.734375q0.3125 0.296875 0.8125 0.296875q0.53125 0 1.03125 -0.359375q0.359375 -0.265625 0.484375 -0.65625q0.078125 -0.265625 0.078125 -0.984375l0 -0.40625zm7.432373 -3.9375153l0 1.59375l-1.375 0l0 3.0625153q0 0.9375 0.03125 1.09375q0.046875 0.140625 0.1875 0.25q0.140625 0.09375 0.34375 0.09375q0.28125 0 0.8125 -0.1875l0.171875 1.5625q-0.703125 0.296875 -1.59375 0.296875q-0.546875 0 -0.984375 -0.171875q-0.421875 -0.1875 -0.640625 -0.46875q-0.203125 -0.296875 -0.28125 -0.796875q-0.0625 -0.359375 -0.0625 -1.421875l0 -3.3125153l-0.921875 0l0 -1.59375l0.921875 0l0 -1.515625l2.015625 -1.171875l0 2.6875l1.375 0zm1.3962402 -1.03125l0 -1.859375l2.015625 0l0 1.859375l-2.015625 0zm0 8.625015l0 -7.5937653l2.015625 0l0 7.5937653l-2.015625 0zm3.6188354 -3.9062653q0 -1.0 0.484375 -1.9375q0.5 -0.9375 1.40625 -1.421875q0.90625 -0.5 2.015625 -0.5q1.71875 0 2.828125 1.125q1.109375 1.109375 1.109375 2.8125153q0 1.734375 -1.125 2.875q-1.109375 1.125 -2.796875 1.125q-1.046875 0 -2.0 -0.46875q-0.9375 -0.46875 -1.4375 -1.375q-0.484375 -0.921875 -0.484375 -2.2343903zm2.046875 0.10939026q0 1.125 0.53125 1.734375q0.546875 0.59375 1.34375 0.59375q0.78125 0 1.3125 -0.59375q0.53125 -0.609375 0.53125 -1.75q0 -1.1250153 -0.53125 -1.7187653q-0.53125 -0.609375 -1.3125 -0.609375q-0.796875 0 -1.34375 0.609375q-0.53125 0.59375 -0.53125 1.7343903zm14.280762 3.796875l-2.015625 0l0 -3.8750153q0 -1.234375 -0.125 -1.59375q-0.125 -0.359375 -0.421875 -0.5625q-0.296875 -0.203125 -0.703125 -0.203125q-0.515625 0 -0.9375 0.296875q-0.40625 0.28125 -0.5625 0.75q-0.15625 0.46875 -0.15625 1.7500153l0 3.4375l-2.015625 0l0 -7.5937653l1.875 0l0 1.109375q1.0 -1.28125 2.5 -1.28125q0.671875 0 1.21875 0.234375q0.546875 0.234375 0.828125 0.609375q0.296875 0.375 0.40625 0.84375q0.109375 0.46875 0.109375 1.359375l0 4.7187653z" fill-rule="nonzero"/><path fill="#000000" fill-opacity="0.0" d="m542.3019 316.10236l0 0c0 2.7983398 -1.1116333 5.482086 -3.090393 7.4608154c-1.9786987 1.9787292 -4.6624756 3.0903625 -7.4608154 3.0903625l-227.43304 0c-5.8272705 0 -10.5512085 4.723938 -10.5512085 10.551178l0 0c0 -5.82724 -4.7239075 -10.551178 -10.551178 -10.551178l-227.43306 0c-5.8272552 0 -10.551182 -4.7239075 -10.551182 -10.551178z" fill-rule="evenodd"/><path fill="#000000" fill-opacity="0.0" d="m542.3019 316.10236l0 0c0 2.7983398 -1.1116333 5.482086 -3.090393 7.4608154c-1.9786987 1.9787292 -4.6624756 3.0903625 -7.4608154 3.0903625l-227.43304 0c-5.8272705 0 -10.5512085 4.723938 -10.5512085 10.551178l0 0c0 -5.82724 -4.7239075 -10.551178 -10.551178 -10.551178l-227.43306 0c-5.8272552 0 -10.551182 -4.7239075 -10.551182 -10.551178" fill-rule="evenodd"/><path stroke="#595959" stroke-width="1.0" stroke-linejoin="round" stroke-linecap="butt" d="m542.3019 316.10236l0 0c0 2.7983398 -1.1116333 5.482086 -3.090393 7.4608154c-1.9786987 1.9787292 -4.6624756 3.0903625 -7.4608154 3.0903625l-227.43304 0c-5.8272705 0 -10.5512085 4.723938 -10.5512085 10.551178l0 0c0 -5.82724 -4.7239075 -10.551178 -10.551178 -10.551178l-227.43306 0c-5.8272552 0 -10.551182 -4.7239075 -10.551182 -10.551178" fill-rule="evenodd"/><path fill="#000000" fill-opacity="0.0" d="m241.29134 345.9265l145.95274 0l0 37.165344l-145.95274 0z" fill-rule="evenodd"/><path fill="#000000" d="m251.36946 358.52213l4.1875 0q1.2500153 0 1.8593903 0.109375q0.609375 0.09375 1.09375 0.421875q0.484375 0.328125 0.796875 0.875q0.328125 0.546875 0.328125 1.234375q0 0.734375 -0.40625 1.359375q-0.390625 0.609375 -1.0625 0.90625q0.953125 0.28125 1.46875 0.953125q0.515625 0.671875 0.515625 1.578125q0 0.71875 -0.328125 1.40625q-0.328125 0.671875 -0.90625 1.078125q-0.578125 0.390625 -1.421875 0.484375q-0.53125 0.0625 -2.5625153 0.078125l-3.5625 0l0 -10.484375zm2.109375 1.734375l0 2.4375l1.390625 0q1.2343903 0 1.5468903 -0.046875q0.53125 -0.0625 0.84375 -0.375q0.3125 -0.3125 0.3125 -0.8125q0 -0.484375 -0.265625 -0.78125q-0.265625 -0.3125 -0.796875 -0.375q-0.3125 -0.046875 -1.8125153 -0.046875l-1.21875 0zm0 4.171875l0 2.8125l1.96875 0q1.1406403 0 1.4531403 -0.0625q0.46875 -0.09375 0.765625 -0.421875q0.296875 -0.328125 0.296875 -0.890625q0 -0.46875 -0.234375 -0.796875q-0.21875 -0.328125 -0.65625 -0.484375q-0.4375 -0.15625 -1.8750153 -0.15625l-1.71875 0zm9.959274 -0.703125l-1.828125 -0.328125q0.296875 -1.109375 1.046875 -1.625q0.765625 -0.53125 2.234375 -0.53125q1.359375 0 2.015625 0.3125q0.65625 0.3125 0.921875 0.8125q0.265625 0.484375 0.265625 1.796875l-0.015625 2.34375q0 1.0 0.09375 1.484375q0.09375 0.46875 0.359375 1.015625l-1.984375 0q-0.078125 -0.203125 -0.203125 -0.59375q-0.046875 -0.171875 -0.0625 -0.234375q-0.515625 0.5 -1.109375 0.75q-0.578125 0.25 -1.25 0.25q-1.171875 0 -1.859375 -0.640625q-0.671875 -0.640625 -0.671875 -1.609375q0 -0.640625 0.3125 -1.140625q0.3125 -0.515625 0.859375 -0.78125q0.5625 -0.265625 1.609375 -0.46875q1.40625 -0.265625 1.953125 -0.484375l0 -0.203125q0 -0.578125 -0.296875 -0.828125q-0.28125 -0.25 -1.078125 -0.25q-0.53125 0 -0.84375 0.21875q-0.296875 0.203125 -0.46875 0.734375zm2.6875 1.625q-0.390625 0.140625 -1.234375 0.328125q-0.828125 0.171875 -1.09375 0.34375q-0.390625 0.265625 -0.390625 0.703125q0 0.421875 0.3125 0.734375q0.3125 0.296875 0.8125 0.296875q0.53125 0 1.03125 -0.359375q0.359375 -0.265625 0.484375 -0.65625q0.078125 -0.265625 0.078125 -0.984375l0 -0.40625zm10.572998 -1.703125l-1.96875 0.359375q-0.109375 -0.59375 -0.46875 -0.890625q-0.34375 -0.296875 -0.90625 -0.296875q-0.75 0 -1.203125 0.515625q-0.453125 0.515625 -0.453125 1.734375q0 1.359375 0.453125 1.921875q0.453125 0.546875 1.21875 0.546875q0.578125 0 0.9375 -0.328125q0.375 -0.328125 0.515625 -1.109375l1.984375 0.328125q-0.3125 1.359375 -1.1875 2.0625q-0.875 0.6875 -2.328125 0.6875q-1.671875 0 -2.671875 -1.046875q-0.984375 -1.0625 -0.984375 -2.921875q0 -1.875 0.984375 -2.921875q1.0 -1.046875 2.703125 -1.046875q1.390625 0 2.203125 0.59375q0.828125 0.59375 1.171875 1.8125zm1.4635925 5.359375l0 -10.484375l2.0 0l0 5.5625l2.359375 -2.671875l2.484375 0l-2.609375 2.765625l2.796875 4.828125l-2.171875 0l-1.921875 -3.40625l-0.9375 0.96875l0 2.4375l-2.0 0zm13.213623 0l0 -1.140625q-0.40625 0.609375 -1.09375 0.96875q-0.671875 0.34375 -1.421875 0.34375q-0.765625 0 -1.375 -0.328125q-0.609375 -0.34375 -0.875 -0.953125q-0.265625 -0.609375 -0.265625 -1.6875l0 -4.796875l2.0 0l0 3.484375q0 1.609375 0.109375 1.96875q0.109375 0.359375 0.40625 0.578125q0.296875 0.203125 0.75 0.203125q0.515625 0 0.921875 -0.28125q0.40625 -0.28125 0.546875 -0.703125q0.15625 -0.421875 0.15625 -2.046875l0 -3.203125l2.015625 0l0 7.59375l-1.875 0zm3.9057312 -7.59375l1.875 0l0 1.109375q0.359375 -0.578125 0.984375 -0.921875q0.625 -0.359375 1.375 -0.359375q1.328125 0 2.25 1.03125q0.921875 1.03125 0.921875 2.890625q0 1.90625 -0.9375 2.96875q-0.921875 1.046875 -2.25 1.046875q-0.625 0 -1.140625 -0.25q-0.5 -0.25 -1.078125 -0.859375l0 3.828125l-2.0 0l0 -10.484375zm1.984375 3.671875q0 1.28125 0.5 1.890625q0.515625 0.609375 1.25 0.609375q0.703125 0 1.15625 -0.5625q0.46875 -0.5625 0.46875 -1.84375q0 -1.203125 -0.484375 -1.78125q-0.46875 -0.578125 -1.1875 -0.578125q-0.734375 0 -1.21875 0.578125q-0.484375 0.5625 -0.484375 1.6875zm17.712097 -1.4375l-1.96875 0.359375q-0.109375 -0.59375 -0.46875 -0.890625q-0.34375 -0.296875 -0.90625 -0.296875q-0.75 0 -1.203125 0.515625q-0.453125 0.515625 -0.453125 1.734375q0 1.359375 0.453125 1.921875q0.453125 0.546875 1.21875 0.546875q0.578125 0 0.9375 -0.328125q0.375 -0.328125 0.515625 -1.109375l1.984375 0.328125q-0.3125 1.359375 -1.1875 2.0625q-0.875 0.6875 -2.328125 0.6875q-1.671875 0 -2.671875 -1.046875q-0.984375 -1.0625 -0.984375 -2.921875q0 -1.875 0.984375 -2.921875q1.0 -1.046875 2.703125 -1.046875q1.390625 0 2.203125 0.59375q0.828125 0.59375 1.171875 1.8125zm3.541748 -5.125l0 3.84375q0.96875 -1.125 2.3125 -1.125q0.703125 0 1.25 0.265625q0.5625 0.25 0.84375 0.65625q0.28125 0.390625 0.390625 0.875q0.109375 0.484375 0.109375 1.515625l0 4.453125l-2.015625 0l0 -4.015625q0 -1.1875 -0.125 -1.515625q-0.109375 -0.328125 -0.40625 -0.515625q-0.28125 -0.1875 -0.71875 -0.1875q-0.5 0 -0.890625 0.25q-0.390625 0.234375 -0.578125 0.734375q-0.171875 0.484375 -0.171875 1.4375l0 3.8125l-2.015625 0l0 -10.484375l2.015625 0zm8.452606 5.203125l-1.828125 -0.328125q0.296875 -1.109375 1.046875 -1.625q0.765625 -0.53125 2.234375 -0.53125q1.359375 0 2.015625 0.3125q0.65625 0.3125 0.921875 0.8125q0.265625 0.484375 0.265625 1.796875l-0.015625 2.34375q0 1.0 0.09375 1.484375q0.09375 0.46875 0.359375 1.015625l-1.984375 0q-0.078125 -0.203125 -0.203125 -0.59375q-0.046875 -0.171875 -0.0625 -0.234375q-0.515625 0.5 -1.109375 0.75q-0.578125 0.25 -1.25 0.25q-1.171875 0 -1.859375 -0.640625q-0.671875 -0.640625 -0.671875 -1.609375q0 -0.640625 0.3125 -1.140625q0.3125 -0.515625 0.859375 -0.78125q0.5625 -0.265625 1.609375 -0.46875q1.40625 -0.265625 1.953125 -0.484375l0 -0.203125q0 -0.578125 -0.296875 -0.828125q-0.28125 -0.25 -1.078125 -0.25q-0.53125 0 -0.84375 0.21875q-0.296875 0.203125 -0.46875 0.734375zm2.6875 1.625q-0.390625 0.140625 -1.234375 0.328125q-0.828125 0.171875 -1.09375 0.34375q-0.390625 0.265625 -0.390625 0.703125q0 0.421875 0.3125 0.734375q0.3125 0.296875 0.8125 0.296875q0.53125 0 1.03125 -0.359375q0.359375 -0.265625 0.484375 -0.65625q0.078125 -0.265625 0.078125 -0.984375l0 -0.40625zm3.947998 -4.96875l0 -1.859375l2.015625 0l0 1.859375l-2.015625 0zm0 8.625l0 -7.59375l2.015625 0l0 7.59375l-2.015625 0zm10.993835 0l-2.015625 0l0 -3.875q0 -1.234375 -0.125 -1.59375q-0.125 -0.359375 -0.421875 -0.5625q-0.296875 -0.203125 -0.703125 -0.203125q-0.515625 0 -0.9375 0.296875q-0.40625 0.28125 -0.5625 0.75q-0.15625 0.46875 -0.15625 1.75l0 3.4375l-2.015625 0l0 -7.59375l1.875 0l0 1.109375q1.0 -1.28125 2.5 -1.28125q0.671875 0 1.21875 0.234375q0.546875 0.234375 0.828125 0.609375q0.296875 0.375 0.40625 0.84375q0.109375 0.46875 0.109375 1.359375l0 4.71875z" fill-rule="nonzero"/></g></svg>
