<?xml version="1.0" encoding="UTF-8"?>
<svg version="1.1" width="800px" height="400px" viewBox="0.0 300 960.0 200.0" fill="none" stroke="none" stroke-linecap="square" stroke-miterlimit="10" xmlns:xlink="http://www.w3.org/1999/xlink" xmlns="http://www.w3.org/2000/svg"><clipPath id="g145fe62d2d5_0_15.0"><path d="m0 0l960.0 0l0 540.0l-960.0 0l0 -540.0z" clip-rule="nonzero"/></clipPath><g clip-path="url(#g145fe62d2d5_0_15.0)"><path fill="#ffffff" d="m0 0l960.0 0l0 540.0l-960.0 0z" fill-rule="evenodd"/><path fill="#eeeeee" d="m45.12861 186.17586l238.88977 0l0 138.75328l-238.88977 0z" fill-rule="evenodd"/><path stroke="#595959" stroke-width="1.0" stroke-linejoin="round" stroke-linecap="butt" stroke-dasharray="4.0,3.0" d="m45.12861 186.17586l238.88977 0l0 138.75328l-238.88977 0z" fill-rule="evenodd"/><path fill="#000000" d="m96.08499 245.8725l0 -18.125l12.421875 0l0 3.0625l-8.765625 0l0 4.296875l7.5625 0l0 3.0625l-7.5625 0l0 7.703125l-3.65625 0zm24.065186 0l0 -1.96875q-0.71875 1.046875 -1.890625 1.65625q-1.171875 0.609375 -2.46875 0.609375q-1.328125 0 -2.375 -0.578125q-1.046875 -0.578125 -1.515625 -1.625q-0.46875 -1.0625 -0.46875 -2.921875l0 -8.3125l3.46875 0l0 6.046875q0 2.765625 0.1875 3.390625q0.203125 0.625 0.703125 1.0q0.5 0.359375 1.28125 0.359375q0.890625 0 1.59375 -0.484375q0.71875 -0.5 0.96875 -1.21875q0.265625 -0.734375 0.265625 -3.546875l0 -5.546875l3.46875 0l0 13.140625l-3.21875 0zm6.8151855 0l0 -18.125l3.484375 0l0 18.125l-3.484375 0zm7.036972 0l0 -18.125l3.484375 0l0 18.125l-3.484375 0zm13.933319 0l0 -18.125l3.46875 0l0 6.53125q1.609375 -1.84375 3.8125 -1.84375q2.40625 0 3.96875 1.75q1.578125 1.734375 1.578125 4.984375q0 3.359375 -1.609375 5.1875q-1.59375 1.8125 -3.890625 1.8125q-1.125 0 -2.21875 -0.5625q-1.09375 -0.5625 -1.890625 -1.65625l0 1.921875l-3.21875 0zm3.453125 -6.84375q0 2.03125 0.640625 3.015625q0.90625 1.375 2.390625 1.375q1.15625 0 1.96875 -0.984375q0.8125 -0.984375 0.8125 -3.09375q0 -2.25 -0.828125 -3.234375q-0.8125 -1.0 -2.078125 -1.0q-1.25 0 -2.078125 0.96875q-0.828125 0.96875 -0.828125 2.953125zm14.768311 -2.28125l-3.15625 -0.578125q0.53125 -1.890625 1.828125 -2.8125q1.296875 -0.921875 3.859375 -0.921875q2.328125 0 3.453125 0.5625q1.140625 0.546875 1.609375 1.390625q0.46875 0.84375 0.46875 3.109375l-0.046875 4.0625q0 1.734375 0.171875 2.5625q0.171875 0.8125 0.625 1.75l-3.4375 0q-0.140625 -0.34375 -0.328125 -1.03125q-0.09375 -0.296875 -0.125 -0.40625q-0.890625 0.875 -1.90625 1.3125q-1.015625 0.421875 -2.171875 0.421875q-2.03125 0 -3.203125 -1.09375q-1.15625 -1.109375 -1.15625 -2.796875q0 -1.109375 0.53125 -1.96875q0.53125 -0.875 1.484375 -1.34375q0.96875 -0.46875 2.765625 -0.8125q2.4375 -0.453125 3.375 -0.859375l0 -0.34375q0 -1.0 -0.5 -1.421875q-0.484375 -0.421875 -1.859375 -0.421875q-0.921875 0 -1.453125 0.359375q-0.515625 0.359375 -0.828125 1.28125zm4.640625 2.8125q-0.671875 0.234375 -2.125 0.546875q-1.4375 0.296875 -1.875 0.59375q-0.6875 0.484375 -0.6875 1.234375q0 0.71875 0.546875 1.25q0.546875 0.53125 1.390625 0.53125q0.9375 0 1.78125 -0.609375q0.640625 -0.46875 0.828125 -1.15625q0.140625 -0.4375 0.140625 -1.6875l0 -0.703125zm18.289429 -2.9375l-3.421875 0.625q-0.171875 -1.03125 -0.78125 -1.546875q-0.609375 -0.53125 -1.59375 -0.53125q-1.296875 0 -2.078125 0.90625q-0.765625 0.890625 -0.765625 3.0q0 2.328125 0.78125 3.296875q0.796875 0.96875 2.109375 0.96875q1.0 0 1.625 -0.5625q0.625 -0.5625 0.890625 -1.9375l3.40625 0.578125q-0.53125 2.34375 -2.046875 3.546875q-1.5 1.203125 -4.03125 1.203125q-2.875 0 -4.59375 -1.8125q-1.71875 -1.828125 -1.71875 -5.03125q0 -3.265625 1.71875 -5.078125q1.71875 -1.8125 4.65625 -1.8125q2.390625 0 3.8125 1.046875q1.421875 1.03125 2.03125 3.140625zm2.5081787 9.25l0 -18.125l3.484375 0l0 9.609375l4.0625 -4.625l4.28125 0l-4.484375 4.8125l4.8125 8.328125l-3.75 0l-3.296875 -5.90625l-1.625 1.703125l0 4.203125l-3.484375 0zm22.867554 0l0 -1.96875q-0.71875 1.046875 -1.890625 1.65625q-1.171875 0.609375 -2.46875 0.609375q-1.328125 0 -2.375 -0.578125q-1.046875 -0.578125 -1.515625 -1.625q-0.46875 -1.0625 -0.46875 -2.921875l0 -8.3125l3.46875 0l0 6.046875q0 2.765625 0.1875 3.390625q0.203125 0.625 0.703125 1.0q0.5 0.359375 1.28125 0.359375q0.890625 0 1.59375 -0.484375q0.71875 -0.5 0.96875 -1.21875q0.265625 -0.734375 0.265625 -3.546875l0 -5.546875l3.46875 0l0 13.140625l-3.21875 0zm6.7214355 -13.140625l3.234375 0l0 1.9375q0.640625 -0.984375 1.703125 -1.609375q1.078125 -0.625 2.390625 -0.625q2.296875 0 3.890625 1.796875q1.59375 1.796875 1.59375 5.0q0 3.296875 -1.609375 5.125q-1.609375 1.8125 -3.890625 1.8125q-1.09375 0 -1.984375 -0.421875q-0.875 -0.4375 -1.859375 -1.5l0 6.625l-3.46875 0l0 -18.140625zm3.4375 6.34375q0 2.21875 0.875 3.28125q0.875 1.046875 2.140625 1.046875q1.21875 0 2.015625 -0.96875q0.8125 -0.96875 0.8125 -3.171875q0 -2.078125 -0.828125 -3.078125q-0.828125 -1.0 -2.0625 -1.0q-1.265625 0 -2.109375 0.984375q-0.84375 0.984375 -0.84375 2.90625z" fill-rule="nonzero"/><path fill="#000000" d="m104.26923 266.9125l0 -10.5l1.3125 0l0 9.359375l5.203125 0l0 1.140625l-6.515625 0zm12.256271 0.1875q-1.015625 0 -1.890625 -0.46875q-0.875 -0.484375 -1.421875 -1.390625q-0.53125 -0.921875 -0.53125 -2.203125q0 -1.3125 0.53125 -2.21875q0.546875 -0.921875 1.421875 -1.390625q0.875 -0.484375 1.890625 -0.484375q1.03125 0 1.890625 0.484375q0.875 0.46875 1.40625 1.390625q0.546875 0.90625 0.546875 2.21875q0 1.28125 -0.546875 2.203125q-0.53125 0.90625 -1.40625 1.390625q-0.859375 0.46875 -1.890625 0.46875zm0 -1.078125q0.75 0 1.3125 -0.375q0.5625 -0.375 0.859375 -1.046875q0.3125 -0.671875 0.3125 -1.5625q0 -0.890625 -0.3125 -1.5625q-0.296875 -0.6875 -0.859375 -1.0625q-0.5625 -0.375 -1.3125 -0.375q-0.75 0 -1.3125 0.375q-0.546875 0.375 -0.859375 1.0625q-0.3125 0.671875 -0.3125 1.5625q0 0.890625 0.3125 1.5625q0.3125 0.671875 0.859375 1.046875q0.5625 0.375 1.3125 0.375zm6.6312714 0.890625l-1.703125 -7.78125l1.3125 0l0.9375 4.515625q0.109375 0.546875 0.1875 1.0625q0.09375 0.515625 0.15625 1.078125l0.0625 0q0.078125 -0.5625 0.203125 -1.078125q0.125 -0.515625 0.25 -1.0625l0.953125 -4.03125l1.3125 0l0.9375 4.03125q0.125 0.546875 0.26563263 1.0625q0.140625 0.515625 0.203125 1.078125l0.0625 0q0.109375 -0.5625 0.171875 -1.078125q0.078125 -0.515625 0.1875 -1.0625l0.921875 -4.515625l1.21875 0l-1.65625 7.78125l-1.7031326 0l-0.890625 -3.71875q-0.09375 -0.40625 -0.203125 -0.984375q-0.09375 -0.578125 -0.1875 -1.3125l-0.0625 0q-0.09375 0.734375 -0.1875 1.3125q-0.09375 0.578125 -0.1875 0.984375l-0.875 3.71875l-1.6875 0zm13.053154 0.1875q-1.171875 0 -2.125 -0.46875q-0.953125 -0.484375 -1.515625 -1.40625q-0.546875 -0.921875 -0.546875 -2.21875q0 -1.265625 0.546875 -2.171875q0.5625 -0.90625 1.46875 -1.390625q0.90625 -0.5 1.953125 -0.5q1.109375 0 1.90625 0.453125q0.796875 0.453125 1.21875 1.28125q0.421875 0.8125 0.421875 1.921875q0 0.21875 -0.015625 0.421875q-0.015625 0.203125 -0.046875 0.375l-6.578125 0l0 -1.03125l5.796875 0l-0.34375 0.375q0 -1.375 -0.640625 -2.0625q-0.625 -0.6875 -1.6875 -0.6875q-0.71875 0 -1.34375 0.359375q-0.609375 0.34375 -0.984375 1.015625q-0.359375 0.671875 -0.359375 1.640625q0 1.015625 0.390625 1.6875q0.40625 0.671875 1.09375 1.015625q0.6875 0.34375 1.546875 0.34375q0.703125 0 1.265625 -0.203125q0.578125 -0.203125 1.109375 -0.53125l0.46875 0.859375q-0.5625 0.375 -1.3125 0.65625q-0.75 0.265625 -1.6875 0.265625zm9.271896 0q-1.125 0 -2.125 -0.359375q-0.984375 -0.375 -1.6875 -0.859375l0.609375 -0.859375q0.671875 0.484375 1.484375 0.78125q0.8125 0.28125 1.890625 0.28125q0.984375 0 1.46875 -0.359375q0.5 -0.375 0.5 -0.859375q0 -0.21875 -0.09375 -0.40625q-0.09375 -0.203125 -0.34375 -0.375q-0.234375 -0.1875 -0.71875 -0.34375q-0.484375 -0.15625 -1.28125 -0.3125q-1.515625 -0.328125 -2.28125 -0.859375q-0.765625 -0.546875 -0.765625 -1.421875q0 -0.9375 0.8125 -1.5625q0.828125 -0.640625 2.421875 -0.640625q0.90625 0 1.734375 0.296875q0.828125 0.296875 1.40625 0.703125l-0.640625 0.84375q-0.53125 -0.390625 -1.203125 -0.59375q-0.671875 -0.21875 -1.40625 -0.21875q-0.671875 0 -1.0625 0.15625q-0.390625 0.140625 -0.5625 0.40625q-0.171875 0.25 -0.171875 0.546875q0 0.5 0.53125 0.78125q0.546875 0.28125 1.734375 0.515625q1.296875 0.28125 1.984375 0.625q0.703125 0.328125 0.96875 0.765625q0.265625 0.421875 0.265625 1.015625q0 0.640625 -0.40625 1.15625q-0.40625 0.515625 -1.171875 0.84375q-0.765625 0.3125 -1.890625 0.3125zm10.943771 0q-1.125 0 -1.78125 -0.40625q-0.65625 -0.40625 -0.9375 -1.125q-0.28125 -0.71875 -0.28125 -1.6875l0 -3.671875l-2.1875 0l0 -1.0l2.234375 -0.078125l0.171875 -2.484375l1.09375 0l0 2.484375l3.828125 0l0 1.078125l-3.828125 0l0 3.6875q0 0.703125 0.171875 1.1875q0.171875 0.46875 0.609375 0.71875q0.4375 0.234375 1.1875 0.234375q0.5625 0 1.0 -0.09375q0.453125 -0.109375 0.875 -0.265625l0.28125 0.96875q-0.53125 0.1875 -1.109375 0.3125q-0.578125 0.140625 -1.328125 0.140625zm19.200043 0q-1.125 0 -1.78125 -0.40625q-0.65625 -0.40625 -0.9375 -1.125q-0.28125 -0.71875 -0.28125 -1.6875l0 -3.671875l-2.1875 0l0 -1.0l2.234375 -0.078125l0.171875 -2.484375l1.09375 0l0 2.484375l3.828125 0l0 1.078125l-3.828125 0l0 3.6875q0 0.703125 0.171875 1.1875q0.171875 0.46875 0.609375 0.71875q0.4375 0.234375 1.1875 0.234375q0.5625 0 1.0 -0.09375q0.453125 -0.109375 0.875 -0.265625l0.28125 0.96875q-0.53125 0.1875 -1.109375 0.3125q-0.578125 0.140625 -1.328125 0.140625zm4.3343964 -0.1875l2.953125 -4.03125l-2.734375 -3.75l1.453125 0l1.234375 1.71875q0.203125 0.296875 0.4375 0.640625q0.25 0.328125 0.46875 0.671875l0.0625 0q0.21875 -0.34375 0.4375 -0.6875q0.234375 -0.34375 0.453125 -0.65625l1.15625 -1.6875l1.40625 0l-2.78125 3.859375l2.984375 3.921875l-1.4375 0l-1.359375 -1.796875q-0.25 -0.328125 -0.515625 -0.6875q-0.265625 -0.375 -0.515625 -0.71875l-0.0625 0q-0.234375 0.34375 -0.484375 0.703125q-0.234375 0.34375 -0.46875 0.703125l-1.28125 1.796875l-1.40625 0zm19.528168 -6.5l0 -1.0l6.875 0l0 1.0l-6.875 0zm0 3.4375l0 -1.0l6.875 0l0 1.0l-6.875 0zm19.387543 3.0625l0 -1.09375l2.953125 0l0 -7.515625l-2.296875 0l0 -0.84375q0.609375 -0.078125 1.078125 -0.1875q0.46875 -0.125 0.84375 -0.25q0.390625 -0.140625 0.703125 -0.3125l0.984375 0l0 9.109375l2.671875 0l0 1.09375l-6.9375 0z" fill-rule="nonzero"/><path fill="#000000" d="m103.39423 285.9125l0 -10.5l1.34375 0l0 4.40625l4.375 0l0 -4.40625l1.359375 0l0 10.5l-1.359375 0l0 -4.9375l-4.375 0l0 4.9375l-1.34375 0zm13.396896 0l0 -6.703125l-3.625 0l0 -1.078125l4.9375 0l0 7.78125l-1.3125 0zm0.5 -9.40625q-0.4375 0 -0.75 -0.28125q-0.296875 -0.28125 -0.296875 -0.75q0 -0.453125 0.296875 -0.734375q0.3125 -0.28125 0.75 -0.28125q0.453125 0 0.75 0.28125q0.3125 0.28125 0.3125 0.734375q0 0.46875 -0.3125 0.75q-0.296875 0.28125 -0.75 0.28125zm8.771896 12.984375q-1.140625 0 -1.9375 -0.25q-0.796875 -0.25 -1.21875 -0.734375q-0.421875 -0.484375 -0.421875 -1.171875q0 -0.46875 0.328125 -0.921875q0.328125 -0.453125 0.953125 -0.796875l0 -0.078125q-0.3125 -0.171875 -0.5625 -0.46875q-0.25 -0.3125 -0.25 -0.796875q0 -0.375 0.234375 -0.765625q0.25 -0.390625 0.703125 -0.703125l0 -0.0625q-0.40625 -0.296875 -0.6875 -0.8125q-0.28125 -0.515625 -0.28125 -1.203125q0 -0.84375 0.421875 -1.46875q0.4375 -0.625 1.125 -0.96875q0.703125 -0.34375 1.515625 -0.34375q0.65625 0 1.15625 0.1875l3.2187576 0l0 1.078125l-2.015625 0q0.265625 0.265625 0.453125 0.6875q0.1875 0.421875 0.1875 0.875q0 0.84375 -0.40625 1.4375q-0.390625 0.59375 -1.0781326 0.921875q-0.671875 0.3125 -1.515625 0.3125q-0.296875 0 -0.65625 -0.0625q-0.34375 -0.078125 -0.65625 -0.21875q-0.28125 0.171875 -0.453125 0.40625q-0.15625 0.21875 -0.15625 0.484375q0 0.453125 0.421875 0.6875q0.421875 0.21875 1.203125 0.21875l1.734375 0q1.5000076 0 2.2343826 0.421875q0.734375 0.40625 0.734375 1.390625q0 0.71875 -0.53125 1.34375q-0.53125 0.625 -1.5 1.0q-0.9687576 0.375 -2.2968826 0.375zm-0.078125 -6.921875q0.5 0 0.90625 -0.21875q0.40625 -0.234375 0.640625 -0.640625q0.25 -0.421875 0.25 -0.984375q0 -0.546875 -0.25 -0.953125q-0.234375 -0.40625 -0.640625 -0.640625q-0.40625 -0.234375 -0.90625 -0.234375q-0.484375 0 -0.890625 0.234375q-0.40625 0.234375 -0.65625 0.640625q-0.25 0.40625 -0.25 0.953125q0 0.5625 0.25 0.984375q0.25 0.40625 0.65625 0.640625q0.40625 0.21875 0.890625 0.21875zm0.171875 5.96875q0.921875 0 1.578125 -0.234375q0.6562576 -0.21875 1.0000076 -0.578125q0.359375 -0.34375 0.359375 -0.734375q0 -0.5625 -0.453125 -0.765625q-0.4375 -0.1875 -1.3281326 -0.1875l-1.515625 0q-0.34375 0 -0.640625 -0.03125q-0.296875 -0.03125 -0.546875 -0.09375q-0.546875 0.296875 -0.78125 0.625q-0.21875 0.328125 -0.21875 0.671875q0 0.609375 0.640625 0.96875q0.65625 0.359375 1.90625 0.359375zm6.256279 -2.625l0 -11.390625l1.3125 0l0 3.109375l-0.078125 1.828125l0.046875 0q0.59375 -0.640625 1.296875 -1.078125q0.703125 -0.4375 1.625 -0.4375q1.375 0 2.03125 0.796875q0.65625 0.796875 0.65625 2.34375l0 4.828125l-1.3125 0l0 -4.65625q0 -1.109375 -0.421875 -1.640625q-0.421875 -0.53125 -1.375 -0.53125q-0.6875 0 -1.234375 0.359375q-0.546875 0.34375 -1.234375 1.046875l0 5.421875l-1.3125 0zm13.396896 0.1875q-1.171875 0 -2.125 -0.46875q-0.953125 -0.484375 -1.515625 -1.40625q-0.546875 -0.921875 -0.546875 -2.21875q0 -1.265625 0.546875 -2.171875q0.5625 -0.90625 1.46875 -1.390625q0.90625 -0.5 1.953125 -0.5q1.109375 0 1.90625 0.453125q0.796875 0.453125 1.21875 1.28125q0.421875 0.8125 0.421875 1.921875q0 0.21875 -0.015625 0.421875q-0.015625 0.203125 -0.046875 0.375l-6.578125 0l0 -1.03125l5.796875 0l-0.34375 0.375q0 -1.375 -0.640625 -2.0625q-0.625 -0.6875 -1.6875 -0.6875q-0.71875 0 -1.34375 0.359375q-0.609375 0.34375 -0.984375 1.015625q-0.359375 0.671875 -0.359375 1.640625q0 1.015625 0.390625 1.6875q0.40625 0.671875 1.09375 1.015625q0.6875 0.34375 1.546875 0.34375q0.703125 0 1.265625 -0.203125q0.578125 -0.203125 1.109375 -0.53125l0.46875 0.859375q-0.5625 0.375 -1.3125 0.65625q-0.75 0.265625 -1.6875 0.265625zm9.271896 0q-1.125 0 -2.125 -0.359375q-0.984375 -0.375 -1.6875 -0.859375l0.609375 -0.859375q0.671875 0.484375 1.484375 0.78125q0.8125 0.28125 1.890625 0.28125q0.984375 0 1.46875 -0.359375q0.5 -0.375 0.5 -0.859375q0 -0.21875 -0.09375 -0.40625q-0.09375 -0.203125 -0.34375 -0.375q-0.234375 -0.1875 -0.71875 -0.34375q-0.484375 -0.15625 -1.28125 -0.3125q-1.515625 -0.328125 -2.28125 -0.859375q-0.765625 -0.546875 -0.765625 -1.421875q0 -0.9375 0.8125 -1.5625q0.828125 -0.640625 2.421875 -0.640625q0.90625 0 1.734375 0.296875q0.828125 0.296875 1.40625 0.703125l-0.640625 0.84375q-0.53125 -0.390625 -1.203125 -0.59375q-0.671875 -0.21875 -1.40625 -0.21875q-0.671875 0 -1.0625 0.15625q-0.390625 0.140625 -0.5625 0.40625q-0.171875 0.25 -0.171875 0.546875q0 0.5 0.53125 0.78125q0.546875 0.28125 1.734375 0.515625q1.296875 0.28125 1.984375 0.625q0.703125 0.328125 0.96875 0.765625q0.265625 0.421875 0.265625 1.015625q0 0.640625 -0.40625 1.15625q-0.40625 0.515625 -1.171875 0.84375q-0.765625 0.3125 -1.890625 0.3125zm10.943771 0q-1.125 0 -1.78125 -0.40625q-0.65625 -0.40625 -0.9375 -1.125q-0.28125 -0.71875 -0.28125 -1.6875l0 -3.671875l-2.1875 0l0 -1.0l2.234375 -0.078125l0.171875 -2.484375l1.09375 0l0 2.484375l3.828125 0l0 1.078125l-3.828125 0l0 3.6875q0 0.703125 0.171875 1.1875q0.171875 0.46875 0.609375 0.71875q0.4375 0.234375 1.1875 0.234375q0.5625 0 1.0 -0.09375q0.453125 -0.109375 0.875 -0.265625l0.28125 0.96875q-0.53125 0.1875 -1.109375 0.3125q-0.578125 0.140625 -1.328125 0.140625zm19.200043 0q-1.125 0 -1.78125 -0.40625q-0.65625 -0.40625 -0.9375 -1.125q-0.28125 -0.71875 -0.28125 -1.6875l0 -3.671875l-2.1875 0l0 -1.0l2.234375 -0.078125l0.171875 -2.484375l1.09375 0l0 2.484375l3.828125 0l0 1.078125l-3.828125 0l0 3.6875q0 0.703125 0.171875 1.1875q0.171875 0.46875 0.609375 0.71875q0.4375 0.234375 1.1875 0.234375q0.5625 0 1.0 -0.09375q0.453125 -0.109375 0.875 -0.265625l0.28125 0.96875q-0.53125 0.1875 -1.109375 0.3125q-0.578125 0.140625 -1.328125 0.140625zm4.3343964 -0.1875l2.953125 -4.03125l-2.734375 -3.75l1.453125 0l1.234375 1.71875q0.203125 0.296875 0.4375 0.640625q0.25 0.328125 0.46875 0.671875l0.0625 0q0.21875 -0.34375 0.4375 -0.6875q0.234375 -0.34375 0.453125 -0.65625l1.15625 -1.6875l1.40625 0l-2.78125 3.859375l2.984375 3.921875l-1.4375 0l-1.359375 -1.796875q-0.25 -0.328125 -0.515625 -0.6875q-0.265625 -0.375 -0.515625 -0.71875l-0.0625 0q-0.234375 0.34375 -0.484375 0.703125q-0.234375 0.34375 -0.46875 0.703125l-1.28125 1.796875l-1.40625 0zm19.528168 -6.5l0 -1.0l6.875 0l0 1.0l-6.875 0zm0 3.4375l0 -1.0l6.875 0l0 1.0l-6.875 0zm22.418793 3.25q-0.921875 0 -1.609375 -0.1875q-0.6875 -0.203125 -1.1875 -0.515625q-0.5 -0.328125 -0.890625 -0.6875l0.65625 -0.859375q0.34375 0.296875 0.75 0.5625q0.40625 0.265625 0.9375 0.4375q0.53125 0.171875 1.203125 0.171875q0.71875 0 1.3125 -0.28125q0.59375 -0.296875 0.9375 -0.8125q0.34375 -0.53125 0.34375 -1.25q0 -1.046875 -0.703125 -1.640625q-0.6875 -0.59375 -1.8125 -0.59375q-0.640625 0 -1.09375 0.15625q-0.453125 0.15625 -0.984375 0.46875l-0.703125 -0.453125l0.328125 -4.90625l5.78125 0l0 1.125l-4.609375 0l-0.28125 3.03125q0.4375 -0.1875 0.875 -0.296875q0.4375 -0.125 1.015625 -0.125q0.984375 0 1.78125 0.34375q0.796875 0.328125 1.265625 1.046875q0.46875 0.703125 0.46875 1.8125q0 1.109375 -0.546875 1.890625q-0.53125 0.765625 -1.40625 1.171875q-0.859375 0.390625 -1.828125 0.390625z" fill-rule="nonzero"/><path fill="#eeeeee" d="m374.39896 186.17586l238.88974 0l0 138.75328l-238.88974 0z" fill-rule="evenodd"/><path stroke="#595959" stroke-width="1.0" stroke-linejoin="round" stroke-linecap="butt" stroke-dasharray="4.0,3.0" d="m374.39896 186.17586l238.88974 0l0 138.75328l-238.88974 0z" fill-rule="evenodd"/><path fill="#000000" d="m426.71832 227.7475l6.6875 0q2.265625 0 3.453125 0.34375q1.59375 0.46875 2.734375 1.671875q1.140625 1.1875 1.734375 2.9375q0.59375 1.734375 0.59375 4.28125q0 2.234375 -0.5625 3.859375q-0.671875 1.96875 -1.9375 3.203125q-0.953125 0.921875 -2.578125 1.4375q-1.203125 0.390625 -3.234375 0.390625l-6.890625 0l0 -18.125zm3.65625 3.0625l0 12.0l2.734375 0q1.53125 0 2.21875 -0.171875q0.890625 -0.21875 1.46875 -0.75q0.59375 -0.53125 0.96875 -1.75q0.375 -1.21875 0.375 -3.3125q0 -2.109375 -0.375 -3.234375q-0.375 -1.125 -1.046875 -1.75q-0.65625 -0.640625 -1.6875 -0.859375q-0.765625 -0.171875 -3.0 -0.171875l-1.65625 0zm14.619293 0.140625l0 -3.203125l3.484375 0l0 3.203125l-3.484375 0zm0 14.921875l0 -13.140625l3.484375 0l0 13.140625l-3.484375 0zm5.5213623 -13.140625l1.921875 0l0 -0.984375q0 -1.65625 0.359375 -2.46875q0.359375 -0.8125 1.296875 -1.328125q0.953125 -0.515625 2.390625 -0.515625q1.484375 0 2.90625 0.4375l-0.46875 2.421875q-0.828125 -0.1875 -1.59375 -0.1875q-0.75 0 -1.078125 0.359375q-0.328125 0.34375 -0.328125 1.34375l0 0.921875l2.59375 0l0 2.734375l-2.59375 0l0 10.40625l-3.484375 0l0 -10.40625l-1.921875 0l0 -2.734375zm8.434448 0l1.921875 0l0 -0.984375q0 -1.65625 0.359375 -2.46875q0.359375 -0.8125 1.296875 -1.328125q0.953125 -0.515625 2.390625 -0.515625q1.484375 0 2.90625 0.4375l-0.46875 2.421875q-0.828125 -0.1875 -1.59375 -0.1875q-0.75 0 -1.078125 0.359375q-0.328125 0.34375 -0.328125 1.34375l0 0.921875l2.59375 0l0 2.734375l-2.59375 0l0 10.40625l-3.484375 0l0 -10.40625l-1.921875 0l0 -2.734375zm16.846436 13.140625l0 -18.125l3.46875 0l0 6.53125q1.609375 -1.84375 3.8125 -1.84375q2.40625 0 3.96875 1.75q1.578125 1.734375 1.578125 4.984375q0 3.359375 -1.609375 5.1875q-1.59375 1.8125 -3.890625 1.8125q-1.125 0 -2.21875 -0.5625q-1.09375 -0.5625 -1.890625 -1.65625l0 1.921875l-3.21875 0zm3.453125 -6.84375q0 2.03125 0.640625 3.015625q0.90625 1.375 2.390625 1.375q1.15625 0 1.96875 -0.984375q0.8125 -0.984375 0.8125 -3.09375q0 -2.25 -0.828125 -3.234375q-0.8125 -1.0 -2.078125 -1.0q-1.25 0 -2.078125 0.96875q-0.828125 0.96875 -0.828125 2.953125zm14.768311 -2.28125l-3.15625 -0.578125q0.53125 -1.890625 1.828125 -2.8125q1.296875 -0.921875 3.859375 -0.921875q2.328125 0 3.453125 0.5625q1.140625 0.546875 1.609375 1.390625q0.46875 0.84375 0.46875 3.109375l-0.046875 4.0625q0 1.734375 0.171875 2.5625q0.171875 0.8125 0.625 1.75l-3.4375 0q-0.140625 -0.34375 -0.328125 -1.03125q-0.09375 -0.296875 -0.125 -0.40625q-0.890625 0.875 -1.90625 1.3125q-1.015625 0.421875 -2.171875 0.421875q-2.03125 0 -3.203125 -1.09375q-1.15625 -1.109375 -1.15625 -2.796875q0 -1.109375 0.53125 -1.96875q0.53125 -0.875 1.484375 -1.34375q0.96875 -0.46875 2.765625 -0.8125q2.4375 -0.453125 3.375 -0.859375l0 -0.34375q0 -1.0 -0.5 -1.421875q-0.484375 -0.421875 -1.859375 -0.421875q-0.921875 0 -1.453125 0.359375q-0.515625 0.359375 -0.828125 1.28125zm4.640625 2.8125q-0.671875 0.234375 -2.125 0.546875q-1.4375 0.296875 -1.875 0.59375q-0.6875 0.484375 -0.6875 1.234375q0 0.71875 0.546875 1.25q0.546875 0.53125 1.390625 0.53125q0.9375 0 1.78125 -0.609375q0.640625 -0.46875 0.828125 -1.15625q0.140625 -0.4375 0.140625 -1.6875l0 -0.703125zm18.28946 -2.9375l-3.421875 0.625q-0.171875 -1.03125 -0.78125 -1.546875q-0.609375 -0.53125 -1.5937805 -0.53125q-1.296875 0 -2.078125 0.90625q-0.765625 0.890625 -0.765625 3.0q0 2.328125 0.78125 3.296875q0.796875 0.96875 2.109375 0.96875q1.0000305 0 1.6250305 -0.5625q0.625 -0.5625 0.890625 -1.9375l3.40625 0.578125q-0.53125 2.34375 -2.046875 3.546875q-1.5 1.203125 -4.0312805 1.203125q-2.875 0 -4.59375 -1.8125q-1.71875 -1.828125 -1.71875 -5.03125q0 -3.265625 1.71875 -5.078125q1.71875 -1.8125 4.65625 -1.8125q2.3906555 0 3.8125305 1.046875q1.421875 1.03125 2.03125 3.140625zm2.5081787 9.25l0 -18.125l3.484375 0l0 9.609375l4.0625 -4.625l4.28125 0l-4.484375 4.8125l4.8125 8.328125l-3.75 0l-3.296875 -5.90625l-1.625 1.703125l0 4.203125l-3.484375 0zm22.867554 0l0 -1.96875q-0.71875 1.046875 -1.890625 1.65625q-1.171875 0.609375 -2.46875 0.609375q-1.328125 0 -2.375 -0.578125q-1.046875 -0.578125 -1.515625 -1.625q-0.46875 -1.0625 -0.46875 -2.921875l0 -8.3125l3.46875 0l0 6.046875q0 2.765625 0.1875 3.390625q0.203125 0.625 0.703125 1.0q0.5 0.359375 1.28125 0.359375q0.890625 0 1.59375 -0.484375q0.71875 -0.5 0.96875 -1.21875q0.265625 -0.734375 0.265625 -3.546875l0 -5.546875l3.46875 0l0 13.140625l-3.21875 0zm6.7214355 -13.140625l3.234375 0l0 1.9375q0.640625 -0.984375 1.703125 -1.609375q1.078125 -0.625 2.390625 -0.625q2.296875 0 3.890625 1.796875q1.59375 1.796875 1.59375 5.0q0 3.296875 -1.609375 5.125q-1.609375 1.8125 -3.890625 1.8125q-1.09375 0 -1.984375 -0.421875q-0.875 -0.4375 -1.859375 -1.5l0 6.625l-3.46875 0l0 -18.140625zm3.4375 6.34375q0 2.21875 0.875 3.28125q0.875 1.046875 2.140625 1.046875q1.21875 0 2.015625 -0.96875q0.8125 -0.96875 0.8125 -3.171875q0 -2.078125 -0.828125 -3.078125q-0.828125 -1.0 -2.0625 -1.0q-1.265625 0 -2.109375 0.984375q-0.84375 0.984375 -0.84375 2.90625z" fill-rule="nonzero"/><path fill="#000000" d="m433.53958 266.9125l0 -10.5l1.3125 0l0 9.359375l5.203125 0l0 1.140625l-6.515625 0zm12.256256 0.1875q-1.015625 0 -1.890625 -0.46875q-0.875 -0.484375 -1.421875 -1.390625q-0.53125 -0.921875 -0.53125 -2.203125q0 -1.3125 0.53125 -2.21875q0.546875 -0.921875 1.421875 -1.390625q0.875 -0.484375 1.890625 -0.484375q1.03125 0 1.890625 0.484375q0.875 0.46875 1.40625 1.390625q0.546875 0.90625 0.546875 2.21875q0 1.28125 -0.546875 2.203125q-0.53125 0.90625 -1.40625 1.390625q-0.859375 0.46875 -1.890625 0.46875zm0 -1.078125q0.75 0 1.3125 -0.375q0.5625 -0.375 0.859375 -1.046875q0.3125 -0.671875 0.3125 -1.5625q0 -0.890625 -0.3125 -1.5625q-0.296875 -0.6875 -0.859375 -1.0625q-0.5625 -0.375 -1.3125 -0.375q-0.75 0 -1.3125 0.375q-0.546875 0.375 -0.859375 1.0625q-0.3125 0.671875 -0.3125 1.5625q0 0.890625 0.3125 1.5625q0.3125 0.671875 0.859375 1.046875q0.5625 0.375 1.3125 0.375zm6.6312866 0.890625l-1.703125 -7.78125l1.3125 0l0.9375 4.515625q0.109375 0.546875 0.1875 1.0625q0.09375 0.515625 0.15625 1.078125l0.0625 0q0.078125 -0.5625 0.203125 -1.078125q0.125 -0.515625 0.25 -1.0625l0.953125 -4.03125l1.3125 0l0.9375 4.03125q0.125 0.546875 0.265625 1.0625q0.140625 0.515625 0.203125 1.078125l0.0625 0q0.109375 -0.5625 0.171875 -1.078125q0.078125 -0.515625 0.1875 -1.0625l0.921875 -4.515625l1.21875 0l-1.65625 7.78125l-1.703125 0l-0.890625 -3.71875q-0.09375 -0.40625 -0.203125 -0.984375q-0.09375 -0.578125 -0.1875 -1.3125l-0.0625 0q-0.09375 0.734375 -0.1875 1.3125q-0.09375 0.578125 -0.1875 0.984375l-0.875 3.71875l-1.6875 0zm13.053131 0.1875q-1.171875 0 -2.125 -0.46875q-0.953125 -0.484375 -1.515625 -1.40625q-0.546875 -0.921875 -0.546875 -2.21875q0 -1.265625 0.546875 -2.171875q0.5625 -0.90625 1.46875 -1.390625q0.90625 -0.5 1.953125 -0.5q1.109375 0 1.90625 0.453125q0.796875 0.453125 1.21875 1.28125q0.421875 0.8125 0.421875 1.921875q0 0.21875 -0.015625 0.421875q-0.015625 0.203125 -0.046875 0.375l-6.578125 0l0 -1.03125l5.796875 0l-0.34375 0.375q0 -1.375 -0.640625 -2.0625q-0.625 -0.6875 -1.6875 -0.6875q-0.71875 0 -1.34375 0.359375q-0.609375 0.34375 -0.984375 1.015625q-0.359375 0.671875 -0.359375 1.640625q0 1.015625 0.390625 1.6875q0.40625 0.671875 1.09375 1.015625q0.6875 0.34375 1.546875 0.34375q0.703125 0 1.265625 -0.203125q0.578125 -0.203125 1.109375 -0.53125l0.46875 0.859375q-0.5625 0.375 -1.3125 0.65625q-0.75 0.265625 -1.6875 0.265625zm9.271912 0q-1.125 0 -2.125 -0.359375q-0.984375 -0.375 -1.6875 -0.859375l0.609375 -0.859375q0.671875 0.484375 1.484375 0.78125q0.8125 0.28125 1.890625 0.28125q0.984375 0 1.46875 -0.359375q0.5 -0.375 0.5 -0.859375q0 -0.21875 -0.09375 -0.40625q-0.09375 -0.203125 -0.34375 -0.375q-0.234375 -0.1875 -0.71875 -0.34375q-0.484375 -0.15625 -1.28125 -0.3125q-1.515625 -0.328125 -2.28125 -0.859375q-0.765625 -0.546875 -0.765625 -1.421875q0 -0.9375 0.8125 -1.5625q0.828125 -0.640625 2.421875 -0.640625q0.90625 0 1.734375 0.296875q0.828125 0.296875 1.40625 0.703125l-0.640625 0.84375q-0.53125 -0.390625 -1.203125 -0.59375q-0.671875 -0.21875 -1.40625 -0.21875q-0.671875 0 -1.0625 0.15625q-0.390625 0.140625 -0.5625 0.40625q-0.171875 0.25 -0.171875 0.546875q0 0.5 0.53125 0.78125q0.546875 0.28125 1.734375 0.515625q1.296875 0.28125 1.984375 0.625q0.703125 0.328125 0.96875 0.765625q0.265625 0.421875 0.265625 1.015625q0 0.640625 -0.40625 1.15625q-0.40625 0.515625 -1.171875 0.84375q-0.765625 0.3125 -1.890625 0.3125zm10.943756 0q-1.125 0 -1.78125 -0.40625q-0.65625 -0.40625 -0.9375 -1.125q-0.28125 -0.71875 -0.28125 -1.6875l0 -3.671875l-2.1875 0l0 -1.0l2.234375 -0.078125l0.171875 -2.484375l1.09375 0l0 2.484375l3.828125 0l0 1.078125l-3.828125 0l0 3.6875q0 0.703125 0.171875 1.1875q0.171875 0.46875 0.609375 0.71875q0.4375 0.234375 1.1875 0.234375q0.5625 0 1.0 -0.09375q0.453125 -0.109375 0.875 -0.265625l0.28125 0.96875q-0.53125 0.1875 -1.109375 0.3125q-0.578125 0.140625 -1.328125 0.140625zm19.200043 0q-1.125 0 -1.78125 -0.40625q-0.65625 -0.40625 -0.9375 -1.125q-0.28125 -0.71875 -0.28125 -1.6875l0 -3.671875l-2.1875 0l0 -1.0l2.234375 -0.078125l0.171875 -2.484375l1.09375 0l0 2.484375l3.828125 0l0 1.078125l-3.828125 0l0 3.6875q0 0.703125 0.171875 1.1875q0.171875 0.46875 0.609375 0.71875q0.4375 0.234375 1.1875 0.234375q0.5625 0 1.0 -0.09375q0.453125 -0.109375 0.875 -0.265625l0.28125 0.96875q-0.53125 0.1875 -1.109375 0.3125q-0.578125 0.140625 -1.328125 0.140625zm4.3344116 -0.1875l2.9530945 -4.03125l-2.7343445 -3.75l1.453125 0l1.2343445 1.71875q0.203125 0.296875 0.4375 0.640625q0.25 0.328125 0.46875 0.671875l0.0625 0q0.21875 -0.34375 0.4375 -0.6875q0.234375 -0.34375 0.453125 -0.65625l1.15625 -1.6875l1.40625 0l-2.78125 3.859375l2.984375 3.921875l-1.4375 0l-1.359375 -1.796875q-0.25 -0.328125 -0.515625 -0.6875q-0.265625 -0.375 -0.515625 -0.71875l-0.0625 0q-0.234375 0.34375 -0.484375 0.703125q-0.234375 0.34375 -0.46871948 0.703125l-1.28125 1.796875l-1.40625 0zm19.528168 -6.5l0 -1.0l6.875 0l0 1.0l-6.875 0zm0 3.4375l0 -1.0l6.875 0l0 1.0l-6.875 0zm22.981262 3.25q-0.84375 0 -1.5625 -0.296875q-0.703125 -0.3125 -1.234375 -0.921875q-0.515625 -0.609375 -0.8125 -1.53125q-0.296875 -0.921875 -0.296875 -2.15625q0 -1.53125 0.34375 -2.609375q0.359375 -1.09375 0.953125 -1.765625q0.609375 -0.671875 1.375 -0.984375q0.765625 -0.328125 1.59375 -0.328125q0.9375 0 1.640625 0.3125q0.703125 0.3125 1.21875 0.78125l-0.75 0.8125q-0.375 -0.359375 -0.921875 -0.578125q-0.53125 -0.21875 -1.109375 -0.21875q-0.828125 0 -1.53125 0.4375q-0.703125 0.421875 -1.140625 1.421875q-0.4375 1.0 -0.4375 2.71875q0 1.265625 0.3125 2.125q0.3125 0.859375 0.90625 1.3125q0.59375 0.4375 1.453125 0.4375q0.609375 0 1.09375 -0.28125q0.484375 -0.28125 0.765625 -0.78125q0.296875 -0.515625 0.296875 -1.1875q0 -1.046875 -0.5625 -1.59375q-0.5625 -0.5625 -1.609375 -0.5625q-0.609375 0 -1.3125 0.328125q-0.703125 0.328125 -1.359375 1.109375l-0.046875 -1.03125q0.640625 -0.640625 1.390625 -1.015625q0.765625 -0.375 1.5625 -0.375q0.9375 0 1.65625 0.359375q0.734375 0.34375 1.125 1.046875q0.40625 0.703125 0.40625 1.734375q0 0.984375 -0.484375 1.71875q-0.46875 0.734375 -1.25 1.15625q-0.765625 0.40625 -1.671875 0.40625z" fill-rule="nonzero"/><path fill="#000000" d="m432.66458 285.9125l0 -10.5l1.34375 0l0 4.40625l4.375 0l0 -4.40625l1.359375 0l0 10.5l-1.359375 0l0 -4.9375l-4.375 0l0 4.9375l-1.34375 0zm13.396881 0l0 -6.703125l-3.625 0l0 -1.078125l4.9375 0l0 7.78125l-1.3125 0zm0.5 -9.40625q-0.4375 0 -0.75 -0.28125q-0.296875 -0.28125 -0.296875 -0.75q0 -0.453125 0.296875 -0.734375q0.3125 -0.28125 0.75 -0.28125q0.453125 0 0.75 0.28125q0.3125 0.28125 0.3125 0.734375q0 0.46875 -0.3125 0.75q-0.296875 0.28125 -0.75 0.28125zm8.771912 12.984375q-1.140625 0 -1.9375 -0.25q-0.796875 -0.25 -1.21875 -0.734375q-0.421875 -0.484375 -0.421875 -1.171875q0 -0.46875 0.328125 -0.921875q0.328125 -0.453125 0.953125 -0.796875l0 -0.078125q-0.3125 -0.171875 -0.5625 -0.46875q-0.25 -0.3125 -0.25 -0.796875q0 -0.375 0.234375 -0.765625q0.25 -0.390625 0.703125 -0.703125l0 -0.0625q-0.40625 -0.296875 -0.6875 -0.8125q-0.28125 -0.515625 -0.28125 -1.203125q0 -0.84375 0.421875 -1.46875q0.4375 -0.625 1.125 -0.96875q0.703125 -0.34375 1.515625 -0.34375q0.65625 0 1.15625 0.1875l3.21875 0l0 1.078125l-2.015625 0q0.265625 0.265625 0.453125 0.6875q0.1875 0.421875 0.1875 0.875q0 0.84375 -0.40625 1.4375q-0.390625 0.59375 -1.078125 0.921875q-0.671875 0.3125 -1.515625 0.3125q-0.296875 0 -0.65625 -0.0625q-0.34375 -0.078125 -0.65625 -0.21875q-0.28125 0.171875 -0.453125 0.40625q-0.15625 0.21875 -0.15625 0.484375q0 0.453125 0.421875 0.6875q0.421875 0.21875 1.203125 0.21875l1.734375 0q1.5 0 2.234375 0.421875q0.734375 0.40625 0.734375 1.390625q0 0.71875 -0.53125 1.34375q-0.53125 0.625 -1.5 1.0q-0.96875 0.375 -2.296875 0.375zm-0.078125 -6.921875q0.5 0 0.90625 -0.21875q0.40625 -0.234375 0.640625 -0.640625q0.25 -0.421875 0.25 -0.984375q0 -0.546875 -0.25 -0.953125q-0.234375 -0.40625 -0.640625 -0.640625q-0.40625 -0.234375 -0.90625 -0.234375q-0.484375 0 -0.890625 0.234375q-0.40625 0.234375 -0.65625 0.640625q-0.25 0.40625 -0.25 0.953125q0 0.5625 0.25 0.984375q0.25 0.40625 0.65625 0.640625q0.40625 0.21875 0.890625 0.21875zm0.171875 5.96875q0.921875 0 1.578125 -0.234375q0.65625 -0.21875 1.0 -0.578125q0.359375 -0.34375 0.359375 -0.734375q0 -0.5625 -0.453125 -0.765625q-0.4375 -0.1875 -1.328125 -0.1875l-1.515625 0q-0.34375 0 -0.640625 -0.03125q-0.296875 -0.03125 -0.546875 -0.09375q-0.546875 0.296875 -0.78125 0.625q-0.21875 0.328125 -0.21875 0.671875q0 0.609375 0.640625 0.96875q0.65625 0.359375 1.90625 0.359375zm6.256256 -2.625l0 -11.390625l1.3125 0l0 3.109375l-0.078125 1.828125l0.046875 0q0.59375 -0.640625 1.296875 -1.078125q0.703125 -0.4375 1.625 -0.4375q1.375 0 2.03125 0.796875q0.65625 0.796875 0.65625 2.34375l0 4.828125l-1.3125 0l0 -4.65625q0 -1.109375 -0.421875 -1.640625q-0.421875 -0.53125 -1.375 -0.53125q-0.6875 0 -1.234375 0.359375q-0.546875 0.34375 -1.234375 1.046875l0 5.421875l-1.3125 0zm13.396912 0.1875q-1.171875 0 -2.125 -0.46875q-0.953125 -0.484375 -1.515625 -1.40625q-0.546875 -0.921875 -0.546875 -2.21875q0 -1.265625 0.546875 -2.171875q0.5625 -0.90625 1.46875 -1.390625q0.90625 -0.5 1.953125 -0.5q1.109375 0 1.90625 0.453125q0.796875 0.453125 1.21875 1.28125q0.421875 0.8125 0.421875 1.921875q0 0.21875 -0.015625 0.421875q-0.015625 0.203125 -0.046875 0.375l-6.578125 0l0 -1.03125l5.796875 0l-0.34375 0.375q0 -1.375 -0.640625 -2.0625q-0.625 -0.6875 -1.6875 -0.6875q-0.71875 0 -1.34375 0.359375q-0.609375 0.34375 -0.984375 1.015625q-0.359375 0.671875 -0.359375 1.640625q0 1.015625 0.390625 1.6875q0.40625 0.671875 1.09375 1.015625q0.6875 0.34375 1.546875 0.34375q0.703125 0 1.265625 -0.203125q0.578125 -0.203125 1.109375 -0.53125l0.46875 0.859375q-0.5625 0.375 -1.3125 0.65625q-0.75 0.265625 -1.6875 0.265625zm9.271881 0q-1.125 0 -2.125 -0.359375q-0.984375 -0.375 -1.6875 -0.859375l0.609375 -0.859375q0.671875 0.484375 1.484375 0.78125q0.8125 0.28125 1.890625 0.28125q0.984375 0 1.46875 -0.359375q0.5 -0.375 0.5 -0.859375q0 -0.21875 -0.09375 -0.40625q-0.09375 -0.203125 -0.34375 -0.375q-0.234375 -0.1875 -0.71875 -0.34375q-0.484375 -0.15625 -1.28125 -0.3125q-1.515625 -0.328125 -2.28125 -0.859375q-0.765625 -0.546875 -0.765625 -1.421875q0 -0.9375 0.8125 -1.5625q0.828125 -0.640625 2.421875 -0.640625q0.90625 0 1.734375 0.296875q0.828125 0.296875 1.40625 0.703125l-0.640625 0.84375q-0.53125 -0.390625 -1.203125 -0.59375q-0.671875 -0.21875 -1.40625 -0.21875q-0.671875 0 -1.0625 0.15625q-0.390625 0.140625 -0.5625 0.40625q-0.171875 0.25 -0.171875 0.546875q0 0.5 0.53125 0.78125q0.546875 0.28125 1.734375 0.515625q1.296875 0.28125 1.984375 0.625q0.703125 0.328125 0.96875 0.765625q0.265625 0.421875 0.265625 1.015625q0 0.640625 -0.40625 1.15625q-0.40625 0.515625 -1.171875 0.84375q-0.765625 0.3125 -1.890625 0.3125zm10.943787 0q-1.125 0 -1.78125 -0.40625q-0.65625 -0.40625 -0.9375 -1.125q-0.28125 -0.71875 -0.28125 -1.6875l0 -3.671875l-2.1875 0l0 -1.0l2.234375 -0.078125l0.171875 -2.484375l1.09375 0l0 2.484375l3.828125 0l0 1.078125l-3.828125 0l0 3.6875q0 0.703125 0.171875 1.1875q0.171875 0.46875 0.609375 0.71875q0.4375 0.234375 1.1875 0.234375q0.5625 0 1.0 -0.09375q0.453125 -0.109375 0.875 -0.265625l0.28125 0.96875q-0.53125 0.1875 -1.109375 0.3125q-0.578125 0.140625 -1.328125 0.140625zm19.200012 0q-1.125 0 -1.78125 -0.40625q-0.65625 -0.40625 -0.9374695 -1.125q-0.28125 -0.71875 -0.28125 -1.6875l0 -3.671875l-2.1875 0l0 -1.0l2.234375 -0.078125l0.171875 -2.484375l1.0937195 0l0 2.484375l3.828125 0l0 1.078125l-3.828125 0l0 3.6875q0 0.703125 0.171875 1.1875q0.171875 0.46875 0.609375 0.71875q0.4375 0.234375 1.1875 0.234375q0.5625 0 1.0 -0.09375q0.453125 -0.109375 0.875 -0.265625l0.28125 0.96875q-0.53125 0.1875 -1.109375 0.3125q-0.578125 0.140625 -1.328125 0.140625zm4.3344116 -0.1875l2.953125 -4.03125l-2.734375 -3.75l1.453125 0l1.234375 1.71875q0.203125 0.296875 0.4375 0.640625q0.25 0.328125 0.46875 0.671875l0.0625 0q0.21875 -0.34375 0.4375 -0.6875q0.234375 -0.34375 0.453125 -0.65625l1.15625 -1.6875l1.40625 0l-2.78125 3.859375l2.984375 3.921875l-1.4375 0l-1.359375 -1.796875q-0.25 -0.328125 -0.515625 -0.6875q-0.265625 -0.375 -0.515625 -0.71875l-0.0625 0q-0.234375 0.34375 -0.484375 0.703125q-0.234375 0.34375 -0.46875 0.703125l-1.28125 1.796875l-1.40625 0zm19.528198 -6.5l0 -1.0l6.875 0l0 1.0l-6.875 0zm0 3.4375l0 -1.0l6.875 0l0 1.0l-6.875 0zm22.668762 3.25q-1.140625 0 -1.984375 -0.359375q-0.84375 -0.359375 -1.296875 -1.0q-0.453125 -0.640625 -0.453125 -1.4375q0 -0.703125 0.3125 -1.21875q0.328125 -0.53125 0.828125 -0.890625q0.5 -0.359375 1.046875 -0.609375l0 -0.0625q-0.640625 -0.421875 -1.09375 -1.0q-0.453125 -0.578125 -0.453125 -1.390625q0 -0.78125 0.40625 -1.375q0.40625 -0.59375 1.109375 -0.921875q0.71875 -0.328125 1.625 -0.328125q1.5 0 2.328125 0.765625q0.84375 0.765625 0.84375 1.953125q0 0.734375 -0.453125 1.359375q-0.453125 0.625 -1.09375 1.078125l0 0.0625q0.5625 0.296875 1.015625 0.640625q0.453125 0.328125 0.71875 0.8125q0.265625 0.46875 0.265625 1.203125q0 0.75 -0.4375 1.375q-0.421875 0.609375 -1.234375 0.984375q-0.8125 0.359375 -2.0 0.359375zm0.796875 -5.75q1.28125 -0.9375 1.28125 -2.046875q0 -0.5 -0.234375 -0.90625q-0.234375 -0.40625 -0.703125 -0.65625q-0.453125 -0.25 -1.125 -0.25q-0.828125 0 -1.375 0.453125q-0.546875 0.453125 -0.546875 1.1875q0 0.609375 0.359375 1.015625q0.359375 0.390625 0.96875 0.671875q0.625 0.28125 1.375 0.53125zm-0.765625 4.78125q1.140625 0 1.75 -0.5q0.625 -0.5 0.625 -1.296875q0 -0.53125 -0.25 -0.890625q-0.25 -0.359375 -0.6875 -0.59375q-0.421875 -0.25 -1.015625 -0.453125q-0.578125 -0.21875 -1.25 -0.4375q-0.5 0.265625 -0.90625 0.59375q-0.390625 0.3125 -0.625 0.71875q-0.21875 0.390625 -0.21875 0.90625q0 0.5625 0.3125 1.0q0.3125 0.4375 0.890625 0.703125q0.59375 0.25 1.375 0.25z" fill-rule="nonzero"/><path fill="#eeeeee" d="m694.3727 186.17586l238.88977 0l0 138.75328l-238.88977 0z" fill-rule="evenodd"/><path stroke="#595959" stroke-width="1.0" stroke-linejoin="round" stroke-linecap="butt" stroke-dasharray="4.0,3.0" d="m694.3727 186.17586l238.88977 0l0 138.75328l-238.88977 0z" fill-rule="evenodd"/><path fill="#000000" d="m746.6921 227.7475l6.6875 0q2.265625 0 3.453125 0.34375q1.59375 0.46875 2.734375 1.671875q1.140625 1.1875 1.734375 2.9375q0.59375 1.734375 0.59375 4.28125q0 2.234375 -0.5625 3.859375q-0.671875 1.96875 -1.9375 3.203125q-0.953125 0.921875 -2.578125 1.4375q-1.203125 0.390625 -3.234375 0.390625l-6.890625 0l0 -18.125zm3.65625 3.0625l0 12.0l2.734375 0q1.53125 0 2.21875 -0.171875q0.890625 -0.21875 1.46875 -0.75q0.59375 -0.53125 0.96875 -1.75q0.375 -1.21875 0.375 -3.3125q0 -2.109375 -0.375 -3.234375q-0.375 -1.125 -1.046875 -1.75q-0.65625 -0.640625 -1.6875 -0.859375q-0.765625 -0.171875 -3.0 -0.171875l-1.65625 0zm14.619324 0.140625l0 -3.203125l3.484375 0l0 3.203125l-3.484375 0zm0 14.921875l0 -13.140625l3.484375 0l0 13.140625l-3.484375 0zm5.5213013 -13.140625l1.921875 0l0 -0.984375q0 -1.65625 0.359375 -2.46875q0.359375 -0.8125 1.296875 -1.328125q0.953125 -0.515625 2.390625 -0.515625q1.484375 0 2.90625 0.4375l-0.46875 2.421875q-0.828125 -0.1875 -1.59375 -0.1875q-0.75 0 -1.078125 0.359375q-0.328125 0.34375 -0.328125 1.34375l0 0.921875l2.59375 0l0 2.734375l-2.59375 0l0 10.40625l-3.484375 0l0 -10.40625l-1.921875 0l0 -2.734375zm8.434509 0l1.921875 0l0 -0.984375q0 -1.65625 0.359375 -2.46875q0.359375 -0.8125 1.296875 -1.328125q0.953125 -0.515625 2.390625 -0.515625q1.484375 0 2.90625 0.4375l-0.46875 2.421875q-0.828125 -0.1875 -1.59375 -0.1875q-0.75 0 -1.078125 0.359375q-0.328125 0.34375 -0.328125 1.34375l0 0.921875l2.59375 0l0 2.734375l-2.59375 0l0 10.40625l-3.484375 0l0 -10.40625l-1.921875 0l0 -2.734375zm16.846436 13.140625l0 -18.125l3.46875 0l0 6.53125q1.609375 -1.84375 3.8125 -1.84375q2.40625 0 3.96875 1.75q1.578125 1.734375 1.578125 4.984375q0 3.359375 -1.609375 5.1875q-1.59375 1.8125 -3.890625 1.8125q-1.125 0 -2.21875 -0.5625q-1.09375 -0.5625 -1.890625 -1.65625l0 1.921875l-3.21875 0zm3.453125 -6.84375q0 2.03125 0.640625 3.015625q0.90625 1.375 2.390625 1.375q1.15625 0 1.96875 -0.984375q0.8125 -0.984375 0.8125 -3.09375q0 -2.25 -0.828125 -3.234375q-0.8125 -1.0 -2.078125 -1.0q-1.25 0 -2.078125 0.96875q-0.828125 0.96875 -0.828125 2.953125zm14.768311 -2.28125l-3.15625 -0.578125q0.53125 -1.890625 1.828125 -2.8125q1.296875 -0.921875 3.859375 -0.921875q2.328125 0 3.453125 0.5625q1.140625 0.546875 1.609375 1.390625q0.46875 0.84375 0.46875 3.109375l-0.046875 4.0625q0 1.734375 0.171875 2.5625q0.171875 0.8125 0.625 1.75l-3.4375 0q-0.140625 -0.34375 -0.328125 -1.03125q-0.09375 -0.296875 -0.125 -0.40625q-0.890625 0.875 -1.90625 1.3125q-1.015625 0.421875 -2.171875 0.421875q-2.03125 0 -3.203125 -1.09375q-1.15625 -1.109375 -1.15625 -2.796875q0 -1.109375 0.53125 -1.96875q0.53125 -0.875 1.484375 -1.34375q0.96875 -0.46875 2.765625 -0.8125q2.4375 -0.453125 3.375 -0.859375l0 -0.34375q0 -1.0 -0.5 -1.421875q-0.484375 -0.421875 -1.859375 -0.421875q-0.921875 0 -1.453125 0.359375q-0.515625 0.359375 -0.828125 1.28125zm4.640625 2.8125q-0.671875 0.234375 -2.125 0.546875q-1.4375 0.296875 -1.875 0.59375q-0.6875 0.484375 -0.6875 1.234375q0 0.71875 0.546875 1.25q0.546875 0.53125 1.390625 0.53125q0.9375 0 1.78125 -0.609375q0.640625 -0.46875 0.828125 -1.15625q0.140625 -0.4375 0.140625 -1.6875l0 -0.703125zm18.289429 -2.9375l-3.421875 0.625q-0.171875 -1.03125 -0.78125 -1.546875q-0.609375 -0.53125 -1.59375 -0.53125q-1.296875 0 -2.078125 0.90625q-0.765625 0.890625 -0.765625 3.0q0 2.328125 0.78125 3.296875q0.796875 0.96875 2.109375 0.96875q1.0 0 1.625 -0.5625q0.625 -0.5625 0.890625 -1.9375l3.40625 0.578125q-0.53125 2.34375 -2.046875 3.546875q-1.5 1.203125 -4.03125 1.203125q-2.875 0 -4.59375 -1.8125q-1.71875 -1.828125 -1.71875 -5.03125q0 -3.265625 1.71875 -5.078125q1.71875 -1.8125 4.65625 -1.8125q2.390625 0 3.8125 1.046875q1.421875 1.03125 2.03125 3.140625zm2.5081787 9.25l0 -18.125l3.484375 0l0 9.609375l4.0625 -4.625l4.28125 0l-4.484375 4.8125l4.8125 8.328125l-3.75 0l-3.296875 -5.90625l-1.625 1.703125l0 4.203125l-3.484375 0zm22.867554 0l0 -1.96875q-0.71875 1.046875 -1.890625 1.65625q-1.171875 0.609375 -2.46875 0.609375q-1.328125 0 -2.375 -0.578125q-1.046875 -0.578125 -1.515625 -1.625q-0.46875 -1.0625 -0.46875 -2.921875l0 -8.3125l3.46875 0l0 6.046875q0 2.765625 0.1875 3.390625q0.203125 0.625 0.703125 1.0q0.5 0.359375 1.28125 0.359375q0.890625 0 1.59375 -0.484375q0.71875 -0.5 0.96875 -1.21875q0.265625 -0.734375 0.265625 -3.546875l0 -5.546875l3.46875 0l0 13.140625l-3.21875 0zm6.7214355 -13.140625l3.234375 0l0 1.9375q0.640625 -0.984375 1.703125 -1.609375q1.078125 -0.625 2.390625 -0.625q2.296875 0 3.890625 1.796875q1.59375 1.796875 1.59375 5.0q0 3.296875 -1.609375 5.125q-1.609375 1.8125 -3.890625 1.8125q-1.09375 0 -1.984375 -0.421875q-0.875 -0.4375 -1.859375 -1.5l0 6.625l-3.46875 0l0 -18.140625zm3.4375 6.34375q0 2.21875 0.875 3.28125q0.875 1.046875 2.140625 1.046875q1.21875 0 2.015625 -0.96875q0.8125 -0.96875 0.8125 -3.171875q0 -2.078125 -0.828125 -3.078125q-0.828125 -1.0 -2.0625 -1.0q-1.265625 0 -2.109375 0.984375q-0.84375 0.984375 -0.84375 2.90625z" fill-rule="nonzero"/><path fill="#000000" d="m753.5133 266.9125l0 -10.5l1.3125 0l0 9.359375l5.203125 0l0 1.140625l-6.515625 0zm12.256287 0.1875q-1.015625 0 -1.890625 -0.46875q-0.875 -0.484375 -1.421875 -1.390625q-0.53125 -0.921875 -0.53125 -2.203125q0 -1.3125 0.53125 -2.21875q0.546875 -0.921875 1.421875 -1.390625q0.875 -0.484375 1.890625 -0.484375q1.03125 0 1.890625 0.484375q0.875 0.46875 1.40625 1.390625q0.546875 0.90625 0.546875 2.21875q0 1.28125 -0.546875 2.203125q-0.53125 0.90625 -1.40625 1.390625q-0.859375 0.46875 -1.890625 0.46875zm0 -1.078125q0.75 0 1.3125 -0.375q0.5625 -0.375 0.859375 -1.046875q0.3125 -0.671875 0.3125 -1.5625q0 -0.890625 -0.3125 -1.5625q-0.296875 -0.6875 -0.859375 -1.0625q-0.5625 -0.375 -1.3125 -0.375q-0.75 0 -1.3125 0.375q-0.546875 0.375 -0.859375 1.0625q-0.3125 0.671875 -0.3125 1.5625q0 0.890625 0.3125 1.5625q0.3125 0.671875 0.859375 1.046875q0.5625 0.375 1.3125 0.375zm6.6312866 0.890625l-1.703125 -7.78125l1.3125 0l0.9375 4.515625q0.109375 0.546875 0.1875 1.0625q0.09375 0.515625 0.15625 1.078125l0.0625 0q0.078125 -0.5625 0.203125 -1.078125q0.125 -0.515625 0.25 -1.0625l0.953125 -4.03125l1.3125 0l0.9375 4.03125q0.125 0.546875 0.265625 1.0625q0.140625 0.515625 0.203125 1.078125l0.0625 0q0.109375 -0.5625 0.171875 -1.078125q0.078125 -0.515625 0.1875 -1.0625l0.921875 -4.515625l1.21875 0l-1.65625 7.78125l-1.703125 0l-0.890625 -3.71875q-0.09375 -0.40625 -0.203125 -0.984375q-0.09375 -0.578125 -0.1875 -1.3125l-0.0625 0q-0.09375 0.734375 -0.1875 1.3125q-0.09375 0.578125 -0.1875 0.984375l-0.875 3.71875l-1.6875 0zm13.053162 0.1875q-1.171875 0 -2.125 -0.46875q-0.953125 -0.484375 -1.515625 -1.40625q-0.546875 -0.921875 -0.546875 -2.21875q0 -1.265625 0.546875 -2.171875q0.5625 -0.90625 1.46875 -1.390625q0.90625 -0.5 1.953125 -0.5q1.109375 0 1.90625 0.453125q0.796875 0.453125 1.21875 1.28125q0.421875 0.8125 0.421875 1.921875q0 0.21875 -0.015625 0.421875q-0.015625 0.203125 -0.046875 0.375l-6.578125 0l0 -1.03125l5.796875 0l-0.34375 0.375q0 -1.375 -0.640625 -2.0625q-0.625 -0.6875 -1.6875 -0.6875q-0.71875 0 -1.34375 0.359375q-0.609375 0.34375 -0.984375 1.015625q-0.359375 0.671875 -0.359375 1.640625q0 1.015625 0.390625 1.6875q0.40625 0.671875 1.09375 1.015625q0.6875 0.34375 1.546875 0.34375q0.703125 0 1.265625 -0.203125q0.578125 -0.203125 1.109375 -0.53125l0.46875 0.859375q-0.5625 0.375 -1.3125 0.65625q-0.75 0.265625 -1.6875 0.265625zm9.271851 0q-1.125 0 -2.125 -0.359375q-0.984375 -0.375 -1.6875 -0.859375l0.609375 -0.859375q0.671875 0.484375 1.484375 0.78125q0.8125 0.28125 1.890625 0.28125q0.984375 0 1.46875 -0.359375q0.5 -0.375 0.5 -0.859375q0 -0.21875 -0.09375 -0.40625q-0.09375 -0.203125 -0.34375 -0.375q-0.234375 -0.1875 -0.71875 -0.34375q-0.484375 -0.15625 -1.28125 -0.3125q-1.515625 -0.328125 -2.28125 -0.859375q-0.765625 -0.546875 -0.765625 -1.421875q0 -0.9375 0.8125 -1.5625q0.828125 -0.640625 2.421875 -0.640625q0.90625 0 1.734375 0.296875q0.828125 0.296875 1.40625 0.703125l-0.640625 0.84375q-0.53125 -0.390625 -1.203125 -0.59375q-0.671875 -0.21875 -1.40625 -0.21875q-0.671875 0 -1.0625 0.15625q-0.390625 0.140625 -0.5625 0.40625q-0.171875 0.25 -0.171875 0.546875q0 0.5 0.53125 0.78125q0.546875 0.28125 1.734375 0.515625q1.296875 0.28125 1.984375 0.625q0.703125 0.328125 0.96875 0.765625q0.265625 0.421875 0.265625 1.015625q0 0.640625 -0.40625 1.15625q-0.40625 0.515625 -1.171875 0.84375q-0.765625 0.3125 -1.890625 0.3125zm10.943787 0q-1.125 0 -1.78125 -0.40625q-0.65625 -0.40625 -0.9375 -1.125q-0.28125 -0.71875 -0.28125 -1.6875l0 -3.671875l-2.1875 0l0 -1.0l2.234375 -0.078125l0.171875 -2.484375l1.09375 0l0 2.484375l3.828125 0l0 1.078125l-3.828125 0l0 3.6875q0 0.703125 0.171875 1.1875q0.171875 0.46875 0.609375 0.71875q0.4375 0.234375 1.1875 0.234375q0.5625 0 1.0 -0.09375q0.453125 -0.109375 0.875 -0.265625l0.28125 0.96875q-0.53125 0.1875 -1.109375 0.3125q-0.578125 0.140625 -1.328125 0.140625zm19.200073 0q-1.125 0 -1.78125 -0.40625q-0.65625 -0.40625 -0.9375 -1.125q-0.28125 -0.71875 -0.28125 -1.6875l0 -3.671875l-2.1875 0l0 -1.0l2.234375 -0.078125l0.171875 -2.484375l1.09375 0l0 2.484375l3.828125 0l0 1.078125l-3.828125 0l0 3.6875q0 0.703125 0.171875 1.1875q0.171875 0.46875 0.609375 0.71875q0.4375 0.234375 1.1875 0.234375q0.5625 0 1.0 -0.09375q0.453125 -0.109375 0.875 -0.265625l0.28125 0.96875q-0.53125 0.1875 -1.109375 0.3125q-0.578125 0.140625 -1.328125 0.140625zm4.3343506 -0.1875l2.953125 -4.03125l-2.734375 -3.75l1.453125 0l1.234375 1.71875q0.203125 0.296875 0.4375 0.640625q0.25 0.328125 0.46875 0.671875l0.0625 0q0.21875 -0.34375 0.4375 -0.6875q0.234375 -0.34375 0.453125 -0.65625l1.15625 -1.6875l1.40625 0l-2.78125 3.859375l2.984375 3.921875l-1.4375 0l-1.359375 -1.796875q-0.25 -0.328125 -0.515625 -0.6875q-0.265625 -0.375 -0.515625 -0.71875l-0.0625 0q-0.234375 0.34375 -0.484375 0.703125q-0.234375 0.34375 -0.46875 0.703125l-1.28125 1.796875l-1.40625 0zm19.528198 -6.5l0 -1.0l6.875 0l0 1.0l-6.875 0zm0 3.4375l0 -1.0l6.875 0l0 1.0l-6.875 0zm21.950012 3.25q-0.9375 0 -1.640625 -0.3125q-0.703125 -0.3125 -1.203125 -0.75l0.734375 -0.84375q0.390625 0.375 0.921875 0.609375q0.53125 0.21875 1.109375 0.21875q0.828125 0 1.53125 -0.4375q0.703125 -0.453125 1.140625 -1.453125q0.4375 -1.0 0.4375 -2.703125q0 -1.265625 -0.3125 -2.125q-0.3125 -0.859375 -0.90625 -1.296875q-0.59375 -0.453125 -1.4375 -0.453125q-0.609375 0 -1.109375 0.28125q-0.484375 0.28125 -0.78125 0.78125q-0.28125 0.5 -0.28125 1.171875q0 1.046875 0.5625 1.609375q0.5625 0.5625 1.625 0.5625q0.609375 0 1.3125 -0.328125q0.703125 -0.328125 1.359375 -1.125l0.046875 1.046875q-0.625 0.640625 -1.40625 1.015625q-0.765625 0.375 -1.578125 0.375q-0.9375 0 -1.65625 -0.34375q-0.703125 -0.359375 -1.109375 -1.0625q-0.390625 -0.703125 -0.390625 -1.75q0 -0.96875 0.46875 -1.703125q0.46875 -0.75 1.234375 -1.15625q0.78125 -0.421875 1.6875 -0.421875q0.84375 0 1.546875 0.3125q0.703125 0.296875 1.234375 0.921875q0.546875 0.609375 0.84375 1.53125q0.296875 0.921875 0.296875 2.15625q0 1.53125 -0.359375 2.625q-0.34375 1.078125 -0.953125 1.75q-0.59375 0.671875 -1.375 0.984375q-0.78125 0.3125 -1.59375 0.3125z" fill-rule="nonzero"/><path fill="#000000" d="m752.6383 285.9125l0 -10.5l1.34375 0l0 4.40625l4.375 0l0 -4.40625l1.359375 0l0 10.5l-1.359375 0l0 -4.9375l-4.375 0l0 4.9375l-1.34375 0zm13.396912 0l0 -6.703125l-3.625 0l0 -1.078125l4.9375 0l0 7.78125l-1.3125 0zm0.5 -9.40625q-0.4375 0 -0.75 -0.28125q-0.296875 -0.28125 -0.296875 -0.75q0 -0.453125 0.296875 -0.734375q0.3125 -0.28125 0.75 -0.28125q0.453125 0 0.75 0.28125q0.3125 0.28125 0.3125 0.734375q0 0.46875 -0.3125 0.75q-0.296875 0.28125 -0.75 0.28125zm8.771912 12.984375q-1.140625 0 -1.9375 -0.25q-0.796875 -0.25 -1.21875 -0.734375q-0.421875 -0.484375 -0.421875 -1.171875q0 -0.46875 0.328125 -0.921875q0.328125 -0.453125 0.953125 -0.796875l0 -0.078125q-0.3125 -0.171875 -0.5625 -0.46875q-0.25 -0.3125 -0.25 -0.796875q0 -0.375 0.234375 -0.765625q0.25 -0.390625 0.703125 -0.703125l0 -0.0625q-0.40625 -0.296875 -0.6875 -0.8125q-0.28125 -0.515625 -0.28125 -1.203125q0 -0.84375 0.421875 -1.46875q0.4375 -0.625 1.125 -0.96875q0.703125 -0.34375 1.515625 -0.34375q0.65625 0 1.15625 0.1875l3.21875 0l0 1.078125l-2.015625 0q0.265625 0.265625 0.453125 0.6875q0.1875 0.421875 0.1875 0.875q0 0.84375 -0.40625 1.4375q-0.390625 0.59375 -1.078125 0.921875q-0.671875 0.3125 -1.515625 0.3125q-0.296875 0 -0.65625 -0.0625q-0.34375 -0.078125 -0.65625 -0.21875q-0.28125 0.171875 -0.453125 0.40625q-0.15625 0.21875 -0.15625 0.484375q0 0.453125 0.421875 0.6875q0.421875 0.21875 1.203125 0.21875l1.734375 0q1.5 0 2.234375 0.421875q0.734375 0.40625 0.734375 1.390625q0 0.71875 -0.53125 1.34375q-0.53125 0.625 -1.5 1.0q-0.96875 0.375 -2.296875 0.375zm-0.078125 -6.921875q0.5 0 0.90625 -0.21875q0.40625 -0.234375 0.640625 -0.640625q0.25 -0.421875 0.25 -0.984375q0 -0.546875 -0.25 -0.953125q-0.234375 -0.40625 -0.640625 -0.640625q-0.40625 -0.234375 -0.90625 -0.234375q-0.484375 0 -0.890625 0.234375q-0.40625 0.234375 -0.65625 0.640625q-0.25 0.40625 -0.25 0.953125q0 0.5625 0.25 0.984375q0.25 0.40625 0.65625 0.640625q0.40625 0.21875 0.890625 0.21875zm0.171875 5.96875q0.921875 0 1.578125 -0.234375q0.65625 -0.21875 1.0 -0.578125q0.359375 -0.34375 0.359375 -0.734375q0 -0.5625 -0.453125 -0.765625q-0.4375 -0.1875 -1.328125 -0.1875l-1.515625 0q-0.34375 0 -0.640625 -0.03125q-0.296875 -0.03125 -0.546875 -0.09375q-0.546875 0.296875 -0.78125 0.625q-0.21875 0.328125 -0.21875 0.671875q0 0.609375 0.640625 0.96875q0.65625 0.359375 1.90625 0.359375zm6.2562866 -2.625l0 -11.390625l1.3125 0l0 3.109375l-0.078125 1.828125l0.046875 0q0.59375 -0.640625 1.296875 -1.078125q0.703125 -0.4375 1.625 -0.4375q1.375 0 2.03125 0.796875q0.65625 0.796875 0.65625 2.34375l0 4.828125l-1.3125 0l0 -4.65625q0 -1.109375 -0.421875 -1.640625q-0.421875 -0.53125 -1.375 -0.53125q-0.6875 0 -1.234375 0.359375q-0.546875 0.34375 -1.234375 1.046875l0 5.421875l-1.3125 0zm13.396851 0.1875q-1.171875 0 -2.125 -0.46875q-0.953125 -0.484375 -1.515625 -1.40625q-0.546875 -0.921875 -0.546875 -2.21875q0 -1.265625 0.546875 -2.171875q0.5625 -0.90625 1.46875 -1.390625q0.90625 -0.5 1.953125 -0.5q1.109375 0 1.90625 0.453125q0.796875 0.453125 1.21875 1.28125q0.421875 0.8125 0.421875 1.921875q0 0.21875 -0.015625 0.421875q-0.015625 0.203125 -0.046875 0.375l-6.578125 0l0 -1.03125l5.796875 0l-0.34375 0.375q0 -1.375 -0.640625 -2.0625q-0.625 -0.6875 -1.6875 -0.6875q-0.71875 0 -1.34375 0.359375q-0.609375 0.34375 -0.984375 1.015625q-0.359375 0.671875 -0.359375 1.640625q0 1.015625 0.390625 1.6875q0.40625 0.671875 1.09375 1.015625q0.6875 0.34375 1.546875 0.34375q0.703125 0 1.265625 -0.203125q0.578125 -0.203125 1.109375 -0.53125l0.46875 0.859375q-0.5625 0.375 -1.3125 0.65625q-0.75 0.265625 -1.6875 0.265625zm9.271912 0q-1.125 0 -2.125 -0.359375q-0.984375 -0.375 -1.6875 -0.859375l0.609375 -0.859375q0.671875 0.484375 1.484375 0.78125q0.8125 0.28125 1.890625 0.28125q0.984375 0 1.46875 -0.359375q0.5 -0.375 0.5 -0.859375q0 -0.21875 -0.09375 -0.40625q-0.09375 -0.203125 -0.34375 -0.375q-0.234375 -0.1875 -0.71875 -0.34375q-0.484375 -0.15625 -1.28125 -0.3125q-1.515625 -0.328125 -2.28125 -0.859375q-0.765625 -0.546875 -0.765625 -1.421875q0 -0.9375 0.8125 -1.5625q0.828125 -0.640625 2.421875 -0.640625q0.90625 0 1.734375 0.296875q0.828125 0.296875 1.40625 0.703125l-0.640625 0.84375q-0.53125 -0.390625 -1.203125 -0.59375q-0.671875 -0.21875 -1.40625 -0.21875q-0.671875 0 -1.0625 0.15625q-0.390625 0.140625 -0.5625 0.40625q-0.171875 0.25 -0.171875 0.546875q0 0.5 0.53125 0.78125q0.546875 0.28125 1.734375 0.515625q1.296875 0.28125 1.984375 0.625q0.703125 0.328125 0.96875 0.765625q0.265625 0.421875 0.265625 1.015625q0 0.640625 -0.40625 1.15625q-0.40625 0.515625 -1.171875 0.84375q-0.765625 0.3125 -1.890625 0.3125zm10.943787 0q-1.125 0 -1.78125 -0.40625q-0.65625 -0.40625 -0.9375 -1.125q-0.28125 -0.71875 -0.28125 -1.6875l0 -3.671875l-2.1875 0l0 -1.0l2.234375 -0.078125l0.171875 -2.484375l1.09375 0l0 2.484375l3.828125 0l0 1.078125l-3.828125 0l0 3.6875q0 0.703125 0.171875 1.1875q0.171875 0.46875 0.609375 0.71875q0.4375 0.234375 1.1875 0.234375q0.5625 0 1.0 -0.09375q0.453125 -0.109375 0.875 -0.265625l0.28125 0.96875q-0.53125 0.1875 -1.109375 0.3125q-0.578125 0.140625 -1.328125 0.140625zm19.200012 0q-1.125 0 -1.78125 -0.40625q-0.65625 -0.40625 -0.9375 -1.125q-0.28125 -0.71875 -0.28125 -1.6875l0 -3.671875l-2.1875 0l0 -1.0l2.234375 -0.078125l0.171875 -2.484375l1.09375 0l0 2.484375l3.828125 0l0 1.078125l-3.828125 0l0 3.6875q0 0.703125 0.171875 1.1875q0.171875 0.46875 0.609375 0.71875q0.4375 0.234375 1.1875 0.234375q0.5625 0 1.0 -0.09375q0.453125 -0.109375 0.875 -0.265625l0.28125 0.96875q-0.53125 0.1875 -1.109375 0.3125q-0.578125 0.140625 -1.328125 0.140625zm4.3344116 -0.1875l2.953125 -4.03125l-2.734375 -3.75l1.453125 0l1.234375 1.71875q0.203125 0.296875 0.4375 0.640625q0.25 0.328125 0.46875 0.671875l0.0625 0q0.21875 -0.34375 0.4375 -0.6875q0.234375 -0.34375 0.453125 -0.65625l1.15625 -1.6875l1.40625 0l-2.78125 3.859375l2.984375 3.921875l-1.4375 0l-1.359375 -1.796875q-0.25 -0.328125 -0.515625 -0.6875q-0.265625 -0.375 -0.515625 -0.71875l-0.0625 0q-0.234375 0.34375 -0.484375 0.703125q-0.234375 0.34375 -0.46875 0.703125l-1.28125 1.796875l-1.40625 0zm19.528198 -6.5l0 -1.0l6.875 0l0 1.0l-6.875 0zm0 3.4375l0 -1.0l6.875 0l0 1.0l-6.875 0zm19.387512 3.0625l0 -1.09375l2.953125 0l0 -7.515625l-2.296875 0l0 -0.84375q0.609375 -0.078125 1.078125 -0.1875q0.46875 -0.125 0.84375 -0.25q0.390625 -0.140625 0.703125 -0.3125l0.984375 0l0 9.109375l2.671875 0l0 1.09375l-6.9375 0zm9.225037 0l0 -0.78125q1.71875 -1.515625 2.90625 -2.671875q1.203125 -1.171875 1.828125 -2.09375q0.625 -0.9375 0.625 -1.78125q0 -0.875 -0.546875 -1.4375q-0.546875 -0.5625 -1.6875 -0.5625q-0.71875 0 -1.328125 0.359375q-0.609375 0.34375 -1.109375 0.875l-0.75 -0.75q0.6875 -0.703125 1.46875 -1.125q0.796875 -0.4375 1.890625 -0.4375q1.015625 0 1.75 0.390625q0.75 0.375 1.15625 1.046875q0.421875 0.671875 0.421875 1.578125q0 0.953125 -0.59375 1.9375q-0.59375 0.96875 -1.65625 2.0625q-1.0625 1.078125 -2.453125 2.34375q0.46875 -0.046875 0.953125 -0.0625q0.484375 -0.03125 0.9375 -0.03125l3.375 0l0 1.140625l-7.1875 0z" fill-rule="nonzero"/><path fill="#000000" fill-opacity="0.0" d="m284.01837 255.55249l90.39371 0" fill-rule="evenodd"/><path stroke="#595959" stroke-width="3.0" stroke-linejoin="round" stroke-linecap="butt" d="m284.01837 255.55249l72.39371 0" fill-rule="evenodd"/><path fill="#595959" stroke="#595959" stroke-width="3.0" stroke-linecap="butt" d="m356.41208 260.5077l13.614288 -4.9552l-13.614288 -4.9552z" fill-rule="evenodd"/><path fill="#000000" fill-opacity="0.0" d="m613.2887 255.55249l81.07086 0" fill-rule="evenodd"/><path stroke="#595959" stroke-width="3.0" stroke-linejoin="round" stroke-linecap="butt" d="m613.2887 255.55249l63.07086 0" fill-rule="evenodd"/><path fill="#595959" stroke="#595959" stroke-width="3.0" stroke-linecap="butt" d="m676.35956 260.5077l13.614319 -4.9552l-13.614319 -4.9552z" fill-rule="evenodd"/></g></svg>
