<?xml version="1.0" encoding="UTF-8"?>
<svg width="800px" height="270px" viewBox="0 0 800 270" version="1.1" xmlns="http://www.w3.org/2000/svg" xmlns:xlink="http://www.w3.org/1999/xlink">
    <!-- Generator: Sketch 51.3 (57544) - http://www.bohemiancoding.com/sketch -->
    <title>backup-backup_address</title>
    <desc>Created with Sketch.</desc>
    <defs>
        <polygon id="path-1" points="0 0 118.999868 0 118.999868 72.9619792 0 72.9619792"></polygon>
        <polygon id="path-3" points="0 0 118.999868 0 118.999868 56 0 56"></polygon>
        <polygon id="path-5" points="0 90 119 90 119 0 0 0"></polygon>
    </defs>
    <g id="backup-backup_address" stroke="none" stroke-width="1" fill="none" fill-rule="evenodd">
        <rect id="Rectangle-45" stroke="#979797" x="5.5" y="5.5" width="789" height="259"></rect>
        <rect id="Rectangle-15" fill="#C2C2C2" x="597" y="127" width="100" height="9"></rect>
        <rect id="Rectangle-15" fill="#C2C2C2" x="597" y="97" width="100" height="9"></rect>
        <g id="Page-1-Copy-2" transform="translate(582.000000, 136.000000)">
            <path d="M126.388889,22 L3.61111111,22 C1.61633333,22 0,20.3588 0,18.3333333 L0,3.66666667 C0,1.6412 1.61633333,0 3.61111111,0 L126.388889,0 C128.383667,0 130,1.6412 130,3.66666667 L130,18.3333333 C130,20.3588 128.383667,22 126.388889,22" id="Fill-1" fill="#D6D6D6"></path>
            <path d="M14.4444444,14.2541667 C14.4444444,15.2669 13.6362778,16.0875 12.6388889,16.0875 C11.6415,16.0875 10.8333333,15.2669 10.8333333,14.2541667 C10.8333333,13.2414333 11.6415,12.4208333 12.6388889,12.4208333 C13.6362778,12.4208333 14.4444444,13.2414333 14.4444444,14.2541667" id="Fill-3" fill="#F16667"></path>
            <path d="M14.4444444,7.65416667 C14.4444444,8.6669 13.6362778,9.4875 12.6388889,9.4875 C11.6415,9.4875 10.8333333,8.6669 10.8333333,7.65416667 C10.8333333,6.64143333 11.6415,5.82083333 12.6388889,5.82083333 C13.6362778,5.82083333 14.4444444,6.64143333 14.4444444,7.65416667" id="Fill-5" fill="#8DCC93"></path>
            <path d="M107.611111,16.4541667 L105.444444,16.4541667 C105.045056,16.4541667 104.722222,16.1263667 104.722222,15.7208333 L104.722222,6.1875 C104.722222,5.78196667 105.045056,5.45416667 105.444444,5.45416667 L107.611111,5.45416667 C108.0105,5.45416667 108.333333,5.78196667 108.333333,6.1875 L108.333333,15.7208333 C108.333333,16.1263667 108.0105,16.4541667 107.611111,16.4541667" id="Fill-7" fill="#C2C2C2"></path>
            <path d="M114.830517,16.4541667 L112.669628,16.4541667 C112.268794,16.4541667 111.944517,16.1249 111.944517,15.7179 L111.944517,6.19043333 C111.944517,5.78343333 112.268794,5.45416667 112.669628,5.45416667 L114.830517,5.45416667 C115.23135,5.45416667 115.555628,5.78343333 115.555628,6.19043333 L115.555628,15.7179 C115.555628,16.1249 115.23135,16.4541667 114.830517,16.4541667" id="Fill-9" fill="#C2C2C2"></path>
            <path d="M122.059094,16.4541667 L119.885206,16.4541667 C119.487983,16.4541667 119.166594,16.1278333 119.166594,15.7245 L119.166594,6.18383333 C119.166594,5.7805 119.487983,5.45416667 119.885206,5.45416667 L122.059094,5.45416667 C122.456317,5.45416667 122.777706,5.7805 122.777706,6.18383333 L122.777706,15.7245 C122.777706,16.1278333 122.456317,16.4541667 122.059094,16.4541667" id="Fill-11" fill="#C2C2C2"></path>
            <path d="M78,7.69714 L78,14.3030067 C78,14.90874 77.5161111,15.4000733 76.9195556,15.4000733 L53.0804444,15.4000733 C52.4838889,15.4000733 52,14.90874 52,14.3030067 L52,7.69714 C52,7.09140667 52.4838889,6.60007333 53.0804444,6.60007333 L76.9195556,6.60007333 C77.5161111,6.60007333 78,7.09140667 78,7.69714" id="Fill-13" fill="#C2C2C2"></path>
        </g>
        <g id="Page-1-Copy-2" transform="translate(582.000000, 106.000000)">
            <path d="M126.388889,22 L3.61111111,22 C1.61633333,22 0,20.3588 0,18.3333333 L0,3.66666667 C0,1.6412 1.61633333,0 3.61111111,0 L126.388889,0 C128.383667,0 130,1.6412 130,3.66666667 L130,18.3333333 C130,20.3588 128.383667,22 126.388889,22" id="Fill-1" fill="#D6D6D6"></path>
            <path d="M14.4444444,14.2541667 C14.4444444,15.2669 13.6362778,16.0875 12.6388889,16.0875 C11.6415,16.0875 10.8333333,15.2669 10.8333333,14.2541667 C10.8333333,13.2414333 11.6415,12.4208333 12.6388889,12.4208333 C13.6362778,12.4208333 14.4444444,13.2414333 14.4444444,14.2541667" id="Fill-3" fill="#F16667"></path>
            <path d="M14.4444444,7.65416667 C14.4444444,8.6669 13.6362778,9.4875 12.6388889,9.4875 C11.6415,9.4875 10.8333333,8.6669 10.8333333,7.65416667 C10.8333333,6.64143333 11.6415,5.82083333 12.6388889,5.82083333 C13.6362778,5.82083333 14.4444444,6.64143333 14.4444444,7.65416667" id="Fill-5" fill="#8DCC93"></path>
            <path d="M107.611111,16.4541667 L105.444444,16.4541667 C105.045056,16.4541667 104.722222,16.1263667 104.722222,15.7208333 L104.722222,6.1875 C104.722222,5.78196667 105.045056,5.45416667 105.444444,5.45416667 L107.611111,5.45416667 C108.0105,5.45416667 108.333333,5.78196667 108.333333,6.1875 L108.333333,15.7208333 C108.333333,16.1263667 108.0105,16.4541667 107.611111,16.4541667" id="Fill-7" fill="#C2C2C2"></path>
            <path d="M114.830517,16.4541667 L112.669628,16.4541667 C112.268794,16.4541667 111.944517,16.1249 111.944517,15.7179 L111.944517,6.19043333 C111.944517,5.78343333 112.268794,5.45416667 112.669628,5.45416667 L114.830517,5.45416667 C115.23135,5.45416667 115.555628,5.78343333 115.555628,6.19043333 L115.555628,15.7179 C115.555628,16.1249 115.23135,16.4541667 114.830517,16.4541667" id="Fill-9" fill="#C2C2C2"></path>
            <path d="M122.059094,16.4541667 L119.885206,16.4541667 C119.487983,16.4541667 119.166594,16.1278333 119.166594,15.7245 L119.166594,6.18383333 C119.166594,5.7805 119.487983,5.45416667 119.885206,5.45416667 L122.059094,5.45416667 C122.456317,5.45416667 122.777706,5.7805 122.777706,6.18383333 L122.777706,15.7245 C122.777706,16.1278333 122.456317,16.4541667 122.059094,16.4541667" id="Fill-11" fill="#C2C2C2"></path>
            <path d="M78,7.69714 L78,14.3030067 C78,14.90874 77.5161111,15.4000733 76.9195556,15.4000733 L53.0804444,15.4000733 C52.4838889,15.4000733 52,14.90874 52,14.3030067 L52,7.69714 C52,7.09140667 52.4838889,6.60007333 53.0804444,6.60007333 L76.9195556,6.60007333 C77.5161111,6.60007333 78,7.09140667 78,7.69714" id="Fill-13" fill="#C2C2C2"></path>
        </g>
        <g id="Page-1-Copy-2" transform="translate(582.000000, 76.000000)">
            <path d="M126.388889,21.6666667 L3.61111111,21.6666667 C1.61633333,21.6666667 0,20.0503333 0,18.0555556 L0,3.61111111 C0,1.61633333 1.61633333,0 3.61111111,0 L126.388889,0 C128.383667,0 130,1.61633333 130,3.61111111 L130,18.0555556 C130,20.0503333 128.383667,21.6666667 126.388889,21.6666667" id="Fill-1" fill="#D6D6D6"></path>
            <path d="M15.4444444,14.0381944 C15.4444444,15.0355833 14.6362778,15.84375 13.6388889,15.84375 C12.6415,15.84375 11.8333333,15.0355833 11.8333333,14.0381944 C11.8333333,13.0408056 12.6415,12.2326389 13.6388889,12.2326389 C14.6362778,12.2326389 15.4444444,13.0408056 15.4444444,14.0381944" id="Fill-3" fill="#F16667"></path>
            <path d="M15.4444444,7.53819444 C15.4444444,8.53558333 14.6362778,9.34375 13.6388889,9.34375 C12.6415,9.34375 11.8333333,8.53558333 11.8333333,7.53819444 C11.8333333,6.54080556 12.6415,5.73263889 13.6388889,5.73263889 C14.6362778,5.73263889 15.4444444,6.54080556 15.4444444,7.53819444" id="Fill-5" fill="#8DCC93"></path>
            <path d="M108.611111,16.2048611 L106.444444,16.2048611 C106.045056,16.2048611 105.722222,15.8820278 105.722222,15.4826389 L105.722222,6.09375 C105.722222,5.69436111 106.045056,5.37152778 106.444444,5.37152778 L108.611111,5.37152778 C109.0105,5.37152778 109.333333,5.69436111 109.333333,6.09375 L109.333333,15.4826389 C109.333333,15.8820278 109.0105,16.2048611 108.611111,16.2048611" id="Fill-7" fill="#C2C2C2"></path>
            <path d="M115.830517,16.2048611 L113.669628,16.2048611 C113.268794,16.2048611 112.944517,15.8805833 112.944517,15.47975 L112.944517,6.09663889 C112.944517,5.69580556 113.268794,5.37152778 113.669628,5.37152778 L115.830517,5.37152778 C116.23135,5.37152778 116.555628,5.69580556 116.555628,6.09663889 L116.555628,15.47975 C116.555628,15.8805833 116.23135,16.2048611 115.830517,16.2048611" id="Fill-9" fill="#C2C2C2"></path>
            <path d="M123.059094,16.2048611 L120.885206,16.2048611 C120.487983,16.2048611 120.166594,15.8834722 120.166594,15.48625 L120.166594,6.09013889 C120.166594,5.69291667 120.487983,5.37152778 120.885206,5.37152778 L123.059094,5.37152778 C123.456317,5.37152778 123.777706,5.69291667 123.777706,6.09013889 L123.777706,15.48625 C123.777706,15.8834722 123.456317,16.2048611 123.059094,16.2048611" id="Fill-11" fill="#C2C2C2"></path>
            <path d="M79,7.58051667 L79,14.0862944 C79,14.68285 78.5161111,15.1667389 77.9195556,15.1667389 L54.0804444,15.1667389 C53.4838889,15.1667389 53,14.68285 53,14.0862944 L53,7.58051667 C53,6.98396111 53.4838889,6.50007222 54.0804444,6.50007222 L77.9195556,6.50007222 C78.5161111,6.50007222 79,6.98396111 79,7.58051667" id="Fill-13" fill="#C2C2C2"></path>
        </g>
        <text id="Causal-Clustering-Co" font-family="OpenSans-Regular, Open Sans" font-size="12" font-weight="normal" fill="#333333">
            <tspan x="602.151367" y="45">Causal Clustering</tspan>
            <tspan x="574.09668" y="62">Core / Read Replica Servers</tspan>
        </text>
        <rect id="Rectangle-43" stroke="#DFDFDF" x="514.5" y="16.5" width="269" height="224"></rect>
        <rect id="Rectangle-44" stroke="#DFDFDF" fill="#E8F5E9" x="514.5" y="175.5" width="269" height="43"></rect>
        <text id="server.backup.listen_address=" font-family="CourierNewPSMT, Courier New" font-size="11" font-weight="normal" fill="#333333">
            <tspan x="527" y="194">server.backup.listen_address=127.0.0.1:6362</tspan>
            <tspan x="527" y="206">dbms.ssl.policy.backup.enabled=true</tspan>
        </text>
        <rect id="Rectangle-44" stroke="#DFDFDF" fill="#E8F5E9" x="16.5" y="175.5" width="269" height="43"></rect>
        <text id="dbms.backup.ssl_poli" font-family="CourierNewPSMT, Courier New" font-size="11" font-weight="normal" fill="#333333">
            <tspan x="26" y="200">dbms.ssl.policy.backup.enabled=true</tspan>
        </text>
        <text id="neo4j-admin-backup-c" font-family="OpenSans-Regular, Open Sans" font-size="12" font-weight="normal" fill="#333333">
            <tspan x="77" y="50">neo4j-admin database backup client</tspan>
        </text>
        <rect id="Rectangle-43" stroke="#DFDFDF" x="16.5" y="16.5" width="269" height="224"></rect>
        <g id="Group-2" transform="translate(91.000000, 68.000000)">
            <g id="Page-1">
                <g id="Group-3">
                    <mask id="mask-2" fill="white">
                        <use xlink:href="#path-1"></use>
                    </mask>
                    <g id="Clip-2"></g>
                    <path d="M115.694312,72.9619792 L3.30542333,72.9619792 C1.48009556,72.9619792 -0.000132222222,71.6005292 -0.000132222222,69.9203125 L-0.000132222222,3.0413625 C-0.000132222222,1.36175417 1.48009556,-0.000304166667 3.30542333,-0.000304166667 L115.694312,-0.000304166667 C117.520301,-0.000304166667 118.999868,1.36175417 118.999868,3.0413625 L118.999868,69.9203125 C118.999868,71.6005292 117.520301,72.9619792 115.694312,72.9619792" id="Fill-1" fill="#D6D6D6" mask="url(#mask-2)"></path>
                </g>
                <path d="M59.5,62 C61.4334,62 63,63.3428 63,65 C63,66.6572 61.4334,68 59.5,68 C57.5673,68 56,66.6572 56,65 C56,63.3428 57.5673,62 59.5,62" id="Fill-4" fill="#C2C2C2"></path>
                <g id="Group-8">
                    <mask id="mask-4" fill="white">
                        <use xlink:href="#path-3"></use>
                    </mask>
                    <g id="Clip-7"></g>
                    <path d="M118.999868,3.04347826 L118.999868,56 L-0.000132222222,56 L-0.000132222222,3.04347826 C-0.000132222222,1.36226087 1.48009556,0 3.30542333,0 L115.694312,0 C117.520301,0 118.999868,1.36226087 118.999868,3.04347826" id="Fill-6" fill="#C2C2C2" mask="url(#mask-4)"></path>
                </g>
                <mask id="mask-6" fill="white">
                    <use xlink:href="#path-5"></use>
                </mask>
                <g id="Clip-10"></g>
                <polygon id="Fill-9" fill="#C2C2C2" mask="url(#mask-6)" points="41 87 78 87 78 73 41 73"></polygon>
                <polygon id="Fill-11" fill="#D6D6D6" mask="url(#mask-6)" points="36 90 84 90 84 88 36 88"></polygon>
                <rect id="Rectangle-46" stroke="#000000" fill="#000000" mask="url(#mask-6)" x="16.5" y="11.5" width="52" height="33"></rect>
            </g>
            <path d="M19.5,15.5 L34.5,15.5" id="Line-2" stroke="#8DCC93" stroke-linecap="square"></path>
            <path d="M19.5,18.5 L28.5,18.5" id="Line-2" stroke="#8DCC93" stroke-linecap="square"></path>
            <path d="M19.5,21.5 L31.5,21.5" id="Line-2" stroke="#8DCC93" stroke-linecap="square"></path>
            <path d="M19.5,24.5 L22.5,24.5" id="Line-2" stroke="#8DCC93" stroke-linecap="square"></path>
        </g>
        <text id="neo4j_admin-backup--" font-family="CourierNewPSMT, Courier New" font-size="10" font-weight="normal" fill="#333333">
            <tspan x="288" y="99">neo4j_admin backup --protocol=catchup</tspan>
            <tspan x="288" y="110">                   --from=neo01:6362</tspan>
        </text>
        <path d="M286.5,118.5 L513.5,118.5" id="Line-36" stroke="#979797" stroke-linecap="square" fill-rule="nonzero"></path>
        <text id="neo01" font-family="OpenSans-Italic, Open Sans" font-size="12" font-style="italic" font-weight="normal" fill="#333333">
            <tspan x="633" y="255">neo01</tspan>
        </text>
        <text id="neo-client" font-family="OpenSans-Italic, Open Sans" font-size="12" font-style="italic" font-weight="normal" fill="#333333">
            <tspan x="119" y="255">neo-client</tspan>
        </text>
    </g>
</svg>
