<?xml version="1.0" encoding="UTF-8"?>
<svg width="698px" height="646px" viewBox="0 0 698 646" version="1.1" xmlns="http://www.w3.org/2000/svg" xmlns:xlink="http://www.w3.org/1999/xlink">
    <!-- Generator: Sketch 48.2 (47327) - http://www.bohemiancoding.com/sketch -->
    <title>causal-clustering-drivers</title>
    <desc>Created with Sketch.</desc>
    <defs>
        <polygon id="path-1" points="0 43.0625 180 43.0625 180 0.9995 0 0.9995"></polygon>
        <polygon id="path-3" points="0 43.0625 180 43.0625 180 0.9995 0 0.9995"></polygon>
        <polygon id="path-5" points="0 43.0625 180 43.0625 180 0.9995 0 0.9995"></polygon>
        <polygon id="path-7" points="0 43.0625 180 43.0625 180 0.9995 0 0.9995"></polygon>
        <polygon id="path-9" points="0 43.0625 180 43.0625 180 0.9995 0 0.9995"></polygon>
        <polygon id="path-11" points="0 43.0625 180 43.0625 180 0.9995 0 0.9995"></polygon>
        <polygon id="path-13" points="0 43.0625 180 43.0625 180 0.9995 0 0.9995"></polygon>
        <polygon id="path-15" points="0 43.0625 180 43.0625 180 0.9995 0 0.9995"></polygon>
        <polygon id="path-17" points="0 43.0625 180 43.0625 180 0.9995 0 0.9995"></polygon>
        <polygon id="path-19" points="0 43.0625 180 43.0625 180 0.9995 0 0.9995"></polygon>
        <polygon id="path-21" points="0 43.0625 180 43.0625 180 0.9995 0 0.9995"></polygon>
        <polygon id="path-23" points="0 43.0625 180 43.0625 180 0.9995 0 0.9995"></polygon>
        <polygon id="path-25" points="0 43.0625 180 43.0625 180 0.9995 0 0.9995"></polygon>
        <polygon id="path-27" points="0 43.0625 180 43.0625 180 0.9995 0 0.9995"></polygon>
        <polygon id="path-29" points="0 43.0625 180 43.0625 180 0.9995 0 0.9995"></polygon>
        <polygon id="path-31" points="0 43.0625 180 43.0625 180 0.9995 0 0.9995"></polygon>
        <polygon id="path-33" points="0 43.0625 180 43.0625 180 0.9995 0 0.9995"></polygon>
        <polygon id="path-35" points="0 43.0625 180 43.0625 180 0.9995 0 0.9995"></polygon>
    </defs>
    <g id="Page-1" stroke="none" stroke-width="1" fill="none" fill-rule="evenodd">
        <g id="Artboard" transform="translate(-17297.000000, -12520.000000)"></g>
        <g id="causal-clustering-drivers">
            <g id="Page-1-Copy-12" transform="translate(259.000000, 128.000000)">
                <path d="M175,31 L5,31 C2.238,31 0,28.762 0,26 L0,6 C0,3.238 2.238,1 5,1 L175,1 C177.762,1 180,3.238 180,6 L180,26 C180,28.762 177.762,31 175,31" id="Fill-1" fill="#D6D6D6"></path>
                <path d="M20,20.4375 C20,21.8185 18.881,22.9375 17.5,22.9375 C16.119,22.9375 15,21.8185 15,20.4375 C15,19.0565 16.119,17.9375 17.5,17.9375 C18.881,17.9375 20,19.0565 20,20.4375" id="Fill-3" fill="#F16667"></path>
                <path d="M20,11.4375 C20,12.8185 18.881,13.9375 17.5,13.9375 C16.119,13.9375 15,12.8185 15,11.4375 C15,10.0565 16.119,8.9375 17.5,8.9375 C18.881,8.9375 20,10.0565 20,11.4375" id="Fill-5" fill="#8DCC93"></path>
                <path d="M149,23.4375 L146,23.4375 C145.447,23.4375 145,22.9905 145,22.4375 L145,9.4375 C145,8.8845 145.447,8.4375 146,8.4375 L149,8.4375 C149.553,8.4375 150,8.8845 150,9.4375 L150,22.4375 C150,22.9905 149.553,23.4375 149,23.4375" id="Fill-7" fill="#C2C2C2"></path>
                <path d="M158.9961,23.4375 L156.0041,23.4375 C155.4491,23.4375 155.0001,22.9885 155.0001,22.4335 L155.0001,9.4415 C155.0001,8.8865 155.4491,8.4375 156.0041,8.4375 L158.9961,8.4375 C159.5511,8.4375 160.0001,8.8865 160.0001,9.4415 L160.0001,22.4335 C160.0001,22.9885 159.5511,23.4375 158.9961,23.4375" id="Fill-9" fill="#C2C2C2"></path>
                <path d="M169.0049,23.4375 L165.9949,23.4375 C165.4449,23.4375 164.9999,22.9925 164.9999,22.4425 L164.9999,9.4325 C164.9999,8.8825 165.4449,8.4375 165.9949,8.4375 L169.0049,8.4375 C169.5549,8.4375 169.9999,8.8825 169.9999,9.4325 L169.9999,22.4425 C169.9999,22.9925 169.5549,23.4375 169.0049,23.4375" id="Fill-11" fill="#C2C2C2"></path>
                <path d="M108,11.4961 L108,20.5041 C108,21.3301 107.33,22.0001 106.504,22.0001 L73.496,22.0001 C72.67,22.0001 72,21.3301 72,20.5041 L72,11.4961 C72,10.6701 72.67,10.0001 73.496,10.0001 L106.504,10.0001 C107.33,10.0001 108,10.6701 108,11.4961" id="Fill-13" fill="#C2C2C2"></path>
                <mask id="mask-2" fill="white">
                    <use xlink:href="#path-1"></use>
                </mask>
                <g id="Clip-16"></g>
                <polygon id="Fill-15" fill="#C2C2C2" mask="url(#mask-2)" points="20 43.0625 160 43.0625 160 31.0625 20 31.0625"></polygon>
            </g>
            <g id="Page-1-Copy-13" transform="translate(259.000000, 86.000000)">
                <path d="M175,31 L5,31 C2.238,31 0,28.762 0,26 L0,6 C0,3.238 2.238,1 5,1 L175,1 C177.762,1 180,3.238 180,6 L180,26 C180,28.762 177.762,31 175,31" id="Fill-1" fill="#D6D6D6"></path>
                <path d="M20,20.4375 C20,21.8185 18.881,22.9375 17.5,22.9375 C16.119,22.9375 15,21.8185 15,20.4375 C15,19.0565 16.119,17.9375 17.5,17.9375 C18.881,17.9375 20,19.0565 20,20.4375" id="Fill-3" fill="#F16667"></path>
                <path d="M20,11.4375 C20,12.8185 18.881,13.9375 17.5,13.9375 C16.119,13.9375 15,12.8185 15,11.4375 C15,10.0565 16.119,8.9375 17.5,8.9375 C18.881,8.9375 20,10.0565 20,11.4375" id="Fill-5" fill="#8DCC93"></path>
                <path d="M149,23.4375 L146,23.4375 C145.447,23.4375 145,22.9905 145,22.4375 L145,9.4375 C145,8.8845 145.447,8.4375 146,8.4375 L149,8.4375 C149.553,8.4375 150,8.8845 150,9.4375 L150,22.4375 C150,22.9905 149.553,23.4375 149,23.4375" id="Fill-7" fill="#C2C2C2"></path>
                <path d="M158.9961,23.4375 L156.0041,23.4375 C155.4491,23.4375 155.0001,22.9885 155.0001,22.4335 L155.0001,9.4415 C155.0001,8.8865 155.4491,8.4375 156.0041,8.4375 L158.9961,8.4375 C159.5511,8.4375 160.0001,8.8865 160.0001,9.4415 L160.0001,22.4335 C160.0001,22.9885 159.5511,23.4375 158.9961,23.4375" id="Fill-9" fill="#C2C2C2"></path>
                <path d="M169.0049,23.4375 L165.9949,23.4375 C165.4449,23.4375 164.9999,22.9925 164.9999,22.4425 L164.9999,9.4325 C164.9999,8.8825 165.4449,8.4375 165.9949,8.4375 L169.0049,8.4375 C169.5549,8.4375 169.9999,8.8825 169.9999,9.4325 L169.9999,22.4425 C169.9999,22.9925 169.5549,23.4375 169.0049,23.4375" id="Fill-11" fill="#C2C2C2"></path>
                <path d="M108,11.4961 L108,20.5041 C108,21.3301 107.33,22.0001 106.504,22.0001 L73.496,22.0001 C72.67,22.0001 72,21.3301 72,20.5041 L72,11.4961 C72,10.6701 72.67,10.0001 73.496,10.0001 L106.504,10.0001 C107.33,10.0001 108,10.6701 108,11.4961" id="Fill-13" fill="#C2C2C2"></path>
                <mask id="mask-4" fill="white">
                    <use xlink:href="#path-3"></use>
                </mask>
                <g id="Clip-16"></g>
                <polygon id="Fill-15" fill="#C2C2C2" mask="url(#mask-4)" points="20 43.0625 160 43.0625 160 31.0625 20 31.0625"></polygon>
            </g>
            <g id="Page-1-Copy-20" transform="translate(259.000000, 44.000000)">
                <path d="M175,31 L5,31 C2.238,31 0,28.762 0,26 L0,6 C0,3.238 2.238,1 5,1 L175,1 C177.762,1 180,3.238 180,6 L180,26 C180,28.762 177.762,31 175,31" id="Fill-1" fill="#D6D6D6"></path>
                <path d="M20,20.4375 C20,21.8185 18.881,22.9375 17.5,22.9375 C16.119,22.9375 15,21.8185 15,20.4375 C15,19.0565 16.119,17.9375 17.5,17.9375 C18.881,17.9375 20,19.0565 20,20.4375" id="Fill-3" fill="#F16667"></path>
                <path d="M20,11.4375 C20,12.8185 18.881,13.9375 17.5,13.9375 C16.119,13.9375 15,12.8185 15,11.4375 C15,10.0565 16.119,8.9375 17.5,8.9375 C18.881,8.9375 20,10.0565 20,11.4375" id="Fill-5" fill="#8DCC93"></path>
                <path d="M149,23.4375 L146,23.4375 C145.447,23.4375 145,22.9905 145,22.4375 L145,9.4375 C145,8.8845 145.447,8.4375 146,8.4375 L149,8.4375 C149.553,8.4375 150,8.8845 150,9.4375 L150,22.4375 C150,22.9905 149.553,23.4375 149,23.4375" id="Fill-7" fill="#C2C2C2"></path>
                <path d="M158.9961,23.4375 L156.0041,23.4375 C155.4491,23.4375 155.0001,22.9885 155.0001,22.4335 L155.0001,9.4415 C155.0001,8.8865 155.4491,8.4375 156.0041,8.4375 L158.9961,8.4375 C159.5511,8.4375 160.0001,8.8865 160.0001,9.4415 L160.0001,22.4335 C160.0001,22.9885 159.5511,23.4375 158.9961,23.4375" id="Fill-9" fill="#C2C2C2"></path>
                <path d="M169.0049,23.4375 L165.9949,23.4375 C165.4449,23.4375 164.9999,22.9925 164.9999,22.4425 L164.9999,9.4325 C164.9999,8.8825 165.4449,8.4375 165.9949,8.4375 L169.0049,8.4375 C169.5549,8.4375 169.9999,8.8825 169.9999,9.4325 L169.9999,22.4425 C169.9999,22.9925 169.5549,23.4375 169.0049,23.4375" id="Fill-11" fill="#C2C2C2"></path>
                <path d="M108,11.4961 L108,20.5041 C108,21.3301 107.33,22.0001 106.504,22.0001 L73.496,22.0001 C72.67,22.0001 72,21.3301 72,20.5041 L72,11.4961 C72,10.6701 72.67,10.0001 73.496,10.0001 L106.504,10.0001 C107.33,10.0001 108,10.6701 108,11.4961" id="Fill-13" fill="#C2C2C2"></path>
                <mask id="mask-6" fill="white">
                    <use xlink:href="#path-5"></use>
                </mask>
                <g id="Clip-16"></g>
                <polygon id="Fill-15" fill="#C2C2C2" mask="url(#mask-6)" points="20 43.0625 160 43.0625 160 31.0625 20 31.0625"></polygon>
            </g>
            <g id="Page-1-Copy-14" transform="translate(259.000000, 170.000000)">
                <path d="M175,31 L5,31 C2.238,31 0,28.762 0,26 L0,6 C0,3.238 2.238,1 5,1 L175,1 C177.762,1 180,3.238 180,6 L180,26 C180,28.762 177.762,31 175,31" id="Fill-1" fill="#D6D6D6"></path>
                <path d="M20,20.4375 C20,21.8185 18.881,22.9375 17.5,22.9375 C16.119,22.9375 15,21.8185 15,20.4375 C15,19.0565 16.119,17.9375 17.5,17.9375 C18.881,17.9375 20,19.0565 20,20.4375" id="Fill-3" fill="#F16667"></path>
                <path d="M20,11.4375 C20,12.8185 18.881,13.9375 17.5,13.9375 C16.119,13.9375 15,12.8185 15,11.4375 C15,10.0565 16.119,8.9375 17.5,8.9375 C18.881,8.9375 20,10.0565 20,11.4375" id="Fill-5" fill="#8DCC93"></path>
                <path d="M149,23.4375 L146,23.4375 C145.447,23.4375 145,22.9905 145,22.4375 L145,9.4375 C145,8.8845 145.447,8.4375 146,8.4375 L149,8.4375 C149.553,8.4375 150,8.8845 150,9.4375 L150,22.4375 C150,22.9905 149.553,23.4375 149,23.4375" id="Fill-7" fill="#C2C2C2"></path>
                <path d="M158.9961,23.4375 L156.0041,23.4375 C155.4491,23.4375 155.0001,22.9885 155.0001,22.4335 L155.0001,9.4415 C155.0001,8.8865 155.4491,8.4375 156.0041,8.4375 L158.9961,8.4375 C159.5511,8.4375 160.0001,8.8865 160.0001,9.4415 L160.0001,22.4335 C160.0001,22.9885 159.5511,23.4375 158.9961,23.4375" id="Fill-9" fill="#C2C2C2"></path>
                <path d="M169.0049,23.4375 L165.9949,23.4375 C165.4449,23.4375 164.9999,22.9925 164.9999,22.4425 L164.9999,9.4325 C164.9999,8.8825 165.4449,8.4375 165.9949,8.4375 L169.0049,8.4375 C169.5549,8.4375 169.9999,8.8825 169.9999,9.4325 L169.9999,22.4425 C169.9999,22.9925 169.5549,23.4375 169.0049,23.4375" id="Fill-11" fill="#C2C2C2"></path>
                <path d="M108,11.4961 L108,20.5041 C108,21.3301 107.33,22.0001 106.504,22.0001 L73.496,22.0001 C72.67,22.0001 72,21.3301 72,20.5041 L72,11.4961 C72,10.6701 72.67,10.0001 73.496,10.0001 L106.504,10.0001 C107.33,10.0001 108,10.6701 108,11.4961" id="Fill-13" fill="#C2C2C2"></path>
                <mask id="mask-8" fill="white">
                    <use xlink:href="#path-7"></use>
                </mask>
                <g id="Clip-16"></g>
            </g>
            <text id="Applicaton-servers" font-family="OpenSans-Regular, Open Sans" font-size="12" font-weight="normal" fill="#333333">
                <tspan x="297" y="30">Applicaton servers</tspan>
            </text>
            <text id="Writes-(transactions" font-family="OpenSans-Regular, Open Sans" font-size="12" font-weight="normal" fill="#000000">
                <tspan x="142.19043" y="285">Writes</tspan>
                <tspan x="122.12207" y="302">(transactions)</tspan>
            </text>
            <text id="Reads-(graph-queries" font-family="OpenSans-Regular, Open Sans" font-size="12" font-weight="normal" fill="#000000">
                <tspan x="531.548828" y="285">Reads</tspan>
                <tspan x="506.157227" y="302">(graph queries)</tspan>
            </text>
            <rect id="Rectangle" stroke="#C2C2C2" x="5.5" y="5.5" width="687" height="635"></rect>
            <g id="Page-1-Copy-12" transform="translate(259.000000, 128.000000)">
                <path d="M175,31 L5,31 C2.238,31 0,28.762 0,26 L0,6 C0,3.238 2.238,1 5,1 L175,1 C177.762,1 180,3.238 180,6 L180,26 C180,28.762 177.762,31 175,31" id="Fill-1" fill="#D6D6D6"></path>
                <path d="M20,20.4375 C20,21.8185 18.881,22.9375 17.5,22.9375 C16.119,22.9375 15,21.8185 15,20.4375 C15,19.0565 16.119,17.9375 17.5,17.9375 C18.881,17.9375 20,19.0565 20,20.4375" id="Fill-3" fill="#F16667"></path>
                <path d="M20,11.4375 C20,12.8185 18.881,13.9375 17.5,13.9375 C16.119,13.9375 15,12.8185 15,11.4375 C15,10.0565 16.119,8.9375 17.5,8.9375 C18.881,8.9375 20,10.0565 20,11.4375" id="Fill-5" fill="#8DCC93"></path>
                <path d="M149,23.4375 L146,23.4375 C145.447,23.4375 145,22.9905 145,22.4375 L145,9.4375 C145,8.8845 145.447,8.4375 146,8.4375 L149,8.4375 C149.553,8.4375 150,8.8845 150,9.4375 L150,22.4375 C150,22.9905 149.553,23.4375 149,23.4375" id="Fill-7" fill="#C2C2C2"></path>
                <path d="M158.9961,23.4375 L156.0041,23.4375 C155.4491,23.4375 155.0001,22.9885 155.0001,22.4335 L155.0001,9.4415 C155.0001,8.8865 155.4491,8.4375 156.0041,8.4375 L158.9961,8.4375 C159.5511,8.4375 160.0001,8.8865 160.0001,9.4415 L160.0001,22.4335 C160.0001,22.9885 159.5511,23.4375 158.9961,23.4375" id="Fill-9" fill="#C2C2C2"></path>
                <path d="M169.0049,23.4375 L165.9949,23.4375 C165.4449,23.4375 164.9999,22.9925 164.9999,22.4425 L164.9999,9.4325 C164.9999,8.8825 165.4449,8.4375 165.9949,8.4375 L169.0049,8.4375 C169.5549,8.4375 169.9999,8.8825 169.9999,9.4325 L169.9999,22.4425 C169.9999,22.9925 169.5549,23.4375 169.0049,23.4375" id="Fill-11" fill="#C2C2C2"></path>
                <path d="M108,11.4961 L108,20.5041 C108,21.3301 107.33,22.0001 106.504,22.0001 L73.496,22.0001 C72.67,22.0001 72,21.3301 72,20.5041 L72,11.4961 C72,10.6701 72.67,10.0001 73.496,10.0001 L106.504,10.0001 C107.33,10.0001 108,10.6701 108,11.4961" id="Fill-13" fill="#C2C2C2"></path>
                <mask id="mask-10" fill="white">
                    <use xlink:href="#path-9"></use>
                </mask>
                <g id="Clip-16"></g>
                <polygon id="Fill-15" fill="#C2C2C2" mask="url(#mask-10)" points="20 43.0625 160 43.0625 160 31.0625 20 31.0625"></polygon>
            </g>
            <g id="Page-1-Copy-13" transform="translate(259.000000, 86.000000)">
                <path d="M175,31 L5,31 C2.238,31 0,28.762 0,26 L0,6 C0,3.238 2.238,1 5,1 L175,1 C177.762,1 180,3.238 180,6 L180,26 C180,28.762 177.762,31 175,31" id="Fill-1" fill="#D6D6D6"></path>
                <path d="M20,20.4375 C20,21.8185 18.881,22.9375 17.5,22.9375 C16.119,22.9375 15,21.8185 15,20.4375 C15,19.0565 16.119,17.9375 17.5,17.9375 C18.881,17.9375 20,19.0565 20,20.4375" id="Fill-3" fill="#F16667"></path>
                <path d="M20,11.4375 C20,12.8185 18.881,13.9375 17.5,13.9375 C16.119,13.9375 15,12.8185 15,11.4375 C15,10.0565 16.119,8.9375 17.5,8.9375 C18.881,8.9375 20,10.0565 20,11.4375" id="Fill-5" fill="#8DCC93"></path>
                <path d="M149,23.4375 L146,23.4375 C145.447,23.4375 145,22.9905 145,22.4375 L145,9.4375 C145,8.8845 145.447,8.4375 146,8.4375 L149,8.4375 C149.553,8.4375 150,8.8845 150,9.4375 L150,22.4375 C150,22.9905 149.553,23.4375 149,23.4375" id="Fill-7" fill="#C2C2C2"></path>
                <path d="M158.9961,23.4375 L156.0041,23.4375 C155.4491,23.4375 155.0001,22.9885 155.0001,22.4335 L155.0001,9.4415 C155.0001,8.8865 155.4491,8.4375 156.0041,8.4375 L158.9961,8.4375 C159.5511,8.4375 160.0001,8.8865 160.0001,9.4415 L160.0001,22.4335 C160.0001,22.9885 159.5511,23.4375 158.9961,23.4375" id="Fill-9" fill="#C2C2C2"></path>
                <path d="M169.0049,23.4375 L165.9949,23.4375 C165.4449,23.4375 164.9999,22.9925 164.9999,22.4425 L164.9999,9.4325 C164.9999,8.8825 165.4449,8.4375 165.9949,8.4375 L169.0049,8.4375 C169.5549,8.4375 169.9999,8.8825 169.9999,9.4325 L169.9999,22.4425 C169.9999,22.9925 169.5549,23.4375 169.0049,23.4375" id="Fill-11" fill="#C2C2C2"></path>
                <path d="M108,11.4961 L108,20.5041 C108,21.3301 107.33,22.0001 106.504,22.0001 L73.496,22.0001 C72.67,22.0001 72,21.3301 72,20.5041 L72,11.4961 C72,10.6701 72.67,10.0001 73.496,10.0001 L106.504,10.0001 C107.33,10.0001 108,10.6701 108,11.4961" id="Fill-13" fill="#C2C2C2"></path>
                <mask id="mask-12" fill="white">
                    <use xlink:href="#path-11"></use>
                </mask>
                <g id="Clip-16"></g>
                <polygon id="Fill-15" fill="#C2C2C2" mask="url(#mask-12)" points="20 43.0625 160 43.0625 160 31.0625 20 31.0625"></polygon>
            </g>
            <g id="Page-1-Copy-20" transform="translate(259.000000, 44.000000)">
                <path d="M175,31 L5,31 C2.238,31 0,28.762 0,26 L0,6 C0,3.238 2.238,1 5,1 L175,1 C177.762,1 180,3.238 180,6 L180,26 C180,28.762 177.762,31 175,31" id="Fill-1" fill="#D6D6D6"></path>
                <path d="M20,20.4375 C20,21.8185 18.881,22.9375 17.5,22.9375 C16.119,22.9375 15,21.8185 15,20.4375 C15,19.0565 16.119,17.9375 17.5,17.9375 C18.881,17.9375 20,19.0565 20,20.4375" id="Fill-3" fill="#F16667"></path>
                <path d="M20,11.4375 C20,12.8185 18.881,13.9375 17.5,13.9375 C16.119,13.9375 15,12.8185 15,11.4375 C15,10.0565 16.119,8.9375 17.5,8.9375 C18.881,8.9375 20,10.0565 20,11.4375" id="Fill-5" fill="#8DCC93"></path>
                <path d="M149,23.4375 L146,23.4375 C145.447,23.4375 145,22.9905 145,22.4375 L145,9.4375 C145,8.8845 145.447,8.4375 146,8.4375 L149,8.4375 C149.553,8.4375 150,8.8845 150,9.4375 L150,22.4375 C150,22.9905 149.553,23.4375 149,23.4375" id="Fill-7" fill="#C2C2C2"></path>
                <path d="M158.9961,23.4375 L156.0041,23.4375 C155.4491,23.4375 155.0001,22.9885 155.0001,22.4335 L155.0001,9.4415 C155.0001,8.8865 155.4491,8.4375 156.0041,8.4375 L158.9961,8.4375 C159.5511,8.4375 160.0001,8.8865 160.0001,9.4415 L160.0001,22.4335 C160.0001,22.9885 159.5511,23.4375 158.9961,23.4375" id="Fill-9" fill="#C2C2C2"></path>
                <path d="M169.0049,23.4375 L165.9949,23.4375 C165.4449,23.4375 164.9999,22.9925 164.9999,22.4425 L164.9999,9.4325 C164.9999,8.8825 165.4449,8.4375 165.9949,8.4375 L169.0049,8.4375 C169.5549,8.4375 169.9999,8.8825 169.9999,9.4325 L169.9999,22.4425 C169.9999,22.9925 169.5549,23.4375 169.0049,23.4375" id="Fill-11" fill="#C2C2C2"></path>
                <path d="M108,11.4961 L108,20.5041 C108,21.3301 107.33,22.0001 106.504,22.0001 L73.496,22.0001 C72.67,22.0001 72,21.3301 72,20.5041 L72,11.4961 C72,10.6701 72.67,10.0001 73.496,10.0001 L106.504,10.0001 C107.33,10.0001 108,10.6701 108,11.4961" id="Fill-13" fill="#C2C2C2"></path>
                <mask id="mask-14" fill="white">
                    <use xlink:href="#path-13"></use>
                </mask>
                <g id="Clip-16"></g>
                <polygon id="Fill-15" fill="#C2C2C2" mask="url(#mask-14)" points="20 43.0625 160 43.0625 160 31.0625 20 31.0625"></polygon>
            </g>
            <g id="Page-1-Copy-14" transform="translate(259.000000, 170.000000)">
                <path d="M175,31 L5,31 C2.238,31 0,28.762 0,26 L0,6 C0,3.238 2.238,1 5,1 L175,1 C177.762,1 180,3.238 180,6 L180,26 C180,28.762 177.762,31 175,31" id="Fill-1" fill="#D6D6D6"></path>
                <path d="M20,20.4375 C20,21.8185 18.881,22.9375 17.5,22.9375 C16.119,22.9375 15,21.8185 15,20.4375 C15,19.0565 16.119,17.9375 17.5,17.9375 C18.881,17.9375 20,19.0565 20,20.4375" id="Fill-3" fill="#F16667"></path>
                <path d="M20,11.4375 C20,12.8185 18.881,13.9375 17.5,13.9375 C16.119,13.9375 15,12.8185 15,11.4375 C15,10.0565 16.119,8.9375 17.5,8.9375 C18.881,8.9375 20,10.0565 20,11.4375" id="Fill-5" fill="#8DCC93"></path>
                <path d="M149,23.4375 L146,23.4375 C145.447,23.4375 145,22.9905 145,22.4375 L145,9.4375 C145,8.8845 145.447,8.4375 146,8.4375 L149,8.4375 C149.553,8.4375 150,8.8845 150,9.4375 L150,22.4375 C150,22.9905 149.553,23.4375 149,23.4375" id="Fill-7" fill="#C2C2C2"></path>
                <path d="M158.9961,23.4375 L156.0041,23.4375 C155.4491,23.4375 155.0001,22.9885 155.0001,22.4335 L155.0001,9.4415 C155.0001,8.8865 155.4491,8.4375 156.0041,8.4375 L158.9961,8.4375 C159.5511,8.4375 160.0001,8.8865 160.0001,9.4415 L160.0001,22.4335 C160.0001,22.9885 159.5511,23.4375 158.9961,23.4375" id="Fill-9" fill="#C2C2C2"></path>
                <path d="M169.0049,23.4375 L165.9949,23.4375 C165.4449,23.4375 164.9999,22.9925 164.9999,22.4425 L164.9999,9.4325 C164.9999,8.8825 165.4449,8.4375 165.9949,8.4375 L169.0049,8.4375 C169.5549,8.4375 169.9999,8.8825 169.9999,9.4325 L169.9999,22.4425 C169.9999,22.9925 169.5549,23.4375 169.0049,23.4375" id="Fill-11" fill="#C2C2C2"></path>
                <path d="M108,11.4961 L108,20.5041 C108,21.3301 107.33,22.0001 106.504,22.0001 L73.496,22.0001 C72.67,22.0001 72,21.3301 72,20.5041 L72,11.4961 C72,10.6701 72.67,10.0001 73.496,10.0001 L106.504,10.0001 C107.33,10.0001 108,10.6701 108,11.4961" id="Fill-13" fill="#C2C2C2"></path>
                <mask id="mask-16" fill="white">
                    <use xlink:href="#path-15"></use>
                </mask>
                <g id="Clip-16"></g>
            </g>
            <g id="Page-1-Copy-12" transform="translate(32.000000, 501.000000)">
                <path d="M175,31 L5,31 C2.238,31 0,28.762 0,26 L0,6 C0,3.238 2.238,1 5,1 L175,1 C177.762,1 180,3.238 180,6 L180,26 C180,28.762 177.762,31 175,31" id="Fill-1" fill="#D6D6D6"></path>
                <path d="M20,20.4375 C20,21.8185 18.881,22.9375 17.5,22.9375 C16.119,22.9375 15,21.8185 15,20.4375 C15,19.0565 16.119,17.9375 17.5,17.9375 C18.881,17.9375 20,19.0565 20,20.4375" id="Fill-3" fill="#F16667"></path>
                <path d="M20,11.4375 C20,12.8185 18.881,13.9375 17.5,13.9375 C16.119,13.9375 15,12.8185 15,11.4375 C15,10.0565 16.119,8.9375 17.5,8.9375 C18.881,8.9375 20,10.0565 20,11.4375" id="Fill-5" fill="#8DCC93"></path>
                <path d="M149,23.4375 L146,23.4375 C145.447,23.4375 145,22.9905 145,22.4375 L145,9.4375 C145,8.8845 145.447,8.4375 146,8.4375 L149,8.4375 C149.553,8.4375 150,8.8845 150,9.4375 L150,22.4375 C150,22.9905 149.553,23.4375 149,23.4375" id="Fill-7" fill="#C2C2C2"></path>
                <path d="M158.9961,23.4375 L156.0041,23.4375 C155.4491,23.4375 155.0001,22.9885 155.0001,22.4335 L155.0001,9.4415 C155.0001,8.8865 155.4491,8.4375 156.0041,8.4375 L158.9961,8.4375 C159.5511,8.4375 160.0001,8.8865 160.0001,9.4415 L160.0001,22.4335 C160.0001,22.9885 159.5511,23.4375 158.9961,23.4375" id="Fill-9" fill="#C2C2C2"></path>
                <path d="M169.0049,23.4375 L165.9949,23.4375 C165.4449,23.4375 164.9999,22.9925 164.9999,22.4425 L164.9999,9.4325 C164.9999,8.8825 165.4449,8.4375 165.9949,8.4375 L169.0049,8.4375 C169.5549,8.4375 169.9999,8.8825 169.9999,9.4325 L169.9999,22.4425 C169.9999,22.9925 169.5549,23.4375 169.0049,23.4375" id="Fill-11" fill="#C2C2C2"></path>
                <path d="M108,11.4961 L108,20.5041 C108,21.3301 107.33,22.0001 106.504,22.0001 L73.496,22.0001 C72.67,22.0001 72,21.3301 72,20.5041 L72,11.4961 C72,10.6701 72.67,10.0001 73.496,10.0001 L106.504,10.0001 C107.33,10.0001 108,10.6701 108,11.4961" id="Fill-13" fill="#C2C2C2"></path>
                <mask id="mask-18" fill="white">
                    <use xlink:href="#path-17"></use>
                </mask>
                <g id="Clip-16"></g>
                <polygon id="Fill-15" fill="#C2C2C2" mask="url(#mask-18)" points="20 43.0625 160 43.0625 160 31.0625 20 31.0625"></polygon>
            </g>
            <g id="Page-1-Copy-13" transform="translate(32.000000, 459.000000)">
                <path d="M175,31 L5,31 C2.238,31 0,28.762 0,26 L0,6 C0,3.238 2.238,1 5,1 L175,1 C177.762,1 180,3.238 180,6 L180,26 C180,28.762 177.762,31 175,31" id="Fill-1" fill="#D6D6D6"></path>
                <path d="M20,20.4375 C20,21.8185 18.881,22.9375 17.5,22.9375 C16.119,22.9375 15,21.8185 15,20.4375 C15,19.0565 16.119,17.9375 17.5,17.9375 C18.881,17.9375 20,19.0565 20,20.4375" id="Fill-3" fill="#F16667"></path>
                <path d="M20,11.4375 C20,12.8185 18.881,13.9375 17.5,13.9375 C16.119,13.9375 15,12.8185 15,11.4375 C15,10.0565 16.119,8.9375 17.5,8.9375 C18.881,8.9375 20,10.0565 20,11.4375" id="Fill-5" fill="#8DCC93"></path>
                <path d="M149,23.4375 L146,23.4375 C145.447,23.4375 145,22.9905 145,22.4375 L145,9.4375 C145,8.8845 145.447,8.4375 146,8.4375 L149,8.4375 C149.553,8.4375 150,8.8845 150,9.4375 L150,22.4375 C150,22.9905 149.553,23.4375 149,23.4375" id="Fill-7" fill="#C2C2C2"></path>
                <path d="M158.9961,23.4375 L156.0041,23.4375 C155.4491,23.4375 155.0001,22.9885 155.0001,22.4335 L155.0001,9.4415 C155.0001,8.8865 155.4491,8.4375 156.0041,8.4375 L158.9961,8.4375 C159.5511,8.4375 160.0001,8.8865 160.0001,9.4415 L160.0001,22.4335 C160.0001,22.9885 159.5511,23.4375 158.9961,23.4375" id="Fill-9" fill="#C2C2C2"></path>
                <path d="M169.0049,23.4375 L165.9949,23.4375 C165.4449,23.4375 164.9999,22.9925 164.9999,22.4425 L164.9999,9.4325 C164.9999,8.8825 165.4449,8.4375 165.9949,8.4375 L169.0049,8.4375 C169.5549,8.4375 169.9999,8.8825 169.9999,9.4325 L169.9999,22.4425 C169.9999,22.9925 169.5549,23.4375 169.0049,23.4375" id="Fill-11" fill="#C2C2C2"></path>
                <path d="M108,11.4961 L108,20.5041 C108,21.3301 107.33,22.0001 106.504,22.0001 L73.496,22.0001 C72.67,22.0001 72,21.3301 72,20.5041 L72,11.4961 C72,10.6701 72.67,10.0001 73.496,10.0001 L106.504,10.0001 C107.33,10.0001 108,10.6701 108,11.4961" id="Fill-13" fill="#C2C2C2"></path>
                <mask id="mask-20" fill="white">
                    <use xlink:href="#path-19"></use>
                </mask>
                <g id="Clip-16"></g>
                <polygon id="Fill-15" fill="#C2C2C2" mask="url(#mask-20)" points="20 43.0625 160 43.0625 160 31.0625 20 31.0625"></polygon>
            </g>
            <g id="Page-1-Copy-20" transform="translate(32.000000, 417.000000)">
                <path d="M175,31 L5,31 C2.238,31 0,28.762 0,26 L0,6 C0,3.238 2.238,1 5,1 L175,1 C177.762,1 180,3.238 180,6 L180,26 C180,28.762 177.762,31 175,31" id="Fill-1" fill="#D6D6D6"></path>
                <path d="M20,20.4375 C20,21.8185 18.881,22.9375 17.5,22.9375 C16.119,22.9375 15,21.8185 15,20.4375 C15,19.0565 16.119,17.9375 17.5,17.9375 C18.881,17.9375 20,19.0565 20,20.4375" id="Fill-3" fill="#F16667"></path>
                <path d="M20,11.4375 C20,12.8185 18.881,13.9375 17.5,13.9375 C16.119,13.9375 15,12.8185 15,11.4375 C15,10.0565 16.119,8.9375 17.5,8.9375 C18.881,8.9375 20,10.0565 20,11.4375" id="Fill-5" fill="#8DCC93"></path>
                <path d="M149,23.4375 L146,23.4375 C145.447,23.4375 145,22.9905 145,22.4375 L145,9.4375 C145,8.8845 145.447,8.4375 146,8.4375 L149,8.4375 C149.553,8.4375 150,8.8845 150,9.4375 L150,22.4375 C150,22.9905 149.553,23.4375 149,23.4375" id="Fill-7" fill="#C2C2C2"></path>
                <path d="M158.9961,23.4375 L156.0041,23.4375 C155.4491,23.4375 155.0001,22.9885 155.0001,22.4335 L155.0001,9.4415 C155.0001,8.8865 155.4491,8.4375 156.0041,8.4375 L158.9961,8.4375 C159.5511,8.4375 160.0001,8.8865 160.0001,9.4415 L160.0001,22.4335 C160.0001,22.9885 159.5511,23.4375 158.9961,23.4375" id="Fill-9" fill="#C2C2C2"></path>
                <path d="M169.0049,23.4375 L165.9949,23.4375 C165.4449,23.4375 164.9999,22.9925 164.9999,22.4425 L164.9999,9.4325 C164.9999,8.8825 165.4449,8.4375 165.9949,8.4375 L169.0049,8.4375 C169.5549,8.4375 169.9999,8.8825 169.9999,9.4325 L169.9999,22.4425 C169.9999,22.9925 169.5549,23.4375 169.0049,23.4375" id="Fill-11" fill="#C2C2C2"></path>
                <path d="M108,11.4961 L108,20.5041 C108,21.3301 107.33,22.0001 106.504,22.0001 L73.496,22.0001 C72.67,22.0001 72,21.3301 72,20.5041 L72,11.4961 C72,10.6701 72.67,10.0001 73.496,10.0001 L106.504,10.0001 C107.33,10.0001 108,10.6701 108,11.4961" id="Fill-13" fill="#C2C2C2"></path>
                <mask id="mask-22" fill="white">
                    <use xlink:href="#path-21"></use>
                </mask>
                <g id="Clip-16"></g>
                <polygon id="Fill-15" fill="#C2C2C2" mask="url(#mask-22)" points="20 43.0625 160 43.0625 160 31.0625 20 31.0625"></polygon>
            </g>
            <g id="Page-1-Copy-14" transform="translate(32.000000, 543.000000)">
                <path d="M175,31 L5,31 C2.238,31 0,28.762 0,26 L0,6 C0,3.238 2.238,1 5,1 L175,1 C177.762,1 180,3.238 180,6 L180,26 C180,28.762 177.762,31 175,31" id="Fill-1" fill="#D6D6D6"></path>
                <path d="M20,20.4375 C20,21.8185 18.881,22.9375 17.5,22.9375 C16.119,22.9375 15,21.8185 15,20.4375 C15,19.0565 16.119,17.9375 17.5,17.9375 C18.881,17.9375 20,19.0565 20,20.4375" id="Fill-3" fill="#F16667"></path>
                <path d="M20,11.4375 C20,12.8185 18.881,13.9375 17.5,13.9375 C16.119,13.9375 15,12.8185 15,11.4375 C15,10.0565 16.119,8.9375 17.5,8.9375 C18.881,8.9375 20,10.0565 20,11.4375" id="Fill-5" fill="#8DCC93"></path>
                <path d="M149,23.4375 L146,23.4375 C145.447,23.4375 145,22.9905 145,22.4375 L145,9.4375 C145,8.8845 145.447,8.4375 146,8.4375 L149,8.4375 C149.553,8.4375 150,8.8845 150,9.4375 L150,22.4375 C150,22.9905 149.553,23.4375 149,23.4375" id="Fill-7" fill="#C2C2C2"></path>
                <path d="M158.9961,23.4375 L156.0041,23.4375 C155.4491,23.4375 155.0001,22.9885 155.0001,22.4335 L155.0001,9.4415 C155.0001,8.8865 155.4491,8.4375 156.0041,8.4375 L158.9961,8.4375 C159.5511,8.4375 160.0001,8.8865 160.0001,9.4415 L160.0001,22.4335 C160.0001,22.9885 159.5511,23.4375 158.9961,23.4375" id="Fill-9" fill="#C2C2C2"></path>
                <path d="M169.0049,23.4375 L165.9949,23.4375 C165.4449,23.4375 164.9999,22.9925 164.9999,22.4425 L164.9999,9.4325 C164.9999,8.8825 165.4449,8.4375 165.9949,8.4375 L169.0049,8.4375 C169.5549,8.4375 169.9999,8.8825 169.9999,9.4325 L169.9999,22.4425 C169.9999,22.9925 169.5549,23.4375 169.0049,23.4375" id="Fill-11" fill="#C2C2C2"></path>
                <path d="M108,11.4961 L108,20.5041 C108,21.3301 107.33,22.0001 106.504,22.0001 L73.496,22.0001 C72.67,22.0001 72,21.3301 72,20.5041 L72,11.4961 C72,10.6701 72.67,10.0001 73.496,10.0001 L106.504,10.0001 C107.33,10.0001 108,10.6701 108,11.4961" id="Fill-13" fill="#C2C2C2"></path>
                <mask id="mask-24" fill="white">
                    <use xlink:href="#path-23"></use>
                </mask>
                <g id="Clip-16"></g>
            </g>
            <text id="Core" font-family="OpenSans-Regular, Open Sans" font-size="12" font-weight="normal" fill="#000000">
                <tspan x="107" y="400">Core </tspan>
            </text>
            <g id="Page-1-Copy-12" transform="translate(495.000000, 459.000000)">
                <path d="M175,31 L5,31 C2.238,31 0,28.762 0,26 L0,6 C0,3.238 2.238,1 5,1 L175,1 C177.762,1 180,3.238 180,6 L180,26 C180,28.762 177.762,31 175,31" id="Fill-1" fill="#D6D6D6"></path>
                <path d="M20,20.4375 C20,21.8185 18.881,22.9375 17.5,22.9375 C16.119,22.9375 15,21.8185 15,20.4375 C15,19.0565 16.119,17.9375 17.5,17.9375 C18.881,17.9375 20,19.0565 20,20.4375" id="Fill-3" fill="#F16667"></path>
                <path d="M20,11.4375 C20,12.8185 18.881,13.9375 17.5,13.9375 C16.119,13.9375 15,12.8185 15,11.4375 C15,10.0565 16.119,8.9375 17.5,8.9375 C18.881,8.9375 20,10.0565 20,11.4375" id="Fill-5" fill="#8DCC93"></path>
                <path d="M149,23.4375 L146,23.4375 C145.447,23.4375 145,22.9905 145,22.4375 L145,9.4375 C145,8.8845 145.447,8.4375 146,8.4375 L149,8.4375 C149.553,8.4375 150,8.8845 150,9.4375 L150,22.4375 C150,22.9905 149.553,23.4375 149,23.4375" id="Fill-7" fill="#C2C2C2"></path>
                <path d="M158.9961,23.4375 L156.0041,23.4375 C155.4491,23.4375 155.0001,22.9885 155.0001,22.4335 L155.0001,9.4415 C155.0001,8.8865 155.4491,8.4375 156.0041,8.4375 L158.9961,8.4375 C159.5511,8.4375 160.0001,8.8865 160.0001,9.4415 L160.0001,22.4335 C160.0001,22.9885 159.5511,23.4375 158.9961,23.4375" id="Fill-9" fill="#C2C2C2"></path>
                <path d="M169.0049,23.4375 L165.9949,23.4375 C165.4449,23.4375 164.9999,22.9925 164.9999,22.4425 L164.9999,9.4325 C164.9999,8.8825 165.4449,8.4375 165.9949,8.4375 L169.0049,8.4375 C169.5549,8.4375 169.9999,8.8825 169.9999,9.4325 L169.9999,22.4425 C169.9999,22.9925 169.5549,23.4375 169.0049,23.4375" id="Fill-11" fill="#C2C2C2"></path>
                <path d="M108,11.4961 L108,20.5041 C108,21.3301 107.33,22.0001 106.504,22.0001 L73.496,22.0001 C72.67,22.0001 72,21.3301 72,20.5041 L72,11.4961 C72,10.6701 72.67,10.0001 73.496,10.0001 L106.504,10.0001 C107.33,10.0001 108,10.6701 108,11.4961" id="Fill-13" fill="#C2C2C2"></path>
                <mask id="mask-26" fill="white">
                    <use xlink:href="#path-25"></use>
                </mask>
                <g id="Clip-16"></g>
                <polygon id="Fill-15" fill="#C2C2C2" mask="url(#mask-26)" points="20 43.0625 160 43.0625 160 31.0625 20 31.0625"></polygon>
            </g>
            <g id="Page-1-Copy-12" transform="translate(495.000000, 501.000000)">
                <path d="M175,31 L5,31 C2.238,31 0,28.762 0,26 L0,6 C0,3.238 2.238,1 5,1 L175,1 C177.762,1 180,3.238 180,6 L180,26 C180,28.762 177.762,31 175,31" id="Fill-1" fill="#D6D6D6"></path>
                <path d="M20,20.4375 C20,21.8185 18.881,22.9375 17.5,22.9375 C16.119,22.9375 15,21.8185 15,20.4375 C15,19.0565 16.119,17.9375 17.5,17.9375 C18.881,17.9375 20,19.0565 20,20.4375" id="Fill-3" fill="#F16667"></path>
                <path d="M20,11.4375 C20,12.8185 18.881,13.9375 17.5,13.9375 C16.119,13.9375 15,12.8185 15,11.4375 C15,10.0565 16.119,8.9375 17.5,8.9375 C18.881,8.9375 20,10.0565 20,11.4375" id="Fill-5" fill="#8DCC93"></path>
                <path d="M149,23.4375 L146,23.4375 C145.447,23.4375 145,22.9905 145,22.4375 L145,9.4375 C145,8.8845 145.447,8.4375 146,8.4375 L149,8.4375 C149.553,8.4375 150,8.8845 150,9.4375 L150,22.4375 C150,22.9905 149.553,23.4375 149,23.4375" id="Fill-7" fill="#C2C2C2"></path>
                <path d="M158.9961,23.4375 L156.0041,23.4375 C155.4491,23.4375 155.0001,22.9885 155.0001,22.4335 L155.0001,9.4415 C155.0001,8.8865 155.4491,8.4375 156.0041,8.4375 L158.9961,8.4375 C159.5511,8.4375 160.0001,8.8865 160.0001,9.4415 L160.0001,22.4335 C160.0001,22.9885 159.5511,23.4375 158.9961,23.4375" id="Fill-9" fill="#C2C2C2"></path>
                <path d="M169.0049,23.4375 L165.9949,23.4375 C165.4449,23.4375 164.9999,22.9925 164.9999,22.4425 L164.9999,9.4325 C164.9999,8.8825 165.4449,8.4375 165.9949,8.4375 L169.0049,8.4375 C169.5549,8.4375 169.9999,8.8825 169.9999,9.4325 L169.9999,22.4425 C169.9999,22.9925 169.5549,23.4375 169.0049,23.4375" id="Fill-11" fill="#C2C2C2"></path>
                <path d="M108,11.4961 L108,20.5041 C108,21.3301 107.33,22.0001 106.504,22.0001 L73.496,22.0001 C72.67,22.0001 72,21.3301 72,20.5041 L72,11.4961 C72,10.6701 72.67,10.0001 73.496,10.0001 L106.504,10.0001 C107.33,10.0001 108,10.6701 108,11.4961" id="Fill-13" fill="#C2C2C2"></path>
                <mask id="mask-28" fill="white">
                    <use xlink:href="#path-27"></use>
                </mask>
                <g id="Clip-16"></g>
                <polygon id="Fill-15" fill="#C2C2C2" mask="url(#mask-28)" points="20 43.0625 160 43.0625 160 31.0625 20 31.0625"></polygon>
            </g>
            <g id="Page-1-Copy-13" transform="translate(495.000000, 417.000000)">
                <path d="M175,31 L5,31 C2.238,31 0,28.762 0,26 L0,6 C0,3.238 2.238,1 5,1 L175,1 C177.762,1 180,3.238 180,6 L180,26 C180,28.762 177.762,31 175,31" id="Fill-1" fill="#D6D6D6"></path>
                <path d="M20,20.4375 C20,21.8185 18.881,22.9375 17.5,22.9375 C16.119,22.9375 15,21.8185 15,20.4375 C15,19.0565 16.119,17.9375 17.5,17.9375 C18.881,17.9375 20,19.0565 20,20.4375" id="Fill-3" fill="#F16667"></path>
                <path d="M20,11.4375 C20,12.8185 18.881,13.9375 17.5,13.9375 C16.119,13.9375 15,12.8185 15,11.4375 C15,10.0565 16.119,8.9375 17.5,8.9375 C18.881,8.9375 20,10.0565 20,11.4375" id="Fill-5" fill="#8DCC93"></path>
                <path d="M149,23.4375 L146,23.4375 C145.447,23.4375 145,22.9905 145,22.4375 L145,9.4375 C145,8.8845 145.447,8.4375 146,8.4375 L149,8.4375 C149.553,8.4375 150,8.8845 150,9.4375 L150,22.4375 C150,22.9905 149.553,23.4375 149,23.4375" id="Fill-7" fill="#C2C2C2"></path>
                <path d="M158.9961,23.4375 L156.0041,23.4375 C155.4491,23.4375 155.0001,22.9885 155.0001,22.4335 L155.0001,9.4415 C155.0001,8.8865 155.4491,8.4375 156.0041,8.4375 L158.9961,8.4375 C159.5511,8.4375 160.0001,8.8865 160.0001,9.4415 L160.0001,22.4335 C160.0001,22.9885 159.5511,23.4375 158.9961,23.4375" id="Fill-9" fill="#C2C2C2"></path>
                <path d="M169.0049,23.4375 L165.9949,23.4375 C165.4449,23.4375 164.9999,22.9925 164.9999,22.4425 L164.9999,9.4325 C164.9999,8.8825 165.4449,8.4375 165.9949,8.4375 L169.0049,8.4375 C169.5549,8.4375 169.9999,8.8825 169.9999,9.4325 L169.9999,22.4425 C169.9999,22.9925 169.5549,23.4375 169.0049,23.4375" id="Fill-11" fill="#C2C2C2"></path>
                <path d="M108,11.4961 L108,20.5041 C108,21.3301 107.33,22.0001 106.504,22.0001 L73.496,22.0001 C72.67,22.0001 72,21.3301 72,20.5041 L72,11.4961 C72,10.6701 72.67,10.0001 73.496,10.0001 L106.504,10.0001 C107.33,10.0001 108,10.6701 108,11.4961" id="Fill-13" fill="#C2C2C2"></path>
                <mask id="mask-30" fill="white">
                    <use xlink:href="#path-29"></use>
                </mask>
                <g id="Clip-16"></g>
                <polygon id="Fill-15" fill="#C2C2C2" mask="url(#mask-30)" points="20 43.0625 160 43.0625 160 31.0625 20 31.0625"></polygon>
            </g>
            <g id="Page-1-Copy-20" transform="translate(495.000000, 375.000000)">
                <path d="M175,31 L5,31 C2.238,31 0,28.762 0,26 L0,6 C0,3.238 2.238,1 5,1 L175,1 C177.762,1 180,3.238 180,6 L180,26 C180,28.762 177.762,31 175,31" id="Fill-1" fill="#D6D6D6"></path>
                <path d="M20,20.4375 C20,21.8185 18.881,22.9375 17.5,22.9375 C16.119,22.9375 15,21.8185 15,20.4375 C15,19.0565 16.119,17.9375 17.5,17.9375 C18.881,17.9375 20,19.0565 20,20.4375" id="Fill-3" fill="#F16667"></path>
                <path d="M20,11.4375 C20,12.8185 18.881,13.9375 17.5,13.9375 C16.119,13.9375 15,12.8185 15,11.4375 C15,10.0565 16.119,8.9375 17.5,8.9375 C18.881,8.9375 20,10.0565 20,11.4375" id="Fill-5" fill="#8DCC93"></path>
                <path d="M149,23.4375 L146,23.4375 C145.447,23.4375 145,22.9905 145,22.4375 L145,9.4375 C145,8.8845 145.447,8.4375 146,8.4375 L149,8.4375 C149.553,8.4375 150,8.8845 150,9.4375 L150,22.4375 C150,22.9905 149.553,23.4375 149,23.4375" id="Fill-7" fill="#C2C2C2"></path>
                <path d="M158.9961,23.4375 L156.0041,23.4375 C155.4491,23.4375 155.0001,22.9885 155.0001,22.4335 L155.0001,9.4415 C155.0001,8.8865 155.4491,8.4375 156.0041,8.4375 L158.9961,8.4375 C159.5511,8.4375 160.0001,8.8865 160.0001,9.4415 L160.0001,22.4335 C160.0001,22.9885 159.5511,23.4375 158.9961,23.4375" id="Fill-9" fill="#C2C2C2"></path>
                <path d="M169.0049,23.4375 L165.9949,23.4375 C165.4449,23.4375 164.9999,22.9925 164.9999,22.4425 L164.9999,9.4325 C164.9999,8.8825 165.4449,8.4375 165.9949,8.4375 L169.0049,8.4375 C169.5549,8.4375 169.9999,8.8825 169.9999,9.4325 L169.9999,22.4425 C169.9999,22.9925 169.5549,23.4375 169.0049,23.4375" id="Fill-11" fill="#C2C2C2"></path>
                <path d="M108,11.4961 L108,20.5041 C108,21.3301 107.33,22.0001 106.504,22.0001 L73.496,22.0001 C72.67,22.0001 72,21.3301 72,20.5041 L72,11.4961 C72,10.6701 72.67,10.0001 73.496,10.0001 L106.504,10.0001 C107.33,10.0001 108,10.6701 108,11.4961" id="Fill-13" fill="#C2C2C2"></path>
                <mask id="mask-32" fill="white">
                    <use xlink:href="#path-31"></use>
                </mask>
                <g id="Clip-16"></g>
                <polygon id="Fill-15" fill="#C2C2C2" mask="url(#mask-32)" points="20 43.0625 160 43.0625 160 31.0625 20 31.0625"></polygon>
            </g>
            <g id="Page-1-Copy-13" transform="translate(495.000000, 585.000000)">
                <path d="M175,31 L5,31 C2.238,31 0,28.762 0,26 L0,6 C0,3.238 2.238,1 5,1 L175,1 C177.762,1 180,3.238 180,6 L180,26 C180,28.762 177.762,31 175,31" id="Fill-1" fill="#D6D6D6"></path>
                <path d="M20,20.4375 C20,21.8185 18.881,22.9375 17.5,22.9375 C16.119,22.9375 15,21.8185 15,20.4375 C15,19.0565 16.119,17.9375 17.5,17.9375 C18.881,17.9375 20,19.0565 20,20.4375" id="Fill-3" fill="#F16667"></path>
                <path d="M20,11.4375 C20,12.8185 18.881,13.9375 17.5,13.9375 C16.119,13.9375 15,12.8185 15,11.4375 C15,10.0565 16.119,8.9375 17.5,8.9375 C18.881,8.9375 20,10.0565 20,11.4375" id="Fill-5" fill="#8DCC93"></path>
                <path d="M149,23.4375 L146,23.4375 C145.447,23.4375 145,22.9905 145,22.4375 L145,9.4375 C145,8.8845 145.447,8.4375 146,8.4375 L149,8.4375 C149.553,8.4375 150,8.8845 150,9.4375 L150,22.4375 C150,22.9905 149.553,23.4375 149,23.4375" id="Fill-7" fill="#C2C2C2"></path>
                <path d="M158.9961,23.4375 L156.0041,23.4375 C155.4491,23.4375 155.0001,22.9885 155.0001,22.4335 L155.0001,9.4415 C155.0001,8.8865 155.4491,8.4375 156.0041,8.4375 L158.9961,8.4375 C159.5511,8.4375 160.0001,8.8865 160.0001,9.4415 L160.0001,22.4335 C160.0001,22.9885 159.5511,23.4375 158.9961,23.4375" id="Fill-9" fill="#C2C2C2"></path>
                <path d="M169.0049,23.4375 L165.9949,23.4375 C165.4449,23.4375 164.9999,22.9925 164.9999,22.4425 L164.9999,9.4325 C164.9999,8.8825 165.4449,8.4375 165.9949,8.4375 L169.0049,8.4375 C169.5549,8.4375 169.9999,8.8825 169.9999,9.4325 L169.9999,22.4425 C169.9999,22.9925 169.5549,23.4375 169.0049,23.4375" id="Fill-11" fill="#C2C2C2"></path>
                <path d="M108,11.4961 L108,20.5041 C108,21.3301 107.33,22.0001 106.504,22.0001 L73.496,22.0001 C72.67,22.0001 72,21.3301 72,20.5041 L72,11.4961 C72,10.6701 72.67,10.0001 73.496,10.0001 L106.504,10.0001 C107.33,10.0001 108,10.6701 108,11.4961" id="Fill-13" fill="#C2C2C2"></path>
                <mask id="mask-34" fill="white">
                    <use xlink:href="#path-33"></use>
                </mask>
                <g id="Clip-16"></g>
            </g>
            <g id="Page-1-Copy-20" transform="translate(495.000000, 543.000000)">
                <path d="M175,31 L5,31 C2.238,31 0,28.762 0,26 L0,6 C0,3.238 2.238,1 5,1 L175,1 C177.762,1 180,3.238 180,6 L180,26 C180,28.762 177.762,31 175,31" id="Fill-1" fill="#D6D6D6"></path>
                <path d="M20,20.4375 C20,21.8185 18.881,22.9375 17.5,22.9375 C16.119,22.9375 15,21.8185 15,20.4375 C15,19.0565 16.119,17.9375 17.5,17.9375 C18.881,17.9375 20,19.0565 20,20.4375" id="Fill-3" fill="#F16667"></path>
                <path d="M20,11.4375 C20,12.8185 18.881,13.9375 17.5,13.9375 C16.119,13.9375 15,12.8185 15,11.4375 C15,10.0565 16.119,8.9375 17.5,8.9375 C18.881,8.9375 20,10.0565 20,11.4375" id="Fill-5" fill="#8DCC93"></path>
                <path d="M149,23.4375 L146,23.4375 C145.447,23.4375 145,22.9905 145,22.4375 L145,9.4375 C145,8.8845 145.447,8.4375 146,8.4375 L149,8.4375 C149.553,8.4375 150,8.8845 150,9.4375 L150,22.4375 C150,22.9905 149.553,23.4375 149,23.4375" id="Fill-7" fill="#C2C2C2"></path>
                <path d="M158.9961,23.4375 L156.0041,23.4375 C155.4491,23.4375 155.0001,22.9885 155.0001,22.4335 L155.0001,9.4415 C155.0001,8.8865 155.4491,8.4375 156.0041,8.4375 L158.9961,8.4375 C159.5511,8.4375 160.0001,8.8865 160.0001,9.4415 L160.0001,22.4335 C160.0001,22.9885 159.5511,23.4375 158.9961,23.4375" id="Fill-9" fill="#C2C2C2"></path>
                <path d="M169.0049,23.4375 L165.9949,23.4375 C165.4449,23.4375 164.9999,22.9925 164.9999,22.4425 L164.9999,9.4325 C164.9999,8.8825 165.4449,8.4375 165.9949,8.4375 L169.0049,8.4375 C169.5549,8.4375 169.9999,8.8825 169.9999,9.4325 L169.9999,22.4425 C169.9999,22.9925 169.5549,23.4375 169.0049,23.4375" id="Fill-11" fill="#C2C2C2"></path>
                <path d="M108,11.4961 L108,20.5041 C108,21.3301 107.33,22.0001 106.504,22.0001 L73.496,22.0001 C72.67,22.0001 72,21.3301 72,20.5041 L72,11.4961 C72,10.6701 72.67,10.0001 73.496,10.0001 L106.504,10.0001 C107.33,10.0001 108,10.6701 108,11.4961" id="Fill-13" fill="#C2C2C2"></path>
                <mask id="mask-36" fill="white">
                    <use xlink:href="#path-35"></use>
                </mask>
                <g id="Clip-16"></g>
                <polygon id="Fill-15" fill="#C2C2C2" mask="url(#mask-36)" points="20 43.0625 160 43.0625 160 31.0625 20 31.0625"></polygon>
            </g>
            <text id="Read-Replicas" font-family="OpenSans-Regular, Open Sans" font-size="12" font-weight="normal" fill="#000000">
                <tspan x="548" y="361">Read Replicas</tspan>
            </text>
            <path d="M504.747833,214 C504.747833,214 477.837912,264.333333 424.018069,365" id="Line" stroke="#979797" stroke-width="2" stroke-linecap="square" stroke-linejoin="round" transform="translate(464.382951, 289.500000) scale(1, -1) translate(-464.382951, -289.500000) "></path>
            <polygon id="Triangle-3" fill="#979797" opacity="0.99000001" transform="translate(423.752167, 214.113884) scale(1, -1) rotate(208.000000) translate(-423.752167, -214.113884) " points="423.752167 210.113884 429.252167 218.113884 418.252167 218.113884"></polygon>
            <g id="Group-2" transform="translate(233.000000, 292.500000) scale(1, -1) translate(-233.000000, -292.500000) translate(189.000000, 214.000000)">
                <path d="M87.7478326,6 C87.7478326,6 60.8379115,56.3333333 7.01806943,157" id="Line" stroke="#979797" stroke-width="2" stroke-linecap="square" stroke-linejoin="round" transform="translate(47.382951, 81.500000) scale(1, -1) translate(-47.382951, -81.500000) "></path>
                <polygon id="Triangle-3" fill="#979797" opacity="0.99000001" transform="translate(6.752167, 6.113884) scale(1, -1) rotate(208.000000) translate(-6.752167, -6.113884) " points="6.75216744 2.11388397 12.2521674 10.113884 1.25216744 10.113884"></polygon>
            </g>
            <text id="Asynchronous-replica" font-family="OpenSans-Regular, Open Sans" font-size="12" font-weight="normal" fill="#000000">
                <tspan x="277" y="503">Asynchronous replication</tspan>
            </text>
            <g id="Group" transform="translate(233.000000, 465.000000)">
                <path d="M0,6 C0,6 76,6 228,6" id="Line" stroke="#979797" stroke-width="2" stroke-linejoin="round" stroke-dasharray="8,4"></path>
                <polygon id="Triangle-3" fill="#979797" opacity="0.99000001" transform="translate(227.500000, 6.000000) rotate(90.000000) translate(-227.500000, -6.000000) " points="227.5 2 233 10 222 10"></polygon>
            </g>
            <path d="M233,525 C233,525 309,525 461,525" id="Line" stroke="#979797" stroke-width="2" stroke-linejoin="round" stroke-dasharray="8,4"></path>
            <polygon id="Triangle-3" fill="#979797" opacity="0.99000001" points="464.5 525 456.5 530.5 456.5 519.5"></polygon>
        </g>
    </g>
</svg>