<?xml version="1.0" encoding="UTF-8"?>
<svg width="606px" height="162px" viewBox="0 0 606 162" version="1.1" xmlns="http://www.w3.org/2000/svg" xmlns:xlink="http://www.w3.org/1999/xlink">
    <!-- Generator: Sketch 48.2 (47327) - http://www.bohemiancoding.com/sketch -->
    <title>dc-recovery-1</title>
    <desc>Created with Sketch.</desc>
    <defs>
        <polygon id="path-1" points="0 42 180 42 180 0 0 0"></polygon>
        <polygon id="path-3" points="0 43.0625 180 43.0625 180 0.9995 0 0.9995"></polygon>
        <polygon id="path-5" points="0 43.0625 180 43.0625 180 0.9995 0 0.9995"></polygon>
        <polygon id="path-7" points="0 43.0625 180 43.0625 180 0.9995 0 0.9995"></polygon>
    </defs>
    <g id="Page-1" stroke="none" stroke-width="1" fill="none" fill-rule="evenodd">
        <g id="Artboard" transform="translate(-19432.000000, -13316.000000)"></g>
        <g id="dc-recovery-1">
            <g id="Page-1" opacity="0.400192482" transform="translate(384.000000, 35.000000)">
                <path d="M175,30 L5,30 C2.238,30 0,27.762 0,25 L0,5 C0,2.238 2.238,0 5,0 L175,0 C177.762,0 180,2.238 180,5 L180,25 C180,27.762 177.762,30 175,30" id="Fill-1" fill="#D6D6D6"></path>
                <path d="M20,19.5 C20,20.881 18.881,22 17.5,22 C16.119,22 15,20.881 15,19.5 C15,18.119 16.119,17 17.5,17 C18.881,17 20,18.119 20,19.5" id="Fill-3" fill="#F16667"></path>
                <path d="M20,10.5 C20,11.881 18.881,13 17.5,13 C16.119,13 15,11.881 15,10.5 C15,9.119 16.119,8 17.5,8 C18.881,8 20,9.119 20,10.5" id="Fill-5" fill="#8DCC93"></path>
                <path d="M149,22 L146,22 C145.447,22 145,21.553 145,21 L145,8 C145,7.447 145.447,7 146,7 L149,7 C149.553,7 150,7.447 150,8 L150,21 C150,21.553 149.553,22 149,22" id="Fill-7" fill="#C2C2C2"></path>
                <path d="M158.996,22 L156.004,22 C155.449,22 155,21.551 155,20.996 L155,8.004 C155,7.449 155.449,7 156.004,7 L158.996,7 C159.551,7 160,7.449 160,8.004 L160,20.996 C160,21.551 159.551,22 158.996,22" id="Fill-9" fill="#C2C2C2"></path>
                <path d="M169.005,22 L165.995,22 C165.445,22 165,21.555 165,21.005 L165,7.995 C165,7.445 165.445,7 165.995,7 L169.005,7 C169.555,7 170,7.445 170,7.995 L170,21.005 C170,21.555 169.555,22 169.005,22" id="Fill-11" fill="#C2C2C2"></path>
                <path d="M108,10.496 L108,19.504 C108,20.33 107.33,21 106.504,21 L73.496,21 C72.67,21 72,20.33 72,19.504 L72,10.496 C72,9.67 72.67,9 73.496,9 L106.504,9 C107.33,9 108,9.67 108,10.496" id="Fill-13" fill="#C2C2C2"></path>
                <mask id="mask-2" fill="white">
                    <use xlink:href="#path-1"></use>
                </mask>
                <g id="Clip-16"></g>
                <polygon id="Fill-15" fill="#C2C2C2" mask="url(#mask-2)" points="20 42 160 42 160 30 20 30"></polygon>
            </g>
            <g id="remove-circle-1" transform="translate(555.000000, 26.000000)">
                <g id="Group" stroke-linecap="round" stroke-linejoin="round">
                    <path d="M14.4586185,2.791371 C17.680446,6.0131985 17.680446,11.236821 14.4586185,14.458596 C11.236791,17.6804235 6.0131685,17.6804235 2.7913935,14.458596 C-0.430434,11.2367685 -0.430434,6.013146 2.7913935,2.791371 C6.013221,-0.4304565 11.2368435,-0.4304565 14.4586185,2.791371" id="Shape" fill="#F16667"></path>
                    <path d="M11.805,5.445 L5.445,11.805" id="Shape" stroke="#FFFFFF"></path>
                    <path d="M11.805,11.805 L5.445,5.445" id="Shape" stroke="#FFFFFF"></path>
                </g>
                <polygon id="Shape" points="0 0 18 0 18 18 0 18"></polygon>
            </g>
            <g id="Page-1-Copy-10" transform="translate(37.000000, 34.000000)">
                <path d="M175,31 L5,31 C2.238,31 0,28.762 0,26 L0,6 C0,3.238 2.238,1 5,1 L175,1 C177.762,1 180,3.238 180,6 L180,26 C180,28.762 177.762,31 175,31" id="Fill-1" fill="#D6D6D6"></path>
                <path d="M20,20.4375 C20,21.8185 18.881,22.9375 17.5,22.9375 C16.119,22.9375 15,21.8185 15,20.4375 C15,19.0565 16.119,17.9375 17.5,17.9375 C18.881,17.9375 20,19.0565 20,20.4375" id="Fill-3" fill="#F16667"></path>
                <path d="M20,11.4375 C20,12.8185 18.881,13.9375 17.5,13.9375 C16.119,13.9375 15,12.8185 15,11.4375 C15,10.0565 16.119,8.9375 17.5,8.9375 C18.881,8.9375 20,10.0565 20,11.4375" id="Fill-5" fill="#8DCC93"></path>
                <path d="M149,23.4375 L146,23.4375 C145.447,23.4375 145,22.9905 145,22.4375 L145,9.4375 C145,8.8845 145.447,8.4375 146,8.4375 L149,8.4375 C149.553,8.4375 150,8.8845 150,9.4375 L150,22.4375 C150,22.9905 149.553,23.4375 149,23.4375" id="Fill-7" fill="#C2C2C2"></path>
                <path d="M158.9961,23.4375 L156.0041,23.4375 C155.4491,23.4375 155.0001,22.9885 155.0001,22.4335 L155.0001,9.4415 C155.0001,8.8865 155.4491,8.4375 156.0041,8.4375 L158.9961,8.4375 C159.5511,8.4375 160.0001,8.8865 160.0001,9.4415 L160.0001,22.4335 C160.0001,22.9885 159.5511,23.4375 158.9961,23.4375" id="Fill-9" fill="#C2C2C2"></path>
                <path d="M169.0049,23.4375 L165.9949,23.4375 C165.4449,23.4375 164.9999,22.9925 164.9999,22.4425 L164.9999,9.4325 C164.9999,8.8825 165.4449,8.4375 165.9949,8.4375 L169.0049,8.4375 C169.5549,8.4375 169.9999,8.8825 169.9999,9.4325 L169.9999,22.4425 C169.9999,22.9925 169.5549,23.4375 169.0049,23.4375" id="Fill-11" fill="#C2C2C2"></path>
                <path d="M108,11.4961 L108,20.5041 C108,21.3301 107.33,22.0001 106.504,22.0001 L73.496,22.0001 C72.67,22.0001 72,21.3301 72,20.5041 L72,11.4961 C72,10.6701 72.67,10.0001 73.496,10.0001 L106.504,10.0001 C107.33,10.0001 108,10.6701 108,11.4961" id="Fill-13" fill="#C2C2C2"></path>
                <mask id="mask-4" fill="white">
                    <use xlink:href="#path-3"></use>
                </mask>
                <g id="Clip-16"></g>
                <polygon id="Fill-15" fill="#C2C2C2" mask="url(#mask-4)" points="20 43.0625 160 43.0625 160 31.0625 20 31.0625"></polygon>
            </g>
            <g id="Page-1-Copy-11" transform="translate(384.000000, 76.000000)">
                <path d="M175,31 L5,31 C2.238,31 0,28.762 0,26 L0,6 C0,3.238 2.238,1 5,1 L175,1 C177.762,1 180,3.238 180,6 L180,26 C180,28.762 177.762,31 175,31" id="Fill-1" fill="#D6D6D6"></path>
                <path d="M20,20.4375 C20,21.8185 18.881,22.9375 17.5,22.9375 C16.119,22.9375 15,21.8185 15,20.4375 C15,19.0565 16.119,17.9375 17.5,17.9375 C18.881,17.9375 20,19.0565 20,20.4375" id="Fill-3" fill="#F16667"></path>
                <path d="M20,11.4375 C20,12.8185 18.881,13.9375 17.5,13.9375 C16.119,13.9375 15,12.8185 15,11.4375 C15,10.0565 16.119,8.9375 17.5,8.9375 C18.881,8.9375 20,10.0565 20,11.4375" id="Fill-5" fill="#8DCC93"></path>
                <path d="M149,23.4375 L146,23.4375 C145.447,23.4375 145,22.9905 145,22.4375 L145,9.4375 C145,8.8845 145.447,8.4375 146,8.4375 L149,8.4375 C149.553,8.4375 150,8.8845 150,9.4375 L150,22.4375 C150,22.9905 149.553,23.4375 149,23.4375" id="Fill-7" fill="#C2C2C2"></path>
                <path d="M158.9961,23.4375 L156.0041,23.4375 C155.4491,23.4375 155.0001,22.9885 155.0001,22.4335 L155.0001,9.4415 C155.0001,8.8865 155.4491,8.4375 156.0041,8.4375 L158.9961,8.4375 C159.5511,8.4375 160.0001,8.8865 160.0001,9.4415 L160.0001,22.4335 C160.0001,22.9885 159.5511,23.4375 158.9961,23.4375" id="Fill-9" fill="#C2C2C2"></path>
                <path d="M169.0049,23.4375 L165.9949,23.4375 C165.4449,23.4375 164.9999,22.9925 164.9999,22.4425 L164.9999,9.4325 C164.9999,8.8825 165.4449,8.4375 165.9949,8.4375 L169.0049,8.4375 C169.5549,8.4375 169.9999,8.8825 169.9999,9.4325 L169.9999,22.4425 C169.9999,22.9925 169.5549,23.4375 169.0049,23.4375" id="Fill-11" fill="#C2C2C2"></path>
                <path d="M108,11.4961 L108,20.5041 C108,21.3301 107.33,22.0001 106.504,22.0001 L73.496,22.0001 C72.67,22.0001 72,21.3301 72,20.5041 L72,11.4961 C72,10.6701 72.67,10.0001 73.496,10.0001 L106.504,10.0001 C107.33,10.0001 108,10.6701 108,11.4961" id="Fill-13" fill="#C2C2C2"></path>
                <mask id="mask-6" fill="white">
                    <use xlink:href="#path-5"></use>
                </mask>
                <g id="Clip-16"></g>
            </g>
            <g id="Page-1-Copy-11" transform="translate(37.000000, 76.000000)">
                <path d="M175,31 L5,31 C2.238,31 0,28.762 0,26 L0,6 C0,3.238 2.238,1 5,1 L175,1 C177.762,1 180,3.238 180,6 L180,26 C180,28.762 177.762,31 175,31" id="Fill-1" fill="#D6D6D6"></path>
                <path d="M20,20.4375 C20,21.8185 18.881,22.9375 17.5,22.9375 C16.119,22.9375 15,21.8185 15,20.4375 C15,19.0565 16.119,17.9375 17.5,17.9375 C18.881,17.9375 20,19.0565 20,20.4375" id="Fill-3" fill="#F16667"></path>
                <path d="M20,11.4375 C20,12.8185 18.881,13.9375 17.5,13.9375 C16.119,13.9375 15,12.8185 15,11.4375 C15,10.0565 16.119,8.9375 17.5,8.9375 C18.881,8.9375 20,10.0565 20,11.4375" id="Fill-5" fill="#8DCC93"></path>
                <path d="M149,23.4375 L146,23.4375 C145.447,23.4375 145,22.9905 145,22.4375 L145,9.4375 C145,8.8845 145.447,8.4375 146,8.4375 L149,8.4375 C149.553,8.4375 150,8.8845 150,9.4375 L150,22.4375 C150,22.9905 149.553,23.4375 149,23.4375" id="Fill-7" fill="#C2C2C2"></path>
                <path d="M158.9961,23.4375 L156.0041,23.4375 C155.4491,23.4375 155.0001,22.9885 155.0001,22.4335 L155.0001,9.4415 C155.0001,8.8865 155.4491,8.4375 156.0041,8.4375 L158.9961,8.4375 C159.5511,8.4375 160.0001,8.8865 160.0001,9.4415 L160.0001,22.4335 C160.0001,22.9885 159.5511,23.4375 158.9961,23.4375" id="Fill-9" fill="#C2C2C2"></path>
                <path d="M169.0049,23.4375 L165.9949,23.4375 C165.4449,23.4375 164.9999,22.9925 164.9999,22.4425 L164.9999,9.4325 C164.9999,8.8825 165.4449,8.4375 165.9949,8.4375 L169.0049,8.4375 C169.5549,8.4375 169.9999,8.8825 169.9999,9.4325 L169.9999,22.4425 C169.9999,22.9925 169.5549,23.4375 169.0049,23.4375" id="Fill-11" fill="#C2C2C2"></path>
                <path d="M108,11.4961 L108,20.5041 C108,21.3301 107.33,22.0001 106.504,22.0001 L73.496,22.0001 C72.67,22.0001 72,21.3301 72,20.5041 L72,11.4961 C72,10.6701 72.67,10.0001 73.496,10.0001 L106.504,10.0001 C107.33,10.0001 108,10.6701 108,11.4961" id="Fill-13" fill="#C2C2C2"></path>
                <mask id="mask-8" fill="white">
                    <use xlink:href="#path-7"></use>
                </mask>
                <g id="Clip-16"></g>
            </g>
            <g id="check-circle-2-copy-11" transform="translate(208.000000, 28.000000)" stroke-linecap="round" stroke-linejoin="round">
                <g id="Group">
                    <path d="M15.0988072,2.90120475 C18.4670797,6.26947725 18.4670797,11.7305047 15.0988072,15.0988298 C11.7305347,18.4671022 6.26950725,18.4671022 2.90118225,15.0988298 C-0.46709025,11.7305572 -0.46709025,6.26952975 2.90118225,2.90120475 C6.26945475,-0.46706775 11.7304822,-0.46706775 15.0988072,2.90120475" id="Shape" fill="#8DCC93"></path>
                    <polyline id="Shape" stroke="#FFFFFF" points="12.75 6.375 7.125 11.625 5.25 9.75"></polyline>
                </g>
            </g>
            <g id="check-circle-2-copy-12" transform="translate(555.000000, 71.000000)" stroke-linecap="round" stroke-linejoin="round">
                <g id="Group">
                    <path d="M15.0988072,2.90120475 C18.4670797,6.26947725 18.4670797,11.7305047 15.0988072,15.0988298 C11.7305347,18.4671022 6.26950725,18.4671022 2.90118225,15.0988298 C-0.46709025,11.7305572 -0.46709025,6.26952975 2.90118225,2.90120475 C6.26945475,-0.46706775 11.7304822,-0.46706775 15.0988072,2.90120475" id="Shape" fill="#8DCC93"></path>
                    <polyline id="Shape" stroke="#FFFFFF" points="12.75 6.375 7.125 11.625 5.25 9.75"></polyline>
                </g>
            </g>
            <g id="check-circle-2-copy-12" transform="translate(208.000000, 71.000000)" stroke-linecap="round" stroke-linejoin="round">
                <g id="Group">
                    <path d="M15.0988072,2.90120475 C18.4670797,6.26947725 18.4670797,11.7305047 15.0988072,15.0988298 C11.7305347,18.4671022 6.26950725,18.4671022 2.90118225,15.0988298 C-0.46709025,11.7305572 -0.46709025,6.26952975 2.90118225,2.90120475 C6.26945475,-0.46706775 11.7304822,-0.46706775 15.0988072,2.90120475" id="Shape" fill="#8DCC93"></path>
                    <polyline id="Shape" stroke="#FFFFFF" points="12.75 6.375 7.125 11.625 5.25 9.75"></polyline>
                </g>
            </g>
            <rect id="Rectangle-7" stroke="#D6D6D6" x="11.5" y="11.5" width="233" height="139"></rect>
            <rect id="Rectangle-7" stroke="#D6D6D6" x="361.5" y="11.5" width="233" height="139"></rect>
            <g id="Group-2" transform="translate(241.000000, 73.000000)" stroke="#979797">
                <circle id="Oval-3" fill="#979797" cx="3.5" cy="3.5" r="3.5"></circle>
                <circle id="Oval-3" fill="#979797" cx="120.5" cy="3.5" r="3.5"></circle>
                <path d="M120.5,3.5 L3.5,3.5" id="Line-3" stroke-width="2" stroke-linecap="square"></path>
            </g>
            <text id="Data-center-1" font-family="OpenSans-Regular, Open Sans" font-size="12" font-weight="normal" fill="#000000">
                <tspan x="89.4472656" y="134">Data center 1</tspan>
            </text>
            <text id="Data-center-2" font-family="OpenSans-Regular, Open Sans" font-size="12" font-weight="normal" fill="#000000">
                <tspan x="440.447266" y="134">Data center 2</tspan>
            </text>
            <text id="Possible-quorum" font-family="OpenSans-Regular, Open Sans" font-size="12" font-weight="normal" fill="#000000">
                <tspan x="255.706055" y="97">Possible quorum</tspan>
            </text>
            <polygon id="Path-6" stroke="#8DCC93" stroke-width="2" stroke-dasharray="4" points="578.818926 68.7775121 370.419548 68.7775121 230.504274 20 24.2634436 20 24.2634436 116 578.818926 116"></polygon>
            <rect id="Rectangle-9" stroke="#979797" x="5.5" y="5.5" width="595" height="151"></rect>
        </g>
    </g>
</svg>