<?xml version="1.0" encoding="UTF-8"?>
<svg width="606px" height="162px" viewBox="0 0 606 162" version="1.1" xmlns="http://www.w3.org/2000/svg" xmlns:xlink="http://www.w3.org/1999/xlink">
    <!-- Generator: Sketch 48.2 (47327) - http://www.bohemiancoding.com/sketch -->
    <title>dc-recovery-2</title>
    <desc>Created with Sketch.</desc>
    <defs>
        <polygon id="path-1" points="0 43.0625 180 43.0625 180 0.9995 0 0.9995"></polygon>
        <polygon id="path-3" points="0 43.0625 180 43.0625 180 0.9995 0 0.9995"></polygon>
        <polygon id="path-5" points="0 43.0625 180 43.0625 180 0.9995 0 0.9995"></polygon>
        <polygon id="path-7" points="0 43.0625 180 43.0625 180 0.9995 0 0.9995"></polygon>
    </defs>
    <g id="Page-1" stroke="none" stroke-width="1" fill="none" fill-rule="evenodd">
        <g id="Artboard" transform="translate(-18724.000000, -13316.000000)"></g>
        <g id="dc-recovery-2">
            <g id="Page-1" opacity="0.400192482" transform="translate(37.000000, 34.000000)">
                <path d="M175,31 L5,31 C2.238,31 0,28.762 0,26 L0,6 C0,3.238 2.238,1 5,1 L175,1 C177.762,1 180,3.238 180,6 L180,26 C180,28.762 177.762,31 175,31" id="Fill-1" fill="#D6D6D6"></path>
                <path d="M20,20.4375 C20,21.8185 18.881,22.9375 17.5,22.9375 C16.119,22.9375 15,21.8185 15,20.4375 C15,19.0565 16.119,17.9375 17.5,17.9375 C18.881,17.9375 20,19.0565 20,20.4375" id="Fill-3" fill="#F16667"></path>
                <path d="M20,11.4375 C20,12.8185 18.881,13.9375 17.5,13.9375 C16.119,13.9375 15,12.8185 15,11.4375 C15,10.0565 16.119,8.9375 17.5,8.9375 C18.881,8.9375 20,10.0565 20,11.4375" id="Fill-5" fill="#8DCC93"></path>
                <path d="M149,23.4375 L146,23.4375 C145.447,23.4375 145,22.9905 145,22.4375 L145,9.4375 C145,8.8845 145.447,8.4375 146,8.4375 L149,8.4375 C149.553,8.4375 150,8.8845 150,9.4375 L150,22.4375 C150,22.9905 149.553,23.4375 149,23.4375" id="Fill-7" fill="#C2C2C2"></path>
                <path d="M158.9961,23.4375 L156.0041,23.4375 C155.4491,23.4375 155.0001,22.9885 155.0001,22.4335 L155.0001,9.4415 C155.0001,8.8865 155.4491,8.4375 156.0041,8.4375 L158.9961,8.4375 C159.5511,8.4375 160.0001,8.8865 160.0001,9.4415 L160.0001,22.4335 C160.0001,22.9885 159.5511,23.4375 158.9961,23.4375" id="Fill-9" fill="#C2C2C2"></path>
                <path d="M169.0049,23.4375 L165.9949,23.4375 C165.4449,23.4375 164.9999,22.9925 164.9999,22.4425 L164.9999,9.4325 C164.9999,8.8825 165.4449,8.4375 165.9949,8.4375 L169.0049,8.4375 C169.5549,8.4375 169.9999,8.8825 169.9999,9.4325 L169.9999,22.4425 C169.9999,22.9925 169.5549,23.4375 169.0049,23.4375" id="Fill-11" fill="#C2C2C2"></path>
                <path d="M108,11.4961 L108,20.5041 C108,21.3301 107.33,22.0001 106.504,22.0001 L73.496,22.0001 C72.67,22.0001 72,21.3301 72,20.5041 L72,11.4961 C72,10.6701 72.67,10.0001 73.496,10.0001 L106.504,10.0001 C107.33,10.0001 108,10.6701 108,11.4961" id="Fill-13" fill="#C2C2C2"></path>
                <mask id="mask-2" fill="white">
                    <use xlink:href="#path-1"></use>
                </mask>
                <g id="Clip-16"></g>
                <polygon id="Fill-15" fill="#C2C2C2" mask="url(#mask-2)" points="20 43.0625 160 43.0625 160 31.0625 20 31.0625"></polygon>
            </g>
            <g id="Page-1-Copy-8" opacity="0.400192482" transform="translate(37.000000, 76.000000)">
                <path d="M175,31 L5,31 C2.238,31 0,28.762 0,26 L0,6 C0,3.238 2.238,1 5,1 L175,1 C177.762,1 180,3.238 180,6 L180,26 C180,28.762 177.762,31 175,31" id="Fill-1" fill="#D6D6D6"></path>
                <path d="M20,20.4375 C20,21.8185 18.881,22.9375 17.5,22.9375 C16.119,22.9375 15,21.8185 15,20.4375 C15,19.0565 16.119,17.9375 17.5,17.9375 C18.881,17.9375 20,19.0565 20,20.4375" id="Fill-3" fill="#F16667"></path>
                <path d="M20,11.4375 C20,12.8185 18.881,13.9375 17.5,13.9375 C16.119,13.9375 15,12.8185 15,11.4375 C15,10.0565 16.119,8.9375 17.5,8.9375 C18.881,8.9375 20,10.0565 20,11.4375" id="Fill-5" fill="#8DCC93"></path>
                <path d="M149,23.4375 L146,23.4375 C145.447,23.4375 145,22.9905 145,22.4375 L145,9.4375 C145,8.8845 145.447,8.4375 146,8.4375 L149,8.4375 C149.553,8.4375 150,8.8845 150,9.4375 L150,22.4375 C150,22.9905 149.553,23.4375 149,23.4375" id="Fill-7" fill="#C2C2C2"></path>
                <path d="M158.9961,23.4375 L156.0041,23.4375 C155.4491,23.4375 155.0001,22.9885 155.0001,22.4335 L155.0001,9.4415 C155.0001,8.8865 155.4491,8.4375 156.0041,8.4375 L158.9961,8.4375 C159.5511,8.4375 160.0001,8.8865 160.0001,9.4415 L160.0001,22.4335 C160.0001,22.9885 159.5511,23.4375 158.9961,23.4375" id="Fill-9" fill="#C2C2C2"></path>
                <path d="M169.0049,23.4375 L165.9949,23.4375 C165.4449,23.4375 164.9999,22.9925 164.9999,22.4425 L164.9999,9.4325 C164.9999,8.8825 165.4449,8.4375 165.9949,8.4375 L169.0049,8.4375 C169.5549,8.4375 169.9999,8.8825 169.9999,9.4325 L169.9999,22.4425 C169.9999,22.9925 169.5549,23.4375 169.0049,23.4375" id="Fill-11" fill="#C2C2C2"></path>
                <path d="M108,11.4961 L108,20.5041 C108,21.3301 107.33,22.0001 106.504,22.0001 L73.496,22.0001 C72.67,22.0001 72,21.3301 72,20.5041 L72,11.4961 C72,10.6701 72.67,10.0001 73.496,10.0001 L106.504,10.0001 C107.33,10.0001 108,10.6701 108,11.4961" id="Fill-13" fill="#C2C2C2"></path>
                <mask id="mask-4" fill="white">
                    <use xlink:href="#path-3"></use>
                </mask>
                <g id="Clip-16"></g>
            </g>
            <g id="remove-circle-1" transform="translate(208.000000, 26.000000)">
                <g id="Group" stroke-linecap="round" stroke-linejoin="round">
                    <path d="M14.4586185,2.791371 C17.680446,6.0131985 17.680446,11.236821 14.4586185,14.458596 C11.236791,17.6804235 6.0131685,17.6804235 2.7913935,14.458596 C-0.430434,11.2367685 -0.430434,6.013146 2.7913935,2.791371 C6.013221,-0.4304565 11.2368435,-0.4304565 14.4586185,2.791371" id="Shape" fill="#F16667"></path>
                    <path d="M11.805,5.445 L5.445,11.805" id="Shape" stroke="#FFFFFF"></path>
                    <path d="M11.805,11.805 L5.445,5.445" id="Shape" stroke="#FFFFFF"></path>
                </g>
                <polygon id="Shape" points="0 0 18 0 18 18 0 18"></polygon>
            </g>
            <g id="remove-circle-1-copy-4" transform="translate(208.000000, 68.000000)">
                <g id="Group" stroke-linecap="round" stroke-linejoin="round">
                    <path d="M14.4586185,2.791371 C17.680446,6.0131985 17.680446,11.236821 14.4586185,14.458596 C11.236791,17.6804235 6.0131685,17.6804235 2.7913935,14.458596 C-0.430434,11.2367685 -0.430434,6.013146 2.7913935,2.791371 C6.013221,-0.4304565 11.2368435,-0.4304565 14.4586185,2.791371" id="Shape" fill="#F16667"></path>
                    <path d="M11.805,5.445 L5.445,11.805" id="Shape" stroke="#FFFFFF"></path>
                    <path d="M11.805,11.805 L5.445,5.445" id="Shape" stroke="#FFFFFF"></path>
                </g>
                <polygon id="Shape" points="0 0 18 0 18 18 0 18"></polygon>
            </g>
            <g id="Page-1-Copy-10" transform="translate(384.000000, 35.000000)">
                <path d="M175,31 L5,31 C2.238,31 0,28.762 0,26 L0,6 C0,3.238 2.238,1 5,1 L175,1 C177.762,1 180,3.238 180,6 L180,26 C180,28.762 177.762,31 175,31" id="Fill-1" fill="#D6D6D6"></path>
                <path d="M20,20.4375 C20,21.8185 18.881,22.9375 17.5,22.9375 C16.119,22.9375 15,21.8185 15,20.4375 C15,19.0565 16.119,17.9375 17.5,17.9375 C18.881,17.9375 20,19.0565 20,20.4375" id="Fill-3" fill="#F16667"></path>
                <path d="M20,11.4375 C20,12.8185 18.881,13.9375 17.5,13.9375 C16.119,13.9375 15,12.8185 15,11.4375 C15,10.0565 16.119,8.9375 17.5,8.9375 C18.881,8.9375 20,10.0565 20,11.4375" id="Fill-5" fill="#8DCC93"></path>
                <path d="M149,23.4375 L146,23.4375 C145.447,23.4375 145,22.9905 145,22.4375 L145,9.4375 C145,8.8845 145.447,8.4375 146,8.4375 L149,8.4375 C149.553,8.4375 150,8.8845 150,9.4375 L150,22.4375 C150,22.9905 149.553,23.4375 149,23.4375" id="Fill-7" fill="#C2C2C2"></path>
                <path d="M158.9961,23.4375 L156.0041,23.4375 C155.4491,23.4375 155.0001,22.9885 155.0001,22.4335 L155.0001,9.4415 C155.0001,8.8865 155.4491,8.4375 156.0041,8.4375 L158.9961,8.4375 C159.5511,8.4375 160.0001,8.8865 160.0001,9.4415 L160.0001,22.4335 C160.0001,22.9885 159.5511,23.4375 158.9961,23.4375" id="Fill-9" fill="#C2C2C2"></path>
                <path d="M169.0049,23.4375 L165.9949,23.4375 C165.4449,23.4375 164.9999,22.9925 164.9999,22.4425 L164.9999,9.4325 C164.9999,8.8825 165.4449,8.4375 165.9949,8.4375 L169.0049,8.4375 C169.5549,8.4375 169.9999,8.8825 169.9999,9.4325 L169.9999,22.4425 C169.9999,22.9925 169.5549,23.4375 169.0049,23.4375" id="Fill-11" fill="#C2C2C2"></path>
                <path d="M108,11.4961 L108,20.5041 C108,21.3301 107.33,22.0001 106.504,22.0001 L73.496,22.0001 C72.67,22.0001 72,21.3301 72,20.5041 L72,11.4961 C72,10.6701 72.67,10.0001 73.496,10.0001 L106.504,10.0001 C107.33,10.0001 108,10.6701 108,11.4961" id="Fill-13" fill="#C2C2C2"></path>
                <mask id="mask-6" fill="white">
                    <use xlink:href="#path-5"></use>
                </mask>
                <g id="Clip-16"></g>
                <polygon id="Fill-15" fill="#C2C2C2" mask="url(#mask-6)" points="20 43.0625 160 43.0625 160 31.0625 20 31.0625"></polygon>
            </g>
            <g id="Page-1-Copy-11" transform="translate(384.000000, 76.000000)">
                <path d="M175,31 L5,31 C2.238,31 0,28.762 0,26 L0,6 C0,3.238 2.238,1 5,1 L175,1 C177.762,1 180,3.238 180,6 L180,26 C180,28.762 177.762,31 175,31" id="Fill-1" fill="#D6D6D6"></path>
                <path d="M20,20.4375 C20,21.8185 18.881,22.9375 17.5,22.9375 C16.119,22.9375 15,21.8185 15,20.4375 C15,19.0565 16.119,17.9375 17.5,17.9375 C18.881,17.9375 20,19.0565 20,20.4375" id="Fill-3" fill="#F16667"></path>
                <path d="M20,11.4375 C20,12.8185 18.881,13.9375 17.5,13.9375 C16.119,13.9375 15,12.8185 15,11.4375 C15,10.0565 16.119,8.9375 17.5,8.9375 C18.881,8.9375 20,10.0565 20,11.4375" id="Fill-5" fill="#8DCC93"></path>
                <path d="M149,23.4375 L146,23.4375 C145.447,23.4375 145,22.9905 145,22.4375 L145,9.4375 C145,8.8845 145.447,8.4375 146,8.4375 L149,8.4375 C149.553,8.4375 150,8.8845 150,9.4375 L150,22.4375 C150,22.9905 149.553,23.4375 149,23.4375" id="Fill-7" fill="#C2C2C2"></path>
                <path d="M158.9961,23.4375 L156.0041,23.4375 C155.4491,23.4375 155.0001,22.9885 155.0001,22.4335 L155.0001,9.4415 C155.0001,8.8865 155.4491,8.4375 156.0041,8.4375 L158.9961,8.4375 C159.5511,8.4375 160.0001,8.8865 160.0001,9.4415 L160.0001,22.4335 C160.0001,22.9885 159.5511,23.4375 158.9961,23.4375" id="Fill-9" fill="#C2C2C2"></path>
                <path d="M169.0049,23.4375 L165.9949,23.4375 C165.4449,23.4375 164.9999,22.9925 164.9999,22.4425 L164.9999,9.4325 C164.9999,8.8825 165.4449,8.4375 165.9949,8.4375 L169.0049,8.4375 C169.5549,8.4375 169.9999,8.8825 169.9999,9.4325 L169.9999,22.4425 C169.9999,22.9925 169.5549,23.4375 169.0049,23.4375" id="Fill-11" fill="#C2C2C2"></path>
                <path d="M108,11.4961 L108,20.5041 C108,21.3301 107.33,22.0001 106.504,22.0001 L73.496,22.0001 C72.67,22.0001 72,21.3301 72,20.5041 L72,11.4961 C72,10.6701 72.67,10.0001 73.496,10.0001 L106.504,10.0001 C107.33,10.0001 108,10.6701 108,11.4961" id="Fill-13" fill="#C2C2C2"></path>
                <mask id="mask-8" fill="white">
                    <use xlink:href="#path-7"></use>
                </mask>
                <g id="Clip-16"></g>
            </g>
            <g id="check-circle-2-copy-11" transform="translate(555.000000, 29.000000)" stroke-linecap="round" stroke-linejoin="round">
                <g id="Group">
                    <path d="M15.0988072,2.90120475 C18.4670797,6.26947725 18.4670797,11.7305047 15.0988072,15.0988298 C11.7305347,18.4671022 6.26950725,18.4671022 2.90118225,15.0988298 C-0.46709025,11.7305572 -0.46709025,6.26952975 2.90118225,2.90120475 C6.26945475,-0.46706775 11.7304822,-0.46706775 15.0988072,2.90120475" id="Shape" fill="#8DCC93"></path>
                    <polyline id="Shape" stroke="#FFFFFF" points="12.75 6.375 7.125 11.625 5.25 9.75"></polyline>
                </g>
            </g>
            <g id="check-circle-2-copy-12" transform="translate(555.000000, 71.000000)" stroke-linecap="round" stroke-linejoin="round">
                <g id="Group">
                    <path d="M15.0988072,2.90120475 C18.4670797,6.26947725 18.4670797,11.7305047 15.0988072,15.0988298 C11.7305347,18.4671022 6.26950725,18.4671022 2.90118225,15.0988298 C-0.46709025,11.7305572 -0.46709025,6.26952975 2.90118225,2.90120475 C6.26945475,-0.46706775 11.7304822,-0.46706775 15.0988072,2.90120475" id="Shape" fill="#8DCC93"></path>
                    <polyline id="Shape" stroke="#FFFFFF" points="12.75 6.375 7.125 11.625 5.25 9.75"></polyline>
                </g>
            </g>
            <rect id="Rectangle-7" stroke="#D6D6D6" x="11.5" y="11.5" width="233" height="139"></rect>
            <rect id="Rectangle-7" stroke="#D6D6D6" x="361.5" y="11.5" width="233" height="139"></rect>
            <circle id="Oval-3" stroke="#979797" fill="#979797" cx="244.5" cy="66.5" r="3.5"></circle>
            <circle id="Oval-3" stroke="#979797" fill="#979797" cx="361.5" cy="66.5" r="3.5"></circle>
            <path d="M361.5,66.5 L244.5,66.5" id="Line-3" stroke="#979797" stroke-width="2" stroke-linecap="square"></path>
            <path d="M331.622152,38.8469308 L270.622152,95.8469308" id="Line-4" stroke="#F16667" stroke-width="4" stroke-linecap="square"></path>
            <text id="Data-center-1" font-family="OpenSans-Regular, Open Sans" font-size="12" font-weight="normal" fill="#000000">
                <tspan x="89.4472656" y="133">Data center 1</tspan>
            </text>
            <text id="Data-center-2" font-family="OpenSans-Regular, Open Sans" font-size="12" font-weight="normal" fill="#000000">
                <tspan x="440.447266" y="133">Data center 2</tspan>
            </text>
            <text id="No-possible-quorum" font-family="OpenSans-Regular, Open Sans" font-size="12" font-weight="normal" fill="#000000">
                <tspan x="267.69043" y="123">No possible </tspan>
                <tspan x="277.803711" y="140">quorum</tspan>
            </text>
            <rect id="Rectangle-8" stroke="#979797" x="5.5" y="5.5" width="595" height="151"></rect>
        </g>
    </g>
</svg>