<svg width="562" height="722" viewBox="0 0 562 722" fill="none" xmlns="http://www.w3.org/2000/svg">
<rect x="1" y="1" width="560" height="720" rx="19" stroke="#1A1B1D" stroke-width="2"/>
<rect x="25" y="98" width="221" height="605" rx="20" fill="#FFE9E7"/>
<path d="M77 340.5C77 308.191 103.191 282 135.5 282C167.809 282 194 308.191 194 340.5C194 372.809 167.809 399 135.5 399C103.191 399 77 372.809 77 340.5Z" fill="#014063"/>
<path d="M123.171 419.484V412.393H121.493V410.978H123.171V409.711C123.171 409.031 123.357 408.507 123.73 408.14C124.109 407.772 124.654 407.589 125.367 407.589H127.161L127.169 408.954H125.984C125.661 408.954 125.439 409.039 125.318 409.209C125.197 409.374 125.137 409.634 125.137 409.991V410.978H127.087V412.393H125.17V419.484H123.171ZM132.148 419.649C131.336 419.649 130.629 419.476 130.025 419.131C129.422 418.78 128.953 418.278 128.619 417.625C128.289 416.973 128.125 416.188 128.125 415.272C128.125 414.384 128.287 413.605 128.61 412.936C128.934 412.267 129.395 411.746 129.992 411.373C130.596 411 131.317 410.814 132.156 410.814C132.968 410.814 133.672 410.992 134.27 411.348C134.868 411.705 135.329 412.215 135.652 412.878C135.981 413.542 136.146 414.34 136.146 415.272C136.146 416.133 135.99 416.893 135.677 417.551C135.37 418.204 134.917 418.717 134.32 419.089C133.727 419.462 133.003 419.649 132.148 419.649ZM132.156 418.127C132.617 418.127 132.995 418.001 133.291 417.749C133.593 417.496 133.818 417.151 133.966 416.712C134.114 416.273 134.188 415.774 134.188 415.215C134.188 414.694 134.122 414.214 133.99 413.775C133.859 413.336 133.642 412.985 133.341 412.722C133.044 412.453 132.65 412.319 132.156 412.319C131.69 412.319 131.303 412.442 130.996 412.689C130.694 412.931 130.47 413.271 130.321 413.709C130.173 414.143 130.099 414.644 130.099 415.215C130.099 415.73 130.165 416.21 130.297 416.654C130.428 417.093 130.645 417.45 130.947 417.724C131.248 417.993 131.651 418.127 132.156 418.127ZM141.547 419.649C140.736 419.649 140.028 419.476 139.425 419.131C138.821 418.78 138.353 418.278 138.018 417.625C137.689 416.973 137.524 416.188 137.524 415.272C137.524 414.384 137.686 413.605 138.01 412.936C138.333 412.267 138.794 411.746 139.392 411.373C139.995 411 140.716 410.814 141.555 410.814C142.367 410.814 143.072 410.992 143.67 411.348C144.267 411.705 144.728 412.215 145.052 412.878C145.381 413.542 145.545 414.34 145.545 415.272C145.545 416.133 145.389 416.893 145.076 417.551C144.769 418.204 144.317 418.717 143.719 419.089C143.127 419.462 142.403 419.649 141.547 419.649ZM141.555 418.127C142.016 418.127 142.395 418.001 142.691 417.749C142.992 417.496 143.217 417.151 143.365 416.712C143.513 416.273 143.587 415.774 143.587 415.215C143.587 414.694 143.522 414.214 143.39 413.775C143.258 413.336 143.042 412.985 142.74 412.722C142.444 412.453 142.049 412.319 141.555 412.319C141.089 412.319 140.703 412.442 140.396 412.689C140.094 412.931 139.869 413.271 139.721 413.709C139.573 414.143 139.499 414.644 139.499 415.215C139.499 415.73 139.565 416.21 139.696 416.654C139.828 417.093 140.045 417.45 140.346 417.724C140.648 417.993 141.051 418.127 141.555 418.127ZM108.047 439.516C107.592 438.749 107.197 437.989 106.863 437.238C106.534 436.486 106.276 435.707 106.089 434.901C105.908 434.095 105.818 433.226 105.818 432.293C105.818 430.933 106.037 429.628 106.476 428.378C106.915 427.122 107.48 425.986 108.171 424.972H109.216C108.656 426.036 108.195 427.201 107.833 428.468C107.472 429.729 107.291 431.01 107.291 432.31C107.291 433.544 107.444 434.748 107.751 435.921C108.058 437.089 108.503 438.288 109.084 439.516H108.047ZM113.974 437.649C113.382 437.649 112.831 437.558 112.321 437.377C111.816 437.191 111.397 436.903 111.062 436.514C110.728 436.119 110.519 435.617 110.437 435.008H111.819C111.89 435.343 112.027 435.622 112.23 435.847C112.433 436.067 112.683 436.234 112.979 436.349C113.281 436.459 113.61 436.514 113.966 436.514C114.542 436.514 115.005 436.407 115.356 436.193C115.707 435.979 115.883 435.65 115.883 435.206C115.883 434.893 115.79 434.643 115.603 434.457C115.422 434.265 115.137 434.125 114.748 434.037L112.987 433.601C112.302 433.437 111.753 433.179 111.342 432.828C110.936 432.477 110.73 431.986 110.725 431.356C110.725 430.857 110.846 430.418 111.087 430.039C111.328 429.661 111.687 429.362 112.165 429.143C112.647 428.923 113.248 428.814 113.966 428.814C114.893 428.814 115.639 429.022 116.204 429.439C116.769 429.85 117.065 430.456 117.092 431.257H115.743C115.688 430.851 115.507 430.53 115.2 430.294C114.893 430.053 114.476 429.932 113.95 429.932C113.412 429.932 112.971 430.042 112.625 430.261C112.285 430.475 112.115 430.81 112.115 431.265C112.115 431.567 112.236 431.805 112.477 431.981C112.724 432.151 113.08 432.293 113.547 432.409L115.258 432.836C115.647 432.941 115.971 433.078 116.228 433.248C116.486 433.418 116.689 433.607 116.837 433.815C116.985 434.024 117.089 434.243 117.15 434.473C117.216 434.698 117.249 434.915 117.249 435.123C117.249 435.644 117.12 436.094 116.862 436.473C116.604 436.845 116.231 437.136 115.743 437.345C115.255 437.547 114.665 437.649 113.974 437.649ZM122.643 437.649C121.859 437.649 121.173 437.482 120.586 437.147C120.005 436.807 119.552 436.311 119.229 435.658C118.905 435.005 118.743 434.207 118.743 433.264C118.743 432.376 118.894 431.597 119.196 430.928C119.498 430.259 119.939 429.74 120.52 429.373C121.102 429 121.812 428.814 122.651 428.814C123.435 428.814 124.115 428.986 124.691 429.332C125.267 429.672 125.714 430.174 126.032 430.837C126.356 431.501 126.518 432.31 126.518 433.264C126.518 434.131 126.369 434.893 126.073 435.551C125.777 436.209 125.341 436.725 124.765 437.098C124.195 437.465 123.487 437.649 122.643 437.649ZM122.651 436.448C123.156 436.448 123.583 436.319 123.934 436.061C124.285 435.803 124.551 435.433 124.732 434.951C124.919 434.468 125.012 433.895 125.012 433.231C125.012 432.622 124.93 432.077 124.765 431.594C124.606 431.106 124.354 430.719 124.008 430.434C123.663 430.149 123.21 430.006 122.651 430.006C122.136 430.006 121.7 430.135 121.343 430.393C120.987 430.645 120.715 431.013 120.529 431.495C120.348 431.978 120.257 432.557 120.257 433.231C120.257 433.829 120.337 434.372 120.496 434.86C120.66 435.348 120.918 435.735 121.269 436.02C121.625 436.305 122.086 436.448 122.651 436.448ZM131.634 437.649C131.19 437.643 130.77 437.58 130.375 437.46C129.986 437.334 129.641 437.15 129.339 436.909C129.037 436.667 128.799 436.368 128.623 436.012C128.453 435.65 128.368 435.23 128.368 434.753V428.978H129.89V434.597C129.89 435.151 130.06 435.6 130.4 435.946C130.746 436.292 131.264 436.464 131.955 436.464C132.58 436.464 133.082 436.302 133.46 435.979C133.844 435.65 134.036 435.162 134.036 434.515V428.978H135.55V437.484H134.341L134.184 435.856C134.08 436.283 133.902 436.629 133.65 436.892C133.403 437.155 133.104 437.35 132.753 437.476C132.407 437.597 132.034 437.654 131.634 437.649ZM138.149 437.484V428.978H139.596V430.615C139.739 430.209 139.939 429.875 140.197 429.612C140.455 429.343 140.748 429.143 141.077 429.011C141.412 428.879 141.757 428.814 142.114 428.814C142.24 428.814 142.363 428.822 142.484 428.838C142.605 428.855 142.698 428.882 142.764 428.921V430.393C142.681 430.355 142.574 430.33 142.443 430.319C142.317 430.303 142.21 430.294 142.122 430.294C141.782 430.272 141.464 430.294 141.168 430.36C140.871 430.42 140.611 430.527 140.386 430.681C140.161 430.835 139.983 431.037 139.851 431.29C139.725 431.537 139.662 431.838 139.662 432.195V437.484H138.149ZM147.869 437.649C147.101 437.649 146.421 437.482 145.829 437.147C145.242 436.813 144.782 436.319 144.447 435.666C144.118 435.014 143.953 434.213 143.953 433.264C143.953 432.376 144.104 431.6 144.406 430.936C144.713 430.267 145.157 429.746 145.739 429.373C146.325 429 147.036 428.814 147.869 428.814C148.478 428.814 149.024 428.931 149.506 429.167C149.994 429.398 150.395 429.727 150.707 430.155C151.02 430.582 151.212 431.087 151.283 431.668H149.934C149.885 431.372 149.77 431.101 149.589 430.854C149.413 430.607 149.18 430.41 148.889 430.261C148.604 430.113 148.267 430.039 147.877 430.039C147.148 430.039 146.553 430.303 146.092 430.829C145.637 431.356 145.409 432.162 145.409 433.248C145.409 434.229 145.618 435.016 146.035 435.609C146.457 436.196 147.077 436.489 147.894 436.489C148.283 436.489 148.623 436.415 148.914 436.267C149.205 436.113 149.438 435.913 149.613 435.666C149.789 435.414 149.901 435.145 149.951 434.86H151.275C151.204 435.43 151.009 435.924 150.691 436.341C150.378 436.758 149.978 437.081 149.49 437.312C149.007 437.536 148.467 437.649 147.869 437.649ZM156.943 437.649C156.154 437.649 155.457 437.476 154.854 437.131C154.251 436.785 153.779 436.289 153.439 435.642C153.099 434.994 152.929 434.218 152.929 433.314C152.929 432.42 153.082 431.635 153.389 430.961C153.697 430.286 154.141 429.76 154.722 429.381C155.309 429.003 156.014 428.814 156.836 428.814C157.637 428.814 158.314 428.986 158.868 429.332C159.422 429.677 159.842 430.165 160.127 430.796C160.418 431.421 160.563 432.165 160.563 433.026V433.585H154.467C154.467 434.122 154.555 434.611 154.73 435.049C154.911 435.483 155.183 435.828 155.545 436.086C155.907 436.344 156.365 436.473 156.919 436.473C157.462 436.473 157.928 436.346 158.317 436.094C158.712 435.842 158.964 435.477 159.074 435H160.505C160.407 435.576 160.176 436.061 159.814 436.456C159.458 436.851 159.027 437.15 158.523 437.353C158.024 437.55 157.497 437.649 156.943 437.649ZM154.475 432.557H159.099C159.099 432.069 159.016 431.63 158.852 431.24C158.687 430.846 158.435 430.536 158.095 430.311C157.761 430.08 157.338 429.965 156.828 429.965C156.296 429.965 155.855 430.094 155.504 430.352C155.153 430.604 154.892 430.931 154.722 431.331C154.552 431.726 154.47 432.134 154.475 432.557ZM161.701 439.516C162.282 438.288 162.726 437.089 163.033 435.921C163.34 434.748 163.494 433.544 163.494 432.31C163.494 431.01 163.313 429.729 162.951 428.468C162.589 427.201 162.128 426.036 161.569 424.972H162.614C163.305 425.986 163.867 427.122 164.3 428.378C164.739 429.628 164.958 430.933 164.958 432.293C164.958 433.226 164.868 434.095 164.687 434.901C164.506 435.707 164.248 436.486 163.914 437.238C163.579 437.989 163.187 438.749 162.737 439.516H161.701Z" fill="#1A1B1D"/>
<path d="M45.2223 44.3C43.2323 44.3 41.5223 43.845 40.0923 42.935C38.6723 42.015 37.5773 40.715 36.8073 39.035C36.0473 37.345 35.6673 35.34 35.6673 33.02C35.6673 30.71 36.0473 28.735 36.8073 27.095C37.5673 25.455 38.6573 24.2 40.0773 23.33C41.5073 22.45 43.2223 22.01 45.2223 22.01C46.8123 22.01 48.2223 22.335 49.4523 22.985C50.6823 23.625 51.6723 24.495 52.4223 25.595C53.1823 26.695 53.6323 27.92 53.7723 29.27H49.9173C49.7673 28.47 49.4873 27.755 49.0773 27.125C48.6773 26.495 48.1473 25.995 47.4873 25.625C46.8273 25.255 46.0373 25.07 45.1173 25.07C43.9673 25.07 42.9873 25.345 42.1773 25.895C41.3773 26.435 40.7623 27.295 40.3323 28.475C39.9123 29.655 39.7023 31.185 39.7023 33.065C39.7023 35.915 40.1723 37.99 41.1123 39.29C42.0523 40.59 43.3873 41.24 45.1173 41.24C46.0373 41.24 46.8273 41.04 47.4873 40.64C48.1473 40.23 48.6773 39.69 49.0773 39.02C49.4873 38.34 49.7673 37.6 49.9173 36.8H53.7723C53.6523 37.78 53.4023 38.72 53.0223 39.62C52.6523 40.52 52.1273 41.325 51.4473 42.035C50.7673 42.735 49.9123 43.29 48.8823 43.7C47.8623 44.1 46.6423 44.3 45.2223 44.3ZM61.8153 44.225C60.8153 44.225 60.0153 44.1 59.4153 43.85C58.8153 43.6 58.3653 43.265 58.0653 42.845C57.7653 42.425 57.5703 41.955 57.4803 41.435C57.3903 40.905 57.3453 40.365 57.3453 39.815V21.71H60.9153V39.395C60.9153 40.065 61.0503 40.585 61.3203 40.955C61.6003 41.325 62.0503 41.54 62.6703 41.6L63.4503 41.63V43.925C63.1803 44.005 62.9053 44.075 62.6253 44.135C62.3453 44.195 62.0753 44.225 61.8153 44.225ZM72.5565 44.3C71.0765 44.3 69.7865 43.985 68.6865 43.355C67.5865 42.715 66.7315 41.8 66.1215 40.61C65.5215 39.42 65.2215 37.99 65.2215 36.32C65.2215 34.7 65.5165 33.28 66.1065 32.06C66.6965 30.84 67.5365 29.89 68.6265 29.21C69.7265 28.53 71.0415 28.19 72.5715 28.19C74.0515 28.19 75.3365 28.515 76.4265 29.165C77.5165 29.815 78.3565 30.745 78.9465 31.955C79.5465 33.165 79.8465 34.62 79.8465 36.32C79.8465 37.89 79.5615 39.275 78.9915 40.475C78.4315 41.665 77.6065 42.6 76.5165 43.28C75.4365 43.96 74.1165 44.3 72.5565 44.3ZM72.5715 41.525C73.4115 41.525 74.1015 41.295 74.6415 40.835C75.1915 40.375 75.6015 39.745 75.8715 38.945C76.1415 38.145 76.2765 37.235 76.2765 36.215C76.2765 35.265 76.1565 34.39 75.9165 33.59C75.6765 32.79 75.2815 32.15 74.7315 31.67C74.1915 31.18 73.4715 30.935 72.5715 30.935C71.7215 30.935 71.0165 31.16 70.4565 31.61C69.9065 32.05 69.4965 32.67 69.2265 33.47C68.9565 34.26 68.8215 35.175 68.8215 36.215C68.8215 37.155 68.9415 38.03 69.1815 38.84C69.4215 39.64 69.8165 40.29 70.3665 40.79C70.9165 41.28 71.6515 41.525 72.5715 41.525ZM88.7973 44.3C88.0373 44.3 87.3023 44.19 86.5923 43.97C85.8923 43.74 85.2623 43.41 84.7023 42.98C84.1423 42.54 83.6973 42 83.3673 41.36C83.0373 40.72 82.8723 39.975 82.8723 39.125V28.49H86.5323V38.705C86.5323 39.545 86.7973 40.235 87.3273 40.775C87.8673 41.315 88.6773 41.585 89.7573 41.585C90.7373 41.585 91.5223 41.33 92.1123 40.82C92.7023 40.3 92.9973 39.555 92.9973 38.585V28.49H96.6273V44H93.8223L93.4173 40.97C93.2273 41.82 92.8923 42.49 92.4123 42.98C91.9423 43.46 91.3873 43.8 90.7473 44C90.1173 44.2 89.4673 44.3 88.7973 44.3ZM106.523 44.3C104.473 44.3 102.863 43.595 101.693 42.185C100.523 40.775 99.9383 38.77 99.9383 36.17C99.9383 34.55 100.173 33.145 100.643 31.955C101.123 30.755 101.828 29.83 102.758 29.18C103.688 28.52 104.833 28.19 106.193 28.19C106.833 28.19 107.413 28.27 107.933 28.43C108.463 28.58 108.933 28.78 109.343 29.03C109.753 29.28 110.098 29.555 110.378 29.855C110.668 30.155 110.893 30.455 111.053 30.755V21.71H114.728V44H112.028L111.623 40.82C111.493 41.19 111.308 41.58 111.068 41.99C110.838 42.39 110.523 42.765 110.123 43.115C109.733 43.465 109.243 43.75 108.653 43.97C108.063 44.19 107.353 44.3 106.523 44.3ZM107.273 41.615C108.583 41.615 109.538 41.19 110.138 40.34C110.748 39.48 111.053 38.06 111.053 36.08C111.043 34.95 110.903 34 110.633 33.23C110.373 32.46 109.973 31.88 109.433 31.49C108.893 31.1 108.188 30.905 107.318 30.905C106.218 30.905 105.313 31.31 104.603 32.12C103.903 32.93 103.553 34.25 103.553 36.08C103.553 37.9 103.878 39.28 104.528 40.22C105.178 41.15 106.093 41.615 107.273 41.615ZM125.841 44V28.49H129.336V31.85C129.586 31.08 129.941 30.425 130.401 29.885C130.871 29.335 131.421 28.915 132.051 28.625C132.681 28.335 133.366 28.19 134.106 28.19C134.286 28.19 134.461 28.2 134.631 28.22C134.801 28.24 134.926 28.275 135.006 28.325V31.82C134.896 31.77 134.751 31.735 134.571 31.715C134.401 31.695 134.251 31.685 134.121 31.685C133.371 31.625 132.706 31.655 132.126 31.775C131.556 31.895 131.071 32.1 130.671 32.39C130.281 32.67 129.986 33.03 129.786 33.47C129.586 33.9 129.486 34.405 129.486 34.985V44H125.841ZM144.65 44.3C143.16 44.3 141.845 43.985 140.705 43.355C139.575 42.715 138.69 41.805 138.05 40.625C137.42 39.445 137.105 38.04 137.105 36.41C137.105 34.82 137.39 33.41 137.96 32.18C138.54 30.94 139.375 29.965 140.465 29.255C141.565 28.545 142.89 28.19 144.44 28.19C145.97 28.19 147.255 28.515 148.295 29.165C149.335 29.815 150.125 30.725 150.665 31.895C151.205 33.055 151.475 34.415 151.475 35.975V37.085H140.75C140.74 37.965 140.88 38.745 141.17 39.425C141.46 40.105 141.89 40.64 142.46 41.03C143.03 41.41 143.735 41.6 144.575 41.6C145.435 41.6 146.18 41.41 146.81 41.03C147.45 40.64 147.875 40.05 148.085 39.26H151.415C151.235 40.34 150.805 41.255 150.125 42.005C149.455 42.755 148.635 43.325 147.665 43.715C146.705 44.105 145.7 44.3 144.65 44.3ZM140.735 34.82H148.025C148.025 34.07 147.89 33.395 147.62 32.795C147.36 32.185 146.965 31.705 146.435 31.355C145.905 30.995 145.235 30.815 144.425 30.815C143.625 30.815 142.95 31.01 142.4 31.4C141.85 31.79 141.435 32.295 141.155 32.915C140.875 33.525 140.735 34.16 140.735 34.82ZM161.716 49.13C159.106 49.13 157.101 48.78 155.701 48.08C154.301 47.38 153.601 46.42 153.601 45.2C153.601 44.65 153.736 44.19 154.006 43.82C154.276 43.45 154.596 43.145 154.966 42.905C155.336 42.665 155.676 42.48 155.986 42.35C156.296 42.22 156.496 42.125 156.586 42.065C156.416 41.965 156.191 41.835 155.911 41.675C155.631 41.515 155.376 41.295 155.146 41.015C154.926 40.735 154.816 40.37 154.816 39.92C154.816 39.4 155.061 38.92 155.551 38.48C156.051 38.04 156.796 37.725 157.786 37.535C156.816 37.065 156.071 36.43 155.551 35.63C155.031 34.83 154.771 34 154.771 33.14C154.771 32.12 155.066 31.245 155.656 30.515C156.256 29.785 157.086 29.225 158.146 28.835C159.206 28.445 160.441 28.25 161.851 28.25C162.881 28.25 163.736 28.365 164.416 28.595C165.106 28.825 165.746 29.135 166.336 29.525C166.536 29.445 166.816 29.335 167.176 29.195C167.536 29.045 167.931 28.885 168.361 28.715C168.791 28.535 169.206 28.365 169.606 28.205C170.006 28.035 170.341 27.895 170.611 27.785L170.596 30.8L167.911 31.28C168.041 31.57 168.141 31.885 168.211 32.225C168.291 32.565 168.331 32.865 168.331 33.125C168.331 34.025 168.076 34.86 167.566 35.63C167.066 36.39 166.311 37 165.301 37.46C164.301 37.92 163.051 38.15 161.551 38.15C161.401 38.15 161.196 38.145 160.936 38.135C160.676 38.125 160.466 38.115 160.306 38.105C159.496 38.135 158.941 38.23 158.641 38.39C158.341 38.55 158.191 38.725 158.191 38.915C158.191 39.185 158.416 39.365 158.866 39.455C159.316 39.545 160.036 39.625 161.026 39.695C161.376 39.715 161.836 39.74 162.406 39.77C162.976 39.8 163.611 39.84 164.311 39.89C166.081 40 167.421 40.445 168.331 41.225C169.241 41.995 169.696 42.995 169.696 44.225C169.696 45.655 169.036 46.83 167.716 47.75C166.396 48.67 164.396 49.13 161.716 49.13ZM162.331 46.985C163.641 46.985 164.611 46.805 165.241 46.445C165.871 46.085 166.186 45.555 166.186 44.855C166.186 44.315 165.971 43.875 165.541 43.535C165.111 43.195 164.471 42.995 163.621 42.935L159.706 42.695C159.276 42.665 158.866 42.745 158.476 42.935C158.096 43.115 157.786 43.37 157.546 43.7C157.306 44.02 157.186 44.375 157.186 44.765C157.186 45.495 157.601 46.045 158.431 46.415C159.271 46.795 160.571 46.985 162.331 46.985ZM161.671 36.005C162.621 36.005 163.391 35.765 163.981 35.285C164.571 34.795 164.866 34.105 164.866 33.215C164.866 32.295 164.571 31.58 163.981 31.07C163.391 30.55 162.621 30.29 161.671 30.29C160.701 30.29 159.916 30.55 159.316 31.07C158.726 31.59 158.431 32.305 158.431 33.215C158.431 34.075 158.716 34.755 159.286 35.255C159.856 35.755 160.651 36.005 161.671 36.005ZM173.655 44V28.49H177.15V44H173.655ZM173.595 25.775V22.325H177.21V25.775H173.595ZM187.84 44.3C186.36 44.3 185.07 43.985 183.97 43.355C182.87 42.715 182.015 41.8 181.405 40.61C180.805 39.42 180.505 37.99 180.505 36.32C180.505 34.7 180.8 33.28 181.39 32.06C181.98 30.84 182.82 29.89 183.91 29.21C185.01 28.53 186.325 28.19 187.855 28.19C189.335 28.19 190.62 28.515 191.71 29.165C192.8 29.815 193.64 30.745 194.23 31.955C194.83 33.165 195.13 34.62 195.13 36.32C195.13 37.89 194.845 39.275 194.275 40.475C193.715 41.665 192.89 42.6 191.8 43.28C190.72 43.96 189.4 44.3 187.84 44.3ZM187.855 41.525C188.695 41.525 189.385 41.295 189.925 40.835C190.475 40.375 190.885 39.745 191.155 38.945C191.425 38.145 191.56 37.235 191.56 36.215C191.56 35.265 191.44 34.39 191.2 33.59C190.96 32.79 190.565 32.15 190.015 31.67C189.475 31.18 188.755 30.935 187.855 30.935C187.005 30.935 186.3 31.16 185.74 31.61C185.19 32.05 184.78 32.67 184.51 33.47C184.24 34.26 184.105 35.175 184.105 36.215C184.105 37.155 184.225 38.03 184.465 38.84C184.705 39.64 185.1 40.29 185.65 40.79C186.2 41.28 186.935 41.525 187.855 41.525ZM198.468 44V28.49H202.038V30.71C202.278 30.31 202.603 29.925 203.013 29.555C203.433 29.185 203.948 28.885 204.558 28.655C205.168 28.425 205.883 28.31 206.703 28.31C207.663 28.31 208.553 28.5 209.373 28.88C210.203 29.26 210.868 29.855 211.368 30.665C211.878 31.475 212.133 32.52 212.133 33.8V44H208.473V34.235C208.473 33.215 208.193 32.46 207.633 31.97C207.073 31.47 206.368 31.22 205.518 31.22C204.938 31.22 204.388 31.32 203.868 31.52C203.348 31.71 202.923 32.005 202.593 32.405C202.273 32.795 202.113 33.285 202.113 33.875V44H198.468ZM226.333 44V27.29H222.313V25.115C223.583 25.115 224.588 25.01 225.328 24.8C226.078 24.58 226.623 24.26 226.963 23.84C227.313 23.42 227.513 22.91 227.563 22.31H230.053V44H226.333ZM65.7906 87.705C64.9606 86.305 64.2406 84.92 63.6306 83.55C63.0306 82.18 62.5606 80.76 62.2206 79.29C61.8906 77.82 61.7256 76.235 61.7256 74.535C61.7256 72.055 62.1256 69.675 62.9256 67.395C63.7256 65.105 64.7556 63.035 66.0156 61.185H67.9206C66.9006 63.125 66.0606 65.25 65.4006 67.56C64.7406 69.86 64.4106 72.195 64.4106 74.565C64.4106 76.815 64.6906 79.01 65.2506 81.15C65.8106 83.28 66.6206 85.465 67.6806 87.705H65.7906ZM79.5676 84.3C77.6176 84.3 75.9526 83.855 74.5726 82.965C73.2026 82.075 72.1526 80.795 71.4226 79.125C70.7026 77.455 70.3426 75.44 70.3426 73.08C70.3426 70.73 70.7026 68.73 71.4226 67.08C72.1426 65.43 73.1876 64.175 74.5576 63.315C75.9376 62.445 77.6076 62.01 79.5676 62.01C81.0976 62.01 82.4526 62.33 83.6326 62.97C84.8126 63.6 85.7626 64.445 86.4826 65.505C87.2026 66.565 87.6276 67.73 87.7576 69H84.8026C84.6426 68.15 84.3376 67.38 83.8876 66.69C83.4376 66 82.8476 65.45 82.1176 65.04C81.3876 64.63 80.5126 64.425 79.4926 64.425C78.1826 64.425 77.0726 64.735 76.1626 65.355C75.2626 65.965 74.5776 66.91 74.1076 68.19C73.6476 69.47 73.4176 71.11 73.4176 73.11C73.4176 76.13 73.9326 78.35 74.9626 79.77C76.0026 81.18 77.5126 81.885 79.4926 81.885C80.5126 81.885 81.3876 81.67 82.1176 81.24C82.8476 80.81 83.4376 80.235 83.8876 79.515C84.3376 78.795 84.6426 78.015 84.8026 77.175H87.7576C87.6476 78.095 87.3976 78.985 87.0076 79.845C86.6276 80.695 86.1026 81.455 85.4326 82.125C84.7626 82.795 83.9376 83.325 82.9576 83.715C81.9876 84.105 80.8576 84.3 79.5676 84.3ZM95.5869 84.195C94.7469 84.195 94.0669 84.08 93.5469 83.85C93.0369 83.62 92.6419 83.31 92.3619 82.92C92.0919 82.53 91.9069 82.085 91.8069 81.585C91.7169 81.075 91.6719 80.55 91.6719 80.01V61.71H94.4019V79.74C94.4019 80.52 94.5519 81.105 94.8519 81.495C95.1619 81.885 95.5919 82.1 96.1419 82.14L96.9819 82.155V83.955C96.7519 84.025 96.5119 84.08 96.2619 84.12C96.0119 84.17 95.7869 84.195 95.5869 84.195ZM105.956 84.3C105.146 84.29 104.381 84.175 103.661 83.955C102.951 83.725 102.321 83.39 101.771 82.95C101.221 82.51 100.786 81.965 100.466 81.315C100.156 80.655 100.001 79.89 100.001 79.02V68.49H102.776V78.735C102.776 79.745 103.086 80.565 103.706 81.195C104.336 81.825 105.281 82.14 106.541 82.14C107.681 82.14 108.596 81.845 109.286 81.255C109.986 80.655 110.336 79.765 110.336 78.585V68.49H113.096V84H110.891L110.606 81.03C110.416 81.81 110.091 82.44 109.631 82.92C109.181 83.4 108.636 83.755 107.996 83.985C107.366 84.205 106.686 84.31 105.956 84.3ZM123.238 84.3C122.158 84.3 121.153 84.135 120.223 83.805C119.303 83.465 118.538 82.94 117.928 82.23C117.318 81.51 116.938 80.595 116.788 79.485H119.308C119.438 80.095 119.688 80.605 120.058 81.015C120.428 81.415 120.883 81.72 121.423 81.93C121.973 82.13 122.573 82.23 123.223 82.23C124.273 82.23 125.118 82.035 125.758 81.645C126.398 81.255 126.718 80.655 126.718 79.845C126.718 79.275 126.548 78.82 126.208 78.48C125.878 78.13 125.358 77.875 124.648 77.715L121.438 76.92C120.188 76.62 119.188 76.15 118.438 75.51C117.698 74.87 117.323 73.975 117.313 72.825C117.313 71.915 117.533 71.115 117.973 70.425C118.413 69.735 119.068 69.19 119.938 68.79C120.818 68.39 121.913 68.19 123.223 68.19C124.913 68.19 126.273 68.57 127.303 69.33C128.333 70.08 128.873 71.185 128.923 72.645H126.463C126.363 71.905 126.033 71.32 125.473 70.89C124.913 70.45 124.153 70.23 123.193 70.23C122.213 70.23 121.408 70.43 120.778 70.83C120.158 71.22 119.848 71.83 119.848 72.66C119.848 73.21 120.068 73.645 120.508 73.965C120.958 74.275 121.608 74.535 122.458 74.745L125.578 75.525C126.288 75.715 126.878 75.965 127.348 76.275C127.818 76.585 128.188 76.93 128.458 77.31C128.728 77.69 128.918 78.09 129.028 78.51C129.148 78.92 129.208 79.315 129.208 79.695C129.208 80.645 128.973 81.465 128.503 82.155C128.033 82.835 127.353 83.365 126.463 83.745C125.573 84.115 124.498 84.3 123.238 84.3ZM138.197 84.075C137.127 84.075 136.297 83.93 135.707 83.64C135.117 83.35 134.702 82.92 134.462 82.35C134.232 81.78 134.117 81.08 134.117 80.25V70.515H131.597V68.49H134.192L134.867 63.975H136.907V68.475H140.402V70.515H136.907V80.16C136.907 80.71 136.962 81.115 137.072 81.375C137.192 81.625 137.387 81.785 137.657 81.855C137.927 81.925 138.307 81.96 138.797 81.96H140.492V83.82C140.302 83.89 140.012 83.95 139.622 84C139.242 84.05 138.767 84.075 138.197 84.075ZM150.317 84.3C148.877 84.3 147.607 83.985 146.507 83.355C145.407 82.725 144.547 81.82 143.927 80.64C143.307 79.46 142.997 78.045 142.997 76.395C142.997 74.765 143.277 73.335 143.837 72.105C144.397 70.875 145.207 69.915 146.267 69.225C147.337 68.535 148.622 68.19 150.122 68.19C151.582 68.19 152.817 68.505 153.827 69.135C154.837 69.765 155.602 70.655 156.122 71.805C156.652 72.945 156.917 74.3 156.917 75.87V76.89H145.802C145.802 77.87 145.962 78.76 146.282 79.56C146.612 80.35 147.107 80.98 147.767 81.45C148.427 81.92 149.262 82.155 150.272 82.155C151.262 82.155 152.112 81.925 152.822 81.465C153.542 81.005 154.002 80.34 154.202 79.47H156.812C156.632 80.52 156.212 81.405 155.552 82.125C154.902 82.845 154.117 83.39 153.197 83.76C152.287 84.12 151.327 84.3 150.317 84.3ZM145.817 75.015H154.247C154.247 74.125 154.097 73.325 153.797 72.615C153.497 71.895 153.037 71.33 152.417 70.92C151.807 70.5 151.037 70.29 150.107 70.29C149.137 70.29 148.332 70.525 147.692 70.995C147.052 71.455 146.577 72.05 146.267 72.78C145.957 73.5 145.807 74.245 145.817 75.015ZM160.754 84V68.49H163.394V71.475C163.654 70.735 164.019 70.125 164.489 69.645C164.959 69.155 165.494 68.79 166.094 68.55C166.704 68.31 167.334 68.19 167.984 68.19C168.214 68.19 168.439 68.205 168.659 68.235C168.879 68.265 169.049 68.315 169.169 68.385V71.07C169.019 71 168.824 70.955 168.584 70.935C168.354 70.905 168.159 70.89 167.999 70.89C167.379 70.85 166.799 70.89 166.259 71.01C165.719 71.12 165.244 71.315 164.834 71.595C164.424 71.875 164.099 72.245 163.859 72.705C163.629 73.155 163.514 73.705 163.514 74.355V84H160.754ZM178.718 84L186.563 62.31H189.698L197.543 84H194.708L192.578 78.06H183.683L181.538 84H178.718ZM184.418 75.51H191.813L188.123 65.025L184.418 75.51ZM199.626 87.705C200.686 85.465 201.496 83.28 202.056 81.15C202.616 79.01 202.896 76.815 202.896 74.565C202.896 72.195 202.566 69.86 201.906 67.56C201.246 65.25 200.406 63.125 199.386 61.185H201.291C202.551 63.035 203.576 65.105 204.366 67.395C205.166 69.675 205.566 72.055 205.566 74.535C205.566 76.235 205.401 77.82 205.071 79.29C204.741 80.76 204.271 82.18 203.661 83.55C203.051 84.92 202.336 86.305 201.516 87.705H199.626Z" fill="#1A1B1D"/>
<path d="M135.894 314C125.338 314 113.848 316.578 113.848 322.184C113.848 327.79 125.338 330.369 135.894 330.369C146.449 330.369 157.794 327.79 157.794 322.184C157.794 316.578 146.449 314 135.894 314Z" fill="white"/>
<path fill-rule="evenodd" clip-rule="evenodd" d="M135.894 334.87C127.615 334.87 118.841 333.421 113.848 329.943V359.15C113.848 364.756 125.338 367.334 135.894 367.334C146.449 367.334 157.793 364.756 157.793 359.15V330.232C152.8 333.711 144.172 334.87 135.894 334.87ZM136.729 341.827C132.599 341.827 129.827 344.233 129.827 348.88V352.182C130.223 351.986 130.675 351.874 131.156 351.874C131.637 351.874 132.09 351.986 132.514 352.182V348.851C132.514 345.829 134.183 344.29 136.729 344.29C139.275 344.29 140.944 345.829 140.944 348.851V356.1H143.631V348.851C143.66 344.178 140.859 341.827 136.729 341.827ZM122.896 350.615C123.123 350.251 123.434 349.971 123.773 349.803C124.396 349.495 125.16 349.495 125.81 349.775C126.404 350.139 126.688 350.755 126.857 351.37C127.084 352.154 127.366 352.742 128.074 353.162C128.781 353.582 129.46 353.498 130.252 353.302C130.902 353.163 131.581 353.078 132.176 353.414C132.826 353.778 133.222 354.421 133.25 355.121V355.401C133.194 356.072 132.826 356.744 132.176 357.108C131.554 357.471 130.875 357.388 130.252 357.22C129.46 357.024 128.781 356.939 128.074 357.359C127.338 357.751 127.083 358.367 126.857 359.151C126.688 359.767 126.404 360.411 125.81 360.746C125.16 361.11 124.396 361.11 123.773 360.802C123.406 360.634 123.122 360.354 122.896 359.99C122.67 359.626 122.585 359.235 122.613 358.843C122.67 358.171 123.038 357.5 123.688 357.136C124.31 356.772 124.989 356.856 125.611 357.024C126.403 357.22 127.082 357.304 127.79 356.884H127.818C129.035 356.185 129.035 354.421 127.818 353.721H127.79C127.083 353.301 126.404 353.385 125.611 353.581C124.961 353.721 124.282 353.805 123.688 353.469C123.038 353.106 122.642 352.462 122.613 351.762C122.585 351.37 122.67 350.979 122.896 350.615Z" fill="white"/>
<rect x="317" y="98" width="219" height="605" rx="20" fill="#F5F6F6"/>
<path d="M368 340.5C368 308.191 394.191 282 426.5 282C458.809 282 485 308.191 485 340.5C485 372.809 458.809 399 426.5 399C394.191 399 368 372.809 368 340.5Z" fill="#014063"/>
<path d="M384.197 419.484V412.393H382.519V410.978H384.197V409.711C384.197 409.031 384.383 408.507 384.756 408.14C385.135 407.772 385.68 407.589 386.393 407.589H388.187L388.195 408.954H387.01C386.687 408.954 386.465 409.039 386.344 409.209C386.223 409.374 386.163 409.634 386.163 409.991V410.978H388.113V412.393H386.196V419.484H384.197ZM393.174 419.649C392.362 419.649 391.655 419.476 391.051 419.131C390.448 418.78 389.979 418.278 389.645 417.625C389.316 416.973 389.151 416.188 389.151 415.272C389.151 414.384 389.313 413.605 389.636 412.936C389.96 412.267 390.421 411.746 391.018 411.373C391.622 411 392.343 410.814 393.182 410.814C393.994 410.814 394.698 410.992 395.296 411.348C395.894 411.705 396.355 412.215 396.678 412.878C397.007 413.542 397.172 414.34 397.172 415.272C397.172 416.133 397.016 416.893 396.703 417.551C396.396 418.204 395.943 418.717 395.346 419.089C394.753 419.462 394.029 419.649 393.174 419.649ZM393.182 418.127C393.643 418.127 394.021 418.001 394.317 417.749C394.619 417.496 394.844 417.151 394.992 416.712C395.14 416.273 395.214 415.774 395.214 415.215C395.214 414.694 395.148 414.214 395.017 413.775C394.885 413.336 394.668 412.985 394.367 412.722C394.071 412.453 393.676 412.319 393.182 412.319C392.716 412.319 392.329 412.442 392.022 412.689C391.72 412.931 391.496 413.271 391.348 413.709C391.199 414.143 391.125 414.644 391.125 415.215C391.125 415.73 391.191 416.21 391.323 416.654C391.454 417.093 391.671 417.45 391.973 417.724C392.274 417.993 392.677 418.127 393.182 418.127ZM402.573 419.649C401.762 419.649 401.054 419.476 400.451 419.131C399.848 418.78 399.379 418.278 399.044 417.625C398.715 416.973 398.551 416.188 398.551 415.272C398.551 414.384 398.712 413.605 399.036 412.936C399.359 412.267 399.82 411.746 400.418 411.373C401.021 411 401.742 410.814 402.582 410.814C403.393 410.814 404.098 410.992 404.696 411.348C405.294 411.705 405.754 412.215 406.078 412.878C406.407 413.542 406.571 414.34 406.571 415.272C406.571 416.133 406.415 416.893 406.102 417.551C405.795 418.204 405.343 418.717 404.745 419.089C404.153 419.462 403.429 419.649 402.573 419.649ZM402.582 418.127C403.042 418.127 403.421 418.001 403.717 417.749C404.018 417.496 404.243 417.151 404.391 416.712C404.539 416.273 404.613 415.774 404.613 415.215C404.613 414.694 404.548 414.214 404.416 413.775C404.284 413.336 404.068 412.985 403.766 412.722C403.47 412.453 403.075 412.319 402.582 412.319C402.115 412.319 401.729 412.442 401.422 412.689C401.12 412.931 400.895 413.271 400.747 413.709C400.599 414.143 400.525 414.644 400.525 415.215C400.525 415.73 400.591 416.21 400.722 416.654C400.854 417.093 401.071 417.45 401.372 417.724C401.674 417.993 402.077 418.127 402.582 418.127ZM408.432 415.996V414.499L412.775 414.491V415.988L408.432 415.996ZM414.91 419.484V410.978H416.827V412.821C416.964 412.399 417.158 412.039 417.411 411.743C417.668 411.442 417.97 411.211 418.316 411.052C418.661 410.893 419.037 410.814 419.443 410.814C419.541 410.814 419.637 410.819 419.731 410.83C419.824 410.841 419.892 410.86 419.936 410.888V412.804C419.876 412.777 419.796 412.758 419.698 412.747C419.604 412.736 419.522 412.73 419.451 412.73C419.04 412.697 418.675 412.714 418.357 412.78C418.044 412.846 417.778 412.958 417.559 413.117C417.345 413.271 417.183 413.468 417.073 413.709C416.964 413.945 416.909 414.222 416.909 414.54V419.484H414.91ZM425.225 419.649C424.408 419.649 423.687 419.476 423.061 419.131C422.442 418.78 421.956 418.281 421.605 417.633C421.26 416.986 421.087 416.216 421.087 415.322C421.087 414.45 421.243 413.676 421.556 413.002C421.874 412.322 422.332 411.787 422.93 411.398C423.533 411.008 424.26 410.814 425.11 410.814C425.949 410.814 426.654 410.992 427.224 411.348C427.794 411.705 428.228 412.204 428.524 412.846C428.82 413.482 428.968 414.228 428.968 415.083V415.692H423.086C423.08 416.175 423.157 416.602 423.316 416.975C423.475 417.348 423.711 417.642 424.024 417.856C424.336 418.064 424.723 418.168 425.184 418.168C425.655 418.168 426.064 418.064 426.41 417.856C426.761 417.642 426.994 417.318 427.109 416.885H428.935C428.836 417.477 428.601 417.979 428.228 418.39C427.86 418.802 427.41 419.114 426.878 419.328C426.352 419.542 425.801 419.649 425.225 419.649ZM423.078 414.45H427.076C427.076 414.038 427.002 413.668 426.854 413.339C426.711 413.005 426.495 412.741 426.204 412.549C425.913 412.352 425.546 412.253 425.101 412.253C424.663 412.253 424.293 412.36 423.991 412.574C423.689 412.788 423.462 413.065 423.308 413.405C423.155 413.739 423.078 414.088 423.078 414.45ZM430.881 422.133V410.978H432.88L432.896 412.319C433.006 412.133 433.146 411.949 433.316 411.768C433.491 411.587 433.692 411.425 433.917 411.282C434.147 411.14 434.402 411.027 434.682 410.945C434.961 410.857 435.268 410.814 435.603 410.814C436.256 410.814 436.834 410.97 437.339 411.282C437.843 411.59 438.238 412.064 438.523 412.706C438.814 413.347 438.959 414.159 438.959 415.141C438.959 416.144 438.811 416.981 438.515 417.65C438.219 418.319 437.805 418.821 437.273 419.155C436.741 419.484 436.124 419.649 435.422 419.649C435.098 419.649 434.802 419.605 434.533 419.517C434.27 419.43 434.034 419.309 433.826 419.155C433.618 419.002 433.434 418.834 433.275 418.653C433.121 418.473 432.992 418.283 432.888 418.086V422.133H430.881ZM434.978 418.152C435.581 418.152 436.08 417.913 436.475 417.436C436.87 416.953 437.067 416.199 437.067 415.174C437.067 414.285 436.881 413.586 436.508 413.076C436.14 412.56 435.63 412.303 434.978 412.303C434.276 412.303 433.749 412.574 433.398 413.117C433.047 413.654 432.872 414.34 432.872 415.174C432.872 415.711 432.949 416.207 433.102 416.663C433.261 417.112 433.494 417.474 433.801 417.749C434.114 418.017 434.506 418.152 434.978 418.152ZM443.23 419.608C442.682 419.608 442.243 419.539 441.914 419.402C441.585 419.265 441.338 419.081 441.173 418.851C441.009 418.621 440.902 418.363 440.853 418.078C440.803 417.787 440.778 417.491 440.778 417.189V407.26H442.736V416.959C442.736 417.326 442.81 417.611 442.959 417.814C443.112 418.017 443.359 418.135 443.699 418.168L444.127 418.185V419.443C443.979 419.487 443.828 419.526 443.674 419.558C443.521 419.591 443.373 419.608 443.23 419.608ZM445.953 419.484V410.978H447.87V419.484H445.953ZM445.92 409.489V407.597H447.903V409.489H445.92ZM453.732 419.649C452.953 419.649 452.26 419.479 451.651 419.139C451.048 418.793 450.573 418.294 450.228 417.642C449.882 416.983 449.709 416.191 449.709 415.264C449.709 414.381 449.871 413.608 450.195 412.944C450.524 412.275 450.987 411.754 451.585 411.381C452.188 411.003 452.904 410.814 453.732 410.814C454.396 410.814 454.98 410.945 455.484 411.208C455.989 411.472 456.392 411.836 456.694 412.303C457.001 412.769 457.185 413.298 457.245 413.89H455.542C455.498 413.633 455.402 413.388 455.254 413.158C455.106 412.922 454.906 412.733 454.654 412.591C454.407 412.442 454.105 412.368 453.749 412.368C453.107 412.368 452.589 412.604 452.194 413.076C451.799 413.548 451.602 414.271 451.602 415.248C451.602 416.147 451.788 416.863 452.161 417.395C452.539 417.927 453.08 418.193 453.782 418.193C454.133 418.193 454.434 418.116 454.687 417.962C454.939 417.803 455.136 417.609 455.279 417.378C455.427 417.143 455.52 416.907 455.559 416.671H457.22C457.171 417.247 456.993 417.76 456.686 418.209C456.378 418.659 455.973 419.013 455.468 419.27C454.963 419.523 454.385 419.649 453.732 419.649ZM461.523 419.649C460.98 419.649 460.492 419.55 460.059 419.353C459.631 419.15 459.294 418.862 459.047 418.489C458.806 418.111 458.685 417.653 458.685 417.115C458.685 416.177 459.022 415.47 459.697 414.993C460.377 414.516 461.457 414.266 462.938 414.244L464.213 414.211V413.635C464.213 413.186 464.079 412.835 463.81 412.582C463.547 412.325 463.135 412.198 462.576 412.204C462.159 412.209 461.781 412.308 461.441 412.5C461.101 412.686 460.876 413.002 460.766 413.446H459.063C459.096 412.865 459.263 412.379 459.565 411.99C459.872 411.595 460.292 411.302 460.824 411.11C461.356 410.912 461.97 410.814 462.667 410.814C463.478 410.814 464.139 410.921 464.649 411.134C465.159 411.348 465.535 411.658 465.776 412.064C466.017 412.464 466.138 412.95 466.138 413.52V419.484H464.452L464.287 417.954C463.986 418.596 463.599 419.04 463.127 419.287C462.661 419.528 462.126 419.649 461.523 419.649ZM462.173 418.292C462.42 418.292 462.664 418.248 462.905 418.16C463.146 418.067 463.363 417.943 463.555 417.79C463.752 417.631 463.909 417.455 464.024 417.263C464.145 417.071 464.208 416.871 464.213 416.663V415.322L463.168 415.338C462.653 415.344 462.2 415.399 461.811 415.503C461.427 415.607 461.128 415.774 460.914 416.005C460.7 416.229 460.593 416.531 460.593 416.909C460.593 417.343 460.744 417.683 461.046 417.93C461.348 418.171 461.723 418.292 462.173 418.292ZM387.913 439.516C387.457 438.749 387.063 437.989 386.728 437.238C386.399 436.486 386.141 435.707 385.955 434.901C385.774 434.095 385.683 433.226 385.683 432.293C385.683 430.933 385.903 429.628 386.341 428.378C386.78 427.122 387.345 425.986 388.036 424.972H389.081C388.521 426.036 388.061 427.201 387.699 428.468C387.337 429.729 387.156 431.01 387.156 432.31C387.156 433.544 387.309 434.748 387.616 435.921C387.924 437.089 388.368 438.288 388.949 439.516H387.913ZM390.779 440.133V428.978H392.293L392.309 430.459C392.408 430.283 392.534 430.1 392.688 429.908C392.847 429.716 393.039 429.538 393.264 429.373C393.494 429.208 393.76 429.074 394.062 428.97C394.369 428.866 394.717 428.814 395.106 428.814C395.787 428.814 396.384 428.97 396.9 429.282C397.421 429.59 397.827 430.061 398.117 430.697C398.408 431.334 398.553 432.14 398.553 433.116C398.553 434.092 398.411 434.918 398.126 435.592C397.846 436.261 397.44 436.771 396.908 437.122C396.376 437.473 395.734 437.649 394.983 437.649C394.605 437.649 394.267 437.594 393.971 437.484C393.681 437.38 393.426 437.243 393.206 437.073C392.992 436.898 392.811 436.711 392.663 436.514C392.521 436.316 392.403 436.127 392.309 435.946V440.133H390.779ZM394.695 436.464C395.397 436.464 395.97 436.198 396.414 435.666C396.859 435.129 397.081 434.295 397.081 433.165C397.081 432.195 396.878 431.424 396.472 430.854C396.066 430.283 395.474 429.998 394.695 429.998C393.905 429.998 393.308 430.292 392.902 430.878C392.496 431.46 392.293 432.222 392.293 433.165C392.293 433.774 392.383 434.328 392.564 434.827C392.745 435.326 393.014 435.724 393.371 436.02C393.727 436.316 394.169 436.464 394.695 436.464ZM400.58 437.484V428.978H402.028V430.615C402.171 430.209 402.371 429.875 402.629 429.612C402.887 429.343 403.18 429.143 403.509 429.011C403.844 428.879 404.189 428.814 404.546 428.814C404.672 428.814 404.795 428.822 404.916 428.838C405.037 428.855 405.13 428.882 405.196 428.921V430.393C405.113 430.355 405.006 430.33 404.875 430.319C404.749 430.303 404.642 430.294 404.554 430.294C404.214 430.272 403.896 430.294 403.6 430.36C403.303 430.42 403.043 430.527 402.818 430.681C402.593 430.835 402.415 431.037 402.283 431.29C402.157 431.537 402.094 431.838 402.094 432.195V437.484H400.58ZM410.285 437.649C409.5 437.649 408.815 437.482 408.228 437.147C407.647 436.807 407.194 436.311 406.871 435.658C406.547 435.005 406.385 434.207 406.385 433.264C406.385 432.376 406.536 431.597 406.838 430.928C407.139 430.259 407.581 429.74 408.162 429.373C408.744 429 409.454 428.814 410.293 428.814C411.077 428.814 411.757 428.986 412.333 429.332C412.909 429.672 413.356 430.174 413.674 430.837C413.998 431.501 414.159 432.31 414.159 433.264C414.159 434.131 414.011 434.893 413.715 435.551C413.419 436.209 412.983 436.725 412.407 437.098C411.837 437.465 411.129 437.649 410.285 437.649ZM410.293 436.448C410.798 436.448 411.225 436.319 411.576 436.061C411.927 435.803 412.193 435.433 412.374 434.951C412.561 434.468 412.654 433.895 412.654 433.231C412.654 432.622 412.572 432.077 412.407 431.594C412.248 431.106 411.996 430.719 411.65 430.434C411.305 430.149 410.852 430.006 410.293 430.006C409.777 430.006 409.341 430.135 408.985 430.393C408.628 430.645 408.357 431.013 408.171 431.495C407.99 431.978 407.899 432.557 407.899 433.231C407.899 433.829 407.979 434.372 408.138 434.86C408.302 435.348 408.56 435.735 408.911 436.02C409.267 436.305 409.728 436.448 410.293 436.448ZM416.182 437.484V428.978H417.646V430.212C417.882 429.839 418.206 429.513 418.617 429.233C419.028 428.953 419.563 428.814 420.221 428.814C420.528 428.814 420.841 428.866 421.159 428.97C421.483 429.074 421.779 429.23 422.048 429.439C422.316 429.647 422.525 429.902 422.673 430.204C422.936 429.787 423.293 429.453 423.742 429.2C424.192 428.942 424.699 428.814 425.264 428.814C425.56 428.814 425.87 428.86 426.194 428.953C426.517 429.041 426.816 429.2 427.09 429.431C427.37 429.655 427.598 429.971 427.773 430.377C427.949 430.777 428.037 431.293 428.037 431.923V437.484H426.506V432.071C426.506 431.556 426.424 431.158 426.26 430.878C426.095 430.593 425.878 430.393 425.61 430.278C425.346 430.163 425.064 430.105 424.762 430.105C424.499 430.105 424.219 430.157 423.923 430.261C423.627 430.366 423.375 430.541 423.166 430.788C422.958 431.035 422.854 431.372 422.854 431.8V437.484H421.34V431.627C421.34 431.293 421.25 431.013 421.069 430.788C420.893 430.563 420.671 430.393 420.402 430.278C420.139 430.163 419.876 430.105 419.613 430.105C419.322 430.105 419.028 430.163 418.732 430.278C418.442 430.393 418.195 430.577 417.992 430.829C417.794 431.076 417.696 431.399 417.696 431.8V437.484H416.182ZM433.824 437.649C433.039 437.649 432.354 437.482 431.767 437.147C431.186 436.807 430.733 436.311 430.41 435.658C430.086 435.005 429.924 434.207 429.924 433.264C429.924 432.376 430.075 431.597 430.377 430.928C430.678 430.259 431.12 429.74 431.701 429.373C432.283 429 432.993 428.814 433.832 428.814C434.616 428.814 435.296 428.986 435.872 429.332C436.448 429.672 436.895 430.174 437.213 430.837C437.537 431.501 437.698 432.31 437.698 433.264C437.698 434.131 437.55 434.893 437.254 435.551C436.958 436.209 436.522 436.725 435.946 437.098C435.376 437.465 434.668 437.649 433.824 437.649ZM433.832 436.448C434.336 436.448 434.764 436.319 435.115 436.061C435.466 435.803 435.732 435.433 435.913 434.951C436.1 434.468 436.193 433.895 436.193 433.231C436.193 432.622 436.111 432.077 435.946 431.594C435.787 431.106 435.535 430.719 435.189 430.434C434.844 430.149 434.391 430.006 433.832 430.006C433.316 430.006 432.88 430.135 432.524 430.393C432.167 430.645 431.896 431.013 431.709 431.495C431.528 431.978 431.438 432.557 431.438 433.231C431.438 433.829 431.517 434.372 431.677 434.86C431.841 435.348 432.099 435.735 432.45 436.02C432.806 436.305 433.267 436.448 433.832 436.448ZM442.453 437.526C441.866 437.526 441.411 437.446 441.088 437.287C440.764 437.128 440.536 436.892 440.405 436.579C440.279 436.267 440.216 435.883 440.216 435.428V430.089H438.833V428.978H440.257L440.627 426.502H441.746V428.97H443.662V430.089H441.746V435.378C441.746 435.68 441.776 435.902 441.836 436.045C441.902 436.182 442.009 436.27 442.157 436.308C442.305 436.346 442.513 436.366 442.782 436.366H443.712V437.386C443.608 437.424 443.449 437.457 443.235 437.484C443.026 437.512 442.766 437.526 442.453 437.526ZM449.1 437.649C448.31 437.649 447.614 437.476 447.011 437.131C446.407 436.785 445.936 436.289 445.596 435.642C445.256 434.994 445.086 434.218 445.086 433.314C445.086 432.42 445.239 431.635 445.546 430.961C445.853 430.286 446.298 429.76 446.879 429.381C447.466 429.003 448.171 428.814 448.993 428.814C449.794 428.814 450.471 428.986 451.025 429.332C451.579 429.677 451.999 430.165 452.284 430.796C452.575 431.421 452.72 432.165 452.72 433.026V433.585H446.624C446.624 434.122 446.712 434.611 446.887 435.049C447.068 435.483 447.34 435.828 447.702 436.086C448.064 436.344 448.522 436.473 449.076 436.473C449.619 436.473 450.085 436.346 450.474 436.094C450.869 435.842 451.121 435.477 451.231 435H452.662C452.564 435.576 452.333 436.061 451.971 436.456C451.615 436.851 451.184 437.15 450.68 437.353C450.181 437.55 449.654 437.649 449.1 437.649ZM446.632 432.557H451.256C451.256 432.069 451.173 431.63 451.009 431.24C450.844 430.846 450.592 430.536 450.252 430.311C449.917 430.08 449.495 429.965 448.985 429.965C448.453 429.965 448.012 430.094 447.661 430.352C447.31 430.604 447.049 430.931 446.879 431.331C446.709 431.726 446.627 432.134 446.632 432.557ZM457.926 437.649C456.818 437.649 455.94 437.27 455.293 436.514C454.652 435.757 454.331 434.652 454.331 433.198C454.331 432.315 454.46 431.545 454.717 430.887C454.975 430.229 455.362 429.718 455.877 429.357C456.393 428.995 457.035 428.814 457.802 428.814C458.214 428.814 458.576 428.866 458.888 428.97C459.201 429.074 459.472 429.206 459.703 429.365C459.933 429.524 460.12 429.688 460.262 429.858C460.41 430.028 460.52 430.185 460.591 430.327V425.26H462.13V437.484H460.961L460.797 435.74C460.742 435.905 460.654 436.097 460.534 436.316C460.413 436.53 460.243 436.741 460.024 436.95C459.81 437.153 459.53 437.32 459.184 437.451C458.839 437.583 458.419 437.649 457.926 437.649ZM458.197 436.481C459.053 436.481 459.664 436.22 460.032 435.699C460.405 435.173 460.591 434.314 460.591 433.124C460.586 432.461 460.503 431.896 460.344 431.43C460.185 430.963 459.933 430.61 459.588 430.368C459.248 430.122 458.792 429.998 458.222 429.998C457.525 429.998 456.958 430.248 456.519 430.747C456.08 431.246 455.861 432.038 455.861 433.124C455.861 434.188 456.058 435.014 456.453 435.6C456.848 436.187 457.429 436.481 458.197 436.481ZM463.835 439.516C464.417 438.288 464.861 437.089 465.168 435.921C465.475 434.748 465.629 433.544 465.629 432.31C465.629 431.01 465.448 429.729 465.086 428.468C464.724 427.201 464.263 426.036 463.704 424.972H464.749C465.44 425.986 466.002 427.122 466.435 428.378C466.874 429.628 467.093 430.933 467.093 432.293C467.093 433.226 467.003 434.095 466.822 434.901C466.641 435.707 466.383 436.486 466.048 437.238C465.714 437.989 465.322 438.749 464.872 439.516H463.835Z" fill="#1A1B1D"/>
<path d="M335.399 44.3C333.409 44.3 331.699 43.845 330.269 42.935C328.849 42.015 327.754 40.715 326.984 39.035C326.224 37.345 325.844 35.34 325.844 33.02C325.844 30.71 326.224 28.735 326.984 27.095C327.744 25.455 328.834 24.2 330.254 23.33C331.684 22.45 333.399 22.01 335.399 22.01C336.989 22.01 338.399 22.335 339.629 22.985C340.859 23.625 341.849 24.495 342.599 25.595C343.359 26.695 343.809 27.92 343.949 29.27H340.094C339.944 28.47 339.664 27.755 339.254 27.125C338.854 26.495 338.324 25.995 337.664 25.625C337.004 25.255 336.214 25.07 335.294 25.07C334.144 25.07 333.164 25.345 332.354 25.895C331.554 26.435 330.939 27.295 330.509 28.475C330.089 29.655 329.879 31.185 329.879 33.065C329.879 35.915 330.349 37.99 331.289 39.29C332.229 40.59 333.564 41.24 335.294 41.24C336.214 41.24 337.004 41.04 337.664 40.64C338.324 40.23 338.854 39.69 339.254 39.02C339.664 38.34 339.944 37.6 340.094 36.8H343.949C343.829 37.78 343.579 38.72 343.199 39.62C342.829 40.52 342.304 41.325 341.624 42.035C340.944 42.735 340.089 43.29 339.059 43.7C338.039 44.1 336.819 44.3 335.399 44.3ZM351.992 44.225C350.992 44.225 350.192 44.1 349.592 43.85C348.992 43.6 348.542 43.265 348.242 42.845C347.942 42.425 347.747 41.955 347.657 41.435C347.567 40.905 347.522 40.365 347.522 39.815V21.71H351.092V39.395C351.092 40.065 351.227 40.585 351.497 40.955C351.777 41.325 352.227 41.54 352.847 41.6L353.627 41.63V43.925C353.357 44.005 353.082 44.075 352.802 44.135C352.522 44.195 352.252 44.225 351.992 44.225ZM362.733 44.3C361.253 44.3 359.963 43.985 358.863 43.355C357.763 42.715 356.908 41.8 356.298 40.61C355.698 39.42 355.398 37.99 355.398 36.32C355.398 34.7 355.693 33.28 356.283 32.06C356.873 30.84 357.713 29.89 358.803 29.21C359.903 28.53 361.218 28.19 362.748 28.19C364.228 28.19 365.513 28.515 366.603 29.165C367.693 29.815 368.533 30.745 369.123 31.955C369.723 33.165 370.023 34.62 370.023 36.32C370.023 37.89 369.738 39.275 369.168 40.475C368.608 41.665 367.783 42.6 366.693 43.28C365.613 43.96 364.293 44.3 362.733 44.3ZM362.748 41.525C363.588 41.525 364.278 41.295 364.818 40.835C365.368 40.375 365.778 39.745 366.048 38.945C366.318 38.145 366.453 37.235 366.453 36.215C366.453 35.265 366.333 34.39 366.093 33.59C365.853 32.79 365.458 32.15 364.908 31.67C364.368 31.18 363.648 30.935 362.748 30.935C361.898 30.935 361.193 31.16 360.633 31.61C360.083 32.05 359.673 32.67 359.403 33.47C359.133 34.26 358.998 35.175 358.998 36.215C358.998 37.155 359.118 38.03 359.358 38.84C359.598 39.64 359.993 40.29 360.543 40.79C361.093 41.28 361.828 41.525 362.748 41.525ZM378.974 44.3C378.214 44.3 377.479 44.19 376.769 43.97C376.069 43.74 375.439 43.41 374.879 42.98C374.319 42.54 373.874 42 373.544 41.36C373.214 40.72 373.049 39.975 373.049 39.125V28.49H376.709V38.705C376.709 39.545 376.974 40.235 377.504 40.775C378.044 41.315 378.854 41.585 379.934 41.585C380.914 41.585 381.699 41.33 382.289 40.82C382.879 40.3 383.174 39.555 383.174 38.585V28.49H386.804V44H383.999L383.594 40.97C383.404 41.82 383.069 42.49 382.589 42.98C382.119 43.46 381.564 43.8 380.924 44C380.294 44.2 379.644 44.3 378.974 44.3ZM396.7 44.3C394.65 44.3 393.04 43.595 391.87 42.185C390.7 40.775 390.115 38.77 390.115 36.17C390.115 34.55 390.35 33.145 390.82 31.955C391.3 30.755 392.005 29.83 392.935 29.18C393.865 28.52 395.01 28.19 396.37 28.19C397.01 28.19 397.59 28.27 398.11 28.43C398.64 28.58 399.11 28.78 399.52 29.03C399.93 29.28 400.275 29.555 400.555 29.855C400.845 30.155 401.07 30.455 401.23 30.755V21.71H404.905V44H402.205L401.8 40.82C401.67 41.19 401.485 41.58 401.245 41.99C401.015 42.39 400.7 42.765 400.3 43.115C399.91 43.465 399.42 43.75 398.83 43.97C398.24 44.19 397.53 44.3 396.7 44.3ZM397.45 41.615C398.76 41.615 399.715 41.19 400.315 40.34C400.925 39.48 401.23 38.06 401.23 36.08C401.22 34.95 401.08 34 400.81 33.23C400.55 32.46 400.15 31.88 399.61 31.49C399.07 31.1 398.365 30.905 397.495 30.905C396.395 30.905 395.49 31.31 394.78 32.12C394.08 32.93 393.73 34.25 393.73 36.08C393.73 37.9 394.055 39.28 394.705 40.22C395.355 41.15 396.27 41.615 397.45 41.615ZM416.018 44V28.49H419.513V31.85C419.763 31.08 420.118 30.425 420.578 29.885C421.048 29.335 421.598 28.915 422.228 28.625C422.858 28.335 423.543 28.19 424.283 28.19C424.463 28.19 424.638 28.2 424.808 28.22C424.978 28.24 425.103 28.275 425.183 28.325V31.82C425.073 31.77 424.928 31.735 424.748 31.715C424.578 31.695 424.428 31.685 424.298 31.685C423.548 31.625 422.883 31.655 422.303 31.775C421.733 31.895 421.248 32.1 420.848 32.39C420.458 32.67 420.163 33.03 419.963 33.47C419.763 33.9 419.663 34.405 419.663 34.985V44H416.018ZM434.826 44.3C433.336 44.3 432.021 43.985 430.881 43.355C429.751 42.715 428.866 41.805 428.226 40.625C427.596 39.445 427.281 38.04 427.281 36.41C427.281 34.82 427.566 33.41 428.136 32.18C428.716 30.94 429.551 29.965 430.641 29.255C431.741 28.545 433.066 28.19 434.616 28.19C436.146 28.19 437.431 28.515 438.471 29.165C439.511 29.815 440.301 30.725 440.841 31.895C441.381 33.055 441.651 34.415 441.651 35.975V37.085H430.926C430.916 37.965 431.056 38.745 431.346 39.425C431.636 40.105 432.066 40.64 432.636 41.03C433.206 41.41 433.911 41.6 434.751 41.6C435.611 41.6 436.356 41.41 436.986 41.03C437.626 40.64 438.051 40.05 438.261 39.26H441.591C441.411 40.34 440.981 41.255 440.301 42.005C439.631 42.755 438.811 43.325 437.841 43.715C436.881 44.105 435.876 44.3 434.826 44.3ZM430.911 34.82H438.201C438.201 34.07 438.066 33.395 437.796 32.795C437.536 32.185 437.141 31.705 436.611 31.355C436.081 30.995 435.411 30.815 434.601 30.815C433.801 30.815 433.126 31.01 432.576 31.4C432.026 31.79 431.611 32.295 431.331 32.915C431.051 33.525 430.911 34.16 430.911 34.82ZM451.893 49.13C449.283 49.13 447.278 48.78 445.878 48.08C444.478 47.38 443.778 46.42 443.778 45.2C443.778 44.65 443.913 44.19 444.183 43.82C444.453 43.45 444.773 43.145 445.143 42.905C445.513 42.665 445.853 42.48 446.163 42.35C446.473 42.22 446.673 42.125 446.763 42.065C446.593 41.965 446.368 41.835 446.088 41.675C445.808 41.515 445.553 41.295 445.323 41.015C445.103 40.735 444.993 40.37 444.993 39.92C444.993 39.4 445.238 38.92 445.728 38.48C446.228 38.04 446.973 37.725 447.963 37.535C446.993 37.065 446.248 36.43 445.728 35.63C445.208 34.83 444.948 34 444.948 33.14C444.948 32.12 445.243 31.245 445.833 30.515C446.433 29.785 447.263 29.225 448.323 28.835C449.383 28.445 450.618 28.25 452.028 28.25C453.058 28.25 453.913 28.365 454.593 28.595C455.283 28.825 455.923 29.135 456.513 29.525C456.713 29.445 456.993 29.335 457.353 29.195C457.713 29.045 458.108 28.885 458.538 28.715C458.968 28.535 459.383 28.365 459.783 28.205C460.183 28.035 460.518 27.895 460.788 27.785L460.773 30.8L458.088 31.28C458.218 31.57 458.318 31.885 458.388 32.225C458.468 32.565 458.508 32.865 458.508 33.125C458.508 34.025 458.253 34.86 457.743 35.63C457.243 36.39 456.488 37 455.478 37.46C454.478 37.92 453.228 38.15 451.728 38.15C451.578 38.15 451.373 38.145 451.113 38.135C450.853 38.125 450.643 38.115 450.483 38.105C449.673 38.135 449.118 38.23 448.818 38.39C448.518 38.55 448.368 38.725 448.368 38.915C448.368 39.185 448.593 39.365 449.043 39.455C449.493 39.545 450.213 39.625 451.203 39.695C451.553 39.715 452.013 39.74 452.583 39.77C453.153 39.8 453.788 39.84 454.488 39.89C456.258 40 457.598 40.445 458.508 41.225C459.418 41.995 459.873 42.995 459.873 44.225C459.873 45.655 459.213 46.83 457.893 47.75C456.573 48.67 454.573 49.13 451.893 49.13ZM452.508 46.985C453.818 46.985 454.788 46.805 455.418 46.445C456.048 46.085 456.363 45.555 456.363 44.855C456.363 44.315 456.148 43.875 455.718 43.535C455.288 43.195 454.648 42.995 453.798 42.935L449.883 42.695C449.453 42.665 449.043 42.745 448.653 42.935C448.273 43.115 447.963 43.37 447.723 43.7C447.483 44.02 447.363 44.375 447.363 44.765C447.363 45.495 447.778 46.045 448.608 46.415C449.448 46.795 450.748 46.985 452.508 46.985ZM451.848 36.005C452.798 36.005 453.568 35.765 454.158 35.285C454.748 34.795 455.043 34.105 455.043 33.215C455.043 32.295 454.748 31.58 454.158 31.07C453.568 30.55 452.798 30.29 451.848 30.29C450.878 30.29 450.093 30.55 449.493 31.07C448.903 31.59 448.608 32.305 448.608 33.215C448.608 34.075 448.893 34.755 449.463 35.255C450.033 35.755 450.828 36.005 451.848 36.005ZM463.832 44V28.49H467.327V44H463.832ZM463.772 25.775V22.325H467.387V25.775H463.772ZM478.017 44.3C476.537 44.3 475.247 43.985 474.147 43.355C473.047 42.715 472.192 41.8 471.582 40.61C470.982 39.42 470.682 37.99 470.682 36.32C470.682 34.7 470.977 33.28 471.567 32.06C472.157 30.84 472.997 29.89 474.087 29.21C475.187 28.53 476.502 28.19 478.032 28.19C479.512 28.19 480.797 28.515 481.887 29.165C482.977 29.815 483.817 30.745 484.407 31.955C485.007 33.165 485.307 34.62 485.307 36.32C485.307 37.89 485.022 39.275 484.452 40.475C483.892 41.665 483.067 42.6 481.977 43.28C480.897 43.96 479.577 44.3 478.017 44.3ZM478.032 41.525C478.872 41.525 479.562 41.295 480.102 40.835C480.652 40.375 481.062 39.745 481.332 38.945C481.602 38.145 481.737 37.235 481.737 36.215C481.737 35.265 481.617 34.39 481.377 33.59C481.137 32.79 480.742 32.15 480.192 31.67C479.652 31.18 478.932 30.935 478.032 30.935C477.182 30.935 476.477 31.16 475.917 31.61C475.367 32.05 474.957 32.67 474.687 33.47C474.417 34.26 474.282 35.175 474.282 36.215C474.282 37.155 474.402 38.03 474.642 38.84C474.882 39.64 475.277 40.29 475.827 40.79C476.377 41.28 477.112 41.525 478.032 41.525ZM488.645 44V28.49H492.215V30.71C492.455 30.31 492.78 29.925 493.19 29.555C493.61 29.185 494.125 28.885 494.735 28.655C495.345 28.425 496.06 28.31 496.88 28.31C497.84 28.31 498.73 28.5 499.55 28.88C500.38 29.26 501.045 29.855 501.545 30.665C502.055 31.475 502.31 32.52 502.31 33.8V44H498.65V34.235C498.65 33.215 498.37 32.46 497.81 31.97C497.25 31.47 496.545 31.22 495.695 31.22C495.115 31.22 494.565 31.32 494.045 31.52C493.525 31.71 493.1 32.005 492.77 32.405C492.45 32.795 492.29 33.285 492.29 33.875V44H488.645ZM512.925 44V42.05V41.045C512.925 39.935 513.13 38.98 513.54 38.18C513.95 37.37 514.495 36.665 515.175 36.065C515.855 35.465 516.6 34.935 517.41 34.475C518.23 34.005 519.04 33.565 519.84 33.155C520.65 32.735 521.395 32.305 522.075 31.865C522.755 31.415 523.3 30.915 523.71 30.365C524.13 29.815 524.34 29.16 524.34 28.4C524.34 27.43 523.995 26.64 523.305 26.03C522.625 25.41 521.7 25.1 520.53 25.1C519.29 25.1 518.265 25.455 517.455 26.165C516.655 26.875 516.18 27.875 516.03 29.165H512.49C512.51 27.845 512.825 26.645 513.435 25.565C514.045 24.485 514.95 23.625 516.15 22.985C517.35 22.335 518.845 22.01 520.635 22.01C522.185 22.01 523.52 22.28 524.64 22.82C525.77 23.35 526.64 24.095 527.25 25.055C527.87 26.005 528.18 27.115 528.18 28.385C528.18 29.495 527.975 30.445 527.565 31.235C527.165 32.025 526.63 32.71 525.96 33.29C525.3 33.86 524.57 34.365 523.77 34.805C522.98 35.245 522.185 35.66 521.385 36.05C520.595 36.43 519.865 36.83 519.195 37.25C518.535 37.66 518 38.13 517.59 38.66C517.19 39.19 516.99 39.825 516.99 40.565V40.88H528.225V44H512.925ZM359.629 87.705C358.799 86.305 358.079 84.92 357.469 83.55C356.869 82.18 356.399 80.76 356.059 79.29C355.729 77.82 355.564 76.235 355.564 74.535C355.564 72.055 355.964 69.675 356.764 67.395C357.564 65.105 358.594 63.035 359.854 61.185H361.759C360.739 63.125 359.899 65.25 359.239 67.56C358.579 69.86 358.249 72.195 358.249 74.565C358.249 76.815 358.529 79.01 359.089 81.15C359.649 83.28 360.459 85.465 361.519 87.705H359.629ZM373.407 84.3C371.457 84.3 369.792 83.855 368.412 82.965C367.042 82.075 365.992 80.795 365.262 79.125C364.542 77.455 364.182 75.44 364.182 73.08C364.182 70.73 364.542 68.73 365.262 67.08C365.982 65.43 367.027 64.175 368.397 63.315C369.777 62.445 371.447 62.01 373.407 62.01C374.937 62.01 376.292 62.33 377.472 62.97C378.652 63.6 379.602 64.445 380.322 65.505C381.042 66.565 381.467 67.73 381.597 69H378.642C378.482 68.15 378.177 67.38 377.727 66.69C377.277 66 376.687 65.45 375.957 65.04C375.227 64.63 374.352 64.425 373.332 64.425C372.022 64.425 370.912 64.735 370.002 65.355C369.102 65.965 368.417 66.91 367.947 68.19C367.487 69.47 367.257 71.11 367.257 73.11C367.257 76.13 367.772 78.35 368.802 79.77C369.842 81.18 371.352 81.885 373.332 81.885C374.352 81.885 375.227 81.67 375.957 81.24C376.687 80.81 377.277 80.235 377.727 79.515C378.177 78.795 378.482 78.015 378.642 77.175H381.597C381.487 78.095 381.237 78.985 380.847 79.845C380.467 80.695 379.942 81.455 379.272 82.125C378.602 82.795 377.777 83.325 376.797 83.715C375.827 84.105 374.697 84.3 373.407 84.3ZM389.426 84.195C388.586 84.195 387.906 84.08 387.386 83.85C386.876 83.62 386.481 83.31 386.201 82.92C385.931 82.53 385.746 82.085 385.646 81.585C385.556 81.075 385.511 80.55 385.511 80.01V61.71H388.241V79.74C388.241 80.52 388.391 81.105 388.691 81.495C389.001 81.885 389.431 82.1 389.981 82.14L390.821 82.155V83.955C390.591 84.025 390.351 84.08 390.101 84.12C389.851 84.17 389.626 84.195 389.426 84.195ZM399.795 84.3C398.985 84.29 398.22 84.175 397.5 83.955C396.79 83.725 396.16 83.39 395.61 82.95C395.06 82.51 394.625 81.965 394.305 81.315C393.995 80.655 393.84 79.89 393.84 79.02V68.49H396.615V78.735C396.615 79.745 396.925 80.565 397.545 81.195C398.175 81.825 399.12 82.14 400.38 82.14C401.52 82.14 402.435 81.845 403.125 81.255C403.825 80.655 404.175 79.765 404.175 78.585V68.49H406.935V84H404.73L404.445 81.03C404.255 81.81 403.93 82.44 403.47 82.92C403.02 83.4 402.475 83.755 401.835 83.985C401.205 84.205 400.525 84.31 399.795 84.3ZM417.077 84.3C415.997 84.3 414.992 84.135 414.062 83.805C413.142 83.465 412.377 82.94 411.767 82.23C411.157 81.51 410.777 80.595 410.627 79.485H413.147C413.277 80.095 413.527 80.605 413.897 81.015C414.267 81.415 414.722 81.72 415.262 81.93C415.812 82.13 416.412 82.23 417.062 82.23C418.112 82.23 418.957 82.035 419.597 81.645C420.237 81.255 420.557 80.655 420.557 79.845C420.557 79.275 420.387 78.82 420.047 78.48C419.717 78.13 419.197 77.875 418.487 77.715L415.277 76.92C414.027 76.62 413.027 76.15 412.277 75.51C411.537 74.87 411.162 73.975 411.152 72.825C411.152 71.915 411.372 71.115 411.812 70.425C412.252 69.735 412.907 69.19 413.777 68.79C414.657 68.39 415.752 68.19 417.062 68.19C418.752 68.19 420.112 68.57 421.142 69.33C422.172 70.08 422.712 71.185 422.762 72.645H420.302C420.202 71.905 419.872 71.32 419.312 70.89C418.752 70.45 417.992 70.23 417.032 70.23C416.052 70.23 415.247 70.43 414.617 70.83C413.997 71.22 413.687 71.83 413.687 72.66C413.687 73.21 413.907 73.645 414.347 73.965C414.797 74.275 415.447 74.535 416.297 74.745L419.417 75.525C420.127 75.715 420.717 75.965 421.187 76.275C421.657 76.585 422.027 76.93 422.297 77.31C422.567 77.69 422.757 78.09 422.867 78.51C422.987 78.92 423.047 79.315 423.047 79.695C423.047 80.645 422.812 81.465 422.342 82.155C421.872 82.835 421.192 83.365 420.302 83.745C419.412 84.115 418.337 84.3 417.077 84.3ZM432.036 84.075C430.966 84.075 430.136 83.93 429.546 83.64C428.956 83.35 428.541 82.92 428.301 82.35C428.071 81.78 427.956 81.08 427.956 80.25V70.515H425.436V68.49H428.031L428.706 63.975H430.746V68.475H434.241V70.515H430.746V80.16C430.746 80.71 430.801 81.115 430.911 81.375C431.031 81.625 431.226 81.785 431.496 81.855C431.766 81.925 432.146 81.96 432.636 81.96H434.331V83.82C434.141 83.89 433.851 83.95 433.461 84C433.081 84.05 432.606 84.075 432.036 84.075ZM444.156 84.3C442.716 84.3 441.446 83.985 440.346 83.355C439.246 82.725 438.386 81.82 437.766 80.64C437.146 79.46 436.836 78.045 436.836 76.395C436.836 74.765 437.116 73.335 437.676 72.105C438.236 70.875 439.046 69.915 440.106 69.225C441.176 68.535 442.461 68.19 443.961 68.19C445.421 68.19 446.656 68.505 447.666 69.135C448.676 69.765 449.441 70.655 449.961 71.805C450.491 72.945 450.756 74.3 450.756 75.87V76.89H439.641C439.641 77.87 439.801 78.76 440.121 79.56C440.451 80.35 440.946 80.98 441.606 81.45C442.266 81.92 443.101 82.155 444.111 82.155C445.101 82.155 445.951 81.925 446.661 81.465C447.381 81.005 447.841 80.34 448.041 79.47H450.651C450.471 80.52 450.051 81.405 449.391 82.125C448.741 82.845 447.956 83.39 447.036 83.76C446.126 84.12 445.166 84.3 444.156 84.3ZM439.656 75.015H448.086C448.086 74.125 447.936 73.325 447.636 72.615C447.336 71.895 446.876 71.33 446.256 70.92C445.646 70.5 444.876 70.29 443.946 70.29C442.976 70.29 442.171 70.525 441.531 70.995C440.891 71.455 440.416 72.05 440.106 72.78C439.796 73.5 439.646 74.245 439.656 75.015ZM454.593 84V68.49H457.233V71.475C457.493 70.735 457.858 70.125 458.328 69.645C458.798 69.155 459.333 68.79 459.933 68.55C460.543 68.31 461.173 68.19 461.823 68.19C462.053 68.19 462.278 68.205 462.498 68.235C462.718 68.265 462.888 68.315 463.008 68.385V71.07C462.858 71 462.663 70.955 462.423 70.935C462.193 70.905 461.998 70.89 461.838 70.89C461.218 70.85 460.638 70.89 460.098 71.01C459.558 71.12 459.083 71.315 458.673 71.595C458.263 71.875 457.938 72.245 457.698 72.705C457.468 73.155 457.353 73.705 457.353 74.355V84H454.593ZM474.177 84V62.31H481.152C483.792 62.31 485.787 62.795 487.137 63.765C488.497 64.735 489.177 66.135 489.177 67.965C489.177 69.115 488.877 70.1 488.277 70.92C487.687 71.74 486.647 72.415 485.157 72.945C486.007 73.125 486.722 73.385 487.302 73.725C487.892 74.065 488.362 74.465 488.712 74.925C489.072 75.375 489.327 75.875 489.477 76.425C489.637 76.975 489.717 77.555 489.717 78.165C489.717 80.125 489.017 81.59 487.617 82.56C486.227 83.52 484.147 84 481.377 84H474.177ZM476.952 81.69H481.347C483.157 81.69 484.532 81.395 485.472 80.805C486.422 80.205 486.897 79.285 486.897 78.045C486.897 77.135 486.662 76.4 486.192 75.84C485.732 75.27 485.107 74.855 484.317 74.595C483.527 74.335 482.647 74.205 481.677 74.205H476.952V81.69ZM476.952 71.85H481.677C482.247 71.85 482.812 71.795 483.372 71.685C483.932 71.575 484.447 71.385 484.917 71.115C485.387 70.845 485.767 70.485 486.057 70.035C486.347 69.575 486.492 69 486.492 68.31C486.492 67.05 486.007 66.12 485.037 65.52C484.077 64.91 482.827 64.605 481.287 64.605H476.952V71.85ZM492.088 87.705C493.148 85.465 493.958 83.28 494.518 81.15C495.078 79.01 495.358 76.815 495.358 74.565C495.358 72.195 495.028 69.86 494.368 67.56C493.708 65.25 492.868 63.125 491.848 61.185H493.753C495.013 63.035 496.038 65.105 496.828 67.395C497.628 69.675 498.028 72.055 498.028 74.535C498.028 76.235 497.863 77.82 497.533 79.29C497.203 80.76 496.733 82.18 496.123 83.55C495.513 84.92 494.798 86.305 493.978 87.705H492.088Z" fill="#1A1B1D"/>
<path d="M426.891 314C416.41 314 405 316.578 405 322.184C405 327.79 416.41 330.369 426.891 330.369C437.372 330.369 448.637 327.79 448.637 322.184C448.637 316.578 437.372 314 426.891 314Z" fill="white"/>
<path fill-rule="evenodd" clip-rule="evenodd" d="M426.891 334.87C418.671 334.87 409.958 333.421 405 329.943V359.15C405 364.756 416.41 367.334 426.891 367.334C437.372 367.334 448.637 364.756 448.637 359.15V330.232C443.679 333.711 435.111 334.87 426.891 334.87ZM427.72 341.827C423.619 341.827 420.867 344.233 420.867 348.88V352.182C421.26 351.986 421.709 351.874 422.187 351.874C422.664 351.874 423.114 351.986 423.535 352.182V348.851C423.535 345.829 425.192 344.29 427.72 344.29C430.249 344.29 431.906 345.829 431.906 348.851V356.1H434.574V348.851C434.602 344.178 431.822 341.827 427.72 341.827ZM413.985 350.615C414.21 350.251 414.519 349.971 414.856 349.803C415.474 349.495 416.233 349.495 416.879 349.775C417.469 350.139 417.75 350.755 417.918 351.37C418.143 352.154 418.424 352.742 419.126 353.162C419.828 353.582 420.502 353.498 421.289 353.302C421.935 353.163 422.609 353.078 423.199 353.414C423.845 353.778 424.238 354.421 424.266 355.121V355.401C424.21 356.072 423.845 356.744 423.199 357.108C422.581 357.471 421.907 357.388 421.289 357.22C420.503 357.024 419.829 356.939 419.126 357.359C418.395 357.751 418.143 358.367 417.918 359.151C417.75 359.767 417.469 360.411 416.879 360.746C416.233 361.11 415.474 361.11 414.856 360.802C414.491 360.634 414.21 360.354 413.985 359.99C413.76 359.626 413.676 359.235 413.704 358.843C413.76 358.171 414.125 357.5 414.771 357.136C415.389 356.772 416.063 356.856 416.681 357.024C417.467 357.22 418.141 357.304 418.844 356.884H418.872C420.08 356.185 420.08 354.421 418.872 353.721H418.844C418.142 353.301 417.468 353.385 416.681 353.581C416.035 353.721 415.361 353.805 414.771 353.469C414.125 353.106 413.732 352.462 413.704 351.762C413.676 351.37 413.761 350.979 413.985 350.615Z" fill="white"/>
<path d="M368 171.5C368 139.191 394.191 113 426.5 113C458.809 113 485 139.191 485 171.5C485 203.809 458.809 230 426.5 230C394.191 230 368 203.809 368 171.5Z" fill="#1A1B1D"/>
<path d="M399.855 251.165C399.263 251.165 398.701 251.071 398.169 250.885C397.642 250.693 397.198 250.394 396.836 249.988C396.48 249.582 396.255 249.059 396.161 248.417H397.922C397.999 248.729 398.133 248.984 398.325 249.182C398.522 249.379 398.753 249.525 399.016 249.618C399.285 249.706 399.562 249.75 399.847 249.75C400.357 249.75 400.768 249.662 401.081 249.486C401.394 249.311 401.55 249.039 401.55 248.672C401.55 248.403 401.462 248.189 401.287 248.03C401.117 247.871 400.837 247.751 400.448 247.668L398.835 247.298C398.111 247.139 397.533 246.876 397.099 246.508C396.666 246.141 396.447 245.623 396.441 244.953C396.436 244.449 396.562 243.999 396.82 243.604C397.077 243.209 397.461 242.9 397.971 242.675C398.481 242.444 399.109 242.329 399.855 242.329C400.848 242.329 401.643 242.551 402.241 242.996C402.844 243.434 403.154 244.062 403.17 244.879H401.468C401.407 244.512 401.235 244.227 400.949 244.024C400.664 243.815 400.294 243.711 399.839 243.711C399.367 243.711 398.98 243.802 398.679 243.983C398.377 244.164 398.226 244.441 398.226 244.814C398.226 245.071 398.339 245.274 398.564 245.422C398.794 245.57 399.142 245.697 399.608 245.801L401.139 246.171C401.577 246.281 401.937 246.429 402.216 246.615C402.496 246.802 402.713 247.007 402.866 247.232C403.025 247.452 403.135 247.679 403.195 247.915C403.261 248.145 403.294 248.359 403.294 248.557C403.294 249.105 403.151 249.574 402.866 249.963C402.586 250.347 402.189 250.644 401.673 250.852C401.163 251.06 400.557 251.165 399.855 251.165ZM406.176 253.715C405.627 253.715 405.246 253.671 405.032 253.583C404.818 253.501 404.711 253.46 404.711 253.46V252.176L405.567 252.201C405.912 252.218 406.192 252.198 406.406 252.143C406.625 252.089 406.795 252.012 406.916 251.913C407.037 251.82 407.124 251.718 407.179 251.609C407.24 251.505 407.286 251.414 407.319 251.337L407.541 250.712L404.226 242.494H406.217L408.479 248.507L410.733 242.494H412.691L409.187 251.313C408.923 251.954 408.638 252.448 408.331 252.793C408.029 253.144 407.698 253.386 407.336 253.517C406.979 253.649 406.592 253.715 406.176 253.715ZM417.176 251.165C416.584 251.165 416.021 251.071 415.49 250.885C414.963 250.693 414.519 250.394 414.157 249.988C413.8 249.582 413.575 249.059 413.482 248.417H415.243C415.319 248.729 415.454 248.984 415.646 249.182C415.843 249.379 416.074 249.525 416.337 249.618C416.606 249.706 416.883 249.75 417.168 249.75C417.678 249.75 418.089 249.662 418.402 249.486C418.714 249.311 418.871 249.039 418.871 248.672C418.871 248.403 418.783 248.189 418.607 248.03C418.437 247.871 418.158 247.751 417.768 247.668L416.156 247.298C415.432 247.139 414.853 246.876 414.42 246.508C413.987 246.141 413.767 245.623 413.762 244.953C413.756 244.449 413.883 243.999 414.14 243.604C414.398 243.209 414.782 242.9 415.292 242.675C415.802 242.444 416.43 242.329 417.176 242.329C418.169 242.329 418.964 242.551 419.562 242.996C420.165 243.434 420.475 244.062 420.491 244.879H418.788C418.728 244.512 418.555 244.227 418.27 244.024C417.985 243.815 417.615 243.711 417.16 243.711C416.688 243.711 416.301 243.802 416 243.983C415.698 244.164 415.547 244.441 415.547 244.814C415.547 245.071 415.66 245.274 415.884 245.422C416.115 245.57 416.463 245.697 416.929 245.801L418.459 246.171C418.898 246.281 419.257 246.429 419.537 246.615C419.817 246.802 420.033 247.007 420.187 247.232C420.346 247.452 420.456 247.679 420.516 247.915C420.582 248.145 420.615 248.359 420.615 248.557C420.615 249.105 420.472 249.574 420.187 249.963C419.907 250.347 419.51 250.644 418.994 250.852C418.484 251.06 417.878 251.165 417.176 251.165ZM425.752 251.066C425.077 251.066 424.553 250.978 424.18 250.803C423.813 250.622 423.558 250.367 423.415 250.037C423.273 249.708 423.201 249.316 423.201 248.861V243.909H421.819V242.494H423.259L423.761 239.968H425.2V242.486H427.101V243.909H425.2L425.209 248.787C425.209 249.039 425.236 249.226 425.291 249.346C425.351 249.462 425.445 249.538 425.571 249.577C425.702 249.61 425.875 249.626 426.089 249.626H427.142V250.893C427.027 250.937 426.857 250.975 426.632 251.008C426.413 251.047 426.119 251.066 425.752 251.066ZM432.508 251.165C431.691 251.165 430.97 250.992 430.345 250.646C429.725 250.295 429.239 249.796 428.888 249.149C428.543 248.502 428.37 247.731 428.37 246.837C428.37 245.965 428.526 245.192 428.839 244.517C429.157 243.837 429.615 243.303 430.213 242.913C430.816 242.524 431.543 242.329 432.393 242.329C433.232 242.329 433.937 242.507 434.507 242.864C435.078 243.22 435.511 243.719 435.807 244.361C436.103 244.997 436.251 245.743 436.251 246.599V247.208H430.369C430.364 247.69 430.44 248.118 430.6 248.491C430.759 248.864 430.994 249.157 431.307 249.371C431.62 249.58 432.006 249.684 432.467 249.684C432.939 249.684 433.347 249.58 433.693 249.371C434.044 249.157 434.277 248.834 434.392 248.4H436.218C436.12 248.993 435.884 249.495 435.511 249.906C435.143 250.317 434.694 250.63 434.162 250.844C433.635 251.058 433.084 251.165 432.508 251.165ZM430.361 245.965H434.359C434.359 245.554 434.285 245.184 434.137 244.855C433.994 244.52 433.778 244.257 433.487 244.065C433.196 243.868 432.829 243.769 432.385 243.769C431.946 243.769 431.576 243.876 431.274 244.09C430.972 244.304 430.745 244.581 430.591 244.921C430.438 245.255 430.361 245.603 430.361 245.965ZM438.164 251V242.494H440.114V243.711C440.361 243.338 440.695 243.015 441.117 242.741C441.545 242.466 442.088 242.329 442.746 242.329C443.048 242.329 443.352 242.381 443.659 242.486C443.972 242.59 444.26 242.743 444.523 242.946C444.792 243.149 445.006 243.401 445.165 243.703C445.434 243.303 445.79 242.974 446.234 242.716C446.684 242.458 447.189 242.329 447.748 242.329C448.055 242.329 448.371 242.379 448.694 242.477C449.023 242.576 449.325 242.741 449.599 242.971C449.873 243.201 450.095 243.517 450.265 243.917C450.435 244.312 450.52 244.808 450.52 245.406V251H448.521V245.645C448.521 245.222 448.447 244.89 448.299 244.649C448.151 244.408 447.959 244.238 447.723 244.139C447.493 244.035 447.246 243.983 446.983 243.983C446.747 243.983 446.5 244.029 446.243 244.123C445.99 244.216 445.774 244.369 445.593 244.583C445.417 244.797 445.329 245.085 445.329 245.447V251H443.33V245.324C443.33 245.028 443.254 244.781 443.1 244.583C442.946 244.386 442.752 244.238 442.516 244.139C442.286 244.035 442.05 243.983 441.808 243.983C441.562 243.983 441.309 244.035 441.052 244.139C440.799 244.243 440.588 244.402 440.418 244.616C440.248 244.83 440.163 245.107 440.163 245.447V251H438.164Z" fill="#1A1B1D"/>
<path d="M426.894 145C416.338 145 404.848 147.578 404.848 153.184C404.848 158.79 416.338 161.369 426.894 161.369C437.449 161.369 448.794 158.79 448.794 153.184C448.794 147.578 437.449 145 426.894 145Z" fill="white"/>
<path fill-rule="evenodd" clip-rule="evenodd" d="M426.894 165.87C418.615 165.87 409.841 164.421 404.848 160.943V190.15C404.848 195.756 416.338 198.334 426.894 198.334C437.449 198.334 448.793 195.756 448.793 190.15V161.232C443.8 164.711 435.172 165.87 426.894 165.87ZM427.729 172.827C423.599 172.827 420.827 175.233 420.827 179.88V183.182C421.223 182.986 421.675 182.874 422.156 182.874C422.637 182.874 423.09 182.986 423.514 183.182V179.851C423.514 176.829 425.183 175.29 427.729 175.29C430.275 175.29 431.944 176.829 431.944 179.851V187.1H434.631V179.851C434.66 175.178 431.859 172.827 427.729 172.827ZM413.896 181.615C414.123 181.251 414.434 180.971 414.773 180.803C415.396 180.495 416.16 180.495 416.81 180.775C417.404 181.139 417.688 181.755 417.857 182.37C418.084 183.154 418.366 183.742 419.074 184.162C419.781 184.582 420.46 184.498 421.252 184.302C421.902 184.163 422.581 184.078 423.176 184.414C423.826 184.778 424.222 185.421 424.25 186.121V186.401C424.194 187.072 423.826 187.744 423.176 188.108C422.554 188.471 421.875 188.388 421.252 188.22C420.46 188.024 419.781 187.939 419.074 188.359C418.338 188.751 418.083 189.367 417.857 190.151C417.688 190.767 417.404 191.411 416.81 191.746C416.16 192.11 415.396 192.11 414.773 191.802C414.406 191.634 414.122 191.354 413.896 190.99C413.67 190.626 413.585 190.235 413.613 189.843C413.67 189.171 414.038 188.5 414.688 188.136C415.31 187.772 415.989 187.856 416.611 188.024C417.403 188.22 418.082 188.304 418.79 187.884H418.818C420.035 187.185 420.035 185.421 418.818 184.721H418.79C418.083 184.301 417.404 184.385 416.611 184.581C415.961 184.721 415.282 184.805 414.688 184.469C414.038 184.106 413.642 183.462 413.613 182.762C413.585 182.37 413.67 181.979 413.896 181.615Z" fill="white"/>
<path d="M75 171.5C75 139.191 101.191 113 133.5 113C165.809 113 192 139.191 192 171.5C192 203.809 165.809 230 133.5 230C101.191 230 75 203.809 75 171.5Z" fill="#1A1B1D"/>
<path d="M106.855 251.165C106.263 251.165 105.701 251.071 105.169 250.885C104.642 250.693 104.198 250.394 103.836 249.988C103.48 249.582 103.255 249.059 103.161 248.417H104.922C104.999 248.729 105.133 248.984 105.325 249.182C105.522 249.379 105.753 249.525 106.016 249.618C106.285 249.706 106.562 249.75 106.847 249.75C107.357 249.75 107.768 249.662 108.081 249.486C108.394 249.311 108.55 249.039 108.55 248.672C108.55 248.403 108.462 248.189 108.287 248.03C108.117 247.871 107.837 247.751 107.448 247.668L105.835 247.298C105.111 247.139 104.533 246.876 104.099 246.508C103.666 246.141 103.447 245.623 103.441 244.953C103.436 244.449 103.562 243.999 103.82 243.604C104.077 243.209 104.461 242.9 104.971 242.675C105.481 242.444 106.109 242.329 106.855 242.329C107.848 242.329 108.643 242.551 109.241 242.996C109.844 243.434 110.154 244.062 110.17 244.879H108.468C108.407 244.512 108.235 244.227 107.949 244.024C107.664 243.815 107.294 243.711 106.839 243.711C106.367 243.711 105.98 243.802 105.679 243.983C105.377 244.164 105.226 244.441 105.226 244.814C105.226 245.071 105.339 245.274 105.564 245.422C105.794 245.57 106.142 245.697 106.608 245.801L108.139 246.171C108.577 246.281 108.937 246.429 109.216 246.615C109.496 246.802 109.713 247.007 109.866 247.232C110.025 247.452 110.135 247.679 110.195 247.915C110.261 248.145 110.294 248.359 110.294 248.557C110.294 249.105 110.151 249.574 109.866 249.963C109.586 250.347 109.189 250.644 108.673 250.852C108.163 251.06 107.557 251.165 106.855 251.165ZM113.176 253.715C112.627 253.715 112.246 253.671 112.032 253.583C111.818 253.501 111.711 253.46 111.711 253.46V252.176L112.567 252.201C112.912 252.218 113.192 252.198 113.406 252.143C113.625 252.089 113.795 252.012 113.916 251.913C114.037 251.82 114.124 251.718 114.179 251.609C114.24 251.505 114.286 251.414 114.319 251.337L114.541 250.712L111.226 242.494H113.217L115.479 248.507L117.733 242.494H119.691L116.187 251.313C115.923 251.954 115.638 252.448 115.331 252.793C115.029 253.144 114.698 253.386 114.336 253.517C113.979 253.649 113.592 253.715 113.176 253.715ZM124.176 251.165C123.584 251.165 123.021 251.071 122.49 250.885C121.963 250.693 121.519 250.394 121.157 249.988C120.8 249.582 120.575 249.059 120.482 248.417H122.243C122.319 248.729 122.454 248.984 122.646 249.182C122.843 249.379 123.074 249.525 123.337 249.618C123.606 249.706 123.883 249.75 124.168 249.75C124.678 249.75 125.089 249.662 125.402 249.486C125.714 249.311 125.871 249.039 125.871 248.672C125.871 248.403 125.783 248.189 125.607 248.03C125.437 247.871 125.158 247.751 124.768 247.668L123.156 247.298C122.432 247.139 121.853 246.876 121.42 246.508C120.987 246.141 120.767 245.623 120.762 244.953C120.756 244.449 120.883 243.999 121.14 243.604C121.398 243.209 121.782 242.9 122.292 242.675C122.802 242.444 123.43 242.329 124.176 242.329C125.169 242.329 125.964 242.551 126.562 242.996C127.165 243.434 127.475 244.062 127.491 244.879H125.788C125.728 244.512 125.555 244.227 125.27 244.024C124.985 243.815 124.615 243.711 124.16 243.711C123.688 243.711 123.301 243.802 123 243.983C122.698 244.164 122.547 244.441 122.547 244.814C122.547 245.071 122.66 245.274 122.884 245.422C123.115 245.57 123.463 245.697 123.929 245.801L125.459 246.171C125.898 246.281 126.257 246.429 126.537 246.615C126.817 246.802 127.033 247.007 127.187 247.232C127.346 247.452 127.456 247.679 127.516 247.915C127.582 248.145 127.615 248.359 127.615 248.557C127.615 249.105 127.472 249.574 127.187 249.963C126.907 250.347 126.51 250.644 125.994 250.852C125.484 251.06 124.878 251.165 124.176 251.165ZM132.752 251.066C132.077 251.066 131.553 250.978 131.18 250.803C130.813 250.622 130.558 250.367 130.415 250.037C130.273 249.708 130.201 249.316 130.201 248.861V243.909H128.819V242.494H130.259L130.761 239.968H132.2V242.486H134.101V243.909H132.2L132.209 248.787C132.209 249.039 132.236 249.226 132.291 249.346C132.351 249.462 132.445 249.538 132.571 249.577C132.702 249.61 132.875 249.626 133.089 249.626H134.142V250.893C134.027 250.937 133.857 250.975 133.632 251.008C133.413 251.047 133.119 251.066 132.752 251.066ZM139.508 251.165C138.691 251.165 137.97 250.992 137.345 250.646C136.725 250.295 136.239 249.796 135.888 249.149C135.543 248.502 135.37 247.731 135.37 246.837C135.37 245.965 135.526 245.192 135.839 244.517C136.157 243.837 136.615 243.303 137.213 242.913C137.816 242.524 138.543 242.329 139.393 242.329C140.232 242.329 140.937 242.507 141.507 242.864C142.078 243.22 142.511 243.719 142.807 244.361C143.103 244.997 143.251 245.743 143.251 246.599V247.208H137.369C137.364 247.69 137.44 248.118 137.6 248.491C137.759 248.864 137.994 249.157 138.307 249.371C138.62 249.58 139.006 249.684 139.467 249.684C139.939 249.684 140.347 249.58 140.693 249.371C141.044 249.157 141.277 248.834 141.392 248.4H143.218C143.12 248.993 142.884 249.495 142.511 249.906C142.143 250.317 141.694 250.63 141.162 250.844C140.635 251.058 140.084 251.165 139.508 251.165ZM137.361 245.965H141.359C141.359 245.554 141.285 245.184 141.137 244.855C140.994 244.52 140.778 244.257 140.487 244.065C140.196 243.868 139.829 243.769 139.385 243.769C138.946 243.769 138.576 243.876 138.274 244.09C137.972 244.304 137.745 244.581 137.591 244.921C137.438 245.255 137.361 245.603 137.361 245.965ZM145.164 251V242.494H147.114V243.711C147.361 243.338 147.695 243.015 148.117 242.741C148.545 242.466 149.088 242.329 149.746 242.329C150.048 242.329 150.352 242.381 150.659 242.486C150.972 242.59 151.26 242.743 151.523 242.946C151.792 243.149 152.006 243.401 152.165 243.703C152.434 243.303 152.79 242.974 153.234 242.716C153.684 242.458 154.189 242.329 154.748 242.329C155.055 242.329 155.371 242.379 155.694 242.477C156.023 242.576 156.325 242.741 156.599 242.971C156.873 243.201 157.095 243.517 157.265 243.917C157.435 244.312 157.52 244.808 157.52 245.406V251H155.521V245.645C155.521 245.222 155.447 244.89 155.299 244.649C155.151 244.408 154.959 244.238 154.723 244.139C154.493 244.035 154.246 243.983 153.983 243.983C153.747 243.983 153.5 244.029 153.243 244.123C152.99 244.216 152.774 244.369 152.593 244.583C152.417 244.797 152.329 245.085 152.329 245.447V251H150.33V245.324C150.33 245.028 150.254 244.781 150.1 244.583C149.946 244.386 149.752 244.238 149.516 244.139C149.286 244.035 149.05 243.983 148.808 243.983C148.562 243.983 148.309 244.035 148.052 244.139C147.799 244.243 147.588 244.402 147.418 244.616C147.248 244.83 147.163 245.107 147.163 245.447V251H145.164Z" fill="#1A1B1D"/>
<path d="M133.894 145C123.338 145 111.848 147.578 111.848 153.184C111.848 158.79 123.338 161.369 133.894 161.369C144.449 161.369 155.794 158.79 155.794 153.184C155.794 147.578 144.449 145 133.894 145Z" fill="white"/>
<path fill-rule="evenodd" clip-rule="evenodd" d="M133.894 165.87C125.615 165.87 116.841 164.421 111.848 160.943V190.15C111.848 195.756 123.338 198.334 133.894 198.334C144.449 198.334 155.793 195.756 155.793 190.15V161.232C150.8 164.711 142.172 165.87 133.894 165.87ZM134.729 172.827C130.599 172.827 127.827 175.233 127.827 179.88V183.182C128.223 182.986 128.675 182.874 129.156 182.874C129.637 182.874 130.09 182.986 130.514 183.182V179.851C130.514 176.829 132.183 175.29 134.729 175.29C137.275 175.29 138.944 176.829 138.944 179.851V187.1H141.631V179.851C141.66 175.178 138.859 172.827 134.729 172.827ZM120.896 181.615C121.123 181.251 121.434 180.971 121.773 180.803C122.396 180.495 123.16 180.495 123.81 180.775C124.404 181.139 124.688 181.755 124.857 182.37C125.084 183.154 125.366 183.742 126.074 184.162C126.781 184.582 127.46 184.498 128.252 184.302C128.902 184.163 129.581 184.078 130.176 184.414C130.826 184.778 131.222 185.421 131.25 186.121V186.401C131.194 187.072 130.826 187.744 130.176 188.108C129.554 188.471 128.875 188.388 128.252 188.22C127.46 188.024 126.781 187.939 126.074 188.359C125.338 188.751 125.083 189.367 124.857 190.151C124.688 190.767 124.404 191.411 123.81 191.746C123.16 192.11 122.396 192.11 121.773 191.802C121.406 191.634 121.122 191.354 120.896 190.99C120.67 190.626 120.585 190.235 120.613 189.843C120.67 189.171 121.038 188.5 121.688 188.136C122.31 187.772 122.989 187.856 123.611 188.024C124.403 188.22 125.082 188.304 125.79 187.884H125.818C127.035 187.185 127.035 185.421 125.818 184.721H125.79C125.083 184.301 124.404 184.385 123.611 184.581C122.961 184.721 122.282 184.805 121.688 184.469C121.038 184.106 120.642 183.462 120.613 182.762C120.585 182.37 120.67 181.979 120.896 181.615Z" fill="white"/>
<line x1="71.1213" y1="279.879" x2="204.121" y2="412.879" stroke="#961200" stroke-width="6"/>
<line y1="-3" x2="188.09" y2="-3" transform="matrix(-0.707107 0.707107 0.707107 0.707107 202 282)" stroke="#961200" stroke-width="6"/>
<path d="M77 601.5C77 569.191 103.191 543 135.5 543C167.809 543 194 569.191 194 601.5C194 633.809 167.809 660 135.5 660C103.191 660 77 633.809 77 601.5Z" fill="#0C4D31"/>
<path d="M111.477 589.5C111.016 590.297 110.154 590.833 109.167 590.833C107.694 590.833 106.5 589.639 106.5 588.167C106.5 586.694 107.694 585.5 109.167 585.5C110.154 585.5 111.016 586.036 111.477 586.833H115.833C120.252 586.833 123.834 590.415 123.834 594.833C123.834 597.779 126.221 600.167 129.167 600.167H130.5V598.834C130.5 597.361 131.694 596.167 133.167 596.167H138.5C139.973 596.167 141.167 597.361 141.167 598.834V600.167H142.5C145.446 600.167 147.834 597.779 147.834 594.833C147.834 590.415 151.416 586.833 155.834 586.833H159.834V585.5L165.167 588.167L159.834 590.833V589.5H155.834C152.888 589.5 150.501 591.888 150.501 594.833C150.501 596.882 149.73 598.751 148.463 600.167H159.834V598.834L165.167 601.5L159.834 604.167V602.834H148.463C149.73 604.249 150.501 606.118 150.501 608.167C150.501 611.113 152.888 613.5 155.834 613.5H159.834V612.167L165.167 614.834L159.834 617.5V616.167H155.834C151.416 616.167 147.834 612.585 147.834 608.167C147.834 605.221 145.446 602.834 142.5 602.834H141.167V604.167C141.167 605.64 139.973 606.834 138.5 606.834H133.167C131.694 606.834 130.5 605.64 130.5 604.167V602.834H129.167C126.221 602.834 123.834 605.221 123.834 608.167C123.834 612.585 120.252 616.167 115.833 616.167H111.477C111.016 616.964 110.154 617.5 109.167 617.5C107.694 617.5 106.5 616.306 106.5 614.834C106.5 613.361 107.694 612.167 109.167 612.167C110.154 612.167 111.016 612.703 111.477 613.5H115.833C118.779 613.5 121.167 611.113 121.167 608.167C121.167 606.118 121.937 604.249 123.204 602.834H111.477C111.016 603.631 110.154 604.167 109.167 604.167C107.694 604.167 106.5 602.973 106.5 601.5C106.5 600.027 107.694 598.834 109.167 598.834C110.154 598.834 111.016 599.37 111.477 600.167H123.204C121.937 598.751 121.167 596.882 121.167 594.833C121.167 591.888 118.779 589.5 115.833 589.5H111.477Z" fill="white"/>
<path d="M93.4444 684.93V673.034C93.4937 673.034 93.6391 673.034 93.8804 673.034C94.1217 673.034 94.4069 673.034 94.736 673.034C95.0705 673.034 95.4078 673.037 95.7478 673.042C96.0933 673.042 96.3922 673.045 96.6445 673.051C98.0924 673.078 99.2688 673.327 100.174 673.799C101.084 674.265 101.75 674.932 102.173 675.798C102.601 676.659 102.814 677.699 102.814 678.916C102.814 680.188 102.587 681.272 102.132 682.166C101.682 683.06 100.991 683.745 100.059 684.222C99.1317 684.694 97.9525 684.93 96.5211 684.93H93.4444ZM95.4763 683.276H96.554C97.3712 683.276 98.0924 683.136 98.7176 682.857C99.3428 682.571 99.8309 682.111 100.182 681.475C100.538 680.838 100.717 679.988 100.717 678.924C100.717 677.893 100.552 677.068 100.223 676.448C99.894 675.828 99.4224 675.381 98.8081 675.107C98.1939 674.827 97.4589 674.688 96.6034 674.688H95.4763V683.276ZM107.249 685.094C106.706 685.094 106.218 684.996 105.784 684.798C105.357 684.595 105.019 684.307 104.772 683.934C104.531 683.556 104.411 683.098 104.411 682.56C104.411 681.623 104.748 680.915 105.422 680.438C106.102 679.961 107.183 679.711 108.664 679.689L109.939 679.656V679.081C109.939 678.631 109.804 678.28 109.536 678.028C109.272 677.77 108.861 677.644 108.302 677.649C107.885 677.655 107.506 677.753 107.166 677.945C106.826 678.132 106.602 678.447 106.492 678.891H104.789C104.822 678.31 104.989 677.825 105.291 677.435C105.598 677.04 106.017 676.747 106.549 676.555C107.081 676.358 107.696 676.259 108.392 676.259C109.204 676.259 109.865 676.366 110.375 676.58C110.885 676.794 111.261 677.103 111.502 677.509C111.743 677.91 111.864 678.395 111.864 678.965V684.93H110.177L110.013 683.4C109.711 684.041 109.325 684.485 108.853 684.732C108.387 684.974 107.852 685.094 107.249 685.094ZM107.899 683.737C108.145 683.737 108.389 683.693 108.631 683.605C108.872 683.512 109.089 683.389 109.281 683.235C109.478 683.076 109.634 682.9 109.75 682.709C109.87 682.517 109.933 682.316 109.939 682.108V680.767L108.894 680.783C108.378 680.789 107.926 680.844 107.537 680.948C107.153 681.052 106.854 681.22 106.64 681.45C106.426 681.675 106.319 681.976 106.319 682.355C106.319 682.788 106.47 683.128 106.772 683.375C107.073 683.616 107.449 683.737 107.899 683.737ZM117.072 684.996C116.398 684.996 115.874 684.908 115.501 684.732C115.134 684.551 114.878 684.296 114.736 683.967C114.593 683.638 114.522 683.246 114.522 682.791V677.838H113.14V676.423H114.58L115.081 673.898H116.521V676.415H118.421V677.838H116.521L116.529 682.717C116.529 682.969 116.557 683.155 116.612 683.276C116.672 683.391 116.765 683.468 116.891 683.506C117.023 683.539 117.196 683.556 117.41 683.556H118.463V684.823C118.347 684.867 118.177 684.905 117.952 684.938C117.733 684.976 117.44 684.996 117.072 684.996ZM122.738 685.094C122.195 685.094 121.707 684.996 121.273 684.798C120.846 684.595 120.508 684.307 120.262 683.934C120.02 683.556 119.9 683.098 119.9 682.56C119.9 681.623 120.237 680.915 120.911 680.438C121.592 679.961 122.672 679.711 124.153 679.689L125.428 679.656V679.081C125.428 678.631 125.293 678.28 125.025 678.028C124.761 677.77 124.35 677.644 123.791 677.649C123.374 677.655 122.996 677.753 122.655 677.945C122.315 678.132 122.091 678.447 121.981 678.891H120.278C120.311 678.31 120.478 677.825 120.78 677.435C121.087 677.04 121.507 676.747 122.039 676.555C122.57 676.358 123.185 676.259 123.881 676.259C124.693 676.259 125.354 676.366 125.864 676.58C126.374 676.794 126.75 677.103 126.991 677.509C127.232 677.91 127.353 678.395 127.353 678.965V684.93H125.666L125.502 683.4C125.2 684.041 124.814 684.485 124.342 684.732C123.876 684.974 123.341 685.094 122.738 685.094ZM123.388 683.737C123.634 683.737 123.879 683.693 124.12 683.605C124.361 683.512 124.578 683.389 124.77 683.235C124.967 683.076 125.123 682.9 125.239 682.709C125.359 682.517 125.422 682.316 125.428 682.108V680.767L124.383 680.783C123.868 680.789 123.415 680.844 123.026 680.948C122.642 681.052 122.343 681.22 122.129 681.45C121.915 681.675 121.808 681.976 121.808 682.355C121.808 682.788 121.959 683.128 122.261 683.375C122.562 683.616 122.938 683.737 123.388 683.737ZM136.739 684.996C136.064 684.996 135.541 684.908 135.168 684.732C134.8 684.551 134.545 684.296 134.403 683.967C134.26 683.638 134.189 683.246 134.189 682.791V677.838H132.807V676.423H134.246L134.748 673.898H136.188V676.415H138.088V677.838H136.188L136.196 682.717C136.196 682.969 136.223 683.155 136.278 683.276C136.338 683.391 136.432 683.468 136.558 683.506C136.689 683.539 136.862 683.556 137.076 683.556H138.129V684.823C138.014 684.867 137.844 684.905 137.619 684.938C137.4 684.976 137.106 684.996 136.739 684.996ZM139.977 684.93V676.423H141.894V678.266C142.031 677.844 142.225 677.485 142.478 677.188C142.735 676.887 143.037 676.657 143.383 676.497C143.728 676.338 144.104 676.259 144.51 676.259C144.608 676.259 144.704 676.264 144.798 676.275C144.891 676.286 144.959 676.306 145.003 676.333V678.25C144.943 678.222 144.863 678.203 144.765 678.192C144.671 678.181 144.589 678.176 144.518 678.176C144.107 678.143 143.742 678.159 143.424 678.225C143.111 678.291 142.845 678.403 142.626 678.562C142.412 678.716 142.25 678.913 142.14 679.155C142.031 679.39 141.976 679.667 141.976 679.986V684.93H139.977ZM148.815 685.094C148.272 685.094 147.784 684.996 147.351 684.798C146.923 684.595 146.586 684.307 146.339 683.934C146.098 683.556 145.977 683.098 145.977 682.56C145.977 681.623 146.314 680.915 146.989 680.438C147.669 679.961 148.75 679.711 150.23 679.689L151.505 679.656V679.081C151.505 678.631 151.371 678.28 151.102 678.028C150.839 677.77 150.428 677.644 149.868 677.649C149.452 677.655 149.073 677.753 148.733 677.945C148.393 678.132 148.168 678.447 148.058 678.891H146.356C146.388 678.31 146.556 677.825 146.857 677.435C147.165 677.04 147.584 676.747 148.116 676.555C148.648 676.358 149.262 676.259 149.959 676.259C150.771 676.259 151.431 676.366 151.941 676.58C152.451 676.794 152.827 677.103 153.068 677.509C153.31 677.91 153.43 678.395 153.43 678.965V684.93H151.744L151.579 683.4C151.278 684.041 150.891 684.485 150.42 684.732C149.953 684.974 149.419 685.094 148.815 685.094ZM149.465 683.737C149.712 683.737 149.956 683.693 150.197 683.605C150.439 683.512 150.655 683.389 150.847 683.235C151.045 683.076 151.201 682.9 151.316 682.709C151.437 682.517 151.5 682.316 151.505 682.108V680.767L150.461 680.783C149.945 680.789 149.493 680.844 149.103 680.948C148.719 681.052 148.42 681.22 148.207 681.45C147.993 681.675 147.886 681.976 147.886 682.355C147.886 682.788 148.037 683.128 148.338 683.375C148.64 683.616 149.016 683.737 149.465 683.737ZM156.406 684.93V677.838H154.728V676.423H156.406V675.157C156.406 674.476 156.592 673.953 156.965 673.585C157.344 673.218 157.89 673.034 158.602 673.034H160.396L160.404 674.4H159.219C158.896 674.4 158.674 674.485 158.553 674.655C158.432 674.819 158.372 675.08 158.372 675.436V676.423H160.322V677.838H158.405V684.93H156.406ZM162.592 684.93V677.838H160.914V676.423H162.592V675.157C162.592 674.476 162.778 673.953 163.151 673.585C163.53 673.218 164.076 673.034 164.788 673.034H166.582L166.59 674.4H165.405C165.082 674.4 164.86 674.485 164.739 674.655C164.618 674.819 164.558 675.08 164.558 675.436V676.423H166.508V677.838H164.591V684.93H162.592ZM168.112 684.93V676.423H170.029V684.93H168.112ZM168.079 674.934V673.042H170.062V674.934H168.079ZM175.891 685.094C175.112 685.094 174.418 684.924 173.81 684.584C173.206 684.239 172.732 683.74 172.386 683.087C172.041 682.429 171.868 681.636 171.868 680.709C171.868 679.826 172.03 679.053 172.354 678.39C172.683 677.72 173.146 677.199 173.744 676.827C174.347 676.448 175.063 676.259 175.891 676.259C176.555 676.259 177.139 676.391 177.643 676.654C178.148 676.917 178.551 677.282 178.853 677.748C179.16 678.214 179.343 678.743 179.404 679.336H177.701C177.657 679.078 177.561 678.834 177.413 678.603C177.265 678.368 177.065 678.178 176.812 678.036C176.566 677.888 176.264 677.814 175.907 677.814C175.266 677.814 174.748 678.05 174.353 678.521C173.958 678.993 173.76 679.717 173.76 680.693C173.76 681.592 173.947 682.308 174.32 682.84C174.698 683.372 175.238 683.638 175.94 683.638C176.291 683.638 176.593 683.561 176.845 683.408C177.098 683.249 177.295 683.054 177.438 682.824C177.586 682.588 177.679 682.352 177.717 682.116H179.379C179.33 682.692 179.151 683.205 178.844 683.655C178.537 684.104 178.131 684.458 177.627 684.716C177.122 684.968 176.544 685.094 175.891 685.094Z" fill="#1A1B1D"/>
<path d="M136.707 452.293C136.317 451.902 135.683 451.902 135.293 452.293L128.929 458.657C128.538 459.047 128.538 459.681 128.929 460.071C129.319 460.462 129.953 460.462 130.343 460.071L136 454.414L141.657 460.071C142.047 460.462 142.681 460.462 143.071 460.071C143.462 459.681 143.462 459.047 143.071 458.657L136.707 452.293ZM136 527L137 527L137 453L136 453L135 453L135 527L136 527Z" fill="black"/>
</svg>
