<svg width="1020" height="528" viewBox="0 0 1020 528" fill="none" xmlns="http://www.w3.org/2000/svg">
<rect y="60" width="498" height="468" rx="20" fill="#F5F6F6"/>
<rect x="522" y="60" width="498" height="468" rx="20" fill="#F5F6F6"/>
<path d="M130.918 42V18.864H139.43C141.115 18.864 142.624 19.1573 143.958 19.744C145.291 20.32 146.342 21.1733 147.11 22.304C147.888 23.4347 148.278 24.816 148.278 26.448C148.278 27.984 147.936 29.296 147.254 30.384C146.571 31.472 145.611 32.304 144.374 32.88C143.147 33.456 141.702 33.744 140.038 33.744H135.622V42H130.918ZM135.574 30.128H139.91C141.083 30.128 142.043 29.7547 142.79 29.008C143.536 28.2507 143.91 27.3173 143.91 26.208C143.91 25.056 143.515 24.144 142.726 23.472C141.936 22.7893 140.976 22.448 139.846 22.448H135.574V30.128ZM151.121 42V25.456H155.617V29.376C155.883 28.5333 156.257 27.7973 156.737 27.168C157.227 26.528 157.819 26.032 158.513 25.68C159.206 25.3173 159.99 25.136 160.865 25.136C161.014 25.136 161.153 25.1467 161.281 25.168C161.419 25.1787 161.521 25.2 161.585 25.232V29.68C161.489 29.6373 161.371 29.6107 161.233 29.6C161.105 29.5893 160.987 29.5787 160.881 29.568C159.963 29.4933 159.179 29.52 158.529 29.648C157.878 29.776 157.35 29.9947 156.945 30.304C156.539 30.6133 156.246 30.992 156.065 31.44C155.883 31.888 155.793 32.3893 155.793 32.944V42H151.121ZM171.413 42.32C169.792 42.32 168.378 41.9733 167.173 41.28C165.978 40.5867 165.05 39.6053 164.389 38.336C163.738 37.0667 163.413 35.5627 163.413 33.824C163.413 32.0853 163.738 30.5653 164.389 29.264C165.05 27.9627 165.978 26.9493 167.173 26.224C168.378 25.4987 169.797 25.136 171.429 25.136C173.061 25.136 174.474 25.4933 175.669 26.208C176.864 26.912 177.786 27.9147 178.437 29.216C179.088 30.5173 179.413 32.0533 179.413 33.824C179.413 35.488 179.093 36.96 178.453 38.24C177.824 39.5093 176.912 40.5067 175.717 41.232C174.533 41.9573 173.098 42.32 171.413 42.32ZM171.429 38.848C172.25 38.848 172.912 38.608 173.413 38.128C173.914 37.648 174.277 37.0187 174.501 36.24C174.725 35.4507 174.837 34.592 174.837 33.664C174.837 32.7893 174.736 31.9627 174.533 31.184C174.33 30.4053 173.978 29.776 173.477 29.296C172.976 28.816 172.293 28.576 171.429 28.576C170.608 28.576 169.941 28.8053 169.429 29.264C168.928 29.712 168.56 30.3253 168.325 31.104C168.09 31.872 167.973 32.7253 167.973 33.664C167.973 34.528 168.08 35.36 168.293 36.16C168.506 36.9493 168.864 37.5947 169.365 38.096C169.866 38.5973 170.554 38.848 171.429 38.848ZM188.779 42.32C186.56 42.32 184.832 41.5573 183.595 40.032C182.358 38.496 181.739 36.3627 181.739 33.632C181.739 31.904 181.99 30.4053 182.491 29.136C182.992 27.8667 183.734 26.8853 184.715 26.192C185.696 25.488 186.896 25.136 188.315 25.136C188.912 25.136 189.467 25.2053 189.979 25.344C190.502 25.472 190.976 25.6533 191.403 25.888C191.83 26.1227 192.203 26.3947 192.523 26.704C192.843 27.0133 193.104 27.344 193.307 27.696V18.224H197.995V42H194.603L194.075 38.608C193.915 39.0667 193.702 39.5147 193.435 39.952C193.179 40.3893 192.843 40.7893 192.427 41.152C192.011 41.504 191.499 41.7867 190.891 42C190.294 42.2133 189.59 42.32 188.779 42.32ZM189.803 38.96C190.976 38.96 191.851 38.5493 192.427 37.728C193.014 36.9067 193.307 35.52 193.307 33.568C193.296 32.4373 193.163 31.4987 192.907 30.752C192.651 30.0053 192.267 29.4507 191.755 29.088C191.254 28.7147 190.614 28.528 189.835 28.528C188.822 28.528 187.979 28.9173 187.307 29.696C186.635 30.464 186.299 31.7547 186.299 33.568C186.299 35.4133 186.614 36.7733 187.243 37.648C187.872 38.5227 188.726 38.96 189.803 38.96ZM208.008 42.32C207.24 42.32 206.483 42.2027 205.736 41.968C205 41.7333 204.328 41.3867 203.72 40.928C203.112 40.4693 202.621 39.904 202.248 39.232C201.885 38.56 201.704 37.7813 201.704 36.896V25.456H206.376V36.304C206.376 37.072 206.627 37.7013 207.128 38.192C207.629 38.6827 208.365 38.928 209.336 38.928C210.253 38.928 210.979 38.6933 211.512 38.224C212.056 37.744 212.328 37.0773 212.328 36.224V25.456H216.952V42H213.432L212.888 38.72C212.696 39.6907 212.333 40.4373 211.8 40.96C211.277 41.472 210.675 41.824 209.992 42.016C209.32 42.2187 208.659 42.32 208.008 42.32ZM228.063 42.32C226.527 42.32 225.156 41.9787 223.951 41.296C222.746 40.6133 221.796 39.6373 221.103 38.368C220.42 37.088 220.079 35.5627 220.079 33.792C220.079 32.0853 220.41 30.5813 221.071 29.28C221.732 27.9787 222.66 26.9653 223.855 26.24C225.06 25.504 226.463 25.136 228.063 25.136C229.45 25.136 230.644 25.4187 231.647 25.984C232.66 26.5493 233.455 27.312 234.031 28.272C234.618 29.232 234.954 30.304 235.039 31.488H231.151C231.076 31.0507 230.922 30.6187 230.687 30.192C230.452 29.7547 230.122 29.3973 229.695 29.12C229.268 28.832 228.735 28.688 228.095 28.688C227.007 28.688 226.122 29.1093 225.439 29.952C224.767 30.784 224.431 32.0533 224.431 33.76C224.431 35.3707 224.762 36.6507 225.423 37.6C226.084 38.5387 227.007 39.008 228.191 39.008C228.82 39.008 229.343 38.8533 229.759 38.544C230.186 38.2347 230.516 37.8667 230.751 37.44C230.986 37.0027 231.135 36.5973 231.199 36.224H234.991C234.916 37.3653 234.586 38.4 233.999 39.328C233.412 40.2453 232.612 40.976 231.599 41.52C230.596 42.0533 229.418 42.32 228.063 42.32ZM244.888 42.176C243.427 42.176 242.296 41.9893 241.496 41.616C240.707 41.2427 240.157 40.72 239.848 40.048C239.549 39.376 239.4 38.5973 239.4 37.712V28.704H236.712V25.456H239.544L240.728 20.464H244.056V25.44H247.736V28.704H244.056L244.088 37.52C244.088 37.9253 244.136 38.2293 244.232 38.432C244.339 38.624 244.499 38.752 244.712 38.816C244.936 38.8693 245.219 38.896 245.56 38.896H247.784V41.776C247.56 41.872 247.224 41.9627 246.776 42.048C246.328 42.1333 245.699 42.176 244.888 42.176ZM265.136 42.32C263.6 42.32 262.229 41.9787 261.024 41.296C259.818 40.6133 258.869 39.6373 258.176 38.368C257.493 37.088 257.152 35.5627 257.152 33.792C257.152 32.0853 257.482 30.5813 258.144 29.28C258.805 27.9787 259.733 26.9653 260.928 26.24C262.133 25.504 263.536 25.136 265.136 25.136C266.522 25.136 267.717 25.4187 268.72 25.984C269.733 26.5493 270.528 27.312 271.104 28.272C271.69 29.232 272.026 30.304 272.112 31.488H268.224C268.149 31.0507 267.994 30.6187 267.76 30.192C267.525 29.7547 267.194 29.3973 266.768 29.12C266.341 28.832 265.808 28.688 265.168 28.688C264.08 28.688 263.194 29.1093 262.512 29.952C261.84 30.784 261.504 32.0533 261.504 33.76C261.504 35.3707 261.834 36.6507 262.496 37.6C263.157 38.5387 264.08 39.008 265.264 39.008C265.893 39.008 266.416 38.8533 266.832 38.544C267.258 38.2347 267.589 37.8667 267.824 37.44C268.058 37.0027 268.208 36.5973 268.272 36.224H272.064C271.989 37.3653 271.658 38.4 271.072 39.328C270.485 40.2453 269.685 40.976 268.672 41.52C267.669 42.0533 266.49 42.32 265.136 42.32ZM280.174 42.32C279.129 42.32 278.179 42.1227 277.326 41.728C276.483 41.3333 275.817 40.7627 275.326 40.016C274.835 39.2587 274.59 38.3413 274.59 37.264C274.59 35.4507 275.267 34.0747 276.622 33.136C277.977 32.1867 280.115 31.696 283.038 31.664L285.118 31.632V30.64C285.118 29.8827 284.894 29.3013 284.446 28.896C284.009 28.48 283.321 28.2773 282.382 28.288C281.71 28.2987 281.065 28.4587 280.446 28.768C279.838 29.0773 279.417 29.616 279.182 30.384H275.294C275.358 29.1893 275.705 28.208 276.334 27.44C276.974 26.6613 277.833 26.0853 278.91 25.712C279.987 25.328 281.219 25.136 282.606 25.136C284.291 25.136 285.646 25.3493 286.67 25.776C287.694 26.192 288.435 26.7947 288.894 27.584C289.363 28.3627 289.598 29.2907 289.598 30.368V42H285.694L285.31 39.152C284.745 40.3467 284.035 41.1733 283.182 41.632C282.339 42.0907 281.337 42.32 280.174 42.32ZM281.758 39.248C282.174 39.248 282.579 39.1733 282.974 39.024C283.379 38.864 283.742 38.656 284.062 38.4C284.382 38.1333 284.633 37.8347 284.814 37.504C285.006 37.1733 285.107 36.832 285.118 36.48V34.032L283.438 34.064C282.659 34.0747 281.934 34.1707 281.262 34.352C280.59 34.5227 280.046 34.8053 279.63 35.2C279.225 35.5947 279.022 36.128 279.022 36.8C279.022 37.568 279.283 38.1707 279.806 38.608C280.339 39.0347 280.99 39.248 281.758 39.248ZM299.849 42.176C298.388 42.176 297.257 41.9893 296.457 41.616C295.668 41.2427 295.118 40.72 294.809 40.048C294.51 39.376 294.361 38.5973 294.361 37.712V28.704H291.673V25.456H294.505L295.689 20.464H299.017V25.44H302.697V28.704H299.017L299.049 37.52C299.049 37.9253 299.097 38.2293 299.193 38.432C299.3 38.624 299.46 38.752 299.673 38.816C299.897 38.8693 300.18 38.896 300.521 38.896H302.745V41.776C302.521 41.872 302.185 41.9627 301.737 42.048C301.289 42.1333 300.66 42.176 299.849 42.176ZM310.826 42.32C309.781 42.32 308.832 42.1227 307.978 41.728C307.136 41.3333 306.469 40.7627 305.978 40.016C305.488 39.2587 305.242 38.3413 305.242 37.264C305.242 35.4507 305.92 34.0747 307.274 33.136C308.629 32.1867 310.768 31.696 313.69 31.664L315.77 31.632V30.64C315.77 29.8827 315.546 29.3013 315.098 28.896C314.661 28.48 313.973 28.2773 313.034 28.288C312.362 28.2987 311.717 28.4587 311.098 28.768C310.49 29.0773 310.069 29.616 309.834 30.384H305.946C306.01 29.1893 306.357 28.208 306.986 27.44C307.626 26.6613 308.485 26.0853 309.562 25.712C310.64 25.328 311.872 25.136 313.258 25.136C314.944 25.136 316.298 25.3493 317.322 25.776C318.346 26.192 319.088 26.7947 319.546 27.584C320.016 28.3627 320.25 29.2907 320.25 30.368V42H316.346L315.962 39.152C315.397 40.3467 314.688 41.1733 313.834 41.632C312.992 42.0907 311.989 42.32 310.826 42.32ZM312.41 39.248C312.826 39.248 313.232 39.1733 313.626 39.024C314.032 38.864 314.394 38.656 314.714 38.4C315.034 38.1333 315.285 37.8347 315.466 37.504C315.658 37.1733 315.76 36.832 315.77 36.48V34.032L314.09 34.064C313.312 34.0747 312.586 34.1707 311.914 34.352C311.242 34.5227 310.698 34.8053 310.282 35.2C309.877 35.5947 309.674 36.128 309.674 36.8C309.674 37.568 309.936 38.1707 310.458 38.608C310.992 39.0347 311.642 39.248 312.41 39.248ZM329.239 42.288C328.023 42.288 327.058 42.144 326.343 41.856C325.629 41.568 325.101 41.1893 324.759 40.72C324.418 40.24 324.199 39.712 324.103 39.136C324.007 38.5493 323.959 37.9573 323.959 37.36V18.224H328.535V36.784C328.535 37.392 328.663 37.888 328.919 38.272C329.186 38.6453 329.682 38.8747 330.407 38.96L331.191 39.008V41.888C330.871 41.9947 330.546 42.0853 330.215 42.16C329.885 42.2453 329.559 42.288 329.239 42.288ZM340.658 42.32C339.037 42.32 337.623 41.9733 336.418 41.28C335.223 40.5867 334.295 39.6053 333.634 38.336C332.983 37.0667 332.658 35.5627 332.658 33.824C332.658 32.0853 332.983 30.5653 333.634 29.264C334.295 27.9627 335.223 26.9493 336.418 26.224C337.623 25.4987 339.042 25.136 340.674 25.136C342.306 25.136 343.719 25.4933 344.914 26.208C346.109 26.912 347.031 27.9147 347.682 29.216C348.333 30.5173 348.658 32.0533 348.658 33.824C348.658 35.488 348.338 36.96 347.698 38.24C347.069 39.5093 346.157 40.5067 344.962 41.232C343.778 41.9573 342.343 42.32 340.658 42.32ZM340.674 38.848C341.495 38.848 342.157 38.608 342.658 38.128C343.159 37.648 343.522 37.0187 343.746 36.24C343.97 35.4507 344.082 34.592 344.082 33.664C344.082 32.7893 343.981 31.9627 343.778 31.184C343.575 30.4053 343.223 29.776 342.722 29.296C342.221 28.816 341.538 28.576 340.674 28.576C339.853 28.576 339.186 28.8053 338.674 29.264C338.173 29.712 337.805 30.3253 337.57 31.104C337.335 31.872 337.218 32.7253 337.218 33.664C337.218 34.528 337.325 35.36 337.538 36.16C337.751 36.9493 338.109 37.5947 338.61 38.096C339.111 38.5973 339.799 38.848 340.674 38.848ZM359.229 47.472C356.285 47.472 354.045 47.0987 352.509 46.352C350.984 45.6053 350.221 44.624 350.221 43.408C350.221 42.8427 350.365 42.368 350.653 41.984C350.952 41.6 351.299 41.296 351.693 41.072C352.099 40.8373 352.467 40.6613 352.797 40.544C353.139 40.416 353.352 40.3307 353.437 40.288C353.267 40.192 353.016 40.0533 352.685 39.872C352.365 39.68 352.072 39.424 351.805 39.104C351.539 38.7733 351.405 38.3467 351.405 37.824C351.405 37.2373 351.683 36.6933 352.237 36.192C352.803 35.6907 353.656 35.344 354.797 35.152C353.709 34.64 352.877 33.9467 352.301 33.072C351.736 32.1973 351.453 31.3013 351.453 30.384C351.453 29.296 351.795 28.3627 352.477 27.584C353.16 26.8053 354.093 26.2133 355.277 25.808C356.461 25.4027 357.8 25.2 359.293 25.2C360.424 25.2 361.352 25.3227 362.077 25.568C362.813 25.8027 363.491 26.112 364.109 26.496C364.355 26.4 364.675 26.2773 365.069 26.128C365.475 25.968 365.912 25.7973 366.381 25.616C366.861 25.424 367.325 25.2373 367.773 25.056C368.221 24.864 368.621 24.6933 368.973 24.544L368.941 28.16L366.093 28.624C366.2 28.912 366.285 29.2213 366.349 29.552C366.413 29.8827 366.445 30.1547 366.445 30.368C366.445 31.328 366.163 32.224 365.597 33.056C365.043 33.888 364.211 34.56 363.101 35.072C361.992 35.584 360.611 35.84 358.957 35.84C358.765 35.84 358.499 35.8347 358.157 35.824C357.816 35.8133 357.539 35.7973 357.325 35.776C356.707 35.808 356.275 35.888 356.029 36.016C355.795 36.144 355.677 36.2933 355.677 36.464C355.677 36.72 355.917 36.8907 356.397 36.976C356.877 37.0507 357.603 37.12 358.573 37.184C358.925 37.2053 359.405 37.232 360.013 37.264C360.621 37.296 361.288 37.3387 362.013 37.392C364.04 37.5307 365.549 38.032 366.541 38.896C367.544 39.7493 368.045 40.8267 368.045 42.128C368.045 43.6747 367.309 44.9493 365.837 45.952C364.376 46.9653 362.173 47.472 359.229 47.472ZM359.981 44.864C361.272 44.864 362.195 44.704 362.749 44.384C363.315 44.064 363.597 43.6053 363.597 43.008C363.597 42.5067 363.379 42.1013 362.941 41.792C362.515 41.472 361.896 41.2853 361.085 41.232L357.293 40.976C356.792 40.9547 356.355 41.0293 355.981 41.2C355.608 41.3707 355.315 41.6053 355.101 41.904C354.899 42.2027 354.797 42.5227 354.797 42.864C354.797 43.5573 355.219 44.064 356.061 44.384C356.904 44.704 358.211 44.864 359.981 44.864ZM359.101 33.232C359.987 33.232 360.696 32.992 361.229 32.512C361.763 32.0213 362.029 31.36 362.029 30.528C362.029 29.664 361.763 28.9707 361.229 28.448C360.696 27.9253 359.987 27.664 359.101 27.664C358.216 27.664 357.501 27.9253 356.957 28.448C356.413 28.9707 356.141 29.664 356.141 30.528C356.141 31.3493 356.403 32.0053 356.925 32.496C357.459 32.9867 358.184 33.232 359.101 33.232Z" fill="black"/>
<path d="M655.17 42.32C653.015 42.32 651.154 41.8187 649.586 40.816C648.018 39.8133 646.807 38.4053 645.954 36.592C645.111 34.7787 644.69 32.6613 644.69 30.24C644.69 27.808 645.111 25.7227 645.954 23.984C646.796 22.2347 648.002 20.8907 649.57 19.952C651.138 19.0133 653.004 18.544 655.17 18.544C656.908 18.544 658.455 18.896 659.81 19.6C661.175 20.2933 662.274 21.2427 663.106 22.448C663.948 23.6533 664.444 25.0133 664.594 26.528H659.698C659.548 25.728 659.276 25.0187 658.882 24.4C658.487 23.7707 657.97 23.28 657.33 22.928C656.69 22.5653 655.922 22.384 655.026 22.384C653.948 22.384 653.02 22.6453 652.242 23.168C651.463 23.6907 650.866 24.5333 650.45 25.696C650.034 26.8587 649.826 28.3947 649.826 30.304C649.826 33.184 650.284 35.2693 651.202 36.56C652.13 37.84 653.404 38.48 655.026 38.48C655.922 38.48 656.69 38.2773 657.33 37.872C657.97 37.456 658.487 36.912 658.882 36.24C659.276 35.5573 659.548 34.8107 659.698 34H664.594C664.455 35.0987 664.188 36.1493 663.794 37.152C663.399 38.144 662.839 39.0293 662.114 39.808C661.388 40.5867 660.455 41.2 659.314 41.648C658.172 42.096 656.791 42.32 655.17 42.32ZM674.138 42.32C673.37 42.32 672.613 42.2027 671.866 41.968C671.13 41.7333 670.458 41.3867 669.85 40.928C669.242 40.4693 668.752 39.904 668.378 39.232C668.016 38.56 667.834 37.7813 667.834 36.896V25.456H672.506V36.304C672.506 37.072 672.757 37.7013 673.258 38.192C673.76 38.6827 674.496 38.928 675.466 38.928C676.384 38.928 677.109 38.6933 677.642 38.224C678.186 37.744 678.458 37.0773 678.458 36.224V25.456H683.082V42H679.562L679.018 38.72C678.826 39.6907 678.464 40.4373 677.93 40.96C677.408 41.472 676.805 41.824 676.122 42.016C675.45 42.2187 674.789 42.32 674.138 42.32ZM693.65 42.32C692.498 42.32 691.388 42.1333 690.322 41.76C689.266 41.376 688.364 40.7787 687.618 39.968C686.882 39.1467 686.418 38.0853 686.226 36.784H690.258C690.407 37.3707 690.663 37.8347 691.026 38.176C691.399 38.5173 691.82 38.7627 692.29 38.912C692.759 39.0507 693.207 39.12 693.634 39.12C694.53 39.12 695.25 38.9813 695.794 38.704C696.348 38.416 696.626 37.9787 696.626 37.392C696.626 36.944 696.46 36.5867 696.13 36.32C695.81 36.0533 695.276 35.8507 694.53 35.712L691.618 35.104C690.156 34.7947 688.978 34.272 688.082 33.536C687.196 32.7893 686.748 31.7333 686.738 30.368C686.727 29.376 686.983 28.4853 687.506 27.696C688.039 26.9067 688.823 26.2827 689.858 25.824C690.903 25.3653 692.178 25.136 693.682 25.136C695.719 25.136 697.346 25.584 698.562 26.48C699.788 27.376 700.412 28.64 700.434 30.272H696.53C696.412 29.632 696.092 29.1413 695.57 28.8C695.058 28.448 694.407 28.272 693.618 28.272C692.818 28.272 692.156 28.416 691.634 28.704C691.111 28.992 690.85 29.4293 690.85 30.016C690.85 30.4533 691.063 30.8 691.49 31.056C691.916 31.3013 692.578 31.5147 693.474 31.696L696.162 32.304C697.09 32.528 697.842 32.8373 698.418 33.232C699.004 33.616 699.458 34.0373 699.778 34.496C700.098 34.9547 700.316 35.4187 700.434 35.888C700.562 36.3467 700.626 36.7627 700.626 37.136C700.626 38.2347 700.332 39.1733 699.746 39.952C699.159 40.72 698.343 41.3067 697.298 41.712C696.252 42.1173 695.036 42.32 693.65 42.32ZM710.862 42.176C709.401 42.176 708.27 41.9893 707.47 41.616C706.681 41.2427 706.132 40.72 705.822 40.048C705.524 39.376 705.374 38.5973 705.374 37.712V28.704H702.686V25.456H705.518L706.702 20.464H710.03V25.44H713.71V28.704H710.03L710.062 37.52C710.062 37.9253 710.11 38.2293 710.206 38.432C710.313 38.624 710.473 38.752 710.686 38.816C710.91 38.8693 711.193 38.896 711.534 38.896H713.758V41.776C713.534 41.872 713.198 41.9627 712.75 42.048C712.302 42.1333 711.673 42.176 710.862 42.176ZM723.643 42.32C722.022 42.32 720.609 41.9733 719.403 41.28C718.209 40.5867 717.281 39.6053 716.619 38.336C715.969 37.0667 715.643 35.5627 715.643 33.824C715.643 32.0853 715.969 30.5653 716.619 29.264C717.281 27.9627 718.209 26.9493 719.403 26.224C720.609 25.4987 722.027 25.136 723.659 25.136C725.291 25.136 726.705 25.4933 727.899 26.208C729.094 26.912 730.017 27.9147 730.667 29.216C731.318 30.5173 731.643 32.0533 731.643 33.824C731.643 35.488 731.323 36.96 730.683 38.24C730.054 39.5093 729.142 40.5067 727.947 41.232C726.763 41.9573 725.329 42.32 723.643 42.32ZM723.659 38.848C724.481 38.848 725.142 38.608 725.643 38.128C726.145 37.648 726.507 37.0187 726.731 36.24C726.955 35.4507 727.067 34.592 727.067 33.664C727.067 32.7893 726.966 31.9627 726.763 31.184C726.561 30.4053 726.209 29.776 725.707 29.296C725.206 28.816 724.523 28.576 723.659 28.576C722.838 28.576 722.171 28.8053 721.659 29.264C721.158 29.712 720.79 30.3253 720.555 31.104C720.321 31.872 720.203 32.7253 720.203 33.664C720.203 34.528 720.31 35.36 720.523 36.16C720.737 36.9493 721.094 37.5947 721.595 38.096C722.097 38.5973 722.785 38.848 723.659 38.848ZM734.754 42V25.456H739.33V27.792C739.831 27.0667 740.503 26.4427 741.346 25.92C742.199 25.3973 743.271 25.136 744.562 25.136C745.127 25.136 745.703 25.2373 746.29 25.44C746.876 25.6427 747.426 25.9413 747.938 26.336C748.46 26.72 748.882 27.2053 749.202 27.792C749.735 27.0347 750.434 26.4053 751.298 25.904C752.172 25.392 753.143 25.136 754.21 25.136C754.828 25.136 755.452 25.2373 756.082 25.44C756.722 25.6427 757.308 25.9733 757.842 26.432C758.375 26.8907 758.802 27.504 759.122 28.272C759.452 29.0293 759.618 29.968 759.618 31.088V42H754.946V31.664C754.946 31.0027 754.812 30.4747 754.546 30.08C754.29 29.6747 753.959 29.3867 753.554 29.216C753.159 29.0347 752.738 28.944 752.29 28.944C751.874 28.944 751.452 29.0293 751.026 29.2C750.599 29.36 750.236 29.6213 749.938 29.984C749.639 30.3467 749.49 30.8213 749.49 31.408V42H744.834V31.248C744.834 30.7467 744.7 30.3253 744.434 29.984C744.167 29.6427 743.831 29.3867 743.426 29.216C743.031 29.0347 742.626 28.944 742.21 28.944C741.783 28.944 741.356 29.0347 740.93 29.216C740.503 29.3867 740.146 29.6587 739.858 30.032C739.57 30.3947 739.426 30.8533 739.426 31.408V42H734.754ZM770.93 42.32C769.287 42.32 767.842 41.9787 766.594 41.296C765.357 40.6027 764.391 39.6267 763.698 38.368C763.005 37.1093 762.658 35.6267 762.658 33.92C762.658 32.2667 762.973 30.7787 763.602 29.456C764.242 28.1227 765.159 27.072 766.354 26.304C767.549 25.5253 768.994 25.136 770.69 25.136C772.375 25.136 773.789 25.4933 774.93 26.208C776.071 26.912 776.935 27.8987 777.522 29.168C778.109 30.4267 778.402 31.8827 778.402 33.536V34.8H767.282C767.282 35.6427 767.421 36.3787 767.698 37.008C767.975 37.6267 768.375 38.1067 768.898 38.448C769.431 38.7787 770.071 38.944 770.818 38.944C771.618 38.944 772.317 38.7733 772.914 38.432C773.511 38.0907 773.933 37.5307 774.178 36.752H778.386C778.194 37.9253 777.725 38.928 776.978 39.76C776.231 40.592 775.325 41.2267 774.258 41.664C773.191 42.1013 772.082 42.32 770.93 42.32ZM767.282 32.016H774.034C774.034 31.3547 773.906 30.7467 773.65 30.192C773.405 29.6373 773.031 29.2 772.53 28.88C772.039 28.56 771.421 28.4 770.674 28.4C769.959 28.4 769.346 28.576 768.834 28.928C768.333 29.2693 767.943 29.7173 767.666 30.272C767.399 30.8267 767.271 31.408 767.282 32.016ZM781.688 42V25.456H786.184V29.376C786.45 28.5333 786.824 27.7973 787.304 27.168C787.794 26.528 788.386 26.032 789.08 25.68C789.773 25.3173 790.557 25.136 791.432 25.136C791.581 25.136 791.72 25.1467 791.848 25.168C791.986 25.1787 792.088 25.2 792.152 25.232V29.68C792.056 29.6373 791.938 29.6107 791.8 29.6C791.672 29.5893 791.554 29.5787 791.448 29.568C790.53 29.4933 789.746 29.52 789.095 29.648C788.445 29.776 787.917 29.9947 787.512 30.304C787.106 30.6133 786.813 30.992 786.632 31.44C786.45 31.888 786.36 32.3893 786.36 32.944V42H781.688ZM808.962 42.32C807.341 42.32 805.928 41.9733 804.722 41.28C803.528 40.5867 802.6 39.6053 801.938 38.336C801.288 37.0667 800.962 35.5627 800.962 33.824C800.962 32.0853 801.288 30.5653 801.938 29.264C802.6 27.9627 803.528 26.9493 804.722 26.224C805.928 25.4987 807.346 25.136 808.978 25.136C810.61 25.136 812.024 25.4933 813.218 26.208C814.413 26.912 815.336 27.9147 815.986 29.216C816.637 30.5173 816.962 32.0533 816.962 33.824C816.962 35.488 816.642 36.96 816.002 38.24C815.373 39.5093 814.461 40.5067 813.266 41.232C812.082 41.9573 810.648 42.32 808.962 42.32ZM808.978 38.848C809.8 38.848 810.461 38.608 810.962 38.128C811.464 37.648 811.826 37.0187 812.05 36.24C812.274 35.4507 812.386 34.592 812.386 33.664C812.386 32.7893 812.285 31.9627 812.082 31.184C811.88 30.4053 811.528 29.776 811.026 29.296C810.525 28.816 809.842 28.576 808.978 28.576C808.157 28.576 807.49 28.8053 806.978 29.264C806.477 29.712 806.109 30.3253 805.874 31.104C805.64 31.872 805.522 32.7253 805.522 33.664C805.522 34.528 805.629 35.36 805.842 36.16C806.056 36.9493 806.413 37.5947 806.914 38.096C807.416 38.5973 808.104 38.848 808.978 38.848ZM820.072 42V25.456H824.568V29.376C824.835 28.5333 825.208 27.7973 825.688 27.168C826.179 26.528 826.771 26.032 827.464 25.68C828.158 25.3173 828.942 25.136 829.816 25.136C829.966 25.136 830.104 25.1467 830.232 25.168C830.371 25.1787 830.472 25.2 830.536 25.232V29.68C830.44 29.6373 830.323 29.6107 830.184 29.6C830.056 29.5893 829.939 29.5787 829.832 29.568C828.915 29.4933 828.131 29.52 827.48 29.648C826.83 29.776 826.302 29.9947 825.896 30.304C825.491 30.6133 825.198 30.992 825.016 31.44C824.835 31.888 824.744 32.3893 824.744 32.944V42H820.072ZM839.405 42.32C837.186 42.32 835.458 41.5573 834.221 40.032C832.983 38.496 832.365 36.3627 832.365 33.632C832.365 31.904 832.615 30.4053 833.117 29.136C833.618 27.8667 834.359 26.8853 835.341 26.192C836.322 25.488 837.522 25.136 838.941 25.136C839.538 25.136 840.093 25.2053 840.605 25.344C841.127 25.472 841.602 25.6533 842.029 25.888C842.455 26.1227 842.829 26.3947 843.149 26.704C843.469 27.0133 843.73 27.344 843.933 27.696V18.224H848.621V42H845.229L844.701 38.608C844.541 39.0667 844.327 39.5147 844.061 39.952C843.805 40.3893 843.469 40.7893 843.053 41.152C842.637 41.504 842.125 41.7867 841.517 42C840.919 42.2133 840.215 42.32 839.405 42.32ZM840.429 38.96C841.602 38.96 842.477 38.5493 843.053 37.728C843.639 36.9067 843.933 35.52 843.933 33.568C843.922 32.4373 843.789 31.4987 843.533 30.752C843.277 30.0053 842.893 29.4507 842.381 29.088C841.879 28.7147 841.239 28.528 840.461 28.528C839.447 28.528 838.605 28.9173 837.933 29.696C837.261 30.464 836.925 31.7547 836.925 33.568C836.925 35.4133 837.239 36.7733 837.869 37.648C838.498 38.5227 839.351 38.96 840.429 38.96ZM860.137 42.32C858.495 42.32 857.049 41.9787 855.801 41.296C854.564 40.6027 853.599 39.6267 852.905 38.368C852.212 37.1093 851.865 35.6267 851.865 33.92C851.865 32.2667 852.18 30.7787 852.809 29.456C853.449 28.1227 854.367 27.072 855.561 26.304C856.756 25.5253 858.201 25.136 859.897 25.136C861.583 25.136 862.996 25.4933 864.137 26.208C865.279 26.912 866.143 27.8987 866.729 29.168C867.316 30.4267 867.609 31.8827 867.609 33.536V34.8H856.489C856.489 35.6427 856.628 36.3787 856.905 37.008C857.183 37.6267 857.583 38.1067 858.105 38.448C858.639 38.7787 859.279 38.944 860.025 38.944C860.825 38.944 861.524 38.7733 862.121 38.432C862.719 38.0907 863.14 37.5307 863.385 36.752H867.593C867.401 37.9253 866.932 38.928 866.185 39.76C865.439 40.592 864.532 41.2267 863.465 41.664C862.399 42.1013 861.289 42.32 860.137 42.32ZM856.489 32.016H863.241C863.241 31.3547 863.113 30.7467 862.857 30.192C862.612 29.6373 862.239 29.2 861.737 28.88C861.247 28.56 860.628 28.4 859.881 28.4C859.167 28.4 858.553 28.576 858.041 28.928C857.54 29.2693 857.151 29.7173 856.873 30.272C856.607 30.8267 856.479 31.408 856.489 32.016ZM870.895 42V25.456H875.391V29.376C875.658 28.5333 876.031 27.7973 876.511 27.168C877.002 26.528 877.594 26.032 878.287 25.68C878.98 25.3173 879.764 25.136 880.639 25.136C880.788 25.136 880.927 25.1467 881.055 25.168C881.194 25.1787 881.295 25.2 881.359 25.232V29.68C881.263 29.6373 881.146 29.6107 881.007 29.6C880.879 29.5893 880.762 29.5787 880.655 29.568C879.738 29.4933 878.954 29.52 878.303 29.648C877.652 29.776 877.124 29.9947 876.719 30.304C876.314 30.6133 876.02 30.992 875.839 31.44C875.658 31.888 875.567 32.3893 875.567 32.944V42H870.895ZM890.627 42.32C889.475 42.32 888.366 42.1333 887.299 41.76C886.243 41.376 885.342 40.7787 884.595 39.968C883.859 39.1467 883.395 38.0853 883.203 36.784H887.235C887.385 37.3707 887.641 37.8347 888.003 38.176C888.377 38.5173 888.798 38.7627 889.267 38.912C889.737 39.0507 890.185 39.12 890.611 39.12C891.507 39.12 892.227 38.9813 892.771 38.704C893.326 38.416 893.603 37.9787 893.603 37.392C893.603 36.944 893.438 36.5867 893.107 36.32C892.787 36.0533 892.254 35.8507 891.507 35.712L888.595 35.104C887.134 34.7947 885.955 34.272 885.059 33.536C884.174 32.7893 883.726 31.7333 883.715 30.368C883.705 29.376 883.961 28.4853 884.483 27.696C885.017 26.9067 885.801 26.2827 886.835 25.824C887.881 25.3653 889.155 25.136 890.659 25.136C892.697 25.136 894.323 25.584 895.539 26.48C896.766 27.376 897.39 28.64 897.411 30.272H893.507C893.39 29.632 893.07 29.1413 892.547 28.8C892.035 28.448 891.385 28.272 890.595 28.272C889.795 28.272 889.134 28.416 888.611 28.704C888.089 28.992 887.827 29.4293 887.827 30.016C887.827 30.4533 888.041 30.8 888.467 31.056C888.894 31.3013 889.555 31.5147 890.451 31.696L893.139 32.304C894.067 32.528 894.819 32.8373 895.395 33.232C895.982 33.616 896.435 34.0373 896.755 34.496C897.075 34.9547 897.294 35.4187 897.411 35.888C897.539 36.3467 897.603 36.7627 897.603 37.136C897.603 38.2347 897.31 39.1733 896.723 39.952C896.137 40.72 895.321 41.3067 894.275 41.712C893.23 42.1173 892.014 42.32 890.627 42.32Z" fill="black"/>
<path d="M559 440C559 404.654 587.654 376 623 376V376C658.346 376 687 404.654 687 440V440C687 475.346 658.346 504 623 504V504C587.654 504 559 475.346 559 440V440Z" fill="#C990C0"/>
<path d="M559 148C559 112.654 587.654 84 623 84V84C658.346 84 687 112.654 687 148V148C687 183.346 658.346 212 623 212V212C587.654 212 559 183.346 559 148V148Z" fill="#FFDF81"/>
<path d="M861 148C861 112.654 889.654 84 925 84V84C960.346 84 989 112.654 989 148V148C989 183.346 960.346 212 925 212V212C889.654 212 861 183.346 861 148V148Z" fill="#56C7E4"/>
<path d="M690.5 148H857.5" stroke="black" stroke-opacity="0.8" stroke-width="2" stroke-linecap="round" stroke-linejoin="bevel"/>
<path d="M623 372.5V215.5" stroke="black" stroke-opacity="0.8" stroke-width="2" stroke-linecap="round" stroke-linejoin="bevel"/>
</svg>
