<svg width="1022" height="518" viewBox="0 0 1022 518" fill="none" xmlns="http://www.w3.org/2000/svg">
<path d="M21 141C21 105.654 49.6538 77 85 77V77C120.346 77 149 105.654 149 141V141C149 176.346 120.346 205 85 205V205C49.6538 205 21 176.346 21 141V141Z" fill="#F79767"/>
<path d="M84.1909 140.694V139.049H85.7379V140.694H84.1909ZM84.1909 145.958V144.327H85.7379V145.958H84.1909Z" fill="black"/>
<path d="M319 433C319 397.654 347.654 369 383 369V369C418.346 369 447 397.654 447 433V433C447 468.346 418.346 497 383 497V497C347.654 497 319 468.346 319 433V433Z" fill="#C990C0"/>
<rect x="545" y="371" width="124" height="124" rx="62" fill="white"/>
<rect x="545" y="371" width="124" height="124" rx="62" stroke="#C990C0" stroke-width="4"/>
<path d="M21 433C21 397.654 49.6538 369 85 369V369C120.346 369 149 397.654 149 433V433C149 468.346 120.346 497 85 497V497C49.6538 497 21 468.346 21 433V433Z" fill="#F16767"/>
<path d="M315.5 433H152.5" stroke="black" stroke-opacity="0.8" stroke-width="2" stroke-linecap="round" stroke-linejoin="bevel"/>
<path d="M330.074 384.056L135.891 189.873" stroke="black" stroke-opacity="0.8" stroke-width="2" stroke-linecap="round" stroke-linejoin="bevel"/>
<path d="M144.438 25V7.648H150.822C152.086 7.648 153.218 7.868 154.218 8.308C155.218 8.74 156.006 9.38 156.582 10.228C157.166 11.076 157.458 12.112 157.458 13.336C157.458 14.488 157.202 15.472 156.69 16.288C156.178 17.104 155.458 17.728 154.53 18.16C153.61 18.592 152.526 18.808 151.278 18.808H147.966V25H144.438ZM147.93 16.096H151.182C152.062 16.096 152.782 15.816 153.342 15.256C153.902 14.688 154.182 13.988 154.182 13.156C154.182 12.292 153.886 11.608 153.294 11.104C152.702 10.592 151.982 10.336 151.134 10.336H147.93V16.096ZM159.59 25V12.592H162.962V15.532C163.162 14.9 163.442 14.348 163.802 13.876C164.17 13.396 164.614 13.024 165.134 12.76C165.654 12.488 166.242 12.352 166.898 12.352C167.01 12.352 167.114 12.36 167.21 12.376C167.314 12.384 167.39 12.4 167.438 12.424V15.76C167.366 15.728 167.278 15.708 167.174 15.7C167.078 15.692 166.99 15.684 166.91 15.676C166.222 15.62 165.634 15.64 165.146 15.736C164.658 15.832 164.262 15.996 163.958 16.228C163.654 16.46 163.434 16.744 163.298 17.08C163.162 17.416 163.094 17.792 163.094 18.208V25H159.59ZM174.81 25.24C173.594 25.24 172.534 24.98 171.63 24.46C170.734 23.94 170.038 23.204 169.542 22.252C169.054 21.3 168.81 20.172 168.81 18.868C168.81 17.564 169.054 16.424 169.542 15.448C170.038 14.472 170.734 13.712 171.63 13.168C172.534 12.624 173.598 12.352 174.822 12.352C176.046 12.352 177.106 12.62 178.002 13.156C178.898 13.684 179.59 14.436 180.078 15.412C180.566 16.388 180.81 17.54 180.81 18.868C180.81 20.116 180.57 21.22 180.09 22.18C179.618 23.132 178.934 23.88 178.038 24.424C177.15 24.968 176.074 25.24 174.81 25.24ZM174.822 22.636C175.438 22.636 175.934 22.456 176.31 22.096C176.686 21.736 176.958 21.264 177.126 20.68C177.294 20.088 177.378 19.444 177.378 18.748C177.378 18.092 177.302 17.472 177.15 16.888C176.998 16.304 176.734 15.832 176.358 15.472C175.982 15.112 175.47 14.932 174.822 14.932C174.206 14.932 173.706 15.104 173.322 15.448C172.946 15.784 172.67 16.244 172.494 16.828C172.318 17.404 172.23 18.044 172.23 18.748C172.23 19.396 172.31 20.02 172.47 20.62C172.63 21.212 172.898 21.696 173.274 22.072C173.65 22.448 174.166 22.636 174.822 22.636ZM187.834 25.24C186.17 25.24 184.874 24.668 183.946 23.524C183.018 22.372 182.554 20.772 182.554 18.724C182.554 17.428 182.742 16.304 183.118 15.352C183.494 14.4 184.05 13.664 184.786 13.144C185.522 12.616 186.422 12.352 187.486 12.352C187.934 12.352 188.35 12.404 188.734 12.508C189.126 12.604 189.482 12.74 189.802 12.916C190.122 13.092 190.402 13.296 190.642 13.528C190.882 13.76 191.078 14.008 191.23 14.272V7.168H194.746V25H192.202L191.806 22.456C191.686 22.8 191.526 23.136 191.326 23.464C191.134 23.792 190.882 24.092 190.57 24.364C190.258 24.628 189.874 24.84 189.418 25C188.97 25.16 188.442 25.24 187.834 25.24ZM188.602 22.72C189.482 22.72 190.138 22.412 190.57 21.796C191.01 21.18 191.23 20.14 191.23 18.676C191.222 17.828 191.122 17.124 190.93 16.564C190.738 16.004 190.45 15.588 190.066 15.316C189.69 15.036 189.21 14.896 188.626 14.896C187.866 14.896 187.234 15.188 186.73 15.772C186.226 16.348 185.974 17.316 185.974 18.676C185.974 20.06 186.21 21.08 186.682 21.736C187.154 22.392 187.794 22.72 188.602 22.72ZM202.256 25.24C201.68 25.24 201.112 25.152 200.552 24.976C200 24.8 199.496 24.54 199.04 24.196C198.584 23.852 198.216 23.428 197.936 22.924C197.664 22.42 197.528 21.836 197.528 21.172V12.592H201.032V20.728C201.032 21.304 201.22 21.776 201.596 22.144C201.972 22.512 202.524 22.696 203.252 22.696C203.94 22.696 204.484 22.52 204.884 22.168C205.292 21.808 205.496 21.308 205.496 20.668V12.592H208.964V25H206.324L205.916 22.54C205.772 23.268 205.5 23.828 205.1 24.22C204.708 24.604 204.256 24.868 203.744 25.012C203.24 25.164 202.744 25.24 202.256 25.24ZM217.297 25.24C216.145 25.24 215.117 24.984 214.213 24.472C213.309 23.96 212.597 23.228 212.077 22.276C211.565 21.316 211.309 20.172 211.309 18.844C211.309 17.564 211.557 16.436 212.053 15.46C212.549 14.484 213.245 13.724 214.141 13.18C215.045 12.628 216.097 12.352 217.297 12.352C218.337 12.352 219.233 12.564 219.985 12.988C220.745 13.412 221.341 13.984 221.773 14.704C222.213 15.424 222.465 16.228 222.529 17.116H219.613C219.557 16.788 219.441 16.464 219.265 16.144C219.089 15.816 218.841 15.548 218.521 15.34C218.201 15.124 217.801 15.016 217.321 15.016C216.505 15.016 215.841 15.332 215.329 15.964C214.825 16.588 214.573 17.54 214.573 18.82C214.573 20.028 214.821 20.988 215.317 21.7C215.813 22.404 216.505 22.756 217.393 22.756C217.865 22.756 218.257 22.64 218.569 22.408C218.889 22.176 219.137 21.9 219.313 21.58C219.489 21.252 219.601 20.948 219.649 20.668H222.493C222.437 21.524 222.189 22.3 221.749 22.996C221.309 23.684 220.709 24.232 219.949 24.64C219.197 25.04 218.313 25.24 217.297 25.24ZM229.916 25.132C228.82 25.132 227.972 24.992 227.372 24.712C226.78 24.432 226.368 24.04 226.136 23.536C225.912 23.032 225.8 22.448 225.8 21.784V15.028H223.784V12.592H225.908L226.796 8.848H229.292V12.58H232.052V15.028H229.292L229.316 21.64C229.316 21.944 229.352 22.172 229.424 22.324C229.504 22.468 229.624 22.564 229.784 22.612C229.952 22.652 230.164 22.672 230.42 22.672H232.088V24.832C231.92 24.904 231.668 24.972 231.332 25.036C230.996 25.1 230.524 25.132 229.916 25.132ZM245.102 25.24C243.95 25.24 242.922 24.984 242.018 24.472C241.114 23.96 240.402 23.228 239.882 22.276C239.37 21.316 239.114 20.172 239.114 18.844C239.114 17.564 239.362 16.436 239.858 15.46C240.354 14.484 241.05 13.724 241.946 13.18C242.85 12.628 243.902 12.352 245.102 12.352C246.142 12.352 247.038 12.564 247.79 12.988C248.55 13.412 249.146 13.984 249.578 14.704C250.018 15.424 250.27 16.228 250.334 17.116H247.418C247.362 16.788 247.246 16.464 247.07 16.144C246.894 15.816 246.646 15.548 246.326 15.34C246.006 15.124 245.606 15.016 245.126 15.016C244.31 15.016 243.646 15.332 243.134 15.964C242.63 16.588 242.378 17.54 242.378 18.82C242.378 20.028 242.626 20.988 243.122 21.7C243.618 22.404 244.31 22.756 245.198 22.756C245.67 22.756 246.062 22.64 246.374 22.408C246.694 22.176 246.942 21.9 247.118 21.58C247.294 21.252 247.406 20.948 247.454 20.668H250.298C250.242 21.524 249.994 22.3 249.554 22.996C249.114 23.684 248.514 24.232 247.754 24.64C247.002 25.04 246.118 25.24 245.102 25.24ZM256.38 25.24C255.596 25.24 254.884 25.092 254.244 24.796C253.612 24.5 253.112 24.072 252.744 23.512C252.376 22.944 252.192 22.256 252.192 21.448C252.192 20.088 252.7 19.056 253.716 18.352C254.732 17.64 256.336 17.272 258.528 17.248L260.088 17.224V16.48C260.088 15.912 259.92 15.476 259.584 15.172C259.256 14.86 258.74 14.708 258.036 14.716C257.532 14.724 257.048 14.844 256.584 15.076C256.128 15.308 255.812 15.712 255.636 16.288H252.72C252.768 15.392 253.028 14.656 253.5 14.08C253.98 13.496 254.624 13.064 255.432 12.784C256.24 12.496 257.164 12.352 258.204 12.352C259.468 12.352 260.484 12.512 261.252 12.832C262.02 13.144 262.576 13.596 262.92 14.188C263.272 14.772 263.448 15.468 263.448 16.276V25H260.52L260.232 22.864C259.808 23.76 259.276 24.38 258.636 24.724C258.004 25.068 257.252 25.24 256.38 25.24ZM257.568 22.936C257.88 22.936 258.184 22.88 258.48 22.768C258.784 22.648 259.056 22.492 259.296 22.3C259.536 22.1 259.724 21.876 259.86 21.628C260.004 21.38 260.08 21.124 260.088 20.86V19.024L258.828 19.048C258.244 19.056 257.7 19.128 257.196 19.264C256.692 19.392 256.284 19.604 255.972 19.9C255.668 20.196 255.516 20.596 255.516 21.1C255.516 21.676 255.712 22.128 256.104 22.456C256.504 22.776 256.992 22.936 257.568 22.936ZM271.137 25.132C270.041 25.132 269.193 24.992 268.593 24.712C268.001 24.432 267.589 24.04 267.357 23.536C267.133 23.032 267.021 22.448 267.021 21.784V15.028H265.005V12.592H267.129L268.017 8.848H270.513V12.58H273.273V15.028H270.513L270.537 21.64C270.537 21.944 270.573 22.172 270.645 22.324C270.725 22.468 270.845 22.564 271.005 22.612C271.173 22.652 271.385 22.672 271.641 22.672H273.309V24.832C273.141 24.904 272.889 24.972 272.553 25.036C272.217 25.1 271.745 25.132 271.137 25.132ZM279.37 25.24C278.586 25.24 277.874 25.092 277.234 24.796C276.602 24.5 276.102 24.072 275.734 23.512C275.366 22.944 275.182 22.256 275.182 21.448C275.182 20.088 275.69 19.056 276.706 18.352C277.722 17.64 279.326 17.272 281.518 17.248L283.078 17.224V16.48C283.078 15.912 282.91 15.476 282.574 15.172C282.246 14.86 281.73 14.708 281.026 14.716C280.522 14.724 280.038 14.844 279.574 15.076C279.118 15.308 278.802 15.712 278.626 16.288H275.71C275.758 15.392 276.018 14.656 276.49 14.08C276.97 13.496 277.614 13.064 278.422 12.784C279.23 12.496 280.154 12.352 281.194 12.352C282.458 12.352 283.474 12.512 284.242 12.832C285.01 13.144 285.566 13.596 285.91 14.188C286.262 14.772 286.438 15.468 286.438 16.276V25H283.51L283.222 22.864C282.798 23.76 282.266 24.38 281.626 24.724C280.994 25.068 280.242 25.24 279.37 25.24ZM280.558 22.936C280.87 22.936 281.174 22.88 281.47 22.768C281.774 22.648 282.046 22.492 282.286 22.3C282.526 22.1 282.714 21.876 282.85 21.628C282.994 21.38 283.07 21.124 283.078 20.86V19.024L281.818 19.048C281.234 19.056 280.69 19.128 280.186 19.264C279.682 19.392 279.274 19.604 278.962 19.9C278.658 20.196 278.506 20.596 278.506 21.1C278.506 21.676 278.702 22.128 279.094 22.456C279.494 22.776 279.982 22.936 280.558 22.936ZM293.18 25.216C292.268 25.216 291.544 25.108 291.008 24.892C290.472 24.676 290.076 24.392 289.82 24.04C289.564 23.68 289.4 23.284 289.328 22.852C289.256 22.412 289.22 21.968 289.22 21.52V7.168H292.652V21.088C292.652 21.544 292.748 21.916 292.94 22.204C293.14 22.484 293.512 22.656 294.056 22.72L294.644 22.756V24.916C294.404 24.996 294.16 25.064 293.912 25.12C293.664 25.184 293.42 25.216 293.18 25.216ZM301.743 25.24C300.527 25.24 299.467 24.98 298.563 24.46C297.667 23.94 296.971 23.204 296.475 22.252C295.987 21.3 295.743 20.172 295.743 18.868C295.743 17.564 295.987 16.424 296.475 15.448C296.971 14.472 297.667 13.712 298.563 13.168C299.467 12.624 300.531 12.352 301.755 12.352C302.979 12.352 304.039 12.62 304.935 13.156C305.831 13.684 306.523 14.436 307.011 15.412C307.499 16.388 307.743 17.54 307.743 18.868C307.743 20.116 307.503 21.22 307.023 22.18C306.551 23.132 305.867 23.88 304.971 24.424C304.083 24.968 303.007 25.24 301.743 25.24ZM301.755 22.636C302.371 22.636 302.867 22.456 303.243 22.096C303.619 21.736 303.891 21.264 304.059 20.68C304.227 20.088 304.311 19.444 304.311 18.748C304.311 18.092 304.235 17.472 304.083 16.888C303.931 16.304 303.667 15.832 303.291 15.472C302.915 15.112 302.403 14.932 301.755 14.932C301.139 14.932 300.639 15.104 300.255 15.448C299.879 15.784 299.603 16.244 299.427 16.828C299.251 17.404 299.163 18.044 299.163 18.748C299.163 19.396 299.243 20.02 299.403 20.62C299.563 21.212 299.831 21.696 300.207 22.072C300.583 22.448 301.099 22.636 301.755 22.636ZM315.672 29.104C313.464 29.104 311.784 28.824 310.632 28.264C309.488 27.704 308.916 26.968 308.916 26.056C308.916 25.632 309.024 25.276 309.24 24.988C309.464 24.7 309.724 24.472 310.02 24.304C310.324 24.128 310.6 23.996 310.848 23.908C311.104 23.812 311.264 23.748 311.328 23.716C311.2 23.644 311.012 23.54 310.764 23.404C310.524 23.26 310.304 23.068 310.104 22.828C309.904 22.58 309.804 22.26 309.804 21.868C309.804 21.428 310.012 21.02 310.428 20.644C310.852 20.268 311.492 20.008 312.348 19.864C311.532 19.48 310.908 18.96 310.476 18.304C310.052 17.648 309.84 16.976 309.84 16.288C309.84 15.472 310.096 14.772 310.608 14.188C311.12 13.604 311.82 13.16 312.708 12.856C313.596 12.552 314.6 12.4 315.72 12.4C316.568 12.4 317.264 12.492 317.808 12.676C318.36 12.852 318.868 13.084 319.332 13.372C319.516 13.3 319.756 13.208 320.052 13.096C320.356 12.976 320.684 12.848 321.036 12.712C321.396 12.568 321.744 12.428 322.08 12.292C322.416 12.148 322.716 12.02 322.98 11.908L322.956 14.62L320.82 14.968C320.9 15.184 320.964 15.416 321.012 15.664C321.06 15.912 321.084 16.116 321.084 16.276C321.084 16.996 320.872 17.668 320.448 18.292C320.032 18.916 319.408 19.42 318.576 19.804C317.744 20.188 316.708 20.38 315.468 20.38C315.324 20.38 315.124 20.376 314.868 20.368C314.612 20.36 314.404 20.348 314.244 20.332C313.78 20.356 313.456 20.416 313.272 20.512C313.096 20.608 313.008 20.72 313.008 20.848C313.008 21.04 313.188 21.168 313.548 21.232C313.908 21.288 314.452 21.34 315.18 21.388C315.444 21.404 315.804 21.424 316.26 21.448C316.716 21.472 317.216 21.504 317.76 21.544C319.28 21.648 320.412 22.024 321.156 22.672C321.908 23.312 322.284 24.12 322.284 25.096C322.284 26.256 321.732 27.212 320.628 27.964C319.532 28.724 317.88 29.104 315.672 29.104ZM316.236 27.148C317.204 27.148 317.896 27.028 318.312 26.788C318.736 26.548 318.948 26.204 318.948 25.756C318.948 25.38 318.784 25.076 318.456 24.844C318.136 24.604 317.672 24.464 317.064 24.424L314.22 24.232C313.844 24.216 313.516 24.272 313.236 24.4C312.956 24.528 312.736 24.704 312.576 24.928C312.424 25.152 312.348 25.392 312.348 25.648C312.348 26.168 312.664 26.548 313.296 26.788C313.928 27.028 314.908 27.148 316.236 27.148ZM315.576 18.424C316.24 18.424 316.772 18.244 317.172 17.884C317.572 17.516 317.772 17.02 317.772 16.396C317.772 15.748 317.572 15.228 317.172 14.836C316.772 14.444 316.24 14.248 315.576 14.248C314.912 14.248 314.376 14.444 313.968 14.836C313.56 15.228 313.356 15.748 313.356 16.396C313.356 17.012 313.552 17.504 313.944 17.872C314.344 18.24 314.888 18.424 315.576 18.424Z" fill="black"/>
<path d="M689.127 25.24C687.511 25.24 686.115 24.864 684.939 24.112C683.763 23.36 682.855 22.304 682.215 20.944C681.583 19.584 681.267 17.996 681.267 16.18C681.267 14.356 681.583 12.792 682.215 11.488C682.847 10.176 683.751 9.168 684.927 8.464C686.103 7.76 687.503 7.408 689.127 7.408C690.431 7.408 691.591 7.672 692.607 8.2C693.631 8.72 694.455 9.432 695.079 10.336C695.711 11.24 696.083 12.26 696.195 13.396H692.523C692.411 12.796 692.207 12.264 691.911 11.8C691.615 11.328 691.227 10.96 690.747 10.696C690.267 10.424 689.691 10.288 689.019 10.288C688.211 10.288 687.515 10.484 686.931 10.876C686.347 11.268 685.899 11.9 685.587 12.772C685.275 13.644 685.119 14.796 685.119 16.228C685.119 18.388 685.463 19.952 686.151 20.92C686.847 21.88 687.803 22.36 689.019 22.36C689.691 22.36 690.267 22.208 690.747 21.904C691.227 21.592 691.615 21.184 691.911 20.68C692.207 20.168 692.411 19.608 692.523 19H696.195C696.091 19.824 695.891 20.612 695.595 21.364C695.299 22.108 694.879 22.772 694.335 23.356C693.791 23.94 693.091 24.4 692.235 24.736C691.379 25.072 690.343 25.24 689.127 25.24ZM703.354 25.24C702.778 25.24 702.21 25.152 701.65 24.976C701.098 24.8 700.594 24.54 700.138 24.196C699.682 23.852 699.314 23.428 699.034 22.924C698.762 22.42 698.626 21.836 698.626 21.172V12.592H702.13V20.728C702.13 21.304 702.318 21.776 702.694 22.144C703.07 22.512 703.622 22.696 704.35 22.696C705.038 22.696 705.582 22.52 705.982 22.168C706.39 21.808 706.594 21.308 706.594 20.668V12.592H710.062V25H707.422L707.014 22.54C706.87 23.268 706.598 23.828 706.198 24.22C705.806 24.604 705.354 24.868 704.842 25.012C704.338 25.164 703.842 25.24 703.354 25.24ZM717.987 25.24C717.123 25.24 716.291 25.1 715.491 24.82C714.699 24.532 714.023 24.084 713.463 23.476C712.911 22.86 712.563 22.064 712.419 21.088H715.443C715.555 21.528 715.747 21.876 716.019 22.132C716.299 22.388 716.615 22.572 716.967 22.684C717.319 22.788 717.655 22.84 717.975 22.84C718.647 22.84 719.187 22.736 719.595 22.528C720.011 22.312 720.219 21.984 720.219 21.544C720.219 21.208 720.095 20.94 719.847 20.74C719.607 20.54 719.207 20.388 718.647 20.284L716.463 19.828C715.367 19.596 714.483 19.204 713.811 18.652C713.147 18.092 712.811 17.3 712.803 16.276C712.795 15.532 712.987 14.864 713.379 14.272C713.779 13.68 714.367 13.212 715.143 12.868C715.927 12.524 716.883 12.352 718.011 12.352C719.539 12.352 720.759 12.688 721.671 13.36C722.591 14.032 723.059 14.98 723.075 16.204H720.147C720.059 15.724 719.819 15.356 719.427 15.1C719.043 14.836 718.555 14.704 717.963 14.704C717.363 14.704 716.867 14.812 716.475 15.028C716.083 15.244 715.887 15.572 715.887 16.012C715.887 16.34 716.047 16.6 716.367 16.792C716.687 16.976 717.183 17.136 717.855 17.272L719.871 17.728C720.567 17.896 721.131 18.128 721.563 18.424C722.003 18.712 722.343 19.028 722.583 19.372C722.823 19.716 722.987 20.064 723.075 20.416C723.171 20.76 723.219 21.072 723.219 21.352C723.219 22.176 722.999 22.88 722.559 23.464C722.119 24.04 721.507 24.48 720.723 24.784C719.939 25.088 719.027 25.24 717.987 25.24ZM730.897 25.132C729.801 25.132 728.953 24.992 728.353 24.712C727.761 24.432 727.349 24.04 727.117 23.536C726.893 23.032 726.781 22.448 726.781 21.784V15.028H724.765V12.592H726.889L727.777 8.848H730.273V12.58H733.033V15.028H730.273L730.297 21.64C730.297 21.944 730.333 22.172 730.405 22.324C730.485 22.468 730.605 22.564 730.765 22.612C730.933 22.652 731.145 22.672 731.401 22.672H733.069V24.832C732.901 24.904 732.649 24.972 732.313 25.036C731.977 25.1 731.505 25.132 730.897 25.132ZM740.483 25.24C739.267 25.24 738.207 24.98 737.303 24.46C736.407 23.94 735.711 23.204 735.215 22.252C734.727 21.3 734.483 20.172 734.483 18.868C734.483 17.564 734.727 16.424 735.215 15.448C735.711 14.472 736.407 13.712 737.303 13.168C738.207 12.624 739.271 12.352 740.495 12.352C741.719 12.352 742.779 12.62 743.675 13.156C744.571 13.684 745.263 14.436 745.751 15.412C746.239 16.388 746.483 17.54 746.483 18.868C746.483 20.116 746.243 21.22 745.763 22.18C745.291 23.132 744.607 23.88 743.711 24.424C742.823 24.968 741.747 25.24 740.483 25.24ZM740.495 22.636C741.111 22.636 741.607 22.456 741.983 22.096C742.359 21.736 742.631 21.264 742.799 20.68C742.967 20.088 743.051 19.444 743.051 18.748C743.051 18.092 742.975 17.472 742.823 16.888C742.671 16.304 742.407 15.832 742.031 15.472C741.655 15.112 741.143 14.932 740.495 14.932C739.879 14.932 739.379 15.104 738.995 15.448C738.619 15.784 738.343 16.244 738.167 16.828C737.991 17.404 737.903 18.044 737.903 18.748C737.903 19.396 737.983 20.02 738.143 20.62C738.303 21.212 738.571 21.696 738.947 22.072C739.323 22.448 739.839 22.636 740.495 22.636ZM748.815 25V12.592H752.247V14.344C752.623 13.8 753.127 13.332 753.759 12.94C754.399 12.548 755.203 12.352 756.171 12.352C756.595 12.352 757.027 12.428 757.467 12.58C757.907 12.732 758.319 12.956 758.703 13.252C759.095 13.54 759.411 13.904 759.651 14.344C760.051 13.776 760.575 13.304 761.223 12.928C761.879 12.544 762.607 12.352 763.407 12.352C763.871 12.352 764.339 12.428 764.811 12.58C765.291 12.732 765.731 12.98 766.131 13.324C766.531 13.668 766.851 14.128 767.091 14.704C767.339 15.272 767.463 15.976 767.463 16.816V25H763.959V17.248C763.959 16.752 763.859 16.356 763.659 16.06C763.467 15.756 763.219 15.54 762.915 15.412C762.619 15.276 762.303 15.208 761.967 15.208C761.655 15.208 761.339 15.272 761.019 15.4C760.699 15.52 760.427 15.716 760.203 15.988C759.979 16.26 759.867 16.616 759.867 17.056V25H756.375V16.936C756.375 16.56 756.275 16.244 756.075 15.988C755.875 15.732 755.623 15.54 755.319 15.412C755.023 15.276 754.719 15.208 754.407 15.208C754.087 15.208 753.767 15.276 753.447 15.412C753.127 15.54 752.859 15.744 752.643 16.024C752.427 16.296 752.319 16.64 752.319 17.056V25H748.815ZM775.947 25.24C774.715 25.24 773.631 24.984 772.695 24.472C771.767 23.952 771.043 23.22 770.523 22.276C770.003 21.332 769.743 20.22 769.743 18.94C769.743 17.7 769.979 16.584 770.451 15.592C770.931 14.592 771.619 13.804 772.515 13.228C773.411 12.644 774.495 12.352 775.767 12.352C777.031 12.352 778.091 12.62 778.947 13.156C779.803 13.684 780.451 14.424 780.891 15.376C781.331 16.32 781.551 17.412 781.551 18.652V19.6H773.211C773.211 20.232 773.315 20.784 773.523 21.256C773.731 21.72 774.031 22.08 774.423 22.336C774.823 22.584 775.303 22.708 775.863 22.708C776.463 22.708 776.987 22.58 777.435 22.324C777.883 22.068 778.199 21.648 778.383 21.064H781.539C781.395 21.944 781.043 22.696 780.483 23.32C779.923 23.944 779.243 24.42 778.443 24.748C777.643 25.076 776.811 25.24 775.947 25.24ZM773.211 17.512H778.275C778.275 17.016 778.179 16.56 777.987 16.144C777.803 15.728 777.523 15.4 777.147 15.16C776.779 14.92 776.315 14.8 775.755 14.8C775.219 14.8 774.759 14.932 774.375 15.196C773.999 15.452 773.707 15.788 773.499 16.204C773.299 16.62 773.203 17.056 773.211 17.512ZM784.016 25V12.592H787.388V15.532C787.588 14.9 787.868 14.348 788.228 13.876C788.596 13.396 789.04 13.024 789.56 12.76C790.08 12.488 790.668 12.352 791.324 12.352C791.436 12.352 791.54 12.36 791.636 12.376C791.74 12.384 791.816 12.4 791.864 12.424V15.76C791.792 15.728 791.704 15.708 791.6 15.7C791.504 15.692 791.416 15.684 791.336 15.676C790.648 15.62 790.06 15.64 789.572 15.736C789.084 15.832 788.688 15.996 788.384 16.228C788.08 16.46 787.86 16.744 787.724 17.08C787.588 17.416 787.52 17.792 787.52 18.208V25H784.016ZM804.472 25.24C803.256 25.24 802.196 24.98 801.292 24.46C800.396 23.94 799.7 23.204 799.204 22.252C798.716 21.3 798.472 20.172 798.472 18.868C798.472 17.564 798.716 16.424 799.204 15.448C799.7 14.472 800.396 13.712 801.292 13.168C802.196 12.624 803.26 12.352 804.484 12.352C805.708 12.352 806.768 12.62 807.664 13.156C808.56 13.684 809.252 14.436 809.74 15.412C810.228 16.388 810.472 17.54 810.472 18.868C810.472 20.116 810.232 21.22 809.752 22.18C809.28 23.132 808.596 23.88 807.7 24.424C806.812 24.968 805.736 25.24 804.472 25.24ZM804.484 22.636C805.1 22.636 805.596 22.456 805.972 22.096C806.348 21.736 806.62 21.264 806.788 20.68C806.956 20.088 807.04 19.444 807.04 18.748C807.04 18.092 806.964 17.472 806.812 16.888C806.66 16.304 806.396 15.832 806.02 15.472C805.644 15.112 805.132 14.932 804.484 14.932C803.868 14.932 803.368 15.104 802.984 15.448C802.608 15.784 802.332 16.244 802.156 16.828C801.98 17.404 801.892 18.044 801.892 18.748C801.892 19.396 801.972 20.02 802.132 20.62C802.292 21.212 802.56 21.696 802.936 22.072C803.312 22.448 803.828 22.636 804.484 22.636ZM812.804 25V12.592H816.176V15.532C816.376 14.9 816.656 14.348 817.016 13.876C817.384 13.396 817.828 13.024 818.348 12.76C818.868 12.488 819.456 12.352 820.112 12.352C820.224 12.352 820.328 12.36 820.424 12.376C820.528 12.384 820.604 12.4 820.652 12.424V15.76C820.58 15.728 820.492 15.708 820.388 15.7C820.292 15.692 820.204 15.684 820.124 15.676C819.436 15.62 818.848 15.64 818.36 15.736C817.872 15.832 817.476 15.996 817.172 16.228C816.868 16.46 816.648 16.744 816.512 17.08C816.376 17.416 816.308 17.792 816.308 18.208V25H812.804ZM827.304 25.24C825.64 25.24 824.344 24.668 823.416 23.524C822.488 22.372 822.024 20.772 822.024 18.724C822.024 17.428 822.212 16.304 822.588 15.352C822.964 14.4 823.52 13.664 824.256 13.144C824.992 12.616 825.892 12.352 826.956 12.352C827.404 12.352 827.82 12.404 828.204 12.508C828.596 12.604 828.952 12.74 829.272 12.916C829.592 13.092 829.872 13.296 830.112 13.528C830.352 13.76 830.548 14.008 830.7 14.272V7.168H834.216V25H831.672L831.276 22.456C831.156 22.8 830.996 23.136 830.796 23.464C830.604 23.792 830.352 24.092 830.04 24.364C829.728 24.628 829.344 24.84 828.888 25C828.44 25.16 827.912 25.24 827.304 25.24ZM828.072 22.72C828.952 22.72 829.608 22.412 830.04 21.796C830.48 21.18 830.7 20.14 830.7 18.676C830.692 17.828 830.592 17.124 830.4 16.564C830.208 16.004 829.92 15.588 829.536 15.316C829.16 15.036 828.68 14.896 828.096 14.896C827.336 14.896 826.704 15.188 826.2 15.772C825.696 16.348 825.444 17.316 825.444 18.676C825.444 20.06 825.68 21.08 826.152 21.736C826.624 22.392 827.264 22.72 828.072 22.72ZM842.853 25.24C841.621 25.24 840.537 24.984 839.601 24.472C838.673 23.952 837.949 23.22 837.429 22.276C836.909 21.332 836.649 20.22 836.649 18.94C836.649 17.7 836.885 16.584 837.357 15.592C837.837 14.592 838.525 13.804 839.421 13.228C840.317 12.644 841.401 12.352 842.673 12.352C843.937 12.352 844.997 12.62 845.853 13.156C846.709 13.684 847.357 14.424 847.797 15.376C848.237 16.32 848.457 17.412 848.457 18.652V19.6H840.117C840.117 20.232 840.221 20.784 840.429 21.256C840.637 21.72 840.937 22.08 841.329 22.336C841.729 22.584 842.209 22.708 842.769 22.708C843.369 22.708 843.893 22.58 844.341 22.324C844.789 22.068 845.105 21.648 845.289 21.064H848.445C848.301 21.944 847.949 22.696 847.389 23.32C846.829 23.944 846.149 24.42 845.349 24.748C844.549 25.076 843.717 25.24 842.853 25.24ZM840.117 17.512H845.181C845.181 17.016 845.085 16.56 844.893 16.144C844.709 15.728 844.429 15.4 844.053 15.16C843.685 14.92 843.221 14.8 842.661 14.8C842.125 14.8 841.665 14.932 841.281 15.196C840.905 15.452 840.613 15.788 840.405 16.204C840.205 16.62 840.109 17.056 840.117 17.512ZM850.921 25V12.592H854.293V15.532C854.493 14.9 854.773 14.348 855.133 13.876C855.501 13.396 855.945 13.024 856.465 12.76C856.985 12.488 857.573 12.352 858.229 12.352C858.341 12.352 858.445 12.36 858.541 12.376C858.645 12.384 858.721 12.4 858.769 12.424V15.76C858.697 15.728 858.609 15.708 858.505 15.7C858.409 15.692 858.321 15.684 858.241 15.676C857.553 15.62 856.965 15.64 856.477 15.736C855.989 15.832 855.593 15.996 855.289 16.228C854.985 16.46 854.765 16.744 854.629 17.08C854.493 17.416 854.425 17.792 854.425 18.208V25H850.921ZM865.72 25.24C864.856 25.24 864.024 25.1 863.224 24.82C862.432 24.532 861.756 24.084 861.196 23.476C860.644 22.86 860.296 22.064 860.152 21.088H863.176C863.288 21.528 863.48 21.876 863.752 22.132C864.032 22.388 864.348 22.572 864.7 22.684C865.052 22.788 865.388 22.84 865.708 22.84C866.38 22.84 866.92 22.736 867.328 22.528C867.744 22.312 867.952 21.984 867.952 21.544C867.952 21.208 867.828 20.94 867.58 20.74C867.34 20.54 866.94 20.388 866.38 20.284L864.196 19.828C863.1 19.596 862.216 19.204 861.544 18.652C860.88 18.092 860.544 17.3 860.536 16.276C860.528 15.532 860.72 14.864 861.112 14.272C861.512 13.68 862.1 13.212 862.876 12.868C863.66 12.524 864.616 12.352 865.744 12.352C867.272 12.352 868.492 12.688 869.404 13.36C870.324 14.032 870.792 14.98 870.808 16.204H867.88C867.792 15.724 867.552 15.356 867.16 15.1C866.776 14.836 866.288 14.704 865.696 14.704C865.096 14.704 864.6 14.812 864.208 15.028C863.816 15.244 863.62 15.572 863.62 16.012C863.62 16.34 863.78 16.6 864.1 16.792C864.42 16.976 864.916 17.136 865.588 17.272L867.604 17.728C868.3 17.896 868.864 18.128 869.296 18.424C869.736 18.712 870.076 19.028 870.316 19.372C870.556 19.716 870.72 20.064 870.808 20.416C870.904 20.76 870.952 21.072 870.952 21.352C870.952 22.176 870.732 22.88 870.292 23.464C869.852 24.04 869.24 24.48 868.456 24.784C867.672 25.088 866.76 25.24 865.72 25.24Z" fill="black"/>
<path d="M543 141C543 105.654 571.654 77 607 77V77C642.346 77 671 105.654 671 141V141C671 176.346 642.346 205 607 205V205C571.654 205 543 176.346 543 141V141Z" fill="#FFDF81"/>
<path d="M593.504 146.14C592.603 146.14 591.824 145.937 591.166 145.531C590.508 145.125 589.999 144.537 589.64 143.767C589.285 142.992 589.108 142.057 589.108 140.96C589.108 139.854 589.287 138.914 589.647 138.139C590.006 137.36 590.515 136.765 591.173 136.354C591.835 135.943 592.612 135.738 593.504 135.738C594.4 135.738 595.174 135.943 595.828 136.354C596.481 136.76 596.985 137.353 597.34 138.132C597.694 138.907 597.872 139.849 597.872 140.96C597.872 142.057 597.694 142.992 597.34 143.767C596.99 144.537 596.488 145.125 595.835 145.531C595.181 145.937 594.404 146.14 593.504 146.14ZM593.504 145.013C594.129 145.013 594.661 144.871 595.1 144.586C595.538 144.301 595.872 143.86 596.101 143.263C596.334 142.666 596.451 141.903 596.451 140.974C596.451 140.031 596.334 139.257 596.101 138.65C595.867 138.043 595.531 137.595 595.093 137.306C594.654 137.012 594.124 136.865 593.504 136.865C592.888 136.865 592.358 137.012 591.915 137.306C591.471 137.6 591.131 138.05 590.893 138.657C590.655 139.264 590.536 140.036 590.536 140.974C590.536 141.903 590.655 142.666 590.893 143.263C591.131 143.86 591.471 144.301 591.915 144.586C592.358 144.871 592.888 145.013 593.504 145.013ZM599.608 146V138.762H600.84V140.155C600.961 139.81 601.132 139.525 601.351 139.301C601.57 139.072 601.82 138.902 602.1 138.79C602.385 138.678 602.679 138.622 602.982 138.622C603.089 138.622 603.194 138.629 603.297 138.643C603.4 138.657 603.479 138.68 603.535 138.713V139.966C603.465 139.933 603.374 139.912 603.262 139.903C603.155 139.889 603.064 139.882 602.989 139.882C602.7 139.863 602.429 139.882 602.177 139.938C601.925 139.989 601.703 140.08 601.512 140.211C601.321 140.342 601.169 140.514 601.057 140.729C600.95 140.939 600.896 141.196 600.896 141.499V146H599.608ZM607.606 146.14C606.664 146.14 605.917 145.818 605.366 145.174C604.82 144.53 604.547 143.59 604.547 142.353C604.547 141.602 604.657 140.946 604.876 140.386C605.096 139.826 605.425 139.392 605.863 139.084C606.302 138.776 606.848 138.622 607.501 138.622C607.851 138.622 608.159 138.666 608.425 138.755C608.691 138.844 608.922 138.956 609.118 139.091C609.314 139.226 609.473 139.366 609.594 139.511C609.72 139.656 609.814 139.789 609.874 139.91V135.598H611.183V146H610.189L610.049 144.516C610.003 144.656 609.928 144.819 609.825 145.006C609.723 145.188 609.578 145.368 609.391 145.545C609.209 145.718 608.971 145.86 608.677 145.972C608.383 146.084 608.026 146.14 607.606 146.14ZM607.837 145.146C608.565 145.146 609.086 144.924 609.398 144.481C609.716 144.033 609.874 143.303 609.874 142.29C609.87 141.725 609.8 141.245 609.664 140.848C609.529 140.451 609.314 140.15 609.02 139.945C608.731 139.735 608.344 139.63 607.858 139.63C607.266 139.63 606.783 139.842 606.409 140.267C606.036 140.692 605.849 141.366 605.849 142.29C605.849 143.195 606.017 143.898 606.353 144.397C606.689 144.896 607.184 145.146 607.837 145.146ZM616.38 146.14C615.708 146.14 615.115 145.993 614.602 145.699C614.089 145.405 613.687 144.983 613.398 144.432C613.109 143.881 612.964 143.221 612.964 142.451C612.964 141.69 613.095 141.023 613.356 140.449C613.617 139.875 613.995 139.427 614.49 139.105C614.989 138.783 615.589 138.622 616.289 138.622C616.97 138.622 617.547 138.769 618.018 139.063C618.489 139.357 618.846 139.772 619.089 140.309C619.336 140.841 619.46 141.473 619.46 142.206V142.682H614.273C614.273 143.139 614.348 143.555 614.497 143.928C614.651 144.297 614.882 144.591 615.19 144.81C615.498 145.029 615.888 145.139 616.359 145.139C616.821 145.139 617.218 145.032 617.549 144.817C617.885 144.602 618.1 144.292 618.193 143.886H619.411C619.327 144.376 619.131 144.789 618.823 145.125C618.52 145.461 618.153 145.715 617.724 145.888C617.299 146.056 616.851 146.14 616.38 146.14ZM614.28 141.807H618.214C618.214 141.392 618.144 141.018 618.004 140.687C617.864 140.351 617.649 140.087 617.36 139.896C617.075 139.7 616.716 139.602 616.282 139.602C615.829 139.602 615.454 139.712 615.155 139.931C614.856 140.146 614.635 140.423 614.49 140.764C614.345 141.1 614.275 141.448 614.28 141.807ZM621.251 146V138.762H622.483V140.155C622.604 139.81 622.774 139.525 622.994 139.301C623.213 139.072 623.463 138.902 623.743 138.79C624.027 138.678 624.321 138.622 624.625 138.622C624.732 138.622 624.837 138.629 624.94 138.643C625.042 138.657 625.122 138.68 625.178 138.713V139.966C625.108 139.933 625.017 139.912 624.905 139.903C624.797 139.889 624.706 139.882 624.632 139.882C624.342 139.863 624.072 139.882 623.82 139.938C623.568 139.989 623.346 140.08 623.155 140.211C622.963 140.342 622.812 140.514 622.7 140.729C622.592 140.939 622.539 141.196 622.539 141.499V146H621.251Z" fill="black"/>
<path d="M607 365.5V208.5" stroke="black" stroke-opacity="0.8" stroke-width="2" stroke-linecap="round" stroke-linejoin="bevel"/>
<path d="M543 141C543 105.654 571.654 77 607 77V77C642.346 77 671 105.654 671 141V141C671 176.346 642.346 205 607 205V205C571.654 205 543 176.346 543 141V141Z" fill="#FFDF81"/>
<path d="M876 141C876 105.654 904.654 77 940 77V77C975.346 77 1004 105.654 1004 141V141C1004 176.346 975.346 205 940 205V205C904.654 205 876 176.346 876 141V141Z" fill="#56C7E4"/>
<path d="M674.5 141H872.5" stroke="black" stroke-opacity="0.8" stroke-width="2" stroke-linecap="round" stroke-linejoin="bevel"/>
<rect x="1" y="54" width="465" height="463" rx="19" stroke="#4D5157" stroke-width="2" stroke-dasharray="10 7"/>
<rect x="530" y="54" width="491" height="463" rx="19" stroke="#4D5157" stroke-width="2" stroke-dasharray="10 7"/>
</svg>
