<svg width="835" height="436" viewBox="0 0 835 436" fill="none" xmlns="http://www.w3.org/2000/svg">
<path d="M733.174 136V121.54H742.634L742.624 123.6H735.644V127.76H741.804V129.79H735.644V136H733.174ZM748.882 136.2C747.895 136.2 747.035 135.99 746.302 135.57C745.569 135.143 744.999 134.533 744.592 133.74C744.192 132.947 743.992 131.993 743.992 130.88C743.992 129.8 744.189 128.853 744.582 128.04C744.975 127.227 745.535 126.593 746.262 126.14C746.995 125.687 747.872 125.46 748.892 125.46C749.879 125.46 750.735 125.677 751.462 126.11C752.189 126.543 752.749 127.163 753.142 127.97C753.542 128.777 753.742 129.747 753.742 130.88C753.742 131.927 753.552 132.85 753.172 133.65C752.799 134.443 752.249 135.067 751.522 135.52C750.802 135.973 749.922 136.2 748.882 136.2ZM748.892 134.35C749.452 134.35 749.912 134.197 750.272 133.89C750.639 133.583 750.912 133.163 751.092 132.63C751.272 132.097 751.362 131.49 751.362 130.81C751.362 130.177 751.282 129.593 751.122 129.06C750.962 128.527 750.699 128.1 750.332 127.78C749.972 127.453 749.492 127.29 748.892 127.29C748.325 127.29 747.855 127.44 747.482 127.74C747.115 128.033 746.842 128.447 746.662 128.98C746.482 129.507 746.392 130.117 746.392 130.81C746.392 131.437 746.472 132.02 746.632 132.56C746.792 133.093 747.055 133.527 747.422 133.86C747.789 134.187 748.279 134.35 748.892 134.35ZM758.948 136.15C758.281 136.15 757.748 136.067 757.348 135.9C756.948 135.733 756.648 135.51 756.448 135.23C756.248 134.95 756.118 134.637 756.058 134.29C755.998 133.937 755.968 133.577 755.968 133.21V121.14H758.348V132.93C758.348 133.377 758.438 133.723 758.618 133.97C758.805 134.217 759.105 134.36 759.518 134.4L760.038 134.42V135.95C759.858 136.003 759.675 136.05 759.488 136.09C759.301 136.13 759.121 136.15 758.948 136.15ZM765.003 136.15C764.336 136.15 763.803 136.067 763.403 135.9C763.003 135.733 762.703 135.51 762.503 135.23C762.303 134.95 762.173 134.637 762.113 134.29C762.053 133.937 762.023 133.577 762.023 133.21V121.14H764.403V132.93C764.403 133.377 764.493 133.723 764.673 133.97C764.859 134.217 765.159 134.36 765.573 134.4L766.093 134.42V135.95C765.913 136.003 765.729 136.05 765.543 136.09C765.356 136.13 765.176 136.15 765.003 136.15ZM772.163 136.2C771.177 136.2 770.317 135.99 769.583 135.57C768.85 135.143 768.28 134.533 767.873 133.74C767.473 132.947 767.273 131.993 767.273 130.88C767.273 129.8 767.47 128.853 767.863 128.04C768.257 127.227 768.817 126.593 769.543 126.14C770.277 125.687 771.153 125.46 772.173 125.46C773.16 125.46 774.017 125.677 774.743 126.11C775.47 126.543 776.03 127.163 776.423 127.97C776.823 128.777 777.023 129.747 777.023 130.88C777.023 131.927 776.833 132.85 776.453 133.65C776.08 134.443 775.53 135.067 774.803 135.52C774.083 135.973 773.203 136.2 772.163 136.2ZM772.173 134.35C772.733 134.35 773.193 134.197 773.553 133.89C773.92 133.583 774.193 133.163 774.373 132.63C774.553 132.097 774.643 131.49 774.643 130.81C774.643 130.177 774.563 129.593 774.403 129.06C774.243 128.527 773.98 128.1 773.613 127.78C773.253 127.453 772.773 127.29 772.173 127.29C771.607 127.29 771.137 127.44 770.763 127.74C770.397 128.033 770.123 128.447 769.943 128.98C769.763 129.507 769.673 130.117 769.673 130.81C769.673 131.437 769.753 132.02 769.913 132.56C770.073 133.093 770.337 133.527 770.703 133.86C771.07 134.187 771.56 134.35 772.173 134.35ZM781.334 136L778.054 125.66H780.244L782.394 132.77H782.514L784.604 125.66H786.374L788.524 132.76H788.644L790.724 125.66H792.954L789.674 136H787.574L785.454 129.11L783.384 136H781.334ZM799.034 136.2C798.041 136.2 797.164 135.99 796.404 135.57C795.651 135.143 795.061 134.537 794.634 133.75C794.214 132.963 794.004 132.027 794.004 130.94C794.004 129.88 794.194 128.94 794.574 128.12C794.961 127.293 795.517 126.643 796.244 126.17C796.977 125.697 797.861 125.46 798.894 125.46C799.914 125.46 800.771 125.677 801.464 126.11C802.157 126.543 802.684 127.15 803.044 127.93C803.404 128.703 803.584 129.61 803.584 130.65V131.39H796.434C796.427 131.977 796.521 132.497 796.714 132.95C796.907 133.403 797.194 133.76 797.574 134.02C797.954 134.273 798.424 134.4 798.984 134.4C799.557 134.4 800.054 134.273 800.474 134.02C800.901 133.76 801.184 133.367 801.324 132.84H803.544C803.424 133.56 803.137 134.17 802.684 134.67C802.237 135.17 801.691 135.55 801.044 135.81C800.404 136.07 799.734 136.2 799.034 136.2ZM796.424 129.88H801.284C801.284 129.38 801.194 128.93 801.014 128.53C800.841 128.123 800.577 127.803 800.224 127.57C799.871 127.33 799.424 127.21 798.884 127.21C798.351 127.21 797.901 127.34 797.534 127.6C797.167 127.86 796.891 128.197 796.704 128.61C796.517 129.017 796.424 129.44 796.424 129.88ZM805.909 136V125.66H808.239V127.9C808.406 127.387 808.643 126.95 808.949 126.59C809.263 126.223 809.629 125.943 810.049 125.75C810.469 125.557 810.926 125.46 811.419 125.46C811.539 125.46 811.656 125.467 811.769 125.48C811.883 125.493 811.966 125.517 812.019 125.55V127.88C811.946 127.847 811.849 127.823 811.729 127.81C811.616 127.797 811.516 127.79 811.429 127.79C810.929 127.75 810.486 127.77 810.099 127.85C809.719 127.93 809.396 128.067 809.129 128.26C808.869 128.447 808.673 128.687 808.539 128.98C808.406 129.267 808.339 129.603 808.339 129.99V136H805.909Z" fill="#1A1B1D"/>
<path d="M364 354.5C364 325.505 387.505 302 416.5 302C445.495 302 469 325.505 469 354.5C469 383.495 445.495 407 416.5 407C387.505 407 364 383.495 364 354.5Z" fill="#014063"/>
<path d="M416.473 352.73C410.854 352.73 406.283 348.159 406.283 342.541C406.283 336.923 410.854 332.352 416.473 332.352C422.091 332.352 426.662 336.923 426.662 342.541C426.662 348.159 422.091 352.73 416.473 352.73Z" fill="white"/>
<path d="M408.133 356.742C402.796 356.742 398.453 361.085 398.453 366.422V374.574C398.453 375.417 399.138 376.102 399.982 376.102L432.937 376.102C433.781 376.102 434.466 375.417 434.466 374.574V366.422C434.466 361.085 430.123 356.742 424.786 356.742L408.133 356.742Z" fill="white"/>
<path d="M772.287 9.76562C751.816 9.76562 729.531 14.8009 729.531 25.7505C729.531 36.7001 751.816 41.7354 772.287 41.7354C792.758 41.7354 814.76 36.7001 814.76 25.7505C814.76 14.8009 792.758 9.76562 772.287 9.76562Z" fill="#014063"/>
<path fill-rule="evenodd" clip-rule="evenodd" d="M772.287 50.5278C756.232 50.5278 739.215 47.6968 729.531 40.9035V97.9495C729.531 108.899 751.816 113.934 772.287 113.934C792.758 113.934 814.76 108.899 814.76 97.9495V41.4697C805.076 48.263 788.342 50.5278 772.287 50.5278ZM773.907 64.1143C765.897 64.1143 760.521 68.815 760.521 77.8898V84.3399C761.289 83.9573 762.167 83.7384 763.099 83.7384C764.031 83.7384 764.91 83.9573 765.733 84.3399V77.8348C765.733 71.9312 768.969 68.925 773.907 68.925C778.845 68.925 782.082 71.9312 782.082 77.8348V91.993H787.293V77.8348C787.349 68.7062 781.917 64.1143 773.907 64.1143ZM747.08 81.2792C747.52 80.5677 748.123 80.0212 748.781 79.6936C749.989 79.0921 751.47 79.0921 752.732 79.6386C753.884 80.3501 754.433 81.5518 754.762 82.7548C755.202 84.2854 755.75 85.4334 757.122 86.2536C758.492 87.074 759.809 86.9102 761.346 86.5275C762.607 86.2549 763.924 86.0899 765.076 86.7463C766.338 87.4566 767.105 88.7134 767.161 90.0802V90.6266C767.051 91.9384 766.338 93.2502 765.076 93.9606C763.87 94.6708 762.553 94.5069 761.346 94.1791C759.81 93.7967 758.494 93.6316 757.122 94.4518C755.694 95.2171 755.201 96.4204 754.762 97.9506C754.433 99.1539 753.884 100.412 752.732 101.067C751.47 101.777 749.989 101.777 748.781 101.176C748.068 100.847 747.519 100.301 747.08 99.59C746.64 98.8798 746.476 98.1145 746.531 97.3492C746.64 96.0375 747.354 94.7259 748.616 94.0157C749.822 93.3052 751.139 93.469 752.346 93.7967C753.881 94.1791 755.198 94.343 756.57 93.5229H756.625C758.985 92.1573 758.985 88.7134 756.625 87.3466H756.57C755.199 86.5263 753.883 86.6901 752.346 87.0728C751.084 87.3454 749.768 87.5092 748.616 86.8539C747.354 86.1436 746.586 84.8869 746.531 83.5201C746.477 82.7548 746.642 81.9895 747.08 81.2792Z" fill="#014063"/>
<rect x="736" y="62" width="71" height="41" fill="#014063"/>
<path d="M732.998 136V121.54H742.458L742.448 123.6H735.468V127.76H741.628V129.79H735.468V136H732.998ZM749.058 136.2C748.071 136.2 747.211 135.99 746.478 135.57C745.745 135.143 745.175 134.533 744.768 133.74C744.368 132.947 744.168 131.993 744.168 130.88C744.168 129.8 744.365 128.853 744.758 128.04C745.151 127.227 745.711 126.593 746.438 126.14C747.171 125.687 748.048 125.46 749.068 125.46C750.055 125.46 750.911 125.677 751.638 126.11C752.365 126.543 752.925 127.163 753.318 127.97C753.718 128.777 753.918 129.747 753.918 130.88C753.918 131.927 753.728 132.85 753.348 133.65C752.975 134.443 752.425 135.067 751.698 135.52C750.978 135.973 750.098 136.2 749.058 136.2ZM749.068 134.35C749.628 134.35 750.088 134.197 750.448 133.89C750.815 133.583 751.088 133.163 751.268 132.63C751.448 132.097 751.538 131.49 751.538 130.81C751.538 130.177 751.458 129.593 751.298 129.06C751.138 128.527 750.875 128.1 750.508 127.78C750.148 127.453 749.668 127.29 749.068 127.29C748.501 127.29 748.031 127.44 747.658 127.74C747.291 128.033 747.018 128.447 746.838 128.98C746.658 129.507 746.568 130.117 746.568 130.81C746.568 131.437 746.648 132.02 746.808 132.56C746.968 133.093 747.231 133.527 747.598 133.86C747.965 134.187 748.455 134.35 749.068 134.35ZM759.124 136.15C758.457 136.15 757.924 136.067 757.524 135.9C757.124 135.733 756.824 135.51 756.624 135.23C756.424 134.95 756.294 134.637 756.234 134.29C756.174 133.937 756.144 133.577 756.144 133.21V121.14H758.524V132.93C758.524 133.377 758.614 133.723 758.794 133.97C758.98 134.217 759.28 134.36 759.694 134.4L760.214 134.42V135.95C760.034 136.003 759.85 136.05 759.664 136.09C759.477 136.13 759.297 136.15 759.124 136.15ZM765.178 136.15C764.512 136.15 763.978 136.067 763.578 135.9C763.178 135.733 762.878 135.51 762.678 135.23C762.478 134.95 762.348 134.637 762.288 134.29C762.228 133.937 762.198 133.577 762.198 133.21V121.14H764.578V132.93C764.578 133.377 764.668 133.723 764.848 133.97C765.035 134.217 765.335 134.36 765.748 134.4L766.268 134.42V135.95C766.088 136.003 765.905 136.05 765.718 136.09C765.532 136.13 765.352 136.15 765.178 136.15ZM772.339 136.2C771.352 136.2 770.492 135.99 769.759 135.57C769.026 135.143 768.456 134.533 768.049 133.74C767.649 132.947 767.449 131.993 767.449 130.88C767.449 129.8 767.646 128.853 768.039 128.04C768.432 127.227 768.992 126.593 769.719 126.14C770.452 125.687 771.329 125.46 772.349 125.46C773.336 125.46 774.192 125.677 774.919 126.11C775.646 126.543 776.206 127.163 776.599 127.97C776.999 128.777 777.199 129.747 777.199 130.88C777.199 131.927 777.009 132.85 776.629 133.65C776.256 134.443 775.706 135.067 774.979 135.52C774.259 135.973 773.379 136.2 772.339 136.2ZM772.349 134.35C772.909 134.35 773.369 134.197 773.729 133.89C774.096 133.583 774.369 133.163 774.549 132.63C774.729 132.097 774.819 131.49 774.819 130.81C774.819 130.177 774.739 129.593 774.579 129.06C774.419 128.527 774.156 128.1 773.789 127.78C773.429 127.453 772.949 127.29 772.349 127.29C771.782 127.29 771.312 127.44 770.939 127.74C770.572 128.033 770.299 128.447 770.119 128.98C769.939 129.507 769.849 130.117 769.849 130.81C769.849 131.437 769.929 132.02 770.089 132.56C770.249 133.093 770.512 133.527 770.879 133.86C771.246 134.187 771.736 134.35 772.349 134.35ZM781.51 136L778.23 125.66H780.42L782.57 132.77H782.69L784.78 125.66H786.55L788.7 132.76H788.82L790.9 125.66H793.13L789.85 136H787.75L785.63 129.11L783.56 136H781.51ZM799.21 136.2C798.216 136.2 797.34 135.99 796.58 135.57C795.826 135.143 795.236 134.537 794.81 133.75C794.39 132.963 794.18 132.027 794.18 130.94C794.18 129.88 794.37 128.94 794.75 128.12C795.136 127.293 795.693 126.643 796.42 126.17C797.153 125.697 798.036 125.46 799.07 125.46C800.09 125.46 800.946 125.677 801.64 126.11C802.333 126.543 802.86 127.15 803.22 127.93C803.58 128.703 803.76 129.61 803.76 130.65V131.39H796.61C796.603 131.977 796.696 132.497 796.89 132.95C797.083 133.403 797.37 133.76 797.75 134.02C798.13 134.273 798.6 134.4 799.16 134.4C799.733 134.4 800.23 134.273 800.65 134.02C801.076 133.76 801.36 133.367 801.5 132.84H803.72C803.6 133.56 803.313 134.17 802.86 134.67C802.413 135.17 801.866 135.55 801.22 135.81C800.58 136.07 799.91 136.2 799.21 136.2ZM796.6 129.88H801.46C801.46 129.38 801.37 128.93 801.19 128.53C801.016 128.123 800.753 127.803 800.4 127.57C800.046 127.33 799.6 127.21 799.06 127.21C798.526 127.21 798.076 127.34 797.71 127.6C797.343 127.86 797.066 128.197 796.88 128.61C796.693 129.017 796.6 129.44 796.6 129.88ZM806.085 136V125.66H808.415V127.9C808.582 127.387 808.818 126.95 809.125 126.59C809.438 126.223 809.805 125.943 810.225 125.75C810.645 125.557 811.102 125.46 811.595 125.46C811.715 125.46 811.832 125.467 811.945 125.48C812.058 125.493 812.142 125.517 812.195 125.55V127.88C812.122 127.847 812.025 127.823 811.905 127.81C811.792 127.797 811.692 127.79 811.605 127.79C811.105 127.75 810.662 127.77 810.275 127.85C809.895 127.93 809.572 128.067 809.305 128.26C809.045 128.447 808.848 128.687 808.715 128.98C808.582 129.267 808.515 129.603 808.515 129.99V136H806.085Z" fill="#1A1B1D"/>
<path d="M396.716 429.2C395.389 429.2 394.249 428.897 393.296 428.29C392.349 427.677 391.619 426.81 391.106 425.69C390.599 424.563 390.346 423.227 390.346 421.68C390.346 420.14 390.599 418.823 391.106 417.73C391.613 416.637 392.339 415.8 393.286 415.22C394.239 414.633 395.383 414.34 396.716 414.34C397.776 414.34 398.716 414.557 399.536 414.99C400.356 415.417 401.016 415.997 401.516 416.73C402.023 417.463 402.323 418.28 402.416 419.18H399.846C399.746 418.647 399.559 418.17 399.286 417.75C399.019 417.33 398.666 416.997 398.226 416.75C397.786 416.503 397.259 416.38 396.646 416.38C395.879 416.38 395.226 416.563 394.686 416.93C394.153 417.29 393.743 417.863 393.456 418.65C393.176 419.437 393.036 420.457 393.036 421.71C393.036 423.61 393.349 424.993 393.976 425.86C394.603 426.727 395.493 427.16 396.646 427.16C397.259 427.16 397.786 427.027 398.226 426.76C398.666 426.487 399.019 426.127 399.286 425.68C399.559 425.227 399.746 424.733 399.846 424.2H402.416C402.336 424.853 402.169 425.48 401.916 426.08C401.669 426.68 401.319 427.217 400.866 427.69C400.413 428.157 399.843 428.527 399.156 428.8C398.476 429.067 397.663 429.2 396.716 429.2ZM407.778 429.15C407.111 429.15 406.578 429.067 406.178 428.9C405.778 428.733 405.478 428.51 405.278 428.23C405.078 427.95 404.948 427.637 404.888 427.29C404.828 426.937 404.798 426.577 404.798 426.21V414.14H407.178V425.93C407.178 426.377 407.268 426.723 407.448 426.97C407.635 427.217 407.935 427.36 408.348 427.4L408.868 427.42V428.95C408.688 429.003 408.505 429.05 408.318 429.09C408.131 429.13 407.951 429.15 407.778 429.15ZM411.088 429V418.66H413.418V429H411.088ZM411.048 416.85V414.55H413.458V416.85H411.048ZM420.774 429.2C419.781 429.2 418.904 428.99 418.144 428.57C417.391 428.143 416.801 427.537 416.374 426.75C415.954 425.963 415.744 425.027 415.744 423.94C415.744 422.88 415.934 421.94 416.314 421.12C416.701 420.293 417.258 419.643 417.984 419.17C418.718 418.697 419.601 418.46 420.634 418.46C421.654 418.46 422.511 418.677 423.204 419.11C423.898 419.543 424.424 420.15 424.784 420.93C425.144 421.703 425.324 422.61 425.324 423.65V424.39H418.174C418.168 424.977 418.261 425.497 418.454 425.95C418.648 426.403 418.934 426.76 419.314 427.02C419.694 427.273 420.164 427.4 420.724 427.4C421.298 427.4 421.794 427.273 422.214 427.02C422.641 426.76 422.924 426.367 423.064 425.84H425.284C425.164 426.56 424.878 427.17 424.424 427.67C423.978 428.17 423.431 428.55 422.784 428.81C422.144 429.07 421.474 429.2 420.774 429.2ZM418.164 422.88H423.024C423.024 422.38 422.934 421.93 422.754 421.53C422.581 421.123 422.318 420.803 421.964 420.57C421.611 420.33 421.164 420.21 420.624 420.21C420.091 420.21 419.641 420.34 419.274 420.6C418.908 420.86 418.631 421.197 418.444 421.61C418.258 422.017 418.164 422.44 418.164 422.88ZM427.65 429V418.66H430.03V420.14C430.19 419.873 430.406 419.617 430.68 419.37C430.96 419.123 431.303 418.923 431.71 418.77C432.116 418.617 432.593 418.54 433.14 418.54C433.78 418.54 434.373 418.667 434.92 418.92C435.473 419.173 435.916 419.57 436.25 420.11C436.59 420.65 436.76 421.347 436.76 422.2V429H434.32V422.49C434.32 421.81 434.133 421.307 433.76 420.98C433.386 420.647 432.916 420.48 432.35 420.48C431.963 420.48 431.596 420.547 431.25 420.68C430.903 420.807 430.62 421.003 430.4 421.27C430.186 421.53 430.08 421.857 430.08 422.25V429H427.65ZM443.108 429.08C442.288 429.08 441.651 428.973 441.198 428.76C440.751 428.54 440.441 428.23 440.268 427.83C440.095 427.43 440.008 426.953 440.008 426.4V420.38H438.328V418.66H440.078L440.688 415.59H442.438V418.65H444.748V420.38H442.438L442.448 426.31C442.448 426.617 442.481 426.843 442.548 426.99C442.621 427.13 442.735 427.223 442.888 427.27C443.048 427.31 443.258 427.33 443.518 427.33H444.798V428.87C444.658 428.923 444.451 428.97 444.178 429.01C443.911 429.057 443.555 429.08 443.108 429.08Z" fill="#1A1B1D"/>
<path d="M772.287 9.76562C751.816 9.76562 729.531 14.8009 729.531 25.7505C729.531 36.7001 751.816 41.7354 772.287 41.7354C792.758 41.7354 814.76 36.7001 814.76 25.7505C814.76 14.8009 792.758 9.76562 772.287 9.76562Z" fill="#014063"/>
<path fill-rule="evenodd" clip-rule="evenodd" d="M772.287 50.5278C756.232 50.5278 739.215 47.6968 729.531 40.9035V97.9495C729.531 108.899 751.816 113.934 772.287 113.934C792.758 113.934 814.76 108.899 814.76 97.9495V41.4697C805.076 48.263 788.342 50.5278 772.287 50.5278ZM773.907 64.1143C765.897 64.1143 760.521 68.815 760.521 77.8898V84.3399C761.289 83.9573 762.167 83.7384 763.099 83.7384C764.031 83.7384 764.91 83.9573 765.733 84.3399V77.8348C765.733 71.9312 768.969 68.925 773.907 68.925C778.845 68.925 782.082 71.9312 782.082 77.8348V91.993H787.293V77.8348C787.349 68.7062 781.917 64.1143 773.907 64.1143ZM747.08 81.2792C747.52 80.5677 748.123 80.0212 748.781 79.6936C749.989 79.0921 751.47 79.0921 752.732 79.6386C753.884 80.3501 754.433 81.5518 754.762 82.7548C755.202 84.2854 755.75 85.4334 757.122 86.2536C758.492 87.074 759.809 86.9102 761.346 86.5275C762.607 86.2549 763.924 86.0899 765.076 86.7463C766.338 87.4566 767.105 88.7134 767.161 90.0802V90.6266C767.051 91.9384 766.338 93.2502 765.076 93.9606C763.87 94.6708 762.553 94.5069 761.346 94.1791C759.81 93.7967 758.494 93.6316 757.122 94.4518C755.694 95.2171 755.201 96.4204 754.762 97.9506C754.433 99.1539 753.884 100.412 752.732 101.067C751.47 101.777 749.989 101.777 748.781 101.176C748.068 100.847 747.519 100.301 747.08 99.59C746.64 98.8798 746.476 98.1145 746.531 97.3492C746.64 96.0375 747.354 94.7259 748.616 94.0157C749.822 93.3052 751.139 93.469 752.346 93.7967C753.881 94.1791 755.198 94.343 756.57 93.5229H756.625C758.985 92.1573 758.985 88.7134 756.625 87.3466H756.57C755.199 86.5263 753.883 86.6901 752.346 87.0728C751.084 87.3454 749.768 87.5092 748.616 86.8539C747.354 86.1436 746.586 84.8869 746.531 83.5201C746.477 82.7548 746.642 81.9895 747.08 81.2792Z" fill="#014063"/>
<rect x="736" y="62" width="71" height="41" fill="#014063"/>
<path d="M23.1738 136V121.54H32.6338L32.6238 123.6H25.6438V127.76H31.8038V129.79H25.6438V136H23.1738ZM38.8821 136.2C37.8954 136.2 37.0354 135.99 36.3021 135.57C35.5688 135.143 34.9988 134.533 34.5921 133.74C34.1921 132.947 33.9921 131.993 33.9921 130.88C33.9921 129.8 34.1888 128.853 34.5821 128.04C34.9754 127.227 35.5354 126.593 36.2621 126.14C36.9954 125.687 37.8721 125.46 38.8921 125.46C39.8788 125.46 40.7354 125.677 41.4621 126.11C42.1888 126.543 42.7488 127.163 43.1421 127.97C43.5421 128.777 43.7421 129.747 43.7421 130.88C43.7421 131.927 43.5521 132.85 43.1721 133.65C42.7988 134.443 42.2488 135.067 41.5221 135.52C40.8021 135.973 39.9221 136.2 38.8821 136.2ZM38.8921 134.35C39.4521 134.35 39.9121 134.197 40.2721 133.89C40.6388 133.583 40.9121 133.163 41.0921 132.63C41.2721 132.097 41.3621 131.49 41.3621 130.81C41.3621 130.177 41.2821 129.593 41.1221 129.06C40.9621 128.527 40.6988 128.1 40.3321 127.78C39.9721 127.453 39.4921 127.29 38.8921 127.29C38.3254 127.29 37.8554 127.44 37.4821 127.74C37.1154 128.033 36.8421 128.447 36.6621 128.98C36.4821 129.507 36.3921 130.117 36.3921 130.81C36.3921 131.437 36.4721 132.02 36.6321 132.56C36.7921 133.093 37.0554 133.527 37.4221 133.86C37.7888 134.187 38.2788 134.35 38.8921 134.35ZM48.9479 136.15C48.2812 136.15 47.7479 136.067 47.3479 135.9C46.9479 135.733 46.6479 135.51 46.4479 135.23C46.2479 134.95 46.1179 134.637 46.0579 134.29C45.9979 133.937 45.9679 133.577 45.9679 133.21V121.14H48.3479V132.93C48.3479 133.377 48.4379 133.723 48.6179 133.97C48.8046 134.217 49.1046 134.36 49.5179 134.4L50.0379 134.42V135.95C49.8579 136.003 49.6746 136.05 49.4879 136.09C49.3012 136.13 49.1212 136.15 48.9479 136.15ZM55.0026 136.15C54.3359 136.15 53.8026 136.067 53.4026 135.9C53.0026 135.733 52.7026 135.51 52.5026 135.23C52.3026 134.95 52.1726 134.637 52.1126 134.29C52.0526 133.937 52.0226 133.577 52.0226 133.21V121.14H54.4026V132.93C54.4026 133.377 54.4926 133.723 54.6726 133.97C54.8592 134.217 55.1592 134.36 55.5726 134.4L56.0926 134.42V135.95C55.9126 136.003 55.7292 136.05 55.5426 136.09C55.3559 136.13 55.1759 136.15 55.0026 136.15ZM62.1634 136.2C61.1767 136.2 60.3167 135.99 59.5834 135.57C58.85 135.143 58.28 134.533 57.8734 133.74C57.4734 132.947 57.2734 131.993 57.2734 130.88C57.2734 129.8 57.47 128.853 57.8634 128.04C58.2567 127.227 58.8167 126.593 59.5434 126.14C60.2767 125.687 61.1534 125.46 62.1734 125.46C63.16 125.46 64.0167 125.677 64.7434 126.11C65.47 126.543 66.03 127.163 66.4234 127.97C66.8234 128.777 67.0234 129.747 67.0234 130.88C67.0234 131.927 66.8334 132.85 66.4534 133.65C66.08 134.443 65.53 135.067 64.8034 135.52C64.0834 135.973 63.2034 136.2 62.1634 136.2ZM62.1734 134.35C62.7334 134.35 63.1934 134.197 63.5534 133.89C63.92 133.583 64.1934 133.163 64.3734 132.63C64.5534 132.097 64.6434 131.49 64.6434 130.81C64.6434 130.177 64.5634 129.593 64.4034 129.06C64.2434 128.527 63.98 128.1 63.6134 127.78C63.2534 127.453 62.7734 127.29 62.1734 127.29C61.6067 127.29 61.1367 127.44 60.7634 127.74C60.3967 128.033 60.1234 128.447 59.9434 128.98C59.7634 129.507 59.6734 130.117 59.6734 130.81C59.6734 131.437 59.7534 132.02 59.9134 132.56C60.0734 133.093 60.3367 133.527 60.7034 133.86C61.07 134.187 61.56 134.35 62.1734 134.35ZM71.3343 136L68.0543 125.66H70.2443L72.3943 132.77H72.5143L74.6043 125.66H76.3743L78.5243 132.76H78.6443L80.7243 125.66H82.9543L79.6743 136H77.5743L75.4543 129.11L73.3843 136H71.3343ZM89.034 136.2C88.0407 136.2 87.164 135.99 86.404 135.57C85.6507 135.143 85.0607 134.537 84.634 133.75C84.214 132.963 84.004 132.027 84.004 130.94C84.004 129.88 84.194 128.94 84.574 128.12C84.9607 127.293 85.5173 126.643 86.244 126.17C86.9773 125.697 87.8607 125.46 88.894 125.46C89.914 125.46 90.7707 125.677 91.464 126.11C92.1573 126.543 92.684 127.15 93.044 127.93C93.404 128.703 93.584 129.61 93.584 130.65V131.39H86.434C86.4273 131.977 86.5207 132.497 86.714 132.95C86.9073 133.403 87.194 133.76 87.574 134.02C87.954 134.273 88.424 134.4 88.984 134.4C89.5573 134.4 90.054 134.273 90.474 134.02C90.9007 133.76 91.184 133.367 91.324 132.84H93.544C93.424 133.56 93.1373 134.17 92.684 134.67C92.2373 135.17 91.6907 135.55 91.044 135.81C90.404 136.07 89.734 136.2 89.034 136.2ZM86.424 129.88H91.284C91.284 129.38 91.194 128.93 91.014 128.53C90.8407 128.123 90.5773 127.803 90.224 127.57C89.8707 127.33 89.424 127.21 88.884 127.21C88.3507 127.21 87.9007 127.34 87.534 127.6C87.1673 127.86 86.8907 128.197 86.704 128.61C86.5173 129.017 86.424 129.44 86.424 129.88ZM95.9093 136V125.66H98.2393V127.9C98.406 127.387 98.6426 126.95 98.9493 126.59C99.2626 126.223 99.6293 125.943 100.049 125.75C100.469 125.557 100.926 125.46 101.419 125.46C101.539 125.46 101.656 125.467 101.769 125.48C101.883 125.493 101.966 125.517 102.019 125.55V127.88C101.946 127.847 101.849 127.823 101.729 127.81C101.616 127.797 101.516 127.79 101.429 127.79C100.929 127.75 100.486 127.77 100.099 127.85C99.7193 127.93 99.396 128.067 99.1293 128.26C98.8693 128.447 98.6726 128.687 98.5393 128.98C98.406 129.267 98.3393 129.603 98.3393 129.99V136H95.9093Z" fill="#1A1B1D"/>
<path d="M62.2872 9.76562C41.8163 9.76562 19.5315 14.8009 19.5315 25.7505C19.5315 36.7001 41.8163 41.7354 62.2872 41.7354C82.7582 41.7354 104.76 36.7001 104.76 25.7505C104.76 14.8009 82.7582 9.76562 62.2872 9.76562Z" fill="#014063"/>
<path fill-rule="evenodd" clip-rule="evenodd" d="M62.287 50.5278C46.2324 50.5278 29.215 47.6968 19.5312 40.9035V97.9495C19.5312 108.899 41.8161 113.934 62.287 113.934C82.7579 113.934 104.76 108.899 104.76 97.9495V41.4697C95.0758 48.263 78.3416 50.5278 62.287 50.5278ZM63.9071 64.1143C55.8973 64.1143 50.5209 68.815 50.5209 77.8898V84.3399C51.2886 83.9573 52.1668 83.7384 53.0991 83.7384C54.0315 83.7384 54.9097 83.9573 55.7327 84.3399V77.8348C55.7327 71.9312 58.9693 68.925 63.9071 68.925C68.845 68.925 72.0816 71.9312 72.0816 77.8348V91.993H77.2933V77.8348C77.3486 68.7062 71.917 64.1143 63.9071 64.1143ZM37.0801 81.2792C37.5199 80.5677 38.123 80.0212 38.7814 79.6936C39.9888 79.0921 41.4701 79.0921 42.7316 79.6386C43.8838 80.3501 44.4328 81.5518 44.7621 82.7548C45.2018 84.2854 45.7496 85.4334 47.1216 86.2536C48.4925 87.074 49.8092 86.9102 51.3458 86.5275C52.6073 86.2549 53.9241 86.0899 55.0762 86.7463C56.3377 87.4566 57.1054 88.7134 57.1607 90.0802V90.6266C57.0514 91.9384 56.3377 93.2502 55.0762 93.9606C53.87 94.6708 52.5533 94.5069 51.3458 94.1791C49.8104 93.7967 48.4937 93.6316 47.1216 94.4518C45.6943 95.2171 45.2006 96.4204 44.7621 97.9506C44.4328 99.1539 43.8838 100.412 42.7316 101.067C41.4701 101.777 39.9888 101.777 38.7814 101.176C38.0677 100.847 37.5187 100.301 37.0801 99.59C36.6404 98.8798 36.4758 98.1145 36.5311 97.3492C36.6404 96.0375 37.3541 94.7259 38.6155 94.0157C39.8217 93.3052 41.1385 93.469 42.346 93.7967C43.8814 94.1791 45.1981 94.343 46.5702 93.5229H46.6254C48.985 92.1573 48.985 88.7134 46.6254 87.3466H46.5702C45.1993 86.5263 43.8826 86.6901 42.346 87.0728C41.0845 87.3454 39.7677 87.5092 38.6155 86.8539C37.3541 86.1436 36.5864 84.8869 36.5311 83.5201C36.477 82.7548 36.6416 81.9895 37.0801 81.2792Z" fill="#014063"/>
<rect x="26" y="62" width="71" height="41" fill="#014063"/>
<path d="M23.1738 136V121.54H32.6338L32.6238 123.6H25.6438V127.76H31.8038V129.79H25.6438V136H23.1738ZM38.8821 136.2C37.8954 136.2 37.0354 135.99 36.3021 135.57C35.5688 135.143 34.9988 134.533 34.5921 133.74C34.1921 132.947 33.9921 131.993 33.9921 130.88C33.9921 129.8 34.1888 128.853 34.5821 128.04C34.9754 127.227 35.5354 126.593 36.2621 126.14C36.9954 125.687 37.8721 125.46 38.8921 125.46C39.8788 125.46 40.7354 125.677 41.4621 126.11C42.1888 126.543 42.7488 127.163 43.1421 127.97C43.5421 128.777 43.7421 129.747 43.7421 130.88C43.7421 131.927 43.5521 132.85 43.1721 133.65C42.7988 134.443 42.2488 135.067 41.5221 135.52C40.8021 135.973 39.9221 136.2 38.8821 136.2ZM38.8921 134.35C39.4521 134.35 39.9121 134.197 40.2721 133.89C40.6388 133.583 40.9121 133.163 41.0921 132.63C41.2721 132.097 41.3621 131.49 41.3621 130.81C41.3621 130.177 41.2821 129.593 41.1221 129.06C40.9621 128.527 40.6988 128.1 40.3321 127.78C39.9721 127.453 39.4921 127.29 38.8921 127.29C38.3254 127.29 37.8554 127.44 37.4821 127.74C37.1154 128.033 36.8421 128.447 36.6621 128.98C36.4821 129.507 36.3921 130.117 36.3921 130.81C36.3921 131.437 36.4721 132.02 36.6321 132.56C36.7921 133.093 37.0554 133.527 37.4221 133.86C37.7888 134.187 38.2788 134.35 38.8921 134.35ZM48.9479 136.15C48.2812 136.15 47.7479 136.067 47.3479 135.9C46.9479 135.733 46.6479 135.51 46.4479 135.23C46.2479 134.95 46.1179 134.637 46.0579 134.29C45.9979 133.937 45.9679 133.577 45.9679 133.21V121.14H48.3479V132.93C48.3479 133.377 48.4379 133.723 48.6179 133.97C48.8046 134.217 49.1046 134.36 49.5179 134.4L50.0379 134.42V135.95C49.8579 136.003 49.6746 136.05 49.4879 136.09C49.3012 136.13 49.1212 136.15 48.9479 136.15ZM55.0026 136.15C54.3359 136.15 53.8026 136.067 53.4026 135.9C53.0026 135.733 52.7026 135.51 52.5026 135.23C52.3026 134.95 52.1726 134.637 52.1126 134.29C52.0526 133.937 52.0226 133.577 52.0226 133.21V121.14H54.4026V132.93C54.4026 133.377 54.4926 133.723 54.6726 133.97C54.8592 134.217 55.1592 134.36 55.5726 134.4L56.0926 134.42V135.95C55.9126 136.003 55.7292 136.05 55.5426 136.09C55.3559 136.13 55.1759 136.15 55.0026 136.15ZM62.1634 136.2C61.1767 136.2 60.3167 135.99 59.5834 135.57C58.85 135.143 58.28 134.533 57.8734 133.74C57.4734 132.947 57.2734 131.993 57.2734 130.88C57.2734 129.8 57.47 128.853 57.8634 128.04C58.2567 127.227 58.8167 126.593 59.5434 126.14C60.2767 125.687 61.1534 125.46 62.1734 125.46C63.16 125.46 64.0167 125.677 64.7434 126.11C65.47 126.543 66.03 127.163 66.4234 127.97C66.8234 128.777 67.0234 129.747 67.0234 130.88C67.0234 131.927 66.8334 132.85 66.4534 133.65C66.08 134.443 65.53 135.067 64.8034 135.52C64.0834 135.973 63.2034 136.2 62.1634 136.2ZM62.1734 134.35C62.7334 134.35 63.1934 134.197 63.5534 133.89C63.92 133.583 64.1934 133.163 64.3734 132.63C64.5534 132.097 64.6434 131.49 64.6434 130.81C64.6434 130.177 64.5634 129.593 64.4034 129.06C64.2434 128.527 63.98 128.1 63.6134 127.78C63.2534 127.453 62.7734 127.29 62.1734 127.29C61.6067 127.29 61.1367 127.44 60.7634 127.74C60.3967 128.033 60.1234 128.447 59.9434 128.98C59.7634 129.507 59.6734 130.117 59.6734 130.81C59.6734 131.437 59.7534 132.02 59.9134 132.56C60.0734 133.093 60.3367 133.527 60.7034 133.86C61.07 134.187 61.56 134.35 62.1734 134.35ZM71.3343 136L68.0543 125.66H70.2443L72.3943 132.77H72.5143L74.6043 125.66H76.3743L78.5243 132.76H78.6443L80.7243 125.66H82.9543L79.6743 136H77.5743L75.4543 129.11L73.3843 136H71.3343ZM89.034 136.2C88.0407 136.2 87.164 135.99 86.404 135.57C85.6507 135.143 85.0607 134.537 84.634 133.75C84.214 132.963 84.004 132.027 84.004 130.94C84.004 129.88 84.194 128.94 84.574 128.12C84.9607 127.293 85.5173 126.643 86.244 126.17C86.9773 125.697 87.8607 125.46 88.894 125.46C89.914 125.46 90.7707 125.677 91.464 126.11C92.1573 126.543 92.684 127.15 93.044 127.93C93.404 128.703 93.584 129.61 93.584 130.65V131.39H86.434C86.4273 131.977 86.5207 132.497 86.714 132.95C86.9073 133.403 87.194 133.76 87.574 134.02C87.954 134.273 88.424 134.4 88.984 134.4C89.5573 134.4 90.054 134.273 90.474 134.02C90.9007 133.76 91.184 133.367 91.324 132.84H93.544C93.424 133.56 93.1373 134.17 92.684 134.67C92.2373 135.17 91.6907 135.55 91.044 135.81C90.404 136.07 89.734 136.2 89.034 136.2ZM86.424 129.88H91.284C91.284 129.38 91.194 128.93 91.014 128.53C90.8407 128.123 90.5773 127.803 90.224 127.57C89.8707 127.33 89.424 127.21 88.884 127.21C88.3507 127.21 87.9007 127.34 87.534 127.6C87.1673 127.86 86.8907 128.197 86.704 128.61C86.5173 129.017 86.424 129.44 86.424 129.88ZM95.9093 136V125.66H98.2393V127.9C98.406 127.387 98.6426 126.95 98.9493 126.59C99.2626 126.223 99.6293 125.943 100.049 125.75C100.469 125.557 100.926 125.46 101.419 125.46C101.539 125.46 101.656 125.467 101.769 125.48C101.883 125.493 101.966 125.517 102.019 125.55V127.88C101.946 127.847 101.849 127.823 101.729 127.81C101.616 127.797 101.516 127.79 101.429 127.79C100.929 127.75 100.486 127.77 100.099 127.85C99.7193 127.93 99.396 128.067 99.1293 128.26C98.8693 128.447 98.6726 128.687 98.5393 128.98C98.406 129.267 98.3393 129.603 98.3393 129.99V136H95.9093Z" fill="#1A1B1D"/>
<path d="M62.2872 9.76562C41.8163 9.76562 19.5315 14.8009 19.5315 25.7505C19.5315 36.7001 41.8163 41.7354 62.2872 41.7354C82.7582 41.7354 104.76 36.7001 104.76 25.7505C104.76 14.8009 82.7582 9.76562 62.2872 9.76562Z" fill="#014063"/>
<path fill-rule="evenodd" clip-rule="evenodd" d="M62.287 50.5278C46.2324 50.5278 29.215 47.6968 19.5312 40.9035V97.9495C19.5312 108.899 41.8161 113.934 62.287 113.934C82.7579 113.934 104.76 108.899 104.76 97.9495V41.4697C95.0758 48.263 78.3416 50.5278 62.287 50.5278ZM63.9071 64.1143C55.8973 64.1143 50.5209 68.815 50.5209 77.8898V84.3399C51.2886 83.9573 52.1668 83.7384 53.0991 83.7384C54.0315 83.7384 54.9097 83.9573 55.7327 84.3399V77.8348C55.7327 71.9312 58.9693 68.925 63.9071 68.925C68.845 68.925 72.0816 71.9312 72.0816 77.8348V91.993H77.2933V77.8348C77.3486 68.7062 71.917 64.1143 63.9071 64.1143ZM37.0801 81.2792C37.5199 80.5677 38.123 80.0212 38.7814 79.6936C39.9888 79.0921 41.4701 79.0921 42.7316 79.6386C43.8838 80.3501 44.4328 81.5518 44.7621 82.7548C45.2018 84.2854 45.7496 85.4334 47.1216 86.2536C48.4925 87.074 49.8092 86.9102 51.3458 86.5275C52.6073 86.2549 53.9241 86.0899 55.0762 86.7463C56.3377 87.4566 57.1054 88.7134 57.1607 90.0802V90.6266C57.0514 91.9384 56.3377 93.2502 55.0762 93.9606C53.87 94.6708 52.5533 94.5069 51.3458 94.1791C49.8104 93.7967 48.4937 93.6316 47.1216 94.4518C45.6943 95.2171 45.2006 96.4204 44.7621 97.9506C44.4328 99.1539 43.8838 100.412 42.7316 101.067C41.4701 101.777 39.9888 101.777 38.7814 101.176C38.0677 100.847 37.5187 100.301 37.0801 99.59C36.6404 98.8798 36.4758 98.1145 36.5311 97.3492C36.6404 96.0375 37.3541 94.7259 38.6155 94.0157C39.8217 93.3052 41.1385 93.469 42.346 93.7967C43.8814 94.1791 45.1981 94.343 46.5702 93.5229H46.6254C48.985 92.1573 48.985 88.7134 46.6254 87.3466H46.5702C45.1993 86.5263 43.8826 86.6901 42.346 87.0728C41.0845 87.3454 39.7677 87.5092 38.6155 86.8539C37.3541 86.1436 36.5864 84.8869 36.5311 83.5201C36.477 82.7548 36.6416 81.9895 37.0801 81.2792Z" fill="#014063"/>
<rect x="26" y="62" width="71" height="41" fill="#014063"/>
<path d="M391.884 136L387.664 121.54H390.064L392.994 131.98L395.934 121.54H397.754L400.714 131.98L403.654 121.54H406.064L401.814 136H399.764L396.844 125.75L393.884 136H391.884ZM407.648 136V125.66H409.978V127.9C410.144 127.387 410.381 126.95 410.688 126.59C411.001 126.223 411.368 125.943 411.788 125.75C412.208 125.557 412.664 125.46 413.158 125.46C413.278 125.46 413.394 125.467 413.508 125.48C413.621 125.493 413.704 125.517 413.758 125.55V127.88C413.684 127.847 413.588 127.823 413.468 127.81C413.354 127.797 413.254 127.79 413.168 127.79C412.668 127.75 412.224 127.77 411.838 127.85C411.458 127.93 411.134 128.067 410.868 128.26C410.608 128.447 410.411 128.687 410.278 128.98C410.144 129.267 410.078 129.603 410.078 129.99V136H407.648ZM415.734 136V125.66H418.064V136H415.734ZM415.694 123.85V121.55H418.104V123.85H415.694ZM425.001 136.08C424.181 136.08 423.544 135.973 423.091 135.76C422.644 135.54 422.334 135.23 422.161 134.83C421.987 134.43 421.901 133.953 421.901 133.4V127.38H420.221V125.66H421.971L422.581 122.59H424.331V125.65H426.641V127.38H424.331L424.341 133.31C424.341 133.617 424.374 133.843 424.441 133.99C424.514 134.13 424.627 134.223 424.781 134.27C424.941 134.31 425.151 134.33 425.411 134.33H426.691V135.87C426.551 135.923 426.344 135.97 426.071 136.01C425.804 136.057 425.447 136.08 425.001 136.08ZM433.214 136.2C432.22 136.2 431.344 135.99 430.584 135.57C429.83 135.143 429.24 134.537 428.814 133.75C428.394 132.963 428.184 132.027 428.184 130.94C428.184 129.88 428.374 128.94 428.754 128.12C429.14 127.293 429.697 126.643 430.424 126.17C431.157 125.697 432.04 125.46 433.074 125.46C434.094 125.46 434.95 125.677 435.644 126.11C436.337 126.543 436.864 127.15 437.224 127.93C437.584 128.703 437.764 129.61 437.764 130.65V131.39H430.614C430.607 131.977 430.7 132.497 430.894 132.95C431.087 133.403 431.374 133.76 431.754 134.02C432.134 134.273 432.604 134.4 433.164 134.4C433.737 134.4 434.234 134.273 434.654 134.02C435.08 133.76 435.364 133.367 435.504 132.84H437.724C437.604 133.56 437.317 134.17 436.864 134.67C436.417 135.17 435.87 135.55 435.224 135.81C434.584 136.07 433.914 136.2 433.214 136.2ZM430.604 129.88H435.464C435.464 129.38 435.374 128.93 435.194 128.53C435.02 128.123 434.757 127.803 434.404 127.57C434.05 127.33 433.604 127.21 433.064 127.21C432.53 127.21 432.08 127.34 431.714 127.6C431.347 127.86 431.07 128.197 430.884 128.61C430.697 129.017 430.604 129.44 430.604 129.88ZM440.089 136V125.66H442.419V127.9C442.586 127.387 442.822 126.95 443.129 126.59C443.442 126.223 443.809 125.943 444.229 125.75C444.649 125.557 445.106 125.46 445.599 125.46C445.719 125.46 445.836 125.467 445.949 125.48C446.062 125.493 446.146 125.517 446.199 125.55V127.88C446.126 127.847 446.029 127.823 445.909 127.81C445.796 127.797 445.696 127.79 445.609 127.79C445.109 127.75 444.666 127.77 444.279 127.85C443.899 127.93 443.576 128.067 443.309 128.26C443.049 128.447 442.852 128.687 442.719 128.98C442.586 129.267 442.519 129.603 442.519 129.99V136H440.089Z" fill="#1A1B1D"/>
<path d="M386.461 295.707C386.851 296.098 387.485 296.098 387.875 295.707L394.239 289.343C394.63 288.953 394.63 288.32 394.239 287.929C393.849 287.539 393.215 287.539 392.825 287.929L387.168 293.586L381.511 287.929C381.121 287.539 380.487 287.539 380.097 287.929C379.706 288.32 379.706 288.953 380.097 289.343L386.461 295.707ZM388.168 261.893C388.168 261.34 387.72 260.893 387.168 260.893C386.616 260.893 386.168 261.34 386.168 261.893H387.168H388.168ZM386.168 222.893C386.168 223.445 386.616 223.893 387.168 223.893C387.72 223.893 388.168 223.445 388.168 222.893H387.168H386.168ZM388.168 151.371C388.168 150.819 387.72 150.371 387.168 150.371C386.616 150.371 386.168 150.819 386.168 151.371H387.168H388.168ZM387.168 295H388.168V261.893H387.168H386.168V295H387.168ZM387.168 222.893H388.168V151.371H387.168H386.168V222.893H387.168Z" fill="black" fill-opacity="0.8"/>
<path d="M358.741 246.12V244.699L363.77 236.756H364.889V238.847H364.179L360.582 244.54V244.631H367.474V246.12H358.741ZM364.258 248.393V245.688L364.27 245.04V236.756H365.935V248.393H364.258ZM370.676 248.501C370.365 248.501 370.098 248.391 369.875 248.171C369.651 247.948 369.54 247.679 369.54 247.364C369.54 247.054 369.651 246.788 369.875 246.569C370.098 246.345 370.365 246.233 370.676 246.233C370.987 246.233 371.254 246.345 371.477 246.569C371.701 246.788 371.812 247.054 371.812 247.364C371.812 247.573 371.759 247.764 371.653 247.938C371.551 248.108 371.415 248.245 371.244 248.347C371.074 248.449 370.884 248.501 370.676 248.501ZM379.541 248.393V236.756H383.688C384.59 236.756 385.338 236.912 385.933 237.222C386.531 237.533 386.978 237.963 387.274 238.512C387.569 239.057 387.717 239.688 387.717 240.404C387.717 241.116 387.567 241.743 387.268 242.285C386.972 242.823 386.525 243.241 385.927 243.54C385.332 243.84 384.584 243.989 383.683 243.989H380.541V242.478H383.524C384.092 242.478 384.554 242.396 384.91 242.233C385.27 242.071 385.533 241.834 385.7 241.523C385.866 241.213 385.95 240.84 385.95 240.404C385.95 239.965 385.864 239.584 385.694 239.262C385.527 238.94 385.264 238.694 384.904 238.523C384.548 238.349 384.08 238.262 383.501 238.262H381.296V248.393H379.541ZM385.285 243.143L388.16 248.393H386.16L383.342 243.143H385.285ZM393.193 248.569C392.333 248.569 391.592 248.385 390.971 248.018C390.354 247.646 389.876 247.126 389.539 246.455C389.206 245.781 389.039 244.991 389.039 244.086C389.039 243.192 389.206 242.404 389.539 241.722C389.876 241.04 390.346 240.508 390.948 240.126C391.554 239.743 392.263 239.552 393.073 239.552C393.566 239.552 394.043 239.633 394.505 239.796C394.967 239.959 395.382 240.215 395.75 240.563C396.117 240.912 396.407 241.364 396.619 241.921C396.831 242.474 396.937 243.146 396.937 243.938V244.54H390V243.268H395.272C395.272 242.821 395.181 242.425 395 242.08C394.818 241.732 394.562 241.457 394.232 241.256C393.907 241.055 393.524 240.955 393.085 240.955C392.607 240.955 392.191 241.073 391.835 241.307C391.482 241.538 391.21 241.841 391.017 242.216C390.827 242.588 390.732 242.991 390.732 243.427V244.421C390.732 245.004 390.835 245.501 391.039 245.91C391.248 246.319 391.537 246.631 391.909 246.847C392.28 247.059 392.714 247.165 393.21 247.165C393.532 247.165 393.825 247.12 394.09 247.029C394.356 246.934 394.585 246.794 394.778 246.608C394.971 246.423 395.119 246.194 395.221 245.921L396.829 246.211C396.7 246.684 396.469 247.099 396.136 247.455C395.806 247.807 395.392 248.082 394.892 248.279C394.395 248.472 393.829 248.569 393.193 248.569ZM398.646 251.665V239.665H400.305V241.08H400.447C400.546 240.898 400.688 240.688 400.873 240.449C401.059 240.211 401.316 240.002 401.646 239.824C401.975 239.643 402.411 239.552 402.953 239.552C403.657 239.552 404.286 239.73 404.839 240.086C405.392 240.442 405.826 240.955 406.14 241.626C406.458 242.296 406.618 243.103 406.618 244.046C406.618 244.989 406.46 245.798 406.146 246.472C405.832 247.143 405.4 247.66 404.85 248.023C404.301 248.383 403.674 248.563 402.97 248.563C402.44 248.563 402.006 248.474 401.669 248.296C401.335 248.118 401.074 247.91 400.885 247.671C400.695 247.432 400.549 247.22 400.447 247.035H400.345V251.665H398.646ZM400.311 244.029C400.311 244.643 400.4 245.18 400.578 245.643C400.756 246.105 401.013 246.466 401.35 246.728C401.688 246.985 402.1 247.114 402.589 247.114C403.097 247.114 403.521 246.98 403.862 246.711C404.203 246.438 404.46 246.069 404.635 245.603C404.813 245.137 404.902 244.612 404.902 244.029C404.902 243.453 404.815 242.936 404.64 242.478C404.47 242.019 404.212 241.658 403.868 241.393C403.527 241.127 403.1 240.995 402.589 240.995C402.097 240.995 401.68 241.122 401.339 241.376C401.002 241.629 400.746 241.983 400.572 242.438C400.398 242.893 400.311 243.423 400.311 244.029ZM410.044 236.756V248.393H408.345V236.756H410.044ZM413.227 251.665C412.973 251.665 412.742 251.644 412.534 251.603C412.326 251.565 412.17 251.523 412.068 251.478L412.477 250.086C412.788 250.169 413.064 250.205 413.307 250.194C413.549 250.182 413.763 250.091 413.949 249.921C414.138 249.751 414.305 249.472 414.449 249.086L414.659 248.506L411.466 239.665H413.284L415.494 246.438H415.585L417.795 239.665H419.619L416.023 249.557C415.856 250.012 415.644 250.396 415.386 250.711C415.129 251.029 414.822 251.268 414.466 251.427C414.11 251.586 413.697 251.665 413.227 251.665Z" fill="black" fill-opacity="0.8"/>
<path d="M446 295C446 295.552 446.448 296 447 296C447.552 296 448 295.552 448 295H447H446ZM448 219.171C448 218.619 447.552 218.171 447 218.171C446.448 218.171 446 218.619 446 219.171H447H448ZM446 180.171C446 180.723 446.448 181.171 447 181.171C447.552 181.171 448 180.723 448 180.171H447H446ZM447.707 149.321C447.317 148.931 446.683 148.931 446.293 149.321L439.929 155.685C439.538 156.076 439.538 156.709 439.929 157.099C440.319 157.49 440.953 157.49 441.343 157.099L447 151.443L452.657 157.099C453.047 157.49 453.681 157.49 454.071 157.099C454.462 156.709 454.462 156.076 454.071 155.685L447.707 149.321ZM447 295H448V219.171H447H446V295H447ZM447 180.171H448V150.028H447H446V180.171H447Z" fill="black" fill-opacity="0.8"/>
<path d="M425.763 194.035V205.671H424.002V195.796H423.933L421.149 197.614V195.932L424.053 194.035H425.763ZM431.532 205.779C431.221 205.779 430.954 205.669 430.73 205.449C430.507 205.226 430.395 204.957 430.395 204.642C430.395 204.332 430.507 204.067 430.73 203.847C430.954 203.624 431.221 203.512 431.532 203.512C431.842 203.512 432.109 203.624 432.333 203.847C432.556 204.067 432.668 204.332 432.668 204.642C432.668 204.851 432.615 205.042 432.509 205.216C432.407 205.387 432.27 205.523 432.1 205.625C431.929 205.728 431.74 205.779 431.532 205.779ZM442.674 205.671L439.447 194.035H441.294L443.561 203.046H443.669L446.027 194.035H447.856L450.214 203.052H450.322L452.584 194.035H454.436L451.203 205.671H449.436L446.987 196.955H446.896L444.447 205.671H442.674ZM455.177 205.671V196.944H456.819V198.33H456.91C457.069 197.86 457.35 197.491 457.751 197.222C458.157 196.949 458.615 196.813 459.126 196.813C459.232 196.813 459.357 196.817 459.501 196.824C459.649 196.832 459.765 196.841 459.848 196.853V198.478C459.78 198.459 459.658 198.438 459.484 198.415C459.31 198.389 459.136 198.375 458.962 198.375C458.56 198.375 458.202 198.461 457.888 198.631C457.577 198.798 457.331 199.031 457.149 199.33C456.967 199.625 456.876 199.963 456.876 200.341V205.671H455.177ZM461.142 205.671V196.944H462.841V205.671H461.142ZM462 195.597C461.705 195.597 461.451 195.499 461.239 195.302C461.03 195.101 460.926 194.862 460.926 194.586C460.926 194.305 461.03 194.067 461.239 193.87C461.451 193.669 461.705 193.569 462 193.569C462.295 193.569 462.547 193.669 462.756 193.87C462.968 194.067 463.074 194.305 463.074 194.586C463.074 194.862 462.968 195.101 462.756 195.302C462.547 195.499 462.295 195.597 462 195.597ZM469.024 196.944V198.307H464.257V196.944H469.024ZM465.536 194.853H467.235V203.108C467.235 203.438 467.284 203.686 467.382 203.853C467.481 204.016 467.608 204.127 467.763 204.188C467.922 204.245 468.094 204.273 468.28 204.273C468.416 204.273 468.536 204.264 468.638 204.245C468.74 204.226 468.82 204.211 468.877 204.199L469.183 205.603C469.085 205.641 468.945 205.678 468.763 205.716C468.581 205.758 468.354 205.781 468.081 205.785C467.634 205.792 467.217 205.713 466.831 205.546C466.445 205.379 466.132 205.122 465.894 204.773C465.655 204.425 465.536 203.987 465.536 203.461V194.853ZM474.395 205.847C473.535 205.847 472.795 205.663 472.174 205.296C471.556 204.925 471.079 204.404 470.742 203.733C470.408 203.059 470.242 202.269 470.242 201.364C470.242 200.47 470.408 199.682 470.742 199C471.079 198.319 471.549 197.786 472.151 197.404C472.757 197.021 473.465 196.83 474.276 196.83C474.768 196.83 475.246 196.911 475.708 197.074C476.17 197.237 476.585 197.493 476.952 197.841C477.319 198.19 477.609 198.642 477.821 199.199C478.033 199.752 478.139 200.425 478.139 201.216V201.819H471.202V200.546H476.475C476.475 200.099 476.384 199.703 476.202 199.358C476.02 199.01 475.764 198.735 475.435 198.535C475.109 198.334 474.727 198.233 474.287 198.233C473.81 198.233 473.393 198.351 473.037 198.586C472.685 198.817 472.412 199.12 472.219 199.495C472.03 199.866 471.935 200.269 471.935 200.705V201.699C471.935 202.283 472.037 202.779 472.242 203.188C472.45 203.597 472.74 203.91 473.111 204.125C473.482 204.338 473.916 204.444 474.412 204.444C474.734 204.444 475.028 204.398 475.293 204.307C475.558 204.213 475.787 204.072 475.98 203.887C476.174 203.701 476.321 203.472 476.424 203.199L478.032 203.489C477.903 203.963 477.672 204.377 477.338 204.733C477.009 205.086 476.594 205.36 476.094 205.557C475.598 205.75 475.032 205.847 474.395 205.847Z" fill="black" fill-opacity="0.8"/>
<path d="M417.287 9.76562C396.816 9.76562 374.531 14.8009 374.531 25.7505C374.531 36.7001 396.816 41.7354 417.287 41.7354C437.758 41.7354 459.76 36.7001 459.76 25.7505C459.76 14.8009 437.758 9.76562 417.287 9.76562Z" fill="#014063"/>
<path fill-rule="evenodd" clip-rule="evenodd" d="M417.287 50.5278C401.232 50.5278 384.215 47.6968 374.531 40.9035V97.9495C374.531 108.899 396.816 113.934 417.287 113.934C437.758 113.934 459.76 108.899 459.76 97.9495V41.4697C450.076 48.263 433.342 50.5278 417.287 50.5278ZM418.907 64.1143C410.897 64.1143 405.521 68.815 405.521 77.8898V84.3399C406.289 83.9573 407.167 83.7384 408.099 83.7384C409.031 83.7384 409.91 83.9573 410.733 84.3399V77.8348C410.733 71.9312 413.969 68.925 418.907 68.925C423.845 68.925 427.082 71.9312 427.082 77.8348V91.993H432.293V77.8348C432.349 68.7062 426.917 64.1143 418.907 64.1143ZM392.08 81.2792C392.52 80.5677 393.123 80.0212 393.781 79.6936C394.989 79.0921 396.47 79.0921 397.732 79.6386C398.884 80.3501 399.433 81.5518 399.762 82.7548C400.202 84.2854 400.75 85.4334 402.122 86.2536C403.492 87.074 404.809 86.9102 406.346 86.5275C407.607 86.2549 408.924 86.0899 410.076 86.7463C411.338 87.4566 412.105 88.7134 412.161 90.0802V90.6266C412.051 91.9384 411.338 93.2502 410.076 93.9606C408.87 94.6708 407.553 94.5069 406.346 94.1791C404.81 93.7967 403.494 93.6316 402.122 94.4518C400.694 95.2171 400.201 96.4204 399.762 97.9506C399.433 99.1539 398.884 100.412 397.732 101.067C396.47 101.777 394.989 101.777 393.781 101.176C393.068 100.847 392.519 100.301 392.08 99.59C391.64 98.8798 391.476 98.1145 391.531 97.3492C391.64 96.0375 392.354 94.7259 393.616 94.0157C394.822 93.3052 396.139 93.469 397.346 93.7967C398.881 94.1791 400.198 94.343 401.57 93.5229H401.625C403.985 92.1573 403.985 88.7134 401.625 87.3466H401.57C400.199 86.5263 398.883 86.6901 397.346 87.0728C396.084 87.3454 394.768 87.5092 393.616 86.8539C392.354 86.1436 391.586 84.8869 391.531 83.5201C391.477 82.7548 391.642 81.9895 392.08 81.2792Z" fill="#014063"/>
<rect x="381" y="62" width="71" height="41" fill="#014063"/>
<path d="M469.703 81.9041C469.315 82.2968 469.318 82.9299 469.711 83.3183L476.109 89.6478C476.502 90.0362 477.135 90.0328 477.523 89.6402C477.912 89.2475 477.908 88.6144 477.516 88.226L471.828 82.5998L477.454 76.9124C477.843 76.5198 477.839 75.8866 477.447 75.4982C477.054 75.1098 476.421 75.1133 476.033 75.5059L469.703 81.9041ZM486.5 82.5205L486.495 81.5205L486.495 81.5205L486.5 82.5205ZM512.638 83.3792C513.19 83.3762 513.636 82.9261 513.633 82.3738C513.63 81.8216 513.18 81.3763 512.627 81.3792L512.633 82.3792L512.638 83.3792ZM676.627 80.4928C676.075 80.4958 675.63 80.946 675.633 81.4982C675.636 82.0505 676.086 82.4958 676.638 82.4928L676.633 81.4928L676.627 80.4928ZM718.857 82.2646C719.409 82.2616 719.855 81.8115 719.852 81.2592C719.849 80.707 719.398 80.2617 718.846 80.2647L718.852 81.2646L718.857 82.2646ZM470.414 82.6074L470.419 83.6074L486.505 83.5205L486.5 82.5205L486.495 81.5205L470.409 81.6074L470.414 82.6074ZM486.5 82.5205L486.505 83.5205L512.638 83.3792L512.633 82.3792L512.627 81.3792L486.495 81.5205L486.5 82.5205ZM676.633 81.4928L676.638 82.4928L718.857 82.2646L718.852 81.2646L718.846 80.2647L676.627 80.4928L676.633 81.4928Z" fill="black" fill-opacity="0.8"/>
<path d="M529.166 88.0951C528.454 88.0951 527.814 87.9588 527.246 87.686C526.682 87.4095 526.231 87.0307 525.894 86.5497C525.557 86.0686 525.377 85.5194 525.354 84.9019H527.059C527.1 85.4019 527.322 85.8129 527.723 86.1349C528.125 86.4569 528.606 86.6179 529.166 86.6179C529.613 86.6179 530.009 86.5156 530.354 86.311C530.702 86.1027 530.975 85.8167 531.172 85.4531C531.373 85.0894 531.473 84.6747 531.473 84.2088C531.473 83.7353 531.371 83.3129 531.166 82.9417C530.962 82.5705 530.68 82.2788 530.32 82.0667C529.964 81.8546 529.555 81.7466 529.093 81.7429C528.74 81.7429 528.386 81.8035 528.03 81.9247C527.674 82.0459 527.386 82.205 527.166 82.4019L525.559 82.1633L526.212 76.2997H532.61V77.8054H527.672L527.303 81.061H527.371C527.598 80.8413 527.899 80.6576 528.274 80.5099C528.653 80.3622 529.059 80.2883 529.49 80.2883C530.199 80.2883 530.829 80.4569 531.382 80.794C531.939 81.1311 532.377 81.5913 532.695 82.1747C533.017 82.7542 533.176 83.4209 533.172 84.1747C533.176 84.9285 533.005 85.6008 532.661 86.1917C532.32 86.7826 531.846 87.2485 531.24 87.5894C530.638 87.9266 529.947 88.0951 529.166 88.0951ZM536.747 88.044C536.437 88.044 536.17 87.9341 535.946 87.7144C535.723 87.491 535.611 87.222 535.611 86.9076C535.611 86.597 535.723 86.3319 535.946 86.1122C536.17 85.8887 536.437 85.7769 536.747 85.7769C537.058 85.7769 537.325 85.8887 537.549 86.1122C537.772 86.3319 537.884 86.597 537.884 86.9076C537.884 87.116 537.831 87.3072 537.725 87.4815C537.622 87.6519 537.486 87.7883 537.316 87.8906C537.145 87.9929 536.956 88.044 536.747 88.044ZM545.612 87.936V76.2997H552.907V77.811H547.368V81.3565H552.527V82.8622H547.368V86.4247H552.976V87.936H545.612ZM556.639 82.7542V87.936H554.94V79.2088H556.571V80.6292H556.679C556.88 80.1671 557.194 79.7959 557.622 79.5156C558.054 79.2353 558.597 79.0951 559.253 79.0951C559.847 79.0951 560.368 79.2201 560.815 79.4701C561.262 79.7163 561.609 80.0838 561.855 80.5724C562.101 81.061 562.224 81.6652 562.224 82.3849V87.936H560.525V82.5894C560.525 81.9569 560.361 81.4626 560.031 81.1065C559.702 80.7466 559.249 80.5667 558.673 80.5667C558.279 80.5667 557.929 80.6519 557.622 80.8224C557.319 80.9929 557.078 81.2429 556.9 81.5724C556.726 81.8982 556.639 82.2921 556.639 82.7542ZM568.401 79.2088V80.5724H563.634V79.2088H568.401ZM564.912 77.1179H566.611V85.3735C566.611 85.7031 566.66 85.9512 566.759 86.1179C566.857 86.2807 566.984 86.3925 567.139 86.4531C567.298 86.5099 567.471 86.5383 567.656 86.5383C567.793 86.5383 567.912 86.5288 568.014 86.5099C568.116 86.491 568.196 86.4758 568.253 86.4644L568.56 87.8679C568.461 87.9057 568.321 87.9436 568.139 87.9815C567.957 88.0232 567.73 88.0459 567.457 88.0497C567.01 88.0572 566.594 87.9777 566.207 87.811C565.821 87.6444 565.509 87.3868 565.27 87.0383C565.031 86.6898 564.912 86.2523 564.912 85.7258V77.1179ZM570.104 87.936V79.2088H571.746V80.5951H571.837C571.996 80.1254 572.276 79.7561 572.678 79.4872C573.083 79.2144 573.541 79.0781 574.053 79.0781C574.159 79.0781 574.284 79.0819 574.428 79.0894C574.575 79.097 574.691 79.1065 574.774 79.1179V80.7429C574.706 80.7239 574.585 80.7031 574.411 80.6804C574.236 80.6538 574.062 80.6406 573.888 80.6406C573.486 80.6406 573.128 80.7258 572.814 80.8963C572.503 81.0629 572.257 81.2959 572.075 81.5951C571.894 81.8906 571.803 82.2277 571.803 82.6065V87.936H570.104ZM577.408 91.2088C577.154 91.2088 576.923 91.1879 576.715 91.1463C576.506 91.1084 576.351 91.0667 576.249 91.0213L576.658 89.6292C576.969 89.7126 577.245 89.7485 577.488 89.7372C577.73 89.7258 577.944 89.6349 578.13 89.4644C578.319 89.294 578.486 89.0156 578.63 88.6292L578.84 88.0497L575.647 79.2088H577.465L579.675 85.9815H579.766L581.976 79.2088H583.8L580.203 89.1008C580.037 89.5554 579.825 89.9398 579.567 90.2542C579.309 90.5724 579.003 90.811 578.647 90.9701C578.291 91.1292 577.878 91.2088 577.408 91.2088ZM592.955 88.1122C592.11 88.1122 591.383 87.9209 590.773 87.5383C590.167 87.1519 589.701 86.6197 589.376 85.9417C589.05 85.2637 588.887 84.4872 588.887 83.6122C588.887 82.7258 589.054 81.9436 589.387 81.2656C589.72 80.5838 590.19 80.0516 590.796 79.669C591.402 79.2864 592.116 79.0951 592.938 79.0951C593.601 79.0951 594.192 79.2182 594.711 79.4644C595.23 79.7069 595.648 80.0478 595.966 80.4872C596.288 80.9266 596.48 81.4398 596.54 82.0269H594.887C594.796 81.6179 594.588 81.2656 594.262 80.9701C593.94 80.6747 593.508 80.5269 592.966 80.5269C592.493 80.5269 592.078 80.6519 591.722 80.9019C591.37 81.1482 591.095 81.5004 590.898 81.9588C590.701 82.4133 590.603 82.9512 590.603 83.5724C590.603 84.2088 590.699 84.758 590.893 85.2201C591.086 85.6822 591.359 86.0402 591.711 86.294C592.067 86.5478 592.485 86.6747 592.966 86.6747C593.288 86.6747 593.58 86.616 593.841 86.4985C594.107 86.3773 594.328 86.205 594.506 85.9815C594.688 85.758 594.815 85.4891 594.887 85.1747H596.54C596.48 85.7391 596.296 86.2429 595.989 86.686C595.682 87.1292 595.271 87.4777 594.756 87.7315C594.245 87.9853 593.645 88.1122 592.955 88.1122ZM601.857 88.1122C601.039 88.1122 600.325 87.9247 599.715 87.5497C599.105 87.1747 598.632 86.6501 598.295 85.9758C597.958 85.3016 597.789 84.5137 597.789 83.6122C597.789 82.7069 597.958 81.9152 598.295 81.2372C598.632 80.5591 599.105 80.0326 599.715 79.6576C600.325 79.2826 601.039 79.0951 601.857 79.0951C602.675 79.0951 603.389 79.2826 603.999 79.6576C604.609 80.0326 605.083 80.5591 605.42 81.2372C605.757 81.9152 605.925 82.7069 605.925 83.6122C605.925 84.5137 605.757 85.3016 605.42 85.9758C605.083 86.6501 604.609 87.1747 603.999 87.5497C603.389 87.9247 602.675 88.1122 601.857 88.1122ZM601.863 86.686C602.393 86.686 602.833 86.5459 603.181 86.2656C603.53 85.9853 603.787 85.6122 603.954 85.1463C604.124 84.6804 604.21 84.1671 604.21 83.6065C604.21 83.0497 604.124 82.5383 603.954 82.0724C603.787 81.6027 603.53 81.2258 603.181 80.9417C602.833 80.6576 602.393 80.5156 601.863 80.5156C601.329 80.5156 600.886 80.6576 600.533 80.9417C600.185 81.2258 599.925 81.6027 599.755 82.0724C599.588 82.5383 599.505 83.0497 599.505 83.6065C599.505 84.1671 599.588 84.6804 599.755 85.1463C599.925 85.6122 600.185 85.9853 600.533 86.2656C600.886 86.5459 601.329 86.686 601.863 86.686ZM607.646 87.936V79.2088H609.276V80.6292H609.384C609.566 80.1482 609.864 79.7732 610.276 79.5042C610.689 79.2315 611.184 79.0951 611.759 79.0951C612.343 79.0951 612.831 79.2315 613.225 79.5042C613.623 79.7769 613.917 80.1519 614.106 80.6292H614.197C614.405 80.1633 614.737 79.7921 615.191 79.5156C615.646 79.2353 616.187 79.0951 616.816 79.0951C617.608 79.0951 618.254 79.3432 618.754 79.8394C619.257 80.3357 619.509 81.0838 619.509 82.0838V87.936H617.811V82.2429C617.811 81.6519 617.65 81.2239 617.328 80.9588C617.006 80.6936 616.621 80.561 616.174 80.561C615.621 80.561 615.191 80.7315 614.884 81.0724C614.578 81.4095 614.424 81.8432 614.424 82.3735V87.936H612.731V82.1349C612.731 81.6614 612.583 81.2807 612.288 80.9929C611.992 80.705 611.608 80.561 611.134 80.561C610.812 80.561 610.515 80.6463 610.242 80.8167C609.973 80.9834 609.756 81.2163 609.589 81.5156C609.426 81.8148 609.345 82.1614 609.345 82.5554V87.936H607.646ZM621.61 87.936V79.2088H623.241V80.6292H623.349C623.531 80.1482 623.828 79.7732 624.241 79.5042C624.654 79.2315 625.148 79.0951 625.724 79.0951C626.307 79.0951 626.796 79.2315 627.19 79.5042C627.588 79.7769 627.881 80.1519 628.071 80.6292H628.161C628.37 80.1633 628.701 79.7921 629.156 79.5156C629.61 79.2353 630.152 79.0951 630.781 79.0951C631.572 79.0951 632.218 79.3432 632.718 79.8394C633.222 80.3357 633.474 81.0838 633.474 82.0838V87.936H631.775V82.2429C631.775 81.6519 631.614 81.2239 631.292 80.9588C630.97 80.6936 630.586 80.561 630.139 80.561C629.586 80.561 629.156 80.7315 628.849 81.0724C628.542 81.4095 628.389 81.8432 628.389 82.3735V87.936H626.696V82.1349C626.696 81.6614 626.548 81.2807 626.252 80.9929C625.957 80.705 625.572 80.561 625.099 80.561C624.777 80.561 624.48 80.6463 624.207 80.8167C623.938 80.9834 623.72 81.2163 623.554 81.5156C623.391 81.8148 623.309 82.1614 623.309 82.5554V87.936H621.61ZM635.575 87.936V79.2088H637.274V87.936H635.575ZM636.433 77.8622C636.137 77.8622 635.884 77.7637 635.672 77.5667C635.463 77.366 635.359 77.1273 635.359 76.8508C635.359 76.5705 635.463 76.3319 635.672 76.1349C635.884 75.9341 636.137 75.8338 636.433 75.8338C636.728 75.8338 636.98 75.9341 637.189 76.1349C637.401 76.3319 637.507 76.5705 637.507 76.8508C637.507 77.1273 637.401 77.366 637.189 77.5667C636.98 77.7637 636.728 77.8622 636.433 77.8622ZM643.457 79.2088V80.5724H638.69V79.2088H643.457ZM639.969 77.1179H641.667V85.3735C641.667 85.7031 641.717 85.9512 641.815 86.1179C641.914 86.2807 642.041 86.3925 642.196 86.4531C642.355 86.5099 642.527 86.5383 642.713 86.5383C642.849 86.5383 642.969 86.5288 643.071 86.5099C643.173 86.491 643.253 86.4758 643.309 86.4644L643.616 87.8679C643.518 87.9057 643.378 87.9436 643.196 87.9815C643.014 88.0232 642.787 88.0459 642.514 88.0497C642.067 88.0572 641.65 87.9777 641.264 87.811C640.878 87.6444 640.565 87.3868 640.327 87.0383C640.088 86.6898 639.969 86.2523 639.969 85.7258V77.1179ZM649.234 79.2088V80.5724H644.467V79.2088H649.234ZM645.746 77.1179H647.445V85.3735C647.445 85.7031 647.494 85.9512 647.592 86.1179C647.691 86.2807 647.818 86.3925 647.973 86.4531C648.132 86.5099 648.304 86.5383 648.49 86.5383C648.626 86.5383 648.746 86.5288 648.848 86.5099C648.95 86.491 649.03 86.4758 649.087 86.4644L649.393 87.8679C649.295 87.9057 649.155 87.9436 648.973 87.9815C648.791 88.0232 648.564 88.0459 648.291 88.0497C647.844 88.0572 647.428 87.9777 647.041 87.811C646.655 87.6444 646.342 87.3868 646.104 87.0383C645.865 86.6898 645.746 86.2523 645.746 85.7258V77.1179ZM654.605 88.1122C653.745 88.1122 653.005 87.9285 652.384 87.561C651.766 87.1898 651.289 86.669 650.952 85.9985C650.618 85.3243 650.452 84.5345 650.452 83.6292C650.452 82.7353 650.618 81.9474 650.952 81.2656C651.289 80.5838 651.759 80.0516 652.361 79.669C652.967 79.2864 653.675 79.0951 654.486 79.0951C654.978 79.0951 655.456 79.1766 655.918 79.3394C656.38 79.5023 656.795 79.758 657.162 80.1065C657.529 80.455 657.819 80.9076 658.031 81.4644C658.243 82.0175 658.35 82.6898 658.35 83.4815V84.0838H651.412V82.811H656.685C656.685 82.3641 656.594 81.9682 656.412 81.6235C656.23 81.2751 655.975 81.0004 655.645 80.7997C655.319 80.5989 654.937 80.4985 654.497 80.4985C654.02 80.4985 653.603 80.616 653.247 80.8508C652.895 81.0819 652.622 81.3849 652.429 81.7599C652.24 82.1311 652.145 82.5345 652.145 82.9701V83.9644C652.145 84.5478 652.247 85.044 652.452 85.4531C652.66 85.8622 652.95 86.1747 653.321 86.3906C653.692 86.6027 654.126 86.7088 654.622 86.7088C654.944 86.7088 655.238 86.6633 655.503 86.5724C655.768 86.4777 655.997 86.3376 656.19 86.1519C656.384 85.9663 656.531 85.7372 656.634 85.4644L658.242 85.7542C658.113 86.2277 657.882 86.6425 657.548 86.9985C657.219 87.3508 656.804 87.6254 656.304 87.8224C655.808 88.0156 655.242 88.1122 654.605 88.1122ZM663.326 88.1065C662.621 88.1065 661.992 87.9266 661.439 87.5667C660.89 87.2031 660.458 86.686 660.144 86.0156C659.833 85.3413 659.678 84.5326 659.678 83.5894C659.678 82.6463 659.835 81.8394 660.149 81.169C660.468 80.4985 660.903 79.9853 661.456 79.6292C662.009 79.2732 662.636 79.0951 663.337 79.0951C663.879 79.0951 664.314 79.186 664.644 79.3679C664.977 79.5459 665.235 79.7542 665.416 79.9929C665.602 80.2315 665.746 80.4417 665.848 80.6235H665.951V76.2997H667.649V87.936H665.99V86.5781H665.848C665.746 86.7637 665.598 86.9758 665.405 87.2144C665.216 87.4531 664.954 87.6614 664.621 87.8394C664.288 88.0175 663.856 88.1065 663.326 88.1065ZM663.701 86.6576C664.189 86.6576 664.602 86.5288 664.939 86.2713C665.28 86.0099 665.538 85.6482 665.712 85.186C665.89 84.7239 665.979 84.186 665.979 83.5724C665.979 82.9663 665.892 82.436 665.718 81.9815C665.543 81.5269 665.288 81.1728 664.951 80.919C664.613 80.6652 664.197 80.5383 663.701 80.5383C663.189 80.5383 662.763 80.6709 662.422 80.936C662.081 81.2012 661.824 81.5629 661.649 82.0213C661.479 82.4796 661.394 82.9966 661.394 83.5724C661.394 84.1557 661.481 84.6804 661.655 85.1463C661.829 85.6122 662.087 85.9815 662.428 86.2542C662.772 86.5232 663.197 86.6576 663.701 86.6576Z" fill="black" fill-opacity="0.8"/>
<path d="M473.098 54.5C472.545 54.5 472.098 54.9477 472.098 55.5C472.098 56.0523 472.545 56.5 473.098 56.5V55.5V54.5ZM542.125 56.5C542.677 56.5 543.125 56.0523 543.125 55.5C543.125 54.9477 542.677 54.5 542.125 54.5V55.5V56.5ZM651.125 54.5C650.573 54.5 650.125 54.9477 650.125 55.5C650.125 56.0523 650.573 56.5 651.125 56.5V55.5V54.5ZM720.859 56.2071C721.25 55.8166 721.25 55.1834 720.859 54.7929L714.495 48.4289C714.105 48.0384 713.472 48.0384 713.081 48.4289C712.691 48.8195 712.691 49.4526 713.081 49.8431L718.738 55.5L713.081 61.1569C712.691 61.5474 712.691 62.1805 713.081 62.5711C713.472 62.9616 714.105 62.9616 714.495 62.5711L720.859 56.2071ZM473.098 55.5V56.5H542.125V55.5V54.5H473.098V55.5ZM651.125 55.5V56.5H720.152V55.5V54.5H651.125V55.5Z" fill="black" fill-opacity="0.8"/>
<path d="M554.963 61.5V60.2273L558.901 56.1477C559.321 55.7045 559.668 55.3163 559.94 54.983C560.217 54.6458 560.423 54.3258 560.56 54.0227C560.696 53.7197 560.764 53.3977 560.764 53.0568C560.764 52.6705 560.673 52.3371 560.491 52.0568C560.31 51.7727 560.062 51.5549 559.747 51.4034C559.433 51.2481 559.079 51.1705 558.685 51.1705C558.268 51.1705 557.904 51.2557 557.594 51.4261C557.283 51.5966 557.044 51.8371 556.878 52.1477C556.711 52.4583 556.628 52.822 556.628 53.2386H554.952C554.952 52.5303 555.115 51.911 555.44 51.3807C555.766 50.8504 556.213 50.4394 556.781 50.1477C557.349 49.8523 557.995 49.7045 558.719 49.7045C559.45 49.7045 560.094 49.8504 560.651 50.142C561.211 50.4299 561.649 50.8239 561.963 51.3239C562.277 51.8201 562.435 52.3807 562.435 53.0057C562.435 53.4375 562.353 53.8598 562.19 54.2727C562.031 54.6856 561.753 55.1458 561.355 55.6534C560.957 56.1572 560.404 56.7689 559.696 57.4886L557.384 59.9091V59.9943H562.622V61.5H554.963ZM566.305 61.608C565.995 61.608 565.728 61.4981 565.504 61.2784C565.281 61.0549 565.169 60.786 565.169 60.4716C565.169 60.161 565.281 59.8958 565.504 59.6761C565.728 59.4527 565.995 59.3409 566.305 59.3409C566.616 59.3409 566.883 59.4527 567.107 59.6761C567.33 59.8958 567.442 60.161 567.442 60.4716C567.442 60.6799 567.389 60.8712 567.283 61.0455C567.18 61.2159 567.044 61.3523 566.874 61.4545C566.703 61.5568 566.514 61.608 566.305 61.608ZM575.17 61.5V49.8636H579.318C580.219 49.8636 580.967 50.0189 581.562 50.3295C582.16 50.6402 582.607 51.0701 582.903 51.6193C583.198 52.1648 583.346 52.7955 583.346 53.5114C583.346 54.2235 583.196 54.8504 582.897 55.392C582.602 55.9299 582.155 56.3485 581.556 56.6477C580.962 56.947 580.213 57.0966 579.312 57.0966H576.17V55.5852H579.153C579.721 55.5852 580.183 55.5038 580.539 55.3409C580.899 55.178 581.162 54.9413 581.329 54.6307C581.496 54.3201 581.579 53.947 581.579 53.5114C581.579 53.072 581.494 52.6913 581.323 52.3693C581.157 52.0473 580.893 51.8011 580.534 51.6307C580.177 51.4564 579.71 51.3693 579.13 51.3693H576.926V61.5H575.17ZM580.914 56.25L583.789 61.5H581.789L578.971 56.25H580.914ZM588.822 61.6761C587.962 61.6761 587.222 61.4924 586.6 61.125C585.983 60.7538 585.506 60.233 585.169 59.5625C584.835 58.8883 584.669 58.0985 584.669 57.1932C584.669 56.2992 584.835 55.5114 585.169 54.8295C585.506 54.1477 585.975 53.6155 586.578 53.233C587.184 52.8504 587.892 52.6591 588.703 52.6591C589.195 52.6591 589.672 52.7405 590.135 52.9034C590.597 53.0663 591.011 53.322 591.379 53.6705C591.746 54.0189 592.036 54.4716 592.248 55.0284C592.46 55.5814 592.566 56.2538 592.566 57.0455V57.6477H585.629V56.375H590.902C590.902 55.928 590.811 55.5322 590.629 55.1875C590.447 54.839 590.191 54.5644 589.862 54.3636C589.536 54.1629 589.153 54.0625 588.714 54.0625C588.237 54.0625 587.82 54.1799 587.464 54.4148C587.112 54.6458 586.839 54.9489 586.646 55.3239C586.457 55.6951 586.362 56.0985 586.362 56.5341V57.5284C586.362 58.1117 586.464 58.608 586.669 59.017C586.877 59.4261 587.167 59.7386 587.538 59.9545C587.909 60.1667 588.343 60.2727 588.839 60.2727C589.161 60.2727 589.455 60.2273 589.72 60.1364C589.985 60.0417 590.214 59.9015 590.407 59.7159C590.6 59.5303 590.748 59.3011 590.85 59.0284L592.458 59.3182C592.33 59.7917 592.099 60.2064 591.765 60.5625C591.436 60.9148 591.021 61.1894 590.521 61.3864C590.025 61.5795 589.458 61.6761 588.822 61.6761ZM594.275 64.7727V52.7727H595.934V54.1875H596.076C596.175 54.0057 596.317 53.7955 596.503 53.5568C596.688 53.3182 596.946 53.1098 597.275 52.9318C597.605 52.75 598.04 52.6591 598.582 52.6591C599.287 52.6591 599.915 52.8371 600.468 53.1932C601.022 53.5492 601.455 54.0625 601.77 54.733C602.088 55.4034 602.247 56.2102 602.247 57.1534C602.247 58.0966 602.09 58.9053 601.775 59.5795C601.461 60.25 601.029 60.767 600.48 61.1307C599.931 61.4905 599.304 61.6705 598.599 61.6705C598.069 61.6705 597.635 61.5814 597.298 61.4034C596.965 61.2254 596.703 61.017 596.514 60.7784C596.325 60.5398 596.179 60.3277 596.076 60.142H595.974V64.7727H594.275ZM595.94 57.1364C595.94 57.75 596.029 58.2879 596.207 58.75C596.385 59.2121 596.643 59.5739 596.98 59.8352C597.317 60.0928 597.73 60.2216 598.218 60.2216C598.726 60.2216 599.15 60.0871 599.491 59.8182C599.832 59.5455 600.09 59.1761 600.264 58.7102C600.442 58.2443 600.531 57.7197 600.531 57.1364C600.531 56.5606 600.444 56.0436 600.27 55.5852C600.099 55.1269 599.842 54.7652 599.497 54.5C599.156 54.2348 598.73 54.1023 598.218 54.1023C597.726 54.1023 597.309 54.2292 596.968 54.483C596.631 54.7367 596.376 55.0909 596.201 55.5455C596.027 56 595.94 56.5303 595.94 57.1364ZM605.673 49.8636V61.5H603.974V49.8636H605.673ZM607.783 61.5V52.7727H609.482V61.5H607.783ZM608.641 51.4261C608.345 51.4261 608.091 51.3277 607.879 51.1307C607.671 50.9299 607.567 50.6913 607.567 50.4148C607.567 50.1345 607.671 49.8958 607.879 49.6989C608.091 49.4981 608.345 49.3977 608.641 49.3977C608.936 49.3977 609.188 49.4981 609.396 49.6989C609.608 49.8958 609.714 50.1345 609.714 50.4148C609.714 50.6913 609.608 50.9299 609.396 51.1307C609.188 51.3277 608.936 51.4261 608.641 51.4261ZM615.267 61.6761C614.422 61.6761 613.695 61.4848 613.085 61.1023C612.479 60.7159 612.013 60.1837 611.688 59.5057C611.362 58.8277 611.199 58.0511 611.199 57.1761C611.199 56.2898 611.366 55.5076 611.699 54.8295C612.032 54.1477 612.502 53.6155 613.108 53.233C613.714 52.8504 614.428 52.6591 615.25 52.6591C615.913 52.6591 616.504 52.7822 617.023 53.0284C617.542 53.2708 617.96 53.6117 618.279 54.0511C618.601 54.4905 618.792 55.0038 618.852 55.5909H617.199C617.108 55.1818 616.9 54.8295 616.574 54.5341C616.252 54.2386 615.82 54.0909 615.279 54.0909C614.805 54.0909 614.39 54.2159 614.034 54.4659C613.682 54.7121 613.407 55.0644 613.21 55.5227C613.013 55.9773 612.915 56.5152 612.915 57.1364C612.915 57.7727 613.011 58.322 613.205 58.7841C613.398 59.2462 613.671 59.6042 614.023 59.858C614.379 60.1117 614.797 60.2386 615.279 60.2386C615.601 60.2386 615.892 60.1799 616.154 60.0625C616.419 59.9413 616.64 59.7689 616.818 59.5455C617 59.322 617.127 59.053 617.199 58.7386H618.852C618.792 59.303 618.608 59.8068 618.301 60.25C617.994 60.6932 617.583 61.0417 617.068 61.2955C616.557 61.5492 615.957 61.6761 615.267 61.6761ZM623.033 61.6932C622.48 61.6932 621.98 61.5909 621.533 61.3864C621.086 61.178 620.732 60.8769 620.47 60.483C620.213 60.089 620.084 59.6061 620.084 59.0341C620.084 58.5417 620.179 58.1364 620.368 57.8182C620.558 57.5 620.813 57.2481 621.135 57.0625C621.457 56.8769 621.817 56.7367 622.215 56.642C622.612 56.5473 623.018 56.4754 623.431 56.4261C623.953 56.3655 624.378 56.3163 624.703 56.2784C625.029 56.2367 625.266 56.1705 625.414 56.0795C625.561 55.9886 625.635 55.8409 625.635 55.6364V55.5966C625.635 55.1004 625.495 54.7159 625.215 54.4432C624.938 54.1705 624.525 54.0341 623.976 54.0341C623.404 54.0341 622.953 54.161 622.624 54.4148C622.298 54.6648 622.073 54.9432 621.948 55.25L620.351 54.8864C620.541 54.3561 620.817 53.928 621.181 53.6023C621.548 53.2727 621.97 53.0341 622.448 52.8864C622.925 52.7348 623.427 52.6591 623.953 52.6591C624.302 52.6591 624.671 52.7008 625.061 52.7841C625.455 52.8636 625.823 53.0114 626.164 53.2273C626.508 53.4432 626.791 53.7519 627.01 54.1534C627.23 54.5511 627.34 55.0682 627.34 55.7045V61.5H625.681V60.3068H625.612C625.503 60.5265 625.338 60.7424 625.118 60.9545C624.898 61.1667 624.616 61.3428 624.272 61.483C623.927 61.6231 623.514 61.6932 623.033 61.6932ZM623.402 60.3295C623.872 60.3295 624.273 60.2367 624.607 60.0511C624.944 59.8655 625.2 59.6231 625.374 59.3239C625.552 59.0208 625.641 58.697 625.641 58.3523V57.2273C625.58 57.2879 625.463 57.3447 625.289 57.3977C625.118 57.447 624.923 57.4905 624.703 57.5284C624.484 57.5625 624.27 57.5947 624.061 57.625C623.853 57.6515 623.679 57.6742 623.539 57.6932C623.209 57.7348 622.908 57.8049 622.635 57.9034C622.366 58.0019 622.15 58.1439 621.987 58.3295C621.828 58.5114 621.749 58.7538 621.749 59.0568C621.749 59.4773 621.904 59.7955 622.215 60.0114C622.525 60.2235 622.921 60.3295 623.402 60.3295ZM633.5 52.7727V54.1364H628.733V52.7727H633.5ZM630.012 50.6818H631.711V58.9375C631.711 59.267 631.76 59.5152 631.858 59.6818C631.957 59.8447 632.084 59.9564 632.239 60.017C632.398 60.0739 632.57 60.1023 632.756 60.1023C632.892 60.1023 633.012 60.0928 633.114 60.0739C633.216 60.0549 633.296 60.0398 633.353 60.0284L633.66 61.4318C633.561 61.4697 633.421 61.5076 633.239 61.5455C633.057 61.5871 632.83 61.6098 632.557 61.6136C632.11 61.6212 631.694 61.5417 631.307 61.375C630.921 61.2083 630.608 60.9508 630.37 60.6023C630.131 60.2538 630.012 59.8163 630.012 59.2898V50.6818ZM638.871 61.6761C638.011 61.6761 637.271 61.4924 636.65 61.125C636.032 60.7538 635.555 60.233 635.218 59.5625C634.885 58.8883 634.718 58.0985 634.718 57.1932C634.718 56.2992 634.885 55.5114 635.218 54.8295C635.555 54.1477 636.025 53.6155 636.627 53.233C637.233 52.8504 637.941 52.6591 638.752 52.6591C639.244 52.6591 639.722 52.7405 640.184 52.9034C640.646 53.0663 641.061 53.322 641.428 53.6705C641.796 54.0189 642.085 54.4716 642.297 55.0284C642.51 55.5814 642.616 56.2538 642.616 57.0455V57.6477H635.678V56.375H640.951C640.951 55.928 640.86 55.5322 640.678 55.1875C640.496 54.839 640.241 54.5644 639.911 54.3636C639.585 54.1629 639.203 54.0625 638.763 54.0625C638.286 54.0625 637.869 54.1799 637.513 54.4148C637.161 54.6458 636.888 54.9489 636.695 55.3239C636.506 55.6951 636.411 56.0985 636.411 56.5341V57.5284C636.411 58.1117 636.513 58.608 636.718 59.017C636.926 59.4261 637.216 59.7386 637.587 59.9545C637.958 60.1667 638.392 60.2727 638.888 60.2727C639.21 60.2727 639.504 60.2273 639.769 60.1364C640.034 60.0417 640.263 59.9015 640.457 59.7159C640.65 59.5303 640.797 59.3011 640.9 59.0284L642.508 59.3182C642.379 59.7917 642.148 60.2064 641.814 60.5625C641.485 60.9148 641.07 61.1894 640.57 61.3864C640.074 61.5795 639.508 61.6761 638.871 61.6761Z" fill="black" fill-opacity="0.8"/>
<path d="M117.409 81.6074C116.856 81.6104 116.411 82.0605 116.414 82.6128C116.417 83.1651 116.867 83.6104 117.419 83.6074L117.414 82.6074L117.409 81.6074ZM159.638 83.3792C160.19 83.3762 160.636 82.9261 160.633 82.3738C160.63 81.8216 160.18 81.3763 159.627 81.3792L159.633 82.3792L159.638 83.3792ZM323.627 80.4928C323.075 80.4958 322.63 80.946 322.633 81.4982C322.636 82.0505 323.086 82.4958 323.638 82.4928L323.633 81.4928L323.627 80.4928ZM346.668 81.3683L346.673 82.3683L346.673 82.3683L346.668 81.3683ZM366.562 81.9679C366.951 81.5753 366.947 80.9421 366.555 80.5537L360.157 74.2243C359.764 73.8359 359.131 73.8393 358.742 74.2319C358.354 74.6245 358.357 75.2577 358.75 75.6461L364.437 81.2723L358.811 86.9596C358.423 87.3523 358.426 87.9854 358.819 88.3738C359.211 88.7622 359.845 88.7588 360.233 88.3662L366.562 81.9679ZM117.414 82.6074L117.419 83.6074L159.638 83.3792L159.633 82.3792L159.627 81.3792L117.409 81.6074L117.414 82.6074ZM323.633 81.4928L323.638 82.4928L346.673 82.3683L346.668 81.3683L346.663 80.3683L323.627 80.4928L323.633 81.4928ZM346.668 81.3683L346.673 82.3683L365.857 82.2646L365.852 81.2646L365.846 80.2647L346.663 80.3683L346.668 81.3683Z" fill="black" fill-opacity="0.8"/>
<path d="M176.218 88.0951C175.437 88.0951 174.74 87.9607 174.127 87.6917C173.517 87.4228 173.034 87.0497 172.678 86.5724C172.326 86.0913 172.136 85.5345 172.11 84.9019H173.894C173.916 85.2466 174.032 85.5459 174.24 85.7997C174.452 86.0497 174.729 86.2429 175.07 86.3792C175.411 86.5156 175.79 86.5838 176.206 86.5838C176.665 86.5838 177.07 86.5042 177.422 86.3451C177.778 86.186 178.057 85.9644 178.257 85.6804C178.458 85.3925 178.559 85.061 178.559 84.686C178.559 84.2959 178.458 83.9531 178.257 83.6576C178.06 83.3584 177.771 83.1235 177.388 82.9531C177.009 82.7826 176.551 82.6974 176.013 82.6974H175.03V81.2656H176.013C176.445 81.2656 176.824 81.1879 177.149 81.0326C177.479 80.8773 177.737 80.6614 177.922 80.3849C178.108 80.1046 178.201 79.7769 178.201 79.4019C178.201 79.0421 178.119 78.7296 177.956 78.4644C177.797 78.1955 177.57 77.9853 177.274 77.8338C176.983 77.6822 176.638 77.6065 176.24 77.6065C175.862 77.6065 175.507 77.6766 175.178 77.8167C174.852 77.9531 174.587 78.1501 174.382 78.4076C174.178 78.6614 174.068 78.9663 174.053 79.3224H172.354C172.373 78.6936 172.559 78.1406 172.911 77.6633C173.267 77.186 173.737 76.8129 174.32 76.544C174.903 76.275 175.551 76.1406 176.263 76.1406C177.009 76.1406 177.653 76.2864 178.195 76.5781C178.74 76.866 179.161 77.2504 179.456 77.7315C179.755 78.2125 179.903 78.7391 179.899 79.311C179.903 79.9626 179.721 80.5156 179.354 80.9701C178.99 81.4247 178.505 81.7296 177.899 81.8849V81.9758C178.672 82.0932 179.271 82.4001 179.695 82.8963C180.123 83.3925 180.335 84.008 180.331 84.7429C180.335 85.383 180.157 85.9569 179.797 86.4644C179.441 86.972 178.954 87.3716 178.337 87.6633C177.72 87.9512 177.013 88.0951 176.218 88.0951ZM183.747 88.044C183.437 88.044 183.17 87.9341 182.946 87.7144C182.723 87.491 182.611 87.222 182.611 86.9076C182.611 86.597 182.723 86.3319 182.946 86.1122C183.17 85.8887 183.437 85.7769 183.747 85.7769C184.058 85.7769 184.325 85.8887 184.549 86.1122C184.772 86.3319 184.884 86.597 184.884 86.9076C184.884 87.116 184.831 87.3072 184.725 87.4815C184.622 87.6519 184.486 87.7883 184.316 87.8906C184.145 87.9929 183.956 88.044 183.747 88.044ZM192.612 87.936V76.2997H199.907V77.811H194.368V81.3565H199.527V82.8622H194.368V86.4247H199.976V87.936H192.612ZM203.639 82.7542V87.936H201.94V79.2088H203.571V80.6292H203.679C203.88 80.1671 204.194 79.7959 204.622 79.5156C205.054 79.2353 205.597 79.0951 206.253 79.0951C206.847 79.0951 207.368 79.2201 207.815 79.4701C208.262 79.7163 208.609 80.0838 208.855 80.5724C209.101 81.061 209.224 81.6652 209.224 82.3849V87.936H207.525V82.5894C207.525 81.9569 207.361 81.4626 207.031 81.1065C206.702 80.7466 206.249 80.5667 205.673 80.5667C205.279 80.5667 204.929 80.6519 204.622 80.8224C204.319 80.9929 204.078 81.2429 203.9 81.5724C203.726 81.8982 203.639 82.2921 203.639 82.7542ZM215.401 79.2088V80.5724H210.634V79.2088H215.401ZM211.912 77.1179H213.611V85.3735C213.611 85.7031 213.66 85.9512 213.759 86.1179C213.857 86.2807 213.984 86.3925 214.139 86.4531C214.298 86.5099 214.471 86.5383 214.656 86.5383C214.793 86.5383 214.912 86.5288 215.014 86.5099C215.116 86.491 215.196 86.4758 215.253 86.4644L215.56 87.8679C215.461 87.9057 215.321 87.9436 215.139 87.9815C214.957 88.0232 214.73 88.0459 214.457 88.0497C214.01 88.0572 213.594 87.9777 213.207 87.811C212.821 87.6444 212.509 87.3868 212.27 87.0383C212.031 86.6898 211.912 86.2523 211.912 85.7258V77.1179ZM217.104 87.936V79.2088H218.746V80.5951H218.837C218.996 80.1254 219.276 79.7561 219.678 79.4872C220.083 79.2144 220.541 79.0781 221.053 79.0781C221.159 79.0781 221.284 79.0819 221.428 79.0894C221.575 79.097 221.691 79.1065 221.774 79.1179V80.7429C221.706 80.7239 221.585 80.7031 221.411 80.6804C221.236 80.6538 221.062 80.6406 220.888 80.6406C220.486 80.6406 220.128 80.7258 219.814 80.8963C219.503 81.0629 219.257 81.2959 219.075 81.5951C218.894 81.8906 218.803 82.2277 218.803 82.6065V87.936H217.104ZM224.408 91.2088C224.154 91.2088 223.923 91.1879 223.715 91.1463C223.506 91.1084 223.351 91.0667 223.249 91.0213L223.658 89.6292C223.969 89.7126 224.245 89.7485 224.488 89.7372C224.73 89.7258 224.944 89.6349 225.13 89.4644C225.319 89.294 225.486 89.0156 225.63 88.6292L225.84 88.0497L222.647 79.2088H224.465L226.675 85.9815H226.766L228.976 79.2088H230.8L227.203 89.1008C227.037 89.5554 226.825 89.9398 226.567 90.2542C226.309 90.5724 226.003 90.811 225.647 90.9701C225.291 91.1292 224.878 91.2088 224.408 91.2088ZM239.955 88.1122C239.11 88.1122 238.383 87.9209 237.773 87.5383C237.167 87.1519 236.701 86.6197 236.376 85.9417C236.05 85.2637 235.887 84.4872 235.887 83.6122C235.887 82.7258 236.054 81.9436 236.387 81.2656C236.72 80.5838 237.19 80.0516 237.796 79.669C238.402 79.2864 239.116 79.0951 239.938 79.0951C240.601 79.0951 241.192 79.2182 241.711 79.4644C242.23 79.7069 242.648 80.0478 242.966 80.4872C243.288 80.9266 243.48 81.4398 243.54 82.0269H241.887C241.796 81.6179 241.588 81.2656 241.262 80.9701C240.94 80.6747 240.508 80.5269 239.966 80.5269C239.493 80.5269 239.078 80.6519 238.722 80.9019C238.37 81.1482 238.095 81.5004 237.898 81.9588C237.701 82.4133 237.603 82.9512 237.603 83.5724C237.603 84.2088 237.699 84.758 237.893 85.2201C238.086 85.6822 238.359 86.0402 238.711 86.294C239.067 86.5478 239.485 86.6747 239.966 86.6747C240.288 86.6747 240.58 86.616 240.841 86.4985C241.107 86.3773 241.328 86.205 241.506 85.9815C241.688 85.758 241.815 85.4891 241.887 85.1747H243.54C243.48 85.7391 243.296 86.2429 242.989 86.686C242.682 87.1292 242.271 87.4777 241.756 87.7315C241.245 87.9853 240.645 88.1122 239.955 88.1122ZM248.857 88.1122C248.039 88.1122 247.325 87.9247 246.715 87.5497C246.105 87.1747 245.632 86.6501 245.295 85.9758C244.958 85.3016 244.789 84.5137 244.789 83.6122C244.789 82.7069 244.958 81.9152 245.295 81.2372C245.632 80.5591 246.105 80.0326 246.715 79.6576C247.325 79.2826 248.039 79.0951 248.857 79.0951C249.675 79.0951 250.389 79.2826 250.999 79.6576C251.609 80.0326 252.083 80.5591 252.42 81.2372C252.757 81.9152 252.925 82.7069 252.925 83.6122C252.925 84.5137 252.757 85.3016 252.42 85.9758C252.083 86.6501 251.609 87.1747 250.999 87.5497C250.389 87.9247 249.675 88.1122 248.857 88.1122ZM248.863 86.686C249.393 86.686 249.833 86.5459 250.181 86.2656C250.53 85.9853 250.787 85.6122 250.954 85.1463C251.124 84.6804 251.21 84.1671 251.21 83.6065C251.21 83.0497 251.124 82.5383 250.954 82.0724C250.787 81.6027 250.53 81.2258 250.181 80.9417C249.833 80.6576 249.393 80.5156 248.863 80.5156C248.329 80.5156 247.886 80.6576 247.533 80.9417C247.185 81.2258 246.925 81.6027 246.755 82.0724C246.588 82.5383 246.505 83.0497 246.505 83.6065C246.505 84.1671 246.588 84.6804 246.755 85.1463C246.925 85.6122 247.185 85.9853 247.533 86.2656C247.886 86.5459 248.329 86.686 248.863 86.686ZM254.646 87.936V79.2088H256.276V80.6292H256.384C256.566 80.1482 256.864 79.7732 257.276 79.5042C257.689 79.2315 258.184 79.0951 258.759 79.0951C259.343 79.0951 259.831 79.2315 260.225 79.5042C260.623 79.7769 260.917 80.1519 261.106 80.6292H261.197C261.405 80.1633 261.737 79.7921 262.191 79.5156C262.646 79.2353 263.187 79.0951 263.816 79.0951C264.608 79.0951 265.254 79.3432 265.754 79.8394C266.257 80.3357 266.509 81.0838 266.509 82.0838V87.936H264.811V82.2429C264.811 81.6519 264.65 81.2239 264.328 80.9588C264.006 80.6936 263.621 80.561 263.174 80.561C262.621 80.561 262.191 80.7315 261.884 81.0724C261.578 81.4095 261.424 81.8432 261.424 82.3735V87.936H259.731V82.1349C259.731 81.6614 259.583 81.2807 259.288 80.9929C258.992 80.705 258.608 80.561 258.134 80.561C257.812 80.561 257.515 80.6463 257.242 80.8167C256.973 80.9834 256.756 81.2163 256.589 81.5156C256.426 81.8148 256.345 82.1614 256.345 82.5554V87.936H254.646ZM268.61 87.936V79.2088H270.241V80.6292H270.349C270.531 80.1482 270.828 79.7732 271.241 79.5042C271.654 79.2315 272.148 79.0951 272.724 79.0951C273.307 79.0951 273.796 79.2315 274.19 79.5042C274.588 79.7769 274.881 80.1519 275.071 80.6292H275.161C275.37 80.1633 275.701 79.7921 276.156 79.5156C276.61 79.2353 277.152 79.0951 277.781 79.0951C278.572 79.0951 279.218 79.3432 279.718 79.8394C280.222 80.3357 280.474 81.0838 280.474 82.0838V87.936H278.775V82.2429C278.775 81.6519 278.614 81.2239 278.292 80.9588C277.97 80.6936 277.586 80.561 277.139 80.561C276.586 80.561 276.156 80.7315 275.849 81.0724C275.542 81.4095 275.389 81.8432 275.389 82.3735V87.936H273.696V82.1349C273.696 81.6614 273.548 81.2807 273.252 80.9929C272.957 80.705 272.572 80.561 272.099 80.561C271.777 80.561 271.48 80.6463 271.207 80.8167C270.938 80.9834 270.72 81.2163 270.554 81.5156C270.391 81.8148 270.309 82.1614 270.309 82.5554V87.936H268.61ZM282.575 87.936V79.2088H284.274V87.936H282.575ZM283.433 77.8622C283.137 77.8622 282.884 77.7637 282.672 77.5667C282.463 77.366 282.359 77.1273 282.359 76.8508C282.359 76.5705 282.463 76.3319 282.672 76.1349C282.884 75.9341 283.137 75.8338 283.433 75.8338C283.728 75.8338 283.98 75.9341 284.189 76.1349C284.401 76.3319 284.507 76.5705 284.507 76.8508C284.507 77.1273 284.401 77.366 284.189 77.5667C283.98 77.7637 283.728 77.8622 283.433 77.8622ZM290.457 79.2088V80.5724H285.69V79.2088H290.457ZM286.969 77.1179H288.667V85.3735C288.667 85.7031 288.717 85.9512 288.815 86.1179C288.914 86.2807 289.041 86.3925 289.196 86.4531C289.355 86.5099 289.527 86.5383 289.713 86.5383C289.849 86.5383 289.969 86.5288 290.071 86.5099C290.173 86.491 290.253 86.4758 290.309 86.4644L290.616 87.8679C290.518 87.9057 290.378 87.9436 290.196 87.9815C290.014 88.0232 289.787 88.0459 289.514 88.0497C289.067 88.0572 288.65 87.9777 288.264 87.811C287.878 87.6444 287.565 87.3868 287.327 87.0383C287.088 86.6898 286.969 86.2523 286.969 85.7258V77.1179ZM296.234 79.2088V80.5724H291.467V79.2088H296.234ZM292.746 77.1179H294.445V85.3735C294.445 85.7031 294.494 85.9512 294.592 86.1179C294.691 86.2807 294.818 86.3925 294.973 86.4531C295.132 86.5099 295.304 86.5383 295.49 86.5383C295.626 86.5383 295.746 86.5288 295.848 86.5099C295.95 86.491 296.03 86.4758 296.087 86.4644L296.393 87.8679C296.295 87.9057 296.155 87.9436 295.973 87.9815C295.791 88.0232 295.564 88.0459 295.291 88.0497C294.844 88.0572 294.428 87.9777 294.041 87.811C293.655 87.6444 293.342 87.3868 293.104 87.0383C292.865 86.6898 292.746 86.2523 292.746 85.7258V77.1179ZM301.605 88.1122C300.745 88.1122 300.005 87.9285 299.384 87.561C298.766 87.1898 298.289 86.669 297.952 85.9985C297.618 85.3243 297.452 84.5345 297.452 83.6292C297.452 82.7353 297.618 81.9474 297.952 81.2656C298.289 80.5838 298.759 80.0516 299.361 79.669C299.967 79.2864 300.675 79.0951 301.486 79.0951C301.978 79.0951 302.456 79.1766 302.918 79.3394C303.38 79.5023 303.795 79.758 304.162 80.1065C304.529 80.455 304.819 80.9076 305.031 81.4644C305.243 82.0175 305.35 82.6898 305.35 83.4815V84.0838H298.412V82.811H303.685C303.685 82.3641 303.594 81.9682 303.412 81.6235C303.23 81.2751 302.975 81.0004 302.645 80.7997C302.319 80.5989 301.937 80.4985 301.497 80.4985C301.02 80.4985 300.603 80.616 300.247 80.8508C299.895 81.0819 299.622 81.3849 299.429 81.7599C299.24 82.1311 299.145 82.5345 299.145 82.9701V83.9644C299.145 84.5478 299.247 85.044 299.452 85.4531C299.66 85.8622 299.95 86.1747 300.321 86.3906C300.692 86.6027 301.126 86.7088 301.622 86.7088C301.944 86.7088 302.238 86.6633 302.503 86.5724C302.768 86.4777 302.997 86.3376 303.19 86.1519C303.384 85.9663 303.531 85.7372 303.634 85.4644L305.242 85.7542C305.113 86.2277 304.882 86.6425 304.548 86.9985C304.219 87.3508 303.804 87.6254 303.304 87.8224C302.808 88.0156 302.242 88.1122 301.605 88.1122ZM310.326 88.1065C309.621 88.1065 308.992 87.9266 308.439 87.5667C307.89 87.2031 307.458 86.686 307.144 86.0156C306.833 85.3413 306.678 84.5326 306.678 83.5894C306.678 82.6463 306.835 81.8394 307.149 81.169C307.468 80.4985 307.903 79.9853 308.456 79.6292C309.009 79.2732 309.636 79.0951 310.337 79.0951C310.879 79.0951 311.314 79.186 311.644 79.3679C311.977 79.5459 312.235 79.7542 312.416 79.9929C312.602 80.2315 312.746 80.4417 312.848 80.6235H312.951V76.2997H314.649V87.936H312.99V86.5781H312.848C312.746 86.7637 312.598 86.9758 312.405 87.2144C312.216 87.4531 311.954 87.6614 311.621 87.8394C311.288 88.0175 310.856 88.1065 310.326 88.1065ZM310.701 86.6576C311.189 86.6576 311.602 86.5288 311.939 86.2713C312.28 86.0099 312.538 85.6482 312.712 85.186C312.89 84.7239 312.979 84.186 312.979 83.5724C312.979 82.9663 312.892 82.436 312.718 81.9815C312.543 81.5269 312.288 81.1728 311.951 80.919C311.613 80.6652 311.197 80.5383 310.701 80.5383C310.189 80.5383 309.763 80.6709 309.422 80.936C309.081 81.2012 308.824 81.5629 308.649 82.0213C308.479 82.4796 308.394 82.9966 308.394 83.5724C308.394 84.1557 308.481 84.6804 308.655 85.1463C308.829 85.6122 309.087 85.9815 309.428 86.2542C309.772 86.5232 310.197 86.6576 310.701 86.6576Z" fill="black" fill-opacity="0.8"/>
<path d="M119.391 54.7929C119 55.1834 119 55.8166 119.391 56.2071L125.755 62.5711C126.145 62.9616 126.778 62.9616 127.169 62.5711C127.559 62.1805 127.559 61.5474 127.169 61.1569L121.512 55.5L127.169 49.8431C127.559 49.4526 127.559 48.8195 127.169 48.4289C126.778 48.0384 126.145 48.0384 125.755 48.4289L119.391 54.7929ZM189.125 56.5C189.677 56.5 190.125 56.0523 190.125 55.5C190.125 54.9477 189.677 54.5 189.125 54.5V55.5V56.5ZM298.125 54.5C297.573 54.5 297.125 54.9477 297.125 55.5C297.125 56.0523 297.573 56.5 298.125 56.5V55.5V54.5ZM367.152 56.5C367.705 56.5 368.152 56.0523 368.152 55.5C368.152 54.9477 367.705 54.5 367.152 54.5V55.5V56.5ZM120.098 55.5V56.5H189.125V55.5V54.5H120.098V55.5ZM298.125 55.5V56.5H367.152V55.5V54.5H298.125V55.5Z" fill="black" fill-opacity="0.8"/>
<path d="M201.963 61.5V60.2273L205.901 56.1477C206.321 55.7045 206.668 55.3163 206.94 54.983C207.217 54.6458 207.423 54.3258 207.56 54.0227C207.696 53.7197 207.764 53.3977 207.764 53.0568C207.764 52.6705 207.673 52.3371 207.491 52.0568C207.31 51.7727 207.062 51.5549 206.747 51.4034C206.433 51.2481 206.079 51.1705 205.685 51.1705C205.268 51.1705 204.904 51.2557 204.594 51.4261C204.283 51.5966 204.044 51.8371 203.878 52.1477C203.711 52.4583 203.628 52.822 203.628 53.2386H201.952C201.952 52.5303 202.115 51.911 202.44 51.3807C202.766 50.8504 203.213 50.4394 203.781 50.1477C204.349 49.8523 204.995 49.7045 205.719 49.7045C206.45 49.7045 207.094 49.8504 207.651 50.142C208.211 50.4299 208.649 50.8239 208.963 51.3239C209.277 51.8201 209.435 52.3807 209.435 53.0057C209.435 53.4375 209.353 53.8598 209.19 54.2727C209.031 54.6856 208.753 55.1458 208.355 55.6534C207.957 56.1572 207.404 56.7689 206.696 57.4886L204.384 59.9091V59.9943H209.622V61.5H201.963ZM213.305 61.608C212.995 61.608 212.728 61.4981 212.504 61.2784C212.281 61.0549 212.169 60.786 212.169 60.4716C212.169 60.161 212.281 59.8958 212.504 59.6761C212.728 59.4527 212.995 59.3409 213.305 59.3409C213.616 59.3409 213.883 59.4527 214.107 59.6761C214.33 59.8958 214.442 60.161 214.442 60.4716C214.442 60.6799 214.389 60.8712 214.283 61.0455C214.18 61.2159 214.044 61.3523 213.874 61.4545C213.703 61.5568 213.514 61.608 213.305 61.608ZM222.17 61.5V49.8636H226.318C227.219 49.8636 227.967 50.0189 228.562 50.3295C229.16 50.6402 229.607 51.0701 229.903 51.6193C230.198 52.1648 230.346 52.7955 230.346 53.5114C230.346 54.2235 230.196 54.8504 229.897 55.392C229.602 55.9299 229.155 56.3485 228.556 56.6477C227.962 56.947 227.213 57.0966 226.312 57.0966H223.17V55.5852H226.153C226.721 55.5852 227.183 55.5038 227.539 55.3409C227.899 55.178 228.162 54.9413 228.329 54.6307C228.496 54.3201 228.579 53.947 228.579 53.5114C228.579 53.072 228.494 52.6913 228.323 52.3693C228.157 52.0473 227.893 51.8011 227.534 51.6307C227.177 51.4564 226.71 51.3693 226.13 51.3693H223.926V61.5H222.17ZM227.914 56.25L230.789 61.5H228.789L225.971 56.25H227.914ZM235.822 61.6761C234.962 61.6761 234.222 61.4924 233.6 61.125C232.983 60.7538 232.506 60.233 232.169 59.5625C231.835 58.8883 231.669 58.0985 231.669 57.1932C231.669 56.2992 231.835 55.5114 232.169 54.8295C232.506 54.1477 232.975 53.6155 233.578 53.233C234.184 52.8504 234.892 52.6591 235.703 52.6591C236.195 52.6591 236.672 52.7405 237.135 52.9034C237.597 53.0663 238.011 53.322 238.379 53.6705C238.746 54.0189 239.036 54.4716 239.248 55.0284C239.46 55.5814 239.566 56.2538 239.566 57.0455V57.6477H232.629V56.375H237.902C237.902 55.928 237.811 55.5322 237.629 55.1875C237.447 54.839 237.191 54.5644 236.862 54.3636C236.536 54.1629 236.153 54.0625 235.714 54.0625C235.237 54.0625 234.82 54.1799 234.464 54.4148C234.112 54.6458 233.839 54.9489 233.646 55.3239C233.457 55.6951 233.362 56.0985 233.362 56.5341V57.5284C233.362 58.1117 233.464 58.608 233.669 59.017C233.877 59.4261 234.167 59.7386 234.538 59.9545C234.909 60.1667 235.343 60.2727 235.839 60.2727C236.161 60.2727 236.455 60.2273 236.72 60.1364C236.985 60.0417 237.214 59.9015 237.407 59.7159C237.6 59.5303 237.748 59.3011 237.85 59.0284L239.458 59.3182C239.33 59.7917 239.099 60.2064 238.765 60.5625C238.436 60.9148 238.021 61.1894 237.521 61.3864C237.025 61.5795 236.458 61.6761 235.822 61.6761ZM241.275 64.7727V52.7727H242.934V54.1875H243.076C243.175 54.0057 243.317 53.7955 243.503 53.5568C243.688 53.3182 243.946 53.1098 244.275 52.9318C244.605 52.75 245.04 52.6591 245.582 52.6591C246.287 52.6591 246.915 52.8371 247.468 53.1932C248.022 53.5492 248.455 54.0625 248.77 54.733C249.088 55.4034 249.247 56.2102 249.247 57.1534C249.247 58.0966 249.09 58.9053 248.775 59.5795C248.461 60.25 248.029 60.767 247.48 61.1307C246.931 61.4905 246.304 61.6705 245.599 61.6705C245.069 61.6705 244.635 61.5814 244.298 61.4034C243.965 61.2254 243.703 61.017 243.514 60.7784C243.325 60.5398 243.179 60.3277 243.076 60.142H242.974V64.7727H241.275ZM242.94 57.1364C242.94 57.75 243.029 58.2879 243.207 58.75C243.385 59.2121 243.643 59.5739 243.98 59.8352C244.317 60.0928 244.73 60.2216 245.218 60.2216C245.726 60.2216 246.15 60.0871 246.491 59.8182C246.832 59.5455 247.09 59.1761 247.264 58.7102C247.442 58.2443 247.531 57.7197 247.531 57.1364C247.531 56.5606 247.444 56.0436 247.27 55.5852C247.099 55.1269 246.842 54.7652 246.497 54.5C246.156 54.2348 245.73 54.1023 245.218 54.1023C244.726 54.1023 244.309 54.2292 243.968 54.483C243.631 54.7367 243.376 55.0909 243.201 55.5455C243.027 56 242.94 56.5303 242.94 57.1364ZM252.673 49.8636V61.5H250.974V49.8636H252.673ZM254.783 61.5V52.7727H256.482V61.5H254.783ZM255.641 51.4261C255.345 51.4261 255.091 51.3277 254.879 51.1307C254.671 50.9299 254.567 50.6913 254.567 50.4148C254.567 50.1345 254.671 49.8958 254.879 49.6989C255.091 49.4981 255.345 49.3977 255.641 49.3977C255.936 49.3977 256.188 49.4981 256.396 49.6989C256.608 49.8958 256.714 50.1345 256.714 50.4148C256.714 50.6913 256.608 50.9299 256.396 51.1307C256.188 51.3277 255.936 51.4261 255.641 51.4261ZM262.267 61.6761C261.422 61.6761 260.695 61.4848 260.085 61.1023C259.479 60.7159 259.013 60.1837 258.688 59.5057C258.362 58.8277 258.199 58.0511 258.199 57.1761C258.199 56.2898 258.366 55.5076 258.699 54.8295C259.032 54.1477 259.502 53.6155 260.108 53.233C260.714 52.8504 261.428 52.6591 262.25 52.6591C262.913 52.6591 263.504 52.7822 264.023 53.0284C264.542 53.2708 264.96 53.6117 265.279 54.0511C265.601 54.4905 265.792 55.0038 265.852 55.5909H264.199C264.108 55.1818 263.9 54.8295 263.574 54.5341C263.252 54.2386 262.82 54.0909 262.279 54.0909C261.805 54.0909 261.39 54.2159 261.034 54.4659C260.682 54.7121 260.407 55.0644 260.21 55.5227C260.013 55.9773 259.915 56.5152 259.915 57.1364C259.915 57.7727 260.011 58.322 260.205 58.7841C260.398 59.2462 260.671 59.6042 261.023 59.858C261.379 60.1117 261.797 60.2386 262.279 60.2386C262.601 60.2386 262.892 60.1799 263.154 60.0625C263.419 59.9413 263.64 59.7689 263.818 59.5455C264 59.322 264.127 59.053 264.199 58.7386H265.852C265.792 59.303 265.608 59.8068 265.301 60.25C264.994 60.6932 264.583 61.0417 264.068 61.2955C263.557 61.5492 262.957 61.6761 262.267 61.6761ZM270.033 61.6932C269.48 61.6932 268.98 61.5909 268.533 61.3864C268.086 61.178 267.732 60.8769 267.47 60.483C267.213 60.089 267.084 59.6061 267.084 59.0341C267.084 58.5417 267.179 58.1364 267.368 57.8182C267.558 57.5 267.813 57.2481 268.135 57.0625C268.457 56.8769 268.817 56.7367 269.215 56.642C269.612 56.5473 270.018 56.4754 270.431 56.4261C270.953 56.3655 271.378 56.3163 271.703 56.2784C272.029 56.2367 272.266 56.1705 272.414 56.0795C272.561 55.9886 272.635 55.8409 272.635 55.6364V55.5966C272.635 55.1004 272.495 54.7159 272.215 54.4432C271.938 54.1705 271.525 54.0341 270.976 54.0341C270.404 54.0341 269.953 54.161 269.624 54.4148C269.298 54.6648 269.073 54.9432 268.948 55.25L267.351 54.8864C267.541 54.3561 267.817 53.928 268.181 53.6023C268.548 53.2727 268.97 53.0341 269.448 52.8864C269.925 52.7348 270.427 52.6591 270.953 52.6591C271.302 52.6591 271.671 52.7008 272.061 52.7841C272.455 52.8636 272.823 53.0114 273.164 53.2273C273.508 53.4432 273.791 53.7519 274.01 54.1534C274.23 54.5511 274.34 55.0682 274.34 55.7045V61.5H272.681V60.3068H272.612C272.503 60.5265 272.338 60.7424 272.118 60.9545C271.898 61.1667 271.616 61.3428 271.272 61.483C270.927 61.6231 270.514 61.6932 270.033 61.6932ZM270.402 60.3295C270.872 60.3295 271.273 60.2367 271.607 60.0511C271.944 59.8655 272.2 59.6231 272.374 59.3239C272.552 59.0208 272.641 58.697 272.641 58.3523V57.2273C272.58 57.2879 272.463 57.3447 272.289 57.3977C272.118 57.447 271.923 57.4905 271.703 57.5284C271.484 57.5625 271.27 57.5947 271.061 57.625C270.853 57.6515 270.679 57.6742 270.539 57.6932C270.209 57.7348 269.908 57.8049 269.635 57.9034C269.366 58.0019 269.15 58.1439 268.987 58.3295C268.828 58.5114 268.749 58.7538 268.749 59.0568C268.749 59.4773 268.904 59.7955 269.215 60.0114C269.525 60.2235 269.921 60.3295 270.402 60.3295ZM280.5 52.7727V54.1364H275.733V52.7727H280.5ZM277.012 50.6818H278.711V58.9375C278.711 59.267 278.76 59.5152 278.858 59.6818C278.957 59.8447 279.084 59.9564 279.239 60.017C279.398 60.0739 279.57 60.1023 279.756 60.1023C279.892 60.1023 280.012 60.0928 280.114 60.0739C280.216 60.0549 280.296 60.0398 280.353 60.0284L280.66 61.4318C280.561 61.4697 280.421 61.5076 280.239 61.5455C280.057 61.5871 279.83 61.6098 279.557 61.6136C279.11 61.6212 278.694 61.5417 278.307 61.375C277.921 61.2083 277.608 60.9508 277.37 60.6023C277.131 60.2538 277.012 59.8163 277.012 59.2898V50.6818ZM285.871 61.6761C285.011 61.6761 284.271 61.4924 283.65 61.125C283.032 60.7538 282.555 60.233 282.218 59.5625C281.885 58.8883 281.718 58.0985 281.718 57.1932C281.718 56.2992 281.885 55.5114 282.218 54.8295C282.555 54.1477 283.025 53.6155 283.627 53.233C284.233 52.8504 284.941 52.6591 285.752 52.6591C286.244 52.6591 286.722 52.7405 287.184 52.9034C287.646 53.0663 288.061 53.322 288.428 53.6705C288.796 54.0189 289.085 54.4716 289.297 55.0284C289.51 55.5814 289.616 56.2538 289.616 57.0455V57.6477H282.678V56.375H287.951C287.951 55.928 287.86 55.5322 287.678 55.1875C287.496 54.839 287.241 54.5644 286.911 54.3636C286.585 54.1629 286.203 54.0625 285.763 54.0625C285.286 54.0625 284.869 54.1799 284.513 54.4148C284.161 54.6458 283.888 54.9489 283.695 55.3239C283.506 55.6951 283.411 56.0985 283.411 56.5341V57.5284C283.411 58.1117 283.513 58.608 283.718 59.017C283.926 59.4261 284.216 59.7386 284.587 59.9545C284.958 60.1667 285.392 60.2727 285.888 60.2727C286.21 60.2727 286.504 60.2273 286.769 60.1364C287.034 60.0417 287.263 59.9015 287.457 59.7159C287.65 59.5303 287.797 59.3011 287.9 59.0284L289.508 59.3182C289.379 59.7917 289.148 60.2064 288.814 60.5625C288.485 60.9148 288.07 61.1894 287.57 61.3864C287.074 61.5795 286.508 61.6761 285.871 61.6761Z" fill="black" fill-opacity="0.8"/>
</svg>
