<?xml version="1.0" encoding="UTF-8"?>
<svg width="162px" height="100px" viewBox="0 0 162 100" version="1.1" xmlns="http://www.w3.org/2000/svg" xmlns:xlink="http://www.w3.org/1999/xlink">
    <!-- Generator: Sketch 53.2 (72643) - https://sketchapp.com -->
    <title>front-cover</title>
    <desc>Created with Sketch.</desc>
    <g id="front-cover" stroke="none" stroke-width="1" fill="none" fill-rule="evenodd">
        <g transform="translate(2.000000, 2.000000)" fill-rule="nonzero">
            <g id="flowRoot4207" transform="translate(19.553333, 79.562222)" fill="#0F5788">
                <polygon id="path4161" points="4.82864442 13.0174859 3.97701911 13.0174859 3.97701911 1.7230852 0.0496090222 1.7230852 0.0496090222 0.9293352 8.75605451 0.9293352 8.75605451 1.7230852 4.82864442 1.7230852"></polygon>
                <path d="M16.6026028,13.0174859 L16.6026028,7.18838344 C16.6026028,6.2843918 16.4124339,5.62844621 16.0320962,5.22054667 C15.6517585,4.80713439 15.0619582,4.60042824 14.2626955,4.60042824 C13.1878258,4.60042824 12.3995876,4.87327975 11.8979809,5.41898276 C11.4018869,5.9591749 11.1538399,6.83836392 11.1538399,8.0565498 L11.1538399,13.0174859 L10.3352854,13.0174859 L10.3352854,0.1521206 L11.1538399,0.1521206 L11.1538399,4.24489598 L11.1125,5.39417824 L11.1703781,5.39417824 C11.5066196,4.85398798 11.9310555,4.46262572 12.4436858,4.22009147 C12.9563161,3.97755533 13.592969,3.85628727 14.3536444,3.85628727 C16.3931421,3.85628727 17.412891,4.95044965 17.412891,7.13877442 L17.412891,13.0174859 L16.6026028,13.0174859 L16.6026028,13.0174859 Z" id="path4163"></path>
                <path d="M23.9530608,13.1828512 C22.6466805,13.1828512 21.6269316,12.7804634 20.8938142,11.975688 C20.1662115,11.1709144 19.8024101,10.0436793 19.8024101,8.59398276 C19.8024101,7.16082256 20.1551879,6.01429479 20.8607434,5.15439942 C21.566299,4.28899132 22.5171452,3.85628727 23.713282,3.85628727 C24.7716153,3.85628727 25.6067061,4.22560139 26.2185545,4.96422962 C26.8304029,5.70285974 27.1363271,6.70607225 27.1363271,7.97386716 L27.1363271,8.63532549 L20.6623045,8.63532549 C20.67333,9.87004771 20.9599624,10.8126257 21.5222018,11.4630595 C22.089952,12.1134933 22.9002383,12.4387102 23.9530608,12.4387102 C24.4656911,12.4387102 24.9149315,12.4028811 25.300782,12.331223 C25.6921452,12.2595649 26.1854828,12.1052242 26.7807948,11.8682008 L26.7807948,12.6123418 C26.2736772,12.8328288 25.8051441,12.9816568 25.3751955,13.0588258 C24.9452469,13.1415094 24.471202,13.1828512 23.9530608,13.1828512 L23.9530608,13.1828512 Z M23.713282,4.58389284 C22.8478739,4.58389284 22.1533419,4.87052432 21.6296861,5.44378727 C21.1060322,6.01153936 20.800108,6.83285024 20.7119135,7.90771991 L26.2681635,7.90771991 C26.2681635,6.86592292 26.0421656,6.05288021 25.5901698,5.46859178 C25.1381721,4.87879249 24.5125428,4.58389284 23.713282,4.58389284 L23.713282,4.58389284 Z" id="path4165"></path>
                <path d="M43.0113271,13.0174859 L42.1597018,13.0174859 L34.9994135,2.28532549 L34.9332691,2.28532549 C34.9994145,3.56414399 35.0324872,4.52877014 35.0324872,5.17920393 L35.0324872,13.0174859 L34.2222018,13.0174859 L34.2222018,0.9293352 L35.0655608,0.9293352 L42.2175771,11.6449602 L42.2671861,11.6449602 C42.2175771,10.6527722 42.1927726,9.71019422 42.1927726,8.81722618 L42.1927726,0.9293352 L43.0113271,0.9293352 L43.0113271,13.0174859 Z" id="path4168"></path>
                <path d="M49.8491538,13.1828512 C48.5427735,13.1828512 47.5230256,12.7804634 46.7899101,11.975688 C46.0623055,11.1709144 45.6985031,10.0436793 45.6985031,8.59398276 C45.6985031,7.16082256 46.0512809,6.01429479 46.7568365,5.15439942 C47.462392,4.28899132 48.4132382,3.85628727 49.609375,3.85628727 C50.6677083,3.85628727 51.5027992,4.22560139 52.1146476,4.96422962 C52.7264978,5.70285974 53.0324229,6.70607225 53.0324229,7.97386716 L53.0324229,8.63532549 L46.5583976,8.63532549 C46.569423,9.87004771 46.8560555,10.8126257 47.4182948,11.4630595 C47.9860469,12.1134933 48.7963332,12.4387102 49.8491538,12.4387102 C50.3617841,12.4387102 50.8110245,12.4028811 51.196875,12.331223 C51.5882382,12.2595649 52.0815758,12.1052242 52.6768878,11.8682008 L52.6768878,12.6123418 C52.1697703,12.8328288 51.7012372,12.9816568 51.2712885,13.0588258 C50.8413418,13.1415094 50.3672969,13.1828512 49.8491538,13.1828512 L49.8491538,13.1828512 Z M49.609375,4.58389284 C48.7439669,4.58389284 48.0494359,4.87052432 47.525782,5.44378727 C47.0021261,6.01153936 46.696201,6.83285024 46.6080066,7.90771991 L52.1642566,7.90771991 C52.1642566,6.86592292 51.9382587,6.05288021 51.4862628,5.46859178 C51.034267,4.87879249 50.4086377,4.58389284 49.609375,4.58389284 L49.609375,4.58389284 Z" id="path4170"></path>
                <path d="M62.9460288,8.51130011 C62.9460288,9.97753299 62.5904947,11.1240608 61.8794264,11.9508834 C61.16836,12.7721953 60.1871965,13.1828512 58.9359361,13.1828512 C58.1476988,13.1828512 57.4531678,12.9926814 56.852343,12.6123418 C56.2515183,12.2320041 55.7912533,11.6863011 55.4715482,10.9752328 C55.151845,10.2641663 54.9919934,9.44285546 54.9919934,8.51130011 C54.9919934,7.04506724 55.3475266,5.9040522 56.058593,5.088255 C56.7696613,4.26694318 57.745313,3.85628727 58.9855479,3.85628727 C60.2202702,3.85628727 61.1876527,4.27245498 61.8876955,5.1047904 C62.593251,5.93161308 62.9460288,7.06711632 62.9460288,8.51130011 L62.9460288,8.51130011 Z M55.8518878,8.51130011 C55.8518878,9.74602233 56.121983,10.7106494 56.6621732,11.4051814 C57.2078763,12.0942006 57.9768217,12.4387102 58.9690097,12.4387102 C59.9611977,12.4387102 60.7273868,12.0942006 61.2675771,11.4051814 C61.8132801,10.7106494 62.0861316,9.74602233 62.0861316,8.51130011 C62.0861316,7.27106703 61.8105246,6.30919631 61.2593108,5.62568796 C60.7136078,4.94218148 59.9446623,4.60042824 58.9524743,4.60042824 C57.9602863,4.60042824 57.1940972,4.94218148 56.653907,5.62568796 C56.1192275,6.30368357 55.8518878,7.26555429 55.8518878,8.51130011 Z" id="path4172"></path>
                <path d="M73.3639969,9.93343764 L71.2804038,9.93343764 L71.2804038,13.0174859 L70.5031892,13.0174859 L70.5031892,9.93343764 L64.2854809,9.93343764 L64.2854809,9.37946647 L70.2799486,0.863187956 L71.2804038,0.863187956 L71.2804038,9.22236747 L73.3639969,9.22236747 L73.3639969,9.93343764 L73.3639969,9.93343764 Z M70.5031892,9.22236747 L70.5031892,5.76624873 C70.5031892,4.10157789 70.5417746,2.70424769 70.6189455,1.57425813 L70.5527982,1.57425813 C70.4425566,1.77820696 70.1035597,2.29634909 69.5358076,3.12868451 L65.2694007,9.22236747 L70.5031892,9.22236747 Z" id="path4174"></path>
                <path d="M73.8931635,17.0854539 C73.4521913,17.0854539 73.0801208,17.0165522 72.7769521,16.8787487 L72.7769521,16.1676814 C73.1572917,16.2779249 73.5128258,16.3330467 73.8435545,16.3330467 C74.6758899,16.3330467 75.0920576,15.8479772 75.0920576,14.8778383 L75.0920576,4.02992167 L75.9106122,4.02992167 L75.9106122,14.7620821 C75.9106122,15.506223 75.7342233,16.0794869 75.3814455,16.4818737 C75.0341805,16.8842605 74.5380865,17.0854539 73.8931635,17.0854539 Z M74.9763014,1.5329154 C74.9763014,1.00374873 75.1499348,0.7391654 75.4972018,0.7391654 C75.6680779,0.7391654 75.8003696,0.808067133 75.8940768,0.9458706 C75.9932948,1.08367407 76.0429038,1.27935567 76.0429038,1.5329154 C76.0429038,1.78096239 75.9932948,1.97664399 75.8940768,2.1199602 C75.8003696,2.26327641 75.6680779,2.33493451 75.4972018,2.33493451 C75.1499348,2.33493451 74.9763014,2.06759481 74.9763014,1.5329154 L74.9763014,1.5329154 Z" id="path4176"></path>
                <path d="M88.850391,13.0174859 L84.3442052,1.85537687 L84.2780608,1.85537687 C84.3221571,2.53888334 84.3442052,3.2389271 84.3442052,3.95550813 L84.3442052,13.0174859 L83.5339198,13.0174859 L83.5339198,0.9293352 L84.8402982,0.9293352 L89.1232434,11.5622776 L89.1728524,11.5622776 L93.4557948,0.9293352 L94.7291024,0.9293352 L94.7291024,13.0174859 L93.8774743,13.0174859 L93.8774743,3.85628727 C93.8774743,3.21687896 93.910547,2.55542062 93.9766924,1.87191227 L93.9105479,1.87191227 L89.3878268,13.0174859 L88.850391,13.0174859 Z" id="path4178"></path>
                <path d="M103.402474,13.0174859 L103.195769,11.5953512 L103.129622,11.5953512 C102.677626,12.1741269 102.211849,12.5847818 101.732292,12.8273161 C101.258247,13.0643395 100.696007,13.1828512 100.045574,13.1828512 C99.1636292,13.1828512 98.4773663,12.9568523 97.9867851,12.5048546 C97.496202,12.0528588 97.2509104,11.4272295 97.2509104,10.6279668 C97.2509104,9.75153507 97.6147127,9.07078497 98.3423174,8.58571647 C99.0754347,8.10064608 100.133768,7.84433092 101.517317,7.81677098 L103.22884,7.76715913 L103.22884,7.17184804 C103.22884,6.31746354 103.055207,5.67254155 102.707942,5.23708207 C102.360677,4.80162259 101.801194,4.58389284 101.029493,4.58389284 C100.197158,4.58389284 99.3345053,4.8154035 98.4415354,5.2784248 L98.1356122,4.56735462 C99.1222874,4.1043352 100.097938,3.87282549 101.062564,3.87282549 C102.049239,3.87282549 102.785112,4.12914065 103.270183,4.64177098 C103.760764,5.1544013 104.006055,5.9536631 104.006055,7.03955638 L104.006055,13.0174859 L103.402474,13.0174859 L103.402474,13.0174859 Z M100.095183,12.4387102 C101.054296,12.4387102 101.809461,12.1658587 102.360676,11.6201557 C102.917405,11.0689399 103.195769,10.3055063 103.195769,9.32985462 L103.195769,8.44515569 L101.624805,8.51130011 C100.362522,8.57193461 99.4612852,8.77037259 98.921093,9.10661402 C98.3864155,9.43734272 98.1190768,9.95548484 98.1190768,10.6610404 C98.1190768,11.2232797 98.2899529,11.6614956 98.6317052,11.975688 C98.9789702,12.2843695 99.4667961,12.4387102 100.095183,12.4387102 L100.095183,12.4387102 Z" id="path4180"></path>
                <path d="M113.175519,13.0174859 L113.175519,7.18838344 C113.175519,6.2843918 112.985351,5.62844621 112.605013,5.22054667 C112.224675,4.80713439 111.634875,4.60042824 110.835612,4.60042824 C109.760742,4.60042824 108.972504,4.87327975 108.470898,5.41898276 C107.974804,5.9591749 107.726757,6.83836392 107.726757,8.0565498 L107.726757,13.0174859 L106.908202,13.0174859 L106.908202,4.02992167 L107.602734,4.02992167 L107.75983,5.26188658 L107.809439,5.26188658 C108.393728,4.32482037 109.432768,3.85628727 110.926561,3.85628727 C112.966059,3.85628727 113.985808,4.95044965 113.985808,7.13877442 L113.985808,13.0174859 L113.175519,13.0174859 L113.175519,13.0174859 Z" id="path4182"></path>
                <path d="M117.607292,4.02992167 L117.607292,9.850755 C117.607292,10.7547466 117.797461,11.4134486 118.177798,11.8268609 C118.558138,12.2347604 119.147939,12.4387102 119.947202,12.4387102 C121.016559,12.4387102 121.80204,12.1686151 122.303644,11.6284248 C122.810764,11.0882327 123.064324,10.2090436 123.064324,8.99085776 L123.064324,4.02992167 L123.874609,4.02992167 L123.874609,13.0174859 L123.180077,13.0174859 L123.03125,11.7772519 L122.981641,11.7772519 C122.397353,12.7143181 121.358312,13.1828512 119.864519,13.1828512 C117.819511,13.1828512 116.797006,12.0886888 116.797006,9.90036402 L116.797006,4.02992167 L117.607292,4.02992167 L117.607292,4.02992167 Z" id="path4184"></path>
                <path d="M132.341276,13.0174859 L132.13457,11.5953512 L132.068423,11.5953512 C131.616427,12.1741269 131.150651,12.5847818 130.671093,12.8273161 C130.197048,13.0643395 129.634809,13.1828512 128.984375,13.1828512 C128.102431,13.1828512 127.416168,12.9568523 126.925586,12.5048546 C126.435005,12.0528588 126.189715,11.4272295 126.189715,10.6279668 C126.189715,9.75153507 126.553516,9.07078497 127.281119,8.58571647 C128.014236,8.10064608 129.072569,7.84433092 130.456119,7.81677098 L132.167644,7.76715913 L132.167644,7.17184804 C132.167644,6.31746354 131.994011,5.67254155 131.646744,5.23708207 C131.299479,4.80162259 130.739996,4.58389284 129.968295,4.58389284 C129.135959,4.58389284 128.273308,4.8154035 127.38034,5.2784248 L127.074414,4.56735462 C128.061089,4.1043352 129.03674,3.87282549 130.001368,3.87282549 C130.988044,3.87282549 131.723916,4.12914065 132.208984,4.64177098 C132.699565,5.1544013 132.944856,5.9536631 132.944856,7.03955638 L132.944856,13.0174859 L132.341276,13.0174859 L132.341276,13.0174859 Z M129.033984,12.4387102 C129.993099,12.4387102 130.748264,12.1658587 131.299478,11.6201557 C131.856206,11.0689399 132.13457,10.3055063 132.13457,9.32985462 L132.13457,8.44515569 L130.563606,8.51130011 C129.301324,8.57193461 128.400087,8.77037259 127.859894,9.10661402 C127.325217,9.43734272 127.057878,9.95548484 127.057878,10.6610404 C127.057878,11.2232797 127.228754,11.6614956 127.570507,11.975688 C127.917773,12.2843695 128.405599,12.4387102 129.033984,12.4387102 L129.033984,12.4387102 Z" id="path4186"></path>
                <polygon id="path4188" points="136.665561 13.0174859 135.847006 13.0174859 135.847006 0.1521206 136.665561 0.1521206"></polygon>
            </g>
            <g id="Neo4j-logo-color">
                <path d="M8.00225895,3 C5.607242,3 4,4.34314527 4,6.94875988 L4,8.80648678 C4.24316389,8.69136492 4.51004759,8.63026563 4.78098379,8.62769147 C5.05243588,8.62775085 5.32030287,8.68740662 5.5642313,8.80212592 L5.5642313,6.94003816 C5.5642313,5.25020442 6.53310394,4.38239302 8.00905011,4.38239302 C9.48499629,4.38239302 10.4402866,5.25020442 10.4402866,6.94003816 L10.4402866,11 L12,11 L11.9999905,6.94003816 C12.0045179,4.31916053 10.3972759,3 8.00225895,3 Z" id="Path" fill="#000000"></path>
                <path d="M13,7 C13,4.69214437 14.875,3 17.5164063,3 C20.1578125,3 22,4.6985138 22,7 L22,7.53715499 L14.696875,7.53715499 C14.93125,8.89171975 16.05625,9.64543524 17.509375,9.64543524 C18.596875,9.64543524 19.3609375,9.33757962 19.853125,8.67728238 L21.634375,8.67728238 C20.9898438,10.0912951 19.4617188,11 17.509375,11 C14.8679688,11 13,9.30785563 13,7 Z M20.3007813,6.23142251 C19.9773438,5.014862 18.8757813,4.35456476 17.5164063,4.35456476 C16.1570313,4.35456476 15.071875,5.03184713 14.7484375,6.23142251 L20.3007813,6.23142251 Z" id="Shape" fill="#000000"></path>
                <path d="M23,6.99893815 C23,4.69259358 24.8681889,3 27.5,3 C30.1318111,3 32,4.69896469 32,6.99893815 C32,9.2989116 30.1318111,11 27.5,11 C24.8681889,11 23,9.30740642 23,6.99893815 Z M30.3770109,6.99893815 C30.3770109,5.4613751 29.2257395,4.35280064 27.5,4.35280064 C25.7742605,4.35280064 24.6253243,5.4613751 24.6253243,6.99893815 C24.6253243,8.53650119 25.7742605,9.64507566 27.4976648,9.64507566 C29.221069,9.64507566 30.3770109,8.5386249 30.3770109,6.99893815 L30.3770109,6.99893815 Z" id="Shape" fill="#000000"></path>
                <path d="M41,13.5333333 L41.1742919,13.5333333 C42.1372549,13.5333333 42.4989107,13.0395062 42.4989107,11.8049383 L42.4989107,3 L44,3 L44,11.691358 C44,13.8740741 43.2418301,15 41.3159041,15 L41,15 L41,13.5333333 Z" id="Path" fill="#000000"></path>
                <path d="M40.7795767,13 L39.1531326,13 L39.1531326,10.9316 L35.033909,10.9316 C34.2670767,10.9591945 33.550126,10.540272 33.1784879,9.84745628 C32.8763877,9.19579899 32.9626286,8.42314955 33.400383,7.85945343 L37.0970616,2.85290215 C37.6210981,2.12299024 38.5393707,1.82181442 39.3755437,2.1056036 C40.2117167,2.38939278 40.7775693,3.19426656 40.7795767,4.10271276 L40.7795767,9.44303413 L42,9.44303413 L42,10.9316 L40.7795767,10.9316 L40.7795767,13 Z M34.7529992,8.77549396 C34.7043887,8.84687978 34.6780362,8.93187197 34.6774604,9.01912176 C34.6768277,9.13110307 34.7196503,9.23868696 34.7963743,9.31787105 C34.8730982,9.39705514 34.9773397,9.44125082 35.0858419,9.44059785 L39.1531326,9.44059785 L39.1531326,4.06129604 C39.1592871,3.87520595 39.0443593,3.7077525 38.8722228,3.65200134 C38.823837,3.63779625 38.77381,3.63042037 38.7235058,3.63007483 C38.5943539,3.62999365 38.4737769,3.69679036 38.402466,3.80792313 L34.7529992,8.77549396 Z" id="Shape" fill="#000000"></path>
                <path d="M43.5025641,2.16982621e-06 C42.8956493,-0.0010265007 42.347923,0.363778469 42.1149536,0.924199599 C41.8819842,1.48462073 42.0096877,2.13020453 42.4384778,2.55972251 C42.8672679,2.9892405 43.5126342,3.1180389 44.0734498,2.88602057 C44.6342655,2.65400224 44.9999991,2.10689571 45,1.4999801 C45.0000012,0.672556992 44.3299862,0.00140458187 43.5025641,2.16982621e-06 Z" id="Path" fill="#018BFF"></path>
                <path d="M5.58407987,9.59291663 C5.25343049,9.59324708 4.93204936,9.69465418 4.66934166,9.88154887 L2.99490562,8.81601486 C3.03217121,8.69148104 3.05129165,8.56285103 3.05175375,8.43357715 C3.05908537,7.85931044 2.6932317,7.33773973 2.12544594,7.11300811 C1.55766018,6.88827649 0.90029206,7.00485239 0.461050375,7.40816756 C0.02180869,7.81148273 -0.112392286,8.42173179 0.121265856,8.95326201 C0.354923999,9.48479224 0.910206514,9.8324279 1.52719007,9.8334435 C1.85793465,9.83365009 2.17949585,9.73218616 2.44192828,9.54481126 L4.11119632,10.6175611 C4.03537373,10.8684523 4.03537373,11.1339506 4.11119632,11.3848418 L2.43676027,12.4503758 C2.17573252,12.2640015 1.85616463,12.1625936 1.52719007,12.1617435 C0.910092576,12.1607708 0.353225571,12.5061684 0.116589582,13.0366707 C-0.120046408,13.5671731 0.010224482,14.1781398 0.446578931,14.5843113 C0.88293338,14.9904828 1.53930155,15.1117427 2.10922595,14.891475 C2.67915035,14.6712073 3.05021479,14.1528592 3.04916975,13.5784468 C3.04908974,13.450892 3.03084273,13.32391 2.99490562,13.2008196 L4.66934166,12.1352856 C4.93204936,12.3221803 5.25343049,12.4235874 5.58407987,12.4239178 C6.38188262,12.3708624 7,11.7529282 7,11.0084172 C7,10.2639063 6.38188262,9.64597202 5.58407987,9.59291663 L5.58407987,9.59291663 Z" id="Path" fill="#018BFF"></path>
            </g>
        </g>
    </g>
</svg>