<?xml version="1.0" encoding="UTF-8"?>
<svg width="930px" height="999px" viewBox="0 0 930 999" version="1.1" xmlns="http://www.w3.org/2000/svg" xmlns:xlink="http://www.w3.org/1999/xlink">
    <!-- Generator: Sketch 48.2 (47327) - http://www.bohemiancoding.com/sketch -->
    <title>hierarchical-read-replicas</title>
    <desc>Created with Sketch.</desc>
    <defs></defs>
    <g id="Page-1" stroke="none" stroke-width="1" fill="none" fill-rule="evenodd">
        <g id="hierarchical-read-replicas">
            <g id="Group-31" transform="translate(28.000000, 16.000000)">
                <text id="Data-center-1" font-family="OpenSans-Regular, Open Sans" font-size="12" font-weight="normal" fill="#333333">
                    <tspan x="179" y="462">Data center 1</tspan>
                </text>
                <text id="Read-Replica" font-family="OpenSans-Regular, Open Sans" font-size="12" font-weight="normal" fill="#333333">
                    <tspan x="93" y="221">Read Replica</tspan>
                </text>
                <g id="Group-32" transform="translate(64.000000, 181.000000)">
                    <path d="M126.388889,21.6666667 L3.61111111,21.6666667 C1.61633333,21.6666667 0,20.0503333 0,18.0555556 L0,3.61111111 C0,1.61633333 1.61633333,0 3.61111111,0 L126.388889,0 C128.383667,0 130,1.61633333 130,3.61111111 L130,18.0555556 C130,20.0503333 128.383667,21.6666667 126.388889,21.6666667" id="Fill-1" fill="#D6D6D6"></path>
                    <path d="M14.4444444,14.0381944 C14.4444444,15.0355833 13.6362778,15.84375 12.6388889,15.84375 C11.6415,15.84375 10.8333333,15.0355833 10.8333333,14.0381944 C10.8333333,13.0408056 11.6415,12.2326389 12.6388889,12.2326389 C13.6362778,12.2326389 14.4444444,13.0408056 14.4444444,14.0381944" id="Fill-3" fill="#F16667"></path>
                    <path d="M14.4444444,7.53819444 C14.4444444,8.53558333 13.6362778,9.34375 12.6388889,9.34375 C11.6415,9.34375 10.8333333,8.53558333 10.8333333,7.53819444 C10.8333333,6.54080556 11.6415,5.73263889 12.6388889,5.73263889 C13.6362778,5.73263889 14.4444444,6.54080556 14.4444444,7.53819444" id="Fill-5" fill="#8DCC93"></path>
                    <path d="M107.611111,16.2048611 L105.444444,16.2048611 C105.045056,16.2048611 104.722222,15.8820278 104.722222,15.4826389 L104.722222,6.09375 C104.722222,5.69436111 105.045056,5.37152778 105.444444,5.37152778 L107.611111,5.37152778 C108.0105,5.37152778 108.333333,5.69436111 108.333333,6.09375 L108.333333,15.4826389 C108.333333,15.8820278 108.0105,16.2048611 107.611111,16.2048611" id="Fill-7" fill="#C2C2C2"></path>
                    <path d="M114.830517,16.2048611 L112.669628,16.2048611 C112.268794,16.2048611 111.944517,15.8805833 111.944517,15.47975 L111.944517,6.09663889 C111.944517,5.69580556 112.268794,5.37152778 112.669628,5.37152778 L114.830517,5.37152778 C115.23135,5.37152778 115.555628,5.69580556 115.555628,6.09663889 L115.555628,15.47975 C115.555628,15.8805833 115.23135,16.2048611 114.830517,16.2048611" id="Fill-9" fill="#C2C2C2"></path>
                    <path d="M122.059094,16.2048611 L119.885206,16.2048611 C119.487983,16.2048611 119.166594,15.8834722 119.166594,15.48625 L119.166594,6.09013889 C119.166594,5.69291667 119.487983,5.37152778 119.885206,5.37152778 L122.059094,5.37152778 C122.456317,5.37152778 122.777706,5.69291667 122.777706,6.09013889 L122.777706,15.48625 C122.777706,15.8834722 122.456317,16.2048611 122.059094,16.2048611" id="Fill-11" fill="#C2C2C2"></path>
                    <path d="M78,7.58051667 L78,14.0862944 C78,14.68285 77.5161111,15.1667389 76.9195556,15.1667389 L53.0804444,15.1667389 C52.4838889,15.1667389 52,14.68285 52,14.0862944 L52,7.58051667 C52,6.98396111 52.4838889,6.50007222 53.0804444,6.50007222 L76.9195556,6.50007222 C77.5161111,6.50007222 78,6.98396111 78,7.58051667" id="Fill-13" fill="#C2C2C2"></path>
                </g>
                <text id="Read-Replica" font-family="OpenSans-Regular, Open Sans" font-size="12" font-weight="normal" fill="#333333">
                    <tspan x="269" y="221">Read Replica</tspan>
                </text>
                <g id="Group-32" transform="translate(240.000000, 181.000000)">
                    <path d="M126.388889,21.6666667 L3.61111111,21.6666667 C1.61633333,21.6666667 0,20.0503333 0,18.0555556 L0,3.61111111 C0,1.61633333 1.61633333,0 3.61111111,0 L126.388889,0 C128.383667,0 130,1.61633333 130,3.61111111 L130,18.0555556 C130,20.0503333 128.383667,21.6666667 126.388889,21.6666667" id="Fill-1" fill="#D6D6D6"></path>
                    <path d="M14.4444444,14.0381944 C14.4444444,15.0355833 13.6362778,15.84375 12.6388889,15.84375 C11.6415,15.84375 10.8333333,15.0355833 10.8333333,14.0381944 C10.8333333,13.0408056 11.6415,12.2326389 12.6388889,12.2326389 C13.6362778,12.2326389 14.4444444,13.0408056 14.4444444,14.0381944" id="Fill-3" fill="#F16667"></path>
                    <path d="M14.4444444,7.53819444 C14.4444444,8.53558333 13.6362778,9.34375 12.6388889,9.34375 C11.6415,9.34375 10.8333333,8.53558333 10.8333333,7.53819444 C10.8333333,6.54080556 11.6415,5.73263889 12.6388889,5.73263889 C13.6362778,5.73263889 14.4444444,6.54080556 14.4444444,7.53819444" id="Fill-5" fill="#8DCC93"></path>
                    <path d="M107.611111,16.2048611 L105.444444,16.2048611 C105.045056,16.2048611 104.722222,15.8820278 104.722222,15.4826389 L104.722222,6.09375 C104.722222,5.69436111 105.045056,5.37152778 105.444444,5.37152778 L107.611111,5.37152778 C108.0105,5.37152778 108.333333,5.69436111 108.333333,6.09375 L108.333333,15.4826389 C108.333333,15.8820278 108.0105,16.2048611 107.611111,16.2048611" id="Fill-7" fill="#C2C2C2"></path>
                    <path d="M114.830517,16.2048611 L112.669628,16.2048611 C112.268794,16.2048611 111.944517,15.8805833 111.944517,15.47975 L111.944517,6.09663889 C111.944517,5.69580556 112.268794,5.37152778 112.669628,5.37152778 L114.830517,5.37152778 C115.23135,5.37152778 115.555628,5.69580556 115.555628,6.09663889 L115.555628,15.47975 C115.555628,15.8805833 115.23135,16.2048611 114.830517,16.2048611" id="Fill-9" fill="#C2C2C2"></path>
                    <path d="M122.059094,16.2048611 L119.885206,16.2048611 C119.487983,16.2048611 119.166594,15.8834722 119.166594,15.48625 L119.166594,6.09013889 C119.166594,5.69291667 119.487983,5.37152778 119.885206,5.37152778 L122.059094,5.37152778 C122.456317,5.37152778 122.777706,5.69291667 122.777706,6.09013889 L122.777706,15.48625 C122.777706,15.8834722 122.456317,16.2048611 122.059094,16.2048611" id="Fill-11" fill="#C2C2C2"></path>
                    <path d="M78,7.58051667 L78,14.0862944 C78,14.68285 77.5161111,15.1667389 76.9195556,15.1667389 L53.0804444,15.1667389 C52.4838889,15.1667389 52,14.68285 52,14.0862944 L52,7.58051667 C52,6.98396111 52.4838889,6.50007222 53.0804444,6.50007222 L76.9195556,6.50007222 C77.5161111,6.50007222 78,6.98396111 78,7.58051667" id="Fill-13" fill="#C2C2C2"></path>
                </g>
                <rect id="Rectangle-15" fill="#C2C2C2" x="169" y="94" width="100" height="9"></rect>
                <rect id="Rectangle-15" fill="#C2C2C2" x="169" y="64" width="100" height="9"></rect>
                <g id="Page-1-Copy-2" transform="translate(154.000000, 103.000000)">
                    <path d="M126.388889,21.6666667 L3.61111111,21.6666667 C1.61633333,21.6666667 0,20.0503333 0,18.0555556 L0,3.61111111 C0,1.61633333 1.61633333,0 3.61111111,0 L126.388889,0 C128.383667,0 130,1.61633333 130,3.61111111 L130,18.0555556 C130,20.0503333 128.383667,21.6666667 126.388889,21.6666667" id="Fill-1" fill="#D6D6D6"></path>
                    <path d="M14.4444444,14.0381944 C14.4444444,15.0355833 13.6362778,15.84375 12.6388889,15.84375 C11.6415,15.84375 10.8333333,15.0355833 10.8333333,14.0381944 C10.8333333,13.0408056 11.6415,12.2326389 12.6388889,12.2326389 C13.6362778,12.2326389 14.4444444,13.0408056 14.4444444,14.0381944" id="Fill-3" fill="#F16667"></path>
                    <path d="M14.4444444,7.53819444 C14.4444444,8.53558333 13.6362778,9.34375 12.6388889,9.34375 C11.6415,9.34375 10.8333333,8.53558333 10.8333333,7.53819444 C10.8333333,6.54080556 11.6415,5.73263889 12.6388889,5.73263889 C13.6362778,5.73263889 14.4444444,6.54080556 14.4444444,7.53819444" id="Fill-5" fill="#8DCC93"></path>
                    <path d="M107.611111,16.2048611 L105.444444,16.2048611 C105.045056,16.2048611 104.722222,15.8820278 104.722222,15.4826389 L104.722222,6.09375 C104.722222,5.69436111 105.045056,5.37152778 105.444444,5.37152778 L107.611111,5.37152778 C108.0105,5.37152778 108.333333,5.69436111 108.333333,6.09375 L108.333333,15.4826389 C108.333333,15.8820278 108.0105,16.2048611 107.611111,16.2048611" id="Fill-7" fill="#C2C2C2"></path>
                    <path d="M114.830517,16.2048611 L112.669628,16.2048611 C112.268794,16.2048611 111.944517,15.8805833 111.944517,15.47975 L111.944517,6.09663889 C111.944517,5.69580556 112.268794,5.37152778 112.669628,5.37152778 L114.830517,5.37152778 C115.23135,5.37152778 115.555628,5.69580556 115.555628,6.09663889 L115.555628,15.47975 C115.555628,15.8805833 115.23135,16.2048611 114.830517,16.2048611" id="Fill-9" fill="#C2C2C2"></path>
                    <path d="M122.059094,16.2048611 L119.885206,16.2048611 C119.487983,16.2048611 119.166594,15.8834722 119.166594,15.48625 L119.166594,6.09013889 C119.166594,5.69291667 119.487983,5.37152778 119.885206,5.37152778 L122.059094,5.37152778 C122.456317,5.37152778 122.777706,5.69291667 122.777706,6.09013889 L122.777706,15.48625 C122.777706,15.8834722 122.456317,16.2048611 122.059094,16.2048611" id="Fill-11" fill="#C2C2C2"></path>
                    <path d="M78,7.58051667 L78,14.0862944 C78,14.68285 77.5161111,15.1667389 76.9195556,15.1667389 L53.0804444,15.1667389 C52.4838889,15.1667389 52,14.68285 52,14.0862944 L52,7.58051667 C52,6.98396111 52.4838889,6.50007222 53.0804444,6.50007222 L76.9195556,6.50007222 C77.5161111,6.50007222 78,6.98396111 78,7.58051667" id="Fill-13" fill="#C2C2C2"></path>
                </g>
                <g id="Page-1-Copy-2" transform="translate(154.000000, 72.333333)">
                    <path d="M126.388889,21.6666667 L3.61111111,21.6666667 C1.61633333,21.6666667 0,20.0503333 0,18.0555556 L0,3.61111111 C0,1.61633333 1.61633333,0 3.61111111,0 L126.388889,0 C128.383667,0 130,1.61633333 130,3.61111111 L130,18.0555556 C130,20.0503333 128.383667,21.6666667 126.388889,21.6666667" id="Fill-1" fill="#D6D6D6"></path>
                    <path d="M14.4444444,14.0381944 C14.4444444,15.0355833 13.6362778,15.84375 12.6388889,15.84375 C11.6415,15.84375 10.8333333,15.0355833 10.8333333,14.0381944 C10.8333333,13.0408056 11.6415,12.2326389 12.6388889,12.2326389 C13.6362778,12.2326389 14.4444444,13.0408056 14.4444444,14.0381944" id="Fill-3" fill="#F16667"></path>
                    <path d="M14.4444444,7.53819444 C14.4444444,8.53558333 13.6362778,9.34375 12.6388889,9.34375 C11.6415,9.34375 10.8333333,8.53558333 10.8333333,7.53819444 C10.8333333,6.54080556 11.6415,5.73263889 12.6388889,5.73263889 C13.6362778,5.73263889 14.4444444,6.54080556 14.4444444,7.53819444" id="Fill-5" fill="#8DCC93"></path>
                    <path d="M107.611111,16.2048611 L105.444444,16.2048611 C105.045056,16.2048611 104.722222,15.8820278 104.722222,15.4826389 L104.722222,6.09375 C104.722222,5.69436111 105.045056,5.37152778 105.444444,5.37152778 L107.611111,5.37152778 C108.0105,5.37152778 108.333333,5.69436111 108.333333,6.09375 L108.333333,15.4826389 C108.333333,15.8820278 108.0105,16.2048611 107.611111,16.2048611" id="Fill-7" fill="#C2C2C2"></path>
                    <path d="M114.830517,16.2048611 L112.669628,16.2048611 C112.268794,16.2048611 111.944517,15.8805833 111.944517,15.47975 L111.944517,6.09663889 C111.944517,5.69580556 112.268794,5.37152778 112.669628,5.37152778 L114.830517,5.37152778 C115.23135,5.37152778 115.555628,5.69580556 115.555628,6.09663889 L115.555628,15.47975 C115.555628,15.8805833 115.23135,16.2048611 114.830517,16.2048611" id="Fill-9" fill="#C2C2C2"></path>
                    <path d="M122.059094,16.2048611 L119.885206,16.2048611 C119.487983,16.2048611 119.166594,15.8834722 119.166594,15.48625 L119.166594,6.09013889 C119.166594,5.69291667 119.487983,5.37152778 119.885206,5.37152778 L122.059094,5.37152778 C122.456317,5.37152778 122.777706,5.69291667 122.777706,6.09013889 L122.777706,15.48625 C122.777706,15.8834722 122.456317,16.2048611 122.059094,16.2048611" id="Fill-11" fill="#C2C2C2"></path>
                    <path d="M78,7.58051667 L78,14.0862944 C78,14.68285 77.5161111,15.1667389 76.9195556,15.1667389 L53.0804444,15.1667389 C52.4838889,15.1667389 52,14.68285 52,14.0862944 L52,7.58051667 C52,6.98396111 52.4838889,6.50007222 53.0804444,6.50007222 L76.9195556,6.50007222 C77.5161111,6.50007222 78,6.98396111 78,7.58051667" id="Fill-13" fill="#C2C2C2"></path>
                </g>
                <g id="Page-1-Copy-2" transform="translate(154.000000, 43.000000)">
                    <path d="M126.388889,21.6666667 L3.61111111,21.6666667 C1.61633333,21.6666667 0,20.0503333 0,18.0555556 L0,3.61111111 C0,1.61633333 1.61633333,0 3.61111111,0 L126.388889,0 C128.383667,0 130,1.61633333 130,3.61111111 L130,18.0555556 C130,20.0503333 128.383667,21.6666667 126.388889,21.6666667" id="Fill-1" fill="#D6D6D6"></path>
                    <path d="M14.4444444,14.0381944 C14.4444444,15.0355833 13.6362778,15.84375 12.6388889,15.84375 C11.6415,15.84375 10.8333333,15.0355833 10.8333333,14.0381944 C10.8333333,13.0408056 11.6415,12.2326389 12.6388889,12.2326389 C13.6362778,12.2326389 14.4444444,13.0408056 14.4444444,14.0381944" id="Fill-3" fill="#F16667"></path>
                    <path d="M14.4444444,7.53819444 C14.4444444,8.53558333 13.6362778,9.34375 12.6388889,9.34375 C11.6415,9.34375 10.8333333,8.53558333 10.8333333,7.53819444 C10.8333333,6.54080556 11.6415,5.73263889 12.6388889,5.73263889 C13.6362778,5.73263889 14.4444444,6.54080556 14.4444444,7.53819444" id="Fill-5" fill="#8DCC93"></path>
                    <path d="M107.611111,16.2048611 L105.444444,16.2048611 C105.045056,16.2048611 104.722222,15.8820278 104.722222,15.4826389 L104.722222,6.09375 C104.722222,5.69436111 105.045056,5.37152778 105.444444,5.37152778 L107.611111,5.37152778 C108.0105,5.37152778 108.333333,5.69436111 108.333333,6.09375 L108.333333,15.4826389 C108.333333,15.8820278 108.0105,16.2048611 107.611111,16.2048611" id="Fill-7" fill="#C2C2C2"></path>
                    <path d="M114.830517,16.2048611 L112.669628,16.2048611 C112.268794,16.2048611 111.944517,15.8805833 111.944517,15.47975 L111.944517,6.09663889 C111.944517,5.69580556 112.268794,5.37152778 112.669628,5.37152778 L114.830517,5.37152778 C115.23135,5.37152778 115.555628,5.69580556 115.555628,6.09663889 L115.555628,15.47975 C115.555628,15.8805833 115.23135,16.2048611 114.830517,16.2048611" id="Fill-9" fill="#C2C2C2"></path>
                    <path d="M122.059094,16.2048611 L119.885206,16.2048611 C119.487983,16.2048611 119.166594,15.8834722 119.166594,15.48625 L119.166594,6.09013889 C119.166594,5.69291667 119.487983,5.37152778 119.885206,5.37152778 L122.059094,5.37152778 C122.456317,5.37152778 122.777706,5.69291667 122.777706,6.09013889 L122.777706,15.48625 C122.777706,15.8834722 122.456317,16.2048611 122.059094,16.2048611" id="Fill-11" fill="#C2C2C2"></path>
                    <path d="M78,7.58051667 L78,14.0862944 C78,14.68285 77.5161111,15.1667389 76.9195556,15.1667389 L53.0804444,15.1667389 C52.4838889,15.1667389 52,14.68285 52,14.0862944 L52,7.58051667 C52,6.98396111 52.4838889,6.50007222 53.0804444,6.50007222 L76.9195556,6.50007222 C77.5161111,6.50007222 78,6.98396111 78,7.58051667" id="Fill-13" fill="#C2C2C2"></path>
                </g>
                <text id="Core-Servers" font-family="OpenSans-Regular, Open Sans" font-size="12" font-weight="normal" fill="#333333">
                    <tspan x="186" y="30">Core Servers</tspan>
                </text>
                <text id="Read-Replica" font-family="OpenSans-Regular, Open Sans" font-size="12" font-weight="normal" fill="#333333">
                    <tspan x="151" y="397">Read Replica</tspan>
                </text>
                <text id="Read-Replica" font-family="OpenSans-Regular, Open Sans" font-size="12" font-weight="normal" fill="#333333">
                    <tspan x="35" y="343">Read Replica</tspan>
                </text>
                <path d="M248.388889,378.666667 L125.611111,378.666667 C123.616333,378.666667 122,377.050333 122,375.055556 L122,360.611111 C122,358.616333 123.616333,357 125.611111,357 L248.388889,357 C250.383667,357 252,358.616333 252,360.611111 L252,375.055556 C252,377.050333 250.383667,378.666667 248.388889,378.666667" id="Fill-1" fill="#D6D6D6"></path>
                <path d="M136.444444,371.038194 C136.444444,372.035583 135.636278,372.84375 134.638889,372.84375 C133.6415,372.84375 132.833333,372.035583 132.833333,371.038194 C132.833333,370.040806 133.6415,369.232639 134.638889,369.232639 C135.636278,369.232639 136.444444,370.040806 136.444444,371.038194" id="Fill-3" fill="#F16667"></path>
                <path d="M136.444444,364.538194 C136.444444,365.535583 135.636278,366.34375 134.638889,366.34375 C133.6415,366.34375 132.833333,365.535583 132.833333,364.538194 C132.833333,363.540806 133.6415,362.732639 134.638889,362.732639 C135.636278,362.732639 136.444444,363.540806 136.444444,364.538194" id="Fill-5" fill="#8DCC93"></path>
                <path d="M229.611111,373.204861 L227.444444,373.204861 C227.045056,373.204861 226.722222,372.882028 226.722222,372.482639 L226.722222,363.09375 C226.722222,362.694361 227.045056,362.371528 227.444444,362.371528 L229.611111,362.371528 C230.0105,362.371528 230.333333,362.694361 230.333333,363.09375 L230.333333,372.482639 C230.333333,372.882028 230.0105,373.204861 229.611111,373.204861" id="Fill-7" fill="#C2C2C2"></path>
                <path d="M236.830517,373.204861 L234.669628,373.204861 C234.268794,373.204861 233.944517,372.880583 233.944517,372.47975 L233.944517,363.096639 C233.944517,362.695806 234.268794,362.371528 234.669628,362.371528 L236.830517,362.371528 C237.23135,362.371528 237.555628,362.695806 237.555628,363.096639 L237.555628,372.47975 C237.555628,372.880583 237.23135,373.204861 236.830517,373.204861" id="Fill-9" fill="#C2C2C2"></path>
                <path d="M244.059094,373.204861 L241.885206,373.204861 C241.487983,373.204861 241.166594,372.883472 241.166594,372.48625 L241.166594,363.090139 C241.166594,362.692917 241.487983,362.371528 241.885206,362.371528 L244.059094,362.371528 C244.456317,362.371528 244.777706,362.692917 244.777706,363.090139 L244.777706,372.48625 C244.777706,372.883472 244.456317,373.204861 244.059094,373.204861" id="Fill-11" fill="#C2C2C2"></path>
                <path d="M200,364.580517 L200,371.086294 C200,371.68285 199.516111,372.166739 198.919556,372.166739 L175.080444,372.166739 C174.483889,372.166739 174,371.68285 174,371.086294 L174,364.580517 C174,363.983961 174.483889,363.500072 175.080444,363.500072 L198.919556,363.500072 C199.516111,363.500072 200,363.983961 200,364.580517" id="Fill-13" fill="#C2C2C2"></path>
                <path d="M132.388889,324.666667 L9.61111111,324.666667 C7.61633333,324.666667 6,323.050333 6,321.055556 L6,306.611111 C6,304.616333 7.61633333,303 9.61111111,303 L132.388889,303 C134.383667,303 136,304.616333 136,306.611111 L136,321.055556 C136,323.050333 134.383667,324.666667 132.388889,324.666667" id="Fill-1" fill="#D6D6D6"></path>
                <path d="M20.4444444,317.038194 C20.4444444,318.035583 19.6362778,318.84375 18.6388889,318.84375 C17.6415,318.84375 16.8333333,318.035583 16.8333333,317.038194 C16.8333333,316.040806 17.6415,315.232639 18.6388889,315.232639 C19.6362778,315.232639 20.4444444,316.040806 20.4444444,317.038194" id="Fill-3" fill="#F16667"></path>
                <path d="M20.4444444,310.538194 C20.4444444,311.535583 19.6362778,312.34375 18.6388889,312.34375 C17.6415,312.34375 16.8333333,311.535583 16.8333333,310.538194 C16.8333333,309.540806 17.6415,308.732639 18.6388889,308.732639 C19.6362778,308.732639 20.4444444,309.540806 20.4444444,310.538194" id="Fill-5" fill="#8DCC93"></path>
                <path d="M113.611111,319.204861 L111.444444,319.204861 C111.045056,319.204861 110.722222,318.882028 110.722222,318.482639 L110.722222,309.09375 C110.722222,308.694361 111.045056,308.371528 111.444444,308.371528 L113.611111,308.371528 C114.0105,308.371528 114.333333,308.694361 114.333333,309.09375 L114.333333,318.482639 C114.333333,318.882028 114.0105,319.204861 113.611111,319.204861" id="Fill-7" fill="#C2C2C2"></path>
                <path d="M120.830517,319.204861 L118.669628,319.204861 C118.268794,319.204861 117.944517,318.880583 117.944517,318.47975 L117.944517,309.096639 C117.944517,308.695806 118.268794,308.371528 118.669628,308.371528 L120.830517,308.371528 C121.23135,308.371528 121.555628,308.695806 121.555628,309.096639 L121.555628,318.47975 C121.555628,318.880583 121.23135,319.204861 120.830517,319.204861" id="Fill-9" fill="#C2C2C2"></path>
                <path d="M128.059094,319.204861 L125.885206,319.204861 C125.487983,319.204861 125.166594,318.883472 125.166594,318.48625 L125.166594,309.090139 C125.166594,308.692917 125.487983,308.371528 125.885206,308.371528 L128.059094,308.371528 C128.456317,308.371528 128.777706,308.692917 128.777706,309.090139 L128.777706,318.48625 C128.777706,318.883472 128.456317,319.204861 128.059094,319.204861" id="Fill-11" fill="#C2C2C2"></path>
                <path d="M84,310.580517 L84,317.086294 C84,317.68285 83.5161111,318.166739 82.9195556,318.166739 L59.0804444,318.166739 C58.4838889,318.166739 58,317.68285 58,317.086294 L58,310.580517 C58,309.983961 58.4838889,309.500072 59.0804444,309.500072 L82.9195556,309.500072 C83.5161111,309.500072 84,309.983961 84,310.580517" id="Fill-13" fill="#C2C2C2"></path>
                <polyline id="Path-5" stroke="#979797" stroke-width="2" points="83 295.258569 128.713551 231 185.010347 350.316564"></polyline>
                <polygon id="Triangle-5" fill="#979797" transform="translate(81.570914, 297.570914) rotate(-145.000000) translate(-81.570914, -297.570914) " points="81.5709139 293.570914 85.5709139 301.570914 77.5709139 301.570914"></polygon>
                <polygon id="Triangle-5" fill="#979797" transform="translate(145.762266, 174.503564) rotate(-124.000000) translate(-145.762266, -174.503564) " points="145.762266 170.503564 149.762266 178.503564 141.762266 178.503564"></polygon>
                <polygon id="Triangle-5" fill="#979797" transform="translate(294.100146, 174.480167) scale(-1, 1) rotate(-124.000000) translate(-294.100146, -174.480167) " points="294.100146 170.480167 298.100146 178.480167 290.100146 178.480167"></polygon>
                <polygon id="Triangle-5" fill="#979797" transform="translate(185.884850, 351.705411) scale(-1, 1) rotate(-152.000000) translate(-185.884850, -351.705411) " points="185.88485 347.705411 189.88485 355.705411 181.88485 355.705411"></polygon>
                <text id="Read-Replica" font-family="OpenSans-Regular, Open Sans" font-size="12" font-weight="normal" fill="#333333">
                    <tspan x="326" y="397">Read Replica</tspan>
                </text>
                <text id="Read-Replica" font-family="OpenSans-Regular, Open Sans" font-size="12" font-weight="normal" fill="#333333">
                    <tspan x="210" y="343">Read Replica</tspan>
                </text>
                <path d="M423.388889,378.666667 L300.611111,378.666667 C298.616333,378.666667 297,377.050333 297,375.055556 L297,360.611111 C297,358.616333 298.616333,357 300.611111,357 L423.388889,357 C425.383667,357 427,358.616333 427,360.611111 L427,375.055556 C427,377.050333 425.383667,378.666667 423.388889,378.666667" id="Fill-1" fill="#D6D6D6"></path>
                <path d="M311.444444,371.038194 C311.444444,372.035583 310.636278,372.84375 309.638889,372.84375 C308.6415,372.84375 307.833333,372.035583 307.833333,371.038194 C307.833333,370.040806 308.6415,369.232639 309.638889,369.232639 C310.636278,369.232639 311.444444,370.040806 311.444444,371.038194" id="Fill-3" fill="#F16667"></path>
                <path d="M311.444444,364.538194 C311.444444,365.535583 310.636278,366.34375 309.638889,366.34375 C308.6415,366.34375 307.833333,365.535583 307.833333,364.538194 C307.833333,363.540806 308.6415,362.732639 309.638889,362.732639 C310.636278,362.732639 311.444444,363.540806 311.444444,364.538194" id="Fill-5" fill="#8DCC93"></path>
                <path d="M404.611111,373.204861 L402.444444,373.204861 C402.045056,373.204861 401.722222,372.882028 401.722222,372.482639 L401.722222,363.09375 C401.722222,362.694361 402.045056,362.371528 402.444444,362.371528 L404.611111,362.371528 C405.0105,362.371528 405.333333,362.694361 405.333333,363.09375 L405.333333,372.482639 C405.333333,372.882028 405.0105,373.204861 404.611111,373.204861" id="Fill-7" fill="#C2C2C2"></path>
                <path d="M411.830517,373.204861 L409.669628,373.204861 C409.268794,373.204861 408.944517,372.880583 408.944517,372.47975 L408.944517,363.096639 C408.944517,362.695806 409.268794,362.371528 409.669628,362.371528 L411.830517,362.371528 C412.23135,362.371528 412.555628,362.695806 412.555628,363.096639 L412.555628,372.47975 C412.555628,372.880583 412.23135,373.204861 411.830517,373.204861" id="Fill-9" fill="#C2C2C2"></path>
                <path d="M419.059094,373.204861 L416.885206,373.204861 C416.487983,373.204861 416.166594,372.883472 416.166594,372.48625 L416.166594,363.090139 C416.166594,362.692917 416.487983,362.371528 416.885206,362.371528 L419.059094,362.371528 C419.456317,362.371528 419.777706,362.692917 419.777706,363.090139 L419.777706,372.48625 C419.777706,372.883472 419.456317,373.204861 419.059094,373.204861" id="Fill-11" fill="#C2C2C2"></path>
                <path d="M375,364.580517 L375,371.086294 C375,371.68285 374.516111,372.166739 373.919556,372.166739 L350.080444,372.166739 C349.483889,372.166739 349,371.68285 349,371.086294 L349,364.580517 C349,363.983961 349.483889,363.500072 350.080444,363.500072 L373.919556,363.500072 C374.516111,363.500072 375,363.983961 375,364.580517" id="Fill-13" fill="#C2C2C2"></path>
                <path d="M307.388889,324.666667 L184.611111,324.666667 C182.616333,324.666667 181,323.050333 181,321.055556 L181,306.611111 C181,304.616333 182.616333,303 184.611111,303 L307.388889,303 C309.383667,303 311,304.616333 311,306.611111 L311,321.055556 C311,323.050333 309.383667,324.666667 307.388889,324.666667" id="Fill-1" fill="#D6D6D6"></path>
                <path d="M195.444444,317.038194 C195.444444,318.035583 194.636278,318.84375 193.638889,318.84375 C192.6415,318.84375 191.833333,318.035583 191.833333,317.038194 C191.833333,316.040806 192.6415,315.232639 193.638889,315.232639 C194.636278,315.232639 195.444444,316.040806 195.444444,317.038194" id="Fill-3" fill="#F16667"></path>
                <path d="M195.444444,310.538194 C195.444444,311.535583 194.636278,312.34375 193.638889,312.34375 C192.6415,312.34375 191.833333,311.535583 191.833333,310.538194 C191.833333,309.540806 192.6415,308.732639 193.638889,308.732639 C194.636278,308.732639 195.444444,309.540806 195.444444,310.538194" id="Fill-5" fill="#8DCC93"></path>
                <path d="M288.611111,319.204861 L286.444444,319.204861 C286.045056,319.204861 285.722222,318.882028 285.722222,318.482639 L285.722222,309.09375 C285.722222,308.694361 286.045056,308.371528 286.444444,308.371528 L288.611111,308.371528 C289.0105,308.371528 289.333333,308.694361 289.333333,309.09375 L289.333333,318.482639 C289.333333,318.882028 289.0105,319.204861 288.611111,319.204861" id="Fill-7" fill="#C2C2C2"></path>
                <path d="M295.830517,319.204861 L293.669628,319.204861 C293.268794,319.204861 292.944517,318.880583 292.944517,318.47975 L292.944517,309.096639 C292.944517,308.695806 293.268794,308.371528 293.669628,308.371528 L295.830517,308.371528 C296.23135,308.371528 296.555628,308.695806 296.555628,309.096639 L296.555628,318.47975 C296.555628,318.880583 296.23135,319.204861 295.830517,319.204861" id="Fill-9" fill="#C2C2C2"></path>
                <path d="M303.059094,319.204861 L300.885206,319.204861 C300.487983,319.204861 300.166594,318.883472 300.166594,318.48625 L300.166594,309.090139 C300.166594,308.692917 300.487983,308.371528 300.885206,308.371528 L303.059094,308.371528 C303.456317,308.371528 303.777706,308.692917 303.777706,309.090139 L303.777706,318.48625 C303.777706,318.883472 303.456317,319.204861 303.059094,319.204861" id="Fill-11" fill="#C2C2C2"></path>
                <path d="M259,310.580517 L259,317.086294 C259,317.68285 258.516111,318.166739 257.919556,318.166739 L234.080444,318.166739 C233.483889,318.166739 233,317.68285 233,317.086294 L233,310.580517 C233,309.983961 233.483889,309.500072 234.080444,309.500072 L257.919556,309.500072 C258.516111,309.500072 259,309.983961 259,310.580517" id="Fill-13" fill="#C2C2C2"></path>
                <polyline id="Path-5" stroke="#979797" stroke-width="2" points="258 295.258569 303.713551 231 360.010347 350.316564"></polyline>
                <polygon id="Triangle-5" fill="#979797" transform="translate(256.570914, 297.570914) rotate(-145.000000) translate(-256.570914, -297.570914) " points="256.570914 293.570914 260.570914 301.570914 252.570914 301.570914"></polygon>
                <polygon id="Triangle-5" fill="#979797" transform="translate(360.884850, 351.705411) scale(-1, 1) rotate(-152.000000) translate(-360.884850, -351.705411) " points="360.88485 347.705411 364.88485 355.705411 356.88485 355.705411"></polygon>
                <polyline id="Path-8" stroke="#979797" stroke-width="2" points="148.157905 173.021611 218.909335 128.310163 292.070854 173.021611"></polyline>
                <rect id="Rectangle-19" stroke="#DFDFDF" x="0.5" y="0.5" width="433" height="480"></rect>
            </g>
            <text id="Data-center-3" font-family="OpenSans-Regular, Open Sans" font-size="12" font-weight="normal" fill="#333333">
                <tspan x="437" y="971">Data center 3</tspan>
            </text>
            <rect id="Rectangle-20" stroke="#979797" x="5.5" y="5.5" width="919" height="988"></rect>
            <text id="Read-Replica" font-family="OpenSans-Regular, Open Sans" font-size="12" font-weight="normal" fill="#333333">
                <tspan x="341" y="723">Read Replica</tspan>
            </text>
            <g id="Group-32" transform="translate(312.000000, 683.000000)">
                <path d="M126.388889,21.6666667 L3.61111111,21.6666667 C1.61633333,21.6666667 0,20.0503333 0,18.0555556 L0,3.61111111 C0,1.61633333 1.61633333,0 3.61111111,0 L126.388889,0 C128.383667,0 130,1.61633333 130,3.61111111 L130,18.0555556 C130,20.0503333 128.383667,21.6666667 126.388889,21.6666667" id="Fill-1" fill="#D6D6D6"></path>
                <path d="M14.4444444,14.0381944 C14.4444444,15.0355833 13.6362778,15.84375 12.6388889,15.84375 C11.6415,15.84375 10.8333333,15.0355833 10.8333333,14.0381944 C10.8333333,13.0408056 11.6415,12.2326389 12.6388889,12.2326389 C13.6362778,12.2326389 14.4444444,13.0408056 14.4444444,14.0381944" id="Fill-3" fill="#F16667"></path>
                <path d="M14.4444444,7.53819444 C14.4444444,8.53558333 13.6362778,9.34375 12.6388889,9.34375 C11.6415,9.34375 10.8333333,8.53558333 10.8333333,7.53819444 C10.8333333,6.54080556 11.6415,5.73263889 12.6388889,5.73263889 C13.6362778,5.73263889 14.4444444,6.54080556 14.4444444,7.53819444" id="Fill-5" fill="#8DCC93"></path>
                <path d="M107.611111,16.2048611 L105.444444,16.2048611 C105.045056,16.2048611 104.722222,15.8820278 104.722222,15.4826389 L104.722222,6.09375 C104.722222,5.69436111 105.045056,5.37152778 105.444444,5.37152778 L107.611111,5.37152778 C108.0105,5.37152778 108.333333,5.69436111 108.333333,6.09375 L108.333333,15.4826389 C108.333333,15.8820278 108.0105,16.2048611 107.611111,16.2048611" id="Fill-7" fill="#C2C2C2"></path>
                <path d="M114.830517,16.2048611 L112.669628,16.2048611 C112.268794,16.2048611 111.944517,15.8805833 111.944517,15.47975 L111.944517,6.09663889 C111.944517,5.69580556 112.268794,5.37152778 112.669628,5.37152778 L114.830517,5.37152778 C115.23135,5.37152778 115.555628,5.69580556 115.555628,6.09663889 L115.555628,15.47975 C115.555628,15.8805833 115.23135,16.2048611 114.830517,16.2048611" id="Fill-9" fill="#C2C2C2"></path>
                <path d="M122.059094,16.2048611 L119.885206,16.2048611 C119.487983,16.2048611 119.166594,15.8834722 119.166594,15.48625 L119.166594,6.09013889 C119.166594,5.69291667 119.487983,5.37152778 119.885206,5.37152778 L122.059094,5.37152778 C122.456317,5.37152778 122.777706,5.69291667 122.777706,6.09013889 L122.777706,15.48625 C122.777706,15.8834722 122.456317,16.2048611 122.059094,16.2048611" id="Fill-11" fill="#C2C2C2"></path>
                <path d="M78,7.58051667 L78,14.0862944 C78,14.68285 77.5161111,15.1667389 76.9195556,15.1667389 L53.0804444,15.1667389 C52.4838889,15.1667389 52,14.68285 52,14.0862944 L52,7.58051667 C52,6.98396111 52.4838889,6.50007222 53.0804444,6.50007222 L76.9195556,6.50007222 C77.5161111,6.50007222 78,6.98396111 78,7.58051667" id="Fill-13" fill="#C2C2C2"></path>
            </g>
            <text id="Read-Replica" font-family="OpenSans-Regular, Open Sans" font-size="12" font-weight="normal" fill="#333333">
                <tspan x="517" y="723">Read Replica</tspan>
            </text>
            <g id="Group-32" transform="translate(488.000000, 683.000000)">
                <path d="M126.388889,21.6666667 L3.61111111,21.6666667 C1.61633333,21.6666667 0,20.0503333 0,18.0555556 L0,3.61111111 C0,1.61633333 1.61633333,0 3.61111111,0 L126.388889,0 C128.383667,0 130,1.61633333 130,3.61111111 L130,18.0555556 C130,20.0503333 128.383667,21.6666667 126.388889,21.6666667" id="Fill-1" fill="#D6D6D6"></path>
                <path d="M14.4444444,14.0381944 C14.4444444,15.0355833 13.6362778,15.84375 12.6388889,15.84375 C11.6415,15.84375 10.8333333,15.0355833 10.8333333,14.0381944 C10.8333333,13.0408056 11.6415,12.2326389 12.6388889,12.2326389 C13.6362778,12.2326389 14.4444444,13.0408056 14.4444444,14.0381944" id="Fill-3" fill="#F16667"></path>
                <path d="M14.4444444,7.53819444 C14.4444444,8.53558333 13.6362778,9.34375 12.6388889,9.34375 C11.6415,9.34375 10.8333333,8.53558333 10.8333333,7.53819444 C10.8333333,6.54080556 11.6415,5.73263889 12.6388889,5.73263889 C13.6362778,5.73263889 14.4444444,6.54080556 14.4444444,7.53819444" id="Fill-5" fill="#8DCC93"></path>
                <path d="M107.611111,16.2048611 L105.444444,16.2048611 C105.045056,16.2048611 104.722222,15.8820278 104.722222,15.4826389 L104.722222,6.09375 C104.722222,5.69436111 105.045056,5.37152778 105.444444,5.37152778 L107.611111,5.37152778 C108.0105,5.37152778 108.333333,5.69436111 108.333333,6.09375 L108.333333,15.4826389 C108.333333,15.8820278 108.0105,16.2048611 107.611111,16.2048611" id="Fill-7" fill="#C2C2C2"></path>
                <path d="M114.830517,16.2048611 L112.669628,16.2048611 C112.268794,16.2048611 111.944517,15.8805833 111.944517,15.47975 L111.944517,6.09663889 C111.944517,5.69580556 112.268794,5.37152778 112.669628,5.37152778 L114.830517,5.37152778 C115.23135,5.37152778 115.555628,5.69580556 115.555628,6.09663889 L115.555628,15.47975 C115.555628,15.8805833 115.23135,16.2048611 114.830517,16.2048611" id="Fill-9" fill="#C2C2C2"></path>
                <path d="M122.059094,16.2048611 L119.885206,16.2048611 C119.487983,16.2048611 119.166594,15.8834722 119.166594,15.48625 L119.166594,6.09013889 C119.166594,5.69291667 119.487983,5.37152778 119.885206,5.37152778 L122.059094,5.37152778 C122.456317,5.37152778 122.777706,5.69291667 122.777706,6.09013889 L122.777706,15.48625 C122.777706,15.8834722 122.456317,16.2048611 122.059094,16.2048611" id="Fill-11" fill="#C2C2C2"></path>
                <path d="M78,7.58051667 L78,14.0862944 C78,14.68285 77.5161111,15.1667389 76.9195556,15.1667389 L53.0804444,15.1667389 C52.4838889,15.1667389 52,14.68285 52,14.0862944 L52,7.58051667 C52,6.98396111 52.4838889,6.50007222 53.0804444,6.50007222 L76.9195556,6.50007222 C77.5161111,6.50007222 78,6.98396111 78,7.58051667" id="Fill-13" fill="#C2C2C2"></path>
            </g>
            <rect id="Rectangle-15" fill="#C2C2C2" x="417" y="596" width="100" height="9"></rect>
            <rect id="Rectangle-15" fill="#C2C2C2" x="417" y="566" width="100" height="9"></rect>
            <g id="Page-1-Copy-2" transform="translate(402.000000, 605.000000)">
                <path d="M126.388889,22 L3.61111111,22 C1.61633333,22 0,20.3588 0,18.3333333 L0,3.66666667 C0,1.6412 1.61633333,0 3.61111111,0 L126.388889,0 C128.383667,0 130,1.6412 130,3.66666667 L130,18.3333333 C130,20.3588 128.383667,22 126.388889,22" id="Fill-1" fill="#D6D6D6"></path>
                <path d="M14.4444444,14.2541667 C14.4444444,15.2669 13.6362778,16.0875 12.6388889,16.0875 C11.6415,16.0875 10.8333333,15.2669 10.8333333,14.2541667 C10.8333333,13.2414333 11.6415,12.4208333 12.6388889,12.4208333 C13.6362778,12.4208333 14.4444444,13.2414333 14.4444444,14.2541667" id="Fill-3" fill="#F16667"></path>
                <path d="M14.4444444,7.65416667 C14.4444444,8.6669 13.6362778,9.4875 12.6388889,9.4875 C11.6415,9.4875 10.8333333,8.6669 10.8333333,7.65416667 C10.8333333,6.64143333 11.6415,5.82083333 12.6388889,5.82083333 C13.6362778,5.82083333 14.4444444,6.64143333 14.4444444,7.65416667" id="Fill-5" fill="#8DCC93"></path>
                <path d="M107.611111,16.4541667 L105.444444,16.4541667 C105.045056,16.4541667 104.722222,16.1263667 104.722222,15.7208333 L104.722222,6.1875 C104.722222,5.78196667 105.045056,5.45416667 105.444444,5.45416667 L107.611111,5.45416667 C108.0105,5.45416667 108.333333,5.78196667 108.333333,6.1875 L108.333333,15.7208333 C108.333333,16.1263667 108.0105,16.4541667 107.611111,16.4541667" id="Fill-7" fill="#C2C2C2"></path>
                <path d="M114.830517,16.4541667 L112.669628,16.4541667 C112.268794,16.4541667 111.944517,16.1249 111.944517,15.7179 L111.944517,6.19043333 C111.944517,5.78343333 112.268794,5.45416667 112.669628,5.45416667 L114.830517,5.45416667 C115.23135,5.45416667 115.555628,5.78343333 115.555628,6.19043333 L115.555628,15.7179 C115.555628,16.1249 115.23135,16.4541667 114.830517,16.4541667" id="Fill-9" fill="#C2C2C2"></path>
                <path d="M122.059094,16.4541667 L119.885206,16.4541667 C119.487983,16.4541667 119.166594,16.1278333 119.166594,15.7245 L119.166594,6.18383333 C119.166594,5.7805 119.487983,5.45416667 119.885206,5.45416667 L122.059094,5.45416667 C122.456317,5.45416667 122.777706,5.7805 122.777706,6.18383333 L122.777706,15.7245 C122.777706,16.1278333 122.456317,16.4541667 122.059094,16.4541667" id="Fill-11" fill="#C2C2C2"></path>
                <path d="M78,7.69714 L78,14.3030067 C78,14.90874 77.5161111,15.4000733 76.9195556,15.4000733 L53.0804444,15.4000733 C52.4838889,15.4000733 52,14.90874 52,14.3030067 L52,7.69714 C52,7.09140667 52.4838889,6.60007333 53.0804444,6.60007333 L76.9195556,6.60007333 C77.5161111,6.60007333 78,7.09140667 78,7.69714" id="Fill-13" fill="#C2C2C2"></path>
            </g>
            <g id="Page-1-Copy-2" transform="translate(402.000000, 574.000000)">
                <path d="M126.388889,22 L3.61111111,22 C1.61633333,22 0,20.3588 0,18.3333333 L0,3.66666667 C0,1.6412 1.61633333,0 3.61111111,0 L126.388889,0 C128.383667,0 130,1.6412 130,3.66666667 L130,18.3333333 C130,20.3588 128.383667,22 126.388889,22" id="Fill-1" fill="#D6D6D6"></path>
                <path d="M14.4444444,14.2541667 C14.4444444,15.2669 13.6362778,16.0875 12.6388889,16.0875 C11.6415,16.0875 10.8333333,15.2669 10.8333333,14.2541667 C10.8333333,13.2414333 11.6415,12.4208333 12.6388889,12.4208333 C13.6362778,12.4208333 14.4444444,13.2414333 14.4444444,14.2541667" id="Fill-3" fill="#F16667"></path>
                <path d="M14.4444444,7.65416667 C14.4444444,8.6669 13.6362778,9.4875 12.6388889,9.4875 C11.6415,9.4875 10.8333333,8.6669 10.8333333,7.65416667 C10.8333333,6.64143333 11.6415,5.82083333 12.6388889,5.82083333 C13.6362778,5.82083333 14.4444444,6.64143333 14.4444444,7.65416667" id="Fill-5" fill="#8DCC93"></path>
                <path d="M107.611111,16.4541667 L105.444444,16.4541667 C105.045056,16.4541667 104.722222,16.1263667 104.722222,15.7208333 L104.722222,6.1875 C104.722222,5.78196667 105.045056,5.45416667 105.444444,5.45416667 L107.611111,5.45416667 C108.0105,5.45416667 108.333333,5.78196667 108.333333,6.1875 L108.333333,15.7208333 C108.333333,16.1263667 108.0105,16.4541667 107.611111,16.4541667" id="Fill-7" fill="#C2C2C2"></path>
                <path d="M114.830517,16.4541667 L112.669628,16.4541667 C112.268794,16.4541667 111.944517,16.1249 111.944517,15.7179 L111.944517,6.19043333 C111.944517,5.78343333 112.268794,5.45416667 112.669628,5.45416667 L114.830517,5.45416667 C115.23135,5.45416667 115.555628,5.78343333 115.555628,6.19043333 L115.555628,15.7179 C115.555628,16.1249 115.23135,16.4541667 114.830517,16.4541667" id="Fill-9" fill="#C2C2C2"></path>
                <path d="M122.059094,16.4541667 L119.885206,16.4541667 C119.487983,16.4541667 119.166594,16.1278333 119.166594,15.7245 L119.166594,6.18383333 C119.166594,5.7805 119.487983,5.45416667 119.885206,5.45416667 L122.059094,5.45416667 C122.456317,5.45416667 122.777706,5.7805 122.777706,6.18383333 L122.777706,15.7245 C122.777706,16.1278333 122.456317,16.4541667 122.059094,16.4541667" id="Fill-11" fill="#C2C2C2"></path>
                <path d="M78,7.69714 L78,14.3030067 C78,14.90874 77.5161111,15.4000733 76.9195556,15.4000733 L53.0804444,15.4000733 C52.4838889,15.4000733 52,14.90874 52,14.3030067 L52,7.69714 C52,7.09140667 52.4838889,6.60007333 53.0804444,6.60007333 L76.9195556,6.60007333 C77.5161111,6.60007333 78,7.09140667 78,7.69714" id="Fill-13" fill="#C2C2C2"></path>
            </g>
            <g id="Page-1-Copy-2" transform="translate(402.000000, 545.000000)">
                <path d="M126.388889,22 L3.61111111,22 C1.61633333,22 0,20.3588 0,18.3333333 L0,3.66666667 C0,1.6412 1.61633333,0 3.61111111,0 L126.388889,0 C128.383667,0 130,1.6412 130,3.66666667 L130,18.3333333 C130,20.3588 128.383667,22 126.388889,22" id="Fill-1" fill="#D6D6D6"></path>
                <path d="M14.4444444,14.2541667 C14.4444444,15.2669 13.6362778,16.0875 12.6388889,16.0875 C11.6415,16.0875 10.8333333,15.2669 10.8333333,14.2541667 C10.8333333,13.2414333 11.6415,12.4208333 12.6388889,12.4208333 C13.6362778,12.4208333 14.4444444,13.2414333 14.4444444,14.2541667" id="Fill-3" fill="#F16667"></path>
                <path d="M14.4444444,7.65416667 C14.4444444,8.6669 13.6362778,9.4875 12.6388889,9.4875 C11.6415,9.4875 10.8333333,8.6669 10.8333333,7.65416667 C10.8333333,6.64143333 11.6415,5.82083333 12.6388889,5.82083333 C13.6362778,5.82083333 14.4444444,6.64143333 14.4444444,7.65416667" id="Fill-5" fill="#8DCC93"></path>
                <path d="M107.611111,16.4541667 L105.444444,16.4541667 C105.045056,16.4541667 104.722222,16.1263667 104.722222,15.7208333 L104.722222,6.1875 C104.722222,5.78196667 105.045056,5.45416667 105.444444,5.45416667 L107.611111,5.45416667 C108.0105,5.45416667 108.333333,5.78196667 108.333333,6.1875 L108.333333,15.7208333 C108.333333,16.1263667 108.0105,16.4541667 107.611111,16.4541667" id="Fill-7" fill="#C2C2C2"></path>
                <path d="M114.830517,16.4541667 L112.669628,16.4541667 C112.268794,16.4541667 111.944517,16.1249 111.944517,15.7179 L111.944517,6.19043333 C111.944517,5.78343333 112.268794,5.45416667 112.669628,5.45416667 L114.830517,5.45416667 C115.23135,5.45416667 115.555628,5.78343333 115.555628,6.19043333 L115.555628,15.7179 C115.555628,16.1249 115.23135,16.4541667 114.830517,16.4541667" id="Fill-9" fill="#C2C2C2"></path>
                <path d="M122.059094,16.4541667 L119.885206,16.4541667 C119.487983,16.4541667 119.166594,16.1278333 119.166594,15.7245 L119.166594,6.18383333 C119.166594,5.7805 119.487983,5.45416667 119.885206,5.45416667 L122.059094,5.45416667 C122.456317,5.45416667 122.777706,5.7805 122.777706,6.18383333 L122.777706,15.7245 C122.777706,16.1278333 122.456317,16.4541667 122.059094,16.4541667" id="Fill-11" fill="#C2C2C2"></path>
                <path d="M78,7.69714 L78,14.3030067 C78,14.90874 77.5161111,15.4000733 76.9195556,15.4000733 L53.0804444,15.4000733 C52.4838889,15.4000733 52,14.90874 52,14.3030067 L52,7.69714 C52,7.09140667 52.4838889,6.60007333 53.0804444,6.60007333 L76.9195556,6.60007333 C77.5161111,6.60007333 78,7.09140667 78,7.69714" id="Fill-13" fill="#C2C2C2"></path>
            </g>
            <text id="Core-Servers" font-family="OpenSans-Regular, Open Sans" font-size="12" font-weight="normal" fill="#333333">
                <tspan x="434" y="532">Core Servers</tspan>
            </text>
            <text id="Read-Replica" font-family="OpenSans-Regular, Open Sans" font-size="12" font-weight="normal" fill="#333333">
                <tspan x="399" y="899">Read Replica</tspan>
            </text>
            <text id="Read-Replica" font-family="OpenSans-Regular, Open Sans" font-size="12" font-weight="normal" fill="#333333">
                <tspan x="283" y="845">Read Replica</tspan>
            </text>
            <path d="M496.388889,881 L373.611111,881 C371.616333,881 370,879.3588 370,877.333333 L370,862.666667 C370,860.6412 371.616333,859 373.611111,859 L496.388889,859 C498.383667,859 500,860.6412 500,862.666667 L500,877.333333 C500,879.3588 498.383667,881 496.388889,881" id="Fill-1" fill="#D6D6D6"></path>
            <path d="M385,873 C385,874.1048 384.1048,875 383,875 C381.8952,875 381,874.1048 381,873 C381,871.8952 381.8952,871 383,871 C384.1048,871 385,871.8952 385,873" id="Fill-3" fill="#F16667"></path>
            <path d="M385,867 C385,868.1048 384.1048,869 383,869 C381.8952,869 381,868.1048 381,867 C381,865.8952 381.8952,865 383,865 C384.1048,865 385,865.8952 385,867" id="Fill-5" fill="#8DCC93"></path>
            <path d="M478.2,875 L475.8,875 C475.3576,875 475,874.6722 475,874.266667 L475,864.733333 C475,864.3278 475.3576,864 475.8,864 L478.2,864 C478.6424,864 479,864.3278 479,864.733333 L479,874.266667 C479,874.6722 478.6424,875 478.2,875" id="Fill-7" fill="#C2C2C2"></path>
            <path d="M485.1968,875 L482.8032,875 C482.3592,875 482,874.670733 482,874.263733 L482,864.736267 C482,864.329267 482.3592,864 482.8032,864 L485.1968,864 C485.6408,864 486,864.329267 486,864.736267 L486,874.263733 C486,874.670733 485.6408,875 485.1968,875" id="Fill-9" fill="#C2C2C2"></path>
            <path d="M492.204,875 L489.796,875 C489.356,875 489,874.673667 489,874.270333 L489,864.729667 C489,864.326333 489.356,864 489.796,864 L492.204,864 C492.644,864 493,864.326333 493,864.729667 L493,874.270333 C493,874.673667 492.644,875 492.204,875" id="Fill-11" fill="#C2C2C2"></path>
            <path d="M448,867.122 L448,873.878 C448,874.4975 447.516111,875 446.919556,875 L423.080444,875 C422.483889,875 422,874.4975 422,873.878 L422,867.122 C422,866.5025 422.483889,866 423.080444,866 L446.919556,866 C447.516111,866 448,866.5025 448,867.122" id="Fill-13" fill="#C2C2C2"></path>
            <path d="M380.388889,827 L257.611111,827 C255.616333,827 254,825.3588 254,823.333333 L254,808.666667 C254,806.6412 255.616333,805 257.611111,805 L380.388889,805 C382.383667,805 384,806.6412 384,808.666667 L384,823.333333 C384,825.3588 382.383667,827 380.388889,827" id="Fill-1" fill="#D6D6D6"></path>
            <path d="M269,819 C269,820.1048 268.1048,821 267,821 C265.8952,821 265,820.1048 265,819 C265,817.8952 265.8952,817 267,817 C268.1048,817 269,817.8952 269,819" id="Fill-3" fill="#F16667"></path>
            <path d="M269,813 C269,814.1048 268.1048,815 267,815 C265.8952,815 265,814.1048 265,813 C265,811.8952 265.8952,811 267,811 C268.1048,811 269,811.8952 269,813" id="Fill-5" fill="#8DCC93"></path>
            <path d="M362.2,821 L359.8,821 C359.3576,821 359,820.6722 359,820.266667 L359,810.733333 C359,810.3278 359.3576,810 359.8,810 L362.2,810 C362.6424,810 363,810.3278 363,810.733333 L363,820.266667 C363,820.6722 362.6424,821 362.2,821" id="Fill-7" fill="#C2C2C2"></path>
            <path d="M369.1968,821 L366.8032,821 C366.3592,821 366,820.670733 366,820.263733 L366,810.736267 C366,810.329267 366.3592,810 366.8032,810 L369.1968,810 C369.6408,810 370,810.329267 370,810.736267 L370,820.263733 C370,820.670733 369.6408,821 369.1968,821" id="Fill-9" fill="#C2C2C2"></path>
            <path d="M376.204,821 L373.796,821 C373.356,821 373,820.673667 373,820.270333 L373,810.729667 C373,810.326333 373.356,810 373.796,810 L376.204,810 C376.644,810 377,810.326333 377,810.729667 L377,820.270333 C377,820.673667 376.644,821 376.204,821" id="Fill-11" fill="#C2C2C2"></path>
            <path d="M332,813.122 L332,819.878 C332,820.4975 331.516111,821 330.919556,821 L307.080444,821 C306.483889,821 306,820.4975 306,819.878 L306,813.122 C306,812.5025 306.483889,812 307.080444,812 L330.919556,812 C331.516111,812 332,812.5025 332,813.122" id="Fill-13" fill="#C2C2C2"></path>
            <polyline id="Path-5" stroke="#979797" stroke-width="2" points="331 797.088082 376.708914 733 433 852"></polyline>
            <polygon id="Triangle-5" fill="#979797" transform="translate(330.000000, 800.000000) rotate(-145.000000) translate(-330.000000, -800.000000) " points="330 796 334 804 326 804"></polygon>
            <polygon id="Triangle-5" fill="#979797" transform="translate(394.000000, 677.000000) rotate(-124.000000) translate(-394.000000, -677.000000) " points="394 673 398 681 390 681"></polygon>
            <polygon id="Triangle-5" fill="#979797" transform="translate(542.000000, 676.000000) scale(-1, 1) rotate(-124.000000) translate(-542.000000, -676.000000) " points="542 672 546 680 538 680"></polygon>
            <polygon id="Triangle-5" fill="#979797" transform="translate(434.000000, 854.000000) scale(-1, 1) rotate(-152.000000) translate(-434.000000, -854.000000) " points="434 850 438 858 430 858"></polygon>
            <text id="Read-Replica" font-family="OpenSans-Regular, Open Sans" font-size="12" font-weight="normal" fill="#333333">
                <tspan x="574" y="899">Read Replica</tspan>
            </text>
            <text id="Read-Replica" font-family="OpenSans-Regular, Open Sans" font-size="12" font-weight="normal" fill="#333333">
                <tspan x="458" y="845">Read Replica</tspan>
            </text>
            <path d="M671.388889,881 L548.611111,881 C546.616333,881 545,879.3588 545,877.333333 L545,862.666667 C545,860.6412 546.616333,859 548.611111,859 L671.388889,859 C673.383667,859 675,860.6412 675,862.666667 L675,877.333333 C675,879.3588 673.383667,881 671.388889,881" id="Fill-1" fill="#D6D6D6"></path>
            <path d="M560,873 C560,874.1048 559.1048,875 558,875 C556.8952,875 556,874.1048 556,873 C556,871.8952 556.8952,871 558,871 C559.1048,871 560,871.8952 560,873" id="Fill-3" fill="#F16667"></path>
            <path d="M560,867 C560,868.1048 559.1048,869 558,869 C556.8952,869 556,868.1048 556,867 C556,865.8952 556.8952,865 558,865 C559.1048,865 560,865.8952 560,867" id="Fill-5" fill="#8DCC93"></path>
            <path d="M653.2,875 L650.8,875 C650.3576,875 650,874.6722 650,874.266667 L650,864.733333 C650,864.3278 650.3576,864 650.8,864 L653.2,864 C653.6424,864 654,864.3278 654,864.733333 L654,874.266667 C654,874.6722 653.6424,875 653.2,875" id="Fill-7" fill="#C2C2C2"></path>
            <path d="M660.1968,875 L657.8032,875 C657.3592,875 657,874.670733 657,874.263733 L657,864.736267 C657,864.329267 657.3592,864 657.8032,864 L660.1968,864 C660.6408,864 661,864.329267 661,864.736267 L661,874.263733 C661,874.670733 660.6408,875 660.1968,875" id="Fill-9" fill="#C2C2C2"></path>
            <path d="M667.204,875 L664.796,875 C664.356,875 664,874.673667 664,874.270333 L664,864.729667 C664,864.326333 664.356,864 664.796,864 L667.204,864 C667.644,864 668,864.326333 668,864.729667 L668,874.270333 C668,874.673667 667.644,875 667.204,875" id="Fill-11" fill="#C2C2C2"></path>
            <path d="M623,867.122 L623,873.878 C623,874.4975 622.516111,875 621.919556,875 L598.080444,875 C597.483889,875 597,874.4975 597,873.878 L597,867.122 C597,866.5025 597.483889,866 598.080444,866 L621.919556,866 C622.516111,866 623,866.5025 623,867.122" id="Fill-13" fill="#C2C2C2"></path>
            <path d="M555.388889,827 L432.611111,827 C430.616333,827 429,825.3588 429,823.333333 L429,808.666667 C429,806.6412 430.616333,805 432.611111,805 L555.388889,805 C557.383667,805 559,806.6412 559,808.666667 L559,823.333333 C559,825.3588 557.383667,827 555.388889,827" id="Fill-1" fill="#D6D6D6"></path>
            <path d="M444,819 C444,820.1048 443.1048,821 442,821 C440.8952,821 440,820.1048 440,819 C440,817.8952 440.8952,817 442,817 C443.1048,817 444,817.8952 444,819" id="Fill-3" fill="#F16667"></path>
            <path d="M444,813 C444,814.1048 443.1048,815 442,815 C440.8952,815 440,814.1048 440,813 C440,811.8952 440.8952,811 442,811 C443.1048,811 444,811.8952 444,813" id="Fill-5" fill="#8DCC93"></path>
            <path d="M537.2,821 L534.8,821 C534.3576,821 534,820.6722 534,820.266667 L534,810.733333 C534,810.3278 534.3576,810 534.8,810 L537.2,810 C537.6424,810 538,810.3278 538,810.733333 L538,820.266667 C538,820.6722 537.6424,821 537.2,821" id="Fill-7" fill="#C2C2C2"></path>
            <path d="M544.1968,821 L541.8032,821 C541.3592,821 541,820.670733 541,820.263733 L541,810.736267 C541,810.329267 541.3592,810 541.8032,810 L544.1968,810 C544.6408,810 545,810.329267 545,810.736267 L545,820.263733 C545,820.670733 544.6408,821 544.1968,821" id="Fill-9" fill="#C2C2C2"></path>
            <path d="M551.204,821 L548.796,821 C548.356,821 548,820.673667 548,820.270333 L548,810.729667 C548,810.326333 548.356,810 548.796,810 L551.204,810 C551.644,810 552,810.326333 552,810.729667 L552,820.270333 C552,820.673667 551.644,821 551.204,821" id="Fill-11" fill="#C2C2C2"></path>
            <path d="M507,813.122 L507,819.878 C507,820.4975 506.516111,821 505.919556,821 L482.080444,821 C481.483889,821 481,820.4975 481,819.878 L481,813.122 C481,812.5025 481.483889,812 482.080444,812 L505.919556,812 C506.516111,812 507,812.5025 507,813.122" id="Fill-13" fill="#C2C2C2"></path>
            <polyline id="Path-5" stroke="#979797" stroke-width="2" points="506 797.088082 551.708914 733 608 852"></polyline>
            <polygon id="Triangle-5" fill="#979797" transform="translate(505.000000, 800.000000) rotate(-145.000000) translate(-505.000000, -800.000000) " points="505 796 509 804 501 804"></polygon>
            <polygon id="Triangle-5" fill="#979797" transform="translate(609.000000, 854.000000) scale(-1, 1) rotate(-152.000000) translate(-609.000000, -854.000000) " points="609 850 613 858 605 858"></polygon>
            <polyline id="Path-8" stroke="#979797" stroke-width="2" points="396 675 466.794226 630 540 675"></polyline>
            <rect id="Rectangle-19" stroke="#DFDFDF" x="248.5" y="502.5" width="433" height="480"></rect>
            <text id="Data-center-2" font-family="OpenSans-Regular, Open Sans" font-size="12" font-weight="normal" fill="#333333">
                <tspan x="646" y="478">Data center 2</tspan>
            </text>
            <text id="Read-Replica" font-family="OpenSans-Regular, Open Sans" font-size="12" font-weight="normal" fill="#333333">
                <tspan x="560" y="237">Read Replica</tspan>
            </text>
            <g id="Group-32" transform="translate(531.000000, 197.000000)">
                <path d="M126.388889,21.6666667 L3.61111111,21.6666667 C1.61633333,21.6666667 0,20.0503333 0,18.0555556 L0,3.61111111 C0,1.61633333 1.61633333,0 3.61111111,0 L126.388889,0 C128.383667,0 130,1.61633333 130,3.61111111 L130,18.0555556 C130,20.0503333 128.383667,21.6666667 126.388889,21.6666667" id="Fill-1" fill="#D6D6D6"></path>
                <path d="M14.4444444,14.0381944 C14.4444444,15.0355833 13.6362778,15.84375 12.6388889,15.84375 C11.6415,15.84375 10.8333333,15.0355833 10.8333333,14.0381944 C10.8333333,13.0408056 11.6415,12.2326389 12.6388889,12.2326389 C13.6362778,12.2326389 14.4444444,13.0408056 14.4444444,14.0381944" id="Fill-3" fill="#F16667"></path>
                <path d="M14.4444444,7.53819444 C14.4444444,8.53558333 13.6362778,9.34375 12.6388889,9.34375 C11.6415,9.34375 10.8333333,8.53558333 10.8333333,7.53819444 C10.8333333,6.54080556 11.6415,5.73263889 12.6388889,5.73263889 C13.6362778,5.73263889 14.4444444,6.54080556 14.4444444,7.53819444" id="Fill-5" fill="#8DCC93"></path>
                <path d="M107.611111,16.2048611 L105.444444,16.2048611 C105.045056,16.2048611 104.722222,15.8820278 104.722222,15.4826389 L104.722222,6.09375 C104.722222,5.69436111 105.045056,5.37152778 105.444444,5.37152778 L107.611111,5.37152778 C108.0105,5.37152778 108.333333,5.69436111 108.333333,6.09375 L108.333333,15.4826389 C108.333333,15.8820278 108.0105,16.2048611 107.611111,16.2048611" id="Fill-7" fill="#C2C2C2"></path>
                <path d="M114.830517,16.2048611 L112.669628,16.2048611 C112.268794,16.2048611 111.944517,15.8805833 111.944517,15.47975 L111.944517,6.09663889 C111.944517,5.69580556 112.268794,5.37152778 112.669628,5.37152778 L114.830517,5.37152778 C115.23135,5.37152778 115.555628,5.69580556 115.555628,6.09663889 L115.555628,15.47975 C115.555628,15.8805833 115.23135,16.2048611 114.830517,16.2048611" id="Fill-9" fill="#C2C2C2"></path>
                <path d="M122.059094,16.2048611 L119.885206,16.2048611 C119.487983,16.2048611 119.166594,15.8834722 119.166594,15.48625 L119.166594,6.09013889 C119.166594,5.69291667 119.487983,5.37152778 119.885206,5.37152778 L122.059094,5.37152778 C122.456317,5.37152778 122.777706,5.69291667 122.777706,6.09013889 L122.777706,15.48625 C122.777706,15.8834722 122.456317,16.2048611 122.059094,16.2048611" id="Fill-11" fill="#C2C2C2"></path>
                <path d="M78,7.58051667 L78,14.0862944 C78,14.68285 77.5161111,15.1667389 76.9195556,15.1667389 L53.0804444,15.1667389 C52.4838889,15.1667389 52,14.68285 52,14.0862944 L52,7.58051667 C52,6.98396111 52.4838889,6.50007222 53.0804444,6.50007222 L76.9195556,6.50007222 C77.5161111,6.50007222 78,6.98396111 78,7.58051667" id="Fill-13" fill="#C2C2C2"></path>
            </g>
            <text id="Read-Replica" font-family="OpenSans-Regular, Open Sans" font-size="12" font-weight="normal" fill="#333333">
                <tspan x="736" y="237">Read Replica</tspan>
            </text>
            <g id="Group-32" transform="translate(707.000000, 197.000000)">
                <path d="M126.388889,21.6666667 L3.61111111,21.6666667 C1.61633333,21.6666667 0,20.0503333 0,18.0555556 L0,3.61111111 C0,1.61633333 1.61633333,0 3.61111111,0 L126.388889,0 C128.383667,0 130,1.61633333 130,3.61111111 L130,18.0555556 C130,20.0503333 128.383667,21.6666667 126.388889,21.6666667" id="Fill-1" fill="#D6D6D6"></path>
                <path d="M14.4444444,14.0381944 C14.4444444,15.0355833 13.6362778,15.84375 12.6388889,15.84375 C11.6415,15.84375 10.8333333,15.0355833 10.8333333,14.0381944 C10.8333333,13.0408056 11.6415,12.2326389 12.6388889,12.2326389 C13.6362778,12.2326389 14.4444444,13.0408056 14.4444444,14.0381944" id="Fill-3" fill="#F16667"></path>
                <path d="M14.4444444,7.53819444 C14.4444444,8.53558333 13.6362778,9.34375 12.6388889,9.34375 C11.6415,9.34375 10.8333333,8.53558333 10.8333333,7.53819444 C10.8333333,6.54080556 11.6415,5.73263889 12.6388889,5.73263889 C13.6362778,5.73263889 14.4444444,6.54080556 14.4444444,7.53819444" id="Fill-5" fill="#8DCC93"></path>
                <path d="M107.611111,16.2048611 L105.444444,16.2048611 C105.045056,16.2048611 104.722222,15.8820278 104.722222,15.4826389 L104.722222,6.09375 C104.722222,5.69436111 105.045056,5.37152778 105.444444,5.37152778 L107.611111,5.37152778 C108.0105,5.37152778 108.333333,5.69436111 108.333333,6.09375 L108.333333,15.4826389 C108.333333,15.8820278 108.0105,16.2048611 107.611111,16.2048611" id="Fill-7" fill="#C2C2C2"></path>
                <path d="M114.830517,16.2048611 L112.669628,16.2048611 C112.268794,16.2048611 111.944517,15.8805833 111.944517,15.47975 L111.944517,6.09663889 C111.944517,5.69580556 112.268794,5.37152778 112.669628,5.37152778 L114.830517,5.37152778 C115.23135,5.37152778 115.555628,5.69580556 115.555628,6.09663889 L115.555628,15.47975 C115.555628,15.8805833 115.23135,16.2048611 114.830517,16.2048611" id="Fill-9" fill="#C2C2C2"></path>
                <path d="M122.059094,16.2048611 L119.885206,16.2048611 C119.487983,16.2048611 119.166594,15.8834722 119.166594,15.48625 L119.166594,6.09013889 C119.166594,5.69291667 119.487983,5.37152778 119.885206,5.37152778 L122.059094,5.37152778 C122.456317,5.37152778 122.777706,5.69291667 122.777706,6.09013889 L122.777706,15.48625 C122.777706,15.8834722 122.456317,16.2048611 122.059094,16.2048611" id="Fill-11" fill="#C2C2C2"></path>
                <path d="M78,7.58051667 L78,14.0862944 C78,14.68285 77.5161111,15.1667389 76.9195556,15.1667389 L53.0804444,15.1667389 C52.4838889,15.1667389 52,14.68285 52,14.0862944 L52,7.58051667 C52,6.98396111 52.4838889,6.50007222 53.0804444,6.50007222 L76.9195556,6.50007222 C77.5161111,6.50007222 78,6.98396111 78,7.58051667" id="Fill-13" fill="#C2C2C2"></path>
            </g>
            <rect id="Rectangle-15" fill="#C2C2C2" x="636" y="110" width="100" height="9"></rect>
            <rect id="Rectangle-15" fill="#C2C2C2" x="636" y="80" width="100" height="9"></rect>
            <g id="Page-1-Copy-2" transform="translate(621.000000, 119.000000)">
                <path d="M126.388889,22 L3.61111111,22 C1.61633333,22 0,20.3588 0,18.3333333 L0,3.66666667 C0,1.6412 1.61633333,0 3.61111111,0 L126.388889,0 C128.383667,0 130,1.6412 130,3.66666667 L130,18.3333333 C130,20.3588 128.383667,22 126.388889,22" id="Fill-1" fill="#D6D6D6"></path>
                <path d="M14.4444444,14.2541667 C14.4444444,15.2669 13.6362778,16.0875 12.6388889,16.0875 C11.6415,16.0875 10.8333333,15.2669 10.8333333,14.2541667 C10.8333333,13.2414333 11.6415,12.4208333 12.6388889,12.4208333 C13.6362778,12.4208333 14.4444444,13.2414333 14.4444444,14.2541667" id="Fill-3" fill="#F16667"></path>
                <path d="M14.4444444,7.65416667 C14.4444444,8.6669 13.6362778,9.4875 12.6388889,9.4875 C11.6415,9.4875 10.8333333,8.6669 10.8333333,7.65416667 C10.8333333,6.64143333 11.6415,5.82083333 12.6388889,5.82083333 C13.6362778,5.82083333 14.4444444,6.64143333 14.4444444,7.65416667" id="Fill-5" fill="#8DCC93"></path>
                <path d="M107.611111,16.4541667 L105.444444,16.4541667 C105.045056,16.4541667 104.722222,16.1263667 104.722222,15.7208333 L104.722222,6.1875 C104.722222,5.78196667 105.045056,5.45416667 105.444444,5.45416667 L107.611111,5.45416667 C108.0105,5.45416667 108.333333,5.78196667 108.333333,6.1875 L108.333333,15.7208333 C108.333333,16.1263667 108.0105,16.4541667 107.611111,16.4541667" id="Fill-7" fill="#C2C2C2"></path>
                <path d="M114.830517,16.4541667 L112.669628,16.4541667 C112.268794,16.4541667 111.944517,16.1249 111.944517,15.7179 L111.944517,6.19043333 C111.944517,5.78343333 112.268794,5.45416667 112.669628,5.45416667 L114.830517,5.45416667 C115.23135,5.45416667 115.555628,5.78343333 115.555628,6.19043333 L115.555628,15.7179 C115.555628,16.1249 115.23135,16.4541667 114.830517,16.4541667" id="Fill-9" fill="#C2C2C2"></path>
                <path d="M122.059094,16.4541667 L119.885206,16.4541667 C119.487983,16.4541667 119.166594,16.1278333 119.166594,15.7245 L119.166594,6.18383333 C119.166594,5.7805 119.487983,5.45416667 119.885206,5.45416667 L122.059094,5.45416667 C122.456317,5.45416667 122.777706,5.7805 122.777706,6.18383333 L122.777706,15.7245 C122.777706,16.1278333 122.456317,16.4541667 122.059094,16.4541667" id="Fill-11" fill="#C2C2C2"></path>
                <path d="M78,7.69714 L78,14.3030067 C78,14.90874 77.5161111,15.4000733 76.9195556,15.4000733 L53.0804444,15.4000733 C52.4838889,15.4000733 52,14.90874 52,14.3030067 L52,7.69714 C52,7.09140667 52.4838889,6.60007333 53.0804444,6.60007333 L76.9195556,6.60007333 C77.5161111,6.60007333 78,7.09140667 78,7.69714" id="Fill-13" fill="#C2C2C2"></path>
            </g>
            <g id="Page-1-Copy-2" transform="translate(621.000000, 88.000000)">
                <path d="M126.388889,22 L3.61111111,22 C1.61633333,22 0,20.3588 0,18.3333333 L0,3.66666667 C0,1.6412 1.61633333,0 3.61111111,0 L126.388889,0 C128.383667,0 130,1.6412 130,3.66666667 L130,18.3333333 C130,20.3588 128.383667,22 126.388889,22" id="Fill-1" fill="#D6D6D6"></path>
                <path d="M14.4444444,14.2541667 C14.4444444,15.2669 13.6362778,16.0875 12.6388889,16.0875 C11.6415,16.0875 10.8333333,15.2669 10.8333333,14.2541667 C10.8333333,13.2414333 11.6415,12.4208333 12.6388889,12.4208333 C13.6362778,12.4208333 14.4444444,13.2414333 14.4444444,14.2541667" id="Fill-3" fill="#F16667"></path>
                <path d="M14.4444444,7.65416667 C14.4444444,8.6669 13.6362778,9.4875 12.6388889,9.4875 C11.6415,9.4875 10.8333333,8.6669 10.8333333,7.65416667 C10.8333333,6.64143333 11.6415,5.82083333 12.6388889,5.82083333 C13.6362778,5.82083333 14.4444444,6.64143333 14.4444444,7.65416667" id="Fill-5" fill="#8DCC93"></path>
                <path d="M107.611111,16.4541667 L105.444444,16.4541667 C105.045056,16.4541667 104.722222,16.1263667 104.722222,15.7208333 L104.722222,6.1875 C104.722222,5.78196667 105.045056,5.45416667 105.444444,5.45416667 L107.611111,5.45416667 C108.0105,5.45416667 108.333333,5.78196667 108.333333,6.1875 L108.333333,15.7208333 C108.333333,16.1263667 108.0105,16.4541667 107.611111,16.4541667" id="Fill-7" fill="#C2C2C2"></path>
                <path d="M114.830517,16.4541667 L112.669628,16.4541667 C112.268794,16.4541667 111.944517,16.1249 111.944517,15.7179 L111.944517,6.19043333 C111.944517,5.78343333 112.268794,5.45416667 112.669628,5.45416667 L114.830517,5.45416667 C115.23135,5.45416667 115.555628,5.78343333 115.555628,6.19043333 L115.555628,15.7179 C115.555628,16.1249 115.23135,16.4541667 114.830517,16.4541667" id="Fill-9" fill="#C2C2C2"></path>
                <path d="M122.059094,16.4541667 L119.885206,16.4541667 C119.487983,16.4541667 119.166594,16.1278333 119.166594,15.7245 L119.166594,6.18383333 C119.166594,5.7805 119.487983,5.45416667 119.885206,5.45416667 L122.059094,5.45416667 C122.456317,5.45416667 122.777706,5.7805 122.777706,6.18383333 L122.777706,15.7245 C122.777706,16.1278333 122.456317,16.4541667 122.059094,16.4541667" id="Fill-11" fill="#C2C2C2"></path>
                <path d="M78,7.69714 L78,14.3030067 C78,14.90874 77.5161111,15.4000733 76.9195556,15.4000733 L53.0804444,15.4000733 C52.4838889,15.4000733 52,14.90874 52,14.3030067 L52,7.69714 C52,7.09140667 52.4838889,6.60007333 53.0804444,6.60007333 L76.9195556,6.60007333 C77.5161111,6.60007333 78,7.09140667 78,7.69714" id="Fill-13" fill="#C2C2C2"></path>
            </g>
            <g id="Page-1-Copy-2" transform="translate(621.000000, 59.000000)">
                <path d="M126.388889,22 L3.61111111,22 C1.61633333,22 0,20.3588 0,18.3333333 L0,3.66666667 C0,1.6412 1.61633333,0 3.61111111,0 L126.388889,0 C128.383667,0 130,1.6412 130,3.66666667 L130,18.3333333 C130,20.3588 128.383667,22 126.388889,22" id="Fill-1" fill="#D6D6D6"></path>
                <path d="M14.4444444,14.2541667 C14.4444444,15.2669 13.6362778,16.0875 12.6388889,16.0875 C11.6415,16.0875 10.8333333,15.2669 10.8333333,14.2541667 C10.8333333,13.2414333 11.6415,12.4208333 12.6388889,12.4208333 C13.6362778,12.4208333 14.4444444,13.2414333 14.4444444,14.2541667" id="Fill-3" fill="#F16667"></path>
                <path d="M14.4444444,7.65416667 C14.4444444,8.6669 13.6362778,9.4875 12.6388889,9.4875 C11.6415,9.4875 10.8333333,8.6669 10.8333333,7.65416667 C10.8333333,6.64143333 11.6415,5.82083333 12.6388889,5.82083333 C13.6362778,5.82083333 14.4444444,6.64143333 14.4444444,7.65416667" id="Fill-5" fill="#8DCC93"></path>
                <path d="M107.611111,16.4541667 L105.444444,16.4541667 C105.045056,16.4541667 104.722222,16.1263667 104.722222,15.7208333 L104.722222,6.1875 C104.722222,5.78196667 105.045056,5.45416667 105.444444,5.45416667 L107.611111,5.45416667 C108.0105,5.45416667 108.333333,5.78196667 108.333333,6.1875 L108.333333,15.7208333 C108.333333,16.1263667 108.0105,16.4541667 107.611111,16.4541667" id="Fill-7" fill="#C2C2C2"></path>
                <path d="M114.830517,16.4541667 L112.669628,16.4541667 C112.268794,16.4541667 111.944517,16.1249 111.944517,15.7179 L111.944517,6.19043333 C111.944517,5.78343333 112.268794,5.45416667 112.669628,5.45416667 L114.830517,5.45416667 C115.23135,5.45416667 115.555628,5.78343333 115.555628,6.19043333 L115.555628,15.7179 C115.555628,16.1249 115.23135,16.4541667 114.830517,16.4541667" id="Fill-9" fill="#C2C2C2"></path>
                <path d="M122.059094,16.4541667 L119.885206,16.4541667 C119.487983,16.4541667 119.166594,16.1278333 119.166594,15.7245 L119.166594,6.18383333 C119.166594,5.7805 119.487983,5.45416667 119.885206,5.45416667 L122.059094,5.45416667 C122.456317,5.45416667 122.777706,5.7805 122.777706,6.18383333 L122.777706,15.7245 C122.777706,16.1278333 122.456317,16.4541667 122.059094,16.4541667" id="Fill-11" fill="#C2C2C2"></path>
                <path d="M78,7.69714 L78,14.3030067 C78,14.90874 77.5161111,15.4000733 76.9195556,15.4000733 L53.0804444,15.4000733 C52.4838889,15.4000733 52,14.90874 52,14.3030067 L52,7.69714 C52,7.09140667 52.4838889,6.60007333 53.0804444,6.60007333 L76.9195556,6.60007333 C77.5161111,6.60007333 78,7.09140667 78,7.69714" id="Fill-13" fill="#C2C2C2"></path>
            </g>
            <text id="Core-Servers" font-family="OpenSans-Regular, Open Sans" font-size="12" font-weight="normal" fill="#333333">
                <tspan x="653" y="46">Core Servers</tspan>
            </text>
            <text id="Read-Replica" font-family="OpenSans-Regular, Open Sans" font-size="12" font-weight="normal" fill="#333333">
                <tspan x="618" y="413">Read Replica</tspan>
            </text>
            <text id="Read-Replica" font-family="OpenSans-Regular, Open Sans" font-size="12" font-weight="normal" fill="#333333">
                <tspan x="502" y="359">Read Replica</tspan>
            </text>
            <path d="M715.388889,395 L592.611111,395 C590.616333,395 589,393.3588 589,391.333333 L589,376.666667 C589,374.6412 590.616333,373 592.611111,373 L715.388889,373 C717.383667,373 719,374.6412 719,376.666667 L719,391.333333 C719,393.3588 717.383667,395 715.388889,395" id="Fill-1" fill="#D6D6D6"></path>
            <path d="M604,387 C604,388.1048 603.1048,389 602,389 C600.8952,389 600,388.1048 600,387 C600,385.8952 600.8952,385 602,385 C603.1048,385 604,385.8952 604,387" id="Fill-3" fill="#F16667"></path>
            <path d="M604,381 C604,382.1048 603.1048,383 602,383 C600.8952,383 600,382.1048 600,381 C600,379.8952 600.8952,379 602,379 C603.1048,379 604,379.8952 604,381" id="Fill-5" fill="#8DCC93"></path>
            <path d="M697.2,389 L694.8,389 C694.3576,389 694,388.6722 694,388.266667 L694,378.733333 C694,378.3278 694.3576,378 694.8,378 L697.2,378 C697.6424,378 698,378.3278 698,378.733333 L698,388.266667 C698,388.6722 697.6424,389 697.2,389" id="Fill-7" fill="#C2C2C2"></path>
            <path d="M704.1968,389 L701.8032,389 C701.3592,389 701,388.670733 701,388.263733 L701,378.736267 C701,378.329267 701.3592,378 701.8032,378 L704.1968,378 C704.6408,378 705,378.329267 705,378.736267 L705,388.263733 C705,388.670733 704.6408,389 704.1968,389" id="Fill-9" fill="#C2C2C2"></path>
            <path d="M711.204,389 L708.796,389 C708.356,389 708,388.673667 708,388.270333 L708,378.729667 C708,378.326333 708.356,378 708.796,378 L711.204,378 C711.644,378 712,378.326333 712,378.729667 L712,388.270333 C712,388.673667 711.644,389 711.204,389" id="Fill-11" fill="#C2C2C2"></path>
            <path d="M667,381.122 L667,387.878 C667,388.4975 666.516111,389 665.919556,389 L642.080444,389 C641.483889,389 641,388.4975 641,387.878 L641,381.122 C641,380.5025 641.483889,380 642.080444,380 L665.919556,380 C666.516111,380 667,380.5025 667,381.122" id="Fill-13" fill="#C2C2C2"></path>
            <path d="M599.388889,341 L476.611111,341 C474.616333,341 473,339.3588 473,337.333333 L473,322.666667 C473,320.6412 474.616333,319 476.611111,319 L599.388889,319 C601.383667,319 603,320.6412 603,322.666667 L603,337.333333 C603,339.3588 601.383667,341 599.388889,341" id="Fill-1" fill="#D6D6D6"></path>
            <path d="M488,333 C488,334.1048 487.1048,335 486,335 C484.8952,335 484,334.1048 484,333 C484,331.8952 484.8952,331 486,331 C487.1048,331 488,331.8952 488,333" id="Fill-3" fill="#F16667"></path>
            <path d="M488,327 C488,328.1048 487.1048,329 486,329 C484.8952,329 484,328.1048 484,327 C484,325.8952 484.8952,325 486,325 C487.1048,325 488,325.8952 488,327" id="Fill-5" fill="#8DCC93"></path>
            <path d="M581.2,335 L578.8,335 C578.3576,335 578,334.6722 578,334.266667 L578,324.733333 C578,324.3278 578.3576,324 578.8,324 L581.2,324 C581.6424,324 582,324.3278 582,324.733333 L582,334.266667 C582,334.6722 581.6424,335 581.2,335" id="Fill-7" fill="#C2C2C2"></path>
            <path d="M588.1968,335 L585.8032,335 C585.3592,335 585,334.670733 585,334.263733 L585,324.736267 C585,324.329267 585.3592,324 585.8032,324 L588.1968,324 C588.6408,324 589,324.329267 589,324.736267 L589,334.263733 C589,334.670733 588.6408,335 588.1968,335" id="Fill-9" fill="#C2C2C2"></path>
            <path d="M595.204,335 L592.796,335 C592.356,335 592,334.673667 592,334.270333 L592,324.729667 C592,324.326333 592.356,324 592.796,324 L595.204,324 C595.644,324 596,324.326333 596,324.729667 L596,334.270333 C596,334.673667 595.644,335 595.204,335" id="Fill-11" fill="#C2C2C2"></path>
            <path d="M551,327.122 L551,333.878 C551,334.4975 550.516111,335 549.919556,335 L526.080444,335 C525.483889,335 525,334.4975 525,333.878 L525,327.122 C525,326.5025 525.483889,326 526.080444,326 L549.919556,326 C550.516111,326 551,326.5025 551,327.122" id="Fill-13" fill="#C2C2C2"></path>
            <polyline id="Path-5" stroke="#979797" stroke-width="2" points="550 311.088082 595.708914 247 652 366"></polyline>
            <polygon id="Triangle-5" fill="#979797" transform="translate(549.000000, 314.000000) rotate(-145.000000) translate(-549.000000, -314.000000) " points="549 310 553 318 545 318"></polygon>
            <polygon id="Triangle-5" fill="#979797" transform="translate(613.000000, 191.000000) rotate(-124.000000) translate(-613.000000, -191.000000) " points="613 187 617 195 609 195"></polygon>
            <polygon id="Triangle-5" fill="#979797" points="314 99.5005657 322 95.5005657 322 103.500566"></polygon>
            <polygon id="Triangle-5" fill="#979797" points="618.543722 99.5020048 610.543722 95.5020048 610.543722 103.502005"></polygon>
            <polygon id="Triangle-5" fill="#979797" transform="translate(761.000000, 190.000000) scale(-1, 1) rotate(-124.000000) translate(-761.000000, -190.000000) " points="761 186 765 194 757 194"></polygon>
            <polygon id="Triangle-5" fill="#979797" transform="translate(653.000000, 368.000000) scale(-1, 1) rotate(-152.000000) translate(-653.000000, -368.000000) " points="653 364 657 372 649 372"></polygon>
            <text id="Read-Replica" font-family="OpenSans-Regular, Open Sans" font-size="12" font-weight="normal" fill="#333333">
                <tspan x="793" y="413">Read Replica</tspan>
            </text>
            <text id="Read-Replica" font-family="OpenSans-Regular, Open Sans" font-size="12" font-weight="normal" fill="#333333">
                <tspan x="677" y="359">Read Replica</tspan>
            </text>
            <path d="M890.388889,395 L767.611111,395 C765.616333,395 764,393.3588 764,391.333333 L764,376.666667 C764,374.6412 765.616333,373 767.611111,373 L890.388889,373 C892.383667,373 894,374.6412 894,376.666667 L894,391.333333 C894,393.3588 892.383667,395 890.388889,395" id="Fill-1" fill="#D6D6D6"></path>
            <path d="M779,387 C779,388.1048 778.1048,389 777,389 C775.8952,389 775,388.1048 775,387 C775,385.8952 775.8952,385 777,385 C778.1048,385 779,385.8952 779,387" id="Fill-3" fill="#F16667"></path>
            <path d="M779,381 C779,382.1048 778.1048,383 777,383 C775.8952,383 775,382.1048 775,381 C775,379.8952 775.8952,379 777,379 C778.1048,379 779,379.8952 779,381" id="Fill-5" fill="#8DCC93"></path>
            <path d="M872.2,389 L869.8,389 C869.3576,389 869,388.6722 869,388.266667 L869,378.733333 C869,378.3278 869.3576,378 869.8,378 L872.2,378 C872.6424,378 873,378.3278 873,378.733333 L873,388.266667 C873,388.6722 872.6424,389 872.2,389" id="Fill-7" fill="#C2C2C2"></path>
            <path d="M879.1968,389 L876.8032,389 C876.3592,389 876,388.670733 876,388.263733 L876,378.736267 C876,378.329267 876.3592,378 876.8032,378 L879.1968,378 C879.6408,378 880,378.329267 880,378.736267 L880,388.263733 C880,388.670733 879.6408,389 879.1968,389" id="Fill-9" fill="#C2C2C2"></path>
            <path d="M886.204,389 L883.796,389 C883.356,389 883,388.673667 883,388.270333 L883,378.729667 C883,378.326333 883.356,378 883.796,378 L886.204,378 C886.644,378 887,378.326333 887,378.729667 L887,388.270333 C887,388.673667 886.644,389 886.204,389" id="Fill-11" fill="#C2C2C2"></path>
            <path d="M842,381.122 L842,387.878 C842,388.4975 841.516111,389 840.919556,389 L817.080444,389 C816.483889,389 816,388.4975 816,387.878 L816,381.122 C816,380.5025 816.483889,380 817.080444,380 L840.919556,380 C841.516111,380 842,380.5025 842,381.122" id="Fill-13" fill="#C2C2C2"></path>
            <path d="M774.388889,341 L651.611111,341 C649.616333,341 648,339.3588 648,337.333333 L648,322.666667 C648,320.6412 649.616333,319 651.611111,319 L774.388889,319 C776.383667,319 778,320.6412 778,322.666667 L778,337.333333 C778,339.3588 776.383667,341 774.388889,341" id="Fill-1" fill="#D6D6D6"></path>
            <path d="M663,333 C663,334.1048 662.1048,335 661,335 C659.8952,335 659,334.1048 659,333 C659,331.8952 659.8952,331 661,331 C662.1048,331 663,331.8952 663,333" id="Fill-3" fill="#F16667"></path>
            <path d="M663,327 C663,328.1048 662.1048,329 661,329 C659.8952,329 659,328.1048 659,327 C659,325.8952 659.8952,325 661,325 C662.1048,325 663,325.8952 663,327" id="Fill-5" fill="#8DCC93"></path>
            <path d="M756.2,335 L753.8,335 C753.3576,335 753,334.6722 753,334.266667 L753,324.733333 C753,324.3278 753.3576,324 753.8,324 L756.2,324 C756.6424,324 757,324.3278 757,324.733333 L757,334.266667 C757,334.6722 756.6424,335 756.2,335" id="Fill-7" fill="#C2C2C2"></path>
            <path d="M763.1968,335 L760.8032,335 C760.3592,335 760,334.670733 760,334.263733 L760,324.736267 C760,324.329267 760.3592,324 760.8032,324 L763.1968,324 C763.6408,324 764,324.329267 764,324.736267 L764,334.263733 C764,334.670733 763.6408,335 763.1968,335" id="Fill-9" fill="#C2C2C2"></path>
            <path d="M770.204,335 L767.796,335 C767.356,335 767,334.673667 767,334.270333 L767,324.729667 C767,324.326333 767.356,324 767.796,324 L770.204,324 C770.644,324 771,324.326333 771,324.729667 L771,334.270333 C771,334.673667 770.644,335 770.204,335" id="Fill-11" fill="#C2C2C2"></path>
            <path d="M726,327.122 L726,333.878 C726,334.4975 725.516111,335 724.919556,335 L701.080444,335 C700.483889,335 700,334.4975 700,333.878 L700,327.122 C700,326.5025 700.483889,326 701.080444,326 L724.919556,326 C725.516111,326 726,326.5025 726,327.122" id="Fill-13" fill="#C2C2C2"></path>
            <polyline id="Path-5" stroke="#979797" stroke-width="2" points="725 311.088082 770.708914 247 827 366"></polyline>
            <polygon id="Triangle-5" fill="#979797" transform="translate(724.000000, 314.000000) rotate(-145.000000) translate(-724.000000, -314.000000) " points="724 310 728 318 720 318"></polygon>
            <polygon id="Triangle-5" fill="#979797" transform="translate(828.000000, 368.000000) scale(-1, 1) rotate(-152.000000) translate(-828.000000, -368.000000) " points="828 364 832 372 824 372"></polygon>
            <polyline id="Path-8" stroke="#979797" stroke-width="2" points="615 189 685.794226 144 759 189"></polyline>
            <rect id="Rectangle-19" stroke="#DFDFDF" x="467.5" y="16.5" width="433" height="480"></rect>
            <g id="Group" transform="translate(535.000000, 95.000000)">
                <polygon id="Triangle-5" fill="#979797" points="0 492 8 488 8 496"></polygon>
                <polygon id="Triangle-5" fill="#979797" transform="translate(223.000000, 4.000000) rotate(-90.000000) translate(-223.000000, -4.000000) " points="223 0 227 8 219 8"></polygon>
                <polyline id="Path-6" stroke="#979797" stroke-width="2" transform="translate(188.500000, 248.000000) scale(-1, 1) translate(-188.500000, -248.000000) " points="156.345798 4 5 4 5 492 372 492"></polyline>
            </g>
            <g id="Group" transform="translate(209.500000, 343.000000) scale(-1, 1) translate(-209.500000, -343.000000) translate(22.000000, 95.000000)">
                <polygon id="Triangle-5" fill="#979797" points="0 492 8 488 8 496"></polygon>
                <polygon id="Triangle-5" fill="#979797" transform="translate(222.000000, 4.000000) rotate(-90.000000) translate(-222.000000, -4.000000) " points="222 0 226 8 218 8"></polygon>
                <polyline id="Path-6" stroke="#979797" stroke-width="2" transform="translate(191.500000, 248.000000) scale(-1, 1) translate(-191.500000, -248.000000) " points="159.345798 4 8 4 8 492 375 492"></polyline>
            </g>
            <path d="M317.5,99.5 L615.5,99.5" id="Line-8" stroke="#979797" stroke-width="2" stroke-linecap="square"></path>
        </g>
        <g id="Artboard" transform="translate(-19482.000000, -13016.000000)"></g>
    </g>
</svg>