<svg width="48" height="48" viewBox="0 0 48 48" fill="none" xmlns="http://www.w3.org/2000/svg">
<path d="M13.5 22.5L37.5 1.5" stroke="#5CC3C9" stroke-width="2" stroke-linecap="round" stroke-linejoin="round"/>
<path d="M28.5 1.5L37.5 1.5L37.5 10.5" stroke="#5CC3C9" stroke-width="2" stroke-linecap="round" stroke-linejoin="round"/>
<path d="M46.5 7.5V46.5" stroke="#4C99A4" stroke-width="2" stroke-linecap="round" stroke-linejoin="round"/>
<path d="M37.5 18V46.5" stroke="#5CC3C9" stroke-width="2" stroke-linecap="round" stroke-linejoin="round"/>
<path d="M28.5 28.5V46.5" stroke="#4C99A4" stroke-width="2" stroke-linecap="round" stroke-linejoin="round"/>
<path d="M46.5 46.5H22.5" stroke="#4C99A4" stroke-width="2" stroke-linecap="round" stroke-linejoin="round"/>
<path d="M2 30.7195C2 31.5648 2.83956 32.3756 4.33399 32.9734C5.82842 33.5711 7.85531 33.907 9.96875 33.907C12.0822 33.907 14.1091 33.5711 15.6035 32.9734C17.0979 32.3756 17.9375 31.5648 17.9375 30.7195C17.9375 29.8741 17.0979 29.0633 15.6035 28.4655C14.1091 27.8678 12.0822 27.532 9.96875 27.532C7.85531 27.532 5.82842 27.8678 4.33399 28.4655C2.83956 29.0633 2 29.8741 2 30.7195V30.7195Z" stroke="#4C99A4" stroke-width="2" stroke-linecap="round" stroke-linejoin="round"/>
<path d="M2 30.5V40.2812C2 42.0415 5.56788 43.4688 9.96875 43.4688C14.3696 43.4688 17.9375 42.0415 17.9375 40.2812V31" stroke="#4C99A4" stroke-width="2" stroke-linecap="round" stroke-linejoin="round"/>
</svg>
