<svg width="48" height="48" viewBox="0 0 48 48" fill="none" xmlns="http://www.w3.org/2000/svg">
<rect width="48" height="48" fill="white"/>
<path d="M4 11.3968V34.8889C4 40.0786 12.2827 44.2857 22.5 44.2857M4 11.3968C4 16.5865 12.2827 20.7936 22.5 20.7936C32.7173 20.7936 41 16.5865 41 11.3968M4 11.3968C4 6.2071 12.2827 2 22.5 2C32.7173 2 41 6.2071 41 11.3968M41 11.3968V23.5M22.5 32.5397C12.2827 32.5397 4 28.3326 4 23.1429" stroke="#5DB3BF" stroke-width="2" stroke-linecap="round"/>
<path d="M31.9533 34.1297C31.9533 34.7596 32.2036 35.3637 32.649 35.8091C33.0944 36.2545 33.6984 36.5047 34.3283 36.5047C34.9582 36.5047 35.5623 36.2545 36.0077 35.8091C36.4531 35.3637 36.7033 34.7596 36.7033 34.1297C36.7033 33.4999 36.4531 32.8958 36.0077 32.4504C35.5623 32.005 34.9582 31.7547 34.3283 31.7547C33.6984 31.7547 33.0944 32.005 32.649 32.4504C32.2036 32.8958 31.9533 33.4999 31.9533 34.1297V34.1297Z" stroke="#5CC3C9" stroke-width="2" stroke-linecap="round" stroke-linejoin="round"/>
<path d="M36.3455 24.9417L37.0469 27.2407C37.1617 27.6226 37.4176 27.9466 37.7625 28.1468C38.1074 28.347 38.5156 28.4086 38.9042 28.3189L41.2348 27.779C41.6773 27.6775 42.1406 27.7207 42.5566 27.9022C42.9727 28.0837 43.3195 28.394 43.546 28.7873C43.7725 29.1807 43.8669 29.6363 43.8151 30.0873C43.7633 30.5382 43.5681 30.9607 43.2583 31.2924L41.6259 33.0515C41.3535 33.3445 41.202 33.7297 41.202 34.1298C41.202 34.5298 41.3535 34.915 41.6259 35.208L43.2583 36.975C43.5667 37.3066 43.7607 37.7283 43.8121 38.1782C43.8634 38.6281 43.7694 39.0826 43.5437 39.4752C43.3181 39.8678 42.9726 40.1778 42.558 40.3598C42.1434 40.5419 41.6813 40.5864 41.2396 40.4868L38.9089 39.9469C38.5203 39.8573 38.1121 39.9188 37.7672 40.119C37.4223 40.3193 37.1665 40.6432 37.0517 41.0252L36.3503 43.3242C36.2202 43.7581 35.9537 44.1385 35.5903 44.4089C35.2269 44.6793 34.7861 44.8254 34.3331 44.8254C33.8801 44.8254 33.4392 44.6793 33.0758 44.4089C32.7125 44.1385 32.446 43.7581 32.3159 43.3242L31.6161 41.0252C31.5009 40.6431 31.2448 40.3191 30.8996 40.1189C30.5545 39.9187 30.1461 39.8572 29.7573 39.9469L27.4266 40.4868C26.9843 40.5885 26.521 40.5455 26.105 40.3641C25.689 40.1828 25.3423 39.8726 25.1158 39.4793C24.8894 39.086 24.7952 38.6303 24.8472 38.1795C24.8992 37.7287 25.0946 37.3064 25.4047 36.975L27.0355 35.2143C27.3079 34.9214 27.4594 34.5361 27.4594 34.1361C27.4594 33.736 27.3079 33.3508 27.0355 33.0578L25.4047 31.2988C25.0921 30.9679 24.8943 30.5451 24.8408 30.093C24.7873 29.6409 24.8808 29.1837 25.1075 28.7889C25.3342 28.3942 25.682 28.0829 26.0994 27.9013C26.5168 27.7197 26.9816 27.6774 27.425 27.7806L29.7557 28.3205C30.1445 28.4102 30.5529 28.3487 30.898 28.1485C31.2432 27.9483 31.4993 27.6243 31.6145 27.2422L32.3143 24.9433C32.4451 24.5105 32.7116 24.1314 33.0745 23.8619C33.4373 23.5923 33.8773 23.4467 34.3293 23.4465C34.7814 23.4463 35.2214 23.5916 35.5845 23.8609C35.9476 24.1301 36.2144 24.5091 36.3455 24.9417V24.9417Z" stroke="#4C99A4" stroke-width="2" stroke-linecap="round" stroke-linejoin="round"/>
</svg>
