<svg width="48" height="48" viewBox="0 0 48 48" fill="none" xmlns="http://www.w3.org/2000/svg">
<path d="M44 33.8182V33.3489C44 32.6339 43.9156 31.9212 43.7485 31.2251L38.9796 11.3617C38.2253 8.2202 35.365 6 32.0721 6H14.928C11.635 6 8.77465 8.2202 8.02043 11.3617L3.25151 31.2251C3.0844 31.9212 3 32.6339 3 33.3489V33.8182M44 33.8182C44 37.2323 41.1759 40 37.6923 40H9.30769C5.82405 40 3 37.2323 3 33.8182M44 33.8182C44 30.4041 41.1759 27.6364 37.6923 27.6364H9.30769C5.82405 27.6364 3 30.4041 3 33.8182M37.6923 33.8182H37.7081V33.8336H37.6923V33.8182ZM31.3846 33.8182H31.4004V33.8336H31.3846V33.8182Z" stroke="#5DB3BF" stroke-width="2" stroke-linecap="round" stroke-linejoin="round"/>
</svg>
