<svg width="48" height="48" viewBox="0 0 48 48" fill="none" xmlns="http://www.w3.org/2000/svg">
<path d="M7.125 3.375C8.11956 3.375 9.07339 3.77009 9.77665 4.47335C10.4799 5.17661 10.875 6.13044 10.875 7.125V23.0625L13.6875 26.8125L10.875 30.5625V40.875C10.875 41.8696 11.2701 42.8234 11.9733 43.5266C12.6766 44.2299 13.6304 44.625 14.625 44.625M7.125 3.375C6.13044 3.375 5.17661 3.77009 4.47335 4.47335C3.77009 5.17661 3.375 6.13044 3.375 7.125M7.125 3.375H37.125C38.1196 3.375 39.0734 3.77009 39.7766 4.47335C40.4799 5.17661 40.875 6.13044 40.875 7.125V11.8125L38.0625 15.5625L40.875 18.375V37.125M40.875 37.125C41.8696 37.125 42.8234 37.5201 43.5266 38.2234C44.2299 38.9266 44.625 39.8804 44.625 40.875C44.625 41.8696 44.2299 42.8234 43.5266 43.5266C42.8234 44.2299 41.8696 44.625 40.875 44.625H14.625M40.875 37.125H16.395C17.1918 37.5245 17.8305 38.181 18.2078 38.9885C18.5851 39.796 18.679 40.7071 18.4743 41.5746C18.2696 42.442 17.7782 43.2151 17.0797 43.7686C16.3811 44.3222 15.5163 44.6239 14.625 44.625" stroke="#4C99A4" stroke-width="2" stroke-linecap="round" stroke-linejoin="round"/>
<path d="M27.75 10.875H33.375M19.3125 10.875H22.125M19.3125 19.4456H33.375M19.3125 27.9075H33.375" stroke="#5CC3C9" stroke-width="2" stroke-linecap="round" stroke-linejoin="round"/>
</svg>
