<svg width="48" height="48" viewBox="0 0 48 48" fill="none" xmlns="http://www.w3.org/2000/svg">
<path d="M47 27.9996C47.0012 26.6563 46.7313 25.3265 46.2062 24.09C45.6812 22.8535 44.912 21.7357 43.9446 20.8036C42.9772 19.8715 41.8316 19.1443 40.5764 18.6656C39.3213 18.1869 37.9824 17.9665 36.64 18.0176C35.3162 15.2067 33.0936 12.9169 30.3233 11.5101C27.5529 10.1033 24.3929 9.65953 21.3422 10.249C18.2916 10.8385 15.5243 12.4276 13.4776 14.7652C11.4308 17.1029 10.2213 20.0559 10.04 23.1576C8.94807 22.9289 7.81887 22.9466 6.73464 23.2094C5.65041 23.4723 4.63845 23.9736 3.77246 24.6769C2.90646 25.3803 2.20823 26.2679 1.72862 27.2752C1.24901 28.2824 1.0001 29.384 1 30.4996C1 38.1196 9 37.9996 9 37.9996H38C38 37.9996 47 36.8276 47 27.9996Z" stroke="#4C99A4" stroke-width="2" stroke-linecap="round" stroke-linejoin="round"/>
</svg>
