<svg width="48" height="48" viewBox="0 0 48 48" fill="none" xmlns="http://www.w3.org/2000/svg">
<rect width="48" height="48" fill="white"/>
<path d="M36 28C40.9706 28 45 26.6569 45 25C45 23.3431 40.9706 22 36 22C31.0294 22 27 23.3431 27 25C27 26.6569 31.0294 28 36 28Z" stroke="#4C99A4" stroke-width="2" stroke-linecap="round" stroke-linejoin="round"/>
<path d="M45 25V34C45 35.656 40.97 37 36 37C31.03 37 27 35.656 27 34V25" stroke="#4C99A4" stroke-width="2" stroke-linecap="round" stroke-linejoin="round"/>
<path d="M45 34V43C45 44.656 40.97 46 36 46C31.03 46 27 44.656 27 43V34" stroke="#4C99A4" stroke-width="2" stroke-linecap="round" stroke-linejoin="round"/>
<path d="M46.714 20.818C46.3243 19.2975 45.5727 17.8938 44.5233 16.7265C43.4739 15.5592 42.1579 14.6629 40.6873 14.1141C39.2168 13.5652 37.6353 13.3801 36.0777 13.5744C34.5202 13.7687 33.0327 14.3367 31.742 15.23C31.216 12.4302 29.9035 9.83812 27.9581 7.75697C26.0128 5.67582 23.515 4.19167 20.7571 3.47813C17.9991 2.7646 15.0949 2.8512 12.3844 3.72779C9.67383 4.60438 7.26894 6.23472 5.45105 8.42808C3.63317 10.6214 2.47746 13.2871 2.11914 16.1133C1.76082 18.9394 2.21469 21.8092 3.42767 24.3868C4.64065 26.9645 6.56257 29.1434 8.96859 30.6687C11.3746 32.194 14.1652 33.0027 17.014 33H23.014" stroke="#5CC3C9" stroke-width="2" stroke-linecap="round" stroke-linejoin="round"/>
</svg>
