<svg width="48" height="48" viewBox="0 0 48 48" fill="none" xmlns="http://www.w3.org/2000/svg">
<path d="M21 22.5C18.2152 22.5 15.5445 21.3938 13.5754 19.4246C11.6062 17.4555 10.5 14.7848 10.5 12C10.5 9.21523 11.6062 6.54451 13.5754 4.57538C15.5445 2.60625 18.2152 1.5 21 1.5" stroke="#4C99A4" stroke-width="2" stroke-linecap="round" stroke-linejoin="round"/>
<path d="M1.5 46.5C1.50529 41.3299 3.56145 36.3731 7.21727 32.7173C10.8731 29.0615 15.8299 27.0053 21 27" stroke="#4C99A4" stroke-width="2" stroke-linecap="round" stroke-linejoin="round"/>
<path d="M31.24 7.76L34.5 4.5" stroke="#5CC3C9" stroke-width="2" stroke-linecap="round" stroke-linejoin="round"/>
<path d="M31.24 16.2402L34.5 19.5002" stroke="#5CC3C9" stroke-width="2" stroke-linecap="round" stroke-linejoin="round"/>
<path d="M27 6C28.5913 6 30.1174 6.63214 31.2426 7.75736C32.3679 8.88258 33 10.4087 33 12C33 13.5913 32.3679 15.1174 31.2426 16.2426C30.1174 17.3679 28.5913 18 27 18" stroke="#5CC3C9" stroke-width="2" stroke-linecap="round" stroke-linejoin="round"/>
<path d="M27 6V1.5" stroke="#5CC3C9" stroke-width="2" stroke-linecap="round" stroke-linejoin="round"/>
<path d="M27 18V22.5" stroke="#5CC3C9" stroke-width="2" stroke-linecap="round" stroke-linejoin="round"/>
<path d="M33 12H37.5" stroke="#5CC3C9" stroke-width="2" stroke-linecap="round" stroke-linejoin="round"/>
<path d="M46.5 46.5V43.5H41.7C41.3221 41.6154 40.5817 39.8222 39.52 38.22L42.9 34.84L38.66 30.6L35.28 34C33.6793 32.9312 31.886 32.184 30 31.8V27H27" stroke="#5CC3C9" stroke-width="2" stroke-linecap="round" stroke-linejoin="round"/>
<path d="M27 39C28.9891 39 30.8968 39.7902 32.3033 41.1967C33.7098 42.6032 34.5 44.5109 34.5 46.5" stroke="#5CC3C9" stroke-width="2" stroke-linecap="round" stroke-linejoin="round"/>
</svg>
