<svg width="48" height="48" viewBox="0 0 48 48" fill="none" xmlns="http://www.w3.org/2000/svg">
<path d="M37.8 18.5532V8.09221C37.8033 7.5427 37.5901 7.01423 37.2071 6.62221C36.824 6.2302 36.3022 6.00651 35.7556 6H3.04451C2.49701 6.00705 1.97458 6.23176 1.59145 6.62499C1.20833 7.01822 0.995697 7.54797 1.00007 8.09837V33.2028C0.997329 33.7519 1.21074 34.2799 1.59375 34.6715C1.97676 35.063 2.49827 35.2864 3.04451 35.293H16.3334V43H8.99997M7.13339 13.7132L13.2667 18.3374L7.13339 22.9617M19.4 18.3374H27.0667" stroke="#5CC3C9" stroke-width="2" stroke-linecap="round" stroke-linejoin="round"/>
<path d="M34.7333 29.5363C34.7333 26.47 40.1756 24.7004 45.9348 24.5052C46.2042 24.4921 46.4697 24.5743 46.6851 24.7374C46.7813 24.8089 46.8597 24.9017 46.9143 25.0087C46.9689 25.1156 46.9982 25.2338 47 25.354V38.8197C46.9751 39.0597 46.8594 39.2809 46.6766 39.4374C46.4939 39.5939 46.2583 39.6738 46.0186 39.6603C42.0069 39.5899 38.0695 40.753 34.7333 42.9939C31.3988 40.7479 27.4613 39.5798 23.448 39.6459C23.2085 39.6589 22.9731 39.5789 22.7905 39.4225C22.6079 39.266 22.492 39.0452 22.4667 38.8053V25.3457C22.4684 25.2256 22.4977 25.1074 22.5523 25.0004C22.6069 24.8935 22.6854 24.8007 22.7815 24.7292C22.997 24.5661 23.2624 24.4839 23.5318 24.4969C29.291 24.7025 34.7333 26.47 34.7333 29.5363ZM34.7333 29.5363V43" stroke="#4C99A4" stroke-width="2" stroke-linecap="round" stroke-linejoin="round"/>
</svg>
