<?xml version="1.0" encoding="UTF-8"?>
<svg width="138px" height="46px" viewBox="0 0 138 46" version="1.1" xmlns="http://www.w3.org/2000/svg" xmlns:xlink="http://www.w3.org/1999/xlink">
    <!-- Generator: Sketch 53.2 (72643) - https://sketchapp.com -->
    <title>logo-neo4j</title>
    <desc>Created with Sketch.</desc>
    <g id="logo-neo4j" stroke="none" stroke-width="1" fill="none" fill-rule="evenodd">
        <g id="Neo4j-logo-white" fill="#FFFFFF" fill-rule="nonzero">
            <path d="M25.7718557,9.95876289 C18.2458763,9.95876289 13.1953608,14.3406186 13.1953608,22.841134 L13.1953608,28.9017526 C13.9594667,28.5261809 14.7981084,28.3268515 15.6494845,28.3184536 C16.5024818,28.3186473 17.3442134,28.5132673 18.1107216,28.8875258 L18.1107216,22.8126804 C18.1107216,17.2997938 21.1552577,14.4686598 25.7931959,14.4686598 C30.431134,14.4686598 33.4329897,17.2997938 33.4329897,22.8126804 L33.4329897,36.0578351 L38.3341537,36.0578351 L38.3341237,22.8126804 C38.3483505,14.2623711 33.2978351,9.95876289 25.7718557,9.95876289 Z" id="Path"></path>
            <path d="M41.0158763,23.3319588 C41.0158763,15.5996907 46.7065979,9.93030928 54.7234021,9.93030928 C62.7402062,9.93030928 68.3313402,15.6210309 68.3313402,23.3319588 L68.3313402,25.1316495 L46.1659794,25.1316495 C46.8773196,29.67 50.2917526,32.1952577 54.7020619,32.1952577 C58.0026804,32.1952577 60.3216495,31.1638144 61.8154639,28.9515464 L67.2216495,28.9515464 C65.2654639,33.6890722 60.6275258,36.7336082 54.7020619,36.7336082 C46.6852577,36.7336082 41.0158763,31.0642268 41.0158763,23.3319588 Z M63.1741237,20.7569072 C62.1924742,16.6809278 58.8491753,14.4686598 54.7234021,14.4686598 C50.5976289,14.4686598 47.3041237,16.7378351 46.3224742,20.7569072 L63.1741237,20.7569072 Z" id="Shape"></path>
            <path d="M70.9490722,23.3319588 C70.9490722,15.6068041 76.6397938,9.93742268 84.6565979,9.93742268 C92.6734021,9.93742268 98.3641237,15.6281443 98.3641237,23.3319588 C98.3641237,31.0357732 92.6734021,36.7336082 84.6565979,36.7336082 C76.6397938,36.7336082 70.9490722,31.0642268 70.9490722,23.3319588 Z M93.4203093,23.3319588 C93.4203093,18.1818557 89.9134021,14.4686598 84.6565979,14.4686598 C79.3997938,14.4686598 75.9,18.1818557 75.9,23.3319588 C75.9,28.4820619 79.3997938,32.1952577 84.6494845,32.1952577 C89.8991753,32.1952577 93.4203093,28.4891753 93.4203093,23.3319588 L93.4203093,23.3319588 Z" id="Shape"></path>
            <path d="M126.362474,41.1296907 L126.931546,41.1296907 C130.07567,41.1296907 131.256495,39.7070103 131.256495,36.1503093 L131.256495,10.7839175 L136.157629,10.7839175 L136.157629,35.8230928 C136.157629,42.1113402 133.682165,45.3550515 127.393918,45.3550515 L126.362474,45.3550515 L126.362474,41.1296907 Z" id="Path"></path>
            <path d="M123.915464,38.5119588 L119.01433,38.5119588 L119.01433,32.4726804 L106.601443,32.4726804 C104.290668,32.5532504 102.130205,31.3300879 101.010309,29.3072165 C100.099959,27.4045189 100.359838,25.1485505 101.678969,23.5026804 L112.818557,8.88463918 C114.397691,6.7534551 117.164817,5.87408716 119.684545,6.70268988 C122.204272,7.53129259 123.909415,9.88134901 123.915464,12.5338144 L123.915464,28.1263918 L127.593093,28.1263918 L127.593093,32.4726804 L123.915464,32.4726804 L123.915464,38.5119588 Z M105.754948,26.1773196 C105.608465,26.3857507 105.529055,26.6339094 105.52732,26.8886598 C105.525413,27.2156209 105.654455,27.5297425 105.885655,27.7609428 C106.116855,27.9921431 106.430977,28.1211849 106.757938,28.1192784 L119.01433,28.1192784 L119.01433,12.4128866 C119.032876,11.869544 118.686552,11.3806163 118.167835,11.2178351 C118.022029,11.1763593 117.871278,11.1548233 117.719691,11.1538144 C117.330504,11.1535774 116.967157,11.3486093 116.752268,11.6730928 L105.754948,26.1773196 Z" id="Shape"></path>
            <path d="M133.731959,0.377010309 C132.033824,0.37413211 130.501297,1.39484887 129.849454,2.9628956 C129.197611,4.53094233 129.554922,6.33727244 130.754668,7.53905488 C131.954413,8.74083732 133.760135,9.10121259 135.329285,8.4520301 C136.898435,7.80284761 137.92175,6.27205484 137.921753,4.57391753 C137.921756,2.25880479 136.047068,0.380934229 133.731959,0.377010309 Z" id="Path"></path>
            <path d="M15.4360825,29.8762887 C14.5258517,29.8772659 13.6411351,30.1771698 12.9179381,30.7298969 L8.30845361,27.5786598 C8.4110405,27.2103603 8.46367635,26.8299467 8.46494845,26.4476289 C8.48513136,24.7492781 7.47798819,23.2067717 5.91495465,22.5421448 C4.35192112,21.8775178 2.54228008,22.2222823 1.33311013,23.4150567 C0.123940177,24.6078312 -0.245496044,26.4125971 0.397731625,27.984558 C1.04095929,29.5565188 2.56957317,30.5846253 4.26804124,30.5876289 C5.17853406,30.5882398 6.06374638,30.2881679 6.78618557,29.7340206 L11.3814433,32.9065979 C11.1727145,33.6485898 11.1727145,34.4337813 11.3814433,35.1757732 L6.77195876,38.3270103 C6.05338646,37.7758223 5.17366147,37.4759161 4.26804124,37.4734021 C2.56925951,37.4705252 1.03628376,38.4920129 0.384858506,40.0609338 C-0.266566752,41.6298547 0.092050498,43.436743 1.2932723,44.6379648 C2.4944941,45.8391866 4.30138243,46.1978039 5.87030332,45.5463786 C7.43922421,44.8949533 8.46071191,43.3619776 8.45783505,41.6631959 C8.45761481,41.2859621 8.40738338,40.9104224 8.30845361,40.5463918 L12.9179381,37.3951546 C13.6411351,37.9478817 14.5258517,38.2477856 15.4360825,38.2487629 C17.6323201,38.0918555 19.3339094,36.2643613 19.3339094,34.0625258 C19.3339094,31.8606903 17.6323201,30.033196 15.4360825,29.8762887 L15.4360825,29.8762887 Z" id="Path"></path>
        </g>
    </g>
</svg>