<svg width="313" height="124" viewBox="0 0 313 124" fill="none" xmlns="http://www.w3.org/2000/svg">
<rect x="232" y="51" width="51" height="41" fill="#014063"/>
<rect x="163" y="51" width="42" height="41" fill="#014063"/>
<rect x="71" y="51" width="49" height="44" fill="#014063"/>
<path d="M96.2569 8.61108C78.2061 8.61108 58.5559 13.051 58.5559 22.7062C58.5559 32.3613 78.2061 36.8013 96.2569 36.8013C114.308 36.8013 133.708 32.3613 133.708 22.7062C133.708 13.051 114.308 8.61108 96.2569 8.61108Z" fill="#014063"/>
<path fill-rule="evenodd" clip-rule="evenodd" d="M96.2567 44.5542C82.1001 44.5542 67.0946 42.058 58.5557 36.0678V86.3697C58.5557 96.0248 78.2059 100.465 96.2567 100.465C114.308 100.465 133.708 96.0248 133.708 86.3697V36.567C125.169 42.5572 110.413 44.5542 96.2567 44.5542ZM97.6853 56.5346C90.6224 56.5346 85.8816 60.6795 85.8816 68.6815V74.369C86.5586 74.0316 87.333 73.8386 88.1551 73.8386C88.9772 73.8386 89.7516 74.0316 90.4773 74.369V68.633C90.4773 63.4273 93.3312 60.7765 97.6853 60.7765C102.039 60.7765 104.893 63.4273 104.893 68.633V81.1173H109.489V68.633C109.538 60.5836 104.748 56.5346 97.6853 56.5346ZM74.0299 71.6702C74.4176 71.0428 74.9494 70.5609 75.53 70.272C76.5947 69.7416 77.9009 69.7416 79.0132 70.2235C80.0292 70.8509 80.5133 71.9106 80.8036 72.9713C81.1914 74.3209 81.6744 75.3332 82.8843 76.0565C84.093 76.7799 85.2541 76.6354 86.6091 76.298C87.7214 76.0576 88.8825 75.9121 89.8985 76.491C91.0108 77.1173 91.6877 78.2255 91.7365 79.4307V79.9125C91.6401 81.0692 91.0108 82.2259 89.8985 82.8523C88.8348 83.4786 87.6738 83.334 86.6091 83.045C85.2552 82.7078 84.0941 82.5623 82.8843 83.2855C81.6257 83.9603 81.1903 85.0214 80.8036 86.3706C80.5133 87.4317 80.0292 88.541 79.0132 89.1186C77.9009 89.7449 76.5947 89.7449 75.53 89.2145C74.9007 88.9247 74.4166 88.4429 74.0299 87.8163C73.6421 87.19 73.497 86.5152 73.5457 85.8403C73.6421 84.6837 74.2714 83.5272 75.3838 82.9009C76.4474 82.2744 77.6085 82.4189 78.6732 82.7078C80.0271 83.045 81.1881 83.1895 82.398 82.4663H82.4467C84.5273 81.2622 84.5273 78.2255 82.4467 77.0203H82.398C81.1892 76.2969 80.0281 76.4414 78.6732 76.7788C77.5608 77.0192 76.3997 77.1636 75.3838 76.5858C74.2714 75.9595 73.5945 74.8514 73.5457 73.6461C73.4981 72.9713 73.6432 72.2965 74.0299 71.6702Z" fill="#014063"/>
<path d="M176.923 8.61108C158.873 8.61108 139.222 13.051 139.222 22.7062C139.222 32.3613 158.873 36.8013 176.923 36.8013C194.974 36.8013 214.375 32.3613 214.375 22.7062C214.375 13.051 194.974 8.61108 176.923 8.61108Z" fill="#014063"/>
<path fill-rule="evenodd" clip-rule="evenodd" d="M176.923 44.5542C162.767 44.5542 147.761 42.058 139.222 36.0678V86.3697C139.222 96.0248 158.872 100.465 176.923 100.465C194.974 100.465 214.375 96.0248 214.375 86.3697V36.567C205.836 42.5572 191.08 44.5542 176.923 44.5542ZM178.352 56.5346C171.289 56.5346 166.548 60.6795 166.548 68.6815V74.369C167.225 74.0316 168 73.8386 168.822 73.8386C169.644 73.8386 170.418 74.0316 171.144 74.369V68.633C171.144 63.4273 173.998 60.7765 178.352 60.7765C182.706 60.7765 185.56 63.4273 185.56 68.633V81.1173H190.155V68.633C190.204 60.5836 185.415 56.5346 178.352 56.5346ZM154.696 71.6702C155.084 71.0428 155.616 70.5609 156.196 70.272C157.261 69.7416 158.567 69.7416 159.68 70.2235C160.696 70.8509 161.18 71.9106 161.47 72.9713C161.858 74.3209 162.341 75.3332 163.551 76.0565C164.76 76.7799 165.921 76.6354 167.276 76.298C168.388 76.0576 169.549 75.9121 170.565 76.491C171.677 77.1173 172.354 78.2255 172.403 79.4307V79.9125C172.307 81.0692 171.677 82.2259 170.565 82.8523C169.501 83.4786 168.34 83.334 167.276 83.045C165.922 82.7078 164.761 82.5623 163.551 83.2855C162.292 83.9603 161.857 85.0214 161.47 86.3706C161.18 87.4317 160.696 88.541 159.68 89.1186C158.567 89.7449 157.261 89.7449 156.196 89.2145C155.567 88.9247 155.083 88.4429 154.696 87.8163C154.309 87.19 154.164 86.5152 154.212 85.8403C154.309 84.6837 154.938 83.5272 156.05 82.9009C157.114 82.2744 158.275 82.4189 159.34 82.7078C160.694 83.045 161.855 83.1895 163.064 82.4663H163.113C165.194 81.2622 165.194 78.2255 163.113 77.0203H163.064C161.856 76.2969 160.695 76.4414 159.34 76.7788C158.227 77.0192 157.066 77.1636 156.05 76.5858C154.938 75.9595 154.261 74.8514 154.212 73.6461C154.165 72.9713 154.31 72.2965 154.696 71.6702Z" fill="#014063"/>
<rect x="10.3335" y="56.8333" width="58.5556" height="31" fill="white"/>
<rect x="24.1111" y="77.5" width="34.4444" height="32.7222" fill="#8FE3E8"/>
<path d="M41.1927 47.7916C27.6546 47.7916 12.9169 51.1216 12.9169 58.363C12.9169 65.6043 27.6546 68.9343 41.1927 68.9343C54.7308 68.9343 69.2812 65.6043 69.2812 58.363C69.2812 51.1216 54.7308 47.7916 41.1927 47.7916Z" fill="#8FE3E8"/>
<path fill-rule="evenodd" clip-rule="evenodd" d="M41.1925 74.749C30.5751 74.749 19.3209 72.8768 12.9167 68.3842V106.111C12.9167 113.352 27.6544 116.682 41.1925 116.682C54.7307 116.682 69.2811 113.352 69.2811 106.111V68.7586C62.8769 73.2512 51.81 74.749 41.1925 74.749ZM42.264 83.7342C36.9668 83.7342 33.4112 86.8429 33.4112 92.8444V97.1101C33.9189 96.857 34.4998 96.7123 35.1163 96.7123C35.7329 96.7123 36.3137 96.857 36.858 97.1101V92.808C36.858 88.9038 38.9984 86.9157 42.264 86.9157C45.5296 86.9157 47.67 88.9038 47.67 92.808V102.171H51.1167V92.808C51.1533 86.771 47.5612 83.7342 42.264 83.7342ZM24.5224 95.0859C24.8132 94.6154 25.2121 94.254 25.6475 94.0373C26.446 93.6395 27.4257 93.6395 28.2599 94.0009C29.0219 94.4715 29.385 95.2662 29.6027 96.0618C29.8935 97.074 30.2558 97.8332 31.1632 98.3757C32.0698 98.9182 32.9406 98.8099 33.9568 98.5568C34.7911 98.3765 35.6619 98.2674 36.4238 98.7015C37.2581 99.1713 37.7658 100.002 37.8024 100.906V101.268C37.73 102.135 37.2581 103.003 36.4238 103.473C35.6261 103.942 34.7553 103.834 33.9568 103.617C32.9414 103.364 32.0706 103.255 31.1632 103.797C30.2193 104.304 29.8927 105.099 29.6027 106.111C29.385 106.907 29.0219 107.739 28.2599 108.172C27.4257 108.642 26.446 108.642 25.6475 108.244C25.1755 108.027 24.8124 107.666 24.5224 107.196C24.2316 106.726 24.1228 106.22 24.1593 105.714C24.2316 104.846 24.7036 103.979 25.5378 103.509C26.3355 103.039 27.2063 103.147 28.0049 103.364C29.0203 103.617 29.8911 103.725 30.7985 103.183H30.835C32.3955 102.28 32.3955 100.002 30.835 99.0985H30.7985C29.8919 98.556 29.0211 98.6643 28.0049 98.9174C27.1706 99.0977 26.2998 99.206 25.5378 98.7727C24.7036 98.3029 24.1959 97.4718 24.1593 96.5679C24.1236 96.0618 24.2324 95.5557 24.5224 95.0859Z" fill="#8FE3E8"/>
<path d="M26.47 96.1C26.11 96.1 25.765 96.0567 25.435 95.97C25.105 95.88 24.8033 95.7483 24.53 95.575C24.26 95.3983 24.0367 95.18 23.86 94.92C23.6833 94.6567 23.575 94.35 23.535 94H24.795C24.8483 94.2433 24.9533 94.4483 25.11 94.615C25.27 94.7817 25.4717 94.9083 25.715 94.995C25.9583 95.0817 26.23 95.125 26.53 95.125C26.7967 95.125 27.045 95.085 27.275 95.005C27.505 94.925 27.6917 94.8067 27.835 94.65C27.9783 94.49 28.05 94.2933 28.05 94.06C28.05 93.7967 27.9567 93.5917 27.77 93.445C27.5867 93.295 27.3233 93.1767 26.98 93.09L25.565 92.755C25.1983 92.6717 24.8783 92.55 24.605 92.39C24.335 92.23 24.125 92.02 23.975 91.76C23.825 91.4967 23.75 91.175 23.75 90.795C23.75 90.3617 23.8683 89.9867 24.105 89.67C24.345 89.3533 24.67 89.11 25.08 88.94C25.49 88.7667 25.9517 88.68 26.465 88.68C27.0517 88.68 27.5467 88.7783 27.95 88.975C28.3533 89.1683 28.66 89.4283 28.87 89.755C29.08 90.0817 29.1867 90.44 29.19 90.83H27.96C27.9333 90.54 27.8483 90.3117 27.705 90.145C27.5617 89.975 27.38 89.8517 27.16 89.775C26.94 89.6983 26.6967 89.66 26.43 89.66C25.9567 89.66 25.605 89.7617 25.375 89.965C25.145 90.1683 25.03 90.4067 25.03 90.68C25.03 90.9367 25.115 91.14 25.285 91.29C25.455 91.44 25.715 91.5567 26.065 91.64L27.41 91.955C27.86 92.0483 28.2217 92.1917 28.495 92.385C28.7683 92.5783 28.9667 92.8083 29.09 93.075C29.2167 93.3383 29.28 93.63 29.28 93.95C29.28 94.37 29.16 94.7417 28.92 95.065C28.6833 95.3883 28.355 95.6417 27.935 95.825C27.515 96.0083 27.0267 96.1 26.47 96.1ZM31.2302 97.65C30.8969 97.65 30.6652 97.6233 30.5352 97.57C30.4052 97.52 30.3402 97.495 30.3402 97.495V96.715L30.8602 96.73C31.0702 96.74 31.2402 96.7283 31.3702 96.695C31.5036 96.6617 31.6069 96.615 31.6802 96.555C31.7536 96.4983 31.8069 96.4367 31.8402 96.37C31.8769 96.3067 31.9052 96.2517 31.9252 96.205L32.0602 95.825L30.0452 90.83H31.2552L32.6302 94.485L34.0002 90.83H35.1902L33.0602 96.19C32.9002 96.58 32.7269 96.88 32.5402 97.09C32.3569 97.3033 32.1552 97.45 31.9352 97.53C31.7186 97.61 31.4836 97.65 31.2302 97.65ZM37.9161 96.1C37.5561 96.1 37.2144 96.0433 36.8911 95.93C36.5711 95.8133 36.3011 95.6317 36.0811 95.385C35.8644 95.1383 35.7278 94.82 35.6711 94.43H36.7411C36.7878 94.62 36.8694 94.775 36.9861 94.895C37.1061 95.015 37.2461 95.1033 37.4061 95.16C37.5694 95.2133 37.7378 95.24 37.9111 95.24C38.2211 95.24 38.4711 95.1867 38.6611 95.08C38.8511 94.9733 38.9461 94.8083 38.9461 94.585C38.9461 94.4217 38.8928 94.2917 38.7861 94.195C38.6828 94.0983 38.5128 94.025 38.2761 93.975L37.2961 93.75C36.8561 93.6533 36.5044 93.4933 36.2411 93.27C35.9778 93.0467 35.8444 92.7317 35.8411 92.325C35.8378 92.0183 35.9144 91.745 36.0711 91.505C36.2278 91.265 36.4611 91.0767 36.7711 90.94C37.0811 90.8 37.4628 90.73 37.9161 90.73C38.5194 90.73 39.0028 90.865 39.3661 91.135C39.7328 91.4017 39.9211 91.7833 39.9311 92.28H38.8961C38.8594 92.0567 38.7544 91.8833 38.5811 91.76C38.4078 91.6333 38.1828 91.57 37.9061 91.57C37.6194 91.57 37.3844 91.625 37.2011 91.735C37.0178 91.845 36.9261 92.0133 36.9261 92.24C36.9261 92.3967 36.9944 92.52 37.1311 92.61C37.2711 92.7 37.4828 92.7767 37.7661 92.84L38.6961 93.065C38.9628 93.1317 39.1811 93.2217 39.3511 93.335C39.5211 93.4483 39.6528 93.5733 39.7461 93.71C39.8428 93.8433 39.9094 93.9817 39.9461 94.125C39.9861 94.265 40.0061 94.395 40.0061 94.515C40.0061 94.8483 39.9194 95.1333 39.7461 95.37C39.5761 95.6033 39.3344 95.7833 39.0211 95.91C38.7111 96.0367 38.3428 96.1 37.9161 96.1ZM43.1283 96.04C42.7183 96.04 42.3999 95.9867 42.1733 95.88C41.9499 95.77 41.7949 95.615 41.7083 95.415C41.6216 95.215 41.5783 94.9767 41.5783 94.7V91.69H40.7383V90.83H41.6133L41.9183 89.295H42.7933V90.825H43.9483V91.69H42.7933L42.7983 94.655C42.7983 94.8083 42.8149 94.9217 42.8483 94.995C42.8849 95.065 42.9416 95.1117 43.0183 95.135C43.0983 95.155 43.2033 95.165 43.3333 95.165H43.9733V95.935C43.9033 95.9617 43.7999 95.985 43.6633 96.005C43.5299 96.0283 43.3516 96.04 43.1283 96.04ZM47.2348 96.1C46.7381 96.1 46.2998 95.995 45.9198 95.785C45.5431 95.5717 45.2481 95.2683 45.0348 94.875C44.8248 94.4817 44.7198 94.0133 44.7198 93.47C44.7198 92.94 44.8148 92.47 45.0048 92.06C45.1981 91.6467 45.4764 91.3217 45.8398 91.085C46.2064 90.8483 46.6481 90.73 47.1648 90.73C47.6748 90.73 48.1031 90.8383 48.4498 91.055C48.7964 91.2717 49.0598 91.575 49.2398 91.965C49.4198 92.3517 49.5098 92.805 49.5098 93.325V93.695H45.9348C45.9314 93.9883 45.9781 94.2483 46.0748 94.475C46.1714 94.7017 46.3148 94.88 46.5048 95.01C46.6948 95.1367 46.9298 95.2 47.2098 95.2C47.4964 95.2 47.7448 95.1367 47.9548 95.01C48.1681 94.88 48.3098 94.6833 48.3798 94.42H49.4898C49.4298 94.78 49.2864 95.085 49.0598 95.335C48.8364 95.585 48.5631 95.775 48.2398 95.905C47.9198 96.035 47.5848 96.1 47.2348 96.1ZM45.9298 92.94H48.3598C48.3598 92.69 48.3148 92.465 48.2248 92.265C48.1381 92.0617 48.0064 91.9017 47.8298 91.785C47.6531 91.665 47.4298 91.605 47.1598 91.605C46.8931 91.605 46.6681 91.67 46.4848 91.8C46.3014 91.93 46.1631 92.0983 46.0698 92.305C45.9764 92.5083 45.9298 92.72 45.9298 92.94ZM50.6724 96V90.83H51.8574V91.57C52.0074 91.3433 52.2108 91.1467 52.4674 90.98C52.7274 90.8133 53.0574 90.73 53.4574 90.73C53.6408 90.73 53.8258 90.7617 54.0124 90.825C54.2024 90.8883 54.3774 90.9817 54.5374 91.105C54.7008 91.2283 54.8308 91.3817 54.9274 91.565C55.0908 91.3217 55.3074 91.1217 55.5774 90.965C55.8508 90.8083 56.1574 90.73 56.4974 90.73C56.6841 90.73 56.8758 90.76 57.0724 90.82C57.2724 90.88 57.4558 90.98 57.6224 91.12C57.7891 91.26 57.9241 91.4517 58.0274 91.695C58.1308 91.935 58.1824 92.2367 58.1824 92.6V96H56.9674V92.745C56.9674 92.4883 56.9224 92.2867 56.8324 92.14C56.7424 91.9933 56.6258 91.89 56.4824 91.83C56.3424 91.7667 56.1924 91.735 56.0324 91.735C55.8891 91.735 55.7391 91.7633 55.5824 91.82C55.4291 91.8767 55.2974 91.97 55.1874 92.1C55.0808 92.23 55.0274 92.405 55.0274 92.625V96H53.8124V92.55C53.8124 92.37 53.7658 92.22 53.6724 92.1C53.5791 91.98 53.4608 91.89 53.3174 91.83C53.1774 91.7667 53.0341 91.735 52.8874 91.735C52.7374 91.735 52.5841 91.7667 52.4274 91.83C52.2741 91.8933 52.1458 91.99 52.0424 92.12C51.9391 92.25 51.8874 92.4183 51.8874 92.625V96H50.6724Z" fill="black"/>
<path d="M26.47 96.1C26.11 96.1 25.765 96.0567 25.435 95.97C25.105 95.88 24.8033 95.7483 24.53 95.575C24.26 95.3983 24.0367 95.18 23.86 94.92C23.6833 94.6567 23.575 94.35 23.535 94H24.795C24.8483 94.2433 24.9533 94.4483 25.11 94.615C25.27 94.7817 25.4717 94.9083 25.715 94.995C25.9583 95.0817 26.23 95.125 26.53 95.125C26.7967 95.125 27.045 95.085 27.275 95.005C27.505 94.925 27.6917 94.8067 27.835 94.65C27.9783 94.49 28.05 94.2933 28.05 94.06C28.05 93.7967 27.9567 93.5917 27.77 93.445C27.5867 93.295 27.3233 93.1767 26.98 93.09L25.565 92.755C25.1983 92.6717 24.8783 92.55 24.605 92.39C24.335 92.23 24.125 92.02 23.975 91.76C23.825 91.4967 23.75 91.175 23.75 90.795C23.75 90.3617 23.8683 89.9867 24.105 89.67C24.345 89.3533 24.67 89.11 25.08 88.94C25.49 88.7667 25.9517 88.68 26.465 88.68C27.0517 88.68 27.5467 88.7783 27.95 88.975C28.3533 89.1683 28.66 89.4283 28.87 89.755C29.08 90.0817 29.1867 90.44 29.19 90.83H27.96C27.9333 90.54 27.8483 90.3117 27.705 90.145C27.5617 89.975 27.38 89.8517 27.16 89.775C26.94 89.6983 26.6967 89.66 26.43 89.66C25.9567 89.66 25.605 89.7617 25.375 89.965C25.145 90.1683 25.03 90.4067 25.03 90.68C25.03 90.9367 25.115 91.14 25.285 91.29C25.455 91.44 25.715 91.5567 26.065 91.64L27.41 91.955C27.86 92.0483 28.2217 92.1917 28.495 92.385C28.7683 92.5783 28.9667 92.8083 29.09 93.075C29.2167 93.3383 29.28 93.63 29.28 93.95C29.28 94.37 29.16 94.7417 28.92 95.065C28.6833 95.3883 28.355 95.6417 27.935 95.825C27.515 96.0083 27.0267 96.1 26.47 96.1ZM31.2302 97.65C30.8969 97.65 30.6652 97.6233 30.5352 97.57C30.4052 97.52 30.3402 97.495 30.3402 97.495V96.715L30.8602 96.73C31.0702 96.74 31.2402 96.7283 31.3702 96.695C31.5036 96.6617 31.6069 96.615 31.6802 96.555C31.7536 96.4983 31.8069 96.4367 31.8402 96.37C31.8769 96.3067 31.9052 96.2517 31.9252 96.205L32.0602 95.825L30.0452 90.83H31.2552L32.6302 94.485L34.0002 90.83H35.1902L33.0602 96.19C32.9002 96.58 32.7269 96.88 32.5402 97.09C32.3569 97.3033 32.1552 97.45 31.9352 97.53C31.7186 97.61 31.4836 97.65 31.2302 97.65ZM37.9161 96.1C37.5561 96.1 37.2144 96.0433 36.8911 95.93C36.5711 95.8133 36.3011 95.6317 36.0811 95.385C35.8644 95.1383 35.7278 94.82 35.6711 94.43H36.7411C36.7878 94.62 36.8694 94.775 36.9861 94.895C37.1061 95.015 37.2461 95.1033 37.4061 95.16C37.5694 95.2133 37.7378 95.24 37.9111 95.24C38.2211 95.24 38.4711 95.1867 38.6611 95.08C38.8511 94.9733 38.9461 94.8083 38.9461 94.585C38.9461 94.4217 38.8928 94.2917 38.7861 94.195C38.6828 94.0983 38.5128 94.025 38.2761 93.975L37.2961 93.75C36.8561 93.6533 36.5044 93.4933 36.2411 93.27C35.9778 93.0467 35.8444 92.7317 35.8411 92.325C35.8378 92.0183 35.9144 91.745 36.0711 91.505C36.2278 91.265 36.4611 91.0767 36.7711 90.94C37.0811 90.8 37.4628 90.73 37.9161 90.73C38.5194 90.73 39.0028 90.865 39.3661 91.135C39.7328 91.4017 39.9211 91.7833 39.9311 92.28H38.8961C38.8594 92.0567 38.7544 91.8833 38.5811 91.76C38.4078 91.6333 38.1828 91.57 37.9061 91.57C37.6194 91.57 37.3844 91.625 37.2011 91.735C37.0178 91.845 36.9261 92.0133 36.9261 92.24C36.9261 92.3967 36.9944 92.52 37.1311 92.61C37.2711 92.7 37.4828 92.7767 37.7661 92.84L38.6961 93.065C38.9628 93.1317 39.1811 93.2217 39.3511 93.335C39.5211 93.4483 39.6528 93.5733 39.7461 93.71C39.8428 93.8433 39.9094 93.9817 39.9461 94.125C39.9861 94.265 40.0061 94.395 40.0061 94.515C40.0061 94.8483 39.9194 95.1333 39.7461 95.37C39.5761 95.6033 39.3344 95.7833 39.0211 95.91C38.7111 96.0367 38.3428 96.1 37.9161 96.1ZM43.1283 96.04C42.7183 96.04 42.3999 95.9867 42.1733 95.88C41.9499 95.77 41.7949 95.615 41.7083 95.415C41.6216 95.215 41.5783 94.9767 41.5783 94.7V91.69H40.7383V90.83H41.6133L41.9183 89.295H42.7933V90.825H43.9483V91.69H42.7933L42.7983 94.655C42.7983 94.8083 42.8149 94.9217 42.8483 94.995C42.8849 95.065 42.9416 95.1117 43.0183 95.135C43.0983 95.155 43.2033 95.165 43.3333 95.165H43.9733V95.935C43.9033 95.9617 43.7999 95.985 43.6633 96.005C43.5299 96.0283 43.3516 96.04 43.1283 96.04ZM47.2348 96.1C46.7381 96.1 46.2998 95.995 45.9198 95.785C45.5431 95.5717 45.2481 95.2683 45.0348 94.875C44.8248 94.4817 44.7198 94.0133 44.7198 93.47C44.7198 92.94 44.8148 92.47 45.0048 92.06C45.1981 91.6467 45.4764 91.3217 45.8398 91.085C46.2064 90.8483 46.6481 90.73 47.1648 90.73C47.6748 90.73 48.1031 90.8383 48.4498 91.055C48.7964 91.2717 49.0598 91.575 49.2398 91.965C49.4198 92.3517 49.5098 92.805 49.5098 93.325V93.695H45.9348C45.9314 93.9883 45.9781 94.2483 46.0748 94.475C46.1714 94.7017 46.3148 94.88 46.5048 95.01C46.6948 95.1367 46.9298 95.2 47.2098 95.2C47.4964 95.2 47.7448 95.1367 47.9548 95.01C48.1681 94.88 48.3098 94.6833 48.3798 94.42H49.4898C49.4298 94.78 49.2864 95.085 49.0598 95.335C48.8364 95.585 48.5631 95.775 48.2398 95.905C47.9198 96.035 47.5848 96.1 47.2348 96.1ZM45.9298 92.94H48.3598C48.3598 92.69 48.3148 92.465 48.2248 92.265C48.1381 92.0617 48.0064 91.9017 47.8298 91.785C47.6531 91.665 47.4298 91.605 47.1598 91.605C46.8931 91.605 46.6681 91.67 46.4848 91.8C46.3014 91.93 46.1631 92.0983 46.0698 92.305C45.9764 92.5083 45.9298 92.72 45.9298 92.94ZM50.6724 96V90.83H51.8574V91.57C52.0074 91.3433 52.2108 91.1467 52.4674 90.98C52.7274 90.8133 53.0574 90.73 53.4574 90.73C53.6408 90.73 53.8258 90.7617 54.0124 90.825C54.2024 90.8883 54.3774 90.9817 54.5374 91.105C54.7008 91.2283 54.8308 91.3817 54.9274 91.565C55.0908 91.3217 55.3074 91.1217 55.5774 90.965C55.8508 90.8083 56.1574 90.73 56.4974 90.73C56.6841 90.73 56.8758 90.76 57.0724 90.82C57.2724 90.88 57.4558 90.98 57.6224 91.12C57.7891 91.26 57.9241 91.4517 58.0274 91.695C58.1308 91.935 58.1824 92.2367 58.1824 92.6V96H56.9674V92.745C56.9674 92.4883 56.9224 92.2867 56.8324 92.14C56.7424 91.9933 56.6258 91.89 56.4824 91.83C56.3424 91.7667 56.1924 91.735 56.0324 91.735C55.8891 91.735 55.7391 91.7633 55.5824 91.82C55.4291 91.8767 55.2974 91.97 55.1874 92.1C55.0808 92.23 55.0274 92.405 55.0274 92.625V96H53.8124V92.55C53.8124 92.37 53.7658 92.22 53.6724 92.1C53.5791 91.98 53.4608 91.89 53.3174 91.83C53.1774 91.7667 53.0341 91.735 52.8874 91.735C52.7374 91.735 52.5841 91.7667 52.4274 91.83C52.2741 91.8933 52.1458 91.99 52.0424 92.12C51.9391 92.25 51.8874 92.4183 51.8874 92.625V96H50.6724Z" fill="black"/>
<path d="M77.875 72V64.77H79.615L81.51 70.295L83.425 64.77H85.155V72H83.92V66.33L82.015 72H81L79.11 66.365V72H77.875ZM88.1987 72.1C87.8687 72.1 87.572 72.04 87.3087 71.92C87.0487 71.7967 86.8437 71.6217 86.6937 71.395C86.547 71.165 86.4737 70.8867 86.4737 70.56C86.4737 69.99 86.6787 69.56 87.0887 69.27C87.502 68.98 88.1587 68.8283 89.0587 68.815L89.8337 68.795V68.445C89.8337 68.1717 89.752 67.9583 89.5887 67.805C89.4287 67.6483 89.1787 67.5717 88.8387 67.575C88.5853 67.5783 88.3553 67.6383 88.1487 67.755C87.942 67.8683 87.8053 68.06 87.7387 68.33H86.7037C86.7237 67.9767 86.8253 67.6817 87.0087 67.445C87.1953 67.205 87.4503 67.0267 87.7737 66.91C88.097 66.79 88.4703 66.73 88.8937 66.73C89.387 66.73 89.7887 66.795 90.0987 66.925C90.4087 67.055 90.637 67.2433 90.7837 67.49C90.9303 67.7333 91.0037 68.0283 91.0037 68.375V72H89.9787L89.8787 71.07C89.6953 71.46 89.4603 71.73 89.1737 71.88C88.8903 72.0267 88.5653 72.1 88.1987 72.1ZM88.5937 71.275C88.7437 71.275 88.892 71.2483 89.0387 71.195C89.1853 71.1383 89.317 71.0633 89.4337 70.97C89.5537 70.8733 89.6487 70.7667 89.7187 70.65C89.792 70.5333 89.8303 70.4117 89.8337 70.285V69.47L89.1987 69.48C88.8853 69.4833 88.6103 69.5167 88.3737 69.58C88.1403 69.6433 87.9587 69.745 87.8287 69.885C87.6987 70.0217 87.6337 70.205 87.6337 70.435C87.6337 70.6983 87.7253 70.905 87.9087 71.055C88.092 71.2017 88.3203 71.275 88.5937 71.275ZM92.2994 72V66.83H93.4644V67.95C93.5477 67.6933 93.666 67.475 93.8194 67.295C93.976 67.1117 94.1594 66.9717 94.3694 66.875C94.5794 66.7783 94.8077 66.73 95.0544 66.73C95.1144 66.73 95.1727 66.7333 95.2294 66.74C95.286 66.7467 95.3277 66.7583 95.3544 66.775V67.94C95.3177 67.9233 95.2694 67.9117 95.2094 67.905C95.1527 67.8983 95.1027 67.895 95.0594 67.895C94.8094 67.875 94.5877 67.885 94.3944 67.925C94.2044 67.965 94.0427 68.0333 93.9094 68.13C93.7794 68.2233 93.681 68.3433 93.6144 68.49C93.5477 68.6333 93.5144 68.8017 93.5144 68.995V72H92.2994ZM96.3228 72V64.57H97.5328V69.175L99.6778 66.83H101.013L99.1428 68.85L101.108 72H99.8728L98.3728 69.605L97.5328 70.485V72H96.3228ZM104.077 72.1C103.58 72.1 103.142 71.995 102.762 71.785C102.385 71.5717 102.09 71.2683 101.877 70.875C101.667 70.4817 101.562 70.0133 101.562 69.47C101.562 68.94 101.657 68.47 101.847 68.06C102.04 67.6467 102.318 67.3217 102.682 67.085C103.048 66.8483 103.49 66.73 104.007 66.73C104.517 66.73 104.945 66.8383 105.292 67.055C105.638 67.2717 105.902 67.575 106.082 67.965C106.262 68.3517 106.352 68.805 106.352 69.325V69.695H102.777C102.773 69.9883 102.82 70.2483 102.917 70.475C103.013 70.7017 103.157 70.88 103.347 71.01C103.537 71.1367 103.772 71.2 104.052 71.2C104.338 71.2 104.587 71.1367 104.797 71.01C105.01 70.88 105.152 70.6833 105.222 70.42H106.332C106.272 70.78 106.128 71.085 105.902 71.335C105.678 71.585 105.405 71.775 105.082 71.905C104.762 72.035 104.427 72.1 104.077 72.1ZM102.772 68.94H105.202C105.202 68.69 105.157 68.465 105.067 68.265C104.98 68.0617 104.848 67.9017 104.672 67.785C104.495 67.665 104.272 67.605 104.002 67.605C103.735 67.605 103.51 67.67 103.327 67.8C103.143 67.93 103.005 68.0983 102.912 68.305C102.818 68.5083 102.772 68.72 102.772 68.94ZM109.394 72.04C108.984 72.04 108.666 71.9867 108.439 71.88C108.216 71.77 108.061 71.615 107.974 71.415C107.887 71.215 107.844 70.9767 107.844 70.7V67.69H107.004V66.83H107.879L108.184 65.295H109.059V66.825H110.214V67.69H109.059L109.064 70.655C109.064 70.8083 109.081 70.9217 109.114 70.995C109.151 71.065 109.207 71.1117 109.284 71.135C109.364 71.155 109.469 71.165 109.599 71.165H110.239V71.935C110.169 71.9617 110.066 71.985 109.929 72.005C109.796 72.0283 109.617 72.04 109.394 72.04ZM111.382 72V66.83H112.547V72H111.382ZM111.362 65.925V64.775H112.567V65.925H111.362ZM113.989 72V66.83H115.179V67.57C115.259 67.4367 115.367 67.3083 115.504 67.185C115.644 67.0617 115.815 66.9617 116.019 66.885C116.222 66.8083 116.46 66.77 116.734 66.77C117.054 66.77 117.35 66.8333 117.624 66.96C117.9 67.0867 118.122 67.285 118.289 67.555C118.459 67.825 118.544 68.1733 118.544 68.6V72H117.324V68.745C117.324 68.405 117.23 68.1533 117.044 67.99C116.857 67.8233 116.622 67.74 116.339 67.74C116.145 67.74 115.962 67.7733 115.789 67.84C115.615 67.9033 115.474 68.0017 115.364 68.135C115.257 68.265 115.204 68.4283 115.204 68.625V72H113.989ZM122.148 73.71C121.278 73.71 120.61 73.5933 120.143 73.36C119.677 73.1267 119.443 72.8067 119.443 72.4C119.443 72.2167 119.488 72.0633 119.578 71.94C119.668 71.8167 119.775 71.715 119.898 71.635C120.022 71.555 120.135 71.4933 120.238 71.45C120.342 71.4067 120.408 71.375 120.438 71.355C120.382 71.3217 120.307 71.2783 120.213 71.225C120.12 71.1717 120.035 71.0983 119.958 71.005C119.885 70.9117 119.848 70.79 119.848 70.64C119.848 70.4667 119.93 70.3067 120.093 70.16C120.26 70.0133 120.508 69.9083 120.838 69.845C120.515 69.6883 120.267 69.4767 120.093 69.21C119.92 68.9433 119.833 68.6667 119.833 68.38C119.833 68.04 119.932 67.7483 120.128 67.505C120.328 67.2617 120.605 67.075 120.958 66.945C121.312 66.815 121.723 66.75 122.193 66.75C122.537 66.75 122.822 66.7883 123.048 66.865C123.278 66.9417 123.492 67.045 123.688 67.175C123.755 67.1483 123.848 67.1117 123.968 67.065C124.088 67.015 124.22 66.9617 124.363 66.905C124.507 66.845 124.645 66.7883 124.778 66.735C124.912 66.6783 125.023 66.6317 125.113 66.595L125.108 67.6L124.213 67.76C124.257 67.8567 124.29 67.9617 124.313 68.075C124.34 68.1883 124.353 68.2883 124.353 68.375C124.353 68.675 124.268 68.9533 124.098 69.21C123.932 69.4633 123.68 69.6667 123.343 69.82C123.01 69.9733 122.593 70.05 122.093 70.05C122.043 70.05 121.975 70.0483 121.888 70.045C121.802 70.0417 121.732 70.0383 121.678 70.035C121.408 70.045 121.223 70.0767 121.123 70.13C121.023 70.1833 120.973 70.2417 120.973 70.305C120.973 70.395 121.048 70.455 121.198 70.485C121.348 70.515 121.588 70.5417 121.918 70.565C122.035 70.5717 122.188 70.58 122.378 70.59C122.568 70.6 122.78 70.6133 123.013 70.63C123.603 70.6667 124.05 70.815 124.353 71.075C124.657 71.3317 124.808 71.665 124.808 72.075C124.808 72.5517 124.588 72.9433 124.148 73.25C123.708 73.5567 123.042 73.71 122.148 73.71ZM122.353 72.995C122.79 72.995 123.113 72.935 123.323 72.815C123.533 72.695 123.638 72.5183 123.638 72.285C123.638 72.105 123.567 71.9583 123.423 71.845C123.28 71.7317 123.067 71.665 122.783 71.645L121.478 71.565C121.335 71.555 121.198 71.5817 121.068 71.645C120.942 71.705 120.838 71.79 120.758 71.9C120.678 72.0067 120.638 72.125 120.638 72.255C120.638 72.4983 120.777 72.6817 121.053 72.805C121.333 72.9317 121.767 72.995 122.353 72.995ZM122.133 69.335C122.45 69.335 122.707 69.255 122.903 69.095C123.1 68.9317 123.198 68.7017 123.198 68.405C123.198 68.0983 123.1 67.86 122.903 67.69C122.707 67.5167 122.45 67.43 122.133 67.43C121.81 67.43 121.548 67.5167 121.348 67.69C121.152 67.8633 121.053 68.1017 121.053 68.405C121.053 68.6917 121.148 68.9183 121.338 69.085C121.528 69.2517 121.793 69.335 122.133 69.335Z" fill="white"/>
<path d="M178.47 73.1C178.11 73.1 177.765 73.0567 177.435 72.97C177.105 72.88 176.803 72.7483 176.53 72.575C176.26 72.3983 176.037 72.18 175.86 71.92C175.683 71.6567 175.575 71.35 175.535 71H176.795C176.848 71.2433 176.953 71.4483 177.11 71.615C177.27 71.7817 177.472 71.9083 177.715 71.995C177.958 72.0817 178.23 72.125 178.53 72.125C178.797 72.125 179.045 72.085 179.275 72.005C179.505 71.925 179.692 71.8067 179.835 71.65C179.978 71.49 180.05 71.2933 180.05 71.06C180.05 70.7967 179.957 70.5917 179.77 70.445C179.587 70.295 179.323 70.1767 178.98 70.09L177.565 69.755C177.198 69.6717 176.878 69.55 176.605 69.39C176.335 69.23 176.125 69.02 175.975 68.76C175.825 68.4967 175.75 68.175 175.75 67.795C175.75 67.3617 175.868 66.9867 176.105 66.67C176.345 66.3533 176.67 66.11 177.08 65.94C177.49 65.7667 177.952 65.68 178.465 65.68C179.052 65.68 179.547 65.7783 179.95 65.975C180.353 66.1683 180.66 66.4283 180.87 66.755C181.08 67.0817 181.187 67.44 181.19 67.83H179.96C179.933 67.54 179.848 67.3117 179.705 67.145C179.562 66.975 179.38 66.8517 179.16 66.775C178.94 66.6983 178.697 66.66 178.43 66.66C177.957 66.66 177.605 66.7617 177.375 66.965C177.145 67.1683 177.03 67.4067 177.03 67.68C177.03 67.9367 177.115 68.14 177.285 68.29C177.455 68.44 177.715 68.5567 178.065 68.64L179.41 68.955C179.86 69.0483 180.222 69.1917 180.495 69.385C180.768 69.5783 180.967 69.8083 181.09 70.075C181.217 70.3383 181.28 70.63 181.28 70.95C181.28 71.37 181.16 71.7417 180.92 72.065C180.683 72.3883 180.355 72.6417 179.935 72.825C179.515 73.0083 179.027 73.1 178.47 73.1ZM183.953 73.1C183.623 73.1 183.326 73.04 183.063 72.92C182.803 72.7967 182.598 72.6217 182.448 72.395C182.301 72.165 182.228 71.8867 182.228 71.56C182.228 70.99 182.433 70.56 182.843 70.27C183.256 69.98 183.913 69.8283 184.813 69.815L185.588 69.795V69.445C185.588 69.1717 185.506 68.9583 185.343 68.805C185.183 68.6483 184.933 68.5717 184.593 68.575C184.339 68.5783 184.109 68.6383 183.903 68.755C183.696 68.8683 183.559 69.06 183.493 69.33H182.458C182.478 68.9767 182.579 68.6817 182.763 68.445C182.949 68.205 183.204 68.0267 183.528 67.91C183.851 67.79 184.224 67.73 184.648 67.73C185.141 67.73 185.543 67.795 185.853 67.925C186.163 68.055 186.391 68.2433 186.538 68.49C186.684 68.7333 186.758 69.0283 186.758 69.375V73H185.733L185.633 72.07C185.449 72.46 185.214 72.73 184.928 72.88C184.644 73.0267 184.319 73.1 183.953 73.1ZM184.348 72.275C184.498 72.275 184.646 72.2483 184.793 72.195C184.939 72.1383 185.071 72.0633 185.188 71.97C185.308 71.8733 185.403 71.7667 185.473 71.65C185.546 71.5333 185.584 71.4117 185.588 71.285V70.47L184.953 70.48C184.639 70.4833 184.364 70.5167 184.128 70.58C183.894 70.6433 183.713 70.745 183.583 70.885C183.453 71.0217 183.388 71.205 183.388 71.435C183.388 71.6983 183.479 71.905 183.663 72.055C183.846 72.2017 184.074 72.275 184.348 72.275ZM189.543 73.075C189.21 73.075 188.943 73.0333 188.743 72.95C188.543 72.8667 188.393 72.755 188.293 72.615C188.193 72.475 188.128 72.3183 188.098 72.145C188.068 71.9683 188.053 71.7883 188.053 71.605V65.57H189.243V71.465C189.243 71.6883 189.288 71.8617 189.378 71.985C189.472 72.1083 189.622 72.18 189.828 72.2L190.088 72.21V72.975C189.998 73.0017 189.907 73.025 189.813 73.045C189.72 73.065 189.63 73.075 189.543 73.075ZM193.239 73.1C192.742 73.1 192.304 72.995 191.924 72.785C191.547 72.5717 191.252 72.2683 191.039 71.875C190.829 71.4817 190.724 71.0133 190.724 70.47C190.724 69.94 190.819 69.47 191.009 69.06C191.202 68.6467 191.48 68.3217 191.844 68.085C192.21 67.8483 192.652 67.73 193.169 67.73C193.679 67.73 194.107 67.8383 194.454 68.055C194.8 68.2717 195.064 68.575 195.244 68.965C195.424 69.3517 195.514 69.805 195.514 70.325V70.695H191.939C191.935 70.9883 191.982 71.2483 192.079 71.475C192.175 71.7017 192.319 71.88 192.509 72.01C192.699 72.1367 192.934 72.2 193.214 72.2C193.5 72.2 193.749 72.1367 193.959 72.01C194.172 71.88 194.314 71.6833 194.384 71.42H195.494C195.434 71.78 195.29 72.085 195.064 72.335C194.84 72.585 194.567 72.775 194.244 72.905C193.924 73.035 193.589 73.1 193.239 73.1ZM191.934 69.94H194.364C194.364 69.69 194.319 69.465 194.229 69.265C194.142 69.0617 194.01 68.9017 193.834 68.785C193.657 68.665 193.434 68.605 193.164 68.605C192.897 68.605 192.672 68.67 192.489 68.8C192.305 68.93 192.167 69.0983 192.074 69.305C191.98 69.5083 191.934 69.72 191.934 69.94ZM198.637 73.1C198.277 73.1 197.935 73.0433 197.612 72.93C197.292 72.8133 197.022 72.6317 196.802 72.385C196.585 72.1383 196.448 71.82 196.392 71.43H197.462C197.508 71.62 197.59 71.775 197.707 71.895C197.827 72.015 197.967 72.1033 198.127 72.16C198.29 72.2133 198.458 72.24 198.632 72.24C198.942 72.24 199.192 72.1867 199.382 72.08C199.572 71.9733 199.667 71.8083 199.667 71.585C199.667 71.4217 199.613 71.2917 199.507 71.195C199.403 71.0983 199.233 71.025 198.997 70.975L198.017 70.75C197.577 70.6533 197.225 70.4933 196.962 70.27C196.698 70.0467 196.565 69.7317 196.562 69.325C196.558 69.0183 196.635 68.745 196.792 68.505C196.948 68.265 197.182 68.0767 197.492 67.94C197.802 67.8 198.183 67.73 198.637 67.73C199.24 67.73 199.723 67.865 200.087 68.135C200.453 68.4017 200.642 68.7833 200.652 69.28H199.617C199.58 69.0567 199.475 68.8833 199.302 68.76C199.128 68.6333 198.903 68.57 198.627 68.57C198.34 68.57 198.105 68.625 197.922 68.735C197.738 68.845 197.647 69.0133 197.647 69.24C197.647 69.3967 197.715 69.52 197.852 69.61C197.992 69.7 198.203 69.7767 198.487 69.84L199.417 70.065C199.683 70.1317 199.902 70.2217 200.072 70.335C200.242 70.4483 200.373 70.5733 200.467 70.71C200.563 70.8433 200.63 70.9817 200.667 71.125C200.707 71.265 200.727 71.395 200.727 71.515C200.727 71.8483 200.64 72.1333 200.467 72.37C200.297 72.6033 200.055 72.7833 199.742 72.91C199.432 73.0367 199.063 73.1 198.637 73.1Z" fill="white"/>
<rect x="151" y="51" width="51" height="41" fill="#014063"/>
<path d="M256.923 8.61108C238.873 8.61108 219.222 13.051 219.222 22.7062C219.222 32.3613 238.873 36.8013 256.923 36.8013C274.974 36.8013 294.375 32.3613 294.375 22.7062C294.375 13.051 274.974 8.61108 256.923 8.61108Z" fill="#014063"/>
<path fill-rule="evenodd" clip-rule="evenodd" d="M256.923 44.5542C242.767 44.5542 227.761 42.058 219.222 36.0678V86.3697C219.222 96.0248 238.872 100.465 256.923 100.465C274.974 100.465 294.375 96.0248 294.375 86.3697V36.567C285.836 42.5572 271.08 44.5542 256.923 44.5542ZM258.352 56.5346C251.289 56.5346 246.548 60.6795 246.548 68.6815V74.369C247.225 74.0316 248 73.8386 248.822 73.8386C249.644 73.8386 250.418 74.0316 251.144 74.369V68.633C251.144 63.4273 253.998 60.7765 258.352 60.7765C262.706 60.7765 265.56 63.4273 265.56 68.633V81.1173H270.155V68.633C270.204 60.5836 265.415 56.5346 258.352 56.5346ZM234.696 71.6702C235.084 71.0428 235.616 70.5609 236.196 70.272C237.261 69.7416 238.567 69.7416 239.68 70.2235C240.696 70.8509 241.18 71.9106 241.47 72.9713C241.858 74.3209 242.341 75.3332 243.551 76.0565C244.76 76.7799 245.921 76.6354 247.276 76.298C248.388 76.0576 249.549 75.9121 250.565 76.491C251.677 77.1173 252.354 78.2255 252.403 79.4307V79.9125C252.307 81.0692 251.677 82.2259 250.565 82.8523C249.501 83.4786 248.34 83.334 247.276 83.045C245.922 82.7078 244.761 82.5623 243.551 83.2855C242.292 83.9603 241.857 85.0214 241.47 86.3706C241.18 87.4317 240.696 88.541 239.68 89.1186C238.567 89.7449 237.261 89.7449 236.196 89.2145C235.567 88.9247 235.083 88.4429 234.696 87.8163C234.309 87.19 234.164 86.5152 234.212 85.8403C234.309 84.6837 234.938 83.5272 236.05 82.9009C237.114 82.2744 238.275 82.4189 239.34 82.7078C240.694 83.045 241.855 83.1895 243.064 82.4663H243.113C245.194 81.2622 245.194 78.2255 243.113 77.0203H243.064C241.856 76.2969 240.695 76.4414 239.34 76.7788C238.227 77.0192 237.066 77.1636 236.05 76.5858C234.938 75.9595 234.261 74.8514 234.212 73.6461C234.165 72.9713 234.31 72.2965 234.696 71.6702Z" fill="#014063"/>
<path d="M96.2569 8.61108C78.2061 8.61108 58.5559 13.051 58.5559 22.7062C58.5559 32.3613 78.2061 36.8013 96.2569 36.8013C114.308 36.8013 133.708 32.3613 133.708 22.7062C133.708 13.051 114.308 8.61108 96.2569 8.61108Z" fill="#014063"/>
<path fill-rule="evenodd" clip-rule="evenodd" d="M96.2567 44.5542C82.1001 44.5542 67.0946 42.058 58.5557 36.0678V86.3697C58.5557 96.0248 78.2059 100.465 96.2567 100.465C114.308 100.465 133.708 96.0248 133.708 86.3697V36.567C125.169 42.5572 110.413 44.5542 96.2567 44.5542ZM97.6853 56.5346C90.6224 56.5346 85.8816 60.6795 85.8816 68.6815V74.369C86.5586 74.0316 87.333 73.8386 88.1551 73.8386C88.9772 73.8386 89.7516 74.0316 90.4773 74.369V68.633C90.4773 63.4273 93.3312 60.7765 97.6853 60.7765C102.039 60.7765 104.893 63.4273 104.893 68.633V81.1173H109.489V68.633C109.538 60.5836 104.748 56.5346 97.6853 56.5346ZM74.0299 71.6702C74.4176 71.0428 74.9494 70.5609 75.53 70.272C76.5947 69.7416 77.9009 69.7416 79.0132 70.2235C80.0292 70.8509 80.5133 71.9106 80.8036 72.9713C81.1914 74.3209 81.6744 75.3332 82.8843 76.0565C84.093 76.7799 85.2541 76.6354 86.6091 76.298C87.7214 76.0576 88.8825 75.9121 89.8985 76.491C91.0108 77.1173 91.6877 78.2255 91.7365 79.4307V79.9125C91.6401 81.0692 91.0108 82.2259 89.8985 82.8523C88.8348 83.4786 87.6738 83.334 86.6091 83.045C85.2552 82.7078 84.0941 82.5623 82.8843 83.2855C81.6257 83.9603 81.1903 85.0214 80.8036 86.3706C80.5133 87.4317 80.0292 88.541 79.0132 89.1186C77.9009 89.7449 76.5947 89.7449 75.53 89.2145C74.9007 88.9247 74.4166 88.4429 74.0299 87.8163C73.6421 87.19 73.497 86.5152 73.5457 85.8403C73.6421 84.6837 74.2714 83.5272 75.3838 82.9009C76.4474 82.2744 77.6085 82.4189 78.6732 82.7078C80.0271 83.045 81.1881 83.1895 82.398 82.4663H82.4467C84.5273 81.2622 84.5273 78.2255 82.4467 77.0203H82.398C81.1892 76.2969 80.0281 76.4414 78.6732 76.7788C77.5608 77.0192 76.3997 77.1636 75.3838 76.5858C74.2714 75.9595 73.5945 74.8514 73.5457 73.6461C73.4981 72.9713 73.6432 72.2965 74.0299 71.6702Z" fill="#014063"/>
<rect x="10.3335" y="56.8333" width="58.5556" height="31" fill="white"/>
<rect x="24.1111" y="77.5" width="34.4444" height="32.7222" fill="#8FE3E8"/>
<path d="M41.1927 47.7916C27.6546 47.7916 12.9169 51.1216 12.9169 58.363C12.9169 65.6043 27.6546 68.9343 41.1927 68.9343C54.7308 68.9343 69.2812 65.6043 69.2812 58.363C69.2812 51.1216 54.7308 47.7916 41.1927 47.7916Z" fill="#8FE3E8"/>
<path fill-rule="evenodd" clip-rule="evenodd" d="M41.1925 74.749C30.5751 74.749 19.3209 72.8768 12.9167 68.3842V106.111C12.9167 113.352 27.6544 116.682 41.1925 116.682C54.7307 116.682 69.2811 113.352 69.2811 106.111V68.7586C62.8769 73.2512 51.81 74.749 41.1925 74.749ZM42.264 83.7342C36.9668 83.7342 33.4112 86.8429 33.4112 92.8444V97.1101C33.9189 96.857 34.4998 96.7123 35.1163 96.7123C35.7329 96.7123 36.3137 96.857 36.858 97.1101V92.808C36.858 88.9038 38.9984 86.9157 42.264 86.9157C45.5296 86.9157 47.67 88.9038 47.67 92.808V102.171H51.1167V92.808C51.1533 86.771 47.5612 83.7342 42.264 83.7342ZM24.5224 95.0859C24.8132 94.6154 25.2121 94.254 25.6475 94.0373C26.446 93.6395 27.4257 93.6395 28.2599 94.0009C29.0219 94.4715 29.385 95.2662 29.6027 96.0618C29.8935 97.074 30.2558 97.8332 31.1632 98.3757C32.0698 98.9182 32.9406 98.8099 33.9568 98.5568C34.7911 98.3765 35.6619 98.2674 36.4238 98.7015C37.2581 99.1713 37.7658 100.002 37.8024 100.906V101.268C37.73 102.135 37.2581 103.003 36.4238 103.473C35.6261 103.942 34.7553 103.834 33.9568 103.617C32.9414 103.364 32.0706 103.255 31.1632 103.797C30.2193 104.304 29.8927 105.099 29.6027 106.111C29.385 106.907 29.0219 107.739 28.2599 108.172C27.4257 108.642 26.446 108.642 25.6475 108.244C25.1755 108.027 24.8124 107.666 24.5224 107.196C24.2316 106.726 24.1228 106.22 24.1593 105.714C24.2316 104.846 24.7036 103.979 25.5378 103.509C26.3355 103.039 27.2063 103.147 28.0049 103.364C29.0203 103.617 29.8911 103.725 30.7985 103.183H30.835C32.3955 102.28 32.3955 100.002 30.835 99.0985H30.7985C29.8919 98.556 29.0211 98.6643 28.0049 98.9174C27.1706 99.0977 26.2998 99.206 25.5378 98.7727C24.7036 98.3029 24.1959 97.4718 24.1593 96.5679C24.1236 96.0618 24.2324 95.5557 24.5224 95.0859Z" fill="#8FE3E8"/>
<path d="M26.47 96.1C26.11 96.1 25.765 96.0567 25.435 95.97C25.105 95.88 24.8033 95.7483 24.53 95.575C24.26 95.3983 24.0367 95.18 23.86 94.92C23.6833 94.6567 23.575 94.35 23.535 94H24.795C24.8483 94.2433 24.9533 94.4483 25.11 94.615C25.27 94.7817 25.4717 94.9083 25.715 94.995C25.9583 95.0817 26.23 95.125 26.53 95.125C26.7967 95.125 27.045 95.085 27.275 95.005C27.505 94.925 27.6917 94.8067 27.835 94.65C27.9783 94.49 28.05 94.2933 28.05 94.06C28.05 93.7967 27.9567 93.5917 27.77 93.445C27.5867 93.295 27.3233 93.1767 26.98 93.09L25.565 92.755C25.1983 92.6717 24.8783 92.55 24.605 92.39C24.335 92.23 24.125 92.02 23.975 91.76C23.825 91.4967 23.75 91.175 23.75 90.795C23.75 90.3617 23.8683 89.9867 24.105 89.67C24.345 89.3533 24.67 89.11 25.08 88.94C25.49 88.7667 25.9517 88.68 26.465 88.68C27.0517 88.68 27.5467 88.7783 27.95 88.975C28.3533 89.1683 28.66 89.4283 28.87 89.755C29.08 90.0817 29.1867 90.44 29.19 90.83H27.96C27.9333 90.54 27.8483 90.3117 27.705 90.145C27.5617 89.975 27.38 89.8517 27.16 89.775C26.94 89.6983 26.6967 89.66 26.43 89.66C25.9567 89.66 25.605 89.7617 25.375 89.965C25.145 90.1683 25.03 90.4067 25.03 90.68C25.03 90.9367 25.115 91.14 25.285 91.29C25.455 91.44 25.715 91.5567 26.065 91.64L27.41 91.955C27.86 92.0483 28.2217 92.1917 28.495 92.385C28.7683 92.5783 28.9667 92.8083 29.09 93.075C29.2167 93.3383 29.28 93.63 29.28 93.95C29.28 94.37 29.16 94.7417 28.92 95.065C28.6833 95.3883 28.355 95.6417 27.935 95.825C27.515 96.0083 27.0267 96.1 26.47 96.1ZM31.2302 97.65C30.8969 97.65 30.6652 97.6233 30.5352 97.57C30.4052 97.52 30.3402 97.495 30.3402 97.495V96.715L30.8602 96.73C31.0702 96.74 31.2402 96.7283 31.3702 96.695C31.5036 96.6617 31.6069 96.615 31.6802 96.555C31.7536 96.4983 31.8069 96.4367 31.8402 96.37C31.8769 96.3067 31.9052 96.2517 31.9252 96.205L32.0602 95.825L30.0452 90.83H31.2552L32.6302 94.485L34.0002 90.83H35.1902L33.0602 96.19C32.9002 96.58 32.7269 96.88 32.5402 97.09C32.3569 97.3033 32.1552 97.45 31.9352 97.53C31.7186 97.61 31.4836 97.65 31.2302 97.65ZM37.9161 96.1C37.5561 96.1 37.2144 96.0433 36.8911 95.93C36.5711 95.8133 36.3011 95.6317 36.0811 95.385C35.8644 95.1383 35.7278 94.82 35.6711 94.43H36.7411C36.7878 94.62 36.8694 94.775 36.9861 94.895C37.1061 95.015 37.2461 95.1033 37.4061 95.16C37.5694 95.2133 37.7378 95.24 37.9111 95.24C38.2211 95.24 38.4711 95.1867 38.6611 95.08C38.8511 94.9733 38.9461 94.8083 38.9461 94.585C38.9461 94.4217 38.8928 94.2917 38.7861 94.195C38.6828 94.0983 38.5128 94.025 38.2761 93.975L37.2961 93.75C36.8561 93.6533 36.5044 93.4933 36.2411 93.27C35.9778 93.0467 35.8444 92.7317 35.8411 92.325C35.8378 92.0183 35.9144 91.745 36.0711 91.505C36.2278 91.265 36.4611 91.0767 36.7711 90.94C37.0811 90.8 37.4628 90.73 37.9161 90.73C38.5194 90.73 39.0028 90.865 39.3661 91.135C39.7328 91.4017 39.9211 91.7833 39.9311 92.28H38.8961C38.8594 92.0567 38.7544 91.8833 38.5811 91.76C38.4078 91.6333 38.1828 91.57 37.9061 91.57C37.6194 91.57 37.3844 91.625 37.2011 91.735C37.0178 91.845 36.9261 92.0133 36.9261 92.24C36.9261 92.3967 36.9944 92.52 37.1311 92.61C37.2711 92.7 37.4828 92.7767 37.7661 92.84L38.6961 93.065C38.9628 93.1317 39.1811 93.2217 39.3511 93.335C39.5211 93.4483 39.6528 93.5733 39.7461 93.71C39.8428 93.8433 39.9094 93.9817 39.9461 94.125C39.9861 94.265 40.0061 94.395 40.0061 94.515C40.0061 94.8483 39.9194 95.1333 39.7461 95.37C39.5761 95.6033 39.3344 95.7833 39.0211 95.91C38.7111 96.0367 38.3428 96.1 37.9161 96.1ZM43.1283 96.04C42.7183 96.04 42.3999 95.9867 42.1733 95.88C41.9499 95.77 41.7949 95.615 41.7083 95.415C41.6216 95.215 41.5783 94.9767 41.5783 94.7V91.69H40.7383V90.83H41.6133L41.9183 89.295H42.7933V90.825H43.9483V91.69H42.7933L42.7983 94.655C42.7983 94.8083 42.8149 94.9217 42.8483 94.995C42.8849 95.065 42.9416 95.1117 43.0183 95.135C43.0983 95.155 43.2033 95.165 43.3333 95.165H43.9733V95.935C43.9033 95.9617 43.7999 95.985 43.6633 96.005C43.5299 96.0283 43.3516 96.04 43.1283 96.04ZM47.2348 96.1C46.7381 96.1 46.2998 95.995 45.9198 95.785C45.5431 95.5717 45.2481 95.2683 45.0348 94.875C44.8248 94.4817 44.7198 94.0133 44.7198 93.47C44.7198 92.94 44.8148 92.47 45.0048 92.06C45.1981 91.6467 45.4764 91.3217 45.8398 91.085C46.2064 90.8483 46.6481 90.73 47.1648 90.73C47.6748 90.73 48.1031 90.8383 48.4498 91.055C48.7964 91.2717 49.0598 91.575 49.2398 91.965C49.4198 92.3517 49.5098 92.805 49.5098 93.325V93.695H45.9348C45.9314 93.9883 45.9781 94.2483 46.0748 94.475C46.1714 94.7017 46.3148 94.88 46.5048 95.01C46.6948 95.1367 46.9298 95.2 47.2098 95.2C47.4964 95.2 47.7448 95.1367 47.9548 95.01C48.1681 94.88 48.3098 94.6833 48.3798 94.42H49.4898C49.4298 94.78 49.2864 95.085 49.0598 95.335C48.8364 95.585 48.5631 95.775 48.2398 95.905C47.9198 96.035 47.5848 96.1 47.2348 96.1ZM45.9298 92.94H48.3598C48.3598 92.69 48.3148 92.465 48.2248 92.265C48.1381 92.0617 48.0064 91.9017 47.8298 91.785C47.6531 91.665 47.4298 91.605 47.1598 91.605C46.8931 91.605 46.6681 91.67 46.4848 91.8C46.3014 91.93 46.1631 92.0983 46.0698 92.305C45.9764 92.5083 45.9298 92.72 45.9298 92.94ZM50.6724 96V90.83H51.8574V91.57C52.0074 91.3433 52.2108 91.1467 52.4674 90.98C52.7274 90.8133 53.0574 90.73 53.4574 90.73C53.6408 90.73 53.8258 90.7617 54.0124 90.825C54.2024 90.8883 54.3774 90.9817 54.5374 91.105C54.7008 91.2283 54.8308 91.3817 54.9274 91.565C55.0908 91.3217 55.3074 91.1217 55.5774 90.965C55.8508 90.8083 56.1574 90.73 56.4974 90.73C56.6841 90.73 56.8758 90.76 57.0724 90.82C57.2724 90.88 57.4558 90.98 57.6224 91.12C57.7891 91.26 57.9241 91.4517 58.0274 91.695C58.1308 91.935 58.1824 92.2367 58.1824 92.6V96H56.9674V92.745C56.9674 92.4883 56.9224 92.2867 56.8324 92.14C56.7424 91.9933 56.6258 91.89 56.4824 91.83C56.3424 91.7667 56.1924 91.735 56.0324 91.735C55.8891 91.735 55.7391 91.7633 55.5824 91.82C55.4291 91.8767 55.2974 91.97 55.1874 92.1C55.0808 92.23 55.0274 92.405 55.0274 92.625V96H53.8124V92.55C53.8124 92.37 53.7658 92.22 53.6724 92.1C53.5791 91.98 53.4608 91.89 53.3174 91.83C53.1774 91.7667 53.0341 91.735 52.8874 91.735C52.7374 91.735 52.5841 91.7667 52.4274 91.83C52.2741 91.8933 52.1458 91.99 52.0424 92.12C51.9391 92.25 51.8874 92.4183 51.8874 92.625V96H50.6724Z" fill="black"/>
<path d="M26.47 96.1C26.11 96.1 25.765 96.0567 25.435 95.97C25.105 95.88 24.8033 95.7483 24.53 95.575C24.26 95.3983 24.0367 95.18 23.86 94.92C23.6833 94.6567 23.575 94.35 23.535 94H24.795C24.8483 94.2433 24.9533 94.4483 25.11 94.615C25.27 94.7817 25.4717 94.9083 25.715 94.995C25.9583 95.0817 26.23 95.125 26.53 95.125C26.7967 95.125 27.045 95.085 27.275 95.005C27.505 94.925 27.6917 94.8067 27.835 94.65C27.9783 94.49 28.05 94.2933 28.05 94.06C28.05 93.7967 27.9567 93.5917 27.77 93.445C27.5867 93.295 27.3233 93.1767 26.98 93.09L25.565 92.755C25.1983 92.6717 24.8783 92.55 24.605 92.39C24.335 92.23 24.125 92.02 23.975 91.76C23.825 91.4967 23.75 91.175 23.75 90.795C23.75 90.3617 23.8683 89.9867 24.105 89.67C24.345 89.3533 24.67 89.11 25.08 88.94C25.49 88.7667 25.9517 88.68 26.465 88.68C27.0517 88.68 27.5467 88.7783 27.95 88.975C28.3533 89.1683 28.66 89.4283 28.87 89.755C29.08 90.0817 29.1867 90.44 29.19 90.83H27.96C27.9333 90.54 27.8483 90.3117 27.705 90.145C27.5617 89.975 27.38 89.8517 27.16 89.775C26.94 89.6983 26.6967 89.66 26.43 89.66C25.9567 89.66 25.605 89.7617 25.375 89.965C25.145 90.1683 25.03 90.4067 25.03 90.68C25.03 90.9367 25.115 91.14 25.285 91.29C25.455 91.44 25.715 91.5567 26.065 91.64L27.41 91.955C27.86 92.0483 28.2217 92.1917 28.495 92.385C28.7683 92.5783 28.9667 92.8083 29.09 93.075C29.2167 93.3383 29.28 93.63 29.28 93.95C29.28 94.37 29.16 94.7417 28.92 95.065C28.6833 95.3883 28.355 95.6417 27.935 95.825C27.515 96.0083 27.0267 96.1 26.47 96.1ZM31.2302 97.65C30.8969 97.65 30.6652 97.6233 30.5352 97.57C30.4052 97.52 30.3402 97.495 30.3402 97.495V96.715L30.8602 96.73C31.0702 96.74 31.2402 96.7283 31.3702 96.695C31.5036 96.6617 31.6069 96.615 31.6802 96.555C31.7536 96.4983 31.8069 96.4367 31.8402 96.37C31.8769 96.3067 31.9052 96.2517 31.9252 96.205L32.0602 95.825L30.0452 90.83H31.2552L32.6302 94.485L34.0002 90.83H35.1902L33.0602 96.19C32.9002 96.58 32.7269 96.88 32.5402 97.09C32.3569 97.3033 32.1552 97.45 31.9352 97.53C31.7186 97.61 31.4836 97.65 31.2302 97.65ZM37.9161 96.1C37.5561 96.1 37.2144 96.0433 36.8911 95.93C36.5711 95.8133 36.3011 95.6317 36.0811 95.385C35.8644 95.1383 35.7278 94.82 35.6711 94.43H36.7411C36.7878 94.62 36.8694 94.775 36.9861 94.895C37.1061 95.015 37.2461 95.1033 37.4061 95.16C37.5694 95.2133 37.7378 95.24 37.9111 95.24C38.2211 95.24 38.4711 95.1867 38.6611 95.08C38.8511 94.9733 38.9461 94.8083 38.9461 94.585C38.9461 94.4217 38.8928 94.2917 38.7861 94.195C38.6828 94.0983 38.5128 94.025 38.2761 93.975L37.2961 93.75C36.8561 93.6533 36.5044 93.4933 36.2411 93.27C35.9778 93.0467 35.8444 92.7317 35.8411 92.325C35.8378 92.0183 35.9144 91.745 36.0711 91.505C36.2278 91.265 36.4611 91.0767 36.7711 90.94C37.0811 90.8 37.4628 90.73 37.9161 90.73C38.5194 90.73 39.0028 90.865 39.3661 91.135C39.7328 91.4017 39.9211 91.7833 39.9311 92.28H38.8961C38.8594 92.0567 38.7544 91.8833 38.5811 91.76C38.4078 91.6333 38.1828 91.57 37.9061 91.57C37.6194 91.57 37.3844 91.625 37.2011 91.735C37.0178 91.845 36.9261 92.0133 36.9261 92.24C36.9261 92.3967 36.9944 92.52 37.1311 92.61C37.2711 92.7 37.4828 92.7767 37.7661 92.84L38.6961 93.065C38.9628 93.1317 39.1811 93.2217 39.3511 93.335C39.5211 93.4483 39.6528 93.5733 39.7461 93.71C39.8428 93.8433 39.9094 93.9817 39.9461 94.125C39.9861 94.265 40.0061 94.395 40.0061 94.515C40.0061 94.8483 39.9194 95.1333 39.7461 95.37C39.5761 95.6033 39.3344 95.7833 39.0211 95.91C38.7111 96.0367 38.3428 96.1 37.9161 96.1ZM43.1283 96.04C42.7183 96.04 42.3999 95.9867 42.1733 95.88C41.9499 95.77 41.7949 95.615 41.7083 95.415C41.6216 95.215 41.5783 94.9767 41.5783 94.7V91.69H40.7383V90.83H41.6133L41.9183 89.295H42.7933V90.825H43.9483V91.69H42.7933L42.7983 94.655C42.7983 94.8083 42.8149 94.9217 42.8483 94.995C42.8849 95.065 42.9416 95.1117 43.0183 95.135C43.0983 95.155 43.2033 95.165 43.3333 95.165H43.9733V95.935C43.9033 95.9617 43.7999 95.985 43.6633 96.005C43.5299 96.0283 43.3516 96.04 43.1283 96.04ZM47.2348 96.1C46.7381 96.1 46.2998 95.995 45.9198 95.785C45.5431 95.5717 45.2481 95.2683 45.0348 94.875C44.8248 94.4817 44.7198 94.0133 44.7198 93.47C44.7198 92.94 44.8148 92.47 45.0048 92.06C45.1981 91.6467 45.4764 91.3217 45.8398 91.085C46.2064 90.8483 46.6481 90.73 47.1648 90.73C47.6748 90.73 48.1031 90.8383 48.4498 91.055C48.7964 91.2717 49.0598 91.575 49.2398 91.965C49.4198 92.3517 49.5098 92.805 49.5098 93.325V93.695H45.9348C45.9314 93.9883 45.9781 94.2483 46.0748 94.475C46.1714 94.7017 46.3148 94.88 46.5048 95.01C46.6948 95.1367 46.9298 95.2 47.2098 95.2C47.4964 95.2 47.7448 95.1367 47.9548 95.01C48.1681 94.88 48.3098 94.6833 48.3798 94.42H49.4898C49.4298 94.78 49.2864 95.085 49.0598 95.335C48.8364 95.585 48.5631 95.775 48.2398 95.905C47.9198 96.035 47.5848 96.1 47.2348 96.1ZM45.9298 92.94H48.3598C48.3598 92.69 48.3148 92.465 48.2248 92.265C48.1381 92.0617 48.0064 91.9017 47.8298 91.785C47.6531 91.665 47.4298 91.605 47.1598 91.605C46.8931 91.605 46.6681 91.67 46.4848 91.8C46.3014 91.93 46.1631 92.0983 46.0698 92.305C45.9764 92.5083 45.9298 92.72 45.9298 92.94ZM50.6724 96V90.83H51.8574V91.57C52.0074 91.3433 52.2108 91.1467 52.4674 90.98C52.7274 90.8133 53.0574 90.73 53.4574 90.73C53.6408 90.73 53.8258 90.7617 54.0124 90.825C54.2024 90.8883 54.3774 90.9817 54.5374 91.105C54.7008 91.2283 54.8308 91.3817 54.9274 91.565C55.0908 91.3217 55.3074 91.1217 55.5774 90.965C55.8508 90.8083 56.1574 90.73 56.4974 90.73C56.6841 90.73 56.8758 90.76 57.0724 90.82C57.2724 90.88 57.4558 90.98 57.6224 91.12C57.7891 91.26 57.9241 91.4517 58.0274 91.695C58.1308 91.935 58.1824 92.2367 58.1824 92.6V96H56.9674V92.745C56.9674 92.4883 56.9224 92.2867 56.8324 92.14C56.7424 91.9933 56.6258 91.89 56.4824 91.83C56.3424 91.7667 56.1924 91.735 56.0324 91.735C55.8891 91.735 55.7391 91.7633 55.5824 91.82C55.4291 91.8767 55.2974 91.97 55.1874 92.1C55.0808 92.23 55.0274 92.405 55.0274 92.625V96H53.8124V92.55C53.8124 92.37 53.7658 92.22 53.6724 92.1C53.5791 91.98 53.4608 91.89 53.3174 91.83C53.1774 91.7667 53.0341 91.735 52.8874 91.735C52.7374 91.735 52.5841 91.7667 52.4274 91.83C52.2741 91.8933 52.1458 91.99 52.0424 92.12C51.9391 92.25 51.8874 92.4183 51.8874 92.625V96H50.6724Z" fill="black"/>
<path d="M77.875 72V64.77H79.615L81.51 70.295L83.425 64.77H85.155V72H83.92V66.33L82.015 72H81L79.11 66.365V72H77.875ZM88.1987 72.1C87.8687 72.1 87.572 72.04 87.3087 71.92C87.0487 71.7967 86.8437 71.6217 86.6937 71.395C86.547 71.165 86.4737 70.8867 86.4737 70.56C86.4737 69.99 86.6787 69.56 87.0887 69.27C87.502 68.98 88.1587 68.8283 89.0587 68.815L89.8337 68.795V68.445C89.8337 68.1717 89.752 67.9583 89.5887 67.805C89.4287 67.6483 89.1787 67.5717 88.8387 67.575C88.5853 67.5783 88.3553 67.6383 88.1487 67.755C87.942 67.8683 87.8053 68.06 87.7387 68.33H86.7037C86.7237 67.9767 86.8253 67.6817 87.0087 67.445C87.1953 67.205 87.4503 67.0267 87.7737 66.91C88.097 66.79 88.4703 66.73 88.8937 66.73C89.387 66.73 89.7887 66.795 90.0987 66.925C90.4087 67.055 90.637 67.2433 90.7837 67.49C90.9303 67.7333 91.0037 68.0283 91.0037 68.375V72H89.9787L89.8787 71.07C89.6953 71.46 89.4603 71.73 89.1737 71.88C88.8903 72.0267 88.5653 72.1 88.1987 72.1ZM88.5937 71.275C88.7437 71.275 88.892 71.2483 89.0387 71.195C89.1853 71.1383 89.317 71.0633 89.4337 70.97C89.5537 70.8733 89.6487 70.7667 89.7187 70.65C89.792 70.5333 89.8303 70.4117 89.8337 70.285V69.47L89.1987 69.48C88.8853 69.4833 88.6103 69.5167 88.3737 69.58C88.1403 69.6433 87.9587 69.745 87.8287 69.885C87.6987 70.0217 87.6337 70.205 87.6337 70.435C87.6337 70.6983 87.7253 70.905 87.9087 71.055C88.092 71.2017 88.3203 71.275 88.5937 71.275ZM92.2994 72V66.83H93.4644V67.95C93.5477 67.6933 93.666 67.475 93.8194 67.295C93.976 67.1117 94.1594 66.9717 94.3694 66.875C94.5794 66.7783 94.8077 66.73 95.0544 66.73C95.1144 66.73 95.1727 66.7333 95.2294 66.74C95.286 66.7467 95.3277 66.7583 95.3544 66.775V67.94C95.3177 67.9233 95.2694 67.9117 95.2094 67.905C95.1527 67.8983 95.1027 67.895 95.0594 67.895C94.8094 67.875 94.5877 67.885 94.3944 67.925C94.2044 67.965 94.0427 68.0333 93.9094 68.13C93.7794 68.2233 93.681 68.3433 93.6144 68.49C93.5477 68.6333 93.5144 68.8017 93.5144 68.995V72H92.2994ZM96.3228 72V64.57H97.5328V69.175L99.6778 66.83H101.013L99.1428 68.85L101.108 72H99.8728L98.3728 69.605L97.5328 70.485V72H96.3228ZM104.077 72.1C103.58 72.1 103.142 71.995 102.762 71.785C102.385 71.5717 102.09 71.2683 101.877 70.875C101.667 70.4817 101.562 70.0133 101.562 69.47C101.562 68.94 101.657 68.47 101.847 68.06C102.04 67.6467 102.318 67.3217 102.682 67.085C103.048 66.8483 103.49 66.73 104.007 66.73C104.517 66.73 104.945 66.8383 105.292 67.055C105.638 67.2717 105.902 67.575 106.082 67.965C106.262 68.3517 106.352 68.805 106.352 69.325V69.695H102.777C102.773 69.9883 102.82 70.2483 102.917 70.475C103.013 70.7017 103.157 70.88 103.347 71.01C103.537 71.1367 103.772 71.2 104.052 71.2C104.338 71.2 104.587 71.1367 104.797 71.01C105.01 70.88 105.152 70.6833 105.222 70.42H106.332C106.272 70.78 106.128 71.085 105.902 71.335C105.678 71.585 105.405 71.775 105.082 71.905C104.762 72.035 104.427 72.1 104.077 72.1ZM102.772 68.94H105.202C105.202 68.69 105.157 68.465 105.067 68.265C104.98 68.0617 104.848 67.9017 104.672 67.785C104.495 67.665 104.272 67.605 104.002 67.605C103.735 67.605 103.51 67.67 103.327 67.8C103.143 67.93 103.005 68.0983 102.912 68.305C102.818 68.5083 102.772 68.72 102.772 68.94ZM109.394 72.04C108.984 72.04 108.666 71.9867 108.439 71.88C108.216 71.77 108.061 71.615 107.974 71.415C107.887 71.215 107.844 70.9767 107.844 70.7V67.69H107.004V66.83H107.879L108.184 65.295H109.059V66.825H110.214V67.69H109.059L109.064 70.655C109.064 70.8083 109.081 70.9217 109.114 70.995C109.151 71.065 109.207 71.1117 109.284 71.135C109.364 71.155 109.469 71.165 109.599 71.165H110.239V71.935C110.169 71.9617 110.066 71.985 109.929 72.005C109.796 72.0283 109.617 72.04 109.394 72.04ZM111.382 72V66.83H112.547V72H111.382ZM111.362 65.925V64.775H112.567V65.925H111.362ZM113.989 72V66.83H115.179V67.57C115.259 67.4367 115.367 67.3083 115.504 67.185C115.644 67.0617 115.815 66.9617 116.019 66.885C116.222 66.8083 116.46 66.77 116.734 66.77C117.054 66.77 117.35 66.8333 117.624 66.96C117.9 67.0867 118.122 67.285 118.289 67.555C118.459 67.825 118.544 68.1733 118.544 68.6V72H117.324V68.745C117.324 68.405 117.23 68.1533 117.044 67.99C116.857 67.8233 116.622 67.74 116.339 67.74C116.145 67.74 115.962 67.7733 115.789 67.84C115.615 67.9033 115.474 68.0017 115.364 68.135C115.257 68.265 115.204 68.4283 115.204 68.625V72H113.989ZM122.148 73.71C121.278 73.71 120.61 73.5933 120.143 73.36C119.677 73.1267 119.443 72.8067 119.443 72.4C119.443 72.2167 119.488 72.0633 119.578 71.94C119.668 71.8167 119.775 71.715 119.898 71.635C120.022 71.555 120.135 71.4933 120.238 71.45C120.342 71.4067 120.408 71.375 120.438 71.355C120.382 71.3217 120.307 71.2783 120.213 71.225C120.12 71.1717 120.035 71.0983 119.958 71.005C119.885 70.9117 119.848 70.79 119.848 70.64C119.848 70.4667 119.93 70.3067 120.093 70.16C120.26 70.0133 120.508 69.9083 120.838 69.845C120.515 69.6883 120.267 69.4767 120.093 69.21C119.92 68.9433 119.833 68.6667 119.833 68.38C119.833 68.04 119.932 67.7483 120.128 67.505C120.328 67.2617 120.605 67.075 120.958 66.945C121.312 66.815 121.723 66.75 122.193 66.75C122.537 66.75 122.822 66.7883 123.048 66.865C123.278 66.9417 123.492 67.045 123.688 67.175C123.755 67.1483 123.848 67.1117 123.968 67.065C124.088 67.015 124.22 66.9617 124.363 66.905C124.507 66.845 124.645 66.7883 124.778 66.735C124.912 66.6783 125.023 66.6317 125.113 66.595L125.108 67.6L124.213 67.76C124.257 67.8567 124.29 67.9617 124.313 68.075C124.34 68.1883 124.353 68.2883 124.353 68.375C124.353 68.675 124.268 68.9533 124.098 69.21C123.932 69.4633 123.68 69.6667 123.343 69.82C123.01 69.9733 122.593 70.05 122.093 70.05C122.043 70.05 121.975 70.0483 121.888 70.045C121.802 70.0417 121.732 70.0383 121.678 70.035C121.408 70.045 121.223 70.0767 121.123 70.13C121.023 70.1833 120.973 70.2417 120.973 70.305C120.973 70.395 121.048 70.455 121.198 70.485C121.348 70.515 121.588 70.5417 121.918 70.565C122.035 70.5717 122.188 70.58 122.378 70.59C122.568 70.6 122.78 70.6133 123.013 70.63C123.603 70.6667 124.05 70.815 124.353 71.075C124.657 71.3317 124.808 71.665 124.808 72.075C124.808 72.5517 124.588 72.9433 124.148 73.25C123.708 73.5567 123.042 73.71 122.148 73.71ZM122.353 72.995C122.79 72.995 123.113 72.935 123.323 72.815C123.533 72.695 123.638 72.5183 123.638 72.285C123.638 72.105 123.567 71.9583 123.423 71.845C123.28 71.7317 123.067 71.665 122.783 71.645L121.478 71.565C121.335 71.555 121.198 71.5817 121.068 71.645C120.942 71.705 120.838 71.79 120.758 71.9C120.678 72.0067 120.638 72.125 120.638 72.255C120.638 72.4983 120.777 72.6817 121.053 72.805C121.333 72.9317 121.767 72.995 122.353 72.995ZM122.133 69.335C122.45 69.335 122.707 69.255 122.903 69.095C123.1 68.9317 123.198 68.7017 123.198 68.405C123.198 68.0983 123.1 67.86 122.903 67.69C122.707 67.5167 122.45 67.43 122.133 67.43C121.81 67.43 121.548 67.5167 121.348 67.69C121.152 67.8633 121.053 68.1017 121.053 68.405C121.053 68.6917 121.148 68.9183 121.338 69.085C121.528 69.2517 121.793 69.335 122.133 69.335Z" fill="white"/>
<path d="M165.47 72.1C165.11 72.1 164.765 72.0567 164.435 71.97C164.105 71.88 163.803 71.7483 163.53 71.575C163.26 71.3983 163.037 71.18 162.86 70.92C162.683 70.6567 162.575 70.35 162.535 70H163.795C163.848 70.2433 163.953 70.4483 164.11 70.615C164.27 70.7817 164.472 70.9083 164.715 70.995C164.958 71.0817 165.23 71.125 165.53 71.125C165.797 71.125 166.045 71.085 166.275 71.005C166.505 70.925 166.692 70.8067 166.835 70.65C166.978 70.49 167.05 70.2933 167.05 70.06C167.05 69.7967 166.957 69.5917 166.77 69.445C166.587 69.295 166.323 69.1767 165.98 69.09L164.565 68.755C164.198 68.6717 163.878 68.55 163.605 68.39C163.335 68.23 163.125 68.02 162.975 67.76C162.825 67.4967 162.75 67.175 162.75 66.795C162.75 66.3617 162.868 65.9867 163.105 65.67C163.345 65.3533 163.67 65.11 164.08 64.94C164.49 64.7667 164.952 64.68 165.465 64.68C166.052 64.68 166.547 64.7783 166.95 64.975C167.353 65.1683 167.66 65.4283 167.87 65.755C168.08 66.0817 168.187 66.44 168.19 66.83H166.96C166.933 66.54 166.848 66.3117 166.705 66.145C166.562 65.975 166.38 65.8517 166.16 65.775C165.94 65.6983 165.697 65.66 165.43 65.66C164.957 65.66 164.605 65.7617 164.375 65.965C164.145 66.1683 164.03 66.4067 164.03 66.68C164.03 66.9367 164.115 67.14 164.285 67.29C164.455 67.44 164.715 67.5567 165.065 67.64L166.41 67.955C166.86 68.0483 167.222 68.1917 167.495 68.385C167.768 68.5783 167.967 68.8083 168.09 69.075C168.217 69.3383 168.28 69.63 168.28 69.95C168.28 70.37 168.16 70.7417 167.92 71.065C167.683 71.3883 167.355 71.6417 166.935 71.825C166.515 72.0083 166.027 72.1 165.47 72.1ZM170.953 72.1C170.623 72.1 170.326 72.04 170.063 71.92C169.803 71.7967 169.598 71.6217 169.448 71.395C169.301 71.165 169.228 70.8867 169.228 70.56C169.228 69.99 169.433 69.56 169.843 69.27C170.256 68.98 170.913 68.8283 171.813 68.815L172.588 68.795V68.445C172.588 68.1717 172.506 67.9583 172.343 67.805C172.183 67.6483 171.933 67.5717 171.593 67.575C171.339 67.5783 171.109 67.6383 170.903 67.755C170.696 67.8683 170.559 68.06 170.493 68.33H169.458C169.478 67.9767 169.579 67.6817 169.763 67.445C169.949 67.205 170.204 67.0267 170.528 66.91C170.851 66.79 171.224 66.73 171.648 66.73C172.141 66.73 172.543 66.795 172.853 66.925C173.163 67.055 173.391 67.2433 173.538 67.49C173.684 67.7333 173.758 68.0283 173.758 68.375V72H172.733L172.633 71.07C172.449 71.46 172.214 71.73 171.928 71.88C171.644 72.0267 171.319 72.1 170.953 72.1ZM171.348 71.275C171.498 71.275 171.646 71.2483 171.793 71.195C171.939 71.1383 172.071 71.0633 172.188 70.97C172.308 70.8733 172.403 70.7667 172.473 70.65C172.546 70.5333 172.584 70.4117 172.588 70.285V69.47L171.953 69.48C171.639 69.4833 171.364 69.5167 171.128 69.58C170.894 69.6433 170.713 69.745 170.583 69.885C170.453 70.0217 170.388 70.205 170.388 70.435C170.388 70.6983 170.479 70.905 170.663 71.055C170.846 71.2017 171.074 71.275 171.348 71.275ZM176.543 72.075C176.21 72.075 175.943 72.0333 175.743 71.95C175.543 71.8667 175.393 71.755 175.293 71.615C175.193 71.475 175.128 71.3183 175.098 71.145C175.068 70.9683 175.053 70.7883 175.053 70.605V64.57H176.243V70.465C176.243 70.6883 176.288 70.8617 176.378 70.985C176.472 71.1083 176.622 71.18 176.828 71.2L177.088 71.21V71.975C176.998 72.0017 176.907 72.025 176.813 72.045C176.72 72.065 176.63 72.075 176.543 72.075ZM180.239 72.1C179.742 72.1 179.304 71.995 178.924 71.785C178.547 71.5717 178.252 71.2683 178.039 70.875C177.829 70.4817 177.724 70.0133 177.724 69.47C177.724 68.94 177.819 68.47 178.009 68.06C178.202 67.6467 178.48 67.3217 178.844 67.085C179.21 66.8483 179.652 66.73 180.169 66.73C180.679 66.73 181.107 66.8383 181.454 67.055C181.8 67.2717 182.064 67.575 182.244 67.965C182.424 68.3517 182.514 68.805 182.514 69.325V69.695H178.939C178.935 69.9883 178.982 70.2483 179.079 70.475C179.175 70.7017 179.319 70.88 179.509 71.01C179.699 71.1367 179.934 71.2 180.214 71.2C180.5 71.2 180.749 71.1367 180.959 71.01C181.172 70.88 181.314 70.6833 181.384 70.42H182.494C182.434 70.78 182.29 71.085 182.064 71.335C181.84 71.585 181.567 71.775 181.244 71.905C180.924 72.035 180.589 72.1 180.239 72.1ZM178.934 68.94H181.364C181.364 68.69 181.319 68.465 181.229 68.265C181.142 68.0617 181.01 67.9017 180.834 67.785C180.657 67.665 180.434 67.605 180.164 67.605C179.897 67.605 179.672 67.67 179.489 67.8C179.305 67.93 179.167 68.0983 179.074 68.305C178.98 68.5083 178.934 68.72 178.934 68.94ZM185.637 72.1C185.277 72.1 184.935 72.0433 184.612 71.93C184.292 71.8133 184.022 71.6317 183.802 71.385C183.585 71.1383 183.448 70.82 183.392 70.43H184.462C184.508 70.62 184.59 70.775 184.707 70.895C184.827 71.015 184.967 71.1033 185.127 71.16C185.29 71.2133 185.458 71.24 185.632 71.24C185.942 71.24 186.192 71.1867 186.382 71.08C186.572 70.9733 186.667 70.8083 186.667 70.585C186.667 70.4217 186.613 70.2917 186.507 70.195C186.403 70.0983 186.233 70.025 185.997 69.975L185.017 69.75C184.577 69.6533 184.225 69.4933 183.962 69.27C183.698 69.0467 183.565 68.7317 183.562 68.325C183.558 68.0183 183.635 67.745 183.792 67.505C183.948 67.265 184.182 67.0767 184.492 66.94C184.802 66.8 185.183 66.73 185.637 66.73C186.24 66.73 186.723 66.865 187.087 67.135C187.453 67.4017 187.642 67.7833 187.652 68.28H186.617C186.58 68.0567 186.475 67.8833 186.302 67.76C186.128 67.6333 185.903 67.57 185.627 67.57C185.34 67.57 185.105 67.625 184.922 67.735C184.738 67.845 184.647 68.0133 184.647 68.24C184.647 68.3967 184.715 68.52 184.852 68.61C184.992 68.7 185.203 68.7767 185.487 68.84L186.417 69.065C186.683 69.1317 186.902 69.2217 187.072 69.335C187.242 69.4483 187.373 69.5733 187.467 69.71C187.563 69.8433 187.63 69.9817 187.667 70.125C187.707 70.265 187.727 70.395 187.727 70.515C187.727 70.8483 187.64 71.1333 187.467 71.37C187.297 71.6033 187.055 71.7833 186.742 71.91C186.432 72.0367 186.063 72.1 185.637 72.1Z" fill="white"/>
<path d="M250.875 72V64.77H252.09V67.755H255.59V64.77H256.805V72H255.59V68.79H252.09V72H250.875ZM258.551 72V64.77H261.486C262.039 64.77 262.494 64.8567 262.851 65.03C263.211 65.2 263.477 65.4417 263.651 65.755C263.824 66.065 263.911 66.4283 263.911 66.845C263.911 67.2317 263.847 67.5567 263.721 67.82C263.594 68.08 263.429 68.2933 263.226 68.46C263.026 68.6233 262.811 68.7567 262.581 68.86L263.961 72H262.691L261.446 69.065H259.766V72H258.551ZM259.766 68.1H261.211C261.671 68.1 262.029 67.9933 262.286 67.78C262.546 67.5667 262.676 67.27 262.676 66.89C262.676 66.5167 262.556 66.2283 262.316 66.025C262.076 65.8217 261.759 65.72 261.366 65.72H259.766V68.1Z" fill="white"/>
</svg>
