<svg width="152" height="124" viewBox="0 0 152 124" fill="none" xmlns="http://www.w3.org/2000/svg">
<path d="M96.2568 8.61108C78.206 8.61108 58.5557 13.051 58.5557 22.7062C58.5557 32.3613 78.206 36.8013 96.2568 36.8013C114.308 36.8013 133.708 32.3613 133.708 22.7062C133.708 13.051 114.308 8.61108 96.2568 8.61108Z" fill="#014063"/>
<path fill-rule="evenodd" clip-rule="evenodd" d="M96.2566 44.5542C82.1 44.5542 67.0945 42.058 58.5555 36.0678V86.3697C58.5555 96.0248 78.2058 100.465 96.2566 100.465C114.307 100.465 133.708 96.0248 133.708 86.3697V36.567C125.169 42.5572 110.413 44.5542 96.2566 44.5542ZM97.6852 56.5346C90.6223 56.5346 85.8815 60.6795 85.8815 68.6815V74.369C86.5585 74.0316 87.3329 73.8386 88.1549 73.8386C88.9771 73.8386 89.7515 74.0316 90.4772 74.369V68.633C90.4772 63.4273 93.3311 60.7765 97.6852 60.7765C102.039 60.7765 104.893 63.4273 104.893 68.633V81.1173H109.489V68.633C109.538 60.5836 104.748 56.5346 97.6852 56.5346ZM74.0298 71.6702C74.4175 71.0428 74.9493 70.5609 75.5299 70.272C76.5946 69.7416 77.9008 69.7416 79.0131 70.2235C80.0291 70.8509 80.5132 71.9106 80.8035 72.9713C81.1913 74.3209 81.6743 75.3332 82.8841 76.0565C84.0929 76.7799 85.254 76.6354 86.6089 76.298C87.7213 76.0576 88.8824 75.9121 89.8983 76.491C91.0107 77.1173 91.6876 78.2255 91.7364 79.4307V79.9125C91.6399 81.0692 91.0107 82.2259 89.8983 82.8523C88.8347 83.4786 87.6736 83.334 86.6089 83.045C85.255 82.7078 84.094 82.5623 82.8841 83.2855C81.6256 83.9603 81.1902 85.0214 80.8035 86.3706C80.5132 87.4317 80.0291 88.541 79.0131 89.1186C77.9008 89.7449 76.5946 89.7449 75.5299 89.2145C74.9006 88.9247 74.4164 88.4429 74.0298 87.8163C73.642 87.19 73.4969 86.5152 73.5456 85.8403C73.642 84.6837 74.2713 83.5272 75.3836 82.9009C76.4472 82.2744 77.6083 82.4189 78.673 82.7078C80.0269 83.045 81.188 83.1895 82.3978 82.4663H82.4466C84.5272 81.2622 84.5272 78.2255 82.4466 77.0203H82.3978C81.1891 76.2969 80.028 76.4414 78.673 76.7788C77.5607 77.0192 76.3996 77.1636 75.3836 76.5858C74.2713 75.9595 73.5944 74.8514 73.5456 73.6461C73.498 72.9713 73.6431 72.2965 74.0298 71.6702Z" fill="#014063"/>
<rect x="10.3334" y="56.8333" width="58.5556" height="31" fill="white"/>
<rect x="24.1111" y="77.5" width="34.4444" height="32.7222" fill="#8FE3E8"/>
<path d="M41.1926 47.7916C27.6545 47.7916 12.9168 51.1216 12.9168 58.363C12.9168 65.6043 27.6545 68.9343 41.1926 68.9343C54.7307 68.9343 69.2811 65.6043 69.2811 58.363C69.2811 51.1216 54.7307 47.7916 41.1926 47.7916Z" fill="#8FE3E8"/>
<path fill-rule="evenodd" clip-rule="evenodd" d="M41.1924 74.749C30.575 74.749 19.3208 72.8768 12.9166 68.3842V106.111C12.9166 113.352 27.6543 116.682 41.1924 116.682C54.7305 116.682 69.281 113.352 69.281 106.111V68.7586C62.8768 73.2512 51.8099 74.749 41.1924 74.749ZM42.2639 83.7342C36.9667 83.7342 33.4111 86.8429 33.4111 92.8444V97.1101C33.9188 96.857 34.4996 96.7123 35.1162 96.7123C35.7328 96.7123 36.3136 96.857 36.8578 97.1101V92.808C36.8578 88.9038 38.9983 86.9157 42.2639 86.9157C45.5294 86.9157 47.6699 88.9038 47.6699 92.808V102.171H51.1166V92.808C51.1532 86.771 47.5611 83.7342 42.2639 83.7342ZM24.5223 95.0859C24.8131 94.6154 25.212 94.254 25.6474 94.0373C26.4459 93.6395 27.4255 93.6395 28.2598 94.0009C29.0218 94.4715 29.3849 95.2662 29.6026 96.0618C29.8934 97.074 30.2557 97.8332 31.1631 98.3757C32.0696 98.9182 32.9405 98.8099 33.9567 98.5568C34.7909 98.3765 35.6617 98.2674 36.4237 98.7015C37.258 99.1713 37.7657 100.002 37.8022 100.906V101.268C37.7299 102.135 37.258 103.003 36.4237 103.473C35.626 103.942 34.7552 103.834 33.9567 103.617C32.9413 103.364 32.0704 103.255 31.1631 103.797C30.2191 104.304 29.8926 105.099 29.6026 106.111C29.3849 106.907 29.0218 107.739 28.2598 108.172C27.4255 108.642 26.4459 108.642 25.6474 108.244C25.1754 108.027 24.8123 107.666 24.5223 107.196C24.2315 106.726 24.1226 106.22 24.1592 105.714C24.2315 104.846 24.7034 103.979 25.5377 103.509C26.3354 103.039 27.2062 103.147 28.0048 103.364C29.0202 103.617 29.891 103.725 30.7984 103.183H30.8349C32.3954 102.28 32.3954 100.002 30.8349 99.0985H30.7984C29.8918 98.556 29.021 98.6643 28.0048 98.9174C27.1705 99.0977 26.2997 99.206 25.5377 98.7727C24.7034 98.3029 24.1957 97.4718 24.1592 96.5679C24.1234 96.0618 24.2323 95.5557 24.5223 95.0859Z" fill="#8FE3E8"/>
<path d="M26.47 96.1C26.11 96.1 25.765 96.0567 25.435 95.97C25.105 95.88 24.8033 95.7483 24.53 95.575C24.26 95.3983 24.0367 95.18 23.86 94.92C23.6833 94.6567 23.575 94.35 23.535 94H24.795C24.8483 94.2433 24.9533 94.4483 25.11 94.615C25.27 94.7817 25.4717 94.9083 25.715 94.995C25.9583 95.0817 26.23 95.125 26.53 95.125C26.7967 95.125 27.045 95.085 27.275 95.005C27.505 94.925 27.6917 94.8067 27.835 94.65C27.9783 94.49 28.05 94.2933 28.05 94.06C28.05 93.7967 27.9567 93.5917 27.77 93.445C27.5867 93.295 27.3233 93.1767 26.98 93.09L25.565 92.755C25.1983 92.6717 24.8783 92.55 24.605 92.39C24.335 92.23 24.125 92.02 23.975 91.76C23.825 91.4967 23.75 91.175 23.75 90.795C23.75 90.3617 23.8683 89.9867 24.105 89.67C24.345 89.3533 24.67 89.11 25.08 88.94C25.49 88.7667 25.9517 88.68 26.465 88.68C27.0517 88.68 27.5467 88.7783 27.95 88.975C28.3533 89.1683 28.66 89.4283 28.87 89.755C29.08 90.0817 29.1867 90.44 29.19 90.83H27.96C27.9333 90.54 27.8483 90.3117 27.705 90.145C27.5617 89.975 27.38 89.8517 27.16 89.775C26.94 89.6983 26.6967 89.66 26.43 89.66C25.9567 89.66 25.605 89.7617 25.375 89.965C25.145 90.1683 25.03 90.4067 25.03 90.68C25.03 90.9367 25.115 91.14 25.285 91.29C25.455 91.44 25.715 91.5567 26.065 91.64L27.41 91.955C27.86 92.0483 28.2217 92.1917 28.495 92.385C28.7683 92.5783 28.9667 92.8083 29.09 93.075C29.2167 93.3383 29.28 93.63 29.28 93.95C29.28 94.37 29.16 94.7417 28.92 95.065C28.6833 95.3883 28.355 95.6417 27.935 95.825C27.515 96.0083 27.0267 96.1 26.47 96.1ZM31.2302 97.65C30.8969 97.65 30.6652 97.6233 30.5352 97.57C30.4052 97.52 30.3402 97.495 30.3402 97.495V96.715L30.8602 96.73C31.0702 96.74 31.2402 96.7283 31.3702 96.695C31.5036 96.6617 31.6069 96.615 31.6802 96.555C31.7536 96.4983 31.8069 96.4367 31.8402 96.37C31.8769 96.3067 31.9052 96.2517 31.9252 96.205L32.0602 95.825L30.0452 90.83H31.2552L32.6302 94.485L34.0002 90.83H35.1902L33.0602 96.19C32.9002 96.58 32.7269 96.88 32.5402 97.09C32.3569 97.3033 32.1552 97.45 31.9352 97.53C31.7186 97.61 31.4836 97.65 31.2302 97.65ZM37.9161 96.1C37.5561 96.1 37.2144 96.0433 36.8911 95.93C36.5711 95.8133 36.3011 95.6317 36.0811 95.385C35.8644 95.1383 35.7278 94.82 35.6711 94.43H36.7411C36.7878 94.62 36.8694 94.775 36.9861 94.895C37.1061 95.015 37.2461 95.1033 37.4061 95.16C37.5694 95.2133 37.7378 95.24 37.9111 95.24C38.2211 95.24 38.4711 95.1867 38.6611 95.08C38.8511 94.9733 38.9461 94.8083 38.9461 94.585C38.9461 94.4217 38.8928 94.2917 38.7861 94.195C38.6828 94.0983 38.5128 94.025 38.2761 93.975L37.2961 93.75C36.8561 93.6533 36.5044 93.4933 36.2411 93.27C35.9778 93.0467 35.8444 92.7317 35.8411 92.325C35.8378 92.0183 35.9144 91.745 36.0711 91.505C36.2278 91.265 36.4611 91.0767 36.7711 90.94C37.0811 90.8 37.4628 90.73 37.9161 90.73C38.5194 90.73 39.0028 90.865 39.3661 91.135C39.7328 91.4017 39.9211 91.7833 39.9311 92.28H38.8961C38.8594 92.0567 38.7544 91.8833 38.5811 91.76C38.4078 91.6333 38.1828 91.57 37.9061 91.57C37.6194 91.57 37.3844 91.625 37.2011 91.735C37.0178 91.845 36.9261 92.0133 36.9261 92.24C36.9261 92.3967 36.9944 92.52 37.1311 92.61C37.2711 92.7 37.4828 92.7767 37.7661 92.84L38.6961 93.065C38.9628 93.1317 39.1811 93.2217 39.3511 93.335C39.5211 93.4483 39.6528 93.5733 39.7461 93.71C39.8428 93.8433 39.9094 93.9817 39.9461 94.125C39.9861 94.265 40.0061 94.395 40.0061 94.515C40.0061 94.8483 39.9194 95.1333 39.7461 95.37C39.5761 95.6033 39.3344 95.7833 39.0211 95.91C38.7111 96.0367 38.3428 96.1 37.9161 96.1ZM43.1283 96.04C42.7183 96.04 42.3999 95.9867 42.1733 95.88C41.9499 95.77 41.7949 95.615 41.7083 95.415C41.6216 95.215 41.5783 94.9767 41.5783 94.7V91.69H40.7383V90.83H41.6133L41.9183 89.295H42.7933V90.825H43.9483V91.69H42.7933L42.7983 94.655C42.7983 94.8083 42.8149 94.9217 42.8483 94.995C42.8849 95.065 42.9416 95.1117 43.0183 95.135C43.0983 95.155 43.2033 95.165 43.3333 95.165H43.9733V95.935C43.9033 95.9617 43.7999 95.985 43.6633 96.005C43.5299 96.0283 43.3516 96.04 43.1283 96.04ZM47.2348 96.1C46.7381 96.1 46.2998 95.995 45.9198 95.785C45.5431 95.5717 45.2481 95.2683 45.0348 94.875C44.8248 94.4817 44.7198 94.0133 44.7198 93.47C44.7198 92.94 44.8148 92.47 45.0048 92.06C45.1981 91.6467 45.4764 91.3217 45.8398 91.085C46.2064 90.8483 46.6481 90.73 47.1648 90.73C47.6748 90.73 48.1031 90.8383 48.4498 91.055C48.7964 91.2717 49.0598 91.575 49.2398 91.965C49.4198 92.3517 49.5098 92.805 49.5098 93.325V93.695H45.9348C45.9314 93.9883 45.9781 94.2483 46.0748 94.475C46.1714 94.7017 46.3148 94.88 46.5048 95.01C46.6948 95.1367 46.9298 95.2 47.2098 95.2C47.4964 95.2 47.7448 95.1367 47.9548 95.01C48.1681 94.88 48.3098 94.6833 48.3798 94.42H49.4898C49.4298 94.78 49.2864 95.085 49.0598 95.335C48.8364 95.585 48.5631 95.775 48.2398 95.905C47.9198 96.035 47.5848 96.1 47.2348 96.1ZM45.9298 92.94H48.3598C48.3598 92.69 48.3148 92.465 48.2248 92.265C48.1381 92.0617 48.0064 91.9017 47.8298 91.785C47.6531 91.665 47.4298 91.605 47.1598 91.605C46.8931 91.605 46.6681 91.67 46.4848 91.8C46.3014 91.93 46.1631 92.0983 46.0698 92.305C45.9764 92.5083 45.9298 92.72 45.9298 92.94ZM50.6724 96V90.83H51.8574V91.57C52.0074 91.3433 52.2108 91.1467 52.4674 90.98C52.7274 90.8133 53.0574 90.73 53.4574 90.73C53.6408 90.73 53.8258 90.7617 54.0124 90.825C54.2024 90.8883 54.3774 90.9817 54.5374 91.105C54.7008 91.2283 54.8308 91.3817 54.9274 91.565C55.0908 91.3217 55.3074 91.1217 55.5774 90.965C55.8508 90.8083 56.1574 90.73 56.4974 90.73C56.6841 90.73 56.8758 90.76 57.0724 90.82C57.2724 90.88 57.4558 90.98 57.6224 91.12C57.7891 91.26 57.9241 91.4517 58.0274 91.695C58.1308 91.935 58.1824 92.2367 58.1824 92.6V96H56.9674V92.745C56.9674 92.4883 56.9224 92.2867 56.8324 92.14C56.7424 91.9933 56.6258 91.89 56.4824 91.83C56.3424 91.7667 56.1924 91.735 56.0324 91.735C55.8891 91.735 55.7391 91.7633 55.5824 91.82C55.4291 91.8767 55.2974 91.97 55.1874 92.1C55.0808 92.23 55.0274 92.405 55.0274 92.625V96H53.8124V92.55C53.8124 92.37 53.7658 92.22 53.6724 92.1C53.5791 91.98 53.4608 91.89 53.3174 91.83C53.1774 91.7667 53.0341 91.735 52.8874 91.735C52.7374 91.735 52.5841 91.7667 52.4274 91.83C52.2741 91.8933 52.1458 91.99 52.0424 92.12C51.9391 92.25 51.8874 92.4183 51.8874 92.625V96H50.6724Z" fill="black"/>
</svg>
