<?xml version="1.0" encoding="UTF-8"?>
<svg width="930px" height="999px" viewBox="0 0 930 999" version="1.1" xmlns="http://www.w3.org/2000/svg" xmlns:xlink="http://www.w3.org/1999/xlink">
    <!-- Generator: Sketch 48.2 (47327) - http://www.bohemiancoding.com/sketch -->
    <title>many-hop-causal-consistency</title>
    <desc>Created with Sketch.</desc>
    <defs></defs>
    <g id="Page-1" stroke="none" stroke-width="1" fill="none" fill-rule="evenodd">
        <g id="many-hop-causal-consistency">
            <g id="Group-36" transform="translate(5.000000, 5.000000)">
                <g id="Group-31" transform="translate(23.000000, 11.000000)">
                    <text id="Data-center-1" font-family="OpenSans-Regular, Open Sans" font-size="12" font-weight="normal" fill="#333333">
                        <tspan x="179" y="462">Data center 1</tspan>
                    </text>
                    <text id="Read-Replica" font-family="OpenSans-Regular, Open Sans" font-size="12" font-weight="normal" fill="#333333">
                        <tspan x="93" y="221">Read Replica</tspan>
                    </text>
                    <g id="Group-32" transform="translate(64.000000, 181.000000)">
                        <path d="M126.388889,21.6666667 L3.61111111,21.6666667 C1.61633333,21.6666667 0,20.0503333 0,18.0555556 L0,3.61111111 C0,1.61633333 1.61633333,0 3.61111111,0 L126.388889,0 C128.383667,0 130,1.61633333 130,3.61111111 L130,18.0555556 C130,20.0503333 128.383667,21.6666667 126.388889,21.6666667" id="Fill-1" fill="#D6D6D6"></path>
                        <path d="M14.4444444,14.0381944 C14.4444444,15.0355833 13.6362778,15.84375 12.6388889,15.84375 C11.6415,15.84375 10.8333333,15.0355833 10.8333333,14.0381944 C10.8333333,13.0408056 11.6415,12.2326389 12.6388889,12.2326389 C13.6362778,12.2326389 14.4444444,13.0408056 14.4444444,14.0381944" id="Fill-3" fill="#F16667"></path>
                        <path d="M14.4444444,7.53819444 C14.4444444,8.53558333 13.6362778,9.34375 12.6388889,9.34375 C11.6415,9.34375 10.8333333,8.53558333 10.8333333,7.53819444 C10.8333333,6.54080556 11.6415,5.73263889 12.6388889,5.73263889 C13.6362778,5.73263889 14.4444444,6.54080556 14.4444444,7.53819444" id="Fill-5" fill="#8DCC93"></path>
                        <path d="M107.611111,16.2048611 L105.444444,16.2048611 C105.045056,16.2048611 104.722222,15.8820278 104.722222,15.4826389 L104.722222,6.09375 C104.722222,5.69436111 105.045056,5.37152778 105.444444,5.37152778 L107.611111,5.37152778 C108.0105,5.37152778 108.333333,5.69436111 108.333333,6.09375 L108.333333,15.4826389 C108.333333,15.8820278 108.0105,16.2048611 107.611111,16.2048611" id="Fill-7" fill="#C2C2C2"></path>
                        <path d="M114.830517,16.2048611 L112.669628,16.2048611 C112.268794,16.2048611 111.944517,15.8805833 111.944517,15.47975 L111.944517,6.09663889 C111.944517,5.69580556 112.268794,5.37152778 112.669628,5.37152778 L114.830517,5.37152778 C115.23135,5.37152778 115.555628,5.69580556 115.555628,6.09663889 L115.555628,15.47975 C115.555628,15.8805833 115.23135,16.2048611 114.830517,16.2048611" id="Fill-9" fill="#C2C2C2"></path>
                        <path d="M122.059094,16.2048611 L119.885206,16.2048611 C119.487983,16.2048611 119.166594,15.8834722 119.166594,15.48625 L119.166594,6.09013889 C119.166594,5.69291667 119.487983,5.37152778 119.885206,5.37152778 L122.059094,5.37152778 C122.456317,5.37152778 122.777706,5.69291667 122.777706,6.09013889 L122.777706,15.48625 C122.777706,15.8834722 122.456317,16.2048611 122.059094,16.2048611" id="Fill-11" fill="#C2C2C2"></path>
                        <path d="M78,7.58051667 L78,14.0862944 C78,14.68285 77.5161111,15.1667389 76.9195556,15.1667389 L53.0804444,15.1667389 C52.4838889,15.1667389 52,14.68285 52,14.0862944 L52,7.58051667 C52,6.98396111 52.4838889,6.50007222 53.0804444,6.50007222 L76.9195556,6.50007222 C77.5161111,6.50007222 78,6.98396111 78,7.58051667" id="Fill-13" fill="#C2C2C2"></path>
                    </g>
                    <text id="Read-Replica" font-family="OpenSans-Regular, Open Sans" font-size="12" font-weight="normal" fill="#333333">
                        <tspan x="269" y="221">Read Replica</tspan>
                    </text>
                    <g id="Group-32" transform="translate(240.000000, 181.000000)">
                        <path d="M126.388889,21.6666667 L3.61111111,21.6666667 C1.61633333,21.6666667 0,20.0503333 0,18.0555556 L0,3.61111111 C0,1.61633333 1.61633333,0 3.61111111,0 L126.388889,0 C128.383667,0 130,1.61633333 130,3.61111111 L130,18.0555556 C130,20.0503333 128.383667,21.6666667 126.388889,21.6666667" id="Fill-1" fill="#D6D6D6"></path>
                        <path d="M14.4444444,14.0381944 C14.4444444,15.0355833 13.6362778,15.84375 12.6388889,15.84375 C11.6415,15.84375 10.8333333,15.0355833 10.8333333,14.0381944 C10.8333333,13.0408056 11.6415,12.2326389 12.6388889,12.2326389 C13.6362778,12.2326389 14.4444444,13.0408056 14.4444444,14.0381944" id="Fill-3" fill="#F16667"></path>
                        <path d="M14.4444444,7.53819444 C14.4444444,8.53558333 13.6362778,9.34375 12.6388889,9.34375 C11.6415,9.34375 10.8333333,8.53558333 10.8333333,7.53819444 C10.8333333,6.54080556 11.6415,5.73263889 12.6388889,5.73263889 C13.6362778,5.73263889 14.4444444,6.54080556 14.4444444,7.53819444" id="Fill-5" fill="#8DCC93"></path>
                        <path d="M107.611111,16.2048611 L105.444444,16.2048611 C105.045056,16.2048611 104.722222,15.8820278 104.722222,15.4826389 L104.722222,6.09375 C104.722222,5.69436111 105.045056,5.37152778 105.444444,5.37152778 L107.611111,5.37152778 C108.0105,5.37152778 108.333333,5.69436111 108.333333,6.09375 L108.333333,15.4826389 C108.333333,15.8820278 108.0105,16.2048611 107.611111,16.2048611" id="Fill-7" fill="#C2C2C2"></path>
                        <path d="M114.830517,16.2048611 L112.669628,16.2048611 C112.268794,16.2048611 111.944517,15.8805833 111.944517,15.47975 L111.944517,6.09663889 C111.944517,5.69580556 112.268794,5.37152778 112.669628,5.37152778 L114.830517,5.37152778 C115.23135,5.37152778 115.555628,5.69580556 115.555628,6.09663889 L115.555628,15.47975 C115.555628,15.8805833 115.23135,16.2048611 114.830517,16.2048611" id="Fill-9" fill="#C2C2C2"></path>
                        <path d="M122.059094,16.2048611 L119.885206,16.2048611 C119.487983,16.2048611 119.166594,15.8834722 119.166594,15.48625 L119.166594,6.09013889 C119.166594,5.69291667 119.487983,5.37152778 119.885206,5.37152778 L122.059094,5.37152778 C122.456317,5.37152778 122.777706,5.69291667 122.777706,6.09013889 L122.777706,15.48625 C122.777706,15.8834722 122.456317,16.2048611 122.059094,16.2048611" id="Fill-11" fill="#C2C2C2"></path>
                        <path d="M78,7.58051667 L78,14.0862944 C78,14.68285 77.5161111,15.1667389 76.9195556,15.1667389 L53.0804444,15.1667389 C52.4838889,15.1667389 52,14.68285 52,14.0862944 L52,7.58051667 C52,6.98396111 52.4838889,6.50007222 53.0804444,6.50007222 L76.9195556,6.50007222 C77.5161111,6.50007222 78,6.98396111 78,7.58051667" id="Fill-13" fill="#C2C2C2"></path>
                    </g>
                    <rect id="Rectangle-15" fill="#C2C2C2" x="169" y="94" width="100" height="9"></rect>
                    <rect id="Rectangle-15" fill="#C2C2C2" x="169" y="64" width="100" height="9"></rect>
                    <g id="Page-1-Copy-2" transform="translate(154.000000, 103.000000)">
                        <path d="M126.388889,21.6666667 L3.61111111,21.6666667 C1.61633333,21.6666667 0,20.0503333 0,18.0555556 L0,3.61111111 C0,1.61633333 1.61633333,0 3.61111111,0 L126.388889,0 C128.383667,0 130,1.61633333 130,3.61111111 L130,18.0555556 C130,20.0503333 128.383667,21.6666667 126.388889,21.6666667" id="Fill-1" fill="#D6D6D6"></path>
                        <path d="M14.4444444,14.0381944 C14.4444444,15.0355833 13.6362778,15.84375 12.6388889,15.84375 C11.6415,15.84375 10.8333333,15.0355833 10.8333333,14.0381944 C10.8333333,13.0408056 11.6415,12.2326389 12.6388889,12.2326389 C13.6362778,12.2326389 14.4444444,13.0408056 14.4444444,14.0381944" id="Fill-3" fill="#F16667"></path>
                        <path d="M14.4444444,7.53819444 C14.4444444,8.53558333 13.6362778,9.34375 12.6388889,9.34375 C11.6415,9.34375 10.8333333,8.53558333 10.8333333,7.53819444 C10.8333333,6.54080556 11.6415,5.73263889 12.6388889,5.73263889 C13.6362778,5.73263889 14.4444444,6.54080556 14.4444444,7.53819444" id="Fill-5" fill="#8DCC93"></path>
                        <path d="M107.611111,16.2048611 L105.444444,16.2048611 C105.045056,16.2048611 104.722222,15.8820278 104.722222,15.4826389 L104.722222,6.09375 C104.722222,5.69436111 105.045056,5.37152778 105.444444,5.37152778 L107.611111,5.37152778 C108.0105,5.37152778 108.333333,5.69436111 108.333333,6.09375 L108.333333,15.4826389 C108.333333,15.8820278 108.0105,16.2048611 107.611111,16.2048611" id="Fill-7" fill="#C2C2C2"></path>
                        <path d="M114.830517,16.2048611 L112.669628,16.2048611 C112.268794,16.2048611 111.944517,15.8805833 111.944517,15.47975 L111.944517,6.09663889 C111.944517,5.69580556 112.268794,5.37152778 112.669628,5.37152778 L114.830517,5.37152778 C115.23135,5.37152778 115.555628,5.69580556 115.555628,6.09663889 L115.555628,15.47975 C115.555628,15.8805833 115.23135,16.2048611 114.830517,16.2048611" id="Fill-9" fill="#C2C2C2"></path>
                        <path d="M122.059094,16.2048611 L119.885206,16.2048611 C119.487983,16.2048611 119.166594,15.8834722 119.166594,15.48625 L119.166594,6.09013889 C119.166594,5.69291667 119.487983,5.37152778 119.885206,5.37152778 L122.059094,5.37152778 C122.456317,5.37152778 122.777706,5.69291667 122.777706,6.09013889 L122.777706,15.48625 C122.777706,15.8834722 122.456317,16.2048611 122.059094,16.2048611" id="Fill-11" fill="#C2C2C2"></path>
                        <path d="M78,7.58051667 L78,14.0862944 C78,14.68285 77.5161111,15.1667389 76.9195556,15.1667389 L53.0804444,15.1667389 C52.4838889,15.1667389 52,14.68285 52,14.0862944 L52,7.58051667 C52,6.98396111 52.4838889,6.50007222 53.0804444,6.50007222 L76.9195556,6.50007222 C77.5161111,6.50007222 78,6.98396111 78,7.58051667" id="Fill-13" fill="#C2C2C2"></path>
                    </g>
                    <g id="Page-1-Copy-2" transform="translate(154.000000, 72.333333)">
                        <path d="M126.388889,21.6666667 L3.61111111,21.6666667 C1.61633333,21.6666667 0,20.0503333 0,18.0555556 L0,3.61111111 C0,1.61633333 1.61633333,0 3.61111111,0 L126.388889,0 C128.383667,0 130,1.61633333 130,3.61111111 L130,18.0555556 C130,20.0503333 128.383667,21.6666667 126.388889,21.6666667" id="Fill-1" fill="#D6D6D6"></path>
                        <path d="M14.4444444,14.0381944 C14.4444444,15.0355833 13.6362778,15.84375 12.6388889,15.84375 C11.6415,15.84375 10.8333333,15.0355833 10.8333333,14.0381944 C10.8333333,13.0408056 11.6415,12.2326389 12.6388889,12.2326389 C13.6362778,12.2326389 14.4444444,13.0408056 14.4444444,14.0381944" id="Fill-3" fill="#F16667"></path>
                        <path d="M14.4444444,7.53819444 C14.4444444,8.53558333 13.6362778,9.34375 12.6388889,9.34375 C11.6415,9.34375 10.8333333,8.53558333 10.8333333,7.53819444 C10.8333333,6.54080556 11.6415,5.73263889 12.6388889,5.73263889 C13.6362778,5.73263889 14.4444444,6.54080556 14.4444444,7.53819444" id="Fill-5" fill="#8DCC93"></path>
                        <path d="M107.611111,16.2048611 L105.444444,16.2048611 C105.045056,16.2048611 104.722222,15.8820278 104.722222,15.4826389 L104.722222,6.09375 C104.722222,5.69436111 105.045056,5.37152778 105.444444,5.37152778 L107.611111,5.37152778 C108.0105,5.37152778 108.333333,5.69436111 108.333333,6.09375 L108.333333,15.4826389 C108.333333,15.8820278 108.0105,16.2048611 107.611111,16.2048611" id="Fill-7" fill="#C2C2C2"></path>
                        <path d="M114.830517,16.2048611 L112.669628,16.2048611 C112.268794,16.2048611 111.944517,15.8805833 111.944517,15.47975 L111.944517,6.09663889 C111.944517,5.69580556 112.268794,5.37152778 112.669628,5.37152778 L114.830517,5.37152778 C115.23135,5.37152778 115.555628,5.69580556 115.555628,6.09663889 L115.555628,15.47975 C115.555628,15.8805833 115.23135,16.2048611 114.830517,16.2048611" id="Fill-9" fill="#C2C2C2"></path>
                        <path d="M122.059094,16.2048611 L119.885206,16.2048611 C119.487983,16.2048611 119.166594,15.8834722 119.166594,15.48625 L119.166594,6.09013889 C119.166594,5.69291667 119.487983,5.37152778 119.885206,5.37152778 L122.059094,5.37152778 C122.456317,5.37152778 122.777706,5.69291667 122.777706,6.09013889 L122.777706,15.48625 C122.777706,15.8834722 122.456317,16.2048611 122.059094,16.2048611" id="Fill-11" fill="#C2C2C2"></path>
                        <path d="M78,7.58051667 L78,14.0862944 C78,14.68285 77.5161111,15.1667389 76.9195556,15.1667389 L53.0804444,15.1667389 C52.4838889,15.1667389 52,14.68285 52,14.0862944 L52,7.58051667 C52,6.98396111 52.4838889,6.50007222 53.0804444,6.50007222 L76.9195556,6.50007222 C77.5161111,6.50007222 78,6.98396111 78,7.58051667" id="Fill-13" fill="#C2C2C2"></path>
                    </g>
                    <g id="Page-1-Copy-2" transform="translate(154.000000, 43.000000)">
                        <path d="M126.388889,21.6666667 L3.61111111,21.6666667 C1.61633333,21.6666667 0,20.0503333 0,18.0555556 L0,3.61111111 C0,1.61633333 1.61633333,0 3.61111111,0 L126.388889,0 C128.383667,0 130,1.61633333 130,3.61111111 L130,18.0555556 C130,20.0503333 128.383667,21.6666667 126.388889,21.6666667" id="Fill-1" fill="#D6D6D6"></path>
                        <path d="M14.4444444,14.0381944 C14.4444444,15.0355833 13.6362778,15.84375 12.6388889,15.84375 C11.6415,15.84375 10.8333333,15.0355833 10.8333333,14.0381944 C10.8333333,13.0408056 11.6415,12.2326389 12.6388889,12.2326389 C13.6362778,12.2326389 14.4444444,13.0408056 14.4444444,14.0381944" id="Fill-3" fill="#F16667"></path>
                        <path d="M14.4444444,7.53819444 C14.4444444,8.53558333 13.6362778,9.34375 12.6388889,9.34375 C11.6415,9.34375 10.8333333,8.53558333 10.8333333,7.53819444 C10.8333333,6.54080556 11.6415,5.73263889 12.6388889,5.73263889 C13.6362778,5.73263889 14.4444444,6.54080556 14.4444444,7.53819444" id="Fill-5" fill="#8DCC93"></path>
                        <path d="M107.611111,16.2048611 L105.444444,16.2048611 C105.045056,16.2048611 104.722222,15.8820278 104.722222,15.4826389 L104.722222,6.09375 C104.722222,5.69436111 105.045056,5.37152778 105.444444,5.37152778 L107.611111,5.37152778 C108.0105,5.37152778 108.333333,5.69436111 108.333333,6.09375 L108.333333,15.4826389 C108.333333,15.8820278 108.0105,16.2048611 107.611111,16.2048611" id="Fill-7" fill="#C2C2C2"></path>
                        <path d="M114.830517,16.2048611 L112.669628,16.2048611 C112.268794,16.2048611 111.944517,15.8805833 111.944517,15.47975 L111.944517,6.09663889 C111.944517,5.69580556 112.268794,5.37152778 112.669628,5.37152778 L114.830517,5.37152778 C115.23135,5.37152778 115.555628,5.69580556 115.555628,6.09663889 L115.555628,15.47975 C115.555628,15.8805833 115.23135,16.2048611 114.830517,16.2048611" id="Fill-9" fill="#C2C2C2"></path>
                        <path d="M122.059094,16.2048611 L119.885206,16.2048611 C119.487983,16.2048611 119.166594,15.8834722 119.166594,15.48625 L119.166594,6.09013889 C119.166594,5.69291667 119.487983,5.37152778 119.885206,5.37152778 L122.059094,5.37152778 C122.456317,5.37152778 122.777706,5.69291667 122.777706,6.09013889 L122.777706,15.48625 C122.777706,15.8834722 122.456317,16.2048611 122.059094,16.2048611" id="Fill-11" fill="#C2C2C2"></path>
                        <path d="M78,7.58051667 L78,14.0862944 C78,14.68285 77.5161111,15.1667389 76.9195556,15.1667389 L53.0804444,15.1667389 C52.4838889,15.1667389 52,14.68285 52,14.0862944 L52,7.58051667 C52,6.98396111 52.4838889,6.50007222 53.0804444,6.50007222 L76.9195556,6.50007222 C77.5161111,6.50007222 78,6.98396111 78,7.58051667" id="Fill-13" fill="#C2C2C2"></path>
                    </g>
                    <text id="Core-Servers" font-family="OpenSans-Regular, Open Sans" font-size="12" font-weight="normal" fill="#333333">
                        <tspan x="186" y="30">Core Servers</tspan>
                    </text>
                    <text id="Read-Replica" font-family="OpenSans-Regular, Open Sans" font-size="12" font-weight="normal" fill="#333333">
                        <tspan x="151" y="397">Read Replica</tspan>
                    </text>
                    <text id="Read-Replica" font-family="OpenSans-Regular, Open Sans" font-size="12" font-weight="normal" fill="#333333">
                        <tspan x="35" y="343">Read Replica</tspan>
                    </text>
                    <path d="M248.388889,378.666667 L125.611111,378.666667 C123.616333,378.666667 122,377.050333 122,375.055556 L122,360.611111 C122,358.616333 123.616333,357 125.611111,357 L248.388889,357 C250.383667,357 252,358.616333 252,360.611111 L252,375.055556 C252,377.050333 250.383667,378.666667 248.388889,378.666667" id="Fill-1" fill="#D6D6D6"></path>
                    <path d="M136.444444,371.038194 C136.444444,372.035583 135.636278,372.84375 134.638889,372.84375 C133.6415,372.84375 132.833333,372.035583 132.833333,371.038194 C132.833333,370.040806 133.6415,369.232639 134.638889,369.232639 C135.636278,369.232639 136.444444,370.040806 136.444444,371.038194" id="Fill-3" fill="#F16667"></path>
                    <path d="M136.444444,364.538194 C136.444444,365.535583 135.636278,366.34375 134.638889,366.34375 C133.6415,366.34375 132.833333,365.535583 132.833333,364.538194 C132.833333,363.540806 133.6415,362.732639 134.638889,362.732639 C135.636278,362.732639 136.444444,363.540806 136.444444,364.538194" id="Fill-5" fill="#8DCC93"></path>
                    <path d="M229.611111,373.204861 L227.444444,373.204861 C227.045056,373.204861 226.722222,372.882028 226.722222,372.482639 L226.722222,363.09375 C226.722222,362.694361 227.045056,362.371528 227.444444,362.371528 L229.611111,362.371528 C230.0105,362.371528 230.333333,362.694361 230.333333,363.09375 L230.333333,372.482639 C230.333333,372.882028 230.0105,373.204861 229.611111,373.204861" id="Fill-7" fill="#C2C2C2"></path>
                    <path d="M236.830517,373.204861 L234.669628,373.204861 C234.268794,373.204861 233.944517,372.880583 233.944517,372.47975 L233.944517,363.096639 C233.944517,362.695806 234.268794,362.371528 234.669628,362.371528 L236.830517,362.371528 C237.23135,362.371528 237.555628,362.695806 237.555628,363.096639 L237.555628,372.47975 C237.555628,372.880583 237.23135,373.204861 236.830517,373.204861" id="Fill-9" fill="#C2C2C2"></path>
                    <path d="M244.059094,373.204861 L241.885206,373.204861 C241.487983,373.204861 241.166594,372.883472 241.166594,372.48625 L241.166594,363.090139 C241.166594,362.692917 241.487983,362.371528 241.885206,362.371528 L244.059094,362.371528 C244.456317,362.371528 244.777706,362.692917 244.777706,363.090139 L244.777706,372.48625 C244.777706,372.883472 244.456317,373.204861 244.059094,373.204861" id="Fill-11" fill="#C2C2C2"></path>
                    <path d="M200,364.580517 L200,371.086294 C200,371.68285 199.516111,372.166739 198.919556,372.166739 L175.080444,372.166739 C174.483889,372.166739 174,371.68285 174,371.086294 L174,364.580517 C174,363.983961 174.483889,363.500072 175.080444,363.500072 L198.919556,363.500072 C199.516111,363.500072 200,363.983961 200,364.580517" id="Fill-13" fill="#C2C2C2"></path>
                    <path d="M132.388889,324.666667 L9.61111111,324.666667 C7.61633333,324.666667 6,323.050333 6,321.055556 L6,306.611111 C6,304.616333 7.61633333,303 9.61111111,303 L132.388889,303 C134.383667,303 136,304.616333 136,306.611111 L136,321.055556 C136,323.050333 134.383667,324.666667 132.388889,324.666667" id="Fill-1" fill="#D6D6D6"></path>
                    <path d="M20.4444444,317.038194 C20.4444444,318.035583 19.6362778,318.84375 18.6388889,318.84375 C17.6415,318.84375 16.8333333,318.035583 16.8333333,317.038194 C16.8333333,316.040806 17.6415,315.232639 18.6388889,315.232639 C19.6362778,315.232639 20.4444444,316.040806 20.4444444,317.038194" id="Fill-3" fill="#F16667"></path>
                    <path d="M20.4444444,310.538194 C20.4444444,311.535583 19.6362778,312.34375 18.6388889,312.34375 C17.6415,312.34375 16.8333333,311.535583 16.8333333,310.538194 C16.8333333,309.540806 17.6415,308.732639 18.6388889,308.732639 C19.6362778,308.732639 20.4444444,309.540806 20.4444444,310.538194" id="Fill-5" fill="#8DCC93"></path>
                    <path d="M113.611111,319.204861 L111.444444,319.204861 C111.045056,319.204861 110.722222,318.882028 110.722222,318.482639 L110.722222,309.09375 C110.722222,308.694361 111.045056,308.371528 111.444444,308.371528 L113.611111,308.371528 C114.0105,308.371528 114.333333,308.694361 114.333333,309.09375 L114.333333,318.482639 C114.333333,318.882028 114.0105,319.204861 113.611111,319.204861" id="Fill-7" fill="#C2C2C2"></path>
                    <path d="M120.830517,319.204861 L118.669628,319.204861 C118.268794,319.204861 117.944517,318.880583 117.944517,318.47975 L117.944517,309.096639 C117.944517,308.695806 118.268794,308.371528 118.669628,308.371528 L120.830517,308.371528 C121.23135,308.371528 121.555628,308.695806 121.555628,309.096639 L121.555628,318.47975 C121.555628,318.880583 121.23135,319.204861 120.830517,319.204861" id="Fill-9" fill="#C2C2C2"></path>
                    <path d="M128.059094,319.204861 L125.885206,319.204861 C125.487983,319.204861 125.166594,318.883472 125.166594,318.48625 L125.166594,309.090139 C125.166594,308.692917 125.487983,308.371528 125.885206,308.371528 L128.059094,308.371528 C128.456317,308.371528 128.777706,308.692917 128.777706,309.090139 L128.777706,318.48625 C128.777706,318.883472 128.456317,319.204861 128.059094,319.204861" id="Fill-11" fill="#C2C2C2"></path>
                    <path d="M84,310.580517 L84,317.086294 C84,317.68285 83.5161111,318.166739 82.9195556,318.166739 L59.0804444,318.166739 C58.4838889,318.166739 58,317.68285 58,317.086294 L58,310.580517 C58,309.983961 58.4838889,309.500072 59.0804444,309.500072 L82.9195556,309.500072 C83.5161111,309.500072 84,309.983961 84,310.580517" id="Fill-13" fill="#C2C2C2"></path>
                    <polyline id="Path-5" stroke="#979797" stroke-width="2" points="83 295.258569 128.713551 231 185.010347 350.316564"></polyline>
                    <polygon id="Triangle-5" fill="#979797" transform="translate(81.570914, 297.570914) rotate(-145.000000) translate(-81.570914, -297.570914) " points="81.5709139 293.570914 85.5709139 301.570914 77.5709139 301.570914"></polygon>
                    <polygon id="Triangle-5" fill="#979797" transform="translate(145.762266, 174.503564) rotate(-124.000000) translate(-145.762266, -174.503564) " points="145.762266 170.503564 149.762266 178.503564 141.762266 178.503564"></polygon>
                    <polygon id="Triangle-5" fill="#979797" transform="translate(294.100146, 174.480167) scale(-1, 1) rotate(-124.000000) translate(-294.100146, -174.480167) " points="294.100146 170.480167 298.100146 178.480167 290.100146 178.480167"></polygon>
                    <polygon id="Triangle-5" fill="#979797" transform="translate(185.884850, 351.705411) scale(-1, 1) rotate(-152.000000) translate(-185.884850, -351.705411) " points="185.88485 347.705411 189.88485 355.705411 181.88485 355.705411"></polygon>
                    <text id="Read-Replica" font-family="OpenSans-Regular, Open Sans" font-size="12" font-weight="normal" fill="#333333">
                        <tspan x="326" y="397">Read Replica</tspan>
                    </text>
                    <text id="Read-Replica" font-family="OpenSans-Regular, Open Sans" font-size="12" font-weight="normal" fill="#333333">
                        <tspan x="210" y="343">Read Replica</tspan>
                    </text>
                    <path d="M423.388889,378.666667 L300.611111,378.666667 C298.616333,378.666667 297,377.050333 297,375.055556 L297,360.611111 C297,358.616333 298.616333,357 300.611111,357 L423.388889,357 C425.383667,357 427,358.616333 427,360.611111 L427,375.055556 C427,377.050333 425.383667,378.666667 423.388889,378.666667" id="Fill-1" fill="#D6D6D6"></path>
                    <path d="M311.444444,371.038194 C311.444444,372.035583 310.636278,372.84375 309.638889,372.84375 C308.6415,372.84375 307.833333,372.035583 307.833333,371.038194 C307.833333,370.040806 308.6415,369.232639 309.638889,369.232639 C310.636278,369.232639 311.444444,370.040806 311.444444,371.038194" id="Fill-3" fill="#F16667"></path>
                    <path d="M311.444444,364.538194 C311.444444,365.535583 310.636278,366.34375 309.638889,366.34375 C308.6415,366.34375 307.833333,365.535583 307.833333,364.538194 C307.833333,363.540806 308.6415,362.732639 309.638889,362.732639 C310.636278,362.732639 311.444444,363.540806 311.444444,364.538194" id="Fill-5" fill="#8DCC93"></path>
                    <path d="M404.611111,373.204861 L402.444444,373.204861 C402.045056,373.204861 401.722222,372.882028 401.722222,372.482639 L401.722222,363.09375 C401.722222,362.694361 402.045056,362.371528 402.444444,362.371528 L404.611111,362.371528 C405.0105,362.371528 405.333333,362.694361 405.333333,363.09375 L405.333333,372.482639 C405.333333,372.882028 405.0105,373.204861 404.611111,373.204861" id="Fill-7" fill="#C2C2C2"></path>
                    <path d="M411.830517,373.204861 L409.669628,373.204861 C409.268794,373.204861 408.944517,372.880583 408.944517,372.47975 L408.944517,363.096639 C408.944517,362.695806 409.268794,362.371528 409.669628,362.371528 L411.830517,362.371528 C412.23135,362.371528 412.555628,362.695806 412.555628,363.096639 L412.555628,372.47975 C412.555628,372.880583 412.23135,373.204861 411.830517,373.204861" id="Fill-9" fill="#C2C2C2"></path>
                    <path d="M419.059094,373.204861 L416.885206,373.204861 C416.487983,373.204861 416.166594,372.883472 416.166594,372.48625 L416.166594,363.090139 C416.166594,362.692917 416.487983,362.371528 416.885206,362.371528 L419.059094,362.371528 C419.456317,362.371528 419.777706,362.692917 419.777706,363.090139 L419.777706,372.48625 C419.777706,372.883472 419.456317,373.204861 419.059094,373.204861" id="Fill-11" fill="#C2C2C2"></path>
                    <path d="M375,364.580517 L375,371.086294 C375,371.68285 374.516111,372.166739 373.919556,372.166739 L350.080444,372.166739 C349.483889,372.166739 349,371.68285 349,371.086294 L349,364.580517 C349,363.983961 349.483889,363.500072 350.080444,363.500072 L373.919556,363.500072 C374.516111,363.500072 375,363.983961 375,364.580517" id="Fill-13" fill="#C2C2C2"></path>
                    <path d="M307.388889,324.666667 L184.611111,324.666667 C182.616333,324.666667 181,323.050333 181,321.055556 L181,306.611111 C181,304.616333 182.616333,303 184.611111,303 L307.388889,303 C309.383667,303 311,304.616333 311,306.611111 L311,321.055556 C311,323.050333 309.383667,324.666667 307.388889,324.666667" id="Fill-1" fill="#D6D6D6"></path>
                    <path d="M195.444444,317.038194 C195.444444,318.035583 194.636278,318.84375 193.638889,318.84375 C192.6415,318.84375 191.833333,318.035583 191.833333,317.038194 C191.833333,316.040806 192.6415,315.232639 193.638889,315.232639 C194.636278,315.232639 195.444444,316.040806 195.444444,317.038194" id="Fill-3" fill="#F16667"></path>
                    <path d="M195.444444,310.538194 C195.444444,311.535583 194.636278,312.34375 193.638889,312.34375 C192.6415,312.34375 191.833333,311.535583 191.833333,310.538194 C191.833333,309.540806 192.6415,308.732639 193.638889,308.732639 C194.636278,308.732639 195.444444,309.540806 195.444444,310.538194" id="Fill-5" fill="#8DCC93"></path>
                    <path d="M288.611111,319.204861 L286.444444,319.204861 C286.045056,319.204861 285.722222,318.882028 285.722222,318.482639 L285.722222,309.09375 C285.722222,308.694361 286.045056,308.371528 286.444444,308.371528 L288.611111,308.371528 C289.0105,308.371528 289.333333,308.694361 289.333333,309.09375 L289.333333,318.482639 C289.333333,318.882028 289.0105,319.204861 288.611111,319.204861" id="Fill-7" fill="#C2C2C2"></path>
                    <path d="M295.830517,319.204861 L293.669628,319.204861 C293.268794,319.204861 292.944517,318.880583 292.944517,318.47975 L292.944517,309.096639 C292.944517,308.695806 293.268794,308.371528 293.669628,308.371528 L295.830517,308.371528 C296.23135,308.371528 296.555628,308.695806 296.555628,309.096639 L296.555628,318.47975 C296.555628,318.880583 296.23135,319.204861 295.830517,319.204861" id="Fill-9" fill="#C2C2C2"></path>
                    <path d="M303.059094,319.204861 L300.885206,319.204861 C300.487983,319.204861 300.166594,318.883472 300.166594,318.48625 L300.166594,309.090139 C300.166594,308.692917 300.487983,308.371528 300.885206,308.371528 L303.059094,308.371528 C303.456317,308.371528 303.777706,308.692917 303.777706,309.090139 L303.777706,318.48625 C303.777706,318.883472 303.456317,319.204861 303.059094,319.204861" id="Fill-11" fill="#C2C2C2"></path>
                    <path d="M259,310.580517 L259,317.086294 C259,317.68285 258.516111,318.166739 257.919556,318.166739 L234.080444,318.166739 C233.483889,318.166739 233,317.68285 233,317.086294 L233,310.580517 C233,309.983961 233.483889,309.500072 234.080444,309.500072 L257.919556,309.500072 C258.516111,309.500072 259,309.983961 259,310.580517" id="Fill-13" fill="#C2C2C2"></path>
                    <polyline id="Path-5" stroke="#979797" stroke-width="2" points="258 295.258569 303.713551 231 360.010347 350.316564"></polyline>
                    <polygon id="Triangle-5" fill="#979797" transform="translate(256.570914, 297.570914) rotate(-145.000000) translate(-256.570914, -297.570914) " points="256.570914 293.570914 260.570914 301.570914 252.570914 301.570914"></polygon>
                    <polygon id="Triangle-5" fill="#979797" transform="translate(360.884850, 351.705411) scale(-1, 1) rotate(-152.000000) translate(-360.884850, -351.705411) " points="360.88485 347.705411 364.88485 355.705411 356.88485 355.705411"></polygon>
                    <polyline id="Path-8" stroke="#979797" stroke-width="2" points="148.157905 173.021611 218.909335 128.310163 292.070854 173.021611"></polyline>
                    <rect id="Rectangle-19" stroke="#DFDFDF" x="0.5" y="0.5" width="433" height="480"></rect>
                </g>
                <text id="Data-center-3" font-family="OpenSans-Regular, Open Sans" font-size="12" font-weight="normal" fill="#333333">
                    <tspan x="432" y="966">Data center 3</tspan>
                </text>
                <rect id="Rectangle-20" stroke="#979797" x="0.5" y="0.5" width="919" height="988"></rect>
                <text id="Read-Replica" font-family="OpenSans-Regular, Open Sans" font-size="12" font-weight="normal" fill="#333333">
                    <tspan x="336" y="718">Read Replica</tspan>
                </text>
                <g id="Group-32" transform="translate(307.000000, 678.000000)">
                    <path d="M126.388889,21.6666667 L3.61111111,21.6666667 C1.61633333,21.6666667 0,20.0503333 0,18.0555556 L0,3.61111111 C0,1.61633333 1.61633333,0 3.61111111,0 L126.388889,0 C128.383667,0 130,1.61633333 130,3.61111111 L130,18.0555556 C130,20.0503333 128.383667,21.6666667 126.388889,21.6666667" id="Fill-1" fill="#D6D6D6"></path>
                    <path d="M14.4444444,14.0381944 C14.4444444,15.0355833 13.6362778,15.84375 12.6388889,15.84375 C11.6415,15.84375 10.8333333,15.0355833 10.8333333,14.0381944 C10.8333333,13.0408056 11.6415,12.2326389 12.6388889,12.2326389 C13.6362778,12.2326389 14.4444444,13.0408056 14.4444444,14.0381944" id="Fill-3" fill="#F16667"></path>
                    <path d="M14.4444444,7.53819444 C14.4444444,8.53558333 13.6362778,9.34375 12.6388889,9.34375 C11.6415,9.34375 10.8333333,8.53558333 10.8333333,7.53819444 C10.8333333,6.54080556 11.6415,5.73263889 12.6388889,5.73263889 C13.6362778,5.73263889 14.4444444,6.54080556 14.4444444,7.53819444" id="Fill-5" fill="#8DCC93"></path>
                    <path d="M107.611111,16.2048611 L105.444444,16.2048611 C105.045056,16.2048611 104.722222,15.8820278 104.722222,15.4826389 L104.722222,6.09375 C104.722222,5.69436111 105.045056,5.37152778 105.444444,5.37152778 L107.611111,5.37152778 C108.0105,5.37152778 108.333333,5.69436111 108.333333,6.09375 L108.333333,15.4826389 C108.333333,15.8820278 108.0105,16.2048611 107.611111,16.2048611" id="Fill-7" fill="#C2C2C2"></path>
                    <path d="M114.830517,16.2048611 L112.669628,16.2048611 C112.268794,16.2048611 111.944517,15.8805833 111.944517,15.47975 L111.944517,6.09663889 C111.944517,5.69580556 112.268794,5.37152778 112.669628,5.37152778 L114.830517,5.37152778 C115.23135,5.37152778 115.555628,5.69580556 115.555628,6.09663889 L115.555628,15.47975 C115.555628,15.8805833 115.23135,16.2048611 114.830517,16.2048611" id="Fill-9" fill="#C2C2C2"></path>
                    <path d="M122.059094,16.2048611 L119.885206,16.2048611 C119.487983,16.2048611 119.166594,15.8834722 119.166594,15.48625 L119.166594,6.09013889 C119.166594,5.69291667 119.487983,5.37152778 119.885206,5.37152778 L122.059094,5.37152778 C122.456317,5.37152778 122.777706,5.69291667 122.777706,6.09013889 L122.777706,15.48625 C122.777706,15.8834722 122.456317,16.2048611 122.059094,16.2048611" id="Fill-11" fill="#C2C2C2"></path>
                    <path d="M78,7.58051667 L78,14.0862944 C78,14.68285 77.5161111,15.1667389 76.9195556,15.1667389 L53.0804444,15.1667389 C52.4838889,15.1667389 52,14.68285 52,14.0862944 L52,7.58051667 C52,6.98396111 52.4838889,6.50007222 53.0804444,6.50007222 L76.9195556,6.50007222 C77.5161111,6.50007222 78,6.98396111 78,7.58051667" id="Fill-13" fill="#C2C2C2"></path>
                </g>
                <text id="Read-Replica" font-family="OpenSans-Regular, Open Sans" font-size="12" font-weight="normal" fill="#333333">
                    <tspan x="512" y="718">Read Replica</tspan>
                </text>
                <g id="Group-32" transform="translate(483.000000, 678.000000)">
                    <path d="M126.388889,21.6666667 L3.61111111,21.6666667 C1.61633333,21.6666667 0,20.0503333 0,18.0555556 L0,3.61111111 C0,1.61633333 1.61633333,0 3.61111111,0 L126.388889,0 C128.383667,0 130,1.61633333 130,3.61111111 L130,18.0555556 C130,20.0503333 128.383667,21.6666667 126.388889,21.6666667" id="Fill-1" fill="#D6D6D6"></path>
                    <path d="M14.4444444,14.0381944 C14.4444444,15.0355833 13.6362778,15.84375 12.6388889,15.84375 C11.6415,15.84375 10.8333333,15.0355833 10.8333333,14.0381944 C10.8333333,13.0408056 11.6415,12.2326389 12.6388889,12.2326389 C13.6362778,12.2326389 14.4444444,13.0408056 14.4444444,14.0381944" id="Fill-3" fill="#F16667"></path>
                    <path d="M14.4444444,7.53819444 C14.4444444,8.53558333 13.6362778,9.34375 12.6388889,9.34375 C11.6415,9.34375 10.8333333,8.53558333 10.8333333,7.53819444 C10.8333333,6.54080556 11.6415,5.73263889 12.6388889,5.73263889 C13.6362778,5.73263889 14.4444444,6.54080556 14.4444444,7.53819444" id="Fill-5" fill="#8DCC93"></path>
                    <path d="M107.611111,16.2048611 L105.444444,16.2048611 C105.045056,16.2048611 104.722222,15.8820278 104.722222,15.4826389 L104.722222,6.09375 C104.722222,5.69436111 105.045056,5.37152778 105.444444,5.37152778 L107.611111,5.37152778 C108.0105,5.37152778 108.333333,5.69436111 108.333333,6.09375 L108.333333,15.4826389 C108.333333,15.8820278 108.0105,16.2048611 107.611111,16.2048611" id="Fill-7" fill="#C2C2C2"></path>
                    <path d="M114.830517,16.2048611 L112.669628,16.2048611 C112.268794,16.2048611 111.944517,15.8805833 111.944517,15.47975 L111.944517,6.09663889 C111.944517,5.69580556 112.268794,5.37152778 112.669628,5.37152778 L114.830517,5.37152778 C115.23135,5.37152778 115.555628,5.69580556 115.555628,6.09663889 L115.555628,15.47975 C115.555628,15.8805833 115.23135,16.2048611 114.830517,16.2048611" id="Fill-9" fill="#C2C2C2"></path>
                    <path d="M122.059094,16.2048611 L119.885206,16.2048611 C119.487983,16.2048611 119.166594,15.8834722 119.166594,15.48625 L119.166594,6.09013889 C119.166594,5.69291667 119.487983,5.37152778 119.885206,5.37152778 L122.059094,5.37152778 C122.456317,5.37152778 122.777706,5.69291667 122.777706,6.09013889 L122.777706,15.48625 C122.777706,15.8834722 122.456317,16.2048611 122.059094,16.2048611" id="Fill-11" fill="#C2C2C2"></path>
                    <path d="M78,7.58051667 L78,14.0862944 C78,14.68285 77.5161111,15.1667389 76.9195556,15.1667389 L53.0804444,15.1667389 C52.4838889,15.1667389 52,14.68285 52,14.0862944 L52,7.58051667 C52,6.98396111 52.4838889,6.50007222 53.0804444,6.50007222 L76.9195556,6.50007222 C77.5161111,6.50007222 78,6.98396111 78,7.58051667" id="Fill-13" fill="#C2C2C2"></path>
                </g>
                <rect id="Rectangle-15" fill="#C2C2C2" x="411" y="591" width="100" height="9"></rect>
                <rect id="Rectangle-15" fill="#C2C2C2" x="411" y="561" width="100" height="9"></rect>
                <g id="Page-1-Copy-2" transform="translate(396.000000, 600.000000)">
                    <path d="M126.388889,21.6666667 L3.61111111,21.6666667 C1.61633333,21.6666667 0,20.0503333 0,18.0555556 L0,3.61111111 C0,1.61633333 1.61633333,0 3.61111111,0 L126.388889,0 C128.383667,0 130,1.61633333 130,3.61111111 L130,18.0555556 C130,20.0503333 128.383667,21.6666667 126.388889,21.6666667" id="Fill-1" fill="#D6D6D6"></path>
                    <path d="M14.4444444,14.0381944 C14.4444444,15.0355833 13.6362778,15.84375 12.6388889,15.84375 C11.6415,15.84375 10.8333333,15.0355833 10.8333333,14.0381944 C10.8333333,13.0408056 11.6415,12.2326389 12.6388889,12.2326389 C13.6362778,12.2326389 14.4444444,13.0408056 14.4444444,14.0381944" id="Fill-3" fill="#F16667"></path>
                    <path d="M14.4444444,7.53819444 C14.4444444,8.53558333 13.6362778,9.34375 12.6388889,9.34375 C11.6415,9.34375 10.8333333,8.53558333 10.8333333,7.53819444 C10.8333333,6.54080556 11.6415,5.73263889 12.6388889,5.73263889 C13.6362778,5.73263889 14.4444444,6.54080556 14.4444444,7.53819444" id="Fill-5" fill="#8DCC93"></path>
                    <path d="M107.611111,16.2048611 L105.444444,16.2048611 C105.045056,16.2048611 104.722222,15.8820278 104.722222,15.4826389 L104.722222,6.09375 C104.722222,5.69436111 105.045056,5.37152778 105.444444,5.37152778 L107.611111,5.37152778 C108.0105,5.37152778 108.333333,5.69436111 108.333333,6.09375 L108.333333,15.4826389 C108.333333,15.8820278 108.0105,16.2048611 107.611111,16.2048611" id="Fill-7" fill="#C2C2C2"></path>
                    <path d="M114.830517,16.2048611 L112.669628,16.2048611 C112.268794,16.2048611 111.944517,15.8805833 111.944517,15.47975 L111.944517,6.09663889 C111.944517,5.69580556 112.268794,5.37152778 112.669628,5.37152778 L114.830517,5.37152778 C115.23135,5.37152778 115.555628,5.69580556 115.555628,6.09663889 L115.555628,15.47975 C115.555628,15.8805833 115.23135,16.2048611 114.830517,16.2048611" id="Fill-9" fill="#C2C2C2"></path>
                    <path d="M122.059094,16.2048611 L119.885206,16.2048611 C119.487983,16.2048611 119.166594,15.8834722 119.166594,15.48625 L119.166594,6.09013889 C119.166594,5.69291667 119.487983,5.37152778 119.885206,5.37152778 L122.059094,5.37152778 C122.456317,5.37152778 122.777706,5.69291667 122.777706,6.09013889 L122.777706,15.48625 C122.777706,15.8834722 122.456317,16.2048611 122.059094,16.2048611" id="Fill-11" fill="#C2C2C2"></path>
                    <path d="M78,7.58051667 L78,14.0862944 C78,14.68285 77.5161111,15.1667389 76.9195556,15.1667389 L53.0804444,15.1667389 C52.4838889,15.1667389 52,14.68285 52,14.0862944 L52,7.58051667 C52,6.98396111 52.4838889,6.50007222 53.0804444,6.50007222 L76.9195556,6.50007222 C77.5161111,6.50007222 78,6.98396111 78,7.58051667" id="Fill-13" fill="#C2C2C2"></path>
                </g>
                <g id="Page-1-Copy-2" transform="translate(396.000000, 569.333333)">
                    <path d="M126.388889,21.6666667 L3.61111111,21.6666667 C1.61633333,21.6666667 0,20.0503333 0,18.0555556 L0,3.61111111 C0,1.61633333 1.61633333,0 3.61111111,0 L126.388889,0 C128.383667,0 130,1.61633333 130,3.61111111 L130,18.0555556 C130,20.0503333 128.383667,21.6666667 126.388889,21.6666667" id="Fill-1" fill="#D6D6D6"></path>
                    <path d="M14.4444444,14.0381944 C14.4444444,15.0355833 13.6362778,15.84375 12.6388889,15.84375 C11.6415,15.84375 10.8333333,15.0355833 10.8333333,14.0381944 C10.8333333,13.0408056 11.6415,12.2326389 12.6388889,12.2326389 C13.6362778,12.2326389 14.4444444,13.0408056 14.4444444,14.0381944" id="Fill-3" fill="#F16667"></path>
                    <path d="M14.4444444,7.53819444 C14.4444444,8.53558333 13.6362778,9.34375 12.6388889,9.34375 C11.6415,9.34375 10.8333333,8.53558333 10.8333333,7.53819444 C10.8333333,6.54080556 11.6415,5.73263889 12.6388889,5.73263889 C13.6362778,5.73263889 14.4444444,6.54080556 14.4444444,7.53819444" id="Fill-5" fill="#8DCC93"></path>
                    <path d="M107.611111,16.2048611 L105.444444,16.2048611 C105.045056,16.2048611 104.722222,15.8820278 104.722222,15.4826389 L104.722222,6.09375 C104.722222,5.69436111 105.045056,5.37152778 105.444444,5.37152778 L107.611111,5.37152778 C108.0105,5.37152778 108.333333,5.69436111 108.333333,6.09375 L108.333333,15.4826389 C108.333333,15.8820278 108.0105,16.2048611 107.611111,16.2048611" id="Fill-7" fill="#C2C2C2"></path>
                    <path d="M114.830517,16.2048611 L112.669628,16.2048611 C112.268794,16.2048611 111.944517,15.8805833 111.944517,15.47975 L111.944517,6.09663889 C111.944517,5.69580556 112.268794,5.37152778 112.669628,5.37152778 L114.830517,5.37152778 C115.23135,5.37152778 115.555628,5.69580556 115.555628,6.09663889 L115.555628,15.47975 C115.555628,15.8805833 115.23135,16.2048611 114.830517,16.2048611" id="Fill-9" fill="#C2C2C2"></path>
                    <path d="M122.059094,16.2048611 L119.885206,16.2048611 C119.487983,16.2048611 119.166594,15.8834722 119.166594,15.48625 L119.166594,6.09013889 C119.166594,5.69291667 119.487983,5.37152778 119.885206,5.37152778 L122.059094,5.37152778 C122.456317,5.37152778 122.777706,5.69291667 122.777706,6.09013889 L122.777706,15.48625 C122.777706,15.8834722 122.456317,16.2048611 122.059094,16.2048611" id="Fill-11" fill="#C2C2C2"></path>
                    <path d="M78,7.58051667 L78,14.0862944 C78,14.68285 77.5161111,15.1667389 76.9195556,15.1667389 L53.0804444,15.1667389 C52.4838889,15.1667389 52,14.68285 52,14.0862944 L52,7.58051667 C52,6.98396111 52.4838889,6.50007222 53.0804444,6.50007222 L76.9195556,6.50007222 C77.5161111,6.50007222 78,6.98396111 78,7.58051667" id="Fill-13" fill="#C2C2C2"></path>
                </g>
                <g id="Page-1-Copy-2" transform="translate(396.000000, 540.000000)">
                    <path d="M126.388889,21.6666667 L3.61111111,21.6666667 C1.61633333,21.6666667 0,20.0503333 0,18.0555556 L0,3.61111111 C0,1.61633333 1.61633333,0 3.61111111,0 L126.388889,0 C128.383667,0 130,1.61633333 130,3.61111111 L130,18.0555556 C130,20.0503333 128.383667,21.6666667 126.388889,21.6666667" id="Fill-1" fill="#D6D6D6"></path>
                    <path d="M15.4444444,14.0381944 C15.4444444,15.0355833 14.6362778,15.84375 13.6388889,15.84375 C12.6415,15.84375 11.8333333,15.0355833 11.8333333,14.0381944 C11.8333333,13.0408056 12.6415,12.2326389 13.6388889,12.2326389 C14.6362778,12.2326389 15.4444444,13.0408056 15.4444444,14.0381944" id="Fill-3" fill="#F16667"></path>
                    <path d="M15.4444444,7.53819444 C15.4444444,8.53558333 14.6362778,9.34375 13.6388889,9.34375 C12.6415,9.34375 11.8333333,8.53558333 11.8333333,7.53819444 C11.8333333,6.54080556 12.6415,5.73263889 13.6388889,5.73263889 C14.6362778,5.73263889 15.4444444,6.54080556 15.4444444,7.53819444" id="Fill-5" fill="#8DCC93"></path>
                    <path d="M108.611111,16.2048611 L106.444444,16.2048611 C106.045056,16.2048611 105.722222,15.8820278 105.722222,15.4826389 L105.722222,6.09375 C105.722222,5.69436111 106.045056,5.37152778 106.444444,5.37152778 L108.611111,5.37152778 C109.0105,5.37152778 109.333333,5.69436111 109.333333,6.09375 L109.333333,15.4826389 C109.333333,15.8820278 109.0105,16.2048611 108.611111,16.2048611" id="Fill-7" fill="#C2C2C2"></path>
                    <path d="M115.830517,16.2048611 L113.669628,16.2048611 C113.268794,16.2048611 112.944517,15.8805833 112.944517,15.47975 L112.944517,6.09663889 C112.944517,5.69580556 113.268794,5.37152778 113.669628,5.37152778 L115.830517,5.37152778 C116.23135,5.37152778 116.555628,5.69580556 116.555628,6.09663889 L116.555628,15.47975 C116.555628,15.8805833 116.23135,16.2048611 115.830517,16.2048611" id="Fill-9" fill="#C2C2C2"></path>
                    <path d="M123.059094,16.2048611 L120.885206,16.2048611 C120.487983,16.2048611 120.166594,15.8834722 120.166594,15.48625 L120.166594,6.09013889 C120.166594,5.69291667 120.487983,5.37152778 120.885206,5.37152778 L123.059094,5.37152778 C123.456317,5.37152778 123.777706,5.69291667 123.777706,6.09013889 L123.777706,15.48625 C123.777706,15.8834722 123.456317,16.2048611 123.059094,16.2048611" id="Fill-11" fill="#C2C2C2"></path>
                    <path d="M79,7.58051667 L79,14.0862944 C79,14.68285 78.5161111,15.1667389 77.9195556,15.1667389 L54.0804444,15.1667389 C53.4838889,15.1667389 53,14.68285 53,14.0862944 L53,7.58051667 C53,6.98396111 53.4838889,6.50007222 54.0804444,6.50007222 L77.9195556,6.50007222 C78.5161111,6.50007222 79,6.98396111 79,7.58051667" id="Fill-13" fill="#C2C2C2"></path>
                </g>
                <text id="Core-Servers" font-family="OpenSans-Regular, Open Sans" font-size="12" font-weight="normal" fill="#333333">
                    <tspan x="429" y="527">Core Servers</tspan>
                </text>
                <text id="Read-Replica" font-family="OpenSans-Regular, Open Sans" font-size="12" font-weight="normal" fill="#333333">
                    <tspan x="394" y="894">Read Replica</tspan>
                </text>
                <text id="Read-Replica" font-family="OpenSans-Regular, Open Sans" font-size="12" font-weight="normal" fill="#333333">
                    <tspan x="278" y="840">Read Replica</tspan>
                </text>
                <path d="M491.388889,875.666667 L368.611111,875.666667 C366.616333,875.666667 365,874.050333 365,872.055556 L365,857.611111 C365,855.616333 366.616333,854 368.611111,854 L491.388889,854 C493.383667,854 495,855.616333 495,857.611111 L495,872.055556 C495,874.050333 493.383667,875.666667 491.388889,875.666667" id="Fill-1" fill="#D6D6D6"></path>
                <path d="M379.444444,868.038194 C379.444444,869.035583 378.636278,869.84375 377.638889,869.84375 C376.6415,869.84375 375.833333,869.035583 375.833333,868.038194 C375.833333,867.040806 376.6415,866.232639 377.638889,866.232639 C378.636278,866.232639 379.444444,867.040806 379.444444,868.038194" id="Fill-3" fill="#F16667"></path>
                <path d="M379.444444,861.538194 C379.444444,862.535583 378.636278,863.34375 377.638889,863.34375 C376.6415,863.34375 375.833333,862.535583 375.833333,861.538194 C375.833333,860.540806 376.6415,859.732639 377.638889,859.732639 C378.636278,859.732639 379.444444,860.540806 379.444444,861.538194" id="Fill-5" fill="#8DCC93"></path>
                <path d="M472.611111,870.204861 L470.444444,870.204861 C470.045056,870.204861 469.722222,869.882028 469.722222,869.482639 L469.722222,860.09375 C469.722222,859.694361 470.045056,859.371528 470.444444,859.371528 L472.611111,859.371528 C473.0105,859.371528 473.333333,859.694361 473.333333,860.09375 L473.333333,869.482639 C473.333333,869.882028 473.0105,870.204861 472.611111,870.204861" id="Fill-7" fill="#C2C2C2"></path>
                <path d="M479.830517,870.204861 L477.669628,870.204861 C477.268794,870.204861 476.944517,869.880583 476.944517,869.47975 L476.944517,860.096639 C476.944517,859.695806 477.268794,859.371528 477.669628,859.371528 L479.830517,859.371528 C480.23135,859.371528 480.555628,859.695806 480.555628,860.096639 L480.555628,869.47975 C480.555628,869.880583 480.23135,870.204861 479.830517,870.204861" id="Fill-9" fill="#C2C2C2"></path>
                <path d="M487.059094,870.204861 L484.885206,870.204861 C484.487983,870.204861 484.166594,869.883472 484.166594,869.48625 L484.166594,860.090139 C484.166594,859.692917 484.487983,859.371528 484.885206,859.371528 L487.059094,859.371528 C487.456317,859.371528 487.777706,859.692917 487.777706,860.090139 L487.777706,869.48625 C487.777706,869.883472 487.456317,870.204861 487.059094,870.204861" id="Fill-11" fill="#C2C2C2"></path>
                <path d="M443,861.580517 L443,868.086294 C443,868.68285 442.516111,869.166739 441.919556,869.166739 L418.080444,869.166739 C417.483889,869.166739 417,868.68285 417,868.086294 L417,861.580517 C417,860.983961 417.483889,860.500072 418.080444,860.500072 L441.919556,860.500072 C442.516111,860.500072 443,860.983961 443,861.580517" id="Fill-13" fill="#C2C2C2"></path>
                <path d="M375.388889,821.666667 L252.611111,821.666667 C250.616333,821.666667 249,820.050333 249,818.055556 L249,803.611111 C249,801.616333 250.616333,800 252.611111,800 L375.388889,800 C377.383667,800 379,801.616333 379,803.611111 L379,818.055556 C379,820.050333 377.383667,821.666667 375.388889,821.666667" id="Fill-1" fill="#D6D6D6"></path>
                <path d="M263.444444,814.038194 C263.444444,815.035583 262.636278,815.84375 261.638889,815.84375 C260.6415,815.84375 259.833333,815.035583 259.833333,814.038194 C259.833333,813.040806 260.6415,812.232639 261.638889,812.232639 C262.636278,812.232639 263.444444,813.040806 263.444444,814.038194" id="Fill-3" fill="#F16667"></path>
                <path d="M263.444444,807.538194 C263.444444,808.535583 262.636278,809.34375 261.638889,809.34375 C260.6415,809.34375 259.833333,808.535583 259.833333,807.538194 C259.833333,806.540806 260.6415,805.732639 261.638889,805.732639 C262.636278,805.732639 263.444444,806.540806 263.444444,807.538194" id="Fill-5" fill="#8DCC93"></path>
                <path d="M356.611111,816.204861 L354.444444,816.204861 C354.045056,816.204861 353.722222,815.882028 353.722222,815.482639 L353.722222,806.09375 C353.722222,805.694361 354.045056,805.371528 354.444444,805.371528 L356.611111,805.371528 C357.0105,805.371528 357.333333,805.694361 357.333333,806.09375 L357.333333,815.482639 C357.333333,815.882028 357.0105,816.204861 356.611111,816.204861" id="Fill-7" fill="#C2C2C2"></path>
                <path d="M363.830517,816.204861 L361.669628,816.204861 C361.268794,816.204861 360.944517,815.880583 360.944517,815.47975 L360.944517,806.096639 C360.944517,805.695806 361.268794,805.371528 361.669628,805.371528 L363.830517,805.371528 C364.23135,805.371528 364.555628,805.695806 364.555628,806.096639 L364.555628,815.47975 C364.555628,815.880583 364.23135,816.204861 363.830517,816.204861" id="Fill-9" fill="#C2C2C2"></path>
                <path d="M371.059094,816.204861 L368.885206,816.204861 C368.487983,816.204861 368.166594,815.883472 368.166594,815.48625 L368.166594,806.090139 C368.166594,805.692917 368.487983,805.371528 368.885206,805.371528 L371.059094,805.371528 C371.456317,805.371528 371.777706,805.692917 371.777706,806.090139 L371.777706,815.48625 C371.777706,815.883472 371.456317,816.204861 371.059094,816.204861" id="Fill-11" fill="#C2C2C2"></path>
                <path d="M327,807.580517 L327,814.086294 C327,814.68285 326.516111,815.166739 325.919556,815.166739 L302.080444,815.166739 C301.483889,815.166739 301,814.68285 301,814.086294 L301,807.580517 C301,806.983961 301.483889,806.500072 302.080444,806.500072 L325.919556,806.500072 C326.516111,806.500072 327,806.983961 327,807.580517" id="Fill-13" fill="#C2C2C2"></path>
                <polyline id="Path-5" stroke="#979797" stroke-width="2" points="326 792.258569 371.713551 728 428.010347 847.316564"></polyline>
                <polygon id="Triangle-5" fill="#979797" transform="translate(324.570914, 794.570914) rotate(-145.000000) translate(-324.570914, -794.570914) " points="324.570914 790.570914 328.570914 798.570914 320.570914 798.570914"></polygon>
                <polygon id="Triangle-5" fill="#979797" transform="translate(388.762266, 671.503564) rotate(-124.000000) translate(-388.762266, -671.503564) " points="388.762266 667.503564 392.762266 675.503564 384.762266 675.503564"></polygon>
                <polygon id="Triangle-5" fill="#979797" transform="translate(537.100146, 671.480167) scale(-1, 1) rotate(-124.000000) translate(-537.100146, -671.480167) " points="537.100146 667.480167 541.100146 675.480167 533.100146 675.480167"></polygon>
                <polygon id="Triangle-5" fill="#979797" transform="translate(428.884850, 848.705411) scale(-1, 1) rotate(-152.000000) translate(-428.884850, -848.705411) " points="428.88485 844.705411 432.88485 852.705411 424.88485 852.705411"></polygon>
                <text id="Read-Replica" font-family="OpenSans-Regular, Open Sans" font-size="12" font-weight="normal" fill="#333333">
                    <tspan x="569" y="894">Read Replica</tspan>
                </text>
                <text id="Read-Replica" font-family="OpenSans-Regular, Open Sans" font-size="12" font-weight="normal" fill="#333333">
                    <tspan x="453" y="840">Read Replica</tspan>
                </text>
                <path d="M666.388889,875.666667 L543.611111,875.666667 C541.616333,875.666667 540,874.050333 540,872.055556 L540,857.611111 C540,855.616333 541.616333,854 543.611111,854 L666.388889,854 C668.383667,854 670,855.616333 670,857.611111 L670,872.055556 C670,874.050333 668.383667,875.666667 666.388889,875.666667" id="Fill-1" fill="#D6D6D6"></path>
                <path d="M554.444444,868.038194 C554.444444,869.035583 553.636278,869.84375 552.638889,869.84375 C551.6415,869.84375 550.833333,869.035583 550.833333,868.038194 C550.833333,867.040806 551.6415,866.232639 552.638889,866.232639 C553.636278,866.232639 554.444444,867.040806 554.444444,868.038194" id="Fill-3" fill="#F16667"></path>
                <path d="M554.444444,861.538194 C554.444444,862.535583 553.636278,863.34375 552.638889,863.34375 C551.6415,863.34375 550.833333,862.535583 550.833333,861.538194 C550.833333,860.540806 551.6415,859.732639 552.638889,859.732639 C553.636278,859.732639 554.444444,860.540806 554.444444,861.538194" id="Fill-5" fill="#8DCC93"></path>
                <path d="M647.611111,870.204861 L645.444444,870.204861 C645.045056,870.204861 644.722222,869.882028 644.722222,869.482639 L644.722222,860.09375 C644.722222,859.694361 645.045056,859.371528 645.444444,859.371528 L647.611111,859.371528 C648.0105,859.371528 648.333333,859.694361 648.333333,860.09375 L648.333333,869.482639 C648.333333,869.882028 648.0105,870.204861 647.611111,870.204861" id="Fill-7" fill="#C2C2C2"></path>
                <path d="M654.830517,870.204861 L652.669628,870.204861 C652.268794,870.204861 651.944517,869.880583 651.944517,869.47975 L651.944517,860.096639 C651.944517,859.695806 652.268794,859.371528 652.669628,859.371528 L654.830517,859.371528 C655.23135,859.371528 655.555628,859.695806 655.555628,860.096639 L655.555628,869.47975 C655.555628,869.880583 655.23135,870.204861 654.830517,870.204861" id="Fill-9" fill="#C2C2C2"></path>
                <path d="M662.059094,870.204861 L659.885206,870.204861 C659.487983,870.204861 659.166594,869.883472 659.166594,869.48625 L659.166594,860.090139 C659.166594,859.692917 659.487983,859.371528 659.885206,859.371528 L662.059094,859.371528 C662.456317,859.371528 662.777706,859.692917 662.777706,860.090139 L662.777706,869.48625 C662.777706,869.883472 662.456317,870.204861 662.059094,870.204861" id="Fill-11" fill="#C2C2C2"></path>
                <path d="M618,861.580517 L618,868.086294 C618,868.68285 617.516111,869.166739 616.919556,869.166739 L593.080444,869.166739 C592.483889,869.166739 592,868.68285 592,868.086294 L592,861.580517 C592,860.983961 592.483889,860.500072 593.080444,860.500072 L616.919556,860.500072 C617.516111,860.500072 618,860.983961 618,861.580517" id="Fill-13" fill="#C2C2C2"></path>
                <path d="M550.388889,821.666667 L427.611111,821.666667 C425.616333,821.666667 424,820.050333 424,818.055556 L424,803.611111 C424,801.616333 425.616333,800 427.611111,800 L550.388889,800 C552.383667,800 554,801.616333 554,803.611111 L554,818.055556 C554,820.050333 552.383667,821.666667 550.388889,821.666667" id="Fill-1" fill="#D6D6D6"></path>
                <path d="M438.444444,814.038194 C438.444444,815.035583 437.636278,815.84375 436.638889,815.84375 C435.6415,815.84375 434.833333,815.035583 434.833333,814.038194 C434.833333,813.040806 435.6415,812.232639 436.638889,812.232639 C437.636278,812.232639 438.444444,813.040806 438.444444,814.038194" id="Fill-3" fill="#F16667"></path>
                <path d="M438.444444,807.538194 C438.444444,808.535583 437.636278,809.34375 436.638889,809.34375 C435.6415,809.34375 434.833333,808.535583 434.833333,807.538194 C434.833333,806.540806 435.6415,805.732639 436.638889,805.732639 C437.636278,805.732639 438.444444,806.540806 438.444444,807.538194" id="Fill-5" fill="#8DCC93"></path>
                <path d="M531.611111,816.204861 L529.444444,816.204861 C529.045056,816.204861 528.722222,815.882028 528.722222,815.482639 L528.722222,806.09375 C528.722222,805.694361 529.045056,805.371528 529.444444,805.371528 L531.611111,805.371528 C532.0105,805.371528 532.333333,805.694361 532.333333,806.09375 L532.333333,815.482639 C532.333333,815.882028 532.0105,816.204861 531.611111,816.204861" id="Fill-7" fill="#C2C2C2"></path>
                <path d="M538.830517,816.204861 L536.669628,816.204861 C536.268794,816.204861 535.944517,815.880583 535.944517,815.47975 L535.944517,806.096639 C535.944517,805.695806 536.268794,805.371528 536.669628,805.371528 L538.830517,805.371528 C539.23135,805.371528 539.555628,805.695806 539.555628,806.096639 L539.555628,815.47975 C539.555628,815.880583 539.23135,816.204861 538.830517,816.204861" id="Fill-9" fill="#C2C2C2"></path>
                <path d="M546.059094,816.204861 L543.885206,816.204861 C543.487983,816.204861 543.166594,815.883472 543.166594,815.48625 L543.166594,806.090139 C543.166594,805.692917 543.487983,805.371528 543.885206,805.371528 L546.059094,805.371528 C546.456317,805.371528 546.777706,805.692917 546.777706,806.090139 L546.777706,815.48625 C546.777706,815.883472 546.456317,816.204861 546.059094,816.204861" id="Fill-11" fill="#C2C2C2"></path>
                <path d="M502,807.580517 L502,814.086294 C502,814.68285 501.516111,815.166739 500.919556,815.166739 L477.080444,815.166739 C476.483889,815.166739 476,814.68285 476,814.086294 L476,807.580517 C476,806.983961 476.483889,806.500072 477.080444,806.500072 L500.919556,806.500072 C501.516111,806.500072 502,806.983961 502,807.580517" id="Fill-13" fill="#C2C2C2"></path>
                <polyline id="Path-5" stroke="#979797" stroke-width="2" points="501 792.258569 546.713551 728 603.010347 847.316564"></polyline>
                <polygon id="Triangle-5" fill="#979797" transform="translate(499.570914, 794.570914) rotate(-145.000000) translate(-499.570914, -794.570914) " points="499.570914 790.570914 503.570914 798.570914 495.570914 798.570914"></polygon>
                <polygon id="Triangle-5" fill="#979797" transform="translate(603.884850, 848.705411) scale(-1, 1) rotate(-152.000000) translate(-603.884850, -848.705411) " points="603.88485 844.705411 607.88485 852.705411 599.88485 852.705411"></polygon>
                <polyline id="Path-8" stroke="#979797" stroke-width="2" points="391.157905 670.021611 461.909335 625.310163 535.070854 670.021611"></polyline>
                <rect id="Rectangle-19" stroke="#DFDFDF" x="243.5" y="497.5" width="433" height="480"></rect>
                <text id="Data-center-2" font-family="OpenSans-Regular, Open Sans" font-size="12" font-weight="normal" fill="#333333">
                    <tspan x="641" y="473">Data center 2</tspan>
                </text>
                <text id="Read-Replica" font-family="OpenSans-Regular, Open Sans" font-size="12" font-weight="normal" fill="#333333">
                    <tspan x="555" y="232">Read Replica</tspan>
                </text>
                <g id="Group-32" transform="translate(526.000000, 192.000000)">
                    <path d="M126.388889,21.6666667 L3.61111111,21.6666667 C1.61633333,21.6666667 0,20.0503333 0,18.0555556 L0,3.61111111 C0,1.61633333 1.61633333,0 3.61111111,0 L126.388889,0 C128.383667,0 130,1.61633333 130,3.61111111 L130,18.0555556 C130,20.0503333 128.383667,21.6666667 126.388889,21.6666667" id="Fill-1" fill="#D6D6D6"></path>
                    <path d="M14.4444444,14.0381944 C14.4444444,15.0355833 13.6362778,15.84375 12.6388889,15.84375 C11.6415,15.84375 10.8333333,15.0355833 10.8333333,14.0381944 C10.8333333,13.0408056 11.6415,12.2326389 12.6388889,12.2326389 C13.6362778,12.2326389 14.4444444,13.0408056 14.4444444,14.0381944" id="Fill-3" fill="#F16667"></path>
                    <path d="M14.4444444,7.53819444 C14.4444444,8.53558333 13.6362778,9.34375 12.6388889,9.34375 C11.6415,9.34375 10.8333333,8.53558333 10.8333333,7.53819444 C10.8333333,6.54080556 11.6415,5.73263889 12.6388889,5.73263889 C13.6362778,5.73263889 14.4444444,6.54080556 14.4444444,7.53819444" id="Fill-5" fill="#8DCC93"></path>
                    <path d="M107.611111,16.2048611 L105.444444,16.2048611 C105.045056,16.2048611 104.722222,15.8820278 104.722222,15.4826389 L104.722222,6.09375 C104.722222,5.69436111 105.045056,5.37152778 105.444444,5.37152778 L107.611111,5.37152778 C108.0105,5.37152778 108.333333,5.69436111 108.333333,6.09375 L108.333333,15.4826389 C108.333333,15.8820278 108.0105,16.2048611 107.611111,16.2048611" id="Fill-7" fill="#C2C2C2"></path>
                    <path d="M114.830517,16.2048611 L112.669628,16.2048611 C112.268794,16.2048611 111.944517,15.8805833 111.944517,15.47975 L111.944517,6.09663889 C111.944517,5.69580556 112.268794,5.37152778 112.669628,5.37152778 L114.830517,5.37152778 C115.23135,5.37152778 115.555628,5.69580556 115.555628,6.09663889 L115.555628,15.47975 C115.555628,15.8805833 115.23135,16.2048611 114.830517,16.2048611" id="Fill-9" fill="#C2C2C2"></path>
                    <path d="M122.059094,16.2048611 L119.885206,16.2048611 C119.487983,16.2048611 119.166594,15.8834722 119.166594,15.48625 L119.166594,6.09013889 C119.166594,5.69291667 119.487983,5.37152778 119.885206,5.37152778 L122.059094,5.37152778 C122.456317,5.37152778 122.777706,5.69291667 122.777706,6.09013889 L122.777706,15.48625 C122.777706,15.8834722 122.456317,16.2048611 122.059094,16.2048611" id="Fill-11" fill="#C2C2C2"></path>
                    <path d="M78,7.58051667 L78,14.0862944 C78,14.68285 77.5161111,15.1667389 76.9195556,15.1667389 L53.0804444,15.1667389 C52.4838889,15.1667389 52,14.68285 52,14.0862944 L52,7.58051667 C52,6.98396111 52.4838889,6.50007222 53.0804444,6.50007222 L76.9195556,6.50007222 C77.5161111,6.50007222 78,6.98396111 78,7.58051667" id="Fill-13" fill="#C2C2C2"></path>
                </g>
                <text id="Read-Replica" font-family="OpenSans-Regular, Open Sans" font-size="12" font-weight="normal" fill="#333333">
                    <tspan x="731" y="232">Read Replica</tspan>
                </text>
                <g id="Group-32" transform="translate(702.000000, 192.000000)">
                    <path d="M126.388889,21.6666667 L3.61111111,21.6666667 C1.61633333,21.6666667 0,20.0503333 0,18.0555556 L0,3.61111111 C0,1.61633333 1.61633333,0 3.61111111,0 L126.388889,0 C128.383667,0 130,1.61633333 130,3.61111111 L130,18.0555556 C130,20.0503333 128.383667,21.6666667 126.388889,21.6666667" id="Fill-1" fill="#D6D6D6"></path>
                    <path d="M14.4444444,14.0381944 C14.4444444,15.0355833 13.6362778,15.84375 12.6388889,15.84375 C11.6415,15.84375 10.8333333,15.0355833 10.8333333,14.0381944 C10.8333333,13.0408056 11.6415,12.2326389 12.6388889,12.2326389 C13.6362778,12.2326389 14.4444444,13.0408056 14.4444444,14.0381944" id="Fill-3" fill="#F16667"></path>
                    <path d="M14.4444444,7.53819444 C14.4444444,8.53558333 13.6362778,9.34375 12.6388889,9.34375 C11.6415,9.34375 10.8333333,8.53558333 10.8333333,7.53819444 C10.8333333,6.54080556 11.6415,5.73263889 12.6388889,5.73263889 C13.6362778,5.73263889 14.4444444,6.54080556 14.4444444,7.53819444" id="Fill-5" fill="#8DCC93"></path>
                    <path d="M107.611111,16.2048611 L105.444444,16.2048611 C105.045056,16.2048611 104.722222,15.8820278 104.722222,15.4826389 L104.722222,6.09375 C104.722222,5.69436111 105.045056,5.37152778 105.444444,5.37152778 L107.611111,5.37152778 C108.0105,5.37152778 108.333333,5.69436111 108.333333,6.09375 L108.333333,15.4826389 C108.333333,15.8820278 108.0105,16.2048611 107.611111,16.2048611" id="Fill-7" fill="#C2C2C2"></path>
                    <path d="M114.830517,16.2048611 L112.669628,16.2048611 C112.268794,16.2048611 111.944517,15.8805833 111.944517,15.47975 L111.944517,6.09663889 C111.944517,5.69580556 112.268794,5.37152778 112.669628,5.37152778 L114.830517,5.37152778 C115.23135,5.37152778 115.555628,5.69580556 115.555628,6.09663889 L115.555628,15.47975 C115.555628,15.8805833 115.23135,16.2048611 114.830517,16.2048611" id="Fill-9" fill="#C2C2C2"></path>
                    <path d="M122.059094,16.2048611 L119.885206,16.2048611 C119.487983,16.2048611 119.166594,15.8834722 119.166594,15.48625 L119.166594,6.09013889 C119.166594,5.69291667 119.487983,5.37152778 119.885206,5.37152778 L122.059094,5.37152778 C122.456317,5.37152778 122.777706,5.69291667 122.777706,6.09013889 L122.777706,15.48625 C122.777706,15.8834722 122.456317,16.2048611 122.059094,16.2048611" id="Fill-11" fill="#C2C2C2"></path>
                    <path d="M78,7.58051667 L78,14.0862944 C78,14.68285 77.5161111,15.1667389 76.9195556,15.1667389 L53.0804444,15.1667389 C52.4838889,15.1667389 52,14.68285 52,14.0862944 L52,7.58051667 C52,6.98396111 52.4838889,6.50007222 53.0804444,6.50007222 L76.9195556,6.50007222 C77.5161111,6.50007222 78,6.98396111 78,7.58051667" id="Fill-13" fill="#C2C2C2"></path>
                </g>
                <rect id="Rectangle-15" fill="#C2C2C2" x="631" y="105" width="100" height="9"></rect>
                <rect id="Rectangle-15" fill="#C2C2C2" x="631" y="75" width="100" height="9"></rect>
                <g id="Page-1-Copy-2" transform="translate(616.000000, 114.000000)">
                    <path d="M126.388889,21.6666667 L3.61111111,21.6666667 C1.61633333,21.6666667 0,20.0503333 0,18.0555556 L0,3.61111111 C0,1.61633333 1.61633333,0 3.61111111,0 L126.388889,0 C128.383667,0 130,1.61633333 130,3.61111111 L130,18.0555556 C130,20.0503333 128.383667,21.6666667 126.388889,21.6666667" id="Fill-1" fill="#D6D6D6"></path>
                    <path d="M14.4444444,14.0381944 C14.4444444,15.0355833 13.6362778,15.84375 12.6388889,15.84375 C11.6415,15.84375 10.8333333,15.0355833 10.8333333,14.0381944 C10.8333333,13.0408056 11.6415,12.2326389 12.6388889,12.2326389 C13.6362778,12.2326389 14.4444444,13.0408056 14.4444444,14.0381944" id="Fill-3" fill="#F16667"></path>
                    <path d="M14.4444444,7.53819444 C14.4444444,8.53558333 13.6362778,9.34375 12.6388889,9.34375 C11.6415,9.34375 10.8333333,8.53558333 10.8333333,7.53819444 C10.8333333,6.54080556 11.6415,5.73263889 12.6388889,5.73263889 C13.6362778,5.73263889 14.4444444,6.54080556 14.4444444,7.53819444" id="Fill-5" fill="#8DCC93"></path>
                    <path d="M107.611111,16.2048611 L105.444444,16.2048611 C105.045056,16.2048611 104.722222,15.8820278 104.722222,15.4826389 L104.722222,6.09375 C104.722222,5.69436111 105.045056,5.37152778 105.444444,5.37152778 L107.611111,5.37152778 C108.0105,5.37152778 108.333333,5.69436111 108.333333,6.09375 L108.333333,15.4826389 C108.333333,15.8820278 108.0105,16.2048611 107.611111,16.2048611" id="Fill-7" fill="#C2C2C2"></path>
                    <path d="M114.830517,16.2048611 L112.669628,16.2048611 C112.268794,16.2048611 111.944517,15.8805833 111.944517,15.47975 L111.944517,6.09663889 C111.944517,5.69580556 112.268794,5.37152778 112.669628,5.37152778 L114.830517,5.37152778 C115.23135,5.37152778 115.555628,5.69580556 115.555628,6.09663889 L115.555628,15.47975 C115.555628,15.8805833 115.23135,16.2048611 114.830517,16.2048611" id="Fill-9" fill="#C2C2C2"></path>
                    <path d="M122.059094,16.2048611 L119.885206,16.2048611 C119.487983,16.2048611 119.166594,15.8834722 119.166594,15.48625 L119.166594,6.09013889 C119.166594,5.69291667 119.487983,5.37152778 119.885206,5.37152778 L122.059094,5.37152778 C122.456317,5.37152778 122.777706,5.69291667 122.777706,6.09013889 L122.777706,15.48625 C122.777706,15.8834722 122.456317,16.2048611 122.059094,16.2048611" id="Fill-11" fill="#C2C2C2"></path>
                    <path d="M78,7.58051667 L78,14.0862944 C78,14.68285 77.5161111,15.1667389 76.9195556,15.1667389 L53.0804444,15.1667389 C52.4838889,15.1667389 52,14.68285 52,14.0862944 L52,7.58051667 C52,6.98396111 52.4838889,6.50007222 53.0804444,6.50007222 L76.9195556,6.50007222 C77.5161111,6.50007222 78,6.98396111 78,7.58051667" id="Fill-13" fill="#C2C2C2"></path>
                </g>
                <g id="Page-1-Copy-2" transform="translate(616.000000, 83.333333)">
                    <path d="M126.388889,21.6666667 L3.61111111,21.6666667 C1.61633333,21.6666667 0,20.0503333 0,18.0555556 L0,3.61111111 C0,1.61633333 1.61633333,0 3.61111111,0 L126.388889,0 C128.383667,0 130,1.61633333 130,3.61111111 L130,18.0555556 C130,20.0503333 128.383667,21.6666667 126.388889,21.6666667" id="Fill-1" fill="#D6D6D6"></path>
                    <path d="M14.4444444,14.0381944 C14.4444444,15.0355833 13.6362778,15.84375 12.6388889,15.84375 C11.6415,15.84375 10.8333333,15.0355833 10.8333333,14.0381944 C10.8333333,13.0408056 11.6415,12.2326389 12.6388889,12.2326389 C13.6362778,12.2326389 14.4444444,13.0408056 14.4444444,14.0381944" id="Fill-3" fill="#F16667"></path>
                    <path d="M14.4444444,7.53819444 C14.4444444,8.53558333 13.6362778,9.34375 12.6388889,9.34375 C11.6415,9.34375 10.8333333,8.53558333 10.8333333,7.53819444 C10.8333333,6.54080556 11.6415,5.73263889 12.6388889,5.73263889 C13.6362778,5.73263889 14.4444444,6.54080556 14.4444444,7.53819444" id="Fill-5" fill="#8DCC93"></path>
                    <path d="M107.611111,16.2048611 L105.444444,16.2048611 C105.045056,16.2048611 104.722222,15.8820278 104.722222,15.4826389 L104.722222,6.09375 C104.722222,5.69436111 105.045056,5.37152778 105.444444,5.37152778 L107.611111,5.37152778 C108.0105,5.37152778 108.333333,5.69436111 108.333333,6.09375 L108.333333,15.4826389 C108.333333,15.8820278 108.0105,16.2048611 107.611111,16.2048611" id="Fill-7" fill="#C2C2C2"></path>
                    <path d="M114.830517,16.2048611 L112.669628,16.2048611 C112.268794,16.2048611 111.944517,15.8805833 111.944517,15.47975 L111.944517,6.09663889 C111.944517,5.69580556 112.268794,5.37152778 112.669628,5.37152778 L114.830517,5.37152778 C115.23135,5.37152778 115.555628,5.69580556 115.555628,6.09663889 L115.555628,15.47975 C115.555628,15.8805833 115.23135,16.2048611 114.830517,16.2048611" id="Fill-9" fill="#C2C2C2"></path>
                    <path d="M122.059094,16.2048611 L119.885206,16.2048611 C119.487983,16.2048611 119.166594,15.8834722 119.166594,15.48625 L119.166594,6.09013889 C119.166594,5.69291667 119.487983,5.37152778 119.885206,5.37152778 L122.059094,5.37152778 C122.456317,5.37152778 122.777706,5.69291667 122.777706,6.09013889 L122.777706,15.48625 C122.777706,15.8834722 122.456317,16.2048611 122.059094,16.2048611" id="Fill-11" fill="#C2C2C2"></path>
                    <path d="M78,7.58051667 L78,14.0862944 C78,14.68285 77.5161111,15.1667389 76.9195556,15.1667389 L53.0804444,15.1667389 C52.4838889,15.1667389 52,14.68285 52,14.0862944 L52,7.58051667 C52,6.98396111 52.4838889,6.50007222 53.0804444,6.50007222 L76.9195556,6.50007222 C77.5161111,6.50007222 78,6.98396111 78,7.58051667" id="Fill-13" fill="#C2C2C2"></path>
                </g>
                <g id="Page-1-Copy-2" transform="translate(616.000000, 54.000000)">
                    <path d="M126.388889,21.6666667 L3.61111111,21.6666667 C1.61633333,21.6666667 0,20.0503333 0,18.0555556 L0,3.61111111 C0,1.61633333 1.61633333,0 3.61111111,0 L126.388889,0 C128.383667,0 130,1.61633333 130,3.61111111 L130,18.0555556 C130,20.0503333 128.383667,21.6666667 126.388889,21.6666667" id="Fill-1" fill="#D6D6D6"></path>
                    <path d="M14.4444444,14.0381944 C14.4444444,15.0355833 13.6362778,15.84375 12.6388889,15.84375 C11.6415,15.84375 10.8333333,15.0355833 10.8333333,14.0381944 C10.8333333,13.0408056 11.6415,12.2326389 12.6388889,12.2326389 C13.6362778,12.2326389 14.4444444,13.0408056 14.4444444,14.0381944" id="Fill-3" fill="#F16667"></path>
                    <path d="M14.4444444,7.53819444 C14.4444444,8.53558333 13.6362778,9.34375 12.6388889,9.34375 C11.6415,9.34375 10.8333333,8.53558333 10.8333333,7.53819444 C10.8333333,6.54080556 11.6415,5.73263889 12.6388889,5.73263889 C13.6362778,5.73263889 14.4444444,6.54080556 14.4444444,7.53819444" id="Fill-5" fill="#8DCC93"></path>
                    <path d="M107.611111,16.2048611 L105.444444,16.2048611 C105.045056,16.2048611 104.722222,15.8820278 104.722222,15.4826389 L104.722222,6.09375 C104.722222,5.69436111 105.045056,5.37152778 105.444444,5.37152778 L107.611111,5.37152778 C108.0105,5.37152778 108.333333,5.69436111 108.333333,6.09375 L108.333333,15.4826389 C108.333333,15.8820278 108.0105,16.2048611 107.611111,16.2048611" id="Fill-7" fill="#C2C2C2"></path>
                    <path d="M114.830517,16.2048611 L112.669628,16.2048611 C112.268794,16.2048611 111.944517,15.8805833 111.944517,15.47975 L111.944517,6.09663889 C111.944517,5.69580556 112.268794,5.37152778 112.669628,5.37152778 L114.830517,5.37152778 C115.23135,5.37152778 115.555628,5.69580556 115.555628,6.09663889 L115.555628,15.47975 C115.555628,15.8805833 115.23135,16.2048611 114.830517,16.2048611" id="Fill-9" fill="#C2C2C2"></path>
                    <path d="M122.059094,16.2048611 L119.885206,16.2048611 C119.487983,16.2048611 119.166594,15.8834722 119.166594,15.48625 L119.166594,6.09013889 C119.166594,5.69291667 119.487983,5.37152778 119.885206,5.37152778 L122.059094,5.37152778 C122.456317,5.37152778 122.777706,5.69291667 122.777706,6.09013889 L122.777706,15.48625 C122.777706,15.8834722 122.456317,16.2048611 122.059094,16.2048611" id="Fill-11" fill="#C2C2C2"></path>
                    <path d="M78,7.58051667 L78,14.0862944 C78,14.68285 77.5161111,15.1667389 76.9195556,15.1667389 L53.0804444,15.1667389 C52.4838889,15.1667389 52,14.68285 52,14.0862944 L52,7.58051667 C52,6.98396111 52.4838889,6.50007222 53.0804444,6.50007222 L76.9195556,6.50007222 C77.5161111,6.50007222 78,6.98396111 78,7.58051667" id="Fill-13" fill="#C2C2C2"></path>
                </g>
                <text id="Core-Servers" font-family="OpenSans-Regular, Open Sans" font-size="12" font-weight="normal" fill="#333333">
                    <tspan x="648" y="41">Core Servers</tspan>
                </text>
                <text id="Read-Replica" font-family="OpenSans-Regular, Open Sans" font-size="12" font-weight="normal" fill="#333333">
                    <tspan x="613" y="408">Read Replica</tspan>
                </text>
                <text id="Read-Replica" font-family="OpenSans-Regular, Open Sans" font-size="12" font-weight="normal" fill="#333333">
                    <tspan x="497" y="354">Read Replica</tspan>
                </text>
                <path d="M710.388889,389.666667 L587.611111,389.666667 C585.616333,389.666667 584,388.050333 584,386.055556 L584,371.611111 C584,369.616333 585.616333,368 587.611111,368 L710.388889,368 C712.383667,368 714,369.616333 714,371.611111 L714,386.055556 C714,388.050333 712.383667,389.666667 710.388889,389.666667" id="Fill-1" fill="#D6D6D6"></path>
                <path d="M598.444444,382.038194 C598.444444,383.035583 597.636278,383.84375 596.638889,383.84375 C595.6415,383.84375 594.833333,383.035583 594.833333,382.038194 C594.833333,381.040806 595.6415,380.232639 596.638889,380.232639 C597.636278,380.232639 598.444444,381.040806 598.444444,382.038194" id="Fill-3" fill="#F16667"></path>
                <path d="M598.444444,375.538194 C598.444444,376.535583 597.636278,377.34375 596.638889,377.34375 C595.6415,377.34375 594.833333,376.535583 594.833333,375.538194 C594.833333,374.540806 595.6415,373.732639 596.638889,373.732639 C597.636278,373.732639 598.444444,374.540806 598.444444,375.538194" id="Fill-5" fill="#8DCC93"></path>
                <path d="M691.611111,384.204861 L689.444444,384.204861 C689.045056,384.204861 688.722222,383.882028 688.722222,383.482639 L688.722222,374.09375 C688.722222,373.694361 689.045056,373.371528 689.444444,373.371528 L691.611111,373.371528 C692.0105,373.371528 692.333333,373.694361 692.333333,374.09375 L692.333333,383.482639 C692.333333,383.882028 692.0105,384.204861 691.611111,384.204861" id="Fill-7" fill="#C2C2C2"></path>
                <path d="M698.830517,384.204861 L696.669628,384.204861 C696.268794,384.204861 695.944517,383.880583 695.944517,383.47975 L695.944517,374.096639 C695.944517,373.695806 696.268794,373.371528 696.669628,373.371528 L698.830517,373.371528 C699.23135,373.371528 699.555628,373.695806 699.555628,374.096639 L699.555628,383.47975 C699.555628,383.880583 699.23135,384.204861 698.830517,384.204861" id="Fill-9" fill="#C2C2C2"></path>
                <path d="M706.059094,384.204861 L703.885206,384.204861 C703.487983,384.204861 703.166594,383.883472 703.166594,383.48625 L703.166594,374.090139 C703.166594,373.692917 703.487983,373.371528 703.885206,373.371528 L706.059094,373.371528 C706.456317,373.371528 706.777706,373.692917 706.777706,374.090139 L706.777706,383.48625 C706.777706,383.883472 706.456317,384.204861 706.059094,384.204861" id="Fill-11" fill="#C2C2C2"></path>
                <path d="M662,375.580517 L662,382.086294 C662,382.68285 661.516111,383.166739 660.919556,383.166739 L637.080444,383.166739 C636.483889,383.166739 636,382.68285 636,382.086294 L636,375.580517 C636,374.983961 636.483889,374.500072 637.080444,374.500072 L660.919556,374.500072 C661.516111,374.500072 662,374.983961 662,375.580517" id="Fill-13" fill="#C2C2C2"></path>
                <path d="M594.388889,335.666667 L471.611111,335.666667 C469.616333,335.666667 468,334.050333 468,332.055556 L468,317.611111 C468,315.616333 469.616333,314 471.611111,314 L594.388889,314 C596.383667,314 598,315.616333 598,317.611111 L598,332.055556 C598,334.050333 596.383667,335.666667 594.388889,335.666667" id="Fill-1" fill="#D6D6D6"></path>
                <path d="M482.444444,328.038194 C482.444444,329.035583 481.636278,329.84375 480.638889,329.84375 C479.6415,329.84375 478.833333,329.035583 478.833333,328.038194 C478.833333,327.040806 479.6415,326.232639 480.638889,326.232639 C481.636278,326.232639 482.444444,327.040806 482.444444,328.038194" id="Fill-3" fill="#F16667"></path>
                <path d="M482.444444,321.538194 C482.444444,322.535583 481.636278,323.34375 480.638889,323.34375 C479.6415,323.34375 478.833333,322.535583 478.833333,321.538194 C478.833333,320.540806 479.6415,319.732639 480.638889,319.732639 C481.636278,319.732639 482.444444,320.540806 482.444444,321.538194" id="Fill-5" fill="#8DCC93"></path>
                <path d="M575.611111,330.204861 L573.444444,330.204861 C573.045056,330.204861 572.722222,329.882028 572.722222,329.482639 L572.722222,320.09375 C572.722222,319.694361 573.045056,319.371528 573.444444,319.371528 L575.611111,319.371528 C576.0105,319.371528 576.333333,319.694361 576.333333,320.09375 L576.333333,329.482639 C576.333333,329.882028 576.0105,330.204861 575.611111,330.204861" id="Fill-7" fill="#C2C2C2"></path>
                <path d="M582.830517,330.204861 L580.669628,330.204861 C580.268794,330.204861 579.944517,329.880583 579.944517,329.47975 L579.944517,320.096639 C579.944517,319.695806 580.268794,319.371528 580.669628,319.371528 L582.830517,319.371528 C583.23135,319.371528 583.555628,319.695806 583.555628,320.096639 L583.555628,329.47975 C583.555628,329.880583 583.23135,330.204861 582.830517,330.204861" id="Fill-9" fill="#C2C2C2"></path>
                <path d="M590.059094,330.204861 L587.885206,330.204861 C587.487983,330.204861 587.166594,329.883472 587.166594,329.48625 L587.166594,320.090139 C587.166594,319.692917 587.487983,319.371528 587.885206,319.371528 L590.059094,319.371528 C590.456317,319.371528 590.777706,319.692917 590.777706,320.090139 L590.777706,329.48625 C590.777706,329.883472 590.456317,330.204861 590.059094,330.204861" id="Fill-11" fill="#C2C2C2"></path>
                <path d="M546,321.580517 L546,328.086294 C546,328.68285 545.516111,329.166739 544.919556,329.166739 L521.080444,329.166739 C520.483889,329.166739 520,328.68285 520,328.086294 L520,321.580517 C520,320.983961 520.483889,320.500072 521.080444,320.500072 L544.919556,320.500072 C545.516111,320.500072 546,320.983961 546,321.580517" id="Fill-13" fill="#C2C2C2"></path>
                <polyline id="Path-5" stroke="#979797" stroke-width="2" points="545 306.258569 590.713551 242 647.010347 361.316564"></polyline>
                <polygon id="Triangle-5" fill="#979797" transform="translate(543.570914, 308.570914) rotate(-145.000000) translate(-543.570914, -308.570914) " points="543.570914 304.570914 547.570914 312.570914 539.570914 312.570914"></polygon>
                <polygon id="Triangle-5" fill="#979797" transform="translate(607.762266, 185.503564) rotate(-124.000000) translate(-607.762266, -185.503564) " points="607.762266 181.503564 611.762266 189.503564 603.762266 189.503564"></polygon>
                <polygon id="Triangle-5" fill="#979797" points="309.445027 94.5369462 317.445027 90.5369462 317.445027 98.5369462"></polygon>
                <polygon id="Triangle-5" fill="#979797" points="530.237415 582.224454 538.237415 578.224454 538.237415 586.224454"></polygon>
                <polygon id="Triangle-5" fill="#979797" transform="translate(609.445027, 94.536946) scale(-1, 1) rotate(-90.000000) translate(-609.445027, -94.536946) " points="609.445027 90.5369462 613.445027 98.5369462 605.445027 98.5369462"></polygon>
                <polygon id="Triangle-5" fill="#979797" transform="translate(752.445027, 94.536946) rotate(-90.000000) translate(-752.445027, -94.536946) " points="752.445027 90.5369462 756.445027 98.5369462 748.445027 98.5369462"></polygon>
                <polygon id="Triangle-5" fill="#979797" transform="translate(756.100146, 185.480167) scale(-1, 1) rotate(-124.000000) translate(-756.100146, -185.480167) " points="756.100146 181.480167 760.100146 189.480167 752.100146 189.480167"></polygon>
                <polygon id="Triangle-5" fill="#979797" transform="translate(647.884850, 362.705411) scale(-1, 1) rotate(-152.000000) translate(-647.884850, -362.705411) " points="647.88485 358.705411 651.88485 366.705411 643.88485 366.705411"></polygon>
                <text id="Read-Replica" font-family="OpenSans-Regular, Open Sans" font-size="12" font-weight="normal" fill="#333333">
                    <tspan x="788" y="408">Read Replica</tspan>
                </text>
                <text id="Read-Replica" font-family="OpenSans-Regular, Open Sans" font-size="12" font-weight="normal" fill="#333333">
                    <tspan x="672" y="354">Read Replica</tspan>
                </text>
                <path d="M885.388889,389.666667 L762.611111,389.666667 C760.616333,389.666667 759,388.050333 759,386.055556 L759,371.611111 C759,369.616333 760.616333,368 762.611111,368 L885.388889,368 C887.383667,368 889,369.616333 889,371.611111 L889,386.055556 C889,388.050333 887.383667,389.666667 885.388889,389.666667" id="Fill-1" fill="#D6D6D6"></path>
                <path d="M773.444444,382.038194 C773.444444,383.035583 772.636278,383.84375 771.638889,383.84375 C770.6415,383.84375 769.833333,383.035583 769.833333,382.038194 C769.833333,381.040806 770.6415,380.232639 771.638889,380.232639 C772.636278,380.232639 773.444444,381.040806 773.444444,382.038194" id="Fill-3" fill="#F16667"></path>
                <path d="M773.444444,375.538194 C773.444444,376.535583 772.636278,377.34375 771.638889,377.34375 C770.6415,377.34375 769.833333,376.535583 769.833333,375.538194 C769.833333,374.540806 770.6415,373.732639 771.638889,373.732639 C772.636278,373.732639 773.444444,374.540806 773.444444,375.538194" id="Fill-5" fill="#8DCC93"></path>
                <path d="M866.611111,384.204861 L864.444444,384.204861 C864.045056,384.204861 863.722222,383.882028 863.722222,383.482639 L863.722222,374.09375 C863.722222,373.694361 864.045056,373.371528 864.444444,373.371528 L866.611111,373.371528 C867.0105,373.371528 867.333333,373.694361 867.333333,374.09375 L867.333333,383.482639 C867.333333,383.882028 867.0105,384.204861 866.611111,384.204861" id="Fill-7" fill="#C2C2C2"></path>
                <path d="M873.830517,384.204861 L871.669628,384.204861 C871.268794,384.204861 870.944517,383.880583 870.944517,383.47975 L870.944517,374.096639 C870.944517,373.695806 871.268794,373.371528 871.669628,373.371528 L873.830517,373.371528 C874.23135,373.371528 874.555628,373.695806 874.555628,374.096639 L874.555628,383.47975 C874.555628,383.880583 874.23135,384.204861 873.830517,384.204861" id="Fill-9" fill="#C2C2C2"></path>
                <path d="M881.059094,384.204861 L878.885206,384.204861 C878.487983,384.204861 878.166594,383.883472 878.166594,383.48625 L878.166594,374.090139 C878.166594,373.692917 878.487983,373.371528 878.885206,373.371528 L881.059094,373.371528 C881.456317,373.371528 881.777706,373.692917 881.777706,374.090139 L881.777706,383.48625 C881.777706,383.883472 881.456317,384.204861 881.059094,384.204861" id="Fill-11" fill="#C2C2C2"></path>
                <path d="M837,375.580517 L837,382.086294 C837,382.68285 836.516111,383.166739 835.919556,383.166739 L812.080444,383.166739 C811.483889,383.166739 811,382.68285 811,382.086294 L811,375.580517 C811,374.983961 811.483889,374.500072 812.080444,374.500072 L835.919556,374.500072 C836.516111,374.500072 837,374.983961 837,375.580517" id="Fill-13" fill="#C2C2C2"></path>
                <path d="M769.388889,335.666667 L646.611111,335.666667 C644.616333,335.666667 643,334.050333 643,332.055556 L643,317.611111 C643,315.616333 644.616333,314 646.611111,314 L769.388889,314 C771.383667,314 773,315.616333 773,317.611111 L773,332.055556 C773,334.050333 771.383667,335.666667 769.388889,335.666667" id="Fill-1" fill="#D6D6D6"></path>
                <path d="M657.444444,328.038194 C657.444444,329.035583 656.636278,329.84375 655.638889,329.84375 C654.6415,329.84375 653.833333,329.035583 653.833333,328.038194 C653.833333,327.040806 654.6415,326.232639 655.638889,326.232639 C656.636278,326.232639 657.444444,327.040806 657.444444,328.038194" id="Fill-3" fill="#F16667"></path>
                <path d="M657.444444,321.538194 C657.444444,322.535583 656.636278,323.34375 655.638889,323.34375 C654.6415,323.34375 653.833333,322.535583 653.833333,321.538194 C653.833333,320.540806 654.6415,319.732639 655.638889,319.732639 C656.636278,319.732639 657.444444,320.540806 657.444444,321.538194" id="Fill-5" fill="#8DCC93"></path>
                <path d="M750.611111,330.204861 L748.444444,330.204861 C748.045056,330.204861 747.722222,329.882028 747.722222,329.482639 L747.722222,320.09375 C747.722222,319.694361 748.045056,319.371528 748.444444,319.371528 L750.611111,319.371528 C751.0105,319.371528 751.333333,319.694361 751.333333,320.09375 L751.333333,329.482639 C751.333333,329.882028 751.0105,330.204861 750.611111,330.204861" id="Fill-7" fill="#C2C2C2"></path>
                <path d="M757.830517,330.204861 L755.669628,330.204861 C755.268794,330.204861 754.944517,329.880583 754.944517,329.47975 L754.944517,320.096639 C754.944517,319.695806 755.268794,319.371528 755.669628,319.371528 L757.830517,319.371528 C758.23135,319.371528 758.555628,319.695806 758.555628,320.096639 L758.555628,329.47975 C758.555628,329.880583 758.23135,330.204861 757.830517,330.204861" id="Fill-9" fill="#C2C2C2"></path>
                <path d="M765.059094,330.204861 L762.885206,330.204861 C762.487983,330.204861 762.166594,329.883472 762.166594,329.48625 L762.166594,320.090139 C762.166594,319.692917 762.487983,319.371528 762.885206,319.371528 L765.059094,319.371528 C765.456317,319.371528 765.777706,319.692917 765.777706,320.090139 L765.777706,329.48625 C765.777706,329.883472 765.456317,330.204861 765.059094,330.204861" id="Fill-11" fill="#C2C2C2"></path>
                <path d="M721,321.580517 L721,328.086294 C721,328.68285 720.516111,329.166739 719.919556,329.166739 L696.080444,329.166739 C695.483889,329.166739 695,328.68285 695,328.086294 L695,321.580517 C695,320.983961 695.483889,320.500072 696.080444,320.500072 L719.919556,320.500072 C720.516111,320.500072 721,320.983961 721,321.580517" id="Fill-13" fill="#C2C2C2"></path>
                <polyline id="Path-5" stroke="#979797" stroke-width="2" points="720 306.258569 765.713551 242 822.010347 361.316564"></polyline>
                <polygon id="Triangle-5" fill="#979797" transform="translate(718.570914, 308.570914) rotate(-145.000000) translate(-718.570914, -308.570914) " points="718.570914 304.570914 722.570914 312.570914 714.570914 312.570914"></polygon>
                <polygon id="Triangle-5" fill="#979797" transform="translate(822.884850, 362.705411) scale(-1, 1) rotate(-152.000000) translate(-822.884850, -362.705411) " points="822.88485 358.705411 826.88485 366.705411 818.88485 366.705411"></polygon>
                <polyline id="Path-8" stroke="#979797" stroke-width="2" points="610.157905 184.021611 680.909335 139.310163 754.070854 184.021611"></polyline>
                <rect id="Rectangle-19" stroke="#DFDFDF" x="462.5" y="11.5" width="433" height="480"></rect>
                <polyline id="Path-6" stroke="#979797" stroke-width="2" transform="translate(718.729379, 338.395369) scale(-1, 1) translate(-718.729379, -338.395369) " points="686.53492 94.472149 534.999638 94.472149 534.999638 582.318589 902.459121 582.318589"></polyline>
                <path d="M312.5,94.5 L610.5,94.5" id="Line-8" stroke="#979797" stroke-width="2" stroke-linecap="square"></path>
            </g>
            <g id="Group-38" transform="translate(722.000000, 842.000000)">
                <rect id="Rectangle-21" fill="#E8F5E9" x="0" y="0" width="112" height="56"></rect>
                <text id="Read-later-at-bookma" font-family="OpenSans-Regular, Open Sans" font-size="12" font-weight="normal" fill="#333333">
                    <tspan x="20.5507812" y="25">Read later at</tspan>
                    <tspan x="22.3876953" y="42">bookmark X</tspan>
                </text>
            </g>
            <g id="Group-38" transform="translate(38.000000, 26.000000)">
                <rect id="Rectangle-21" fill="#E8F5E9" x="0" y="0" width="112" height="56"></rect>
                <text id="Write-at-bookmark-X" font-family="OpenSans-Regular, Open Sans" font-size="12" font-weight="normal" fill="#333333">
                    <tspan x="34.0390625" y="25">Write at</tspan>
                    <tspan x="22.3876953" y="42">bookmark X</tspan>
                </text>
            </g>
            <path d="M150.5,54.5 L182.5,69.5" id="Line-12" stroke="#979797" stroke-linecap="square"></path>
            <circle id="Oval-3" stroke="#979797" fill="#979797" cx="150.5" cy="54.5" r="3.5"></circle>
            <circle id="Oval-3" stroke="#979797" fill="#979797" cx="182.5" cy="69.5" r="3.5"></circle>
            <path d="M676.5,869.5 L720.5,869.5" id="Line-12" stroke="#979797" stroke-linecap="square"></path>
            <circle id="Oval-3" stroke="#979797" fill="#979797" cx="721.5" cy="869.5" r="3.5"></circle>
            <circle id="Oval-3" stroke="#979797" fill="#979797" cx="675.5" cy="869.5" r="3.5"></circle>
            <g id="Group" transform="translate(209.000000, 343.000000) scale(-1, 1) translate(-209.000000, -343.000000) translate(22.000000, 95.000000)">
                <polygon id="Triangle-5" fill="#979797" points="0 492 8 488 8 496"></polygon>
                <polygon id="Triangle-5" fill="#979797" transform="translate(222.000000, 4.000000) rotate(-90.000000) translate(-222.000000, -4.000000) " points="222 0 226 8 218 8"></polygon>
                <polyline id="Path-6" stroke="#979797" stroke-width="2" transform="translate(190.500000, 248.000000) scale(-1, 1) translate(-190.500000, -248.000000) " points="158.345798 4 7 4 7 492 374 492"></polyline>
            </g>
        </g>
        <g id="Artboard" transform="translate(-19482.000000, -14560.000000)"></g>
    </g>
</svg>