<?xml version="1.0" encoding="UTF-8"?>
<svg width="714px" height="462px" viewBox="0 0 714 462" version="1.1" xmlns="http://www.w3.org/2000/svg" xmlns:xlink="http://www.w3.org/1999/xlink">
    <!-- Generator: Sketch 51 (57462) - http://www.bohemiancoding.com/sketch -->
    <title>multicluster-example</title>
    <desc>Created with Sketch.</desc>
    <defs></defs>
    <g id="multicluster-example" stroke="none" stroke-width="1" fill="none" fill-rule="evenodd">
        <g id="Group" transform="translate(5.000000, 5.000000)">
            <rect id="Rectangle-41" stroke="#979797" x="0.5" y="0.5" width="703" height="451"></rect>
            <text id="database:-foo-(causa" font-family="CourierNewPSMT, Courier New" font-size="12" font-weight="normal" fill="#333333">
                <tspan x="113.692383" y="58">database: foo</tspan>
                <tspan x="76.4863281" y="72" font-size="10">(causal_clustering.database)</tspan>
            </text>
            <text id="database:-bar-(causa" font-family="CourierNewPSMT, Courier New" font-size="12" font-weight="normal" fill="#333333">
                <tspan x="308.692383" y="58">database: bar</tspan>
                <tspan x="271.486328" y="72" font-size="10">(causal_clustering.database)</tspan>
            </text>
            <text id="database:-baz-(causa" font-family="CourierNewPSMT, Courier New" font-size="12" font-weight="normal" fill="#333333">
                <tspan x="503.692383" y="58">database: baz</tspan>
                <tspan x="466.486328" y="72" font-size="10">(causal_clustering.database)</tspan>
            </text>
            <rect id="Rectangle-19" stroke="#979797" x="266" y="36.5" width="179" height="336"></rect>
            <rect id="Rectangle-19" stroke="#979797" x="461" y="36.5" width="179" height="336"></rect>
            <rect id="Rectangle-19" stroke="#979797" x="71" y="36.5" width="179" height="336"></rect>
            <polygon id="Triangle-5" fill="#979797" points="182.480407 256.374047 174.480407 252.374047 174.480407 260.374047"></polygon>
            <polygon id="Triangle-5" fill="#979797" transform="translate(203.500000, 307.000000) rotate(90.000000) translate(-203.500000, -307.000000) " points="207.5 307 199.5 303 199.5 311"></polygon>
            <polygon id="Triangle-5" fill="#979797" transform="translate(117.500000, 307.000000) rotate(90.000000) translate(-117.500000, -307.000000) " points="121.5 307 113.5 303 113.5 311"></polygon>
            <polygon id="Triangle-5" fill="#979797" transform="translate(141.480407, 256.374047) scale(-1, 1) translate(-141.480407, -256.374047) " points="145.480407 256.374047 137.480407 252.374047 137.480407 260.374047"></polygon>
            <path d="M141.5,256.5 L175.5,256.5" id="Line-8" stroke="#979797" stroke-width="2" stroke-linecap="square"></path>
            <path d="M117.5,262.5 L117.5,306" id="Line-8" stroke="#979797" stroke-width="2" stroke-linecap="square"></path>
            <path d="M203.5,262.5 L203.5,306" id="Line-8" stroke="#979797" stroke-width="2" stroke-linecap="square"></path>
            <g id="Group-36" transform="translate(123.500000, 201.000000)">
                <polygon id="Triangle-5" fill="#979797" transform="translate(6.282440, 33.389483) scale(-1, 1) rotate(57.000000) translate(-6.282440, -33.389483) " points="10.2824397 33.3894825 2.28243967 29.3894825 2.28243967 37.3894825"></polygon>
                <polygon id="Triangle-5" fill="#979797" transform="translate(23.533238, 5.533238) scale(1, -1) rotate(57.000000) translate(-23.533238, -5.533238) " points="27.5332384 5.53323841 19.5332384 1.53323841 19.5332384 9.53323841"></polygon>
                <path d="M7,32 L23,6" id="Line-8" stroke="#979797" stroke-width="2" stroke-linecap="square"></path>
            </g>
            <g id="Group-36" transform="translate(181.500000, 220.500000) scale(-1, 1) translate(-181.500000, -220.500000) translate(166.500000, 201.000000)">
                <polygon id="Triangle-5" fill="#979797" transform="translate(6.282440, 33.389483) scale(-1, 1) rotate(57.000000) translate(-6.282440, -33.389483) " points="10.2824397 33.3894825 2.28243967 29.3894825 2.28243967 37.3894825"></polygon>
                <polygon id="Triangle-5" fill="#979797" transform="translate(23.533238, 5.533238) scale(1, -1) rotate(57.000000) translate(-23.533238, -5.533238) " points="27.5332384 5.53323841 19.5332384 1.53323841 19.5332384 9.53323841"></polygon>
                <path d="M7,32 L23,6" id="Line-8" stroke="#979797" stroke-width="2" stroke-linecap="square"></path>
            </g>
            <circle id="Oval-5" fill="#BCE9F4" cx="160" cy="185.5" r="20.5"></circle>
            <circle id="Oval-5" fill="#BCE9F4" cx="117" cy="255.5" r="20.5"></circle>
            <circle id="Oval-5" fill="#BCE9F4" cx="203" cy="255.5" r="20.5"></circle>
            <circle id="Oval-5" fill="#D1EBD4" cx="117" cy="331.5" r="20.5"></circle>
            <circle id="Oval-5" fill="#D1EBD4" cx="203" cy="331.5" r="20.5"></circle>
            <polygon id="Triangle-5" fill="#979797" points="379.480407 256.374047 371.480407 252.374047 371.480407 260.374047"></polygon>
            <polygon id="Triangle-5" fill="#979797" transform="translate(398.500000, 307.000000) rotate(90.000000) translate(-398.500000, -307.000000) " points="402.5 307 394.5 303 394.5 311"></polygon>
            <polygon id="Triangle-5" fill="#979797" transform="translate(314.500000, 307.000000) rotate(90.000000) translate(-314.500000, -307.000000) " points="318.5 307 310.5 303 310.5 311"></polygon>
            <polygon id="Triangle-5" fill="#979797" transform="translate(338.480407, 256.374047) scale(-1, 1) translate(-338.480407, -256.374047) " points="342.480407 256.374047 334.480407 252.374047 334.480407 260.374047"></polygon>
            <path d="M338.5,256.5 L372.5,256.5" id="Line-8" stroke="#979797" stroke-width="2" stroke-linecap="square"></path>
            <path d="M314.5,262.5 L314.5,306" id="Line-8" stroke="#979797" stroke-width="2" stroke-linecap="square"></path>
            <path d="M398.5,262.5 L398.5,306" id="Line-8" stroke="#979797" stroke-width="2" stroke-linecap="square"></path>
            <g id="Group-36" transform="translate(320.500000, 201.000000)">
                <polygon id="Triangle-5" fill="#979797" transform="translate(6.282440, 33.389483) scale(-1, 1) rotate(57.000000) translate(-6.282440, -33.389483) " points="10.2824397 33.3894825 2.28243967 29.3894825 2.28243967 37.3894825"></polygon>
                <polygon id="Triangle-5" fill="#979797" transform="translate(23.533238, 5.533238) scale(1, -1) rotate(57.000000) translate(-23.533238, -5.533238) " points="27.5332384 5.53323841 19.5332384 1.53323841 19.5332384 9.53323841"></polygon>
                <path d="M7,32 L23,6" id="Line-8" stroke="#979797" stroke-width="2" stroke-linecap="square"></path>
            </g>
            <g id="Group-36" transform="translate(378.500000, 220.500000) scale(-1, 1) translate(-378.500000, -220.500000) translate(363.500000, 201.000000)">
                <polygon id="Triangle-5" fill="#979797" transform="translate(6.282440, 33.389483) scale(-1, 1) rotate(57.000000) translate(-6.282440, -33.389483) " points="10.2824397 33.3894825 2.28243967 29.3894825 2.28243967 37.3894825"></polygon>
                <polygon id="Triangle-5" fill="#979797" transform="translate(23.533238, 5.533238) scale(1, -1) rotate(57.000000) translate(-23.533238, -5.533238) " points="27.5332384 5.53323841 19.5332384 1.53323841 19.5332384 9.53323841"></polygon>
                <path d="M7,32 L23,6" id="Line-8" stroke="#979797" stroke-width="2" stroke-linecap="square"></path>
            </g>
            <circle id="Oval-5" fill="#BCE9F4" cx="357" cy="185.5" r="20.5"></circle>
            <circle id="Oval-5" fill="#BCE9F4" cx="314" cy="255.5" r="20.5"></circle>
            <circle id="Oval-5" fill="#BCE9F4" cx="400" cy="255.5" r="20.5"></circle>
            <circle id="Oval-5" fill="#D1EBD4" cx="314" cy="331.5" r="20.5"></circle>
            <circle id="Oval-5" fill="#D1EBD4" cx="398" cy="331.5" r="20.5"></circle>
            <polygon id="Triangle-5" fill="#979797" points="574.480407 256.374047 566.480407 252.374047 566.480407 260.374047"></polygon>
            <polygon id="Triangle-5" fill="#979797" transform="translate(595.500000, 307.000000) rotate(90.000000) translate(-595.500000, -307.000000) " points="599.5 307 591.5 303 591.5 311"></polygon>
            <polygon id="Triangle-5" fill="#979797" transform="translate(509.500000, 307.000000) rotate(90.000000) translate(-509.500000, -307.000000) " points="513.5 307 505.5 303 505.5 311"></polygon>
            <polygon id="Triangle-5" fill="#979797" transform="translate(533.480407, 256.374047) scale(-1, 1) translate(-533.480407, -256.374047) " points="537.480407 256.374047 529.480407 252.374047 529.480407 260.374047"></polygon>
            <path d="M533.5,256.5 L567.5,256.5" id="Line-8" stroke="#979797" stroke-width="2" stroke-linecap="square"></path>
            <path d="M509.5,262.5 L509.5,306" id="Line-8" stroke="#979797" stroke-width="2" stroke-linecap="square"></path>
            <path d="M595.5,262.5 L595.5,306" id="Line-8" stroke="#979797" stroke-width="2" stroke-linecap="square"></path>
            <g id="Group-36" transform="translate(515.500000, 201.000000)">
                <polygon id="Triangle-5" fill="#979797" transform="translate(6.282440, 33.389483) scale(-1, 1) rotate(57.000000) translate(-6.282440, -33.389483) " points="10.2824397 33.3894825 2.28243967 29.3894825 2.28243967 37.3894825"></polygon>
                <polygon id="Triangle-5" fill="#979797" transform="translate(23.533238, 5.533238) scale(1, -1) rotate(57.000000) translate(-23.533238, -5.533238) " points="27.5332384 5.53323841 19.5332384 1.53323841 19.5332384 9.53323841"></polygon>
                <path d="M7,32 L23,6" id="Line-8" stroke="#979797" stroke-width="2" stroke-linecap="square"></path>
            </g>
            <g id="Group-36" transform="translate(574.500000, 220.500000) scale(-1, 1) translate(-574.500000, -220.500000) translate(559.500000, 201.000000)">
                <polygon id="Triangle-5" fill="#979797" transform="translate(6.282440, 33.389483) scale(-1, 1) rotate(57.000000) translate(-6.282440, -33.389483) " points="10.2824397 33.3894825 2.28243967 29.3894825 2.28243967 37.3894825"></polygon>
                <polygon id="Triangle-5" fill="#979797" transform="translate(23.533238, 5.533238) scale(1, -1) rotate(57.000000) translate(-23.533238, -5.533238) " points="27.5332384 5.53323841 19.5332384 1.53323841 19.5332384 9.53323841"></polygon>
                <path d="M7,32 L23,6" id="Line-8" stroke="#979797" stroke-width="2" stroke-linecap="square"></path>
            </g>
            <circle id="Oval-5" fill="#BCE9F4" cx="552" cy="185.5" r="20.5"></circle>
            <circle id="Oval-5" fill="#BCE9F4" cx="509" cy="255.5" r="20.5"></circle>
            <circle id="Oval-5" fill="#BCE9F4" cx="595" cy="255.5" r="20.5"></circle>
            <circle id="Oval-5" fill="#D1EBD4" cx="509" cy="331.5" r="20.5"></circle>
            <circle id="Oval-5" fill="#D1EBD4" cx="595" cy="331.5" r="20.5"></circle>
            <g id="Group-66" transform="translate(85.500000, 84.000000)">
                <rect id="Rectangle-19" stroke="#979797" fill="#FFFFFF" x="0.5" y="0.5" width="539" height="49"></rect>
                <text id="DISCOVERY-SERVICE-(i" opacity="0.600000024" font-family="Helvetica" font-size="12" font-weight="normal" fill="#333333">
                    <tspan x="207.467773" y="19">DISCOVERY SERVICE</tspan>
                    <tspan x="138.148926" y="33" font-size="10">(</tspan>
                    <tspan x="141.479004" y="33" font-family="CourierNewPSMT, Courier New" font-size="10">causal_clustering.initial_discovery_members</tspan>
                    <tspan x="399.520996" y="33" font-size="10">)</tspan>
                </text>
            </g>
            <text id="L" font-family=".AppleSystemUIFont" font-size="12" font-weight="normal" fill="#333333">
                <tspan x="156.5" y="189">L</tspan>
            </text>
            <text id="L" font-family=".AppleSystemUIFont" font-size="12" font-weight="normal" fill="#333333">
                <tspan x="396.5" y="259">L</tspan>
            </text>
            <g id="Group-2" transform="translate(305.000000, 324.000000)" fill="#333333" font-family="Helvetica" font-size="12" font-weight="normal">
                <text id="RR">
                    <tspan x="0" y="11">RR</tspan>
                </text>
                <text id="RR">
                    <tspan x="84" y="11">RR</tspan>
                </text>
            </g>
            <g id="Group-2" transform="translate(501.000000, 324.000000)" fill="#333333" font-family="Helvetica" font-size="12" font-weight="normal">
                <text id="RR">
                    <tspan x="0" y="11">RR</tspan>
                </text>
                <text id="RR">
                    <tspan x="84" y="11">RR</tspan>
                </text>
            </g>
            <g id="Group-2" transform="translate(108.000000, 324.000000)" fill="#333333" font-family="Helvetica" font-size="12" font-weight="normal">
                <text id="RR">
                    <tspan x="0" y="11">RR</tspan>
                </text>
                <text id="RR">
                    <tspan x="84" y="11">RR</tspan>
                </text>
            </g>
            <text id="L" font-family=".AppleSystemUIFont" font-size="12" font-weight="normal" fill="#333333">
                <tspan x="592.5" y="259">L</tspan>
            </text>
        </g>
        <text id="F" font-family="Helvetica" font-size="12" font-weight="normal" fill="#333333">
            <tspan x="118" y="265">F</tspan>
        </text>
        <text id="F" font-family="Helvetica" font-size="12" font-weight="normal" fill="#333333">
            <tspan x="204" y="265">F</tspan>
        </text>
        <text id="F" font-family="Helvetica" font-size="12" font-weight="normal" fill="#333333">
            <tspan x="314" y="265">F</tspan>
        </text>
        <text id="F" font-family="Helvetica" font-size="12" font-weight="normal" fill="#333333">
            <tspan x="358" y="194">F</tspan>
        </text>
        <text id="F" font-family="Helvetica" font-size="12" font-weight="normal" fill="#333333">
            <tspan x="553" y="195">F</tspan>
        </text>
        <text id="F" font-family="Helvetica" font-size="12" font-weight="normal" fill="#333333">
            <tspan x="509" y="265">F</tspan>
        </text>
    </g>
</svg>