<?xml version="1.0" encoding="UTF-8"?>
<svg width="714px" height="486px" viewBox="0 0 714 486" version="1.1" xmlns="http://www.w3.org/2000/svg" xmlns:xlink="http://www.w3.org/1999/xlink">
    <!-- Generator: Sketch 51 (57462) - http://www.bohemiancoding.com/sketch -->
    <title>multicluster-monitoring</title>
    <desc>Created with Sketch.</desc>
    <defs>
        <path d="M50,154 L659,154 L659,297 L50,297 L50,154 Z" id="path-1"></path>
        <mask id="mask-2" maskContentUnits="userSpaceOnUse" maskUnits="objectBoundingBox" x="0" y="0" width="609" height="143" fill="white">
            <use xlink:href="#path-1"></use>
        </mask>
        <path d="M88,144 L638,144 L638,399 L88,399 L88,144 Z" id="path-3"></path>
        <mask id="mask-4" maskContentUnits="userSpaceOnUse" maskUnits="objectBoundingBox" x="0" y="0" width="550" height="255" fill="white">
            <use xlink:href="#path-3"></use>
        </mask>
        <path d="M476,163 L668,163 L668,288 L476,288 L476,163 Z" id="path-5"></path>
        <mask id="mask-6" maskContentUnits="userSpaceOnUse" maskUnits="objectBoundingBox" x="0" y="0" width="192" height="125" fill="white">
            <use xlink:href="#path-5"></use>
        </mask>
    </defs>
    <g id="multicluster-monitoring" stroke="none" stroke-width="1" fill="none" fill-rule="evenodd">
        <rect id="Rectangle-41" stroke="#979797" x="5.5" y="5.5" width="703" height="475"></rect>
        <circle id="Oval-3" fill="#DFDFDF" cx="655.5" cy="422.5" r="3.5"></circle>
        <ellipse id="Oval-3" fill="#979797" cx="60.5" cy="426" rx="3.5" ry="4"></ellipse>
        <circle id="Oval-3" fill="#BFBCC0" cx="254.5" cy="455.5" r="3.5"></circle>
        <text id="database:-foo" font-family="CourierNewPSMT, Courier New" font-size="12" font-weight="normal" fill="#333333">
            <tspan x="120" y="70">database: foo</tspan>
        </text>
        <text id="CALL-getRoutersForAl" font-family="CourierNewPSMT, Courier New" font-size="12" font-weight="normal" fill="#333333">
            <tspan x="75" y="427">CALL getRoutersForAllDatabases()</tspan>
        </text>
        <text id="CALL-dbms.cluster.ov" font-family="CourierNewPSMT, Courier New" font-size="12" font-weight="normal" fill="#333333">
            <tspan x="43" y="458">CALL dbms.cluster.overview()</tspan>
        </text>
        <text id="CALL-getRoutersForDa" font-family="CourierNewPSMT, Courier New" font-size="12" font-weight="normal" fill="#333333">
            <tspan x="392" y="425">CALL getRoutersForDatabase({“baz”})</tspan>
        </text>
        <text id="database:-bar" font-family="CourierNewPSMT, Courier New" font-size="12" font-weight="normal" fill="#333333">
            <tspan x="315" y="70">database: bar</tspan>
        </text>
        <text id="database:-baz" font-family="CourierNewPSMT, Courier New" font-size="12" font-weight="normal" fill="#333333">
            <tspan x="506" y="70">database: baz</tspan>
        </text>
        <rect id="Rectangle-19" stroke="#979797" x="271.5" y="41.5" width="179" height="336"></rect>
        <rect id="Rectangle-19" stroke="#979797" x="466.5" y="41.5" width="179" height="336"></rect>
        <rect id="Rectangle-19" stroke="#979797" x="76.5" y="41.5" width="179" height="336"></rect>
        <polygon id="Triangle-5" fill="#979797" points="187 261 179 257 179 265"></polygon>
        <polygon id="Triangle-5" fill="#979797" transform="translate(209.000000, 312.000000) rotate(90.000000) translate(-209.000000, -312.000000) " points="213 312 205 308 205 316"></polygon>
        <polygon id="Triangle-5" fill="#979797" transform="translate(123.000000, 312.000000) rotate(90.000000) translate(-123.000000, -312.000000) " points="127 312 119 308 119 316"></polygon>
        <polygon id="Triangle-5" fill="#979797" transform="translate(146.000000, 261.000000) scale(-1, 1) translate(-146.000000, -261.000000) " points="150 261 142 257 142 265"></polygon>
        <path d="M147,262 L181,262" id="Line-8" stroke="#979797" stroke-width="2" stroke-linecap="square"></path>
        <path d="M123,267.5 L123,311" id="Line-8" stroke="#979797" stroke-width="2" stroke-linecap="square"></path>
        <path d="M209,267.5 L209,311" id="Line-8" stroke="#979797" stroke-width="2" stroke-linecap="square"></path>
        <polygon id="Triangle-5" fill="#979797" transform="translate(135.000000, 239.000000) scale(-1, 1) rotate(57.000000) translate(-135.000000, -239.000000) " points="139 239 131 235 131 243"></polygon>
        <polygon id="Triangle-5" fill="#979797" transform="translate(152.000000, 212.000000) scale(1, -1) rotate(57.000000) translate(-152.000000, -212.000000) " points="156 212 148 208 148 216"></polygon>
        <path d="M136,238 L152,212" id="Line-8" stroke="#979797" stroke-width="2" stroke-linecap="square"></path>
        <polygon id="Triangle-5" fill="#979797" transform="translate(195.000000, 239.000000) rotate(57.000000) translate(-195.000000, -239.000000) " points="199 239 191 235 191 243"></polygon>
        <polygon id="Triangle-5" fill="#979797" transform="translate(178.000000, 212.000000) scale(-1, -1) rotate(57.000000) translate(-178.000000, -212.000000) " points="182 212 174 208 174 216"></polygon>
        <path d="M179,238 L195,212" id="Line-8" stroke="#979797" stroke-width="2" stroke-linecap="square" transform="translate(187.000000, 225.000000) scale(-1, 1) translate(-187.000000, -225.000000) "></path>
        <circle id="Oval-5" fill="#BCE9F4" cx="165.5" cy="190.5" r="20.5"></circle>
        <circle id="Oval-5" fill="#BCE9F4" cx="122.5" cy="260.5" r="20.5"></circle>
        <circle id="Oval-5" fill="#BCE9F4" cx="208.5" cy="260.5" r="20.5"></circle>
        <circle id="Oval-5" fill="#D1EBD4" cx="122.5" cy="336.5" r="20.5"></circle>
        <circle id="Oval-5" fill="#D1EBD4" cx="208.5" cy="336.5" r="20.5"></circle>
        <polygon id="Triangle-5" fill="#979797" points="384 261 376 257 376 265"></polygon>
        <polygon id="Triangle-5" fill="#979797" transform="translate(404.000000, 312.000000) rotate(90.000000) translate(-404.000000, -312.000000) " points="408 312 400 308 400 316"></polygon>
        <polygon id="Triangle-5" fill="#979797" transform="translate(320.000000, 312.000000) rotate(90.000000) translate(-320.000000, -312.000000) " points="324 312 316 308 316 316"></polygon>
        <polygon id="Triangle-5" fill="#979797" transform="translate(343.000000, 261.000000) scale(-1, 1) translate(-343.000000, -261.000000) " points="347 261 339 257 339 265"></polygon>
        <path d="M344,262 L378,262" id="Line-8" stroke="#979797" stroke-width="2" stroke-linecap="square"></path>
        <path d="M320,267.5 L320,311" id="Line-8" stroke="#979797" stroke-width="2" stroke-linecap="square"></path>
        <path d="M404,267.5 L404,311" id="Line-8" stroke="#979797" stroke-width="2" stroke-linecap="square"></path>
        <polygon id="Triangle-5" fill="#979797" transform="translate(332.000000, 239.000000) scale(-1, 1) rotate(57.000000) translate(-332.000000, -239.000000) " points="336 239 328 235 328 243"></polygon>
        <polygon id="Triangle-5" fill="#979797" transform="translate(349.000000, 212.000000) scale(1, -1) rotate(57.000000) translate(-349.000000, -212.000000) " points="353 212 345 208 345 216"></polygon>
        <path d="M333,238 L349,212" id="Line-8" stroke="#979797" stroke-width="2" stroke-linecap="square"></path>
        <polygon id="Triangle-5" fill="#979797" transform="translate(392.000000, 239.000000) rotate(57.000000) translate(-392.000000, -239.000000) " points="396 239 388 235 388 243"></polygon>
        <polygon id="Triangle-5" fill="#979797" transform="translate(375.000000, 212.000000) scale(-1, -1) rotate(57.000000) translate(-375.000000, -212.000000) " points="379 212 371 208 371 216"></polygon>
        <path d="M376,238 L392,212" id="Line-8" stroke="#979797" stroke-width="2" stroke-linecap="square" transform="translate(384.000000, 225.000000) scale(-1, 1) translate(-384.000000, -225.000000) "></path>
        <circle id="Oval-5" fill="#BCE9F4" cx="362.5" cy="190.5" r="20.5"></circle>
        <circle id="Oval-5" fill="#BCE9F4" cx="319.5" cy="260.5" r="20.5"></circle>
        <circle id="Oval-5" fill="#BCE9F4" cx="405.5" cy="260.5" r="20.5"></circle>
        <circle id="Oval-5" fill="#D1EBD4" cx="319.5" cy="336.5" r="20.5"></circle>
        <circle id="Oval-5" fill="#D1EBD4" cx="403.5" cy="336.5" r="20.5"></circle>
        <polygon id="Triangle-5" fill="#979797" points="579 261 571 257 571 265"></polygon>
        <polygon id="Triangle-5" fill="#979797" transform="translate(601.000000, 312.000000) rotate(90.000000) translate(-601.000000, -312.000000) " points="605 312 597 308 597 316"></polygon>
        <polygon id="Triangle-5" fill="#979797" transform="translate(515.000000, 312.000000) rotate(90.000000) translate(-515.000000, -312.000000) " points="519 312 511 308 511 316"></polygon>
        <polygon id="Triangle-5" fill="#979797" transform="translate(538.000000, 261.000000) scale(-1, 1) translate(-538.000000, -261.000000) " points="542 261 534 257 534 265"></polygon>
        <path d="M539,262 L573,262" id="Line-8" stroke="#979797" stroke-width="2" stroke-linecap="square"></path>
        <path d="M515,267.5 L515,311" id="Line-8" stroke="#979797" stroke-width="2" stroke-linecap="square"></path>
        <path d="M601,267.5 L601,311" id="Line-8" stroke="#979797" stroke-width="2" stroke-linecap="square"></path>
        <polygon id="Triangle-5" fill="#979797" transform="translate(527.000000, 239.000000) scale(-1, 1) rotate(57.000000) translate(-527.000000, -239.000000) " points="531 239 523 235 523 243"></polygon>
        <polygon id="Triangle-5" fill="#979797" transform="translate(544.000000, 212.000000) scale(1, -1) rotate(57.000000) translate(-544.000000, -212.000000) " points="548 212 540 208 540 216"></polygon>
        <path d="M528,238 L544,212" id="Line-8" stroke="#979797" stroke-width="2" stroke-linecap="square"></path>
        <polygon id="Triangle-5" fill="#979797" transform="translate(588.000000, 239.000000) rotate(57.000000) translate(-588.000000, -239.000000) " points="592 239 584 235 584 243"></polygon>
        <polygon id="Triangle-5" fill="#979797" transform="translate(571.000000, 212.000000) scale(-1, -1) rotate(57.000000) translate(-571.000000, -212.000000) " points="575 212 567 208 567 216"></polygon>
        <path d="M572,238 L588,212" id="Line-8" stroke="#979797" stroke-width="2" stroke-linecap="square" transform="translate(580.000000, 225.000000) scale(-1, 1) translate(-580.000000, -225.000000) "></path>
        <circle id="Oval-5" fill="#BCE9F4" cx="557.5" cy="190.5" r="20.5"></circle>
        <circle id="Oval-5" fill="#BCE9F4" cx="514.5" cy="260.5" r="20.5"></circle>
        <circle id="Oval-5" fill="#BCE9F4" cx="600.5" cy="260.5" r="20.5"></circle>
        <circle id="Oval-5" fill="#D1EBD4" cx="514.5" cy="336.5" r="20.5"></circle>
        <circle id="Oval-5" fill="#D1EBD4" cx="600.5" cy="336.5" r="20.5"></circle>
        <rect id="Rectangle-19" stroke="#979797" fill="#FFFFFF" x="91.5" y="89.5" width="539" height="49"></rect>
        <text id="DISCOVERY-SERVICE-(i" opacity="0.600000024" font-family="Helvetica" font-size="12" font-weight="normal" fill="#333333">
            <tspan x="298.467773" y="117">DISCOVERY SERVICE</tspan>
        </text>
        <use id="Rectangle-39" stroke="#979797" mask="url(#mask-2)" stroke-width="4" stroke-dasharray="5,5,5,5" xlink:href="#path-1"></use>
        <use id="Rectangle-39" stroke="#BFBCC0" mask="url(#mask-4)" stroke-width="4" stroke-dasharray="10,5,1,5" xlink:href="#path-3"></use>
        <use id="Rectangle-40" stroke="#DFDFDF" mask="url(#mask-6)" stroke-width="4" stroke-dasharray="5,5,5" xlink:href="#path-5"></use>
        <path d="M47.8039216,226 L32,226 L32,426 L58,426" id="Line-29" stroke="#979797" stroke-width="2" stroke-linecap="square" stroke-dasharray="5,5,5,5"></path>
        <path d="M664.176471,226 L655,226 L655,423 L681,423" id="Line-29" stroke="#DFDFDF" stroke-width="2" stroke-linecap="square" stroke-dasharray="5,5,5" transform="translate(668.000000, 324.500000) scale(-1, 1) translate(-668.000000, -324.500000) "></path>
        <path d="M352,397 L352,456 L328.31518,456 L253,456" id="Path-18" stroke="#BFBCC0" stroke-width="2" stroke-dasharray="10,5,1,5"></path>
    </g>
</svg>