<?xml version="1.0" encoding="UTF-8"?>
<svg width="802px" height="485px" viewBox="0 0 802 485" version="1.1" xmlns="http://www.w3.org/2000/svg" xmlns:xlink="http://www.w3.org/1999/xlink">
    <!-- Generator: Sketch 53.2 (72643) - https://sketchapp.com -->
    <title>neo4j-memory-management2</title>
    <desc>Created with Sketch.</desc>
    <defs>
        <rect id="path-1" x="156" y="63" width="635" height="358"></rect>
        <mask id="mask-2" maskContentUnits="userSpaceOnUse" maskUnits="objectBoundingBox" x="0" y="0" width="635" height="358" fill="white">
            <use xlink:href="#path-1"></use>
        </mask>
    </defs>
    <g id="neo4j-memory-management2" stroke="none" stroke-width="1" fill="none" fill-rule="evenodd">
        <text id="Available-RAM" font-family="OpenSans-Regular, Open Sans" font-size="12" font-weight="normal" fill="#333333">
            <tspan x="33" y="39">Available RAM</tspan>
        </text>
        <text id="JVM-heap" font-family="OpenSans-Regular, Open Sans" font-size="12" font-weight="normal" fill="#333333">
            <tspan x="179" y="87">JVM heap</tspan>
        </text>
        <text id="Native-memory" font-family="OpenSans-Regular, Open Sans" font-size="12" font-weight="normal" fill="#333333">
            <tspan x="488" y="87">Native memory</tspan>
        </text>
        <rect id="Rectangle-23" stroke="#979797" x="5.5" y="5.5" width="791" height="471"></rect>
        <g id="Group-2" transform="translate(162.000000, 249.000000)">
            <polygon id="Rectangle-24" fill="#C5BBF5" points="0 0 140 0 140 134 0 134"></polygon>
            <g id="Group" transform="translate(6.000000, 5.000000)">
                <polygon id="Rectangle-25" fill="#FFFFFF" opacity="0.499209449" points="0 0 127 0 127 38 0 38"></polygon>
                <text id="Database" font-family="OpenSans-Regular, Open Sans" font-size="12" font-weight="normal" fill="#333333">
                    <tspan x="37.0917969" y="34">Database</tspan>
                </text>
                <g id="Group-32" transform="translate(5.000000, 3.000000)">
                    <path d="M114.722222,19.6969697 L3.27777778,19.6969697 C1.46713333,19.6969697 0,18.2275758 0,16.4141414 L0,3.28282828 C0,1.46939394 1.46713333,0 3.27777778,0 L114.722222,0 C116.532867,0 118,1.46939394 118,3.28282828 L118,16.4141414 C118,18.2275758 116.532867,19.6969697 114.722222,19.6969697" id="Fill-1" fill="#D6D6D6"></path>
                    <path d="M13.1111111,12.7619949 C13.1111111,13.6687121 12.3775444,14.4034091 11.4722222,14.4034091 C10.5669,14.4034091 9.83333333,13.6687121 9.83333333,12.7619949 C9.83333333,11.8552778 10.5669,11.1205808 11.4722222,11.1205808 C12.3775444,11.1205808 13.1111111,11.8552778 13.1111111,12.7619949" id="Fill-3" fill="#F16667"></path>
                    <path d="M13.1111111,6.85290404 C13.1111111,7.75962121 12.3775444,8.49431818 11.4722222,8.49431818 C10.5669,8.49431818 9.83333333,7.75962121 9.83333333,6.85290404 C9.83333333,5.94618687 10.5669,5.2114899 11.4722222,5.2114899 C12.3775444,5.2114899 13.1111111,5.94618687 13.1111111,6.85290404" id="Fill-5" fill="#8DCC93"></path>
                    <path d="M97.6777778,14.7316919 L95.7111111,14.7316919 C95.3485889,14.7316919 95.0555556,14.4382071 95.0555556,14.0751263 L95.0555556,5.53977273 C95.0555556,5.17669192 95.3485889,4.88320707 95.7111111,4.88320707 L97.6777778,4.88320707 C98.0403,4.88320707 98.3333333,5.17669192 98.3333333,5.53977273 L98.3333333,14.0751263 C98.3333333,14.4382071 98.0403,14.7316919 97.6777778,14.7316919" id="Fill-7" fill="#C2C2C2"></path>
                    <path d="M104.230777,14.7316919 L102.269354,14.7316919 C101.905521,14.7316919 101.611177,14.4368939 101.611177,14.0725 L101.611177,5.54239899 C101.611177,5.17800505 101.905521,4.88320707 102.269354,4.88320707 L104.230777,4.88320707 C104.59461,4.88320707 104.888954,5.17800505 104.888954,5.54239899 L104.888954,14.0725 C104.888954,14.4368939 104.59461,14.7316919 104.230777,14.7316919" id="Fill-9" fill="#C2C2C2"></path>
                    <path d="M110.792101,14.7316919 L108.818879,14.7316919 C108.458323,14.7316919 108.166601,14.4395202 108.166601,14.0784091 L108.166601,5.5364899 C108.166601,5.17537879 108.458323,4.88320707 108.818879,4.88320707 L110.792101,4.88320707 C111.152657,4.88320707 111.444379,5.17537879 111.444379,5.5364899 L111.444379,14.0784091 C111.444379,14.4395202 111.152657,14.7316919 110.792101,14.7316919" id="Fill-11" fill="#C2C2C2"></path>
                    <path d="M70.8,6.89137879 L70.8,12.8057222 C70.8,13.3480455 70.3607778,13.7879444 69.8192889,13.7879444 L48.1807111,13.7879444 C47.6392222,13.7879444 47.2,13.3480455 47.2,12.8057222 L47.2,6.89137879 C47.2,6.34905556 47.6392222,5.90915657 48.1807111,5.90915657 L69.8192889,5.90915657 C70.3607778,5.90915657 70.8,6.34905556 70.8,6.89137879" id="Fill-13" fill="#C2C2C2"></path>
                </g>
            </g>
            <g id="Group" transform="translate(6.000000, 48.000000)">
                <polygon id="Rectangle-25" fill="#FFFFFF" opacity="0.499209449" points="0 0 127 0 127 38 0 38"></polygon>
                <text id="Database" font-family="OpenSans-Regular, Open Sans" font-size="12" font-weight="normal" fill="#333333">
                    <tspan x="37.0917969" y="34">Database</tspan>
                </text>
                <g id="Group-32" transform="translate(5.000000, 3.000000)">
                    <path d="M114.722222,19.6969697 L3.27777778,19.6969697 C1.46713333,19.6969697 0,18.2275758 0,16.4141414 L0,3.28282828 C0,1.46939394 1.46713333,0 3.27777778,0 L114.722222,0 C116.532867,0 118,1.46939394 118,3.28282828 L118,16.4141414 C118,18.2275758 116.532867,19.6969697 114.722222,19.6969697" id="Fill-1" fill="#D6D6D6"></path>
                    <path d="M13.1111111,12.7619949 C13.1111111,13.6687121 12.3775444,14.4034091 11.4722222,14.4034091 C10.5669,14.4034091 9.83333333,13.6687121 9.83333333,12.7619949 C9.83333333,11.8552778 10.5669,11.1205808 11.4722222,11.1205808 C12.3775444,11.1205808 13.1111111,11.8552778 13.1111111,12.7619949" id="Fill-3" fill="#F16667"></path>
                    <path d="M13.1111111,6.85290404 C13.1111111,7.75962121 12.3775444,8.49431818 11.4722222,8.49431818 C10.5669,8.49431818 9.83333333,7.75962121 9.83333333,6.85290404 C9.83333333,5.94618687 10.5669,5.2114899 11.4722222,5.2114899 C12.3775444,5.2114899 13.1111111,5.94618687 13.1111111,6.85290404" id="Fill-5" fill="#8DCC93"></path>
                    <path d="M97.6777778,14.7316919 L95.7111111,14.7316919 C95.3485889,14.7316919 95.0555556,14.4382071 95.0555556,14.0751263 L95.0555556,5.53977273 C95.0555556,5.17669192 95.3485889,4.88320707 95.7111111,4.88320707 L97.6777778,4.88320707 C98.0403,4.88320707 98.3333333,5.17669192 98.3333333,5.53977273 L98.3333333,14.0751263 C98.3333333,14.4382071 98.0403,14.7316919 97.6777778,14.7316919" id="Fill-7" fill="#C2C2C2"></path>
                    <path d="M104.230777,14.7316919 L102.269354,14.7316919 C101.905521,14.7316919 101.611177,14.4368939 101.611177,14.0725 L101.611177,5.54239899 C101.611177,5.17800505 101.905521,4.88320707 102.269354,4.88320707 L104.230777,4.88320707 C104.59461,4.88320707 104.888954,5.17800505 104.888954,5.54239899 L104.888954,14.0725 C104.888954,14.4368939 104.59461,14.7316919 104.230777,14.7316919" id="Fill-9" fill="#C2C2C2"></path>
                    <path d="M110.792101,14.7316919 L108.818879,14.7316919 C108.458323,14.7316919 108.166601,14.4395202 108.166601,14.0784091 L108.166601,5.5364899 C108.166601,5.17537879 108.458323,4.88320707 108.818879,4.88320707 L110.792101,4.88320707 C111.152657,4.88320707 111.444379,5.17537879 111.444379,5.5364899 L111.444379,14.0784091 C111.444379,14.4395202 111.152657,14.7316919 110.792101,14.7316919" id="Fill-11" fill="#C2C2C2"></path>
                    <path d="M70.8,6.89137879 L70.8,12.8057222 C70.8,13.3480455 70.3607778,13.7879444 69.8192889,13.7879444 L48.1807111,13.7879444 C47.6392222,13.7879444 47.2,13.3480455 47.2,12.8057222 L47.2,6.89137879 C47.2,6.34905556 47.6392222,5.90915657 48.1807111,5.90915657 L69.8192889,5.90915657 C70.3607778,5.90915657 70.8,6.34905556 70.8,6.89137879" id="Fill-13" fill="#C2C2C2"></path>
                </g>
            </g>
            <g id="Group" transform="translate(6.000000, 91.000000)">
                <polygon id="Rectangle-25" fill="#FFFFFF" opacity="0.499209449" points="0 0 127 0 127 38 0 38"></polygon>
                <text id="….." font-family="OpenSans-Regular, Open Sans" font-size="12" font-weight="normal" fill="#333333">
                    <tspan x="55.6015625" y="34">…..</tspan>
                </text>
                <g id="Group-32" transform="translate(5.000000, 3.000000)">
                    <path d="M114.722222,19.6969697 L3.27777778,19.6969697 C1.46713333,19.6969697 0,18.2275758 0,16.4141414 L0,3.28282828 C0,1.46939394 1.46713333,0 3.27777778,0 L114.722222,0 C116.532867,0 118,1.46939394 118,3.28282828 L118,16.4141414 C118,18.2275758 116.532867,19.6969697 114.722222,19.6969697" id="Fill-1" fill="#D6D6D6"></path>
                    <path d="M13.1111111,12.7619949 C13.1111111,13.6687121 12.3775444,14.4034091 11.4722222,14.4034091 C10.5669,14.4034091 9.83333333,13.6687121 9.83333333,12.7619949 C9.83333333,11.8552778 10.5669,11.1205808 11.4722222,11.1205808 C12.3775444,11.1205808 13.1111111,11.8552778 13.1111111,12.7619949" id="Fill-3" fill="#F16667"></path>
                    <path d="M13.1111111,6.85290404 C13.1111111,7.75962121 12.3775444,8.49431818 11.4722222,8.49431818 C10.5669,8.49431818 9.83333333,7.75962121 9.83333333,6.85290404 C9.83333333,5.94618687 10.5669,5.2114899 11.4722222,5.2114899 C12.3775444,5.2114899 13.1111111,5.94618687 13.1111111,6.85290404" id="Fill-5" fill="#8DCC93"></path>
                    <path d="M97.6777778,14.7316919 L95.7111111,14.7316919 C95.3485889,14.7316919 95.0555556,14.4382071 95.0555556,14.0751263 L95.0555556,5.53977273 C95.0555556,5.17669192 95.3485889,4.88320707 95.7111111,4.88320707 L97.6777778,4.88320707 C98.0403,4.88320707 98.3333333,5.17669192 98.3333333,5.53977273 L98.3333333,14.0751263 C98.3333333,14.4382071 98.0403,14.7316919 97.6777778,14.7316919" id="Fill-7" fill="#C2C2C2"></path>
                    <path d="M104.230777,14.7316919 L102.269354,14.7316919 C101.905521,14.7316919 101.611177,14.4368939 101.611177,14.0725 L101.611177,5.54239899 C101.611177,5.17800505 101.905521,4.88320707 102.269354,4.88320707 L104.230777,4.88320707 C104.59461,4.88320707 104.888954,5.17800505 104.888954,5.54239899 L104.888954,14.0725 C104.888954,14.4368939 104.59461,14.7316919 104.230777,14.7316919" id="Fill-9" fill="#C2C2C2"></path>
                    <path d="M110.792101,14.7316919 L108.818879,14.7316919 C108.458323,14.7316919 108.166601,14.4395202 108.166601,14.0784091 L108.166601,5.5364899 C108.166601,5.17537879 108.458323,4.88320707 108.818879,4.88320707 L110.792101,4.88320707 C111.152657,4.88320707 111.444379,5.17537879 111.444379,5.5364899 L111.444379,14.0784091 C111.444379,14.4395202 111.152657,14.7316919 110.792101,14.7316919" id="Fill-11" fill="#C2C2C2"></path>
                    <path d="M70.8,6.89137879 L70.8,12.8057222 C70.8,13.3480455 70.3607778,13.7879444 69.8192889,13.7879444 L48.1807111,13.7879444 C47.6392222,13.7879444 47.2,13.3480455 47.2,12.8057222 L47.2,6.89137879 C47.2,6.34905556 47.6392222,5.90915657 48.1807111,5.90915657 L69.8192889,5.90915657 C70.3607778,5.90915657 70.8,6.34905556 70.8,6.89137879" id="Fill-13" fill="#C2C2C2"></path>
                </g>
            </g>
        </g>
        <g id="Group-3" transform="translate(11.000000, 110.000000)">
            <polygon id="Rectangle-24" fill="#D1EBD4" points="0 0 140 0 140 134 0 134"></polygon>
            <polygon id="Rectangle-25" fill="#E8F5E9" points="6 6 133 6 133 128 6 128"></polygon>
            <text id="OS-memory" font-family="OpenSans-Regular, Open Sans" font-size="12" font-weight="normal" fill="#333333">
                <tspan x="36" y="71">OS memory</tspan>
            </text>
        </g>
        <text id="OS-reserve" font-family="OpenSans-Regular, Open Sans" font-size="12" font-weight="normal" fill="#333333">
            <tspan x="50" y="450">OS reserve</tspan>
        </text>
        <text id="Neo4j-memory" font-family="OpenSans-Regular, Open Sans" font-size="12" font-weight="normal" fill="#333333">
            <tspan x="431" y="446">Neo4j memory</tspan>
        </text>
        <g id="Group-4" transform="translate(162.000000, 110.000000)">
            <polygon id="Rectangle-24" fill="#BCE9F4" points="0 0 140 0 140 134 0 134"></polygon>
            <polygon id="Rectangle-25" fill="#DDF4F9" points="6 6 133 6 133 128 6 128"></polygon>
            <text id="DBMS" font-family="OpenSans-Regular, Open Sans" font-size="12" font-weight="normal" fill="#333333">
                <tspan x="53.0283203" y="71">DBMS</tspan>
            </text>
        </g>
        <polygon id="Rectangle-24" fill="#FCD5C2" points="307 110 495 110 495 244 307 244"></polygon>
        <polygon id="Rectangle-25" fill="#FDEAE0" points="313 116 488 116 488 238 313 238"></polygon>
        <text id="Transaction" font-family="OpenSans-Regular, Open Sans" font-size="12" font-weight="normal" fill="#333333">
            <tspan x="368.632812" y="181">Transaction</tspan>
        </text>
        <g id="Group-7" transform="translate(500.000000, 110.000000)">
            <polygon id="Rectangle-24" fill="#FFF3CD" points="0 0 140 0 140 134 0 134"></polygon>
            <polygon id="Rectangle-25" fill="#FAF5E3" points="7 6 134 6 134 128 7 128"></polygon>
            <text id="Page-cache" font-family="OpenSans-Regular, Open Sans" font-size="12" font-weight="normal" fill="#333333">
                <tspan x="39.2402344" y="71">Page cache</tspan>
            </text>
        </g>
        <g id="Group-8" transform="translate(500.000000, 249.000000)">
            <polygon id="Rectangle-24" fill="#CCD8FF" points="0 0 140 0 140 134 0 134"></polygon>
            <polygon id="Rectangle-25" fill="#E3E7FA" points="7 6 134 6 134 128 7 128"></polygon>
            <text id="JVM-overhead" font-family="OpenSans-Regular, Open Sans" font-size="12" font-weight="normal" fill="#333333">
                <tspan x="30.9628906" y="67">JVM overhead</tspan>
            </text>
        </g>
        <g id="Group-6" transform="translate(645.000000, 110.000000)">
            <polygon id="Rectangle-24" fill="#FFCDEE" points="0 0 140 0 140 134 0 134"></polygon>
            <polygon id="Rectangle-25" fill="#FAE3F3" points="6 6 133 6 133 128 6 128"></polygon>
            <text id="Network-buffers" font-family="OpenSans-Regular, Open Sans" font-size="12" font-weight="normal" fill="#333333">
                <tspan x="23.9375" y="71">Network buffers</tspan>
            </text>
        </g>
        <g id="Group-9" transform="translate(645.000000, 249.000000)">
            <polygon id="Rectangle-24" fill="#F7C78A" points="0 0 140 0 140 134 0 134"></polygon>
            <polygon id="Rectangle-25" fill="#F7F1E9" points="7 6 134 6 134 128 7 128"></polygon>
            <text id="Other-shared-buffers" font-family="OpenSans-Regular, Open Sans" font-size="12" font-weight="normal" fill="#333333">
                <tspan x="33.8984375" y="63">Other shared </tspan>
                <tspan x="50.8935547" y="80">buffers</tspan>
            </text>
        </g>
        <use id="Rectangle" stroke="#979797" mask="url(#mask-2)" stroke-width="2" stroke-dasharray="3" xlink:href="#path-1"></use>
        <path d="M473.5,63 L473.5,421" id="Path-54" stroke="#979797" stroke-dasharray="3"></path>
    </g>
</svg>