<?xml version="1.0" encoding="UTF-8"?>
<svg width="759px" height="368px" viewBox="0 0 759 368" version="1.1" xmlns="http://www.w3.org/2000/svg" xmlns:xlink="http://www.w3.org/1999/xlink">
    <!-- Generator: Sketch 48.2 (47327) - http://www.bohemiancoding.com/sketch -->
    <title>nesw-regions-and-dcs</title>
    <desc>Created with Sketch.</desc>
    <defs></defs>
    <g id="Page-1" stroke="none" stroke-width="1" fill="none" fill-rule="evenodd">
        <g id="Artboard" transform="translate(-15668.000000, -16353.000000)"></g>
        <g id="nesw-regions-and-dcs">
            <g id="Group-40" transform="translate(5.000000, 5.000000)">
                <rect id="Rectangle-17" stroke="#979797" x="0.5" y="0.5" width="748" height="357"></rect>
                <rect id="Rectangle-14" stroke="#DFDFDF" x="17.5" y="58.5" width="111" height="109"></rect>
                <g id="Group-20" transform="translate(23.000000, 91.000000)">
                    <rect id="Rectangle-15" fill="#C2C2C2" x="11.6666667" y="35.8333333" width="76.6666667" height="6.66666667"></rect>
                    <rect id="Rectangle-15" fill="#C2C2C2" x="11.6666667" y="15" width="76.6666667" height="6.66666667"></rect>
                    <path d="M97.2222222,57.5 L2.77777778,57.5 C1.24333333,57.5 0,56.381 0,55 L0,45 C0,43.619 1.24333333,42.5 2.77777778,42.5 L97.2222222,42.5 C98.7566667,42.5 100,43.619 100,45 L100,55 C100,56.381 98.7566667,57.5 97.2222222,57.5" id="Fill-1" fill="#D6D6D6"></path>
                    <path d="M11.1111111,52.21875 C11.1111111,52.90925 10.4894444,53.46875 9.72222222,53.46875 C8.955,53.46875 8.33333333,52.90925 8.33333333,52.21875 C8.33333333,51.52825 8.955,50.96875 9.72222222,50.96875 C10.4894444,50.96875 11.1111111,51.52825 11.1111111,52.21875" id="Fill-3" fill="#F16667"></path>
                    <path d="M11.1111111,47.71875 C11.1111111,48.40925 10.4894444,48.96875 9.72222222,48.96875 C8.955,48.96875 8.33333333,48.40925 8.33333333,47.71875 C8.33333333,47.02825 8.955,46.46875 9.72222222,46.46875 C10.4894444,46.46875 11.1111111,47.02825 11.1111111,47.71875" id="Fill-5" fill="#8DCC93"></path>
                    <path d="M82.7777778,53.71875 L81.1111111,53.71875 C80.8038889,53.71875 80.5555556,53.49525 80.5555556,53.21875 L80.5555556,46.71875 C80.5555556,46.44225 80.8038889,46.21875 81.1111111,46.21875 L82.7777778,46.21875 C83.085,46.21875 83.3333333,46.44225 83.3333333,46.71875 L83.3333333,53.21875 C83.3333333,53.49525 83.085,53.71875 82.7777778,53.71875" id="Fill-7" fill="#C2C2C2"></path>
                    <path d="M88.3311667,53.71875 L86.6689444,53.71875 C86.3606111,53.71875 86.1111667,53.49425 86.1111667,53.21675 L86.1111667,46.72075 C86.1111667,46.44325 86.3606111,46.21875 86.6689444,46.21875 L88.3311667,46.21875 C88.6395,46.21875 88.8889444,46.44325 88.8889444,46.72075 L88.8889444,53.21675 C88.8889444,53.49425 88.6395,53.71875 88.3311667,53.71875" id="Fill-9" fill="#C2C2C2"></path>
                    <path d="M93.8916111,53.71875 L92.2193889,53.71875 C91.9138333,53.71875 91.6666111,53.49625 91.6666111,53.22125 L91.6666111,46.71625 C91.6666111,46.44125 91.9138333,46.21875 92.2193889,46.21875 L93.8916111,46.21875 C94.1971667,46.21875 94.4443889,46.44125 94.4443889,46.71625 L94.4443889,53.22125 C94.4443889,53.49625 94.1971667,53.71875 93.8916111,53.71875" id="Fill-11" fill="#C2C2C2"></path>
                    <path d="M60,47.74805 L60,52.25205 C60,52.66505 59.6277778,53.00005 59.1688889,53.00005 L40.8311111,53.00005 C40.3722222,53.00005 40,52.66505 40,52.25205 L40,47.74805 C40,47.33505 40.3722222,47.00005 40.8311111,47.00005 L59.1688889,47.00005 C59.6277778,47.00005 60,47.33505 60,47.74805" id="Fill-13" fill="#C2C2C2"></path>
                    <path d="M97.2222222,35.8333333 L2.77777778,35.8333333 C1.24333333,35.8333333 0,34.7143333 0,33.3333333 L0,23.3333333 C0,21.9523333 1.24333333,20.8333333 2.77777778,20.8333333 L97.2222222,20.8333333 C98.7566667,20.8333333 100,21.9523333 100,23.3333333 L100,33.3333333 C100,34.7143333 98.7566667,35.8333333 97.2222222,35.8333333" id="Fill-1" fill="#D6D6D6"></path>
                    <path d="M11.1111111,30.5520833 C11.1111111,31.2425833 10.4894444,31.8020833 9.72222222,31.8020833 C8.955,31.8020833 8.33333333,31.2425833 8.33333333,30.5520833 C8.33333333,29.8615833 8.955,29.3020833 9.72222222,29.3020833 C10.4894444,29.3020833 11.1111111,29.8615833 11.1111111,30.5520833" id="Fill-3" fill="#F16667"></path>
                    <path d="M11.1111111,26.0520833 C11.1111111,26.7425833 10.4894444,27.3020833 9.72222222,27.3020833 C8.955,27.3020833 8.33333333,26.7425833 8.33333333,26.0520833 C8.33333333,25.3615833 8.955,24.8020833 9.72222222,24.8020833 C10.4894444,24.8020833 11.1111111,25.3615833 11.1111111,26.0520833" id="Fill-5" fill="#8DCC93"></path>
                    <path d="M82.7777778,32.0520833 L81.1111111,32.0520833 C80.8038889,32.0520833 80.5555556,31.8285833 80.5555556,31.5520833 L80.5555556,25.0520833 C80.5555556,24.7755833 80.8038889,24.5520833 81.1111111,24.5520833 L82.7777778,24.5520833 C83.085,24.5520833 83.3333333,24.7755833 83.3333333,25.0520833 L83.3333333,31.5520833 C83.3333333,31.8285833 83.085,32.0520833 82.7777778,32.0520833" id="Fill-7" fill="#C2C2C2"></path>
                    <path d="M88.3311667,32.0520833 L86.6689444,32.0520833 C86.3606111,32.0520833 86.1111667,31.8275833 86.1111667,31.5500833 L86.1111667,25.0540833 C86.1111667,24.7765833 86.3606111,24.5520833 86.6689444,24.5520833 L88.3311667,24.5520833 C88.6395,24.5520833 88.8889444,24.7765833 88.8889444,25.0540833 L88.8889444,31.5500833 C88.8889444,31.8275833 88.6395,32.0520833 88.3311667,32.0520833" id="Fill-9" fill="#C2C2C2"></path>
                    <path d="M93.8916111,32.0520833 L92.2193889,32.0520833 C91.9138333,32.0520833 91.6666111,31.8295833 91.6666111,31.5545833 L91.6666111,25.0495833 C91.6666111,24.7745833 91.9138333,24.5520833 92.2193889,24.5520833 L93.8916111,24.5520833 C94.1971667,24.5520833 94.4443889,24.7745833 94.4443889,25.0495833 L94.4443889,31.5545833 C94.4443889,31.8295833 94.1971667,32.0520833 93.8916111,32.0520833" id="Fill-11" fill="#C2C2C2"></path>
                    <path d="M60,26.0813833 L60,30.5853833 C60,30.9983833 59.6277778,31.3333833 59.1688889,31.3333833 L40.8311111,31.3333833 C40.3722222,31.3333833 40,30.9983833 40,30.5853833 L40,26.0813833 C40,25.6683833 40.3722222,25.3333833 40.8311111,25.3333833 L59.1688889,25.3333833 C59.6277778,25.3333833 60,25.6683833 60,26.0813833" id="Fill-13" fill="#C2C2C2"></path>
                    <path d="M97.2222222,15 L2.77777778,15 C1.24333333,15 0,13.881 0,12.5 L0,2.5 C0,1.119 1.24333333,0 2.77777778,0 L97.2222222,0 C98.7566667,0 100,1.119 100,2.5 L100,12.5 C100,13.881 98.7566667,15 97.2222222,15" id="Fill-1" fill="#D6D6D6"></path>
                    <path d="M11.1111111,9.71875 C11.1111111,10.40925 10.4894444,10.96875 9.72222222,10.96875 C8.955,10.96875 8.33333333,10.40925 8.33333333,9.71875 C8.33333333,9.02825 8.955,8.46875 9.72222222,8.46875 C10.4894444,8.46875 11.1111111,9.02825 11.1111111,9.71875" id="Fill-3" fill="#F16667"></path>
                    <path d="M11.1111111,5.21875 C11.1111111,5.90925 10.4894444,6.46875 9.72222222,6.46875 C8.955,6.46875 8.33333333,5.90925 8.33333333,5.21875 C8.33333333,4.52825 8.955,3.96875 9.72222222,3.96875 C10.4894444,3.96875 11.1111111,4.52825 11.1111111,5.21875" id="Fill-5" fill="#8DCC93"></path>
                    <path d="M82.7777778,11.21875 L81.1111111,11.21875 C80.8038889,11.21875 80.5555556,10.99525 80.5555556,10.71875 L80.5555556,4.21875 C80.5555556,3.94225 80.8038889,3.71875 81.1111111,3.71875 L82.7777778,3.71875 C83.085,3.71875 83.3333333,3.94225 83.3333333,4.21875 L83.3333333,10.71875 C83.3333333,10.99525 83.085,11.21875 82.7777778,11.21875" id="Fill-7" fill="#C2C2C2"></path>
                    <path d="M88.3311667,11.21875 L86.6689444,11.21875 C86.3606111,11.21875 86.1111667,10.99425 86.1111667,10.71675 L86.1111667,4.22075 C86.1111667,3.94325 86.3606111,3.71875 86.6689444,3.71875 L88.3311667,3.71875 C88.6395,3.71875 88.8889444,3.94325 88.8889444,4.22075 L88.8889444,10.71675 C88.8889444,10.99425 88.6395,11.21875 88.3311667,11.21875" id="Fill-9" fill="#C2C2C2"></path>
                    <path d="M93.8916111,11.21875 L92.2193889,11.21875 C91.9138333,11.21875 91.6666111,10.99625 91.6666111,10.72125 L91.6666111,4.21625 C91.6666111,3.94125 91.9138333,3.71875 92.2193889,3.71875 L93.8916111,3.71875 C94.1971667,3.71875 94.4443889,3.94125 94.4443889,4.21625 L94.4443889,10.72125 C94.4443889,10.99625 94.1971667,11.21875 93.8916111,11.21875" id="Fill-11" fill="#C2C2C2"></path>
                    <path d="M60,5.24805 L60,9.75205 C60,10.16505 59.6277778,10.50005 59.1688889,10.50005 L40.8311111,10.50005 C40.3722222,10.50005 40,10.16505 40,9.75205 L40,5.24805 C40,4.83505 40.3722222,4.50005 40.8311111,4.50005 L59.1688889,4.50005 C59.6277778,4.50005 60,4.83505 60,5.24805" id="Fill-13" fill="#C2C2C2"></path>
                </g>
                <rect id="Rectangle-14" stroke="#DFDFDF" x="134.5" y="58.5" width="111" height="109"></rect>
                <g id="Group-20" transform="translate(140.000000, 91.000000)">
                    <rect id="Rectangle-15" fill="#C2C2C2" x="11.6666667" y="35.8333333" width="76.6666667" height="6.66666667"></rect>
                    <rect id="Rectangle-15" fill="#C2C2C2" x="11.6666667" y="15" width="76.6666667" height="6.66666667"></rect>
                    <path d="M97.2222222,57.5 L2.77777778,57.5 C1.24333333,57.5 0,56.381 0,55 L0,45 C0,43.619 1.24333333,42.5 2.77777778,42.5 L97.2222222,42.5 C98.7566667,42.5 100,43.619 100,45 L100,55 C100,56.381 98.7566667,57.5 97.2222222,57.5" id="Fill-1" fill="#D6D6D6"></path>
                    <path d="M11.1111111,52.21875 C11.1111111,52.90925 10.4894444,53.46875 9.72222222,53.46875 C8.955,53.46875 8.33333333,52.90925 8.33333333,52.21875 C8.33333333,51.52825 8.955,50.96875 9.72222222,50.96875 C10.4894444,50.96875 11.1111111,51.52825 11.1111111,52.21875" id="Fill-3" fill="#F16667"></path>
                    <path d="M11.1111111,47.71875 C11.1111111,48.40925 10.4894444,48.96875 9.72222222,48.96875 C8.955,48.96875 8.33333333,48.40925 8.33333333,47.71875 C8.33333333,47.02825 8.955,46.46875 9.72222222,46.46875 C10.4894444,46.46875 11.1111111,47.02825 11.1111111,47.71875" id="Fill-5" fill="#8DCC93"></path>
                    <path d="M82.7777778,53.71875 L81.1111111,53.71875 C80.8038889,53.71875 80.5555556,53.49525 80.5555556,53.21875 L80.5555556,46.71875 C80.5555556,46.44225 80.8038889,46.21875 81.1111111,46.21875 L82.7777778,46.21875 C83.085,46.21875 83.3333333,46.44225 83.3333333,46.71875 L83.3333333,53.21875 C83.3333333,53.49525 83.085,53.71875 82.7777778,53.71875" id="Fill-7" fill="#C2C2C2"></path>
                    <path d="M88.3311667,53.71875 L86.6689444,53.71875 C86.3606111,53.71875 86.1111667,53.49425 86.1111667,53.21675 L86.1111667,46.72075 C86.1111667,46.44325 86.3606111,46.21875 86.6689444,46.21875 L88.3311667,46.21875 C88.6395,46.21875 88.8889444,46.44325 88.8889444,46.72075 L88.8889444,53.21675 C88.8889444,53.49425 88.6395,53.71875 88.3311667,53.71875" id="Fill-9" fill="#C2C2C2"></path>
                    <path d="M93.8916111,53.71875 L92.2193889,53.71875 C91.9138333,53.71875 91.6666111,53.49625 91.6666111,53.22125 L91.6666111,46.71625 C91.6666111,46.44125 91.9138333,46.21875 92.2193889,46.21875 L93.8916111,46.21875 C94.1971667,46.21875 94.4443889,46.44125 94.4443889,46.71625 L94.4443889,53.22125 C94.4443889,53.49625 94.1971667,53.71875 93.8916111,53.71875" id="Fill-11" fill="#C2C2C2"></path>
                    <path d="M60,47.74805 L60,52.25205 C60,52.66505 59.6277778,53.00005 59.1688889,53.00005 L40.8311111,53.00005 C40.3722222,53.00005 40,52.66505 40,52.25205 L40,47.74805 C40,47.33505 40.3722222,47.00005 40.8311111,47.00005 L59.1688889,47.00005 C59.6277778,47.00005 60,47.33505 60,47.74805" id="Fill-13" fill="#C2C2C2"></path>
                    <path d="M97.2222222,35.8333333 L2.77777778,35.8333333 C1.24333333,35.8333333 0,34.7143333 0,33.3333333 L0,23.3333333 C0,21.9523333 1.24333333,20.8333333 2.77777778,20.8333333 L97.2222222,20.8333333 C98.7566667,20.8333333 100,21.9523333 100,23.3333333 L100,33.3333333 C100,34.7143333 98.7566667,35.8333333 97.2222222,35.8333333" id="Fill-1" fill="#D6D6D6"></path>
                    <path d="M11.1111111,30.5520833 C11.1111111,31.2425833 10.4894444,31.8020833 9.72222222,31.8020833 C8.955,31.8020833 8.33333333,31.2425833 8.33333333,30.5520833 C8.33333333,29.8615833 8.955,29.3020833 9.72222222,29.3020833 C10.4894444,29.3020833 11.1111111,29.8615833 11.1111111,30.5520833" id="Fill-3" fill="#F16667"></path>
                    <path d="M11.1111111,26.0520833 C11.1111111,26.7425833 10.4894444,27.3020833 9.72222222,27.3020833 C8.955,27.3020833 8.33333333,26.7425833 8.33333333,26.0520833 C8.33333333,25.3615833 8.955,24.8020833 9.72222222,24.8020833 C10.4894444,24.8020833 11.1111111,25.3615833 11.1111111,26.0520833" id="Fill-5" fill="#8DCC93"></path>
                    <path d="M82.7777778,32.0520833 L81.1111111,32.0520833 C80.8038889,32.0520833 80.5555556,31.8285833 80.5555556,31.5520833 L80.5555556,25.0520833 C80.5555556,24.7755833 80.8038889,24.5520833 81.1111111,24.5520833 L82.7777778,24.5520833 C83.085,24.5520833 83.3333333,24.7755833 83.3333333,25.0520833 L83.3333333,31.5520833 C83.3333333,31.8285833 83.085,32.0520833 82.7777778,32.0520833" id="Fill-7" fill="#C2C2C2"></path>
                    <path d="M88.3311667,32.0520833 L86.6689444,32.0520833 C86.3606111,32.0520833 86.1111667,31.8275833 86.1111667,31.5500833 L86.1111667,25.0540833 C86.1111667,24.7765833 86.3606111,24.5520833 86.6689444,24.5520833 L88.3311667,24.5520833 C88.6395,24.5520833 88.8889444,24.7765833 88.8889444,25.0540833 L88.8889444,31.5500833 C88.8889444,31.8275833 88.6395,32.0520833 88.3311667,32.0520833" id="Fill-9" fill="#C2C2C2"></path>
                    <path d="M93.8916111,32.0520833 L92.2193889,32.0520833 C91.9138333,32.0520833 91.6666111,31.8295833 91.6666111,31.5545833 L91.6666111,25.0495833 C91.6666111,24.7745833 91.9138333,24.5520833 92.2193889,24.5520833 L93.8916111,24.5520833 C94.1971667,24.5520833 94.4443889,24.7745833 94.4443889,25.0495833 L94.4443889,31.5545833 C94.4443889,31.8295833 94.1971667,32.0520833 93.8916111,32.0520833" id="Fill-11" fill="#C2C2C2"></path>
                    <path d="M60,26.0813833 L60,30.5853833 C60,30.9983833 59.6277778,31.3333833 59.1688889,31.3333833 L40.8311111,31.3333833 C40.3722222,31.3333833 40,30.9983833 40,30.5853833 L40,26.0813833 C40,25.6683833 40.3722222,25.3333833 40.8311111,25.3333833 L59.1688889,25.3333833 C59.6277778,25.3333833 60,25.6683833 60,26.0813833" id="Fill-13" fill="#C2C2C2"></path>
                    <path d="M97.2222222,15 L2.77777778,15 C1.24333333,15 0,13.881 0,12.5 L0,2.5 C0,1.119 1.24333333,0 2.77777778,0 L97.2222222,0 C98.7566667,0 100,1.119 100,2.5 L100,12.5 C100,13.881 98.7566667,15 97.2222222,15" id="Fill-1" fill="#D6D6D6"></path>
                    <path d="M11.1111111,9.71875 C11.1111111,10.40925 10.4894444,10.96875 9.72222222,10.96875 C8.955,10.96875 8.33333333,10.40925 8.33333333,9.71875 C8.33333333,9.02825 8.955,8.46875 9.72222222,8.46875 C10.4894444,8.46875 11.1111111,9.02825 11.1111111,9.71875" id="Fill-3" fill="#F16667"></path>
                    <path d="M11.1111111,5.21875 C11.1111111,5.90925 10.4894444,6.46875 9.72222222,6.46875 C8.955,6.46875 8.33333333,5.90925 8.33333333,5.21875 C8.33333333,4.52825 8.955,3.96875 9.72222222,3.96875 C10.4894444,3.96875 11.1111111,4.52825 11.1111111,5.21875" id="Fill-5" fill="#8DCC93"></path>
                    <path d="M82.7777778,11.21875 L81.1111111,11.21875 C80.8038889,11.21875 80.5555556,10.99525 80.5555556,10.71875 L80.5555556,4.21875 C80.5555556,3.94225 80.8038889,3.71875 81.1111111,3.71875 L82.7777778,3.71875 C83.085,3.71875 83.3333333,3.94225 83.3333333,4.21875 L83.3333333,10.71875 C83.3333333,10.99525 83.085,11.21875 82.7777778,11.21875" id="Fill-7" fill="#C2C2C2"></path>
                    <path d="M88.3311667,11.21875 L86.6689444,11.21875 C86.3606111,11.21875 86.1111667,10.99425 86.1111667,10.71675 L86.1111667,4.22075 C86.1111667,3.94325 86.3606111,3.71875 86.6689444,3.71875 L88.3311667,3.71875 C88.6395,3.71875 88.8889444,3.94325 88.8889444,4.22075 L88.8889444,10.71675 C88.8889444,10.99425 88.6395,11.21875 88.3311667,11.21875" id="Fill-9" fill="#C2C2C2"></path>
                    <path d="M93.8916111,11.21875 L92.2193889,11.21875 C91.9138333,11.21875 91.6666111,10.99625 91.6666111,10.72125 L91.6666111,4.21625 C91.6666111,3.94125 91.9138333,3.71875 92.2193889,3.71875 L93.8916111,3.71875 C94.1971667,3.71875 94.4443889,3.94125 94.4443889,4.21625 L94.4443889,10.72125 C94.4443889,10.99625 94.1971667,11.21875 93.8916111,11.21875" id="Fill-11" fill="#C2C2C2"></path>
                    <path d="M60,5.24805 L60,9.75205 C60,10.16505 59.6277778,10.50005 59.1688889,10.50005 L40.8311111,10.50005 C40.3722222,10.50005 40,10.16505 40,9.75205 L40,5.24805 C40,4.83505 40.3722222,4.50005 40.8311111,4.50005 L59.1688889,4.50005 C59.6277778,4.50005 60,4.83505 60,5.24805" id="Fill-13" fill="#C2C2C2"></path>
                </g>
                <rect id="Rectangle-14" stroke="#DFDFDF" x="251.5" y="58.5" width="111" height="109"></rect>
                <g id="Group-20" transform="translate(257.000000, 91.000000)">
                    <rect id="Rectangle-15" fill="#C2C2C2" x="11.6666667" y="35.8333333" width="76.6666667" height="6.66666667"></rect>
                    <rect id="Rectangle-15" fill="#C2C2C2" x="11.6666667" y="15" width="76.6666667" height="6.66666667"></rect>
                    <path d="M97.2222222,57.5 L2.77777778,57.5 C1.24333333,57.5 0,56.381 0,55 L0,45 C0,43.619 1.24333333,42.5 2.77777778,42.5 L97.2222222,42.5 C98.7566667,42.5 100,43.619 100,45 L100,55 C100,56.381 98.7566667,57.5 97.2222222,57.5" id="Fill-1" fill="#D6D6D6"></path>
                    <path d="M11.1111111,52.21875 C11.1111111,52.90925 10.4894444,53.46875 9.72222222,53.46875 C8.955,53.46875 8.33333333,52.90925 8.33333333,52.21875 C8.33333333,51.52825 8.955,50.96875 9.72222222,50.96875 C10.4894444,50.96875 11.1111111,51.52825 11.1111111,52.21875" id="Fill-3" fill="#F16667"></path>
                    <path d="M11.1111111,47.71875 C11.1111111,48.40925 10.4894444,48.96875 9.72222222,48.96875 C8.955,48.96875 8.33333333,48.40925 8.33333333,47.71875 C8.33333333,47.02825 8.955,46.46875 9.72222222,46.46875 C10.4894444,46.46875 11.1111111,47.02825 11.1111111,47.71875" id="Fill-5" fill="#8DCC93"></path>
                    <path d="M82.7777778,53.71875 L81.1111111,53.71875 C80.8038889,53.71875 80.5555556,53.49525 80.5555556,53.21875 L80.5555556,46.71875 C80.5555556,46.44225 80.8038889,46.21875 81.1111111,46.21875 L82.7777778,46.21875 C83.085,46.21875 83.3333333,46.44225 83.3333333,46.71875 L83.3333333,53.21875 C83.3333333,53.49525 83.085,53.71875 82.7777778,53.71875" id="Fill-7" fill="#C2C2C2"></path>
                    <path d="M88.3311667,53.71875 L86.6689444,53.71875 C86.3606111,53.71875 86.1111667,53.49425 86.1111667,53.21675 L86.1111667,46.72075 C86.1111667,46.44325 86.3606111,46.21875 86.6689444,46.21875 L88.3311667,46.21875 C88.6395,46.21875 88.8889444,46.44325 88.8889444,46.72075 L88.8889444,53.21675 C88.8889444,53.49425 88.6395,53.71875 88.3311667,53.71875" id="Fill-9" fill="#C2C2C2"></path>
                    <path d="M93.8916111,53.71875 L92.2193889,53.71875 C91.9138333,53.71875 91.6666111,53.49625 91.6666111,53.22125 L91.6666111,46.71625 C91.6666111,46.44125 91.9138333,46.21875 92.2193889,46.21875 L93.8916111,46.21875 C94.1971667,46.21875 94.4443889,46.44125 94.4443889,46.71625 L94.4443889,53.22125 C94.4443889,53.49625 94.1971667,53.71875 93.8916111,53.71875" id="Fill-11" fill="#C2C2C2"></path>
                    <path d="M60,47.74805 L60,52.25205 C60,52.66505 59.6277778,53.00005 59.1688889,53.00005 L40.8311111,53.00005 C40.3722222,53.00005 40,52.66505 40,52.25205 L40,47.74805 C40,47.33505 40.3722222,47.00005 40.8311111,47.00005 L59.1688889,47.00005 C59.6277778,47.00005 60,47.33505 60,47.74805" id="Fill-13" fill="#C2C2C2"></path>
                    <path d="M97.2222222,35.8333333 L2.77777778,35.8333333 C1.24333333,35.8333333 0,34.7143333 0,33.3333333 L0,23.3333333 C0,21.9523333 1.24333333,20.8333333 2.77777778,20.8333333 L97.2222222,20.8333333 C98.7566667,20.8333333 100,21.9523333 100,23.3333333 L100,33.3333333 C100,34.7143333 98.7566667,35.8333333 97.2222222,35.8333333" id="Fill-1" fill="#D6D6D6"></path>
                    <path d="M11.1111111,30.5520833 C11.1111111,31.2425833 10.4894444,31.8020833 9.72222222,31.8020833 C8.955,31.8020833 8.33333333,31.2425833 8.33333333,30.5520833 C8.33333333,29.8615833 8.955,29.3020833 9.72222222,29.3020833 C10.4894444,29.3020833 11.1111111,29.8615833 11.1111111,30.5520833" id="Fill-3" fill="#F16667"></path>
                    <path d="M11.1111111,26.0520833 C11.1111111,26.7425833 10.4894444,27.3020833 9.72222222,27.3020833 C8.955,27.3020833 8.33333333,26.7425833 8.33333333,26.0520833 C8.33333333,25.3615833 8.955,24.8020833 9.72222222,24.8020833 C10.4894444,24.8020833 11.1111111,25.3615833 11.1111111,26.0520833" id="Fill-5" fill="#8DCC93"></path>
                    <path d="M82.7777778,32.0520833 L81.1111111,32.0520833 C80.8038889,32.0520833 80.5555556,31.8285833 80.5555556,31.5520833 L80.5555556,25.0520833 C80.5555556,24.7755833 80.8038889,24.5520833 81.1111111,24.5520833 L82.7777778,24.5520833 C83.085,24.5520833 83.3333333,24.7755833 83.3333333,25.0520833 L83.3333333,31.5520833 C83.3333333,31.8285833 83.085,32.0520833 82.7777778,32.0520833" id="Fill-7" fill="#C2C2C2"></path>
                    <path d="M88.3311667,32.0520833 L86.6689444,32.0520833 C86.3606111,32.0520833 86.1111667,31.8275833 86.1111667,31.5500833 L86.1111667,25.0540833 C86.1111667,24.7765833 86.3606111,24.5520833 86.6689444,24.5520833 L88.3311667,24.5520833 C88.6395,24.5520833 88.8889444,24.7765833 88.8889444,25.0540833 L88.8889444,31.5500833 C88.8889444,31.8275833 88.6395,32.0520833 88.3311667,32.0520833" id="Fill-9" fill="#C2C2C2"></path>
                    <path d="M93.8916111,32.0520833 L92.2193889,32.0520833 C91.9138333,32.0520833 91.6666111,31.8295833 91.6666111,31.5545833 L91.6666111,25.0495833 C91.6666111,24.7745833 91.9138333,24.5520833 92.2193889,24.5520833 L93.8916111,24.5520833 C94.1971667,24.5520833 94.4443889,24.7745833 94.4443889,25.0495833 L94.4443889,31.5545833 C94.4443889,31.8295833 94.1971667,32.0520833 93.8916111,32.0520833" id="Fill-11" fill="#C2C2C2"></path>
                    <path d="M60,26.0813833 L60,30.5853833 C60,30.9983833 59.6277778,31.3333833 59.1688889,31.3333833 L40.8311111,31.3333833 C40.3722222,31.3333833 40,30.9983833 40,30.5853833 L40,26.0813833 C40,25.6683833 40.3722222,25.3333833 40.8311111,25.3333833 L59.1688889,25.3333833 C59.6277778,25.3333833 60,25.6683833 60,26.0813833" id="Fill-13" fill="#C2C2C2"></path>
                    <path d="M97.2222222,15 L2.77777778,15 C1.24333333,15 0,13.881 0,12.5 L0,2.5 C0,1.119 1.24333333,0 2.77777778,0 L97.2222222,0 C98.7566667,0 100,1.119 100,2.5 L100,12.5 C100,13.881 98.7566667,15 97.2222222,15" id="Fill-1" fill="#D6D6D6"></path>
                    <path d="M11.1111111,9.71875 C11.1111111,10.40925 10.4894444,10.96875 9.72222222,10.96875 C8.955,10.96875 8.33333333,10.40925 8.33333333,9.71875 C8.33333333,9.02825 8.955,8.46875 9.72222222,8.46875 C10.4894444,8.46875 11.1111111,9.02825 11.1111111,9.71875" id="Fill-3" fill="#F16667"></path>
                    <path d="M11.1111111,5.21875 C11.1111111,5.90925 10.4894444,6.46875 9.72222222,6.46875 C8.955,6.46875 8.33333333,5.90925 8.33333333,5.21875 C8.33333333,4.52825 8.955,3.96875 9.72222222,3.96875 C10.4894444,3.96875 11.1111111,4.52825 11.1111111,5.21875" id="Fill-5" fill="#8DCC93"></path>
                    <path d="M82.7777778,11.21875 L81.1111111,11.21875 C80.8038889,11.21875 80.5555556,10.99525 80.5555556,10.71875 L80.5555556,4.21875 C80.5555556,3.94225 80.8038889,3.71875 81.1111111,3.71875 L82.7777778,3.71875 C83.085,3.71875 83.3333333,3.94225 83.3333333,4.21875 L83.3333333,10.71875 C83.3333333,10.99525 83.085,11.21875 82.7777778,11.21875" id="Fill-7" fill="#C2C2C2"></path>
                    <path d="M88.3311667,11.21875 L86.6689444,11.21875 C86.3606111,11.21875 86.1111667,10.99425 86.1111667,10.71675 L86.1111667,4.22075 C86.1111667,3.94325 86.3606111,3.71875 86.6689444,3.71875 L88.3311667,3.71875 C88.6395,3.71875 88.8889444,3.94325 88.8889444,4.22075 L88.8889444,10.71675 C88.8889444,10.99425 88.6395,11.21875 88.3311667,11.21875" id="Fill-9" fill="#C2C2C2"></path>
                    <path d="M93.8916111,11.21875 L92.2193889,11.21875 C91.9138333,11.21875 91.6666111,10.99625 91.6666111,10.72125 L91.6666111,4.21625 C91.6666111,3.94125 91.9138333,3.71875 92.2193889,3.71875 L93.8916111,3.71875 C94.1971667,3.71875 94.4443889,3.94125 94.4443889,4.21625 L94.4443889,10.72125 C94.4443889,10.99625 94.1971667,11.21875 93.8916111,11.21875" id="Fill-11" fill="#C2C2C2"></path>
                    <path d="M60,5.24805 L60,9.75205 C60,10.16505 59.6277778,10.50005 59.1688889,10.50005 L40.8311111,10.50005 C40.3722222,10.50005 40,10.16505 40,9.75205 L40,5.24805 C40,4.83505 40.3722222,4.50005 40.8311111,4.50005 L59.1688889,4.50005 C59.6277778,4.50005 60,4.83505 60,5.24805" id="Fill-13" fill="#C2C2C2"></path>
                </g>
                <rect id="Rectangle-22" stroke="#979797" x="11.5" y="11.5" width="357" height="162"></rect>
                <g id="Group-35" transform="translate(11.000000, 184.000000)">
                    <rect id="Rectangle-14" stroke="#DFDFDF" x="6.5" y="47.5" width="111" height="109"></rect>
                    <g id="Group-20" transform="translate(12.000000, 80.000000)">
                        <rect id="Rectangle-15" fill="#C2C2C2" x="11.6666667" y="35.8333333" width="76.6666667" height="6.66666667"></rect>
                        <rect id="Rectangle-15" fill="#C2C2C2" x="11.6666667" y="15" width="76.6666667" height="6.66666667"></rect>
                        <path d="M97.2222222,57.5 L2.77777778,57.5 C1.24333333,57.5 0,56.381 0,55 L0,45 C0,43.619 1.24333333,42.5 2.77777778,42.5 L97.2222222,42.5 C98.7566667,42.5 100,43.619 100,45 L100,55 C100,56.381 98.7566667,57.5 97.2222222,57.5" id="Fill-1" fill="#D6D6D6"></path>
                        <path d="M11.1111111,52.21875 C11.1111111,52.90925 10.4894444,53.46875 9.72222222,53.46875 C8.955,53.46875 8.33333333,52.90925 8.33333333,52.21875 C8.33333333,51.52825 8.955,50.96875 9.72222222,50.96875 C10.4894444,50.96875 11.1111111,51.52825 11.1111111,52.21875" id="Fill-3" fill="#F16667"></path>
                        <path d="M11.1111111,47.71875 C11.1111111,48.40925 10.4894444,48.96875 9.72222222,48.96875 C8.955,48.96875 8.33333333,48.40925 8.33333333,47.71875 C8.33333333,47.02825 8.955,46.46875 9.72222222,46.46875 C10.4894444,46.46875 11.1111111,47.02825 11.1111111,47.71875" id="Fill-5" fill="#8DCC93"></path>
                        <path d="M82.7777778,53.71875 L81.1111111,53.71875 C80.8038889,53.71875 80.5555556,53.49525 80.5555556,53.21875 L80.5555556,46.71875 C80.5555556,46.44225 80.8038889,46.21875 81.1111111,46.21875 L82.7777778,46.21875 C83.085,46.21875 83.3333333,46.44225 83.3333333,46.71875 L83.3333333,53.21875 C83.3333333,53.49525 83.085,53.71875 82.7777778,53.71875" id="Fill-7" fill="#C2C2C2"></path>
                        <path d="M88.3311667,53.71875 L86.6689444,53.71875 C86.3606111,53.71875 86.1111667,53.49425 86.1111667,53.21675 L86.1111667,46.72075 C86.1111667,46.44325 86.3606111,46.21875 86.6689444,46.21875 L88.3311667,46.21875 C88.6395,46.21875 88.8889444,46.44325 88.8889444,46.72075 L88.8889444,53.21675 C88.8889444,53.49425 88.6395,53.71875 88.3311667,53.71875" id="Fill-9" fill="#C2C2C2"></path>
                        <path d="M93.8916111,53.71875 L92.2193889,53.71875 C91.9138333,53.71875 91.6666111,53.49625 91.6666111,53.22125 L91.6666111,46.71625 C91.6666111,46.44125 91.9138333,46.21875 92.2193889,46.21875 L93.8916111,46.21875 C94.1971667,46.21875 94.4443889,46.44125 94.4443889,46.71625 L94.4443889,53.22125 C94.4443889,53.49625 94.1971667,53.71875 93.8916111,53.71875" id="Fill-11" fill="#C2C2C2"></path>
                        <path d="M60,47.74805 L60,52.25205 C60,52.66505 59.6277778,53.00005 59.1688889,53.00005 L40.8311111,53.00005 C40.3722222,53.00005 40,52.66505 40,52.25205 L40,47.74805 C40,47.33505 40.3722222,47.00005 40.8311111,47.00005 L59.1688889,47.00005 C59.6277778,47.00005 60,47.33505 60,47.74805" id="Fill-13" fill="#C2C2C2"></path>
                        <path d="M97.2222222,35.8333333 L2.77777778,35.8333333 C1.24333333,35.8333333 0,34.7143333 0,33.3333333 L0,23.3333333 C0,21.9523333 1.24333333,20.8333333 2.77777778,20.8333333 L97.2222222,20.8333333 C98.7566667,20.8333333 100,21.9523333 100,23.3333333 L100,33.3333333 C100,34.7143333 98.7566667,35.8333333 97.2222222,35.8333333" id="Fill-1" fill="#D6D6D6"></path>
                        <path d="M11.1111111,30.5520833 C11.1111111,31.2425833 10.4894444,31.8020833 9.72222222,31.8020833 C8.955,31.8020833 8.33333333,31.2425833 8.33333333,30.5520833 C8.33333333,29.8615833 8.955,29.3020833 9.72222222,29.3020833 C10.4894444,29.3020833 11.1111111,29.8615833 11.1111111,30.5520833" id="Fill-3" fill="#F16667"></path>
                        <path d="M11.1111111,26.0520833 C11.1111111,26.7425833 10.4894444,27.3020833 9.72222222,27.3020833 C8.955,27.3020833 8.33333333,26.7425833 8.33333333,26.0520833 C8.33333333,25.3615833 8.955,24.8020833 9.72222222,24.8020833 C10.4894444,24.8020833 11.1111111,25.3615833 11.1111111,26.0520833" id="Fill-5" fill="#8DCC93"></path>
                        <path d="M82.7777778,32.0520833 L81.1111111,32.0520833 C80.8038889,32.0520833 80.5555556,31.8285833 80.5555556,31.5520833 L80.5555556,25.0520833 C80.5555556,24.7755833 80.8038889,24.5520833 81.1111111,24.5520833 L82.7777778,24.5520833 C83.085,24.5520833 83.3333333,24.7755833 83.3333333,25.0520833 L83.3333333,31.5520833 C83.3333333,31.8285833 83.085,32.0520833 82.7777778,32.0520833" id="Fill-7" fill="#C2C2C2"></path>
                        <path d="M88.3311667,32.0520833 L86.6689444,32.0520833 C86.3606111,32.0520833 86.1111667,31.8275833 86.1111667,31.5500833 L86.1111667,25.0540833 C86.1111667,24.7765833 86.3606111,24.5520833 86.6689444,24.5520833 L88.3311667,24.5520833 C88.6395,24.5520833 88.8889444,24.7765833 88.8889444,25.0540833 L88.8889444,31.5500833 C88.8889444,31.8275833 88.6395,32.0520833 88.3311667,32.0520833" id="Fill-9" fill="#C2C2C2"></path>
                        <path d="M93.8916111,32.0520833 L92.2193889,32.0520833 C91.9138333,32.0520833 91.6666111,31.8295833 91.6666111,31.5545833 L91.6666111,25.0495833 C91.6666111,24.7745833 91.9138333,24.5520833 92.2193889,24.5520833 L93.8916111,24.5520833 C94.1971667,24.5520833 94.4443889,24.7745833 94.4443889,25.0495833 L94.4443889,31.5545833 C94.4443889,31.8295833 94.1971667,32.0520833 93.8916111,32.0520833" id="Fill-11" fill="#C2C2C2"></path>
                        <path d="M60,26.0813833 L60,30.5853833 C60,30.9983833 59.6277778,31.3333833 59.1688889,31.3333833 L40.8311111,31.3333833 C40.3722222,31.3333833 40,30.9983833 40,30.5853833 L40,26.0813833 C40,25.6683833 40.3722222,25.3333833 40.8311111,25.3333833 L59.1688889,25.3333833 C59.6277778,25.3333833 60,25.6683833 60,26.0813833" id="Fill-13" fill="#C2C2C2"></path>
                        <path d="M97.2222222,15 L2.77777778,15 C1.24333333,15 0,13.881 0,12.5 L0,2.5 C0,1.119 1.24333333,0 2.77777778,0 L97.2222222,0 C98.7566667,0 100,1.119 100,2.5 L100,12.5 C100,13.881 98.7566667,15 97.2222222,15" id="Fill-1" fill="#D6D6D6"></path>
                        <path d="M11.1111111,9.71875 C11.1111111,10.40925 10.4894444,10.96875 9.72222222,10.96875 C8.955,10.96875 8.33333333,10.40925 8.33333333,9.71875 C8.33333333,9.02825 8.955,8.46875 9.72222222,8.46875 C10.4894444,8.46875 11.1111111,9.02825 11.1111111,9.71875" id="Fill-3" fill="#F16667"></path>
                        <path d="M11.1111111,5.21875 C11.1111111,5.90925 10.4894444,6.46875 9.72222222,6.46875 C8.955,6.46875 8.33333333,5.90925 8.33333333,5.21875 C8.33333333,4.52825 8.955,3.96875 9.72222222,3.96875 C10.4894444,3.96875 11.1111111,4.52825 11.1111111,5.21875" id="Fill-5" fill="#8DCC93"></path>
                        <path d="M82.7777778,11.21875 L81.1111111,11.21875 C80.8038889,11.21875 80.5555556,10.99525 80.5555556,10.71875 L80.5555556,4.21875 C80.5555556,3.94225 80.8038889,3.71875 81.1111111,3.71875 L82.7777778,3.71875 C83.085,3.71875 83.3333333,3.94225 83.3333333,4.21875 L83.3333333,10.71875 C83.3333333,10.99525 83.085,11.21875 82.7777778,11.21875" id="Fill-7" fill="#C2C2C2"></path>
                        <path d="M88.3311667,11.21875 L86.6689444,11.21875 C86.3606111,11.21875 86.1111667,10.99425 86.1111667,10.71675 L86.1111667,4.22075 C86.1111667,3.94325 86.3606111,3.71875 86.6689444,3.71875 L88.3311667,3.71875 C88.6395,3.71875 88.8889444,3.94325 88.8889444,4.22075 L88.8889444,10.71675 C88.8889444,10.99425 88.6395,11.21875 88.3311667,11.21875" id="Fill-9" fill="#C2C2C2"></path>
                        <path d="M93.8916111,11.21875 L92.2193889,11.21875 C91.9138333,11.21875 91.6666111,10.99625 91.6666111,10.72125 L91.6666111,4.21625 C91.6666111,3.94125 91.9138333,3.71875 92.2193889,3.71875 L93.8916111,3.71875 C94.1971667,3.71875 94.4443889,3.94125 94.4443889,4.21625 L94.4443889,10.72125 C94.4443889,10.99625 94.1971667,11.21875 93.8916111,11.21875" id="Fill-11" fill="#C2C2C2"></path>
                        <path d="M60,5.24805 L60,9.75205 C60,10.16505 59.6277778,10.50005 59.1688889,10.50005 L40.8311111,10.50005 C40.3722222,10.50005 40,10.16505 40,9.75205 L40,5.24805 C40,4.83505 40.3722222,4.50005 40.8311111,4.50005 L59.1688889,4.50005 C59.6277778,4.50005 60,4.83505 60,5.24805" id="Fill-13" fill="#C2C2C2"></path>
                    </g>
                    <rect id="Rectangle-14" stroke="#DFDFDF" x="123.5" y="47.5" width="111" height="109"></rect>
                    <g id="Group-20" transform="translate(129.000000, 80.000000)">
                        <rect id="Rectangle-15" fill="#C2C2C2" x="11.6666667" y="35.8333333" width="76.6666667" height="6.66666667"></rect>
                        <rect id="Rectangle-15" fill="#C2C2C2" x="11.6666667" y="15" width="76.6666667" height="6.66666667"></rect>
                        <path d="M97.2222222,57.5 L2.77777778,57.5 C1.24333333,57.5 0,56.381 0,55 L0,45 C0,43.619 1.24333333,42.5 2.77777778,42.5 L97.2222222,42.5 C98.7566667,42.5 100,43.619 100,45 L100,55 C100,56.381 98.7566667,57.5 97.2222222,57.5" id="Fill-1" fill="#D6D6D6"></path>
                        <path d="M11.1111111,52.21875 C11.1111111,52.90925 10.4894444,53.46875 9.72222222,53.46875 C8.955,53.46875 8.33333333,52.90925 8.33333333,52.21875 C8.33333333,51.52825 8.955,50.96875 9.72222222,50.96875 C10.4894444,50.96875 11.1111111,51.52825 11.1111111,52.21875" id="Fill-3" fill="#F16667"></path>
                        <path d="M11.1111111,47.71875 C11.1111111,48.40925 10.4894444,48.96875 9.72222222,48.96875 C8.955,48.96875 8.33333333,48.40925 8.33333333,47.71875 C8.33333333,47.02825 8.955,46.46875 9.72222222,46.46875 C10.4894444,46.46875 11.1111111,47.02825 11.1111111,47.71875" id="Fill-5" fill="#8DCC93"></path>
                        <path d="M82.7777778,53.71875 L81.1111111,53.71875 C80.8038889,53.71875 80.5555556,53.49525 80.5555556,53.21875 L80.5555556,46.71875 C80.5555556,46.44225 80.8038889,46.21875 81.1111111,46.21875 L82.7777778,46.21875 C83.085,46.21875 83.3333333,46.44225 83.3333333,46.71875 L83.3333333,53.21875 C83.3333333,53.49525 83.085,53.71875 82.7777778,53.71875" id="Fill-7" fill="#C2C2C2"></path>
                        <path d="M88.3311667,53.71875 L86.6689444,53.71875 C86.3606111,53.71875 86.1111667,53.49425 86.1111667,53.21675 L86.1111667,46.72075 C86.1111667,46.44325 86.3606111,46.21875 86.6689444,46.21875 L88.3311667,46.21875 C88.6395,46.21875 88.8889444,46.44325 88.8889444,46.72075 L88.8889444,53.21675 C88.8889444,53.49425 88.6395,53.71875 88.3311667,53.71875" id="Fill-9" fill="#C2C2C2"></path>
                        <path d="M93.8916111,53.71875 L92.2193889,53.71875 C91.9138333,53.71875 91.6666111,53.49625 91.6666111,53.22125 L91.6666111,46.71625 C91.6666111,46.44125 91.9138333,46.21875 92.2193889,46.21875 L93.8916111,46.21875 C94.1971667,46.21875 94.4443889,46.44125 94.4443889,46.71625 L94.4443889,53.22125 C94.4443889,53.49625 94.1971667,53.71875 93.8916111,53.71875" id="Fill-11" fill="#C2C2C2"></path>
                        <path d="M60,47.74805 L60,52.25205 C60,52.66505 59.6277778,53.00005 59.1688889,53.00005 L40.8311111,53.00005 C40.3722222,53.00005 40,52.66505 40,52.25205 L40,47.74805 C40,47.33505 40.3722222,47.00005 40.8311111,47.00005 L59.1688889,47.00005 C59.6277778,47.00005 60,47.33505 60,47.74805" id="Fill-13" fill="#C2C2C2"></path>
                        <path d="M97.2222222,35.8333333 L2.77777778,35.8333333 C1.24333333,35.8333333 0,34.7143333 0,33.3333333 L0,23.3333333 C0,21.9523333 1.24333333,20.8333333 2.77777778,20.8333333 L97.2222222,20.8333333 C98.7566667,20.8333333 100,21.9523333 100,23.3333333 L100,33.3333333 C100,34.7143333 98.7566667,35.8333333 97.2222222,35.8333333" id="Fill-1" fill="#D6D6D6"></path>
                        <path d="M11.1111111,30.5520833 C11.1111111,31.2425833 10.4894444,31.8020833 9.72222222,31.8020833 C8.955,31.8020833 8.33333333,31.2425833 8.33333333,30.5520833 C8.33333333,29.8615833 8.955,29.3020833 9.72222222,29.3020833 C10.4894444,29.3020833 11.1111111,29.8615833 11.1111111,30.5520833" id="Fill-3" fill="#F16667"></path>
                        <path d="M11.1111111,26.0520833 C11.1111111,26.7425833 10.4894444,27.3020833 9.72222222,27.3020833 C8.955,27.3020833 8.33333333,26.7425833 8.33333333,26.0520833 C8.33333333,25.3615833 8.955,24.8020833 9.72222222,24.8020833 C10.4894444,24.8020833 11.1111111,25.3615833 11.1111111,26.0520833" id="Fill-5" fill="#8DCC93"></path>
                        <path d="M82.7777778,32.0520833 L81.1111111,32.0520833 C80.8038889,32.0520833 80.5555556,31.8285833 80.5555556,31.5520833 L80.5555556,25.0520833 C80.5555556,24.7755833 80.8038889,24.5520833 81.1111111,24.5520833 L82.7777778,24.5520833 C83.085,24.5520833 83.3333333,24.7755833 83.3333333,25.0520833 L83.3333333,31.5520833 C83.3333333,31.8285833 83.085,32.0520833 82.7777778,32.0520833" id="Fill-7" fill="#C2C2C2"></path>
                        <path d="M88.3311667,32.0520833 L86.6689444,32.0520833 C86.3606111,32.0520833 86.1111667,31.8275833 86.1111667,31.5500833 L86.1111667,25.0540833 C86.1111667,24.7765833 86.3606111,24.5520833 86.6689444,24.5520833 L88.3311667,24.5520833 C88.6395,24.5520833 88.8889444,24.7765833 88.8889444,25.0540833 L88.8889444,31.5500833 C88.8889444,31.8275833 88.6395,32.0520833 88.3311667,32.0520833" id="Fill-9" fill="#C2C2C2"></path>
                        <path d="M93.8916111,32.0520833 L92.2193889,32.0520833 C91.9138333,32.0520833 91.6666111,31.8295833 91.6666111,31.5545833 L91.6666111,25.0495833 C91.6666111,24.7745833 91.9138333,24.5520833 92.2193889,24.5520833 L93.8916111,24.5520833 C94.1971667,24.5520833 94.4443889,24.7745833 94.4443889,25.0495833 L94.4443889,31.5545833 C94.4443889,31.8295833 94.1971667,32.0520833 93.8916111,32.0520833" id="Fill-11" fill="#C2C2C2"></path>
                        <path d="M60,26.0813833 L60,30.5853833 C60,30.9983833 59.6277778,31.3333833 59.1688889,31.3333833 L40.8311111,31.3333833 C40.3722222,31.3333833 40,30.9983833 40,30.5853833 L40,26.0813833 C40,25.6683833 40.3722222,25.3333833 40.8311111,25.3333833 L59.1688889,25.3333833 C59.6277778,25.3333833 60,25.6683833 60,26.0813833" id="Fill-13" fill="#C2C2C2"></path>
                        <path d="M97.2222222,15 L2.77777778,15 C1.24333333,15 0,13.881 0,12.5 L0,2.5 C0,1.119 1.24333333,0 2.77777778,0 L97.2222222,0 C98.7566667,0 100,1.119 100,2.5 L100,12.5 C100,13.881 98.7566667,15 97.2222222,15" id="Fill-1" fill="#D6D6D6"></path>
                        <path d="M11.1111111,9.71875 C11.1111111,10.40925 10.4894444,10.96875 9.72222222,10.96875 C8.955,10.96875 8.33333333,10.40925 8.33333333,9.71875 C8.33333333,9.02825 8.955,8.46875 9.72222222,8.46875 C10.4894444,8.46875 11.1111111,9.02825 11.1111111,9.71875" id="Fill-3" fill="#F16667"></path>
                        <path d="M11.1111111,5.21875 C11.1111111,5.90925 10.4894444,6.46875 9.72222222,6.46875 C8.955,6.46875 8.33333333,5.90925 8.33333333,5.21875 C8.33333333,4.52825 8.955,3.96875 9.72222222,3.96875 C10.4894444,3.96875 11.1111111,4.52825 11.1111111,5.21875" id="Fill-5" fill="#8DCC93"></path>
                        <path d="M82.7777778,11.21875 L81.1111111,11.21875 C80.8038889,11.21875 80.5555556,10.99525 80.5555556,10.71875 L80.5555556,4.21875 C80.5555556,3.94225 80.8038889,3.71875 81.1111111,3.71875 L82.7777778,3.71875 C83.085,3.71875 83.3333333,3.94225 83.3333333,4.21875 L83.3333333,10.71875 C83.3333333,10.99525 83.085,11.21875 82.7777778,11.21875" id="Fill-7" fill="#C2C2C2"></path>
                        <path d="M88.3311667,11.21875 L86.6689444,11.21875 C86.3606111,11.21875 86.1111667,10.99425 86.1111667,10.71675 L86.1111667,4.22075 C86.1111667,3.94325 86.3606111,3.71875 86.6689444,3.71875 L88.3311667,3.71875 C88.6395,3.71875 88.8889444,3.94325 88.8889444,4.22075 L88.8889444,10.71675 C88.8889444,10.99425 88.6395,11.21875 88.3311667,11.21875" id="Fill-9" fill="#C2C2C2"></path>
                        <path d="M93.8916111,11.21875 L92.2193889,11.21875 C91.9138333,11.21875 91.6666111,10.99625 91.6666111,10.72125 L91.6666111,4.21625 C91.6666111,3.94125 91.9138333,3.71875 92.2193889,3.71875 L93.8916111,3.71875 C94.1971667,3.71875 94.4443889,3.94125 94.4443889,4.21625 L94.4443889,10.72125 C94.4443889,10.99625 94.1971667,11.21875 93.8916111,11.21875" id="Fill-11" fill="#C2C2C2"></path>
                        <path d="M60,5.24805 L60,9.75205 C60,10.16505 59.6277778,10.50005 59.1688889,10.50005 L40.8311111,10.50005 C40.3722222,10.50005 40,10.16505 40,9.75205 L40,5.24805 C40,4.83505 40.3722222,4.50005 40.8311111,4.50005 L59.1688889,4.50005 C59.6277778,4.50005 60,4.83505 60,5.24805" id="Fill-13" fill="#C2C2C2"></path>
                    </g>
                    <rect id="Rectangle-14" stroke="#DFDFDF" x="240.5" y="47.5" width="111" height="109"></rect>
                    <g id="Group-20" transform="translate(246.000000, 80.000000)">
                        <rect id="Rectangle-15" fill="#C2C2C2" x="11.6666667" y="35.8333333" width="76.6666667" height="6.66666667"></rect>
                        <rect id="Rectangle-15" fill="#C2C2C2" x="11.6666667" y="15" width="76.6666667" height="6.66666667"></rect>
                        <path d="M97.2222222,57.5 L2.77777778,57.5 C1.24333333,57.5 0,56.381 0,55 L0,45 C0,43.619 1.24333333,42.5 2.77777778,42.5 L97.2222222,42.5 C98.7566667,42.5 100,43.619 100,45 L100,55 C100,56.381 98.7566667,57.5 97.2222222,57.5" id="Fill-1" fill="#D6D6D6"></path>
                        <path d="M11.1111111,52.21875 C11.1111111,52.90925 10.4894444,53.46875 9.72222222,53.46875 C8.955,53.46875 8.33333333,52.90925 8.33333333,52.21875 C8.33333333,51.52825 8.955,50.96875 9.72222222,50.96875 C10.4894444,50.96875 11.1111111,51.52825 11.1111111,52.21875" id="Fill-3" fill="#F16667"></path>
                        <path d="M11.1111111,47.71875 C11.1111111,48.40925 10.4894444,48.96875 9.72222222,48.96875 C8.955,48.96875 8.33333333,48.40925 8.33333333,47.71875 C8.33333333,47.02825 8.955,46.46875 9.72222222,46.46875 C10.4894444,46.46875 11.1111111,47.02825 11.1111111,47.71875" id="Fill-5" fill="#8DCC93"></path>
                        <path d="M82.7777778,53.71875 L81.1111111,53.71875 C80.8038889,53.71875 80.5555556,53.49525 80.5555556,53.21875 L80.5555556,46.71875 C80.5555556,46.44225 80.8038889,46.21875 81.1111111,46.21875 L82.7777778,46.21875 C83.085,46.21875 83.3333333,46.44225 83.3333333,46.71875 L83.3333333,53.21875 C83.3333333,53.49525 83.085,53.71875 82.7777778,53.71875" id="Fill-7" fill="#C2C2C2"></path>
                        <path d="M88.3311667,53.71875 L86.6689444,53.71875 C86.3606111,53.71875 86.1111667,53.49425 86.1111667,53.21675 L86.1111667,46.72075 C86.1111667,46.44325 86.3606111,46.21875 86.6689444,46.21875 L88.3311667,46.21875 C88.6395,46.21875 88.8889444,46.44325 88.8889444,46.72075 L88.8889444,53.21675 C88.8889444,53.49425 88.6395,53.71875 88.3311667,53.71875" id="Fill-9" fill="#C2C2C2"></path>
                        <path d="M93.8916111,53.71875 L92.2193889,53.71875 C91.9138333,53.71875 91.6666111,53.49625 91.6666111,53.22125 L91.6666111,46.71625 C91.6666111,46.44125 91.9138333,46.21875 92.2193889,46.21875 L93.8916111,46.21875 C94.1971667,46.21875 94.4443889,46.44125 94.4443889,46.71625 L94.4443889,53.22125 C94.4443889,53.49625 94.1971667,53.71875 93.8916111,53.71875" id="Fill-11" fill="#C2C2C2"></path>
                        <path d="M60,47.74805 L60,52.25205 C60,52.66505 59.6277778,53.00005 59.1688889,53.00005 L40.8311111,53.00005 C40.3722222,53.00005 40,52.66505 40,52.25205 L40,47.74805 C40,47.33505 40.3722222,47.00005 40.8311111,47.00005 L59.1688889,47.00005 C59.6277778,47.00005 60,47.33505 60,47.74805" id="Fill-13" fill="#C2C2C2"></path>
                        <path d="M97.2222222,35.8333333 L2.77777778,35.8333333 C1.24333333,35.8333333 0,34.7143333 0,33.3333333 L0,23.3333333 C0,21.9523333 1.24333333,20.8333333 2.77777778,20.8333333 L97.2222222,20.8333333 C98.7566667,20.8333333 100,21.9523333 100,23.3333333 L100,33.3333333 C100,34.7143333 98.7566667,35.8333333 97.2222222,35.8333333" id="Fill-1" fill="#D6D6D6"></path>
                        <path d="M11.1111111,30.5520833 C11.1111111,31.2425833 10.4894444,31.8020833 9.72222222,31.8020833 C8.955,31.8020833 8.33333333,31.2425833 8.33333333,30.5520833 C8.33333333,29.8615833 8.955,29.3020833 9.72222222,29.3020833 C10.4894444,29.3020833 11.1111111,29.8615833 11.1111111,30.5520833" id="Fill-3" fill="#F16667"></path>
                        <path d="M11.1111111,26.0520833 C11.1111111,26.7425833 10.4894444,27.3020833 9.72222222,27.3020833 C8.955,27.3020833 8.33333333,26.7425833 8.33333333,26.0520833 C8.33333333,25.3615833 8.955,24.8020833 9.72222222,24.8020833 C10.4894444,24.8020833 11.1111111,25.3615833 11.1111111,26.0520833" id="Fill-5" fill="#8DCC93"></path>
                        <path d="M82.7777778,32.0520833 L81.1111111,32.0520833 C80.8038889,32.0520833 80.5555556,31.8285833 80.5555556,31.5520833 L80.5555556,25.0520833 C80.5555556,24.7755833 80.8038889,24.5520833 81.1111111,24.5520833 L82.7777778,24.5520833 C83.085,24.5520833 83.3333333,24.7755833 83.3333333,25.0520833 L83.3333333,31.5520833 C83.3333333,31.8285833 83.085,32.0520833 82.7777778,32.0520833" id="Fill-7" fill="#C2C2C2"></path>
                        <path d="M88.3311667,32.0520833 L86.6689444,32.0520833 C86.3606111,32.0520833 86.1111667,31.8275833 86.1111667,31.5500833 L86.1111667,25.0540833 C86.1111667,24.7765833 86.3606111,24.5520833 86.6689444,24.5520833 L88.3311667,24.5520833 C88.6395,24.5520833 88.8889444,24.7765833 88.8889444,25.0540833 L88.8889444,31.5500833 C88.8889444,31.8275833 88.6395,32.0520833 88.3311667,32.0520833" id="Fill-9" fill="#C2C2C2"></path>
                        <path d="M93.8916111,32.0520833 L92.2193889,32.0520833 C91.9138333,32.0520833 91.6666111,31.8295833 91.6666111,31.5545833 L91.6666111,25.0495833 C91.6666111,24.7745833 91.9138333,24.5520833 92.2193889,24.5520833 L93.8916111,24.5520833 C94.1971667,24.5520833 94.4443889,24.7745833 94.4443889,25.0495833 L94.4443889,31.5545833 C94.4443889,31.8295833 94.1971667,32.0520833 93.8916111,32.0520833" id="Fill-11" fill="#C2C2C2"></path>
                        <path d="M60,26.0813833 L60,30.5853833 C60,30.9983833 59.6277778,31.3333833 59.1688889,31.3333833 L40.8311111,31.3333833 C40.3722222,31.3333833 40,30.9983833 40,30.5853833 L40,26.0813833 C40,25.6683833 40.3722222,25.3333833 40.8311111,25.3333833 L59.1688889,25.3333833 C59.6277778,25.3333833 60,25.6683833 60,26.0813833" id="Fill-13" fill="#C2C2C2"></path>
                        <path d="M97.2222222,15 L2.77777778,15 C1.24333333,15 0,13.881 0,12.5 L0,2.5 C0,1.119 1.24333333,0 2.77777778,0 L97.2222222,0 C98.7566667,0 100,1.119 100,2.5 L100,12.5 C100,13.881 98.7566667,15 97.2222222,15" id="Fill-1" fill="#D6D6D6"></path>
                        <path d="M11.1111111,9.71875 C11.1111111,10.40925 10.4894444,10.96875 9.72222222,10.96875 C8.955,10.96875 8.33333333,10.40925 8.33333333,9.71875 C8.33333333,9.02825 8.955,8.46875 9.72222222,8.46875 C10.4894444,8.46875 11.1111111,9.02825 11.1111111,9.71875" id="Fill-3" fill="#F16667"></path>
                        <path d="M11.1111111,5.21875 C11.1111111,5.90925 10.4894444,6.46875 9.72222222,6.46875 C8.955,6.46875 8.33333333,5.90925 8.33333333,5.21875 C8.33333333,4.52825 8.955,3.96875 9.72222222,3.96875 C10.4894444,3.96875 11.1111111,4.52825 11.1111111,5.21875" id="Fill-5" fill="#8DCC93"></path>
                        <path d="M82.7777778,11.21875 L81.1111111,11.21875 C80.8038889,11.21875 80.5555556,10.99525 80.5555556,10.71875 L80.5555556,4.21875 C80.5555556,3.94225 80.8038889,3.71875 81.1111111,3.71875 L82.7777778,3.71875 C83.085,3.71875 83.3333333,3.94225 83.3333333,4.21875 L83.3333333,10.71875 C83.3333333,10.99525 83.085,11.21875 82.7777778,11.21875" id="Fill-7" fill="#C2C2C2"></path>
                        <path d="M88.3311667,11.21875 L86.6689444,11.21875 C86.3606111,11.21875 86.1111667,10.99425 86.1111667,10.71675 L86.1111667,4.22075 C86.1111667,3.94325 86.3606111,3.71875 86.6689444,3.71875 L88.3311667,3.71875 C88.6395,3.71875 88.8889444,3.94325 88.8889444,4.22075 L88.8889444,10.71675 C88.8889444,10.99425 88.6395,11.21875 88.3311667,11.21875" id="Fill-9" fill="#C2C2C2"></path>
                        <path d="M93.8916111,11.21875 L92.2193889,11.21875 C91.9138333,11.21875 91.6666111,10.99625 91.6666111,10.72125 L91.6666111,4.21625 C91.6666111,3.94125 91.9138333,3.71875 92.2193889,3.71875 L93.8916111,3.71875 C94.1971667,3.71875 94.4443889,3.94125 94.4443889,4.21625 L94.4443889,10.72125 C94.4443889,10.99625 94.1971667,11.21875 93.8916111,11.21875" id="Fill-11" fill="#C2C2C2"></path>
                        <path d="M60,5.24805 L60,9.75205 C60,10.16505 59.6277778,10.50005 59.1688889,10.50005 L40.8311111,10.50005 C40.3722222,10.50005 40,10.16505 40,9.75205 L40,5.24805 C40,4.83505 40.3722222,4.50005 40.8311111,4.50005 L59.1688889,4.50005 C59.6277778,4.50005 60,4.83505 60,5.24805" id="Fill-13" fill="#C2C2C2"></path>
                    </g>
                    <rect id="Rectangle-14" stroke="#DFDFDF" x="357.5" y="47.5" width="111" height="109"></rect>
                    <g id="Group-20" transform="translate(363.000000, 80.000000)">
                        <rect id="Rectangle-15" fill="#C2C2C2" x="11.6666667" y="35.8333333" width="76.6666667" height="6.66666667"></rect>
                        <rect id="Rectangle-15" fill="#C2C2C2" x="11.6666667" y="15" width="76.6666667" height="6.66666667"></rect>
                        <path d="M97.2222222,57.5 L2.77777778,57.5 C1.24333333,57.5 0,56.381 0,55 L0,45 C0,43.619 1.24333333,42.5 2.77777778,42.5 L97.2222222,42.5 C98.7566667,42.5 100,43.619 100,45 L100,55 C100,56.381 98.7566667,57.5 97.2222222,57.5" id="Fill-1" fill="#D6D6D6"></path>
                        <path d="M11.1111111,52.21875 C11.1111111,52.90925 10.4894444,53.46875 9.72222222,53.46875 C8.955,53.46875 8.33333333,52.90925 8.33333333,52.21875 C8.33333333,51.52825 8.955,50.96875 9.72222222,50.96875 C10.4894444,50.96875 11.1111111,51.52825 11.1111111,52.21875" id="Fill-3" fill="#F16667"></path>
                        <path d="M11.1111111,47.71875 C11.1111111,48.40925 10.4894444,48.96875 9.72222222,48.96875 C8.955,48.96875 8.33333333,48.40925 8.33333333,47.71875 C8.33333333,47.02825 8.955,46.46875 9.72222222,46.46875 C10.4894444,46.46875 11.1111111,47.02825 11.1111111,47.71875" id="Fill-5" fill="#8DCC93"></path>
                        <path d="M82.7777778,53.71875 L81.1111111,53.71875 C80.8038889,53.71875 80.5555556,53.49525 80.5555556,53.21875 L80.5555556,46.71875 C80.5555556,46.44225 80.8038889,46.21875 81.1111111,46.21875 L82.7777778,46.21875 C83.085,46.21875 83.3333333,46.44225 83.3333333,46.71875 L83.3333333,53.21875 C83.3333333,53.49525 83.085,53.71875 82.7777778,53.71875" id="Fill-7" fill="#C2C2C2"></path>
                        <path d="M88.3311667,53.71875 L86.6689444,53.71875 C86.3606111,53.71875 86.1111667,53.49425 86.1111667,53.21675 L86.1111667,46.72075 C86.1111667,46.44325 86.3606111,46.21875 86.6689444,46.21875 L88.3311667,46.21875 C88.6395,46.21875 88.8889444,46.44325 88.8889444,46.72075 L88.8889444,53.21675 C88.8889444,53.49425 88.6395,53.71875 88.3311667,53.71875" id="Fill-9" fill="#C2C2C2"></path>
                        <path d="M93.8916111,53.71875 L92.2193889,53.71875 C91.9138333,53.71875 91.6666111,53.49625 91.6666111,53.22125 L91.6666111,46.71625 C91.6666111,46.44125 91.9138333,46.21875 92.2193889,46.21875 L93.8916111,46.21875 C94.1971667,46.21875 94.4443889,46.44125 94.4443889,46.71625 L94.4443889,53.22125 C94.4443889,53.49625 94.1971667,53.71875 93.8916111,53.71875" id="Fill-11" fill="#C2C2C2"></path>
                        <path d="M60,47.74805 L60,52.25205 C60,52.66505 59.6277778,53.00005 59.1688889,53.00005 L40.8311111,53.00005 C40.3722222,53.00005 40,52.66505 40,52.25205 L40,47.74805 C40,47.33505 40.3722222,47.00005 40.8311111,47.00005 L59.1688889,47.00005 C59.6277778,47.00005 60,47.33505 60,47.74805" id="Fill-13" fill="#C2C2C2"></path>
                        <path d="M97.2222222,35.8333333 L2.77777778,35.8333333 C1.24333333,35.8333333 0,34.7143333 0,33.3333333 L0,23.3333333 C0,21.9523333 1.24333333,20.8333333 2.77777778,20.8333333 L97.2222222,20.8333333 C98.7566667,20.8333333 100,21.9523333 100,23.3333333 L100,33.3333333 C100,34.7143333 98.7566667,35.8333333 97.2222222,35.8333333" id="Fill-1" fill="#D6D6D6"></path>
                        <path d="M11.1111111,30.5520833 C11.1111111,31.2425833 10.4894444,31.8020833 9.72222222,31.8020833 C8.955,31.8020833 8.33333333,31.2425833 8.33333333,30.5520833 C8.33333333,29.8615833 8.955,29.3020833 9.72222222,29.3020833 C10.4894444,29.3020833 11.1111111,29.8615833 11.1111111,30.5520833" id="Fill-3" fill="#F16667"></path>
                        <path d="M11.1111111,26.0520833 C11.1111111,26.7425833 10.4894444,27.3020833 9.72222222,27.3020833 C8.955,27.3020833 8.33333333,26.7425833 8.33333333,26.0520833 C8.33333333,25.3615833 8.955,24.8020833 9.72222222,24.8020833 C10.4894444,24.8020833 11.1111111,25.3615833 11.1111111,26.0520833" id="Fill-5" fill="#8DCC93"></path>
                        <path d="M82.7777778,32.0520833 L81.1111111,32.0520833 C80.8038889,32.0520833 80.5555556,31.8285833 80.5555556,31.5520833 L80.5555556,25.0520833 C80.5555556,24.7755833 80.8038889,24.5520833 81.1111111,24.5520833 L82.7777778,24.5520833 C83.085,24.5520833 83.3333333,24.7755833 83.3333333,25.0520833 L83.3333333,31.5520833 C83.3333333,31.8285833 83.085,32.0520833 82.7777778,32.0520833" id="Fill-7" fill="#C2C2C2"></path>
                        <path d="M88.3311667,32.0520833 L86.6689444,32.0520833 C86.3606111,32.0520833 86.1111667,31.8275833 86.1111667,31.5500833 L86.1111667,25.0540833 C86.1111667,24.7765833 86.3606111,24.5520833 86.6689444,24.5520833 L88.3311667,24.5520833 C88.6395,24.5520833 88.8889444,24.7765833 88.8889444,25.0540833 L88.8889444,31.5500833 C88.8889444,31.8275833 88.6395,32.0520833 88.3311667,32.0520833" id="Fill-9" fill="#C2C2C2"></path>
                        <path d="M93.8916111,32.0520833 L92.2193889,32.0520833 C91.9138333,32.0520833 91.6666111,31.8295833 91.6666111,31.5545833 L91.6666111,25.0495833 C91.6666111,24.7745833 91.9138333,24.5520833 92.2193889,24.5520833 L93.8916111,24.5520833 C94.1971667,24.5520833 94.4443889,24.7745833 94.4443889,25.0495833 L94.4443889,31.5545833 C94.4443889,31.8295833 94.1971667,32.0520833 93.8916111,32.0520833" id="Fill-11" fill="#C2C2C2"></path>
                        <path d="M60,26.0813833 L60,30.5853833 C60,30.9983833 59.6277778,31.3333833 59.1688889,31.3333833 L40.8311111,31.3333833 C40.3722222,31.3333833 40,30.9983833 40,30.5853833 L40,26.0813833 C40,25.6683833 40.3722222,25.3333833 40.8311111,25.3333833 L59.1688889,25.3333833 C59.6277778,25.3333833 60,25.6683833 60,26.0813833" id="Fill-13" fill="#C2C2C2"></path>
                        <path d="M97.2222222,15 L2.77777778,15 C1.24333333,15 0,13.881 0,12.5 L0,2.5 C0,1.119 1.24333333,0 2.77777778,0 L97.2222222,0 C98.7566667,0 100,1.119 100,2.5 L100,12.5 C100,13.881 98.7566667,15 97.2222222,15" id="Fill-1" fill="#D6D6D6"></path>
                        <path d="M11.1111111,9.71875 C11.1111111,10.40925 10.4894444,10.96875 9.72222222,10.96875 C8.955,10.96875 8.33333333,10.40925 8.33333333,9.71875 C8.33333333,9.02825 8.955,8.46875 9.72222222,8.46875 C10.4894444,8.46875 11.1111111,9.02825 11.1111111,9.71875" id="Fill-3" fill="#F16667"></path>
                        <path d="M11.1111111,5.21875 C11.1111111,5.90925 10.4894444,6.46875 9.72222222,6.46875 C8.955,6.46875 8.33333333,5.90925 8.33333333,5.21875 C8.33333333,4.52825 8.955,3.96875 9.72222222,3.96875 C10.4894444,3.96875 11.1111111,4.52825 11.1111111,5.21875" id="Fill-5" fill="#8DCC93"></path>
                        <path d="M82.7777778,11.21875 L81.1111111,11.21875 C80.8038889,11.21875 80.5555556,10.99525 80.5555556,10.71875 L80.5555556,4.21875 C80.5555556,3.94225 80.8038889,3.71875 81.1111111,3.71875 L82.7777778,3.71875 C83.085,3.71875 83.3333333,3.94225 83.3333333,4.21875 L83.3333333,10.71875 C83.3333333,10.99525 83.085,11.21875 82.7777778,11.21875" id="Fill-7" fill="#C2C2C2"></path>
                        <path d="M88.3311667,11.21875 L86.6689444,11.21875 C86.3606111,11.21875 86.1111667,10.99425 86.1111667,10.71675 L86.1111667,4.22075 C86.1111667,3.94325 86.3606111,3.71875 86.6689444,3.71875 L88.3311667,3.71875 C88.6395,3.71875 88.8889444,3.94325 88.8889444,4.22075 L88.8889444,10.71675 C88.8889444,10.99425 88.6395,11.21875 88.3311667,11.21875" id="Fill-9" fill="#C2C2C2"></path>
                        <path d="M93.8916111,11.21875 L92.2193889,11.21875 C91.9138333,11.21875 91.6666111,10.99625 91.6666111,10.72125 L91.6666111,4.21625 C91.6666111,3.94125 91.9138333,3.71875 92.2193889,3.71875 L93.8916111,3.71875 C94.1971667,3.71875 94.4443889,3.94125 94.4443889,4.21625 L94.4443889,10.72125 C94.4443889,10.99625 94.1971667,11.21875 93.8916111,11.21875" id="Fill-11" fill="#C2C2C2"></path>
                        <path d="M60,5.24805 L60,9.75205 C60,10.16505 59.6277778,10.50005 59.1688889,10.50005 L40.8311111,10.50005 C40.3722222,10.50005 40,10.16505 40,9.75205 L40,5.24805 C40,4.83505 40.3722222,4.50005 40.8311111,4.50005 L59.1688889,4.50005 C59.6277778,4.50005 60,4.83505 60,5.24805" id="Fill-13" fill="#C2C2C2"></path>
                    </g>
                    <rect id="Rectangle-22" stroke="#979797" x="0.5" y="0.5" width="474" height="162"></rect>
                </g>
                <rect id="Rectangle-14" stroke="#DFDFDF" x="386.5" y="58.5" width="111" height="109"></rect>
                <g id="Group-20" transform="translate(392.000000, 91.000000)">
                    <rect id="Rectangle-15" fill="#C2C2C2" x="11.6666667" y="35.8333333" width="76.6666667" height="6.66666667"></rect>
                    <rect id="Rectangle-15" fill="#C2C2C2" x="11.6666667" y="15" width="76.6666667" height="6.66666667"></rect>
                    <path d="M97.2222222,57.5 L2.77777778,57.5 C1.24333333,57.5 0,56.381 0,55 L0,45 C0,43.619 1.24333333,42.5 2.77777778,42.5 L97.2222222,42.5 C98.7566667,42.5 100,43.619 100,45 L100,55 C100,56.381 98.7566667,57.5 97.2222222,57.5" id="Fill-1" fill="#D6D6D6"></path>
                    <path d="M11.1111111,52.21875 C11.1111111,52.90925 10.4894444,53.46875 9.72222222,53.46875 C8.955,53.46875 8.33333333,52.90925 8.33333333,52.21875 C8.33333333,51.52825 8.955,50.96875 9.72222222,50.96875 C10.4894444,50.96875 11.1111111,51.52825 11.1111111,52.21875" id="Fill-3" fill="#F16667"></path>
                    <path d="M11.1111111,47.71875 C11.1111111,48.40925 10.4894444,48.96875 9.72222222,48.96875 C8.955,48.96875 8.33333333,48.40925 8.33333333,47.71875 C8.33333333,47.02825 8.955,46.46875 9.72222222,46.46875 C10.4894444,46.46875 11.1111111,47.02825 11.1111111,47.71875" id="Fill-5" fill="#8DCC93"></path>
                    <path d="M82.7777778,53.71875 L81.1111111,53.71875 C80.8038889,53.71875 80.5555556,53.49525 80.5555556,53.21875 L80.5555556,46.71875 C80.5555556,46.44225 80.8038889,46.21875 81.1111111,46.21875 L82.7777778,46.21875 C83.085,46.21875 83.3333333,46.44225 83.3333333,46.71875 L83.3333333,53.21875 C83.3333333,53.49525 83.085,53.71875 82.7777778,53.71875" id="Fill-7" fill="#C2C2C2"></path>
                    <path d="M88.3311667,53.71875 L86.6689444,53.71875 C86.3606111,53.71875 86.1111667,53.49425 86.1111667,53.21675 L86.1111667,46.72075 C86.1111667,46.44325 86.3606111,46.21875 86.6689444,46.21875 L88.3311667,46.21875 C88.6395,46.21875 88.8889444,46.44325 88.8889444,46.72075 L88.8889444,53.21675 C88.8889444,53.49425 88.6395,53.71875 88.3311667,53.71875" id="Fill-9" fill="#C2C2C2"></path>
                    <path d="M93.8916111,53.71875 L92.2193889,53.71875 C91.9138333,53.71875 91.6666111,53.49625 91.6666111,53.22125 L91.6666111,46.71625 C91.6666111,46.44125 91.9138333,46.21875 92.2193889,46.21875 L93.8916111,46.21875 C94.1971667,46.21875 94.4443889,46.44125 94.4443889,46.71625 L94.4443889,53.22125 C94.4443889,53.49625 94.1971667,53.71875 93.8916111,53.71875" id="Fill-11" fill="#C2C2C2"></path>
                    <path d="M60,47.74805 L60,52.25205 C60,52.66505 59.6277778,53.00005 59.1688889,53.00005 L40.8311111,53.00005 C40.3722222,53.00005 40,52.66505 40,52.25205 L40,47.74805 C40,47.33505 40.3722222,47.00005 40.8311111,47.00005 L59.1688889,47.00005 C59.6277778,47.00005 60,47.33505 60,47.74805" id="Fill-13" fill="#C2C2C2"></path>
                    <path d="M97.2222222,35.8333333 L2.77777778,35.8333333 C1.24333333,35.8333333 0,34.7143333 0,33.3333333 L0,23.3333333 C0,21.9523333 1.24333333,20.8333333 2.77777778,20.8333333 L97.2222222,20.8333333 C98.7566667,20.8333333 100,21.9523333 100,23.3333333 L100,33.3333333 C100,34.7143333 98.7566667,35.8333333 97.2222222,35.8333333" id="Fill-1" fill="#D6D6D6"></path>
                    <path d="M11.1111111,30.5520833 C11.1111111,31.2425833 10.4894444,31.8020833 9.72222222,31.8020833 C8.955,31.8020833 8.33333333,31.2425833 8.33333333,30.5520833 C8.33333333,29.8615833 8.955,29.3020833 9.72222222,29.3020833 C10.4894444,29.3020833 11.1111111,29.8615833 11.1111111,30.5520833" id="Fill-3" fill="#F16667"></path>
                    <path d="M11.1111111,26.0520833 C11.1111111,26.7425833 10.4894444,27.3020833 9.72222222,27.3020833 C8.955,27.3020833 8.33333333,26.7425833 8.33333333,26.0520833 C8.33333333,25.3615833 8.955,24.8020833 9.72222222,24.8020833 C10.4894444,24.8020833 11.1111111,25.3615833 11.1111111,26.0520833" id="Fill-5" fill="#8DCC93"></path>
                    <path d="M82.7777778,32.0520833 L81.1111111,32.0520833 C80.8038889,32.0520833 80.5555556,31.8285833 80.5555556,31.5520833 L80.5555556,25.0520833 C80.5555556,24.7755833 80.8038889,24.5520833 81.1111111,24.5520833 L82.7777778,24.5520833 C83.085,24.5520833 83.3333333,24.7755833 83.3333333,25.0520833 L83.3333333,31.5520833 C83.3333333,31.8285833 83.085,32.0520833 82.7777778,32.0520833" id="Fill-7" fill="#C2C2C2"></path>
                    <path d="M88.3311667,32.0520833 L86.6689444,32.0520833 C86.3606111,32.0520833 86.1111667,31.8275833 86.1111667,31.5500833 L86.1111667,25.0540833 C86.1111667,24.7765833 86.3606111,24.5520833 86.6689444,24.5520833 L88.3311667,24.5520833 C88.6395,24.5520833 88.8889444,24.7765833 88.8889444,25.0540833 L88.8889444,31.5500833 C88.8889444,31.8275833 88.6395,32.0520833 88.3311667,32.0520833" id="Fill-9" fill="#C2C2C2"></path>
                    <path d="M93.8916111,32.0520833 L92.2193889,32.0520833 C91.9138333,32.0520833 91.6666111,31.8295833 91.6666111,31.5545833 L91.6666111,25.0495833 C91.6666111,24.7745833 91.9138333,24.5520833 92.2193889,24.5520833 L93.8916111,24.5520833 C94.1971667,24.5520833 94.4443889,24.7745833 94.4443889,25.0495833 L94.4443889,31.5545833 C94.4443889,31.8295833 94.1971667,32.0520833 93.8916111,32.0520833" id="Fill-11" fill="#C2C2C2"></path>
                    <path d="M60,26.0813833 L60,30.5853833 C60,30.9983833 59.6277778,31.3333833 59.1688889,31.3333833 L40.8311111,31.3333833 C40.3722222,31.3333833 40,30.9983833 40,30.5853833 L40,26.0813833 C40,25.6683833 40.3722222,25.3333833 40.8311111,25.3333833 L59.1688889,25.3333833 C59.6277778,25.3333833 60,25.6683833 60,26.0813833" id="Fill-13" fill="#C2C2C2"></path>
                    <path d="M97.2222222,15 L2.77777778,15 C1.24333333,15 0,13.881 0,12.5 L0,2.5 C0,1.119 1.24333333,0 2.77777778,0 L97.2222222,0 C98.7566667,0 100,1.119 100,2.5 L100,12.5 C100,13.881 98.7566667,15 97.2222222,15" id="Fill-1" fill="#D6D6D6"></path>
                    <path d="M11.1111111,9.71875 C11.1111111,10.40925 10.4894444,10.96875 9.72222222,10.96875 C8.955,10.96875 8.33333333,10.40925 8.33333333,9.71875 C8.33333333,9.02825 8.955,8.46875 9.72222222,8.46875 C10.4894444,8.46875 11.1111111,9.02825 11.1111111,9.71875" id="Fill-3" fill="#F16667"></path>
                    <path d="M11.1111111,5.21875 C11.1111111,5.90925 10.4894444,6.46875 9.72222222,6.46875 C8.955,6.46875 8.33333333,5.90925 8.33333333,5.21875 C8.33333333,4.52825 8.955,3.96875 9.72222222,3.96875 C10.4894444,3.96875 11.1111111,4.52825 11.1111111,5.21875" id="Fill-5" fill="#8DCC93"></path>
                    <path d="M82.7777778,11.21875 L81.1111111,11.21875 C80.8038889,11.21875 80.5555556,10.99525 80.5555556,10.71875 L80.5555556,4.21875 C80.5555556,3.94225 80.8038889,3.71875 81.1111111,3.71875 L82.7777778,3.71875 C83.085,3.71875 83.3333333,3.94225 83.3333333,4.21875 L83.3333333,10.71875 C83.3333333,10.99525 83.085,11.21875 82.7777778,11.21875" id="Fill-7" fill="#C2C2C2"></path>
                    <path d="M88.3311667,11.21875 L86.6689444,11.21875 C86.3606111,11.21875 86.1111667,10.99425 86.1111667,10.71675 L86.1111667,4.22075 C86.1111667,3.94325 86.3606111,3.71875 86.6689444,3.71875 L88.3311667,3.71875 C88.6395,3.71875 88.8889444,3.94325 88.8889444,4.22075 L88.8889444,10.71675 C88.8889444,10.99425 88.6395,11.21875 88.3311667,11.21875" id="Fill-9" fill="#C2C2C2"></path>
                    <path d="M93.8916111,11.21875 L92.2193889,11.21875 C91.9138333,11.21875 91.6666111,10.99625 91.6666111,10.72125 L91.6666111,4.21625 C91.6666111,3.94125 91.9138333,3.71875 92.2193889,3.71875 L93.8916111,3.71875 C94.1971667,3.71875 94.4443889,3.94125 94.4443889,4.21625 L94.4443889,10.72125 C94.4443889,10.99625 94.1971667,11.21875 93.8916111,11.21875" id="Fill-11" fill="#C2C2C2"></path>
                    <path d="M60,5.24805 L60,9.75205 C60,10.16505 59.6277778,10.50005 59.1688889,10.50005 L40.8311111,10.50005 C40.3722222,10.50005 40,10.16505 40,9.75205 L40,5.24805 C40,4.83505 40.3722222,4.50005 40.8311111,4.50005 L59.1688889,4.50005 C59.6277778,4.50005 60,4.83505 60,5.24805" id="Fill-13" fill="#C2C2C2"></path>
                </g>
                <rect id="Rectangle-14" stroke="#DFDFDF" x="503.5" y="58.5" width="111" height="109"></rect>
                <g id="Group-20" transform="translate(509.000000, 91.000000)">
                    <rect id="Rectangle-15" fill="#C2C2C2" x="11.6666667" y="35.8333333" width="76.6666667" height="6.66666667"></rect>
                    <rect id="Rectangle-15" fill="#C2C2C2" x="11.6666667" y="15" width="76.6666667" height="6.66666667"></rect>
                    <path d="M97.2222222,57.5 L2.77777778,57.5 C1.24333333,57.5 0,56.381 0,55 L0,45 C0,43.619 1.24333333,42.5 2.77777778,42.5 L97.2222222,42.5 C98.7566667,42.5 100,43.619 100,45 L100,55 C100,56.381 98.7566667,57.5 97.2222222,57.5" id="Fill-1" fill="#D6D6D6"></path>
                    <path d="M11.1111111,52.21875 C11.1111111,52.90925 10.4894444,53.46875 9.72222222,53.46875 C8.955,53.46875 8.33333333,52.90925 8.33333333,52.21875 C8.33333333,51.52825 8.955,50.96875 9.72222222,50.96875 C10.4894444,50.96875 11.1111111,51.52825 11.1111111,52.21875" id="Fill-3" fill="#F16667"></path>
                    <path d="M11.1111111,47.71875 C11.1111111,48.40925 10.4894444,48.96875 9.72222222,48.96875 C8.955,48.96875 8.33333333,48.40925 8.33333333,47.71875 C8.33333333,47.02825 8.955,46.46875 9.72222222,46.46875 C10.4894444,46.46875 11.1111111,47.02825 11.1111111,47.71875" id="Fill-5" fill="#8DCC93"></path>
                    <path d="M82.7777778,53.71875 L81.1111111,53.71875 C80.8038889,53.71875 80.5555556,53.49525 80.5555556,53.21875 L80.5555556,46.71875 C80.5555556,46.44225 80.8038889,46.21875 81.1111111,46.21875 L82.7777778,46.21875 C83.085,46.21875 83.3333333,46.44225 83.3333333,46.71875 L83.3333333,53.21875 C83.3333333,53.49525 83.085,53.71875 82.7777778,53.71875" id="Fill-7" fill="#C2C2C2"></path>
                    <path d="M88.3311667,53.71875 L86.6689444,53.71875 C86.3606111,53.71875 86.1111667,53.49425 86.1111667,53.21675 L86.1111667,46.72075 C86.1111667,46.44325 86.3606111,46.21875 86.6689444,46.21875 L88.3311667,46.21875 C88.6395,46.21875 88.8889444,46.44325 88.8889444,46.72075 L88.8889444,53.21675 C88.8889444,53.49425 88.6395,53.71875 88.3311667,53.71875" id="Fill-9" fill="#C2C2C2"></path>
                    <path d="M93.8916111,53.71875 L92.2193889,53.71875 C91.9138333,53.71875 91.6666111,53.49625 91.6666111,53.22125 L91.6666111,46.71625 C91.6666111,46.44125 91.9138333,46.21875 92.2193889,46.21875 L93.8916111,46.21875 C94.1971667,46.21875 94.4443889,46.44125 94.4443889,46.71625 L94.4443889,53.22125 C94.4443889,53.49625 94.1971667,53.71875 93.8916111,53.71875" id="Fill-11" fill="#C2C2C2"></path>
                    <path d="M60,47.74805 L60,52.25205 C60,52.66505 59.6277778,53.00005 59.1688889,53.00005 L40.8311111,53.00005 C40.3722222,53.00005 40,52.66505 40,52.25205 L40,47.74805 C40,47.33505 40.3722222,47.00005 40.8311111,47.00005 L59.1688889,47.00005 C59.6277778,47.00005 60,47.33505 60,47.74805" id="Fill-13" fill="#C2C2C2"></path>
                    <path d="M97.2222222,35.8333333 L2.77777778,35.8333333 C1.24333333,35.8333333 0,34.7143333 0,33.3333333 L0,23.3333333 C0,21.9523333 1.24333333,20.8333333 2.77777778,20.8333333 L97.2222222,20.8333333 C98.7566667,20.8333333 100,21.9523333 100,23.3333333 L100,33.3333333 C100,34.7143333 98.7566667,35.8333333 97.2222222,35.8333333" id="Fill-1" fill="#D6D6D6"></path>
                    <path d="M11.1111111,30.5520833 C11.1111111,31.2425833 10.4894444,31.8020833 9.72222222,31.8020833 C8.955,31.8020833 8.33333333,31.2425833 8.33333333,30.5520833 C8.33333333,29.8615833 8.955,29.3020833 9.72222222,29.3020833 C10.4894444,29.3020833 11.1111111,29.8615833 11.1111111,30.5520833" id="Fill-3" fill="#F16667"></path>
                    <path d="M11.1111111,26.0520833 C11.1111111,26.7425833 10.4894444,27.3020833 9.72222222,27.3020833 C8.955,27.3020833 8.33333333,26.7425833 8.33333333,26.0520833 C8.33333333,25.3615833 8.955,24.8020833 9.72222222,24.8020833 C10.4894444,24.8020833 11.1111111,25.3615833 11.1111111,26.0520833" id="Fill-5" fill="#8DCC93"></path>
                    <path d="M82.7777778,32.0520833 L81.1111111,32.0520833 C80.8038889,32.0520833 80.5555556,31.8285833 80.5555556,31.5520833 L80.5555556,25.0520833 C80.5555556,24.7755833 80.8038889,24.5520833 81.1111111,24.5520833 L82.7777778,24.5520833 C83.085,24.5520833 83.3333333,24.7755833 83.3333333,25.0520833 L83.3333333,31.5520833 C83.3333333,31.8285833 83.085,32.0520833 82.7777778,32.0520833" id="Fill-7" fill="#C2C2C2"></path>
                    <path d="M88.3311667,32.0520833 L86.6689444,32.0520833 C86.3606111,32.0520833 86.1111667,31.8275833 86.1111667,31.5500833 L86.1111667,25.0540833 C86.1111667,24.7765833 86.3606111,24.5520833 86.6689444,24.5520833 L88.3311667,24.5520833 C88.6395,24.5520833 88.8889444,24.7765833 88.8889444,25.0540833 L88.8889444,31.5500833 C88.8889444,31.8275833 88.6395,32.0520833 88.3311667,32.0520833" id="Fill-9" fill="#C2C2C2"></path>
                    <path d="M93.8916111,32.0520833 L92.2193889,32.0520833 C91.9138333,32.0520833 91.6666111,31.8295833 91.6666111,31.5545833 L91.6666111,25.0495833 C91.6666111,24.7745833 91.9138333,24.5520833 92.2193889,24.5520833 L93.8916111,24.5520833 C94.1971667,24.5520833 94.4443889,24.7745833 94.4443889,25.0495833 L94.4443889,31.5545833 C94.4443889,31.8295833 94.1971667,32.0520833 93.8916111,32.0520833" id="Fill-11" fill="#C2C2C2"></path>
                    <path d="M60,26.0813833 L60,30.5853833 C60,30.9983833 59.6277778,31.3333833 59.1688889,31.3333833 L40.8311111,31.3333833 C40.3722222,31.3333833 40,30.9983833 40,30.5853833 L40,26.0813833 C40,25.6683833 40.3722222,25.3333833 40.8311111,25.3333833 L59.1688889,25.3333833 C59.6277778,25.3333833 60,25.6683833 60,26.0813833" id="Fill-13" fill="#C2C2C2"></path>
                    <path d="M97.2222222,15 L2.77777778,15 C1.24333333,15 0,13.881 0,12.5 L0,2.5 C0,1.119 1.24333333,0 2.77777778,0 L97.2222222,0 C98.7566667,0 100,1.119 100,2.5 L100,12.5 C100,13.881 98.7566667,15 97.2222222,15" id="Fill-1" fill="#D6D6D6"></path>
                    <path d="M11.1111111,9.71875 C11.1111111,10.40925 10.4894444,10.96875 9.72222222,10.96875 C8.955,10.96875 8.33333333,10.40925 8.33333333,9.71875 C8.33333333,9.02825 8.955,8.46875 9.72222222,8.46875 C10.4894444,8.46875 11.1111111,9.02825 11.1111111,9.71875" id="Fill-3" fill="#F16667"></path>
                    <path d="M11.1111111,5.21875 C11.1111111,5.90925 10.4894444,6.46875 9.72222222,6.46875 C8.955,6.46875 8.33333333,5.90925 8.33333333,5.21875 C8.33333333,4.52825 8.955,3.96875 9.72222222,3.96875 C10.4894444,3.96875 11.1111111,4.52825 11.1111111,5.21875" id="Fill-5" fill="#8DCC93"></path>
                    <path d="M82.7777778,11.21875 L81.1111111,11.21875 C80.8038889,11.21875 80.5555556,10.99525 80.5555556,10.71875 L80.5555556,4.21875 C80.5555556,3.94225 80.8038889,3.71875 81.1111111,3.71875 L82.7777778,3.71875 C83.085,3.71875 83.3333333,3.94225 83.3333333,4.21875 L83.3333333,10.71875 C83.3333333,10.99525 83.085,11.21875 82.7777778,11.21875" id="Fill-7" fill="#C2C2C2"></path>
                    <path d="M88.3311667,11.21875 L86.6689444,11.21875 C86.3606111,11.21875 86.1111667,10.99425 86.1111667,10.71675 L86.1111667,4.22075 C86.1111667,3.94325 86.3606111,3.71875 86.6689444,3.71875 L88.3311667,3.71875 C88.6395,3.71875 88.8889444,3.94325 88.8889444,4.22075 L88.8889444,10.71675 C88.8889444,10.99425 88.6395,11.21875 88.3311667,11.21875" id="Fill-9" fill="#C2C2C2"></path>
                    <path d="M93.8916111,11.21875 L92.2193889,11.21875 C91.9138333,11.21875 91.6666111,10.99625 91.6666111,10.72125 L91.6666111,4.21625 C91.6666111,3.94125 91.9138333,3.71875 92.2193889,3.71875 L93.8916111,3.71875 C94.1971667,3.71875 94.4443889,3.94125 94.4443889,4.21625 L94.4443889,10.72125 C94.4443889,10.99625 94.1971667,11.21875 93.8916111,11.21875" id="Fill-11" fill="#C2C2C2"></path>
                    <path d="M60,5.24805 L60,9.75205 C60,10.16505 59.6277778,10.50005 59.1688889,10.50005 L40.8311111,10.50005 C40.3722222,10.50005 40,10.16505 40,9.75205 L40,5.24805 C40,4.83505 40.3722222,4.50005 40.8311111,4.50005 L59.1688889,4.50005 C59.6277778,4.50005 60,4.83505 60,5.24805" id="Fill-13" fill="#C2C2C2"></path>
                </g>
                <rect id="Rectangle-22" stroke="#979797" x="380.5" y="11.5" width="240" height="162"></rect>
                <g id="Group-39" transform="translate(496.000000, 184.000000)">
                    <rect id="Rectangle-14" stroke="#DFDFDF" x="6.5" y="47.5" width="111" height="109"></rect>
                    <g id="Group-20" transform="translate(12.000000, 80.000000)">
                        <rect id="Rectangle-15" fill="#C2C2C2" x="11.6666667" y="35.8333333" width="76.6666667" height="6.66666667"></rect>
                        <rect id="Rectangle-15" fill="#C2C2C2" x="11.6666667" y="15" width="76.6666667" height="6.66666667"></rect>
                        <path d="M97.2222222,57.5 L2.77777778,57.5 C1.24333333,57.5 0,56.381 0,55 L0,45 C0,43.619 1.24333333,42.5 2.77777778,42.5 L97.2222222,42.5 C98.7566667,42.5 100,43.619 100,45 L100,55 C100,56.381 98.7566667,57.5 97.2222222,57.5" id="Fill-1" fill="#D6D6D6"></path>
                        <path d="M11.1111111,52.21875 C11.1111111,52.90925 10.4894444,53.46875 9.72222222,53.46875 C8.955,53.46875 8.33333333,52.90925 8.33333333,52.21875 C8.33333333,51.52825 8.955,50.96875 9.72222222,50.96875 C10.4894444,50.96875 11.1111111,51.52825 11.1111111,52.21875" id="Fill-3" fill="#F16667"></path>
                        <path d="M11.1111111,47.71875 C11.1111111,48.40925 10.4894444,48.96875 9.72222222,48.96875 C8.955,48.96875 8.33333333,48.40925 8.33333333,47.71875 C8.33333333,47.02825 8.955,46.46875 9.72222222,46.46875 C10.4894444,46.46875 11.1111111,47.02825 11.1111111,47.71875" id="Fill-5" fill="#8DCC93"></path>
                        <path d="M82.7777778,53.71875 L81.1111111,53.71875 C80.8038889,53.71875 80.5555556,53.49525 80.5555556,53.21875 L80.5555556,46.71875 C80.5555556,46.44225 80.8038889,46.21875 81.1111111,46.21875 L82.7777778,46.21875 C83.085,46.21875 83.3333333,46.44225 83.3333333,46.71875 L83.3333333,53.21875 C83.3333333,53.49525 83.085,53.71875 82.7777778,53.71875" id="Fill-7" fill="#C2C2C2"></path>
                        <path d="M88.3311667,53.71875 L86.6689444,53.71875 C86.3606111,53.71875 86.1111667,53.49425 86.1111667,53.21675 L86.1111667,46.72075 C86.1111667,46.44325 86.3606111,46.21875 86.6689444,46.21875 L88.3311667,46.21875 C88.6395,46.21875 88.8889444,46.44325 88.8889444,46.72075 L88.8889444,53.21675 C88.8889444,53.49425 88.6395,53.71875 88.3311667,53.71875" id="Fill-9" fill="#C2C2C2"></path>
                        <path d="M93.8916111,53.71875 L92.2193889,53.71875 C91.9138333,53.71875 91.6666111,53.49625 91.6666111,53.22125 L91.6666111,46.71625 C91.6666111,46.44125 91.9138333,46.21875 92.2193889,46.21875 L93.8916111,46.21875 C94.1971667,46.21875 94.4443889,46.44125 94.4443889,46.71625 L94.4443889,53.22125 C94.4443889,53.49625 94.1971667,53.71875 93.8916111,53.71875" id="Fill-11" fill="#C2C2C2"></path>
                        <path d="M60,47.74805 L60,52.25205 C60,52.66505 59.6277778,53.00005 59.1688889,53.00005 L40.8311111,53.00005 C40.3722222,53.00005 40,52.66505 40,52.25205 L40,47.74805 C40,47.33505 40.3722222,47.00005 40.8311111,47.00005 L59.1688889,47.00005 C59.6277778,47.00005 60,47.33505 60,47.74805" id="Fill-13" fill="#C2C2C2"></path>
                        <path d="M97.2222222,35.8333333 L2.77777778,35.8333333 C1.24333333,35.8333333 0,34.7143333 0,33.3333333 L0,23.3333333 C0,21.9523333 1.24333333,20.8333333 2.77777778,20.8333333 L97.2222222,20.8333333 C98.7566667,20.8333333 100,21.9523333 100,23.3333333 L100,33.3333333 C100,34.7143333 98.7566667,35.8333333 97.2222222,35.8333333" id="Fill-1" fill="#D6D6D6"></path>
                        <path d="M11.1111111,30.5520833 C11.1111111,31.2425833 10.4894444,31.8020833 9.72222222,31.8020833 C8.955,31.8020833 8.33333333,31.2425833 8.33333333,30.5520833 C8.33333333,29.8615833 8.955,29.3020833 9.72222222,29.3020833 C10.4894444,29.3020833 11.1111111,29.8615833 11.1111111,30.5520833" id="Fill-3" fill="#F16667"></path>
                        <path d="M11.1111111,26.0520833 C11.1111111,26.7425833 10.4894444,27.3020833 9.72222222,27.3020833 C8.955,27.3020833 8.33333333,26.7425833 8.33333333,26.0520833 C8.33333333,25.3615833 8.955,24.8020833 9.72222222,24.8020833 C10.4894444,24.8020833 11.1111111,25.3615833 11.1111111,26.0520833" id="Fill-5" fill="#8DCC93"></path>
                        <path d="M82.7777778,32.0520833 L81.1111111,32.0520833 C80.8038889,32.0520833 80.5555556,31.8285833 80.5555556,31.5520833 L80.5555556,25.0520833 C80.5555556,24.7755833 80.8038889,24.5520833 81.1111111,24.5520833 L82.7777778,24.5520833 C83.085,24.5520833 83.3333333,24.7755833 83.3333333,25.0520833 L83.3333333,31.5520833 C83.3333333,31.8285833 83.085,32.0520833 82.7777778,32.0520833" id="Fill-7" fill="#C2C2C2"></path>
                        <path d="M88.3311667,32.0520833 L86.6689444,32.0520833 C86.3606111,32.0520833 86.1111667,31.8275833 86.1111667,31.5500833 L86.1111667,25.0540833 C86.1111667,24.7765833 86.3606111,24.5520833 86.6689444,24.5520833 L88.3311667,24.5520833 C88.6395,24.5520833 88.8889444,24.7765833 88.8889444,25.0540833 L88.8889444,31.5500833 C88.8889444,31.8275833 88.6395,32.0520833 88.3311667,32.0520833" id="Fill-9" fill="#C2C2C2"></path>
                        <path d="M93.8916111,32.0520833 L92.2193889,32.0520833 C91.9138333,32.0520833 91.6666111,31.8295833 91.6666111,31.5545833 L91.6666111,25.0495833 C91.6666111,24.7745833 91.9138333,24.5520833 92.2193889,24.5520833 L93.8916111,24.5520833 C94.1971667,24.5520833 94.4443889,24.7745833 94.4443889,25.0495833 L94.4443889,31.5545833 C94.4443889,31.8295833 94.1971667,32.0520833 93.8916111,32.0520833" id="Fill-11" fill="#C2C2C2"></path>
                        <path d="M60,26.0813833 L60,30.5853833 C60,30.9983833 59.6277778,31.3333833 59.1688889,31.3333833 L40.8311111,31.3333833 C40.3722222,31.3333833 40,30.9983833 40,30.5853833 L40,26.0813833 C40,25.6683833 40.3722222,25.3333833 40.8311111,25.3333833 L59.1688889,25.3333833 C59.6277778,25.3333833 60,25.6683833 60,26.0813833" id="Fill-13" fill="#C2C2C2"></path>
                        <path d="M97.2222222,15 L2.77777778,15 C1.24333333,15 0,13.881 0,12.5 L0,2.5 C0,1.119 1.24333333,0 2.77777778,0 L97.2222222,0 C98.7566667,0 100,1.119 100,2.5 L100,12.5 C100,13.881 98.7566667,15 97.2222222,15" id="Fill-1" fill="#D6D6D6"></path>
                        <path d="M11.1111111,9.71875 C11.1111111,10.40925 10.4894444,10.96875 9.72222222,10.96875 C8.955,10.96875 8.33333333,10.40925 8.33333333,9.71875 C8.33333333,9.02825 8.955,8.46875 9.72222222,8.46875 C10.4894444,8.46875 11.1111111,9.02825 11.1111111,9.71875" id="Fill-3" fill="#F16667"></path>
                        <path d="M11.1111111,5.21875 C11.1111111,5.90925 10.4894444,6.46875 9.72222222,6.46875 C8.955,6.46875 8.33333333,5.90925 8.33333333,5.21875 C8.33333333,4.52825 8.955,3.96875 9.72222222,3.96875 C10.4894444,3.96875 11.1111111,4.52825 11.1111111,5.21875" id="Fill-5" fill="#8DCC93"></path>
                        <path d="M82.7777778,11.21875 L81.1111111,11.21875 C80.8038889,11.21875 80.5555556,10.99525 80.5555556,10.71875 L80.5555556,4.21875 C80.5555556,3.94225 80.8038889,3.71875 81.1111111,3.71875 L82.7777778,3.71875 C83.085,3.71875 83.3333333,3.94225 83.3333333,4.21875 L83.3333333,10.71875 C83.3333333,10.99525 83.085,11.21875 82.7777778,11.21875" id="Fill-7" fill="#C2C2C2"></path>
                        <path d="M88.3311667,11.21875 L86.6689444,11.21875 C86.3606111,11.21875 86.1111667,10.99425 86.1111667,10.71675 L86.1111667,4.22075 C86.1111667,3.94325 86.3606111,3.71875 86.6689444,3.71875 L88.3311667,3.71875 C88.6395,3.71875 88.8889444,3.94325 88.8889444,4.22075 L88.8889444,10.71675 C88.8889444,10.99425 88.6395,11.21875 88.3311667,11.21875" id="Fill-9" fill="#C2C2C2"></path>
                        <path d="M93.8916111,11.21875 L92.2193889,11.21875 C91.9138333,11.21875 91.6666111,10.99625 91.6666111,10.72125 L91.6666111,4.21625 C91.6666111,3.94125 91.9138333,3.71875 92.2193889,3.71875 L93.8916111,3.71875 C94.1971667,3.71875 94.4443889,3.94125 94.4443889,4.21625 L94.4443889,10.72125 C94.4443889,10.99625 94.1971667,11.21875 93.8916111,11.21875" id="Fill-11" fill="#C2C2C2"></path>
                        <path d="M60,5.24805 L60,9.75205 C60,10.16505 59.6277778,10.50005 59.1688889,10.50005 L40.8311111,10.50005 C40.3722222,10.50005 40,10.16505 40,9.75205 L40,5.24805 C40,4.83505 40.3722222,4.50005 40.8311111,4.50005 L59.1688889,4.50005 C59.6277778,4.50005 60,4.83505 60,5.24805" id="Fill-13" fill="#C2C2C2"></path>
                    </g>
                    <rect id="Rectangle-14" stroke="#DFDFDF" x="123.5" y="47.5" width="111" height="109"></rect>
                    <g id="Group-20" transform="translate(129.000000, 80.000000)">
                        <rect id="Rectangle-15" fill="#C2C2C2" x="11.6666667" y="35.8333333" width="76.6666667" height="6.66666667"></rect>
                        <rect id="Rectangle-15" fill="#C2C2C2" x="11.6666667" y="15" width="76.6666667" height="6.66666667"></rect>
                        <path d="M97.2222222,57.5 L2.77777778,57.5 C1.24333333,57.5 0,56.381 0,55 L0,45 C0,43.619 1.24333333,42.5 2.77777778,42.5 L97.2222222,42.5 C98.7566667,42.5 100,43.619 100,45 L100,55 C100,56.381 98.7566667,57.5 97.2222222,57.5" id="Fill-1" fill="#D6D6D6"></path>
                        <path d="M11.1111111,52.21875 C11.1111111,52.90925 10.4894444,53.46875 9.72222222,53.46875 C8.955,53.46875 8.33333333,52.90925 8.33333333,52.21875 C8.33333333,51.52825 8.955,50.96875 9.72222222,50.96875 C10.4894444,50.96875 11.1111111,51.52825 11.1111111,52.21875" id="Fill-3" fill="#F16667"></path>
                        <path d="M11.1111111,47.71875 C11.1111111,48.40925 10.4894444,48.96875 9.72222222,48.96875 C8.955,48.96875 8.33333333,48.40925 8.33333333,47.71875 C8.33333333,47.02825 8.955,46.46875 9.72222222,46.46875 C10.4894444,46.46875 11.1111111,47.02825 11.1111111,47.71875" id="Fill-5" fill="#8DCC93"></path>
                        <path d="M82.7777778,53.71875 L81.1111111,53.71875 C80.8038889,53.71875 80.5555556,53.49525 80.5555556,53.21875 L80.5555556,46.71875 C80.5555556,46.44225 80.8038889,46.21875 81.1111111,46.21875 L82.7777778,46.21875 C83.085,46.21875 83.3333333,46.44225 83.3333333,46.71875 L83.3333333,53.21875 C83.3333333,53.49525 83.085,53.71875 82.7777778,53.71875" id="Fill-7" fill="#C2C2C2"></path>
                        <path d="M88.3311667,53.71875 L86.6689444,53.71875 C86.3606111,53.71875 86.1111667,53.49425 86.1111667,53.21675 L86.1111667,46.72075 C86.1111667,46.44325 86.3606111,46.21875 86.6689444,46.21875 L88.3311667,46.21875 C88.6395,46.21875 88.8889444,46.44325 88.8889444,46.72075 L88.8889444,53.21675 C88.8889444,53.49425 88.6395,53.71875 88.3311667,53.71875" id="Fill-9" fill="#C2C2C2"></path>
                        <path d="M93.8916111,53.71875 L92.2193889,53.71875 C91.9138333,53.71875 91.6666111,53.49625 91.6666111,53.22125 L91.6666111,46.71625 C91.6666111,46.44125 91.9138333,46.21875 92.2193889,46.21875 L93.8916111,46.21875 C94.1971667,46.21875 94.4443889,46.44125 94.4443889,46.71625 L94.4443889,53.22125 C94.4443889,53.49625 94.1971667,53.71875 93.8916111,53.71875" id="Fill-11" fill="#C2C2C2"></path>
                        <path d="M60,47.74805 L60,52.25205 C60,52.66505 59.6277778,53.00005 59.1688889,53.00005 L40.8311111,53.00005 C40.3722222,53.00005 40,52.66505 40,52.25205 L40,47.74805 C40,47.33505 40.3722222,47.00005 40.8311111,47.00005 L59.1688889,47.00005 C59.6277778,47.00005 60,47.33505 60,47.74805" id="Fill-13" fill="#C2C2C2"></path>
                        <path d="M97.2222222,35.8333333 L2.77777778,35.8333333 C1.24333333,35.8333333 0,34.7143333 0,33.3333333 L0,23.3333333 C0,21.9523333 1.24333333,20.8333333 2.77777778,20.8333333 L97.2222222,20.8333333 C98.7566667,20.8333333 100,21.9523333 100,23.3333333 L100,33.3333333 C100,34.7143333 98.7566667,35.8333333 97.2222222,35.8333333" id="Fill-1" fill="#D6D6D6"></path>
                        <path d="M11.1111111,30.5520833 C11.1111111,31.2425833 10.4894444,31.8020833 9.72222222,31.8020833 C8.955,31.8020833 8.33333333,31.2425833 8.33333333,30.5520833 C8.33333333,29.8615833 8.955,29.3020833 9.72222222,29.3020833 C10.4894444,29.3020833 11.1111111,29.8615833 11.1111111,30.5520833" id="Fill-3" fill="#F16667"></path>
                        <path d="M11.1111111,26.0520833 C11.1111111,26.7425833 10.4894444,27.3020833 9.72222222,27.3020833 C8.955,27.3020833 8.33333333,26.7425833 8.33333333,26.0520833 C8.33333333,25.3615833 8.955,24.8020833 9.72222222,24.8020833 C10.4894444,24.8020833 11.1111111,25.3615833 11.1111111,26.0520833" id="Fill-5" fill="#8DCC93"></path>
                        <path d="M82.7777778,32.0520833 L81.1111111,32.0520833 C80.8038889,32.0520833 80.5555556,31.8285833 80.5555556,31.5520833 L80.5555556,25.0520833 C80.5555556,24.7755833 80.8038889,24.5520833 81.1111111,24.5520833 L82.7777778,24.5520833 C83.085,24.5520833 83.3333333,24.7755833 83.3333333,25.0520833 L83.3333333,31.5520833 C83.3333333,31.8285833 83.085,32.0520833 82.7777778,32.0520833" id="Fill-7" fill="#C2C2C2"></path>
                        <path d="M88.3311667,32.0520833 L86.6689444,32.0520833 C86.3606111,32.0520833 86.1111667,31.8275833 86.1111667,31.5500833 L86.1111667,25.0540833 C86.1111667,24.7765833 86.3606111,24.5520833 86.6689444,24.5520833 L88.3311667,24.5520833 C88.6395,24.5520833 88.8889444,24.7765833 88.8889444,25.0540833 L88.8889444,31.5500833 C88.8889444,31.8275833 88.6395,32.0520833 88.3311667,32.0520833" id="Fill-9" fill="#C2C2C2"></path>
                        <path d="M93.8916111,32.0520833 L92.2193889,32.0520833 C91.9138333,32.0520833 91.6666111,31.8295833 91.6666111,31.5545833 L91.6666111,25.0495833 C91.6666111,24.7745833 91.9138333,24.5520833 92.2193889,24.5520833 L93.8916111,24.5520833 C94.1971667,24.5520833 94.4443889,24.7745833 94.4443889,25.0495833 L94.4443889,31.5545833 C94.4443889,31.8295833 94.1971667,32.0520833 93.8916111,32.0520833" id="Fill-11" fill="#C2C2C2"></path>
                        <path d="M60,26.0813833 L60,30.5853833 C60,30.9983833 59.6277778,31.3333833 59.1688889,31.3333833 L40.8311111,31.3333833 C40.3722222,31.3333833 40,30.9983833 40,30.5853833 L40,26.0813833 C40,25.6683833 40.3722222,25.3333833 40.8311111,25.3333833 L59.1688889,25.3333833 C59.6277778,25.3333833 60,25.6683833 60,26.0813833" id="Fill-13" fill="#C2C2C2"></path>
                        <path d="M97.2222222,15 L2.77777778,15 C1.24333333,15 0,13.881 0,12.5 L0,2.5 C0,1.119 1.24333333,0 2.77777778,0 L97.2222222,0 C98.7566667,0 100,1.119 100,2.5 L100,12.5 C100,13.881 98.7566667,15 97.2222222,15" id="Fill-1" fill="#D6D6D6"></path>
                        <path d="M11.1111111,9.71875 C11.1111111,10.40925 10.4894444,10.96875 9.72222222,10.96875 C8.955,10.96875 8.33333333,10.40925 8.33333333,9.71875 C8.33333333,9.02825 8.955,8.46875 9.72222222,8.46875 C10.4894444,8.46875 11.1111111,9.02825 11.1111111,9.71875" id="Fill-3" fill="#F16667"></path>
                        <path d="M11.1111111,5.21875 C11.1111111,5.90925 10.4894444,6.46875 9.72222222,6.46875 C8.955,6.46875 8.33333333,5.90925 8.33333333,5.21875 C8.33333333,4.52825 8.955,3.96875 9.72222222,3.96875 C10.4894444,3.96875 11.1111111,4.52825 11.1111111,5.21875" id="Fill-5" fill="#8DCC93"></path>
                        <path d="M82.7777778,11.21875 L81.1111111,11.21875 C80.8038889,11.21875 80.5555556,10.99525 80.5555556,10.71875 L80.5555556,4.21875 C80.5555556,3.94225 80.8038889,3.71875 81.1111111,3.71875 L82.7777778,3.71875 C83.085,3.71875 83.3333333,3.94225 83.3333333,4.21875 L83.3333333,10.71875 C83.3333333,10.99525 83.085,11.21875 82.7777778,11.21875" id="Fill-7" fill="#C2C2C2"></path>
                        <path d="M88.3311667,11.21875 L86.6689444,11.21875 C86.3606111,11.21875 86.1111667,10.99425 86.1111667,10.71675 L86.1111667,4.22075 C86.1111667,3.94325 86.3606111,3.71875 86.6689444,3.71875 L88.3311667,3.71875 C88.6395,3.71875 88.8889444,3.94325 88.8889444,4.22075 L88.8889444,10.71675 C88.8889444,10.99425 88.6395,11.21875 88.3311667,11.21875" id="Fill-9" fill="#C2C2C2"></path>
                        <path d="M93.8916111,11.21875 L92.2193889,11.21875 C91.9138333,11.21875 91.6666111,10.99625 91.6666111,10.72125 L91.6666111,4.21625 C91.6666111,3.94125 91.9138333,3.71875 92.2193889,3.71875 L93.8916111,3.71875 C94.1971667,3.71875 94.4443889,3.94125 94.4443889,4.21625 L94.4443889,10.72125 C94.4443889,10.99625 94.1971667,11.21875 93.8916111,11.21875" id="Fill-11" fill="#C2C2C2"></path>
                        <path d="M60,5.24805 L60,9.75205 C60,10.16505 59.6277778,10.50005 59.1688889,10.50005 L40.8311111,10.50005 C40.3722222,10.50005 40,10.16505 40,9.75205 L40,5.24805 C40,4.83505 40.3722222,4.50005 40.8311111,4.50005 L59.1688889,4.50005 C59.6277778,4.50005 60,4.83505 60,5.24805" id="Fill-13" fill="#C2C2C2"></path>
                    </g>
                    <rect id="Rectangle-22" stroke="#979797" x="0.5" y="0.5" width="240" height="162"></rect>
                </g>
                <text id="north" font-family="OpenSans-Regular, Open Sans" font-size="12" font-weight="normal" fill="#333333">
                    <tspan x="175.443359" y="36">north</tspan>
                </text>
                <text id="south" font-family="OpenSans-Regular, Open Sans" font-size="12" font-weight="normal" fill="#333333">
                    <tspan x="485.030273" y="36">south</tspan>
                </text>
                <text id="east" font-family="OpenSans-Regular, Open Sans" font-size="12" font-weight="normal" fill="#333333">
                    <tspan x="237.316406" y="211">east</tspan>
                </text>
                <text id="west" font-family="OpenSans-Regular, Open Sans" font-size="12" font-weight="normal" fill="#333333">
                    <tspan x="603.986328" y="211">west</tspan>
                </text>
                <text id="north1" font-family="OpenSans-Regular, Open Sans" font-size="12" font-weight="normal" fill="#333333">
                    <tspan x="54.0126953" y="80">north1</tspan>
                </text>
                <text id="north2" font-family="OpenSans-Regular, Open Sans" font-size="12" font-weight="normal" fill="#333333">
                    <tspan x="172.012695" y="80">north2</tspan>
                </text>
                <text id="south1" font-family="OpenSans-Regular, Open Sans" font-size="12" font-weight="normal" fill="#333333">
                    <tspan x="423.599609" y="81">south1</tspan>
                </text>
                <text id="south2" font-family="OpenSans-Regular, Open Sans" font-size="12" font-weight="normal" fill="#333333">
                    <tspan x="541.599609" y="81">south2</tspan>
                </text>
                <text id="north3" font-family="OpenSans-Regular, Open Sans" font-size="12" font-weight="normal" fill="#333333">
                    <tspan x="288.012695" y="80">north3</tspan>
                </text>
                <text id="east1" font-family="OpenSans-Regular, Open Sans" font-size="12" font-weight="normal" fill="#333333">
                    <tspan x="56.8857422" y="252">east1</tspan>
                </text>
                <text id="east2" font-family="OpenSans-Regular, Open Sans" font-size="12" font-weight="normal" fill="#333333">
                    <tspan x="174.885742" y="252">east2</tspan>
                </text>
                <text id="west1" font-family="OpenSans-Regular, Open Sans" font-size="12" font-weight="normal" fill="#333333">
                    <tspan x="541.055664" y="252">west1</tspan>
                </text>
                <text id="west2" font-family="OpenSans-Regular, Open Sans" font-size="12" font-weight="normal" fill="#333333">
                    <tspan x="659.055664" y="252">west2</tspan>
                </text>
                <text id="east3" font-family="OpenSans-Regular, Open Sans" font-size="12" font-weight="normal" fill="#333333">
                    <tspan x="290.885742" y="252">east3</tspan>
                </text>
                <text id="east4" font-family="OpenSans-Regular, Open Sans" font-size="12" font-weight="normal" fill="#333333">
                    <tspan x="408.885742" y="252">east4</tspan>
                </text>
            </g>
        </g>
    </g>
</svg>