<svg width="426" height="648" viewBox="0 0 426 648" fill="none" xmlns="http://www.w3.org/2000/svg">
<path d="M0 324C0 288.654 28.6538 260 64 260C99.3462 260 128 288.654 128 324C128 359.346 99.3462 388 64 388C28.6538 388 0 359.346 0 324Z" fill="#C990C0"/>
<path d="M37.4673 323.694V322.049H39.0143V323.694H37.4673ZM37.4673 328.958V327.327H39.0143V328.958H37.4673ZM41.2472 329V318.878H44.6702C45.3935 318.878 46.0375 318.999 46.6022 319.242C47.1668 319.485 47.6102 319.844 47.9322 320.32C48.2588 320.796 48.4222 321.382 48.4222 322.077C48.4222 322.749 48.2705 323.323 47.9672 323.799C47.6685 324.275 47.2508 324.637 46.7142 324.884C46.1775 325.131 45.5545 325.255 44.8452 325.255H42.5772V329H41.2472ZM42.5702 324.163H44.8172C45.5125 324.163 46.0772 323.969 46.5112 323.582C46.9452 323.195 47.1622 322.667 47.1622 322C47.1622 321.328 46.9382 320.819 46.4902 320.474C46.0422 320.129 45.4635 319.956 44.7542 319.956H42.5702V324.163ZM49.8952 329V321.762H51.1272V323.155C51.2486 322.81 51.4189 322.525 51.6382 322.301C51.8576 322.072 52.1072 321.902 52.3872 321.79C52.6719 321.678 52.9659 321.622 53.2692 321.622C53.3766 321.622 53.4816 321.629 53.5842 321.643C53.6869 321.657 53.7662 321.68 53.8222 321.713V322.966C53.7522 322.933 53.6612 322.912 53.5492 322.903C53.4419 322.889 53.3509 322.882 53.2762 322.882C52.9869 322.863 52.7162 322.882 52.4642 322.938C52.2122 322.989 51.9906 323.08 51.7992 323.211C51.6079 323.342 51.4562 323.514 51.3442 323.729C51.2369 323.939 51.1832 324.196 51.1832 324.499V329H49.8952ZM58.1526 329.14C57.4853 329.14 56.9019 328.998 56.4026 328.713C55.9079 328.424 55.5229 328.001 55.2476 327.446C54.9723 326.891 54.8346 326.212 54.8346 325.409C54.8346 324.653 54.9629 323.99 55.2196 323.421C55.4763 322.852 55.8519 322.411 56.3466 322.098C56.8413 321.781 57.4456 321.622 58.1596 321.622C58.8269 321.622 59.4056 321.769 59.8956 322.063C60.3856 322.352 60.7659 322.779 61.0366 323.344C61.3119 323.909 61.4496 324.597 61.4496 325.409C61.4496 326.146 61.3236 326.795 61.0716 327.355C60.8196 327.915 60.4486 328.354 59.9586 328.671C59.4733 328.984 58.8713 329.14 58.1526 329.14ZM58.1596 328.118C58.5889 328.118 58.9529 328.008 59.2516 327.789C59.5503 327.57 59.7766 327.255 59.9306 326.844C60.0893 326.433 60.1686 325.946 60.1686 325.381C60.1686 324.863 60.0986 324.399 59.9586 323.988C59.8233 323.573 59.6086 323.244 59.3146 323.001C59.0206 322.758 58.6356 322.637 58.1596 322.637C57.7209 322.637 57.3499 322.747 57.0466 322.966C56.7433 323.181 56.5123 323.493 56.3536 323.904C56.1996 324.315 56.1226 324.807 56.1226 325.381C56.1226 325.89 56.1903 326.352 56.3256 326.767C56.4656 327.182 56.6849 327.511 56.9836 327.754C57.2869 327.997 57.6789 328.118 58.1596 328.118ZM65.8096 329.14C64.8669 329.14 64.1203 328.818 63.5696 328.174C63.0236 327.53 62.7506 326.59 62.7506 325.353C62.7506 324.602 62.8603 323.946 63.0796 323.386C63.2989 322.826 63.6279 322.392 64.0666 322.084C64.5053 321.776 65.0513 321.622 65.7046 321.622C66.0546 321.622 66.3626 321.666 66.6286 321.755C66.8946 321.844 67.1256 321.956 67.3216 322.091C67.5176 322.226 67.6763 322.366 67.7976 322.511C67.9236 322.656 68.0169 322.789 68.0776 322.91V318.598H69.3866V329H68.3926L68.2526 327.516C68.2059 327.656 68.1313 327.819 68.0286 328.006C67.9259 328.188 67.7813 328.368 67.5946 328.545C67.4126 328.718 67.1746 328.86 66.8806 328.972C66.5866 329.084 66.2296 329.14 65.8096 329.14ZM66.0406 328.146C66.7686 328.146 67.2889 327.924 67.6016 327.481C67.9189 327.033 68.0776 326.303 68.0776 325.29C68.0729 324.725 68.0029 324.245 67.8676 323.848C67.7323 323.451 67.5176 323.15 67.2236 322.945C66.9343 322.735 66.5469 322.63 66.0616 322.63C65.4689 322.63 64.9859 322.842 64.6126 323.267C64.2393 323.692 64.0526 324.366 64.0526 325.29C64.0526 326.195 64.2206 326.898 64.5566 327.397C64.8926 327.896 65.3873 328.146 66.0406 328.146ZM74.1841 329.14C73.8061 329.135 73.4491 329.082 73.1131 328.979C72.7818 328.872 72.4878 328.715 72.2311 328.51C71.9745 328.305 71.7715 328.05 71.6221 327.747C71.4775 327.439 71.4051 327.082 71.4051 326.676V321.762H72.7001V326.543C72.7001 327.014 72.8448 327.397 73.1341 327.691C73.4281 327.985 73.8691 328.132 74.4571 328.132C74.9891 328.132 75.4161 327.994 75.7381 327.719C76.0648 327.439 76.2281 327.024 76.2281 326.473V321.762H77.5161V329H76.4871L76.3541 327.614C76.2655 327.978 76.1138 328.272 75.8991 328.496C75.6891 328.72 75.4348 328.886 75.1361 328.993C74.8421 329.096 74.5248 329.145 74.1841 329.14ZM82.5572 329.14C81.9039 329.14 81.3252 328.998 80.8212 328.713C80.3219 328.428 79.9299 328.008 79.6452 327.453C79.3652 326.898 79.2252 326.216 79.2252 325.409C79.2252 324.653 79.3536 323.993 79.6102 323.428C79.8716 322.859 80.2496 322.415 80.7442 322.098C81.2436 321.781 81.8479 321.622 82.5572 321.622C83.0752 321.622 83.5396 321.722 83.9502 321.923C84.3656 322.119 84.7062 322.399 84.9722 322.763C85.2382 323.127 85.4016 323.556 85.4622 324.051H84.3142C84.2722 323.799 84.1742 323.568 84.0202 323.358C83.8709 323.148 83.6726 322.98 83.4252 322.854C83.1826 322.728 82.8956 322.665 82.5642 322.665C81.9436 322.665 81.4372 322.889 81.0452 323.337C80.6579 323.785 80.4642 324.471 80.4642 325.395C80.4642 326.23 80.6416 326.9 80.9962 327.404C81.3556 327.903 81.8829 328.153 82.5782 328.153C82.9096 328.153 83.1989 328.09 83.4462 327.964C83.6936 327.833 83.8919 327.663 84.0412 327.453C84.1906 327.238 84.2862 327.01 84.3282 326.767H85.4552C85.3946 327.252 85.2289 327.672 84.9582 328.027C84.6922 328.382 84.3516 328.657 83.9362 328.853C83.5256 329.044 83.0659 329.14 82.5572 329.14ZM89.5853 329.035C89.086 329.035 88.6987 328.967 88.4233 328.832C88.148 328.697 87.9543 328.496 87.8423 328.23C87.735 327.964 87.6813 327.637 87.6813 327.25V322.707H86.5053V321.762H87.7163L88.0313 319.655H88.9833V321.755H90.6143V322.707H88.9833V327.208C88.9833 327.465 89.009 327.654 89.0603 327.775C89.1163 327.892 89.2073 327.966 89.3333 327.999C89.4593 328.032 89.6367 328.048 89.8653 328.048H90.6563V328.916C90.5677 328.949 90.4323 328.977 90.2503 329C90.073 329.023 89.8513 329.035 89.5853 329.035Z" fill="black"/>
<path d="M0 584C0 548.654 28.6538 520 64 520C99.3462 520 128 548.654 128 584C128 619.346 99.3462 648 64 648C28.6538 648 0 619.346 0 584Z" fill="#F79767"/>
<path d="M35.519 583.694V582.049H37.066V583.694H35.519ZM35.519 588.958V587.327H37.066V588.958H35.519ZM42.7289 589.14C42.2342 589.14 41.7652 589.082 41.3219 588.965C40.8786 588.844 40.4749 588.664 40.1109 588.426C39.7516 588.188 39.4529 587.894 39.2149 587.544C38.9816 587.189 38.8346 586.779 38.7739 586.312H40.1319C40.2159 586.695 40.3816 587.017 40.6289 587.278C40.8809 587.539 41.1912 587.735 41.5599 587.866C41.9332 587.997 42.3416 588.062 42.7849 588.062C43.2142 588.062 43.6086 587.994 43.9679 587.859C44.3319 587.724 44.6236 587.528 44.8429 587.271C45.0622 587.01 45.1719 586.697 45.1719 586.333C45.1719 585.932 45.0412 585.61 44.7799 585.367C44.5186 585.12 44.1149 584.921 43.5689 584.772L41.4829 584.233C41.0116 584.116 40.5939 583.953 40.2299 583.743C39.8706 583.528 39.5882 583.248 39.3829 582.903C39.1776 582.553 39.0749 582.119 39.0749 581.601C39.0749 581.027 39.2336 580.528 39.5509 580.103C39.8682 579.674 40.2976 579.342 40.8389 579.109C41.3849 578.871 42.0009 578.752 42.6869 578.752C43.4802 578.752 44.1476 578.89 44.6889 579.165C45.2349 579.44 45.6479 579.802 45.9279 580.25C46.2079 580.698 46.3479 581.176 46.3479 581.685H45.0179C44.9759 581.223 44.8406 580.859 44.6119 580.593C44.3832 580.322 44.0986 580.129 43.7579 580.012C43.4172 579.891 43.0462 579.83 42.6449 579.83C41.9216 579.83 41.3732 579.996 40.9999 580.327C40.6312 580.654 40.4469 581.043 40.4469 581.496C40.4469 581.911 40.5799 582.238 40.8459 582.476C41.1119 582.714 41.5039 582.898 42.0219 583.029L44.0519 583.554C44.6539 583.694 45.1322 583.897 45.4869 584.163C45.8462 584.429 46.1029 584.739 46.2569 585.094C46.4156 585.444 46.4949 585.824 46.4949 586.235C46.4949 586.795 46.3386 587.294 46.0259 587.733C45.7132 588.172 45.2746 588.517 44.7099 588.769C44.1499 589.016 43.4896 589.14 42.7289 589.14ZM51.0718 589.14C50.6938 589.135 50.3368 589.082 50.0008 588.979C49.6695 588.872 49.3755 588.715 49.1188 588.51C48.8622 588.305 48.6592 588.05 48.5098 587.747C48.3652 587.439 48.2928 587.082 48.2928 586.676V581.762H49.5878V586.543C49.5878 587.014 49.7325 587.397 50.0218 587.691C50.3158 587.985 50.7568 588.132 51.3448 588.132C51.8768 588.132 52.3038 587.994 52.6258 587.719C52.9525 587.439 53.1158 587.024 53.1158 586.473V581.762H54.4038V589H53.3748L53.2418 587.614C53.1532 587.978 53.0015 588.272 52.7868 588.496C52.5768 588.72 52.3225 588.886 52.0238 588.993C51.7298 589.096 51.4125 589.145 51.0718 589.14ZM56.6149 591.254V581.762H57.9029L57.9169 583.022C58.0009 582.873 58.1083 582.716 58.2389 582.553C58.3743 582.39 58.5376 582.238 58.7289 582.098C58.9249 581.958 59.1513 581.844 59.4079 581.755C59.6693 581.666 59.9656 581.622 60.2969 581.622C60.8756 581.622 61.3843 581.755 61.8229 582.021C62.2663 582.282 62.6116 582.684 62.8589 583.225C63.1063 583.766 63.2299 584.452 63.2299 585.283C63.2299 586.114 63.1086 586.816 62.8659 587.39C62.6279 587.959 62.2826 588.393 61.8299 588.692C61.3773 588.991 60.8313 589.14 60.1919 589.14C59.8699 589.14 59.5829 589.093 59.3309 589C59.0836 588.911 58.8666 588.795 58.6799 588.65C58.4979 588.501 58.3439 588.342 58.2179 588.174C58.0966 588.006 57.9963 587.845 57.9169 587.691V591.254H56.6149ZM59.9469 588.132C60.5443 588.132 61.0319 587.906 61.4099 587.453C61.7879 586.996 61.9769 586.286 61.9769 585.325C61.9769 584.499 61.8043 583.843 61.4589 583.358C61.1136 582.873 60.6096 582.63 59.9469 582.63C59.2749 582.63 58.7663 582.88 58.4209 583.379C58.0756 583.874 57.9029 584.522 57.9029 585.325C57.9029 585.843 57.9799 586.314 58.1339 586.739C58.2879 587.164 58.5166 587.502 58.8199 587.754C59.1233 588.006 59.4989 588.132 59.9469 588.132ZM64.9548 591.254V581.762H66.2428L66.2568 583.022C66.3408 582.873 66.4481 582.716 66.5788 582.553C66.7141 582.39 66.8775 582.238 67.0688 582.098C67.2648 581.958 67.4911 581.844 67.7478 581.755C68.0091 581.666 68.3055 581.622 68.6368 581.622C69.2155 581.622 69.7241 581.755 70.1628 582.021C70.6061 582.282 70.9515 582.684 71.1988 583.225C71.4461 583.766 71.5698 584.452 71.5698 585.283C71.5698 586.114 71.4485 586.816 71.2058 587.39C70.9678 587.959 70.6225 588.393 70.1698 588.692C69.7171 588.991 69.1711 589.14 68.5318 589.14C68.2098 589.14 67.9228 589.093 67.6708 589C67.4235 588.911 67.2065 588.795 67.0198 588.65C66.8378 588.501 66.6838 588.342 66.5578 588.174C66.4365 588.006 66.3361 587.845 66.2568 587.691V591.254H64.9548ZM68.2868 588.132C68.8841 588.132 69.3718 587.906 69.7498 587.453C70.1278 586.996 70.3168 586.286 70.3168 585.325C70.3168 584.499 70.1441 583.843 69.7988 583.358C69.4535 582.873 68.9495 582.63 68.2868 582.63C67.6148 582.63 67.1061 582.88 66.7608 583.379C66.4155 583.874 66.2428 584.522 66.2428 585.325C66.2428 585.843 66.3198 586.314 66.4738 586.739C66.6278 587.164 66.8565 587.502 67.1598 587.754C67.4631 588.006 67.8388 588.132 68.2868 588.132ZM75.1216 589.091C74.7296 589.091 74.4123 589.037 74.1696 588.93C73.9316 588.823 73.7473 588.678 73.6166 588.496C73.4906 588.314 73.4043 588.106 73.3576 587.873C73.3156 587.635 73.2946 587.39 73.2946 587.138V578.598H74.5686V587.012C74.5686 587.376 74.6386 587.649 74.7786 587.831C74.9233 588.013 75.124 588.113 75.3806 588.132L75.7726 588.139V588.979C75.6653 589.012 75.5533 589.037 75.4366 589.056C75.32 589.079 75.215 589.091 75.1216 589.091ZM77.4996 589V581.762H78.7526V589H77.4996ZM77.4646 580.229V578.885H78.7876V580.229H77.4646ZM83.9825 589.14C83.3105 589.14 82.7179 588.993 82.2045 588.699C81.6912 588.405 81.2899 587.983 81.0005 587.432C80.7112 586.881 80.5665 586.221 80.5665 585.451C80.5665 584.69 80.6972 584.023 80.9585 583.449C81.2199 582.875 81.5979 582.427 82.0925 582.105C82.5919 581.783 83.1915 581.622 83.8915 581.622C84.5729 581.622 85.1492 581.769 85.6205 582.063C86.0919 582.357 86.4489 582.772 86.6915 583.309C86.9389 583.841 87.0625 584.473 87.0625 585.206V585.682H81.8755C81.8755 586.139 81.9502 586.555 82.0995 586.928C82.2535 587.297 82.4845 587.591 82.7925 587.81C83.1005 588.029 83.4902 588.139 83.9615 588.139C84.4235 588.139 84.8202 588.032 85.1515 587.817C85.4875 587.602 85.7022 587.292 85.7955 586.886H87.0135C86.9295 587.376 86.7335 587.789 86.4255 588.125C86.1222 588.461 85.7559 588.715 85.3265 588.888C84.9019 589.056 84.4539 589.14 83.9825 589.14ZM81.8825 584.807H85.8165C85.8165 584.392 85.7465 584.018 85.6065 583.687C85.4665 583.351 85.2519 583.087 84.9625 582.896C84.6779 582.7 84.3185 582.602 83.8845 582.602C83.4319 582.602 83.0562 582.712 82.7575 582.931C82.4589 583.146 82.2372 583.423 82.0925 583.764C81.9479 584.1 81.8779 584.448 81.8825 584.807ZM88.8532 589V581.762H90.0852V583.155C90.2066 582.81 90.3769 582.525 90.5962 582.301C90.8156 582.072 91.0652 581.902 91.3452 581.79C91.6299 581.678 91.9239 581.622 92.2272 581.622C92.3346 581.622 92.4396 581.629 92.5422 581.643C92.6449 581.657 92.7242 581.68 92.7802 581.713V582.966C92.7102 582.933 92.6192 582.912 92.5072 582.903C92.3999 582.889 92.3089 582.882 92.2342 582.882C91.9449 582.863 91.6742 582.882 91.4222 582.938C91.1702 582.989 90.9486 583.08 90.7572 583.211C90.5659 583.342 90.4142 583.514 90.3022 583.729C90.1949 583.939 90.1412 584.196 90.1412 584.499V589H88.8532Z" fill="black"/>
<path d="M0 64C0 28.6538 28.6538 0 64 0C99.3462 0 128 28.6538 128 64C128 99.3462 99.3462 128 64 128C28.6538 128 0 99.3462 0 64Z" fill="#FFDF81"/>
<path d="M44.7749 63.694V62.049H46.3219V63.694H44.7749ZM44.7749 68.958V67.327H46.3219V68.958H44.7749ZM51.8502 69.14C50.9496 69.14 50.1702 68.937 49.5122 68.531C48.8542 68.125 48.3456 67.537 47.9862 66.767C47.6316 65.9923 47.4542 65.0567 47.4542 63.96C47.4542 62.854 47.6339 61.9137 47.9932 61.139C48.3526 60.3597 48.8612 59.7647 49.5192 59.354C50.1819 58.9433 50.9589 58.738 51.8502 58.738C52.7462 58.738 53.5209 58.9433 54.1742 59.354C54.8276 59.76 55.3316 60.3527 55.6862 61.132C56.0409 61.9067 56.2182 62.8493 56.2182 63.96C56.2182 65.0567 56.0409 65.9923 55.6862 66.767C55.3362 67.537 54.8346 68.125 54.1812 68.531C53.5279 68.937 52.7509 69.14 51.8502 69.14ZM51.8502 68.013C52.4756 68.013 53.0076 67.8707 53.4462 67.586C53.8849 67.3013 54.2186 66.8603 54.4472 66.263C54.6806 65.6657 54.7972 64.9027 54.7972 63.974C54.7972 63.0313 54.6806 62.2567 54.4472 61.65C54.2139 61.0433 53.8779 60.5953 53.4392 60.306C53.0006 60.012 52.4709 59.865 51.8502 59.865C51.2342 59.865 50.7046 60.012 50.2612 60.306C49.8179 60.6 49.4772 61.0503 49.2392 61.657C49.0012 62.2637 48.8822 63.036 48.8822 63.974C48.8822 64.9027 49.0012 65.6657 49.2392 66.263C49.4772 66.8603 49.8179 67.3013 50.2612 67.586C50.7046 67.8707 51.2342 68.013 51.8502 68.013ZM57.9548 69V61.762H59.1868V63.155C59.3081 62.8097 59.4785 62.525 59.6978 62.301C59.9171 62.0723 60.1668 61.902 60.4468 61.79C60.7315 61.678 61.0255 61.622 61.3288 61.622C61.4361 61.622 61.5411 61.629 61.6438 61.643C61.7465 61.657 61.8258 61.6803 61.8818 61.713V62.966C61.8118 62.9333 61.7208 62.9123 61.6088 62.903C61.5015 62.889 61.4105 62.882 61.3358 62.882C61.0465 62.8633 60.7758 62.882 60.5238 62.938C60.2718 62.9893 60.0501 63.0803 59.8588 63.211C59.6675 63.3417 59.5158 63.5143 59.4038 63.729C59.2965 63.939 59.2428 64.1957 59.2428 64.499V69H57.9548ZM65.9532 69.14C65.0105 69.14 64.2638 68.818 63.7132 68.174C63.1672 67.53 62.8942 66.5897 62.8942 65.353C62.8942 64.6017 63.0038 63.946 63.2232 63.386C63.4425 62.826 63.7715 62.392 64.2102 62.084C64.6488 61.776 65.1948 61.622 65.8482 61.622C66.1982 61.622 66.5062 61.6663 66.7722 61.755C67.0382 61.8437 67.2692 61.9557 67.4652 62.091C67.6612 62.2263 67.8198 62.3663 67.9412 62.511C68.0672 62.6557 68.1605 62.7887 68.2212 62.91V58.598H69.5302V69H68.5362L68.3962 67.516C68.3495 67.656 68.2748 67.8193 68.1722 68.006C68.0695 68.188 67.9248 68.3677 67.7382 68.545C67.5562 68.7177 67.3182 68.86 67.0242 68.972C66.7302 69.084 66.3732 69.14 65.9532 69.14ZM66.1842 68.146C66.9122 68.146 67.4325 67.9243 67.7452 67.481C68.0625 67.033 68.2212 66.3027 68.2212 65.29C68.2165 64.7253 68.1465 64.2447 68.0112 63.848C67.8758 63.4513 67.6612 63.1503 67.3672 62.945C67.0778 62.735 66.6905 62.63 66.2052 62.63C65.6125 62.63 65.1295 62.8423 64.7562 63.267C64.3828 63.6917 64.1962 64.366 64.1962 65.29C64.1962 66.1953 64.3642 66.8977 64.7002 67.397C65.0362 67.8963 65.5308 68.146 66.1842 68.146ZM74.7267 69.14C74.0547 69.14 73.462 68.993 72.9487 68.699C72.4353 68.405 72.034 67.9827 71.7447 67.432C71.4553 66.8813 71.3107 66.221 71.3107 65.451C71.3107 64.6903 71.4413 64.023 71.7027 63.449C71.964 62.875 72.342 62.427 72.8367 62.105C73.336 61.783 73.9357 61.622 74.6357 61.622C75.317 61.622 75.8933 61.769 76.3647 62.063C76.836 62.357 77.193 62.7723 77.4357 63.309C77.683 63.841 77.8067 64.4733 77.8067 65.206V65.682H72.6197C72.6197 66.1393 72.6943 66.5547 72.8437 66.928C72.9977 67.2967 73.2287 67.5907 73.5367 67.81C73.8447 68.0293 74.2343 68.139 74.7057 68.139C75.1677 68.139 75.5643 68.0317 75.8957 67.817C76.2317 67.6023 76.4463 67.292 76.5397 66.886H77.7577C77.6737 67.376 77.4777 67.789 77.1697 68.125C76.8663 68.461 76.5 68.7153 76.0707 68.888C75.646 69.056 75.198 69.14 74.7267 69.14ZM72.6267 64.807H76.5607C76.5607 64.3917 76.4907 64.0183 76.3507 63.687C76.2107 63.351 75.996 63.0873 75.7067 62.896C75.422 62.7 75.0627 62.602 74.6287 62.602C74.176 62.602 73.8003 62.7117 73.5017 62.931C73.203 63.1457 72.9813 63.4233 72.8367 63.764C72.692 64.1 72.622 64.4477 72.6267 64.807ZM79.5974 69V61.762H80.8294V63.155C80.9507 62.8097 81.121 62.525 81.3404 62.301C81.5597 62.0723 81.8094 61.902 82.0894 61.79C82.374 61.678 82.668 61.622 82.9714 61.622C83.0787 61.622 83.1837 61.629 83.2864 61.643C83.389 61.657 83.4684 61.6803 83.5244 61.713V62.966C83.4544 62.9333 83.3634 62.9123 83.2514 62.903C83.144 62.889 83.053 62.882 82.9784 62.882C82.689 62.8633 82.4184 62.882 82.1664 62.938C81.9144 62.9893 81.6927 63.0803 81.5014 63.211C81.31 63.3417 81.1584 63.5143 81.0464 63.729C80.939 63.939 80.8854 64.1957 80.8854 64.499V69H79.5974Z" fill="black"/>
<path d="M298 64C298 28.6538 326.654 0 362 0C397.346 0 426 28.6538 426 64C426 99.3462 397.346 128 362 128C326.654 128 298 99.3462 298 64Z" fill="#56C7E4"/>
<path d="M329.739 63.694V62.049H331.286V63.694H329.739ZM329.739 68.958V67.327H331.286V68.958H329.739ZM336.723 69.14C335.813 69.14 335.036 68.9323 334.392 68.517C333.753 68.1017 333.263 67.5043 332.922 66.725C332.586 65.9457 332.418 65.0053 332.418 63.904C332.418 62.8073 332.586 61.874 332.922 61.104C333.258 60.334 333.746 59.7483 334.385 59.347C335.029 58.941 335.808 58.738 336.723 58.738C337.437 58.738 338.069 58.8873 338.62 59.186C339.171 59.48 339.614 59.8743 339.95 60.369C340.286 60.8637 340.484 61.4073 340.545 62H339.166C339.091 61.6033 338.949 61.244 338.739 60.922C338.529 60.6 338.254 60.3433 337.913 60.152C337.572 59.9607 337.164 59.865 336.688 59.865C336.077 59.865 335.559 60.0097 335.134 60.299C334.714 60.5837 334.394 61.0247 334.175 61.622C333.96 62.2193 333.853 62.9847 333.853 63.918C333.853 65.3273 334.093 66.3633 334.574 67.026C335.059 67.684 335.764 68.013 336.688 68.013C337.164 68.013 337.572 67.9127 337.913 67.712C338.254 67.5113 338.529 67.243 338.739 66.907C338.949 66.571 339.091 66.207 339.166 65.815H340.545C340.494 66.2443 340.377 66.6597 340.195 67.061C340.018 67.4577 339.773 67.8123 339.46 68.125C339.147 68.4377 338.762 68.685 338.305 68.867C337.852 69.049 337.325 69.14 336.723 69.14ZM345.032 69.14C344.654 69.1353 344.297 69.0817 343.961 68.979C343.629 68.8717 343.335 68.7153 343.079 68.51C342.822 68.3047 342.619 68.0503 342.47 67.747C342.325 67.439 342.253 67.082 342.253 66.676V61.762H343.548V66.543C343.548 67.0143 343.692 67.397 343.982 67.691C344.276 67.985 344.717 68.132 345.305 68.132C345.837 68.132 346.264 67.9943 346.586 67.719C346.912 67.439 347.076 67.0237 347.076 66.473V61.762H348.364V69H347.335L347.202 67.614C347.113 67.978 346.961 68.272 346.747 68.496C346.537 68.72 346.282 68.8857 345.984 68.993C345.69 69.0957 345.372 69.1447 345.032 69.14ZM353.097 69.14C352.593 69.14 352.124 69.063 351.69 68.909C351.261 68.7503 350.904 68.5053 350.619 68.174C350.334 67.838 350.157 67.411 350.087 66.893H351.263C351.324 67.1777 351.44 67.4157 351.613 67.607C351.786 67.7937 351.998 67.936 352.25 68.034C352.507 68.1273 352.787 68.174 353.09 68.174C353.58 68.174 353.974 68.083 354.273 67.901C354.572 67.719 354.721 67.439 354.721 67.061C354.721 66.795 354.642 66.5827 354.483 66.424C354.329 66.2607 354.086 66.1417 353.755 66.067L352.257 65.696C351.674 65.556 351.207 65.3367 350.857 65.038C350.512 64.7393 350.337 64.3217 350.332 63.785C350.332 63.3603 350.435 62.987 350.64 62.665C350.845 62.343 351.151 62.0887 351.557 61.902C351.968 61.7153 352.479 61.622 353.09 61.622C353.879 61.622 354.513 61.7993 354.994 62.154C355.475 62.504 355.727 63.0197 355.75 63.701H354.602C354.555 63.3557 354.401 63.0827 354.14 62.882C353.879 62.6767 353.524 62.574 353.076 62.574C352.619 62.574 352.243 62.6673 351.949 62.854C351.66 63.036 351.515 63.3207 351.515 63.708C351.515 63.9647 351.618 64.1677 351.823 64.317C352.033 64.4617 352.336 64.583 352.733 64.681L354.189 65.045C354.52 65.1337 354.796 65.2503 355.015 65.395C355.234 65.5397 355.407 65.7007 355.533 65.878C355.659 66.0553 355.748 66.242 355.799 66.438C355.855 66.6293 355.883 66.8137 355.883 66.991C355.883 67.4343 355.773 67.817 355.554 68.139C355.335 68.4563 355.017 68.7037 354.602 68.881C354.187 69.0537 353.685 69.14 353.097 69.14ZM360.078 69.035C359.578 69.035 359.191 68.9673 358.916 68.832C358.64 68.6967 358.447 68.496 358.335 68.23C358.227 67.964 358.174 67.6373 358.174 67.25V62.707H356.998V61.762H358.209L358.524 59.655H359.476V61.755H361.107V62.707H359.476V67.208C359.476 67.4647 359.501 67.6537 359.553 67.775C359.609 67.8917 359.7 67.9663 359.826 67.999C359.952 68.0317 360.129 68.048 360.358 68.048H361.149V68.916C361.06 68.9487 360.925 68.9767 360.743 69C360.565 69.0233 360.344 69.035 360.078 69.035ZM365.573 69.14C364.905 69.14 364.322 68.9977 363.823 68.713C363.328 68.4237 362.943 68.0013 362.668 67.446C362.392 66.8907 362.255 66.2117 362.255 65.409C362.255 64.653 362.383 63.9903 362.64 63.421C362.896 62.8517 363.272 62.4107 363.767 62.098C364.261 61.7807 364.866 61.622 365.58 61.622C366.247 61.622 366.826 61.769 367.316 62.063C367.806 62.3523 368.186 62.7793 368.457 63.344C368.732 63.9087 368.87 64.597 368.87 65.409C368.87 66.1463 368.744 66.795 368.492 67.355C368.24 67.915 367.869 68.3537 367.379 68.671C366.893 68.9837 366.291 69.14 365.573 69.14ZM365.58 68.118C366.009 68.118 366.373 68.0083 366.672 67.789C366.97 67.5697 367.197 67.2547 367.351 66.844C367.509 66.4333 367.589 65.9457 367.589 65.381C367.589 64.863 367.519 64.3987 367.379 63.988C367.243 63.5727 367.029 63.2437 366.735 63.001C366.441 62.7583 366.056 62.637 365.58 62.637C365.141 62.637 364.77 62.7467 364.467 62.966C364.163 63.1807 363.932 63.4933 363.774 63.904C363.62 64.3147 363.543 64.807 363.543 65.381C363.543 65.8897 363.61 66.3517 363.746 66.767C363.886 67.1823 364.105 67.5113 364.404 67.754C364.707 67.9967 365.099 68.118 365.58 68.118ZM370.591 69V61.762H371.837V62.812C372.037 62.4947 372.313 62.217 372.663 61.979C373.013 61.741 373.468 61.622 374.028 61.622C374.289 61.622 374.555 61.6663 374.826 61.755C375.101 61.8437 375.353 61.9767 375.582 62.154C375.81 62.3313 375.988 62.5483 376.114 62.805C376.338 62.4503 376.641 62.1657 377.024 61.951C377.406 61.7317 377.838 61.622 378.319 61.622C378.571 61.622 378.834 61.6617 379.11 61.741C379.385 61.8157 379.639 61.951 379.873 62.147C380.111 62.3383 380.304 62.6067 380.454 62.952C380.603 63.2927 380.678 63.7313 380.678 64.268V69H379.376V64.394C379.376 63.9553 379.306 63.617 379.166 63.379C379.026 63.1363 378.841 62.966 378.613 62.868C378.389 62.77 378.148 62.721 377.892 62.721C377.668 62.721 377.43 62.7653 377.178 62.854C376.926 62.9427 376.711 63.092 376.534 63.302C376.356 63.512 376.268 63.799 376.268 64.163V69H374.98V64.016C374.98 63.7313 374.903 63.4933 374.749 63.302C374.599 63.1107 374.41 62.966 374.182 62.868C373.958 62.77 373.734 62.721 373.51 62.721C373.262 62.721 373.013 62.77 372.761 62.868C372.513 62.966 372.303 63.1223 372.131 63.337C371.963 63.547 371.879 63.8223 371.879 64.163V69H370.591ZM385.763 69.14C385.091 69.14 384.498 68.993 383.985 68.699C383.471 68.405 383.07 67.9827 382.781 67.432C382.491 66.8813 382.347 66.221 382.347 65.451C382.347 64.6903 382.477 64.023 382.739 63.449C383 62.875 383.378 62.427 383.873 62.105C384.372 61.783 384.972 61.622 385.672 61.622C386.353 61.622 386.929 61.769 387.401 62.063C387.872 62.357 388.229 62.7723 388.472 63.309C388.719 63.841 388.843 64.4733 388.843 65.206V65.682H383.656C383.656 66.1393 383.73 66.5547 383.88 66.928C384.034 67.2967 384.265 67.5907 384.573 67.81C384.881 68.0293 385.27 68.139 385.742 68.139C386.204 68.139 386.6 68.0317 386.932 67.817C387.268 67.6023 387.482 67.292 387.576 66.886H388.794C388.71 67.376 388.514 67.789 388.206 68.125C387.902 68.461 387.536 68.7153 387.107 68.888C386.682 69.056 386.234 69.14 385.763 69.14ZM383.663 64.807H387.597C387.597 64.3917 387.527 64.0183 387.387 63.687C387.247 63.351 387.032 63.0873 386.743 62.896C386.458 62.7 386.099 62.602 385.665 62.602C385.212 62.602 384.836 62.7117 384.538 62.931C384.239 63.1457 384.017 63.4233 383.873 63.764C383.728 64.1 383.658 64.4477 383.663 64.807ZM390.634 69V61.762H391.866V63.155C391.987 62.8097 392.157 62.525 392.377 62.301C392.596 62.0723 392.846 61.902 393.126 61.79C393.41 61.678 393.704 61.622 394.008 61.622C394.115 61.622 394.22 61.629 394.323 61.643C394.425 61.657 394.505 61.6803 394.561 61.713V62.966C394.491 62.9333 394.4 62.9123 394.288 62.903C394.18 62.889 394.089 62.882 394.015 62.882C393.725 62.8633 393.455 62.882 393.203 62.938C392.951 62.9893 392.729 63.0803 392.538 63.211C392.346 63.3417 392.195 63.5143 392.083 63.729C391.975 63.939 391.922 64.1957 391.922 64.499V69H390.634Z" fill="black"/>
<path d="M298 324C298 288.654 326.654 260 362 260C397.346 260 426 288.654 426 324C426 359.346 397.346 388 362 388C326.654 388 298 359.346 298 324Z" fill="#F16767"/>
<path d="M331.598 323.694V322.049H333.145V323.694H331.598ZM331.598 328.958V327.327H333.145V328.958H331.598ZM338.582 329.14C337.672 329.14 336.895 328.932 336.251 328.517C335.612 328.102 335.122 327.504 334.781 326.725C334.445 325.946 334.277 325.005 334.277 323.904C334.277 322.807 334.445 321.874 334.781 321.104C335.117 320.334 335.605 319.748 336.244 319.347C336.888 318.941 337.668 318.738 338.582 318.738C339.296 318.738 339.929 318.887 340.479 319.186C341.03 319.48 341.473 319.874 341.809 320.369C342.145 320.864 342.344 321.407 342.404 322H341.025C340.951 321.603 340.808 321.244 340.598 320.922C340.388 320.6 340.113 320.343 339.772 320.152C339.432 319.961 339.023 319.865 338.547 319.865C337.936 319.865 337.418 320.01 336.993 320.299C336.573 320.584 336.254 321.025 336.034 321.622C335.82 322.219 335.712 322.985 335.712 323.918C335.712 325.327 335.953 326.363 336.433 327.026C336.919 327.684 337.623 328.013 338.547 328.013C339.023 328.013 339.432 327.913 339.772 327.712C340.113 327.511 340.388 327.243 340.598 326.907C340.808 326.571 340.951 326.207 341.025 325.815H342.404C342.353 326.244 342.236 326.66 342.054 327.061C341.877 327.458 341.632 327.812 341.319 328.125C341.007 328.438 340.622 328.685 340.164 328.867C339.712 329.049 339.184 329.14 338.582 329.14ZM346.165 329.14C345.694 329.14 345.279 329.058 344.919 328.895C344.565 328.727 344.285 328.487 344.079 328.174C343.879 327.861 343.778 327.483 343.778 327.04C343.778 326.237 344.058 325.64 344.618 325.248C345.178 324.856 346.077 324.646 347.313 324.618L348.601 324.583V324.016C348.601 323.573 348.468 323.223 348.202 322.966C347.936 322.705 347.526 322.574 346.97 322.574C346.555 322.579 346.189 322.677 345.871 322.868C345.554 323.059 345.351 323.372 345.262 323.806H344.121C344.149 323.335 344.28 322.938 344.513 322.616C344.751 322.289 345.085 322.042 345.514 321.874C345.944 321.706 346.45 321.622 347.033 321.622C347.663 321.622 348.186 321.711 348.601 321.888C349.021 322.065 349.334 322.327 349.539 322.672C349.749 323.017 349.854 323.442 349.854 323.946V329H348.748L348.65 327.642C348.375 328.207 348.02 328.599 347.586 328.818C347.157 329.033 346.683 329.14 346.165 329.14ZM346.55 328.209C346.798 328.209 347.04 328.165 347.278 328.076C347.521 327.987 347.74 327.868 347.936 327.719C348.137 327.565 348.298 327.395 348.419 327.208C348.541 327.017 348.601 326.821 348.601 326.62V325.381L347.53 325.402C346.975 325.411 346.513 325.467 346.144 325.57C345.776 325.673 345.498 325.834 345.311 326.053C345.125 326.272 345.031 326.559 345.031 326.914C345.031 327.32 345.174 327.637 345.458 327.866C345.743 328.095 346.107 328.209 346.55 328.209ZM354.226 329.035C353.727 329.035 353.339 328.967 353.064 328.832C352.789 328.697 352.595 328.496 352.483 328.23C352.376 327.964 352.322 327.637 352.322 327.25V322.707H351.146V321.762H352.357L352.672 319.655H353.624V321.755H355.255V322.707H353.624V327.208C353.624 327.465 353.65 327.654 353.701 327.775C353.757 327.892 353.848 327.966 353.974 327.999C354.1 328.032 354.277 328.048 354.506 328.048H355.297V328.916C355.208 328.949 355.073 328.977 354.891 329C354.714 329.023 354.492 329.035 354.226 329.035ZM359.882 329.14C359.21 329.14 358.617 328.993 358.104 328.699C357.591 328.405 357.189 327.983 356.9 327.432C356.611 326.881 356.466 326.221 356.466 325.451C356.466 324.69 356.597 324.023 356.858 323.449C357.119 322.875 357.497 322.427 357.992 322.105C358.491 321.783 359.091 321.622 359.791 321.622C360.472 321.622 361.049 321.769 361.52 322.063C361.991 322.357 362.348 322.772 362.591 323.309C362.838 323.841 362.962 324.473 362.962 325.206V325.682H357.775C357.775 326.139 357.85 326.555 357.999 326.928C358.153 327.297 358.384 327.591 358.692 327.81C359 328.029 359.39 328.139 359.861 328.139C360.323 328.139 360.72 328.032 361.051 327.817C361.387 327.602 361.602 327.292 361.695 326.886H362.913C362.829 327.376 362.633 327.789 362.325 328.125C362.022 328.461 361.655 328.715 361.226 328.888C360.801 329.056 360.353 329.14 359.882 329.14ZM357.782 324.807H361.716C361.716 324.392 361.646 324.018 361.506 323.687C361.366 323.351 361.151 323.087 360.862 322.896C360.577 322.7 360.218 322.602 359.784 322.602C359.331 322.602 358.956 322.712 358.657 322.931C358.358 323.146 358.137 323.423 357.992 323.764C357.847 324.1 357.777 324.448 357.782 324.807ZM367.757 331.394C366.623 331.394 365.739 331.228 365.104 330.897C364.469 330.57 364.152 330.101 364.152 329.49C364.152 329.229 364.213 329.007 364.334 328.825C364.455 328.638 364.6 328.484 364.768 328.363C364.936 328.242 365.092 328.146 365.237 328.076C365.382 328.001 365.477 327.948 365.524 327.915C365.44 327.868 365.34 327.81 365.223 327.74C365.106 327.67 365.001 327.577 364.908 327.46C364.819 327.343 364.775 327.192 364.775 327.005C364.775 326.776 364.882 326.566 365.097 326.375C365.312 326.184 365.631 326.041 366.056 325.948C365.631 325.733 365.3 325.449 365.062 325.094C364.824 324.739 364.705 324.354 364.705 323.939C364.705 323.472 364.831 323.066 365.083 322.721C365.335 322.376 365.697 322.112 366.168 321.93C366.639 321.743 367.202 321.65 367.855 321.65C368.326 321.65 368.721 321.706 369.038 321.818C369.36 321.925 369.659 322.079 369.934 322.28C370.009 322.247 370.128 322.198 370.291 322.133C370.454 322.063 370.632 321.988 370.823 321.909C371.019 321.83 371.201 321.755 371.369 321.685C371.542 321.61 371.679 321.554 371.782 321.517L371.775 322.714L370.508 322.952C370.583 323.101 370.641 323.265 370.683 323.442C370.725 323.619 370.746 323.785 370.746 323.939C370.746 324.364 370.634 324.749 370.41 325.094C370.191 325.439 369.857 325.715 369.409 325.92C368.961 326.125 368.401 326.228 367.729 326.228C367.673 326.228 367.601 326.228 367.512 326.228C367.428 326.223 367.356 326.219 367.295 326.214C366.8 326.228 366.46 326.284 366.273 326.382C366.091 326.475 366 326.58 366 326.697C366 326.832 366.105 326.926 366.315 326.977C366.525 327.028 366.88 327.073 367.379 327.11C367.561 327.119 367.785 327.131 368.051 327.145C368.322 327.159 368.623 327.178 368.954 327.201C369.71 327.248 370.293 327.441 370.704 327.782C371.115 328.123 371.32 328.582 371.32 329.161C371.32 329.819 371.026 330.356 370.438 330.771C369.855 331.186 368.961 331.394 367.757 331.394ZM367.988 330.561C368.655 330.561 369.166 330.461 369.521 330.26C369.88 330.059 370.06 329.756 370.06 329.35C370.06 329.061 369.95 328.825 369.731 328.643C369.512 328.456 369.18 328.349 368.737 328.321L366.707 328.188C366.525 328.179 366.336 328.225 366.14 328.328C365.944 328.426 365.778 328.564 365.643 328.741C365.508 328.918 365.44 329.119 365.44 329.343C365.44 329.726 365.648 330.024 366.063 330.239C366.478 330.454 367.12 330.561 367.988 330.561ZM367.771 325.395C368.289 325.395 368.707 325.274 369.024 325.031C369.346 324.788 369.507 324.429 369.507 323.953C369.507 323.463 369.346 323.09 369.024 322.833C368.707 322.576 368.289 322.448 367.771 322.448C367.239 322.448 366.81 322.579 366.483 322.84C366.161 323.097 366 323.468 366 323.953C366 324.41 366.154 324.765 366.462 325.017C366.775 325.269 367.211 325.395 367.771 325.395ZM376.086 329.14C375.419 329.14 374.836 328.998 374.336 328.713C373.842 328.424 373.457 328.001 373.181 327.446C372.906 326.891 372.768 326.212 372.768 325.409C372.768 324.653 372.897 323.99 373.153 323.421C373.41 322.852 373.786 322.411 374.28 322.098C374.775 321.781 375.379 321.622 376.093 321.622C376.761 321.622 377.339 321.769 377.829 322.063C378.319 322.352 378.7 322.779 378.97 323.344C379.246 323.909 379.383 324.597 379.383 325.409C379.383 326.146 379.257 326.795 379.005 327.355C378.753 327.915 378.382 328.354 377.892 328.671C377.407 328.984 376.805 329.14 376.086 329.14ZM376.093 328.118C376.523 328.118 376.887 328.008 377.185 327.789C377.484 327.57 377.71 327.255 377.864 326.844C378.023 326.433 378.102 325.946 378.102 325.381C378.102 324.863 378.032 324.399 377.892 323.988C377.757 323.573 377.542 323.244 377.248 323.001C376.954 322.758 376.569 322.637 376.093 322.637C375.655 322.637 375.284 322.747 374.98 322.966C374.677 323.181 374.446 323.493 374.287 323.904C374.133 324.315 374.056 324.807 374.056 325.381C374.056 325.89 374.124 326.352 374.259 326.767C374.399 327.182 374.619 327.511 374.917 327.754C375.221 327.997 375.613 328.118 376.093 328.118ZM381.104 329V321.762H382.336V323.155C382.458 322.81 382.628 322.525 382.847 322.301C383.067 322.072 383.316 321.902 383.596 321.79C383.881 321.678 384.175 321.622 384.478 321.622C384.586 321.622 384.691 321.629 384.793 321.643C384.896 321.657 384.975 321.68 385.031 321.713V322.966C384.961 322.933 384.87 322.912 384.758 322.903C384.651 322.889 384.56 322.882 384.485 322.882C384.196 322.863 383.925 322.882 383.673 322.938C383.421 322.989 383.2 323.08 383.008 323.211C382.817 323.342 382.665 323.514 382.553 323.729C382.446 323.939 382.392 324.196 382.392 324.499V329H381.104ZM387.472 331.31C387.047 331.31 386.755 331.28 386.597 331.219C386.438 331.158 386.359 331.128 386.359 331.128V330.288L387.101 330.302C387.367 330.311 387.588 330.293 387.766 330.246C387.943 330.199 388.085 330.136 388.193 330.057C388.3 329.978 388.382 329.889 388.438 329.791C388.498 329.693 388.547 329.6 388.585 329.511L388.837 328.825L386.009 321.762H387.318L389.453 327.348L391.574 321.762H392.841L389.796 329.546C389.604 330.003 389.392 330.36 389.159 330.617C388.93 330.874 388.673 331.053 388.389 331.156C388.109 331.259 387.803 331.31 387.472 331.31Z" fill="black"/>
<path d="M294.5 65C295.052 65 295.5 64.5523 295.5 64C295.5 63.4477 295.052 63 294.5 63V64V65ZM271.5 63C270.948 63 270.5 63.4477 270.5 64C270.5 64.5523 270.948 65 271.5 65V64V63ZM154.5 65C155.052 65 155.5 64.5523 155.5 64C155.5 63.4477 155.052 63 154.5 63V64V65ZM130.793 63.2929C130.402 63.6834 130.402 64.3166 130.793 64.7071L137.157 71.0711C137.547 71.4616 138.181 71.4616 138.571 71.0711C138.962 70.6805 138.962 70.0474 138.571 69.6569L132.914 64L138.571 58.3431C138.962 57.9526 138.962 57.3195 138.571 56.9289C138.181 56.5384 137.547 56.5384 137.157 56.9289L130.793 63.2929ZM294.5 64V63H271.5V64V65H294.5V64ZM154.5 64V63H131.5V64V65H154.5V64Z" fill="black" fill-opacity="0.8"/>
<path d="M164.499 68.5568C164.188 68.5568 163.921 68.447 163.698 68.2273C163.474 68.0038 163.362 67.7348 163.362 67.4205C163.362 67.1098 163.474 66.8447 163.698 66.625C163.921 66.4015 164.188 66.2898 164.499 66.2898C164.809 66.2898 165.076 66.4015 165.3 66.625C165.523 66.8447 165.635 67.1098 165.635 67.4205C165.635 67.6288 165.582 67.8201 165.476 67.9943C165.374 68.1648 165.237 68.3011 165.067 68.4034C164.896 68.5057 164.707 68.5568 164.499 68.5568ZM164.499 62.7273C164.188 62.7273 163.921 62.6174 163.698 62.3977C163.474 62.1742 163.362 61.9053 163.362 61.5909C163.362 61.2803 163.474 61.0152 163.698 60.7955C163.921 60.572 164.188 60.4602 164.499 60.4602C164.809 60.4602 165.076 60.572 165.3 60.7955C165.523 61.0152 165.635 61.2803 165.635 61.5909C165.635 61.7992 165.582 61.9905 165.476 62.1648C165.374 62.3352 165.237 62.4716 165.067 62.5739C164.896 62.6761 164.707 62.7273 164.499 62.7273ZM167.871 70V58.3636H172.019C172.924 58.3636 173.674 58.5284 174.269 58.858C174.863 59.1875 175.308 59.6383 175.604 60.2102C175.899 60.7784 176.047 61.4186 176.047 62.1307C176.047 62.8466 175.897 63.4905 175.598 64.0625C175.303 64.6307 174.856 65.0814 174.257 65.4148C173.663 65.7443 172.915 65.9091 172.013 65.9091H169.161V64.4205H171.854C172.426 64.4205 172.89 64.322 173.246 64.125C173.602 63.9242 173.863 63.6515 174.03 63.3068C174.197 62.9621 174.28 62.5701 174.28 62.1307C174.28 61.6913 174.197 61.3011 174.03 60.9602C173.863 60.6193 173.6 60.3523 173.24 60.1591C172.884 59.9659 172.415 59.8693 171.831 59.8693H169.627V70H167.871ZM185.412 58.3636H187.174V66.017C187.174 66.8314 186.982 67.553 186.6 68.1818C186.217 68.8068 185.679 69.2992 184.986 69.6591C184.293 70.0152 183.48 70.1932 182.549 70.1932C181.621 70.1932 180.81 70.0152 180.117 69.6591C179.424 69.2992 178.886 68.8068 178.503 68.1818C178.121 67.553 177.929 66.8314 177.929 66.017V58.3636H179.685V65.875C179.685 66.4015 179.801 66.8693 180.032 67.2784C180.266 67.6875 180.598 68.0095 181.026 68.2443C181.454 68.4754 181.962 68.5909 182.549 68.5909C183.14 68.5909 183.649 68.4754 184.077 68.2443C184.509 68.0095 184.838 67.6875 185.066 67.2784C185.297 66.8693 185.412 66.4015 185.412 65.875V58.3636ZM189.55 70V58.3636H193.698C194.599 58.3636 195.348 58.5189 195.942 58.8295C196.541 59.1402 196.988 59.5701 197.283 60.1193C197.579 60.6648 197.726 61.2955 197.726 62.0114C197.726 62.7235 197.577 63.3504 197.277 63.892C196.982 64.4299 196.535 64.8485 195.937 65.1477C195.342 65.447 194.594 65.5966 193.692 65.5966H190.55V64.0852H193.533C194.101 64.0852 194.563 64.0038 194.92 63.8409C195.279 63.678 195.543 63.4413 195.709 63.1307C195.876 62.8201 195.959 62.447 195.959 62.0114C195.959 61.572 195.874 61.1913 195.704 60.8693C195.537 60.5473 195.274 60.3011 194.914 60.1307C194.558 59.9564 194.09 59.8693 193.51 59.8693H191.306V70H189.55ZM195.295 64.75L198.17 70H196.17L193.351 64.75H195.295ZM209.351 62.1477H207.579C207.511 61.7689 207.384 61.4356 207.198 61.1477C207.012 60.8598 206.785 60.6155 206.516 60.4148C206.247 60.214 205.946 60.0625 205.613 59.9602C205.283 59.858 204.933 59.8068 204.562 59.8068C203.891 59.8068 203.291 59.9754 202.761 60.3125C202.234 60.6496 201.817 61.1439 201.511 61.7955C201.208 62.447 201.056 63.2424 201.056 64.1818C201.056 65.1288 201.208 65.928 201.511 66.5795C201.817 67.2311 202.236 67.7235 202.766 68.0568C203.297 68.3902 203.893 68.5568 204.556 68.5568C204.923 68.5568 205.272 68.5076 205.601 68.4091C205.935 68.3068 206.236 68.1572 206.505 67.9602C206.774 67.7633 207.001 67.5227 207.187 67.2386C207.376 66.9508 207.507 66.6212 207.579 66.25L209.351 66.2557C209.257 66.8277 209.073 67.3542 208.8 67.8352C208.531 68.3125 208.185 68.7254 207.761 69.0739C207.34 69.4186 206.859 69.6856 206.317 69.875C205.776 70.0644 205.185 70.1591 204.545 70.1591C203.537 70.1591 202.639 69.9205 201.851 69.4432C201.064 68.9621 200.442 68.2746 199.988 67.3807C199.537 66.4867 199.312 65.4205 199.312 64.1818C199.312 62.9394 199.539 61.8731 199.994 60.983C200.448 60.089 201.069 59.4034 201.857 58.9261C202.645 58.4451 203.541 58.2045 204.545 58.2045C205.162 58.2045 205.738 58.2936 206.272 58.4716C206.81 58.6458 207.293 58.9034 207.721 59.2443C208.149 59.5814 208.503 59.9943 208.783 60.483C209.064 60.9678 209.253 61.5227 209.351 62.1477ZM211.276 70V58.3636H213.032V63.4205H218.833V58.3636H220.595V70H218.833V64.9261H213.032V70H211.276ZM223.958 70H222.095L226.282 58.3636H228.311L232.498 70H230.634L227.345 60.4773H227.254L223.958 70ZM224.271 65.4432H230.316V66.9205H224.271V65.4432ZM240.255 61.4205C240.195 60.8826 239.945 60.4659 239.505 60.1705C239.066 59.8712 238.513 59.7216 237.846 59.7216C237.369 59.7216 236.956 59.7973 236.608 59.9489C236.259 60.0966 235.988 60.3011 235.795 60.5625C235.606 60.8201 235.511 61.1136 235.511 61.4432C235.511 61.7197 235.575 61.9583 235.704 62.1591C235.837 62.3598 236.009 62.5284 236.221 62.6648C236.437 62.7973 236.668 62.9091 236.914 63C237.161 63.0871 237.397 63.1591 237.625 63.2159L238.761 63.5114C239.132 63.6023 239.513 63.7254 239.903 63.8807C240.293 64.036 240.655 64.2405 240.988 64.4943C241.322 64.7481 241.591 65.0625 241.795 65.4375C242.003 65.8125 242.108 66.2614 242.108 66.7841C242.108 67.4432 241.937 68.0284 241.596 68.5398C241.259 69.0511 240.769 69.4545 240.125 69.75C239.484 70.0455 238.71 70.1932 237.801 70.1932C236.93 70.1932 236.176 70.0549 235.539 69.7784C234.903 69.5019 234.405 69.1098 234.045 68.6023C233.685 68.0909 233.486 67.4848 233.448 66.7841H235.21C235.244 67.2045 235.38 67.5549 235.619 67.8352C235.861 68.1117 236.17 68.3182 236.545 68.4545C236.924 68.5871 237.339 68.6534 237.789 68.6534C238.286 68.6534 238.727 68.5758 239.113 68.4205C239.503 68.2614 239.81 68.0417 240.034 67.7614C240.257 67.4773 240.369 67.1458 240.369 66.767C240.369 66.4223 240.27 66.1402 240.073 65.9205C239.88 65.7008 239.617 65.5189 239.284 65.375C238.954 65.2311 238.581 65.1042 238.164 64.9943L236.789 64.6193C235.858 64.3655 235.119 63.9924 234.573 63.5C234.032 63.0076 233.761 62.3561 233.761 61.5455C233.761 60.875 233.943 60.2898 234.306 59.7898C234.67 59.2898 235.163 58.9015 235.784 58.625C236.405 58.3447 237.106 58.2045 237.886 58.2045C238.674 58.2045 239.369 58.3428 239.971 58.6193C240.577 58.8958 241.055 59.2765 241.403 59.7614C241.752 60.2424 241.933 60.7955 241.948 61.4205H240.255ZM244.03 70V58.3636H251.325V59.875H245.785V63.4205H250.944V64.9261H245.785V68.4886H251.393V70H244.03ZM257.261 70H253.494V58.3636H257.381C258.521 58.3636 259.5 58.5966 260.318 59.0625C261.136 59.5246 261.763 60.1894 262.199 61.0568C262.638 61.9205 262.858 62.9564 262.858 64.1648C262.858 65.3769 262.636 66.4186 262.193 67.2898C261.754 68.161 261.117 68.8314 260.284 69.3011C259.451 69.767 258.443 70 257.261 70ZM255.25 68.4659H257.165C258.051 68.4659 258.788 68.2992 259.375 67.9659C259.962 67.6288 260.401 67.142 260.693 66.5057C260.985 65.8655 261.131 65.0852 261.131 64.1648C261.131 63.2519 260.985 62.4773 260.693 61.8409C260.405 61.2045 259.975 60.7216 259.403 60.392C258.831 60.0625 258.121 59.8977 257.273 59.8977H255.25V68.4659Z" fill="black" fill-opacity="0.8"/>
<path d="M65 131.5C65 130.948 64.5523 130.5 64 130.5C63.4477 130.5 63 130.948 63 131.5H64H65ZM63 174.5C63 175.052 63.4477 175.5 64 175.5C64.5523 175.5 65 175.052 65 174.5H64H63ZM65 213.5C65 212.948 64.5523 212.5 64 212.5C63.4477 212.5 63 212.948 63 213.5H64H65ZM63.2929 257.207C63.6834 257.598 64.3166 257.598 64.7071 257.207L71.0711 250.843C71.4616 250.453 71.4616 249.819 71.0711 249.429C70.6805 249.038 70.0474 249.038 69.6569 249.429L64 255.086L58.3431 249.429C57.9526 249.038 57.3195 249.038 56.9289 249.429C56.5384 249.819 56.5384 250.453 56.9289 250.843L63.2929 257.207ZM64 131.5H63V174.5H64H65V131.5H64ZM64 213.5H63V256.5H64H65V213.5H64Z" fill="black" fill-opacity="0.8"/>
<path d="M32.3206 198.557C32.01 198.557 31.743 198.447 31.5195 198.227C31.296 198.004 31.1842 197.735 31.1842 197.42C31.1842 197.11 31.296 196.845 31.5195 196.625C31.743 196.402 32.01 196.29 32.3206 196.29C32.6312 196.29 32.8983 196.402 33.1217 196.625C33.3452 196.845 33.457 197.11 33.457 197.42C33.457 197.629 33.4039 197.82 33.2979 197.994C33.1956 198.165 33.0592 198.301 32.8888 198.403C32.7183 198.506 32.5289 198.557 32.3206 198.557ZM32.3206 192.727C32.01 192.727 31.743 192.617 31.5195 192.398C31.296 192.174 31.1842 191.905 31.1842 191.591C31.1842 191.28 31.296 191.015 31.5195 190.795C31.743 190.572 32.01 190.46 32.3206 190.46C32.6312 190.46 32.8983 190.572 33.1217 190.795C33.3452 191.015 33.457 191.28 33.457 191.591C33.457 191.799 33.4039 191.991 33.2979 192.165C33.1956 192.335 33.0592 192.472 32.8888 192.574C32.7183 192.676 32.5289 192.727 32.3206 192.727ZM45.8009 194.182C45.8009 195.424 45.5736 196.492 45.119 197.386C44.6645 198.277 44.0414 198.962 43.2497 199.443C42.4618 199.92 41.566 200.159 40.5622 200.159C39.5547 200.159 38.655 199.92 37.8634 199.443C37.0755 198.962 36.4543 198.275 35.9997 197.381C35.5452 196.487 35.3179 195.42 35.3179 194.182C35.3179 192.939 35.5452 191.873 35.9997 190.983C36.4543 190.089 37.0755 189.403 37.8634 188.926C38.655 188.445 39.5547 188.205 40.5622 188.205C41.566 188.205 42.4618 188.445 43.2497 188.926C44.0414 189.403 44.6645 190.089 45.119 190.983C45.5736 191.873 45.8009 192.939 45.8009 194.182ZM44.0622 194.182C44.0622 193.235 43.9088 192.437 43.602 191.79C43.299 191.138 42.8823 190.646 42.352 190.312C41.8255 189.975 41.2289 189.807 40.5622 189.807C39.8918 189.807 39.2933 189.975 38.7668 190.312C38.2403 190.646 37.8236 191.138 37.5168 191.79C37.2137 192.437 37.0622 193.235 37.0622 194.182C37.0622 195.129 37.2137 195.928 37.5168 196.58C37.8236 197.227 38.2403 197.72 38.7668 198.057C39.2933 198.39 39.8918 198.557 40.5622 198.557C41.2289 198.557 41.8255 198.39 42.352 198.057C42.8823 197.72 43.299 197.227 43.602 196.58C43.9088 195.928 44.0622 195.129 44.0622 194.182ZM47.8138 200V188.364H51.9615C52.863 188.364 53.6111 188.519 54.2058 188.83C54.8043 189.14 55.2513 189.57 55.5467 190.119C55.8422 190.665 55.9899 191.295 55.9899 192.011C55.9899 192.723 55.8403 193.35 55.5411 193.892C55.2456 194.43 54.7986 194.848 54.2001 195.148C53.6055 195.447 52.8573 195.597 51.9558 195.597H48.8138V194.085H51.7967C52.3649 194.085 52.827 194.004 53.1831 193.841C53.543 193.678 53.8062 193.441 53.9729 193.131C54.1395 192.82 54.2229 192.447 54.2229 192.011C54.2229 191.572 54.1376 191.191 53.9672 190.869C53.8005 190.547 53.5373 190.301 53.1774 190.131C52.8214 189.956 52.3536 189.869 51.774 189.869H49.5695V200H47.8138ZM53.5581 194.75L56.4331 200H54.4331L51.6149 194.75H53.5581ZM61.7173 200H57.9503V188.364H61.8366C62.9768 188.364 63.956 188.597 64.7741 189.062C65.5923 189.525 66.2192 190.189 66.6548 191.057C67.0942 191.92 67.3139 192.956 67.3139 194.165C67.3139 195.377 67.0923 196.419 66.6491 197.29C66.2098 198.161 65.5734 198.831 64.7401 199.301C63.9067 199.767 62.8991 200 61.7173 200ZM59.706 198.466H61.6207C62.5071 198.466 63.2438 198.299 63.831 197.966C64.4181 197.629 64.8575 197.142 65.1491 196.506C65.4408 195.866 65.5866 195.085 65.5866 194.165C65.5866 193.252 65.4408 192.477 65.1491 191.841C64.8613 191.205 64.4313 190.722 63.8594 190.392C63.2874 190.062 62.5772 189.898 61.7287 189.898H59.706V198.466ZM69.3212 200V188.364H76.6166V189.875H71.0768V193.42H76.2359V194.926H71.0768V198.489H76.6848V200H69.3212ZM78.7858 200V188.364H82.9335C83.835 188.364 84.5831 188.519 85.1778 188.83C85.7763 189.14 86.2233 189.57 86.5187 190.119C86.8142 190.665 86.9619 191.295 86.9619 192.011C86.9619 192.723 86.8123 193.35 86.5131 193.892C86.2176 194.43 85.7706 194.848 85.1721 195.148C84.5774 195.447 83.8293 195.597 82.9278 195.597H79.7858V194.085H82.7687C83.3369 194.085 83.799 194.004 84.1551 193.841C84.5149 193.678 84.7782 193.441 84.9449 193.131C85.1115 192.82 85.1949 192.447 85.1949 192.011C85.1949 191.572 85.1096 191.191 84.9392 190.869C84.7725 190.547 84.5093 190.301 84.1494 190.131C83.7934 189.956 83.3256 189.869 82.746 189.869H80.5415V200H78.7858ZM84.5301 194.75L87.4051 200H85.4051L82.5869 194.75H84.5301ZM95.2689 191.42C95.2083 190.883 94.9583 190.466 94.5189 190.17C94.0795 189.871 93.5265 189.722 92.8598 189.722C92.3825 189.722 91.9696 189.797 91.6211 189.949C91.2727 190.097 91.0018 190.301 90.8086 190.562C90.6193 190.82 90.5246 191.114 90.5246 191.443C90.5246 191.72 90.589 191.958 90.7177 192.159C90.8503 192.36 91.0227 192.528 91.2348 192.665C91.4507 192.797 91.6818 192.909 91.928 193C92.1742 193.087 92.4109 193.159 92.6382 193.216L93.7746 193.511C94.1458 193.602 94.5265 193.725 94.9166 193.881C95.3068 194.036 95.6685 194.241 96.0018 194.494C96.3352 194.748 96.6041 195.062 96.8086 195.438C97.017 195.812 97.1211 196.261 97.1211 196.784C97.1211 197.443 96.9507 198.028 96.6098 198.54C96.2727 199.051 95.7821 199.455 95.1382 199.75C94.498 200.045 93.7234 200.193 92.8143 200.193C91.9431 200.193 91.1893 200.055 90.553 199.778C89.9166 199.502 89.4185 199.11 89.0586 198.602C88.6988 198.091 88.4999 197.485 88.4621 196.784H90.2234C90.2575 197.205 90.3939 197.555 90.6325 197.835C90.8749 198.112 91.1836 198.318 91.5586 198.455C91.9374 198.587 92.3522 198.653 92.803 198.653C93.2992 198.653 93.7405 198.576 94.1268 198.42C94.517 198.261 94.8238 198.042 95.0473 197.761C95.2708 197.477 95.3825 197.146 95.3825 196.767C95.3825 196.422 95.284 196.14 95.0871 195.92C94.8939 195.701 94.6306 195.519 94.2973 195.375C93.9677 195.231 93.5946 195.104 93.178 194.994L91.803 194.619C90.8711 194.366 90.1325 193.992 89.5871 193.5C89.0454 193.008 88.7746 192.356 88.7746 191.545C88.7746 190.875 88.9564 190.29 89.32 189.79C89.6836 189.29 90.1761 188.902 90.7973 188.625C91.4185 188.345 92.1193 188.205 92.8996 188.205C93.6874 188.205 94.3825 188.343 94.9848 188.619C95.5908 188.896 96.0681 189.277 96.4166 189.761C96.7651 190.242 96.9469 190.795 96.9621 191.42H95.2689Z" fill="black" fill-opacity="0.8"/>
<path d="M131.5 323C130.948 323 130.5 323.448 130.5 324C130.5 324.552 130.948 325 131.5 325V324V323ZM169.5 325C170.052 325 170.5 324.552 170.5 324C170.5 323.448 170.052 323 169.5 323V324V325ZM256.5 323C255.948 323 255.5 323.448 255.5 324C255.5 324.552 255.948 325 256.5 325V324V323ZM295.207 324.707C295.598 324.317 295.598 323.683 295.207 323.293L288.843 316.929C288.453 316.538 287.819 316.538 287.429 316.929C287.038 317.319 287.038 317.953 287.429 318.343L293.086 324L287.429 329.657C287.038 330.047 287.038 330.681 287.429 331.071C287.819 331.462 288.453 331.462 288.843 331.071L295.207 324.707ZM131.5 324V325H169.5V324V323H131.5V324ZM256.5 324V325H294.5V324V323H256.5V324Z" fill="black" fill-opacity="0.8"/>
<path d="M179.401 328.557C179.09 328.557 178.823 328.447 178.6 328.227C178.376 328.004 178.264 327.735 178.264 327.42C178.264 327.11 178.376 326.845 178.6 326.625C178.823 326.402 179.09 326.29 179.401 326.29C179.711 326.29 179.978 326.402 180.202 326.625C180.425 326.845 180.537 327.11 180.537 327.42C180.537 327.629 180.484 327.82 180.378 327.994C180.276 328.165 180.139 328.301 179.969 328.403C179.799 328.506 179.609 328.557 179.401 328.557ZM179.401 322.727C179.09 322.727 178.823 322.617 178.6 322.398C178.376 322.174 178.264 321.905 178.264 321.591C178.264 321.28 178.376 321.015 178.6 320.795C178.823 320.572 179.09 320.46 179.401 320.46C179.711 320.46 179.978 320.572 180.202 320.795C180.425 321.015 180.537 321.28 180.537 321.591C180.537 321.799 180.484 321.991 180.378 322.165C180.276 322.335 180.139 322.472 179.969 322.574C179.799 322.676 179.609 322.727 179.401 322.727ZM182.773 330V318.364H186.921C187.826 318.364 188.576 318.528 189.171 318.858C189.766 319.187 190.211 319.638 190.506 320.21C190.802 320.778 190.949 321.419 190.949 322.131C190.949 322.847 190.8 323.491 190.5 324.062C190.205 324.631 189.758 325.081 189.159 325.415C188.565 325.744 187.817 325.909 186.915 325.909H184.063V324.42H186.756C187.328 324.42 187.792 324.322 188.148 324.125C188.504 323.924 188.766 323.652 188.932 323.307C189.099 322.962 189.182 322.57 189.182 322.131C189.182 321.691 189.099 321.301 188.932 320.96C188.766 320.619 188.502 320.352 188.142 320.159C187.786 319.966 187.317 319.869 186.733 319.869H184.529V330H182.773ZM192.58 330H190.716L194.904 318.364H196.932L201.12 330H199.256L195.966 320.477H195.876L192.58 330ZM192.893 325.443H198.938V326.92H192.893V325.443ZM202.624 330V318.364H206.772C207.673 318.364 208.422 318.519 209.016 318.83C209.615 319.14 210.062 319.57 210.357 320.119C210.653 320.665 210.8 321.295 210.8 322.011C210.8 322.723 210.651 323.35 210.351 323.892C210.056 324.43 209.609 324.848 209.011 325.148C208.416 325.447 207.668 325.597 206.766 325.597H203.624V324.085H206.607C207.175 324.085 207.637 324.004 207.994 323.841C208.353 323.678 208.617 323.441 208.783 323.131C208.95 322.82 209.033 322.447 209.033 322.011C209.033 321.572 208.948 321.191 208.778 320.869C208.611 320.547 208.348 320.301 207.988 320.131C207.632 319.956 207.164 319.869 206.584 319.869H204.38V330H202.624ZM208.369 324.75L211.244 330H209.244L206.425 324.75H208.369ZM212.187 319.875V318.364H221.193V319.875H217.562V330H215.812V319.875H212.187ZM228.197 330V331.443H220.805V330H228.197ZM238.751 324.182C238.751 325.424 238.524 326.492 238.069 327.386C237.615 328.277 236.992 328.962 236.2 329.443C235.412 329.92 234.516 330.159 233.512 330.159C232.505 330.159 231.605 329.92 230.814 329.443C230.026 328.962 229.404 328.275 228.95 327.381C228.495 326.487 228.268 325.42 228.268 324.182C228.268 322.939 228.495 321.873 228.95 320.983C229.404 320.089 230.026 319.403 230.814 318.926C231.605 318.445 232.505 318.205 233.512 318.205C234.516 318.205 235.412 318.445 236.2 318.926C236.992 319.403 237.615 320.089 238.069 320.983C238.524 321.873 238.751 322.939 238.751 324.182ZM237.012 324.182C237.012 323.235 236.859 322.437 236.552 321.79C236.249 321.138 235.832 320.646 235.302 320.312C234.776 319.975 234.179 319.807 233.512 319.807C232.842 319.807 232.243 319.975 231.717 320.312C231.19 320.646 230.774 321.138 230.467 321.79C230.164 322.437 230.012 323.235 230.012 324.182C230.012 325.129 230.164 325.928 230.467 326.58C230.774 327.227 231.19 327.72 231.717 328.057C232.243 328.39 232.842 328.557 233.512 328.557C234.179 328.557 234.776 328.39 235.302 328.057C235.832 327.72 236.249 327.227 236.552 326.58C236.859 325.928 237.012 325.129 237.012 324.182ZM240.764 330V318.364H247.98V319.875H242.52V323.42H247.463V324.926H242.52V330H240.764Z" fill="black" fill-opacity="0.8"/>
<path d="M63 516.5C63 517.052 63.4477 517.5 64 517.5C64.5523 517.5 65 517.052 65 516.5H64H63ZM65 473.5C65 472.948 64.5523 472.5 64 472.5C63.4477 472.5 63 472.948 63 473.5H64H65ZM63 434.5C63 435.052 63.4477 435.5 64 435.5C64.5523 435.5 65 435.052 65 434.5H64H63ZM64.7071 390.793C64.3166 390.402 63.6834 390.402 63.2929 390.793L56.9289 397.157C56.5384 397.547 56.5384 398.181 56.9289 398.571C57.3195 398.962 57.9526 398.962 58.3431 398.571L64 392.914L69.6569 398.571C70.0474 398.962 70.6805 398.962 71.0711 398.571C71.4616 398.181 71.4616 397.547 71.0711 397.157L64.7071 390.793ZM64 516.5H65V473.5H64H63V516.5H64ZM64 434.5H65V391.5H64H63V434.5H64Z" fill="black" fill-opacity="0.8"/>
<path d="M26.7779 458.557C26.4673 458.557 26.2002 458.447 25.9767 458.227C25.7532 458.004 25.6415 457.735 25.6415 457.42C25.6415 457.11 25.7532 456.845 25.9767 456.625C26.2002 456.402 26.4673 456.29 26.7779 456.29C27.0885 456.29 27.3555 456.402 27.579 456.625C27.8025 456.845 27.9142 457.11 27.9142 457.42C27.9142 457.629 27.8612 457.82 27.7551 457.994C27.6529 458.165 27.5165 458.301 27.346 458.403C27.1756 458.506 26.9862 458.557 26.7779 458.557ZM26.7779 452.727C26.4673 452.727 26.2002 452.617 25.9767 452.398C25.7532 452.174 25.6415 451.905 25.6415 451.591C25.6415 451.28 25.7532 451.015 25.9767 450.795C26.2002 450.572 26.4673 450.46 26.7779 450.46C27.0885 450.46 27.3555 450.572 27.579 450.795C27.8025 451.015 27.9142 451.28 27.9142 451.591C27.9142 451.799 27.8612 451.991 27.7551 452.165C27.6529 452.335 27.5165 452.472 27.346 452.574C27.1756 452.676 26.9862 452.727 26.7779 452.727ZM36.4967 451.42C36.4361 450.883 36.1861 450.466 35.7467 450.17C35.3074 449.871 34.7543 449.722 34.0877 449.722C33.6104 449.722 33.1975 449.797 32.849 449.949C32.5005 450.097 32.2297 450.301 32.0365 450.562C31.8471 450.82 31.7524 451.114 31.7524 451.443C31.7524 451.72 31.8168 451.958 31.9456 452.159C32.0782 452.36 32.2505 452.528 32.4627 452.665C32.6786 452.797 32.9096 452.909 33.1558 453C33.4021 453.087 33.6388 453.159 33.8661 453.216L35.0024 453.511C35.3736 453.602 35.7543 453.725 36.1445 453.881C36.5346 454.036 36.8964 454.241 37.2297 454.494C37.563 454.748 37.832 455.062 38.0365 455.438C38.2449 455.812 38.349 456.261 38.349 456.784C38.349 457.443 38.1786 458.028 37.8377 458.54C37.5005 459.051 37.01 459.455 36.3661 459.75C35.7259 460.045 34.9513 460.193 34.0422 460.193C33.171 460.193 32.4172 460.055 31.7808 459.778C31.1445 459.502 30.6464 459.11 30.2865 458.602C29.9267 458.091 29.7278 457.485 29.6899 456.784H31.4513C31.4854 457.205 31.6217 457.555 31.8604 457.835C32.1028 458.112 32.4115 458.318 32.7865 458.455C33.1653 458.587 33.5801 458.653 34.0308 458.653C34.5271 458.653 34.9683 458.576 35.3547 458.42C35.7449 458.261 36.0517 458.042 36.2752 457.761C36.4986 457.477 36.6104 457.146 36.6104 456.767C36.6104 456.422 36.5119 456.14 36.3149 455.92C36.1217 455.701 35.8585 455.519 35.5252 455.375C35.1956 455.231 34.8225 455.104 34.4058 454.994L33.0308 454.619C32.099 454.366 31.3604 453.992 30.8149 453.5C30.2733 453.008 30.0024 452.356 30.0024 451.545C30.0024 450.875 30.1842 450.29 30.5479 449.79C30.9115 449.29 31.4039 448.902 32.0252 448.625C32.6464 448.345 33.3471 448.205 34.1274 448.205C34.9153 448.205 35.6104 448.343 36.2127 448.619C36.8187 448.896 37.296 449.277 37.6445 449.761C37.993 450.242 38.1748 450.795 38.1899 451.42H36.4967ZM47.754 448.364H49.5154V456.017C49.5154 456.831 49.3241 457.553 48.9415 458.182C48.5589 458.807 48.021 459.299 47.3279 459.659C46.6347 460.015 45.8222 460.193 44.8904 460.193C43.9623 460.193 43.1517 460.015 42.4585 459.659C41.7654 459.299 41.2275 458.807 40.8449 458.182C40.4623 457.553 40.271 456.831 40.271 456.017V448.364H42.0267V455.875C42.0267 456.402 42.1422 456.869 42.3733 457.278C42.6082 457.688 42.9396 458.009 43.3676 458.244C43.7957 458.475 44.3032 458.591 44.8904 458.591C45.4813 458.591 45.9907 458.475 46.4188 458.244C46.8506 458.009 47.1801 457.688 47.4074 457.278C47.6385 456.869 47.754 456.402 47.754 455.875V448.364ZM51.8919 460V448.364H56.0396C56.9449 448.364 57.6949 448.528 58.2896 448.858C58.8843 449.187 59.3294 449.638 59.6249 450.21C59.9203 450.778 60.068 451.419 60.068 452.131C60.068 452.847 59.9184 453.491 59.6192 454.062C59.3237 454.631 58.8768 455.081 58.2783 455.415C57.6836 455.744 56.9355 455.909 56.034 455.909H53.1817V454.42H55.8749C56.4468 454.42 56.9108 454.322 57.2669 454.125C57.623 453.924 57.8843 453.652 58.051 453.307C58.2177 452.962 58.301 452.57 58.301 452.131C58.301 451.691 58.2177 451.301 58.051 450.96C57.8843 450.619 57.6211 450.352 57.2612 450.159C56.9052 449.966 56.4355 449.869 55.8521 449.869H53.6476V460H51.8919ZM61.9503 460V448.364H66.098C67.0033 448.364 67.7533 448.528 68.348 448.858C68.9427 449.187 69.3878 449.638 69.6832 450.21C69.9787 450.778 70.1264 451.419 70.1264 452.131C70.1264 452.847 69.9768 453.491 69.6776 454.062C69.3821 454.631 68.9351 455.081 68.3366 455.415C67.742 455.744 66.9938 455.909 66.0923 455.909H63.2401V454.42H65.9332C66.5052 454.42 66.9692 454.322 67.3253 454.125C67.6813 453.924 67.9427 453.652 68.1094 453.307C68.276 452.962 68.3594 452.57 68.3594 452.131C68.3594 451.691 68.276 451.301 68.1094 450.96C67.9427 450.619 67.6795 450.352 67.3196 450.159C66.9635 449.966 66.4938 449.869 65.9105 449.869H63.706V460H61.9503ZM72.0087 460V448.364H73.7643V458.489H79.0371V460H72.0087ZM82.6196 448.364V460H80.8639V448.364H82.6196ZM85.0004 460V448.364H92.2959V449.875H86.7561V453.42H91.9152V454.926H86.7561V458.489H92.364V460H85.0004ZM100.812 451.42C100.751 450.883 100.501 450.466 100.062 450.17C99.6222 449.871 99.0692 449.722 98.4025 449.722C97.9253 449.722 97.5124 449.797 97.1639 449.949C96.8154 450.097 96.5446 450.301 96.3514 450.562C96.162 450.82 96.0673 451.114 96.0673 451.443C96.0673 451.72 96.1317 451.958 96.2605 452.159C96.3931 452.36 96.5654 452.528 96.7775 452.665C96.9934 452.797 97.2245 452.909 97.4707 453C97.7169 453.087 97.9537 453.159 98.1809 453.216L99.3173 453.511C99.6885 453.602 100.069 453.725 100.459 453.881C100.85 454.036 101.211 454.241 101.545 454.494C101.878 454.748 102.147 455.062 102.351 455.438C102.56 455.812 102.664 456.261 102.664 456.784C102.664 457.443 102.493 458.028 102.153 458.54C101.815 459.051 101.325 459.455 100.681 459.75C100.041 460.045 99.2662 460.193 98.3571 460.193C97.4859 460.193 96.7321 460.055 96.0957 459.778C95.4594 459.502 94.9613 459.11 94.6014 458.602C94.2416 458.091 94.0427 457.485 94.0048 456.784H95.7662C95.8003 457.205 95.9366 457.555 96.1753 457.835C96.4177 458.112 96.7264 458.318 97.1014 458.455C97.4802 458.587 97.895 458.653 98.3457 458.653C98.8419 458.653 99.2832 458.576 99.6696 458.42C100.06 458.261 100.367 458.042 100.59 457.761C100.814 457.477 100.925 457.146 100.925 456.767C100.925 456.422 100.827 456.14 100.63 455.92C100.437 455.701 100.173 455.519 99.84 455.375C99.5105 455.231 99.1374 455.104 98.7207 454.994L97.3457 454.619C96.4139 454.366 95.6753 453.992 95.1298 453.5C94.5881 453.008 94.3173 452.356 94.3173 451.545C94.3173 450.875 94.4991 450.29 94.8628 449.79C95.2264 449.29 95.7188 448.902 96.34 448.625C96.9613 448.345 97.662 448.205 98.4423 448.205C99.2302 448.205 99.9253 448.343 100.528 448.619C101.134 448.896 101.611 449.277 101.959 449.761C102.308 450.242 102.49 450.795 102.505 451.42H100.812Z" fill="black" fill-opacity="0.8"/>
</svg>
