<svg width="426" height="648" viewBox="0 0 426 648" fill="none" xmlns="http://www.w3.org/2000/svg">
<path d="M0 324C0 288.654 28.6538 260 64 260V260C99.3462 260 128 288.654 128 324V324C128 359.346 99.3462 388 64 388V388C28.6538 388 0 359.346 0 324V324Z" fill="#C990C0"/>
<path d="M39.6407 329V318.878H43.0637C43.787 318.878 44.431 318.999 44.9957 319.242C45.5604 319.485 46.0037 319.844 46.3257 320.32C46.6524 320.796 46.8157 321.382 46.8157 322.077C46.8157 322.749 46.664 323.323 46.3607 323.799C46.062 324.275 45.6444 324.637 45.1077 324.884C44.571 325.131 43.948 325.255 43.2387 325.255H40.9707V329H39.6407ZM40.9637 324.163H43.2107C43.906 324.163 44.4707 323.969 44.9047 323.582C45.3387 323.195 45.5557 322.667 45.5557 322C45.5557 321.328 45.3317 320.819 44.8837 320.474C44.4357 320.129 43.857 319.956 43.1477 319.956H40.9637V324.163ZM48.2888 329V321.762H49.5208V323.155C49.6421 322.81 49.8124 322.525 50.0318 322.301C50.2511 322.072 50.5008 321.902 50.7808 321.79C51.0654 321.678 51.3594 321.622 51.6628 321.622C51.7701 321.622 51.8751 321.629 51.9778 321.643C52.0804 321.657 52.1598 321.68 52.2158 321.713V322.966C52.1458 322.933 52.0548 322.912 51.9428 322.903C51.8354 322.889 51.7444 322.882 51.6698 322.882C51.3804 322.863 51.1098 322.882 50.8578 322.938C50.6058 322.989 50.3841 323.08 50.1928 323.211C50.0014 323.342 49.8498 323.514 49.7378 323.729C49.6304 323.939 49.5768 324.196 49.5768 324.499V329H48.2888ZM56.5461 329.14C55.8788 329.14 55.2955 328.998 54.7961 328.713C54.3015 328.424 53.9165 328.001 53.6411 327.446C53.3658 326.891 53.2281 326.212 53.2281 325.409C53.2281 324.653 53.3565 323.99 53.6131 323.421C53.8698 322.852 54.2455 322.411 54.7401 322.098C55.2348 321.781 55.8391 321.622 56.5531 321.622C57.2205 321.622 57.7991 321.769 58.2891 322.063C58.7791 322.352 59.1595 322.779 59.4301 323.344C59.7055 323.909 59.8431 324.597 59.8431 325.409C59.8431 326.146 59.7171 326.795 59.4651 327.355C59.2131 327.915 58.8421 328.354 58.3521 328.671C57.8668 328.984 57.2648 329.14 56.5461 329.14ZM56.5531 328.118C56.9825 328.118 57.3465 328.008 57.6451 327.789C57.9438 327.57 58.1701 327.255 58.3241 326.844C58.4828 326.433 58.5621 325.946 58.5621 325.381C58.5621 324.863 58.4921 324.399 58.3521 323.988C58.2168 323.573 58.0021 323.244 57.7081 323.001C57.4141 322.758 57.0291 322.637 56.5531 322.637C56.1145 322.637 55.7435 322.747 55.4401 322.966C55.1368 323.181 54.9058 323.493 54.7471 323.904C54.5931 324.315 54.5161 324.807 54.5161 325.381C54.5161 325.89 54.5838 326.352 54.7191 326.767C54.8591 327.182 55.0785 327.511 55.3771 327.754C55.6805 327.997 56.0725 328.118 56.5531 328.118ZM64.2032 329.14C63.2605 329.14 62.5138 328.818 61.9632 328.174C61.4172 327.53 61.1442 326.59 61.1442 325.353C61.1442 324.602 61.2538 323.946 61.4732 323.386C61.6925 322.826 62.0215 322.392 62.4602 322.084C62.8988 321.776 63.4448 321.622 64.0982 321.622C64.4482 321.622 64.7562 321.666 65.0222 321.755C65.2882 321.844 65.5192 321.956 65.7152 322.091C65.9112 322.226 66.0698 322.366 66.1912 322.511C66.3172 322.656 66.4105 322.789 66.4712 322.91V318.598H67.7802V329H66.7862L66.6462 327.516C66.5995 327.656 66.5248 327.819 66.4222 328.006C66.3195 328.188 66.1748 328.368 65.9882 328.545C65.8062 328.718 65.5682 328.86 65.2742 328.972C64.9802 329.084 64.6232 329.14 64.2032 329.14ZM64.4342 328.146C65.1622 328.146 65.6825 327.924 65.9952 327.481C66.3125 327.033 66.4712 326.303 66.4712 325.29C66.4665 324.725 66.3965 324.245 66.2612 323.848C66.1258 323.451 65.9112 323.15 65.6172 322.945C65.3278 322.735 64.9405 322.63 64.4552 322.63C63.8625 322.63 63.3795 322.842 63.0062 323.267C62.6328 323.692 62.4462 324.366 62.4462 325.29C62.4462 326.195 62.6142 326.898 62.9502 327.397C63.2862 327.896 63.7808 328.146 64.4342 328.146ZM72.5777 329.14C72.1997 329.135 71.8427 329.082 71.5067 328.979C71.1753 328.872 70.8813 328.715 70.6247 328.51C70.368 328.305 70.165 328.05 70.0157 327.747C69.871 327.439 69.7987 327.082 69.7987 326.676V321.762H71.0937V326.543C71.0937 327.014 71.2383 327.397 71.5277 327.691C71.8217 327.985 72.2627 328.132 72.8507 328.132C73.3827 328.132 73.8097 327.994 74.1317 327.719C74.4583 327.439 74.6217 327.024 74.6217 326.473V321.762H75.9097V329H74.8807L74.7477 327.614C74.659 327.978 74.5073 328.272 74.2927 328.496C74.0827 328.72 73.8283 328.886 73.5297 328.993C73.2357 329.096 72.9183 329.145 72.5777 329.14ZM80.9508 329.14C80.2974 329.14 79.7188 328.998 79.2148 328.713C78.7154 328.428 78.3234 328.008 78.0388 327.453C77.7588 326.898 77.6188 326.216 77.6188 325.409C77.6188 324.653 77.7471 323.993 78.0038 323.428C78.2651 322.859 78.6431 322.415 79.1378 322.098C79.6371 321.781 80.2414 321.622 80.9508 321.622C81.4688 321.622 81.9331 321.722 82.3438 321.923C82.7591 322.119 83.0998 322.399 83.3658 322.763C83.6318 323.127 83.7951 323.556 83.8558 324.051H82.7078C82.6658 323.799 82.5678 323.568 82.4138 323.358C82.2644 323.148 82.0661 322.98 81.8188 322.854C81.5761 322.728 81.2891 322.665 80.9578 322.665C80.3371 322.665 79.8308 322.889 79.4388 323.337C79.0514 323.785 78.8578 324.471 78.8578 325.395C78.8578 326.23 79.0351 326.9 79.3898 327.404C79.7491 327.903 80.2764 328.153 80.9718 328.153C81.3031 328.153 81.5924 328.09 81.8398 327.964C82.0871 327.833 82.2854 327.663 82.4348 327.453C82.5841 327.238 82.6798 327.01 82.7218 326.767H83.8488C83.7881 327.252 83.6224 327.672 83.3518 328.027C83.0858 328.382 82.7451 328.657 82.3298 328.853C81.9191 329.044 81.4594 329.14 80.9508 329.14ZM87.9789 329.035C87.4795 329.035 87.0922 328.967 86.8169 328.832C86.5415 328.697 86.3479 328.496 86.2359 328.23C86.1285 327.964 86.0749 327.637 86.0749 327.25V322.707H84.8989V321.762H86.1099L86.4249 319.655H87.3769V321.755H89.0079V322.707H87.3769V327.208C87.3769 327.465 87.4025 327.654 87.4539 327.775C87.5099 327.892 87.6009 327.966 87.7269 327.999C87.8529 328.032 88.0302 328.048 88.2589 328.048H89.0499V328.916C88.9612 328.949 88.8259 328.977 88.6439 329C88.4665 329.023 88.2449 329.035 87.9789 329.035Z" fill="black"/>
<path d="M0 584C0 548.654 28.6538 520 64 520V520C99.3462 520 128 548.654 128 584V584C128 619.346 99.3462 648 64 648V648C28.6538 648 0 619.346 0 584V584Z" fill="#F79767"/>
<path d="M41.1225 589.14C40.6278 589.14 40.1588 589.082 39.7155 588.965C39.2721 588.844 38.8685 588.664 38.5045 588.426C38.1451 588.188 37.8465 587.894 37.6085 587.544C37.3751 587.189 37.2281 586.779 37.1675 586.312H38.5255C38.6095 586.695 38.7751 587.017 39.0225 587.278C39.2745 587.539 39.5848 587.735 39.9535 587.866C40.3268 587.997 40.7351 588.062 41.1785 588.062C41.6078 588.062 42.0021 587.994 42.3615 587.859C42.7255 587.724 43.0171 587.528 43.2365 587.271C43.4558 587.01 43.5655 586.697 43.5655 586.333C43.5655 585.932 43.4348 585.61 43.1735 585.367C42.9121 585.12 42.5085 584.921 41.9625 584.772L39.8765 584.233C39.4051 584.116 38.9875 583.953 38.6235 583.743C38.2641 583.528 37.9818 583.248 37.7765 582.903C37.5711 582.553 37.4685 582.119 37.4685 581.601C37.4685 581.027 37.6271 580.528 37.9445 580.103C38.2618 579.674 38.6911 579.342 39.2325 579.109C39.7785 578.871 40.3945 578.752 41.0805 578.752C41.8738 578.752 42.5411 578.89 43.0825 579.165C43.6285 579.44 44.0415 579.802 44.3215 580.25C44.6015 580.698 44.7415 581.176 44.7415 581.685H43.4115C43.3695 581.223 43.2341 580.859 43.0055 580.593C42.7768 580.322 42.4921 580.129 42.1515 580.012C41.8108 579.891 41.4398 579.83 41.0385 579.83C40.3151 579.83 39.7668 579.996 39.3935 580.327C39.0248 580.654 38.8405 581.043 38.8405 581.496C38.8405 581.911 38.9735 582.238 39.2395 582.476C39.5055 582.714 39.8975 582.898 40.4155 583.029L42.4455 583.554C43.0475 583.694 43.5258 583.897 43.8805 584.163C44.2398 584.429 44.4965 584.739 44.6505 585.094C44.8091 585.444 44.8885 585.824 44.8885 586.235C44.8885 586.795 44.7321 587.294 44.4195 587.733C44.1068 588.172 43.6681 588.517 43.1035 588.769C42.5435 589.016 41.8831 589.14 41.1225 589.14ZM49.4654 589.14C49.0874 589.135 48.7304 589.082 48.3944 588.979C48.063 588.872 47.769 588.715 47.5124 588.51C47.2557 588.305 47.0527 588.05 46.9034 587.747C46.7587 587.439 46.6864 587.082 46.6864 586.676V581.762H47.9814V586.543C47.9814 587.014 48.126 587.397 48.4154 587.691C48.7094 587.985 49.1504 588.132 49.7384 588.132C50.2704 588.132 50.6974 587.994 51.0194 587.719C51.346 587.439 51.5094 587.024 51.5094 586.473V581.762H52.7974V589H51.7684L51.6354 587.614C51.5467 587.978 51.395 588.272 51.1804 588.496C50.9704 588.72 50.716 588.886 50.4174 588.993C50.1234 589.096 49.806 589.145 49.4654 589.14ZM55.0085 591.254V581.762H56.2965L56.3105 583.022C56.3945 582.873 56.5018 582.716 56.6325 582.553C56.7678 582.39 56.9312 582.238 57.1225 582.098C57.3185 581.958 57.5448 581.844 57.8015 581.755C58.0628 581.666 58.3592 581.622 58.6905 581.622C59.2692 581.622 59.7778 581.755 60.2165 582.021C60.6598 582.282 61.0052 582.684 61.2525 583.225C61.4998 583.766 61.6235 584.452 61.6235 585.283C61.6235 586.114 61.5022 586.816 61.2595 587.39C61.0215 587.959 60.6762 588.393 60.2235 588.692C59.7708 588.991 59.2248 589.14 58.5855 589.14C58.2635 589.14 57.9765 589.093 57.7245 589C57.4772 588.911 57.2602 588.795 57.0735 588.65C56.8915 588.501 56.7375 588.342 56.6115 588.174C56.4902 588.006 56.3898 587.845 56.3105 587.691V591.254H55.0085ZM58.3405 588.132C58.9378 588.132 59.4255 587.906 59.8035 587.453C60.1815 586.996 60.3705 586.286 60.3705 585.325C60.3705 584.499 60.1978 583.843 59.8525 583.358C59.5072 582.873 59.0032 582.63 58.3405 582.63C57.6685 582.63 57.1598 582.88 56.8145 583.379C56.4692 583.874 56.2965 584.522 56.2965 585.325C56.2965 585.843 56.3735 586.314 56.5275 586.739C56.6815 587.164 56.9102 587.502 57.2135 587.754C57.5168 588.006 57.8925 588.132 58.3405 588.132ZM63.3483 591.254V581.762H64.6363L64.6503 583.022C64.7343 582.873 64.8417 582.716 64.9723 582.553C65.1077 582.39 65.271 582.238 65.4623 582.098C65.6583 581.958 65.8847 581.844 66.1413 581.755C66.4027 581.666 66.699 581.622 67.0303 581.622C67.609 581.622 68.1177 581.755 68.5563 582.021C68.9997 582.282 69.345 582.684 69.5923 583.225C69.8397 583.766 69.9633 584.452 69.9633 585.283C69.9633 586.114 69.842 586.816 69.5993 587.39C69.3613 587.959 69.016 588.393 68.5633 588.692C68.1107 588.991 67.5647 589.14 66.9253 589.14C66.6033 589.14 66.3163 589.093 66.0643 589C65.817 588.911 65.6 588.795 65.4133 588.65C65.2313 588.501 65.0773 588.342 64.9513 588.174C64.83 588.006 64.7297 587.845 64.6503 587.691V591.254H63.3483ZM66.6803 588.132C67.2777 588.132 67.7653 587.906 68.1433 587.453C68.5213 586.996 68.7103 586.286 68.7103 585.325C68.7103 584.499 68.5377 583.843 68.1923 583.358C67.847 582.873 67.343 582.63 66.6803 582.63C66.0083 582.63 65.4997 582.88 65.1543 583.379C64.809 583.874 64.6363 584.522 64.6363 585.325C64.6363 585.843 64.7133 586.314 64.8673 586.739C65.0213 587.164 65.25 587.502 65.5533 587.754C65.8567 588.006 66.2323 588.132 66.6803 588.132ZM73.5152 589.091C73.1232 589.091 72.8059 589.037 72.5632 588.93C72.3252 588.823 72.1409 588.678 72.0102 588.496C71.8842 588.314 71.7979 588.106 71.7512 587.873C71.7092 587.635 71.6882 587.39 71.6882 587.138V578.598H72.9622V587.012C72.9622 587.376 73.0322 587.649 73.1722 587.831C73.3169 588.013 73.5175 588.113 73.7742 588.132L74.1662 588.139V588.979C74.0589 589.012 73.9469 589.037 73.8302 589.056C73.7135 589.079 73.6085 589.091 73.5152 589.091ZM75.8931 589V581.762H77.1461V589H75.8931ZM75.8581 580.229V578.885H77.1811V580.229H75.8581ZM82.3761 589.14C81.7041 589.14 81.1114 588.993 80.5981 588.699C80.0848 588.405 79.6834 587.983 79.3941 587.432C79.1048 586.881 78.9601 586.221 78.9601 585.451C78.9601 584.69 79.0908 584.023 79.3521 583.449C79.6134 582.875 79.9914 582.427 80.4861 582.105C80.9854 581.783 81.5851 581.622 82.2851 581.622C82.9664 581.622 83.5428 581.769 84.0141 582.063C84.4854 582.357 84.8424 582.772 85.0851 583.309C85.3324 583.841 85.4561 584.473 85.4561 585.206V585.682H80.2691C80.2691 586.139 80.3438 586.555 80.4931 586.928C80.6471 587.297 80.8781 587.591 81.1861 587.81C81.4941 588.029 81.8838 588.139 82.3551 588.139C82.8171 588.139 83.2138 588.032 83.5451 587.817C83.8811 587.602 84.0958 587.292 84.1891 586.886H85.4071C85.3231 587.376 85.1271 587.789 84.8191 588.125C84.5158 588.461 84.1494 588.715 83.7201 588.888C83.2954 589.056 82.8474 589.14 82.3761 589.14ZM80.2761 584.807H84.2101C84.2101 584.392 84.1401 584.018 84.0001 583.687C83.8601 583.351 83.6454 583.087 83.3561 582.896C83.0714 582.7 82.7121 582.602 82.2781 582.602C81.8254 582.602 81.4498 582.712 81.1511 582.931C80.8524 583.146 80.6308 583.423 80.4861 583.764C80.3414 584.1 80.2714 584.448 80.2761 584.807ZM87.2468 589V581.762H88.4788V583.155C88.6001 582.81 88.7704 582.525 88.9898 582.301C89.2091 582.072 89.4588 581.902 89.7388 581.79C90.0234 581.678 90.3174 581.622 90.6208 581.622C90.7281 581.622 90.8331 581.629 90.9358 581.643C91.0384 581.657 91.1178 581.68 91.1738 581.713V582.966C91.1038 582.933 91.0128 582.912 90.9008 582.903C90.7934 582.889 90.7024 582.882 90.6278 582.882C90.3384 582.863 90.0678 582.882 89.8158 582.938C89.5638 582.989 89.3421 583.08 89.1508 583.211C88.9594 583.342 88.8078 583.514 88.6958 583.729C88.5884 583.939 88.5348 584.196 88.5348 584.499V589H87.2468Z" fill="black"/>
<path d="M0 64C0 28.6538 28.6538 0 64 0V0C99.3462 0 128 28.6538 128 64V64C128 99.3462 99.3462 128 64 128V128C28.6538 128 0 99.3462 0 64V64Z" fill="#FFDF81"/>
<path d="M50.5036 69.14C49.6029 69.14 48.8236 68.937 48.1656 68.531C47.5076 68.125 46.9989 67.537 46.6396 66.767C46.2849 65.9923 46.1076 65.0567 46.1076 63.96C46.1076 62.854 46.2872 61.9137 46.6466 61.139C47.0059 60.3597 47.5146 59.7647 48.1726 59.354C48.8352 58.9433 49.6122 58.738 50.5036 58.738C51.3996 58.738 52.1742 58.9433 52.8276 59.354C53.4809 59.76 53.9849 60.3527 54.3396 61.132C54.6942 61.9067 54.8716 62.8493 54.8716 63.96C54.8716 65.0567 54.6942 65.9923 54.3396 66.767C53.9896 67.537 53.4879 68.125 52.8346 68.531C52.1812 68.937 51.4042 69.14 50.5036 69.14ZM50.5036 68.013C51.1289 68.013 51.6609 67.8707 52.0996 67.586C52.5382 67.3013 52.8719 66.8603 53.1006 66.263C53.3339 65.6657 53.4506 64.9027 53.4506 63.974C53.4506 63.0313 53.3339 62.2567 53.1006 61.65C52.8672 61.0433 52.5312 60.5953 52.0926 60.306C51.6539 60.012 51.1242 59.865 50.5036 59.865C49.8876 59.865 49.3579 60.012 48.9146 60.306C48.4712 60.6 48.1306 61.0503 47.8926 61.657C47.6546 62.2637 47.5356 63.036 47.5356 63.974C47.5356 64.9027 47.6546 65.6657 47.8926 66.263C48.1306 66.8603 48.4712 67.3013 48.9146 67.586C49.3579 67.8707 49.8876 68.013 50.5036 68.013ZM56.6081 69V61.762H57.8401V63.155C57.9614 62.8097 58.1318 62.525 58.3511 62.301C58.5704 62.0723 58.8201 61.902 59.1001 61.79C59.3848 61.678 59.6788 61.622 59.9821 61.622C60.0894 61.622 60.1944 61.629 60.2971 61.643C60.3998 61.657 60.4791 61.6803 60.5351 61.713V62.966C60.4651 62.9333 60.3741 62.9123 60.2621 62.903C60.1548 62.889 60.0638 62.882 59.9891 62.882C59.6998 62.8633 59.4291 62.882 59.1771 62.938C58.9251 62.9893 58.7034 63.0803 58.5121 63.211C58.3208 63.3417 58.1691 63.5143 58.0571 63.729C57.9498 63.939 57.8961 64.1957 57.8961 64.499V69H56.6081ZM64.6065 69.14C63.6638 69.14 62.9172 68.818 62.3665 68.174C61.8205 67.53 61.5475 66.5897 61.5475 65.353C61.5475 64.6017 61.6572 63.946 61.8765 63.386C62.0958 62.826 62.4248 62.392 62.8635 62.084C63.3022 61.776 63.8482 61.622 64.5015 61.622C64.8515 61.622 65.1595 61.6663 65.4255 61.755C65.6915 61.8437 65.9225 61.9557 66.1185 62.091C66.3145 62.2263 66.4732 62.3663 66.5945 62.511C66.7205 62.6557 66.8138 62.7887 66.8745 62.91V58.598H68.1835V69H67.1895L67.0495 67.516C67.0028 67.656 66.9282 67.8193 66.8255 68.006C66.7228 68.188 66.5782 68.3677 66.3915 68.545C66.2095 68.7177 65.9715 68.86 65.6775 68.972C65.3835 69.084 65.0265 69.14 64.6065 69.14ZM64.8375 68.146C65.5655 68.146 66.0858 67.9243 66.3985 67.481C66.7158 67.033 66.8745 66.3027 66.8745 65.29C66.8698 64.7253 66.7998 64.2447 66.6645 63.848C66.5292 63.4513 66.3145 63.1503 66.0205 62.945C65.7312 62.735 65.3438 62.63 64.8585 62.63C64.2658 62.63 63.7828 62.8423 63.4095 63.267C63.0362 63.6917 62.8495 64.366 62.8495 65.29C62.8495 66.1953 63.0175 66.8977 63.3535 67.397C63.6895 67.8963 64.1842 68.146 64.8375 68.146ZM73.38 69.14C72.708 69.14 72.1153 68.993 71.602 68.699C71.0887 68.405 70.6873 67.9827 70.398 67.432C70.1087 66.8813 69.964 66.221 69.964 65.451C69.964 64.6903 70.0947 64.023 70.356 63.449C70.6173 62.875 70.9953 62.427 71.49 62.105C71.9893 61.783 72.589 61.622 73.289 61.622C73.9703 61.622 74.5467 61.769 75.018 62.063C75.4893 62.357 75.8463 62.7723 76.089 63.309C76.3363 63.841 76.46 64.4733 76.46 65.206V65.682H71.273C71.273 66.1393 71.3477 66.5547 71.497 66.928C71.651 67.2967 71.882 67.5907 72.19 67.81C72.498 68.0293 72.8877 68.139 73.359 68.139C73.821 68.139 74.2177 68.0317 74.549 67.817C74.885 67.6023 75.0997 67.292 75.193 66.886H76.411C76.327 67.376 76.131 67.789 75.823 68.125C75.5197 68.461 75.1533 68.7153 74.724 68.888C74.2993 69.056 73.8513 69.14 73.38 69.14ZM71.28 64.807H75.214C75.214 64.3917 75.144 64.0183 75.004 63.687C74.864 63.351 74.6493 63.0873 74.36 62.896C74.0753 62.7 73.716 62.602 73.282 62.602C72.8293 62.602 72.4537 62.7117 72.155 62.931C71.8563 63.1457 71.6347 63.4233 71.49 63.764C71.3453 64.1 71.2753 64.4477 71.28 64.807ZM78.2507 69V61.762H79.4827V63.155C79.604 62.8097 79.7744 62.525 79.9937 62.301C80.213 62.0723 80.4627 61.902 80.7427 61.79C81.0274 61.678 81.3214 61.622 81.6247 61.622C81.732 61.622 81.837 61.629 81.9397 61.643C82.0424 61.657 82.1217 61.6803 82.1777 61.713V62.966C82.1077 62.9333 82.0167 62.9123 81.9047 62.903C81.7974 62.889 81.7064 62.882 81.6317 62.882C81.3424 62.8633 81.0717 62.882 80.8197 62.938C80.5677 62.9893 80.346 63.0803 80.1547 63.211C79.9634 63.3417 79.8117 63.5143 79.6997 63.729C79.5924 63.939 79.5387 64.1957 79.5387 64.499V69H78.2507Z" fill="black"/>
<path d="M298 64C298 28.6538 326.654 0 362 0V0C397.346 0 426 28.6538 426 64V64C426 99.3462 397.346 128 362 128V128C326.654 128 298 99.3462 298 64V64Z" fill="#56C7E4"/>
<path d="M335.376 69.14C334.466 69.14 333.689 68.9323 333.045 68.517C332.406 68.1017 331.916 67.5043 331.575 66.725C331.239 65.9457 331.071 65.0053 331.071 63.904C331.071 62.8073 331.239 61.874 331.575 61.104C331.911 60.334 332.399 59.7483 333.038 59.347C333.682 58.941 334.462 58.738 335.376 58.738C336.09 58.738 336.723 58.8873 337.273 59.186C337.824 59.48 338.267 59.8743 338.603 60.369C338.939 60.8637 339.138 61.4073 339.198 62H337.819C337.745 61.6033 337.602 61.244 337.392 60.922C337.182 60.6 336.907 60.3433 336.566 60.152C336.226 59.9607 335.817 59.865 335.341 59.865C334.73 59.865 334.212 60.0097 333.787 60.299C333.367 60.5837 333.048 61.0247 332.828 61.622C332.614 62.2193 332.506 62.9847 332.506 63.918C332.506 65.3273 332.747 66.3633 333.227 67.026C333.713 67.684 334.417 68.013 335.341 68.013C335.817 68.013 336.226 67.9127 336.566 67.712C336.907 67.5113 337.182 67.243 337.392 66.907C337.602 66.571 337.745 66.207 337.819 65.815H339.198C339.147 66.2443 339.03 66.6597 338.848 67.061C338.671 67.4577 338.426 67.8123 338.113 68.125C337.801 68.4377 337.416 68.685 336.958 68.867C336.506 69.049 335.978 69.14 335.376 69.14ZM343.685 69.14C343.307 69.1353 342.95 69.0817 342.614 68.979C342.283 68.8717 341.989 68.7153 341.732 68.51C341.475 68.3047 341.272 68.0503 341.123 67.747C340.978 67.439 340.906 67.082 340.906 66.676V61.762H342.201V66.543C342.201 67.0143 342.346 67.397 342.635 67.691C342.929 67.985 343.37 68.132 343.958 68.132C344.49 68.132 344.917 67.9943 345.239 67.719C345.566 67.439 345.729 67.0237 345.729 66.473V61.762H347.017V69H345.988L345.855 67.614C345.766 67.978 345.615 68.272 345.4 68.496C345.19 68.72 344.936 68.8857 344.637 68.993C344.343 69.0957 344.026 69.1447 343.685 69.14ZM351.75 69.14C351.246 69.14 350.777 69.063 350.343 68.909C349.914 68.7503 349.557 68.5053 349.272 68.174C348.988 67.838 348.81 67.411 348.74 66.893H349.916C349.977 67.1777 350.094 67.4157 350.266 67.607C350.439 67.7937 350.651 67.936 350.903 68.034C351.16 68.1273 351.44 68.174 351.743 68.174C352.233 68.174 352.628 68.083 352.926 67.901C353.225 67.719 353.374 67.439 353.374 67.061C353.374 66.795 353.295 66.5827 353.136 66.424C352.982 66.2607 352.74 66.1417 352.408 66.067L350.91 65.696C350.327 65.556 349.86 65.3367 349.51 65.038C349.165 64.7393 348.99 64.3217 348.985 63.785C348.985 63.3603 349.088 62.987 349.293 62.665C349.499 62.343 349.804 62.0887 350.21 61.902C350.621 61.7153 351.132 61.622 351.743 61.622C352.532 61.622 353.167 61.7993 353.647 62.154C354.128 62.504 354.38 63.0197 354.403 63.701H353.255C353.209 63.3557 353.055 63.0827 352.793 62.882C352.532 62.6767 352.177 62.574 351.729 62.574C351.272 62.574 350.896 62.6673 350.602 62.854C350.313 63.036 350.168 63.3207 350.168 63.708C350.168 63.9647 350.271 64.1677 350.476 64.317C350.686 64.4617 350.99 64.583 351.386 64.681L352.842 65.045C353.174 65.1337 353.449 65.2503 353.668 65.395C353.888 65.5397 354.06 65.7007 354.186 65.878C354.312 66.0553 354.401 66.242 354.452 66.438C354.508 66.6293 354.536 66.8137 354.536 66.991C354.536 67.4343 354.427 67.817 354.207 68.139C353.988 68.4563 353.671 68.7037 353.255 68.881C352.84 69.0537 352.338 69.14 351.75 69.14ZM358.731 69.035C358.232 69.035 357.844 68.9673 357.569 68.832C357.294 68.6967 357.1 68.496 356.988 68.23C356.881 67.964 356.827 67.6373 356.827 67.25V62.707H355.651V61.762H356.862L357.177 59.655H358.129V61.755H359.76V62.707H358.129V67.208C358.129 67.4647 358.155 67.6537 358.206 67.775C358.262 67.8917 358.353 67.9663 358.479 67.999C358.605 68.0317 358.782 68.048 359.011 68.048H359.802V68.916C359.713 68.9487 359.578 68.9767 359.396 69C359.219 69.0233 358.997 69.035 358.731 69.035ZM364.226 69.14C363.559 69.14 362.975 68.9977 362.476 68.713C361.981 68.4237 361.596 68.0013 361.321 67.446C361.046 66.8907 360.908 66.2117 360.908 65.409C360.908 64.653 361.036 63.9903 361.293 63.421C361.55 62.8517 361.925 62.4107 362.42 62.098C362.915 61.7807 363.519 61.622 364.233 61.622C364.9 61.622 365.479 61.769 365.969 62.063C366.459 62.3523 366.839 62.7793 367.11 63.344C367.385 63.9087 367.523 64.597 367.523 65.409C367.523 66.1463 367.397 66.795 367.145 67.355C366.893 67.915 366.522 68.3537 366.032 68.671C365.547 68.9837 364.945 69.14 364.226 69.14ZM364.233 68.118C364.662 68.118 365.026 68.0083 365.325 67.789C365.624 67.5697 365.85 67.2547 366.004 66.844C366.163 66.4333 366.242 65.9457 366.242 65.381C366.242 64.863 366.172 64.3987 366.032 63.988C365.897 63.5727 365.682 63.2437 365.388 63.001C365.094 62.7583 364.709 62.637 364.233 62.637C363.794 62.637 363.423 62.7467 363.12 62.966C362.817 63.1807 362.586 63.4933 362.427 63.904C362.273 64.3147 362.196 64.807 362.196 65.381C362.196 65.8897 362.264 66.3517 362.399 66.767C362.539 67.1823 362.758 67.5113 363.057 67.754C363.36 67.9967 363.752 68.118 364.233 68.118ZM369.244 69V61.762H370.49V62.812C370.691 62.4947 370.966 62.217 371.316 61.979C371.666 61.741 372.121 61.622 372.681 61.622C372.942 61.622 373.208 61.6663 373.479 61.755C373.754 61.8437 374.006 61.9767 374.235 62.154C374.464 62.3313 374.641 62.5483 374.767 62.805C374.991 62.4503 375.294 62.1657 375.677 61.951C376.06 61.7317 376.491 61.622 376.972 61.622C377.224 61.622 377.488 61.6617 377.763 61.741C378.038 61.8157 378.293 61.951 378.526 62.147C378.764 62.3383 378.958 62.6067 379.107 62.952C379.256 63.2927 379.331 63.7313 379.331 64.268V69H378.029V64.394C378.029 63.9553 377.959 63.617 377.819 63.379C377.679 63.1363 377.495 62.966 377.266 62.868C377.042 62.77 376.802 62.721 376.545 62.721C376.321 62.721 376.083 62.7653 375.831 62.854C375.579 62.9427 375.364 63.092 375.187 63.302C375.01 63.512 374.921 63.799 374.921 64.163V69H373.633V64.016C373.633 63.7313 373.556 63.4933 373.402 63.302C373.253 63.1107 373.064 62.966 372.835 62.868C372.611 62.77 372.387 62.721 372.163 62.721C371.916 62.721 371.666 62.77 371.414 62.868C371.167 62.966 370.957 63.1223 370.784 63.337C370.616 63.547 370.532 63.8223 370.532 64.163V69H369.244ZM384.416 69.14C383.744 69.14 383.151 68.993 382.638 68.699C382.125 68.405 381.723 67.9827 381.434 67.432C381.145 66.8813 381 66.221 381 65.451C381 64.6903 381.131 64.023 381.392 63.449C381.653 62.875 382.031 62.427 382.526 62.105C383.025 61.783 383.625 61.622 384.325 61.622C385.006 61.622 385.583 61.769 386.054 62.063C386.525 62.357 386.882 62.7723 387.125 63.309C387.372 63.841 387.496 64.4733 387.496 65.206V65.682H382.309C382.309 66.1393 382.384 66.5547 382.533 66.928C382.687 67.2967 382.918 67.5907 383.226 67.81C383.534 68.0293 383.924 68.139 384.395 68.139C384.857 68.139 385.254 68.0317 385.585 67.817C385.921 67.6023 386.136 67.292 386.229 66.886H387.447C387.363 67.376 387.167 67.789 386.859 68.125C386.556 68.461 386.189 68.7153 385.76 68.888C385.335 69.056 384.887 69.14 384.416 69.14ZM382.316 64.807H386.25C386.25 64.3917 386.18 64.0183 386.04 63.687C385.9 63.351 385.685 63.0873 385.396 62.896C385.111 62.7 384.752 62.602 384.318 62.602C383.865 62.602 383.49 62.7117 383.191 62.931C382.892 63.1457 382.671 63.4233 382.526 63.764C382.381 64.1 382.311 64.4477 382.316 64.807ZM389.287 69V61.762H390.519V63.155C390.64 62.8097 390.81 62.525 391.03 62.301C391.249 62.0723 391.499 61.902 391.779 61.79C392.063 61.678 392.357 61.622 392.661 61.622C392.768 61.622 392.873 61.629 392.976 61.643C393.078 61.657 393.158 61.6803 393.214 61.713V62.966C393.144 62.9333 393.053 62.9123 392.941 62.903C392.833 62.889 392.742 62.882 392.668 62.882C392.378 62.8633 392.108 62.882 391.856 62.938C391.604 62.9893 391.382 63.0803 391.191 63.211C390.999 63.3417 390.848 63.5143 390.736 63.729C390.628 63.939 390.575 64.1957 390.575 64.499V69H389.287Z" fill="black"/>
<path d="M298 324C298 288.654 326.654 260 362 260V260C397.346 260 426 288.654 426 324V324C426 359.346 397.346 388 362 388V388C326.654 388 298 359.346 298 324V324Z" fill="#F16767"/>
<path d="M337.236 329.14C336.326 329.14 335.549 328.932 334.905 328.517C334.265 328.102 333.775 327.504 333.435 326.725C333.099 325.946 332.931 325.005 332.931 323.904C332.931 322.807 333.099 321.874 333.435 321.104C333.771 320.334 334.258 319.748 334.898 319.347C335.542 318.941 336.321 318.738 337.236 318.738C337.95 318.738 338.582 318.887 339.133 319.186C339.683 319.48 340.127 319.874 340.463 320.369C340.799 320.864 340.997 321.407 341.058 322H339.679C339.604 321.603 339.462 321.244 339.252 320.922C339.042 320.6 338.766 320.343 338.426 320.152C338.085 319.961 337.677 319.865 337.201 319.865C336.589 319.865 336.071 320.01 335.647 320.299C335.227 320.584 334.907 321.025 334.688 321.622C334.473 322.219 334.366 322.985 334.366 323.918C334.366 325.327 334.606 326.363 335.087 327.026C335.572 327.684 336.277 328.013 337.201 328.013C337.677 328.013 338.085 327.913 338.426 327.712C338.766 327.511 339.042 327.243 339.252 326.907C339.462 326.571 339.604 326.207 339.679 325.815H341.058C341.006 326.244 340.89 326.66 340.708 327.061C340.53 327.458 340.285 327.812 339.973 328.125C339.66 328.438 339.275 328.685 338.818 328.867C338.365 329.049 337.838 329.14 337.236 329.14ZM344.819 329.14C344.347 329.14 343.932 329.058 343.573 328.895C343.218 328.727 342.938 328.487 342.733 328.174C342.532 327.861 342.432 327.483 342.432 327.04C342.432 326.237 342.712 325.64 343.272 325.248C343.832 324.856 344.73 324.646 345.967 324.618L347.255 324.583V324.016C347.255 323.573 347.122 323.223 346.856 322.966C346.59 322.705 346.179 322.574 345.624 322.574C345.208 322.579 344.842 322.677 344.525 322.868C344.207 323.059 344.004 323.372 343.916 323.806H342.775C342.803 323.335 342.933 322.938 343.167 322.616C343.405 322.289 343.738 322.042 344.168 321.874C344.597 321.706 345.103 321.622 345.687 321.622C346.317 321.622 346.839 321.711 347.255 321.888C347.675 322.065 347.987 322.327 348.193 322.672C348.403 323.017 348.508 323.442 348.508 323.946V329H347.402L347.304 327.642C347.028 328.207 346.674 328.599 346.24 328.818C345.81 329.033 345.337 329.14 344.819 329.14ZM345.204 328.209C345.451 328.209 345.694 328.165 345.932 328.076C346.174 327.987 346.394 327.868 346.59 327.719C346.79 327.565 346.951 327.395 347.073 327.208C347.194 327.017 347.255 326.821 347.255 326.62V325.381L346.184 325.402C345.628 325.411 345.166 325.467 344.798 325.57C344.429 325.673 344.151 325.834 343.965 326.053C343.778 326.272 343.685 326.559 343.685 326.914C343.685 327.32 343.827 327.637 344.112 327.866C344.396 328.095 344.76 328.209 345.204 328.209ZM352.879 329.035C352.38 329.035 351.993 328.967 351.717 328.832C351.442 328.697 351.248 328.496 351.136 328.23C351.029 327.964 350.975 327.637 350.975 327.25V322.707H349.799V321.762H351.01L351.325 319.655H352.277V321.755H353.908V322.707H352.277V327.208C352.277 327.465 352.303 327.654 352.354 327.775C352.41 327.892 352.501 327.966 352.627 327.999C352.753 328.032 352.931 328.048 353.159 328.048H353.95V328.916C353.862 328.949 353.726 328.977 353.544 329C353.367 329.023 353.145 329.035 352.879 329.035ZM358.535 329.14C357.863 329.14 357.271 328.993 356.757 328.699C356.244 328.405 355.843 327.983 355.553 327.432C355.264 326.881 355.119 326.221 355.119 325.451C355.119 324.69 355.25 324.023 355.511 323.449C355.773 322.875 356.151 322.427 356.645 322.105C357.145 321.783 357.744 321.622 358.444 321.622C359.126 321.622 359.702 321.769 360.173 322.063C360.645 322.357 361.002 322.772 361.244 323.309C361.492 323.841 361.615 324.473 361.615 325.206V325.682H356.428C356.428 326.139 356.503 326.555 356.652 326.928C356.806 327.297 357.037 327.591 357.345 327.81C357.653 328.029 358.043 328.139 358.514 328.139C358.976 328.139 359.373 328.032 359.704 327.817C360.04 327.602 360.255 327.292 360.348 326.886H361.566C361.482 327.376 361.286 327.789 360.978 328.125C360.675 328.461 360.309 328.715 359.879 328.888C359.455 329.056 359.007 329.14 358.535 329.14ZM356.435 324.807H360.369C360.369 324.392 360.299 324.018 360.159 323.687C360.019 323.351 359.805 323.087 359.515 322.896C359.231 322.7 358.871 322.602 358.437 322.602C357.985 322.602 357.609 322.712 357.31 322.931C357.012 323.146 356.79 323.423 356.645 323.764C356.501 324.1 356.431 324.448 356.435 324.807ZM366.41 331.394C365.276 331.394 364.392 331.228 363.757 330.897C363.123 330.57 362.805 330.101 362.805 329.49C362.805 329.229 362.866 329.007 362.987 328.825C363.109 328.638 363.253 328.484 363.421 328.363C363.589 328.242 363.746 328.146 363.89 328.076C364.035 328.001 364.131 327.948 364.177 327.915C364.093 327.868 363.993 327.81 363.876 327.74C363.76 327.67 363.655 327.577 363.561 327.46C363.473 327.343 363.428 327.192 363.428 327.005C363.428 326.776 363.536 326.566 363.75 326.375C363.965 326.184 364.285 326.041 364.709 325.948C364.285 325.733 363.953 325.449 363.715 325.094C363.477 324.739 363.358 324.354 363.358 323.939C363.358 323.472 363.484 323.066 363.736 322.721C363.988 322.376 364.35 322.112 364.821 321.93C365.293 321.743 365.855 321.65 366.508 321.65C366.98 321.65 367.374 321.706 367.691 321.818C368.013 321.925 368.312 322.079 368.587 322.28C368.662 322.247 368.781 322.198 368.944 322.133C369.108 322.063 369.285 321.988 369.476 321.909C369.672 321.83 369.854 321.755 370.022 321.685C370.195 321.61 370.333 321.554 370.435 321.517L370.428 322.714L369.161 322.952C369.236 323.101 369.294 323.265 369.336 323.442C369.378 323.619 369.399 323.785 369.399 323.939C369.399 324.364 369.287 324.749 369.063 325.094C368.844 325.439 368.51 325.715 368.062 325.92C367.614 326.125 367.054 326.228 366.382 326.228C366.326 326.228 366.254 326.228 366.165 326.228C366.081 326.223 366.009 326.219 365.948 326.214C365.454 326.228 365.113 326.284 364.926 326.382C364.744 326.475 364.653 326.58 364.653 326.697C364.653 326.832 364.758 326.926 364.968 326.977C365.178 327.028 365.533 327.073 366.032 327.11C366.214 327.119 366.438 327.131 366.704 327.145C366.975 327.159 367.276 327.178 367.607 327.201C368.363 327.248 368.947 327.441 369.357 327.782C369.768 328.123 369.973 328.582 369.973 329.161C369.973 329.819 369.679 330.356 369.091 330.771C368.508 331.186 367.614 331.394 366.41 331.394ZM366.641 330.561C367.309 330.561 367.82 330.461 368.174 330.26C368.534 330.059 368.713 329.756 368.713 329.35C368.713 329.061 368.604 328.825 368.384 328.643C368.165 328.456 367.834 328.349 367.39 328.321L365.36 328.188C365.178 328.179 364.989 328.225 364.793 328.328C364.597 328.426 364.432 328.564 364.296 328.741C364.161 328.918 364.093 329.119 364.093 329.343C364.093 329.726 364.301 330.024 364.716 330.239C365.132 330.454 365.773 330.561 366.641 330.561ZM366.424 325.395C366.942 325.395 367.36 325.274 367.677 325.031C367.999 324.788 368.16 324.429 368.16 323.953C368.16 323.463 367.999 323.09 367.677 322.833C367.36 322.576 366.942 322.448 366.424 322.448C365.892 322.448 365.463 322.579 365.136 322.84C364.814 323.097 364.653 323.468 364.653 323.953C364.653 324.41 364.807 324.765 365.115 325.017C365.428 325.269 365.864 325.395 366.424 325.395ZM374.74 329.14C374.072 329.14 373.489 328.998 372.99 328.713C372.495 328.424 372.11 328.001 371.835 327.446C371.559 326.891 371.422 326.212 371.422 325.409C371.422 324.653 371.55 323.99 371.807 323.421C372.063 322.852 372.439 322.411 372.934 322.098C373.428 321.781 374.033 321.622 374.747 321.622C375.414 321.622 375.993 321.769 376.483 322.063C376.973 322.352 377.353 322.779 377.624 323.344C377.899 323.909 378.037 324.597 378.037 325.409C378.037 326.146 377.911 326.795 377.659 327.355C377.407 327.915 377.036 328.354 376.546 328.671C376.06 328.984 375.458 329.14 374.74 329.14ZM374.747 328.118C375.176 328.118 375.54 328.008 375.839 327.789C376.137 327.57 376.364 327.255 376.518 326.844C376.676 326.433 376.756 325.946 376.756 325.381C376.756 324.863 376.686 324.399 376.546 323.988C376.41 323.573 376.196 323.244 375.902 323.001C375.608 322.758 375.223 322.637 374.747 322.637C374.308 322.637 373.937 322.747 373.634 322.966C373.33 323.181 373.099 323.493 372.941 323.904C372.787 324.315 372.71 324.807 372.71 325.381C372.71 325.89 372.777 326.352 372.913 326.767C373.053 327.182 373.272 327.511 373.571 327.754C373.874 327.997 374.266 328.118 374.747 328.118ZM379.758 329V321.762H380.99V323.155C381.111 322.81 381.281 322.525 381.501 322.301C381.72 322.072 381.97 321.902 382.25 321.79C382.534 321.678 382.828 321.622 383.132 321.622C383.239 321.622 383.344 321.629 383.447 321.643C383.549 321.657 383.629 321.68 383.685 321.713V322.966C383.615 322.933 383.524 322.912 383.412 322.903C383.304 322.889 383.213 322.882 383.139 322.882C382.849 322.863 382.579 322.882 382.327 322.938C382.075 322.989 381.853 323.08 381.662 323.211C381.47 323.342 381.319 323.514 381.207 323.729C381.099 323.939 381.046 324.196 381.046 324.499V329H379.758ZM386.125 331.31C385.7 331.31 385.409 331.28 385.25 331.219C385.091 331.158 385.012 331.128 385.012 331.128V330.288L385.754 330.302C386.02 330.311 386.242 330.293 386.419 330.246C386.596 330.199 386.739 330.136 386.846 330.057C386.953 329.978 387.035 329.889 387.091 329.791C387.152 329.693 387.201 329.6 387.238 329.511L387.49 328.825L384.662 321.762H385.971L388.106 327.348L390.227 321.762H391.494L388.449 329.546C388.258 330.003 388.045 330.36 387.812 330.617C387.583 330.874 387.327 331.053 387.042 331.156C386.762 331.259 386.456 331.31 386.125 331.31Z" fill="white"/>
<path d="M294.5 65C295.052 65 295.5 64.5523 295.5 64C295.5 63.4477 295.052 63 294.5 63V64V65ZM269.5 63C268.948 63 268.5 63.4477 268.5 64C268.5 64.5523 268.948 65 269.5 65V64V63ZM156.5 65C157.052 65 157.5 64.5523 157.5 64C157.5 63.4477 157.052 63 156.5 63V64V65ZM130.793 63.2929C130.402 63.6834 130.402 64.3166 130.793 64.7071L137.157 71.0711C137.547 71.4616 138.181 71.4616 138.571 71.0711C138.962 70.6805 138.962 70.0474 138.571 69.6569L132.914 64L138.571 58.3431C138.962 57.9526 138.962 57.3195 138.571 56.9289C138.181 56.5384 137.547 56.5384 137.157 56.9289L130.793 63.2929ZM294.5 64V63H269.5V64V65H294.5V64ZM156.5 64V63H131.5V64V65H156.5V64Z" fill="black" fill-opacity="0.8"/>
<path d="M165.693 70V58.3636H169.841C170.746 58.3636 171.496 58.5284 172.091 58.858C172.686 59.1875 173.131 59.6383 173.426 60.2102C173.722 60.7784 173.869 61.4186 173.869 62.1307C173.869 62.8466 173.72 63.4905 173.421 64.0625C173.125 64.6307 172.678 65.0814 172.08 65.4148C171.485 65.7443 170.737 65.9091 169.835 65.9091H166.983V64.4205H169.676C170.248 64.4205 170.712 64.322 171.068 64.125C171.424 63.9242 171.686 63.6515 171.852 63.3068C172.019 62.9621 172.102 62.5701 172.102 62.1307C172.102 61.6913 172.019 61.3011 171.852 60.9602C171.686 60.6193 171.423 60.3523 171.063 60.1591C170.707 59.9659 170.237 59.8693 169.654 59.8693H167.449V70H165.693ZM183.235 58.3636H184.996V66.017C184.996 66.8314 184.805 67.553 184.422 68.1818C184.04 68.8068 183.502 69.2992 182.809 69.6591C182.115 70.0152 181.303 70.1932 180.371 70.1932C179.443 70.1932 178.632 70.0152 177.939 69.6591C177.246 69.2992 176.708 68.8068 176.326 68.1818C175.943 67.553 175.752 66.8314 175.752 66.017V58.3636H177.507V65.875C177.507 66.4015 177.623 66.8693 177.854 67.2784C178.089 67.6875 178.42 68.0095 178.848 68.2443C179.276 68.4754 179.784 68.5909 180.371 68.5909C180.962 68.5909 181.471 68.4754 181.899 68.2443C182.331 68.0095 182.661 67.6875 182.888 67.2784C183.119 66.8693 183.235 66.4015 183.235 65.875V58.3636ZM187.373 70V58.3636H191.52C192.422 58.3636 193.17 58.5189 193.765 58.8295C194.363 59.1402 194.81 59.5701 195.106 60.1193C195.401 60.6648 195.549 61.2955 195.549 62.0114C195.549 62.7235 195.399 63.3504 195.1 63.892C194.804 64.4299 194.357 64.8485 193.759 65.1477C193.164 65.447 192.416 65.5966 191.515 65.5966H188.373V64.0852H191.356C191.924 64.0852 192.386 64.0038 192.742 63.8409C193.102 63.678 193.365 63.4413 193.532 63.1307C193.698 62.8201 193.782 62.447 193.782 62.0114C193.782 61.572 193.696 61.1913 193.526 60.8693C193.359 60.5473 193.096 60.3011 192.736 60.1307C192.38 59.9564 191.912 59.8693 191.333 59.8693H189.128V70H187.373ZM193.117 64.75L195.992 70H193.992L191.174 64.75H193.117ZM207.174 62.1477H205.401C205.333 61.7689 205.206 61.4356 205.02 61.1477C204.835 60.8598 204.608 60.6155 204.339 60.4148C204.07 60.214 203.769 60.0625 203.435 59.9602C203.106 59.858 202.755 59.8068 202.384 59.8068C201.714 59.8068 201.113 59.9754 200.583 60.3125C200.056 60.6496 199.64 61.1439 199.333 61.7955C199.03 62.447 198.878 63.2424 198.878 64.1818C198.878 65.1288 199.03 65.928 199.333 66.5795C199.64 67.2311 200.058 67.7235 200.589 68.0568C201.119 68.3902 201.716 68.5568 202.378 68.5568C202.746 68.5568 203.094 68.5076 203.424 68.4091C203.757 68.3068 204.058 68.1572 204.327 67.9602C204.596 67.7633 204.823 67.5227 205.009 67.2386C205.198 66.9508 205.329 66.6212 205.401 66.25L207.174 66.2557C207.079 66.8277 206.895 67.3542 206.623 67.8352C206.354 68.3125 206.007 68.7254 205.583 69.0739C205.163 69.4186 204.681 69.6856 204.14 69.875C203.598 70.0644 203.007 70.1591 202.367 70.1591C201.359 70.1591 200.462 69.9205 199.674 69.4432C198.886 68.9621 198.265 68.2746 197.81 67.3807C197.359 66.4867 197.134 65.4205 197.134 64.1818C197.134 62.9394 197.361 61.8731 197.816 60.983C198.27 60.089 198.892 59.4034 199.68 58.9261C200.467 58.4451 201.363 58.2045 202.367 58.2045C202.984 58.2045 203.56 58.2936 204.094 58.4716C204.632 58.6458 205.115 58.9034 205.543 59.2443C205.971 59.5814 206.325 59.9943 206.606 60.483C206.886 60.9678 207.075 61.5227 207.174 62.1477ZM209.099 70V58.3636H210.854V63.4205H216.656V58.3636H218.417V70H216.656V64.9261H210.854V70H209.099ZM221.781 70H219.917L224.105 58.3636H226.133L230.32 70H228.457L225.167 60.4773H225.076L221.781 70ZM222.093 65.4432H228.139V66.9205H222.093V65.4432ZM238.078 61.4205C238.017 60.8826 237.767 60.4659 237.328 60.1705C236.888 59.8712 236.335 59.7216 235.669 59.7216C235.191 59.7216 234.778 59.7973 234.43 59.9489C234.081 60.0966 233.811 60.3011 233.617 60.5625C233.428 60.8201 233.333 61.1136 233.333 61.4432C233.333 61.7197 233.398 61.9583 233.527 62.1591C233.659 62.3598 233.831 62.5284 234.044 62.6648C234.26 62.7973 234.491 62.9091 234.737 63C234.983 63.0871 235.22 63.1591 235.447 63.2159L236.583 63.5114C236.955 63.6023 237.335 63.7254 237.725 63.8807C238.116 64.036 238.477 64.2405 238.811 64.4943C239.144 64.7481 239.413 65.0625 239.617 65.4375C239.826 65.8125 239.93 66.2614 239.93 66.7841C239.93 67.4432 239.76 68.0284 239.419 68.5398C239.081 69.0511 238.591 69.4545 237.947 69.75C237.307 70.0455 236.532 70.1932 235.623 70.1932C234.752 70.1932 233.998 70.0549 233.362 69.7784C232.725 69.5019 232.227 69.1098 231.867 68.6023C231.508 68.0909 231.309 67.4848 231.271 66.7841H233.032C233.066 67.2045 233.203 67.5549 233.441 67.8352C233.684 68.1117 233.992 68.3182 234.367 68.4545C234.746 68.5871 235.161 68.6534 235.612 68.6534C236.108 68.6534 236.549 68.5758 236.936 68.4205C237.326 68.2614 237.633 68.0417 237.856 67.7614C238.08 67.4773 238.191 67.1458 238.191 66.767C238.191 66.4223 238.093 66.1402 237.896 65.9205C237.703 65.7008 237.439 65.5189 237.106 65.375C236.777 65.2311 236.403 65.1042 235.987 64.9943L234.612 64.6193C233.68 64.3655 232.941 63.9924 232.396 63.5C231.854 63.0076 231.583 62.3561 231.583 61.5455C231.583 60.875 231.765 60.2898 232.129 59.7898C232.492 59.2898 232.985 58.9015 233.606 58.625C234.227 58.3447 234.928 58.2045 235.708 58.2045C236.496 58.2045 237.191 58.3428 237.794 58.6193C238.4 58.8958 238.877 59.2765 239.225 59.7614C239.574 60.2424 239.756 60.7955 239.771 61.4205H238.078ZM241.852 70V58.3636H249.147V59.875H243.608V63.4205H248.767V64.9261H243.608V68.4886H249.216V70H241.852ZM255.084 70H251.317V58.3636H255.203C256.343 58.3636 257.322 58.5966 258.14 59.0625C258.959 59.5246 259.586 60.1894 260.021 61.0568C260.461 61.9205 260.68 62.9564 260.68 64.1648C260.68 65.3769 260.459 66.4186 260.015 67.2898C259.576 68.161 258.94 68.8314 258.106 69.3011C257.273 69.767 256.265 70 255.084 70ZM253.072 68.4659H254.987C255.873 68.4659 256.61 68.2992 257.197 67.9659C257.784 67.6288 258.224 67.142 258.515 66.5057C258.807 65.8655 258.953 65.0852 258.953 64.1648C258.953 63.2519 258.807 62.4773 258.515 61.8409C258.228 61.2045 257.798 60.7216 257.226 60.392C256.654 60.0625 255.943 59.8977 255.095 59.8977H253.072V68.4659Z" fill="black" fill-opacity="0.8"/>
<path d="M65 131.5C65 130.948 64.5523 130.5 64 130.5C63.4477 130.5 63 130.948 63 131.5H64H65ZM63 174.5C63 175.052 63.4477 175.5 64 175.5C64.5523 175.5 65 175.052 65 174.5H64H63ZM65 213.5C65 212.948 64.5523 212.5 64 212.5C63.4477 212.5 63 212.948 63 213.5H64H65ZM63.2929 257.207C63.6834 257.598 64.3166 257.598 64.7071 257.207L71.0711 250.843C71.4616 250.453 71.4616 249.819 71.0711 249.429C70.6805 249.038 70.0474 249.038 69.6569 249.429L64 255.086L58.3431 249.429C57.9526 249.038 57.3195 249.038 56.9289 249.429C56.5384 249.819 56.5384 250.453 56.9289 250.843L63.2929 257.207ZM64 131.5H63V174.5H64H65V131.5H64ZM64 213.5H63V256.5H64H65V213.5H64Z" fill="black" fill-opacity="0.8"/>
<path d="M43.6232 194.182C43.6232 195.424 43.396 196.492 42.9414 197.386C42.4869 198.277 41.8638 198.962 41.0721 199.443C40.2842 199.92 39.3884 200.159 38.3846 200.159C37.377 200.159 36.4774 199.92 35.6857 199.443C34.8979 198.962 34.2766 198.275 33.8221 197.381C33.3676 196.487 33.1403 195.42 33.1403 194.182C33.1403 192.939 33.3676 191.873 33.8221 190.983C34.2766 190.089 34.8979 189.403 35.6857 188.926C36.4774 188.445 37.377 188.205 38.3846 188.205C39.3884 188.205 40.2842 188.445 41.0721 188.926C41.8638 189.403 42.4869 190.089 42.9414 190.983C43.396 191.873 43.6232 192.939 43.6232 194.182ZM41.8846 194.182C41.8846 193.235 41.7312 192.437 41.4244 191.79C41.1213 191.138 40.7047 190.646 40.1744 190.312C39.6479 189.975 39.0513 189.807 38.3846 189.807C37.7141 189.807 37.1157 189.975 36.5891 190.312C36.0626 190.646 35.646 191.138 35.3391 191.79C35.0361 192.437 34.8846 193.235 34.8846 194.182C34.8846 195.129 35.0361 195.928 35.3391 196.58C35.646 197.227 36.0626 197.72 36.5891 198.057C37.1157 198.39 37.7141 198.557 38.3846 198.557C39.0513 198.557 39.6479 198.39 40.1744 198.057C40.7047 197.72 41.1213 197.227 41.4244 196.58C41.7312 195.928 41.8846 195.129 41.8846 194.182ZM45.6362 200V188.364H49.7839C50.6854 188.364 51.4335 188.519 52.0282 188.83C52.6267 189.14 53.0737 189.57 53.3691 190.119C53.6646 190.665 53.8123 191.295 53.8123 192.011C53.8123 192.723 53.6627 193.35 53.3634 193.892C53.068 194.43 52.621 194.848 52.0225 195.148C51.4278 195.447 50.6797 195.597 49.7782 195.597H46.6362V194.085H49.6191C50.1873 194.085 50.6494 194.004 51.0055 193.841C51.3653 193.678 51.6286 193.441 51.7953 193.131C51.9619 192.82 52.0453 192.447 52.0453 192.011C52.0453 191.572 51.96 191.191 51.7896 190.869C51.6229 190.547 51.3596 190.301 50.9998 190.131C50.6437 189.956 50.1759 189.869 49.5964 189.869H47.3918V200H45.6362ZM51.3805 194.75L54.2555 200H52.2555L49.4373 194.75H51.3805ZM59.5397 200H55.7727V188.364H59.659C60.7992 188.364 61.7783 188.597 62.5965 189.062C63.4147 189.525 64.0416 190.189 64.4772 191.057C64.9166 191.92 65.1363 192.956 65.1363 194.165C65.1363 195.377 64.9147 196.419 64.4715 197.29C64.0321 198.161 63.3958 198.831 62.5624 199.301C61.7291 199.767 60.7215 200 59.5397 200ZM57.5283 198.466H59.4431C60.3295 198.466 61.0662 198.299 61.6533 197.966C62.2405 197.629 62.6799 197.142 62.9715 196.506C63.2632 195.866 63.409 195.085 63.409 194.165C63.409 193.252 63.2632 192.477 62.9715 191.841C62.6836 191.205 62.2537 190.722 61.6818 190.392C61.1098 190.062 60.3996 189.898 59.5511 189.898H57.5283V198.466ZM67.1435 200V188.364H74.439V189.875H68.8992V193.42H74.0583V194.926H68.8992V198.489H74.5072V200H67.1435ZM76.6082 200V188.364H80.7559C81.6574 188.364 82.4055 188.519 83.0002 188.83C83.5987 189.14 84.0457 189.57 84.3411 190.119C84.6366 190.665 84.7843 191.295 84.7843 192.011C84.7843 192.723 84.6347 193.35 84.3354 193.892C84.04 194.43 83.593 194.848 82.9945 195.148C82.3998 195.447 81.6517 195.597 80.7502 195.597H77.6082V194.085H80.5911C81.1593 194.085 81.6214 194.004 81.9775 193.841C82.3373 193.678 82.6006 193.441 82.7673 193.131C82.9339 192.82 83.0173 192.447 83.0173 192.011C83.0173 191.572 82.932 191.191 82.7616 190.869C82.5949 190.547 82.3316 190.301 81.9718 190.131C81.6157 189.956 81.1479 189.869 80.5684 189.869H78.3638V200H76.6082ZM82.3525 194.75L85.2275 200H83.2275L80.4093 194.75H82.3525ZM93.0912 191.42C93.0306 190.883 92.7806 190.466 92.3412 190.17C91.9019 189.871 91.3488 189.722 90.6822 189.722C90.2049 189.722 89.792 189.797 89.4435 189.949C89.095 190.097 88.8242 190.301 88.631 190.562C88.4416 190.82 88.3469 191.114 88.3469 191.443C88.3469 191.72 88.4113 191.958 88.5401 192.159C88.6727 192.36 88.845 192.528 89.0572 192.665C89.2731 192.797 89.5041 192.909 89.7503 193C89.9966 193.087 90.2333 193.159 90.4606 193.216L91.5969 193.511C91.9681 193.602 92.3488 193.725 92.739 193.881C93.1291 194.036 93.4909 194.241 93.8242 194.494C94.1575 194.748 94.4265 195.062 94.631 195.438C94.8394 195.812 94.9435 196.261 94.9435 196.784C94.9435 197.443 94.7731 198.028 94.4322 198.54C94.095 199.051 93.6045 199.455 92.9606 199.75C92.3204 200.045 91.5458 200.193 90.6367 200.193C89.7655 200.193 89.0117 200.055 88.3753 199.778C87.739 199.502 87.2409 199.11 86.881 198.602C86.5212 198.091 86.3223 197.485 86.2844 196.784H88.0458C88.0799 197.205 88.2162 197.555 88.4549 197.835C88.6973 198.112 89.006 198.318 89.381 198.455C89.7598 198.587 90.1746 198.653 90.6253 198.653C91.1216 198.653 91.5628 198.576 91.9492 198.42C92.3394 198.261 92.6462 198.042 92.8697 197.761C93.0931 197.477 93.2049 197.146 93.2049 196.767C93.2049 196.422 93.1064 196.14 92.9094 195.92C92.7162 195.701 92.453 195.519 92.1197 195.375C91.7901 195.231 91.417 195.104 91.0003 194.994L89.6253 194.619C88.6935 194.366 87.9549 193.992 87.4094 193.5C86.8678 193.008 86.5969 192.356 86.5969 191.545C86.5969 190.875 86.7787 190.29 87.1424 189.79C87.506 189.29 87.9984 188.902 88.6197 188.625C89.2409 188.345 89.9416 188.205 90.7219 188.205C91.5098 188.205 92.2049 188.343 92.8072 188.619C93.4132 188.896 93.8905 189.277 94.239 189.761C94.5875 190.242 94.7693 190.795 94.7844 191.42H93.0912Z" fill="black" fill-opacity="0.8"/>
<path d="M131.5 323C130.948 323 130.5 323.448 130.5 324C130.5 324.552 130.948 325 131.5 325V324V323ZM171.5 325C172.052 325 172.5 324.552 172.5 324C172.5 323.448 172.052 323 171.5 323V324V325ZM254.5 323C253.948 323 253.5 323.448 253.5 324C253.5 324.552 253.948 325 254.5 325V324V323ZM295.207 324.707C295.598 324.317 295.598 323.683 295.207 323.293L288.843 316.929C288.453 316.538 287.819 316.538 287.429 316.929C287.038 317.319 287.038 317.953 287.429 318.343L293.086 324L287.429 329.657C287.038 330.047 287.038 330.681 287.429 331.071C287.819 331.462 288.453 331.462 288.843 331.071L295.207 324.707ZM131.5 324V325H171.5V324V323H131.5V324ZM254.5 324V325H294.5V324V323H254.5V324Z" fill="black" fill-opacity="0.8"/>
<path d="M180.595 330V318.364H184.743C185.649 318.364 186.399 318.528 186.993 318.858C187.588 319.187 188.033 319.638 188.328 320.21C188.624 320.778 188.772 321.419 188.772 322.131C188.772 322.847 188.622 323.491 188.323 324.062C188.027 324.631 187.58 325.081 186.982 325.415C186.387 325.744 185.639 325.909 184.738 325.909H181.885V324.42H184.578C185.15 324.42 185.614 324.322 185.97 324.125C186.327 323.924 186.588 323.652 186.755 323.307C186.921 322.962 187.005 322.57 187.005 322.131C187.005 321.691 186.921 321.301 186.755 320.96C186.588 320.619 186.325 320.352 185.965 320.159C185.609 319.966 185.139 319.869 184.556 319.869H182.351V330H180.595ZM190.402 330H188.539L192.726 318.364H194.755L198.942 330H197.079L193.789 320.477H193.698L190.402 330ZM190.715 325.443H196.76V326.92H190.715V325.443ZM200.447 330V318.364H204.594C205.496 318.364 206.244 318.519 206.839 318.83C207.437 319.14 207.884 319.57 208.18 320.119C208.475 320.665 208.623 321.295 208.623 322.011C208.623 322.723 208.473 323.35 208.174 323.892C207.878 324.43 207.431 324.848 206.833 325.148C206.238 325.447 205.49 325.597 204.589 325.597H201.447V324.085H204.43C204.998 324.085 205.46 324.004 205.816 323.841C206.176 323.678 206.439 323.441 206.606 323.131C206.772 322.82 206.856 322.447 206.856 322.011C206.856 321.572 206.77 321.191 206.6 320.869C206.433 320.547 206.17 320.301 205.81 320.131C205.454 319.956 204.986 319.869 204.407 319.869H202.202V330H200.447ZM206.191 324.75L209.066 330H207.066L204.248 324.75H206.191ZM210.009 319.875V318.364H219.015V319.875H215.384V330H213.634V319.875H210.009ZM226.019 330V331.443H218.627V330H226.019ZM236.573 324.182C236.573 325.424 236.346 326.492 235.892 327.386C235.437 328.277 234.814 328.962 234.022 329.443C233.234 329.92 232.339 330.159 231.335 330.159C230.327 330.159 229.428 329.92 228.636 329.443C227.848 328.962 227.227 328.275 226.772 327.381C226.318 326.487 226.09 325.42 226.09 324.182C226.09 322.939 226.318 321.873 226.772 320.983C227.227 320.089 227.848 319.403 228.636 318.926C229.428 318.445 230.327 318.205 231.335 318.205C232.339 318.205 233.234 318.445 234.022 318.926C234.814 319.403 235.437 320.089 235.892 320.983C236.346 321.873 236.573 322.939 236.573 324.182ZM234.835 324.182C234.835 323.235 234.681 322.437 234.375 321.79C234.072 321.138 233.655 320.646 233.125 320.312C232.598 319.975 232.001 319.807 231.335 319.807C230.664 319.807 230.066 319.975 229.539 320.312C229.013 320.646 228.596 321.138 228.289 321.79C227.986 322.437 227.835 323.235 227.835 324.182C227.835 325.129 227.986 325.928 228.289 326.58C228.596 327.227 229.013 327.72 229.539 328.057C230.066 328.39 230.664 328.557 231.335 328.557C232.001 328.557 232.598 328.39 233.125 328.057C233.655 327.72 234.072 327.227 234.375 326.58C234.681 325.928 234.835 325.129 234.835 324.182ZM238.586 330V318.364H245.802V319.875H240.342V323.42H245.285V324.926H240.342V330H238.586Z" fill="black" fill-opacity="0.8"/>
<path d="M63 516.5C63 517.052 63.4477 517.5 64 517.5C64.5523 517.5 65 517.052 65 516.5H64H63ZM65 473.5C65 472.948 64.5523 472.5 64 472.5C63.4477 472.5 63 472.948 63 473.5H64H65ZM63 434.5C63 435.052 63.4477 435.5 64 435.5C64.5523 435.5 65 435.052 65 434.5H64H63ZM64.7071 390.793C64.3166 390.402 63.6834 390.402 63.2929 390.793L56.9289 397.157C56.5384 397.547 56.5384 398.181 56.9289 398.571C57.3195 398.962 57.9526 398.962 58.3431 398.571L64 392.914L69.6569 398.571C70.0474 398.962 70.6805 398.962 71.0711 398.571C71.4616 398.181 71.4616 397.547 71.0711 397.157L64.7071 390.793ZM64 516.5H65V473.5H64H63V516.5H64ZM64 434.5H65V391.5H64H63V434.5H64Z" fill="black" fill-opacity="0.8"/>
<path d="M34.3191 451.42C34.2585 450.883 34.0085 450.466 33.5691 450.17C33.1297 449.871 32.5767 449.722 31.91 449.722C31.4328 449.722 31.0199 449.797 30.6714 449.949C30.3229 450.097 30.0521 450.301 29.8589 450.562C29.6695 450.82 29.5748 451.114 29.5748 451.443C29.5748 451.72 29.6392 451.958 29.768 452.159C29.9006 452.36 30.0729 452.528 30.285 452.665C30.5009 452.797 30.732 452.909 30.9782 453C31.2244 453.087 31.4612 453.159 31.6884 453.216L32.8248 453.511C33.196 453.602 33.5767 453.725 33.9669 453.881C34.357 454.036 34.7187 454.241 35.0521 454.494C35.3854 454.748 35.6544 455.062 35.8589 455.438C36.0672 455.812 36.1714 456.261 36.1714 456.784C36.1714 457.443 36.0009 458.028 35.66 458.54C35.3229 459.051 34.8324 459.455 34.1884 459.75C33.5483 460.045 32.7737 460.193 31.8646 460.193C30.9934 460.193 30.2396 460.055 29.6032 459.778C28.9669 459.502 28.4687 459.11 28.1089 458.602C27.7491 458.091 27.5502 457.485 27.5123 456.784H29.2737C29.3078 457.205 29.4441 457.555 29.6828 457.835C29.9252 458.112 30.2339 458.318 30.6089 458.455C30.9877 458.587 31.4025 458.653 31.8532 458.653C32.3494 458.653 32.7907 458.576 33.1771 458.42C33.5672 458.261 33.8741 458.042 34.0975 457.761C34.321 457.477 34.4328 457.146 34.4328 456.767C34.4328 456.422 34.3343 456.14 34.1373 455.92C33.9441 455.701 33.6809 455.519 33.3475 455.375C33.018 455.231 32.6449 455.104 32.2282 454.994L30.8532 454.619C29.9214 454.366 29.1828 453.992 28.6373 453.5C28.0956 453.008 27.8248 452.356 27.8248 451.545C27.8248 450.875 28.0066 450.29 28.3703 449.79C28.7339 449.29 29.2263 448.902 29.8475 448.625C30.4687 448.345 31.1695 448.205 31.9498 448.205C32.7377 448.205 33.4328 448.343 34.035 448.619C34.6411 448.896 35.1184 449.277 35.4669 449.761C35.8153 450.242 35.9972 450.795 36.0123 451.42H34.3191ZM45.5764 448.364H47.3377V456.017C47.3377 456.831 47.1464 457.553 46.7639 458.182C46.3813 458.807 45.8434 459.299 45.1502 459.659C44.457 460.015 43.6445 460.193 42.7127 460.193C41.7847 460.193 40.9741 460.015 40.2809 459.659C39.5877 459.299 39.0499 458.807 38.6673 458.182C38.2847 457.553 38.0934 456.831 38.0934 456.017V448.364H39.8491V455.875C39.8491 456.402 39.9646 456.869 40.1957 457.278C40.4305 457.688 40.762 458.009 41.19 458.244C41.618 458.475 42.1256 458.591 42.7127 458.591C43.3036 458.591 43.8131 458.475 44.2411 458.244C44.673 458.009 45.0025 457.688 45.2298 457.278C45.4608 456.869 45.5764 456.402 45.5764 455.875V448.364ZM49.7143 460V448.364H53.862C54.7673 448.364 55.5173 448.528 56.112 448.858C56.7067 449.187 57.1518 449.638 57.4472 450.21C57.7427 450.778 57.8904 451.419 57.8904 452.131C57.8904 452.847 57.7408 453.491 57.4416 454.062C57.1461 454.631 56.6991 455.081 56.1006 455.415C55.506 455.744 54.7578 455.909 53.8563 455.909H51.0041V454.42H53.6972C54.2692 454.42 54.7332 454.322 55.0893 454.125C55.4453 453.924 55.7067 453.652 55.8734 453.307C56.04 452.962 56.1234 452.57 56.1234 452.131C56.1234 451.691 56.04 451.301 55.8734 450.96C55.7067 450.619 55.4435 450.352 55.0836 450.159C54.7275 449.966 54.2578 449.869 53.6745 449.869H51.47V460H49.7143ZM59.7727 460V448.364H63.9204C64.8257 448.364 65.5757 448.528 66.1704 448.858C66.7651 449.187 67.2102 449.638 67.5056 450.21C67.8011 450.778 67.9488 451.419 67.9488 452.131C67.9488 452.847 67.7992 453.491 67.4999 454.062C67.2045 454.631 66.7575 455.081 66.159 455.415C65.5643 455.744 64.8162 455.909 63.9147 455.909H61.0624V454.42H63.7556C64.3276 454.42 64.7916 454.322 65.1477 454.125C65.5037 453.924 65.7651 453.652 65.9318 453.307C66.0984 452.962 66.1818 452.57 66.1818 452.131C66.1818 451.691 66.0984 451.301 65.9318 450.96C65.7651 450.619 65.5018 450.352 65.142 450.159C64.7859 449.966 64.3162 449.869 63.7329 449.869H61.5283V460H59.7727ZM69.831 460V448.364H71.5867V458.489H76.8594V460H69.831ZM80.442 448.364V460H78.6863V448.364H80.442ZM82.8228 460V448.364H90.1182V449.875H84.5785V453.42H89.7376V454.926H84.5785V458.489H90.1864V460H82.8228ZM98.634 451.42C98.5734 450.883 98.3234 450.466 97.884 450.17C97.4446 449.871 96.8916 449.722 96.2249 449.722C95.7476 449.722 95.3348 449.797 94.9863 449.949C94.6378 450.097 94.367 450.301 94.1738 450.562C93.9844 450.82 93.8897 451.114 93.8897 451.443C93.8897 451.72 93.9541 451.958 94.0829 452.159C94.2154 452.36 94.3878 452.528 94.5999 452.665C94.8158 452.797 95.0469 452.909 95.2931 453C95.5393 453.087 95.776 453.159 96.0033 453.216L97.1397 453.511C97.5109 453.602 97.8916 453.725 98.2817 453.881C98.6719 454.036 99.0336 454.241 99.367 454.494C99.7003 454.748 99.9692 455.062 100.174 455.438C100.382 455.812 100.486 456.261 100.486 456.784C100.486 457.443 100.316 458.028 99.9749 458.54C99.6378 459.051 99.1473 459.455 98.5033 459.75C97.8632 460.045 97.0885 460.193 96.1795 460.193C95.3082 460.193 94.5545 460.055 93.9181 459.778C93.2817 459.502 92.7836 459.11 92.4238 458.602C92.0639 458.091 91.8651 457.485 91.8272 456.784H93.5885C93.6226 457.205 93.759 457.555 93.9976 457.835C94.2401 458.112 94.5488 458.318 94.9238 458.455C95.3026 458.587 95.7173 458.653 96.1681 458.653C96.6643 458.653 97.1056 458.576 97.492 458.42C97.8821 458.261 98.1889 458.042 98.4124 457.761C98.6359 457.477 98.7476 457.146 98.7476 456.767C98.7476 456.422 98.6492 456.14 98.4522 455.92C98.259 455.701 97.9957 455.519 97.6624 455.375C97.3329 455.231 96.9598 455.104 96.5431 454.994L95.1681 454.619C94.2363 454.366 93.4976 453.992 92.9522 453.5C92.4105 453.008 92.1397 452.356 92.1397 451.545C92.1397 450.875 92.3215 450.29 92.6851 449.79C93.0488 449.29 93.5412 448.902 94.1624 448.625C94.7836 448.345 95.4844 448.205 96.2647 448.205C97.0526 448.205 97.7476 448.343 98.3499 448.619C98.956 448.896 99.4332 449.277 99.7817 449.761C100.13 450.242 100.312 450.795 100.327 451.42H98.634Z" fill="black" fill-opacity="0.8"/>
</svg>
