<svg width="512" height="318" viewBox="0 0 512 318" fill="none" xmlns="http://www.w3.org/2000/svg">
<circle cx="159" cy="159" r="159" fill="#A3E2FF"/>
<circle cx="353" cy="159" r="159" fill="#CC254B" fill-opacity="0.36"/>
<circle cx="256.5" cy="159.5" r="37.5" fill="#717780"/>
<circle cx="99.5" cy="94.5" r="37.5" fill="#717780"/>
<path d="M243.232 137.455C243.181 137.023 242.973 136.688 242.61 136.449C242.246 136.21 241.8 136.091 241.272 136.091C240.885 136.091 240.547 136.153 240.257 136.278C239.971 136.403 239.746 136.575 239.584 136.794C239.425 137.013 239.346 137.261 239.346 137.54C239.346 137.773 239.401 137.973 239.512 138.141C239.625 138.305 239.77 138.443 239.946 138.554C240.123 138.662 240.307 138.751 240.5 138.822C240.694 138.891 240.871 138.946 241.033 138.989L241.919 139.227C242.147 139.287 242.4 139.369 242.678 139.474C242.959 139.58 243.228 139.723 243.483 139.905C243.742 140.084 243.955 140.314 244.123 140.595C244.29 140.876 244.374 141.222 244.374 141.631C244.374 142.102 244.25 142.528 244.003 142.909C243.759 143.29 243.401 143.592 242.929 143.817C242.461 144.041 241.891 144.153 241.221 144.153C240.596 144.153 240.054 144.053 239.597 143.851C239.142 143.649 238.784 143.368 238.523 143.007C238.265 142.646 238.118 142.227 238.084 141.75H239.175C239.203 142.08 239.314 142.352 239.507 142.568C239.703 142.781 239.951 142.94 240.249 143.045C240.55 143.148 240.874 143.199 241.221 143.199C241.624 143.199 241.986 143.134 242.307 143.003C242.628 142.869 242.882 142.685 243.07 142.449C243.257 142.21 243.351 141.932 243.351 141.614C243.351 141.324 243.27 141.088 243.108 140.906C242.946 140.724 242.733 140.577 242.469 140.463C242.205 140.349 241.919 140.25 241.613 140.165L240.539 139.858C239.857 139.662 239.317 139.382 238.919 139.018C238.522 138.655 238.323 138.179 238.323 137.591C238.323 137.102 238.455 136.676 238.719 136.312C238.986 135.946 239.344 135.662 239.793 135.46C240.245 135.256 240.749 135.153 241.306 135.153C241.868 135.153 242.368 135.254 242.806 135.456C243.243 135.655 243.59 135.928 243.846 136.274C244.104 136.621 244.24 137.014 244.255 137.455H243.232ZM248.719 144.136C248.089 144.136 247.545 143.997 247.087 143.719C246.633 143.438 246.282 143.045 246.035 142.543C245.79 142.037 245.668 141.449 245.668 140.778C245.668 140.108 245.79 139.517 246.035 139.006C246.282 138.491 246.626 138.091 247.066 137.804C247.509 137.514 248.026 137.369 248.617 137.369C248.958 137.369 249.295 137.426 249.627 137.54C249.96 137.653 250.262 137.838 250.535 138.094C250.808 138.347 251.025 138.682 251.187 139.099C251.349 139.517 251.43 140.031 251.43 140.642V141.068H246.384V140.199H250.407C250.407 139.83 250.333 139.5 250.185 139.21C250.04 138.92 249.833 138.692 249.563 138.524C249.296 138.357 248.981 138.273 248.617 138.273C248.217 138.273 247.87 138.372 247.577 138.571C247.288 138.767 247.065 139.023 246.908 139.338C246.752 139.653 246.674 139.991 246.674 140.352V140.932C246.674 141.426 246.759 141.845 246.93 142.189C247.103 142.53 247.343 142.79 247.65 142.969C247.957 143.145 248.313 143.233 248.719 143.233C248.984 143.233 249.222 143.196 249.435 143.122C249.651 143.045 249.837 142.932 249.994 142.781C250.15 142.628 250.271 142.437 250.356 142.21L251.327 142.483C251.225 142.812 251.053 143.102 250.812 143.352C250.57 143.599 250.272 143.793 249.917 143.932C249.562 144.068 249.163 144.136 248.719 144.136ZM252.96 144V137.455H253.931V138.443H253.999C254.119 138.119 254.335 137.857 254.647 137.655C254.96 137.453 255.312 137.352 255.704 137.352C255.778 137.352 255.87 137.354 255.981 137.357C256.092 137.359 256.175 137.364 256.232 137.369V138.392C256.198 138.384 256.12 138.371 255.998 138.354C255.879 138.334 255.752 138.324 255.619 138.324C255.3 138.324 255.016 138.391 254.766 138.524C254.519 138.655 254.323 138.837 254.178 139.07C254.036 139.3 253.965 139.562 253.965 139.858V144H252.96ZM262.976 137.455L260.555 144H259.533L257.112 137.455H258.203L260.01 142.67H260.078L261.885 137.455H262.976ZM266.813 144.136C266.183 144.136 265.638 143.997 265.181 143.719C264.727 143.438 264.376 143.045 264.129 142.543C263.884 142.037 263.762 141.449 263.762 140.778C263.762 140.108 263.884 139.517 264.129 139.006C264.376 138.491 264.719 138.091 265.16 137.804C265.603 137.514 266.12 137.369 266.711 137.369C267.052 137.369 267.388 137.426 267.721 137.54C268.053 137.653 268.356 137.838 268.629 138.094C268.901 138.347 269.119 138.682 269.281 139.099C269.442 139.517 269.523 140.031 269.523 140.642V141.068H264.478V140.199H268.501C268.501 139.83 268.427 139.5 268.279 139.21C268.134 138.92 267.927 138.692 267.657 138.524C267.39 138.357 267.075 138.273 266.711 138.273C266.31 138.273 265.964 138.372 265.671 138.571C265.381 138.767 265.158 139.023 265.002 139.338C264.846 139.653 264.768 139.991 264.768 140.352V140.932C264.768 141.426 264.853 141.845 265.023 142.189C265.197 142.53 265.437 142.79 265.744 142.969C266.05 143.145 266.407 143.233 266.813 143.233C267.077 143.233 267.316 143.196 267.529 143.122C267.745 143.045 267.931 142.932 268.087 142.781C268.244 142.628 268.364 142.437 268.45 142.21L269.421 142.483C269.319 142.812 269.147 143.102 268.906 143.352C268.664 143.599 268.366 143.793 268.011 143.932C267.656 144.068 267.256 144.136 266.813 144.136ZM271.053 144V137.455H272.025V138.443H272.093C272.212 138.119 272.428 137.857 272.741 137.655C273.053 137.453 273.406 137.352 273.798 137.352C273.871 137.352 273.964 137.354 274.075 137.357C274.185 137.359 274.269 137.364 274.326 137.369V138.392C274.292 138.384 274.214 138.371 274.092 138.354C273.972 138.334 273.846 138.324 273.712 138.324C273.394 138.324 273.11 138.391 272.86 138.524C272.613 138.655 272.417 138.837 272.272 139.07C272.13 139.3 272.059 139.562 272.059 139.858V144H271.053Z" fill="white"/>
<path d="M235.324 159V150.273H238.273C238.958 150.273 239.518 150.396 239.952 150.643C240.39 150.888 240.714 151.219 240.924 151.636C241.134 152.054 241.239 152.52 241.239 153.034C241.239 153.548 241.134 154.016 240.924 154.436C240.716 154.857 240.395 155.192 239.961 155.442C239.526 155.689 238.969 155.812 238.29 155.812H236.177V154.875H238.256C238.725 154.875 239.101 154.794 239.385 154.632C239.67 154.47 239.876 154.251 240.003 153.976C240.134 153.697 240.199 153.384 240.199 153.034C240.199 152.685 240.134 152.372 240.003 152.097C239.876 151.821 239.668 151.605 239.381 151.449C239.094 151.29 238.714 151.21 238.239 151.21H236.381V159H235.324ZM242.805 159V152.455H243.777V153.443H243.845C243.964 153.119 244.18 152.857 244.493 152.655C244.805 152.453 245.157 152.352 245.55 152.352C245.623 152.352 245.716 152.354 245.827 152.357C245.937 152.359 246.021 152.364 246.078 152.369V153.392C246.044 153.384 245.966 153.371 245.844 153.354C245.724 153.334 245.598 153.324 245.464 153.324C245.146 153.324 244.862 153.391 244.612 153.524C244.365 153.655 244.169 153.837 244.024 154.07C243.882 154.3 243.811 154.562 243.811 154.858V159H242.805ZM247.27 159V152.455H248.276V159H247.27ZM247.781 151.364C247.585 151.364 247.416 151.297 247.274 151.163C247.135 151.03 247.066 150.869 247.066 150.682C247.066 150.494 247.135 150.334 247.274 150.2C247.416 150.067 247.585 150 247.781 150C247.977 150 248.145 150.067 248.284 150.2C248.426 150.334 248.497 150.494 248.497 150.682C248.497 150.869 248.426 151.03 248.284 151.163C248.145 151.297 247.977 151.364 247.781 151.364ZM250.118 159V152.455H251.089V153.477H251.175C251.311 153.128 251.531 152.857 251.835 152.663C252.139 152.467 252.504 152.369 252.93 152.369C253.362 152.369 253.721 152.467 254.008 152.663C254.298 152.857 254.524 153.128 254.686 153.477H254.754C254.922 153.139 255.173 152.871 255.508 152.672C255.844 152.47 256.246 152.369 256.714 152.369C257.3 152.369 257.778 152.553 258.15 152.919C258.523 153.283 258.709 153.849 258.709 154.619V159H257.703V154.619C257.703 154.136 257.571 153.791 257.307 153.584C257.042 153.376 256.731 153.273 256.373 153.273C255.913 153.273 255.557 153.412 255.304 153.69C255.051 153.966 254.925 154.315 254.925 154.739V159H253.902V154.517C253.902 154.145 253.781 153.845 253.54 153.618C253.298 153.388 252.987 153.273 252.606 153.273C252.345 153.273 252.101 153.342 251.873 153.482C251.649 153.621 251.467 153.814 251.328 154.061C251.192 154.305 251.123 154.588 251.123 154.909V159H250.118ZM262.474 159.153C262.059 159.153 261.682 159.075 261.344 158.919C261.006 158.76 260.738 158.531 260.539 158.233C260.34 157.932 260.241 157.568 260.241 157.142C260.241 156.767 260.314 156.463 260.462 156.23C260.61 155.994 260.807 155.81 261.055 155.676C261.302 155.543 261.574 155.443 261.873 155.378C262.174 155.31 262.476 155.256 262.78 155.216C263.178 155.165 263.501 155.126 263.748 155.101C263.998 155.072 264.18 155.026 264.293 154.96C264.41 154.895 264.468 154.781 264.468 154.619V154.585C264.468 154.165 264.353 153.838 264.123 153.605C263.895 153.372 263.55 153.256 263.087 153.256C262.607 153.256 262.231 153.361 261.958 153.571C261.685 153.781 261.493 154.006 261.383 154.244L260.428 153.903C260.599 153.506 260.826 153.196 261.11 152.974C261.397 152.75 261.709 152.594 262.047 152.506C262.388 152.415 262.724 152.369 263.053 152.369C263.263 152.369 263.505 152.395 263.778 152.446C264.053 152.494 264.319 152.595 264.574 152.749C264.833 152.902 265.047 153.134 265.218 153.443C265.388 153.753 265.474 154.168 265.474 154.688V159H264.468V158.114H264.417C264.349 158.256 264.235 158.408 264.076 158.57C263.917 158.732 263.705 158.869 263.441 158.983C263.177 159.097 262.854 159.153 262.474 159.153ZM262.627 158.25C263.025 158.25 263.36 158.172 263.633 158.016C263.908 157.859 264.116 157.658 264.255 157.411C264.397 157.163 264.468 156.903 264.468 156.631V155.71C264.425 155.761 264.331 155.808 264.187 155.851C264.045 155.891 263.88 155.926 263.692 155.957C263.508 155.986 263.327 156.011 263.151 156.034C262.978 156.054 262.837 156.071 262.729 156.085C262.468 156.119 262.224 156.175 261.996 156.251C261.772 156.325 261.59 156.437 261.451 156.588C261.314 156.736 261.246 156.937 261.246 157.193C261.246 157.543 261.376 157.807 261.634 157.986C261.895 158.162 262.226 158.25 262.627 158.25ZM267.309 159V152.455H268.281V153.443H268.349C268.468 153.119 268.684 152.857 268.997 152.655C269.309 152.453 269.661 152.352 270.053 152.352C270.127 152.352 270.22 152.354 270.33 152.357C270.441 152.359 270.525 152.364 270.582 152.369V153.392C270.548 153.384 270.47 153.371 270.347 153.354C270.228 153.334 270.102 153.324 269.968 153.324C269.65 153.324 269.366 153.391 269.116 153.524C268.869 153.655 268.673 153.837 268.528 154.07C268.386 154.3 268.315 154.562 268.315 154.858V159H267.309ZM272.621 161.455C272.45 161.455 272.298 161.44 272.165 161.412C272.031 161.386 271.939 161.361 271.888 161.335L272.144 160.449C272.388 160.511 272.604 160.534 272.791 160.517C272.979 160.5 273.145 160.416 273.29 160.266C273.438 160.118 273.573 159.878 273.695 159.545L273.882 159.034L271.462 152.455H272.553L274.36 157.67H274.428L276.235 152.455H277.325L274.547 159.955C274.422 160.293 274.267 160.572 274.083 160.794C273.898 161.018 273.683 161.185 273.439 161.293C273.198 161.401 272.925 161.455 272.621 161.455Z" fill="#FFB8C4"/>
<path d="M231.29 167.455C231.239 167.023 231.032 166.688 230.668 166.449C230.305 166.21 229.859 166.091 229.33 166.091C228.944 166.091 228.606 166.153 228.316 166.278C228.029 166.403 227.805 166.575 227.643 166.794C227.484 167.013 227.404 167.261 227.404 167.54C227.404 167.773 227.46 167.973 227.57 168.141C227.684 168.305 227.829 168.443 228.005 168.554C228.181 168.662 228.366 168.751 228.559 168.822C228.752 168.891 228.93 168.946 229.092 168.989L229.978 169.227C230.205 169.287 230.458 169.369 230.737 169.474C231.018 169.58 231.286 169.723 231.542 169.905C231.8 170.084 232.013 170.314 232.181 170.595C232.349 170.876 232.433 171.222 232.433 171.631C232.433 172.102 232.309 172.528 232.062 172.909C231.817 173.29 231.46 173.592 230.988 173.817C230.519 174.041 229.95 174.153 229.279 174.153C228.654 174.153 228.113 174.053 227.656 173.851C227.201 173.649 226.843 173.368 226.582 173.007C226.323 172.646 226.177 172.227 226.143 171.75H227.234C227.262 172.08 227.373 172.352 227.566 172.568C227.762 172.781 228.009 172.94 228.308 173.045C228.609 173.148 228.933 173.199 229.279 173.199C229.683 173.199 230.045 173.134 230.366 173.003C230.687 172.869 230.941 172.685 231.129 172.449C231.316 172.21 231.41 171.932 231.41 171.614C231.41 171.324 231.329 171.088 231.167 170.906C231.005 170.724 230.792 170.577 230.528 170.463C230.263 170.349 229.978 170.25 229.671 170.165L228.597 169.858C227.915 169.662 227.376 169.382 226.978 169.018C226.58 168.655 226.381 168.179 226.381 167.591C226.381 167.102 226.513 166.676 226.778 166.312C227.045 165.946 227.403 165.662 227.852 165.46C228.303 165.256 228.808 165.153 229.364 165.153C229.927 165.153 230.427 165.254 230.864 165.456C231.302 165.655 231.648 165.928 231.904 166.274C232.163 166.621 232.299 167.014 232.313 167.455H231.29ZM236.778 174.136C236.147 174.136 235.603 173.997 235.146 173.719C234.691 173.438 234.341 173.045 234.093 172.543C233.849 172.037 233.727 171.449 233.727 170.778C233.727 170.108 233.849 169.517 234.093 169.006C234.341 168.491 234.684 168.091 235.125 167.804C235.568 167.514 236.085 167.369 236.676 167.369C237.017 167.369 237.353 167.426 237.686 167.54C238.018 167.653 238.321 167.838 238.593 168.094C238.866 168.347 239.083 168.682 239.245 169.099C239.407 169.517 239.488 170.031 239.488 170.642V171.068H234.443V170.199H238.466C238.466 169.83 238.392 169.5 238.244 169.21C238.099 168.92 237.892 168.692 237.622 168.524C237.355 168.357 237.039 168.273 236.676 168.273C236.275 168.273 235.929 168.372 235.636 168.571C235.346 168.767 235.123 169.023 234.967 169.338C234.811 169.653 234.733 169.991 234.733 170.352V170.932C234.733 171.426 234.818 171.845 234.988 172.189C235.162 172.53 235.402 172.79 235.708 172.969C236.015 173.145 236.372 173.233 236.778 173.233C237.042 173.233 237.281 173.196 237.494 173.122C237.71 173.045 237.896 172.932 238.052 172.781C238.208 172.628 238.329 172.437 238.414 172.21L239.386 172.483C239.284 172.812 239.112 173.102 238.87 173.352C238.629 173.599 238.331 173.793 237.975 173.932C237.62 174.068 237.221 174.136 236.778 174.136ZM243.677 174.136C243.064 174.136 242.535 173.991 242.092 173.702C241.649 173.412 241.308 173.013 241.069 172.504C240.831 171.996 240.711 171.415 240.711 170.761C240.711 170.097 240.833 169.51 241.078 169.001C241.325 168.49 241.669 168.091 242.109 167.804C242.552 167.514 243.069 167.369 243.66 167.369C244.12 167.369 244.535 167.455 244.904 167.625C245.274 167.795 245.576 168.034 245.812 168.341C246.048 168.648 246.194 169.006 246.251 169.415H245.245C245.169 169.116 244.998 168.852 244.734 168.622C244.473 168.389 244.12 168.273 243.677 168.273C243.285 168.273 242.941 168.375 242.646 168.58C242.353 168.781 242.125 169.067 241.96 169.436C241.798 169.803 241.717 170.233 241.717 170.727C241.717 171.233 241.797 171.673 241.956 172.048C242.118 172.423 242.345 172.714 242.637 172.922C242.933 173.129 243.279 173.233 243.677 173.233C243.939 173.233 244.176 173.188 244.389 173.097C244.602 173.006 244.782 172.875 244.93 172.705C245.078 172.534 245.183 172.33 245.245 172.091H246.251C246.194 172.477 246.054 172.825 245.829 173.135C245.608 173.442 245.314 173.686 244.947 173.868C244.583 174.047 244.16 174.136 243.677 174.136ZM250.38 174.136C249.789 174.136 249.271 173.996 248.825 173.714C248.382 173.433 248.035 173.04 247.785 172.534C247.538 172.028 247.414 171.437 247.414 170.761C247.414 170.08 247.538 169.484 247.785 168.976C248.035 168.467 248.382 168.072 248.825 167.791C249.271 167.51 249.789 167.369 250.38 167.369C250.971 167.369 251.488 167.51 251.931 167.791C252.377 168.072 252.724 168.467 252.971 168.976C253.221 169.484 253.346 170.08 253.346 170.761C253.346 171.437 253.221 172.028 252.971 172.534C252.724 173.04 252.377 173.433 251.931 173.714C251.488 173.996 250.971 174.136 250.38 174.136ZM250.38 173.233C250.829 173.233 251.199 173.118 251.488 172.888C251.778 172.658 251.993 172.355 252.132 171.98C252.271 171.605 252.341 171.199 252.341 170.761C252.341 170.324 252.271 169.916 252.132 169.538C251.993 169.161 251.778 168.855 251.488 168.622C251.199 168.389 250.829 168.273 250.38 168.273C249.931 168.273 249.562 168.389 249.272 168.622C248.983 168.855 248.768 169.161 248.629 169.538C248.49 169.916 248.42 170.324 248.42 170.761C248.42 171.199 248.49 171.605 248.629 171.98C248.768 172.355 248.983 172.658 249.272 172.888C249.562 173.118 249.931 173.233 250.38 173.233ZM255.887 170.062V174H254.881V167.455H255.853V168.477H255.938C256.092 168.145 256.325 167.878 256.637 167.676C256.95 167.472 257.353 167.369 257.847 167.369C258.29 167.369 258.678 167.46 259.011 167.642C259.343 167.821 259.602 168.094 259.786 168.46C259.971 168.824 260.063 169.284 260.063 169.841V174H259.058V169.909C259.058 169.395 258.924 168.994 258.657 168.707C258.39 168.418 258.023 168.273 257.558 168.273C257.237 168.273 256.95 168.342 256.697 168.482C256.447 168.621 256.249 168.824 256.104 169.091C255.96 169.358 255.887 169.682 255.887 170.062ZM264.373 174.136C263.827 174.136 263.346 173.999 262.928 173.723C262.51 173.445 262.184 173.053 261.948 172.547C261.712 172.038 261.594 171.438 261.594 170.744C261.594 170.057 261.712 169.46 261.948 168.955C262.184 168.449 262.512 168.058 262.932 167.783C263.353 167.507 263.838 167.369 264.39 167.369C264.816 167.369 265.152 167.44 265.4 167.582C265.65 167.722 265.84 167.881 265.971 168.06C266.104 168.236 266.208 168.381 266.282 168.494H266.367V165.273H267.373V174H266.401V172.994H266.282C266.208 173.114 266.103 173.264 265.966 173.446C265.83 173.625 265.635 173.786 265.382 173.928C265.13 174.067 264.793 174.136 264.373 174.136ZM264.509 173.233C264.912 173.233 265.253 173.128 265.532 172.918C265.81 172.705 266.022 172.411 266.167 172.036C266.311 171.658 266.384 171.222 266.384 170.727C266.384 170.239 266.313 169.811 266.171 169.445C266.029 169.075 265.819 168.788 265.54 168.584C265.262 168.376 264.918 168.273 264.509 168.273C264.083 168.273 263.728 168.382 263.444 168.601C263.162 168.817 262.951 169.111 262.809 169.483C262.669 169.852 262.6 170.267 262.6 170.727C262.6 171.193 262.671 171.616 262.813 171.997C262.958 172.375 263.171 172.676 263.452 172.901C263.736 173.122 264.088 173.233 264.509 173.233ZM271.28 174.153C270.865 174.153 270.489 174.075 270.151 173.919C269.813 173.76 269.544 173.531 269.346 173.233C269.147 172.932 269.047 172.568 269.047 172.142C269.047 171.767 269.121 171.463 269.269 171.23C269.417 170.994 269.614 170.81 269.861 170.676C270.108 170.543 270.381 170.443 270.679 170.378C270.98 170.31 271.283 170.256 271.587 170.216C271.985 170.165 272.307 170.126 272.554 170.101C272.804 170.072 272.986 170.026 273.1 169.96C273.216 169.895 273.275 169.781 273.275 169.619V169.585C273.275 169.165 273.159 168.838 272.929 168.605C272.702 168.372 272.357 168.256 271.894 168.256C271.414 168.256 271.037 168.361 270.765 168.571C270.492 168.781 270.3 169.006 270.189 169.244L269.235 168.903C269.405 168.506 269.632 168.196 269.917 167.974C270.203 167.75 270.516 167.594 270.854 167.506C271.195 167.415 271.53 167.369 271.86 167.369C272.07 167.369 272.311 167.395 272.584 167.446C272.86 167.494 273.125 167.595 273.381 167.749C273.64 167.902 273.854 168.134 274.025 168.443C274.195 168.753 274.28 169.168 274.28 169.688V174H273.275V173.114H273.223C273.155 173.256 273.042 173.408 272.882 173.57C272.723 173.732 272.512 173.869 272.248 173.983C271.983 174.097 271.661 174.153 271.28 174.153ZM271.434 173.25C271.831 173.25 272.167 173.172 272.439 173.016C272.715 172.859 272.922 172.658 273.061 172.411C273.203 172.163 273.275 171.903 273.275 171.631V170.71C273.232 170.761 273.138 170.808 272.993 170.851C272.851 170.891 272.686 170.926 272.499 170.957C272.314 170.986 272.134 171.011 271.958 171.034C271.784 171.054 271.644 171.071 271.536 171.085C271.275 171.119 271.03 171.175 270.803 171.251C270.578 171.325 270.397 171.437 270.257 171.588C270.121 171.736 270.053 171.937 270.053 172.193C270.053 172.543 270.182 172.807 270.441 172.986C270.702 173.162 271.033 173.25 271.434 173.25ZM276.116 174V167.455H277.087V168.443H277.156C277.275 168.119 277.491 167.857 277.803 167.655C278.116 167.453 278.468 167.352 278.86 167.352C278.934 167.352 279.026 167.354 279.137 167.357C279.248 167.359 279.332 167.364 279.388 167.369V168.392C279.354 168.384 279.276 168.371 279.154 168.354C279.035 168.334 278.908 168.324 278.775 168.324C278.457 168.324 278.173 168.391 277.923 168.524C277.675 168.655 277.479 168.837 277.335 169.07C277.192 169.3 277.121 169.562 277.121 169.858V174H276.116ZM281.428 176.455C281.257 176.455 281.105 176.44 280.972 176.412C280.838 176.386 280.746 176.361 280.695 176.335L280.95 175.449C281.195 175.511 281.411 175.534 281.598 175.517C281.786 175.5 281.952 175.416 282.097 175.266C282.244 175.118 282.379 174.878 282.501 174.545L282.689 174.034L280.268 167.455H281.359L283.166 172.67H283.234L285.041 167.455H286.132L283.354 174.955C283.229 175.293 283.074 175.572 282.889 175.794C282.705 176.018 282.49 176.185 282.246 176.293C282.004 176.401 281.732 176.455 281.428 176.455Z" fill="#A3E2FF"/>
<path d="M86.2319 84.4545C86.1808 84.0227 85.9734 83.6875 85.6097 83.4489C85.2461 83.2102 84.8001 83.0909 84.2717 83.0909C83.8853 83.0909 83.5472 83.1534 83.2575 83.2784C82.9705 83.4034 82.7461 83.5753 82.5842 83.794C82.4251 84.0128 82.3455 84.2614 82.3455 84.5398C82.3455 84.7727 82.4009 84.973 82.5117 85.1406C82.6254 85.3054 82.7702 85.4432 82.9464 85.554C83.1225 85.6619 83.3072 85.7514 83.5004 85.8224C83.6935 85.8906 83.8711 85.946 84.033 85.9886L84.9194 86.2273C85.1467 86.2869 85.3995 86.3693 85.6779 86.4744C85.9592 86.5795 86.2276 86.723 86.4833 86.9048C86.7418 87.0838 86.9549 87.3139 87.1225 87.5952C87.2901 87.8764 87.3739 88.2216 87.3739 88.6307C87.3739 89.1023 87.2504 89.5284 87.0032 89.9091C86.7589 90.2898 86.4009 90.5923 85.9293 90.8168C85.4606 91.0412 84.891 91.1534 84.2205 91.1534C83.5955 91.1534 83.0543 91.0526 82.5969 90.8509C82.1424 90.6491 81.7844 90.3679 81.5231 90.0071C81.2646 89.6463 81.1183 89.2273 81.0842 88.75H82.1751C82.2035 89.0795 82.3143 89.3523 82.5075 89.5682C82.7035 89.7812 82.9506 89.9403 83.2489 90.0455C83.5501 90.1477 83.8739 90.1989 84.2205 90.1989C84.6239 90.1989 84.9862 90.1335 85.3072 90.0028C85.6282 89.8693 85.8825 89.6847 86.07 89.4489C86.2575 89.2102 86.3512 88.9318 86.3512 88.6136C86.3512 88.3239 86.2702 88.0881 86.1083 87.9062C85.9464 87.7244 85.7333 87.5767 85.4691 87.4631C85.2049 87.3494 84.9194 87.25 84.6126 87.1648L83.5387 86.858C82.8569 86.6619 82.3171 86.3821 81.9194 86.0185C81.5217 85.6548 81.3228 85.179 81.3228 84.5909C81.3228 84.1023 81.4549 83.6761 81.7191 83.3125C81.9862 82.946 82.3441 82.6619 82.793 82.4602C83.2447 82.2557 83.7489 82.1534 84.3058 82.1534C84.8683 82.1534 85.3683 82.2543 85.8058 82.456C86.2433 82.6548 86.5898 82.9276 86.8455 83.2741C87.104 83.6207 87.2404 84.0142 87.2546 84.4545H86.2319ZM91.7195 91.1364C91.0888 91.1364 90.5447 90.9972 90.0874 90.7188C89.6328 90.4375 89.282 90.0455 89.0348 89.5426C88.7905 89.0369 88.6683 88.4489 88.6683 87.7784C88.6683 87.108 88.7905 86.517 89.0348 86.0057C89.282 85.4915 89.6257 85.0909 90.0661 84.804C90.5092 84.5142 91.0263 84.3693 91.6172 84.3693C91.9581 84.3693 92.2947 84.4261 92.6271 84.5398C92.9595 84.6534 93.2621 84.8381 93.5348 85.0938C93.8075 85.3466 94.0249 85.6818 94.1868 86.0994C94.3487 86.517 94.4297 87.0312 94.4297 87.642V88.0682H89.3842V87.1989H93.407C93.407 86.8295 93.3331 86.5 93.1854 86.2102C93.0405 85.9205 92.8331 85.6918 92.5632 85.5241C92.2962 85.3565 91.9808 85.2727 91.6172 85.2727C91.2166 85.2727 90.87 85.3722 90.5774 85.571C90.2876 85.767 90.0646 86.0227 89.9084 86.3381C89.7521 86.6534 89.674 86.9915 89.674 87.3523V87.9318C89.674 88.4261 89.7592 88.8452 89.9297 89.1889C90.103 89.5298 90.343 89.7898 90.6499 89.9688C90.9567 90.1449 91.3132 90.233 91.7195 90.233C91.9837 90.233 92.2223 90.196 92.4354 90.1222C92.6513 90.0455 92.8374 89.9318 92.9936 89.7812C93.1499 89.6278 93.2706 89.4375 93.3558 89.2102L94.3274 89.483C94.2251 89.8125 94.0533 90.1023 93.8118 90.3523C93.5703 90.5994 93.272 90.7926 92.9169 90.9318C92.5618 91.0682 92.1626 91.1364 91.7195 91.1364ZM95.9595 91V84.4545H96.9311V85.4432H96.9993C97.1186 85.1193 97.3345 84.8565 97.647 84.6548C97.9595 84.4531 98.3118 84.3523 98.7038 84.3523C98.7777 84.3523 98.87 84.3537 98.9808 84.3565C99.0916 84.3594 99.1754 84.3636 99.2322 84.3693V85.392C99.1982 85.3835 99.12 85.3707 98.9979 85.3537C98.8786 85.3338 98.7521 85.3239 98.6186 85.3239C98.3004 85.3239 98.0163 85.3906 97.7663 85.5241C97.5192 85.6548 97.3232 85.8366 97.1783 86.0696C97.0362 86.2997 96.9652 86.5625 96.9652 86.858V91H95.9595ZM105.976 84.4545L103.555 91H102.533L100.112 84.4545H101.203L103.01 89.6705H103.078L104.885 84.4545H105.976ZM109.813 91.1364C109.183 91.1364 108.638 90.9972 108.181 90.7188C107.727 90.4375 107.376 90.0455 107.129 89.5426C106.884 89.0369 106.762 88.4489 106.762 87.7784C106.762 87.108 106.884 86.517 107.129 86.0057C107.376 85.4915 107.719 85.0909 108.16 84.804C108.603 84.5142 109.12 84.3693 109.711 84.3693C110.052 84.3693 110.388 84.4261 110.721 84.5398C111.053 84.6534 111.356 84.8381 111.629 85.0938C111.901 85.3466 112.119 85.6818 112.281 86.0994C112.442 86.517 112.523 87.0312 112.523 87.642V88.0682H107.478V87.1989H111.501C111.501 86.8295 111.427 86.5 111.279 86.2102C111.134 85.9205 110.927 85.6918 110.657 85.5241C110.39 85.3565 110.075 85.2727 109.711 85.2727C109.31 85.2727 108.964 85.3722 108.671 85.571C108.381 85.767 108.158 86.0227 108.002 86.3381C107.846 86.6534 107.768 86.9915 107.768 87.3523V87.9318C107.768 88.4261 107.853 88.8452 108.023 89.1889C108.197 89.5298 108.437 89.7898 108.744 89.9688C109.05 90.1449 109.407 90.233 109.813 90.233C110.077 90.233 110.316 90.196 110.529 90.1222C110.745 90.0455 110.931 89.9318 111.087 89.7812C111.244 89.6278 111.364 89.4375 111.45 89.2102L112.421 89.483C112.319 89.8125 112.147 90.1023 111.906 90.3523C111.664 90.5994 111.366 90.7926 111.011 90.9318C110.656 91.0682 110.256 91.1364 109.813 91.1364ZM114.053 91V84.4545H115.025V85.4432H115.093C115.212 85.1193 115.428 84.8565 115.741 84.6548C116.053 84.4531 116.406 84.3523 116.798 84.3523C116.871 84.3523 116.964 84.3537 117.075 84.3565C117.185 84.3594 117.269 84.3636 117.326 84.3693V85.392C117.292 85.3835 117.214 85.3707 117.092 85.3537C116.972 85.3338 116.846 85.3239 116.712 85.3239C116.394 85.3239 116.11 85.3906 115.86 85.5241C115.613 85.6548 115.417 85.8366 115.272 86.0696C115.13 86.2997 115.059 86.5625 115.059 86.858V91H114.053Z" fill="white"/>
<path d="M78.3244 106V97.2727H81.2733C81.9579 97.2727 82.5176 97.3963 82.9522 97.6435C83.3897 97.8878 83.7136 98.2188 83.9238 98.6364C84.1341 99.054 84.2392 99.5199 84.2392 100.034C84.2392 100.548 84.1341 101.016 83.9238 101.436C83.7164 101.857 83.3954 102.192 82.9608 102.442C82.5261 102.689 81.9693 102.812 81.2903 102.812H79.1767V101.875H81.2562C81.725 101.875 82.1014 101.794 82.3855 101.632C82.6696 101.47 82.8755 101.251 83.0034 100.976C83.1341 100.697 83.1994 100.384 83.1994 100.034C83.1994 99.6847 83.1341 99.3722 83.0034 99.0966C82.8755 98.821 82.6681 98.6051 82.3812 98.4489C82.0943 98.2898 81.7136 98.2102 81.2392 98.2102H79.3812V106H78.3244ZM85.8052 106V99.4545H86.7768V100.443H86.845C86.9643 100.119 87.1802 99.8565 87.4927 99.6548C87.8052 99.4531 88.1575 99.3523 88.5495 99.3523C88.6234 99.3523 88.7157 99.3537 88.8265 99.3565C88.9373 99.3594 89.0211 99.3636 89.0779 99.3693V100.392C89.0439 100.384 88.9657 100.371 88.8436 100.354C88.7243 100.334 88.5978 100.324 88.4643 100.324C88.1461 100.324 87.862 100.391 87.612 100.524C87.3649 100.655 87.1689 100.837 87.024 101.07C86.8819 101.3 86.8109 101.562 86.8109 101.858V106H85.8052ZM90.2701 106V99.4545H91.2757V106H90.2701ZM90.7814 98.3636C90.5854 98.3636 90.4164 98.2969 90.2743 98.1634C90.1351 98.0298 90.0655 97.8693 90.0655 97.6818C90.0655 97.4943 90.1351 97.3338 90.2743 97.2003C90.4164 97.0668 90.5854 97 90.7814 97C90.9775 97 91.1451 97.0668 91.2843 97.2003C91.4263 97.3338 91.4973 97.4943 91.4973 97.6818C91.4973 97.8693 91.4263 98.0298 91.2843 98.1634C91.1451 98.2969 90.9775 98.3636 90.7814 98.3636ZM93.1177 106V99.4545H94.0893V100.477H94.1745C94.3109 100.128 94.5311 99.8565 94.835 99.6634C95.139 99.4673 95.5041 99.3693 95.9302 99.3693C96.362 99.3693 96.7214 99.4673 97.0083 99.6634C97.2981 99.8565 97.524 100.128 97.6859 100.477H97.7541C97.9217 100.139 98.1731 99.8707 98.5083 99.6719C98.8436 99.4702 99.2456 99.3693 99.7143 99.3693C100.3 99.3693 100.778 99.5526 101.15 99.919C101.523 100.283 101.709 100.849 101.709 101.619V106H100.703V101.619C100.703 101.136 100.571 100.791 100.307 100.584C100.042 100.376 99.7314 100.273 99.3734 100.273C98.9132 100.273 98.5566 100.412 98.3038 100.69C98.051 100.966 97.9245 101.315 97.9245 101.739V106H96.9018V101.517C96.9018 101.145 96.7811 100.845 96.5396 100.618C96.2981 100.388 95.987 100.273 95.6064 100.273C95.345 100.273 95.1007 100.342 94.8734 100.482C94.649 100.621 94.4672 100.814 94.3279 101.061C94.1916 101.305 94.1234 101.588 94.1234 101.909V106H93.1177ZM105.474 106.153C105.059 106.153 104.682 106.075 104.344 105.919C104.006 105.76 103.738 105.531 103.539 105.233C103.34 104.932 103.241 104.568 103.241 104.142C103.241 103.767 103.314 103.463 103.462 103.23C103.61 102.994 103.807 102.81 104.055 102.676C104.302 102.543 104.574 102.443 104.873 102.378C105.174 102.31 105.476 102.256 105.78 102.216C106.178 102.165 106.501 102.126 106.748 102.101C106.998 102.072 107.18 102.026 107.293 101.96C107.41 101.895 107.468 101.781 107.468 101.619V101.585C107.468 101.165 107.353 100.838 107.123 100.605C106.895 100.372 106.55 100.256 106.087 100.256C105.607 100.256 105.231 100.361 104.958 100.571C104.685 100.781 104.493 101.006 104.383 101.244L103.428 100.903C103.599 100.506 103.826 100.196 104.11 99.9744C104.397 99.75 104.709 99.5937 105.047 99.5057C105.388 99.4148 105.724 99.3693 106.053 99.3693C106.263 99.3693 106.505 99.3949 106.778 99.446C107.053 99.4943 107.319 99.5952 107.574 99.7486C107.833 99.902 108.047 100.134 108.218 100.443C108.388 100.753 108.474 101.168 108.474 101.688V106H107.468V105.114H107.417C107.349 105.256 107.235 105.408 107.076 105.57C106.917 105.732 106.705 105.869 106.441 105.983C106.177 106.097 105.854 106.153 105.474 106.153ZM105.627 105.25C106.025 105.25 106.36 105.172 106.633 105.016C106.908 104.859 107.116 104.658 107.255 104.411C107.397 104.163 107.468 103.903 107.468 103.631V102.71C107.425 102.761 107.331 102.808 107.187 102.851C107.045 102.891 106.88 102.926 106.692 102.957C106.508 102.986 106.327 103.011 106.151 103.034C105.978 103.054 105.837 103.071 105.729 103.085C105.468 103.119 105.224 103.175 104.996 103.251C104.772 103.325 104.59 103.437 104.451 103.588C104.314 103.736 104.246 103.937 104.246 104.193C104.246 104.543 104.376 104.807 104.634 104.986C104.895 105.162 105.226 105.25 105.627 105.25ZM110.309 106V99.4545H111.281V100.443H111.349C111.468 100.119 111.684 99.8565 111.997 99.6548C112.309 99.4531 112.661 99.3523 113.053 99.3523C113.127 99.3523 113.22 99.3537 113.33 99.3565C113.441 99.3594 113.525 99.3636 113.582 99.3693V100.392C113.548 100.384 113.47 100.371 113.347 100.354C113.228 100.334 113.102 100.324 112.968 100.324C112.65 100.324 112.366 100.391 112.116 100.524C111.869 100.655 111.673 100.837 111.528 101.07C111.386 101.3 111.315 101.562 111.315 101.858V106H110.309ZM115.621 108.455C115.45 108.455 115.298 108.44 115.165 108.412C115.031 108.386 114.939 108.361 114.888 108.335L115.144 107.449C115.388 107.511 115.604 107.534 115.791 107.517C115.979 107.5 116.145 107.416 116.29 107.266C116.438 107.118 116.573 106.878 116.695 106.545L116.882 106.034L114.462 99.4545H115.553L117.36 104.67H117.428L119.235 99.4545H120.325L117.547 106.955C117.422 107.293 117.267 107.572 117.083 107.794C116.898 108.018 116.683 108.185 116.439 108.293C116.198 108.401 115.925 108.455 115.621 108.455Z" fill="#A3E2FF"/>
<path d="M341.395 22V13.2727H346.628V14.2102H342.452V17.1591H346.236V18.0966H342.452V22H341.395ZM355.801 17.6364C355.801 18.5568 355.635 19.3523 355.303 20.0227C354.97 20.6932 354.514 21.2102 353.935 21.5739C353.355 21.9375 352.693 22.1193 351.949 22.1193C351.205 22.1193 350.543 21.9375 349.963 21.5739C349.384 21.2102 348.928 20.6932 348.595 20.0227C348.263 19.3523 348.097 18.5568 348.097 17.6364C348.097 16.7159 348.263 15.9205 348.595 15.25C348.928 14.5795 349.384 14.0625 349.963 13.6989C350.543 13.3352 351.205 13.1534 351.949 13.1534C352.693 13.1534 353.355 13.3352 353.935 13.6989C354.514 14.0625 354.97 14.5795 355.303 15.25C355.635 15.9205 355.801 16.7159 355.801 17.6364ZM354.779 17.6364C354.779 16.8807 354.652 16.2429 354.399 15.723C354.149 15.2031 353.81 14.8097 353.381 14.5426C352.955 14.2756 352.477 14.142 351.949 14.142C351.421 14.142 350.942 14.2756 350.513 14.5426C350.087 14.8097 349.747 15.2031 349.494 15.723C349.244 16.2429 349.119 16.8807 349.119 17.6364C349.119 18.392 349.244 19.0298 349.494 19.5497C349.747 20.0696 350.087 20.4631 350.513 20.7301C350.942 20.9972 351.421 21.1307 351.949 21.1307C352.477 21.1307 352.955 20.9972 353.381 20.7301C353.81 20.4631 354.149 20.0696 354.399 19.5497C354.652 19.0298 354.779 18.392 354.779 17.6364ZM364.942 17.6364C364.942 18.5568 364.776 19.3523 364.443 20.0227C364.111 20.6932 363.655 21.2102 363.075 21.5739C362.496 21.9375 361.834 22.1193 361.09 22.1193C360.345 22.1193 359.683 21.9375 359.104 21.5739C358.524 21.2102 358.068 20.6932 357.736 20.0227C357.404 19.3523 357.237 18.5568 357.237 17.6364C357.237 16.7159 357.404 15.9205 357.736 15.25C358.068 14.5795 358.524 14.0625 359.104 13.6989C359.683 13.3352 360.345 13.1534 361.09 13.1534C361.834 13.1534 362.496 13.3352 363.075 13.6989C363.655 14.0625 364.111 14.5795 364.443 15.25C364.776 15.9205 364.942 16.7159 364.942 17.6364ZM363.919 17.6364C363.919 16.8807 363.793 16.2429 363.54 15.723C363.29 15.2031 362.95 14.8097 362.521 14.5426C362.095 14.2756 361.618 14.142 361.09 14.142C360.561 14.142 360.083 14.2756 359.654 14.5426C359.227 14.8097 358.888 15.2031 358.635 15.723C358.385 16.2429 358.26 16.8807 358.26 17.6364C358.26 18.392 358.385 19.0298 358.635 19.5497C358.888 20.0696 359.227 20.4631 359.654 20.7301C360.083 20.9972 360.561 21.1307 361.09 21.1307C361.618 21.1307 362.095 20.9972 362.521 20.7301C362.95 20.4631 363.29 20.0696 363.54 19.5497C363.793 19.0298 363.919 18.392 363.919 17.6364Z" fill="#151E29"/>
<path d="M148.262 22V13.2727H151.313C151.921 13.2727 152.422 13.3778 152.817 13.5881C153.212 13.7955 153.506 14.0753 153.699 14.4276C153.893 14.777 153.989 15.1648 153.989 15.5909C153.989 15.9659 153.922 16.2756 153.789 16.5199C153.658 16.7642 153.485 16.9574 153.269 17.0994C153.056 17.2415 152.824 17.3466 152.574 17.4148V17.5C152.841 17.517 153.11 17.6108 153.38 17.7812C153.65 17.9517 153.876 18.196 154.057 18.5142C154.239 18.8324 154.33 19.2216 154.33 19.6818C154.33 20.1193 154.231 20.5128 154.032 20.8622C153.833 21.2116 153.519 21.4886 153.09 21.6932C152.661 21.8977 152.103 22 151.415 22H148.262ZM149.319 21.0625H151.415C152.106 21.0625 152.596 20.929 152.885 20.6619C153.178 20.392 153.324 20.0653 153.324 19.6818C153.324 19.3864 153.249 19.1136 153.099 18.8636C152.948 18.6108 152.733 18.4091 152.455 18.2585C152.177 18.1051 151.847 18.0284 151.466 18.0284H149.319V21.0625ZM149.319 17.108H151.279C151.597 17.108 151.884 17.0455 152.14 16.9205C152.398 16.7955 152.603 16.6193 152.753 16.392C152.907 16.1648 152.983 15.8977 152.983 15.5909C152.983 15.2074 152.85 14.8821 152.583 14.6151C152.316 14.3452 151.893 14.2102 151.313 14.2102H149.319V17.108ZM156.425 22H155.317L158.521 13.2727H159.612L162.817 22H161.709L159.101 14.6534H159.032L156.425 22ZM156.834 18.5909H161.3V19.5284H156.834V18.5909ZM164.176 22V13.2727H167.125C167.807 13.2727 168.366 13.3892 168.804 13.6222C169.241 13.8523 169.565 14.169 169.775 14.5724C169.986 14.9759 170.091 15.4347 170.091 15.9489C170.091 16.4631 169.986 16.919 169.775 17.3168C169.565 17.7145 169.243 18.027 168.808 18.2543C168.373 18.4787 167.818 18.5909 167.142 18.5909H164.756V17.6364H167.108C167.574 17.6364 167.949 17.5682 168.233 17.4318C168.52 17.2955 168.727 17.1023 168.855 16.8523C168.986 16.5994 169.051 16.2983 169.051 15.9489C169.051 15.5994 168.986 15.294 168.855 15.0327C168.724 14.7713 168.515 14.5696 168.229 14.4276C167.942 14.2827 167.562 14.2102 167.091 14.2102H165.233V22H164.176ZM168.284 18.0795L170.432 22H169.204L167.091 18.0795H168.284Z" fill="#151E29"/>
<circle cx="99.5" cy="221.5" r="37.5" fill="#717780"/>
<path d="M86.2319 211.455C86.1808 211.023 85.9734 210.688 85.6097 210.449C85.2461 210.21 84.8001 210.091 84.2717 210.091C83.8853 210.091 83.5472 210.153 83.2575 210.278C82.9705 210.403 82.7461 210.575 82.5842 210.794C82.4251 211.013 82.3455 211.261 82.3455 211.54C82.3455 211.773 82.4009 211.973 82.5117 212.141C82.6254 212.305 82.7702 212.443 82.9464 212.554C83.1225 212.662 83.3072 212.751 83.5004 212.822C83.6935 212.891 83.8711 212.946 84.033 212.989L84.9194 213.227C85.1467 213.287 85.3995 213.369 85.6779 213.474C85.9592 213.58 86.2276 213.723 86.4833 213.905C86.7418 214.084 86.9549 214.314 87.1225 214.595C87.2901 214.876 87.3739 215.222 87.3739 215.631C87.3739 216.102 87.2504 216.528 87.0032 216.909C86.7589 217.29 86.4009 217.592 85.9293 217.817C85.4606 218.041 84.891 218.153 84.2205 218.153C83.5955 218.153 83.0543 218.053 82.5969 217.851C82.1424 217.649 81.7844 217.368 81.5231 217.007C81.2646 216.646 81.1183 216.227 81.0842 215.75H82.1751C82.2035 216.08 82.3143 216.352 82.5075 216.568C82.7035 216.781 82.9506 216.94 83.2489 217.045C83.5501 217.148 83.8739 217.199 84.2205 217.199C84.6239 217.199 84.9862 217.134 85.3072 217.003C85.6282 216.869 85.8825 216.685 86.07 216.449C86.2575 216.21 86.3512 215.932 86.3512 215.614C86.3512 215.324 86.2702 215.088 86.1083 214.906C85.9464 214.724 85.7333 214.577 85.4691 214.463C85.2049 214.349 84.9194 214.25 84.6126 214.165L83.5387 213.858C82.8569 213.662 82.3171 213.382 81.9194 213.018C81.5217 212.655 81.3228 212.179 81.3228 211.591C81.3228 211.102 81.4549 210.676 81.7191 210.312C81.9862 209.946 82.3441 209.662 82.793 209.46C83.2447 209.256 83.7489 209.153 84.3058 209.153C84.8683 209.153 85.3683 209.254 85.8058 209.456C86.2433 209.655 86.5898 209.928 86.8455 210.274C87.104 210.621 87.2404 211.014 87.2546 211.455H86.2319ZM91.7195 218.136C91.0888 218.136 90.5447 217.997 90.0874 217.719C89.6328 217.438 89.282 217.045 89.0348 216.543C88.7905 216.037 88.6683 215.449 88.6683 214.778C88.6683 214.108 88.7905 213.517 89.0348 213.006C89.282 212.491 89.6257 212.091 90.0661 211.804C90.5092 211.514 91.0263 211.369 91.6172 211.369C91.9581 211.369 92.2947 211.426 92.6271 211.54C92.9595 211.653 93.2621 211.838 93.5348 212.094C93.8075 212.347 94.0249 212.682 94.1868 213.099C94.3487 213.517 94.4297 214.031 94.4297 214.642V215.068H89.3842V214.199H93.407C93.407 213.83 93.3331 213.5 93.1854 213.21C93.0405 212.92 92.8331 212.692 92.5632 212.524C92.2962 212.357 91.9808 212.273 91.6172 212.273C91.2166 212.273 90.87 212.372 90.5774 212.571C90.2876 212.767 90.0646 213.023 89.9084 213.338C89.7521 213.653 89.674 213.991 89.674 214.352V214.932C89.674 215.426 89.7592 215.845 89.9297 216.189C90.103 216.53 90.343 216.79 90.6499 216.969C90.9567 217.145 91.3132 217.233 91.7195 217.233C91.9837 217.233 92.2223 217.196 92.4354 217.122C92.6513 217.045 92.8374 216.932 92.9936 216.781C93.1499 216.628 93.2706 216.437 93.3558 216.21L94.3274 216.483C94.2251 216.812 94.0533 217.102 93.8118 217.352C93.5703 217.599 93.272 217.793 92.9169 217.932C92.5618 218.068 92.1626 218.136 91.7195 218.136ZM95.9595 218V211.455H96.9311V212.443H96.9993C97.1186 212.119 97.3345 211.857 97.647 211.655C97.9595 211.453 98.3118 211.352 98.7038 211.352C98.7777 211.352 98.87 211.354 98.9808 211.357C99.0916 211.359 99.1754 211.364 99.2322 211.369V212.392C99.1982 212.384 99.12 212.371 98.9979 212.354C98.8786 212.334 98.7521 212.324 98.6186 212.324C98.3004 212.324 98.0163 212.391 97.7663 212.524C97.5192 212.655 97.3232 212.837 97.1783 213.07C97.0362 213.3 96.9652 213.562 96.9652 213.858V218H95.9595ZM105.976 211.455L103.555 218H102.533L100.112 211.455H101.203L103.01 216.67H103.078L104.885 211.455H105.976ZM109.813 218.136C109.183 218.136 108.638 217.997 108.181 217.719C107.727 217.438 107.376 217.045 107.129 216.543C106.884 216.037 106.762 215.449 106.762 214.778C106.762 214.108 106.884 213.517 107.129 213.006C107.376 212.491 107.719 212.091 108.16 211.804C108.603 211.514 109.12 211.369 109.711 211.369C110.052 211.369 110.388 211.426 110.721 211.54C111.053 211.653 111.356 211.838 111.629 212.094C111.901 212.347 112.119 212.682 112.281 213.099C112.442 213.517 112.523 214.031 112.523 214.642V215.068H107.478V214.199H111.501C111.501 213.83 111.427 213.5 111.279 213.21C111.134 212.92 110.927 212.692 110.657 212.524C110.39 212.357 110.075 212.273 109.711 212.273C109.31 212.273 108.964 212.372 108.671 212.571C108.381 212.767 108.158 213.023 108.002 213.338C107.846 213.653 107.768 213.991 107.768 214.352V214.932C107.768 215.426 107.853 215.845 108.023 216.189C108.197 216.53 108.437 216.79 108.744 216.969C109.05 217.145 109.407 217.233 109.813 217.233C110.077 217.233 110.316 217.196 110.529 217.122C110.745 217.045 110.931 216.932 111.087 216.781C111.244 216.628 111.364 216.437 111.45 216.21L112.421 216.483C112.319 216.812 112.147 217.102 111.906 217.352C111.664 217.599 111.366 217.793 111.011 217.932C110.656 218.068 110.256 218.136 109.813 218.136ZM114.053 218V211.455H115.025V212.443H115.093C115.212 212.119 115.428 211.857 115.741 211.655C116.053 211.453 116.406 211.352 116.798 211.352C116.871 211.352 116.964 211.354 117.075 211.357C117.185 211.359 117.269 211.364 117.326 211.369V212.392C117.292 212.384 117.214 212.371 117.092 212.354C116.972 212.334 116.846 212.324 116.712 212.324C116.394 212.324 116.11 212.391 115.86 212.524C115.613 212.655 115.417 212.837 115.272 213.07C115.13 213.3 115.059 213.562 115.059 213.858V218H114.053Z" fill="white"/>
<path d="M78.3244 233V224.273H81.2733C81.9579 224.273 82.5176 224.396 82.9522 224.643C83.3897 224.888 83.7136 225.219 83.9238 225.636C84.1341 226.054 84.2392 226.52 84.2392 227.034C84.2392 227.548 84.1341 228.016 83.9238 228.436C83.7164 228.857 83.3954 229.192 82.9608 229.442C82.5261 229.689 81.9693 229.812 81.2903 229.812H79.1767V228.875H81.2562C81.725 228.875 82.1014 228.794 82.3855 228.632C82.6696 228.47 82.8755 228.251 83.0034 227.976C83.1341 227.697 83.1994 227.384 83.1994 227.034C83.1994 226.685 83.1341 226.372 83.0034 226.097C82.8755 225.821 82.6681 225.605 82.3812 225.449C82.0943 225.29 81.7136 225.21 81.2392 225.21H79.3812V233H78.3244ZM85.8052 233V226.455H86.7768V227.443H86.845C86.9643 227.119 87.1802 226.857 87.4927 226.655C87.8052 226.453 88.1575 226.352 88.5495 226.352C88.6234 226.352 88.7157 226.354 88.8265 226.357C88.9373 226.359 89.0211 226.364 89.0779 226.369V227.392C89.0439 227.384 88.9657 227.371 88.8436 227.354C88.7243 227.334 88.5978 227.324 88.4643 227.324C88.1461 227.324 87.862 227.391 87.612 227.524C87.3649 227.655 87.1689 227.837 87.024 228.07C86.8819 228.3 86.8109 228.562 86.8109 228.858V233H85.8052ZM90.2701 233V226.455H91.2757V233H90.2701ZM90.7814 225.364C90.5854 225.364 90.4164 225.297 90.2743 225.163C90.1351 225.03 90.0655 224.869 90.0655 224.682C90.0655 224.494 90.1351 224.334 90.2743 224.2C90.4164 224.067 90.5854 224 90.7814 224C90.9775 224 91.1451 224.067 91.2843 224.2C91.4263 224.334 91.4973 224.494 91.4973 224.682C91.4973 224.869 91.4263 225.03 91.2843 225.163C91.1451 225.297 90.9775 225.364 90.7814 225.364ZM93.1177 233V226.455H94.0893V227.477H94.1745C94.3109 227.128 94.5311 226.857 94.835 226.663C95.139 226.467 95.5041 226.369 95.9302 226.369C96.362 226.369 96.7214 226.467 97.0083 226.663C97.2981 226.857 97.524 227.128 97.6859 227.477H97.7541C97.9217 227.139 98.1731 226.871 98.5083 226.672C98.8436 226.47 99.2456 226.369 99.7143 226.369C100.3 226.369 100.778 226.553 101.15 226.919C101.523 227.283 101.709 227.849 101.709 228.619V233H100.703V228.619C100.703 228.136 100.571 227.791 100.307 227.584C100.042 227.376 99.7314 227.273 99.3734 227.273C98.9132 227.273 98.5566 227.412 98.3038 227.69C98.051 227.966 97.9245 228.315 97.9245 228.739V233H96.9018V228.517C96.9018 228.145 96.7811 227.845 96.5396 227.618C96.2981 227.388 95.987 227.273 95.6064 227.273C95.345 227.273 95.1007 227.342 94.8734 227.482C94.649 227.621 94.4672 227.814 94.3279 228.061C94.1916 228.305 94.1234 228.588 94.1234 228.909V233H93.1177ZM105.474 233.153C105.059 233.153 104.682 233.075 104.344 232.919C104.006 232.76 103.738 232.531 103.539 232.233C103.34 231.932 103.241 231.568 103.241 231.142C103.241 230.767 103.314 230.463 103.462 230.23C103.61 229.994 103.807 229.81 104.055 229.676C104.302 229.543 104.574 229.443 104.873 229.378C105.174 229.31 105.476 229.256 105.78 229.216C106.178 229.165 106.501 229.126 106.748 229.101C106.998 229.072 107.18 229.026 107.293 228.96C107.41 228.895 107.468 228.781 107.468 228.619V228.585C107.468 228.165 107.353 227.838 107.123 227.605C106.895 227.372 106.55 227.256 106.087 227.256C105.607 227.256 105.231 227.361 104.958 227.571C104.685 227.781 104.493 228.006 104.383 228.244L103.428 227.903C103.599 227.506 103.826 227.196 104.11 226.974C104.397 226.75 104.709 226.594 105.047 226.506C105.388 226.415 105.724 226.369 106.053 226.369C106.263 226.369 106.505 226.395 106.778 226.446C107.053 226.494 107.319 226.595 107.574 226.749C107.833 226.902 108.047 227.134 108.218 227.443C108.388 227.753 108.474 228.168 108.474 228.688V233H107.468V232.114H107.417C107.349 232.256 107.235 232.408 107.076 232.57C106.917 232.732 106.705 232.869 106.441 232.983C106.177 233.097 105.854 233.153 105.474 233.153ZM105.627 232.25C106.025 232.25 106.36 232.172 106.633 232.016C106.908 231.859 107.116 231.658 107.255 231.411C107.397 231.163 107.468 230.903 107.468 230.631V229.71C107.425 229.761 107.331 229.808 107.187 229.851C107.045 229.891 106.88 229.926 106.692 229.957C106.508 229.986 106.327 230.011 106.151 230.034C105.978 230.054 105.837 230.071 105.729 230.085C105.468 230.119 105.224 230.175 104.996 230.251C104.772 230.325 104.59 230.437 104.451 230.588C104.314 230.736 104.246 230.937 104.246 231.193C104.246 231.543 104.376 231.807 104.634 231.986C104.895 232.162 105.226 232.25 105.627 232.25ZM110.309 233V226.455H111.281V227.443H111.349C111.468 227.119 111.684 226.857 111.997 226.655C112.309 226.453 112.661 226.352 113.053 226.352C113.127 226.352 113.22 226.354 113.33 226.357C113.441 226.359 113.525 226.364 113.582 226.369V227.392C113.548 227.384 113.47 227.371 113.347 227.354C113.228 227.334 113.102 227.324 112.968 227.324C112.65 227.324 112.366 227.391 112.116 227.524C111.869 227.655 111.673 227.837 111.528 228.07C111.386 228.3 111.315 228.562 111.315 228.858V233H110.309ZM115.621 235.455C115.45 235.455 115.298 235.44 115.165 235.412C115.031 235.386 114.939 235.361 114.888 235.335L115.144 234.449C115.388 234.511 115.604 234.534 115.791 234.517C115.979 234.5 116.145 234.416 116.29 234.266C116.438 234.118 116.573 233.878 116.695 233.545L116.882 233.034L114.462 226.455H115.553L117.36 231.67H117.428L119.235 226.455H120.325L117.547 233.955C117.422 234.293 117.267 234.572 117.083 234.794C116.898 235.018 116.683 235.185 116.439 235.293C116.198 235.401 115.925 235.455 115.621 235.455Z" fill="#A3E2FF"/>
<circle cx="403.5" cy="94.5" r="37.5" fill="#717780"/>
<path d="M391.232 84.4545C391.181 84.0227 390.973 83.6875 390.61 83.4489C390.246 83.2102 389.8 83.0909 389.272 83.0909C388.885 83.0909 388.547 83.1534 388.257 83.2784C387.971 83.4034 387.746 83.5753 387.584 83.794C387.425 84.0128 387.346 84.2614 387.346 84.5398C387.346 84.7727 387.401 84.973 387.512 85.1406C387.625 85.3054 387.77 85.4432 387.946 85.554C388.123 85.6619 388.307 85.7514 388.5 85.8224C388.694 85.8906 388.871 85.946 389.033 85.9886L389.919 86.2273C390.147 86.2869 390.4 86.3693 390.678 86.4744C390.959 86.5795 391.228 86.723 391.483 86.9048C391.742 87.0838 391.955 87.3139 392.123 87.5952C392.29 87.8764 392.374 88.2216 392.374 88.6307C392.374 89.1023 392.25 89.5284 392.003 89.9091C391.759 90.2898 391.401 90.5923 390.929 90.8168C390.461 91.0412 389.891 91.1534 389.221 91.1534C388.596 91.1534 388.054 91.0526 387.597 90.8509C387.142 90.6491 386.784 90.3679 386.523 90.0071C386.265 89.6463 386.118 89.2273 386.084 88.75H387.175C387.203 89.0795 387.314 89.3523 387.507 89.5682C387.703 89.7812 387.951 89.9403 388.249 90.0455C388.55 90.1477 388.874 90.1989 389.221 90.1989C389.624 90.1989 389.986 90.1335 390.307 90.0028C390.628 89.8693 390.882 89.6847 391.07 89.4489C391.257 89.2102 391.351 88.9318 391.351 88.6136C391.351 88.3239 391.27 88.0881 391.108 87.9062C390.946 87.7244 390.733 87.5767 390.469 87.4631C390.205 87.3494 389.919 87.25 389.613 87.1648L388.539 86.858C387.857 86.6619 387.317 86.3821 386.919 86.0185C386.522 85.6548 386.323 85.179 386.323 84.5909C386.323 84.1023 386.455 83.6761 386.719 83.3125C386.986 82.946 387.344 82.6619 387.793 82.4602C388.245 82.2557 388.749 82.1534 389.306 82.1534C389.868 82.1534 390.368 82.2543 390.806 82.456C391.243 82.6548 391.59 82.9276 391.846 83.2741C392.104 83.6207 392.24 84.0142 392.255 84.4545H391.232ZM396.719 91.1364C396.089 91.1364 395.545 90.9972 395.087 90.7188C394.633 90.4375 394.282 90.0455 394.035 89.5426C393.79 89.0369 393.668 88.4489 393.668 87.7784C393.668 87.108 393.79 86.517 394.035 86.0057C394.282 85.4915 394.626 85.0909 395.066 84.804C395.509 84.5142 396.026 84.3693 396.617 84.3693C396.958 84.3693 397.295 84.4261 397.627 84.5398C397.96 84.6534 398.262 84.8381 398.535 85.0938C398.808 85.3466 399.025 85.6818 399.187 86.0994C399.349 86.517 399.43 87.0312 399.43 87.642V88.0682H394.384V87.1989H398.407C398.407 86.8295 398.333 86.5 398.185 86.2102C398.04 85.9205 397.833 85.6918 397.563 85.5241C397.296 85.3565 396.981 85.2727 396.617 85.2727C396.217 85.2727 395.87 85.3722 395.577 85.571C395.288 85.767 395.065 86.0227 394.908 86.3381C394.752 86.6534 394.674 86.9915 394.674 87.3523V87.9318C394.674 88.4261 394.759 88.8452 394.93 89.1889C395.103 89.5298 395.343 89.7898 395.65 89.9688C395.957 90.1449 396.313 90.233 396.719 90.233C396.984 90.233 397.222 90.196 397.435 90.1222C397.651 90.0455 397.837 89.9318 397.994 89.7812C398.15 89.6278 398.271 89.4375 398.356 89.2102L399.327 89.483C399.225 89.8125 399.053 90.1023 398.812 90.3523C398.57 90.5994 398.272 90.7926 397.917 90.9318C397.562 91.0682 397.163 91.1364 396.719 91.1364ZM400.96 91V84.4545H401.931V85.4432H401.999C402.119 85.1193 402.335 84.8565 402.647 84.6548C402.96 84.4531 403.312 84.3523 403.704 84.3523C403.778 84.3523 403.87 84.3537 403.981 84.3565C404.092 84.3594 404.175 84.3636 404.232 84.3693V85.392C404.198 85.3835 404.12 85.3707 403.998 85.3537C403.879 85.3338 403.752 85.3239 403.619 85.3239C403.3 85.3239 403.016 85.3906 402.766 85.5241C402.519 85.6548 402.323 85.8366 402.178 86.0696C402.036 86.2997 401.965 86.5625 401.965 86.858V91H400.96ZM410.976 84.4545L408.555 91H407.533L405.112 84.4545H406.203L408.01 89.6705H408.078L409.885 84.4545H410.976ZM414.813 91.1364C414.183 91.1364 413.638 90.9972 413.181 90.7188C412.727 90.4375 412.376 90.0455 412.129 89.5426C411.884 89.0369 411.762 88.4489 411.762 87.7784C411.762 87.108 411.884 86.517 412.129 86.0057C412.376 85.4915 412.719 85.0909 413.16 84.804C413.603 84.5142 414.12 84.3693 414.711 84.3693C415.052 84.3693 415.388 84.4261 415.721 84.5398C416.053 84.6534 416.356 84.8381 416.629 85.0938C416.901 85.3466 417.119 85.6818 417.281 86.0994C417.442 86.517 417.523 87.0312 417.523 87.642V88.0682H412.478V87.1989H416.501C416.501 86.8295 416.427 86.5 416.279 86.2102C416.134 85.9205 415.927 85.6918 415.657 85.5241C415.39 85.3565 415.075 85.2727 414.711 85.2727C414.31 85.2727 413.964 85.3722 413.671 85.571C413.381 85.767 413.158 86.0227 413.002 86.3381C412.846 86.6534 412.768 86.9915 412.768 87.3523V87.9318C412.768 88.4261 412.853 88.8452 413.023 89.1889C413.197 89.5298 413.437 89.7898 413.744 89.9688C414.05 90.1449 414.407 90.233 414.813 90.233C415.077 90.233 415.316 90.196 415.529 90.1222C415.745 90.0455 415.931 89.9318 416.087 89.7812C416.244 89.6278 416.364 89.4375 416.45 89.2102L417.421 89.483C417.319 89.8125 417.147 90.1023 416.906 90.3523C416.664 90.5994 416.366 90.7926 416.011 90.9318C415.656 91.0682 415.256 91.1364 414.813 91.1364ZM419.053 91V84.4545H420.025V85.4432H420.093C420.212 85.1193 420.428 84.8565 420.741 84.6548C421.053 84.4531 421.406 84.3523 421.798 84.3523C421.871 84.3523 421.964 84.3537 422.075 84.3565C422.185 84.3594 422.269 84.3636 422.326 84.3693V85.392C422.292 85.3835 422.214 85.3707 422.092 85.3537C421.972 85.3338 421.846 85.3239 421.712 85.3239C421.394 85.3239 421.11 85.3906 420.86 85.5241C420.613 85.6548 420.417 85.8366 420.272 86.0696C420.13 86.2997 420.059 86.5625 420.059 86.858V91H419.053Z" fill="white"/>
<path d="M383.324 106V97.2727H386.273C386.958 97.2727 387.518 97.3963 387.952 97.6435C388.39 97.8878 388.714 98.2188 388.924 98.6364C389.134 99.054 389.239 99.5199 389.239 100.034C389.239 100.548 389.134 101.016 388.924 101.436C388.716 101.857 388.395 102.192 387.961 102.442C387.526 102.689 386.969 102.812 386.29 102.812H384.177V101.875H386.256C386.725 101.875 387.101 101.794 387.385 101.632C387.67 101.47 387.876 101.251 388.003 100.976C388.134 100.697 388.199 100.384 388.199 100.034C388.199 99.6847 388.134 99.3722 388.003 99.0966C387.876 98.821 387.668 98.6051 387.381 98.4489C387.094 98.2898 386.714 98.2102 386.239 98.2102H384.381V106H383.324ZM390.805 106V99.4545H391.777V100.443H391.845C391.964 100.119 392.18 99.8565 392.493 99.6548C392.805 99.4531 393.157 99.3523 393.55 99.3523C393.623 99.3523 393.716 99.3537 393.827 99.3565C393.937 99.3594 394.021 99.3636 394.078 99.3693V100.392C394.044 100.384 393.966 100.371 393.844 100.354C393.724 100.334 393.598 100.324 393.464 100.324C393.146 100.324 392.862 100.391 392.612 100.524C392.365 100.655 392.169 100.837 392.024 101.07C391.882 101.3 391.811 101.562 391.811 101.858V106H390.805ZM395.27 106V99.4545H396.276V106H395.27ZM395.781 98.3636C395.585 98.3636 395.416 98.2969 395.274 98.1634C395.135 98.0298 395.066 97.8693 395.066 97.6818C395.066 97.4943 395.135 97.3338 395.274 97.2003C395.416 97.0668 395.585 97 395.781 97C395.977 97 396.145 97.0668 396.284 97.2003C396.426 97.3338 396.497 97.4943 396.497 97.6818C396.497 97.8693 396.426 98.0298 396.284 98.1634C396.145 98.2969 395.977 98.3636 395.781 98.3636ZM398.118 106V99.4545H399.089V100.477H399.175C399.311 100.128 399.531 99.8565 399.835 99.6634C400.139 99.4673 400.504 99.3693 400.93 99.3693C401.362 99.3693 401.721 99.4673 402.008 99.6634C402.298 99.8565 402.524 100.128 402.686 100.477H402.754C402.922 100.139 403.173 99.8707 403.508 99.6719C403.844 99.4702 404.246 99.3693 404.714 99.3693C405.3 99.3693 405.778 99.5526 406.15 99.919C406.523 100.283 406.709 100.849 406.709 101.619V106H405.703V101.619C405.703 101.136 405.571 100.791 405.307 100.584C405.042 100.376 404.731 100.273 404.373 100.273C403.913 100.273 403.557 100.412 403.304 100.69C403.051 100.966 402.925 101.315 402.925 101.739V106H401.902V101.517C401.902 101.145 401.781 100.845 401.54 100.618C401.298 100.388 400.987 100.273 400.606 100.273C400.345 100.273 400.101 100.342 399.873 100.482C399.649 100.621 399.467 100.814 399.328 101.061C399.192 101.305 399.123 101.588 399.123 101.909V106H398.118ZM410.474 106.153C410.059 106.153 409.682 106.075 409.344 105.919C409.006 105.76 408.738 105.531 408.539 105.233C408.34 104.932 408.241 104.568 408.241 104.142C408.241 103.767 408.314 103.463 408.462 103.23C408.61 102.994 408.807 102.81 409.055 102.676C409.302 102.543 409.574 102.443 409.873 102.378C410.174 102.31 410.476 102.256 410.78 102.216C411.178 102.165 411.501 102.126 411.748 102.101C411.998 102.072 412.18 102.026 412.293 101.96C412.41 101.895 412.468 101.781 412.468 101.619V101.585C412.468 101.165 412.353 100.838 412.123 100.605C411.895 100.372 411.55 100.256 411.087 100.256C410.607 100.256 410.231 100.361 409.958 100.571C409.685 100.781 409.493 101.006 409.383 101.244L408.428 100.903C408.599 100.506 408.826 100.196 409.11 99.9744C409.397 99.75 409.709 99.5937 410.047 99.5057C410.388 99.4148 410.724 99.3693 411.053 99.3693C411.263 99.3693 411.505 99.3949 411.778 99.446C412.053 99.4943 412.319 99.5952 412.574 99.7486C412.833 99.902 413.047 100.134 413.218 100.443C413.388 100.753 413.474 101.168 413.474 101.688V106H412.468V105.114H412.417C412.349 105.256 412.235 105.408 412.076 105.57C411.917 105.732 411.705 105.869 411.441 105.983C411.177 106.097 410.854 106.153 410.474 106.153ZM410.627 105.25C411.025 105.25 411.36 105.172 411.633 105.016C411.908 104.859 412.116 104.658 412.255 104.411C412.397 104.163 412.468 103.903 412.468 103.631V102.71C412.425 102.761 412.331 102.808 412.187 102.851C412.045 102.891 411.88 102.926 411.692 102.957C411.508 102.986 411.327 103.011 411.151 103.034C410.978 103.054 410.837 103.071 410.729 103.085C410.468 103.119 410.224 103.175 409.996 103.251C409.772 103.325 409.59 103.437 409.451 103.588C409.314 103.736 409.246 103.937 409.246 104.193C409.246 104.543 409.376 104.807 409.634 104.986C409.895 105.162 410.226 105.25 410.627 105.25ZM415.309 106V99.4545H416.281V100.443H416.349C416.468 100.119 416.684 99.8565 416.997 99.6548C417.309 99.4531 417.661 99.3523 418.053 99.3523C418.127 99.3523 418.22 99.3537 418.33 99.3565C418.441 99.3594 418.525 99.3636 418.582 99.3693V100.392C418.548 100.384 418.47 100.371 418.347 100.354C418.228 100.334 418.102 100.324 417.968 100.324C417.65 100.324 417.366 100.391 417.116 100.524C416.869 100.655 416.673 100.837 416.528 101.07C416.386 101.3 416.315 101.562 416.315 101.858V106H415.309ZM420.621 108.455C420.45 108.455 420.298 108.44 420.165 108.412C420.031 108.386 419.939 108.361 419.888 108.335L420.144 107.449C420.388 107.511 420.604 107.534 420.791 107.517C420.979 107.5 421.145 107.416 421.29 107.266C421.438 107.118 421.573 106.878 421.695 106.545L421.882 106.034L419.462 99.4545H420.553L422.36 104.67H422.428L424.235 99.4545H425.325L422.547 106.955C422.422 107.293 422.267 107.572 422.083 107.794C421.898 108.018 421.683 108.185 421.439 108.293C421.198 108.401 420.925 108.455 420.621 108.455Z" fill="#FFB8C4"/>
<circle cx="403.5" cy="221.5" r="37.5" fill="#717780"/>
<path d="M391.232 211.455C391.181 211.023 390.973 210.688 390.61 210.449C390.246 210.21 389.8 210.091 389.272 210.091C388.885 210.091 388.547 210.153 388.257 210.278C387.971 210.403 387.746 210.575 387.584 210.794C387.425 211.013 387.346 211.261 387.346 211.54C387.346 211.773 387.401 211.973 387.512 212.141C387.625 212.305 387.77 212.443 387.946 212.554C388.123 212.662 388.307 212.751 388.5 212.822C388.694 212.891 388.871 212.946 389.033 212.989L389.919 213.227C390.147 213.287 390.4 213.369 390.678 213.474C390.959 213.58 391.228 213.723 391.483 213.905C391.742 214.084 391.955 214.314 392.123 214.595C392.29 214.876 392.374 215.222 392.374 215.631C392.374 216.102 392.25 216.528 392.003 216.909C391.759 217.29 391.401 217.592 390.929 217.817C390.461 218.041 389.891 218.153 389.221 218.153C388.596 218.153 388.054 218.053 387.597 217.851C387.142 217.649 386.784 217.368 386.523 217.007C386.265 216.646 386.118 216.227 386.084 215.75H387.175C387.203 216.08 387.314 216.352 387.507 216.568C387.703 216.781 387.951 216.94 388.249 217.045C388.55 217.148 388.874 217.199 389.221 217.199C389.624 217.199 389.986 217.134 390.307 217.003C390.628 216.869 390.882 216.685 391.07 216.449C391.257 216.21 391.351 215.932 391.351 215.614C391.351 215.324 391.27 215.088 391.108 214.906C390.946 214.724 390.733 214.577 390.469 214.463C390.205 214.349 389.919 214.25 389.613 214.165L388.539 213.858C387.857 213.662 387.317 213.382 386.919 213.018C386.522 212.655 386.323 212.179 386.323 211.591C386.323 211.102 386.455 210.676 386.719 210.312C386.986 209.946 387.344 209.662 387.793 209.46C388.245 209.256 388.749 209.153 389.306 209.153C389.868 209.153 390.368 209.254 390.806 209.456C391.243 209.655 391.59 209.928 391.846 210.274C392.104 210.621 392.24 211.014 392.255 211.455H391.232ZM396.719 218.136C396.089 218.136 395.545 217.997 395.087 217.719C394.633 217.438 394.282 217.045 394.035 216.543C393.79 216.037 393.668 215.449 393.668 214.778C393.668 214.108 393.79 213.517 394.035 213.006C394.282 212.491 394.626 212.091 395.066 211.804C395.509 211.514 396.026 211.369 396.617 211.369C396.958 211.369 397.295 211.426 397.627 211.54C397.96 211.653 398.262 211.838 398.535 212.094C398.808 212.347 399.025 212.682 399.187 213.099C399.349 213.517 399.43 214.031 399.43 214.642V215.068H394.384V214.199H398.407C398.407 213.83 398.333 213.5 398.185 213.21C398.04 212.92 397.833 212.692 397.563 212.524C397.296 212.357 396.981 212.273 396.617 212.273C396.217 212.273 395.87 212.372 395.577 212.571C395.288 212.767 395.065 213.023 394.908 213.338C394.752 213.653 394.674 213.991 394.674 214.352V214.932C394.674 215.426 394.759 215.845 394.93 216.189C395.103 216.53 395.343 216.79 395.65 216.969C395.957 217.145 396.313 217.233 396.719 217.233C396.984 217.233 397.222 217.196 397.435 217.122C397.651 217.045 397.837 216.932 397.994 216.781C398.15 216.628 398.271 216.437 398.356 216.21L399.327 216.483C399.225 216.812 399.053 217.102 398.812 217.352C398.57 217.599 398.272 217.793 397.917 217.932C397.562 218.068 397.163 218.136 396.719 218.136ZM400.96 218V211.455H401.931V212.443H401.999C402.119 212.119 402.335 211.857 402.647 211.655C402.96 211.453 403.312 211.352 403.704 211.352C403.778 211.352 403.87 211.354 403.981 211.357C404.092 211.359 404.175 211.364 404.232 211.369V212.392C404.198 212.384 404.12 212.371 403.998 212.354C403.879 212.334 403.752 212.324 403.619 212.324C403.3 212.324 403.016 212.391 402.766 212.524C402.519 212.655 402.323 212.837 402.178 213.07C402.036 213.3 401.965 213.562 401.965 213.858V218H400.96ZM410.976 211.455L408.555 218H407.533L405.112 211.455H406.203L408.01 216.67H408.078L409.885 211.455H410.976ZM414.813 218.136C414.183 218.136 413.638 217.997 413.181 217.719C412.727 217.438 412.376 217.045 412.129 216.543C411.884 216.037 411.762 215.449 411.762 214.778C411.762 214.108 411.884 213.517 412.129 213.006C412.376 212.491 412.719 212.091 413.16 211.804C413.603 211.514 414.12 211.369 414.711 211.369C415.052 211.369 415.388 211.426 415.721 211.54C416.053 211.653 416.356 211.838 416.629 212.094C416.901 212.347 417.119 212.682 417.281 213.099C417.442 213.517 417.523 214.031 417.523 214.642V215.068H412.478V214.199H416.501C416.501 213.83 416.427 213.5 416.279 213.21C416.134 212.92 415.927 212.692 415.657 212.524C415.39 212.357 415.075 212.273 414.711 212.273C414.31 212.273 413.964 212.372 413.671 212.571C413.381 212.767 413.158 213.023 413.002 213.338C412.846 213.653 412.768 213.991 412.768 214.352V214.932C412.768 215.426 412.853 215.845 413.023 216.189C413.197 216.53 413.437 216.79 413.744 216.969C414.05 217.145 414.407 217.233 414.813 217.233C415.077 217.233 415.316 217.196 415.529 217.122C415.745 217.045 415.931 216.932 416.087 216.781C416.244 216.628 416.364 216.437 416.45 216.21L417.421 216.483C417.319 216.812 417.147 217.102 416.906 217.352C416.664 217.599 416.366 217.793 416.011 217.932C415.656 218.068 415.256 218.136 414.813 218.136ZM419.053 218V211.455H420.025V212.443H420.093C420.212 212.119 420.428 211.857 420.741 211.655C421.053 211.453 421.406 211.352 421.798 211.352C421.871 211.352 421.964 211.354 422.075 211.357C422.185 211.359 422.269 211.364 422.326 211.369V212.392C422.292 212.384 422.214 212.371 422.092 212.354C421.972 212.334 421.846 212.324 421.712 212.324C421.394 212.324 421.11 212.391 420.86 212.524C420.613 212.655 420.417 212.837 420.272 213.07C420.13 213.3 420.059 213.562 420.059 213.858V218H419.053Z" fill="white"/>
<path d="M379.29 226.455C379.239 226.023 379.032 225.688 378.668 225.449C378.305 225.21 377.859 225.091 377.33 225.091C376.944 225.091 376.606 225.153 376.316 225.278C376.029 225.403 375.805 225.575 375.643 225.794C375.484 226.013 375.404 226.261 375.404 226.54C375.404 226.773 375.46 226.973 375.57 227.141C375.684 227.305 375.829 227.443 376.005 227.554C376.181 227.662 376.366 227.751 376.559 227.822C376.752 227.891 376.93 227.946 377.092 227.989L377.978 228.227C378.205 228.287 378.458 228.369 378.737 228.474C379.018 228.58 379.286 228.723 379.542 228.905C379.8 229.084 380.013 229.314 380.181 229.595C380.349 229.876 380.433 230.222 380.433 230.631C380.433 231.102 380.309 231.528 380.062 231.909C379.817 232.29 379.46 232.592 378.988 232.817C378.519 233.041 377.95 233.153 377.279 233.153C376.654 233.153 376.113 233.053 375.656 232.851C375.201 232.649 374.843 232.368 374.582 232.007C374.323 231.646 374.177 231.227 374.143 230.75H375.234C375.262 231.08 375.373 231.352 375.566 231.568C375.762 231.781 376.009 231.94 376.308 232.045C376.609 232.148 376.933 232.199 377.279 232.199C377.683 232.199 378.045 232.134 378.366 232.003C378.687 231.869 378.941 231.685 379.129 231.449C379.316 231.21 379.41 230.932 379.41 230.614C379.41 230.324 379.329 230.088 379.167 229.906C379.005 229.724 378.792 229.577 378.528 229.463C378.263 229.349 377.978 229.25 377.671 229.165L376.597 228.858C375.915 228.662 375.376 228.382 374.978 228.018C374.58 227.655 374.381 227.179 374.381 226.591C374.381 226.102 374.513 225.676 374.778 225.312C375.045 224.946 375.403 224.662 375.852 224.46C376.303 224.256 376.808 224.153 377.364 224.153C377.927 224.153 378.427 224.254 378.864 224.456C379.302 224.655 379.648 224.928 379.904 225.274C380.163 225.621 380.299 226.014 380.313 226.455H379.29ZM384.778 233.136C384.147 233.136 383.603 232.997 383.146 232.719C382.691 232.438 382.341 232.045 382.093 231.543C381.849 231.037 381.727 230.449 381.727 229.778C381.727 229.108 381.849 228.517 382.093 228.006C382.341 227.491 382.684 227.091 383.125 226.804C383.568 226.514 384.085 226.369 384.676 226.369C385.017 226.369 385.353 226.426 385.686 226.54C386.018 226.653 386.321 226.838 386.593 227.094C386.866 227.347 387.083 227.682 387.245 228.099C387.407 228.517 387.488 229.031 387.488 229.642V230.068H382.443V229.199H386.466C386.466 228.83 386.392 228.5 386.244 228.21C386.099 227.92 385.892 227.692 385.622 227.524C385.355 227.357 385.039 227.273 384.676 227.273C384.275 227.273 383.929 227.372 383.636 227.571C383.346 227.767 383.123 228.023 382.967 228.338C382.811 228.653 382.733 228.991 382.733 229.352V229.932C382.733 230.426 382.818 230.845 382.988 231.189C383.162 231.53 383.402 231.79 383.708 231.969C384.015 232.145 384.372 232.233 384.778 232.233C385.042 232.233 385.281 232.196 385.494 232.122C385.71 232.045 385.896 231.932 386.052 231.781C386.208 231.628 386.329 231.437 386.414 231.21L387.386 231.483C387.284 231.812 387.112 232.102 386.87 232.352C386.629 232.599 386.331 232.793 385.975 232.932C385.62 233.068 385.221 233.136 384.778 233.136ZM391.677 233.136C391.064 233.136 390.535 232.991 390.092 232.702C389.649 232.412 389.308 232.013 389.069 231.504C388.831 230.996 388.711 230.415 388.711 229.761C388.711 229.097 388.833 228.51 389.078 228.001C389.325 227.49 389.669 227.091 390.109 226.804C390.552 226.514 391.069 226.369 391.66 226.369C392.12 226.369 392.535 226.455 392.904 226.625C393.274 226.795 393.576 227.034 393.812 227.341C394.048 227.648 394.194 228.006 394.251 228.415H393.245C393.169 228.116 392.998 227.852 392.734 227.622C392.473 227.389 392.12 227.273 391.677 227.273C391.285 227.273 390.941 227.375 390.646 227.58C390.353 227.781 390.125 228.067 389.96 228.436C389.798 228.803 389.717 229.233 389.717 229.727C389.717 230.233 389.797 230.673 389.956 231.048C390.118 231.423 390.345 231.714 390.637 231.922C390.933 232.129 391.279 232.233 391.677 232.233C391.939 232.233 392.176 232.188 392.389 232.097C392.602 232.006 392.782 231.875 392.93 231.705C393.078 231.534 393.183 231.33 393.245 231.091H394.251C394.194 231.477 394.054 231.825 393.829 232.135C393.608 232.442 393.314 232.686 392.947 232.868C392.583 233.047 392.16 233.136 391.677 233.136ZM398.38 233.136C397.789 233.136 397.271 232.996 396.825 232.714C396.382 232.433 396.035 232.04 395.785 231.534C395.538 231.028 395.414 230.437 395.414 229.761C395.414 229.08 395.538 228.484 395.785 227.976C396.035 227.467 396.382 227.072 396.825 226.791C397.271 226.51 397.789 226.369 398.38 226.369C398.971 226.369 399.488 226.51 399.931 226.791C400.377 227.072 400.724 227.467 400.971 227.976C401.221 228.484 401.346 229.08 401.346 229.761C401.346 230.437 401.221 231.028 400.971 231.534C400.724 232.04 400.377 232.433 399.931 232.714C399.488 232.996 398.971 233.136 398.38 233.136ZM398.38 232.233C398.829 232.233 399.199 232.118 399.488 231.888C399.778 231.658 399.993 231.355 400.132 230.98C400.271 230.605 400.341 230.199 400.341 229.761C400.341 229.324 400.271 228.916 400.132 228.538C399.993 228.161 399.778 227.855 399.488 227.622C399.199 227.389 398.829 227.273 398.38 227.273C397.931 227.273 397.562 227.389 397.272 227.622C396.983 227.855 396.768 228.161 396.629 228.538C396.49 228.916 396.42 229.324 396.42 229.761C396.42 230.199 396.49 230.605 396.629 230.98C396.768 231.355 396.983 231.658 397.272 231.888C397.562 232.118 397.931 232.233 398.38 232.233ZM403.887 229.062V233H402.881V226.455H403.853V227.477H403.938C404.092 227.145 404.325 226.878 404.637 226.676C404.95 226.472 405.353 226.369 405.847 226.369C406.29 226.369 406.678 226.46 407.011 226.642C407.343 226.821 407.602 227.094 407.786 227.46C407.971 227.824 408.063 228.284 408.063 228.841V233H407.058V228.909C407.058 228.395 406.924 227.994 406.657 227.707C406.39 227.418 406.023 227.273 405.558 227.273C405.237 227.273 404.95 227.342 404.697 227.482C404.447 227.621 404.249 227.824 404.104 228.091C403.96 228.358 403.887 228.682 403.887 229.062ZM412.373 233.136C411.827 233.136 411.346 232.999 410.928 232.723C410.51 232.445 410.184 232.053 409.948 231.547C409.712 231.038 409.594 230.438 409.594 229.744C409.594 229.057 409.712 228.46 409.948 227.955C410.184 227.449 410.512 227.058 410.932 226.783C411.353 226.507 411.838 226.369 412.39 226.369C412.816 226.369 413.152 226.44 413.4 226.582C413.65 226.722 413.84 226.881 413.971 227.06C414.104 227.236 414.208 227.381 414.282 227.494H414.367V224.273H415.373V233H414.401V231.994H414.282C414.208 232.114 414.103 232.264 413.966 232.446C413.83 232.625 413.635 232.786 413.382 232.928C413.13 233.067 412.793 233.136 412.373 233.136ZM412.509 232.233C412.912 232.233 413.253 232.128 413.532 231.918C413.81 231.705 414.022 231.411 414.167 231.036C414.311 230.658 414.384 230.222 414.384 229.727C414.384 229.239 414.313 228.811 414.171 228.445C414.029 228.075 413.819 227.788 413.54 227.584C413.262 227.376 412.918 227.273 412.509 227.273C412.083 227.273 411.728 227.382 411.444 227.601C411.162 227.817 410.951 228.111 410.809 228.483C410.669 228.852 410.6 229.267 410.6 229.727C410.6 230.193 410.671 230.616 410.813 230.997C410.958 231.375 411.171 231.676 411.452 231.901C411.736 232.122 412.088 232.233 412.509 232.233ZM419.28 233.153C418.865 233.153 418.489 233.075 418.151 232.919C417.813 232.76 417.544 232.531 417.346 232.233C417.147 231.932 417.047 231.568 417.047 231.142C417.047 230.767 417.121 230.463 417.269 230.23C417.417 229.994 417.614 229.81 417.861 229.676C418.108 229.543 418.381 229.443 418.679 229.378C418.98 229.31 419.283 229.256 419.587 229.216C419.985 229.165 420.307 229.126 420.554 229.101C420.804 229.072 420.986 229.026 421.1 228.96C421.216 228.895 421.275 228.781 421.275 228.619V228.585C421.275 228.165 421.159 227.838 420.929 227.605C420.702 227.372 420.357 227.256 419.894 227.256C419.414 227.256 419.037 227.361 418.765 227.571C418.492 227.781 418.3 228.006 418.189 228.244L417.235 227.903C417.405 227.506 417.632 227.196 417.917 226.974C418.203 226.75 418.516 226.594 418.854 226.506C419.195 226.415 419.53 226.369 419.86 226.369C420.07 226.369 420.311 226.395 420.584 226.446C420.86 226.494 421.125 226.595 421.381 226.749C421.64 226.902 421.854 227.134 422.025 227.443C422.195 227.753 422.28 228.168 422.28 228.688V233H421.275V232.114H421.223C421.155 232.256 421.042 232.408 420.882 232.57C420.723 232.732 420.512 232.869 420.248 232.983C419.983 233.097 419.661 233.153 419.28 233.153ZM419.434 232.25C419.831 232.25 420.167 232.172 420.439 232.016C420.715 231.859 420.922 231.658 421.061 231.411C421.203 231.163 421.275 230.903 421.275 230.631V229.71C421.232 229.761 421.138 229.808 420.993 229.851C420.851 229.891 420.686 229.926 420.499 229.957C420.314 229.986 420.134 230.011 419.958 230.034C419.784 230.054 419.644 230.071 419.536 230.085C419.275 230.119 419.03 230.175 418.803 230.251C418.578 230.325 418.397 230.437 418.257 230.588C418.121 230.736 418.053 230.937 418.053 231.193C418.053 231.543 418.182 231.807 418.441 231.986C418.702 232.162 419.033 232.25 419.434 232.25ZM424.116 233V226.455H425.087V227.443H425.156C425.275 227.119 425.491 226.857 425.803 226.655C426.116 226.453 426.468 226.352 426.86 226.352C426.934 226.352 427.026 226.354 427.137 226.357C427.248 226.359 427.332 226.364 427.388 226.369V227.392C427.354 227.384 427.276 227.371 427.154 227.354C427.035 227.334 426.908 227.324 426.775 227.324C426.457 227.324 426.173 227.391 425.923 227.524C425.675 227.655 425.479 227.837 425.335 228.07C425.192 228.3 425.121 228.562 425.121 228.858V233H424.116ZM429.428 235.455C429.257 235.455 429.105 235.44 428.972 235.412C428.838 235.386 428.746 235.361 428.695 235.335L428.95 234.449C429.195 234.511 429.411 234.534 429.598 234.517C429.786 234.5 429.952 234.416 430.097 234.266C430.244 234.118 430.379 233.878 430.501 233.545L430.689 233.034L428.268 226.455H429.359L431.166 231.67H431.234L433.041 226.455H434.132L431.354 233.955C431.229 234.293 431.074 234.572 430.889 234.794C430.705 235.018 430.49 235.185 430.246 235.293C430.004 235.401 429.732 235.455 429.428 235.455Z" fill="#FFB8C4"/>
</svg>
