<?xml version="1.0" encoding="UTF-8"?>
<svg width="806px" height="395px" viewBox="0 0 806 395" version="1.1" xmlns="http://www.w3.org/2000/svg" xmlns:xlink="http://www.w3.org/1999/xlink">
    <!-- Generator: Sketch 48.2 (47327) - http://www.bohemiancoding.com/sketch -->
    <title>peer-to-peer-read-replicas</title>
    <desc>Created with Sketch.</desc>
    <defs></defs>
    <g id="Page-1" stroke="none" stroke-width="1" fill="none" fill-rule="evenodd">
        <g id="Artboard" transform="translate(-19485.000000, -14093.000000)"></g>
        <g id="peer-to-peer-read-replicas">
            <g id="Group-35" transform="translate(5.000000, 5.000000)">
                <rect id="Rectangle-14" stroke="#DFDFDF" x="6.5" y="6.5" width="257" height="372"></rect>
                <text id="Read-Replica" font-family="OpenSans-Regular, Open Sans" font-size="12" font-weight="normal" fill="#333333">
                    <tspan x="157" y="284">Read Replica</tspan>
                </text>
                <text id="Read-Replica" font-family="OpenSans-Regular, Open Sans" font-size="12" font-weight="normal" fill="#333333">
                    <tspan x="41" y="241">Read Replica</tspan>
                </text>
                <g id="Group-10" transform="translate(596.000000, 42.000000)">
                    <rect id="Rectangle-15" fill="#C2C2C2" x="15" y="51" width="100" height="9"></rect>
                    <rect id="Rectangle-15" fill="#C2C2C2" x="15" y="21" width="100" height="9"></rect>
                    <g id="Page-1-Copy-2" transform="translate(0.000000, 60.000000)">
                        <path d="M126.388889,21.6666667 L3.61111111,21.6666667 C1.61633333,21.6666667 0,20.0503333 0,18.0555556 L0,3.61111111 C0,1.61633333 1.61633333,0 3.61111111,0 L126.388889,0 C128.383667,0 130,1.61633333 130,3.61111111 L130,18.0555556 C130,20.0503333 128.383667,21.6666667 126.388889,21.6666667" id="Fill-1" fill="#D6D6D6"></path>
                        <path d="M14.4444444,14.0381944 C14.4444444,15.0355833 13.6362778,15.84375 12.6388889,15.84375 C11.6415,15.84375 10.8333333,15.0355833 10.8333333,14.0381944 C10.8333333,13.0408056 11.6415,12.2326389 12.6388889,12.2326389 C13.6362778,12.2326389 14.4444444,13.0408056 14.4444444,14.0381944" id="Fill-3" fill="#F16667"></path>
                        <path d="M14.4444444,7.53819444 C14.4444444,8.53558333 13.6362778,9.34375 12.6388889,9.34375 C11.6415,9.34375 10.8333333,8.53558333 10.8333333,7.53819444 C10.8333333,6.54080556 11.6415,5.73263889 12.6388889,5.73263889 C13.6362778,5.73263889 14.4444444,6.54080556 14.4444444,7.53819444" id="Fill-5" fill="#8DCC93"></path>
                        <path d="M107.611111,16.2048611 L105.444444,16.2048611 C105.045056,16.2048611 104.722222,15.8820278 104.722222,15.4826389 L104.722222,6.09375 C104.722222,5.69436111 105.045056,5.37152778 105.444444,5.37152778 L107.611111,5.37152778 C108.0105,5.37152778 108.333333,5.69436111 108.333333,6.09375 L108.333333,15.4826389 C108.333333,15.8820278 108.0105,16.2048611 107.611111,16.2048611" id="Fill-7" fill="#C2C2C2"></path>
                        <path d="M114.830517,16.2048611 L112.669628,16.2048611 C112.268794,16.2048611 111.944517,15.8805833 111.944517,15.47975 L111.944517,6.09663889 C111.944517,5.69580556 112.268794,5.37152778 112.669628,5.37152778 L114.830517,5.37152778 C115.23135,5.37152778 115.555628,5.69580556 115.555628,6.09663889 L115.555628,15.47975 C115.555628,15.8805833 115.23135,16.2048611 114.830517,16.2048611" id="Fill-9" fill="#C2C2C2"></path>
                        <path d="M122.059094,16.2048611 L119.885206,16.2048611 C119.487983,16.2048611 119.166594,15.8834722 119.166594,15.48625 L119.166594,6.09013889 C119.166594,5.69291667 119.487983,5.37152778 119.885206,5.37152778 L122.059094,5.37152778 C122.456317,5.37152778 122.777706,5.69291667 122.777706,6.09013889 L122.777706,15.48625 C122.777706,15.8834722 122.456317,16.2048611 122.059094,16.2048611" id="Fill-11" fill="#C2C2C2"></path>
                        <path d="M78,7.58051667 L78,14.0862944 C78,14.68285 77.5161111,15.1667389 76.9195556,15.1667389 L53.0804444,15.1667389 C52.4838889,15.1667389 52,14.68285 52,14.0862944 L52,7.58051667 C52,6.98396111 52.4838889,6.50007222 53.0804444,6.50007222 L76.9195556,6.50007222 C77.5161111,6.50007222 78,6.98396111 78,7.58051667" id="Fill-13" fill="#C2C2C2"></path>
                    </g>
                    <g id="Page-1-Copy-2" transform="translate(0.000000, 29.333333)">
                        <path d="M126.388889,21.6666667 L3.61111111,21.6666667 C1.61633333,21.6666667 0,20.0503333 0,18.0555556 L0,3.61111111 C0,1.61633333 1.61633333,0 3.61111111,0 L126.388889,0 C128.383667,0 130,1.61633333 130,3.61111111 L130,18.0555556 C130,20.0503333 128.383667,21.6666667 126.388889,21.6666667" id="Fill-1" fill="#D6D6D6"></path>
                        <path d="M14.4444444,14.0381944 C14.4444444,15.0355833 13.6362778,15.84375 12.6388889,15.84375 C11.6415,15.84375 10.8333333,15.0355833 10.8333333,14.0381944 C10.8333333,13.0408056 11.6415,12.2326389 12.6388889,12.2326389 C13.6362778,12.2326389 14.4444444,13.0408056 14.4444444,14.0381944" id="Fill-3" fill="#F16667"></path>
                        <path d="M14.4444444,7.53819444 C14.4444444,8.53558333 13.6362778,9.34375 12.6388889,9.34375 C11.6415,9.34375 10.8333333,8.53558333 10.8333333,7.53819444 C10.8333333,6.54080556 11.6415,5.73263889 12.6388889,5.73263889 C13.6362778,5.73263889 14.4444444,6.54080556 14.4444444,7.53819444" id="Fill-5" fill="#8DCC93"></path>
                        <path d="M107.611111,16.2048611 L105.444444,16.2048611 C105.045056,16.2048611 104.722222,15.8820278 104.722222,15.4826389 L104.722222,6.09375 C104.722222,5.69436111 105.045056,5.37152778 105.444444,5.37152778 L107.611111,5.37152778 C108.0105,5.37152778 108.333333,5.69436111 108.333333,6.09375 L108.333333,15.4826389 C108.333333,15.8820278 108.0105,16.2048611 107.611111,16.2048611" id="Fill-7" fill="#C2C2C2"></path>
                        <path d="M114.830517,16.2048611 L112.669628,16.2048611 C112.268794,16.2048611 111.944517,15.8805833 111.944517,15.47975 L111.944517,6.09663889 C111.944517,5.69580556 112.268794,5.37152778 112.669628,5.37152778 L114.830517,5.37152778 C115.23135,5.37152778 115.555628,5.69580556 115.555628,6.09663889 L115.555628,15.47975 C115.555628,15.8805833 115.23135,16.2048611 114.830517,16.2048611" id="Fill-9" fill="#C2C2C2"></path>
                        <path d="M122.059094,16.2048611 L119.885206,16.2048611 C119.487983,16.2048611 119.166594,15.8834722 119.166594,15.48625 L119.166594,6.09013889 C119.166594,5.69291667 119.487983,5.37152778 119.885206,5.37152778 L122.059094,5.37152778 C122.456317,5.37152778 122.777706,5.69291667 122.777706,6.09013889 L122.777706,15.48625 C122.777706,15.8834722 122.456317,16.2048611 122.059094,16.2048611" id="Fill-11" fill="#C2C2C2"></path>
                        <path d="M78,7.58051667 L78,14.0862944 C78,14.68285 77.5161111,15.1667389 76.9195556,15.1667389 L53.0804444,15.1667389 C52.4838889,15.1667389 52,14.68285 52,14.0862944 L52,7.58051667 C52,6.98396111 52.4838889,6.50007222 53.0804444,6.50007222 L76.9195556,6.50007222 C77.5161111,6.50007222 78,6.98396111 78,7.58051667" id="Fill-13" fill="#C2C2C2"></path>
                    </g>
                    <g id="Page-1-Copy-2">
                        <path d="M126.388889,21.6666667 L3.61111111,21.6666667 C1.61633333,21.6666667 0,20.0503333 0,18.0555556 L0,3.61111111 C0,1.61633333 1.61633333,0 3.61111111,0 L126.388889,0 C128.383667,0 130,1.61633333 130,3.61111111 L130,18.0555556 C130,20.0503333 128.383667,21.6666667 126.388889,21.6666667" id="Fill-1" fill="#D6D6D6"></path>
                        <path d="M14.4444444,14.0381944 C14.4444444,15.0355833 13.6362778,15.84375 12.6388889,15.84375 C11.6415,15.84375 10.8333333,15.0355833 10.8333333,14.0381944 C10.8333333,13.0408056 11.6415,12.2326389 12.6388889,12.2326389 C13.6362778,12.2326389 14.4444444,13.0408056 14.4444444,14.0381944" id="Fill-3" fill="#F16667"></path>
                        <path d="M14.4444444,7.53819444 C14.4444444,8.53558333 13.6362778,9.34375 12.6388889,9.34375 C11.6415,9.34375 10.8333333,8.53558333 10.8333333,7.53819444 C10.8333333,6.54080556 11.6415,5.73263889 12.6388889,5.73263889 C13.6362778,5.73263889 14.4444444,6.54080556 14.4444444,7.53819444" id="Fill-5" fill="#8DCC93"></path>
                        <path d="M107.611111,16.2048611 L105.444444,16.2048611 C105.045056,16.2048611 104.722222,15.8820278 104.722222,15.4826389 L104.722222,6.09375 C104.722222,5.69436111 105.045056,5.37152778 105.444444,5.37152778 L107.611111,5.37152778 C108.0105,5.37152778 108.333333,5.69436111 108.333333,6.09375 L108.333333,15.4826389 C108.333333,15.8820278 108.0105,16.2048611 107.611111,16.2048611" id="Fill-7" fill="#C2C2C2"></path>
                        <path d="M114.830517,16.2048611 L112.669628,16.2048611 C112.268794,16.2048611 111.944517,15.8805833 111.944517,15.47975 L111.944517,6.09663889 C111.944517,5.69580556 112.268794,5.37152778 112.669628,5.37152778 L114.830517,5.37152778 C115.23135,5.37152778 115.555628,5.69580556 115.555628,6.09663889 L115.555628,15.47975 C115.555628,15.8805833 115.23135,16.2048611 114.830517,16.2048611" id="Fill-9" fill="#C2C2C2"></path>
                        <path d="M122.059094,16.2048611 L119.885206,16.2048611 C119.487983,16.2048611 119.166594,15.8834722 119.166594,15.48625 L119.166594,6.09013889 C119.166594,5.69291667 119.487983,5.37152778 119.885206,5.37152778 L122.059094,5.37152778 C122.456317,5.37152778 122.777706,5.69291667 122.777706,6.09013889 L122.777706,15.48625 C122.777706,15.8834722 122.456317,16.2048611 122.059094,16.2048611" id="Fill-11" fill="#C2C2C2"></path>
                        <path d="M78,7.58051667 L78,14.0862944 C78,14.68285 77.5161111,15.1667389 76.9195556,15.1667389 L53.0804444,15.1667389 C52.4838889,15.1667389 52,14.68285 52,14.0862944 L52,7.58051667 C52,6.98396111 52.4838889,6.50007222 53.0804444,6.50007222 L76.9195556,6.50007222 C77.5161111,6.50007222 78,6.98396111 78,7.58051667" id="Fill-13" fill="#C2C2C2"></path>
                    </g>
                </g>
                <g id="Page-1-Copy-2" transform="translate(128.000000, 244.000000)">
                    <path d="M126.388889,21.6666667 L3.61111111,21.6666667 C1.61633333,21.6666667 0,20.0503333 0,18.0555556 L0,3.61111111 C0,1.61633333 1.61633333,0 3.61111111,0 L126.388889,0 C128.383667,0 130,1.61633333 130,3.61111111 L130,18.0555556 C130,20.0503333 128.383667,21.6666667 126.388889,21.6666667" id="Fill-1" fill="#D6D6D6"></path>
                    <path d="M14.4444444,14.0381944 C14.4444444,15.0355833 13.6362778,15.84375 12.6388889,15.84375 C11.6415,15.84375 10.8333333,15.0355833 10.8333333,14.0381944 C10.8333333,13.0408056 11.6415,12.2326389 12.6388889,12.2326389 C13.6362778,12.2326389 14.4444444,13.0408056 14.4444444,14.0381944" id="Fill-3" fill="#F16667"></path>
                    <path d="M14.4444444,7.53819444 C14.4444444,8.53558333 13.6362778,9.34375 12.6388889,9.34375 C11.6415,9.34375 10.8333333,8.53558333 10.8333333,7.53819444 C10.8333333,6.54080556 11.6415,5.73263889 12.6388889,5.73263889 C13.6362778,5.73263889 14.4444444,6.54080556 14.4444444,7.53819444" id="Fill-5" fill="#8DCC93"></path>
                    <path d="M107.611111,16.2048611 L105.444444,16.2048611 C105.045056,16.2048611 104.722222,15.8820278 104.722222,15.4826389 L104.722222,6.09375 C104.722222,5.69436111 105.045056,5.37152778 105.444444,5.37152778 L107.611111,5.37152778 C108.0105,5.37152778 108.333333,5.69436111 108.333333,6.09375 L108.333333,15.4826389 C108.333333,15.8820278 108.0105,16.2048611 107.611111,16.2048611" id="Fill-7" fill="#C2C2C2"></path>
                    <path d="M114.830517,16.2048611 L112.669628,16.2048611 C112.268794,16.2048611 111.944517,15.8805833 111.944517,15.47975 L111.944517,6.09663889 C111.944517,5.69580556 112.268794,5.37152778 112.669628,5.37152778 L114.830517,5.37152778 C115.23135,5.37152778 115.555628,5.69580556 115.555628,6.09663889 L115.555628,15.47975 C115.555628,15.8805833 115.23135,16.2048611 114.830517,16.2048611" id="Fill-9" fill="#C2C2C2"></path>
                    <path d="M122.059094,16.2048611 L119.885206,16.2048611 C119.487983,16.2048611 119.166594,15.8834722 119.166594,15.48625 L119.166594,6.09013889 C119.166594,5.69291667 119.487983,5.37152778 119.885206,5.37152778 L122.059094,5.37152778 C122.456317,5.37152778 122.777706,5.69291667 122.777706,6.09013889 L122.777706,15.48625 C122.777706,15.8834722 122.456317,16.2048611 122.059094,16.2048611" id="Fill-11" fill="#C2C2C2"></path>
                    <path d="M78,7.58051667 L78,14.0862944 C78,14.68285 77.5161111,15.1667389 76.9195556,15.1667389 L53.0804444,15.1667389 C52.4838889,15.1667389 52,14.68285 52,14.0862944 L52,7.58051667 C52,6.98396111 52.4838889,6.50007222 53.0804444,6.50007222 L76.9195556,6.50007222 C77.5161111,6.50007222 78,6.98396111 78,7.58051667" id="Fill-13" fill="#C2C2C2"></path>
                </g>
                <g id="Page-1-Copy-2" transform="translate(12.000000, 201.000000)">
                    <path d="M126.388889,21.6666667 L3.61111111,21.6666667 C1.61633333,21.6666667 0,20.0503333 0,18.0555556 L0,3.61111111 C0,1.61633333 1.61633333,0 3.61111111,0 L126.388889,0 C128.383667,0 130,1.61633333 130,3.61111111 L130,18.0555556 C130,20.0503333 128.383667,21.6666667 126.388889,21.6666667" id="Fill-1" fill="#D6D6D6"></path>
                    <path d="M14.4444444,14.0381944 C14.4444444,15.0355833 13.6362778,15.84375 12.6388889,15.84375 C11.6415,15.84375 10.8333333,15.0355833 10.8333333,14.0381944 C10.8333333,13.0408056 11.6415,12.2326389 12.6388889,12.2326389 C13.6362778,12.2326389 14.4444444,13.0408056 14.4444444,14.0381944" id="Fill-3" fill="#F16667"></path>
                    <path d="M14.4444444,7.53819444 C14.4444444,8.53558333 13.6362778,9.34375 12.6388889,9.34375 C11.6415,9.34375 10.8333333,8.53558333 10.8333333,7.53819444 C10.8333333,6.54080556 11.6415,5.73263889 12.6388889,5.73263889 C13.6362778,5.73263889 14.4444444,6.54080556 14.4444444,7.53819444" id="Fill-5" fill="#8DCC93"></path>
                    <path d="M107.611111,16.2048611 L105.444444,16.2048611 C105.045056,16.2048611 104.722222,15.8820278 104.722222,15.4826389 L104.722222,6.09375 C104.722222,5.69436111 105.045056,5.37152778 105.444444,5.37152778 L107.611111,5.37152778 C108.0105,5.37152778 108.333333,5.69436111 108.333333,6.09375 L108.333333,15.4826389 C108.333333,15.8820278 108.0105,16.2048611 107.611111,16.2048611" id="Fill-7" fill="#C2C2C2"></path>
                    <path d="M114.830517,16.2048611 L112.669628,16.2048611 C112.268794,16.2048611 111.944517,15.8805833 111.944517,15.47975 L111.944517,6.09663889 C111.944517,5.69580556 112.268794,5.37152778 112.669628,5.37152778 L114.830517,5.37152778 C115.23135,5.37152778 115.555628,5.69580556 115.555628,6.09663889 L115.555628,15.47975 C115.555628,15.8805833 115.23135,16.2048611 114.830517,16.2048611" id="Fill-9" fill="#C2C2C2"></path>
                    <path d="M122.059094,16.2048611 L119.885206,16.2048611 C119.487983,16.2048611 119.166594,15.8834722 119.166594,15.48625 L119.166594,6.09013889 C119.166594,5.69291667 119.487983,5.37152778 119.885206,5.37152778 L122.059094,5.37152778 C122.456317,5.37152778 122.777706,5.69291667 122.777706,6.09013889 L122.777706,15.48625 C122.777706,15.8834722 122.456317,16.2048611 122.059094,16.2048611" id="Fill-11" fill="#C2C2C2"></path>
                    <path d="M78,7.58051667 L78,14.0862944 C78,14.68285 77.5161111,15.1667389 76.9195556,15.1667389 L53.0804444,15.1667389 C52.4838889,15.1667389 52,14.68285 52,14.0862944 L52,7.58051667 C52,6.98396111 52.4838889,6.50007222 53.0804444,6.50007222 L76.9195556,6.50007222 C77.5161111,6.50007222 78,6.98396111 78,7.58051667" id="Fill-13" fill="#C2C2C2"></path>
                </g>
                <text id="Data-center-1" font-family="OpenSans-Regular, Open Sans" font-size="12" font-weight="normal" fill="#333333">
                    <tspan x="97" y="363">Data center 1</tspan>
                </text>
                <polyline id="Path-5" stroke="#979797" stroke-width="2" points="89 193.507892 134.713551 129 191.911962 239.426799"></polyline>
                <polygon id="Triangle-5" fill="#979797" transform="translate(88.459557, 193.992419) rotate(-145.000000) translate(-88.459557, -193.992419) " points="88.4595568 189.992419 92.4595568 197.992419 84.4595568 197.992419"></polygon>
                <polygon id="Triangle-5" fill="#979797" transform="translate(191.570914, 238.570914) scale(-1, 1) rotate(-151.000000) translate(-191.570914, -238.570914) " points="191.570914 234.570914 195.570914 242.570914 187.570914 242.570914"></polygon>
                <rect id="Rectangle-14" stroke="#DFDFDF" x="269.5" y="6.5" width="257" height="372"></rect>
                <text id="Read-Replica" font-family="OpenSans-Regular, Open Sans" font-size="12" font-weight="normal" fill="#333333">
                    <tspan x="420" y="284">Read Replica</tspan>
                </text>
                <text id="Read-Replica" font-family="OpenSans-Regular, Open Sans" font-size="12" font-weight="normal" fill="#333333">
                    <tspan x="304" y="241">Read Replica</tspan>
                </text>
                <g id="Page-1-Copy-2" transform="translate(391.000000, 244.000000)">
                    <path d="M126.388889,21.6666667 L3.61111111,21.6666667 C1.61633333,21.6666667 0,20.0503333 0,18.0555556 L0,3.61111111 C0,1.61633333 1.61633333,0 3.61111111,0 L126.388889,0 C128.383667,0 130,1.61633333 130,3.61111111 L130,18.0555556 C130,20.0503333 128.383667,21.6666667 126.388889,21.6666667" id="Fill-1" fill="#D6D6D6"></path>
                    <path d="M14.4444444,14.0381944 C14.4444444,15.0355833 13.6362778,15.84375 12.6388889,15.84375 C11.6415,15.84375 10.8333333,15.0355833 10.8333333,14.0381944 C10.8333333,13.0408056 11.6415,12.2326389 12.6388889,12.2326389 C13.6362778,12.2326389 14.4444444,13.0408056 14.4444444,14.0381944" id="Fill-3" fill="#F16667"></path>
                    <path d="M14.4444444,7.53819444 C14.4444444,8.53558333 13.6362778,9.34375 12.6388889,9.34375 C11.6415,9.34375 10.8333333,8.53558333 10.8333333,7.53819444 C10.8333333,6.54080556 11.6415,5.73263889 12.6388889,5.73263889 C13.6362778,5.73263889 14.4444444,6.54080556 14.4444444,7.53819444" id="Fill-5" fill="#8DCC93"></path>
                    <path d="M107.611111,16.2048611 L105.444444,16.2048611 C105.045056,16.2048611 104.722222,15.8820278 104.722222,15.4826389 L104.722222,6.09375 C104.722222,5.69436111 105.045056,5.37152778 105.444444,5.37152778 L107.611111,5.37152778 C108.0105,5.37152778 108.333333,5.69436111 108.333333,6.09375 L108.333333,15.4826389 C108.333333,15.8820278 108.0105,16.2048611 107.611111,16.2048611" id="Fill-7" fill="#C2C2C2"></path>
                    <path d="M114.830517,16.2048611 L112.669628,16.2048611 C112.268794,16.2048611 111.944517,15.8805833 111.944517,15.47975 L111.944517,6.09663889 C111.944517,5.69580556 112.268794,5.37152778 112.669628,5.37152778 L114.830517,5.37152778 C115.23135,5.37152778 115.555628,5.69580556 115.555628,6.09663889 L115.555628,15.47975 C115.555628,15.8805833 115.23135,16.2048611 114.830517,16.2048611" id="Fill-9" fill="#C2C2C2"></path>
                    <path d="M122.059094,16.2048611 L119.885206,16.2048611 C119.487983,16.2048611 119.166594,15.8834722 119.166594,15.48625 L119.166594,6.09013889 C119.166594,5.69291667 119.487983,5.37152778 119.885206,5.37152778 L122.059094,5.37152778 C122.456317,5.37152778 122.777706,5.69291667 122.777706,6.09013889 L122.777706,15.48625 C122.777706,15.8834722 122.456317,16.2048611 122.059094,16.2048611" id="Fill-11" fill="#C2C2C2"></path>
                    <path d="M78,7.58051667 L78,14.0862944 C78,14.68285 77.5161111,15.1667389 76.9195556,15.1667389 L53.0804444,15.1667389 C52.4838889,15.1667389 52,14.68285 52,14.0862944 L52,7.58051667 C52,6.98396111 52.4838889,6.50007222 53.0804444,6.50007222 L76.9195556,6.50007222 C77.5161111,6.50007222 78,6.98396111 78,7.58051667" id="Fill-13" fill="#C2C2C2"></path>
                </g>
                <g id="Page-1-Copy-2" transform="translate(275.000000, 201.000000)">
                    <path d="M126.388889,21.6666667 L3.61111111,21.6666667 C1.61633333,21.6666667 0,20.0503333 0,18.0555556 L0,3.61111111 C0,1.61633333 1.61633333,0 3.61111111,0 L126.388889,0 C128.383667,0 130,1.61633333 130,3.61111111 L130,18.0555556 C130,20.0503333 128.383667,21.6666667 126.388889,21.6666667" id="Fill-1" fill="#D6D6D6"></path>
                    <path d="M14.4444444,14.0381944 C14.4444444,15.0355833 13.6362778,15.84375 12.6388889,15.84375 C11.6415,15.84375 10.8333333,15.0355833 10.8333333,14.0381944 C10.8333333,13.0408056 11.6415,12.2326389 12.6388889,12.2326389 C13.6362778,12.2326389 14.4444444,13.0408056 14.4444444,14.0381944" id="Fill-3" fill="#F16667"></path>
                    <path d="M14.4444444,7.53819444 C14.4444444,8.53558333 13.6362778,9.34375 12.6388889,9.34375 C11.6415,9.34375 10.8333333,8.53558333 10.8333333,7.53819444 C10.8333333,6.54080556 11.6415,5.73263889 12.6388889,5.73263889 C13.6362778,5.73263889 14.4444444,6.54080556 14.4444444,7.53819444" id="Fill-5" fill="#8DCC93"></path>
                    <path d="M107.611111,16.2048611 L105.444444,16.2048611 C105.045056,16.2048611 104.722222,15.8820278 104.722222,15.4826389 L104.722222,6.09375 C104.722222,5.69436111 105.045056,5.37152778 105.444444,5.37152778 L107.611111,5.37152778 C108.0105,5.37152778 108.333333,5.69436111 108.333333,6.09375 L108.333333,15.4826389 C108.333333,15.8820278 108.0105,16.2048611 107.611111,16.2048611" id="Fill-7" fill="#C2C2C2"></path>
                    <path d="M114.830517,16.2048611 L112.669628,16.2048611 C112.268794,16.2048611 111.944517,15.8805833 111.944517,15.47975 L111.944517,6.09663889 C111.944517,5.69580556 112.268794,5.37152778 112.669628,5.37152778 L114.830517,5.37152778 C115.23135,5.37152778 115.555628,5.69580556 115.555628,6.09663889 L115.555628,15.47975 C115.555628,15.8805833 115.23135,16.2048611 114.830517,16.2048611" id="Fill-9" fill="#C2C2C2"></path>
                    <path d="M122.059094,16.2048611 L119.885206,16.2048611 C119.487983,16.2048611 119.166594,15.8834722 119.166594,15.48625 L119.166594,6.09013889 C119.166594,5.69291667 119.487983,5.37152778 119.885206,5.37152778 L122.059094,5.37152778 C122.456317,5.37152778 122.777706,5.69291667 122.777706,6.09013889 L122.777706,15.48625 C122.777706,15.8834722 122.456317,16.2048611 122.059094,16.2048611" id="Fill-11" fill="#C2C2C2"></path>
                    <path d="M78,7.58051667 L78,14.0862944 C78,14.68285 77.5161111,15.1667389 76.9195556,15.1667389 L53.0804444,15.1667389 C52.4838889,15.1667389 52,14.68285 52,14.0862944 L52,7.58051667 C52,6.98396111 52.4838889,6.50007222 53.0804444,6.50007222 L76.9195556,6.50007222 C77.5161111,6.50007222 78,6.98396111 78,7.58051667" id="Fill-13" fill="#C2C2C2"></path>
                </g>
                <text id="Data-center-2" font-family="OpenSans-Regular, Open Sans" font-size="12" font-weight="normal" fill="#333333">
                    <tspan x="360" y="363">Data center 2</tspan>
                </text>
                <polyline id="Path-5" stroke="#979797" stroke-width="2" points="352 193.507892 397.713551 129 454.911962 239.426799"></polyline>
                <polygon id="Triangle-5" fill="#979797" transform="translate(351.459557, 193.992419) rotate(-145.000000) translate(-351.459557, -193.992419) " points="351.459557 189.992419 355.459557 197.992419 347.459557 197.992419"></polygon>
                <polygon id="Triangle-5" fill="#979797" transform="translate(454.570914, 238.570914) scale(-1, 1) rotate(-151.000000) translate(-454.570914, -238.570914) " points="454.570914 234.570914 458.570914 242.570914 450.570914 242.570914"></polygon>
                <rect id="Rectangle-14" stroke="#DFDFDF" x="532.5" y="6.5" width="257" height="372"></rect>
                <text id="Read-Replica" font-family="OpenSans-Regular, Open Sans" font-size="12" font-weight="normal" fill="#333333">
                    <tspan x="683" y="284">Read Replica</tspan>
                </text>
                <text id="Read-Replica" font-family="OpenSans-Regular, Open Sans" font-size="12" font-weight="normal" fill="#333333">
                    <tspan x="567" y="241">Read Replica</tspan>
                </text>
                <g id="Page-1-Copy-2" transform="translate(653.000000, 244.000000)">
                    <path d="M126.388889,21.6666667 L3.61111111,21.6666667 C1.61633333,21.6666667 0,20.0503333 0,18.0555556 L0,3.61111111 C0,1.61633333 1.61633333,0 3.61111111,0 L126.388889,0 C128.383667,0 130,1.61633333 130,3.61111111 L130,18.0555556 C130,20.0503333 128.383667,21.6666667 126.388889,21.6666667" id="Fill-1" fill="#D6D6D6"></path>
                    <path d="M14.4444444,14.0381944 C14.4444444,15.0355833 13.6362778,15.84375 12.6388889,15.84375 C11.6415,15.84375 10.8333333,15.0355833 10.8333333,14.0381944 C10.8333333,13.0408056 11.6415,12.2326389 12.6388889,12.2326389 C13.6362778,12.2326389 14.4444444,13.0408056 14.4444444,14.0381944" id="Fill-3" fill="#F16667"></path>
                    <path d="M14.4444444,7.53819444 C14.4444444,8.53558333 13.6362778,9.34375 12.6388889,9.34375 C11.6415,9.34375 10.8333333,8.53558333 10.8333333,7.53819444 C10.8333333,6.54080556 11.6415,5.73263889 12.6388889,5.73263889 C13.6362778,5.73263889 14.4444444,6.54080556 14.4444444,7.53819444" id="Fill-5" fill="#8DCC93"></path>
                    <path d="M107.611111,16.2048611 L105.444444,16.2048611 C105.045056,16.2048611 104.722222,15.8820278 104.722222,15.4826389 L104.722222,6.09375 C104.722222,5.69436111 105.045056,5.37152778 105.444444,5.37152778 L107.611111,5.37152778 C108.0105,5.37152778 108.333333,5.69436111 108.333333,6.09375 L108.333333,15.4826389 C108.333333,15.8820278 108.0105,16.2048611 107.611111,16.2048611" id="Fill-7" fill="#C2C2C2"></path>
                    <path d="M114.830517,16.2048611 L112.669628,16.2048611 C112.268794,16.2048611 111.944517,15.8805833 111.944517,15.47975 L111.944517,6.09663889 C111.944517,5.69580556 112.268794,5.37152778 112.669628,5.37152778 L114.830517,5.37152778 C115.23135,5.37152778 115.555628,5.69580556 115.555628,6.09663889 L115.555628,15.47975 C115.555628,15.8805833 115.23135,16.2048611 114.830517,16.2048611" id="Fill-9" fill="#C2C2C2"></path>
                    <path d="M122.059094,16.2048611 L119.885206,16.2048611 C119.487983,16.2048611 119.166594,15.8834722 119.166594,15.48625 L119.166594,6.09013889 C119.166594,5.69291667 119.487983,5.37152778 119.885206,5.37152778 L122.059094,5.37152778 C122.456317,5.37152778 122.777706,5.69291667 122.777706,6.09013889 L122.777706,15.48625 C122.777706,15.8834722 122.456317,16.2048611 122.059094,16.2048611" id="Fill-11" fill="#C2C2C2"></path>
                    <path d="M78,7.58051667 L78,14.0862944 C78,14.68285 77.5161111,15.1667389 76.9195556,15.1667389 L53.0804444,15.1667389 C52.4838889,15.1667389 52,14.68285 52,14.0862944 L52,7.58051667 C52,6.98396111 52.4838889,6.50007222 53.0804444,6.50007222 L76.9195556,6.50007222 C77.5161111,6.50007222 78,6.98396111 78,7.58051667" id="Fill-13" fill="#C2C2C2"></path>
                </g>
                <g id="Page-1-Copy-2" transform="translate(538.000000, 201.000000)">
                    <path d="M126.388889,21.6666667 L3.61111111,21.6666667 C1.61633333,21.6666667 0,20.0503333 0,18.0555556 L0,3.61111111 C0,1.61633333 1.61633333,0 3.61111111,0 L126.388889,0 C128.383667,0 130,1.61633333 130,3.61111111 L130,18.0555556 C130,20.0503333 128.383667,21.6666667 126.388889,21.6666667" id="Fill-1" fill="#D6D6D6"></path>
                    <path d="M14.4444444,14.0381944 C14.4444444,15.0355833 13.6362778,15.84375 12.6388889,15.84375 C11.6415,15.84375 10.8333333,15.0355833 10.8333333,14.0381944 C10.8333333,13.0408056 11.6415,12.2326389 12.6388889,12.2326389 C13.6362778,12.2326389 14.4444444,13.0408056 14.4444444,14.0381944" id="Fill-3" fill="#F16667"></path>
                    <path d="M14.4444444,7.53819444 C14.4444444,8.53558333 13.6362778,9.34375 12.6388889,9.34375 C11.6415,9.34375 10.8333333,8.53558333 10.8333333,7.53819444 C10.8333333,6.54080556 11.6415,5.73263889 12.6388889,5.73263889 C13.6362778,5.73263889 14.4444444,6.54080556 14.4444444,7.53819444" id="Fill-5" fill="#8DCC93"></path>
                    <path d="M107.611111,16.2048611 L105.444444,16.2048611 C105.045056,16.2048611 104.722222,15.8820278 104.722222,15.4826389 L104.722222,6.09375 C104.722222,5.69436111 105.045056,5.37152778 105.444444,5.37152778 L107.611111,5.37152778 C108.0105,5.37152778 108.333333,5.69436111 108.333333,6.09375 L108.333333,15.4826389 C108.333333,15.8820278 108.0105,16.2048611 107.611111,16.2048611" id="Fill-7" fill="#C2C2C2"></path>
                    <path d="M114.830517,16.2048611 L112.669628,16.2048611 C112.268794,16.2048611 111.944517,15.8805833 111.944517,15.47975 L111.944517,6.09663889 C111.944517,5.69580556 112.268794,5.37152778 112.669628,5.37152778 L114.830517,5.37152778 C115.23135,5.37152778 115.555628,5.69580556 115.555628,6.09663889 L115.555628,15.47975 C115.555628,15.8805833 115.23135,16.2048611 114.830517,16.2048611" id="Fill-9" fill="#C2C2C2"></path>
                    <path d="M122.059094,16.2048611 L119.885206,16.2048611 C119.487983,16.2048611 119.166594,15.8834722 119.166594,15.48625 L119.166594,6.09013889 C119.166594,5.69291667 119.487983,5.37152778 119.885206,5.37152778 L122.059094,5.37152778 C122.456317,5.37152778 122.777706,5.69291667 122.777706,6.09013889 L122.777706,15.48625 C122.777706,15.8834722 122.456317,16.2048611 122.059094,16.2048611" id="Fill-11" fill="#C2C2C2"></path>
                    <path d="M78,7.58051667 L78,14.0862944 C78,14.68285 77.5161111,15.1667389 76.9195556,15.1667389 L53.0804444,15.1667389 C52.4838889,15.1667389 52,14.68285 52,14.0862944 L52,7.58051667 C52,6.98396111 52.4838889,6.50007222 53.0804444,6.50007222 L76.9195556,6.50007222 C77.5161111,6.50007222 78,6.98396111 78,7.58051667" id="Fill-13" fill="#C2C2C2"></path>
                </g>
                <text id="Core-Servers" font-family="OpenSans-Regular, Open Sans" font-size="12" font-weight="normal" fill="#333333">
                    <tspan x="628" y="29">Core Servers</tspan>
                </text>
                <text id="Data-center-3" font-family="OpenSans-Regular, Open Sans" font-size="12" font-weight="normal" fill="#333333">
                    <tspan x="623" y="363">Data center 3</tspan>
                </text>
                <polyline id="Path-5" stroke="#979797" stroke-width="2" points="615 193.507892 660.713551 129 717.911962 239.426799"></polyline>
                <polygon id="Triangle-5" fill="#979797" transform="translate(614.459557, 193.992419) rotate(-145.000000) translate(-614.459557, -193.992419) " points="614.459557 189.992419 618.459557 197.992419 610.459557 197.992419"></polygon>
                <polygon id="Triangle-5" fill="#979797" transform="translate(717.570914, 238.570914) scale(-1, 1) rotate(-151.000000) translate(-717.570914, -238.570914) " points="717.570914 234.570914 721.570914 242.570914 713.570914 242.570914"></polygon>
                <g id="Page-1-Copy-2" transform="translate(333.000000, 71.333333)">
                    <path d="M126.388889,21.6666667 L3.61111111,21.6666667 C1.61633333,21.6666667 0,20.0503333 0,18.0555556 L0,3.61111111 C0,1.61633333 1.61633333,0 3.61111111,0 L126.388889,0 C128.383667,0 130,1.61633333 130,3.61111111 L130,18.0555556 C130,20.0503333 128.383667,21.6666667 126.388889,21.6666667" id="Fill-1" fill="#D6D6D6"></path>
                    <path d="M14.4444444,14.0381944 C14.4444444,15.0355833 13.6362778,15.84375 12.6388889,15.84375 C11.6415,15.84375 10.8333333,15.0355833 10.8333333,14.0381944 C10.8333333,13.0408056 11.6415,12.2326389 12.6388889,12.2326389 C13.6362778,12.2326389 14.4444444,13.0408056 14.4444444,14.0381944" id="Fill-3" fill="#F16667"></path>
                    <path d="M14.4444444,7.53819444 C14.4444444,8.53558333 13.6362778,9.34375 12.6388889,9.34375 C11.6415,9.34375 10.8333333,8.53558333 10.8333333,7.53819444 C10.8333333,6.54080556 11.6415,5.73263889 12.6388889,5.73263889 C13.6362778,5.73263889 14.4444444,6.54080556 14.4444444,7.53819444" id="Fill-5" fill="#8DCC93"></path>
                    <path d="M107.611111,16.2048611 L105.444444,16.2048611 C105.045056,16.2048611 104.722222,15.8820278 104.722222,15.4826389 L104.722222,6.09375 C104.722222,5.69436111 105.045056,5.37152778 105.444444,5.37152778 L107.611111,5.37152778 C108.0105,5.37152778 108.333333,5.69436111 108.333333,6.09375 L108.333333,15.4826389 C108.333333,15.8820278 108.0105,16.2048611 107.611111,16.2048611" id="Fill-7" fill="#C2C2C2"></path>
                    <path d="M114.830517,16.2048611 L112.669628,16.2048611 C112.268794,16.2048611 111.944517,15.8805833 111.944517,15.47975 L111.944517,6.09663889 C111.944517,5.69580556 112.268794,5.37152778 112.669628,5.37152778 L114.830517,5.37152778 C115.23135,5.37152778 115.555628,5.69580556 115.555628,6.09663889 L115.555628,15.47975 C115.555628,15.8805833 115.23135,16.2048611 114.830517,16.2048611" id="Fill-9" fill="#C2C2C2"></path>
                    <path d="M122.059094,16.2048611 L119.885206,16.2048611 C119.487983,16.2048611 119.166594,15.8834722 119.166594,15.48625 L119.166594,6.09013889 C119.166594,5.69291667 119.487983,5.37152778 119.885206,5.37152778 L122.059094,5.37152778 C122.456317,5.37152778 122.777706,5.69291667 122.777706,6.09013889 L122.777706,15.48625 C122.777706,15.8834722 122.456317,16.2048611 122.059094,16.2048611" id="Fill-11" fill="#C2C2C2"></path>
                    <path d="M78,7.58051667 L78,14.0862944 C78,14.68285 77.5161111,15.1667389 76.9195556,15.1667389 L53.0804444,15.1667389 C52.4838889,15.1667389 52,14.68285 52,14.0862944 L52,7.58051667 C52,6.98396111 52.4838889,6.50007222 53.0804444,6.50007222 L76.9195556,6.50007222 C77.5161111,6.50007222 78,6.98396111 78,7.58051667" id="Fill-13" fill="#C2C2C2"></path>
                </g>
                <g id="Group-10" transform="translate(70.000000, 42.000000)">
                    <rect id="Rectangle-15" fill="#C2C2C2" x="15" y="51" width="100" height="9"></rect>
                    <rect id="Rectangle-15" fill="#C2C2C2" x="15" y="21" width="100" height="9"></rect>
                    <g id="Page-1-Copy-2" transform="translate(0.000000, 60.000000)">
                        <path d="M126.388889,21.6666667 L3.61111111,21.6666667 C1.61633333,21.6666667 0,20.0503333 0,18.0555556 L0,3.61111111 C0,1.61633333 1.61633333,0 3.61111111,0 L126.388889,0 C128.383667,0 130,1.61633333 130,3.61111111 L130,18.0555556 C130,20.0503333 128.383667,21.6666667 126.388889,21.6666667" id="Fill-1" fill="#D6D6D6"></path>
                        <path d="M14.4444444,14.0381944 C14.4444444,15.0355833 13.6362778,15.84375 12.6388889,15.84375 C11.6415,15.84375 10.8333333,15.0355833 10.8333333,14.0381944 C10.8333333,13.0408056 11.6415,12.2326389 12.6388889,12.2326389 C13.6362778,12.2326389 14.4444444,13.0408056 14.4444444,14.0381944" id="Fill-3" fill="#F16667"></path>
                        <path d="M14.4444444,7.53819444 C14.4444444,8.53558333 13.6362778,9.34375 12.6388889,9.34375 C11.6415,9.34375 10.8333333,8.53558333 10.8333333,7.53819444 C10.8333333,6.54080556 11.6415,5.73263889 12.6388889,5.73263889 C13.6362778,5.73263889 14.4444444,6.54080556 14.4444444,7.53819444" id="Fill-5" fill="#8DCC93"></path>
                        <path d="M107.611111,16.2048611 L105.444444,16.2048611 C105.045056,16.2048611 104.722222,15.8820278 104.722222,15.4826389 L104.722222,6.09375 C104.722222,5.69436111 105.045056,5.37152778 105.444444,5.37152778 L107.611111,5.37152778 C108.0105,5.37152778 108.333333,5.69436111 108.333333,6.09375 L108.333333,15.4826389 C108.333333,15.8820278 108.0105,16.2048611 107.611111,16.2048611" id="Fill-7" fill="#C2C2C2"></path>
                        <path d="M114.830517,16.2048611 L112.669628,16.2048611 C112.268794,16.2048611 111.944517,15.8805833 111.944517,15.47975 L111.944517,6.09663889 C111.944517,5.69580556 112.268794,5.37152778 112.669628,5.37152778 L114.830517,5.37152778 C115.23135,5.37152778 115.555628,5.69580556 115.555628,6.09663889 L115.555628,15.47975 C115.555628,15.8805833 115.23135,16.2048611 114.830517,16.2048611" id="Fill-9" fill="#C2C2C2"></path>
                        <path d="M122.059094,16.2048611 L119.885206,16.2048611 C119.487983,16.2048611 119.166594,15.8834722 119.166594,15.48625 L119.166594,6.09013889 C119.166594,5.69291667 119.487983,5.37152778 119.885206,5.37152778 L122.059094,5.37152778 C122.456317,5.37152778 122.777706,5.69291667 122.777706,6.09013889 L122.777706,15.48625 C122.777706,15.8834722 122.456317,16.2048611 122.059094,16.2048611" id="Fill-11" fill="#C2C2C2"></path>
                        <path d="M78,7.58051667 L78,14.0862944 C78,14.68285 77.5161111,15.1667389 76.9195556,15.1667389 L53.0804444,15.1667389 C52.4838889,15.1667389 52,14.68285 52,14.0862944 L52,7.58051667 C52,6.98396111 52.4838889,6.50007222 53.0804444,6.50007222 L76.9195556,6.50007222 C77.5161111,6.50007222 78,6.98396111 78,7.58051667" id="Fill-13" fill="#C2C2C2"></path>
                    </g>
                    <g id="Page-1-Copy-2" transform="translate(0.000000, 29.333333)">
                        <path d="M126.388889,21.6666667 L3.61111111,21.6666667 C1.61633333,21.6666667 0,20.0503333 0,18.0555556 L0,3.61111111 C0,1.61633333 1.61633333,0 3.61111111,0 L126.388889,0 C128.383667,0 130,1.61633333 130,3.61111111 L130,18.0555556 C130,20.0503333 128.383667,21.6666667 126.388889,21.6666667" id="Fill-1" fill="#D6D6D6"></path>
                        <path d="M14.4444444,14.0381944 C14.4444444,15.0355833 13.6362778,15.84375 12.6388889,15.84375 C11.6415,15.84375 10.8333333,15.0355833 10.8333333,14.0381944 C10.8333333,13.0408056 11.6415,12.2326389 12.6388889,12.2326389 C13.6362778,12.2326389 14.4444444,13.0408056 14.4444444,14.0381944" id="Fill-3" fill="#F16667"></path>
                        <path d="M14.4444444,7.53819444 C14.4444444,8.53558333 13.6362778,9.34375 12.6388889,9.34375 C11.6415,9.34375 10.8333333,8.53558333 10.8333333,7.53819444 C10.8333333,6.54080556 11.6415,5.73263889 12.6388889,5.73263889 C13.6362778,5.73263889 14.4444444,6.54080556 14.4444444,7.53819444" id="Fill-5" fill="#8DCC93"></path>
                        <path d="M107.611111,16.2048611 L105.444444,16.2048611 C105.045056,16.2048611 104.722222,15.8820278 104.722222,15.4826389 L104.722222,6.09375 C104.722222,5.69436111 105.045056,5.37152778 105.444444,5.37152778 L107.611111,5.37152778 C108.0105,5.37152778 108.333333,5.69436111 108.333333,6.09375 L108.333333,15.4826389 C108.333333,15.8820278 108.0105,16.2048611 107.611111,16.2048611" id="Fill-7" fill="#C2C2C2"></path>
                        <path d="M114.830517,16.2048611 L112.669628,16.2048611 C112.268794,16.2048611 111.944517,15.8805833 111.944517,15.47975 L111.944517,6.09663889 C111.944517,5.69580556 112.268794,5.37152778 112.669628,5.37152778 L114.830517,5.37152778 C115.23135,5.37152778 115.555628,5.69580556 115.555628,6.09663889 L115.555628,15.47975 C115.555628,15.8805833 115.23135,16.2048611 114.830517,16.2048611" id="Fill-9" fill="#C2C2C2"></path>
                        <path d="M122.059094,16.2048611 L119.885206,16.2048611 C119.487983,16.2048611 119.166594,15.8834722 119.166594,15.48625 L119.166594,6.09013889 C119.166594,5.69291667 119.487983,5.37152778 119.885206,5.37152778 L122.059094,5.37152778 C122.456317,5.37152778 122.777706,5.69291667 122.777706,6.09013889 L122.777706,15.48625 C122.777706,15.8834722 122.456317,16.2048611 122.059094,16.2048611" id="Fill-11" fill="#C2C2C2"></path>
                        <path d="M78,7.58051667 L78,14.0862944 C78,14.68285 77.5161111,15.1667389 76.9195556,15.1667389 L53.0804444,15.1667389 C52.4838889,15.1667389 52,14.68285 52,14.0862944 L52,7.58051667 C52,6.98396111 52.4838889,6.50007222 53.0804444,6.50007222 L76.9195556,6.50007222 C77.5161111,6.50007222 78,6.98396111 78,7.58051667" id="Fill-13" fill="#C2C2C2"></path>
                    </g>
                    <g id="Page-1-Copy-2">
                        <path d="M126.388889,21.6666667 L3.61111111,21.6666667 C1.61633333,21.6666667 0,20.0503333 0,18.0555556 L0,3.61111111 C0,1.61633333 1.61633333,0 3.61111111,0 L126.388889,0 C128.383667,0 130,1.61633333 130,3.61111111 L130,18.0555556 C130,20.0503333 128.383667,21.6666667 126.388889,21.6666667" id="Fill-1" fill="#D6D6D6"></path>
                        <path d="M14.4444444,14.0381944 C14.4444444,15.0355833 13.6362778,15.84375 12.6388889,15.84375 C11.6415,15.84375 10.8333333,15.0355833 10.8333333,14.0381944 C10.8333333,13.0408056 11.6415,12.2326389 12.6388889,12.2326389 C13.6362778,12.2326389 14.4444444,13.0408056 14.4444444,14.0381944" id="Fill-3" fill="#F16667"></path>
                        <path d="M14.4444444,7.53819444 C14.4444444,8.53558333 13.6362778,9.34375 12.6388889,9.34375 C11.6415,9.34375 10.8333333,8.53558333 10.8333333,7.53819444 C10.8333333,6.54080556 11.6415,5.73263889 12.6388889,5.73263889 C13.6362778,5.73263889 14.4444444,6.54080556 14.4444444,7.53819444" id="Fill-5" fill="#8DCC93"></path>
                        <path d="M107.611111,16.2048611 L105.444444,16.2048611 C105.045056,16.2048611 104.722222,15.8820278 104.722222,15.4826389 L104.722222,6.09375 C104.722222,5.69436111 105.045056,5.37152778 105.444444,5.37152778 L107.611111,5.37152778 C108.0105,5.37152778 108.333333,5.69436111 108.333333,6.09375 L108.333333,15.4826389 C108.333333,15.8820278 108.0105,16.2048611 107.611111,16.2048611" id="Fill-7" fill="#C2C2C2"></path>
                        <path d="M114.830517,16.2048611 L112.669628,16.2048611 C112.268794,16.2048611 111.944517,15.8805833 111.944517,15.47975 L111.944517,6.09663889 C111.944517,5.69580556 112.268794,5.37152778 112.669628,5.37152778 L114.830517,5.37152778 C115.23135,5.37152778 115.555628,5.69580556 115.555628,6.09663889 L115.555628,15.47975 C115.555628,15.8805833 115.23135,16.2048611 114.830517,16.2048611" id="Fill-9" fill="#C2C2C2"></path>
                        <path d="M122.059094,16.2048611 L119.885206,16.2048611 C119.487983,16.2048611 119.166594,15.8834722 119.166594,15.48625 L119.166594,6.09013889 C119.166594,5.69291667 119.487983,5.37152778 119.885206,5.37152778 L122.059094,5.37152778 C122.456317,5.37152778 122.777706,5.69291667 122.777706,6.09013889 L122.777706,15.48625 C122.777706,15.8834722 122.456317,16.2048611 122.059094,16.2048611" id="Fill-11" fill="#C2C2C2"></path>
                        <path d="M78,7.58051667 L78,14.0862944 C78,14.68285 77.5161111,15.1667389 76.9195556,15.1667389 L53.0804444,15.1667389 C52.4838889,15.1667389 52,14.68285 52,14.0862944 L52,7.58051667 C52,6.98396111 52.4838889,6.50007222 53.0804444,6.50007222 L76.9195556,6.50007222 C77.5161111,6.50007222 78,6.98396111 78,7.58051667" id="Fill-13" fill="#C2C2C2"></path>
                    </g>
                </g>
                <text id="Core-Servers" font-family="OpenSans-Regular, Open Sans" font-size="12" font-weight="normal" fill="#333333">
                    <tspan x="102" y="29">Core Servers</tspan>
                </text>
                <text id="Core-Servers" font-family="OpenSans-Regular, Open Sans" font-size="12" font-weight="normal" fill="#333333">
                    <tspan x="365" y="29">Core Servers</tspan>
                </text>
                <g id="Group-17" transform="translate(203.000000, 79.000000)">
                    <polygon id="Triangle-5" fill="#979797" transform="translate(123.000000, 4.000000) rotate(90.000000) translate(-123.000000, -4.000000) " points="123 0 127 8 119 8"></polygon>
                    <polygon id="Triangle-5" fill="#979797" transform="translate(4.000000, 4.000000) scale(-1, 1) rotate(90.000000) translate(-4.000000, -4.000000) " points="4 0 8 8 0 8"></polygon>
                    <path d="M2.5,3.5 L124.5,3.5" id="Line-7" stroke="#979797" stroke-linecap="square"></path>
                    <path d="M2.5,4.5 L124.5,4.5" id="Line-7" stroke="#979797" stroke-linecap="square"></path>
                </g>
                <rect id="Rectangle-15" fill="#C2C2C2" x="348" y="93" width="100" height="9"></rect>
                <rect id="Rectangle-15" fill="#C2C2C2" x="348" y="63" width="100" height="9"></rect>
                <g id="Page-1-Copy-2" transform="translate(333.000000, 102.000000)">
                    <path d="M126.388889,21.6666667 L3.61111111,21.6666667 C1.61633333,21.6666667 0,20.0503333 0,18.0555556 L0,3.61111111 C0,1.61633333 1.61633333,0 3.61111111,0 L126.388889,0 C128.383667,0 130,1.61633333 130,3.61111111 L130,18.0555556 C130,20.0503333 128.383667,21.6666667 126.388889,21.6666667" id="Fill-1" fill="#D6D6D6"></path>
                    <path d="M14.4444444,14.0381944 C14.4444444,15.0355833 13.6362778,15.84375 12.6388889,15.84375 C11.6415,15.84375 10.8333333,15.0355833 10.8333333,14.0381944 C10.8333333,13.0408056 11.6415,12.2326389 12.6388889,12.2326389 C13.6362778,12.2326389 14.4444444,13.0408056 14.4444444,14.0381944" id="Fill-3" fill="#F16667"></path>
                    <path d="M14.4444444,7.53819444 C14.4444444,8.53558333 13.6362778,9.34375 12.6388889,9.34375 C11.6415,9.34375 10.8333333,8.53558333 10.8333333,7.53819444 C10.8333333,6.54080556 11.6415,5.73263889 12.6388889,5.73263889 C13.6362778,5.73263889 14.4444444,6.54080556 14.4444444,7.53819444" id="Fill-5" fill="#8DCC93"></path>
                    <path d="M107.611111,16.2048611 L105.444444,16.2048611 C105.045056,16.2048611 104.722222,15.8820278 104.722222,15.4826389 L104.722222,6.09375 C104.722222,5.69436111 105.045056,5.37152778 105.444444,5.37152778 L107.611111,5.37152778 C108.0105,5.37152778 108.333333,5.69436111 108.333333,6.09375 L108.333333,15.4826389 C108.333333,15.8820278 108.0105,16.2048611 107.611111,16.2048611" id="Fill-7" fill="#C2C2C2"></path>
                    <path d="M114.830517,16.2048611 L112.669628,16.2048611 C112.268794,16.2048611 111.944517,15.8805833 111.944517,15.47975 L111.944517,6.09663889 C111.944517,5.69580556 112.268794,5.37152778 112.669628,5.37152778 L114.830517,5.37152778 C115.23135,5.37152778 115.555628,5.69580556 115.555628,6.09663889 L115.555628,15.47975 C115.555628,15.8805833 115.23135,16.2048611 114.830517,16.2048611" id="Fill-9" fill="#C2C2C2"></path>
                    <path d="M122.059094,16.2048611 L119.885206,16.2048611 C119.487983,16.2048611 119.166594,15.8834722 119.166594,15.48625 L119.166594,6.09013889 C119.166594,5.69291667 119.487983,5.37152778 119.885206,5.37152778 L122.059094,5.37152778 C122.456317,5.37152778 122.777706,5.69291667 122.777706,6.09013889 L122.777706,15.48625 C122.777706,15.8834722 122.456317,16.2048611 122.059094,16.2048611" id="Fill-11" fill="#C2C2C2"></path>
                    <path d="M78,7.58051667 L78,14.0862944 C78,14.68285 77.5161111,15.1667389 76.9195556,15.1667389 L53.0804444,15.1667389 C52.4838889,15.1667389 52,14.68285 52,14.0862944 L52,7.58051667 C52,6.98396111 52.4838889,6.50007222 53.0804444,6.50007222 L76.9195556,6.50007222 C77.5161111,6.50007222 78,6.98396111 78,7.58051667" id="Fill-13" fill="#C2C2C2"></path>
                </g>
                <g id="Page-1-Copy-2" transform="translate(333.000000, 42.000000)">
                    <path d="M126.388889,21.6666667 L3.61111111,21.6666667 C1.61633333,21.6666667 0,20.0503333 0,18.0555556 L0,3.61111111 C0,1.61633333 1.61633333,0 3.61111111,0 L126.388889,0 C128.383667,0 130,1.61633333 130,3.61111111 L130,18.0555556 C130,20.0503333 128.383667,21.6666667 126.388889,21.6666667" id="Fill-1" fill="#D6D6D6"></path>
                    <path d="M14.4444444,14.0381944 C14.4444444,15.0355833 13.6362778,15.84375 12.6388889,15.84375 C11.6415,15.84375 10.8333333,15.0355833 10.8333333,14.0381944 C10.8333333,13.0408056 11.6415,12.2326389 12.6388889,12.2326389 C13.6362778,12.2326389 14.4444444,13.0408056 14.4444444,14.0381944" id="Fill-3" fill="#F16667"></path>
                    <path d="M14.4444444,7.53819444 C14.4444444,8.53558333 13.6362778,9.34375 12.6388889,9.34375 C11.6415,9.34375 10.8333333,8.53558333 10.8333333,7.53819444 C10.8333333,6.54080556 11.6415,5.73263889 12.6388889,5.73263889 C13.6362778,5.73263889 14.4444444,6.54080556 14.4444444,7.53819444" id="Fill-5" fill="#8DCC93"></path>
                    <path d="M107.611111,16.2048611 L105.444444,16.2048611 C105.045056,16.2048611 104.722222,15.8820278 104.722222,15.4826389 L104.722222,6.09375 C104.722222,5.69436111 105.045056,5.37152778 105.444444,5.37152778 L107.611111,5.37152778 C108.0105,5.37152778 108.333333,5.69436111 108.333333,6.09375 L108.333333,15.4826389 C108.333333,15.8820278 108.0105,16.2048611 107.611111,16.2048611" id="Fill-7" fill="#C2C2C2"></path>
                    <path d="M114.830517,16.2048611 L112.669628,16.2048611 C112.268794,16.2048611 111.944517,15.8805833 111.944517,15.47975 L111.944517,6.09663889 C111.944517,5.69580556 112.268794,5.37152778 112.669628,5.37152778 L114.830517,5.37152778 C115.23135,5.37152778 115.555628,5.69580556 115.555628,6.09663889 L115.555628,15.47975 C115.555628,15.8805833 115.23135,16.2048611 114.830517,16.2048611" id="Fill-9" fill="#C2C2C2"></path>
                    <path d="M122.059094,16.2048611 L119.885206,16.2048611 C119.487983,16.2048611 119.166594,15.8834722 119.166594,15.48625 L119.166594,6.09013889 C119.166594,5.69291667 119.487983,5.37152778 119.885206,5.37152778 L122.059094,5.37152778 C122.456317,5.37152778 122.777706,5.69291667 122.777706,6.09013889 L122.777706,15.48625 C122.777706,15.8834722 122.456317,16.2048611 122.059094,16.2048611" id="Fill-11" fill="#C2C2C2"></path>
                    <path d="M78,7.58051667 L78,14.0862944 C78,14.68285 77.5161111,15.1667389 76.9195556,15.1667389 L53.0804444,15.1667389 C52.4838889,15.1667389 52,14.68285 52,14.0862944 L52,7.58051667 C52,6.98396111 52.4838889,6.50007222 53.0804444,6.50007222 L76.9195556,6.50007222 C77.5161111,6.50007222 78,6.98396111 78,7.58051667" id="Fill-13" fill="#C2C2C2"></path>
                </g>
                <g id="Group-17" transform="translate(466.000000, 79.000000)">
                    <polygon id="Triangle-5" fill="#979797" transform="translate(123.000000, 4.000000) rotate(90.000000) translate(-123.000000, -4.000000) " points="123 0 127 8 119 8"></polygon>
                    <polygon id="Triangle-5" fill="#979797" transform="translate(4.000000, 4.000000) scale(-1, 1) rotate(90.000000) translate(-4.000000, -4.000000) " points="4 0 8 8 0 8"></polygon>
                    <path d="M2.5,3.5 L124.5,3.5" id="Line-7" stroke="#979797" stroke-linecap="square"></path>
                    <path d="M2.5,4.5 L124.5,4.5" id="Line-7" stroke="#979797" stroke-linecap="square"></path>
                </g>
                <rect id="Rectangle-17" stroke="#979797" x="0.5" y="0.5" width="795" height="384"></rect>
                <g id="Group-34" transform="translate(74.000000, 247.000000)">
                    <polygon id="Triangle-5" fill="#979797" points="4.51146579 0.421591936 8.51146579 8.42159194 0.511465789 8.42159194"></polygon>
                    <polygon id="Triangle-5" fill="#979797" points="120.467415 42.9813918 124.467415 50.9813918 116.467415 50.9813918"></polygon>
                    <g id="Group-33" transform="translate(262.000000, 0.000000)" fill="#979797">
                        <polygon id="Triangle-5" points="4.51146579 0.421591936 8.51146579 8.42159194 0.511465789 8.42159194"></polygon>
                        <polygon id="Triangle-5" points="120.467415 42.9813918 124.467415 50.9813918 116.467415 50.9813918"></polygon>
                    </g>
                    <g id="Group-33" transform="translate(525.000000, 0.000000)" fill="#979797">
                        <polygon id="Triangle-5" points="4.51146579 0.421591936 8.51146579 8.42159194 0.511465789 8.42159194"></polygon>
                        <polygon id="Triangle-5" points="120.467415 42.9813918 124.467415 50.9813918 116.467415 50.9813918"></polygon>
                    </g>
                    <path d="M4.5,85.5 L645,85.5" id="Line-9" stroke="#979797" stroke-width="2" stroke-linecap="square"></path>
                    <path d="M4.5,85.5 L4.5,6.5" id="Line-10" stroke="#979797" stroke-width="2" stroke-linecap="square"></path>
                    <path d="M266.5,85.5 L266.5,6.5" id="Line-10" stroke="#979797" stroke-width="2" stroke-linecap="square"></path>
                    <path d="M529.5,85.5 L529.5,6.5" id="Line-10" stroke="#979797" stroke-width="2" stroke-linecap="square"></path>
                    <path d="M120,84 L120.5,49" id="Line-11" stroke="#979797" stroke-width="2" stroke-linecap="square"></path>
                    <path d="M382,84 L382.5,49" id="Line-11" stroke="#979797" stroke-width="2" stroke-linecap="square"></path>
                    <path d="M645,84 L645.5,49" id="Line-11" stroke="#979797" stroke-width="2" stroke-linecap="square"></path>
                </g>
            </g>
        </g>
    </g>
</svg>