<svg width="839" height="342" viewBox="0 0 839 342" fill="none" xmlns="http://www.w3.org/2000/svg">
<rect x="312" width="124" height="68" rx="12" fill="#1A1B1D"/>
<path d="M342.294 26.543H338.479L337.709 29H336.512L339.648 19.361H341.202L344.338 29H343.064L342.294 26.543ZM338.794 25.535H341.979L340.397 20.383L338.794 25.535ZM346.516 29V19.361H347.734V27.915H352.13L351.99 29H346.516ZM354.911 29V19.361H356.129V27.915H360.525L360.385 29H354.911ZM374.192 29.161C373.431 29.161 372.768 28.9767 372.204 28.608C371.644 28.2393 371.21 27.6863 370.902 26.949C370.594 26.2117 370.44 25.2877 370.44 24.177C370.44 23.3463 370.549 22.6207 370.769 22C370.993 21.3793 371.294 20.8613 371.672 20.446C372.054 20.0307 372.486 19.7203 372.967 19.515C373.452 19.3097 373.954 19.207 374.472 19.207C375.102 19.207 375.624 19.298 376.04 19.48C376.455 19.6573 376.852 19.9187 377.23 20.264L376.495 21.027C376.201 20.7517 375.89 20.5487 375.564 20.418C375.242 20.2873 374.88 20.222 374.479 20.222C374.129 20.222 373.79 20.2897 373.464 20.425C373.137 20.5603 372.843 20.782 372.582 21.09C372.325 21.3933 372.12 21.797 371.966 22.301C371.816 22.805 371.742 23.4303 371.742 24.177C371.742 25.1057 371.837 25.8617 372.029 26.445C372.225 27.0283 372.512 27.4577 372.89 27.733C373.272 28.0037 373.744 28.139 374.304 28.139C374.64 28.139 374.957 28.0993 375.256 28.02C375.559 27.9407 375.853 27.8263 376.138 27.677V24.737H374.241L374.094 23.729H377.342V28.321C376.908 28.5543 376.446 28.7527 375.956 28.916C375.466 29.0793 374.878 29.161 374.192 29.161ZM385.722 22.063C385.722 22.5437 385.617 22.9637 385.407 23.323C385.202 23.6823 384.922 23.9787 384.567 24.212C384.213 24.4453 383.814 24.6157 383.37 24.723L386.226 29H384.77L382.138 24.863H380.836V29H379.618V19.361H382.096C383.286 19.361 384.187 19.5897 384.798 20.047C385.414 20.4997 385.722 21.1717 385.722 22.063ZM384.42 22.063C384.42 21.4423 384.243 20.999 383.888 20.733C383.534 20.4623 382.983 20.327 382.236 20.327H380.836V23.911H382.236C382.927 23.911 383.464 23.771 383.846 23.491C384.229 23.2063 384.42 22.7303 384.42 22.063ZM392.661 26.543H388.846L388.076 29H386.879L390.015 19.361H391.569L394.705 29H393.431L392.661 26.543ZM389.161 25.535H392.346L390.764 20.383L389.161 25.535ZM401.482 22.336C401.482 21.8367 401.384 21.4423 401.188 21.153C400.992 20.859 400.724 20.649 400.383 20.523C400.043 20.3923 399.653 20.327 399.214 20.327H397.821V24.443H399.165C399.618 24.443 400.017 24.3823 400.362 24.261C400.708 24.135 400.981 23.9203 401.181 23.617C401.382 23.309 401.482 22.882 401.482 22.336ZM402.784 22.322C402.784 23.0733 402.623 23.6753 402.301 24.128C401.984 24.5807 401.545 24.9097 400.985 25.115C400.425 25.3203 399.781 25.423 399.053 25.423H397.821V29H396.603V19.361H399.067C400.215 19.361 401.121 19.6037 401.783 20.089C402.451 20.5697 402.784 21.314 402.784 22.322ZM409.401 29V24.429H405.761V29H404.55V19.361H405.761V23.435H409.401V19.361H410.612V29H409.401ZM338.523 42.336C338.523 41.8367 338.425 41.4423 338.229 41.153C338.033 40.859 337.765 40.649 337.424 40.523C337.084 40.3923 336.694 40.327 336.255 40.327H334.862V44.443H336.206C336.659 44.443 337.058 44.3823 337.403 44.261C337.749 44.135 338.022 43.9203 338.222 43.617C338.423 43.309 338.523 42.882 338.523 42.336ZM339.825 42.322C339.825 43.0733 339.664 43.6753 339.342 44.128C339.025 44.5807 338.586 44.9097 338.026 45.115C337.466 45.3203 336.822 45.423 336.094 45.423H334.862V49H333.644V39.361H336.108C337.256 39.361 338.162 39.6037 338.824 40.089C339.492 40.5697 339.825 41.314 339.825 42.322ZM347.947 42.063C347.947 42.5437 347.842 42.9637 347.632 43.323C347.427 43.6823 347.147 43.9787 346.792 44.212C346.437 44.4453 346.038 44.6157 345.595 44.723L348.451 49H346.995L344.363 44.863H343.061V49H341.843V39.361H344.321C345.511 39.361 346.412 39.5897 347.023 40.047C347.639 40.4997 347.947 41.1717 347.947 42.063ZM346.645 42.063C346.645 41.4423 346.468 40.999 346.113 40.733C345.758 40.4623 345.208 40.327 344.461 40.327H343.061V43.911H344.461C345.152 43.911 345.688 43.771 346.071 43.491C346.454 43.2063 346.645 42.7303 346.645 42.063ZM355.774 39.361V40.334H353.632V48.027H355.774V49H350.258V48.027H352.4V40.334H350.258V39.361H355.774ZM361.439 47.621L364.043 39.361H365.268L362.041 49H360.781L357.554 39.361H358.863L361.439 47.621ZM372.563 39.361V40.334H370.421V48.027H372.563V49H367.047V48.027H369.189V40.334H367.047V39.361H372.563ZM375.897 49V39.361H377.115V47.915H381.511L381.371 49H375.897ZM385.37 40.355V43.603H388.94V44.604H385.37V48.027H389.752V49H384.152V39.361H389.626L389.486 40.355H385.37ZM395.178 49.161C394.417 49.161 393.755 48.9767 393.19 48.608C392.63 48.2393 392.196 47.6863 391.888 46.949C391.58 46.2117 391.426 45.2877 391.426 44.177C391.426 43.3463 391.536 42.6207 391.755 42C391.979 41.3793 392.28 40.8613 392.658 40.446C393.041 40.0307 393.472 39.7203 393.953 39.515C394.438 39.3097 394.94 39.207 395.458 39.207C396.088 39.207 396.611 39.298 397.026 39.48C397.441 39.6573 397.838 39.9187 398.216 40.264L397.481 41.027C397.187 40.7517 396.877 40.5487 396.55 40.418C396.228 40.2873 395.866 40.222 395.465 40.222C395.115 40.222 394.777 40.2897 394.45 40.425C394.123 40.5603 393.829 40.782 393.568 41.09C393.311 41.3933 393.106 41.797 392.952 42.301C392.803 42.805 392.728 43.4303 392.728 44.177C392.728 45.1057 392.824 45.8617 393.015 46.445C393.211 47.0283 393.498 47.4577 393.876 47.733C394.259 48.0037 394.73 48.139 395.29 48.139C395.626 48.139 395.943 48.0993 396.242 48.02C396.545 47.9407 396.839 47.8263 397.124 47.677V44.737H395.227L395.08 43.729H398.328V48.321C397.894 48.5543 397.432 48.7527 396.942 48.916C396.452 49.0793 395.864 49.161 395.178 49.161ZM402.159 40.355V43.603H405.729V44.604H402.159V48.027H406.541V49H400.941V39.361H406.415L406.275 40.355H402.159ZM415.089 46.333C415.089 46.8837 414.951 47.3737 414.676 47.803C414.401 48.2277 414.002 48.5613 413.479 48.804C412.956 49.042 412.319 49.161 411.568 49.161C410.863 49.161 410.224 49.0537 409.65 48.839C409.081 48.6243 408.593 48.321 408.187 47.929L408.908 47.117C409.244 47.4297 409.629 47.6793 410.063 47.866C410.497 48.048 411.006 48.139 411.589 48.139C411.981 48.139 412.347 48.076 412.688 47.95C413.029 47.8193 413.304 47.6233 413.514 47.362C413.724 47.096 413.829 46.76 413.829 46.354C413.829 46.0413 413.768 45.7753 413.647 45.556C413.526 45.3367 413.311 45.143 413.003 44.975C412.695 44.8023 412.266 44.6343 411.715 44.471C411.08 44.2843 410.53 44.0743 410.063 43.841C409.601 43.603 409.242 43.3113 408.985 42.966C408.733 42.6207 408.607 42.1937 408.607 41.685C408.607 41.2043 408.74 40.7773 409.006 40.404C409.272 40.0307 409.638 39.739 410.105 39.529C410.576 39.3143 411.118 39.207 411.729 39.207C412.396 39.207 412.975 39.3027 413.465 39.494C413.96 39.6807 414.408 39.9513 414.809 40.306L414.095 41.097C413.75 40.789 413.379 40.5673 412.982 40.432C412.585 40.292 412.182 40.222 411.771 40.222C411.421 40.222 411.099 40.2757 410.805 40.383C410.516 40.4857 410.282 40.642 410.105 40.852C409.932 41.0573 409.846 41.321 409.846 41.643C409.846 41.9183 409.921 42.1563 410.07 42.357C410.219 42.5577 410.471 42.742 410.826 42.91C411.181 43.0733 411.664 43.246 412.275 43.428C412.774 43.5727 413.236 43.7547 413.661 43.974C414.09 44.1887 414.436 44.4827 414.697 44.856C414.958 45.2247 415.089 45.717 415.089 46.333Z" fill="white"/>
<rect x="329.5" y="142.5" width="89" height="66.5962" rx="11.5" fill="#F5F6F6"/>
<rect x="329.5" y="142.5" width="89" height="66.5962" rx="11.5" stroke="#4D5157"/>
<path d="M360.441 171.159L360.987 180.798H359.818L359.517 175.765C359.503 175.424 359.489 175.079 359.475 174.729C359.461 174.379 359.451 174.043 359.447 173.721C359.442 173.399 359.44 173.112 359.44 172.86C359.44 172.608 359.44 172.412 359.44 172.272L357.816 179.069H356.598L354.855 172.272C354.859 172.407 354.864 172.608 354.869 172.874C354.873 173.135 354.876 173.432 354.876 173.763C354.88 174.094 354.878 174.435 354.869 174.785C354.864 175.13 354.855 175.452 354.841 175.751L354.582 180.798H353.441L353.987 171.159H355.681L357.242 177.76L358.733 171.159H360.441ZM364.383 172.153V175.401H367.953V176.402H364.383V179.825H368.765V180.798H363.165V171.159H368.639L368.499 172.153H364.383ZM377.328 173.861C377.328 174.342 377.223 174.762 377.013 175.121C376.807 175.48 376.527 175.777 376.173 176.01C375.818 176.243 375.419 176.414 374.976 176.521L377.832 180.798H376.376L373.744 176.661H372.442V180.798H371.224V171.159H373.702C374.892 171.159 375.792 171.388 376.404 171.845C377.02 172.298 377.328 172.97 377.328 173.861ZM376.026 173.861C376.026 173.24 375.848 172.797 375.494 172.531C375.139 172.26 374.588 172.125 373.842 172.125H372.442V175.709H373.842C374.532 175.709 375.069 175.569 375.452 175.289C375.834 175.004 376.026 174.528 376.026 173.861ZM382.586 180.959C381.826 180.959 381.163 180.775 380.598 180.406C380.038 180.037 379.604 179.484 379.296 178.747C378.988 178.01 378.834 177.086 378.834 175.975C378.834 175.144 378.944 174.419 379.163 173.798C379.387 173.177 379.688 172.659 380.066 172.244C380.449 171.829 380.881 171.518 381.361 171.313C381.847 171.108 382.348 171.005 382.866 171.005C383.496 171.005 384.019 171.096 384.434 171.278C384.85 171.455 385.246 171.717 385.624 172.062L384.889 172.825C384.595 172.55 384.285 172.347 383.958 172.216C383.636 172.085 383.275 172.02 382.873 172.02C382.523 172.02 382.185 172.088 381.858 172.223C381.532 172.358 381.238 172.58 380.976 172.888C380.72 173.191 380.514 173.595 380.36 174.099C380.211 174.603 380.136 175.228 380.136 175.975C380.136 176.904 380.232 177.66 380.423 178.243C380.619 178.826 380.906 179.256 381.284 179.531C381.667 179.802 382.138 179.937 382.698 179.937C383.034 179.937 383.352 179.897 383.65 179.818C383.954 179.739 384.248 179.624 384.532 179.475V176.535H382.635L382.488 175.527H385.736V180.119C385.302 180.352 384.84 180.551 384.35 180.714C383.86 180.877 383.272 180.959 382.586 180.959ZM389.567 172.153V175.401H393.137V176.402H389.567V179.825H393.949V180.798H388.349V171.159H393.823L393.683 172.153H389.567Z" fill="#1A1B1D"/>
<rect x="588.5" y="142.5" width="89" height="66.5962" rx="11.5" fill="#F5F6F6"/>
<rect x="588.5" y="142.5" width="89" height="66.5962" rx="11.5" stroke="#4D5157"/>
<path d="M620.351 171.159L618.881 180.798H617.285L616.179 173.525L615.066 180.798H613.435L612.077 171.159H613.295L614.324 179.461L615.479 172.279H616.97L618.069 179.461L619.224 171.159H620.351ZM627.933 173.861C627.933 174.342 627.828 174.762 627.618 175.121C627.413 175.48 627.133 175.777 626.778 176.01C626.424 176.243 626.025 176.414 625.581 176.521L628.437 180.798H626.981L624.349 176.661H623.047V180.798H621.829V171.159H624.307C625.497 171.159 626.398 171.388 627.009 171.845C627.625 172.298 627.933 172.97 627.933 173.861ZM626.631 173.861C626.631 173.24 626.454 172.797 626.099 172.531C625.745 172.26 625.194 172.125 624.447 172.125H623.047V175.709H624.447C625.138 175.709 625.675 175.569 626.057 175.289C626.44 175.004 626.631 174.528 626.631 173.861ZM635.761 171.159V172.132H633.619V179.825H635.761V180.798H630.245V179.825H632.387V172.132H630.245V171.159H635.761ZM641.978 172.202V180.798H640.767V172.202H637.757V171.159H645.03L644.904 172.202H641.978ZM648.567 172.153V175.401H652.137V176.402H648.567V179.825H652.949V180.798H647.349V171.159H652.823L652.683 172.153H648.567Z" fill="#1A1B1D"/>
<rect x="419.5" y="274.5" width="98" height="66.5962" rx="11.5" fill="#F5F6F6"/>
<rect x="419.5" y="274.5" width="98" height="66.5962" rx="11.5" stroke="#4D5157"/>
<path d="M448.328 303.005C448.958 303.005 449.486 303.084 449.91 303.243C450.335 303.402 450.739 303.635 451.121 303.943L450.442 304.734C450.139 304.477 449.817 304.295 449.476 304.188C449.14 304.076 448.788 304.02 448.419 304.02C447.892 304.02 447.404 304.146 446.956 304.398C446.508 304.645 446.147 305.058 445.871 305.637C445.601 306.211 445.465 306.99 445.465 307.975C445.465 308.932 445.594 309.699 445.85 310.278C446.112 310.857 446.464 311.274 446.907 311.531C447.351 311.788 447.845 311.916 448.391 311.916C448.933 311.916 449.376 311.834 449.721 311.671C450.071 311.508 450.375 311.321 450.631 311.111L451.261 311.909C450.967 312.194 450.585 312.441 450.113 312.651C449.642 312.856 449.063 312.959 448.377 312.959C447.598 312.959 446.891 312.768 446.256 312.385C445.626 312.002 445.127 311.442 444.758 310.705C444.39 309.963 444.205 309.053 444.205 307.975C444.205 306.892 444.392 305.982 444.765 305.245C445.143 304.508 445.645 303.95 446.27 303.572C446.9 303.194 447.586 303.005 448.328 303.005ZM459.236 305.861C459.236 306.342 459.131 306.762 458.921 307.121C458.716 307.48 458.436 307.777 458.081 308.01C457.726 308.243 457.327 308.414 456.884 308.521L459.74 312.798H458.284L455.652 308.661H454.35V312.798H453.132V303.159H455.61C456.8 303.159 457.701 303.388 458.312 303.845C458.928 304.298 459.236 304.97 459.236 305.861ZM457.934 305.861C457.934 305.24 457.757 304.797 457.402 304.531C457.047 304.26 456.497 304.125 455.75 304.125H454.35V307.709H455.75C456.441 307.709 456.977 307.569 457.36 307.289C457.743 307.004 457.934 306.528 457.934 305.861ZM463.08 304.153V307.401H466.65V308.402H463.08V311.825H467.462V312.798H461.862V303.159H467.336L467.196 304.153H463.08ZM474.569 310.341H470.754L469.984 312.798H468.787L471.923 303.159H473.477L476.613 312.798H475.339L474.569 310.341ZM471.069 309.333H474.254L472.672 304.181L471.069 309.333ZM481.676 304.202V312.798H480.465V304.202H477.455V303.159H484.728L484.602 304.202H481.676ZM488.264 304.153V307.401H491.834V308.402H488.264V311.825H492.646V312.798H487.046V303.159H492.52L492.38 304.153H488.264Z" fill="#1A1B1D"/>
<rect x="526.5" y="274.5" width="98" height="66.5962" rx="11.5" fill="#F5F6F6"/>
<rect x="526.5" y="274.5" width="98" height="66.5962" rx="11.5" stroke="#4D5157"/>
<path d="M556.756 307.933C556.756 307.093 556.668 306.421 556.49 305.917C556.313 305.413 556.08 305.035 555.79 304.783C555.501 304.531 555.184 304.363 554.838 304.279C554.498 304.195 554.162 304.153 553.83 304.153H552.696V311.825H553.844C554.19 311.825 554.533 311.771 554.873 311.664C555.219 311.552 555.534 311.356 555.818 311.076C556.103 310.791 556.329 310.397 556.497 309.893C556.67 309.384 556.756 308.731 556.756 307.933ZM558.051 307.933C558.051 308.736 557.965 309.422 557.792 309.991C557.624 310.556 557.393 311.022 557.099 311.391C556.805 311.76 556.469 312.047 556.091 312.252C555.718 312.453 555.324 312.595 554.908 312.679C554.498 312.758 554.094 312.798 553.697 312.798H551.485V303.159H553.543C554.108 303.159 554.656 303.222 555.188 303.348C555.725 303.474 556.208 303.707 556.637 304.048C557.071 304.384 557.414 304.865 557.666 305.49C557.923 306.115 558.051 306.93 558.051 307.933ZM561.686 304.153V307.401H565.256V308.402H561.686V311.825H566.068V312.798H560.468V303.159H565.942L565.802 304.153H561.686ZM569.002 312.798V303.159H570.22V311.713H574.616L574.476 312.798H569.002ZM578.475 304.153V307.401H582.045V308.402H578.475V311.825H582.857V312.798H577.257V303.159H582.731L582.591 304.153H578.475ZM588.676 304.202V312.798H587.465V304.202H584.455V303.159H591.728L591.602 304.202H588.676ZM595.264 304.153V307.401H598.834V308.402H595.264V311.825H599.646V312.798H594.046V303.159H599.52L599.38 304.153H595.264Z" fill="#1A1B1D"/>
<rect x="740.5" y="274.5" width="98" height="66.5962" rx="11.5" fill="#F5F6F6"/>
<rect x="740.5" y="274.5" width="98" height="66.5962" rx="11.5" stroke="#4D5157"/>
<path d="M771.841 295.861C771.841 296.342 771.736 296.762 771.526 297.121C771.321 297.48 771.041 297.777 770.686 298.01C770.332 298.243 769.933 298.414 769.489 298.521L772.345 302.798H770.889L768.257 298.661H766.955V302.798H765.737V293.159H768.215C769.405 293.159 770.306 293.388 770.917 293.845C771.533 294.298 771.841 294.97 771.841 295.861ZM770.539 295.861C770.539 295.24 770.362 294.797 770.007 294.531C769.653 294.26 769.102 294.125 768.355 294.125H766.955V297.709H768.355C769.046 297.709 769.583 297.569 769.965 297.289C770.348 297.004 770.539 296.528 770.539 295.861ZM775.686 294.153V297.401H779.256V298.402H775.686V301.825H780.068V302.798H774.468V293.159H779.942L779.802 294.153H775.686ZM788.532 293.159L789.078 302.798H787.909L787.608 297.765C787.594 297.424 787.58 297.079 787.566 296.729C787.552 296.379 787.543 296.043 787.538 295.721C787.534 295.399 787.531 295.112 787.531 294.86C787.531 294.608 787.531 294.412 787.531 294.272L785.907 301.069H784.689L782.946 294.272C782.951 294.407 782.956 294.608 782.96 294.874C782.965 295.135 782.967 295.432 782.967 295.763C782.972 296.094 782.97 296.435 782.96 296.785C782.956 297.13 782.946 297.452 782.932 297.751L782.673 302.798H781.532L782.078 293.159H783.772L785.333 299.76L786.824 293.159H788.532ZM797.249 297.989C797.249 298.96 797.116 299.821 796.85 300.572C796.589 301.319 796.194 301.904 795.667 302.329C795.14 302.749 794.484 302.959 793.7 302.959C792.921 302.959 792.265 302.754 791.733 302.343C791.206 301.928 790.809 301.349 790.543 300.607C790.282 299.865 790.151 298.997 790.151 298.003C790.151 297.028 790.282 296.164 790.543 295.413C790.809 294.662 791.206 294.074 791.733 293.649C792.265 293.22 792.921 293.005 793.7 293.005C794.484 293.005 795.14 293.213 795.667 293.628C796.194 294.043 796.589 294.624 796.85 295.371C797.116 296.118 797.249 296.99 797.249 297.989ZM795.975 297.989C795.975 296.706 795.798 295.723 795.443 295.042C795.093 294.361 794.512 294.02 793.7 294.02C792.888 294.02 792.305 294.363 791.95 295.049C791.6 295.735 791.425 296.72 791.425 298.003C791.425 299.286 791.607 300.264 791.971 300.936C792.335 301.603 792.911 301.937 793.7 301.937C794.512 301.937 795.093 301.601 795.443 300.929C795.798 300.252 795.975 299.272 795.975 297.989ZM802.123 301.419L804.727 293.159H805.952L802.725 302.798H801.465L798.238 293.159H799.547L802.123 301.419ZM809.264 294.153V297.401H812.834V298.402H809.264V301.825H813.646V302.798H808.046V293.159H813.52L813.38 294.153H809.264ZM770.411 322.798V313.159H771.629V321.713H776.025L775.885 322.798H770.411ZM782.977 320.341H779.162L778.392 322.798H777.195L780.331 313.159H781.885L785.021 322.798H783.747L782.977 320.341ZM779.477 319.333H782.662L781.08 314.181L779.477 319.333ZM791.575 320.089C791.575 319.604 791.479 319.23 791.288 318.969C791.101 318.703 790.851 318.519 790.539 318.416C790.226 318.313 789.883 318.262 789.51 318.262H787.865V321.797H789.454C789.692 321.797 789.934 321.774 790.182 321.727C790.429 321.68 790.658 321.596 790.868 321.475C791.082 321.354 791.253 321.183 791.379 320.964C791.509 320.74 791.575 320.448 791.575 320.089ZM791.19 315.651C791.19 315.105 791.019 314.718 790.679 314.489C790.343 314.256 789.883 314.139 789.3 314.139H787.865V317.261H789.419C789.988 317.261 790.424 317.135 790.728 316.883C791.036 316.626 791.19 316.216 791.19 315.651ZM792.856 320.047C792.856 320.57 792.751 321.008 792.541 321.363C792.335 321.718 792.058 322 791.708 322.21C791.362 322.42 790.975 322.572 790.546 322.665C790.121 322.754 789.687 322.798 789.244 322.798H786.654V313.159H789.027C789.451 313.159 789.864 313.199 790.266 313.278C790.672 313.353 791.036 313.483 791.358 313.67C791.684 313.852 791.946 314.099 792.142 314.412C792.338 314.725 792.436 315.117 792.436 315.588C792.436 316.003 792.349 316.356 792.177 316.645C792.009 316.93 791.787 317.158 791.512 317.331C791.241 317.504 790.952 317.625 790.644 317.695C791.003 317.751 791.351 317.861 791.687 318.024C792.027 318.183 792.307 318.425 792.527 318.752C792.746 319.074 792.856 319.506 792.856 320.047ZM796.672 314.153V317.401H800.242V318.402H796.672V321.825H801.054V322.798H795.454V313.159H800.928L800.788 314.153H796.672ZM803.989 322.798V313.159H805.207V321.713H809.603L809.463 322.798H803.989Z" fill="#1A1B1D"/>
<rect x="633.5" y="274.5" width="98" height="67" rx="11.5" fill="#F5F6F6"/>
<rect x="633.5" y="274.5" width="98" height="67" rx="11.5" stroke="#4D5157"/>
<path d="M673.222 300.333C673.222 300.884 673.084 301.374 672.809 301.803C672.534 302.228 672.135 302.561 671.612 302.804C671.089 303.042 670.452 303.161 669.701 303.161C668.996 303.161 668.357 303.054 667.783 302.839C667.214 302.624 666.726 302.321 666.32 301.929L667.041 301.117C667.377 301.43 667.762 301.679 668.196 301.866C668.63 302.048 669.139 302.139 669.722 302.139C670.114 302.139 670.48 302.076 670.821 301.95C671.162 301.819 671.437 301.623 671.647 301.362C671.857 301.096 671.962 300.76 671.962 300.354C671.962 300.041 671.901 299.775 671.78 299.556C671.659 299.337 671.444 299.143 671.136 298.975C670.828 298.802 670.399 298.634 669.848 298.471C669.213 298.284 668.663 298.074 668.196 297.841C667.734 297.603 667.375 297.311 667.118 296.966C666.866 296.621 666.74 296.194 666.74 295.685C666.74 295.204 666.873 294.777 667.139 294.404C667.405 294.031 667.771 293.739 668.238 293.529C668.709 293.314 669.251 293.207 669.862 293.207C670.529 293.207 671.108 293.303 671.598 293.494C672.093 293.681 672.541 293.951 672.942 294.306L672.228 295.097C671.883 294.789 671.512 294.567 671.115 294.432C670.718 294.292 670.315 294.222 669.904 294.222C669.554 294.222 669.232 294.276 668.938 294.383C668.649 294.486 668.415 294.642 668.238 294.852C668.065 295.057 667.979 295.321 667.979 295.643C667.979 295.918 668.054 296.156 668.203 296.357C668.352 296.558 668.604 296.742 668.959 296.91C669.314 297.073 669.797 297.246 670.408 297.428C670.907 297.573 671.369 297.755 671.794 297.974C672.223 298.189 672.569 298.483 672.83 298.856C673.091 299.225 673.222 299.717 673.222 300.333ZM677.08 294.355V297.603H680.65V298.604H677.08V302.027H681.462V303H675.862V293.361H681.336L681.196 294.355H677.08ZM687.281 294.404V303H686.07V294.404H683.06V293.361H690.333L690.207 294.404H687.281ZM663.411 323V313.361H664.629V321.915H669.025L668.885 323H663.411ZM675.977 320.543H672.162L671.392 323H670.195L673.331 313.361H674.885L678.021 323H676.747L675.977 320.543ZM672.477 319.535H675.662L674.08 314.383L672.477 319.535ZM684.575 320.291C684.575 319.806 684.479 319.432 684.288 319.171C684.101 318.905 683.851 318.721 683.539 318.618C683.226 318.515 682.883 318.464 682.51 318.464H680.865V321.999H682.454C682.692 321.999 682.934 321.976 683.182 321.929C683.429 321.882 683.658 321.798 683.868 321.677C684.082 321.556 684.253 321.385 684.379 321.166C684.509 320.942 684.575 320.65 684.575 320.291ZM684.19 315.853C684.19 315.307 684.019 314.92 683.679 314.691C683.343 314.458 682.883 314.341 682.3 314.341H680.865V317.463H682.419C682.988 317.463 683.424 317.337 683.728 317.085C684.036 316.828 684.19 316.418 684.19 315.853ZM685.856 320.249C685.856 320.772 685.751 321.21 685.541 321.565C685.335 321.92 685.058 322.202 684.708 322.412C684.362 322.622 683.975 322.774 683.546 322.867C683.121 322.956 682.687 323 682.244 323H679.654V313.361H682.027C682.451 313.361 682.864 313.401 683.266 313.48C683.672 313.555 684.036 313.685 684.358 313.872C684.684 314.054 684.946 314.301 685.142 314.614C685.338 314.927 685.436 315.319 685.436 315.79C685.436 316.205 685.349 316.558 685.177 316.847C685.009 317.132 684.787 317.36 684.512 317.533C684.241 317.706 683.952 317.827 683.644 317.897C684.003 317.953 684.351 318.063 684.687 318.226C685.027 318.385 685.307 318.627 685.527 318.954C685.746 319.276 685.856 319.708 685.856 320.249ZM689.672 314.355V317.603H693.242V318.604H689.672V322.027H694.054V323H688.454V313.361H693.928L693.788 314.355H689.672ZM696.989 323V313.361H698.207V321.915H702.603L702.463 323H696.989Z" fill="#1A1B1D"/>
<rect x="70.5" y="142.5" width="89" height="66.5962" rx="11.5" fill="#F5F6F6"/>
<rect x="70.5" y="142.5" width="89" height="66.5962" rx="11.5" stroke="#4D5157"/>
<path d="M101.441 171.159L101.987 180.798H100.818L100.517 175.765C100.503 175.424 100.489 175.079 100.475 174.729C100.461 174.379 100.451 174.043 100.447 173.721C100.442 173.399 100.44 173.112 100.44 172.86C100.44 172.608 100.44 172.412 100.44 172.272L98.8157 179.069H97.5977L95.8547 172.272C95.8593 172.407 95.864 172.608 95.8687 172.874C95.8733 173.135 95.8757 173.432 95.8757 173.763C95.8803 174.094 95.878 174.435 95.8687 174.785C95.864 175.13 95.8547 175.452 95.8407 175.751L95.5817 180.798H94.4407L94.9867 171.159H96.6807L98.2417 177.76L99.7327 171.159H101.441ZM108.477 178.341H104.662L103.892 180.798H102.695L105.831 171.159H107.385L110.521 180.798H109.247L108.477 178.341ZM104.977 177.333H108.162L106.58 172.181L104.977 177.333ZM115.584 172.202V180.798H114.373V172.202H111.363V171.159H118.636L118.51 172.202H115.584ZM124.209 171.005C124.839 171.005 125.367 171.084 125.791 171.243C126.216 171.402 126.62 171.635 127.002 171.943L126.323 172.734C126.02 172.477 125.698 172.295 125.357 172.188C125.021 172.076 124.669 172.02 124.3 172.02C123.773 172.02 123.285 172.146 122.837 172.398C122.389 172.645 122.028 173.058 121.752 173.637C121.482 174.211 121.346 174.99 121.346 175.975C121.346 176.932 121.475 177.699 121.731 178.278C121.993 178.857 122.345 179.274 122.788 179.531C123.232 179.788 123.726 179.916 124.272 179.916C124.814 179.916 125.257 179.834 125.602 179.671C125.952 179.508 126.256 179.321 126.512 179.111L127.142 179.909C126.848 180.194 126.466 180.441 125.994 180.651C125.523 180.856 124.944 180.959 124.258 180.959C123.479 180.959 122.772 180.768 122.137 180.385C121.507 180.002 121.008 179.442 120.639 178.705C120.271 177.963 120.086 177.053 120.086 175.975C120.086 174.892 120.273 173.982 120.646 173.245C121.024 172.508 121.526 171.95 122.151 171.572C122.781 171.194 123.467 171.005 124.209 171.005ZM133.612 180.798V176.227H129.972V180.798H128.761V171.159H129.972V175.233H133.612V171.159H134.823V180.798H133.612Z" fill="#1A1B1D"/>
<rect x="124.5" y="274.5" width="89" height="67" rx="11.5" fill="#F5F6F6"/>
<rect x="124.5" y="274.5" width="89" height="67" rx="11.5" stroke="#4D5157"/>
<path d="M159.736 306.063C159.736 306.544 159.631 306.964 159.421 307.323C159.216 307.682 158.936 307.979 158.581 308.212C158.226 308.445 157.827 308.616 157.384 308.723L160.24 313H158.784L156.152 308.863H154.85V313H153.632V303.361H156.11C157.3 303.361 158.201 303.59 158.812 304.047C159.428 304.5 159.736 305.172 159.736 306.063ZM158.434 306.063C158.434 305.442 158.257 304.999 157.902 304.733C157.547 304.462 156.997 304.327 156.25 304.327H154.85V307.911H156.25C156.941 307.911 157.477 307.771 157.86 307.491C158.243 307.206 158.434 306.73 158.434 306.063ZM163.58 304.355V307.603H167.15V308.604H163.58V312.027H167.962V313H162.362V303.361H167.836L167.696 304.355H163.58ZM175.069 310.543H171.254L170.484 313H169.287L172.423 303.361H173.977L177.113 313H175.839L175.069 310.543ZM171.569 309.535H174.754L173.172 304.383L171.569 309.535ZM183.835 308.135C183.835 307.295 183.746 306.623 183.569 306.119C183.391 305.615 183.158 305.237 182.869 304.985C182.579 304.733 182.262 304.565 181.917 304.481C181.576 304.397 181.24 304.355 180.909 304.355H179.775V312.027H180.923C181.268 312.027 181.611 311.973 181.952 311.866C182.297 311.754 182.612 311.558 182.897 311.278C183.181 310.993 183.408 310.599 183.576 310.095C183.748 309.586 183.835 308.933 183.835 308.135ZM185.13 308.135C185.13 308.938 185.043 309.624 184.871 310.193C184.703 310.758 184.472 311.224 184.178 311.593C183.884 311.962 183.548 312.249 183.17 312.454C182.796 312.655 182.402 312.797 181.987 312.881C181.576 312.96 181.172 313 180.776 313H178.564V303.361H180.622C181.186 303.361 181.735 303.424 182.267 303.55C182.803 303.676 183.286 303.909 183.716 304.25C184.15 304.586 184.493 305.067 184.745 305.692C185.001 306.317 185.13 307.132 185.13 308.135Z" fill="#1A1B1D"/>
<rect x="0.5" y="274.5" width="115" height="66.5962" rx="11.5" fill="#F5F6F6"/>
<rect x="0.5" y="274.5" width="115" height="66.5962" rx="11.5" stroke="#4D5157"/>
<path d="M29.2029 304.202V312.798H27.9919V304.202H24.9819V303.159H32.2549L32.1289 304.202H29.2029ZM40.3414 305.861C40.3414 306.342 40.2364 306.762 40.0264 307.121C39.8211 307.48 39.5411 307.777 39.1864 308.01C38.8317 308.243 38.4327 308.414 37.9894 308.521L40.8454 312.798H39.3894L36.7574 308.661H35.4554V312.798H34.2374V303.159H36.7154C37.9054 303.159 38.8061 303.388 39.4174 303.845C40.0334 304.298 40.3414 304.97 40.3414 305.861ZM39.0394 305.861C39.0394 305.24 38.8621 304.797 38.5074 304.531C38.1527 304.26 37.6021 304.125 36.8554 304.125H35.4554V307.709H36.8554C37.5461 307.709 38.0827 307.569 38.4654 307.289C38.8481 307.004 39.0394 306.528 39.0394 305.861ZM47.2799 310.341H43.4649L42.6949 312.798H41.4979L44.6339 303.159H46.1879L49.3239 312.798H48.0499L47.2799 310.341ZM43.7799 309.333H46.9649L45.3829 304.181L43.7799 309.333ZM53.8335 311.419L56.4375 303.159H57.6625L54.4355 312.798H53.1755L49.9485 303.159H51.2575L53.8335 311.419ZM60.975 304.153V307.401H64.545V308.402H60.975V311.825H65.357V312.798H59.757V303.159H65.231L65.091 304.153H60.975ZM73.9195 305.861C73.9195 306.342 73.8145 306.762 73.6045 307.121C73.3992 307.48 73.1192 307.777 72.7645 308.01C72.4099 308.243 72.0109 308.414 71.5675 308.521L74.4235 312.798H72.9675L70.3355 308.661H69.0335V312.798H67.8155V303.159H70.2935C71.4835 303.159 72.3842 303.388 72.9955 303.845C73.6115 304.298 73.9195 304.97 73.9195 305.861ZM72.6175 305.861C72.6175 305.24 72.4402 304.797 72.0855 304.531C71.7309 304.26 71.1802 304.125 70.4335 304.125H69.0335V307.709H70.4335C71.1242 307.709 71.6609 307.569 72.0435 307.289C72.4262 307.004 72.6175 306.528 72.6175 305.861ZM82.3001 310.131C82.3001 310.682 82.1624 311.172 81.8871 311.601C81.6117 312.026 81.2127 312.359 80.6901 312.602C80.1674 312.84 79.5304 312.959 78.7791 312.959C78.0744 312.959 77.4351 312.852 76.8611 312.637C76.2917 312.422 75.8041 312.119 75.3981 311.727L76.1191 310.915C76.4551 311.228 76.8401 311.477 77.2741 311.664C77.7081 311.846 78.2167 311.937 78.8001 311.937C79.1921 311.937 79.5584 311.874 79.8991 311.748C80.2397 311.617 80.5151 311.421 80.7251 311.16C80.9351 310.894 81.0401 310.558 81.0401 310.152C81.0401 309.839 80.9794 309.573 80.8581 309.354C80.7367 309.135 80.5221 308.941 80.2141 308.773C79.9061 308.6 79.4767 308.432 78.9261 308.269C78.2914 308.082 77.7407 307.872 77.2741 307.639C76.8121 307.401 76.4527 307.109 76.1961 306.764C75.9441 306.419 75.8181 305.992 75.8181 305.483C75.8181 305.002 75.9511 304.575 76.2171 304.202C76.4831 303.829 76.8494 303.537 77.3161 303.327C77.7874 303.112 78.3287 303.005 78.9401 303.005C79.6074 303.005 80.1861 303.101 80.6761 303.292C81.1707 303.479 81.6187 303.749 82.0201 304.104L81.3061 304.895C80.9607 304.587 80.5897 304.365 80.1931 304.23C79.7964 304.09 79.3927 304.02 78.9821 304.02C78.6321 304.02 78.3101 304.074 78.0161 304.181C77.7267 304.284 77.4934 304.44 77.3161 304.65C77.1434 304.855 77.0571 305.119 77.0571 305.441C77.0571 305.716 77.1317 305.954 77.2811 306.155C77.4304 306.356 77.6824 306.54 78.0371 306.708C78.3917 306.871 78.8747 307.044 79.4861 307.226C79.9854 307.371 80.4474 307.553 80.8721 307.772C81.3014 307.987 81.6467 308.281 81.9081 308.654C82.1694 309.023 82.3001 309.515 82.3001 310.131ZM86.1586 304.153V307.401H89.7286V308.402H86.1586V311.825H90.5406V312.798H84.9406V303.159H90.4146L90.2746 304.153H86.1586Z" fill="#1A1B1D"/>
<rect x="271.5" y="274.5" width="115" height="67" rx="11.5" fill="#F5F6F6"/>
<rect x="271.5" y="274.5" width="115" height="67" rx="11.5" stroke="#4D5157"/>
<path d="M286.144 310.333C286.144 310.884 286.006 311.374 285.731 311.803C285.455 312.228 285.056 312.561 284.534 312.804C284.011 313.042 283.374 313.161 282.623 313.161C281.918 313.161 281.279 313.054 280.705 312.839C280.135 312.624 279.648 312.321 279.242 311.929L279.963 311.117C280.299 311.43 280.684 311.679 281.118 311.866C281.552 312.048 282.06 312.139 282.644 312.139C283.036 312.139 283.402 312.076 283.743 311.95C284.083 311.819 284.359 311.623 284.569 311.362C284.779 311.096 284.884 310.76 284.884 310.354C284.884 310.041 284.823 309.775 284.702 309.556C284.58 309.337 284.366 309.143 284.058 308.975C283.75 308.802 283.32 308.634 282.77 308.471C282.135 308.284 281.584 308.074 281.118 307.841C280.656 307.603 280.296 307.311 280.04 306.966C279.788 306.621 279.662 306.194 279.662 305.685C279.662 305.204 279.795 304.777 280.061 304.404C280.327 304.031 280.693 303.739 281.16 303.529C281.631 303.314 282.172 303.207 282.784 303.207C283.451 303.207 284.03 303.303 284.52 303.494C285.014 303.681 285.462 303.951 285.864 304.306L285.15 305.097C284.804 304.789 284.433 304.567 284.037 304.432C283.64 304.292 283.236 304.222 282.826 304.222C282.476 304.222 282.154 304.276 281.86 304.383C281.57 304.486 281.337 304.642 281.16 304.852C280.987 305.057 280.901 305.321 280.901 305.643C280.901 305.918 280.975 306.156 281.125 306.357C281.274 306.558 281.526 306.742 281.881 306.91C282.235 307.073 282.718 307.246 283.33 307.428C283.829 307.573 284.291 307.755 284.716 307.974C285.145 308.189 285.49 308.483 285.752 308.856C286.013 309.225 286.144 309.717 286.144 310.333ZM290.002 304.355V307.603H293.572V308.604H290.002V312.027H294.384V313H288.784V303.361H294.258L294.118 304.355H290.002ZM300.203 304.404V313H298.992V304.404H295.982V303.361H303.255L303.129 304.404H300.203ZM318.707 306.336C318.707 305.837 318.609 305.442 318.413 305.153C318.217 304.859 317.949 304.649 317.608 304.523C317.267 304.392 316.878 304.327 316.439 304.327H315.046V308.443H316.39C316.843 308.443 317.242 308.382 317.587 308.261C317.932 308.135 318.205 307.92 318.406 307.617C318.607 307.309 318.707 306.882 318.707 306.336ZM320.009 306.322C320.009 307.073 319.848 307.675 319.526 308.128C319.209 308.581 318.77 308.91 318.21 309.115C317.65 309.32 317.006 309.423 316.278 309.423H315.046V313H313.828V303.361H316.292C317.44 303.361 318.345 303.604 319.008 304.089C319.675 304.57 320.009 305.314 320.009 306.322ZM328.13 306.063C328.13 306.544 328.025 306.964 327.815 307.323C327.61 307.682 327.33 307.979 326.975 308.212C326.621 308.445 326.222 308.616 325.778 308.723L328.634 313H327.178L324.546 308.863H323.244V313H322.026V303.361H324.504C325.694 303.361 326.595 303.59 327.206 304.047C327.822 304.5 328.13 305.172 328.13 306.063ZM326.828 306.063C326.828 305.442 326.651 304.999 326.296 304.733C325.942 304.462 325.391 304.327 324.644 304.327H323.244V307.911H324.644C325.335 307.911 325.872 307.771 326.254 307.491C326.637 307.206 326.828 306.73 326.828 306.063ZM336.749 308.191C336.749 309.162 336.616 310.023 336.35 310.774C336.089 311.521 335.694 312.106 335.167 312.531C334.64 312.951 333.984 313.161 333.2 313.161C332.421 313.161 331.765 312.956 331.233 312.545C330.706 312.13 330.309 311.551 330.043 310.809C329.782 310.067 329.651 309.199 329.651 308.205C329.651 307.23 329.782 306.366 330.043 305.615C330.309 304.864 330.706 304.276 331.233 303.851C331.765 303.422 332.421 303.207 333.2 303.207C333.984 303.207 334.64 303.415 335.167 303.83C335.694 304.245 336.089 304.826 336.35 305.573C336.616 306.32 336.749 307.192 336.749 308.191ZM335.475 308.191C335.475 306.908 335.298 305.925 334.943 305.244C334.593 304.563 334.012 304.222 333.2 304.222C332.388 304.222 331.805 304.565 331.45 305.251C331.1 305.937 330.925 306.922 330.925 308.205C330.925 309.488 331.107 310.466 331.471 311.138C331.835 311.805 332.411 312.139 333.2 312.139C334.012 312.139 334.593 311.803 334.943 311.131C335.298 310.454 335.475 309.474 335.475 308.191ZM343.891 306.336C343.891 305.837 343.793 305.442 343.597 305.153C343.401 304.859 343.132 304.649 342.792 304.523C342.451 304.392 342.061 304.327 341.623 304.327H340.23V308.443H341.574C342.026 308.443 342.425 308.382 342.771 308.261C343.116 308.135 343.389 307.92 343.59 307.617C343.79 307.309 343.891 306.882 343.891 306.336ZM345.193 306.322C345.193 307.073 345.032 307.675 344.71 308.128C344.392 308.581 343.954 308.91 343.394 309.115C342.834 309.32 342.19 309.423 341.462 309.423H340.23V313H339.012V303.361H341.476C342.624 303.361 343.529 303.604 344.192 304.089C344.859 304.57 345.193 305.314 345.193 306.322ZM348.764 304.355V307.603H352.334V308.604H348.764V312.027H353.146V313H347.546V303.361H353.02L352.88 304.355H348.764ZM361.709 306.063C361.709 306.544 361.604 306.964 361.394 307.323C361.188 307.682 360.908 307.979 360.554 308.212C360.199 308.445 359.8 308.616 359.357 308.723L362.213 313H360.757L358.125 308.863H356.823V313H355.605V303.361H358.083C359.273 303.361 360.173 303.59 360.785 304.047C361.401 304.5 361.709 305.172 361.709 306.063ZM360.407 306.063C360.407 305.442 360.229 304.999 359.875 304.733C359.52 304.462 358.969 304.327 358.223 304.327H356.823V307.911H358.223C358.913 307.911 359.45 307.771 359.833 307.491C360.215 307.206 360.407 306.73 360.407 306.063ZM367.359 304.404V313H366.148V304.404H363.138V303.361H370.411L370.285 304.404H367.359ZM375.789 309.283V313H374.557V309.297L371.302 303.361H372.646L375.201 308.191L377.784 303.361H379.044L375.789 309.283Z" fill="#1A1B1D"/>
<path d="M373.646 139.354C373.842 139.549 374.158 139.549 374.354 139.354L377.536 136.172C377.731 135.976 377.731 135.66 377.536 135.464C377.34 135.269 377.024 135.269 376.828 135.464L374 138.293L371.172 135.464C370.976 135.269 370.66 135.269 370.464 135.464C370.269 135.66 370.269 135.976 370.464 136.172L373.646 139.354ZM374 139H374.5V71H374H373.5V139H374Z" fill="black" fill-opacity="0.8"/>
<path d="M632.646 139.354C632.842 139.549 633.158 139.549 633.354 139.354L636.536 136.172C636.731 135.976 636.731 135.66 636.536 135.464C636.34 135.269 636.024 135.269 635.828 135.464L633 138.293L630.172 135.464C629.976 135.269 629.66 135.269 629.464 135.464C629.269 135.66 629.269 135.976 629.464 136.172L632.646 139.354ZM633 139H633.5V129H633H632.5V139H633ZM609 105V104.5H398V105V105.5H609V105ZM374 81H374.5V71H374H373.5V81H374ZM398 105V104.5C385.021 104.5 374.5 93.9787 374.5 81H374H373.5C373.5 94.531 384.469 105.5 398 105.5V105ZM633 129H633.5C633.5 115.469 622.531 104.5 609 104.5V105V105.5C621.979 105.5 632.5 116.021 632.5 129H633Z" fill="black" fill-opacity="0.8"/>
<path d="M114.646 139.354C114.842 139.549 115.158 139.549 115.354 139.354L118.536 136.172C118.731 135.976 118.731 135.66 118.536 135.464C118.34 135.269 118.024 135.269 117.828 135.464L115 138.293L112.172 135.464C111.976 135.269 111.66 135.269 111.464 135.464C111.269 135.66 111.269 135.976 111.464 136.172L114.646 139.354ZM115 139H115.5V129H115H114.5V139H115ZM139 105V105.5H350V105V104.5H139V105ZM374 81H374.5V71H374H373.5V81H374ZM350 105V105.5C363.531 105.5 374.5 94.531 374.5 81H374H373.5C373.5 93.9787 362.979 104.5 350 104.5V105ZM115 129H115.5C115.5 116.021 126.021 105.5 139 105.5V105V104.5C125.469 104.5 114.5 115.469 114.5 129H115Z" fill="black" fill-opacity="0.8"/>
<path d="M328.646 271.354C328.842 271.549 329.158 271.549 329.354 271.354L332.536 268.172C332.731 267.976 332.731 267.66 332.536 267.464C332.34 267.269 332.024 267.269 331.828 267.464L329 270.293L326.172 267.464C325.976 267.269 325.66 267.269 325.464 267.464C325.269 267.66 325.269 267.976 325.464 268.172L328.646 271.354ZM374 212.596H374.5H374ZM329 271H329.5V255.5H329H328.5V271H329ZM351.5 233V233.5H353.596V233V232.5H351.5V233ZM353.596 233V233.5C365.141 233.5 374.5 224.141 374.5 212.596H374H373.5C373.5 223.589 364.589 232.5 353.596 232.5V233ZM329 255.5H329.5C329.5 243.35 339.35 233.5 351.5 233.5V233V232.5C338.797 232.5 328.5 242.797 328.5 255.5H329Z" fill="black" fill-opacity="0.8"/>
<path d="M328.646 271.353C328.842 271.549 329.158 271.549 329.354 271.353L332.536 268.171C332.731 267.976 332.731 267.66 332.536 267.464C332.34 267.269 332.024 267.269 331.828 267.464L329 270.293L326.172 267.464C325.976 267.269 325.66 267.269 325.464 267.464C325.269 267.66 325.269 267.976 325.464 268.171L328.646 271.353ZM633 212.596H633.5H633ZM329 271H329.5V257H329H328.5V271H329ZM353 233V233.5H612.596V233V232.5H353V233ZM612.596 233V233.5C624.141 233.5 633.5 224.141 633.5 212.596H633H632.5C632.5 223.589 623.589 232.5 612.596 232.5V233ZM329 257H329.5C329.5 244.021 340.021 233.5 353 233.5V233V232.5C339.469 232.5 328.5 243.469 328.5 257H329Z" fill="black" fill-opacity="0.8"/>
<path d="M468.146 271.353C468.342 271.549 468.658 271.549 468.854 271.353L472.036 268.171C472.231 267.976 472.231 267.66 472.036 267.464C471.84 267.269 471.524 267.269 471.328 267.464L468.5 270.293L465.672 267.464C465.476 267.269 465.16 267.269 464.964 267.464C464.769 267.66 464.769 267.976 464.964 268.171L468.146 271.353ZM633 212.596H633.5H633ZM468.5 271H469V257H468.5H468V271H468.5ZM492.5 233V233.5H612.596V233V232.5H492.5V233ZM612.596 233V233.5C624.141 233.5 633.5 224.141 633.5 212.596H633H632.5C632.5 223.589 623.589 232.5 612.596 232.5V233ZM468.5 257H469C469 244.021 479.521 233.5 492.5 233.5V233V232.5C478.969 232.5 468 243.469 468 257H468.5Z" fill="black" fill-opacity="0.8"/>
<path d="M575.146 271.354C575.342 271.549 575.658 271.549 575.854 271.354L579.036 268.172C579.231 267.976 579.231 267.66 579.036 267.464C578.84 267.269 578.524 267.269 578.328 267.464L575.5 270.293L572.672 267.464C572.476 267.269 572.16 267.269 571.964 267.464C571.769 267.66 571.769 267.976 571.964 268.172L575.146 271.354ZM633 212.596H633.5H633ZM575.5 271H576V257H575.5H575V271H575.5ZM599.5 233V233.5H612.596V233V232.5H599.5V233ZM612.596 233V233.5C624.141 233.5 633.5 224.141 633.5 212.596H633H632.5C632.5 223.589 623.589 232.5 612.596 232.5V233ZM575.5 257H576C576 244.021 586.521 233.5 599.5 233.5V233V232.5C585.969 232.5 575 243.469 575 257H575.5Z" fill="black" fill-opacity="0.8"/>
<path d="M682.146 271.354C682.342 271.549 682.658 271.549 682.854 271.354L686.036 268.172C686.231 267.976 686.231 267.66 686.036 267.464C685.84 267.269 685.524 267.269 685.328 267.464L682.5 270.293L679.672 267.464C679.476 267.269 679.16 267.269 678.964 267.464C678.769 267.66 678.769 267.976 678.964 268.172L682.146 271.354ZM633 212.596H633.5H633ZM682.5 271H683V257H682.5H682V271H682.5ZM658.5 233V232.5H653.404V233V233.5H658.5V233ZM653.404 233V232.5C642.411 232.5 633.5 223.589 633.5 212.596H633H632.5C632.5 224.141 641.859 233.5 653.404 233.5V233ZM682.5 257H683C683 243.469 672.031 232.5 658.5 232.5V233V233.5C671.479 233.5 682 244.021 682 257H682.5Z" fill="black" fill-opacity="0.8"/>
<path d="M789.146 271.354C789.342 271.549 789.658 271.549 789.854 271.354L793.036 268.172C793.231 267.976 793.231 267.66 793.036 267.464C792.84 267.269 792.524 267.269 792.328 267.464L789.5 270.293L786.672 267.464C786.476 267.269 786.16 267.269 785.964 267.464C785.769 267.66 785.769 267.976 785.964 268.172L789.146 271.354ZM633 212.596H633.5H633ZM789.5 271H790V257H789.5H789V271H789.5ZM765.5 233V232.5H653.404V233V233.5H765.5V233ZM653.404 233V232.5C642.411 232.5 633.5 223.589 633.5 212.596H633H632.5C632.5 224.141 641.859 233.5 653.404 233.5V233ZM789.5 257H790C790 243.469 779.031 232.5 765.5 232.5V233V233.5C778.479 233.5 789 244.021 789 257H789.5Z" fill="black" fill-opacity="0.8"/>
<path d="M162.646 175.445C162.451 175.64 162.451 175.956 162.646 176.152L165.828 179.334C166.024 179.529 166.34 179.529 166.536 179.334C166.731 179.138 166.731 178.822 166.536 178.627L163.707 175.798L166.536 172.97C166.731 172.774 166.731 172.458 166.536 172.263C166.34 172.067 166.024 172.067 165.828 172.263L162.646 175.445ZM163 175.798V176.298H326V175.798V175.298H163V175.798Z" fill="black" fill-opacity="0.8"/>
<path d="M57.6464 271.354C57.8417 271.549 58.1583 271.549 58.3536 271.354L61.5355 268.172C61.7308 267.976 61.7308 267.66 61.5355 267.464C61.3403 267.269 61.0237 267.269 60.8284 267.464L58 270.293L55.1716 267.464C54.9763 267.269 54.6597 267.269 54.4645 267.464C54.2692 267.66 54.2692 267.976 54.4645 268.172L57.6464 271.354ZM58 271H58.5V265.798H58H57.5V271H58ZM82 241.798V242.298H91V241.798V241.298H82V241.798ZM115 217.798H115.5V212.596H115H114.5V217.798H115ZM91 241.798V242.298C104.531 242.298 115.5 231.329 115.5 217.798H115H114.5C114.5 230.777 103.979 241.298 91 241.298V241.798ZM58 265.798H58.5C58.5 252.819 69.0213 242.298 82 242.298V241.798V241.298C68.469 241.298 57.5 252.267 57.5 265.798H58Z" fill="black" fill-opacity="0.8"/>
<path d="M168.646 271.354C168.842 271.549 169.158 271.549 169.354 271.354L172.536 268.172C172.731 267.976 172.731 267.66 172.536 267.464C172.34 267.269 172.024 267.269 171.828 267.464L169 270.293L166.172 267.464C165.976 267.269 165.66 267.269 165.464 267.464C165.269 267.66 165.269 267.976 165.464 268.172L168.646 271.354ZM169 271H169.5V265.798H169H168.5V271H169ZM145 241.798V241.298H139V241.798V242.298H145V241.798ZM115 217.798H115.5V212.596H115H114.5V217.798H115ZM139 241.798V241.298C126.021 241.298 115.5 230.777 115.5 217.798H115H114.5C114.5 231.329 125.469 242.298 139 242.298V241.798ZM169 265.798H169.5C169.5 252.267 158.531 241.298 145 241.298V241.798V242.298C157.979 242.298 168.5 252.819 168.5 265.798H169Z" fill="black" fill-opacity="0.8"/>
</svg>
