<svg width="761" height="320" viewBox="0 0 761 320" fill="none" xmlns="http://www.w3.org/2000/svg">
<rect x="257.5" y="0.5" width="249" height="63" rx="11.5" fill="#F5F6F6"/>
<rect x="257.5" y="0.5" width="249" height="63" rx="11.5" stroke="#4D5157"/>
<path d="M287.335 34.543H283.52L282.75 37H281.553L284.689 27.361H286.243L289.379 37H288.105L287.335 34.543ZM283.835 33.535H287.02L285.438 28.383L283.835 33.535ZM291.557 37V27.361H292.775V35.915H297.171L297.031 37H291.557ZM299.952 37V27.361H301.17V35.915H305.566L305.426 37H299.952ZM317.42 38.617V25.583H320.927V26.598H318.533V37.616H320.927V38.617H317.42ZM325.814 38.617V25.583H329.321V26.598H326.927V37.616H329.321V38.617H325.814ZM336.022 37.161C335.261 37.161 334.598 36.9767 334.034 36.608C333.474 36.2393 333.04 35.6863 332.732 34.949C332.424 34.2117 332.27 33.2877 332.27 32.177C332.27 31.3463 332.379 30.6207 332.599 30C332.823 29.3793 333.124 28.8613 333.502 28.446C333.884 28.0307 334.316 27.7203 334.797 27.515C335.282 27.3097 335.784 27.207 336.302 27.207C336.932 27.207 337.454 27.298 337.87 27.48C338.285 27.6573 338.682 27.9187 339.06 28.264L338.325 29.027C338.031 28.7517 337.72 28.5487 337.394 28.418C337.072 28.2873 336.71 28.222 336.309 28.222C335.959 28.222 335.62 28.2897 335.294 28.425C334.967 28.5603 334.673 28.782 334.412 29.09C334.155 29.3933 333.95 29.797 333.796 30.301C333.646 30.805 333.572 31.4303 333.572 32.177C333.572 33.1057 333.667 33.8617 333.859 34.445C334.055 35.0283 334.342 35.4577 334.72 35.733C335.102 36.0037 335.574 36.139 336.134 36.139C336.47 36.139 336.787 36.0993 337.086 36.02C337.389 35.9407 337.683 35.8263 337.968 35.677V32.737H336.071L335.924 31.729H339.172V36.321C338.738 36.5543 338.276 36.7527 337.786 36.916C337.296 37.0793 336.708 37.161 336.022 37.161ZM347.552 30.063C347.552 30.5437 347.447 30.9637 347.237 31.323C347.032 31.6823 346.752 31.9787 346.397 32.212C346.043 32.4453 345.644 32.6157 345.2 32.723L348.056 37H346.6L343.968 32.863H342.666V37H341.448V27.361H343.926C345.116 27.361 346.017 27.5897 346.628 28.047C347.244 28.4997 347.552 29.1717 347.552 30.063ZM346.25 30.063C346.25 29.4423 346.073 28.999 345.718 28.733C345.364 28.4623 344.813 28.327 344.066 28.327H342.666V31.911H344.066C344.757 31.911 345.294 31.771 345.676 31.491C346.059 31.2063 346.25 30.7303 346.25 30.063ZM354.491 34.543H350.676L349.906 37H348.709L351.845 27.361H353.399L356.535 37H355.261L354.491 34.543ZM350.991 33.535H354.176L352.594 28.383L350.991 33.535ZM363.312 30.336C363.312 29.8367 363.214 29.4423 363.018 29.153C362.822 28.859 362.554 28.649 362.213 28.523C361.873 28.3923 361.483 28.327 361.044 28.327H359.651V32.443H360.995C361.448 32.443 361.847 32.3823 362.192 32.261C362.538 32.135 362.811 31.9203 363.011 31.617C363.212 31.309 363.312 30.882 363.312 30.336ZM364.614 30.322C364.614 31.0733 364.453 31.6753 364.131 32.128C363.814 32.5807 363.375 32.9097 362.815 33.115C362.255 33.3203 361.611 33.423 360.883 33.423H359.651V37H358.433V27.361H360.897C362.045 27.361 362.951 27.6037 363.613 28.089C364.281 28.5697 364.614 29.314 364.614 30.322ZM371.231 37V32.429H367.591V37H366.38V27.361H367.591V31.435H371.231V27.361H372.442V37H371.231ZM379.429 25.583V38.617H375.922V37.623H378.316V26.598H375.922V25.583H379.429ZM396.891 30.336C396.891 29.8367 396.793 29.4423 396.597 29.153C396.401 28.859 396.132 28.649 395.792 28.523C395.451 28.3923 395.061 28.327 394.623 28.327H393.23V32.443H394.574C395.026 32.443 395.425 32.3823 395.771 32.261C396.116 32.135 396.389 31.9203 396.59 31.617C396.79 31.309 396.891 30.882 396.891 30.336ZM398.193 30.322C398.193 31.0733 398.032 31.6753 397.71 32.128C397.392 32.5807 396.954 32.9097 396.394 33.115C395.834 33.3203 395.19 33.423 394.462 33.423H393.23V37H392.012V27.361H394.476C395.624 27.361 396.529 27.6037 397.192 28.089C397.859 28.5697 398.193 29.314 398.193 30.322ZM406.314 30.063C406.314 30.5437 406.209 30.9637 405.999 31.323C405.794 31.6823 405.514 31.9787 405.159 32.212C404.804 32.4453 404.405 32.6157 403.962 32.723L406.818 37H405.362L402.73 32.863H401.428V37H400.21V27.361H402.688C403.878 27.361 404.779 27.5897 405.39 28.047C406.006 28.4997 406.314 29.1717 406.314 30.063ZM405.012 30.063C405.012 29.4423 404.835 28.999 404.48 28.733C404.125 28.4623 403.575 28.327 402.828 28.327H401.428V31.911H402.828C403.519 31.911 404.055 31.771 404.438 31.491C404.821 31.2063 405.012 30.7303 405.012 30.063ZM414.142 27.361V28.334H412V36.027H414.142V37H408.626V36.027H410.768V28.334H408.626V27.361H414.142ZM419.806 35.621L422.41 27.361H423.635L420.408 37H419.148L415.921 27.361H417.23L419.806 35.621ZM430.931 27.361V28.334H428.789V36.027H430.931V37H425.415V36.027H427.557V28.334H425.415V27.361H430.931ZM434.264 37V27.361H435.482V35.915H439.878L439.738 37H434.264ZM443.737 28.355V31.603H447.307V32.604H443.737V36.027H448.119V37H442.519V27.361H447.993L447.853 28.355H443.737ZM453.545 37.161C452.785 37.161 452.122 36.9767 451.557 36.608C450.997 36.2393 450.563 35.6863 450.255 34.949C449.947 34.2117 449.793 33.2877 449.793 32.177C449.793 31.3463 449.903 30.6207 450.122 30C450.346 29.3793 450.647 28.8613 451.025 28.446C451.408 28.0307 451.84 27.7203 452.32 27.515C452.806 27.3097 453.307 27.207 453.825 27.207C454.455 27.207 454.978 27.298 455.393 27.48C455.809 27.6573 456.205 27.9187 456.583 28.264L455.848 29.027C455.554 28.7517 455.244 28.5487 454.917 28.418C454.595 28.2873 454.234 28.222 453.832 28.222C453.482 28.222 453.144 28.2897 452.817 28.425C452.491 28.5603 452.197 28.782 451.935 29.09C451.679 29.3933 451.473 29.797 451.319 30.301C451.17 30.805 451.095 31.4303 451.095 32.177C451.095 33.1057 451.191 33.8617 451.382 34.445C451.578 35.0283 451.865 35.4577 452.243 35.733C452.626 36.0037 453.097 36.139 453.657 36.139C453.993 36.139 454.311 36.0993 454.609 36.02C454.913 35.9407 455.207 35.8263 455.491 35.677V32.737H453.594L453.447 31.729H456.695V36.321C456.261 36.5543 455.799 36.7527 455.309 36.916C454.819 37.0793 454.231 37.161 453.545 37.161ZM460.526 28.355V31.603H464.096V32.604H460.526V36.027H464.908V37H459.308V27.361H464.782L464.642 28.355H460.526ZM473.456 34.333C473.456 34.8837 473.319 35.3737 473.043 35.803C472.768 36.2277 472.369 36.5613 471.846 36.804C471.324 37.042 470.687 37.161 469.935 37.161C469.231 37.161 468.591 37.0537 468.017 36.839C467.448 36.6243 466.96 36.321 466.554 35.929L467.275 35.117C467.611 35.4297 467.996 35.6793 468.43 35.866C468.864 36.048 469.373 36.139 469.956 36.139C470.348 36.139 470.715 36.076 471.055 35.95C471.396 35.8193 471.671 35.6233 471.881 35.362C472.091 35.096 472.196 34.76 472.196 34.354C472.196 34.0413 472.136 33.7753 472.014 33.556C471.893 33.3367 471.678 33.143 471.37 32.975C471.062 32.8023 470.633 32.6343 470.082 32.471C469.448 32.2843 468.897 32.0743 468.43 31.841C467.968 31.603 467.609 31.3113 467.352 30.966C467.1 30.6207 466.974 30.1937 466.974 29.685C466.974 29.2043 467.107 28.7773 467.373 28.404C467.639 28.0307 468.006 27.739 468.472 27.529C468.944 27.3143 469.485 27.207 470.096 27.207C470.764 27.207 471.342 27.3027 471.832 27.494C472.327 27.6807 472.775 27.9513 473.176 28.306L472.462 29.097C472.117 28.789 471.746 28.5673 471.349 28.432C470.953 28.292 470.549 28.222 470.138 28.222C469.788 28.222 469.466 28.2757 469.172 28.383C468.883 28.4857 468.65 28.642 468.472 28.852C468.3 29.0573 468.213 29.321 468.213 29.643C468.213 29.9183 468.288 30.1563 468.437 30.357C468.587 30.5577 468.839 30.742 469.193 30.91C469.548 31.0733 470.031 31.246 470.642 31.428C471.142 31.5727 471.604 31.7547 472.028 31.974C472.458 32.1887 472.803 32.4827 473.064 32.856C473.326 33.2247 473.456 33.717 473.456 34.333ZM480.164 25.583V38.617H476.657V37.623H479.051V26.598H476.657V25.583H480.164Z" fill="#1A1B1D"/>
<rect x="200.5" y="128.5" width="89" height="63" rx="11.5" fill="#F5F6F6"/>
<rect x="200.5" y="128.5" width="89" height="63" rx="11.5" stroke="#4D5157"/>
<path d="M231.441 155.361L231.987 165H230.818L230.517 159.967C230.503 159.626 230.489 159.281 230.475 158.931C230.461 158.581 230.451 158.245 230.447 157.923C230.442 157.601 230.44 157.314 230.44 157.062C230.44 156.81 230.44 156.614 230.44 156.474L228.816 163.271H227.598L225.855 156.474C225.859 156.609 225.864 156.81 225.869 157.076C225.873 157.337 225.876 157.634 225.876 157.965C225.88 158.296 225.878 158.637 225.869 158.987C225.864 159.332 225.855 159.654 225.841 159.953L225.582 165H224.441L224.987 155.361H226.681L228.242 161.962L229.733 155.361H231.441ZM235.383 156.355V159.603H238.953V160.604H235.383V164.027H239.765V165H234.165V155.361H239.639L239.499 156.355H235.383ZM248.328 158.063C248.328 158.544 248.223 158.964 248.013 159.323C247.807 159.682 247.527 159.979 247.173 160.212C246.818 160.445 246.419 160.616 245.976 160.723L248.832 165H247.376L244.744 160.863H243.442V165H242.224V155.361H244.702C245.892 155.361 246.792 155.59 247.404 156.047C248.02 156.5 248.328 157.172 248.328 158.063ZM247.026 158.063C247.026 157.442 246.848 156.999 246.494 156.733C246.139 156.462 245.588 156.327 244.842 156.327H243.442V159.911H244.842C245.532 159.911 246.069 159.771 246.452 159.491C246.834 159.206 247.026 158.73 247.026 158.063ZM253.586 165.161C252.826 165.161 252.163 164.977 251.598 164.608C251.038 164.239 250.604 163.686 250.296 162.949C249.988 162.212 249.834 161.288 249.834 160.177C249.834 159.346 249.944 158.621 250.163 158C250.387 157.379 250.688 156.861 251.066 156.446C251.449 156.031 251.881 155.72 252.361 155.515C252.847 155.31 253.348 155.207 253.866 155.207C254.496 155.207 255.019 155.298 255.434 155.48C255.85 155.657 256.246 155.919 256.624 156.264L255.889 157.027C255.595 156.752 255.285 156.549 254.958 156.418C254.636 156.287 254.275 156.222 253.873 156.222C253.523 156.222 253.185 156.29 252.858 156.425C252.532 156.56 252.238 156.782 251.976 157.09C251.72 157.393 251.514 157.797 251.36 158.301C251.211 158.805 251.136 159.43 251.136 160.177C251.136 161.106 251.232 161.862 251.423 162.445C251.619 163.028 251.906 163.458 252.284 163.733C252.667 164.004 253.138 164.139 253.698 164.139C254.034 164.139 254.352 164.099 254.65 164.02C254.954 163.941 255.248 163.826 255.532 163.677V160.737H253.635L253.488 159.729H256.736V164.321C256.302 164.554 255.84 164.753 255.35 164.916C254.86 165.079 254.272 165.161 253.586 165.161ZM260.567 156.355V159.603H264.137V160.604H260.567V164.027H264.949V165H259.349V155.361H264.823L264.683 156.355H260.567Z" fill="#1A1B1D"/>
<rect x="332.5" y="256.5" width="98" height="63" rx="11.5" fill="#F5F6F6"/>
<rect x="332.5" y="256.5" width="98" height="63" rx="11.5" stroke="#4D5157"/>
<path d="M361.328 283.207C361.958 283.207 362.486 283.286 362.91 283.445C363.335 283.604 363.739 283.837 364.121 284.145L363.442 284.936C363.139 284.679 362.817 284.497 362.476 284.39C362.14 284.278 361.788 284.222 361.419 284.222C360.892 284.222 360.404 284.348 359.956 284.6C359.508 284.847 359.147 285.26 358.871 285.839C358.601 286.413 358.465 287.192 358.465 288.177C358.465 289.134 358.594 289.901 358.85 290.48C359.112 291.059 359.464 291.476 359.907 291.733C360.351 291.99 360.845 292.118 361.391 292.118C361.933 292.118 362.376 292.036 362.721 291.873C363.071 291.71 363.375 291.523 363.631 291.313L364.261 292.111C363.967 292.396 363.585 292.643 363.113 292.853C362.642 293.058 362.063 293.161 361.377 293.161C360.598 293.161 359.891 292.97 359.256 292.587C358.626 292.204 358.127 291.644 357.758 290.907C357.39 290.165 357.205 289.255 357.205 288.177C357.205 287.094 357.392 286.184 357.765 285.447C358.143 284.71 358.645 284.152 359.27 283.774C359.9 283.396 360.586 283.207 361.328 283.207ZM372.236 286.063C372.236 286.544 372.131 286.964 371.921 287.323C371.716 287.682 371.436 287.979 371.081 288.212C370.726 288.445 370.327 288.616 369.884 288.723L372.74 293H371.284L368.652 288.863H367.35V293H366.132V283.361H368.61C369.8 283.361 370.701 283.59 371.312 284.047C371.928 284.5 372.236 285.172 372.236 286.063ZM370.934 286.063C370.934 285.442 370.757 284.999 370.402 284.733C370.047 284.462 369.497 284.327 368.75 284.327H367.35V287.911H368.75C369.441 287.911 369.977 287.771 370.36 287.491C370.743 287.206 370.934 286.73 370.934 286.063ZM376.08 284.355V287.603H379.65V288.604H376.08V292.027H380.462V293H374.862V283.361H380.336L380.196 284.355H376.08ZM387.569 290.543H383.754L382.984 293H381.787L384.923 283.361H386.477L389.613 293H388.339L387.569 290.543ZM384.069 289.535H387.254L385.672 284.383L384.069 289.535ZM394.676 284.404V293H393.465V284.404H390.455V283.361H397.728L397.602 284.404H394.676ZM401.264 284.355V287.603H404.834V288.604H401.264V292.027H405.646V293H400.046V283.361H405.52L405.38 284.355H401.264Z" fill="#1A1B1D"/>
<rect x="662.5" y="256.5" width="98" height="63" rx="11.5" fill="#F5F6F6"/>
<rect x="662.5" y="256.5" width="98" height="63" rx="11.5" stroke="#4D5157"/>
<path d="M693.841 276.063C693.841 276.544 693.736 276.964 693.526 277.323C693.321 277.682 693.041 277.979 692.686 278.212C692.332 278.445 691.933 278.616 691.489 278.723L694.345 283H692.889L690.257 278.863H688.955V283H687.737V273.361H690.215C691.405 273.361 692.306 273.59 692.917 274.047C693.533 274.5 693.841 275.172 693.841 276.063ZM692.539 276.063C692.539 275.442 692.362 274.999 692.007 274.733C691.653 274.462 691.102 274.327 690.355 274.327H688.955V277.911H690.355C691.046 277.911 691.583 277.771 691.965 277.491C692.348 277.206 692.539 276.73 692.539 276.063ZM697.686 274.355V277.603H701.256V278.604H697.686V282.027H702.068V283H696.468V273.361H701.942L701.802 274.355H697.686ZM710.532 273.361L711.078 283H709.909L709.608 277.967C709.594 277.626 709.58 277.281 709.566 276.931C709.552 276.581 709.543 276.245 709.538 275.923C709.534 275.601 709.531 275.314 709.531 275.062C709.531 274.81 709.531 274.614 709.531 274.474L707.907 281.271H706.689L704.946 274.474C704.951 274.609 704.956 274.81 704.96 275.076C704.965 275.337 704.967 275.634 704.967 275.965C704.972 276.296 704.97 276.637 704.96 276.987C704.956 277.332 704.946 277.654 704.932 277.953L704.673 283H703.532L704.078 273.361H705.772L707.333 279.962L708.824 273.361H710.532ZM719.249 278.191C719.249 279.162 719.116 280.023 718.85 280.774C718.589 281.521 718.194 282.106 717.667 282.531C717.14 282.951 716.484 283.161 715.7 283.161C714.921 283.161 714.265 282.956 713.733 282.545C713.206 282.13 712.809 281.551 712.543 280.809C712.282 280.067 712.151 279.199 712.151 278.205C712.151 277.23 712.282 276.366 712.543 275.615C712.809 274.864 713.206 274.276 713.733 273.851C714.265 273.422 714.921 273.207 715.7 273.207C716.484 273.207 717.14 273.415 717.667 273.83C718.194 274.245 718.589 274.826 718.85 275.573C719.116 276.32 719.249 277.192 719.249 278.191ZM717.975 278.191C717.975 276.908 717.798 275.925 717.443 275.244C717.093 274.563 716.512 274.222 715.7 274.222C714.888 274.222 714.305 274.565 713.95 275.251C713.6 275.937 713.425 276.922 713.425 278.205C713.425 279.488 713.607 280.466 713.971 281.138C714.335 281.805 714.911 282.139 715.7 282.139C716.512 282.139 717.093 281.803 717.443 281.131C717.798 280.454 717.975 279.474 717.975 278.191ZM724.123 281.621L726.727 273.361H727.952L724.725 283H723.465L720.238 273.361H721.547L724.123 281.621ZM731.264 274.355V277.603H734.834V278.604H731.264V282.027H735.646V283H730.046V273.361H735.52L735.38 274.355H731.264ZM692.411 303V293.361H693.629V301.915H698.025L697.885 303H692.411ZM704.977 300.543H701.162L700.392 303H699.195L702.331 293.361H703.885L707.021 303H705.747L704.977 300.543ZM701.477 299.535H704.662L703.08 294.383L701.477 299.535ZM713.575 300.291C713.575 299.806 713.479 299.432 713.288 299.171C713.101 298.905 712.851 298.721 712.539 298.618C712.226 298.515 711.883 298.464 711.51 298.464H709.865V301.999H711.454C711.692 301.999 711.934 301.976 712.182 301.929C712.429 301.882 712.658 301.798 712.868 301.677C713.082 301.556 713.253 301.385 713.379 301.166C713.509 300.942 713.575 300.65 713.575 300.291ZM713.19 295.853C713.19 295.307 713.019 294.92 712.679 294.691C712.343 294.458 711.883 294.341 711.3 294.341H709.865V297.463H711.419C711.988 297.463 712.424 297.337 712.728 297.085C713.036 296.828 713.19 296.418 713.19 295.853ZM714.856 300.249C714.856 300.772 714.751 301.21 714.541 301.565C714.335 301.92 714.058 302.202 713.708 302.412C713.362 302.622 712.975 302.774 712.546 302.867C712.121 302.956 711.687 303 711.244 303H708.654V293.361H711.027C711.451 293.361 711.864 293.401 712.266 293.48C712.672 293.555 713.036 293.685 713.358 293.872C713.684 294.054 713.946 294.301 714.142 294.614C714.338 294.927 714.436 295.319 714.436 295.79C714.436 296.205 714.349 296.558 714.177 296.847C714.009 297.132 713.787 297.36 713.512 297.533C713.241 297.706 712.952 297.827 712.644 297.897C713.003 297.953 713.351 298.063 713.687 298.226C714.027 298.385 714.307 298.627 714.527 298.954C714.746 299.276 714.856 299.708 714.856 300.249ZM718.672 294.355V297.603H722.242V298.604H718.672V302.027H723.054V303H717.454V293.361H722.928L722.788 294.355H718.672ZM725.989 303V293.361H727.207V301.915H731.603L731.463 303H725.989Z" fill="#1A1B1D"/>
<rect x="558.5" y="256.5" width="89" height="63" rx="11.5" fill="#F5F6F6"/>
<rect x="558.5" y="256.5" width="89" height="63" rx="11.5" stroke="#4D5157"/>
<path d="M593.722 280.333C593.722 280.884 593.584 281.374 593.309 281.803C593.034 282.228 592.635 282.561 592.112 282.804C591.589 283.042 590.952 283.161 590.201 283.161C589.496 283.161 588.857 283.054 588.283 282.839C587.714 282.624 587.226 282.321 586.82 281.929L587.541 281.117C587.877 281.43 588.262 281.679 588.696 281.866C589.13 282.048 589.639 282.139 590.222 282.139C590.614 282.139 590.98 282.076 591.321 281.95C591.662 281.819 591.937 281.623 592.147 281.362C592.357 281.096 592.462 280.76 592.462 280.354C592.462 280.041 592.401 279.775 592.28 279.556C592.159 279.337 591.944 279.143 591.636 278.975C591.328 278.802 590.899 278.634 590.348 278.471C589.713 278.284 589.163 278.074 588.696 277.841C588.234 277.603 587.875 277.311 587.618 276.966C587.366 276.621 587.24 276.194 587.24 275.685C587.24 275.204 587.373 274.777 587.639 274.404C587.905 274.031 588.271 273.739 588.738 273.529C589.209 273.314 589.751 273.207 590.362 273.207C591.029 273.207 591.608 273.303 592.098 273.494C592.593 273.681 593.041 273.951 593.442 274.306L592.728 275.097C592.383 274.789 592.012 274.567 591.615 274.432C591.218 274.292 590.815 274.222 590.404 274.222C590.054 274.222 589.732 274.276 589.438 274.383C589.149 274.486 588.915 274.642 588.738 274.852C588.565 275.057 588.479 275.321 588.479 275.643C588.479 275.918 588.554 276.156 588.703 276.357C588.852 276.558 589.104 276.742 589.459 276.91C589.814 277.073 590.297 277.246 590.908 277.428C591.407 277.573 591.869 277.755 592.294 277.974C592.723 278.189 593.069 278.483 593.33 278.856C593.591 279.225 593.722 279.717 593.722 280.333ZM597.58 274.355V277.603H601.15V278.604H597.58V282.027H601.962V283H596.362V273.361H601.836L601.696 274.355H597.58ZM607.781 274.404V283H606.57V274.404H603.56V273.361H610.833L610.707 274.404H607.781ZM583.911 303V293.361H585.129V301.915H589.525L589.385 303H583.911ZM596.477 300.543H592.662L591.892 303H590.695L593.831 293.361H595.385L598.521 303H597.247L596.477 300.543ZM592.977 299.535H596.162L594.58 294.383L592.977 299.535ZM605.075 300.291C605.075 299.806 604.979 299.432 604.788 299.171C604.601 298.905 604.351 298.721 604.039 298.618C603.726 298.515 603.383 298.464 603.01 298.464H601.365V301.999H602.954C603.192 301.999 603.434 301.976 603.682 301.929C603.929 301.882 604.158 301.798 604.368 301.677C604.582 301.556 604.753 301.385 604.879 301.166C605.009 300.942 605.075 300.65 605.075 300.291ZM604.69 295.853C604.69 295.307 604.519 294.92 604.179 294.691C603.843 294.458 603.383 294.341 602.8 294.341H601.365V297.463H602.919C603.488 297.463 603.924 297.337 604.228 297.085C604.536 296.828 604.69 296.418 604.69 295.853ZM606.356 300.249C606.356 300.772 606.251 301.21 606.041 301.565C605.835 301.92 605.558 302.202 605.208 302.412C604.862 302.622 604.475 302.774 604.046 302.867C603.621 302.956 603.187 303 602.744 303H600.154V293.361H602.527C602.951 293.361 603.364 293.401 603.766 293.48C604.172 293.555 604.536 293.685 604.858 293.872C605.184 294.054 605.446 294.301 605.642 294.614C605.838 294.927 605.936 295.319 605.936 295.79C605.936 296.205 605.849 296.558 605.677 296.847C605.509 297.132 605.287 297.36 605.012 297.533C604.741 297.706 604.452 297.827 604.144 297.897C604.503 297.953 604.851 298.063 605.187 298.226C605.527 298.385 605.807 298.627 606.027 298.954C606.246 299.276 606.356 299.708 606.356 300.249ZM610.172 294.355V297.603H613.742V298.604H610.172V302.027H614.554V303H608.954V293.361H614.428L614.288 294.355H610.172ZM617.489 303V293.361H618.707V301.915H623.103L622.963 303H617.489Z" fill="#1A1B1D"/>
<rect x="445.5" y="256.5" width="98" height="63" rx="11.5" fill="#F5F6F6"/>
<rect x="445.5" y="256.5" width="98" height="63" rx="11.5" stroke="#4D5157"/>
<path d="M475.756 288.135C475.756 287.295 475.668 286.623 475.49 286.119C475.313 285.615 475.08 285.237 474.79 284.985C474.501 284.733 474.184 284.565 473.838 284.481C473.498 284.397 473.162 284.355 472.83 284.355H471.696V292.027H472.844C473.19 292.027 473.533 291.973 473.873 291.866C474.219 291.754 474.534 291.558 474.818 291.278C475.103 290.993 475.329 290.599 475.497 290.095C475.67 289.586 475.756 288.933 475.756 288.135ZM477.051 288.135C477.051 288.938 476.965 289.624 476.792 290.193C476.624 290.758 476.393 291.224 476.099 291.593C475.805 291.962 475.469 292.249 475.091 292.454C474.718 292.655 474.324 292.797 473.908 292.881C473.498 292.96 473.094 293 472.697 293H470.485V283.361H472.543C473.108 283.361 473.656 283.424 474.188 283.55C474.725 283.676 475.208 283.909 475.637 284.25C476.071 284.586 476.414 285.067 476.666 285.692C476.923 286.317 477.051 287.132 477.051 288.135ZM480.686 284.355V287.603H484.256V288.604H480.686V292.027H485.068V293H479.468V283.361H484.942L484.802 284.355H480.686ZM488.002 293V283.361H489.22V291.915H493.616L493.476 293H488.002ZM497.475 284.355V287.603H501.045V288.604H497.475V292.027H501.857V293H496.257V283.361H501.731L501.591 284.355H497.475ZM507.676 284.404V293H506.465V284.404H503.455V283.361H510.728L510.602 284.404H507.676ZM514.264 284.355V287.603H517.834V288.604H514.264V292.027H518.646V293H513.046V283.361H518.52L518.38 284.355H514.264Z" fill="#1A1B1D"/>
<rect x="41.5" y="128.5" width="89" height="63" rx="11.5" fill="#F5F6F6"/>
<rect x="41.5" y="128.5" width="89" height="63" rx="11.5" stroke="#4D5157"/>
<path d="M72.4407 155.361L72.9867 165H71.8177L71.5167 159.967C71.5027 159.626 71.4887 159.281 71.4747 158.931C71.4607 158.581 71.4513 158.245 71.4467 157.923C71.442 157.601 71.4397 157.314 71.4397 157.062C71.4397 156.81 71.4397 156.614 71.4397 156.474L69.8157 163.271H68.5977L66.8547 156.474C66.8593 156.609 66.864 156.81 66.8687 157.076C66.8733 157.337 66.8757 157.634 66.8757 157.965C66.8803 158.296 66.878 158.637 66.8687 158.987C66.864 159.332 66.8547 159.654 66.8407 159.953L66.5817 165H65.4407L65.9867 155.361H67.6807L69.2417 161.962L70.7327 155.361H72.4407ZM79.4772 162.543H75.6622L74.8922 165H73.6952L76.8312 155.361H78.3852L81.5212 165H80.2472L79.4772 162.543ZM75.9772 161.535H79.1622L77.5802 156.383L75.9772 161.535ZM86.5837 156.404V165H85.3727V156.404H82.3627V155.361H89.6357L89.5097 156.404H86.5837ZM95.2093 155.207C95.8393 155.207 96.3666 155.286 96.7913 155.445C97.2159 155.604 97.6196 155.837 98.0023 156.145L97.3233 156.936C97.0199 156.679 96.6979 156.497 96.3573 156.39C96.0213 156.278 95.6689 156.222 95.3003 156.222C94.7729 156.222 94.2853 156.348 93.8373 156.6C93.3893 156.847 93.0276 157.26 92.7523 157.839C92.4816 158.413 92.3463 159.192 92.3463 160.177C92.3463 161.134 92.4746 161.901 92.7313 162.48C92.9926 163.059 93.3449 163.476 93.7883 163.733C94.2316 163.99 94.7263 164.118 95.2723 164.118C95.8136 164.118 96.2569 164.036 96.6023 163.873C96.9523 163.71 97.2556 163.523 97.5123 163.313L98.1423 164.111C97.8483 164.396 97.4656 164.643 96.9943 164.853C96.5229 165.058 95.9443 165.161 95.2583 165.161C94.4789 165.161 93.7719 164.97 93.1373 164.587C92.5073 164.204 92.0079 163.644 91.6393 162.907C91.2706 162.165 91.0863 161.255 91.0863 160.177C91.0863 159.094 91.2729 158.184 91.6463 157.447C92.0243 156.71 92.5259 156.152 93.1513 155.774C93.7813 155.396 94.4673 155.207 95.2093 155.207ZM104.612 165V160.429H100.972V165H99.7608V155.361H100.972V159.435H104.612V155.361H105.823V165H104.612Z" fill="#1A1B1D"/>
<rect x="0.5" y="256.5" width="81" height="63" rx="11.5" fill="#F5F6F6"/>
<rect x="0.5" y="256.5" width="81" height="63" rx="11.5" stroke="#4D5157"/>
<path d="M12.2029 284.404V293H10.9919V284.404H7.98188V283.361H15.2549L15.1289 284.404H12.2029ZM23.3414 286.063C23.3414 286.544 23.2364 286.964 23.0264 287.323C22.8211 287.682 22.5411 287.979 22.1864 288.212C21.8317 288.445 21.4327 288.616 20.9894 288.723L23.8454 293H22.3894L19.7574 288.863H18.4554V293H17.2374V283.361H19.7154C20.9054 283.361 21.8061 283.59 22.4174 284.047C23.0334 284.5 23.3414 285.172 23.3414 286.063ZM22.0394 286.063C22.0394 285.442 21.8621 284.999 21.5074 284.733C21.1527 284.462 20.6021 284.327 19.8554 284.327H18.4554V287.911H19.8554C20.5461 287.911 21.0827 287.771 21.4654 287.491C21.8481 287.206 22.0394 286.73 22.0394 286.063ZM30.2799 290.543H26.4649L25.6949 293H24.4979L27.6339 283.361H29.1879L32.3239 293H31.0499L30.2799 290.543ZM26.7799 289.535H29.9649L28.3829 284.383L26.7799 289.535ZM36.8335 291.621L39.4375 283.361H40.6625L37.4355 293H36.1755L32.9485 283.361H34.2575L36.8335 291.621ZM43.975 284.355V287.603H47.545V288.604H43.975V292.027H48.357V293H42.757V283.361H48.231L48.091 284.355H43.975ZM56.9195 286.063C56.9195 286.544 56.8145 286.964 56.6045 287.323C56.3992 287.682 56.1192 287.979 55.7645 288.212C55.4099 288.445 55.0109 288.616 54.5675 288.723L57.4235 293H55.9675L53.3355 288.863H52.0335V293H50.8155V283.361H53.2935C54.4835 283.361 55.3842 283.59 55.9955 284.047C56.6115 284.5 56.9195 285.172 56.9195 286.063ZM55.6175 286.063C55.6175 285.442 55.4402 284.999 55.0855 284.733C54.7309 284.462 54.1802 284.327 53.4335 284.327H52.0335V287.911H53.4335C54.1242 287.911 54.6609 287.771 55.0435 287.491C55.4262 287.206 55.6175 286.73 55.6175 286.063ZM65.3001 290.333C65.3001 290.884 65.1624 291.374 64.8871 291.803C64.6117 292.228 64.2127 292.561 63.6901 292.804C63.1674 293.042 62.5304 293.161 61.7791 293.161C61.0744 293.161 60.4351 293.054 59.8611 292.839C59.2917 292.624 58.8041 292.321 58.3981 291.929L59.1191 291.117C59.4551 291.43 59.8401 291.679 60.2741 291.866C60.7081 292.048 61.2167 292.139 61.8001 292.139C62.1921 292.139 62.5584 292.076 62.8991 291.95C63.2397 291.819 63.5151 291.623 63.7251 291.362C63.9351 291.096 64.0401 290.76 64.0401 290.354C64.0401 290.041 63.9794 289.775 63.8581 289.556C63.7367 289.337 63.5221 289.143 63.2141 288.975C62.9061 288.802 62.4767 288.634 61.9261 288.471C61.2914 288.284 60.7407 288.074 60.2741 287.841C59.8121 287.603 59.4527 287.311 59.1961 286.966C58.9441 286.621 58.8181 286.194 58.8181 285.685C58.8181 285.204 58.9511 284.777 59.2171 284.404C59.4831 284.031 59.8494 283.739 60.3161 283.529C60.7874 283.314 61.3287 283.207 61.9401 283.207C62.6074 283.207 63.1861 283.303 63.6761 283.494C64.1707 283.681 64.6187 283.951 65.0201 284.306L64.3061 285.097C63.9607 284.789 63.5897 284.567 63.1931 284.432C62.7964 284.292 62.3927 284.222 61.9821 284.222C61.6321 284.222 61.3101 284.276 61.0161 284.383C60.7267 284.486 60.4934 284.642 60.3161 284.852C60.1434 285.057 60.0571 285.321 60.0571 285.643C60.0571 285.918 60.1317 286.156 60.2811 286.357C60.4304 286.558 60.6824 286.742 61.0371 286.91C61.3917 287.073 61.8747 287.246 62.4861 287.428C62.9854 287.573 63.4474 287.755 63.8721 287.974C64.3014 288.189 64.6467 288.483 64.9081 288.856C65.1694 289.225 65.3001 289.717 65.3001 290.333ZM69.1586 284.355V287.603H72.7286V288.604H69.1586V292.027H73.5406V293H67.9406V283.361H73.4146L73.2746 284.355H69.1586Z" fill="#1A1B1D"/>
<rect x="90.5" y="256.5" width="81" height="63" rx="11.5" fill="#F5F6F6"/>
<rect x="90.5" y="256.5" width="81" height="63" rx="11.5" stroke="#4D5157"/>
<path d="M121.736 286.063C121.736 286.544 121.631 286.964 121.421 287.323C121.216 287.682 120.936 287.979 120.581 288.212C120.226 288.445 119.827 288.616 119.384 288.723L122.24 293H120.784L118.152 288.863H116.85V293H115.632V283.361H118.11C119.3 283.361 120.201 283.59 120.812 284.047C121.428 284.5 121.736 285.172 121.736 286.063ZM120.434 286.063C120.434 285.442 120.257 284.999 119.902 284.733C119.547 284.462 118.997 284.327 118.25 284.327H116.85V287.911H118.25C118.941 287.911 119.477 287.771 119.86 287.491C120.243 287.206 120.434 286.73 120.434 286.063ZM125.58 284.355V287.603H129.15V288.604H125.58V292.027H129.962V293H124.362V283.361H129.836L129.696 284.355H125.58ZM137.069 290.543H133.254L132.484 293H131.287L134.423 283.361H135.977L139.113 293H137.839L137.069 290.543ZM133.569 289.535H136.754L135.172 284.383L133.569 289.535ZM145.835 288.135C145.835 287.295 145.746 286.623 145.569 286.119C145.391 285.615 145.158 285.237 144.869 284.985C144.579 284.733 144.262 284.565 143.917 284.481C143.576 284.397 143.24 284.355 142.909 284.355H141.775V292.027H142.923C143.268 292.027 143.611 291.973 143.952 291.866C144.297 291.754 144.612 291.558 144.897 291.278C145.181 290.993 145.408 290.599 145.576 290.095C145.748 289.586 145.835 288.933 145.835 288.135ZM147.13 288.135C147.13 288.938 147.043 289.624 146.871 290.193C146.703 290.758 146.472 291.224 146.178 291.593C145.884 291.962 145.548 292.249 145.17 292.454C144.796 292.655 144.402 292.797 143.987 292.881C143.576 292.96 143.172 293 142.776 293H140.564V283.361H142.622C143.186 283.361 143.735 283.424 144.267 283.55C144.803 283.676 145.286 283.909 145.716 284.25C146.15 284.586 146.493 285.067 146.745 285.692C147.001 286.317 147.13 287.132 147.13 288.135Z" fill="#1A1B1D"/>
<rect x="332.5" y="128.5" width="115" height="63" rx="11.5" fill="#F5F6F6"/>
<rect x="332.5" y="128.5" width="115" height="63" rx="11.5" stroke="#4D5157"/>
<path d="M384.919 152.333C384.919 152.884 384.782 153.374 384.506 153.803C384.231 154.228 383.832 154.561 383.309 154.804C382.787 155.042 382.15 155.161 381.398 155.161C380.694 155.161 380.054 155.054 379.48 154.839C378.911 154.624 378.423 154.321 378.017 153.929L378.738 153.117C379.074 153.43 379.459 153.679 379.893 153.866C380.327 154.048 380.836 154.139 381.419 154.139C381.811 154.139 382.178 154.076 382.518 153.95C382.859 153.819 383.134 153.623 383.344 153.362C383.554 153.096 383.659 152.76 383.659 152.354C383.659 152.041 383.599 151.775 383.477 151.556C383.356 151.337 383.141 151.143 382.833 150.975C382.525 150.802 382.096 150.634 381.545 150.471C380.911 150.284 380.36 150.074 379.893 149.841C379.431 149.603 379.072 149.311 378.815 148.966C378.563 148.621 378.437 148.194 378.437 147.685C378.437 147.204 378.57 146.777 378.836 146.404C379.102 146.031 379.469 145.739 379.935 145.529C380.407 145.314 380.948 145.207 381.559 145.207C382.227 145.207 382.805 145.303 383.295 145.494C383.79 145.681 384.238 145.951 384.639 146.306L383.925 147.097C383.58 146.789 383.209 146.567 382.812 146.432C382.416 146.292 382.012 146.222 381.601 146.222C381.251 146.222 380.929 146.276 380.635 146.383C380.346 146.486 380.113 146.642 379.935 146.852C379.763 147.057 379.676 147.321 379.676 147.643C379.676 147.918 379.751 148.156 379.9 148.357C380.05 148.558 380.302 148.742 380.656 148.91C381.011 149.073 381.494 149.246 382.105 149.428C382.605 149.573 383.067 149.755 383.491 149.974C383.921 150.189 384.266 150.483 384.527 150.856C384.789 151.225 384.919 151.717 384.919 152.333ZM388.778 146.355V149.603H392.348V150.604H388.778V154.027H393.16V155H387.56V145.361H393.034L392.894 146.355H388.778ZM398.978 146.404V155H397.767V146.404H394.757V145.361H402.03L401.904 146.404H398.978ZM362.918 168.336C362.918 167.837 362.82 167.442 362.624 167.153C362.428 166.859 362.16 166.649 361.819 166.523C361.478 166.392 361.089 166.327 360.65 166.327H359.257V170.443H360.601C361.054 170.443 361.453 170.382 361.798 170.261C362.143 170.135 362.416 169.92 362.617 169.617C362.818 169.309 362.918 168.882 362.918 168.336ZM364.22 168.322C364.22 169.073 364.059 169.675 363.737 170.128C363.42 170.581 362.981 170.91 362.421 171.115C361.861 171.32 361.217 171.423 360.489 171.423H359.257V175H358.039V165.361H360.503C361.651 165.361 362.556 165.604 363.219 166.089C363.886 166.57 364.22 167.314 364.22 168.322ZM372.341 168.063C372.341 168.544 372.236 168.964 372.026 169.323C371.821 169.682 371.541 169.979 371.186 170.212C370.832 170.445 370.433 170.616 369.989 170.723L372.845 175H371.389L368.757 170.863H367.455V175H366.237V165.361H368.715C369.905 165.361 370.806 165.59 371.417 166.047C372.033 166.5 372.341 167.172 372.341 168.063ZM371.039 168.063C371.039 167.442 370.862 166.999 370.507 166.733C370.153 166.462 369.602 166.327 368.855 166.327H367.455V169.911H368.855C369.546 169.911 370.083 169.771 370.465 169.491C370.848 169.206 371.039 168.73 371.039 168.063ZM380.96 170.191C380.96 171.162 380.827 172.023 380.561 172.774C380.3 173.521 379.905 174.106 379.378 174.531C378.851 174.951 378.195 175.161 377.411 175.161C376.632 175.161 375.976 174.956 375.444 174.545C374.917 174.13 374.52 173.551 374.254 172.809C373.993 172.067 373.862 171.199 373.862 170.205C373.862 169.23 373.993 168.366 374.254 167.615C374.52 166.864 374.917 166.276 375.444 165.851C375.976 165.422 376.632 165.207 377.411 165.207C378.195 165.207 378.851 165.415 379.378 165.83C379.905 166.245 380.3 166.826 380.561 167.573C380.827 168.32 380.96 169.192 380.96 170.191ZM379.686 170.191C379.686 168.908 379.509 167.925 379.154 167.244C378.804 166.563 378.223 166.222 377.411 166.222C376.599 166.222 376.016 166.565 375.661 167.251C375.311 167.937 375.136 168.922 375.136 170.205C375.136 171.488 375.318 172.466 375.682 173.138C376.046 173.805 376.622 174.139 377.411 174.139C378.223 174.139 378.804 173.803 379.154 173.131C379.509 172.454 379.686 171.474 379.686 170.191ZM388.101 168.336C388.101 167.837 388.003 167.442 387.807 167.153C387.611 166.859 387.343 166.649 387.002 166.523C386.662 166.392 386.272 166.327 385.833 166.327H384.44V170.443H385.784C386.237 170.443 386.636 170.382 386.981 170.261C387.327 170.135 387.6 169.92 387.8 169.617C388.001 169.309 388.101 168.882 388.101 168.336ZM389.403 168.322C389.403 169.073 389.242 169.675 388.92 170.128C388.603 170.581 388.164 170.91 387.604 171.115C387.044 171.32 386.4 171.423 385.672 171.423H384.44V175H383.222V165.361H385.686C386.834 165.361 387.74 165.604 388.402 166.089C389.07 166.57 389.403 167.314 389.403 168.322ZM392.975 166.355V169.603H396.545V170.604H392.975V174.027H397.357V175H391.757V165.361H397.231L397.091 166.355H392.975ZM405.92 168.063C405.92 168.544 405.815 168.964 405.605 169.323C405.399 169.682 405.119 169.979 404.765 170.212C404.41 170.445 404.011 170.616 403.568 170.723L406.424 175H404.968L402.336 170.863H401.034V175H399.816V165.361H402.294C403.484 165.361 404.384 165.59 404.996 166.047C405.612 166.5 405.92 167.172 405.92 168.063ZM404.618 168.063C404.618 167.442 404.44 166.999 404.086 166.733C403.731 166.462 403.18 166.327 402.434 166.327H401.034V169.911H402.434C403.124 169.911 403.661 169.771 404.044 169.491C404.426 169.206 404.618 168.73 404.618 168.063ZM411.57 166.404V175H410.359V166.404H407.349V165.361H414.622L414.496 166.404H411.57ZM420 171.283V175H418.768V171.297L415.513 165.361H416.857L419.412 170.191L421.995 165.361H423.255L420 171.283Z" fill="#1A1B1D"/>
<rect x="558.5" y="128.5" width="89" height="63" rx="11.5" fill="#F5F6F6"/>
<rect x="558.5" y="128.5" width="89" height="63" rx="11.5" stroke="#4D5157"/>
<path d="M590.351 155.361L588.881 165H587.285L586.179 157.727L585.066 165H583.435L582.077 155.361H583.295L584.324 163.663L585.479 156.481H586.97L588.069 163.663L589.224 155.361H590.351ZM597.933 158.063C597.933 158.544 597.828 158.964 597.618 159.323C597.413 159.682 597.133 159.979 596.778 160.212C596.424 160.445 596.025 160.616 595.581 160.723L598.437 165H596.981L594.349 160.863H593.047V165H591.829V155.361H594.307C595.497 155.361 596.398 155.59 597.009 156.047C597.625 156.5 597.933 157.172 597.933 158.063ZM596.631 158.063C596.631 157.442 596.454 156.999 596.099 156.733C595.745 156.462 595.194 156.327 594.447 156.327H593.047V159.911H594.447C595.138 159.911 595.675 159.771 596.057 159.491C596.44 159.206 596.631 158.73 596.631 158.063ZM605.761 155.361V156.334H603.619V164.027H605.761V165H600.245V164.027H602.387V156.334H600.245V155.361H605.761ZM611.978 156.404V165H610.767V156.404H607.757V155.361H615.03L614.904 156.404H611.978ZM618.567 156.355V159.603H622.137V160.604H618.567V164.027H622.949V165H617.349V155.361H622.823L622.683 156.355H618.567Z" fill="#1A1B1D"/>
<path d="M244.646 125.354C244.842 125.549 245.158 125.549 245.354 125.354L248.536 122.172C248.731 121.976 248.731 121.66 248.536 121.464C248.34 121.269 248.024 121.269 247.828 121.464L245 124.293L242.172 121.464C241.976 121.269 241.66 121.269 241.464 121.464C241.269 121.66 241.269 121.976 241.464 122.172L244.646 125.354ZM245 125H245.5V120H245H244.5V125H245ZM269 96V96.5H358V96V95.5H269V96ZM382 72H382.5V67H382H381.5V72H382ZM358 96V96.5C371.531 96.5 382.5 85.531 382.5 72H382H381.5C381.5 84.9787 370.979 95.5 358 95.5V96ZM245 120H245.5C245.5 107.021 256.021 96.5 269 96.5V96V95.5C255.469 95.5 244.5 106.469 244.5 120H245Z" fill="black" fill-opacity="0.8"/>
<path d="M602.646 125.354C602.842 125.549 603.158 125.549 603.354 125.354L606.536 122.172C606.731 121.976 606.731 121.66 606.536 121.464C606.34 121.269 606.024 121.269 605.828 121.464L603 124.293L600.172 121.464C599.976 121.269 599.66 121.269 599.464 121.464C599.269 121.66 599.269 121.976 599.464 122.172L602.646 125.354ZM603 125H603.5V120H603H602.5V125H603ZM579 96V95.5H406V96V96.5H579V96ZM382 72H382.5V67H382H381.5V72H382ZM406 96V95.5C393.021 95.5 382.5 84.9787 382.5 72H382H381.5C381.5 85.531 392.469 96.5 406 96.5V96ZM603 120H603.5C603.5 106.469 592.531 95.5 579 95.5V96V96.5C591.979 96.5 602.5 107.021 602.5 120H603Z" fill="black" fill-opacity="0.8"/>
<path d="M85.6464 125.354C85.8417 125.549 86.1583 125.549 86.3536 125.354L89.5355 122.172C89.7308 121.976 89.7308 121.66 89.5355 121.464C89.3403 121.269 89.0237 121.269 88.8284 121.464L86 124.293L83.1716 121.464C82.9763 121.269 82.6597 121.269 82.4645 121.464C82.2692 121.66 82.2692 121.976 82.4645 122.172L85.6464 125.354ZM86 125H86.5V120H86H85.5V125H86ZM110 96V96.5H358V96V95.5H110V96ZM382 72H382.5V67H382H381.5V72H382ZM358 96V96.5C371.531 96.5 382.5 85.531 382.5 72H382H381.5C381.5 84.9787 370.979 95.5 358 95.5V96ZM86 120H86.5C86.5 107.021 97.0213 96.5 110 96.5V96V95.5C96.469 95.5 85.5 106.469 85.5 120H86Z" fill="black" fill-opacity="0.8"/>
<path d="M52.7943 253.386C52.9138 253.635 53.2124 253.74 53.4614 253.621L57.5186 251.674C57.7676 251.555 57.8726 251.256 57.7531 251.007C57.6337 250.758 57.335 250.653 57.0861 250.772L53.4796 252.503L51.7494 248.896C51.6299 248.647 51.3313 248.542 51.0823 248.662C50.8333 248.781 50.7283 249.08 50.8478 249.329L52.7943 253.386ZM53.2451 253.17L53.7168 253.336L74.2268 194.996L73.7551 194.83L73.2834 194.664L52.7734 253.004L53.2451 253.17Z" fill="black" fill-opacity="0.8"/>
<path d="M129.557 253.754C129.816 253.848 130.103 253.713 130.197 253.454L131.728 249.222C131.822 248.962 131.687 248.676 131.428 248.582C131.168 248.488 130.881 248.622 130.787 248.882L129.427 252.643L125.665 251.283C125.406 251.189 125.119 251.323 125.025 251.583C124.931 251.843 125.065 252.129 125.325 252.223L129.557 253.754ZM129.727 253.284L130.18 253.071L102.726 194.504L102.273 194.716L101.821 194.929L129.274 253.496L129.727 253.284Z" fill="black" fill-opacity="0.8"/>
<path d="M329.354 160.354C329.549 160.158 329.549 159.842 329.354 159.646L326.172 156.464C325.976 156.269 325.66 156.269 325.464 156.464C325.269 156.66 325.269 156.976 325.464 157.172L328.293 160L325.464 162.828C325.269 163.024 325.269 163.34 325.464 163.536C325.66 163.731 325.976 163.731 326.172 163.536L329.354 160.354ZM329 160V159.5H293V160V160.5H329V160Z" fill="black" fill-opacity="0.8"/>
<path d="M329.354 288.354C329.549 288.158 329.549 287.842 329.354 287.646L326.172 284.464C325.976 284.269 325.66 284.269 325.464 284.464C325.269 284.66 325.269 284.976 325.464 285.172L328.293 288L325.464 290.828C325.269 291.024 325.269 291.34 325.464 291.536C325.66 291.731 325.976 291.731 326.172 291.536L329.354 288.354ZM329 288V287.5H269V288V288.5H329V288ZM245 264H245.5V195H245H244.5V264H245ZM269 288V287.5C256.021 287.5 245.5 276.979 245.5 264H245H244.5C244.5 277.531 255.469 288.5 269 288.5V288Z" fill="black" fill-opacity="0.8"/>
<path d="M450.646 159.646C450.451 159.842 450.451 160.158 450.646 160.354L453.828 163.536C454.024 163.731 454.34 163.731 454.536 163.536C454.731 163.34 454.731 163.024 454.536 162.828L451.707 160L454.536 157.172C454.731 156.976 454.731 156.66 454.536 156.464C454.34 156.269 454.024 156.269 453.828 156.464L450.646 159.646ZM451 160V160.5H555V160V159.5H451V160Z" fill="black" fill-opacity="0.8"/>
<path d="M381.146 253.354C381.342 253.549 381.658 253.549 381.854 253.354L385.036 250.172C385.231 249.976 385.231 249.66 385.036 249.464C384.84 249.269 384.524 249.269 384.328 249.464L381.5 252.293L378.672 249.464C378.476 249.269 378.16 249.269 377.964 249.464C377.769 249.66 377.769 249.976 377.964 250.172L381.146 253.354ZM603 195H603.5H603ZM381.5 253H382V237H381.5H381V253H381.5ZM405.5 213V213.5H585V213V212.5H405.5V213ZM585 213V213.5C595.217 213.5 603.5 205.217 603.5 195H603H602.5C602.5 204.665 594.665 212.5 585 212.5V213ZM381.5 237H382C382 224.021 392.521 213.5 405.5 213.5V213V212.5C391.969 212.5 381 223.469 381 237H381.5Z" fill="black" fill-opacity="0.8"/>
<path d="M602.646 253.354C602.842 253.549 603.158 253.549 603.354 253.354L606.536 250.172C606.731 249.976 606.731 249.66 606.536 249.464C606.34 249.269 606.024 249.269 605.828 249.464L603 252.293L600.172 249.464C599.976 249.269 599.66 249.269 599.464 249.464C599.269 249.66 599.269 249.976 599.464 250.172L602.646 253.354ZM603 253H603.5V195H603H602.5V253H603Z" fill="black" fill-opacity="0.8"/>
<path d="M711.146 253.354C711.342 253.549 711.658 253.549 711.854 253.354L715.036 250.172C715.231 249.976 715.231 249.66 715.036 249.464C714.84 249.269 714.524 249.269 714.328 249.464L711.5 252.293L708.672 249.464C708.476 249.269 708.16 249.269 707.964 249.464C707.769 249.66 707.769 249.976 707.964 250.172L711.146 253.354ZM603 195H603.5H603ZM711.5 253H712V237H711.5H711V253H711.5ZM687.5 213V212.5H621V213V213.5H687.5V213ZM621 213V212.5C611.335 212.5 603.5 204.665 603.5 195H603H602.5C602.5 205.217 610.783 213.5 621 213.5V213ZM711.5 237H712C712 223.469 701.031 212.5 687.5 212.5V213V213.5C700.479 213.5 711 224.021 711 237H711.5Z" fill="black" fill-opacity="0.8"/>
<path d="M494.146 253.354C494.342 253.549 494.658 253.549 494.854 253.354L498.036 250.172C498.231 249.976 498.231 249.66 498.036 249.464C497.84 249.269 497.524 249.269 497.328 249.464L494.5 252.293L491.672 249.464C491.476 249.269 491.16 249.269 490.964 249.464C490.769 249.66 490.769 249.976 490.964 250.172L494.146 253.354ZM603 195H603.5H603ZM494.5 253H495V237H494.5H494V253H494.5ZM518.5 213V213.5H585V213V212.5H518.5V213ZM585 213V213.5C595.217 213.5 603.5 205.217 603.5 195H603H602.5C602.5 204.665 594.665 212.5 585 212.5V213ZM494.5 237H495C495 224.021 505.521 213.5 518.5 213.5V213V212.5C504.969 212.5 494 223.469 494 237H494.5Z" fill="black" fill-opacity="0.8"/>
</svg>
