<svg width="828" height="90" viewBox="0 0 828 90" fill="none" xmlns="http://www.w3.org/2000/svg">
<rect x="122.5" y="0.5" width="123" height="66.5962" rx="11.5" fill="#F5F6F6"/>
<rect x="122.5" y="0.5" width="123" height="66.5962" rx="11.5" stroke="#4D5157"/>
<path d="M153.183 29.1591V30.1321H151.041V37.8251H153.183V38.7981H147.667V37.8251H149.809V30.1321H147.667V29.1591H153.183ZM162.046 29.1591L162.592 38.7981H161.423L161.122 33.7651C161.108 33.4244 161.094 33.0791 161.08 32.7291C161.066 32.3791 161.057 32.0431 161.052 31.7211C161.047 31.3991 161.045 31.1121 161.045 30.8601C161.045 30.6081 161.045 30.4121 161.045 30.2721L159.421 37.0691H158.203L156.46 30.2721C156.465 30.4074 156.469 30.6081 156.474 30.8741C156.479 31.1354 156.481 31.4318 156.481 31.7631C156.486 32.0944 156.483 32.4351 156.474 32.7851C156.469 33.1304 156.46 33.4524 156.446 33.7511L156.187 38.7981H155.046L155.592 29.1591H157.286L158.847 35.7601L160.338 29.1591H162.046ZM170.441 29.1591L170.987 38.7981H169.818L169.517 33.7651C169.503 33.4244 169.489 33.0791 169.475 32.7291C169.461 32.3791 169.451 32.0431 169.447 31.7211C169.442 31.3991 169.44 31.1121 169.44 30.8601C169.44 30.6081 169.44 30.4121 169.44 30.2721L167.816 37.0691H166.598L164.855 30.2721C164.859 30.4074 164.864 30.6081 164.869 30.8741C164.873 31.1354 164.876 31.4318 164.876 31.7631C164.88 32.0944 164.878 32.4351 164.869 32.7851C164.864 33.1304 164.855 33.4524 164.841 33.7511L164.582 38.7981H163.441L163.987 29.1591H165.681L167.242 35.7601L168.733 29.1591H170.441ZM178.793 29.1591V35.6761C178.793 36.3248 178.66 36.8964 178.394 37.3911C178.133 37.8858 177.762 38.2708 177.281 38.5461C176.805 38.8214 176.243 38.9591 175.594 38.9591C174.932 38.9591 174.362 38.8214 173.886 38.5461C173.415 38.2661 173.053 37.8788 172.801 37.3841C172.549 36.8894 172.423 36.3201 172.423 35.6761V29.1591H173.627V35.7181C173.627 36.4508 173.798 36.9991 174.138 37.3631C174.484 37.7271 174.969 37.9091 175.594 37.9091C176.224 37.9091 176.71 37.7271 177.05 37.3631C177.396 36.9991 177.568 36.4508 177.568 35.7181V29.1591H178.793ZM184.584 30.2021V38.7981H183.373V30.2021H180.363V29.1591H187.636L187.51 30.2021H184.584ZM194.266 36.3411H190.451L189.681 38.7981H188.484L191.62 29.1591H193.174L196.31 38.7981H195.036L194.266 36.3411ZM190.766 35.3331H193.951L192.369 30.1811L190.766 35.3331ZM202.864 36.0891C202.864 35.6038 202.768 35.2304 202.577 34.9691C202.39 34.7031 202.14 34.5188 201.828 34.4161C201.515 34.3134 201.172 34.2621 200.799 34.2621H199.154V37.7971H200.743C200.981 37.7971 201.223 37.7738 201.471 37.7271C201.718 37.6804 201.947 37.5964 202.157 37.4751C202.371 37.3538 202.542 37.1834 202.668 36.9641C202.798 36.7401 202.864 36.4484 202.864 36.0891ZM202.479 31.6511C202.479 31.1051 202.308 30.7178 201.968 30.4891C201.632 30.2558 201.172 30.1391 200.589 30.1391H199.154V33.2611H200.708C201.277 33.2611 201.713 33.1351 202.017 32.8831C202.325 32.6264 202.479 32.2158 202.479 31.6511ZM204.145 36.0471C204.145 36.5698 204.04 37.0084 203.83 37.3631C203.624 37.7178 203.347 38.0001 202.997 38.2101C202.651 38.4201 202.264 38.5718 201.835 38.6651C201.41 38.7538 200.976 38.7981 200.533 38.7981H197.943V29.1591H200.316C200.74 29.1591 201.153 29.1988 201.555 29.2781C201.961 29.3528 202.325 29.4834 202.647 29.6701C202.973 29.8521 203.235 30.0994 203.431 30.4121C203.627 30.7248 203.725 31.1168 203.725 31.5881C203.725 32.0034 203.638 32.3558 203.466 32.6451C203.298 32.9298 203.076 33.1584 202.801 33.3311C202.53 33.5038 202.241 33.6251 201.933 33.6951C202.292 33.7511 202.64 33.8608 202.976 34.0241C203.316 34.1828 203.596 34.4254 203.816 34.7521C204.035 35.0741 204.145 35.5058 204.145 36.0471ZM206.883 38.7981V29.1591H208.101V37.7131H212.497L212.357 38.7981H206.883ZM216.356 30.1531V33.4011H219.926V34.4021H216.356V37.8251H220.738V38.7981H215.138V29.1591H220.612L220.472 30.1531H216.356Z" fill="#1A1B1D"/>
<rect x="506.5" y="0.5" width="123" height="67" rx="11.5" fill="#F5F6F6"/>
<rect x="506.5" y="0.5" width="123" height="67" rx="11.5" stroke="#4D5157"/>
<path d="M540.491 26.543H536.676L535.906 29H534.709L537.845 19.361H539.399L542.535 29H541.261L540.491 26.543ZM536.991 25.535H540.176L538.594 20.383L536.991 25.535ZM544.713 29V19.361H545.931V27.915H550.327L550.187 29H544.713ZM553.108 29V19.361H554.326V27.915H558.722L558.582 29H553.108ZM574.44 24.135C574.44 23.295 574.351 22.623 574.174 22.119C573.997 21.615 573.763 21.237 573.474 20.985C573.185 20.733 572.867 20.565 572.522 20.481C572.181 20.397 571.845 20.355 571.514 20.355H570.38V28.027H571.528C571.873 28.027 572.216 27.9733 572.557 27.866C572.902 27.754 573.217 27.558 573.502 27.278C573.787 26.9933 574.013 26.599 574.181 26.095C574.354 25.5863 574.44 24.933 574.44 24.135ZM575.735 24.135C575.735 24.9377 575.649 25.6237 575.476 26.193C575.308 26.7577 575.077 27.2243 574.783 27.593C574.489 27.9617 574.153 28.2487 573.775 28.454C573.402 28.6547 573.007 28.797 572.592 28.881C572.181 28.9603 571.778 29 571.381 29H569.169V19.361H571.227C571.792 19.361 572.34 19.424 572.872 19.55C573.409 19.676 573.892 19.9093 574.321 20.25C574.755 20.586 575.098 21.0667 575.35 21.692C575.607 22.3173 575.735 23.1317 575.735 24.135ZM582.464 26.543H578.649L577.879 29H576.682L579.818 19.361H581.372L584.508 29H583.234L582.464 26.543ZM578.964 25.535H582.149L580.567 20.383L578.964 25.535ZM589.57 20.404V29H588.359V20.404H585.349V19.361H592.622L592.496 20.404H589.57ZM599.253 26.543H595.438L594.668 29H593.471L596.607 19.361H598.161L601.297 29H600.023L599.253 26.543ZM595.753 25.535H598.938L597.356 20.383L595.753 25.535ZM539.434 39.207C540.064 39.207 540.591 39.2863 541.016 39.445C541.441 39.6037 541.844 39.837 542.227 40.145L541.548 40.936C541.245 40.6793 540.923 40.4973 540.582 40.39C540.246 40.278 539.894 40.222 539.525 40.222C538.998 40.222 538.51 40.348 538.062 40.6C537.614 40.8473 537.252 41.2603 536.977 41.839C536.706 42.413 536.571 43.1923 536.571 44.177C536.571 45.1337 536.699 45.9013 536.956 46.48C537.217 47.0587 537.57 47.4763 538.013 47.733C538.456 47.9897 538.951 48.118 539.497 48.118C540.038 48.118 540.482 48.0363 540.827 47.873C541.177 47.7097 541.48 47.523 541.737 47.313L542.367 48.111C542.073 48.3957 541.69 48.643 541.219 48.853C540.748 49.0583 540.169 49.161 539.483 49.161C538.704 49.161 537.997 48.9697 537.362 48.587C536.732 48.2043 536.233 47.6443 535.864 46.907C535.495 46.165 535.311 45.255 535.311 44.177C535.311 43.0943 535.498 42.1843 535.871 41.447C536.249 40.7097 536.751 40.152 537.376 39.774C538.006 39.396 538.692 39.207 539.434 39.207ZM549.256 44.135C549.256 43.295 549.168 42.623 548.99 42.119C548.813 41.615 548.58 41.237 548.29 40.985C548.001 40.733 547.684 40.565 547.338 40.481C546.998 40.397 546.662 40.355 546.33 40.355H545.196V48.027H546.344C546.69 48.027 547.033 47.9733 547.373 47.866C547.719 47.754 548.034 47.558 548.318 47.278C548.603 46.9933 548.829 46.599 548.997 46.095C549.17 45.5863 549.256 44.933 549.256 44.135ZM550.551 44.135C550.551 44.9377 550.465 45.6237 550.292 46.193C550.124 46.7577 549.893 47.2243 549.599 47.593C549.305 47.9617 548.969 48.2487 548.591 48.454C548.218 48.6547 547.824 48.797 547.408 48.881C546.998 48.9603 546.594 49 546.197 49H543.985V39.361H546.043C546.608 39.361 547.156 39.424 547.688 39.55C548.225 39.676 548.708 39.9093 549.137 40.25C549.571 40.586 549.914 41.0667 550.166 41.692C550.423 42.3173 550.551 43.1317 550.551 44.135ZM558.736 42.063C558.736 42.5437 558.631 42.9637 558.421 43.323C558.216 43.6823 557.936 43.9787 557.581 44.212C557.226 44.4453 556.827 44.6157 556.384 44.723L559.24 49H557.784L555.152 44.863H553.85V49H552.632V39.361H555.11C556.3 39.361 557.201 39.5897 557.812 40.047C558.428 40.4997 558.736 41.1717 558.736 42.063ZM557.434 42.063C557.434 41.4423 557.257 40.999 556.902 40.733C556.547 40.4623 555.997 40.327 555.25 40.327H553.85V43.911H555.25C555.941 43.911 556.477 43.771 556.86 43.491C557.243 43.2063 557.434 42.7303 557.434 42.063ZM572.739 48.146C573.108 48.146 573.451 48.0853 573.768 47.964C574.09 47.8427 574.386 47.6887 574.657 47.502L575.231 48.272C574.909 48.5473 574.522 48.7643 574.069 48.923C573.616 49.0817 573.173 49.161 572.739 49.161C572.006 49.161 571.381 49.0047 570.863 48.692C570.35 48.3747 569.958 47.9313 569.687 47.362C569.416 46.788 569.281 46.116 569.281 45.346C569.281 44.6087 569.416 43.9483 569.687 43.365C569.962 42.777 570.357 42.315 570.87 41.979C571.388 41.643 572.016 41.475 572.753 41.475C573.224 41.475 573.665 41.5473 574.076 41.692C574.491 41.832 574.872 42.0443 575.217 42.329L574.643 43.113C574.33 42.8937 574.015 42.7303 573.698 42.623C573.385 42.511 573.066 42.455 572.739 42.455C572.104 42.455 571.582 42.693 571.171 43.169C570.76 43.645 570.555 44.3707 570.555 45.346C570.555 45.9993 570.648 46.5337 570.835 46.949C571.026 47.3597 571.285 47.663 571.612 47.859C571.943 48.0503 572.319 48.146 572.739 48.146ZM581.533 41.629V48.069H583.612V49H578.082V48.069H580.357V42.56H578.152V41.629H581.533ZM580.595 38.178C580.856 38.178 581.064 38.2573 581.218 38.416C581.376 38.5747 581.456 38.7683 581.456 38.997C581.456 39.235 581.376 39.4357 581.218 39.599C581.064 39.7577 580.856 39.837 580.595 39.837C580.347 39.837 580.144 39.7577 579.986 39.599C579.827 39.4357 579.748 39.235 579.748 38.997C579.748 38.7683 579.827 38.5747 579.986 38.416C580.144 38.2573 580.347 38.178 580.595 38.178ZM590.606 38.514L591.782 38.661V49H590.753L590.641 48.027C590.366 48.419 590.048 48.706 589.689 48.888C589.334 49.07 588.954 49.161 588.548 49.161C587.909 49.161 587.381 49 586.966 48.678C586.551 48.356 586.243 47.908 586.042 47.334C585.841 46.7553 585.741 46.0857 585.741 45.325C585.741 44.5877 585.855 43.9297 586.084 43.351C586.313 42.7677 586.642 42.3103 587.071 41.979C587.505 41.643 588.025 41.475 588.632 41.475C589.057 41.475 589.43 41.5497 589.752 41.699C590.074 41.8437 590.359 42.0583 590.606 42.343V38.514ZM588.94 42.42C588.324 42.42 587.85 42.6603 587.519 43.141C587.188 43.6217 587.022 44.3497 587.022 45.325C587.022 45.9597 587.09 46.4917 587.225 46.921C587.36 47.3503 587.559 47.6723 587.82 47.887C588.086 48.1017 588.41 48.209 588.793 48.209C589.213 48.209 589.57 48.09 589.864 47.852C590.163 47.614 590.41 47.3457 590.606 47.047V43.365C590.405 43.0663 590.163 42.8353 589.878 42.672C589.593 42.504 589.281 42.42 588.94 42.42ZM594.661 49V48.097H595.809V42.532H594.661V41.629H596.705L596.922 43.372C597.206 42.7653 597.552 42.2963 597.958 41.965C598.364 41.6337 598.9 41.468 599.568 41.468C599.773 41.468 599.955 41.4843 600.114 41.517C600.277 41.545 600.443 41.5823 600.611 41.629L600.268 42.679C600.114 42.637 599.974 42.6067 599.848 42.588C599.722 42.5647 599.577 42.553 599.414 42.553C598.849 42.553 598.364 42.7537 597.958 43.155C597.552 43.5563 597.227 44.163 596.985 44.975V48.097H598.483V49H594.661ZM599.477 44.121V42.518L599.596 41.629H600.611L600.443 44.121H599.477Z" fill="#1A1B1D"/>
<rect x="278.5" y="0.5" width="81" height="66.5962" rx="11.5" fill="#F5F6F6"/>
<rect x="278.5" y="0.5" width="81" height="66.5962" rx="11.5" stroke="#4D5157"/>
<path d="M304.108 38.7981V29.1591H305.326V37.7131H309.722L309.582 38.7981H304.108ZM318.354 33.9891C318.354 34.9598 318.221 35.8208 317.955 36.5721C317.694 37.3188 317.3 37.9044 316.772 38.3291C316.245 38.7491 315.589 38.9591 314.805 38.9591C314.026 38.9591 313.37 38.7538 312.838 38.3431C312.311 37.9278 311.914 37.3491 311.648 36.6071C311.387 35.8651 311.256 34.9971 311.256 34.0031C311.256 33.0278 311.387 32.1644 311.648 31.4131C311.914 30.6618 312.311 30.0738 312.838 29.6491C313.37 29.2198 314.026 29.0051 314.805 29.0051C315.589 29.0051 316.245 29.2128 316.772 29.6281C317.3 30.0434 317.694 30.6244 317.955 31.3711C318.221 32.1178 318.354 32.9904 318.354 33.9891ZM317.08 33.9891C317.08 32.7058 316.903 31.7234 316.548 31.0421C316.198 30.3608 315.617 30.0201 314.805 30.0201C313.993 30.0201 313.41 30.3631 313.055 31.0491C312.705 31.7351 312.53 32.7198 312.53 34.0031C312.53 35.2864 312.712 36.2641 313.076 36.9361C313.44 37.6034 314.017 37.9371 314.805 37.9371C315.617 37.9371 316.198 37.6011 316.548 36.9291C316.903 36.2524 317.08 35.2724 317.08 33.9891ZM325.069 36.3411H321.254L320.484 38.7981H319.287L322.423 29.1591H323.977L327.113 38.7981H325.839L325.069 36.3411ZM321.569 35.3331H324.754L323.172 30.1811L321.569 35.3331ZM333.835 33.9331C333.835 33.0931 333.746 32.4211 333.569 31.9171C333.391 31.4131 333.158 31.0351 332.869 30.7831C332.579 30.5311 332.262 30.3631 331.917 30.2791C331.576 30.1951 331.24 30.1531 330.909 30.1531H329.775V37.8251H330.923C331.268 37.8251 331.611 37.7714 331.952 37.6641C332.297 37.5521 332.612 37.3561 332.897 37.0761C333.181 36.7914 333.408 36.3971 333.576 35.8931C333.748 35.3844 333.835 34.7311 333.835 33.9331ZM335.13 33.9331C335.13 34.7358 335.043 35.4218 334.871 35.9911C334.703 36.5558 334.472 37.0224 334.178 37.3911C333.884 37.7598 333.548 38.0468 333.17 38.2521C332.796 38.4528 332.402 38.5951 331.987 38.6791C331.576 38.7584 331.172 38.7981 330.776 38.7981H328.564V29.1591H330.622C331.186 29.1591 331.735 29.2221 332.267 29.3481C332.803 29.4741 333.286 29.7074 333.716 30.0481C334.15 30.3841 334.493 30.8648 334.745 31.4901C335.001 32.1154 335.13 32.9298 335.13 33.9331Z" fill="#1A1B1D"/>
<rect x="392.5" y="0.5" width="81" height="67" rx="11.5" fill="#F5F6F6"/>
<rect x="392.5" y="0.5" width="81" height="67" rx="11.5" stroke="#4D5157"/>
<path d="M432.354 34.191C432.354 35.1617 432.221 36.0227 431.955 36.774C431.694 37.5207 431.3 38.1063 430.772 38.531C430.245 38.951 429.589 39.161 428.805 39.161C428.026 39.161 427.37 38.9557 426.838 38.545C426.311 38.1297 425.914 37.551 425.648 36.809C425.387 36.067 425.256 35.199 425.256 34.205C425.256 33.2297 425.387 32.3663 425.648 31.615C425.914 30.8637 426.311 30.2757 426.838 29.851C427.37 29.4217 428.026 29.207 428.805 29.207C429.589 29.207 430.245 29.4147 430.772 29.83C431.3 30.2453 431.694 30.8263 431.955 31.573C432.221 32.3197 432.354 33.1923 432.354 34.191ZM431.08 34.191C431.08 32.9077 430.903 31.9253 430.548 31.244C430.198 30.5627 429.617 30.222 428.805 30.222C427.993 30.222 427.41 30.565 427.055 31.251C426.705 31.937 426.53 32.9217 426.53 34.205C426.53 35.4883 426.712 36.466 427.076 37.138C427.44 37.8053 428.017 38.139 428.805 38.139C429.617 38.139 430.198 37.803 430.548 37.131C430.903 36.4543 431.08 35.4743 431.08 34.191ZM438.53 39L435.135 30.523C435.14 30.6303 435.149 30.81 435.163 31.062C435.182 31.3093 435.2 31.6057 435.219 31.951C435.242 32.2917 435.261 32.6533 435.275 33.036C435.289 33.4187 435.296 33.7967 435.296 34.17V39H434.169V29.361H435.814L439.265 37.873C439.26 37.7377 439.244 37.4903 439.216 37.131C439.188 36.767 439.162 36.3283 439.139 35.815C439.116 35.3017 439.104 34.758 439.104 34.184V29.361H440.231V39H438.53Z" fill="#1A1B1D"/>
<rect width="90" height="67.5962" rx="12" fill="#1A1B1D"/>
<path d="M28.4027 28.9591C27.642 28.9591 26.9793 28.7748 26.4147 28.4061C25.8547 28.0374 25.4207 27.4844 25.1127 26.7471C24.8047 26.0098 24.6507 25.0858 24.6507 23.9751C24.6507 23.1444 24.7603 22.4188 24.9797 21.7981C25.2037 21.1774 25.5047 20.6594 25.8827 20.2441C26.2653 19.8288 26.697 19.5184 27.1777 19.3131C27.663 19.1078 28.1647 19.0051 28.6827 19.0051C29.3127 19.0051 29.8353 19.0961 30.2507 19.2781C30.666 19.4554 31.0627 19.7168 31.4407 20.0621L30.7057 20.8251C30.4117 20.5498 30.1013 20.3468 29.7747 20.2161C29.4527 20.0854 29.091 20.0201 28.6897 20.0201C28.3397 20.0201 28.0013 20.0878 27.6747 20.2231C27.348 20.3584 27.054 20.5801 26.7927 20.8881C26.536 21.1914 26.3307 21.5951 26.1767 22.0991C26.0273 22.6031 25.9527 23.2284 25.9527 23.9751C25.9527 24.9038 26.0483 25.6598 26.2397 26.2431C26.4357 26.8264 26.7227 27.2558 27.1007 27.5311C27.4833 27.8018 27.9547 27.9371 28.5147 27.9371C28.8507 27.9371 29.168 27.8974 29.4667 27.8181C29.77 27.7388 30.064 27.6244 30.3487 27.4751V24.5351H28.4517L28.3047 23.5271H31.5527V28.1191C31.1187 28.3524 30.6567 28.5508 30.1667 28.7141C29.6767 28.8774 29.0887 28.9591 28.4027 28.9591ZM39.9332 21.8611C39.9332 22.3418 39.8282 22.7618 39.6182 23.1211C39.4129 23.4804 39.1329 23.7768 38.7782 24.0101C38.4235 24.2434 38.0245 24.4138 37.5812 24.5211L40.4372 28.7981H38.9812L36.3492 24.6611H35.0472V28.7981H33.8292V19.1591H36.3072C37.4972 19.1591 38.3979 19.3878 39.0092 19.8451C39.6252 20.2978 39.9332 20.9698 39.9332 21.8611ZM38.6312 21.8611C38.6312 21.2404 38.4539 20.7971 38.0992 20.5311C37.7445 20.2604 37.1939 20.1251 36.4472 20.1251H35.0472V23.7091H36.4472C37.1379 23.7091 37.6745 23.5691 38.0572 23.2891C38.4399 23.0044 38.6312 22.5284 38.6312 21.8611ZM46.8717 26.3411H43.0567L42.2867 28.7981H41.0897L44.2257 19.1591H45.7797L48.9157 28.7981H47.6417L46.8717 26.3411ZM43.3717 25.3331H46.5567L44.9747 20.1811L43.3717 25.3331ZM54.7273 28.7981L51.3323 20.3211C51.3369 20.4284 51.3463 20.6081 51.3603 20.8601C51.3789 21.1074 51.3976 21.4038 51.4163 21.7491C51.4396 22.0898 51.4583 22.4514 51.4723 22.8341C51.4863 23.2168 51.4933 23.5948 51.4933 23.9681V28.7981H50.3663V19.1591H52.0113L55.4623 27.6711C55.4576 27.5358 55.4413 27.2884 55.4133 26.9291C55.3853 26.5651 55.3596 26.1264 55.3363 25.6131C55.3129 25.0998 55.3013 24.5561 55.3013 23.9821V19.1591H56.4283V28.7981H54.7273ZM62.3728 20.2021V28.7981H61.1618V20.2021H58.1518V19.1591H65.4248L65.2988 20.2021H62.3728ZM34.6509 43.9331C34.6509 43.0931 34.5623 42.4211 34.3849 41.9171C34.2076 41.4131 33.9743 41.0351 33.6849 40.7831C33.3956 40.5311 33.0783 40.3631 32.7329 40.2791C32.3923 40.1951 32.0563 40.1531 31.7249 40.1531H30.5909V47.8251H31.7389C32.0843 47.8251 32.4273 47.7714 32.7679 47.6641C33.1133 47.5521 33.4283 47.3561 33.7129 47.0761C33.9976 46.7914 34.2239 46.3971 34.3919 45.8931C34.5646 45.3844 34.6509 44.7311 34.6509 43.9331ZM35.9459 43.9331C35.9459 44.7358 35.8596 45.4218 35.6869 45.9911C35.5189 46.5558 35.2879 47.0224 34.9939 47.3911C34.6999 47.7598 34.3639 48.0468 33.9859 48.2521C33.6126 48.4528 33.2183 48.5951 32.8029 48.6791C32.3923 48.7584 31.9886 48.7981 31.5919 48.7981H29.3799V39.1591H31.4379C32.0026 39.1591 32.5509 39.2221 33.0829 39.3481C33.6196 39.4741 34.1026 39.7074 34.5319 40.0481C34.9659 40.3841 35.3089 40.8648 35.5609 41.4901C35.8176 42.1154 35.9459 42.9298 35.9459 43.9331ZM39.5805 40.1531V43.4011H43.1505V44.4021H39.5805V47.8251H43.9625V48.7981H38.3625V39.1591H43.8365L43.6965 40.1531H39.5805ZM50.53 48.7981L47.135 40.3211C47.1397 40.4284 47.149 40.6081 47.163 40.8601C47.1817 41.1074 47.2003 41.4038 47.219 41.7491C47.2423 42.0898 47.261 42.4514 47.275 42.8341C47.289 43.2168 47.296 43.5948 47.296 43.9681V48.7981H46.169V39.1591H47.814L51.265 47.6711C51.2603 47.5358 51.244 47.2884 51.216 46.9291C51.188 46.5651 51.1623 46.1264 51.139 45.6131C51.1157 45.0998 51.104 44.5561 51.104 43.9821V39.1591H52.231V48.7981H50.53ZM58.2105 45.0811V48.7981H56.9785V45.0951L53.7235 39.1591H55.0675L57.6225 43.9891L60.2055 39.1591H61.4655L58.2105 45.0811Z" fill="white"/>
<path d="M263 33.7981V33.7981C262.448 33.7981 262 34.2458 262 34.7981V65C262 78.2548 251.255 89 238 89H129C115.745 89 105 78.2548 105 65V45.7981C105 39.1707 99.6274 33.7981 93 33.7981V33.7981" stroke="black" stroke-opacity="0.8" stroke-linejoin="bevel"/>
<path d="M119 33.7981H93" stroke="black" stroke-opacity="0.8" stroke-linejoin="bevel"/>
<path d="M275 33.7981H249" stroke="black" stroke-opacity="0.8" stroke-linejoin="bevel"/>
<path d="M389 33.7981H363" stroke="black" stroke-opacity="0.8" stroke-linejoin="bevel"/>
<path d="M503 34H477" stroke="black" stroke-opacity="0.8" stroke-linejoin="bevel"/>
<rect x="662.5" y="0.5" width="165" height="66.5962" rx="11.5" fill="white"/>
<rect x="662.5" y="0.5" width="165" height="66.5962" rx="11.5" stroke="#4D5157"/>
<path d="M691.019 30.2021V38.7981H689.808V30.2021H686.798V29.1591H694.071L693.945 30.2021H691.019ZM702.382 33.9891C702.382 34.9598 702.249 35.8208 701.983 36.5721C701.721 37.3188 701.327 37.9044 700.8 38.3291C700.272 38.7491 699.617 38.9591 698.833 38.9591C698.053 38.9591 697.398 38.7538 696.866 38.3431C696.338 37.9278 695.942 37.3491 695.676 36.6071C695.414 35.8651 695.284 34.9971 695.284 34.0031C695.284 33.0278 695.414 32.1644 695.676 31.4131C695.942 30.6618 696.338 30.0738 696.866 29.6491C697.398 29.2198 698.053 29.0051 698.833 29.0051C699.617 29.0051 700.272 29.2128 700.8 29.6281C701.327 30.0434 701.721 30.6244 701.983 31.3711C702.249 32.1178 702.382 32.9904 702.382 33.9891ZM701.108 33.9891C701.108 32.7058 700.93 31.7234 700.576 31.0421C700.226 30.3608 699.645 30.0201 698.833 30.0201C698.021 30.0201 697.437 30.3631 697.083 31.0491C696.733 31.7351 696.558 32.7198 696.558 34.0031C696.558 35.2864 696.74 36.2641 697.104 36.9361C697.468 37.6034 698.044 37.9371 698.833 37.9371C699.645 37.9371 700.226 37.6011 700.576 36.9291C700.93 36.2524 701.108 35.2724 701.108 33.9891ZM712.899 38.7981V37.8951H714.047V32.3301H712.899V31.4271H714.943L715.16 33.1701C715.445 32.5634 715.79 32.0944 716.196 31.7631C716.602 31.4318 717.139 31.2661 717.806 31.2661C718.011 31.2661 718.193 31.2824 718.352 31.3151C718.515 31.3431 718.681 31.3804 718.849 31.4271L718.506 32.4771C718.352 32.4351 718.212 32.4048 718.086 32.3861C717.96 32.3628 717.815 32.3511 717.652 32.3511C717.087 32.3511 716.602 32.5518 716.196 32.9531C715.79 33.3544 715.466 33.9611 715.223 34.7731V37.8951H716.721V38.7981H712.899ZM717.715 33.9191V32.3161L717.834 31.4271H718.849L718.681 33.9191H717.715ZM724.03 31.2731C724.726 31.2731 725.307 31.4318 725.773 31.7491C726.245 32.0618 726.597 32.5051 726.83 33.0791C727.068 33.6531 727.187 34.3298 727.187 35.1091C727.187 35.8604 727.066 36.5254 726.823 37.1041C726.581 37.6828 726.224 38.1378 725.752 38.4691C725.286 38.7958 724.707 38.9591 724.016 38.9591C723.326 38.9591 722.745 38.8004 722.273 38.4831C721.802 38.1658 721.445 37.7201 721.202 37.1461C720.964 36.5674 720.845 35.8931 720.845 35.1231C720.845 34.3624 720.967 33.6928 721.209 33.1141C721.452 32.5354 721.809 32.0851 722.28 31.7631C722.756 31.4364 723.34 31.2731 724.03 31.2731ZM724.03 32.2321C723.396 32.2321 722.915 32.4678 722.588 32.9391C722.266 33.4058 722.105 34.1338 722.105 35.1231C722.105 36.0938 722.264 36.8148 722.581 37.2861C722.903 37.7574 723.382 37.9931 724.016 37.9931C724.651 37.9931 725.127 37.7574 725.444 37.2861C725.766 36.8148 725.927 36.0891 725.927 35.1091C725.927 34.1291 725.769 33.4058 725.451 32.9391C725.134 32.4678 724.66 32.2321 724.03 32.2321ZM732.488 28.4591V36.9781C732.488 37.3421 732.6 37.6011 732.824 37.7551C733.053 37.9044 733.347 37.9791 733.706 37.9791C733.93 37.9791 734.142 37.9558 734.343 37.9091C734.544 37.8624 734.744 37.7994 734.945 37.7201L735.26 38.5811C735.059 38.6791 734.81 38.7654 734.511 38.8401C734.217 38.9194 733.883 38.9591 733.51 38.9591C732.857 38.9591 732.327 38.7794 731.921 38.4201C731.515 38.0561 731.312 37.5544 731.312 36.9151V29.3901H729.051V28.4591H732.488ZM738.936 35.5291C738.96 36.0984 739.069 36.5651 739.265 36.9291C739.461 37.2884 739.72 37.5544 740.042 37.7271C740.364 37.8951 740.714 37.9791 741.092 37.9791C741.47 37.9791 741.811 37.9231 742.114 37.8111C742.422 37.6991 742.737 37.5334 743.059 37.3141L743.612 38.0911C743.267 38.3618 742.873 38.5741 742.429 38.7281C741.991 38.8821 741.54 38.9591 741.078 38.9591C740.364 38.9591 739.755 38.7981 739.251 38.4761C738.747 38.1541 738.362 37.7061 738.096 37.1321C737.835 36.5534 737.704 35.8838 737.704 35.1231C737.704 34.3764 737.837 33.7138 738.103 33.1351C738.369 32.5564 738.743 32.1014 739.223 31.7701C739.704 31.4388 740.271 31.2731 740.924 31.2731C741.545 31.2731 742.079 31.4201 742.527 31.7141C742.975 32.0034 743.318 32.4188 743.556 32.9601C743.799 33.4968 743.92 34.1384 743.92 34.8851C743.92 35.0111 743.918 35.1301 743.913 35.2421C743.909 35.3494 743.902 35.4451 743.892 35.5291H738.936ZM740.938 32.2391C740.392 32.2391 739.935 32.4328 739.566 32.8201C739.202 33.2074 738.995 33.8071 738.943 34.6191H742.786C742.772 33.8304 742.6 33.2378 742.268 32.8411C741.937 32.4398 741.494 32.2391 740.938 32.2391ZM755.971 40.4151V27.3811H759.478V28.3961H757.084V39.4141H759.478V40.4151H755.971ZM765.989 36.4951C766.311 36.4951 766.579 36.6048 766.794 36.8241C767.013 37.0434 767.123 37.3071 767.123 37.6151C767.123 37.7831 767.102 37.9534 767.06 38.1261C767.023 38.2988 766.953 38.4948 766.85 38.7141L765.716 41.3111H764.652L765.324 38.5461C765.184 38.4434 765.072 38.3104 764.988 38.1471C764.909 37.9791 764.869 37.8018 764.869 37.6151C764.869 37.3024 764.976 37.0388 765.191 36.8241C765.406 36.6048 765.672 36.4951 765.989 36.4951ZM781.548 37.7201C781.548 37.4914 781.601 37.2861 781.709 37.1041C781.816 36.9174 781.963 36.7704 782.15 36.6631C782.332 36.5511 782.539 36.4951 782.773 36.4951C783.011 36.4951 783.223 36.5511 783.41 36.6631C783.596 36.7704 783.743 36.9174 783.851 37.1041C783.958 37.2861 784.012 37.4914 784.012 37.7201C784.012 37.9488 783.958 38.1588 783.851 38.3501C783.743 38.5368 783.596 38.6861 783.41 38.7981C783.223 38.9054 783.011 38.9591 782.773 38.9591C782.539 38.9591 782.332 38.9054 782.15 38.7981C781.963 38.6861 781.816 38.5368 781.709 38.3501C781.601 38.1588 781.548 37.9488 781.548 37.7201ZM787.148 37.7201C787.148 37.4914 787.201 37.2861 787.309 37.1041C787.416 36.9174 787.561 36.7704 787.743 36.6631C787.929 36.5511 788.139 36.4951 788.373 36.4951C788.611 36.4951 788.823 36.5511 789.01 36.6631C789.196 36.7704 789.343 36.9174 789.451 37.1041C789.558 37.2861 789.612 37.4914 789.612 37.7201C789.612 37.9488 789.558 38.1588 789.451 38.3501C789.343 38.5368 789.196 38.6861 789.01 38.7981C788.823 38.9054 788.611 38.9591 788.373 38.9591C788.139 38.9591 787.929 38.9054 787.743 38.7981C787.561 38.6861 787.416 38.5368 787.309 38.3501C787.201 38.1588 787.148 37.9488 787.148 37.7201ZM775.948 37.7201C775.948 37.4914 776.001 37.2861 776.109 37.1041C776.216 36.9174 776.363 36.7704 776.55 36.6631C776.732 36.5511 776.939 36.4951 777.173 36.4951C777.411 36.4951 777.623 36.5511 777.81 36.6631C777.996 36.7704 778.143 36.9174 778.251 37.1041C778.358 37.2861 778.412 37.4914 778.412 37.7201C778.412 37.9488 778.358 38.1588 778.251 38.3501C778.143 38.5368 777.996 38.6861 777.81 38.7981C777.623 38.9054 777.411 38.9591 777.173 38.9591C776.939 38.9591 776.732 38.9054 776.55 38.7981C776.363 38.6861 776.216 38.5368 776.109 38.3501C776.001 38.1588 775.948 37.9488 775.948 37.7201ZM801.191 27.3811V40.4151H797.684V39.4211H800.078V28.3961H797.684V27.3811H801.191Z" fill="#1A1B1D"/>
<path d="M659 34H633" stroke="black" stroke-opacity="0.8" stroke-linejoin="bevel"/>
</svg>
