<svg width="761" height="320" viewBox="0 0 761 320" fill="none" xmlns="http://www.w3.org/2000/svg">
<rect x="257.5" y="0.5" width="249" height="63" rx="11.5" fill="#F5F6F6"/>
<rect x="257.5" y="0.5" width="249" height="63" rx="11.5" stroke="#4D5157"/>
<path d="M287.335 34.543H283.52L282.75 37H281.553L284.689 27.361H286.243L289.379 37H288.105L287.335 34.543ZM283.835 33.535H287.02L285.438 28.383L283.835 33.535ZM291.557 37V27.361H292.775V35.915H297.171L297.031 37H291.557ZM299.952 37V27.361H301.17V35.915H305.566L305.426 37H299.952ZM317.42 38.617V25.583H320.927V26.598H318.533V37.616H320.927V38.617H317.42ZM325.814 38.617V25.583H329.321V26.598H326.927V37.616H329.321V38.617H325.814ZM336.022 37.161C335.261 37.161 334.598 36.9767 334.034 36.608C333.474 36.2393 333.04 35.6863 332.732 34.949C332.424 34.2117 332.27 33.2877 332.27 32.177C332.27 31.3463 332.379 30.6207 332.599 30C332.823 29.3793 333.124 28.8613 333.502 28.446C333.884 28.0307 334.316 27.7203 334.797 27.515C335.282 27.3097 335.784 27.207 336.302 27.207C336.932 27.207 337.454 27.298 337.87 27.48C338.285 27.6573 338.682 27.9187 339.06 28.264L338.325 29.027C338.031 28.7517 337.72 28.5487 337.394 28.418C337.072 28.2873 336.71 28.222 336.309 28.222C335.959 28.222 335.62 28.2897 335.294 28.425C334.967 28.5603 334.673 28.782 334.412 29.09C334.155 29.3933 333.95 29.797 333.796 30.301C333.646 30.805 333.572 31.4303 333.572 32.177C333.572 33.1057 333.667 33.8617 333.859 34.445C334.055 35.0283 334.342 35.4577 334.72 35.733C335.102 36.0037 335.574 36.139 336.134 36.139C336.47 36.139 336.787 36.0993 337.086 36.02C337.389 35.9407 337.683 35.8263 337.968 35.677V32.737H336.071L335.924 31.729H339.172V36.321C338.738 36.5543 338.276 36.7527 337.786 36.916C337.296 37.0793 336.708 37.161 336.022 37.161ZM347.552 30.063C347.552 30.5437 347.447 30.9637 347.237 31.323C347.032 31.6823 346.752 31.9787 346.397 32.212C346.043 32.4453 345.644 32.6157 345.2 32.723L348.056 37H346.6L343.968 32.863H342.666V37H341.448V27.361H343.926C345.116 27.361 346.017 27.5897 346.628 28.047C347.244 28.4997 347.552 29.1717 347.552 30.063ZM346.25 30.063C346.25 29.4423 346.073 28.999 345.718 28.733C345.364 28.4623 344.813 28.327 344.066 28.327H342.666V31.911H344.066C344.757 31.911 345.294 31.771 345.676 31.491C346.059 31.2063 346.25 30.7303 346.25 30.063ZM354.491 34.543H350.676L349.906 37H348.709L351.845 27.361H353.399L356.535 37H355.261L354.491 34.543ZM350.991 33.535H354.176L352.594 28.383L350.991 33.535ZM363.312 30.336C363.312 29.8367 363.214 29.4423 363.018 29.153C362.822 28.859 362.554 28.649 362.213 28.523C361.873 28.3923 361.483 28.327 361.044 28.327H359.651V32.443H360.995C361.448 32.443 361.847 32.3823 362.192 32.261C362.538 32.135 362.811 31.9203 363.011 31.617C363.212 31.309 363.312 30.882 363.312 30.336ZM364.614 30.322C364.614 31.0733 364.453 31.6753 364.131 32.128C363.814 32.5807 363.375 32.9097 362.815 33.115C362.255 33.3203 361.611 33.423 360.883 33.423H359.651V37H358.433V27.361H360.897C362.045 27.361 362.951 27.6037 363.613 28.089C364.281 28.5697 364.614 29.314 364.614 30.322ZM371.231 37V32.429H367.591V37H366.38V27.361H367.591V31.435H371.231V27.361H372.442V37H371.231ZM379.429 25.583V38.617H375.922V37.623H378.316V26.598H375.922V25.583H379.429ZM396.891 30.336C396.891 29.8367 396.793 29.4423 396.597 29.153C396.401 28.859 396.132 28.649 395.792 28.523C395.451 28.3923 395.061 28.327 394.623 28.327H393.23V32.443H394.574C395.026 32.443 395.425 32.3823 395.771 32.261C396.116 32.135 396.389 31.9203 396.59 31.617C396.79 31.309 396.891 30.882 396.891 30.336ZM398.193 30.322C398.193 31.0733 398.032 31.6753 397.71 32.128C397.392 32.5807 396.954 32.9097 396.394 33.115C395.834 33.3203 395.19 33.423 394.462 33.423H393.23V37H392.012V27.361H394.476C395.624 27.361 396.529 27.6037 397.192 28.089C397.859 28.5697 398.193 29.314 398.193 30.322ZM406.314 30.063C406.314 30.5437 406.209 30.9637 405.999 31.323C405.794 31.6823 405.514 31.9787 405.159 32.212C404.804 32.4453 404.405 32.6157 403.962 32.723L406.818 37H405.362L402.73 32.863H401.428V37H400.21V27.361H402.688C403.878 27.361 404.779 27.5897 405.39 28.047C406.006 28.4997 406.314 29.1717 406.314 30.063ZM405.012 30.063C405.012 29.4423 404.835 28.999 404.48 28.733C404.125 28.4623 403.575 28.327 402.828 28.327H401.428V31.911H402.828C403.519 31.911 404.055 31.771 404.438 31.491C404.821 31.2063 405.012 30.7303 405.012 30.063ZM414.142 27.361V28.334H412V36.027H414.142V37H408.626V36.027H410.768V28.334H408.626V27.361H414.142ZM419.806 35.621L422.41 27.361H423.635L420.408 37H419.148L415.921 27.361H417.23L419.806 35.621ZM430.931 27.361V28.334H428.789V36.027H430.931V37H425.415V36.027H427.557V28.334H425.415V27.361H430.931ZM434.264 37V27.361H435.482V35.915H439.878L439.738 37H434.264ZM443.737 28.355V31.603H447.307V32.604H443.737V36.027H448.119V37H442.519V27.361H447.993L447.853 28.355H443.737ZM453.545 37.161C452.785 37.161 452.122 36.9767 451.557 36.608C450.997 36.2393 450.563 35.6863 450.255 34.949C449.947 34.2117 449.793 33.2877 449.793 32.177C449.793 31.3463 449.903 30.6207 450.122 30C450.346 29.3793 450.647 28.8613 451.025 28.446C451.408 28.0307 451.84 27.7203 452.32 27.515C452.806 27.3097 453.307 27.207 453.825 27.207C454.455 27.207 454.978 27.298 455.393 27.48C455.809 27.6573 456.205 27.9187 456.583 28.264L455.848 29.027C455.554 28.7517 455.244 28.5487 454.917 28.418C454.595 28.2873 454.234 28.222 453.832 28.222C453.482 28.222 453.144 28.2897 452.817 28.425C452.491 28.5603 452.197 28.782 451.935 29.09C451.679 29.3933 451.473 29.797 451.319 30.301C451.17 30.805 451.095 31.4303 451.095 32.177C451.095 33.1057 451.191 33.8617 451.382 34.445C451.578 35.0283 451.865 35.4577 452.243 35.733C452.626 36.0037 453.097 36.139 453.657 36.139C453.993 36.139 454.311 36.0993 454.609 36.02C454.913 35.9407 455.207 35.8263 455.491 35.677V32.737H453.594L453.447 31.729H456.695V36.321C456.261 36.5543 455.799 36.7527 455.309 36.916C454.819 37.0793 454.231 37.161 453.545 37.161ZM460.526 28.355V31.603H464.096V32.604H460.526V36.027H464.908V37H459.308V27.361H464.782L464.642 28.355H460.526ZM473.456 34.333C473.456 34.8837 473.319 35.3737 473.043 35.803C472.768 36.2277 472.369 36.5613 471.846 36.804C471.324 37.042 470.687 37.161 469.935 37.161C469.231 37.161 468.591 37.0537 468.017 36.839C467.448 36.6243 466.96 36.321 466.554 35.929L467.275 35.117C467.611 35.4297 467.996 35.6793 468.43 35.866C468.864 36.048 469.373 36.139 469.956 36.139C470.348 36.139 470.715 36.076 471.055 35.95C471.396 35.8193 471.671 35.6233 471.881 35.362C472.091 35.096 472.196 34.76 472.196 34.354C472.196 34.0413 472.136 33.7753 472.014 33.556C471.893 33.3367 471.678 33.143 471.37 32.975C471.062 32.8023 470.633 32.6343 470.082 32.471C469.448 32.2843 468.897 32.0743 468.43 31.841C467.968 31.603 467.609 31.3113 467.352 30.966C467.1 30.6207 466.974 30.1937 466.974 29.685C466.974 29.2043 467.107 28.7773 467.373 28.404C467.639 28.0307 468.006 27.739 468.472 27.529C468.944 27.3143 469.485 27.207 470.096 27.207C470.764 27.207 471.342 27.3027 471.832 27.494C472.327 27.6807 472.775 27.9513 473.176 28.306L472.462 29.097C472.117 28.789 471.746 28.5673 471.349 28.432C470.953 28.292 470.549 28.222 470.138 28.222C469.788 28.222 469.466 28.2757 469.172 28.383C468.883 28.4857 468.65 28.642 468.472 28.852C468.3 29.0573 468.213 29.321 468.213 29.643C468.213 29.9183 468.288 30.1563 468.437 30.357C468.587 30.5577 468.839 30.742 469.193 30.91C469.548 31.0733 470.031 31.246 470.642 31.428C471.142 31.5727 471.604 31.7547 472.028 31.974C472.458 32.1887 472.803 32.4827 473.064 32.856C473.326 33.2247 473.456 33.717 473.456 34.333ZM480.164 25.583V38.617H476.657V37.623H479.051V26.598H476.657V25.583H480.164Z" fill="#1A1B1D"/>
<rect x="337.5" y="128.5" width="89" height="63" rx="11.5" fill="#F5F6F6"/>
<rect x="337.5" y="128.5" width="89" height="63" rx="11.5" stroke="#4D5157"/>
<path d="M368.441 155.361L368.987 165H367.818L367.517 159.967C367.503 159.626 367.489 159.281 367.475 158.931C367.461 158.581 367.451 158.245 367.447 157.923C367.442 157.601 367.44 157.314 367.44 157.062C367.44 156.81 367.44 156.614 367.44 156.474L365.816 163.271H364.598L362.855 156.474C362.859 156.609 362.864 156.81 362.869 157.076C362.873 157.337 362.876 157.634 362.876 157.965C362.88 158.296 362.878 158.637 362.869 158.987C362.864 159.332 362.855 159.654 362.841 159.953L362.582 165H361.441L361.987 155.361H363.681L365.242 161.962L366.733 155.361H368.441ZM372.383 156.355V159.603H375.953V160.604H372.383V164.027H376.765V165H371.165V155.361H376.639L376.499 156.355H372.383ZM385.328 158.063C385.328 158.544 385.223 158.964 385.013 159.323C384.807 159.682 384.527 159.979 384.173 160.212C383.818 160.445 383.419 160.616 382.976 160.723L385.832 165H384.376L381.744 160.863H380.442V165H379.224V155.361H381.702C382.892 155.361 383.792 155.59 384.404 156.047C385.02 156.5 385.328 157.172 385.328 158.063ZM384.026 158.063C384.026 157.442 383.848 156.999 383.494 156.733C383.139 156.462 382.588 156.327 381.842 156.327H380.442V159.911H381.842C382.532 159.911 383.069 159.771 383.452 159.491C383.834 159.206 384.026 158.73 384.026 158.063ZM390.586 165.161C389.826 165.161 389.163 164.977 388.598 164.608C388.038 164.239 387.604 163.686 387.296 162.949C386.988 162.212 386.834 161.288 386.834 160.177C386.834 159.346 386.944 158.621 387.163 158C387.387 157.379 387.688 156.861 388.066 156.446C388.449 156.031 388.881 155.72 389.361 155.515C389.847 155.31 390.348 155.207 390.866 155.207C391.496 155.207 392.019 155.298 392.434 155.48C392.85 155.657 393.246 155.919 393.624 156.264L392.889 157.027C392.595 156.752 392.285 156.549 391.958 156.418C391.636 156.287 391.275 156.222 390.873 156.222C390.523 156.222 390.185 156.29 389.858 156.425C389.532 156.56 389.238 156.782 388.976 157.09C388.72 157.393 388.514 157.797 388.36 158.301C388.211 158.805 388.136 159.43 388.136 160.177C388.136 161.106 388.232 161.862 388.423 162.445C388.619 163.028 388.906 163.458 389.284 163.733C389.667 164.004 390.138 164.139 390.698 164.139C391.034 164.139 391.352 164.099 391.65 164.02C391.954 163.941 392.248 163.826 392.532 163.677V160.737H390.635L390.488 159.729H393.736V164.321C393.302 164.554 392.84 164.753 392.35 164.916C391.86 165.079 391.272 165.161 390.586 165.161ZM397.567 156.355V159.603H401.137V160.604H397.567V164.027H401.949V165H396.349V155.361H401.823L401.683 156.355H397.567Z" fill="#1A1B1D"/>
<rect x="332.5" y="256.5" width="98" height="63" rx="11.5" fill="#F5F6F6"/>
<rect x="332.5" y="256.5" width="98" height="63" rx="11.5" stroke="#4D5157"/>
<path d="M361.328 283.207C361.958 283.207 362.486 283.286 362.91 283.445C363.335 283.604 363.739 283.837 364.121 284.145L363.442 284.936C363.139 284.679 362.817 284.497 362.476 284.39C362.14 284.278 361.788 284.222 361.419 284.222C360.892 284.222 360.404 284.348 359.956 284.6C359.508 284.847 359.147 285.26 358.871 285.839C358.601 286.413 358.465 287.192 358.465 288.177C358.465 289.134 358.594 289.901 358.85 290.48C359.112 291.059 359.464 291.476 359.907 291.733C360.351 291.99 360.845 292.118 361.391 292.118C361.933 292.118 362.376 292.036 362.721 291.873C363.071 291.71 363.375 291.523 363.631 291.313L364.261 292.111C363.967 292.396 363.585 292.643 363.113 292.853C362.642 293.058 362.063 293.161 361.377 293.161C360.598 293.161 359.891 292.97 359.256 292.587C358.626 292.204 358.127 291.644 357.758 290.907C357.39 290.165 357.205 289.255 357.205 288.177C357.205 287.094 357.392 286.184 357.765 285.447C358.143 284.71 358.645 284.152 359.27 283.774C359.9 283.396 360.586 283.207 361.328 283.207ZM372.236 286.063C372.236 286.544 372.131 286.964 371.921 287.323C371.716 287.682 371.436 287.979 371.081 288.212C370.726 288.445 370.327 288.616 369.884 288.723L372.74 293H371.284L368.652 288.863H367.35V293H366.132V283.361H368.61C369.8 283.361 370.701 283.59 371.312 284.047C371.928 284.5 372.236 285.172 372.236 286.063ZM370.934 286.063C370.934 285.442 370.757 284.999 370.402 284.733C370.047 284.462 369.497 284.327 368.75 284.327H367.35V287.911H368.75C369.441 287.911 369.977 287.771 370.36 287.491C370.743 287.206 370.934 286.73 370.934 286.063ZM376.08 284.355V287.603H379.65V288.604H376.08V292.027H380.462V293H374.862V283.361H380.336L380.196 284.355H376.08ZM387.569 290.543H383.754L382.984 293H381.787L384.923 283.361H386.477L389.613 293H388.339L387.569 290.543ZM384.069 289.535H387.254L385.672 284.383L384.069 289.535ZM394.676 284.404V293H393.465V284.404H390.455V283.361H397.728L397.602 284.404H394.676ZM401.264 284.355V287.603H404.834V288.604H401.264V292.027H405.646V293H400.046V283.361H405.52L405.38 284.355H401.264Z" fill="#1A1B1D"/>
<rect x="662.5" y="256.5" width="98" height="63" rx="11.5" fill="#F5F6F6"/>
<rect x="662.5" y="256.5" width="98" height="63" rx="11.5" stroke="#4D5157"/>
<path d="M693.841 276.063C693.841 276.544 693.736 276.964 693.526 277.323C693.321 277.682 693.041 277.979 692.686 278.212C692.332 278.445 691.933 278.616 691.489 278.723L694.345 283H692.889L690.257 278.863H688.955V283H687.737V273.361H690.215C691.405 273.361 692.306 273.59 692.917 274.047C693.533 274.5 693.841 275.172 693.841 276.063ZM692.539 276.063C692.539 275.442 692.362 274.999 692.007 274.733C691.653 274.462 691.102 274.327 690.355 274.327H688.955V277.911H690.355C691.046 277.911 691.583 277.771 691.965 277.491C692.348 277.206 692.539 276.73 692.539 276.063ZM697.686 274.355V277.603H701.256V278.604H697.686V282.027H702.068V283H696.468V273.361H701.942L701.802 274.355H697.686ZM710.532 273.361L711.078 283H709.909L709.608 277.967C709.594 277.626 709.58 277.281 709.566 276.931C709.552 276.581 709.543 276.245 709.538 275.923C709.534 275.601 709.531 275.314 709.531 275.062C709.531 274.81 709.531 274.614 709.531 274.474L707.907 281.271H706.689L704.946 274.474C704.951 274.609 704.956 274.81 704.96 275.076C704.965 275.337 704.967 275.634 704.967 275.965C704.972 276.296 704.97 276.637 704.96 276.987C704.956 277.332 704.946 277.654 704.932 277.953L704.673 283H703.532L704.078 273.361H705.772L707.333 279.962L708.824 273.361H710.532ZM719.249 278.191C719.249 279.162 719.116 280.023 718.85 280.774C718.589 281.521 718.194 282.106 717.667 282.531C717.14 282.951 716.484 283.161 715.7 283.161C714.921 283.161 714.265 282.956 713.733 282.545C713.206 282.13 712.809 281.551 712.543 280.809C712.282 280.067 712.151 279.199 712.151 278.205C712.151 277.23 712.282 276.366 712.543 275.615C712.809 274.864 713.206 274.276 713.733 273.851C714.265 273.422 714.921 273.207 715.7 273.207C716.484 273.207 717.14 273.415 717.667 273.83C718.194 274.245 718.589 274.826 718.85 275.573C719.116 276.32 719.249 277.192 719.249 278.191ZM717.975 278.191C717.975 276.908 717.798 275.925 717.443 275.244C717.093 274.563 716.512 274.222 715.7 274.222C714.888 274.222 714.305 274.565 713.95 275.251C713.6 275.937 713.425 276.922 713.425 278.205C713.425 279.488 713.607 280.466 713.971 281.138C714.335 281.805 714.911 282.139 715.7 282.139C716.512 282.139 717.093 281.803 717.443 281.131C717.798 280.454 717.975 279.474 717.975 278.191ZM724.123 281.621L726.727 273.361H727.952L724.725 283H723.465L720.238 273.361H721.547L724.123 281.621ZM731.264 274.355V277.603H734.834V278.604H731.264V282.027H735.646V283H730.046V273.361H735.52L735.38 274.355H731.264ZM692.411 303V293.361H693.629V301.915H698.025L697.885 303H692.411ZM704.977 300.543H701.162L700.392 303H699.195L702.331 293.361H703.885L707.021 303H705.747L704.977 300.543ZM701.477 299.535H704.662L703.08 294.383L701.477 299.535ZM713.575 300.291C713.575 299.806 713.479 299.432 713.288 299.171C713.101 298.905 712.851 298.721 712.539 298.618C712.226 298.515 711.883 298.464 711.51 298.464H709.865V301.999H711.454C711.692 301.999 711.934 301.976 712.182 301.929C712.429 301.882 712.658 301.798 712.868 301.677C713.082 301.556 713.253 301.385 713.379 301.166C713.509 300.942 713.575 300.65 713.575 300.291ZM713.19 295.853C713.19 295.307 713.019 294.92 712.679 294.691C712.343 294.458 711.883 294.341 711.3 294.341H709.865V297.463H711.419C711.988 297.463 712.424 297.337 712.728 297.085C713.036 296.828 713.19 296.418 713.19 295.853ZM714.856 300.249C714.856 300.772 714.751 301.21 714.541 301.565C714.335 301.92 714.058 302.202 713.708 302.412C713.362 302.622 712.975 302.774 712.546 302.867C712.121 302.956 711.687 303 711.244 303H708.654V293.361H711.027C711.451 293.361 711.864 293.401 712.266 293.48C712.672 293.555 713.036 293.685 713.358 293.872C713.684 294.054 713.946 294.301 714.142 294.614C714.338 294.927 714.436 295.319 714.436 295.79C714.436 296.205 714.349 296.558 714.177 296.847C714.009 297.132 713.787 297.36 713.512 297.533C713.241 297.706 712.952 297.827 712.644 297.897C713.003 297.953 713.351 298.063 713.687 298.226C714.027 298.385 714.307 298.627 714.527 298.954C714.746 299.276 714.856 299.708 714.856 300.249ZM718.672 294.355V297.603H722.242V298.604H718.672V302.027H723.054V303H717.454V293.361H722.928L722.788 294.355H718.672ZM725.989 303V293.361H727.207V301.915H731.603L731.463 303H725.989Z" fill="#1A1B1D"/>
<rect x="558.5" y="256.5" width="89" height="63" rx="11.5" fill="#F5F6F6"/>
<rect x="558.5" y="256.5" width="89" height="63" rx="11.5" stroke="#4D5157"/>
<path d="M593.722 280.333C593.722 280.884 593.584 281.374 593.309 281.803C593.034 282.228 592.635 282.561 592.112 282.804C591.589 283.042 590.952 283.161 590.201 283.161C589.496 283.161 588.857 283.054 588.283 282.839C587.714 282.624 587.226 282.321 586.82 281.929L587.541 281.117C587.877 281.43 588.262 281.679 588.696 281.866C589.13 282.048 589.639 282.139 590.222 282.139C590.614 282.139 590.98 282.076 591.321 281.95C591.662 281.819 591.937 281.623 592.147 281.362C592.357 281.096 592.462 280.76 592.462 280.354C592.462 280.041 592.401 279.775 592.28 279.556C592.159 279.337 591.944 279.143 591.636 278.975C591.328 278.802 590.899 278.634 590.348 278.471C589.713 278.284 589.163 278.074 588.696 277.841C588.234 277.603 587.875 277.311 587.618 276.966C587.366 276.621 587.24 276.194 587.24 275.685C587.24 275.204 587.373 274.777 587.639 274.404C587.905 274.031 588.271 273.739 588.738 273.529C589.209 273.314 589.751 273.207 590.362 273.207C591.029 273.207 591.608 273.303 592.098 273.494C592.593 273.681 593.041 273.951 593.442 274.306L592.728 275.097C592.383 274.789 592.012 274.567 591.615 274.432C591.218 274.292 590.815 274.222 590.404 274.222C590.054 274.222 589.732 274.276 589.438 274.383C589.149 274.486 588.915 274.642 588.738 274.852C588.565 275.057 588.479 275.321 588.479 275.643C588.479 275.918 588.554 276.156 588.703 276.357C588.852 276.558 589.104 276.742 589.459 276.91C589.814 277.073 590.297 277.246 590.908 277.428C591.407 277.573 591.869 277.755 592.294 277.974C592.723 278.189 593.069 278.483 593.33 278.856C593.591 279.225 593.722 279.717 593.722 280.333ZM597.58 274.355V277.603H601.15V278.604H597.58V282.027H601.962V283H596.362V273.361H601.836L601.696 274.355H597.58ZM607.781 274.404V283H606.57V274.404H603.56V273.361H610.833L610.707 274.404H607.781ZM583.911 303V293.361H585.129V301.915H589.525L589.385 303H583.911ZM596.477 300.543H592.662L591.892 303H590.695L593.831 293.361H595.385L598.521 303H597.247L596.477 300.543ZM592.977 299.535H596.162L594.58 294.383L592.977 299.535ZM605.075 300.291C605.075 299.806 604.979 299.432 604.788 299.171C604.601 298.905 604.351 298.721 604.039 298.618C603.726 298.515 603.383 298.464 603.01 298.464H601.365V301.999H602.954C603.192 301.999 603.434 301.976 603.682 301.929C603.929 301.882 604.158 301.798 604.368 301.677C604.582 301.556 604.753 301.385 604.879 301.166C605.009 300.942 605.075 300.65 605.075 300.291ZM604.69 295.853C604.69 295.307 604.519 294.92 604.179 294.691C603.843 294.458 603.383 294.341 602.8 294.341H601.365V297.463H602.919C603.488 297.463 603.924 297.337 604.228 297.085C604.536 296.828 604.69 296.418 604.69 295.853ZM606.356 300.249C606.356 300.772 606.251 301.21 606.041 301.565C605.835 301.92 605.558 302.202 605.208 302.412C604.862 302.622 604.475 302.774 604.046 302.867C603.621 302.956 603.187 303 602.744 303H600.154V293.361H602.527C602.951 293.361 603.364 293.401 603.766 293.48C604.172 293.555 604.536 293.685 604.858 293.872C605.184 294.054 605.446 294.301 605.642 294.614C605.838 294.927 605.936 295.319 605.936 295.79C605.936 296.205 605.849 296.558 605.677 296.847C605.509 297.132 605.287 297.36 605.012 297.533C604.741 297.706 604.452 297.827 604.144 297.897C604.503 297.953 604.851 298.063 605.187 298.226C605.527 298.385 605.807 298.627 606.027 298.954C606.246 299.276 606.356 299.708 606.356 300.249ZM610.172 294.355V297.603H613.742V298.604H610.172V302.027H614.554V303H608.954V293.361H614.428L614.288 294.355H610.172ZM617.489 303V293.361H618.707V301.915H623.103L622.963 303H617.489Z" fill="#1A1B1D"/>
<rect x="445.5" y="256.5" width="98" height="63" rx="11.5" fill="#F5F6F6"/>
<rect x="445.5" y="256.5" width="98" height="63" rx="11.5" stroke="#4D5157"/>
<path d="M475.756 288.135C475.756 287.295 475.668 286.623 475.49 286.119C475.313 285.615 475.08 285.237 474.79 284.985C474.501 284.733 474.184 284.565 473.838 284.481C473.498 284.397 473.162 284.355 472.83 284.355H471.696V292.027H472.844C473.19 292.027 473.533 291.973 473.873 291.866C474.219 291.754 474.534 291.558 474.818 291.278C475.103 290.993 475.329 290.599 475.497 290.095C475.67 289.586 475.756 288.933 475.756 288.135ZM477.051 288.135C477.051 288.938 476.965 289.624 476.792 290.193C476.624 290.758 476.393 291.224 476.099 291.593C475.805 291.962 475.469 292.249 475.091 292.454C474.718 292.655 474.324 292.797 473.908 292.881C473.498 292.96 473.094 293 472.697 293H470.485V283.361H472.543C473.108 283.361 473.656 283.424 474.188 283.55C474.725 283.676 475.208 283.909 475.637 284.25C476.071 284.586 476.414 285.067 476.666 285.692C476.923 286.317 477.051 287.132 477.051 288.135ZM480.686 284.355V287.603H484.256V288.604H480.686V292.027H485.068V293H479.468V283.361H484.942L484.802 284.355H480.686ZM488.002 293V283.361H489.22V291.915H493.616L493.476 293H488.002ZM497.475 284.355V287.603H501.045V288.604H497.475V292.027H501.857V293H496.257V283.361H501.731L501.591 284.355H497.475ZM507.676 284.404V293H506.465V284.404H503.455V283.361H510.728L510.602 284.404H507.676ZM514.264 284.355V287.603H517.834V288.604H514.264V292.027H518.646V293H513.046V283.361H518.52L518.38 284.355H514.264Z" fill="#1A1B1D"/>
<rect x="41.5" y="128.5" width="89" height="63" rx="11.5" fill="#F5F6F6"/>
<rect x="41.5" y="128.5" width="89" height="63" rx="11.5" stroke="#4D5157"/>
<path d="M72.4407 155.361L72.9867 165H71.8177L71.5167 159.967C71.5027 159.626 71.4887 159.281 71.4747 158.931C71.4607 158.581 71.4513 158.245 71.4467 157.923C71.442 157.601 71.4397 157.314 71.4397 157.062C71.4397 156.81 71.4397 156.614 71.4397 156.474L69.8157 163.271H68.5977L66.8547 156.474C66.8593 156.609 66.864 156.81 66.8687 157.076C66.8733 157.337 66.8757 157.634 66.8757 157.965C66.8803 158.296 66.878 158.637 66.8687 158.987C66.864 159.332 66.8547 159.654 66.8407 159.953L66.5817 165H65.4407L65.9867 155.361H67.6807L69.2417 161.962L70.7327 155.361H72.4407ZM79.4772 162.543H75.6622L74.8922 165H73.6952L76.8312 155.361H78.3852L81.5212 165H80.2472L79.4772 162.543ZM75.9772 161.535H79.1622L77.5802 156.383L75.9772 161.535ZM86.5837 156.404V165H85.3727V156.404H82.3627V155.361H89.6357L89.5097 156.404H86.5837ZM95.2093 155.207C95.8393 155.207 96.3666 155.286 96.7913 155.445C97.2159 155.604 97.6196 155.837 98.0023 156.145L97.3233 156.936C97.0199 156.679 96.6979 156.497 96.3573 156.39C96.0213 156.278 95.6689 156.222 95.3003 156.222C94.7729 156.222 94.2853 156.348 93.8373 156.6C93.3893 156.847 93.0276 157.26 92.7523 157.839C92.4816 158.413 92.3463 159.192 92.3463 160.177C92.3463 161.134 92.4746 161.901 92.7313 162.48C92.9926 163.059 93.3449 163.476 93.7883 163.733C94.2316 163.99 94.7263 164.118 95.2723 164.118C95.8136 164.118 96.2569 164.036 96.6023 163.873C96.9523 163.71 97.2556 163.523 97.5123 163.313L98.1423 164.111C97.8483 164.396 97.4656 164.643 96.9943 164.853C96.5229 165.058 95.9443 165.161 95.2583 165.161C94.4789 165.161 93.7719 164.97 93.1373 164.587C92.5073 164.204 92.0079 163.644 91.6393 162.907C91.2706 162.165 91.0863 161.255 91.0863 160.177C91.0863 159.094 91.2729 158.184 91.6463 157.447C92.0243 156.71 92.5259 156.152 93.1513 155.774C93.7813 155.396 94.4673 155.207 95.2093 155.207ZM104.612 165V160.429H100.972V165H99.7608V155.361H100.972V159.435H104.612V155.361H105.823V165H104.612Z" fill="#1A1B1D"/>
<rect x="0.5" y="256.5" width="81" height="63" rx="11.5" fill="#F5F6F6"/>
<rect x="0.5" y="256.5" width="81" height="63" rx="11.5" stroke="#4D5157"/>
<path d="M12.2029 284.404V293H10.9919V284.404H7.98188V283.361H15.2549L15.1289 284.404H12.2029ZM23.3414 286.063C23.3414 286.544 23.2364 286.964 23.0264 287.323C22.8211 287.682 22.5411 287.979 22.1864 288.212C21.8317 288.445 21.4327 288.616 20.9894 288.723L23.8454 293H22.3894L19.7574 288.863H18.4554V293H17.2374V283.361H19.7154C20.9054 283.361 21.8061 283.59 22.4174 284.047C23.0334 284.5 23.3414 285.172 23.3414 286.063ZM22.0394 286.063C22.0394 285.442 21.8621 284.999 21.5074 284.733C21.1527 284.462 20.6021 284.327 19.8554 284.327H18.4554V287.911H19.8554C20.5461 287.911 21.0827 287.771 21.4654 287.491C21.8481 287.206 22.0394 286.73 22.0394 286.063ZM30.2799 290.543H26.4649L25.6949 293H24.4979L27.6339 283.361H29.1879L32.3239 293H31.0499L30.2799 290.543ZM26.7799 289.535H29.9649L28.3829 284.383L26.7799 289.535ZM36.8335 291.621L39.4375 283.361H40.6625L37.4355 293H36.1755L32.9485 283.361H34.2575L36.8335 291.621ZM43.975 284.355V287.603H47.545V288.604H43.975V292.027H48.357V293H42.757V283.361H48.231L48.091 284.355H43.975ZM56.9195 286.063C56.9195 286.544 56.8145 286.964 56.6045 287.323C56.3992 287.682 56.1192 287.979 55.7645 288.212C55.4099 288.445 55.0109 288.616 54.5675 288.723L57.4235 293H55.9675L53.3355 288.863H52.0335V293H50.8155V283.361H53.2935C54.4835 283.361 55.3842 283.59 55.9955 284.047C56.6115 284.5 56.9195 285.172 56.9195 286.063ZM55.6175 286.063C55.6175 285.442 55.4402 284.999 55.0855 284.733C54.7309 284.462 54.1802 284.327 53.4335 284.327H52.0335V287.911H53.4335C54.1242 287.911 54.6609 287.771 55.0435 287.491C55.4262 287.206 55.6175 286.73 55.6175 286.063ZM65.3001 290.333C65.3001 290.884 65.1624 291.374 64.8871 291.803C64.6117 292.228 64.2127 292.561 63.6901 292.804C63.1674 293.042 62.5304 293.161 61.7791 293.161C61.0744 293.161 60.4351 293.054 59.8611 292.839C59.2917 292.624 58.8041 292.321 58.3981 291.929L59.1191 291.117C59.4551 291.43 59.8401 291.679 60.2741 291.866C60.7081 292.048 61.2167 292.139 61.8001 292.139C62.1921 292.139 62.5584 292.076 62.8991 291.95C63.2397 291.819 63.5151 291.623 63.7251 291.362C63.9351 291.096 64.0401 290.76 64.0401 290.354C64.0401 290.041 63.9794 289.775 63.8581 289.556C63.7367 289.337 63.5221 289.143 63.2141 288.975C62.9061 288.802 62.4767 288.634 61.9261 288.471C61.2914 288.284 60.7407 288.074 60.2741 287.841C59.8121 287.603 59.4527 287.311 59.1961 286.966C58.9441 286.621 58.8181 286.194 58.8181 285.685C58.8181 285.204 58.9511 284.777 59.2171 284.404C59.4831 284.031 59.8494 283.739 60.3161 283.529C60.7874 283.314 61.3287 283.207 61.9401 283.207C62.6074 283.207 63.1861 283.303 63.6761 283.494C64.1707 283.681 64.6187 283.951 65.0201 284.306L64.3061 285.097C63.9607 284.789 63.5897 284.567 63.1931 284.432C62.7964 284.292 62.3927 284.222 61.9821 284.222C61.6321 284.222 61.3101 284.276 61.0161 284.383C60.7267 284.486 60.4934 284.642 60.3161 284.852C60.1434 285.057 60.0571 285.321 60.0571 285.643C60.0571 285.918 60.1317 286.156 60.2811 286.357C60.4304 286.558 60.6824 286.742 61.0371 286.91C61.3917 287.073 61.8747 287.246 62.4861 287.428C62.9854 287.573 63.4474 287.755 63.8721 287.974C64.3014 288.189 64.6467 288.483 64.9081 288.856C65.1694 289.225 65.3001 289.717 65.3001 290.333ZM69.1586 284.355V287.603H72.7286V288.604H69.1586V292.027H73.5406V293H67.9406V283.361H73.4146L73.2746 284.355H69.1586Z" fill="#1A1B1D"/>
<rect x="90.5" y="256.5" width="81" height="63" rx="11.5" fill="#F5F6F6"/>
<rect x="90.5" y="256.5" width="81" height="63" rx="11.5" stroke="#4D5157"/>
<path d="M121.736 286.063C121.736 286.544 121.631 286.964 121.421 287.323C121.216 287.682 120.936 287.979 120.581 288.212C120.226 288.445 119.827 288.616 119.384 288.723L122.24 293H120.784L118.152 288.863H116.85V293H115.632V283.361H118.11C119.3 283.361 120.201 283.59 120.812 284.047C121.428 284.5 121.736 285.172 121.736 286.063ZM120.434 286.063C120.434 285.442 120.257 284.999 119.902 284.733C119.547 284.462 118.997 284.327 118.25 284.327H116.85V287.911H118.25C118.941 287.911 119.477 287.771 119.86 287.491C120.243 287.206 120.434 286.73 120.434 286.063ZM125.58 284.355V287.603H129.15V288.604H125.58V292.027H129.962V293H124.362V283.361H129.836L129.696 284.355H125.58ZM137.069 290.543H133.254L132.484 293H131.287L134.423 283.361H135.977L139.113 293H137.839L137.069 290.543ZM133.569 289.535H136.754L135.172 284.383L133.569 289.535ZM145.835 288.135C145.835 287.295 145.746 286.623 145.569 286.119C145.391 285.615 145.158 285.237 144.869 284.985C144.579 284.733 144.262 284.565 143.917 284.481C143.576 284.397 143.24 284.355 142.909 284.355H141.775V292.027H142.923C143.268 292.027 143.611 291.973 143.952 291.866C144.297 291.754 144.612 291.558 144.897 291.278C145.181 290.993 145.408 290.599 145.576 290.095C145.748 289.586 145.835 288.933 145.835 288.135ZM147.13 288.135C147.13 288.938 147.043 289.624 146.871 290.193C146.703 290.758 146.472 291.224 146.178 291.593C145.884 291.962 145.548 292.249 145.17 292.454C144.796 292.655 144.402 292.797 143.987 292.881C143.576 292.96 143.172 293 142.776 293H140.564V283.361H142.622C143.186 283.361 143.735 283.424 144.267 283.55C144.803 283.676 145.286 283.909 145.716 284.25C146.15 284.586 146.493 285.067 146.745 285.692C147.001 286.317 147.13 287.132 147.13 288.135Z" fill="#1A1B1D"/>
<rect x="202.5" y="256.5" width="115" height="63" rx="11.5" fill="#F5F6F6"/>
<rect x="202.5" y="256.5" width="115" height="63" rx="11.5" stroke="#4D5157"/>
<path d="M254.919 280.333C254.919 280.884 254.782 281.374 254.506 281.803C254.231 282.228 253.832 282.561 253.309 282.804C252.787 283.042 252.15 283.161 251.398 283.161C250.694 283.161 250.054 283.054 249.48 282.839C248.911 282.624 248.423 282.321 248.017 281.929L248.738 281.117C249.074 281.43 249.459 281.679 249.893 281.866C250.327 282.048 250.836 282.139 251.419 282.139C251.811 282.139 252.178 282.076 252.518 281.95C252.859 281.819 253.134 281.623 253.344 281.362C253.554 281.096 253.659 280.76 253.659 280.354C253.659 280.041 253.599 279.775 253.477 279.556C253.356 279.337 253.141 279.143 252.833 278.975C252.525 278.802 252.096 278.634 251.545 278.471C250.911 278.284 250.36 278.074 249.893 277.841C249.431 277.603 249.072 277.311 248.815 276.966C248.563 276.621 248.437 276.194 248.437 275.685C248.437 275.204 248.57 274.777 248.836 274.404C249.102 274.031 249.469 273.739 249.935 273.529C250.407 273.314 250.948 273.207 251.559 273.207C252.227 273.207 252.805 273.303 253.295 273.494C253.79 273.681 254.238 273.951 254.639 274.306L253.925 275.097C253.58 274.789 253.209 274.567 252.812 274.432C252.416 274.292 252.012 274.222 251.601 274.222C251.251 274.222 250.929 274.276 250.635 274.383C250.346 274.486 250.113 274.642 249.935 274.852C249.763 275.057 249.676 275.321 249.676 275.643C249.676 275.918 249.751 276.156 249.9 276.357C250.05 276.558 250.302 276.742 250.656 276.91C251.011 277.073 251.494 277.246 252.105 277.428C252.605 277.573 253.067 277.755 253.491 277.974C253.921 278.189 254.266 278.483 254.527 278.856C254.789 279.225 254.919 279.717 254.919 280.333ZM258.778 274.355V277.603H262.348V278.604H258.778V282.027H263.16V283H257.56V273.361H263.034L262.894 274.355H258.778ZM268.978 274.404V283H267.767V274.404H264.757V273.361H272.03L271.904 274.404H268.978ZM232.918 296.336C232.918 295.837 232.82 295.442 232.624 295.153C232.428 294.859 232.16 294.649 231.819 294.523C231.478 294.392 231.089 294.327 230.65 294.327H229.257V298.443H230.601C231.054 298.443 231.453 298.382 231.798 298.261C232.143 298.135 232.416 297.92 232.617 297.617C232.818 297.309 232.918 296.882 232.918 296.336ZM234.22 296.322C234.22 297.073 234.059 297.675 233.737 298.128C233.42 298.581 232.981 298.91 232.421 299.115C231.861 299.32 231.217 299.423 230.489 299.423H229.257V303H228.039V293.361H230.503C231.651 293.361 232.556 293.604 233.219 294.089C233.886 294.57 234.22 295.314 234.22 296.322ZM242.341 296.063C242.341 296.544 242.236 296.964 242.026 297.323C241.821 297.682 241.541 297.979 241.186 298.212C240.832 298.445 240.433 298.616 239.989 298.723L242.845 303H241.389L238.757 298.863H237.455V303H236.237V293.361H238.715C239.905 293.361 240.806 293.59 241.417 294.047C242.033 294.5 242.341 295.172 242.341 296.063ZM241.039 296.063C241.039 295.442 240.862 294.999 240.507 294.733C240.153 294.462 239.602 294.327 238.855 294.327H237.455V297.911H238.855C239.546 297.911 240.083 297.771 240.465 297.491C240.848 297.206 241.039 296.73 241.039 296.063ZM250.96 298.191C250.96 299.162 250.827 300.023 250.561 300.774C250.3 301.521 249.905 302.106 249.378 302.531C248.851 302.951 248.195 303.161 247.411 303.161C246.632 303.161 245.976 302.956 245.444 302.545C244.917 302.13 244.52 301.551 244.254 300.809C243.993 300.067 243.862 299.199 243.862 298.205C243.862 297.23 243.993 296.366 244.254 295.615C244.52 294.864 244.917 294.276 245.444 293.851C245.976 293.422 246.632 293.207 247.411 293.207C248.195 293.207 248.851 293.415 249.378 293.83C249.905 294.245 250.3 294.826 250.561 295.573C250.827 296.32 250.96 297.192 250.96 298.191ZM249.686 298.191C249.686 296.908 249.509 295.925 249.154 295.244C248.804 294.563 248.223 294.222 247.411 294.222C246.599 294.222 246.016 294.565 245.661 295.251C245.311 295.937 245.136 296.922 245.136 298.205C245.136 299.488 245.318 300.466 245.682 301.138C246.046 301.805 246.622 302.139 247.411 302.139C248.223 302.139 248.804 301.803 249.154 301.131C249.509 300.454 249.686 299.474 249.686 298.191ZM258.101 296.336C258.101 295.837 258.003 295.442 257.807 295.153C257.611 294.859 257.343 294.649 257.002 294.523C256.662 294.392 256.272 294.327 255.833 294.327H254.44V298.443H255.784C256.237 298.443 256.636 298.382 256.981 298.261C257.327 298.135 257.6 297.92 257.8 297.617C258.001 297.309 258.101 296.882 258.101 296.336ZM259.403 296.322C259.403 297.073 259.242 297.675 258.92 298.128C258.603 298.581 258.164 298.91 257.604 299.115C257.044 299.32 256.4 299.423 255.672 299.423H254.44V303H253.222V293.361H255.686C256.834 293.361 257.74 293.604 258.402 294.089C259.07 294.57 259.403 295.314 259.403 296.322ZM262.975 294.355V297.603H266.545V298.604H262.975V302.027H267.357V303H261.757V293.361H267.231L267.091 294.355H262.975ZM275.92 296.063C275.92 296.544 275.815 296.964 275.605 297.323C275.399 297.682 275.119 297.979 274.765 298.212C274.41 298.445 274.011 298.616 273.568 298.723L276.424 303H274.968L272.336 298.863H271.034V303H269.816V293.361H272.294C273.484 293.361 274.384 293.59 274.996 294.047C275.612 294.5 275.92 295.172 275.92 296.063ZM274.618 296.063C274.618 295.442 274.44 294.999 274.086 294.733C273.731 294.462 273.18 294.327 272.434 294.327H271.034V297.911H272.434C273.124 297.911 273.661 297.771 274.044 297.491C274.426 297.206 274.618 296.73 274.618 296.063ZM281.57 294.404V303H280.359V294.404H277.349V293.361H284.622L284.496 294.404H281.57ZM290 299.283V303H288.768V299.297L285.513 293.361H286.857L289.412 298.191L291.995 293.361H293.255L290 299.283Z" fill="#1A1B1D"/>
<rect x="558.5" y="128.5" width="89" height="63" rx="11.5" fill="#F5F6F6"/>
<rect x="558.5" y="128.5" width="89" height="63" rx="11.5" stroke="#4D5157"/>
<path d="M590.351 155.361L588.881 165H587.285L586.179 157.727L585.066 165H583.435L582.077 155.361H583.295L584.324 163.663L585.479 156.481H586.97L588.069 163.663L589.224 155.361H590.351ZM597.933 158.063C597.933 158.544 597.828 158.964 597.618 159.323C597.413 159.682 597.133 159.979 596.778 160.212C596.424 160.445 596.025 160.616 595.581 160.723L598.437 165H596.981L594.349 160.863H593.047V165H591.829V155.361H594.307C595.497 155.361 596.398 155.59 597.009 156.047C597.625 156.5 597.933 157.172 597.933 158.063ZM596.631 158.063C596.631 157.442 596.454 156.999 596.099 156.733C595.745 156.462 595.194 156.327 594.447 156.327H593.047V159.911H594.447C595.138 159.911 595.675 159.771 596.057 159.491C596.44 159.206 596.631 158.73 596.631 158.063ZM605.761 155.361V156.334H603.619V164.027H605.761V165H600.245V164.027H602.387V156.334H600.245V155.361H605.761ZM611.978 156.404V165H610.767V156.404H607.757V155.361H615.03L614.904 156.404H611.978ZM618.567 156.355V159.603H622.137V160.604H618.567V164.027H622.949V165H617.349V155.361H622.823L622.683 156.355H618.567Z" fill="#1A1B1D"/>
<path d="M381.646 125.354C381.842 125.549 382.158 125.549 382.354 125.354L385.536 122.172C385.731 121.976 385.731 121.66 385.536 121.464C385.34 121.269 385.024 121.269 384.828 121.464L382 124.293L379.172 121.464C378.976 121.269 378.66 121.269 378.464 121.464C378.269 121.66 378.269 121.976 378.464 122.172L381.646 125.354ZM382 125H382.5V67H382H381.5V125H382Z" fill="black" fill-opacity="0.8"/>
<path d="M602.646 125.354C602.842 125.549 603.158 125.549 603.354 125.354L606.536 122.172C606.731 121.976 606.731 121.66 606.536 121.464C606.34 121.269 606.024 121.269 605.828 121.464L603 124.293L600.172 121.464C599.976 121.269 599.66 121.269 599.464 121.464C599.269 121.66 599.269 121.976 599.464 122.172L602.646 125.354ZM603 125H603.5V120H603H602.5V125H603ZM579 96V95.5H406V96V96.5H579V96ZM382 72H382.5V67H382H381.5V72H382ZM406 96V95.5C393.021 95.5 382.5 84.9787 382.5 72H382H381.5C381.5 85.531 392.469 96.5 406 96.5V96ZM603 120H603.5C603.5 106.469 592.531 95.5 579 95.5V96V96.5C591.979 96.5 602.5 107.021 602.5 120H603Z" fill="black" fill-opacity="0.8"/>
<path d="M85.6464 125.354C85.8417 125.549 86.1583 125.549 86.3536 125.354L89.5355 122.172C89.7308 121.976 89.7308 121.66 89.5355 121.464C89.3403 121.269 89.0237 121.269 88.8284 121.464L86 124.293L83.1716 121.464C82.9763 121.269 82.6597 121.269 82.4645 121.464C82.2692 121.66 82.2692 121.976 82.4645 122.172L85.6464 125.354ZM86 125H86.5V120H86H85.5V125H86ZM110 96V96.5H358V96V95.5H110V96ZM382 72H382.5V67H382H381.5V72H382ZM358 96V96.5C371.531 96.5 382.5 85.531 382.5 72H382H381.5C381.5 84.9787 370.979 95.5 358 95.5V96ZM86 120H86.5C86.5 107.021 97.0213 96.5 110 96.5V96V95.5C96.469 95.5 85.5 106.469 85.5 120H86Z" fill="black" fill-opacity="0.8"/>
<path d="M52.7943 253.386C52.9138 253.635 53.2124 253.74 53.4614 253.621L57.5186 251.674C57.7676 251.555 57.8726 251.256 57.7531 251.007C57.6337 250.758 57.335 250.653 57.0861 250.772L53.4796 252.503L51.7494 248.896C51.6299 248.647 51.3313 248.542 51.0823 248.662C50.8333 248.781 50.7283 249.08 50.8478 249.329L52.7943 253.386ZM53.2451 253.17L53.7168 253.336L74.2268 194.996L73.7551 194.83L73.2834 194.664L52.7734 253.004L53.2451 253.17Z" fill="black" fill-opacity="0.8"/>
<path d="M129.557 253.754C129.816 253.848 130.103 253.713 130.197 253.454L131.728 249.222C131.822 248.962 131.687 248.676 131.428 248.582C131.168 248.488 130.881 248.622 130.787 248.882L129.427 252.643L125.665 251.283C125.406 251.189 125.119 251.323 125.025 251.583C124.931 251.843 125.065 252.129 125.325 252.223L129.557 253.754ZM129.727 253.284L130.18 253.071L102.726 194.504L102.273 194.716L101.821 194.929L129.274 253.496L129.727 253.284Z" fill="black" fill-opacity="0.8"/>
<path d="M259.646 253.354C259.842 253.549 260.158 253.549 260.354 253.354L263.536 250.172C263.731 249.976 263.731 249.66 263.536 249.464C263.34 249.269 263.024 249.269 262.828 249.464L260 252.293L257.172 249.464C256.976 249.269 256.66 249.269 256.464 249.464C256.269 249.66 256.269 249.976 256.464 250.172L259.646 253.354ZM260 253H260.5V164H260H259.5V253H260ZM264 160V160.5H334V160V159.5H264V160ZM260 164H260.5C260.5 162.067 262.067 160.5 264 160.5V160V159.5C261.515 159.5 259.5 161.515 259.5 164H260Z" fill="black" fill-opacity="0.8"/>
<path d="M381.646 253.354C381.842 253.549 382.158 253.549 382.354 253.354L385.536 250.172C385.731 249.976 385.731 249.66 385.536 249.464C385.34 249.269 385.024 249.269 384.828 249.464L382 252.293L379.172 249.464C378.976 249.269 378.66 249.269 378.464 249.464C378.269 249.66 378.269 249.976 378.464 250.172L381.646 253.354ZM382 253H382.5V195H382H381.5V253H382Z" fill="black" fill-opacity="0.8"/>
<path d="M259.646 253.354C259.842 253.549 260.158 253.549 260.354 253.354L263.536 250.172C263.731 249.976 263.731 249.66 263.536 249.464C263.34 249.269 263.024 249.269 262.828 249.464L260 252.293L257.172 249.464C256.976 249.269 256.66 249.269 256.464 249.464C256.269 249.66 256.269 249.976 256.464 250.172L259.646 253.354ZM260 253H260.5V228H260H259.5V253H260ZM264 224V224.5H599V224V223.5H264V224ZM603 220H603.5V195H603H602.5V220H603ZM599 224V224.5C601.485 224.5 603.5 222.485 603.5 220H603H602.5C602.5 221.933 600.933 223.5 599 223.5V224ZM260 228H260.5C260.5 226.067 262.067 224.5 264 224.5V224V223.5C261.515 223.5 259.5 225.515 259.5 228H260Z" fill="black" fill-opacity="0.8"/>
<path d="M711.146 253.354C711.342 253.549 711.658 253.549 711.854 253.354L715.036 250.172C715.231 249.976 715.231 249.66 715.036 249.464C714.84 249.269 714.524 249.269 714.328 249.464L711.5 252.293L708.672 249.464C708.476 249.269 708.16 249.269 707.964 249.464C707.769 249.66 707.769 249.976 707.964 250.172L711.146 253.354ZM711.5 253H712V228H711.5H711V253H711.5ZM707.5 224V223.5H607V224V224.5H707.5V224ZM603 220H603.5V195H603H602.5V220H603ZM607 224V223.5C605.067 223.5 603.5 221.933 603.5 220H603H602.5C602.5 222.485 604.515 224.5 607 224.5V224ZM711.5 228H712C712 225.515 709.985 223.5 707.5 223.5V224V224.5C709.433 224.5 711 226.067 711 228H711.5Z" fill="black" fill-opacity="0.8"/>
<path d="M602.646 253.354C602.842 253.549 603.158 253.549 603.354 253.354L606.536 250.172C606.731 249.976 606.731 249.66 606.536 249.464C606.34 249.269 606.024 249.269 605.828 249.464L603 252.293L600.172 249.464C599.976 249.269 599.66 249.269 599.464 249.464C599.269 249.66 599.269 249.976 599.464 250.172L602.646 253.354ZM603 253H603.5V195H603H602.5V253H603Z" fill="black" fill-opacity="0.8"/>
<path d="M530.953 255.646C530.758 255.842 530.758 256.158 530.953 256.354L534.135 259.536C534.33 259.731 534.647 259.731 534.842 259.536C535.037 259.34 535.037 259.024 534.842 258.828L532.014 256L534.842 253.172C535.037 252.976 535.037 252.66 534.842 252.464C534.647 252.269 534.33 252.269 534.135 252.464L530.953 255.646ZM531.307 256V256.5H599V256V255.5H531.307V256ZM603 252H603.5V195H603H602.5V252H603ZM599 256V256.5C601.485 256.5 603.5 254.485 603.5 252H603H602.5C602.5 253.933 600.933 255.5 599 255.5V256Z" fill="black" fill-opacity="0.8"/>
<path d="M381.146 253.354C381.342 253.549 381.658 253.549 381.854 253.354L385.036 250.172C385.231 249.976 385.231 249.66 385.036 249.464C384.84 249.269 384.524 249.269 384.328 249.464L381.5 252.293L378.672 249.464C378.476 249.269 378.16 249.269 377.964 249.464C377.769 249.66 377.769 249.976 377.964 250.172L381.146 253.354ZM381.5 253H382V228H381.5H381V253H381.5ZM385.5 224V224.5H599V224V223.5H385.5V224ZM603 220H603.5V195H603H602.5V220H603ZM599 224V224.5C601.485 224.5 603.5 222.485 603.5 220H603H602.5C602.5 221.933 600.933 223.5 599 223.5V224ZM381.5 228H382C382 226.067 383.567 224.5 385.5 224.5V224V223.5C383.015 223.5 381 225.515 381 228H381.5Z" fill="black" fill-opacity="0.8"/>
</svg>
