<svg width="820" height="90" viewBox="0 0 820 90" fill="none" xmlns="http://www.w3.org/2000/svg">
<rect x="122.5" y="0.5" width="123" height="66.5962" rx="11.5" fill="#F5F6F6"/>
<rect x="122.5" y="0.5" width="123" height="66.5962" rx="11.5" stroke="#4D5157"/>
<path d="M153.183 29.1591V30.1321H151.041V37.8251H153.183V38.7981H147.667V37.8251H149.809V30.1321H147.667V29.1591H153.183ZM162.046 29.1591L162.592 38.7981H161.423L161.122 33.7651C161.108 33.4244 161.094 33.0791 161.08 32.7291C161.066 32.3791 161.057 32.0431 161.052 31.7211C161.047 31.3991 161.045 31.1121 161.045 30.8601C161.045 30.6081 161.045 30.4121 161.045 30.2721L159.421 37.0691H158.203L156.46 30.2721C156.465 30.4074 156.469 30.6081 156.474 30.8741C156.479 31.1354 156.481 31.4318 156.481 31.7631C156.486 32.0944 156.483 32.4351 156.474 32.7851C156.469 33.1304 156.46 33.4524 156.446 33.7511L156.187 38.7981H155.046L155.592 29.1591H157.286L158.847 35.7601L160.338 29.1591H162.046ZM170.441 29.1591L170.987 38.7981H169.818L169.517 33.7651C169.503 33.4244 169.489 33.0791 169.475 32.7291C169.461 32.3791 169.451 32.0431 169.447 31.7211C169.442 31.3991 169.44 31.1121 169.44 30.8601C169.44 30.6081 169.44 30.4121 169.44 30.2721L167.816 37.0691H166.598L164.855 30.2721C164.859 30.4074 164.864 30.6081 164.869 30.8741C164.873 31.1354 164.876 31.4318 164.876 31.7631C164.88 32.0944 164.878 32.4351 164.869 32.7851C164.864 33.1304 164.855 33.4524 164.841 33.7511L164.582 38.7981H163.441L163.987 29.1591H165.681L167.242 35.7601L168.733 29.1591H170.441ZM178.793 29.1591V35.6761C178.793 36.3248 178.66 36.8964 178.394 37.3911C178.133 37.8858 177.762 38.2708 177.281 38.5461C176.805 38.8214 176.243 38.9591 175.594 38.9591C174.932 38.9591 174.362 38.8214 173.886 38.5461C173.415 38.2661 173.053 37.8788 172.801 37.3841C172.549 36.8894 172.423 36.3201 172.423 35.6761V29.1591H173.627V35.7181C173.627 36.4508 173.798 36.9991 174.138 37.3631C174.484 37.7271 174.969 37.9091 175.594 37.9091C176.224 37.9091 176.71 37.7271 177.05 37.3631C177.396 36.9991 177.568 36.4508 177.568 35.7181V29.1591H178.793ZM184.584 30.2021V38.7981H183.373V30.2021H180.363V29.1591H187.636L187.51 30.2021H184.584ZM194.266 36.3411H190.451L189.681 38.7981H188.484L191.62 29.1591H193.174L196.31 38.7981H195.036L194.266 36.3411ZM190.766 35.3331H193.951L192.369 30.1811L190.766 35.3331ZM202.864 36.0891C202.864 35.6038 202.768 35.2304 202.577 34.9691C202.39 34.7031 202.14 34.5188 201.828 34.4161C201.515 34.3134 201.172 34.2621 200.799 34.2621H199.154V37.7971H200.743C200.981 37.7971 201.223 37.7738 201.471 37.7271C201.718 37.6804 201.947 37.5964 202.157 37.4751C202.371 37.3538 202.542 37.1834 202.668 36.9641C202.798 36.7401 202.864 36.4484 202.864 36.0891ZM202.479 31.6511C202.479 31.1051 202.308 30.7178 201.968 30.4891C201.632 30.2558 201.172 30.1391 200.589 30.1391H199.154V33.2611H200.708C201.277 33.2611 201.713 33.1351 202.017 32.8831C202.325 32.6264 202.479 32.2158 202.479 31.6511ZM204.145 36.0471C204.145 36.5698 204.04 37.0084 203.83 37.3631C203.624 37.7178 203.347 38.0001 202.997 38.2101C202.651 38.4201 202.264 38.5718 201.835 38.6651C201.41 38.7538 200.976 38.7981 200.533 38.7981H197.943V29.1591H200.316C200.74 29.1591 201.153 29.1988 201.555 29.2781C201.961 29.3528 202.325 29.4834 202.647 29.6701C202.973 29.8521 203.235 30.0994 203.431 30.4121C203.627 30.7248 203.725 31.1168 203.725 31.5881C203.725 32.0034 203.638 32.3558 203.466 32.6451C203.298 32.9298 203.076 33.1584 202.801 33.3311C202.53 33.5038 202.241 33.6251 201.933 33.6951C202.292 33.7511 202.64 33.8608 202.976 34.0241C203.316 34.1828 203.596 34.4254 203.816 34.7521C204.035 35.0741 204.145 35.5058 204.145 36.0471ZM206.883 38.7981V29.1591H208.101V37.7131H212.497L212.357 38.7981H206.883ZM216.356 30.1531V33.4011H219.926V34.4021H216.356V37.8251H220.738V38.7981H215.138V29.1591H220.612L220.472 30.1531H216.356Z" fill="#1A1B1D"/>
<rect x="506.5" y="0.5" width="123" height="67" rx="11.5" fill="#F5F6F6"/>
<rect x="506.5" y="0.5" width="123" height="67" rx="11.5" stroke="#4D5157"/>
<path d="M540.491 26.543H536.676L535.906 29H534.709L537.845 19.361H539.399L542.535 29H541.261L540.491 26.543ZM536.991 25.535H540.176L538.594 20.383L536.991 25.535ZM544.713 29V19.361H545.931V27.915H550.327L550.187 29H544.713ZM553.108 29V19.361H554.326V27.915H558.722L558.582 29H553.108ZM574.44 24.135C574.44 23.295 574.351 22.623 574.174 22.119C573.997 21.615 573.763 21.237 573.474 20.985C573.185 20.733 572.867 20.565 572.522 20.481C572.181 20.397 571.845 20.355 571.514 20.355H570.38V28.027H571.528C571.873 28.027 572.216 27.9733 572.557 27.866C572.902 27.754 573.217 27.558 573.502 27.278C573.787 26.9933 574.013 26.599 574.181 26.095C574.354 25.5863 574.44 24.933 574.44 24.135ZM575.735 24.135C575.735 24.9377 575.649 25.6237 575.476 26.193C575.308 26.7577 575.077 27.2243 574.783 27.593C574.489 27.9617 574.153 28.2487 573.775 28.454C573.402 28.6547 573.007 28.797 572.592 28.881C572.181 28.9603 571.778 29 571.381 29H569.169V19.361H571.227C571.792 19.361 572.34 19.424 572.872 19.55C573.409 19.676 573.892 19.9093 574.321 20.25C574.755 20.586 575.098 21.0667 575.35 21.692C575.607 22.3173 575.735 23.1317 575.735 24.135ZM582.464 26.543H578.649L577.879 29H576.682L579.818 19.361H581.372L584.508 29H583.234L582.464 26.543ZM578.964 25.535H582.149L580.567 20.383L578.964 25.535ZM589.57 20.404V29H588.359V20.404H585.349V19.361H592.622L592.496 20.404H589.57ZM599.253 26.543H595.438L594.668 29H593.471L596.607 19.361H598.161L601.297 29H600.023L599.253 26.543ZM595.753 25.535H598.938L597.356 20.383L595.753 25.535ZM535.237 39.207C535.867 39.207 536.394 39.2863 536.819 39.445C537.243 39.6037 537.647 39.837 538.03 40.145L537.351 40.936C537.047 40.6793 536.725 40.4973 536.385 40.39C536.049 40.278 535.696 40.222 535.328 40.222C534.8 40.222 534.313 40.348 533.865 40.6C533.417 40.8473 533.055 41.2603 532.78 41.839C532.509 42.413 532.374 43.1923 532.374 44.177C532.374 45.1337 532.502 45.9013 532.759 46.48C533.02 47.0587 533.372 47.4763 533.816 47.733C534.259 47.9897 534.754 48.118 535.3 48.118C535.841 48.118 536.284 48.0363 536.63 47.873C536.98 47.7097 537.283 47.523 537.54 47.313L538.17 48.111C537.876 48.3957 537.493 48.643 537.022 48.853C536.55 49.0583 535.972 49.161 535.286 49.161C534.506 49.161 533.799 48.9697 533.165 48.587C532.535 48.2043 532.035 47.6443 531.667 46.907C531.298 46.165 531.114 45.255 531.114 44.177C531.114 43.0943 531.3 42.1843 531.674 41.447C532.052 40.7097 532.553 40.152 533.179 39.774C533.809 39.396 534.495 39.207 535.237 39.207ZM545.577 39.361V40.334H543.435V48.027H545.577V49H540.061V48.027H542.203V40.334H540.061V39.361H545.577ZM553.454 44.135C553.454 43.295 553.365 42.623 553.188 42.119C553.01 41.615 552.777 41.237 552.488 40.985C552.198 40.733 551.881 40.565 551.536 40.481C551.195 40.397 550.859 40.355 550.528 40.355H549.394V48.027H550.542C550.887 48.027 551.23 47.9733 551.571 47.866C551.916 47.754 552.231 47.558 552.516 47.278C552.8 46.9933 553.027 46.599 553.195 46.095C553.367 45.5863 553.454 44.933 553.454 44.135ZM554.749 44.135C554.749 44.9377 554.662 45.6237 554.49 46.193C554.322 46.7577 554.091 47.2243 553.797 47.593C553.503 47.9617 553.167 48.2487 552.789 48.454C552.415 48.6547 552.021 48.797 551.606 48.881C551.195 48.9603 550.791 49 550.395 49H548.183V39.361H550.241C550.805 39.361 551.354 39.424 551.886 39.55C552.422 39.676 552.905 39.9093 553.335 40.25C553.769 40.586 554.112 41.0667 554.364 41.692C554.62 42.3173 554.749 43.1317 554.749 44.135ZM562.933 42.063C562.933 42.5437 562.828 42.9637 562.618 43.323C562.413 43.6823 562.133 43.9787 561.778 44.212C561.424 44.4453 561.025 44.6157 560.581 44.723L563.437 49H561.981L559.349 44.863H558.047V49H556.829V39.361H559.307C560.497 39.361 561.398 39.5897 562.009 40.047C562.625 40.4997 562.933 41.1717 562.933 42.063ZM561.631 42.063C561.631 41.4423 561.454 40.999 561.099 40.733C560.745 40.4623 560.194 40.327 559.447 40.327H558.047V43.911H559.447C560.138 43.911 560.675 43.771 561.057 43.491C561.44 43.2063 561.631 42.7303 561.631 42.063ZM576.936 48.146C577.305 48.146 577.648 48.0853 577.965 47.964C578.287 47.8427 578.584 47.6887 578.854 47.502L579.428 48.272C579.106 48.5473 578.719 48.7643 578.266 48.923C577.814 49.0817 577.37 49.161 576.936 49.161C576.204 49.161 575.578 49.0047 575.06 48.692C574.547 48.3747 574.155 47.9313 573.884 47.362C573.614 46.788 573.478 46.116 573.478 45.346C573.478 44.6087 573.614 43.9483 573.884 43.365C574.16 42.777 574.554 42.315 575.067 41.979C575.585 41.643 576.213 41.475 576.95 41.475C577.422 41.475 577.863 41.5473 578.273 41.692C578.689 41.832 579.069 42.0443 579.414 42.329L578.84 43.113C578.528 42.8937 578.213 42.7303 577.895 42.623C577.583 42.511 577.263 42.455 576.936 42.455C576.302 42.455 575.779 42.693 575.368 43.169C574.958 43.645 574.752 44.3707 574.752 45.346C574.752 45.9993 574.846 46.5337 575.032 46.949C575.224 47.3597 575.483 47.663 575.809 47.859C576.141 48.0503 576.516 48.146 576.936 48.146ZM585.73 41.629V48.069H587.809V49H582.279V48.069H584.554V42.56H582.349V41.629H585.73ZM584.792 38.178C585.053 38.178 585.261 38.2573 585.415 38.416C585.573 38.5747 585.653 38.7683 585.653 38.997C585.653 39.235 585.573 39.4357 585.415 39.599C585.261 39.7577 585.053 39.837 584.792 39.837C584.544 39.837 584.341 39.7577 584.183 39.599C584.024 39.4357 583.945 39.235 583.945 38.997C583.945 38.7683 584.024 38.5747 584.183 38.416C584.341 38.2573 584.544 38.178 584.792 38.178ZM594.803 38.514L595.979 38.661V49H594.95L594.838 48.027C594.563 48.419 594.246 48.706 593.886 48.888C593.532 49.07 593.151 49.161 592.745 49.161C592.106 49.161 591.579 49 591.163 48.678C590.748 48.356 590.44 47.908 590.239 47.334C590.039 46.7553 589.938 46.0857 589.938 45.325C589.938 44.5877 590.053 43.9297 590.281 43.351C590.51 42.7677 590.839 42.3103 591.268 41.979C591.702 41.643 592.223 41.475 592.829 41.475C593.254 41.475 593.627 41.5497 593.949 41.699C594.271 41.8437 594.556 42.0583 594.803 42.343V38.514ZM593.137 42.42C592.521 42.42 592.048 42.6603 591.716 43.141C591.385 43.6217 591.219 44.3497 591.219 45.325C591.219 45.9597 591.287 46.4917 591.422 46.921C591.558 47.3503 591.756 47.6723 592.017 47.887C592.283 48.1017 592.608 48.209 592.99 48.209C593.41 48.209 593.767 48.09 594.061 47.852C594.36 47.614 594.607 47.3457 594.803 47.047V43.365C594.603 43.0663 594.36 42.8353 594.075 42.672C593.791 42.504 593.478 42.42 593.137 42.42ZM598.858 49V48.097H600.006V42.532H598.858V41.629H600.902L601.119 43.372C601.404 42.7653 601.749 42.2963 602.155 41.965C602.561 41.6337 603.098 41.468 603.765 41.468C603.97 41.468 604.152 41.4843 604.311 41.517C604.474 41.545 604.64 41.5823 604.808 41.629L604.465 42.679C604.311 42.637 604.171 42.6067 604.045 42.588C603.919 42.5647 603.774 42.553 603.611 42.553C603.046 42.553 602.561 42.7537 602.155 43.155C601.749 43.5563 601.425 44.163 601.182 44.975V48.097H602.68V49H598.858ZM603.674 44.121V42.518L603.793 41.629H604.808L604.64 44.121H603.674Z" fill="#1A1B1D"/>
<rect x="278.5" y="0.5" width="81" height="66.5962" rx="11.5" fill="#F5F6F6"/>
<rect x="278.5" y="0.5" width="81" height="66.5962" rx="11.5" stroke="#4D5157"/>
<path d="M304.108 38.7981V29.1591H305.326V37.7131H309.722L309.582 38.7981H304.108ZM318.354 33.9891C318.354 34.9598 318.221 35.8208 317.955 36.5721C317.694 37.3188 317.3 37.9044 316.772 38.3291C316.245 38.7491 315.589 38.9591 314.805 38.9591C314.026 38.9591 313.37 38.7538 312.838 38.3431C312.311 37.9278 311.914 37.3491 311.648 36.6071C311.387 35.8651 311.256 34.9971 311.256 34.0031C311.256 33.0278 311.387 32.1644 311.648 31.4131C311.914 30.6618 312.311 30.0738 312.838 29.6491C313.37 29.2198 314.026 29.0051 314.805 29.0051C315.589 29.0051 316.245 29.2128 316.772 29.6281C317.3 30.0434 317.694 30.6244 317.955 31.3711C318.221 32.1178 318.354 32.9904 318.354 33.9891ZM317.08 33.9891C317.08 32.7058 316.903 31.7234 316.548 31.0421C316.198 30.3608 315.617 30.0201 314.805 30.0201C313.993 30.0201 313.41 30.3631 313.055 31.0491C312.705 31.7351 312.53 32.7198 312.53 34.0031C312.53 35.2864 312.712 36.2641 313.076 36.9361C313.44 37.6034 314.017 37.9371 314.805 37.9371C315.617 37.9371 316.198 37.6011 316.548 36.9291C316.903 36.2524 317.08 35.2724 317.08 33.9891ZM325.069 36.3411H321.254L320.484 38.7981H319.287L322.423 29.1591H323.977L327.113 38.7981H325.839L325.069 36.3411ZM321.569 35.3331H324.754L323.172 30.1811L321.569 35.3331ZM333.835 33.9331C333.835 33.0931 333.746 32.4211 333.569 31.9171C333.391 31.4131 333.158 31.0351 332.869 30.7831C332.579 30.5311 332.262 30.3631 331.917 30.2791C331.576 30.1951 331.24 30.1531 330.909 30.1531H329.775V37.8251H330.923C331.268 37.8251 331.611 37.7714 331.952 37.6641C332.297 37.5521 332.612 37.3561 332.897 37.0761C333.181 36.7914 333.408 36.3971 333.576 35.8931C333.748 35.3844 333.835 34.7311 333.835 33.9331ZM335.13 33.9331C335.13 34.7358 335.043 35.4218 334.871 35.9911C334.703 36.5558 334.472 37.0224 334.178 37.3911C333.884 37.7598 333.548 38.0468 333.17 38.2521C332.796 38.4528 332.402 38.5951 331.987 38.6791C331.576 38.7584 331.172 38.7981 330.776 38.7981H328.564V29.1591H330.622C331.186 29.1591 331.735 29.2221 332.267 29.3481C332.803 29.4741 333.286 29.7074 333.716 30.0481C334.15 30.3841 334.493 30.8648 334.745 31.4901C335.001 32.1154 335.13 32.9298 335.13 33.9331Z" fill="#1A1B1D"/>
<rect x="392.5" y="0.5" width="81" height="67" rx="11.5" fill="#F5F6F6"/>
<rect x="392.5" y="0.5" width="81" height="67" rx="11.5" stroke="#4D5157"/>
<path d="M432.354 34.191C432.354 35.1617 432.221 36.0227 431.955 36.774C431.694 37.5207 431.3 38.1063 430.772 38.531C430.245 38.951 429.589 39.161 428.805 39.161C428.026 39.161 427.37 38.9557 426.838 38.545C426.311 38.1297 425.914 37.551 425.648 36.809C425.387 36.067 425.256 35.199 425.256 34.205C425.256 33.2297 425.387 32.3663 425.648 31.615C425.914 30.8637 426.311 30.2757 426.838 29.851C427.37 29.4217 428.026 29.207 428.805 29.207C429.589 29.207 430.245 29.4147 430.772 29.83C431.3 30.2453 431.694 30.8263 431.955 31.573C432.221 32.3197 432.354 33.1923 432.354 34.191ZM431.08 34.191C431.08 32.9077 430.903 31.9253 430.548 31.244C430.198 30.5627 429.617 30.222 428.805 30.222C427.993 30.222 427.41 30.565 427.055 31.251C426.705 31.937 426.53 32.9217 426.53 34.205C426.53 35.4883 426.712 36.466 427.076 37.138C427.44 37.8053 428.017 38.139 428.805 38.139C429.617 38.139 430.198 37.803 430.548 37.131C430.903 36.4543 431.08 35.4743 431.08 34.191ZM438.53 39L435.135 30.523C435.14 30.6303 435.149 30.81 435.163 31.062C435.182 31.3093 435.2 31.6057 435.219 31.951C435.242 32.2917 435.261 32.6533 435.275 33.036C435.289 33.4187 435.296 33.7967 435.296 34.17V39H434.169V29.361H435.814L439.265 37.873C439.26 37.7377 439.244 37.4903 439.216 37.131C439.188 36.767 439.162 36.3283 439.139 35.815C439.116 35.3017 439.104 34.758 439.104 34.184V29.361H440.231V39H438.53Z" fill="#1A1B1D"/>
<rect width="90" height="67.5962" rx="12" fill="#1A1B1D"/>
<path d="M28.4027 28.9591C27.642 28.9591 26.9793 28.7748 26.4147 28.4061C25.8547 28.0374 25.4207 27.4844 25.1127 26.7471C24.8047 26.0098 24.6507 25.0858 24.6507 23.9751C24.6507 23.1444 24.7603 22.4188 24.9797 21.7981C25.2037 21.1774 25.5047 20.6594 25.8827 20.2441C26.2653 19.8288 26.697 19.5184 27.1777 19.3131C27.663 19.1078 28.1647 19.0051 28.6827 19.0051C29.3127 19.0051 29.8353 19.0961 30.2507 19.2781C30.666 19.4554 31.0627 19.7168 31.4407 20.0621L30.7057 20.8251C30.4117 20.5498 30.1013 20.3468 29.7747 20.2161C29.4527 20.0854 29.091 20.0201 28.6897 20.0201C28.3397 20.0201 28.0013 20.0878 27.6747 20.2231C27.348 20.3584 27.054 20.5801 26.7927 20.8881C26.536 21.1914 26.3307 21.5951 26.1767 22.0991C26.0273 22.6031 25.9527 23.2284 25.9527 23.9751C25.9527 24.9038 26.0483 25.6598 26.2397 26.2431C26.4357 26.8264 26.7227 27.2558 27.1007 27.5311C27.4833 27.8018 27.9547 27.9371 28.5147 27.9371C28.8507 27.9371 29.168 27.8974 29.4667 27.8181C29.77 27.7388 30.064 27.6244 30.3487 27.4751V24.5351H28.4517L28.3047 23.5271H31.5527V28.1191C31.1187 28.3524 30.6567 28.5508 30.1667 28.7141C29.6767 28.8774 29.0887 28.9591 28.4027 28.9591ZM39.9332 21.8611C39.9332 22.3418 39.8282 22.7618 39.6182 23.1211C39.4129 23.4804 39.1329 23.7768 38.7782 24.0101C38.4235 24.2434 38.0245 24.4138 37.5812 24.5211L40.4372 28.7981H38.9812L36.3492 24.6611H35.0472V28.7981H33.8292V19.1591H36.3072C37.4972 19.1591 38.3979 19.3878 39.0092 19.8451C39.6252 20.2978 39.9332 20.9698 39.9332 21.8611ZM38.6312 21.8611C38.6312 21.2404 38.4539 20.7971 38.0992 20.5311C37.7445 20.2604 37.1939 20.1251 36.4472 20.1251H35.0472V23.7091H36.4472C37.1379 23.7091 37.6745 23.5691 38.0572 23.2891C38.4399 23.0044 38.6312 22.5284 38.6312 21.8611ZM46.8717 26.3411H43.0567L42.2867 28.7981H41.0897L44.2257 19.1591H45.7797L48.9157 28.7981H47.6417L46.8717 26.3411ZM43.3717 25.3331H46.5567L44.9747 20.1811L43.3717 25.3331ZM54.7273 28.7981L51.3323 20.3211C51.3369 20.4284 51.3463 20.6081 51.3603 20.8601C51.3789 21.1074 51.3976 21.4038 51.4163 21.7491C51.4396 22.0898 51.4583 22.4514 51.4723 22.8341C51.4863 23.2168 51.4933 23.5948 51.4933 23.9681V28.7981H50.3663V19.1591H52.0113L55.4623 27.6711C55.4576 27.5358 55.4413 27.2884 55.4133 26.9291C55.3853 26.5651 55.3596 26.1264 55.3363 25.6131C55.3129 25.0998 55.3013 24.5561 55.3013 23.9821V19.1591H56.4283V28.7981H54.7273ZM62.3728 20.2021V28.7981H61.1618V20.2021H58.1518V19.1591H65.4248L65.2988 20.2021H62.3728ZM34.6509 43.9331C34.6509 43.0931 34.5623 42.4211 34.3849 41.9171C34.2076 41.4131 33.9743 41.0351 33.6849 40.7831C33.3956 40.5311 33.0783 40.3631 32.7329 40.2791C32.3923 40.1951 32.0563 40.1531 31.7249 40.1531H30.5909V47.8251H31.7389C32.0843 47.8251 32.4273 47.7714 32.7679 47.6641C33.1133 47.5521 33.4283 47.3561 33.7129 47.0761C33.9976 46.7914 34.2239 46.3971 34.3919 45.8931C34.5646 45.3844 34.6509 44.7311 34.6509 43.9331ZM35.9459 43.9331C35.9459 44.7358 35.8596 45.4218 35.6869 45.9911C35.5189 46.5558 35.2879 47.0224 34.9939 47.3911C34.6999 47.7598 34.3639 48.0468 33.9859 48.2521C33.6126 48.4528 33.2183 48.5951 32.8029 48.6791C32.3923 48.7584 31.9886 48.7981 31.5919 48.7981H29.3799V39.1591H31.4379C32.0026 39.1591 32.5509 39.2221 33.0829 39.3481C33.6196 39.4741 34.1026 39.7074 34.5319 40.0481C34.9659 40.3841 35.3089 40.8648 35.5609 41.4901C35.8176 42.1154 35.9459 42.9298 35.9459 43.9331ZM39.5805 40.1531V43.4011H43.1505V44.4021H39.5805V47.8251H43.9625V48.7981H38.3625V39.1591H43.8365L43.6965 40.1531H39.5805ZM50.53 48.7981L47.135 40.3211C47.1397 40.4284 47.149 40.6081 47.163 40.8601C47.1817 41.1074 47.2003 41.4038 47.219 41.7491C47.2423 42.0898 47.261 42.4514 47.275 42.8341C47.289 43.2168 47.296 43.5948 47.296 43.9681V48.7981H46.169V39.1591H47.814L51.265 47.6711C51.2603 47.5358 51.244 47.2884 51.216 46.9291C51.188 46.5651 51.1623 46.1264 51.139 45.6131C51.1157 45.0998 51.104 44.5561 51.104 43.9821V39.1591H52.231V48.7981H50.53ZM58.2105 45.0811V48.7981H56.9785V45.0951L53.7235 39.1591H55.0675L57.6225 43.9891L60.2055 39.1591H61.4655L58.2105 45.0811Z" fill="white"/>
<path d="M263 33.7981V33.7981C262.448 33.7981 262 34.2458 262 34.7981V65C262 78.2548 251.255 89 238 89H129C115.745 89 105 78.2548 105 65V45.7981C105 39.1707 99.6274 33.7981 93 33.7981V33.7981" stroke="black" stroke-opacity="0.8" stroke-linejoin="bevel"/>
<path d="M119 33.7981H93" stroke="black" stroke-opacity="0.8" stroke-linejoin="bevel"/>
<path d="M275 33.7981H249" stroke="black" stroke-opacity="0.8" stroke-linejoin="bevel"/>
<path d="M389 33.7981H363" stroke="black" stroke-opacity="0.8" stroke-linejoin="bevel"/>
<path d="M503 34H477" stroke="black" stroke-opacity="0.8" stroke-linejoin="bevel"/>
<rect x="662.5" y="0.5" width="157" height="66.5962" rx="11.5" fill="white"/>
<rect x="662.5" y="0.5" width="157" height="66.5962" rx="11.5" stroke="#4D5157"/>
<path d="M691.217 30.2021V38.7981H690.006V30.2021H686.996V29.1591H694.269L694.143 30.2021H691.217ZM702.579 33.9891C702.579 34.9598 702.446 35.8208 702.18 36.5721C701.919 37.3188 701.524 37.9044 700.997 38.3291C700.47 38.7491 699.814 38.9591 699.03 38.9591C698.251 38.9591 697.595 38.7538 697.063 38.3431C696.536 37.9278 696.139 37.3491 695.873 36.6071C695.612 35.8651 695.481 34.9971 695.481 34.0031C695.481 33.0278 695.612 32.1644 695.873 31.4131C696.139 30.6618 696.536 30.0738 697.063 29.6491C697.595 29.2198 698.251 29.0051 699.03 29.0051C699.814 29.0051 700.47 29.2128 700.997 29.6281C701.524 30.0434 701.919 30.6244 702.18 31.3711C702.446 32.1178 702.579 32.9904 702.579 33.9891ZM701.305 33.9891C701.305 32.7058 701.128 31.7234 700.773 31.0421C700.423 30.3608 699.842 30.0201 699.03 30.0201C698.218 30.0201 697.635 30.3631 697.28 31.0491C696.93 31.7351 696.755 32.7198 696.755 34.0031C696.755 35.2864 696.937 36.2641 697.301 36.9361C697.665 37.6034 698.241 37.9371 699.03 37.9371C699.842 37.9371 700.423 37.6011 700.773 36.9291C701.128 36.2524 701.305 35.2724 701.305 33.9891ZM713.096 38.7981V37.8951H714.244V32.3301H713.096V31.4271H715.14L715.357 33.1701C715.642 32.5634 715.987 32.0944 716.393 31.7631C716.799 31.4318 717.336 31.2661 718.003 31.2661C718.208 31.2661 718.39 31.2824 718.549 31.3151C718.712 31.3431 718.878 31.3804 719.046 31.4271L718.703 32.4771C718.549 32.4351 718.409 32.4048 718.283 32.3861C718.157 32.3628 718.012 32.3511 717.849 32.3511C717.284 32.3511 716.799 32.5518 716.393 32.9531C715.987 33.3544 715.663 33.9611 715.42 34.7731V37.8951H716.918V38.7981H713.096ZM717.912 33.9191V32.3161L718.031 31.4271H719.046L718.878 33.9191H717.912ZM724.228 31.2731C724.923 31.2731 725.504 31.4318 725.971 31.7491C726.442 32.0618 726.794 32.5051 727.028 33.0791C727.266 33.6531 727.385 34.3298 727.385 35.1091C727.385 35.8604 727.263 36.5254 727.021 37.1041C726.778 37.6828 726.421 38.1378 725.95 38.4691C725.483 38.7958 724.904 38.9591 724.214 38.9591C723.523 38.9591 722.942 38.8004 722.471 38.4831C721.999 38.1658 721.642 37.7201 721.4 37.1461C721.162 36.5674 721.043 35.8931 721.043 35.1231C721.043 34.3624 721.164 33.6928 721.407 33.1141C721.649 32.5354 722.006 32.0851 722.478 31.7631C722.954 31.4364 723.537 31.2731 724.228 31.2731ZM724.228 32.2321C723.593 32.2321 723.112 32.4678 722.786 32.9391C722.464 33.4058 722.303 34.1338 722.303 35.1231C722.303 36.0938 722.461 36.8148 722.779 37.2861C723.101 37.7574 723.579 37.9931 724.214 37.9931C724.848 37.9931 725.324 37.7574 725.642 37.2861C725.964 36.8148 726.125 36.0891 726.125 35.1091C726.125 34.1291 725.966 33.4058 725.649 32.9391C725.331 32.4678 724.858 32.2321 724.228 32.2321ZM732.685 28.4591V36.9781C732.685 37.3421 732.797 37.6011 733.021 37.7551C733.25 37.9044 733.544 37.9791 733.903 37.9791C734.127 37.9791 734.34 37.9558 734.54 37.9091C734.741 37.8624 734.942 37.7994 735.142 37.7201L735.457 38.5811C735.257 38.6791 735.007 38.7654 734.708 38.8401C734.414 38.9194 734.081 38.9591 733.707 38.9591C733.054 38.9591 732.524 38.7794 732.118 38.4201C731.712 38.0561 731.509 37.5544 731.509 36.9151V29.3901H729.248V28.4591H732.685ZM739.134 35.5291C739.157 36.0984 739.267 36.5651 739.463 36.9291C739.659 37.2884 739.918 37.5544 740.24 37.7271C740.562 37.8951 740.912 37.9791 741.29 37.9791C741.668 37.9791 742.008 37.9231 742.312 37.8111C742.62 37.6991 742.935 37.5334 743.257 37.3141L743.81 38.0911C743.464 38.3618 743.07 38.5741 742.627 38.7281C742.188 38.8821 741.738 38.9591 741.276 38.9591C740.562 38.9591 739.953 38.7981 739.449 38.4761C738.945 38.1541 738.56 37.7061 738.294 37.1321C738.032 36.5534 737.902 35.8838 737.902 35.1231C737.902 34.3764 738.035 33.7138 738.301 33.1351C738.567 32.5564 738.94 32.1014 739.421 31.7701C739.901 31.4388 740.468 31.2731 741.122 31.2731C741.742 31.2731 742.277 31.4201 742.725 31.7141C743.173 32.0034 743.516 32.4188 743.754 32.9601C743.996 33.4968 744.118 34.1384 744.118 34.8851C744.118 35.0111 744.115 35.1301 744.111 35.2421C744.106 35.3494 744.099 35.4451 744.09 35.5291H739.134ZM741.136 32.2391C740.59 32.2391 740.132 32.4328 739.764 32.8201C739.4 33.2074 739.192 33.8071 739.141 34.6191H742.984C742.97 33.8304 742.797 33.2378 742.466 32.8411C742.134 32.4398 741.691 32.2391 741.136 32.2391ZM747.773 40.4151V27.3811H751.28V28.3961H748.886V39.4141H751.28V40.4151H747.773ZM757.792 36.4951C758.114 36.4951 758.382 36.6048 758.597 36.8241C758.816 37.0434 758.926 37.3071 758.926 37.6151C758.926 37.7831 758.905 37.9534 758.863 38.1261C758.825 38.2988 758.755 38.4948 758.653 38.7141L757.519 41.3111H756.455L757.127 38.5461C756.987 38.4434 756.875 38.3104 756.791 38.1471C756.711 37.9791 756.672 37.8018 756.672 37.6151C756.672 37.3024 756.779 37.0388 756.994 36.8241C757.208 36.6048 757.474 36.4951 757.792 36.4951ZM773.35 37.7201C773.35 37.4914 773.404 37.2861 773.511 37.1041C773.619 36.9174 773.766 36.7704 773.952 36.6631C774.134 36.5511 774.342 36.4951 774.575 36.4951C774.813 36.4951 775.026 36.5511 775.212 36.6631C775.399 36.7704 775.546 36.9174 775.653 37.1041C775.761 37.2861 775.814 37.4914 775.814 37.7201C775.814 37.9488 775.761 38.1588 775.653 38.3501C775.546 38.5368 775.399 38.6861 775.212 38.7981C775.026 38.9054 774.813 38.9591 774.575 38.9591C774.342 38.9591 774.134 38.9054 773.952 38.7981C773.766 38.6861 773.619 38.5368 773.511 38.3501C773.404 38.1588 773.35 37.9488 773.35 37.7201ZM778.95 37.7201C778.95 37.4914 779.004 37.2861 779.111 37.1041C779.219 36.9174 779.363 36.7704 779.545 36.6631C779.732 36.5511 779.942 36.4951 780.175 36.4951C780.413 36.4951 780.626 36.5511 780.812 36.6631C780.999 36.7704 781.146 36.9174 781.253 37.1041C781.361 37.2861 781.414 37.4914 781.414 37.7201C781.414 37.9488 781.361 38.1588 781.253 38.3501C781.146 38.5368 780.999 38.6861 780.812 38.7981C780.626 38.9054 780.413 38.9591 780.175 38.9591C779.942 38.9591 779.732 38.9054 779.545 38.7981C779.363 38.6861 779.219 38.5368 779.111 38.3501C779.004 38.1588 778.95 37.9488 778.95 37.7201ZM767.75 37.7201C767.75 37.4914 767.804 37.2861 767.911 37.1041C768.019 36.9174 768.166 36.7704 768.352 36.6631C768.534 36.5511 768.742 36.4951 768.975 36.4951C769.213 36.4951 769.426 36.5511 769.612 36.6631C769.799 36.7704 769.946 36.9174 770.053 37.1041C770.161 37.2861 770.214 37.4914 770.214 37.7201C770.214 37.9488 770.161 38.1588 770.053 38.3501C769.946 38.5368 769.799 38.6861 769.612 38.7981C769.426 38.9054 769.213 38.9591 768.975 38.9591C768.742 38.9591 768.534 38.9054 768.352 38.7981C768.166 38.6861 768.019 38.5368 767.911 38.3501C767.804 38.1588 767.75 37.9488 767.75 37.7201ZM792.994 27.3811V40.4151H789.487V39.4211H791.881V28.3961H789.487V27.3811H792.994Z" fill="#1A1B1D"/>
<path d="M659 34H633" stroke="black" stroke-opacity="0.8" stroke-linejoin="bevel"/>
</svg>
