<svg width="820" height="90" viewBox="0 0 820 90" fill="none" xmlns="http://www.w3.org/2000/svg">
<rect x="122.5" y="0.5" width="123" height="66.5962" rx="11.5" fill="#F5F6F6"/>
<rect x="122.5" y="0.5" width="123" height="66.5962" rx="11.5" stroke="#4D5157"/>
<path d="M153.183 29.1591V30.1321H151.041V37.8251H153.183V38.7981H147.667V37.8251H149.809V30.1321H147.667V29.1591H153.183ZM162.046 29.1591L162.592 38.7981H161.423L161.122 33.7651C161.108 33.4244 161.094 33.0791 161.08 32.7291C161.066 32.3791 161.057 32.0431 161.052 31.7211C161.047 31.3991 161.045 31.1121 161.045 30.8601C161.045 30.6081 161.045 30.4121 161.045 30.2721L159.421 37.0691H158.203L156.46 30.2721C156.465 30.4074 156.469 30.6081 156.474 30.8741C156.479 31.1354 156.481 31.4318 156.481 31.7631C156.486 32.0944 156.483 32.4351 156.474 32.7851C156.469 33.1304 156.46 33.4524 156.446 33.7511L156.187 38.7981H155.046L155.592 29.1591H157.286L158.847 35.7601L160.338 29.1591H162.046ZM170.441 29.1591L170.987 38.7981H169.818L169.517 33.7651C169.503 33.4244 169.489 33.0791 169.475 32.7291C169.461 32.3791 169.451 32.0431 169.447 31.7211C169.442 31.3991 169.44 31.1121 169.44 30.8601C169.44 30.6081 169.44 30.4121 169.44 30.2721L167.816 37.0691H166.598L164.855 30.2721C164.859 30.4074 164.864 30.6081 164.869 30.8741C164.873 31.1354 164.876 31.4318 164.876 31.7631C164.88 32.0944 164.878 32.4351 164.869 32.7851C164.864 33.1304 164.855 33.4524 164.841 33.7511L164.582 38.7981H163.441L163.987 29.1591H165.681L167.242 35.7601L168.733 29.1591H170.441ZM178.793 29.1591V35.6761C178.793 36.3248 178.66 36.8964 178.394 37.3911C178.133 37.8858 177.762 38.2708 177.281 38.5461C176.805 38.8214 176.243 38.9591 175.594 38.9591C174.932 38.9591 174.362 38.8214 173.886 38.5461C173.415 38.2661 173.053 37.8788 172.801 37.3841C172.549 36.8894 172.423 36.3201 172.423 35.6761V29.1591H173.627V35.7181C173.627 36.4508 173.798 36.9991 174.138 37.3631C174.484 37.7271 174.969 37.9091 175.594 37.9091C176.224 37.9091 176.71 37.7271 177.05 37.3631C177.396 36.9991 177.568 36.4508 177.568 35.7181V29.1591H178.793ZM184.584 30.2021V38.7981H183.373V30.2021H180.363V29.1591H187.636L187.51 30.2021H184.584ZM194.266 36.3411H190.451L189.681 38.7981H188.484L191.62 29.1591H193.174L196.31 38.7981H195.036L194.266 36.3411ZM190.766 35.3331H193.951L192.369 30.1811L190.766 35.3331ZM202.864 36.0891C202.864 35.6038 202.768 35.2304 202.577 34.9691C202.39 34.7031 202.14 34.5188 201.828 34.4161C201.515 34.3134 201.172 34.2621 200.799 34.2621H199.154V37.7971H200.743C200.981 37.7971 201.223 37.7738 201.471 37.7271C201.718 37.6804 201.947 37.5964 202.157 37.4751C202.371 37.3538 202.542 37.1834 202.668 36.9641C202.798 36.7401 202.864 36.4484 202.864 36.0891ZM202.479 31.6511C202.479 31.1051 202.308 30.7178 201.968 30.4891C201.632 30.2558 201.172 30.1391 200.589 30.1391H199.154V33.2611H200.708C201.277 33.2611 201.713 33.1351 202.017 32.8831C202.325 32.6264 202.479 32.2158 202.479 31.6511ZM204.145 36.0471C204.145 36.5698 204.04 37.0084 203.83 37.3631C203.624 37.7178 203.347 38.0001 202.997 38.2101C202.651 38.4201 202.264 38.5718 201.835 38.6651C201.41 38.7538 200.976 38.7981 200.533 38.7981H197.943V29.1591H200.316C200.74 29.1591 201.153 29.1988 201.555 29.2781C201.961 29.3528 202.325 29.4834 202.647 29.6701C202.973 29.8521 203.235 30.0994 203.431 30.4121C203.627 30.7248 203.725 31.1168 203.725 31.5881C203.725 32.0034 203.638 32.3558 203.466 32.6451C203.298 32.9298 203.076 33.1584 202.801 33.3311C202.53 33.5038 202.241 33.6251 201.933 33.6951C202.292 33.7511 202.64 33.8608 202.976 34.0241C203.316 34.1828 203.596 34.4254 203.816 34.7521C204.035 35.0741 204.145 35.5058 204.145 36.0471ZM206.883 38.7981V29.1591H208.101V37.7131H212.497L212.357 38.7981H206.883ZM216.356 30.1531V33.4011H219.926V34.4021H216.356V37.8251H220.738V38.7981H215.138V29.1591H220.612L220.472 30.1531H216.356Z" fill="#1A1B1D"/>
<rect x="506.5" y="0.5" width="123" height="67" rx="11.5" fill="#F5F6F6"/>
<rect x="506.5" y="0.5" width="123" height="67" rx="11.5" stroke="#4D5157"/>
<path d="M540.491 26.543H536.676L535.906 29H534.709L537.845 19.361H539.399L542.535 29H541.261L540.491 26.543ZM536.991 25.535H540.176L538.594 20.383L536.991 25.535ZM544.713 29V19.361H545.931V27.915H550.327L550.187 29H544.713ZM553.108 29V19.361H554.326V27.915H558.722L558.582 29H553.108ZM574.44 24.135C574.44 23.295 574.351 22.623 574.174 22.119C573.997 21.615 573.763 21.237 573.474 20.985C573.185 20.733 572.867 20.565 572.522 20.481C572.181 20.397 571.845 20.355 571.514 20.355H570.38V28.027H571.528C571.873 28.027 572.216 27.9733 572.557 27.866C572.902 27.754 573.217 27.558 573.502 27.278C573.787 26.9933 574.013 26.599 574.181 26.095C574.354 25.5863 574.44 24.933 574.44 24.135ZM575.735 24.135C575.735 24.9377 575.649 25.6237 575.476 26.193C575.308 26.7577 575.077 27.2243 574.783 27.593C574.489 27.9617 574.153 28.2487 573.775 28.454C573.402 28.6547 573.007 28.797 572.592 28.881C572.181 28.9603 571.778 29 571.381 29H569.169V19.361H571.227C571.792 19.361 572.34 19.424 572.872 19.55C573.409 19.676 573.892 19.9093 574.321 20.25C574.755 20.586 575.098 21.0667 575.35 21.692C575.607 22.3173 575.735 23.1317 575.735 24.135ZM582.464 26.543H578.649L577.879 29H576.682L579.818 19.361H581.372L584.508 29H583.234L582.464 26.543ZM578.964 25.535H582.149L580.567 20.383L578.964 25.535ZM589.57 20.404V29H588.359V20.404H585.349V19.361H592.622L592.496 20.404H589.57ZM599.253 26.543H595.438L594.668 29H593.471L596.607 19.361H598.161L601.297 29H600.023L599.253 26.543ZM595.753 25.535H598.938L597.356 20.383L595.753 25.535ZM535.237 39.207C535.867 39.207 536.394 39.2863 536.819 39.445C537.243 39.6037 537.647 39.837 538.03 40.145L537.351 40.936C537.047 40.6793 536.725 40.4973 536.385 40.39C536.049 40.278 535.696 40.222 535.328 40.222C534.8 40.222 534.313 40.348 533.865 40.6C533.417 40.8473 533.055 41.2603 532.78 41.839C532.509 42.413 532.374 43.1923 532.374 44.177C532.374 45.1337 532.502 45.9013 532.759 46.48C533.02 47.0587 533.372 47.4763 533.816 47.733C534.259 47.9897 534.754 48.118 535.3 48.118C535.841 48.118 536.284 48.0363 536.63 47.873C536.98 47.7097 537.283 47.523 537.54 47.313L538.17 48.111C537.876 48.3957 537.493 48.643 537.022 48.853C536.55 49.0583 535.972 49.161 535.286 49.161C534.506 49.161 533.799 48.9697 533.165 48.587C532.535 48.2043 532.035 47.6443 531.667 46.907C531.298 46.165 531.114 45.255 531.114 44.177C531.114 43.0943 531.3 42.1843 531.674 41.447C532.052 40.7097 532.553 40.152 533.179 39.774C533.809 39.396 534.495 39.207 535.237 39.207ZM545.577 39.361V40.334H543.435V48.027H545.577V49H540.061V48.027H542.203V40.334H540.061V39.361H545.577ZM553.454 44.135C553.454 43.295 553.365 42.623 553.188 42.119C553.01 41.615 552.777 41.237 552.488 40.985C552.198 40.733 551.881 40.565 551.536 40.481C551.195 40.397 550.859 40.355 550.528 40.355H549.394V48.027H550.542C550.887 48.027 551.23 47.9733 551.571 47.866C551.916 47.754 552.231 47.558 552.516 47.278C552.8 46.9933 553.027 46.599 553.195 46.095C553.367 45.5863 553.454 44.933 553.454 44.135ZM554.749 44.135C554.749 44.9377 554.662 45.6237 554.49 46.193C554.322 46.7577 554.091 47.2243 553.797 47.593C553.503 47.9617 553.167 48.2487 552.789 48.454C552.415 48.6547 552.021 48.797 551.606 48.881C551.195 48.9603 550.791 49 550.395 49H548.183V39.361H550.241C550.805 39.361 551.354 39.424 551.886 39.55C552.422 39.676 552.905 39.9093 553.335 40.25C553.769 40.586 554.112 41.0667 554.364 41.692C554.62 42.3173 554.749 43.1317 554.749 44.135ZM562.933 42.063C562.933 42.5437 562.828 42.9637 562.618 43.323C562.413 43.6823 562.133 43.9787 561.778 44.212C561.424 44.4453 561.025 44.6157 560.581 44.723L563.437 49H561.981L559.349 44.863H558.047V49H556.829V39.361H559.307C560.497 39.361 561.398 39.5897 562.009 40.047C562.625 40.4997 562.933 41.1717 562.933 42.063ZM561.631 42.063C561.631 41.4423 561.454 40.999 561.099 40.733C560.745 40.4623 560.194 40.327 559.447 40.327H558.047V43.911H559.447C560.138 43.911 560.675 43.771 561.057 43.491C561.44 43.2063 561.631 42.7303 561.631 42.063ZM576.271 49.168C575.674 49.168 575.137 49.056 574.661 48.832C574.195 48.608 573.821 48.2767 573.541 47.838C573.271 47.39 573.135 46.8347 573.135 46.172C573.135 45.5467 573.247 44.982 573.471 44.478C573.695 43.974 573.999 43.54 574.381 43.176C574.773 42.812 575.212 42.532 575.697 42.336C576.192 42.1307 576.705 42.028 577.237 42.028C577.835 42.028 578.348 42.1493 578.777 42.392C579.216 42.6347 579.557 42.9193 579.799 43.246L579.113 43.862C578.861 43.5447 578.572 43.3113 578.245 43.162C577.928 43.0033 577.545 42.924 577.097 42.924C576.752 42.924 576.407 43.0033 576.061 43.162C575.716 43.3207 575.403 43.5447 575.123 43.834C574.843 44.114 574.619 44.4453 574.451 44.828C574.293 45.2013 574.213 45.6073 574.213 46.046C574.213 46.7927 574.419 47.3527 574.829 47.726C575.249 48.09 575.777 48.272 576.411 48.272C576.813 48.272 577.195 48.1833 577.559 48.006C577.923 47.8287 578.264 47.6047 578.581 47.334L579.015 48.062C578.661 48.3887 578.241 48.6547 577.755 48.86C577.27 49.0653 576.775 49.168 576.271 49.168ZM585.45 49.168C584.908 49.168 584.465 49.0233 584.12 48.734C583.784 48.4447 583.616 48.02 583.616 47.46C583.616 47.348 583.625 47.2313 583.644 47.11C583.662 46.9793 583.69 46.8487 583.728 46.718L584.54 43.064H582.048L582.23 42.196H585.786L584.764 46.816C584.754 46.9 584.74 46.9793 584.722 47.054C584.712 47.1193 584.708 47.1893 584.708 47.264C584.708 47.6187 584.806 47.8753 585.002 48.034C585.198 48.1927 585.45 48.272 585.758 48.272C585.972 48.272 586.182 48.2393 586.388 48.174C586.593 48.1087 586.817 48.02 587.06 47.908L587.312 48.72C587.022 48.8507 586.733 48.958 586.444 49.042C586.154 49.126 585.823 49.168 585.45 49.168ZM585.38 40.754C585.165 40.754 584.978 40.6887 584.82 40.558C584.661 40.4273 584.582 40.2453 584.582 40.012C584.582 39.8347 584.624 39.6713 584.708 39.522C584.801 39.3727 584.922 39.256 585.072 39.172C585.221 39.088 585.38 39.046 585.548 39.046C585.8 39.046 585.996 39.1113 586.136 39.242C586.285 39.3727 586.36 39.5547 586.36 39.788C586.36 40.0587 586.262 40.2873 586.066 40.474C585.879 40.6607 585.65 40.754 585.38 40.754ZM592.038 49.168C591.338 49.168 590.774 48.9487 590.344 48.51C589.924 48.062 589.714 47.4133 589.714 46.564C589.714 45.948 589.808 45.3693 589.994 44.828C590.19 44.2867 590.461 43.806 590.806 43.386C591.152 42.966 591.548 42.6347 591.996 42.392C592.444 42.1493 592.93 42.028 593.452 42.028C593.938 42.028 594.353 42.1213 594.698 42.308C595.044 42.4853 595.314 42.7233 595.51 43.022H595.552L595.776 41.692L596.308 39.032H597.386L595.37 49H594.488L594.6 47.964H594.544C594.19 48.328 593.793 48.622 593.354 48.846C592.925 49.0607 592.486 49.168 592.038 49.168ZM592.374 48.272C592.748 48.272 593.135 48.16 593.536 47.936C593.947 47.712 594.339 47.3853 594.712 46.956L595.328 43.932C595.104 43.568 594.838 43.3113 594.53 43.162C594.222 43.0033 593.91 42.924 593.592 42.924C593.21 42.924 592.846 43.022 592.5 43.218C592.164 43.4047 591.87 43.6613 591.618 43.988C591.366 44.3053 591.17 44.674 591.03 45.094C590.89 45.514 590.82 45.948 590.82 46.396C590.82 47.0307 590.96 47.502 591.24 47.81C591.53 48.118 591.908 48.272 592.374 48.272ZM598.739 49L600.097 42.196H600.979L600.685 44.142H600.741C600.993 43.7593 601.278 43.4093 601.595 43.092C601.922 42.7653 602.267 42.5087 602.631 42.322C603.004 42.126 603.387 42.028 603.779 42.028C604.087 42.028 604.353 42.0607 604.577 42.126C604.81 42.182 605.002 42.266 605.151 42.378L604.731 43.302C604.563 43.19 604.386 43.1153 604.199 43.078C604.022 43.0313 603.821 43.008 603.597 43.008C603.074 43.008 602.547 43.232 602.015 43.68C601.492 44.128 600.993 44.7207 600.517 45.458L599.803 49H598.739Z" fill="#1A1B1D"/>
<rect x="278.5" y="0.5" width="81" height="66.5962" rx="11.5" fill="#F5F6F6"/>
<rect x="278.5" y="0.5" width="81" height="66.5962" rx="11.5" stroke="#4D5157"/>
<path d="M304.108 38.7981V29.1591H305.326V37.7131H309.722L309.582 38.7981H304.108ZM318.354 33.9891C318.354 34.9598 318.221 35.8208 317.955 36.5721C317.694 37.3188 317.3 37.9044 316.772 38.3291C316.245 38.7491 315.589 38.9591 314.805 38.9591C314.026 38.9591 313.37 38.7538 312.838 38.3431C312.311 37.9278 311.914 37.3491 311.648 36.6071C311.387 35.8651 311.256 34.9971 311.256 34.0031C311.256 33.0278 311.387 32.1644 311.648 31.4131C311.914 30.6618 312.311 30.0738 312.838 29.6491C313.37 29.2198 314.026 29.0051 314.805 29.0051C315.589 29.0051 316.245 29.2128 316.772 29.6281C317.3 30.0434 317.694 30.6244 317.955 31.3711C318.221 32.1178 318.354 32.9904 318.354 33.9891ZM317.08 33.9891C317.08 32.7058 316.903 31.7234 316.548 31.0421C316.198 30.3608 315.617 30.0201 314.805 30.0201C313.993 30.0201 313.41 30.3631 313.055 31.0491C312.705 31.7351 312.53 32.7198 312.53 34.0031C312.53 35.2864 312.712 36.2641 313.076 36.9361C313.44 37.6034 314.017 37.9371 314.805 37.9371C315.617 37.9371 316.198 37.6011 316.548 36.9291C316.903 36.2524 317.08 35.2724 317.08 33.9891ZM325.069 36.3411H321.254L320.484 38.7981H319.287L322.423 29.1591H323.977L327.113 38.7981H325.839L325.069 36.3411ZM321.569 35.3331H324.754L323.172 30.1811L321.569 35.3331ZM333.835 33.9331C333.835 33.0931 333.746 32.4211 333.569 31.9171C333.391 31.4131 333.158 31.0351 332.869 30.7831C332.579 30.5311 332.262 30.3631 331.917 30.2791C331.576 30.1951 331.24 30.1531 330.909 30.1531H329.775V37.8251H330.923C331.268 37.8251 331.611 37.7714 331.952 37.6641C332.297 37.5521 332.612 37.3561 332.897 37.0761C333.181 36.7914 333.408 36.3971 333.576 35.8931C333.748 35.3844 333.835 34.7311 333.835 33.9331ZM335.13 33.9331C335.13 34.7358 335.043 35.4218 334.871 35.9911C334.703 36.5558 334.472 37.0224 334.178 37.3911C333.884 37.7598 333.548 38.0468 333.17 38.2521C332.796 38.4528 332.402 38.5951 331.987 38.6791C331.576 38.7584 331.172 38.7981 330.776 38.7981H328.564V29.1591H330.622C331.186 29.1591 331.735 29.2221 332.267 29.3481C332.803 29.4741 333.286 29.7074 333.716 30.0481C334.15 30.3841 334.493 30.8648 334.745 31.4901C335.001 32.1154 335.13 32.9298 335.13 33.9331Z" fill="#1A1B1D"/>
<rect x="392.5" y="0.5" width="81" height="67" rx="11.5" fill="#F5F6F6"/>
<rect x="392.5" y="0.5" width="81" height="67" rx="11.5" stroke="#4D5157"/>
<path d="M432.354 34.191C432.354 35.1617 432.221 36.0227 431.955 36.774C431.694 37.5207 431.3 38.1063 430.772 38.531C430.245 38.951 429.589 39.161 428.805 39.161C428.026 39.161 427.37 38.9557 426.838 38.545C426.311 38.1297 425.914 37.551 425.648 36.809C425.387 36.067 425.256 35.199 425.256 34.205C425.256 33.2297 425.387 32.3663 425.648 31.615C425.914 30.8637 426.311 30.2757 426.838 29.851C427.37 29.4217 428.026 29.207 428.805 29.207C429.589 29.207 430.245 29.4147 430.772 29.83C431.3 30.2453 431.694 30.8263 431.955 31.573C432.221 32.3197 432.354 33.1923 432.354 34.191ZM431.08 34.191C431.08 32.9077 430.903 31.9253 430.548 31.244C430.198 30.5627 429.617 30.222 428.805 30.222C427.993 30.222 427.41 30.565 427.055 31.251C426.705 31.937 426.53 32.9217 426.53 34.205C426.53 35.4883 426.712 36.466 427.076 37.138C427.44 37.8053 428.017 38.139 428.805 38.139C429.617 38.139 430.198 37.803 430.548 37.131C430.903 36.4543 431.08 35.4743 431.08 34.191ZM438.53 39L435.135 30.523C435.14 30.6303 435.149 30.81 435.163 31.062C435.182 31.3093 435.2 31.6057 435.219 31.951C435.242 32.2917 435.261 32.6533 435.275 33.036C435.289 33.4187 435.296 33.7967 435.296 34.17V39H434.169V29.361H435.814L439.265 37.873C439.26 37.7377 439.244 37.4903 439.216 37.131C439.188 36.767 439.162 36.3283 439.139 35.815C439.116 35.3017 439.104 34.758 439.104 34.184V29.361H440.231V39H438.53Z" fill="#1A1B1D"/>
<rect width="90" height="67.5962" rx="12" fill="#1A1B1D"/>
<path d="M28.4027 28.9591C27.642 28.9591 26.9793 28.7748 26.4147 28.4061C25.8547 28.0374 25.4207 27.4844 25.1127 26.7471C24.8047 26.0098 24.6507 25.0858 24.6507 23.9751C24.6507 23.1444 24.7603 22.4188 24.9797 21.7981C25.2037 21.1774 25.5047 20.6594 25.8827 20.2441C26.2653 19.8288 26.697 19.5184 27.1777 19.3131C27.663 19.1078 28.1647 19.0051 28.6827 19.0051C29.3127 19.0051 29.8353 19.0961 30.2507 19.2781C30.666 19.4554 31.0627 19.7168 31.4407 20.0621L30.7057 20.8251C30.4117 20.5498 30.1013 20.3468 29.7747 20.2161C29.4527 20.0854 29.091 20.0201 28.6897 20.0201C28.3397 20.0201 28.0013 20.0878 27.6747 20.2231C27.348 20.3584 27.054 20.5801 26.7927 20.8881C26.536 21.1914 26.3307 21.5951 26.1767 22.0991C26.0273 22.6031 25.9527 23.2284 25.9527 23.9751C25.9527 24.9038 26.0483 25.6598 26.2397 26.2431C26.4357 26.8264 26.7227 27.2558 27.1007 27.5311C27.4833 27.8018 27.9547 27.9371 28.5147 27.9371C28.8507 27.9371 29.168 27.8974 29.4667 27.8181C29.77 27.7388 30.064 27.6244 30.3487 27.4751V24.5351H28.4517L28.3047 23.5271H31.5527V28.1191C31.1187 28.3524 30.6567 28.5508 30.1667 28.7141C29.6767 28.8774 29.0887 28.9591 28.4027 28.9591ZM39.9332 21.8611C39.9332 22.3418 39.8282 22.7618 39.6182 23.1211C39.4129 23.4804 39.1329 23.7768 38.7782 24.0101C38.4235 24.2434 38.0245 24.4138 37.5812 24.5211L40.4372 28.7981H38.9812L36.3492 24.6611H35.0472V28.7981H33.8292V19.1591H36.3072C37.4972 19.1591 38.3979 19.3878 39.0092 19.8451C39.6252 20.2978 39.9332 20.9698 39.9332 21.8611ZM38.6312 21.8611C38.6312 21.2404 38.4539 20.7971 38.0992 20.5311C37.7445 20.2604 37.1939 20.1251 36.4472 20.1251H35.0472V23.7091H36.4472C37.1379 23.7091 37.6745 23.5691 38.0572 23.2891C38.4399 23.0044 38.6312 22.5284 38.6312 21.8611ZM46.8717 26.3411H43.0567L42.2867 28.7981H41.0897L44.2257 19.1591H45.7797L48.9157 28.7981H47.6417L46.8717 26.3411ZM43.3717 25.3331H46.5567L44.9747 20.1811L43.3717 25.3331ZM54.7273 28.7981L51.3323 20.3211C51.3369 20.4284 51.3463 20.6081 51.3603 20.8601C51.3789 21.1074 51.3976 21.4038 51.4163 21.7491C51.4396 22.0898 51.4583 22.4514 51.4723 22.8341C51.4863 23.2168 51.4933 23.5948 51.4933 23.9681V28.7981H50.3663V19.1591H52.0113L55.4623 27.6711C55.4576 27.5358 55.4413 27.2884 55.4133 26.9291C55.3853 26.5651 55.3596 26.1264 55.3363 25.6131C55.3129 25.0998 55.3013 24.5561 55.3013 23.9821V19.1591H56.4283V28.7981H54.7273ZM62.3728 20.2021V28.7981H61.1618V20.2021H58.1518V19.1591H65.4248L65.2988 20.2021H62.3728ZM34.6509 43.9331C34.6509 43.0931 34.5623 42.4211 34.3849 41.9171C34.2076 41.4131 33.9743 41.0351 33.6849 40.7831C33.3956 40.5311 33.0783 40.3631 32.7329 40.2791C32.3923 40.1951 32.0563 40.1531 31.7249 40.1531H30.5909V47.8251H31.7389C32.0843 47.8251 32.4273 47.7714 32.7679 47.6641C33.1133 47.5521 33.4283 47.3561 33.7129 47.0761C33.9976 46.7914 34.2239 46.3971 34.3919 45.8931C34.5646 45.3844 34.6509 44.7311 34.6509 43.9331ZM35.9459 43.9331C35.9459 44.7358 35.8596 45.4218 35.6869 45.9911C35.5189 46.5558 35.2879 47.0224 34.9939 47.3911C34.6999 47.7598 34.3639 48.0468 33.9859 48.2521C33.6126 48.4528 33.2183 48.5951 32.8029 48.6791C32.3923 48.7584 31.9886 48.7981 31.5919 48.7981H29.3799V39.1591H31.4379C32.0026 39.1591 32.5509 39.2221 33.0829 39.3481C33.6196 39.4741 34.1026 39.7074 34.5319 40.0481C34.9659 40.3841 35.3089 40.8648 35.5609 41.4901C35.8176 42.1154 35.9459 42.9298 35.9459 43.9331ZM39.5805 40.1531V43.4011H43.1505V44.4021H39.5805V47.8251H43.9625V48.7981H38.3625V39.1591H43.8365L43.6965 40.1531H39.5805ZM50.53 48.7981L47.135 40.3211C47.1397 40.4284 47.149 40.6081 47.163 40.8601C47.1817 41.1074 47.2003 41.4038 47.219 41.7491C47.2423 42.0898 47.261 42.4514 47.275 42.8341C47.289 43.2168 47.296 43.5948 47.296 43.9681V48.7981H46.169V39.1591H47.814L51.265 47.6711C51.2603 47.5358 51.244 47.2884 51.216 46.9291C51.188 46.5651 51.1623 46.1264 51.139 45.6131C51.1157 45.0998 51.104 44.5561 51.104 43.9821V39.1591H52.231V48.7981H50.53ZM58.2105 45.0811V48.7981H56.9785V45.0951L53.7235 39.1591H55.0675L57.6225 43.9891L60.2055 39.1591H61.4655L58.2105 45.0811Z" fill="white"/>
<path d="M263 33.7981V33.7981C262.448 33.7981 262 34.2458 262 34.7981V65C262 78.2548 251.255 89 238 89H129C115.745 89 105 78.2548 105 65V45.7981C105 39.1707 99.6274 33.7981 93 33.7981V33.7981" stroke="black" stroke-opacity="0.8" stroke-linejoin="bevel"/>
<path d="M119.354 34.1516C119.549 33.9564 119.549 33.6398 119.354 33.4445L116.172 30.2626C115.976 30.0673 115.66 30.0673 115.464 30.2626C115.269 30.4578 115.269 30.7744 115.464 30.9697L118.293 33.7981L115.464 36.6265C115.269 36.8218 115.269 37.1384 115.464 37.3336C115.66 37.5289 115.976 37.5289 116.172 37.3336L119.354 34.1516ZM119 33.7981V33.2981H93V33.7981V34.2981H119V33.7981Z" fill="black" fill-opacity="0.8"/>
<path d="M275.354 34.1516C275.549 33.9564 275.549 33.6398 275.354 33.4445L272.172 30.2626C271.976 30.0673 271.66 30.0673 271.464 30.2626C271.269 30.4578 271.269 30.7744 271.464 30.9697L274.293 33.7981L271.464 36.6265C271.269 36.8218 271.269 37.1384 271.464 37.3336C271.66 37.5289 271.976 37.5289 272.172 37.3336L275.354 34.1516ZM275 33.7981V33.2981H249V33.7981V34.2981H275V33.7981Z" fill="black" fill-opacity="0.8"/>
<path d="M389.354 34.1516C389.549 33.9564 389.549 33.6398 389.354 33.4445L386.172 30.2626C385.976 30.0673 385.66 30.0673 385.464 30.2626C385.269 30.4578 385.269 30.7744 385.464 30.9697L388.293 33.7981L385.464 36.6265C385.269 36.8218 385.269 37.1384 385.464 37.3336C385.66 37.5289 385.976 37.5289 386.172 37.3336L389.354 34.1516ZM389 33.7981V33.2981H363V33.7981V34.2981H389V33.7981Z" fill="black" fill-opacity="0.8"/>
<path d="M503.354 34.3536C503.549 34.1583 503.549 33.8417 503.354 33.6464L500.172 30.4645C499.976 30.2692 499.66 30.2692 499.464 30.4645C499.269 30.6597 499.269 30.9763 499.464 31.1716L502.293 34L499.464 36.8284C499.269 37.0237 499.269 37.3403 499.464 37.5355C499.66 37.7308 499.976 37.7308 500.172 37.5355L503.354 34.3536ZM503 34V33.5H477V34V34.5H503V34Z" fill="black" fill-opacity="0.8"/>
<rect x="662.5" y="0.5" width="157" height="66.5962" rx="11.5" fill="white"/>
<rect x="662.5" y="0.5" width="157" height="66.5962" rx="11.5" stroke="#4D5157"/>
<path d="M691.217 30.2021V38.7981H690.006V30.2021H686.996V29.1591H694.269L694.143 30.2021H691.217ZM702.579 33.9891C702.579 34.9598 702.446 35.8208 702.18 36.5721C701.919 37.3188 701.524 37.9044 700.997 38.3291C700.47 38.7491 699.814 38.9591 699.03 38.9591C698.251 38.9591 697.595 38.7538 697.063 38.3431C696.536 37.9278 696.139 37.3491 695.873 36.6071C695.612 35.8651 695.481 34.9971 695.481 34.0031C695.481 33.0278 695.612 32.1644 695.873 31.4131C696.139 30.6618 696.536 30.0738 697.063 29.6491C697.595 29.2198 698.251 29.0051 699.03 29.0051C699.814 29.0051 700.47 29.2128 700.997 29.6281C701.524 30.0434 701.919 30.6244 702.18 31.3711C702.446 32.1178 702.579 32.9904 702.579 33.9891ZM701.305 33.9891C701.305 32.7058 701.128 31.7234 700.773 31.0421C700.423 30.3608 699.842 30.0201 699.03 30.0201C698.218 30.0201 697.635 30.3631 697.28 31.0491C696.93 31.7351 696.755 32.7198 696.755 34.0031C696.755 35.2864 696.937 36.2641 697.301 36.9361C697.665 37.6034 698.241 37.9371 699.03 37.9371C699.842 37.9371 700.423 37.6011 700.773 36.9291C701.128 36.2524 701.305 35.2724 701.305 33.9891ZM712.977 38.7981L714.335 31.9941H715.217L714.923 33.9401H714.979C715.231 33.5574 715.516 33.2074 715.833 32.8901C716.16 32.5634 716.505 32.3068 716.869 32.1201C717.242 31.9241 717.625 31.8261 718.017 31.8261C718.325 31.8261 718.591 31.8588 718.815 31.9241C719.048 31.9801 719.24 32.0641 719.389 32.1761L718.969 33.1001C718.801 32.9881 718.624 32.9134 718.437 32.8761C718.26 32.8294 718.059 32.8061 717.835 32.8061C717.312 32.8061 716.785 33.0301 716.253 33.4781C715.73 33.9261 715.231 34.5188 714.755 35.2561L714.041 38.7981H712.977ZM723.514 38.9661C722.916 38.9661 722.403 38.8401 721.974 38.5881C721.554 38.3361 721.227 37.9861 720.994 37.5381C720.77 37.0901 720.658 36.5721 720.658 35.9841C720.658 35.3868 720.76 34.8361 720.966 34.3321C721.18 33.8281 721.47 33.3894 721.834 33.0161C722.198 32.6334 722.613 32.3394 723.08 32.1341C723.556 31.9288 724.055 31.8261 724.578 31.8261C725.166 31.8261 725.67 31.9521 726.09 32.2041C726.519 32.4561 726.846 32.8061 727.07 33.2541C727.303 33.7021 727.42 34.2201 727.42 34.8081C727.42 35.3961 727.312 35.9468 727.098 36.4601C726.892 36.9641 726.608 37.4028 726.244 37.7761C725.88 38.1494 725.464 38.4434 724.998 38.6581C724.531 38.8634 724.036 38.9661 723.514 38.9661ZM723.584 38.0701C723.948 38.0701 724.293 37.9861 724.62 37.8181C724.956 37.6501 725.25 37.4214 725.502 37.1321C725.763 36.8428 725.968 36.5068 726.118 36.1241C726.267 35.7321 726.342 35.3168 726.342 34.8781C726.342 34.2154 726.178 33.6928 725.852 33.3101C725.525 32.9181 725.072 32.7221 724.494 32.7221C724.139 32.7221 723.794 32.8061 723.458 32.9741C723.131 33.1421 722.837 33.3708 722.576 33.6601C722.324 33.9494 722.123 34.2901 721.974 34.6821C721.824 35.0648 721.75 35.4754 721.75 35.9141C721.75 36.5768 721.913 37.1041 722.24 37.4961C722.566 37.8788 723.014 38.0701 723.584 38.0701ZM732.958 38.9661C732.436 38.9661 732.002 38.8168 731.656 38.5181C731.311 38.2101 731.138 37.7574 731.138 37.1601C731.138 37.0388 731.143 36.9221 731.152 36.8101C731.171 36.6888 731.199 36.5534 731.236 36.4041L732.65 29.6981H730.382L730.564 28.8301H733.882L732.286 36.4461C732.268 36.5488 732.249 36.6514 732.23 36.7541C732.221 36.8568 732.216 36.9594 732.216 37.0621C732.216 37.4074 732.31 37.6641 732.496 37.8321C732.683 37.9908 732.935 38.0701 733.252 38.0701C733.476 38.0701 733.691 38.0374 733.896 37.9721C734.111 37.9068 734.34 37.8134 734.582 37.6921L734.848 38.5181C734.55 38.6674 734.242 38.7794 733.924 38.8541C733.616 38.9288 733.294 38.9661 732.958 38.9661ZM740.583 38.9661C739.995 38.9661 739.481 38.8541 739.043 38.6301C738.613 38.4061 738.277 38.0748 738.035 37.6361C737.801 37.1974 737.685 36.6608 737.685 36.0261C737.685 35.4101 737.787 34.8501 737.993 34.3461C738.207 33.8328 738.492 33.3894 738.847 33.0161C739.211 32.6334 739.626 32.3394 740.093 32.1341C740.559 31.9288 741.049 31.8261 741.563 31.8261C742.393 31.8261 743.033 32.0734 743.481 32.5681C743.929 33.0628 744.153 33.6881 744.153 34.4441C744.153 34.6774 744.129 34.9154 744.083 35.1581C744.045 35.4008 744.008 35.5688 743.971 35.6621H738.511L738.651 34.8221H743.509L743.061 35.0321C743.089 34.9294 743.107 34.8268 743.117 34.7241C743.135 34.6121 743.145 34.5048 743.145 34.4021C743.145 33.8701 742.995 33.4501 742.697 33.1421C742.407 32.8341 742.011 32.6801 741.507 32.6801C741.18 32.6801 740.853 32.7594 740.527 32.9181C740.2 33.0768 739.901 33.3008 739.631 33.5901C739.369 33.8794 739.155 34.2248 738.987 34.6261C738.828 35.0274 738.749 35.4754 738.749 35.9701C738.749 36.4274 738.833 36.8148 739.001 37.1321C739.169 37.4494 739.407 37.6921 739.715 37.8601C740.023 38.0281 740.382 38.1121 740.793 38.1121C741.241 38.1121 741.661 38.0281 742.053 37.8601C742.445 37.6921 742.799 37.4821 743.117 37.2301L743.523 37.9581C743.177 38.2288 742.748 38.4668 742.235 38.6721C741.731 38.8681 741.18 38.9661 740.583 38.9661ZM746.975 40.9261L749.397 28.8861H753.191L753.079 29.5161H750.097L747.941 40.2961H750.909L750.797 40.9261H746.975ZM755.062 41.6401L754.908 41.0101C755.58 40.8141 756.116 40.5108 756.518 40.1001C756.928 39.6988 757.171 39.2321 757.246 38.7001L757.4 37.8881L757.764 38.5041C757.689 38.5881 757.582 38.6628 757.442 38.7281C757.311 38.7841 757.171 38.8121 757.022 38.8121C756.788 38.8121 756.588 38.7328 756.42 38.5741C756.261 38.4061 756.182 38.1868 756.182 37.9161C756.182 37.6921 756.238 37.4868 756.35 37.3001C756.462 37.1134 756.611 36.9688 756.798 36.8661C756.984 36.7541 757.19 36.6981 757.414 36.6981C757.703 36.6981 757.932 36.8101 758.1 37.0341C758.277 37.2488 758.366 37.5568 758.366 37.9581C758.366 38.5554 758.221 39.1061 757.932 39.6101C757.652 40.1141 757.264 40.5388 756.77 40.8841C756.275 41.2294 755.706 41.4814 755.062 41.6401ZM765.332 38.9661C765.071 38.9661 764.856 38.8774 764.688 38.7001C764.53 38.5228 764.45 38.2941 764.45 38.0141C764.45 37.7808 764.506 37.5661 764.618 37.3701C764.73 37.1648 764.88 37.0014 765.066 36.8801C765.262 36.7494 765.477 36.6841 765.71 36.6841C765.981 36.6841 766.196 36.7774 766.354 36.9641C766.513 37.1414 766.592 37.3701 766.592 37.6501C766.592 37.8741 766.536 38.0888 766.424 38.2941C766.312 38.4901 766.163 38.6534 765.976 38.7841C765.79 38.9054 765.575 38.9661 765.332 38.9661ZM773.727 38.9661C773.466 38.9661 773.251 38.8774 773.083 38.7001C772.924 38.5228 772.845 38.2941 772.845 38.0141C772.845 37.7808 772.901 37.5661 773.013 37.3701C773.125 37.1648 773.274 37.0014 773.461 36.8801C773.657 36.7494 773.872 36.6841 774.105 36.6841C774.376 36.6841 774.59 36.7774 774.749 36.9641C774.908 37.1414 774.987 37.3701 774.987 37.6501C774.987 37.8741 774.931 38.0888 774.819 38.2941C774.707 38.4901 774.558 38.6534 774.371 38.7841C774.184 38.9054 773.97 38.9661 773.727 38.9661ZM782.121 38.9661C781.86 38.9661 781.645 38.8774 781.477 38.7001C781.319 38.5228 781.239 38.2941 781.239 38.0141C781.239 37.7808 781.295 37.5661 781.407 37.3701C781.519 37.1648 781.669 37.0014 781.855 36.8801C782.051 36.7494 782.266 36.6841 782.499 36.6841C782.77 36.6841 782.985 36.7774 783.143 36.9641C783.302 37.1414 783.381 37.3701 783.381 37.6501C783.381 37.8741 783.325 38.0888 783.213 38.2941C783.101 38.4901 782.952 38.6534 782.765 38.7841C782.579 38.9054 782.364 38.9661 782.121 38.9661ZM787.38 40.9261L787.506 40.2961H790.488L792.63 29.5161H789.662L789.788 28.8861H793.596L791.188 40.9261H787.38Z" fill="#1A1B1D"/>
<path d="M659.354 34.3536C659.549 34.1583 659.549 33.8417 659.354 33.6464L656.172 30.4645C655.976 30.2692 655.66 30.2692 655.464 30.4645C655.269 30.6597 655.269 30.9763 655.464 31.1716L658.293 34L655.464 36.8284C655.269 37.0237 655.269 37.3403 655.464 37.5355C655.66 37.7308 655.976 37.7308 656.172 37.5355L659.354 34.3536ZM659 34V33.5H633V34V34.5H659V34Z" fill="black" fill-opacity="0.8"/>
</svg>
