<svg width="562" height="586" viewBox="0 0 562 586" fill="none" xmlns="http://www.w3.org/2000/svg">
<rect x="1" y="1" width="560" height="584" rx="19" stroke="#1A1B1D" stroke-width="2"/>
<rect x="25" y="109" width="221" height="452" rx="20" fill="#F5F6F6"/>
<path d="M77 188.5C77 156.191 103.191 130 135.5 130V130C167.809 130 194 156.191 194 188.5V188.5C194 220.809 167.809 247 135.5 247V247C103.191 247 77 220.809 77 188.5V188.5Z" fill="#014063"/>
<path d="M123.171 267.484V260.393H121.493V258.978H123.171V257.711C123.171 257.031 123.357 256.507 123.73 256.14C124.109 255.772 124.654 255.589 125.367 255.589H127.161L127.169 256.954H125.984C125.661 256.954 125.439 257.039 125.318 257.209C125.197 257.374 125.137 257.634 125.137 257.991V258.978H127.087V260.393H125.17V267.484H123.171ZM132.148 267.649C131.336 267.649 130.629 267.476 130.025 267.131C129.422 266.78 128.953 266.278 128.619 265.625C128.289 264.973 128.125 264.188 128.125 263.272C128.125 262.384 128.287 261.605 128.61 260.936C128.934 260.267 129.395 259.746 129.992 259.373C130.596 259 131.317 258.814 132.156 258.814C132.968 258.814 133.672 258.992 134.27 259.348C134.868 259.705 135.329 260.215 135.652 260.878C135.981 261.542 136.146 262.34 136.146 263.272C136.146 264.133 135.99 264.893 135.677 265.551C135.37 266.204 134.917 266.717 134.32 267.089C133.727 267.462 133.003 267.649 132.148 267.649ZM132.156 266.127C132.617 266.127 132.995 266.001 133.291 265.749C133.593 265.496 133.818 265.151 133.966 264.712C134.114 264.273 134.188 263.774 134.188 263.215C134.188 262.694 134.122 262.214 133.991 261.775C133.859 261.336 133.642 260.985 133.341 260.722C133.044 260.453 132.65 260.319 132.156 260.319C131.69 260.319 131.303 260.442 130.996 260.689C130.694 260.931 130.47 261.271 130.321 261.709C130.173 262.143 130.099 262.644 130.099 263.215C130.099 263.73 130.165 264.21 130.297 264.654C130.428 265.093 130.645 265.45 130.947 265.724C131.248 265.993 131.651 266.127 132.156 266.127ZM141.547 267.649C140.736 267.649 140.028 267.476 139.425 267.131C138.822 266.78 138.353 266.278 138.018 265.625C137.689 264.973 137.524 264.188 137.524 263.272C137.524 262.384 137.686 261.605 138.01 260.936C138.333 260.267 138.794 259.746 139.392 259.373C139.995 259 140.716 258.814 141.555 258.814C142.367 258.814 143.072 258.992 143.67 259.348C144.267 259.705 144.728 260.215 145.052 260.878C145.381 261.542 145.545 262.34 145.545 263.272C145.545 264.133 145.389 264.893 145.076 265.551C144.769 266.204 144.317 266.717 143.719 267.089C143.127 267.462 142.403 267.649 141.547 267.649ZM141.555 266.127C142.016 266.127 142.395 266.001 142.691 265.749C142.992 265.496 143.217 265.151 143.365 264.712C143.513 264.273 143.587 263.774 143.587 263.215C143.587 262.694 143.522 262.214 143.39 261.775C143.258 261.336 143.042 260.985 142.74 260.722C142.444 260.453 142.049 260.319 141.555 260.319C141.089 260.319 140.703 260.442 140.396 260.689C140.094 260.931 139.869 261.271 139.721 261.709C139.573 262.143 139.499 262.644 139.499 263.215C139.499 263.73 139.565 264.21 139.696 264.654C139.828 265.093 140.045 265.45 140.346 265.724C140.648 265.993 141.051 266.127 141.555 266.127ZM95.2014 287.516C94.7462 286.749 94.3513 285.989 94.0168 285.238C93.6877 284.486 93.43 283.707 93.2435 282.901C93.0625 282.095 92.972 281.226 92.972 280.293C92.972 278.933 93.1914 277.628 93.6302 276.378C94.0689 275.122 94.6338 273.986 95.3248 272.972H96.3696C95.8102 274.036 95.3495 275.201 94.9875 276.468C94.6256 277.729 94.4446 279.01 94.4446 280.31C94.4446 281.544 94.5981 282.748 94.9053 283.921C95.2124 285.089 95.6566 286.288 96.238 287.516H95.2014ZM98.0681 285.484V276.978H99.516V278.615C99.6586 278.209 99.8588 277.875 100.117 277.612C100.374 277.343 100.668 277.143 100.997 277.011C101.331 276.879 101.677 276.814 102.033 276.814C102.159 276.814 102.283 276.822 102.404 276.838C102.524 276.855 102.617 276.882 102.683 276.921V278.393C102.601 278.355 102.494 278.33 102.362 278.319C102.236 278.303 102.129 278.294 102.042 278.294C101.702 278.272 101.383 278.294 101.087 278.36C100.791 278.42 100.531 278.527 100.306 278.681C100.081 278.835 99.9027 279.037 99.771 279.29C99.6449 279.537 99.5818 279.838 99.5818 280.195V285.484H98.0681ZM107.962 285.649C107.172 285.649 106.475 285.476 105.872 285.131C105.269 284.785 104.797 284.289 104.457 283.642C104.117 282.994 103.947 282.218 103.947 281.314C103.947 280.42 104.101 279.635 104.408 278.961C104.715 278.286 105.159 277.76 105.74 277.381C106.327 277.003 107.032 276.814 107.855 276.814C108.655 276.814 109.333 276.986 109.887 277.332C110.441 277.677 110.86 278.165 111.145 278.796C111.436 279.421 111.581 280.165 111.581 281.026V281.585H105.485C105.485 282.122 105.573 282.611 105.749 283.049C105.93 283.483 106.201 283.828 106.563 284.086C106.925 284.344 107.383 284.473 107.937 284.473C108.48 284.473 108.946 284.346 109.335 284.094C109.73 283.842 109.983 283.477 110.092 283H111.524C111.425 283.576 111.195 284.061 110.833 284.456C110.476 284.851 110.046 285.15 109.541 285.353C109.042 285.55 108.516 285.649 107.962 285.649ZM105.494 280.557H110.117C110.117 280.069 110.035 279.63 109.87 279.24C109.706 278.846 109.453 278.536 109.113 278.311C108.779 278.08 108.356 277.965 107.846 277.965C107.314 277.965 106.873 278.094 106.522 278.352C106.171 278.604 105.91 278.931 105.74 279.331C105.57 279.726 105.488 280.134 105.494 280.557ZM113.686 288.133V276.978H115.199L115.216 278.459C115.315 278.283 115.441 278.1 115.594 277.908C115.753 277.716 115.945 277.538 116.17 277.373C116.401 277.208 116.667 277.074 116.968 276.97C117.275 276.866 117.624 276.814 118.013 276.814C118.693 276.814 119.291 276.97 119.806 277.282C120.327 277.59 120.733 278.061 121.024 278.697C121.315 279.334 121.46 280.14 121.46 281.116C121.46 282.092 121.317 282.918 121.032 283.592C120.752 284.261 120.347 284.771 119.815 285.122C119.283 285.473 118.641 285.649 117.89 285.649C117.511 285.649 117.174 285.594 116.878 285.484C116.587 285.38 116.332 285.243 116.113 285.073C115.899 284.898 115.718 284.711 115.57 284.514C115.427 284.316 115.309 284.127 115.216 283.946V288.133H113.686ZM117.602 284.464C118.304 284.464 118.877 284.198 119.321 283.666C119.765 283.129 119.987 282.295 119.987 281.165C119.987 280.195 119.784 279.424 119.379 278.854C118.973 278.283 118.38 277.998 117.602 277.998C116.812 277.998 116.214 278.292 115.808 278.878C115.402 279.46 115.199 280.222 115.199 281.165C115.199 281.774 115.29 282.328 115.471 282.827C115.652 283.326 115.921 283.724 116.277 284.02C116.634 284.316 117.075 284.464 117.602 284.464ZM125.634 285.591C125.173 285.591 124.8 285.528 124.515 285.402C124.236 285.276 124.019 285.106 123.865 284.892C123.717 284.678 123.616 284.434 123.561 284.16C123.512 283.88 123.487 283.592 123.487 283.296V273.26H124.984V283.148C124.984 283.576 125.066 283.897 125.231 284.111C125.401 284.324 125.637 284.442 125.938 284.464L126.399 284.473V285.46C126.273 285.498 126.141 285.528 126.004 285.55C125.867 285.578 125.744 285.591 125.634 285.591ZM128.429 285.484V276.978H129.901V285.484H128.429ZM128.388 275.176V273.597H129.942V275.176H128.388ZM135.875 285.649C135.107 285.649 134.427 285.482 133.835 285.147C133.248 284.813 132.787 284.319 132.453 283.666C132.124 283.014 131.959 282.213 131.959 281.264C131.959 280.376 132.11 279.6 132.411 278.936C132.719 278.267 133.163 277.746 133.744 277.373C134.331 277 135.041 276.814 135.875 276.814C136.484 276.814 137.029 276.931 137.512 277.167C138 277.398 138.4 277.727 138.713 278.155C139.026 278.582 139.218 279.087 139.289 279.668H137.94C137.89 279.372 137.775 279.101 137.594 278.854C137.419 278.607 137.186 278.41 136.895 278.261C136.61 278.113 136.272 278.039 135.883 278.039C135.154 278.039 134.559 278.303 134.098 278.829C133.643 279.356 133.415 280.162 133.415 281.248C133.415 282.229 133.624 283.016 134.04 283.609C134.463 284.196 135.082 284.489 135.9 284.489C136.289 284.489 136.629 284.415 136.92 284.267C137.21 284.113 137.443 283.913 137.619 283.666C137.794 283.414 137.907 283.145 137.956 282.86H139.281C139.209 283.43 139.015 283.924 138.697 284.341C138.384 284.758 137.984 285.081 137.495 285.312C137.013 285.536 136.473 285.649 135.875 285.649ZM143.691 285.649C143.138 285.649 142.649 285.553 142.227 285.361C141.81 285.164 141.481 284.881 141.24 284.514C141.004 284.146 140.886 283.702 140.886 283.181C140.886 282.238 141.215 281.536 141.873 281.075C142.532 280.614 143.587 280.367 145.041 280.335L146.554 280.293V279.627C146.554 279.106 146.398 278.695 146.085 278.393C145.773 278.086 145.29 277.932 144.638 277.932C144.149 277.938 143.719 278.053 143.346 278.278C142.973 278.503 142.734 278.87 142.63 279.38H141.289C141.322 278.826 141.476 278.36 141.75 277.982C142.03 277.598 142.422 277.307 142.926 277.11C143.431 276.912 144.026 276.814 144.712 276.814C145.452 276.814 146.066 276.918 146.554 277.126C147.048 277.335 147.415 277.642 147.657 278.048C147.903 278.453 148.027 278.952 148.027 279.545V285.484H146.727L146.612 283.888C146.288 284.552 145.872 285.013 145.361 285.27C144.857 285.523 144.3 285.649 143.691 285.649ZM144.144 284.555C144.435 284.555 144.72 284.503 145 284.398C145.285 284.294 145.542 284.154 145.773 283.979C146.009 283.798 146.198 283.598 146.34 283.378C146.483 283.154 146.554 282.923 146.554 282.687V281.231L145.296 281.256C144.643 281.267 144.1 281.333 143.667 281.453C143.234 281.574 142.907 281.763 142.688 282.021C142.468 282.279 142.359 282.616 142.359 283.033C142.359 283.51 142.526 283.883 142.861 284.152C143.195 284.42 143.623 284.555 144.144 284.555ZM153.164 285.526C152.578 285.526 152.122 285.446 151.799 285.287C151.475 285.128 151.248 284.892 151.116 284.579C150.99 284.267 150.927 283.883 150.927 283.428V278.089H149.545V276.978H150.968L151.338 274.502H152.457V276.97H154.374V278.089H152.457V283.378C152.457 283.68 152.487 283.902 152.547 284.045C152.613 284.182 152.72 284.27 152.868 284.308C153.016 284.346 153.225 284.366 153.493 284.366H154.423V285.386C154.319 285.424 154.16 285.457 153.946 285.484C153.737 285.512 153.477 285.526 153.164 285.526ZM159.811 285.649C159.022 285.649 158.325 285.476 157.722 285.131C157.119 284.785 156.647 284.289 156.307 283.642C155.967 282.994 155.797 282.218 155.797 281.314C155.797 280.42 155.95 279.635 156.258 278.961C156.565 278.286 157.009 277.76 157.59 277.381C158.177 277.003 158.882 276.814 159.704 276.814C160.505 276.814 161.183 276.986 161.736 277.332C162.29 277.677 162.71 278.165 162.995 278.796C163.286 279.421 163.431 280.165 163.431 281.026V281.585H157.335C157.335 282.122 157.423 282.611 157.598 283.049C157.779 283.483 158.051 283.828 158.413 284.086C158.775 284.344 159.233 284.473 159.787 284.473C160.33 284.473 160.796 284.346 161.185 284.094C161.58 283.842 161.832 283.477 161.942 283H163.374C163.275 283.576 163.044 284.061 162.683 284.456C162.326 284.851 161.895 285.15 161.391 285.353C160.892 285.55 160.365 285.649 159.811 285.649ZM157.343 280.557H161.967C161.967 280.069 161.885 279.63 161.72 279.24C161.555 278.846 161.303 278.536 160.963 278.311C160.629 278.08 160.206 277.965 159.696 277.965C159.164 277.965 158.723 278.094 158.372 278.352C158.021 278.604 157.76 278.931 157.59 279.331C157.42 279.726 157.338 280.134 157.343 280.557ZM168.637 285.649C167.529 285.649 166.652 285.27 166.004 284.514C165.363 283.757 165.042 282.652 165.042 281.198C165.042 280.315 165.171 279.545 165.429 278.887C165.686 278.229 166.073 277.718 166.589 277.357C167.104 276.995 167.746 276.814 168.514 276.814C168.925 276.814 169.287 276.866 169.6 276.97C169.912 277.074 170.184 277.206 170.414 277.365C170.644 277.524 170.831 277.688 170.973 277.858C171.121 278.028 171.231 278.185 171.302 278.327V273.26H172.841V285.484H171.673L171.508 283.74C171.453 283.905 171.365 284.097 171.245 284.316C171.124 284.53 170.954 284.741 170.735 284.95C170.521 285.153 170.241 285.32 169.896 285.451C169.55 285.583 169.131 285.649 168.637 285.649ZM168.908 284.481C169.764 284.481 170.376 284.22 170.743 283.699C171.116 283.173 171.302 282.314 171.302 281.124C171.297 280.461 171.215 279.896 171.056 279.43C170.897 278.963 170.644 278.61 170.299 278.368C169.959 278.122 169.504 277.998 168.933 277.998C168.237 277.998 167.669 278.248 167.23 278.747C166.792 279.246 166.572 280.038 166.572 281.124C166.572 282.188 166.77 283.014 167.164 283.6C167.559 284.187 168.141 284.481 168.908 284.481ZM174.547 287.516C175.128 286.288 175.572 285.089 175.879 283.921C176.186 282.748 176.34 281.544 176.34 280.31C176.34 279.01 176.159 277.729 175.797 276.468C175.435 275.201 174.974 274.036 174.415 272.972H175.46C176.151 273.986 176.713 275.122 177.146 276.378C177.585 277.628 177.804 278.933 177.804 280.293C177.804 281.226 177.714 282.095 177.533 282.901C177.352 283.707 177.094 284.486 176.76 285.238C176.425 285.989 176.033 286.749 175.583 287.516H174.547Z" fill="#1A1B1D"/>
<path d="M45.2223 50.3C43.2323 50.3 41.5223 49.845 40.0923 48.935C38.6723 48.015 37.5773 46.715 36.8073 45.035C36.0473 43.345 35.6673 41.34 35.6673 39.02C35.6673 36.71 36.0473 34.735 36.8073 33.095C37.5673 31.455 38.6573 30.2 40.0773 29.33C41.5073 28.45 43.2223 28.01 45.2223 28.01C46.8123 28.01 48.2223 28.335 49.4523 28.985C50.6823 29.625 51.6723 30.495 52.4223 31.595C53.1823 32.695 53.6323 33.92 53.7723 35.27H49.9173C49.7673 34.47 49.4873 33.755 49.0773 33.125C48.6773 32.495 48.1473 31.995 47.4873 31.625C46.8273 31.255 46.0373 31.07 45.1173 31.07C43.9673 31.07 42.9873 31.345 42.1773 31.895C41.3773 32.435 40.7623 33.295 40.3323 34.475C39.9123 35.655 39.7023 37.185 39.7023 39.065C39.7023 41.915 40.1723 43.99 41.1123 45.29C42.0523 46.59 43.3873 47.24 45.1173 47.24C46.0373 47.24 46.8273 47.04 47.4873 46.64C48.1473 46.23 48.6773 45.69 49.0773 45.02C49.4873 44.34 49.7673 43.6 49.9173 42.8H53.7723C53.6523 43.78 53.4023 44.72 53.0223 45.62C52.6523 46.52 52.1273 47.325 51.4473 48.035C50.7673 48.735 49.9123 49.29 48.8823 49.7C47.8623 50.1 46.6423 50.3 45.2223 50.3ZM61.8153 50.225C60.8153 50.225 60.0153 50.1 59.4153 49.85C58.8153 49.6 58.3653 49.265 58.0653 48.845C57.7653 48.425 57.5703 47.955 57.4803 47.435C57.3903 46.905 57.3453 46.365 57.3453 45.815V27.71H60.9153V45.395C60.9153 46.065 61.0503 46.585 61.3203 46.955C61.6003 47.325 62.0503 47.54 62.6703 47.6L63.4503 47.63V49.925C63.1803 50.005 62.9053 50.075 62.6253 50.135C62.3453 50.195 62.0753 50.225 61.8153 50.225ZM72.5565 50.3C71.0765 50.3 69.7865 49.985 68.6865 49.355C67.5865 48.715 66.7315 47.8 66.1215 46.61C65.5215 45.42 65.2215 43.99 65.2215 42.32C65.2215 40.7 65.5165 39.28 66.1065 38.06C66.6965 36.84 67.5365 35.89 68.6265 35.21C69.7265 34.53 71.0415 34.19 72.5715 34.19C74.0515 34.19 75.3365 34.515 76.4265 35.165C77.5165 35.815 78.3565 36.745 78.9465 37.955C79.5465 39.165 79.8465 40.62 79.8465 42.32C79.8465 43.89 79.5615 45.275 78.9915 46.475C78.4315 47.665 77.6065 48.6 76.5165 49.28C75.4365 49.96 74.1165 50.3 72.5565 50.3ZM72.5715 47.525C73.4115 47.525 74.1015 47.295 74.6415 46.835C75.1915 46.375 75.6015 45.745 75.8715 44.945C76.1415 44.145 76.2765 43.235 76.2765 42.215C76.2765 41.265 76.1565 40.39 75.9165 39.59C75.6765 38.79 75.2815 38.15 74.7315 37.67C74.1915 37.18 73.4715 36.935 72.5715 36.935C71.7215 36.935 71.0165 37.16 70.4565 37.61C69.9065 38.05 69.4965 38.67 69.2265 39.47C68.9565 40.26 68.8215 41.175 68.8215 42.215C68.8215 43.155 68.9415 44.03 69.1815 44.84C69.4215 45.64 69.8165 46.29 70.3665 46.79C70.9165 47.28 71.6515 47.525 72.5715 47.525ZM88.7973 50.3C88.0373 50.3 87.3023 50.19 86.5923 49.97C85.8923 49.74 85.2623 49.41 84.7023 48.98C84.1423 48.54 83.6973 48 83.3673 47.36C83.0373 46.72 82.8723 45.975 82.8723 45.125V34.49H86.5323V44.705C86.5323 45.545 86.7973 46.235 87.3273 46.775C87.8673 47.315 88.6773 47.585 89.7573 47.585C90.7373 47.585 91.5223 47.33 92.1123 46.82C92.7023 46.3 92.9973 45.555 92.9973 44.585V34.49H96.6273V50H93.8223L93.4173 46.97C93.2273 47.82 92.8923 48.49 92.4123 48.98C91.9423 49.46 91.3873 49.8 90.7473 50C90.1173 50.2 89.4673 50.3 88.7973 50.3ZM106.523 50.3C104.473 50.3 102.863 49.595 101.693 48.185C100.523 46.775 99.9383 44.77 99.9383 42.17C99.9383 40.55 100.173 39.145 100.643 37.955C101.123 36.755 101.828 35.83 102.758 35.18C103.688 34.52 104.833 34.19 106.193 34.19C106.833 34.19 107.413 34.27 107.933 34.43C108.463 34.58 108.933 34.78 109.343 35.03C109.753 35.28 110.098 35.555 110.378 35.855C110.668 36.155 110.893 36.455 111.053 36.755V27.71H114.728V50H112.028L111.623 46.82C111.493 47.19 111.308 47.58 111.068 47.99C110.838 48.39 110.523 48.765 110.123 49.115C109.733 49.465 109.243 49.75 108.653 49.97C108.063 50.19 107.353 50.3 106.523 50.3ZM107.273 47.615C108.583 47.615 109.538 47.19 110.138 46.34C110.748 45.48 111.053 44.06 111.053 42.08C111.043 40.95 110.903 40 110.633 39.23C110.373 38.46 109.973 37.88 109.433 37.49C108.893 37.1 108.188 36.905 107.318 36.905C106.218 36.905 105.313 37.31 104.603 38.12C103.903 38.93 103.553 40.25 103.553 42.08C103.553 43.9 103.878 45.28 104.528 46.22C105.178 47.15 106.093 47.615 107.273 47.615ZM125.841 50V34.49H129.336V37.85C129.586 37.08 129.941 36.425 130.401 35.885C130.871 35.335 131.421 34.915 132.051 34.625C132.681 34.335 133.366 34.19 134.106 34.19C134.286 34.19 134.461 34.2 134.631 34.22C134.801 34.24 134.926 34.275 135.006 34.325V37.82C134.896 37.77 134.751 37.735 134.571 37.715C134.401 37.695 134.251 37.685 134.121 37.685C133.371 37.625 132.706 37.655 132.126 37.775C131.556 37.895 131.071 38.1 130.671 38.39C130.281 38.67 129.986 39.03 129.786 39.47C129.586 39.9 129.486 40.405 129.486 40.985V50H125.841ZM144.65 50.3C143.16 50.3 141.845 49.985 140.705 49.355C139.575 48.715 138.69 47.805 138.05 46.625C137.42 45.445 137.105 44.04 137.105 42.41C137.105 40.82 137.39 39.41 137.96 38.18C138.54 36.94 139.375 35.965 140.465 35.255C141.565 34.545 142.89 34.19 144.44 34.19C145.97 34.19 147.255 34.515 148.295 35.165C149.335 35.815 150.125 36.725 150.665 37.895C151.205 39.055 151.475 40.415 151.475 41.975V43.085H140.75C140.74 43.965 140.88 44.745 141.17 45.425C141.46 46.105 141.89 46.64 142.46 47.03C143.03 47.41 143.735 47.6 144.575 47.6C145.435 47.6 146.18 47.41 146.81 47.03C147.45 46.64 147.875 46.05 148.085 45.26H151.415C151.235 46.34 150.805 47.255 150.125 48.005C149.455 48.755 148.635 49.325 147.665 49.715C146.705 50.105 145.7 50.3 144.65 50.3ZM140.735 40.82H148.025C148.025 40.07 147.89 39.395 147.62 38.795C147.36 38.185 146.965 37.705 146.435 37.355C145.905 36.995 145.235 36.815 144.425 36.815C143.625 36.815 142.95 37.01 142.4 37.4C141.85 37.79 141.435 38.295 141.155 38.915C140.875 39.525 140.735 40.16 140.735 40.82ZM161.716 55.13C159.106 55.13 157.101 54.78 155.701 54.08C154.301 53.38 153.601 52.42 153.601 51.2C153.601 50.65 153.736 50.19 154.006 49.82C154.276 49.45 154.596 49.145 154.966 48.905C155.336 48.665 155.676 48.48 155.986 48.35C156.296 48.22 156.496 48.125 156.586 48.065C156.416 47.965 156.191 47.835 155.911 47.675C155.631 47.515 155.376 47.295 155.146 47.015C154.926 46.735 154.816 46.37 154.816 45.92C154.816 45.4 155.061 44.92 155.551 44.48C156.051 44.04 156.796 43.725 157.786 43.535C156.816 43.065 156.071 42.43 155.551 41.63C155.031 40.83 154.771 40 154.771 39.14C154.771 38.12 155.066 37.245 155.656 36.515C156.256 35.785 157.086 35.225 158.146 34.835C159.206 34.445 160.441 34.25 161.851 34.25C162.881 34.25 163.736 34.365 164.416 34.595C165.106 34.825 165.746 35.135 166.336 35.525C166.536 35.445 166.816 35.335 167.176 35.195C167.536 35.045 167.931 34.885 168.361 34.715C168.791 34.535 169.206 34.365 169.606 34.205C170.006 34.035 170.341 33.895 170.611 33.785L170.596 36.8L167.911 37.28C168.041 37.57 168.141 37.885 168.211 38.225C168.291 38.565 168.331 38.865 168.331 39.125C168.331 40.025 168.076 40.86 167.566 41.63C167.066 42.39 166.311 43 165.301 43.46C164.301 43.92 163.051 44.15 161.551 44.15C161.401 44.15 161.196 44.145 160.936 44.135C160.676 44.125 160.466 44.115 160.306 44.105C159.496 44.135 158.941 44.23 158.641 44.39C158.341 44.55 158.191 44.725 158.191 44.915C158.191 45.185 158.416 45.365 158.866 45.455C159.316 45.545 160.036 45.625 161.026 45.695C161.376 45.715 161.836 45.74 162.406 45.77C162.976 45.8 163.611 45.84 164.311 45.89C166.081 46 167.421 46.445 168.331 47.225C169.241 47.995 169.696 48.995 169.696 50.225C169.696 51.655 169.036 52.83 167.716 53.75C166.396 54.67 164.396 55.13 161.716 55.13ZM162.331 52.985C163.641 52.985 164.611 52.805 165.241 52.445C165.871 52.085 166.186 51.555 166.186 50.855C166.186 50.315 165.971 49.875 165.541 49.535C165.111 49.195 164.471 48.995 163.621 48.935L159.706 48.695C159.276 48.665 158.866 48.745 158.476 48.935C158.096 49.115 157.786 49.37 157.546 49.7C157.306 50.02 157.186 50.375 157.186 50.765C157.186 51.495 157.601 52.045 158.431 52.415C159.271 52.795 160.571 52.985 162.331 52.985ZM161.671 42.005C162.621 42.005 163.391 41.765 163.981 41.285C164.571 40.795 164.866 40.105 164.866 39.215C164.866 38.295 164.571 37.58 163.981 37.07C163.391 36.55 162.621 36.29 161.671 36.29C160.701 36.29 159.916 36.55 159.316 37.07C158.726 37.59 158.431 38.305 158.431 39.215C158.431 40.075 158.716 40.755 159.286 41.255C159.856 41.755 160.651 42.005 161.671 42.005ZM173.655 50V34.49H177.15V50H173.655ZM173.595 31.775V28.325H177.21V31.775H173.595ZM187.84 50.3C186.36 50.3 185.07 49.985 183.97 49.355C182.87 48.715 182.015 47.8 181.405 46.61C180.805 45.42 180.505 43.99 180.505 42.32C180.505 40.7 180.8 39.28 181.39 38.06C181.98 36.84 182.82 35.89 183.91 35.21C185.01 34.53 186.325 34.19 187.855 34.19C189.335 34.19 190.62 34.515 191.71 35.165C192.8 35.815 193.64 36.745 194.23 37.955C194.83 39.165 195.13 40.62 195.13 42.32C195.13 43.89 194.845 45.275 194.275 46.475C193.715 47.665 192.89 48.6 191.8 49.28C190.72 49.96 189.4 50.3 187.84 50.3ZM187.855 47.525C188.695 47.525 189.385 47.295 189.925 46.835C190.475 46.375 190.885 45.745 191.155 44.945C191.425 44.145 191.56 43.235 191.56 42.215C191.56 41.265 191.44 40.39 191.2 39.59C190.96 38.79 190.565 38.15 190.015 37.67C189.475 37.18 188.755 36.935 187.855 36.935C187.005 36.935 186.3 37.16 185.74 37.61C185.19 38.05 184.78 38.67 184.51 39.47C184.24 40.26 184.105 41.175 184.105 42.215C184.105 43.155 184.225 44.03 184.465 44.84C184.705 45.64 185.1 46.29 185.65 46.79C186.2 47.28 186.935 47.525 187.855 47.525ZM198.468 50V34.49H202.038V36.71C202.278 36.31 202.603 35.925 203.013 35.555C203.433 35.185 203.948 34.885 204.558 34.655C205.168 34.425 205.883 34.31 206.703 34.31C207.663 34.31 208.553 34.5 209.373 34.88C210.203 35.26 210.868 35.855 211.368 36.665C211.878 37.475 212.133 38.52 212.133 39.8V50H208.473V40.235C208.473 39.215 208.193 38.46 207.633 37.97C207.073 37.47 206.368 37.22 205.518 37.22C204.938 37.22 204.388 37.32 203.868 37.52C203.348 37.71 202.923 38.005 202.593 38.405C202.273 38.795 202.113 39.285 202.113 39.875V50H198.468ZM226.333 50V33.29H222.313V31.115C223.583 31.115 224.588 31.01 225.328 30.8C226.078 30.58 226.623 30.26 226.963 29.84C227.313 29.42 227.513 28.91 227.563 28.31H230.053V50H226.333ZM65.7906 93.705C64.9606 92.305 64.2406 90.92 63.6306 89.55C63.0306 88.18 62.5606 86.76 62.2206 85.29C61.8906 83.82 61.7256 82.235 61.7256 80.535C61.7256 78.055 62.1256 75.675 62.9256 73.395C63.7256 71.105 64.7556 69.035 66.0156 67.185H67.9206C66.9006 69.125 66.0606 71.25 65.4006 73.56C64.7406 75.86 64.4106 78.195 64.4106 80.565C64.4106 82.815 64.6906 85.01 65.2506 87.15C65.8106 89.28 66.6206 91.465 67.6806 93.705H65.7906ZM79.5676 90.3C77.6176 90.3 75.9526 89.855 74.5726 88.965C73.2026 88.075 72.1526 86.795 71.4226 85.125C70.7026 83.455 70.3426 81.44 70.3426 79.08C70.3426 76.73 70.7026 74.73 71.4226 73.08C72.1426 71.43 73.1876 70.175 74.5576 69.315C75.9376 68.445 77.6076 68.01 79.5676 68.01C81.0976 68.01 82.4526 68.33 83.6326 68.97C84.8126 69.6 85.7626 70.445 86.4826 71.505C87.2026 72.565 87.6276 73.73 87.7576 75H84.8026C84.6426 74.15 84.3376 73.38 83.8876 72.69C83.4376 72 82.8476 71.45 82.1176 71.04C81.3876 70.63 80.5126 70.425 79.4926 70.425C78.1826 70.425 77.0726 70.735 76.1626 71.355C75.2626 71.965 74.5776 72.91 74.1076 74.19C73.6476 75.47 73.4176 77.11 73.4176 79.11C73.4176 82.13 73.9326 84.35 74.9626 85.77C76.0026 87.18 77.5126 87.885 79.4926 87.885C80.5126 87.885 81.3876 87.67 82.1176 87.24C82.8476 86.81 83.4376 86.235 83.8876 85.515C84.3376 84.795 84.6426 84.015 84.8026 83.175H87.7576C87.6476 84.095 87.3976 84.985 87.0076 85.845C86.6276 86.695 86.1026 87.455 85.4326 88.125C84.7626 88.795 83.9376 89.325 82.9576 89.715C81.9876 90.105 80.8576 90.3 79.5676 90.3ZM95.5869 90.195C94.7469 90.195 94.0669 90.08 93.5469 89.85C93.0369 89.62 92.6419 89.31 92.3619 88.92C92.0919 88.53 91.9069 88.085 91.8069 87.585C91.7169 87.075 91.6719 86.55 91.6719 86.01V67.71H94.4019V85.74C94.4019 86.52 94.5519 87.105 94.8519 87.495C95.1619 87.885 95.5919 88.1 96.1419 88.14L96.9819 88.155V89.955C96.7519 90.025 96.5119 90.08 96.2619 90.12C96.0119 90.17 95.7869 90.195 95.5869 90.195ZM105.956 90.3C105.146 90.29 104.381 90.175 103.661 89.955C102.951 89.725 102.321 89.39 101.771 88.95C101.221 88.51 100.786 87.965 100.466 87.315C100.156 86.655 100.001 85.89 100.001 85.02V74.49H102.776V84.735C102.776 85.745 103.086 86.565 103.706 87.195C104.336 87.825 105.281 88.14 106.541 88.14C107.681 88.14 108.596 87.845 109.286 87.255C109.986 86.655 110.336 85.765 110.336 84.585V74.49H113.096V90H110.891L110.606 87.03C110.416 87.81 110.091 88.44 109.631 88.92C109.181 89.4 108.636 89.755 107.996 89.985C107.366 90.205 106.686 90.31 105.956 90.3ZM123.238 90.3C122.158 90.3 121.153 90.135 120.223 89.805C119.303 89.465 118.538 88.94 117.928 88.23C117.318 87.51 116.938 86.595 116.788 85.485H119.308C119.438 86.095 119.688 86.605 120.058 87.015C120.428 87.415 120.883 87.72 121.423 87.93C121.973 88.13 122.573 88.23 123.223 88.23C124.273 88.23 125.118 88.035 125.758 87.645C126.398 87.255 126.718 86.655 126.718 85.845C126.718 85.275 126.548 84.82 126.208 84.48C125.878 84.13 125.358 83.875 124.648 83.715L121.438 82.92C120.188 82.62 119.188 82.15 118.438 81.51C117.698 80.87 117.323 79.975 117.313 78.825C117.313 77.915 117.533 77.115 117.973 76.425C118.413 75.735 119.068 75.19 119.938 74.79C120.818 74.39 121.913 74.19 123.223 74.19C124.913 74.19 126.273 74.57 127.303 75.33C128.333 76.08 128.873 77.185 128.923 78.645H126.463C126.363 77.905 126.033 77.32 125.473 76.89C124.913 76.45 124.153 76.23 123.193 76.23C122.213 76.23 121.408 76.43 120.778 76.83C120.158 77.22 119.848 77.83 119.848 78.66C119.848 79.21 120.068 79.645 120.508 79.965C120.958 80.275 121.608 80.535 122.458 80.745L125.578 81.525C126.288 81.715 126.878 81.965 127.348 82.275C127.818 82.585 128.188 82.93 128.458 83.31C128.728 83.69 128.918 84.09 129.028 84.51C129.148 84.92 129.208 85.315 129.208 85.695C129.208 86.645 128.973 87.465 128.503 88.155C128.033 88.835 127.353 89.365 126.463 89.745C125.573 90.115 124.498 90.3 123.238 90.3ZM138.197 90.075C137.127 90.075 136.297 89.93 135.707 89.64C135.117 89.35 134.702 88.92 134.462 88.35C134.232 87.78 134.117 87.08 134.117 86.25V76.515H131.597V74.49H134.192L134.867 69.975H136.907V74.475H140.402V76.515H136.907V86.16C136.907 86.71 136.962 87.115 137.072 87.375C137.192 87.625 137.387 87.785 137.657 87.855C137.927 87.925 138.307 87.96 138.797 87.96H140.492V89.82C140.302 89.89 140.012 89.95 139.622 90C139.242 90.05 138.767 90.075 138.197 90.075ZM150.317 90.3C148.877 90.3 147.607 89.985 146.507 89.355C145.407 88.725 144.547 87.82 143.927 86.64C143.307 85.46 142.997 84.045 142.997 82.395C142.997 80.765 143.277 79.335 143.837 78.105C144.397 76.875 145.207 75.915 146.267 75.225C147.337 74.535 148.622 74.19 150.122 74.19C151.582 74.19 152.817 74.505 153.827 75.135C154.837 75.765 155.602 76.655 156.122 77.805C156.652 78.945 156.917 80.3 156.917 81.87V82.89H145.802C145.802 83.87 145.962 84.76 146.282 85.56C146.612 86.35 147.107 86.98 147.767 87.45C148.427 87.92 149.262 88.155 150.272 88.155C151.262 88.155 152.112 87.925 152.822 87.465C153.542 87.005 154.002 86.34 154.202 85.47H156.812C156.632 86.52 156.212 87.405 155.552 88.125C154.902 88.845 154.117 89.39 153.197 89.76C152.287 90.12 151.327 90.3 150.317 90.3ZM145.817 81.015H154.247C154.247 80.125 154.097 79.325 153.797 78.615C153.497 77.895 153.037 77.33 152.417 76.92C151.807 76.5 151.037 76.29 150.107 76.29C149.137 76.29 148.332 76.525 147.692 76.995C147.052 77.455 146.577 78.05 146.267 78.78C145.957 79.5 145.807 80.245 145.817 81.015ZM160.754 90V74.49H163.394V77.475C163.654 76.735 164.019 76.125 164.489 75.645C164.959 75.155 165.494 74.79 166.094 74.55C166.704 74.31 167.334 74.19 167.984 74.19C168.214 74.19 168.439 74.205 168.659 74.235C168.879 74.265 169.049 74.315 169.169 74.385V77.07C169.019 77 168.824 76.955 168.584 76.935C168.354 76.905 168.159 76.89 167.999 76.89C167.379 76.85 166.799 76.89 166.259 77.01C165.719 77.12 165.244 77.315 164.834 77.595C164.424 77.875 164.099 78.245 163.859 78.705C163.629 79.155 163.514 79.705 163.514 80.355V90H160.754ZM178.718 90L186.563 68.31H189.698L197.543 90H194.708L192.578 84.06H183.683L181.538 90H178.718ZM184.418 81.51H191.813L188.123 71.025L184.418 81.51ZM199.626 93.705C200.686 91.465 201.496 89.28 202.056 87.15C202.616 85.01 202.896 82.815 202.896 80.565C202.896 78.195 202.566 75.86 201.906 73.56C201.246 71.25 200.406 69.125 199.386 67.185H201.291C202.551 69.035 203.576 71.105 204.366 73.395C205.166 75.675 205.566 78.055 205.566 80.535C205.566 82.235 205.401 83.82 205.071 85.29C204.741 86.76 204.271 88.18 203.661 89.55C203.051 90.92 202.336 92.305 201.516 93.705H199.626Z" fill="#1A1B1D"/>
<path d="M135.894 162C125.338 162 113.848 164.578 113.848 170.184C113.848 175.79 125.338 178.369 135.894 178.369C146.449 178.369 157.794 175.79 157.794 170.184C157.794 164.578 146.449 162 135.894 162Z" fill="white"/>
<path fill-rule="evenodd" clip-rule="evenodd" d="M135.894 182.87C127.616 182.87 118.841 181.421 113.848 177.943V207.15C113.848 212.756 125.338 215.334 135.894 215.334C146.449 215.334 157.794 212.756 157.794 207.15V178.232C152.8 181.711 144.172 182.87 135.894 182.87ZM136.729 189.827C132.599 189.827 129.827 192.233 129.827 196.88V200.182C130.223 199.986 130.676 199.874 131.156 199.874C131.637 199.874 132.09 199.986 132.514 200.182V196.851C132.514 193.829 134.183 192.29 136.729 192.29C139.275 192.29 140.944 193.829 140.944 196.851V204.1H143.631V196.851C143.66 192.178 140.859 189.827 136.729 189.827ZM122.896 198.615C123.123 198.251 123.434 197.971 123.774 197.803C124.396 197.495 125.16 197.495 125.81 197.775C126.405 198.139 126.688 198.755 126.857 199.37C127.084 200.154 127.367 200.742 128.074 201.162C128.781 201.582 129.46 201.498 130.252 201.302C130.903 201.163 131.582 201.078 132.176 201.414C132.826 201.778 133.222 202.421 133.25 203.121V203.401C133.194 204.072 132.826 204.744 132.176 205.108C131.554 205.471 130.875 205.388 130.252 205.22C129.46 205.024 128.782 204.939 128.074 205.359C127.338 205.751 127.084 206.367 126.857 207.151C126.688 207.767 126.405 208.411 125.81 208.746C125.16 209.11 124.396 209.11 123.774 208.802C123.406 208.634 123.123 208.354 122.896 207.99C122.67 207.626 122.585 207.235 122.613 206.843C122.67 206.171 123.038 205.5 123.688 205.136C124.31 204.772 124.989 204.856 125.612 205.024C126.403 205.22 127.082 205.304 127.79 204.884H127.818C129.035 204.185 129.035 202.421 127.818 201.721H127.79C127.083 201.301 126.404 201.385 125.612 201.581C124.961 201.721 124.282 201.805 123.688 201.469C123.038 201.106 122.642 200.462 122.613 199.762C122.585 199.37 122.67 198.979 122.896 198.615Z" fill="white"/>
<rect x="317" y="109" width="219" height="452" rx="20" fill="#F5F6F6"/>
<path d="M368 188.5C368 156.191 394.191 130 426.5 130V130C458.809 130 485 156.191 485 188.5V188.5C485 220.809 458.809 247 426.5 247V247C394.191 247 368 220.809 368 188.5V188.5Z" fill="#014063"/>
<path d="M384.197 267.484V260.393H382.519V258.978H384.197V257.711C384.197 257.031 384.383 256.507 384.756 256.14C385.135 255.772 385.68 255.589 386.393 255.589H388.187L388.195 256.954H387.01C386.687 256.954 386.465 257.039 386.344 257.209C386.223 257.374 386.163 257.634 386.163 257.991V258.978H388.113V260.393H386.196V267.484H384.197ZM393.174 267.649C392.362 267.649 391.655 267.476 391.051 267.131C390.448 266.78 389.979 266.278 389.645 265.625C389.316 264.973 389.151 264.188 389.151 263.272C389.151 262.384 389.313 261.605 389.636 260.936C389.96 260.267 390.421 259.746 391.018 259.373C391.622 259 392.343 258.814 393.182 258.814C393.994 258.814 394.698 258.992 395.296 259.348C395.894 259.705 396.355 260.215 396.678 260.878C397.007 261.542 397.172 262.34 397.172 263.272C397.172 264.133 397.016 264.893 396.703 265.551C396.396 266.204 395.943 266.717 395.346 267.089C394.753 267.462 394.029 267.649 393.174 267.649ZM393.182 266.127C393.643 266.127 394.021 266.001 394.317 265.749C394.619 265.496 394.844 265.151 394.992 264.712C395.14 264.273 395.214 263.774 395.214 263.215C395.214 262.694 395.148 262.214 395.017 261.775C394.885 261.336 394.668 260.985 394.367 260.722C394.071 260.453 393.676 260.319 393.182 260.319C392.716 260.319 392.329 260.442 392.022 260.689C391.72 260.931 391.496 261.271 391.348 261.709C391.199 262.143 391.125 262.644 391.125 263.215C391.125 263.73 391.191 264.21 391.323 264.654C391.454 265.093 391.671 265.45 391.973 265.724C392.274 265.993 392.677 266.127 393.182 266.127ZM402.573 267.649C401.762 267.649 401.054 267.476 400.451 267.131C399.848 266.78 399.379 266.278 399.044 265.625C398.715 264.973 398.551 264.188 398.551 263.272C398.551 262.384 398.712 261.605 399.036 260.936C399.359 260.267 399.82 259.746 400.418 259.373C401.021 259 401.742 258.814 402.582 258.814C403.393 258.814 404.098 258.992 404.696 259.348C405.294 259.705 405.754 260.215 406.078 260.878C406.407 261.542 406.571 262.34 406.571 263.272C406.571 264.133 406.415 264.893 406.102 265.551C405.795 266.204 405.343 266.717 404.745 267.089C404.153 267.462 403.429 267.649 402.573 267.649ZM402.582 266.127C403.042 266.127 403.421 266.001 403.717 265.749C404.018 265.496 404.243 265.151 404.391 264.712C404.539 264.273 404.613 263.774 404.613 263.215C404.613 262.694 404.548 262.214 404.416 261.775C404.284 261.336 404.068 260.985 403.766 260.722C403.47 260.453 403.075 260.319 402.582 260.319C402.115 260.319 401.729 260.442 401.422 260.689C401.12 260.931 400.895 261.271 400.747 261.709C400.599 262.143 400.525 262.644 400.525 263.215C400.525 263.73 400.591 264.21 400.722 264.654C400.854 265.093 401.071 265.45 401.372 265.724C401.674 265.993 402.077 266.127 402.582 266.127ZM408.432 263.996V262.499L412.775 262.491V263.988L408.432 263.996ZM414.91 267.484V258.978H416.827V260.821C416.964 260.399 417.158 260.039 417.411 259.743C417.668 259.442 417.97 259.211 418.316 259.052C418.661 258.893 419.037 258.814 419.443 258.814C419.541 258.814 419.637 258.819 419.731 258.83C419.824 258.841 419.892 258.86 419.936 258.888V260.804C419.876 260.777 419.796 260.758 419.698 260.747C419.604 260.736 419.522 260.73 419.451 260.73C419.04 260.697 418.675 260.714 418.357 260.78C418.044 260.846 417.778 260.958 417.559 261.117C417.345 261.271 417.183 261.468 417.073 261.709C416.964 261.945 416.909 262.222 416.909 262.54V267.484H414.91ZM425.225 267.649C424.408 267.649 423.687 267.476 423.061 267.131C422.442 266.78 421.956 266.281 421.605 265.633C421.26 264.986 421.087 264.216 421.087 263.322C421.087 262.45 421.243 261.676 421.556 261.002C421.874 260.322 422.332 259.787 422.93 259.398C423.533 259.008 424.26 258.814 425.11 258.814C425.949 258.814 426.654 258.992 427.224 259.348C427.794 259.705 428.228 260.204 428.524 260.846C428.82 261.482 428.968 262.228 428.968 263.083V263.692H423.086C423.08 264.175 423.157 264.602 423.316 264.975C423.475 265.348 423.711 265.642 424.024 265.856C424.336 266.064 424.723 266.168 425.184 266.168C425.655 266.168 426.064 266.064 426.41 265.856C426.761 265.642 426.994 265.318 427.109 264.885H428.935C428.836 265.477 428.601 265.979 428.228 266.39C427.86 266.802 427.41 267.114 426.878 267.328C426.352 267.542 425.801 267.649 425.225 267.649ZM423.078 262.45H427.076C427.076 262.038 427.002 261.668 426.854 261.339C426.711 261.005 426.495 260.741 426.204 260.549C425.913 260.352 425.546 260.253 425.101 260.253C424.663 260.253 424.293 260.36 423.991 260.574C423.689 260.788 423.462 261.065 423.308 261.405C423.155 261.739 423.078 262.088 423.078 262.45ZM430.881 270.133V258.978H432.88L432.896 260.319C433.006 260.133 433.146 259.949 433.316 259.768C433.491 259.587 433.692 259.425 433.917 259.282C434.147 259.14 434.402 259.027 434.682 258.945C434.961 258.857 435.268 258.814 435.603 258.814C436.256 258.814 436.834 258.97 437.339 259.282C437.843 259.59 438.238 260.064 438.523 260.706C438.814 261.347 438.959 262.159 438.959 263.141C438.959 264.144 438.811 264.981 438.515 265.65C438.219 266.319 437.805 266.821 437.273 267.155C436.741 267.484 436.124 267.649 435.422 267.649C435.098 267.649 434.802 267.605 434.533 267.517C434.27 267.43 434.034 267.309 433.826 267.155C433.618 267.002 433.434 266.834 433.275 266.653C433.121 266.473 432.992 266.283 432.888 266.086V270.133H430.881ZM434.978 266.152C435.581 266.152 436.08 265.913 436.475 265.436C436.87 264.953 437.067 264.199 437.067 263.174C437.067 262.285 436.881 261.586 436.508 261.076C436.14 260.56 435.63 260.303 434.978 260.303C434.276 260.303 433.749 260.574 433.398 261.117C433.047 261.654 432.872 262.34 432.872 263.174C432.872 263.711 432.949 264.207 433.102 264.663C433.261 265.112 433.494 265.474 433.801 265.749C434.114 266.017 434.506 266.152 434.978 266.152ZM443.23 267.608C442.682 267.608 442.243 267.539 441.914 267.402C441.585 267.265 441.338 267.081 441.173 266.851C441.009 266.621 440.902 266.363 440.853 266.078C440.803 265.787 440.778 265.491 440.778 265.189V255.26H442.736V264.959C442.736 265.326 442.81 265.611 442.959 265.814C443.112 266.017 443.359 266.135 443.699 266.168L444.127 266.185V267.443C443.979 267.487 443.828 267.526 443.674 267.558C443.521 267.591 443.373 267.608 443.23 267.608ZM445.953 267.484V258.978H447.87V267.484H445.953ZM445.92 257.489V255.597H447.903V257.489H445.92ZM453.732 267.649C452.953 267.649 452.26 267.479 451.651 267.139C451.048 266.793 450.573 266.294 450.228 265.642C449.882 264.983 449.709 264.191 449.709 263.264C449.709 262.381 449.871 261.608 450.195 260.944C450.524 260.275 450.987 259.754 451.585 259.381C452.188 259.003 452.904 258.814 453.732 258.814C454.396 258.814 454.98 258.945 455.484 259.208C455.989 259.472 456.392 259.836 456.694 260.303C457.001 260.769 457.185 261.298 457.245 261.89H455.542C455.498 261.633 455.402 261.388 455.254 261.158C455.106 260.922 454.906 260.733 454.654 260.591C454.407 260.442 454.105 260.368 453.749 260.368C453.107 260.368 452.589 260.604 452.194 261.076C451.799 261.548 451.602 262.271 451.602 263.248C451.602 264.147 451.788 264.863 452.161 265.395C452.539 265.927 453.08 266.193 453.782 266.193C454.133 266.193 454.434 266.116 454.687 265.962C454.939 265.803 455.136 265.609 455.279 265.378C455.427 265.143 455.52 264.907 455.559 264.671H457.22C457.171 265.247 456.993 265.76 456.686 266.209C456.378 266.659 455.973 267.013 455.468 267.27C454.963 267.523 454.385 267.649 453.732 267.649ZM461.523 267.649C460.98 267.649 460.492 267.55 460.059 267.353C459.631 267.15 459.294 266.862 459.047 266.489C458.806 266.111 458.685 265.653 458.685 265.115C458.685 264.177 459.022 263.47 459.697 262.993C460.377 262.516 461.457 262.266 462.938 262.244L464.213 262.211V261.635C464.213 261.186 464.079 260.835 463.81 260.582C463.547 260.325 463.135 260.198 462.576 260.204C462.159 260.209 461.781 260.308 461.441 260.5C461.101 260.686 460.876 261.002 460.766 261.446H459.063C459.096 260.865 459.263 260.379 459.565 259.99C459.872 259.595 460.292 259.302 460.824 259.11C461.356 258.912 461.97 258.814 462.667 258.814C463.478 258.814 464.139 258.921 464.649 259.134C465.159 259.348 465.535 259.658 465.776 260.064C466.017 260.464 466.138 260.95 466.138 261.52V267.484H464.452L464.287 265.954C463.986 266.596 463.599 267.04 463.127 267.287C462.661 267.528 462.126 267.649 461.523 267.649ZM462.173 266.292C462.42 266.292 462.664 266.248 462.905 266.16C463.146 266.067 463.363 265.943 463.555 265.79C463.752 265.631 463.909 265.455 464.024 265.263C464.145 265.071 464.208 264.871 464.213 264.663V263.322L463.168 263.338C462.653 263.344 462.2 263.399 461.811 263.503C461.427 263.607 461.128 263.774 460.914 264.005C460.7 264.229 460.593 264.531 460.593 264.909C460.593 265.343 460.744 265.683 461.046 265.93C461.348 266.171 461.723 266.292 462.173 266.292ZM399.047 287.516C398.592 286.749 398.197 285.989 397.863 285.238C397.534 284.486 397.276 283.707 397.089 282.901C396.908 282.095 396.818 281.226 396.818 280.293C396.818 278.933 397.037 277.628 397.476 276.378C397.915 275.122 398.48 273.986 399.171 272.972H400.216C399.656 274.036 399.195 275.201 398.833 276.468C398.472 277.729 398.291 279.01 398.291 280.31C398.291 281.544 398.444 282.748 398.751 283.921C399.058 285.089 399.503 286.288 400.084 287.516H399.047ZM404.974 285.649C404.382 285.649 403.831 285.558 403.321 285.377C402.816 285.191 402.397 284.903 402.062 284.514C401.728 284.119 401.519 283.617 401.437 283.008H402.819C402.89 283.343 403.027 283.622 403.23 283.847C403.433 284.067 403.683 284.234 403.979 284.349C404.281 284.459 404.61 284.514 404.966 284.514C405.542 284.514 406.005 284.407 406.356 284.193C406.707 283.979 406.883 283.65 406.883 283.206C406.883 282.893 406.79 282.643 406.603 282.457C406.422 282.265 406.137 282.125 405.748 282.037L403.987 281.601C403.302 281.437 402.753 281.179 402.342 280.828C401.936 280.477 401.73 279.986 401.725 279.356C401.725 278.857 401.846 278.418 402.087 278.039C402.328 277.661 402.687 277.362 403.165 277.143C403.647 276.923 404.248 276.814 404.966 276.814C405.893 276.814 406.639 277.022 407.204 277.439C407.769 277.85 408.065 278.456 408.092 279.257H406.743C406.688 278.851 406.507 278.53 406.2 278.294C405.893 278.053 405.476 277.932 404.95 277.932C404.412 277.932 403.971 278.042 403.625 278.261C403.285 278.475 403.115 278.81 403.115 279.265C403.115 279.567 403.236 279.805 403.477 279.981C403.724 280.151 404.08 280.293 404.547 280.409L406.258 280.836C406.647 280.941 406.971 281.078 407.228 281.248C407.486 281.418 407.689 281.607 407.837 281.815C407.985 282.024 408.089 282.243 408.15 282.473C408.216 282.698 408.249 282.915 408.249 283.123C408.249 283.644 408.12 284.094 407.862 284.473C407.604 284.845 407.231 285.136 406.743 285.345C406.255 285.547 405.665 285.649 404.974 285.649ZM413.643 285.649C412.859 285.649 412.173 285.482 411.586 285.147C411.005 284.807 410.552 284.311 410.229 283.658C409.905 283.005 409.743 282.207 409.743 281.264C409.743 280.376 409.894 279.597 410.196 278.928C410.498 278.259 410.939 277.74 411.52 277.373C412.102 277 412.812 276.814 413.651 276.814C414.435 276.814 415.115 276.986 415.691 277.332C416.267 277.672 416.714 278.174 417.032 278.837C417.356 279.501 417.518 280.31 417.518 281.264C417.518 282.131 417.369 282.893 417.073 283.551C416.777 284.209 416.341 284.725 415.765 285.098C415.195 285.465 414.487 285.649 413.643 285.649ZM413.651 284.448C414.156 284.448 414.583 284.319 414.934 284.061C415.285 283.803 415.551 283.433 415.732 282.951C415.919 282.468 416.012 281.895 416.012 281.231C416.012 280.622 415.93 280.077 415.765 279.594C415.606 279.106 415.354 278.719 415.008 278.434C414.663 278.149 414.21 278.006 413.651 278.006C413.136 278.006 412.7 278.135 412.343 278.393C411.987 278.645 411.715 279.013 411.529 279.495C411.348 279.978 411.257 280.557 411.257 281.231C411.257 281.829 411.337 282.372 411.496 282.86C411.66 283.348 411.918 283.735 412.269 284.02C412.625 284.305 413.086 284.448 413.651 284.448ZM422.634 285.649C422.19 285.643 421.77 285.58 421.375 285.46C420.986 285.334 420.641 285.15 420.339 284.909C420.037 284.667 419.799 284.368 419.623 284.012C419.453 283.65 419.368 283.23 419.368 282.753V276.978H420.89V282.597C420.89 283.151 421.06 283.6 421.4 283.946C421.746 284.292 422.264 284.464 422.955 284.464C423.58 284.464 424.082 284.302 424.46 283.979C424.844 283.65 425.036 283.162 425.036 282.515V276.978H426.55V285.484H425.341L425.184 283.856C425.08 284.283 424.902 284.629 424.65 284.892C424.403 285.155 424.104 285.35 423.753 285.476C423.407 285.597 423.034 285.654 422.634 285.649ZM429.149 285.484V276.978H430.596V278.615C430.739 278.209 430.939 277.875 431.197 277.612C431.455 277.343 431.748 277.143 432.077 277.011C432.412 276.879 432.757 276.814 433.114 276.814C433.24 276.814 433.363 276.822 433.484 276.838C433.605 276.855 433.698 276.882 433.764 276.921V278.393C433.681 278.355 433.574 278.33 433.443 278.319C433.317 278.303 433.21 278.294 433.122 278.294C432.782 278.272 432.464 278.294 432.168 278.36C431.871 278.42 431.611 278.527 431.386 278.681C431.161 278.835 430.983 279.037 430.851 279.29C430.725 279.537 430.662 279.838 430.662 280.195V285.484H429.149ZM438.869 285.649C438.101 285.649 437.421 285.482 436.829 285.147C436.242 284.813 435.782 284.319 435.447 283.666C435.118 283.014 434.953 282.213 434.953 281.264C434.953 280.376 435.104 279.6 435.406 278.936C435.713 278.267 436.157 277.746 436.739 277.373C437.325 277 438.036 276.814 438.869 276.814C439.478 276.814 440.024 276.931 440.506 277.167C440.994 277.398 441.395 277.727 441.707 278.155C442.02 278.582 442.212 279.087 442.283 279.668H440.934C440.885 279.372 440.77 279.101 440.589 278.854C440.413 278.607 440.18 278.41 439.889 278.261C439.604 278.113 439.267 278.039 438.877 278.039C438.148 278.039 437.553 278.303 437.092 278.829C436.637 279.356 436.409 280.162 436.409 281.248C436.409 282.229 436.618 283.016 437.035 283.609C437.457 284.196 438.077 284.489 438.894 284.489C439.283 284.489 439.623 284.415 439.914 284.267C440.205 284.113 440.438 283.913 440.613 283.666C440.789 283.414 440.901 283.145 440.951 282.86H442.275C442.204 283.43 442.009 283.924 441.691 284.341C441.378 284.758 440.978 285.081 440.49 285.312C440.007 285.536 439.467 285.649 438.869 285.649ZM447.943 285.649C447.154 285.649 446.457 285.476 445.854 285.131C445.251 284.785 444.779 284.289 444.439 283.642C444.099 282.994 443.929 282.218 443.929 281.314C443.929 280.42 444.082 279.635 444.389 278.961C444.697 278.286 445.141 277.76 445.722 277.381C446.309 277.003 447.014 276.814 447.836 276.814C448.637 276.814 449.314 276.986 449.868 277.332C450.422 277.677 450.842 278.165 451.127 278.796C451.418 279.421 451.563 280.165 451.563 281.026V281.585H445.467C445.467 282.122 445.555 282.611 445.73 283.049C445.911 283.483 446.183 283.828 446.545 284.086C446.907 284.344 447.365 284.473 447.919 284.473C448.462 284.473 448.928 284.346 449.317 284.094C449.712 283.842 449.964 283.477 450.074 283H451.505C451.407 283.576 451.176 284.061 450.814 284.456C450.458 284.851 450.027 285.15 449.523 285.353C449.024 285.55 448.497 285.649 447.943 285.649ZM445.475 280.557H450.099C450.099 280.069 450.016 279.63 449.852 279.24C449.687 278.846 449.435 278.536 449.095 278.311C448.761 278.08 448.338 277.965 447.828 277.965C447.296 277.965 446.855 278.094 446.504 278.352C446.153 278.604 445.892 278.931 445.722 279.331C445.552 279.726 445.47 280.134 445.475 280.557ZM452.701 287.516C453.282 286.288 453.726 285.089 454.033 283.921C454.34 282.748 454.494 281.544 454.494 280.31C454.494 279.01 454.313 277.729 453.951 276.468C453.589 275.201 453.128 274.036 452.569 272.972H453.614C454.305 273.986 454.867 275.122 455.3 276.378C455.739 277.628 455.958 278.933 455.958 280.293C455.958 281.226 455.868 282.095 455.687 282.901C455.506 283.707 455.248 284.486 454.914 285.238C454.579 285.989 454.187 286.749 453.737 287.516H452.701Z" fill="#1A1B1D"/>
<path d="M334.399 50.3C332.409 50.3 330.699 49.845 329.269 48.935C327.849 48.015 326.754 46.715 325.984 45.035C325.224 43.345 324.844 41.34 324.844 39.02C324.844 36.71 325.224 34.735 325.984 33.095C326.744 31.455 327.834 30.2 329.254 29.33C330.684 28.45 332.399 28.01 334.399 28.01C335.989 28.01 337.399 28.335 338.629 28.985C339.859 29.625 340.849 30.495 341.599 31.595C342.359 32.695 342.809 33.92 342.949 35.27H339.094C338.944 34.47 338.664 33.755 338.254 33.125C337.854 32.495 337.324 31.995 336.664 31.625C336.004 31.255 335.214 31.07 334.294 31.07C333.144 31.07 332.164 31.345 331.354 31.895C330.554 32.435 329.939 33.295 329.509 34.475C329.089 35.655 328.879 37.185 328.879 39.065C328.879 41.915 329.349 43.99 330.289 45.29C331.229 46.59 332.564 47.24 334.294 47.24C335.214 47.24 336.004 47.04 336.664 46.64C337.324 46.23 337.854 45.69 338.254 45.02C338.664 44.34 338.944 43.6 339.094 42.8H342.949C342.829 43.78 342.579 44.72 342.199 45.62C341.829 46.52 341.304 47.325 340.624 48.035C339.944 48.735 339.089 49.29 338.059 49.7C337.039 50.1 335.819 50.3 334.399 50.3ZM350.992 50.225C349.992 50.225 349.192 50.1 348.592 49.85C347.992 49.6 347.542 49.265 347.242 48.845C346.942 48.425 346.747 47.955 346.657 47.435C346.567 46.905 346.522 46.365 346.522 45.815V27.71H350.092V45.395C350.092 46.065 350.227 46.585 350.497 46.955C350.777 47.325 351.227 47.54 351.847 47.6L352.627 47.63V49.925C352.357 50.005 352.082 50.075 351.802 50.135C351.522 50.195 351.252 50.225 350.992 50.225ZM361.733 50.3C360.253 50.3 358.963 49.985 357.863 49.355C356.763 48.715 355.908 47.8 355.298 46.61C354.698 45.42 354.398 43.99 354.398 42.32C354.398 40.7 354.693 39.28 355.283 38.06C355.873 36.84 356.713 35.89 357.803 35.21C358.903 34.53 360.218 34.19 361.748 34.19C363.228 34.19 364.513 34.515 365.603 35.165C366.693 35.815 367.533 36.745 368.123 37.955C368.723 39.165 369.023 40.62 369.023 42.32C369.023 43.89 368.738 45.275 368.168 46.475C367.608 47.665 366.783 48.6 365.693 49.28C364.613 49.96 363.293 50.3 361.733 50.3ZM361.748 47.525C362.588 47.525 363.278 47.295 363.818 46.835C364.368 46.375 364.778 45.745 365.048 44.945C365.318 44.145 365.453 43.235 365.453 42.215C365.453 41.265 365.333 40.39 365.093 39.59C364.853 38.79 364.458 38.15 363.908 37.67C363.368 37.18 362.648 36.935 361.748 36.935C360.898 36.935 360.193 37.16 359.633 37.61C359.083 38.05 358.673 38.67 358.403 39.47C358.133 40.26 357.998 41.175 357.998 42.215C357.998 43.155 358.118 44.03 358.358 44.84C358.598 45.64 358.993 46.29 359.543 46.79C360.093 47.28 360.828 47.525 361.748 47.525ZM377.974 50.3C377.214 50.3 376.479 50.19 375.769 49.97C375.069 49.74 374.439 49.41 373.879 48.98C373.319 48.54 372.874 48 372.544 47.36C372.214 46.72 372.049 45.975 372.049 45.125V34.49H375.709V44.705C375.709 45.545 375.974 46.235 376.504 46.775C377.044 47.315 377.854 47.585 378.934 47.585C379.914 47.585 380.699 47.33 381.289 46.82C381.879 46.3 382.174 45.555 382.174 44.585V34.49H385.804V50H382.999L382.594 46.97C382.404 47.82 382.069 48.49 381.589 48.98C381.119 49.46 380.564 49.8 379.924 50C379.294 50.2 378.644 50.3 377.974 50.3ZM395.7 50.3C393.65 50.3 392.04 49.595 390.87 48.185C389.7 46.775 389.115 44.77 389.115 42.17C389.115 40.55 389.35 39.145 389.82 37.955C390.3 36.755 391.005 35.83 391.935 35.18C392.865 34.52 394.01 34.19 395.37 34.19C396.01 34.19 396.59 34.27 397.11 34.43C397.64 34.58 398.11 34.78 398.52 35.03C398.93 35.28 399.275 35.555 399.555 35.855C399.845 36.155 400.07 36.455 400.23 36.755V27.71H403.905V50H401.205L400.8 46.82C400.67 47.19 400.485 47.58 400.245 47.99C400.015 48.39 399.7 48.765 399.3 49.115C398.91 49.465 398.42 49.75 397.83 49.97C397.24 50.19 396.53 50.3 395.7 50.3ZM396.45 47.615C397.76 47.615 398.715 47.19 399.315 46.34C399.925 45.48 400.23 44.06 400.23 42.08C400.22 40.95 400.08 40 399.81 39.23C399.55 38.46 399.15 37.88 398.61 37.49C398.07 37.1 397.365 36.905 396.495 36.905C395.395 36.905 394.49 37.31 393.78 38.12C393.08 38.93 392.73 40.25 392.73 42.08C392.73 43.9 393.055 45.28 393.705 46.22C394.355 47.15 395.27 47.615 396.45 47.615ZM415.018 50V34.49H418.513V37.85C418.763 37.08 419.118 36.425 419.578 35.885C420.048 35.335 420.598 34.915 421.228 34.625C421.858 34.335 422.543 34.19 423.283 34.19C423.463 34.19 423.638 34.2 423.808 34.22C423.978 34.24 424.103 34.275 424.183 34.325V37.82C424.073 37.77 423.928 37.735 423.748 37.715C423.578 37.695 423.428 37.685 423.298 37.685C422.548 37.625 421.883 37.655 421.303 37.775C420.733 37.895 420.248 38.1 419.848 38.39C419.458 38.67 419.163 39.03 418.963 39.47C418.763 39.9 418.663 40.405 418.663 40.985V50H415.018ZM433.826 50.3C432.336 50.3 431.021 49.985 429.881 49.355C428.751 48.715 427.866 47.805 427.226 46.625C426.596 45.445 426.281 44.04 426.281 42.41C426.281 40.82 426.566 39.41 427.136 38.18C427.716 36.94 428.551 35.965 429.641 35.255C430.741 34.545 432.066 34.19 433.616 34.19C435.146 34.19 436.431 34.515 437.471 35.165C438.511 35.815 439.301 36.725 439.841 37.895C440.381 39.055 440.651 40.415 440.651 41.975V43.085H429.926C429.916 43.965 430.056 44.745 430.346 45.425C430.636 46.105 431.066 46.64 431.636 47.03C432.206 47.41 432.911 47.6 433.751 47.6C434.611 47.6 435.356 47.41 435.986 47.03C436.626 46.64 437.051 46.05 437.261 45.26H440.591C440.411 46.34 439.981 47.255 439.301 48.005C438.631 48.755 437.811 49.325 436.841 49.715C435.881 50.105 434.876 50.3 433.826 50.3ZM429.911 40.82H437.201C437.201 40.07 437.066 39.395 436.796 38.795C436.536 38.185 436.141 37.705 435.611 37.355C435.081 36.995 434.411 36.815 433.601 36.815C432.801 36.815 432.126 37.01 431.576 37.4C431.026 37.79 430.611 38.295 430.331 38.915C430.051 39.525 429.911 40.16 429.911 40.82ZM450.893 55.13C448.283 55.13 446.278 54.78 444.878 54.08C443.478 53.38 442.778 52.42 442.778 51.2C442.778 50.65 442.913 50.19 443.183 49.82C443.453 49.45 443.773 49.145 444.143 48.905C444.513 48.665 444.853 48.48 445.163 48.35C445.473 48.22 445.673 48.125 445.763 48.065C445.593 47.965 445.368 47.835 445.088 47.675C444.808 47.515 444.553 47.295 444.323 47.015C444.103 46.735 443.993 46.37 443.993 45.92C443.993 45.4 444.238 44.92 444.728 44.48C445.228 44.04 445.973 43.725 446.963 43.535C445.993 43.065 445.248 42.43 444.728 41.63C444.208 40.83 443.948 40 443.948 39.14C443.948 38.12 444.243 37.245 444.833 36.515C445.433 35.785 446.263 35.225 447.323 34.835C448.383 34.445 449.618 34.25 451.028 34.25C452.058 34.25 452.913 34.365 453.593 34.595C454.283 34.825 454.923 35.135 455.513 35.525C455.713 35.445 455.993 35.335 456.353 35.195C456.713 35.045 457.108 34.885 457.538 34.715C457.968 34.535 458.383 34.365 458.783 34.205C459.183 34.035 459.518 33.895 459.788 33.785L459.773 36.8L457.088 37.28C457.218 37.57 457.318 37.885 457.388 38.225C457.468 38.565 457.508 38.865 457.508 39.125C457.508 40.025 457.253 40.86 456.743 41.63C456.243 42.39 455.488 43 454.478 43.46C453.478 43.92 452.228 44.15 450.728 44.15C450.578 44.15 450.373 44.145 450.113 44.135C449.853 44.125 449.643 44.115 449.483 44.105C448.673 44.135 448.118 44.23 447.818 44.39C447.518 44.55 447.368 44.725 447.368 44.915C447.368 45.185 447.593 45.365 448.043 45.455C448.493 45.545 449.213 45.625 450.203 45.695C450.553 45.715 451.013 45.74 451.583 45.77C452.153 45.8 452.788 45.84 453.488 45.89C455.258 46 456.598 46.445 457.508 47.225C458.418 47.995 458.873 48.995 458.873 50.225C458.873 51.655 458.213 52.83 456.893 53.75C455.573 54.67 453.573 55.13 450.893 55.13ZM451.508 52.985C452.818 52.985 453.788 52.805 454.418 52.445C455.048 52.085 455.363 51.555 455.363 50.855C455.363 50.315 455.148 49.875 454.718 49.535C454.288 49.195 453.648 48.995 452.798 48.935L448.883 48.695C448.453 48.665 448.043 48.745 447.653 48.935C447.273 49.115 446.963 49.37 446.723 49.7C446.483 50.02 446.363 50.375 446.363 50.765C446.363 51.495 446.778 52.045 447.608 52.415C448.448 52.795 449.748 52.985 451.508 52.985ZM450.848 42.005C451.798 42.005 452.568 41.765 453.158 41.285C453.748 40.795 454.043 40.105 454.043 39.215C454.043 38.295 453.748 37.58 453.158 37.07C452.568 36.55 451.798 36.29 450.848 36.29C449.878 36.29 449.093 36.55 448.493 37.07C447.903 37.59 447.608 38.305 447.608 39.215C447.608 40.075 447.893 40.755 448.463 41.255C449.033 41.755 449.828 42.005 450.848 42.005ZM462.832 50V34.49H466.327V50H462.832ZM462.772 31.775V28.325H466.387V31.775H462.772ZM477.017 50.3C475.537 50.3 474.247 49.985 473.147 49.355C472.047 48.715 471.192 47.8 470.582 46.61C469.982 45.42 469.682 43.99 469.682 42.32C469.682 40.7 469.977 39.28 470.567 38.06C471.157 36.84 471.997 35.89 473.087 35.21C474.187 34.53 475.502 34.19 477.032 34.19C478.512 34.19 479.797 34.515 480.887 35.165C481.977 35.815 482.817 36.745 483.407 37.955C484.007 39.165 484.307 40.62 484.307 42.32C484.307 43.89 484.022 45.275 483.452 46.475C482.892 47.665 482.067 48.6 480.977 49.28C479.897 49.96 478.577 50.3 477.017 50.3ZM477.032 47.525C477.872 47.525 478.562 47.295 479.102 46.835C479.652 46.375 480.062 45.745 480.332 44.945C480.602 44.145 480.737 43.235 480.737 42.215C480.737 41.265 480.617 40.39 480.377 39.59C480.137 38.79 479.742 38.15 479.192 37.67C478.652 37.18 477.932 36.935 477.032 36.935C476.182 36.935 475.477 37.16 474.917 37.61C474.367 38.05 473.957 38.67 473.687 39.47C473.417 40.26 473.282 41.175 473.282 42.215C473.282 43.155 473.402 44.03 473.642 44.84C473.882 45.64 474.277 46.29 474.827 46.79C475.377 47.28 476.112 47.525 477.032 47.525ZM487.645 50V34.49H491.215V36.71C491.455 36.31 491.78 35.925 492.19 35.555C492.61 35.185 493.125 34.885 493.735 34.655C494.345 34.425 495.06 34.31 495.88 34.31C496.84 34.31 497.73 34.5 498.55 34.88C499.38 35.26 500.045 35.855 500.545 36.665C501.055 37.475 501.31 38.52 501.31 39.8V50H497.65V40.235C497.65 39.215 497.37 38.46 496.81 37.97C496.25 37.47 495.545 37.22 494.695 37.22C494.115 37.22 493.565 37.32 493.045 37.52C492.525 37.71 492.1 38.005 491.77 38.405C491.45 38.795 491.29 39.285 491.29 39.875V50H487.645ZM511.925 50V48.05V47.045C511.925 45.935 512.13 44.98 512.54 44.18C512.95 43.37 513.495 42.665 514.175 42.065C514.855 41.465 515.6 40.935 516.41 40.475C517.23 40.005 518.04 39.565 518.84 39.155C519.65 38.735 520.395 38.305 521.075 37.865C521.755 37.415 522.3 36.915 522.71 36.365C523.13 35.815 523.34 35.16 523.34 34.4C523.34 33.43 522.995 32.64 522.305 32.03C521.625 31.41 520.7 31.1 519.53 31.1C518.29 31.1 517.265 31.455 516.455 32.165C515.655 32.875 515.18 33.875 515.03 35.165H511.49C511.51 33.845 511.825 32.645 512.435 31.565C513.045 30.485 513.95 29.625 515.15 28.985C516.35 28.335 517.845 28.01 519.635 28.01C521.185 28.01 522.52 28.28 523.64 28.82C524.77 29.35 525.64 30.095 526.25 31.055C526.87 32.005 527.18 33.115 527.18 34.385C527.18 35.495 526.975 36.445 526.565 37.235C526.165 38.025 525.63 38.71 524.96 39.29C524.3 39.86 523.57 40.365 522.77 40.805C521.98 41.245 521.185 41.66 520.385 42.05C519.595 42.43 518.865 42.83 518.195 43.25C517.535 43.66 517 44.13 516.59 44.66C516.19 45.19 515.99 45.825 515.99 46.565V46.88H527.225V50H511.925ZM358.629 93.705C357.799 92.305 357.079 90.92 356.469 89.55C355.869 88.18 355.399 86.76 355.059 85.29C354.729 83.82 354.564 82.235 354.564 80.535C354.564 78.055 354.964 75.675 355.764 73.395C356.564 71.105 357.594 69.035 358.854 67.185H360.759C359.739 69.125 358.899 71.25 358.239 73.56C357.579 75.86 357.249 78.195 357.249 80.565C357.249 82.815 357.529 85.01 358.089 87.15C358.649 89.28 359.459 91.465 360.519 93.705H358.629ZM372.407 90.3C370.457 90.3 368.792 89.855 367.412 88.965C366.042 88.075 364.992 86.795 364.262 85.125C363.542 83.455 363.182 81.44 363.182 79.08C363.182 76.73 363.542 74.73 364.262 73.08C364.982 71.43 366.027 70.175 367.397 69.315C368.777 68.445 370.447 68.01 372.407 68.01C373.937 68.01 375.292 68.33 376.472 68.97C377.652 69.6 378.602 70.445 379.322 71.505C380.042 72.565 380.467 73.73 380.597 75H377.642C377.482 74.15 377.177 73.38 376.727 72.69C376.277 72 375.687 71.45 374.957 71.04C374.227 70.63 373.352 70.425 372.332 70.425C371.022 70.425 369.912 70.735 369.002 71.355C368.102 71.965 367.417 72.91 366.947 74.19C366.487 75.47 366.257 77.11 366.257 79.11C366.257 82.13 366.772 84.35 367.802 85.77C368.842 87.18 370.352 87.885 372.332 87.885C373.352 87.885 374.227 87.67 374.957 87.24C375.687 86.81 376.277 86.235 376.727 85.515C377.177 84.795 377.482 84.015 377.642 83.175H380.597C380.487 84.095 380.237 84.985 379.847 85.845C379.467 86.695 378.942 87.455 378.272 88.125C377.602 88.795 376.777 89.325 375.797 89.715C374.827 90.105 373.697 90.3 372.407 90.3ZM388.426 90.195C387.586 90.195 386.906 90.08 386.386 89.85C385.876 89.62 385.481 89.31 385.201 88.92C384.931 88.53 384.746 88.085 384.646 87.585C384.556 87.075 384.511 86.55 384.511 86.01V67.71H387.241V85.74C387.241 86.52 387.391 87.105 387.691 87.495C388.001 87.885 388.431 88.1 388.981 88.14L389.821 88.155V89.955C389.591 90.025 389.351 90.08 389.101 90.12C388.851 90.17 388.626 90.195 388.426 90.195ZM398.795 90.3C397.985 90.29 397.22 90.175 396.5 89.955C395.79 89.725 395.16 89.39 394.61 88.95C394.06 88.51 393.625 87.965 393.305 87.315C392.995 86.655 392.84 85.89 392.84 85.02V74.49H395.615V84.735C395.615 85.745 395.925 86.565 396.545 87.195C397.175 87.825 398.12 88.14 399.38 88.14C400.52 88.14 401.435 87.845 402.125 87.255C402.825 86.655 403.175 85.765 403.175 84.585V74.49H405.935V90H403.73L403.445 87.03C403.255 87.81 402.93 88.44 402.47 88.92C402.02 89.4 401.475 89.755 400.835 89.985C400.205 90.205 399.525 90.31 398.795 90.3ZM416.077 90.3C414.997 90.3 413.992 90.135 413.062 89.805C412.142 89.465 411.377 88.94 410.767 88.23C410.157 87.51 409.777 86.595 409.627 85.485H412.147C412.277 86.095 412.527 86.605 412.897 87.015C413.267 87.415 413.722 87.72 414.262 87.93C414.812 88.13 415.412 88.23 416.062 88.23C417.112 88.23 417.957 88.035 418.597 87.645C419.237 87.255 419.557 86.655 419.557 85.845C419.557 85.275 419.387 84.82 419.047 84.48C418.717 84.13 418.197 83.875 417.487 83.715L414.277 82.92C413.027 82.62 412.027 82.15 411.277 81.51C410.537 80.87 410.162 79.975 410.152 78.825C410.152 77.915 410.372 77.115 410.812 76.425C411.252 75.735 411.907 75.19 412.777 74.79C413.657 74.39 414.752 74.19 416.062 74.19C417.752 74.19 419.112 74.57 420.142 75.33C421.172 76.08 421.712 77.185 421.762 78.645H419.302C419.202 77.905 418.872 77.32 418.312 76.89C417.752 76.45 416.992 76.23 416.032 76.23C415.052 76.23 414.247 76.43 413.617 76.83C412.997 77.22 412.687 77.83 412.687 78.66C412.687 79.21 412.907 79.645 413.347 79.965C413.797 80.275 414.447 80.535 415.297 80.745L418.417 81.525C419.127 81.715 419.717 81.965 420.187 82.275C420.657 82.585 421.027 82.93 421.297 83.31C421.567 83.69 421.757 84.09 421.867 84.51C421.987 84.92 422.047 85.315 422.047 85.695C422.047 86.645 421.812 87.465 421.342 88.155C420.872 88.835 420.192 89.365 419.302 89.745C418.412 90.115 417.337 90.3 416.077 90.3ZM431.036 90.075C429.966 90.075 429.136 89.93 428.546 89.64C427.956 89.35 427.541 88.92 427.301 88.35C427.071 87.78 426.956 87.08 426.956 86.25V76.515H424.436V74.49H427.031L427.706 69.975H429.746V74.475H433.241V76.515H429.746V86.16C429.746 86.71 429.801 87.115 429.911 87.375C430.031 87.625 430.226 87.785 430.496 87.855C430.766 87.925 431.146 87.96 431.636 87.96H433.331V89.82C433.141 89.89 432.851 89.95 432.461 90C432.081 90.05 431.606 90.075 431.036 90.075ZM443.156 90.3C441.716 90.3 440.446 89.985 439.346 89.355C438.246 88.725 437.386 87.82 436.766 86.64C436.146 85.46 435.836 84.045 435.836 82.395C435.836 80.765 436.116 79.335 436.676 78.105C437.236 76.875 438.046 75.915 439.106 75.225C440.176 74.535 441.461 74.19 442.961 74.19C444.421 74.19 445.656 74.505 446.666 75.135C447.676 75.765 448.441 76.655 448.961 77.805C449.491 78.945 449.756 80.3 449.756 81.87V82.89H438.641C438.641 83.87 438.801 84.76 439.121 85.56C439.451 86.35 439.946 86.98 440.606 87.45C441.266 87.92 442.101 88.155 443.111 88.155C444.101 88.155 444.951 87.925 445.661 87.465C446.381 87.005 446.841 86.34 447.041 85.47H449.651C449.471 86.52 449.051 87.405 448.391 88.125C447.741 88.845 446.956 89.39 446.036 89.76C445.126 90.12 444.166 90.3 443.156 90.3ZM438.656 81.015H447.086C447.086 80.125 446.936 79.325 446.636 78.615C446.336 77.895 445.876 77.33 445.256 76.92C444.646 76.5 443.876 76.29 442.946 76.29C441.976 76.29 441.171 76.525 440.531 76.995C439.891 77.455 439.416 78.05 439.106 78.78C438.796 79.5 438.646 80.245 438.656 81.015ZM453.593 90V74.49H456.233V77.475C456.493 76.735 456.858 76.125 457.328 75.645C457.798 75.155 458.333 74.79 458.933 74.55C459.543 74.31 460.173 74.19 460.823 74.19C461.053 74.19 461.278 74.205 461.498 74.235C461.718 74.265 461.888 74.315 462.008 74.385V77.07C461.858 77 461.663 76.955 461.423 76.935C461.193 76.905 460.998 76.89 460.838 76.89C460.218 76.85 459.638 76.89 459.098 77.01C458.558 77.12 458.083 77.315 457.673 77.595C457.263 77.875 456.938 78.245 456.698 78.705C456.468 79.155 456.353 79.705 456.353 80.355V90H453.593ZM473.177 90V68.31H480.152C482.792 68.31 484.787 68.795 486.137 69.765C487.497 70.735 488.177 72.135 488.177 73.965C488.177 75.115 487.877 76.1 487.277 76.92C486.687 77.74 485.647 78.415 484.157 78.945C485.007 79.125 485.722 79.385 486.302 79.725C486.892 80.065 487.362 80.465 487.712 80.925C488.072 81.375 488.327 81.875 488.477 82.425C488.637 82.975 488.717 83.555 488.717 84.165C488.717 86.125 488.017 87.59 486.617 88.56C485.227 89.52 483.147 90 480.377 90H473.177ZM475.952 87.69H480.347C482.157 87.69 483.532 87.395 484.472 86.805C485.422 86.205 485.897 85.285 485.897 84.045C485.897 83.135 485.662 82.4 485.192 81.84C484.732 81.27 484.107 80.855 483.317 80.595C482.527 80.335 481.647 80.205 480.677 80.205H475.952V87.69ZM475.952 77.85H480.677C481.247 77.85 481.812 77.795 482.372 77.685C482.932 77.575 483.447 77.385 483.917 77.115C484.387 76.845 484.767 76.485 485.057 76.035C485.347 75.575 485.492 75 485.492 74.31C485.492 73.05 485.007 72.12 484.037 71.52C483.077 70.91 481.827 70.605 480.287 70.605H475.952V77.85ZM491.088 93.705C492.148 91.465 492.958 89.28 493.518 87.15C494.078 85.01 494.358 82.815 494.358 80.565C494.358 78.195 494.028 75.86 493.368 73.56C492.708 71.25 491.868 69.125 490.848 67.185H492.753C494.013 69.035 495.038 71.105 495.828 73.395C496.628 75.675 497.028 78.055 497.028 80.535C497.028 82.235 496.863 83.82 496.533 85.29C496.203 86.76 495.733 88.18 495.123 89.55C494.513 90.92 493.798 92.305 492.978 93.705H491.088Z" fill="#1A1B1D"/>
<path d="M426.891 162C416.41 162 405 164.578 405 170.184C405 175.79 416.41 178.369 426.891 178.369C437.372 178.369 448.637 175.79 448.637 170.184C448.637 164.578 437.372 162 426.891 162Z" fill="white"/>
<path fill-rule="evenodd" clip-rule="evenodd" d="M426.891 182.87C418.671 182.87 409.958 181.421 405 177.943V207.15C405 212.756 416.41 215.334 426.891 215.334C437.372 215.334 448.637 212.756 448.637 207.15V178.232C443.679 181.711 435.111 182.87 426.891 182.87ZM427.72 189.827C423.619 189.827 420.867 192.233 420.867 196.88V200.182C421.26 199.986 421.709 199.874 422.187 199.874C422.664 199.874 423.114 199.986 423.535 200.182V196.851C423.535 193.829 425.192 192.29 427.72 192.29C430.249 192.29 431.906 193.829 431.906 196.851V204.1H434.574V196.851C434.602 192.178 431.822 189.827 427.72 189.827ZM413.985 198.615C414.21 198.251 414.519 197.971 414.856 197.803C415.474 197.495 416.233 197.495 416.879 197.775C417.469 198.139 417.75 198.755 417.918 199.37C418.143 200.154 418.424 200.742 419.126 201.162C419.828 201.582 420.502 201.498 421.289 201.302C421.935 201.163 422.609 201.078 423.199 201.414C423.845 201.778 424.238 202.421 424.266 203.121V203.401C424.21 204.072 423.845 204.744 423.199 205.108C422.581 205.471 421.907 205.388 421.289 205.22C420.503 205.024 419.829 204.939 419.126 205.359C418.395 205.751 418.143 206.367 417.918 207.151C417.75 207.767 417.469 208.411 416.879 208.746C416.233 209.11 415.474 209.11 414.856 208.802C414.491 208.634 414.21 208.354 413.985 207.99C413.76 207.626 413.676 207.235 413.704 206.843C413.76 206.171 414.125 205.5 414.771 205.136C415.389 204.772 416.063 204.856 416.681 205.024C417.467 205.22 418.141 205.304 418.844 204.884H418.872C420.08 204.185 420.08 202.421 418.872 201.721H418.844C418.142 201.301 417.468 201.385 416.681 201.581C416.035 201.721 415.361 201.805 414.771 201.469C414.125 201.106 413.732 200.462 413.704 199.762C413.676 199.37 413.761 198.979 413.985 198.615Z" fill="white"/>
<path d="M197.207 187.793C196.817 188.183 196.817 188.817 197.207 189.207L203.571 195.571C203.962 195.962 204.595 195.962 204.985 195.571C205.376 195.181 205.376 194.547 204.985 194.157L199.328 188.5L204.985 182.843C205.376 182.453 205.376 181.819 204.985 181.429C204.595 181.038 203.962 181.038 203.571 181.429L197.207 187.793ZM227.552 189.5C228.104 189.5 228.552 189.052 228.552 188.5C228.552 187.948 228.104 187.5 227.552 187.5V188.5V189.5ZM326.552 187.5C326 187.5 325.552 187.948 325.552 188.5C325.552 189.052 326 189.5 326.552 189.5V188.5V187.5ZM364.5 189.5C365.052 189.5 365.5 189.052 365.5 188.5C365.5 187.948 365.052 187.5 364.5 187.5V188.5V189.5ZM197.914 188.5V189.5H227.552V188.5V187.5H197.914V188.5ZM326.552 188.5V189.5H364.5V188.5V187.5H326.552V188.5Z" fill="black" fill-opacity="0.8"/>
<path d="M236.71 182.5V170.864H240.858C241.76 170.864 242.508 171.019 243.102 171.33C243.701 171.64 244.148 172.07 244.443 172.619C244.739 173.165 244.886 173.795 244.886 174.511C244.886 175.223 244.737 175.85 244.438 176.392C244.142 176.93 243.695 177.348 243.097 177.648C242.502 177.947 241.754 178.097 240.852 178.097H237.71V176.585H240.693C241.261 176.585 241.724 176.504 242.08 176.341C242.44 176.178 242.703 175.941 242.869 175.631C243.036 175.32 243.119 174.947 243.119 174.511C243.119 174.072 243.034 173.691 242.864 173.369C242.697 173.047 242.434 172.801 242.074 172.631C241.718 172.456 241.25 172.369 240.671 172.369H238.466V182.5H236.71ZM242.455 177.25L245.33 182.5H243.33L240.511 177.25H242.455ZM250.362 182.676C249.503 182.676 248.762 182.492 248.141 182.125C247.523 181.754 247.046 181.233 246.709 180.562C246.376 179.888 246.209 179.098 246.209 178.193C246.209 177.299 246.376 176.511 246.709 175.83C247.046 175.148 247.516 174.616 248.118 174.233C248.724 173.85 249.433 173.659 250.243 173.659C250.736 173.659 251.213 173.741 251.675 173.903C252.137 174.066 252.552 174.322 252.919 174.67C253.287 175.019 253.576 175.472 253.789 176.028C254.001 176.581 254.107 177.254 254.107 178.045V178.648H247.169V177.375H252.442C252.442 176.928 252.351 176.532 252.169 176.188C251.987 175.839 251.732 175.564 251.402 175.364C251.076 175.163 250.694 175.062 250.255 175.062C249.777 175.062 249.361 175.18 249.005 175.415C248.652 175.646 248.38 175.949 248.186 176.324C247.997 176.695 247.902 177.098 247.902 177.534V178.528C247.902 179.112 248.005 179.608 248.209 180.017C248.417 180.426 248.707 180.739 249.078 180.955C249.45 181.167 249.883 181.273 250.38 181.273C250.701 181.273 250.995 181.227 251.26 181.136C251.525 181.042 251.755 180.902 251.948 180.716C252.141 180.53 252.289 180.301 252.391 180.028L253.999 180.318C253.87 180.792 253.639 181.206 253.306 181.562C252.976 181.915 252.561 182.189 252.061 182.386C251.565 182.58 250.999 182.676 250.362 182.676ZM255.816 185.773V173.773H257.475V175.188H257.617C257.715 175.006 257.857 174.795 258.043 174.557C258.229 174.318 258.486 174.11 258.816 173.932C259.145 173.75 259.581 173.659 260.123 173.659C260.827 173.659 261.456 173.837 262.009 174.193C262.562 174.549 262.996 175.062 263.31 175.733C263.628 176.403 263.787 177.21 263.787 178.153C263.787 179.097 263.63 179.905 263.316 180.58C263.001 181.25 262.57 181.767 262.02 182.131C261.471 182.491 260.844 182.67 260.14 182.67C259.609 182.67 259.176 182.581 258.838 182.403C258.505 182.225 258.244 182.017 258.054 181.778C257.865 181.54 257.719 181.328 257.617 181.142H257.515V185.773H255.816ZM257.481 178.136C257.481 178.75 257.57 179.288 257.748 179.75C257.926 180.212 258.183 180.574 258.52 180.835C258.857 181.093 259.27 181.222 259.759 181.222C260.266 181.222 260.691 181.087 261.032 180.818C261.373 180.545 261.63 180.176 261.804 179.71C261.982 179.244 262.071 178.72 262.071 178.136C262.071 177.561 261.984 177.044 261.81 176.585C261.64 176.127 261.382 175.765 261.037 175.5C260.696 175.235 260.27 175.102 259.759 175.102C259.266 175.102 258.85 175.229 258.509 175.483C258.172 175.737 257.916 176.091 257.742 176.545C257.568 177 257.481 177.53 257.481 178.136ZM267.214 170.864V182.5H265.515V170.864H267.214ZM269.323 182.5V173.773H271.022V182.5H269.323ZM270.181 172.426C269.886 172.426 269.632 172.328 269.42 172.131C269.211 171.93 269.107 171.691 269.107 171.415C269.107 171.134 269.211 170.896 269.42 170.699C269.632 170.498 269.886 170.398 270.181 170.398C270.477 170.398 270.728 170.498 270.937 170.699C271.149 170.896 271.255 171.134 271.255 171.415C271.255 171.691 271.149 171.93 270.937 172.131C270.728 172.328 270.477 172.426 270.181 172.426ZM276.808 182.676C275.963 182.676 275.236 182.485 274.626 182.102C274.02 181.716 273.554 181.184 273.228 180.506C272.902 179.828 272.739 179.051 272.739 178.176C272.739 177.29 272.906 176.508 273.239 175.83C273.573 175.148 274.042 174.616 274.649 174.233C275.255 173.85 275.969 173.659 276.791 173.659C277.453 173.659 278.044 173.782 278.563 174.028C279.082 174.271 279.501 174.612 279.819 175.051C280.141 175.491 280.332 176.004 280.393 176.591H278.739C278.649 176.182 278.44 175.83 278.114 175.534C277.792 175.239 277.361 175.091 276.819 175.091C276.345 175.091 275.931 175.216 275.575 175.466C275.222 175.712 274.948 176.064 274.751 176.523C274.554 176.977 274.455 177.515 274.455 178.136C274.455 178.773 274.552 179.322 274.745 179.784C274.938 180.246 275.211 180.604 275.563 180.858C275.919 181.112 276.338 181.239 276.819 181.239C277.141 181.239 277.433 181.18 277.694 181.062C277.959 180.941 278.181 180.769 278.359 180.545C278.541 180.322 278.667 180.053 278.739 179.739H280.393C280.332 180.303 280.149 180.807 279.842 181.25C279.535 181.693 279.124 182.042 278.609 182.295C278.097 182.549 277.497 182.676 276.808 182.676ZM284.573 182.693C284.02 182.693 283.52 182.591 283.073 182.386C282.626 182.178 282.272 181.877 282.011 181.483C281.753 181.089 281.625 180.606 281.625 180.034C281.625 179.542 281.719 179.136 281.909 178.818C282.098 178.5 282.354 178.248 282.676 178.062C282.998 177.877 283.357 177.737 283.755 177.642C284.153 177.547 284.558 177.475 284.971 177.426C285.494 177.366 285.918 177.316 286.244 177.278C286.57 177.237 286.806 177.17 286.954 177.08C287.102 176.989 287.176 176.841 287.176 176.636V176.597C287.176 176.1 287.036 175.716 286.755 175.443C286.479 175.17 286.066 175.034 285.517 175.034C284.945 175.034 284.494 175.161 284.164 175.415C283.839 175.665 283.613 175.943 283.488 176.25L281.892 175.886C282.081 175.356 282.357 174.928 282.721 174.602C283.089 174.273 283.511 174.034 283.988 173.886C284.465 173.735 284.967 173.659 285.494 173.659C285.842 173.659 286.212 173.701 286.602 173.784C286.996 173.864 287.363 174.011 287.704 174.227C288.049 174.443 288.331 174.752 288.551 175.153C288.77 175.551 288.88 176.068 288.88 176.705V182.5H287.221V181.307H287.153C287.043 181.527 286.878 181.742 286.659 181.955C286.439 182.167 286.157 182.343 285.812 182.483C285.467 182.623 285.054 182.693 284.573 182.693ZM284.943 181.33C285.412 181.33 285.814 181.237 286.147 181.051C286.484 180.866 286.74 180.623 286.914 180.324C287.092 180.021 287.181 179.697 287.181 179.352V178.227C287.121 178.288 287.003 178.345 286.829 178.398C286.659 178.447 286.464 178.491 286.244 178.528C286.024 178.562 285.81 178.595 285.602 178.625C285.393 178.652 285.219 178.674 285.079 178.693C284.75 178.735 284.448 178.805 284.176 178.903C283.907 179.002 283.691 179.144 283.528 179.33C283.369 179.511 283.289 179.754 283.289 180.057C283.289 180.477 283.445 180.795 283.755 181.011C284.066 181.223 284.462 181.33 284.943 181.33ZM295.041 173.773V175.136H290.274V173.773H295.041ZM291.552 171.682H293.251V179.938C293.251 180.267 293.3 180.515 293.399 180.682C293.497 180.845 293.624 180.956 293.779 181.017C293.939 181.074 294.111 181.102 294.297 181.102C294.433 181.102 294.552 181.093 294.654 181.074C294.757 181.055 294.836 181.04 294.893 181.028L295.2 182.432C295.101 182.47 294.961 182.508 294.779 182.545C294.598 182.587 294.37 182.61 294.098 182.614C293.651 182.621 293.234 182.542 292.848 182.375C292.461 182.208 292.149 181.951 291.91 181.602C291.672 181.254 291.552 180.816 291.552 180.29V171.682ZM296.744 182.5V173.773H298.443V182.5H296.744ZM297.602 172.426C297.307 172.426 297.053 172.328 296.841 172.131C296.632 171.93 296.528 171.691 296.528 171.415C296.528 171.134 296.632 170.896 296.841 170.699C297.053 170.498 297.307 170.398 297.602 170.398C297.898 170.398 298.149 170.498 298.358 170.699C298.57 170.896 298.676 171.134 298.676 171.415C298.676 171.691 298.57 171.93 298.358 172.131C298.149 172.328 297.898 172.426 297.602 172.426ZM302.251 177.318V182.5H300.552V173.773H302.183V175.193H302.291C302.492 174.731 302.806 174.36 303.234 174.08C303.666 173.799 304.21 173.659 304.865 173.659C305.46 173.659 305.981 173.784 306.427 174.034C306.874 174.28 307.221 174.648 307.467 175.136C307.713 175.625 307.837 176.229 307.837 176.949V182.5H306.138V177.153C306.138 176.521 305.973 176.027 305.643 175.67C305.314 175.311 304.861 175.131 304.285 175.131C303.892 175.131 303.541 175.216 303.234 175.386C302.931 175.557 302.691 175.807 302.513 176.136C302.338 176.462 302.251 176.856 302.251 177.318ZM313.598 185.955C312.905 185.955 312.308 185.864 311.808 185.682C311.312 185.5 310.907 185.259 310.592 184.96C310.278 184.661 310.043 184.333 309.888 183.977L311.348 183.375C311.45 183.542 311.587 183.718 311.757 183.903C311.931 184.093 312.166 184.254 312.462 184.386C312.761 184.519 313.145 184.585 313.615 184.585C314.259 184.585 314.791 184.428 315.212 184.114C315.632 183.803 315.842 183.307 315.842 182.625V180.909H315.734C315.632 181.095 315.484 181.301 315.291 181.528C315.102 181.756 314.84 181.953 314.507 182.119C314.174 182.286 313.74 182.369 313.206 182.369C312.517 182.369 311.895 182.208 311.342 181.886C310.793 181.561 310.358 181.081 310.036 180.449C309.717 179.812 309.558 179.03 309.558 178.102C309.558 177.174 309.715 176.379 310.03 175.716C310.348 175.053 310.784 174.545 311.337 174.193C311.89 173.837 312.517 173.659 313.217 173.659C313.759 173.659 314.197 173.75 314.53 173.932C314.863 174.11 315.123 174.318 315.308 174.557C315.498 174.795 315.644 175.006 315.746 175.188H315.871V173.773H317.536V182.693C317.536 183.443 317.361 184.059 317.013 184.54C316.664 185.021 316.193 185.377 315.598 185.608C315.007 185.839 314.34 185.955 313.598 185.955ZM313.581 180.96C314.07 180.96 314.483 180.847 314.82 180.619C315.161 180.388 315.418 180.059 315.592 179.631C315.77 179.199 315.859 178.682 315.859 178.08C315.859 177.492 315.772 176.975 315.598 176.528C315.424 176.081 315.168 175.733 314.831 175.483C314.494 175.229 314.077 175.102 313.581 175.102C313.07 175.102 312.644 175.235 312.303 175.5C311.962 175.761 311.704 176.117 311.53 176.568C311.359 177.019 311.274 177.523 311.274 178.08C311.274 178.652 311.361 179.153 311.536 179.585C311.71 180.017 311.967 180.354 312.308 180.597C312.653 180.839 313.077 180.96 313.581 180.96ZM246.72 206.67C246.015 206.67 245.386 206.491 244.833 206.131C244.284 205.767 243.852 205.25 243.538 204.58C243.227 203.905 243.072 203.097 243.072 202.153C243.072 201.21 243.229 200.403 243.544 199.733C243.862 199.062 244.297 198.549 244.85 198.193C245.403 197.837 246.03 197.659 246.731 197.659C247.273 197.659 247.708 197.75 248.038 197.932C248.371 198.11 248.629 198.318 248.811 198.557C248.996 198.795 249.14 199.006 249.242 199.188H249.345V194.864H251.044V206.5H249.384V205.142H249.242C249.14 205.328 248.992 205.54 248.799 205.778C248.61 206.017 248.349 206.225 248.015 206.403C247.682 206.581 247.25 206.67 246.72 206.67ZM247.095 205.222C247.583 205.222 247.996 205.093 248.333 204.835C248.674 204.574 248.932 204.212 249.106 203.75C249.284 203.288 249.373 202.75 249.373 202.136C249.373 201.53 249.286 201 249.112 200.545C248.938 200.091 248.682 199.737 248.345 199.483C248.008 199.229 247.591 199.102 247.095 199.102C246.583 199.102 246.157 199.235 245.816 199.5C245.475 199.765 245.218 200.127 245.044 200.585C244.873 201.044 244.788 201.561 244.788 202.136C244.788 202.72 244.875 203.244 245.049 203.71C245.224 204.176 245.481 204.545 245.822 204.818C246.167 205.087 246.591 205.222 247.095 205.222ZM255.832 206.693C255.279 206.693 254.779 206.591 254.332 206.386C253.885 206.178 253.531 205.877 253.27 205.483C253.012 205.089 252.883 204.606 252.883 204.034C252.883 203.542 252.978 203.136 253.167 202.818C253.357 202.5 253.612 202.248 253.934 202.062C254.256 201.877 254.616 201.737 255.014 201.642C255.412 201.547 255.817 201.475 256.23 201.426C256.753 201.366 257.177 201.316 257.503 201.278C257.828 201.237 258.065 201.17 258.213 201.08C258.36 200.989 258.434 200.841 258.434 200.636V200.597C258.434 200.1 258.294 199.716 258.014 199.443C257.737 199.17 257.324 199.034 256.775 199.034C256.203 199.034 255.753 199.161 255.423 199.415C255.097 199.665 254.872 199.943 254.747 200.25L253.15 199.886C253.34 199.356 253.616 198.928 253.98 198.602C254.347 198.273 254.77 198.034 255.247 197.886C255.724 197.735 256.226 197.659 256.753 197.659C257.101 197.659 257.47 197.701 257.86 197.784C258.254 197.864 258.622 198.011 258.963 198.227C259.307 198.443 259.59 198.752 259.809 199.153C260.029 199.551 260.139 200.068 260.139 200.705V206.5H258.48V205.307H258.412C258.302 205.527 258.137 205.742 257.917 205.955C257.698 206.167 257.415 206.343 257.071 206.483C256.726 206.623 256.313 206.693 255.832 206.693ZM256.201 205.33C256.671 205.33 257.073 205.237 257.406 205.051C257.743 204.866 257.999 204.623 258.173 204.324C258.351 204.021 258.44 203.697 258.44 203.352V202.227C258.379 202.288 258.262 202.345 258.088 202.398C257.917 202.447 257.722 202.491 257.503 202.528C257.283 202.562 257.069 202.595 256.86 202.625C256.652 202.652 256.478 202.674 256.338 202.693C256.008 202.735 255.707 202.805 255.434 202.903C255.165 203.002 254.949 203.144 254.787 203.33C254.628 203.511 254.548 203.754 254.548 204.057C254.548 204.477 254.703 204.795 255.014 205.011C255.324 205.223 255.72 205.33 256.201 205.33ZM266.3 197.773V199.136H261.532V197.773H266.3ZM262.811 195.682H264.51V203.938C264.51 204.267 264.559 204.515 264.657 204.682C264.756 204.845 264.883 204.956 265.038 205.017C265.197 205.074 265.37 205.102 265.555 205.102C265.692 205.102 265.811 205.093 265.913 205.074C266.015 205.055 266.095 205.04 266.152 205.028L266.459 206.432C266.36 206.47 266.22 206.508 266.038 206.545C265.856 206.587 265.629 206.61 265.356 206.614C264.909 206.621 264.493 206.542 264.106 206.375C263.72 206.208 263.407 205.951 263.169 205.602C262.93 205.254 262.811 204.816 262.811 204.29V195.682ZM270.543 206.693C269.99 206.693 269.49 206.591 269.043 206.386C268.596 206.178 268.241 205.877 267.98 205.483C267.722 205.089 267.594 204.606 267.594 204.034C267.594 203.542 267.688 203.136 267.878 202.818C268.067 202.5 268.323 202.248 268.645 202.062C268.967 201.877 269.327 201.737 269.724 201.642C270.122 201.547 270.527 201.475 270.94 201.426C271.463 201.366 271.887 201.316 272.213 201.278C272.539 201.237 272.776 201.17 272.923 201.08C273.071 200.989 273.145 200.841 273.145 200.636V200.597C273.145 200.1 273.005 199.716 272.724 199.443C272.448 199.17 272.035 199.034 271.486 199.034C270.914 199.034 270.463 199.161 270.133 199.415C269.808 199.665 269.582 199.943 269.457 200.25L267.861 199.886C268.05 199.356 268.327 198.928 268.69 198.602C269.058 198.273 269.48 198.034 269.957 197.886C270.435 197.735 270.937 197.659 271.463 197.659C271.812 197.659 272.181 197.701 272.571 197.784C272.965 197.864 273.332 198.011 273.673 198.227C274.018 198.443 274.3 198.752 274.52 199.153C274.74 199.551 274.849 200.068 274.849 200.705V206.5H273.19V205.307H273.122C273.012 205.527 272.847 205.742 272.628 205.955C272.408 206.167 272.126 206.343 271.781 206.483C271.437 206.623 271.024 206.693 270.543 206.693ZM270.912 205.33C271.382 205.33 271.783 205.237 272.116 205.051C272.454 204.866 272.709 204.623 272.883 204.324C273.062 204.021 273.151 203.697 273.151 203.352V202.227C273.09 202.288 272.972 202.345 272.798 202.398C272.628 202.447 272.433 202.491 272.213 202.528C271.993 202.562 271.779 202.595 271.571 202.625C271.363 202.652 271.188 202.674 271.048 202.693C270.719 202.735 270.418 202.805 270.145 202.903C269.876 203.002 269.66 203.144 269.497 203.33C269.338 203.511 269.258 203.754 269.258 204.057C269.258 204.477 269.414 204.795 269.724 205.011C270.035 205.223 270.431 205.33 270.912 205.33ZM285.148 197.773V199.136H280.216V197.773H285.148ZM281.568 206.5V196.761C281.568 196.216 281.688 195.763 281.926 195.403C282.165 195.04 282.481 194.769 282.875 194.591C283.269 194.409 283.697 194.318 284.159 194.318C284.5 194.318 284.792 194.347 285.034 194.403C285.277 194.456 285.457 194.506 285.574 194.551L285.176 195.926C285.097 195.903 284.995 195.877 284.87 195.847C284.745 195.812 284.593 195.795 284.415 195.795C284.002 195.795 283.707 195.898 283.529 196.102C283.354 196.307 283.267 196.602 283.267 196.989V206.5H281.568ZM288.424 194.864V206.5H286.725V194.864H288.424ZM294.209 206.676C293.391 206.676 292.677 206.489 292.067 206.114C291.457 205.739 290.984 205.214 290.647 204.54C290.31 203.866 290.141 203.078 290.141 202.176C290.141 201.271 290.31 200.479 290.647 199.801C290.984 199.123 291.457 198.597 292.067 198.222C292.677 197.847 293.391 197.659 294.209 197.659C295.027 197.659 295.742 197.847 296.351 198.222C296.961 198.597 297.435 199.123 297.772 199.801C298.109 200.479 298.277 201.271 298.277 202.176C298.277 203.078 298.109 203.866 297.772 204.54C297.435 205.214 296.961 205.739 296.351 206.114C295.742 206.489 295.027 206.676 294.209 206.676ZM294.215 205.25C294.745 205.25 295.185 205.11 295.533 204.83C295.882 204.549 296.139 204.176 296.306 203.71C296.476 203.244 296.562 202.731 296.562 202.17C296.562 201.614 296.476 201.102 296.306 200.636C296.139 200.167 295.882 199.79 295.533 199.506C295.185 199.222 294.745 199.08 294.215 199.08C293.681 199.08 293.238 199.222 292.885 199.506C292.537 199.79 292.277 200.167 292.107 200.636C291.94 201.102 291.857 201.614 291.857 202.17C291.857 202.731 291.94 203.244 292.107 203.71C292.277 204.176 292.537 204.549 292.885 204.83C293.238 205.11 293.681 205.25 294.215 205.25ZM301.624 206.5L299.056 197.773H300.812L302.522 204.182H302.607L304.323 197.773H306.079L307.783 204.153H307.869L309.567 197.773H311.323L308.761 206.5H307.028L305.255 200.199H305.124L303.351 206.5H301.624Z" fill="black" fill-opacity="0.8"/>
<path d="M426 367.033C426 367.586 426.448 368.033 427 368.033C427.552 368.033 428 367.586 428 367.033H427H426ZM427.707 301.293C427.317 300.902 426.683 300.902 426.293 301.293L419.929 307.657C419.538 308.047 419.538 308.681 419.929 309.071C420.319 309.462 420.953 309.462 421.343 309.071L427 303.414L432.657 309.071C433.047 309.462 433.681 309.462 434.071 309.071C434.462 308.681 434.462 308.047 434.071 307.657L427.707 301.293ZM427 367.033H428V302H427H426V367.033H427Z" fill="black" fill-opacity="0.8"/>
<path d="M368.414 447.5C368.414 415.191 394.606 389 426.914 389V389C459.223 389 485.414 415.191 485.414 447.5V447.5C485.414 479.809 459.223 506 426.914 506V506C394.606 506 368.414 479.809 368.414 447.5V447.5Z" fill="#0C4D31"/>
<path d="M384.273 526.484V514.589C384.322 514.589 384.467 514.589 384.709 514.589C384.95 514.589 385.235 514.589 385.564 514.589C385.899 514.589 386.236 514.592 386.576 514.597C386.922 514.597 387.22 514.6 387.473 514.605C388.921 514.633 390.097 514.882 391.002 515.354C391.912 515.82 392.579 516.486 393.001 517.353C393.429 518.214 393.643 519.253 393.643 520.471C393.643 521.743 393.415 522.826 392.96 523.72C392.51 524.614 391.819 525.3 390.887 525.777C389.96 526.249 388.781 526.484 387.349 526.484H384.273ZM386.305 524.831H387.382C388.199 524.831 388.921 524.691 389.546 524.411C390.171 524.126 390.659 523.665 391.01 523.029C391.367 522.393 391.545 521.543 391.545 520.479C391.545 519.448 391.38 518.623 391.051 518.003C390.722 517.383 390.251 516.936 389.636 516.662C389.022 516.382 388.287 516.242 387.432 516.242H386.305V524.831ZM398.077 526.649C397.534 526.649 397.046 526.55 396.613 526.353C396.185 526.15 395.848 525.862 395.601 525.489C395.359 525.111 395.239 524.653 395.239 524.115C395.239 523.177 395.576 522.47 396.251 521.993C396.931 521.516 398.011 521.266 399.492 521.244L400.767 521.211V520.635C400.767 520.186 400.633 519.835 400.364 519.582C400.101 519.325 399.689 519.198 399.13 519.204C398.713 519.209 398.335 519.308 397.995 519.5C397.655 519.686 397.43 520.002 397.32 520.446H395.617C395.65 519.865 395.817 519.379 396.119 518.99C396.426 518.595 396.846 518.302 397.378 518.11C397.91 517.912 398.524 517.814 399.22 517.814C400.032 517.814 400.693 517.921 401.203 518.134C401.713 518.348 402.089 518.658 402.33 519.064C402.571 519.464 402.692 519.95 402.692 520.52V526.484H401.006L400.841 524.954C400.539 525.596 400.153 526.04 399.681 526.287C399.215 526.528 398.68 526.649 398.077 526.649ZM398.727 525.292C398.974 525.292 399.218 525.248 399.459 525.16C399.7 525.067 399.917 524.943 400.109 524.79C400.306 524.631 400.463 524.455 400.578 524.263C400.698 524.071 400.762 523.871 400.767 523.663V522.322L399.722 522.338C399.207 522.344 398.754 522.399 398.365 522.503C397.981 522.607 397.682 522.774 397.468 523.005C397.254 523.229 397.147 523.531 397.147 523.909C397.147 524.343 397.298 524.683 397.6 524.93C397.901 525.171 398.277 525.292 398.727 525.292ZM407.9 526.55C407.226 526.55 406.702 526.462 406.329 526.287C405.962 526.106 405.707 525.851 405.564 525.522C405.422 525.193 405.35 524.801 405.35 524.345V519.393H403.968V517.978H405.408L405.91 515.453H407.349V517.97H409.25V519.393H407.349L407.358 524.271C407.358 524.524 407.385 524.71 407.44 524.831C407.5 524.946 407.593 525.023 407.719 525.061C407.851 525.094 408.024 525.111 408.238 525.111H409.291V526.377C409.176 526.421 409.006 526.46 408.781 526.493C408.561 526.531 408.268 526.55 407.9 526.55ZM413.566 526.649C413.023 526.649 412.535 526.55 412.102 526.353C411.674 526.15 411.337 525.862 411.09 525.489C410.848 525.111 410.728 524.653 410.728 524.115C410.728 523.177 411.065 522.47 411.74 521.993C412.42 521.516 413.5 521.266 414.981 521.244L416.256 521.211V520.635C416.256 520.186 416.122 519.835 415.853 519.582C415.59 519.325 415.178 519.198 414.619 519.204C414.202 519.209 413.824 519.308 413.484 519.5C413.144 519.686 412.919 520.002 412.809 520.446H411.106C411.139 519.865 411.306 519.379 411.608 518.99C411.915 518.595 412.335 518.302 412.867 518.11C413.399 517.912 414.013 517.814 414.709 517.814C415.521 517.814 416.182 517.921 416.692 518.134C417.202 518.348 417.578 518.658 417.819 519.064C418.06 519.464 418.181 519.95 418.181 520.52V526.484H416.495L416.33 524.954C416.028 525.596 415.642 526.04 415.17 526.287C414.704 526.528 414.169 526.649 413.566 526.649ZM414.216 525.292C414.463 525.292 414.707 525.248 414.948 525.16C415.189 525.067 415.406 524.943 415.598 524.79C415.795 524.631 415.952 524.455 416.067 524.263C416.188 524.071 416.251 523.871 416.256 523.663V522.322L415.211 522.338C414.696 522.344 414.243 522.399 413.854 522.503C413.47 522.607 413.171 522.774 412.957 523.005C412.743 523.229 412.636 523.531 412.636 523.909C412.636 524.343 412.787 524.683 413.089 524.93C413.39 525.171 413.766 525.292 414.216 525.292ZM427.567 526.55C426.893 526.55 426.369 526.462 425.996 526.287C425.628 526.106 425.373 525.851 425.231 525.522C425.088 525.193 425.017 524.801 425.017 524.345V519.393H423.635V517.978H425.074L425.576 515.453H427.016V517.97H428.916V519.393H427.016L427.024 524.271C427.024 524.524 427.052 524.71 427.106 524.831C427.167 524.946 427.26 525.023 427.386 525.061C427.518 525.094 427.69 525.111 427.904 525.111H428.957V526.377C428.842 526.421 428.672 526.46 428.447 526.493C428.228 526.531 427.935 526.55 427.567 526.55ZM430.805 526.484V517.978H432.722V519.821C432.859 519.399 433.054 519.039 433.306 518.743C433.564 518.442 433.865 518.211 434.211 518.052C434.556 517.893 434.932 517.814 435.338 517.814C435.437 517.814 435.533 517.819 435.626 517.83C435.719 517.841 435.788 517.86 435.831 517.888V519.804C435.771 519.777 435.692 519.758 435.593 519.747C435.5 519.736 435.417 519.73 435.346 519.73C434.935 519.697 434.57 519.714 434.252 519.78C433.939 519.846 433.673 519.958 433.454 520.117C433.24 520.271 433.078 520.468 432.969 520.709C432.859 520.945 432.804 521.222 432.804 521.54V526.484H430.805ZM439.644 526.649C439.101 526.649 438.612 526.55 438.179 526.353C437.751 526.15 437.414 525.862 437.167 525.489C436.926 525.111 436.805 524.653 436.805 524.115C436.805 523.177 437.143 522.47 437.817 521.993C438.497 521.516 439.578 521.266 441.059 521.244L442.334 521.211V520.635C442.334 520.186 442.199 519.835 441.931 519.582C441.667 519.325 441.256 519.198 440.697 519.204C440.28 519.209 439.901 519.308 439.561 519.5C439.221 519.686 438.996 520.002 438.887 520.446H437.184C437.217 519.865 437.384 519.379 437.686 518.99C437.993 518.595 438.412 518.302 438.944 518.11C439.476 517.912 440.091 517.814 440.787 517.814C441.599 517.814 442.26 517.921 442.77 518.134C443.28 518.348 443.655 518.658 443.897 519.064C444.138 519.464 444.259 519.95 444.259 520.52V526.484H442.572L442.408 524.954C442.106 525.596 441.719 526.04 441.248 526.287C440.782 526.528 440.247 526.649 439.644 526.649ZM440.293 525.292C440.54 525.292 440.784 525.248 441.026 525.16C441.267 525.067 441.484 524.943 441.676 524.79C441.873 524.631 442.029 524.455 442.144 524.263C442.265 524.071 442.328 523.871 442.334 523.663V522.322L441.289 522.338C440.773 522.344 440.321 522.399 439.931 522.503C439.548 522.607 439.249 522.774 439.035 523.005C438.821 523.229 438.714 523.531 438.714 523.909C438.714 524.343 438.865 524.683 439.166 524.93C439.468 525.171 439.844 525.292 440.293 525.292ZM447.234 526.484V519.393H445.556V517.978H447.234V516.711C447.234 516.031 447.421 515.507 447.794 515.14C448.172 514.772 448.718 514.589 449.431 514.589H451.224L451.232 515.954H450.048C449.724 515.954 449.502 516.039 449.381 516.209C449.261 516.374 449.2 516.634 449.2 516.991V517.978H451.15V519.393H449.233V526.484H447.234ZM453.42 526.484V519.393H451.742V517.978H453.42V516.711C453.42 516.031 453.607 515.507 453.98 515.14C454.358 514.772 454.904 514.589 455.617 514.589H457.41L457.418 515.954H456.234C455.91 515.954 455.688 516.039 455.567 516.209C455.447 516.374 455.386 516.634 455.386 516.991V517.978H457.336V519.393H455.419V526.484H453.42ZM458.94 526.484V517.978H460.857V526.484H458.94ZM458.907 516.489V514.597H460.89V516.489H458.907ZM466.719 526.649C465.94 526.649 465.247 526.479 464.638 526.139C464.035 525.793 463.56 525.294 463.215 524.642C462.869 523.983 462.696 523.191 462.696 522.264C462.696 521.381 462.858 520.608 463.182 519.944C463.511 519.275 463.974 518.754 464.572 518.381C465.175 518.003 465.891 517.814 466.719 517.814C467.383 517.814 467.967 517.945 468.471 518.208C468.976 518.472 469.379 518.836 469.681 519.303C469.988 519.769 470.172 520.298 470.232 520.89H468.529C468.485 520.633 468.389 520.388 468.241 520.158C468.093 519.922 467.893 519.733 467.641 519.591C467.394 519.442 467.092 519.368 466.736 519.368C466.094 519.368 465.576 519.604 465.181 520.076C464.786 520.548 464.589 521.271 464.589 522.248C464.589 523.147 464.775 523.863 465.148 524.395C465.526 524.927 466.067 525.193 466.769 525.193C467.12 525.193 467.421 525.116 467.674 524.962C467.926 524.803 468.123 524.609 468.266 524.378C468.414 524.143 468.507 523.907 468.546 523.671H470.207C470.158 524.247 469.98 524.76 469.673 525.209C469.365 525.659 468.96 526.013 468.455 526.27C467.95 526.523 467.372 526.649 466.719 526.649Z" fill="#1A1B1D"/>
<path d="M402.977 436C402.516 436.797 401.654 437.333 400.667 437.333C399.194 437.333 398 436.139 398 434.667C398 433.194 399.194 432 400.667 432C401.654 432 402.516 432.536 402.977 433.333H407.333C411.752 433.333 415.334 436.915 415.334 441.333C415.334 444.279 417.721 446.667 420.667 446.667H422V445.334C422 443.861 423.194 442.667 424.667 442.667H430C431.473 442.667 432.667 443.861 432.667 445.334V446.667H434C436.946 446.667 439.334 444.279 439.334 441.333C439.334 436.915 442.916 433.333 447.334 433.333H451.334V432L456.667 434.667L451.334 437.333V436H447.334C444.388 436 442.001 438.388 442.001 441.333C442.001 443.382 441.23 445.251 439.963 446.667H451.334V445.334L456.667 448L451.334 450.667V449.334H439.963C441.23 450.749 442.001 452.618 442.001 454.667C442.001 457.613 444.388 460 447.334 460H451.334V458.667L456.667 461.334L451.334 464V462.667H447.334C442.916 462.667 439.334 459.085 439.334 454.667C439.334 451.721 436.946 449.334 434 449.334H432.667V450.667C432.667 452.14 431.473 453.334 430 453.334H424.667C423.194 453.334 422 452.14 422 450.667V449.334H420.667C417.721 449.334 415.334 451.721 415.334 454.667C415.334 459.085 411.752 462.667 407.333 462.667H402.977C402.516 463.464 401.654 464 400.667 464C399.194 464 398 462.806 398 461.334C398 459.861 399.194 458.667 400.667 458.667C401.654 458.667 402.516 459.203 402.977 460H407.333C410.279 460 412.667 457.613 412.667 454.667C412.667 452.618 413.437 450.749 414.704 449.334H402.977C402.516 450.131 401.654 450.667 400.667 450.667C399.194 450.667 398 449.473 398 448C398 446.527 399.194 445.334 400.667 445.334C401.654 445.334 402.516 445.87 402.977 446.667H414.704C413.437 445.251 412.667 443.382 412.667 441.333C412.667 438.388 410.279 436 407.333 436H402.977Z" fill="white"/>
</svg>
