<?xml version="1.0" encoding="UTF-8"?>
<svg width="789px" height="233px" viewBox="0 0 789 233" version="1.1" xmlns="http://www.w3.org/2000/svg" xmlns:xlink="http://www.w3.org/1999/xlink">
    <!-- Generator: Sketch 48.2 (47327) - http://www.bohemiancoding.com/sketch -->
    <title>refuse-to-be-leader</title>
    <desc>Created with Sketch.</desc>
    <defs></defs>
    <g id="Page-1" stroke="none" stroke-width="1" fill="none" fill-rule="evenodd">
        <g id="Artboard" transform="translate(-15589.000000, -17028.000000)"></g>
        <g id="refuse-to-be-leader">
            <rect id="Rectangle-14" stroke="#DFDFDF" x="11.5" y="11.5" width="319" height="210"></rect>
            <text id="causal_clustering.re" font-family="CourierNewPSMT, Courier New" font-size="12" font-weight="normal">
                <tspan x="16" y="198" fill="#0600FF">causal_clustering.refuse_to_be_leader</tspan>
                <tspan x="282.443359" y="198" fill="#333333">=</tspan>
                <tspan x="289.644531" y="198" fill="#C7244E">false</tspan>
            </text>
            <text id="causal_clustering.re" font-family="CourierNewPSMT, Courier New" font-size="12" font-weight="normal">
                <tspan x="468" y="198" fill="#0F09FF">causal_clustering.refuse_to_be_leader</tspan>
                <tspan x="734.443359" y="198" fill="#333333">=</tspan>
                <tspan x="741.644531" y="198" fill="#C8254F">true</tspan>
            </text>
            <g id="Group-41" transform="translate(106.000000, 83.000000)">
                <g id="Group-10">
                    <rect id="Rectangle-15" fill="#C2C2C2" x="15" y="51" width="100" height="9"></rect>
                    <rect id="Rectangle-15" fill="#C2C2C2" x="15" y="21" width="100" height="9"></rect>
                    <g id="Page-1-Copy-2" transform="translate(0.000000, 60.000000)">
                        <path d="M126.388889,21.6666667 L3.61111111,21.6666667 C1.61633333,21.6666667 0,20.0503333 0,18.0555556 L0,3.61111111 C0,1.61633333 1.61633333,0 3.61111111,0 L126.388889,0 C128.383667,0 130,1.61633333 130,3.61111111 L130,18.0555556 C130,20.0503333 128.383667,21.6666667 126.388889,21.6666667" id="Fill-1" fill="#D6D6D6"></path>
                        <path d="M14.4444444,14.0381944 C14.4444444,15.0355833 13.6362778,15.84375 12.6388889,15.84375 C11.6415,15.84375 10.8333333,15.0355833 10.8333333,14.0381944 C10.8333333,13.0408056 11.6415,12.2326389 12.6388889,12.2326389 C13.6362778,12.2326389 14.4444444,13.0408056 14.4444444,14.0381944" id="Fill-3" fill="#F16667"></path>
                        <path d="M14.4444444,7.53819444 C14.4444444,8.53558333 13.6362778,9.34375 12.6388889,9.34375 C11.6415,9.34375 10.8333333,8.53558333 10.8333333,7.53819444 C10.8333333,6.54080556 11.6415,5.73263889 12.6388889,5.73263889 C13.6362778,5.73263889 14.4444444,6.54080556 14.4444444,7.53819444" id="Fill-5" fill="#8DCC93"></path>
                        <path d="M107.611111,16.2048611 L105.444444,16.2048611 C105.045056,16.2048611 104.722222,15.8820278 104.722222,15.4826389 L104.722222,6.09375 C104.722222,5.69436111 105.045056,5.37152778 105.444444,5.37152778 L107.611111,5.37152778 C108.0105,5.37152778 108.333333,5.69436111 108.333333,6.09375 L108.333333,15.4826389 C108.333333,15.8820278 108.0105,16.2048611 107.611111,16.2048611" id="Fill-7" fill="#C2C2C2"></path>
                        <path d="M114.830517,16.2048611 L112.669628,16.2048611 C112.268794,16.2048611 111.944517,15.8805833 111.944517,15.47975 L111.944517,6.09663889 C111.944517,5.69580556 112.268794,5.37152778 112.669628,5.37152778 L114.830517,5.37152778 C115.23135,5.37152778 115.555628,5.69580556 115.555628,6.09663889 L115.555628,15.47975 C115.555628,15.8805833 115.23135,16.2048611 114.830517,16.2048611" id="Fill-9" fill="#C2C2C2"></path>
                        <path d="M122.059094,16.2048611 L119.885206,16.2048611 C119.487983,16.2048611 119.166594,15.8834722 119.166594,15.48625 L119.166594,6.09013889 C119.166594,5.69291667 119.487983,5.37152778 119.885206,5.37152778 L122.059094,5.37152778 C122.456317,5.37152778 122.777706,5.69291667 122.777706,6.09013889 L122.777706,15.48625 C122.777706,15.8834722 122.456317,16.2048611 122.059094,16.2048611" id="Fill-11" fill="#C2C2C2"></path>
                        <path d="M78,7.58051667 L78,14.0862944 C78,14.68285 77.5161111,15.1667389 76.9195556,15.1667389 L53.0804444,15.1667389 C52.4838889,15.1667389 52,14.68285 52,14.0862944 L52,7.58051667 C52,6.98396111 52.4838889,6.50007222 53.0804444,6.50007222 L76.9195556,6.50007222 C77.5161111,6.50007222 78,6.98396111 78,7.58051667" id="Fill-13" fill="#C2C2C2"></path>
                    </g>
                    <g id="Page-1-Copy-2" transform="translate(0.000000, 29.333333)">
                        <path d="M126.388889,21.6666667 L3.61111111,21.6666667 C1.61633333,21.6666667 0,20.0503333 0,18.0555556 L0,3.61111111 C0,1.61633333 1.61633333,0 3.61111111,0 L126.388889,0 C128.383667,0 130,1.61633333 130,3.61111111 L130,18.0555556 C130,20.0503333 128.383667,21.6666667 126.388889,21.6666667" id="Fill-1" fill="#D6D6D6"></path>
                        <path d="M14.4444444,14.0381944 C14.4444444,15.0355833 13.6362778,15.84375 12.6388889,15.84375 C11.6415,15.84375 10.8333333,15.0355833 10.8333333,14.0381944 C10.8333333,13.0408056 11.6415,12.2326389 12.6388889,12.2326389 C13.6362778,12.2326389 14.4444444,13.0408056 14.4444444,14.0381944" id="Fill-3" fill="#F16667"></path>
                        <path d="M14.4444444,7.53819444 C14.4444444,8.53558333 13.6362778,9.34375 12.6388889,9.34375 C11.6415,9.34375 10.8333333,8.53558333 10.8333333,7.53819444 C10.8333333,6.54080556 11.6415,5.73263889 12.6388889,5.73263889 C13.6362778,5.73263889 14.4444444,6.54080556 14.4444444,7.53819444" id="Fill-5" fill="#8DCC93"></path>
                        <path d="M107.611111,16.2048611 L105.444444,16.2048611 C105.045056,16.2048611 104.722222,15.8820278 104.722222,15.4826389 L104.722222,6.09375 C104.722222,5.69436111 105.045056,5.37152778 105.444444,5.37152778 L107.611111,5.37152778 C108.0105,5.37152778 108.333333,5.69436111 108.333333,6.09375 L108.333333,15.4826389 C108.333333,15.8820278 108.0105,16.2048611 107.611111,16.2048611" id="Fill-7" fill="#C2C2C2"></path>
                        <path d="M114.830517,16.2048611 L112.669628,16.2048611 C112.268794,16.2048611 111.944517,15.8805833 111.944517,15.47975 L111.944517,6.09663889 C111.944517,5.69580556 112.268794,5.37152778 112.669628,5.37152778 L114.830517,5.37152778 C115.23135,5.37152778 115.555628,5.69580556 115.555628,6.09663889 L115.555628,15.47975 C115.555628,15.8805833 115.23135,16.2048611 114.830517,16.2048611" id="Fill-9" fill="#C2C2C2"></path>
                        <path d="M122.059094,16.2048611 L119.885206,16.2048611 C119.487983,16.2048611 119.166594,15.8834722 119.166594,15.48625 L119.166594,6.09013889 C119.166594,5.69291667 119.487983,5.37152778 119.885206,5.37152778 L122.059094,5.37152778 C122.456317,5.37152778 122.777706,5.69291667 122.777706,6.09013889 L122.777706,15.48625 C122.777706,15.8834722 122.456317,16.2048611 122.059094,16.2048611" id="Fill-11" fill="#C2C2C2"></path>
                        <path d="M78,7.58051667 L78,14.0862944 C78,14.68285 77.5161111,15.1667389 76.9195556,15.1667389 L53.0804444,15.1667389 C52.4838889,15.1667389 52,14.68285 52,14.0862944 L52,7.58051667 C52,6.98396111 52.4838889,6.50007222 53.0804444,6.50007222 L76.9195556,6.50007222 C77.5161111,6.50007222 78,6.98396111 78,7.58051667" id="Fill-13" fill="#C2C2C2"></path>
                    </g>
                    <g id="Page-1-Copy-2">
                        <path d="M126.388889,21.6666667 L3.61111111,21.6666667 C1.61633333,21.6666667 0,20.0503333 0,18.0555556 L0,3.61111111 C0,1.61633333 1.61633333,0 3.61111111,0 L126.388889,0 C128.383667,0 130,1.61633333 130,3.61111111 L130,18.0555556 C130,20.0503333 128.383667,21.6666667 126.388889,21.6666667" id="Fill-1" fill="#D6D6D6"></path>
                        <path d="M14.4444444,14.0381944 C14.4444444,15.0355833 13.6362778,15.84375 12.6388889,15.84375 C11.6415,15.84375 10.8333333,15.0355833 10.8333333,14.0381944 C10.8333333,13.0408056 11.6415,12.2326389 12.6388889,12.2326389 C13.6362778,12.2326389 14.4444444,13.0408056 14.4444444,14.0381944" id="Fill-3" fill="#F16667"></path>
                        <path d="M14.4444444,7.53819444 C14.4444444,8.53558333 13.6362778,9.34375 12.6388889,9.34375 C11.6415,9.34375 10.8333333,8.53558333 10.8333333,7.53819444 C10.8333333,6.54080556 11.6415,5.73263889 12.6388889,5.73263889 C13.6362778,5.73263889 14.4444444,6.54080556 14.4444444,7.53819444" id="Fill-5" fill="#8DCC93"></path>
                        <path d="M107.611111,16.2048611 L105.444444,16.2048611 C105.045056,16.2048611 104.722222,15.8820278 104.722222,15.4826389 L104.722222,6.09375 C104.722222,5.69436111 105.045056,5.37152778 105.444444,5.37152778 L107.611111,5.37152778 C108.0105,5.37152778 108.333333,5.69436111 108.333333,6.09375 L108.333333,15.4826389 C108.333333,15.8820278 108.0105,16.2048611 107.611111,16.2048611" id="Fill-7" fill="#C2C2C2"></path>
                        <path d="M114.830517,16.2048611 L112.669628,16.2048611 C112.268794,16.2048611 111.944517,15.8805833 111.944517,15.47975 L111.944517,6.09663889 C111.944517,5.69580556 112.268794,5.37152778 112.669628,5.37152778 L114.830517,5.37152778 C115.23135,5.37152778 115.555628,5.69580556 115.555628,6.09663889 L115.555628,15.47975 C115.555628,15.8805833 115.23135,16.2048611 114.830517,16.2048611" id="Fill-9" fill="#C2C2C2"></path>
                        <path d="M122.059094,16.2048611 L119.885206,16.2048611 C119.487983,16.2048611 119.166594,15.8834722 119.166594,15.48625 L119.166594,6.09013889 C119.166594,5.69291667 119.487983,5.37152778 119.885206,5.37152778 L122.059094,5.37152778 C122.456317,5.37152778 122.777706,5.69291667 122.777706,6.09013889 L122.777706,15.48625 C122.777706,15.8834722 122.456317,16.2048611 122.059094,16.2048611" id="Fill-11" fill="#C2C2C2"></path>
                        <path d="M78,7.58051667 L78,14.0862944 C78,14.68285 77.5161111,15.1667389 76.9195556,15.1667389 L53.0804444,15.1667389 C52.4838889,15.1667389 52,14.68285 52,14.0862944 L52,7.58051667 C52,6.98396111 52.4838889,6.50007222 53.0804444,6.50007222 L76.9195556,6.50007222 C77.5161111,6.50007222 78,6.98396111 78,7.58051667" id="Fill-13" fill="#C2C2C2"></path>
                    </g>
                </g>
            </g>
            <text id="Data-center-1-(leade" font-family="OpenSans-Regular, Open Sans" font-size="12" font-weight="normal" fill="#333333">
                <tspan x="135.447266" y="48">Data center 1</tspan>
                <tspan x="115.244141" y="65">(leader and follower)</tspan>
            </text>
            <rect id="Rectangle-14" stroke="#DFDFDF" x="458.5" y="11.5" width="319" height="210"></rect>
            <text id="Data-center-2-(follo" font-family="OpenSans-Regular, Open Sans" font-size="12" font-weight="normal" fill="#333333">
                <tspan x="580.447266" y="48">Data center 2</tspan>
                <tspan x="578.364258" y="65">(follower only)</tspan>
            </text>
            <g id="Group-17" transform="translate(331.000000, 112.000000)">
                <polygon id="Triangle-5" fill="#979797" transform="translate(123.000000, 4.000000) rotate(90.000000) translate(-123.000000, -4.000000) " points="123 0 127 8 119 8"></polygon>
                <polygon id="Triangle-5" fill="#979797" transform="translate(4.000000, 4.000000) scale(-1, 1) rotate(90.000000) translate(-4.000000, -4.000000) " points="4 0 8 8 0 8"></polygon>
                <path d="M2.5,3.5 L124.5,3.5" id="Line-7" stroke="#979797" stroke-linecap="square"></path>
                <path d="M2.5,4.5 L124.5,4.5" id="Line-7" stroke="#979797" stroke-linecap="square"></path>
            </g>
            <g id="Group-42" transform="translate(551.000000, 83.000000)">
                <rect id="Rectangle-15" fill="#C2C2C2" x="15" y="51" width="100" height="9"></rect>
                <rect id="Rectangle-15" fill="#C2C2C2" x="15" y="21" width="100" height="9"></rect>
                <g id="Page-1-Copy-2" transform="translate(0.000000, 60.000000)">
                    <path d="M126.388889,21.6666667 L3.61111111,21.6666667 C1.61633333,21.6666667 0,20.0503333 0,18.0555556 L0,3.61111111 C0,1.61633333 1.61633333,0 3.61111111,0 L126.388889,0 C128.383667,0 130,1.61633333 130,3.61111111 L130,18.0555556 C130,20.0503333 128.383667,21.6666667 126.388889,21.6666667" id="Fill-1" fill="#D6D6D6"></path>
                    <path d="M14.4444444,14.0381944 C14.4444444,15.0355833 13.6362778,15.84375 12.6388889,15.84375 C11.6415,15.84375 10.8333333,15.0355833 10.8333333,14.0381944 C10.8333333,13.0408056 11.6415,12.2326389 12.6388889,12.2326389 C13.6362778,12.2326389 14.4444444,13.0408056 14.4444444,14.0381944" id="Fill-3" fill="#F16667"></path>
                    <path d="M14.4444444,7.53819444 C14.4444444,8.53558333 13.6362778,9.34375 12.6388889,9.34375 C11.6415,9.34375 10.8333333,8.53558333 10.8333333,7.53819444 C10.8333333,6.54080556 11.6415,5.73263889 12.6388889,5.73263889 C13.6362778,5.73263889 14.4444444,6.54080556 14.4444444,7.53819444" id="Fill-5" fill="#8DCC93"></path>
                    <path d="M107.611111,16.2048611 L105.444444,16.2048611 C105.045056,16.2048611 104.722222,15.8820278 104.722222,15.4826389 L104.722222,6.09375 C104.722222,5.69436111 105.045056,5.37152778 105.444444,5.37152778 L107.611111,5.37152778 C108.0105,5.37152778 108.333333,5.69436111 108.333333,6.09375 L108.333333,15.4826389 C108.333333,15.8820278 108.0105,16.2048611 107.611111,16.2048611" id="Fill-7" fill="#C2C2C2"></path>
                    <path d="M114.830517,16.2048611 L112.669628,16.2048611 C112.268794,16.2048611 111.944517,15.8805833 111.944517,15.47975 L111.944517,6.09663889 C111.944517,5.69580556 112.268794,5.37152778 112.669628,5.37152778 L114.830517,5.37152778 C115.23135,5.37152778 115.555628,5.69580556 115.555628,6.09663889 L115.555628,15.47975 C115.555628,15.8805833 115.23135,16.2048611 114.830517,16.2048611" id="Fill-9" fill="#C2C2C2"></path>
                    <path d="M122.059094,16.2048611 L119.885206,16.2048611 C119.487983,16.2048611 119.166594,15.8834722 119.166594,15.48625 L119.166594,6.09013889 C119.166594,5.69291667 119.487983,5.37152778 119.885206,5.37152778 L122.059094,5.37152778 C122.456317,5.37152778 122.777706,5.69291667 122.777706,6.09013889 L122.777706,15.48625 C122.777706,15.8834722 122.456317,16.2048611 122.059094,16.2048611" id="Fill-11" fill="#C2C2C2"></path>
                    <path d="M78,7.58051667 L78,14.0862944 C78,14.68285 77.5161111,15.1667389 76.9195556,15.1667389 L53.0804444,15.1667389 C52.4838889,15.1667389 52,14.68285 52,14.0862944 L52,7.58051667 C52,6.98396111 52.4838889,6.50007222 53.0804444,6.50007222 L76.9195556,6.50007222 C77.5161111,6.50007222 78,6.98396111 78,7.58051667" id="Fill-13" fill="#C2C2C2"></path>
                </g>
                <g id="Page-1-Copy-2">
                    <path d="M126.388889,21.6666667 L3.61111111,21.6666667 C1.61633333,21.6666667 0,20.0503333 0,18.0555556 L0,3.61111111 C0,1.61633333 1.61633333,0 3.61111111,0 L126.388889,0 C128.383667,0 130,1.61633333 130,3.61111111 L130,18.0555556 C130,20.0503333 128.383667,21.6666667 126.388889,21.6666667" id="Fill-1" fill="#D6D6D6"></path>
                    <path d="M14.4444444,14.0381944 C14.4444444,15.0355833 13.6362778,15.84375 12.6388889,15.84375 C11.6415,15.84375 10.8333333,15.0355833 10.8333333,14.0381944 C10.8333333,13.0408056 11.6415,12.2326389 12.6388889,12.2326389 C13.6362778,12.2326389 14.4444444,13.0408056 14.4444444,14.0381944" id="Fill-3" fill="#F16667"></path>
                    <path d="M14.4444444,7.53819444 C14.4444444,8.53558333 13.6362778,9.34375 12.6388889,9.34375 C11.6415,9.34375 10.8333333,8.53558333 10.8333333,7.53819444 C10.8333333,6.54080556 11.6415,5.73263889 12.6388889,5.73263889 C13.6362778,5.73263889 14.4444444,6.54080556 14.4444444,7.53819444" id="Fill-5" fill="#8DCC93"></path>
                    <path d="M107.611111,16.2048611 L105.444444,16.2048611 C105.045056,16.2048611 104.722222,15.8820278 104.722222,15.4826389 L104.722222,6.09375 C104.722222,5.69436111 105.045056,5.37152778 105.444444,5.37152778 L107.611111,5.37152778 C108.0105,5.37152778 108.333333,5.69436111 108.333333,6.09375 L108.333333,15.4826389 C108.333333,15.8820278 108.0105,16.2048611 107.611111,16.2048611" id="Fill-7" fill="#C2C2C2"></path>
                    <path d="M114.830517,16.2048611 L112.669628,16.2048611 C112.268794,16.2048611 111.944517,15.8805833 111.944517,15.47975 L111.944517,6.09663889 C111.944517,5.69580556 112.268794,5.37152778 112.669628,5.37152778 L114.830517,5.37152778 C115.23135,5.37152778 115.555628,5.69580556 115.555628,6.09663889 L115.555628,15.47975 C115.555628,15.8805833 115.23135,16.2048611 114.830517,16.2048611" id="Fill-9" fill="#C2C2C2"></path>
                    <path d="M122.059094,16.2048611 L119.885206,16.2048611 C119.487983,16.2048611 119.166594,15.8834722 119.166594,15.48625 L119.166594,6.09013889 C119.166594,5.69291667 119.487983,5.37152778 119.885206,5.37152778 L122.059094,5.37152778 C122.456317,5.37152778 122.777706,5.69291667 122.777706,6.09013889 L122.777706,15.48625 C122.777706,15.8834722 122.456317,16.2048611 122.059094,16.2048611" id="Fill-11" fill="#C2C2C2"></path>
                    <path d="M78,7.58051667 L78,14.0862944 C78,14.68285 77.5161111,15.1667389 76.9195556,15.1667389 L53.0804444,15.1667389 C52.4838889,15.1667389 52,14.68285 52,14.0862944 L52,7.58051667 C52,6.98396111 52.4838889,6.50007222 53.0804444,6.50007222 L76.9195556,6.50007222 C77.5161111,6.50007222 78,6.98396111 78,7.58051667" id="Fill-13" fill="#C2C2C2"></path>
                </g>
                <g id="Page-1-Copy-2" transform="translate(0.000000, 30.000000)">
                    <path d="M126.388889,21.6666667 L3.61111111,21.6666667 C1.61633333,21.6666667 0,20.0503333 0,18.0555556 L0,3.61111111 C0,1.61633333 1.61633333,0 3.61111111,0 L126.388889,0 C128.383667,0 130,1.61633333 130,3.61111111 L130,18.0555556 C130,20.0503333 128.383667,21.6666667 126.388889,21.6666667" id="Fill-1" fill="#D6D6D6"></path>
                    <path d="M14.4444444,14.0381944 C14.4444444,15.0355833 13.6362778,15.84375 12.6388889,15.84375 C11.6415,15.84375 10.8333333,15.0355833 10.8333333,14.0381944 C10.8333333,13.0408056 11.6415,12.2326389 12.6388889,12.2326389 C13.6362778,12.2326389 14.4444444,13.0408056 14.4444444,14.0381944" id="Fill-3" fill="#F16667"></path>
                    <path d="M14.4444444,7.53819444 C14.4444444,8.53558333 13.6362778,9.34375 12.6388889,9.34375 C11.6415,9.34375 10.8333333,8.53558333 10.8333333,7.53819444 C10.8333333,6.54080556 11.6415,5.73263889 12.6388889,5.73263889 C13.6362778,5.73263889 14.4444444,6.54080556 14.4444444,7.53819444" id="Fill-5" fill="#8DCC93"></path>
                    <path d="M107.611111,16.2048611 L105.444444,16.2048611 C105.045056,16.2048611 104.722222,15.8820278 104.722222,15.4826389 L104.722222,6.09375 C104.722222,5.69436111 105.045056,5.37152778 105.444444,5.37152778 L107.611111,5.37152778 C108.0105,5.37152778 108.333333,5.69436111 108.333333,6.09375 L108.333333,15.4826389 C108.333333,15.8820278 108.0105,16.2048611 107.611111,16.2048611" id="Fill-7" fill="#C2C2C2"></path>
                    <path d="M114.830517,16.2048611 L112.669628,16.2048611 C112.268794,16.2048611 111.944517,15.8805833 111.944517,15.47975 L111.944517,6.09663889 C111.944517,5.69580556 112.268794,5.37152778 112.669628,5.37152778 L114.830517,5.37152778 C115.23135,5.37152778 115.555628,5.69580556 115.555628,6.09663889 L115.555628,15.47975 C115.555628,15.8805833 115.23135,16.2048611 114.830517,16.2048611" id="Fill-9" fill="#C2C2C2"></path>
                    <path d="M122.059094,16.2048611 L119.885206,16.2048611 C119.487983,16.2048611 119.166594,15.8834722 119.166594,15.48625 L119.166594,6.09013889 C119.166594,5.69291667 119.487983,5.37152778 119.885206,5.37152778 L122.059094,5.37152778 C122.456317,5.37152778 122.777706,5.69291667 122.777706,6.09013889 L122.777706,15.48625 C122.777706,15.8834722 122.456317,16.2048611 122.059094,16.2048611" id="Fill-11" fill="#C2C2C2"></path>
                    <path d="M78,7.58051667 L78,14.0862944 C78,14.68285 77.5161111,15.1667389 76.9195556,15.1667389 L53.0804444,15.1667389 C52.4838889,15.1667389 52,14.68285 52,14.0862944 L52,7.58051667 C52,6.98396111 52.4838889,6.50007222 53.0804444,6.50007222 L76.9195556,6.50007222 C77.5161111,6.50007222 78,6.98396111 78,7.58051667" id="Fill-13" fill="#C2C2C2"></path>
                </g>
            </g>
            <rect id="Rectangle-16" stroke="#979797" x="5.5" y="5.5" width="778" height="222"></rect>
            <text id="Raft-protocol" font-family="OpenSans-Regular, Open Sans" font-size="10" font-weight="normal" fill="#333333">
                <tspan x="364" y="103">Raft protocol</tspan>
            </text>
            <text id="(default)" font-family="OpenSans-Regular, Open Sans" font-size="10" font-weight="normal" fill="#333333">
                <tspan x="152" y="213">(default)</tspan>
            </text>
        </g>
    </g>
</svg>