<svg width="1326" height="128" viewBox="0 0 1326 128" fill="none" xmlns="http://www.w3.org/2000/svg">
<path d="M0 64C0 28.6538 28.6538 0 64 0H233C268.346 0 297 28.6538 297 64C297 99.3462 268.346 128 233 128H64C28.6538 128 0 99.3462 0 64Z" fill="#014063"/>
<path d="M109.433 57.2C108.099 57.2 107.023 56.98 106.203 56.54C105.389 56.0933 104.799 55.4533 104.433 54.62C104.066 53.78 103.883 52.7667 103.883 51.58V42.54H106.373V51.83C106.373 52.95 106.646 53.7767 107.193 54.31C107.746 54.8433 108.493 55.11 109.433 55.11C110.066 55.11 110.616 54.9933 111.083 54.76C111.549 54.5267 111.909 54.17 112.163 53.69C112.416 53.2033 112.543 52.5833 112.543 51.83V42.54H115.003V51.72C115.003 52.8667 114.816 53.85 114.443 54.67C114.069 55.4833 113.473 56.11 112.653 56.55C111.839 56.9833 110.766 57.2 109.433 57.2ZM117.79 60.22V46.66H120.22L120.24 48.29C120.373 48.0633 120.543 47.84 120.75 47.62C120.963 47.4 121.207 47.2033 121.48 47.03C121.76 46.8567 122.07 46.72 122.41 46.62C122.75 46.5133 123.123 46.46 123.53 46.46C124.323 46.46 125.027 46.65 125.64 47.03C126.253 47.4033 126.733 47.98 127.08 48.76C127.433 49.54 127.61 50.5267 127.61 51.72C127.61 52.94 127.43 53.9567 127.07 54.77C126.71 55.5833 126.207 56.1933 125.56 56.6C124.913 57 124.163 57.2 123.31 57.2C122.917 57.2 122.557 57.1467 122.23 57.04C121.91 56.9333 121.623 56.7867 121.37 56.6C121.117 56.4133 120.893 56.21 120.7 55.99C120.513 55.77 120.357 55.54 120.23 55.3V60.22H117.79ZM122.77 55.38C123.503 55.38 124.11 55.09 124.59 54.51C125.07 53.9233 125.31 53.0067 125.31 51.76C125.31 50.68 125.083 49.83 124.63 49.21C124.183 48.5833 123.563 48.27 122.77 48.27C121.917 48.27 121.277 48.6 120.85 49.26C120.423 49.9133 120.21 50.7467 120.21 51.76C120.21 52.4133 120.303 53.0167 120.49 53.57C120.683 54.1167 120.967 54.5567 121.34 54.89C121.72 55.2167 122.197 55.38 122.77 55.38ZM133.742 57.2C133.022 57.2 132.339 57.0867 131.692 56.86C131.052 56.6267 130.512 56.2633 130.072 55.77C129.639 55.2767 129.366 54.64 129.252 53.86H131.392C131.486 54.24 131.649 54.55 131.882 54.79C132.122 55.03 132.402 55.2067 132.722 55.32C133.049 55.4267 133.386 55.48 133.732 55.48C134.352 55.48 134.852 55.3733 135.232 55.16C135.612 54.9467 135.802 54.6167 135.802 54.17C135.802 53.8433 135.696 53.5833 135.482 53.39C135.276 53.1967 134.936 53.05 134.462 52.95L132.502 52.5C131.622 52.3067 130.919 51.9867 130.392 51.54C129.866 51.0933 129.599 50.4633 129.592 49.65C129.586 49.0367 129.739 48.49 130.052 48.01C130.366 47.53 130.832 47.1533 131.452 46.88C132.072 46.6 132.836 46.46 133.742 46.46C134.949 46.46 135.916 46.73 136.642 47.27C137.376 47.8033 137.752 48.5667 137.772 49.56H135.702C135.629 49.1133 135.419 48.7667 135.072 48.52C134.726 48.2667 134.276 48.14 133.722 48.14C133.149 48.14 132.679 48.25 132.312 48.47C131.946 48.69 131.762 49.0267 131.762 49.48C131.762 49.7933 131.899 50.04 132.172 50.22C132.452 50.4 132.876 50.5533 133.442 50.68L135.302 51.13C135.836 51.2633 136.272 51.4433 136.612 51.67C136.952 51.8967 137.216 52.1467 137.402 52.42C137.596 52.6867 137.729 52.9633 137.802 53.25C137.882 53.53 137.922 53.79 137.922 54.03C137.922 54.6967 137.749 55.2667 137.402 55.74C137.062 56.2067 136.579 56.5667 135.952 56.82C135.332 57.0733 134.596 57.2 133.742 57.2ZM144.167 57.08C143.347 57.08 142.71 56.9733 142.257 56.76C141.81 56.54 141.5 56.23 141.327 55.83C141.153 55.43 141.067 54.9533 141.067 54.4V48.38H139.387V46.66H141.137L141.747 43.59H143.497V46.65H145.807V48.38H143.497L143.507 54.31C143.507 54.6167 143.54 54.8433 143.607 54.99C143.68 55.13 143.793 55.2233 143.947 55.27C144.107 55.31 144.317 55.33 144.577 55.33H145.857V56.87C145.717 56.9233 145.51 56.97 145.237 57.01C144.97 57.0567 144.613 57.08 144.167 57.08ZM148.103 57V46.66H150.433V48.9C150.599 48.3867 150.836 47.95 151.143 47.59C151.456 47.2233 151.823 46.9433 152.243 46.75C152.663 46.5567 153.119 46.46 153.613 46.46C153.733 46.46 153.849 46.4667 153.963 46.48C154.076 46.4933 154.159 46.5167 154.213 46.55V48.88C154.139 48.8467 154.043 48.8233 153.923 48.81C153.809 48.7967 153.709 48.79 153.623 48.79C153.123 48.75 152.679 48.77 152.293 48.85C151.913 48.93 151.589 49.0667 151.323 49.26C151.063 49.4467 150.866 49.6867 150.733 49.98C150.599 50.2667 150.533 50.6033 150.533 50.99V57H148.103ZM160.641 57.2C159.648 57.2 158.771 56.99 158.011 56.57C157.258 56.1433 156.668 55.5367 156.241 54.75C155.821 53.9633 155.611 53.0267 155.611 51.94C155.611 50.88 155.801 49.94 156.181 49.12C156.568 48.2933 157.125 47.6433 157.851 47.17C158.585 46.6967 159.468 46.46 160.501 46.46C161.521 46.46 162.378 46.6767 163.071 47.11C163.765 47.5433 164.291 48.15 164.651 48.93C165.011 49.7033 165.191 50.61 165.191 51.65V52.39H158.041C158.035 52.9767 158.128 53.4967 158.321 53.95C158.515 54.4033 158.801 54.76 159.181 55.02C159.561 55.2733 160.031 55.4 160.591 55.4C161.165 55.4 161.661 55.2733 162.081 55.02C162.508 54.76 162.791 54.3667 162.931 53.84H165.151C165.031 54.56 164.745 55.17 164.291 55.67C163.845 56.17 163.298 56.55 162.651 56.81C162.011 57.07 161.341 57.2 160.641 57.2ZM158.031 50.88H162.891C162.891 50.38 162.801 49.93 162.621 49.53C162.448 49.1233 162.185 48.8033 161.831 48.57C161.478 48.33 161.031 48.21 160.491 48.21C159.958 48.21 159.508 48.34 159.141 48.6C158.775 48.86 158.498 49.1967 158.311 49.61C158.125 50.0167 158.031 50.44 158.031 50.88ZM170.409 57.2C169.749 57.2 169.156 57.08 168.629 56.84C168.109 56.5933 167.699 56.2433 167.399 55.79C167.106 55.33 166.959 54.7733 166.959 54.12C166.959 52.98 167.369 52.12 168.189 51.54C169.016 50.96 170.329 50.6567 172.129 50.63L173.679 50.59V49.89C173.679 49.3433 173.516 48.9167 173.189 48.61C172.869 48.2967 172.369 48.1433 171.689 48.15C171.182 48.1567 170.722 48.2767 170.309 48.51C169.896 48.7367 169.622 49.12 169.489 49.66H167.419C167.459 48.9533 167.662 48.3633 168.029 47.89C168.402 47.41 168.912 47.0533 169.559 46.82C170.206 46.58 170.952 46.46 171.799 46.46C172.786 46.46 173.589 46.59 174.209 46.85C174.829 47.11 175.286 47.4867 175.579 47.98C175.872 48.4667 176.019 49.0567 176.019 49.75V57H173.969L173.769 55.14C173.402 55.92 172.932 56.46 172.359 56.76C171.792 57.0533 171.142 57.2 170.409 57.2ZM171.199 55.55C171.499 55.55 171.796 55.4967 172.089 55.39C172.382 55.2767 172.646 55.1267 172.879 54.94C173.119 54.7467 173.309 54.5333 173.449 54.3C173.596 54.0667 173.672 53.8233 173.679 53.57V51.94L172.409 51.96C171.782 51.9667 171.232 52.0333 170.759 52.16C170.292 52.2867 169.929 52.49 169.669 52.77C169.409 53.0433 169.279 53.41 169.279 53.87C169.279 54.3967 169.462 54.81 169.829 55.11C170.196 55.4033 170.652 55.55 171.199 55.55ZM178.61 57V46.66H180.98V48.14C181.28 47.6867 181.687 47.2933 182.2 46.96C182.72 46.6267 183.38 46.46 184.18 46.46C184.547 46.46 184.917 46.5233 185.29 46.65C185.67 46.7767 186.02 46.9633 186.34 47.21C186.667 47.4567 186.927 47.7633 187.12 48.13C187.447 47.6433 187.88 47.2433 188.42 46.93C188.967 46.6167 189.58 46.46 190.26 46.46C190.634 46.46 191.017 46.52 191.41 46.64C191.81 46.76 192.177 46.96 192.51 47.24C192.844 47.52 193.114 47.9033 193.32 48.39C193.527 48.87 193.63 49.4733 193.63 50.2V57H191.2V50.49C191.2 49.9767 191.11 49.5733 190.93 49.28C190.75 48.9867 190.517 48.78 190.23 48.66C189.95 48.5333 189.65 48.47 189.33 48.47C189.044 48.47 188.744 48.5267 188.43 48.64C188.124 48.7533 187.86 48.94 187.64 49.2C187.427 49.46 187.32 49.81 187.32 50.25V57H184.89V50.1C184.89 49.74 184.797 49.44 184.61 49.2C184.424 48.96 184.187 48.78 183.9 48.66C183.62 48.5333 183.334 48.47 183.04 48.47C182.74 48.47 182.434 48.5333 182.12 48.66C181.814 48.7867 181.557 48.98 181.35 49.24C181.144 49.5 181.04 49.8367 181.04 50.25V57H178.61Z" fill="white"/>
<path d="M111.027 85.2C109.68 85.2 108.613 84.74 107.827 83.82C107.047 82.9 106.657 81.5567 106.657 79.79C106.657 78.7167 106.813 77.78 107.127 76.98C107.44 76.18 107.91 75.56 108.537 75.12C109.163 74.68 109.943 74.46 110.877 74.46C111.377 74.46 111.817 74.5233 112.197 74.65C112.577 74.7767 112.907 74.9367 113.187 75.13C113.467 75.3233 113.693 75.5233 113.867 75.73C114.047 75.9367 114.18 76.1267 114.267 76.3V70.14H116.137V85H114.717L114.517 82.88C114.45 83.08 114.343 83.3133 114.197 83.58C114.05 83.84 113.843 84.0967 113.577 84.35C113.317 84.5967 112.977 84.8 112.557 84.96C112.137 85.12 111.627 85.2 111.027 85.2ZM111.357 83.78C112.397 83.78 113.14 83.4633 113.587 82.83C114.04 82.19 114.267 81.1467 114.267 79.7C114.26 78.8933 114.16 78.2067 113.967 77.64C113.773 77.0733 113.467 76.6433 113.047 76.35C112.633 76.05 112.08 75.9 111.387 75.9C110.54 75.9 109.85 76.2033 109.317 76.81C108.783 77.4167 108.517 78.38 108.517 79.7C108.517 80.9933 108.757 81.9967 109.237 82.71C109.717 83.4233 110.423 83.78 111.357 83.78ZM122.09 85.2C121.417 85.2 120.823 85.0833 120.31 84.85C119.803 84.61 119.403 84.2667 119.11 83.82C118.823 83.3733 118.68 82.8333 118.68 82.2C118.68 81.0533 119.08 80.2 119.88 79.64C120.68 79.08 121.963 78.78 123.73 78.74L125.57 78.69V77.88C125.57 77.2467 125.38 76.7467 125 76.38C124.62 76.0067 124.033 75.82 123.24 75.82C122.647 75.8267 122.123 75.9667 121.67 76.24C121.217 76.5133 120.927 76.96 120.8 77.58H119.17C119.21 76.9067 119.397 76.34 119.73 75.88C120.07 75.4133 120.547 75.06 121.16 74.82C121.773 74.58 122.497 74.46 123.33 74.46C124.23 74.46 124.977 74.5867 125.57 74.84C126.17 75.0933 126.617 75.4667 126.91 75.96C127.21 76.4533 127.36 77.06 127.36 77.78V85H125.78L125.64 83.06C125.247 83.8667 124.74 84.4267 124.12 84.74C123.507 85.0467 122.83 85.2 122.09 85.2ZM122.64 83.87C122.993 83.87 123.34 83.8067 123.68 83.68C124.027 83.5533 124.34 83.3833 124.62 83.17C124.907 82.95 125.137 82.7067 125.31 82.44C125.483 82.1667 125.57 81.8867 125.57 81.6V79.83L124.04 79.86C123.247 79.8733 122.587 79.9533 122.06 80.1C121.533 80.2467 121.137 80.4767 120.87 80.79C120.603 81.1033 120.47 81.5133 120.47 82.02C120.47 82.6 120.673 83.0533 121.08 83.38C121.487 83.7067 122.007 83.87 122.64 83.87ZM133.605 85.05C132.892 85.05 132.338 84.9533 131.945 84.76C131.552 84.5667 131.275 84.28 131.115 83.9C130.962 83.52 130.885 83.0533 130.885 82.5V76.01H129.205V74.66H130.935L131.385 71.65H132.745V74.65H135.075V76.01H132.745V82.44C132.745 82.8067 132.782 83.0767 132.855 83.25C132.935 83.4167 133.065 83.5233 133.245 83.57C133.425 83.6167 133.678 83.64 134.005 83.64H135.135V84.88C135.008 84.9267 134.815 84.9667 134.555 85C134.302 85.0333 133.985 85.05 133.605 85.05ZM140.43 85.2C139.757 85.2 139.163 85.0833 138.65 84.85C138.143 84.61 137.743 84.2667 137.45 83.82C137.163 83.3733 137.02 82.8333 137.02 82.2C137.02 81.0533 137.42 80.2 138.22 79.64C139.02 79.08 140.303 78.78 142.07 78.74L143.91 78.69V77.88C143.91 77.2467 143.72 76.7467 143.34 76.38C142.96 76.0067 142.373 75.82 141.58 75.82C140.987 75.8267 140.463 75.9667 140.01 76.24C139.557 76.5133 139.267 76.96 139.14 77.58H137.51C137.55 76.9067 137.737 76.34 138.07 75.88C138.41 75.4133 138.887 75.06 139.5 74.82C140.113 74.58 140.837 74.46 141.67 74.46C142.57 74.46 143.317 74.5867 143.91 74.84C144.51 75.0933 144.957 75.4667 145.25 75.96C145.55 76.4533 145.7 77.06 145.7 77.78V85H144.12L143.98 83.06C143.587 83.8667 143.08 84.4267 142.46 84.74C141.847 85.0467 141.17 85.2 140.43 85.2ZM140.98 83.87C141.333 83.87 141.68 83.8067 142.02 83.68C142.367 83.5533 142.68 83.3833 142.96 83.17C143.247 82.95 143.477 82.7067 143.65 82.44C143.823 82.1667 143.91 81.8867 143.91 81.6V79.83L142.38 79.86C141.587 79.8733 140.927 79.9533 140.4 80.1C139.873 80.2467 139.477 80.4767 139.21 80.79C138.943 81.1033 138.81 81.5133 138.81 82.02C138.81 82.6 139.013 83.0533 139.42 83.38C139.827 83.7067 140.347 83.87 140.98 83.87ZM153.695 85.2C153.088 85.2 152.575 85.12 152.155 84.96C151.741 84.8 151.401 84.5967 151.135 84.35C150.868 84.0967 150.661 83.84 150.515 83.58C150.368 83.3133 150.261 83.08 150.195 82.88L149.995 85H148.585V70.14H150.445V76.3C150.531 76.1267 150.661 75.9367 150.835 75.73C151.015 75.5233 151.245 75.3233 151.525 75.13C151.805 74.9367 152.135 74.7767 152.515 74.65C152.901 74.5233 153.341 74.46 153.835 74.46C155.128 74.46 156.155 74.91 156.915 75.81C157.681 76.71 158.065 78.0367 158.065 79.79C158.065 80.8767 157.901 81.8267 157.575 82.64C157.248 83.4467 156.761 84.0767 156.115 84.53C155.468 84.9767 154.661 85.2 153.695 85.2ZM153.365 83.78C154.205 83.78 154.888 83.4567 155.415 82.81C155.941 82.1567 156.205 81.12 156.205 79.7C156.205 78.4933 155.958 77.56 155.465 76.9C154.978 76.2333 154.265 75.9 153.325 75.9C152.638 75.9 152.085 76.05 151.665 76.35C151.251 76.6433 150.945 77.0733 150.745 77.64C150.551 78.2067 150.451 78.8933 150.445 79.7C150.445 81.1467 150.668 82.19 151.115 82.83C151.568 83.4633 152.318 83.78 153.365 83.78ZM163.301 85.2C162.628 85.2 162.034 85.0833 161.521 84.85C161.014 84.61 160.614 84.2667 160.321 83.82C160.034 83.3733 159.891 82.8333 159.891 82.2C159.891 81.0533 160.291 80.2 161.091 79.64C161.891 79.08 163.174 78.78 164.941 78.74L166.781 78.69V77.88C166.781 77.2467 166.591 76.7467 166.211 76.38C165.831 76.0067 165.244 75.82 164.451 75.82C163.858 75.8267 163.334 75.9667 162.881 76.24C162.428 76.5133 162.138 76.96 162.011 77.58H160.381C160.421 76.9067 160.608 76.34 160.941 75.88C161.281 75.4133 161.758 75.06 162.371 74.82C162.984 74.58 163.708 74.46 164.541 74.46C165.441 74.46 166.188 74.5867 166.781 74.84C167.381 75.0933 167.828 75.4667 168.121 75.96C168.421 76.4533 168.571 77.06 168.571 77.78V85H166.991L166.851 83.06C166.458 83.8667 165.951 84.4267 165.331 84.74C164.718 85.0467 164.041 85.2 163.301 85.2ZM163.851 83.87C164.204 83.87 164.551 83.8067 164.891 83.68C165.238 83.5533 165.551 83.3833 165.831 83.17C166.118 82.95 166.348 82.7067 166.521 82.44C166.694 82.1667 166.781 81.8867 166.781 81.6V79.83L165.251 79.86C164.458 79.8733 163.798 79.9533 163.271 80.1C162.744 80.2467 162.348 80.4767 162.081 80.79C161.814 81.1033 161.681 81.5133 161.681 82.02C161.681 82.6 161.884 83.0533 162.291 83.38C162.698 83.7067 163.218 83.87 163.851 83.87ZM175.078 85.2C174.358 85.2 173.688 85.09 173.068 84.87C172.455 84.6433 171.945 84.2933 171.538 83.82C171.131 83.34 170.878 82.73 170.778 81.99H172.458C172.545 82.3967 172.711 82.7367 172.958 83.01C173.205 83.2767 173.508 83.48 173.868 83.62C174.235 83.7533 174.635 83.82 175.068 83.82C175.768 83.82 176.331 83.69 176.758 83.43C177.185 83.17 177.398 82.77 177.398 82.23C177.398 81.85 177.285 81.5467 177.058 81.32C176.838 81.0867 176.491 80.9167 176.018 80.81L173.878 80.28C173.045 80.08 172.378 79.7667 171.878 79.34C171.385 78.9133 171.135 78.3167 171.128 77.55C171.128 76.9433 171.275 76.41 171.568 75.95C171.861 75.49 172.298 75.1267 172.878 74.86C173.465 74.5933 174.195 74.46 175.068 74.46C176.195 74.46 177.101 74.7133 177.788 75.22C178.475 75.72 178.835 76.4567 178.868 77.43H177.228C177.161 76.9367 176.941 76.5467 176.568 76.26C176.195 75.9667 175.688 75.82 175.048 75.82C174.395 75.82 173.858 75.9533 173.438 76.22C173.025 76.48 172.818 76.8867 172.818 77.44C172.818 77.8067 172.965 78.0967 173.258 78.31C173.558 78.5167 173.991 78.69 174.558 78.83L176.638 79.35C177.111 79.4767 177.505 79.6433 177.818 79.85C178.131 80.0567 178.378 80.2867 178.558 80.54C178.738 80.7933 178.865 81.06 178.938 81.34C179.018 81.6133 179.058 81.8767 179.058 82.13C179.058 82.7633 178.901 83.31 178.588 83.77C178.275 84.2233 177.821 84.5767 177.228 84.83C176.635 85.0767 175.918 85.2 175.078 85.2ZM185.845 85.2C184.885 85.2 184.039 84.99 183.305 84.57C182.572 84.15 181.999 83.5467 181.585 82.76C181.172 81.9733 180.965 81.03 180.965 79.93C180.965 78.8433 181.152 77.89 181.525 77.07C181.899 76.25 182.439 75.61 183.145 75.15C183.859 74.69 184.715 74.46 185.715 74.46C186.689 74.46 187.512 74.67 188.185 75.09C188.859 75.51 189.369 76.1033 189.715 76.87C190.069 77.63 190.245 78.5333 190.245 79.58V80.26H182.835C182.835 80.9133 182.942 81.5067 183.155 82.04C183.375 82.5667 183.705 82.9867 184.145 83.3C184.585 83.6133 185.142 83.77 185.815 83.77C186.475 83.77 187.042 83.6167 187.515 83.31C187.995 83.0033 188.302 82.56 188.435 81.98H190.175C190.055 82.68 189.775 83.27 189.335 83.75C188.902 84.23 188.379 84.5933 187.765 84.84C187.159 85.08 186.519 85.2 185.845 85.2ZM182.845 79.01H188.465C188.465 78.4167 188.365 77.8833 188.165 77.41C187.965 76.93 187.659 76.5533 187.245 76.28C186.839 76 186.325 75.86 185.705 75.86C185.059 75.86 184.522 76.0167 184.095 76.33C183.669 76.6367 183.352 77.0333 183.145 77.52C182.939 78 182.839 78.4967 182.845 79.01Z" fill="white"/>
<path d="M384 64C384 28.6538 412.654 0 448 0H617C652.346 0 681 28.6538 681 64C681 99.3462 652.346 128 617 128H448C412.654 128 384 99.3462 384 64Z" fill="#1A1B1D"/>
<path d="M441.392 57.2C440.058 57.2 438.982 56.98 438.162 56.54C437.348 56.0933 436.758 55.4533 436.392 54.62C436.025 53.78 435.842 52.7667 435.842 51.58V42.54H438.332V51.83C438.332 52.95 438.605 53.7767 439.152 54.31C439.705 54.8433 440.452 55.11 441.392 55.11C442.025 55.11 442.575 54.9933 443.042 54.76C443.508 54.5267 443.868 54.17 444.122 53.69C444.375 53.2033 444.502 52.5833 444.502 51.83V42.54H446.962V51.72C446.962 52.8667 446.775 53.85 446.402 54.67C446.028 55.4833 445.432 56.11 444.612 56.55C443.798 56.9833 442.725 57.2 441.392 57.2ZM453.709 57.2C452.989 57.2 452.306 57.0867 451.659 56.86C451.019 56.6267 450.479 56.2633 450.039 55.77C449.606 55.2767 449.332 54.64 449.219 53.86H451.359C451.452 54.24 451.616 54.55 451.849 54.79C452.089 55.03 452.369 55.2067 452.689 55.32C453.016 55.4267 453.352 55.48 453.699 55.48C454.319 55.48 454.819 55.3733 455.199 55.16C455.579 54.9467 455.769 54.6167 455.769 54.17C455.769 53.8433 455.662 53.5833 455.449 53.39C455.242 53.1967 454.902 53.05 454.429 52.95L452.469 52.5C451.589 52.3067 450.886 51.9867 450.359 51.54C449.832 51.0933 449.566 50.4633 449.559 49.65C449.552 49.0367 449.706 48.49 450.019 48.01C450.332 47.53 450.799 47.1533 451.419 46.88C452.039 46.6 452.802 46.46 453.709 46.46C454.916 46.46 455.882 46.73 456.609 47.27C457.342 47.8033 457.719 48.5667 457.739 49.56H455.669C455.596 49.1133 455.386 48.7667 455.039 48.52C454.692 48.2667 454.242 48.14 453.689 48.14C453.116 48.14 452.646 48.25 452.279 48.47C451.912 48.69 451.729 49.0267 451.729 49.48C451.729 49.7933 451.866 50.04 452.139 50.22C452.419 50.4 452.842 50.5533 453.409 50.68L455.269 51.13C455.802 51.2633 456.239 51.4433 456.579 51.67C456.919 51.8967 457.182 52.1467 457.369 52.42C457.562 52.6867 457.696 52.9633 457.769 53.25C457.849 53.53 457.889 53.79 457.889 54.03C457.889 54.6967 457.716 55.2667 457.369 55.74C457.029 56.2067 456.546 56.5667 455.919 56.82C455.299 57.0733 454.562 57.2 453.709 57.2ZM464.671 57.2C463.677 57.2 462.801 56.99 462.041 56.57C461.287 56.1433 460.697 55.5367 460.271 54.75C459.851 53.9633 459.641 53.0267 459.641 51.94C459.641 50.88 459.831 49.94 460.211 49.12C460.597 48.2933 461.154 47.6433 461.881 47.17C462.614 46.6967 463.497 46.46 464.531 46.46C465.551 46.46 466.407 46.6767 467.101 47.11C467.794 47.5433 468.321 48.15 468.681 48.93C469.041 49.7033 469.221 50.61 469.221 51.65V52.39H462.071C462.064 52.9767 462.157 53.4967 462.351 53.95C462.544 54.4033 462.831 54.76 463.211 55.02C463.591 55.2733 464.061 55.4 464.621 55.4C465.194 55.4 465.691 55.2733 466.111 55.02C466.537 54.76 466.821 54.3667 466.961 53.84H469.181C469.061 54.56 468.774 55.17 468.321 55.67C467.874 56.17 467.327 56.55 466.681 56.81C466.041 57.07 465.371 57.2 464.671 57.2ZM462.061 50.88H466.921C466.921 50.38 466.831 49.93 466.651 49.53C466.477 49.1233 466.214 48.8033 465.861 48.57C465.507 48.33 465.061 48.21 464.521 48.21C463.987 48.21 463.537 48.34 463.171 48.6C462.804 48.86 462.527 49.1967 462.341 49.61C462.154 50.0167 462.061 50.44 462.061 50.88ZM471.546 57V46.66H473.876V48.9C474.043 48.3867 474.279 47.95 474.586 47.59C474.899 47.2233 475.266 46.9433 475.686 46.75C476.106 46.5567 476.563 46.46 477.056 46.46C477.176 46.46 477.293 46.4667 477.406 46.48C477.519 46.4933 477.603 46.5167 477.656 46.55V48.88C477.583 48.8467 477.486 48.8233 477.366 48.81C477.253 48.7967 477.153 48.79 477.066 48.79C476.566 48.75 476.123 48.77 475.736 48.85C475.356 48.93 475.033 49.0667 474.766 49.26C474.506 49.4467 474.309 49.6867 474.176 49.98C474.043 50.2667 473.976 50.6033 473.976 50.99V57H471.546ZM489.721 57.2C489.168 57.2 488.694 57.1267 488.301 56.98C487.908 56.8333 487.578 56.6433 487.311 56.41C487.051 56.1767 486.841 55.9267 486.681 55.66C486.528 55.3867 486.411 55.1267 486.331 54.88L486.051 57H484.261V42.14H486.701V48.17C486.808 47.97 486.954 47.77 487.141 47.57C487.334 47.37 487.568 47.1867 487.841 47.02C488.114 46.8533 488.424 46.72 488.771 46.62C489.124 46.5133 489.514 46.46 489.941 46.46C491.228 46.46 492.244 46.9167 492.991 47.83C493.738 48.7433 494.111 50.06 494.111 51.78C494.111 52.8667 493.944 53.8167 493.611 54.63C493.284 55.4433 492.794 56.0767 492.141 56.53C491.494 56.9767 490.688 57.2 489.721 57.2ZM489.221 55.41C489.948 55.41 490.544 55.12 491.011 54.54C491.478 53.96 491.711 53.02 491.711 51.72C491.711 50.5867 491.491 49.73 491.051 49.15C490.611 48.5633 489.991 48.27 489.191 48.27C488.618 48.27 488.148 48.4 487.781 48.66C487.421 48.92 487.151 49.3067 486.971 49.82C486.798 50.3333 486.708 50.9667 486.701 51.72C486.701 53.04 486.901 53.9867 487.301 54.56C487.708 55.1267 488.348 55.41 489.221 55.41ZM499.204 57.2C498.544 57.2 497.951 57.08 497.424 56.84C496.904 56.5933 496.494 56.2433 496.194 55.79C495.901 55.33 495.754 54.7733 495.754 54.12C495.754 52.98 496.164 52.12 496.984 51.54C497.811 50.96 499.124 50.6567 500.924 50.63L502.474 50.59V49.89C502.474 49.3433 502.311 48.9167 501.984 48.61C501.664 48.2967 501.164 48.1433 500.484 48.15C499.977 48.1567 499.517 48.2767 499.104 48.51C498.691 48.7367 498.417 49.12 498.284 49.66H496.214C496.254 48.9533 496.457 48.3633 496.824 47.89C497.197 47.41 497.707 47.0533 498.354 46.82C499.001 46.58 499.747 46.46 500.594 46.46C501.581 46.46 502.384 46.59 503.004 46.85C503.624 47.11 504.081 47.4867 504.374 47.98C504.667 48.4667 504.814 49.0567 504.814 49.75V57H502.764L502.564 55.14C502.197 55.92 501.727 56.46 501.154 56.76C500.587 57.0533 499.937 57.2 499.204 57.2ZM499.994 55.55C500.294 55.55 500.591 55.4967 500.884 55.39C501.177 55.2767 501.441 55.1267 501.674 54.94C501.914 54.7467 502.104 54.5333 502.244 54.3C502.391 54.0667 502.467 53.8233 502.474 53.57V51.94L501.204 51.96C500.577 51.9667 500.027 52.0333 499.554 52.16C499.087 52.2867 498.724 52.49 498.464 52.77C498.204 53.0433 498.074 53.41 498.074 53.87C498.074 54.3967 498.257 54.81 498.624 55.11C498.991 55.4033 499.447 55.55 499.994 55.55ZM511.745 57.2C510.799 57.2 509.955 56.9933 509.215 56.58C508.482 56.16 507.905 55.5533 507.485 54.76C507.065 53.96 506.855 52.9967 506.855 51.87C506.855 50.7967 507.052 49.8567 507.445 49.05C507.845 48.2367 508.409 47.6033 509.135 47.15C509.869 46.69 510.739 46.46 511.745 46.46C512.552 46.46 513.262 46.62 513.875 46.94C514.489 47.26 514.979 47.7033 515.345 48.27C515.719 48.8367 515.942 49.48 516.015 50.2H513.945C513.892 49.8867 513.775 49.59 513.595 49.31C513.415 49.0233 513.172 48.7933 512.865 48.62C512.565 48.44 512.199 48.35 511.765 48.35C510.985 48.35 510.355 48.6367 509.875 49.21C509.395 49.7833 509.155 50.6633 509.155 51.85C509.155 52.9433 509.382 53.8133 509.835 54.46C510.295 55.1067 510.952 55.43 511.805 55.43C512.232 55.43 512.599 55.3367 512.905 55.15C513.212 54.9567 513.452 54.72 513.625 54.44C513.805 54.1533 513.919 53.8667 513.965 53.58H515.985C515.925 54.28 515.709 54.9033 515.335 55.45C514.962 55.9967 514.469 56.4267 513.855 56.74C513.242 57.0467 512.539 57.2 511.745 57.2ZM518.226 57V42.14H520.646V51.35L524.936 46.66H527.606L523.866 50.7L527.796 57H525.326L522.326 52.21L520.646 53.97V57H518.226ZM533.256 57.2C532.75 57.2 532.26 57.1267 531.786 56.98C531.32 56.8267 530.9 56.6067 530.526 56.32C530.153 56.0267 529.856 55.6667 529.636 55.24C529.416 54.8133 529.306 54.3167 529.306 53.75V46.66H531.746V53.47C531.746 54.03 531.923 54.49 532.276 54.85C532.636 55.21 533.176 55.39 533.896 55.39C534.55 55.39 535.073 55.22 535.466 54.88C535.86 54.5333 536.056 54.0367 536.056 53.39V46.66H538.476V57H536.606L536.336 54.98C536.21 55.5467 535.986 55.9933 535.666 56.32C535.353 56.64 534.983 56.8667 534.556 57C534.136 57.1333 533.703 57.2 533.256 57.2ZM541.331 60.22V46.66H543.761L543.781 48.29C543.915 48.0633 544.085 47.84 544.291 47.62C544.505 47.4 544.748 47.2033 545.021 47.03C545.301 46.8567 545.611 46.72 545.951 46.62C546.291 46.5133 546.665 46.46 547.071 46.46C547.865 46.46 548.568 46.65 549.181 47.03C549.795 47.4033 550.275 47.98 550.621 48.76C550.975 49.54 551.151 50.5267 551.151 51.72C551.151 52.94 550.971 53.9567 550.611 54.77C550.251 55.5833 549.748 56.1933 549.101 56.6C548.455 57 547.705 57.2 546.851 57.2C546.458 57.2 546.098 57.1467 545.771 57.04C545.451 56.9333 545.165 56.7867 544.911 56.6C544.658 56.4133 544.435 56.21 544.241 55.99C544.055 55.77 543.898 55.54 543.771 55.3V60.22H541.331ZM546.311 55.38C547.045 55.38 547.651 55.09 548.131 54.51C548.611 53.9233 548.851 53.0067 548.851 51.76C548.851 50.68 548.625 49.83 548.171 49.21C547.725 48.5833 547.105 48.27 546.311 48.27C545.458 48.27 544.818 48.6 544.391 49.26C543.965 49.9133 543.751 50.7467 543.751 51.76C543.751 52.4133 543.845 53.0167 544.031 53.57C544.225 54.1167 544.508 54.5567 544.881 54.89C545.261 55.2167 545.738 55.38 546.311 55.38ZM557.933 60.22V46.66H560.363L560.383 48.29C560.516 48.0633 560.686 47.84 560.893 47.62C561.106 47.4 561.349 47.2033 561.623 47.03C561.903 46.8567 562.213 46.72 562.553 46.62C562.893 46.5133 563.266 46.46 563.673 46.46C564.466 46.46 565.169 46.65 565.783 47.03C566.396 47.4033 566.876 47.98 567.223 48.76C567.576 49.54 567.753 50.5267 567.753 51.72C567.753 52.94 567.573 53.9567 567.213 54.77C566.853 55.5833 566.349 56.1933 565.703 56.6C565.056 57 564.306 57.2 563.453 57.2C563.059 57.2 562.699 57.1467 562.373 57.04C562.053 56.9333 561.766 56.7867 561.513 56.6C561.259 56.4133 561.036 56.21 560.843 55.99C560.656 55.77 560.499 55.54 560.373 55.3V60.22H557.933ZM562.913 55.38C563.646 55.38 564.253 55.09 564.733 54.51C565.213 53.9233 565.453 53.0067 565.453 51.76C565.453 50.68 565.226 49.83 564.773 49.21C564.326 48.5833 563.706 48.27 562.913 48.27C562.059 48.27 561.419 48.6 560.993 49.26C560.566 49.9133 560.353 50.7467 560.353 51.76C560.353 52.4133 560.446 53.0167 560.633 53.57C560.826 54.1167 561.109 54.5567 561.483 54.89C561.863 55.2167 562.339 55.38 562.913 55.38ZM569.964 57V46.66H572.294V48.9C572.461 48.3867 572.697 47.95 573.004 47.59C573.317 47.2233 573.684 46.9433 574.104 46.75C574.524 46.5567 574.981 46.46 575.474 46.46C575.594 46.46 575.711 46.4667 575.824 46.48C575.937 46.4933 576.021 46.5167 576.074 46.55V48.88C576.001 48.8467 575.904 48.8233 575.784 48.81C575.671 48.7967 575.571 48.79 575.484 48.79C574.984 48.75 574.541 48.77 574.154 48.85C573.774 48.93 573.451 49.0667 573.184 49.26C572.924 49.4467 572.727 49.6867 572.594 49.98C572.461 50.2667 572.394 50.6033 572.394 50.99V57H569.964ZM582.273 57.2C581.286 57.2 580.426 56.99 579.693 56.57C578.959 56.1433 578.389 55.5333 577.983 54.74C577.583 53.9467 577.383 52.9933 577.383 51.88C577.383 50.8 577.579 49.8533 577.973 49.04C578.366 48.2267 578.926 47.5933 579.653 47.14C580.386 46.6867 581.263 46.46 582.283 46.46C583.269 46.46 584.126 46.6767 584.853 47.11C585.579 47.5433 586.139 48.1633 586.533 48.97C586.933 49.7767 587.133 50.7467 587.133 51.88C587.133 52.9267 586.943 53.85 586.563 54.65C586.189 55.4433 585.639 56.0667 584.913 56.52C584.193 56.9733 583.313 57.2 582.273 57.2ZM582.283 55.35C582.843 55.35 583.303 55.1967 583.663 54.89C584.029 54.5833 584.303 54.1633 584.483 53.63C584.663 53.0967 584.753 52.49 584.753 51.81C584.753 51.1767 584.673 50.5933 584.513 50.06C584.353 49.5267 584.089 49.1 583.723 48.78C583.363 48.4533 582.883 48.29 582.283 48.29C581.716 48.29 581.246 48.44 580.873 48.74C580.506 49.0333 580.233 49.4467 580.053 49.98C579.873 50.5067 579.783 51.1167 579.783 51.81C579.783 52.4367 579.863 53.02 580.023 53.56C580.183 54.0933 580.446 54.5267 580.813 54.86C581.179 55.1867 581.669 55.35 582.283 55.35ZM593.699 57.2C592.752 57.2 591.909 56.9933 591.169 56.58C590.435 56.16 589.859 55.5533 589.439 54.76C589.019 53.96 588.809 52.9967 588.809 51.87C588.809 50.7967 589.005 49.8567 589.399 49.05C589.799 48.2367 590.362 47.6033 591.089 47.15C591.822 46.69 592.692 46.46 593.699 46.46C594.505 46.46 595.215 46.62 595.829 46.94C596.442 47.26 596.932 47.7033 597.299 48.27C597.672 48.8367 597.895 49.48 597.969 50.2H595.899C595.845 49.8867 595.729 49.59 595.549 49.31C595.369 49.0233 595.125 48.7933 594.819 48.62C594.519 48.44 594.152 48.35 593.719 48.35C592.939 48.35 592.309 48.6367 591.829 49.21C591.349 49.7833 591.109 50.6633 591.109 51.85C591.109 52.9433 591.335 53.8133 591.789 54.46C592.249 55.1067 592.905 55.43 593.759 55.43C594.185 55.43 594.552 55.3367 594.859 55.15C595.165 54.9567 595.405 54.72 595.579 54.44C595.759 54.1533 595.872 53.8667 595.919 53.58H597.939C597.879 54.28 597.662 54.9033 597.289 55.45C596.915 55.9967 596.422 56.4267 595.809 56.74C595.195 57.0467 594.492 57.2 593.699 57.2ZM604.807 57.2C603.814 57.2 602.937 56.99 602.177 56.57C601.424 56.1433 600.834 55.5367 600.407 54.75C599.987 53.9633 599.777 53.0267 599.777 51.94C599.777 50.88 599.967 49.94 600.347 49.12C600.734 48.2933 601.291 47.6433 602.017 47.17C602.751 46.6967 603.634 46.46 604.667 46.46C605.687 46.46 606.544 46.6767 607.237 47.11C607.931 47.5433 608.457 48.15 608.817 48.93C609.177 49.7033 609.357 50.61 609.357 51.65V52.39H602.207C602.201 52.9767 602.294 53.4967 602.487 53.95C602.681 54.4033 602.967 54.76 603.347 55.02C603.727 55.2733 604.197 55.4 604.757 55.4C605.331 55.4 605.827 55.2733 606.247 55.02C606.674 54.76 606.957 54.3667 607.097 53.84H609.317C609.197 54.56 608.911 55.17 608.457 55.67C608.011 56.17 607.464 56.55 606.817 56.81C606.177 57.07 605.507 57.2 604.807 57.2ZM602.197 50.88H607.057C607.057 50.38 606.967 49.93 606.787 49.53C606.614 49.1233 606.351 48.8033 605.997 48.57C605.644 48.33 605.197 48.21 604.657 48.21C604.124 48.21 603.674 48.34 603.307 48.6C602.941 48.86 602.664 49.1967 602.477 49.61C602.291 50.0167 602.197 50.44 602.197 50.88ZM615.604 57.2C614.884 57.2 614.2 57.0867 613.554 56.86C612.914 56.6267 612.374 56.2633 611.934 55.77C611.5 55.2767 611.227 54.64 611.114 53.86H613.254C613.347 54.24 613.51 54.55 613.744 54.79C613.984 55.03 614.264 55.2067 614.584 55.32C614.91 55.4267 615.247 55.48 615.594 55.48C616.214 55.48 616.714 55.3733 617.094 55.16C617.474 54.9467 617.664 54.6167 617.664 54.17C617.664 53.8433 617.557 53.5833 617.344 53.39C617.137 53.1967 616.797 53.05 616.324 52.95L614.364 52.5C613.484 52.3067 612.78 51.9867 612.254 51.54C611.727 51.0933 611.46 50.4633 611.454 49.65C611.447 49.0367 611.6 48.49 611.914 48.01C612.227 47.53 612.694 47.1533 613.314 46.88C613.934 46.6 614.697 46.46 615.604 46.46C616.81 46.46 617.777 46.73 618.504 47.27C619.237 47.8033 619.614 48.5667 619.634 49.56H617.564C617.49 49.1133 617.28 48.7667 616.934 48.52C616.587 48.2667 616.137 48.14 615.584 48.14C615.01 48.14 614.54 48.25 614.174 48.47C613.807 48.69 613.624 49.0267 613.624 49.48C613.624 49.7933 613.76 50.04 614.034 50.22C614.314 50.4 614.737 50.5533 615.304 50.68L617.164 51.13C617.697 51.2633 618.134 51.4433 618.474 51.67C618.814 51.8967 619.077 52.1467 619.264 52.42C619.457 52.6867 619.59 52.9633 619.664 53.25C619.744 53.53 619.784 53.79 619.784 54.03C619.784 54.6967 619.61 55.2667 619.264 55.74C618.924 56.2067 618.44 56.5667 617.814 56.82C617.194 57.0733 616.457 57.2 615.604 57.2ZM625.897 57.2C625.177 57.2 624.493 57.0867 623.847 56.86C623.207 56.6267 622.667 56.2633 622.227 55.77C621.793 55.2767 621.52 54.64 621.407 53.86H623.547C623.64 54.24 623.803 54.55 624.037 54.79C624.277 55.03 624.557 55.2067 624.877 55.32C625.203 55.4267 625.54 55.48 625.887 55.48C626.507 55.48 627.007 55.3733 627.387 55.16C627.767 54.9467 627.957 54.6167 627.957 54.17C627.957 53.8433 627.85 53.5833 627.637 53.39C627.43 53.1967 627.09 53.05 626.617 52.95L624.657 52.5C623.777 52.3067 623.073 51.9867 622.547 51.54C622.02 51.0933 621.753 50.4633 621.747 49.65C621.74 49.0367 621.893 48.49 622.207 48.01C622.52 47.53 622.987 47.1533 623.607 46.88C624.227 46.6 624.99 46.46 625.897 46.46C627.103 46.46 628.07 46.73 628.797 47.27C629.53 47.8033 629.907 48.5667 629.927 49.56H627.857C627.783 49.1133 627.573 48.7667 627.227 48.52C626.88 48.2667 626.43 48.14 625.877 48.14C625.303 48.14 624.833 48.25 624.467 48.47C624.1 48.69 623.917 49.0267 623.917 49.48C623.917 49.7933 624.053 50.04 624.327 50.22C624.607 50.4 625.03 50.5533 625.597 50.68L627.457 51.13C627.99 51.2633 628.427 51.4433 628.767 51.67C629.107 51.8967 629.37 52.1467 629.557 52.42C629.75 52.6867 629.883 52.9633 629.957 53.25C630.037 53.53 630.077 53.79 630.077 54.03C630.077 54.6967 629.903 55.2667 629.557 55.74C629.217 56.2067 628.733 56.5667 628.107 56.82C627.487 57.0733 626.75 57.2 625.897 57.2Z" fill="white"/>
<path d="M459.519 85.2C458.979 85.1933 458.469 85.1167 457.989 84.97C457.516 84.8167 457.096 84.5933 456.729 84.3C456.363 84.0067 456.073 83.6433 455.859 83.21C455.653 82.77 455.549 82.26 455.549 81.68V74.66H457.399V81.49C457.399 82.1633 457.606 82.71 458.019 83.13C458.439 83.55 459.069 83.76 459.909 83.76C460.669 83.76 461.279 83.5633 461.739 83.17C462.206 82.77 462.439 82.1767 462.439 81.39V74.66H464.279V85H462.809L462.619 83.02C462.493 83.54 462.276 83.96 461.969 84.28C461.669 84.6 461.306 84.8367 460.879 84.99C460.459 85.1367 460.006 85.2067 459.519 85.2ZM467.438 88.22V74.66H469.278L469.298 76.46C469.418 76.2467 469.572 76.0233 469.758 75.79C469.952 75.5567 470.185 75.34 470.458 75.14C470.738 74.94 471.062 74.7767 471.428 74.65C471.802 74.5233 472.225 74.46 472.698 74.46C473.525 74.46 474.252 74.65 474.878 75.03C475.512 75.4033 476.005 75.9767 476.358 76.75C476.712 77.5233 476.888 78.5033 476.888 79.69C476.888 80.8767 476.715 81.88 476.368 82.7C476.028 83.5133 475.535 84.1333 474.888 84.56C474.242 84.9867 473.462 85.2 472.548 85.2C472.088 85.2 471.678 85.1333 471.318 85C470.965 84.8733 470.655 84.7067 470.388 84.5C470.128 84.2867 469.908 84.06 469.728 83.82C469.555 83.58 469.412 83.35 469.298 83.13V88.22H467.438ZM472.198 83.76C473.052 83.76 473.748 83.4367 474.288 82.79C474.828 82.1367 475.098 81.1233 475.098 79.75C475.098 78.57 474.852 77.6333 474.358 76.94C473.865 76.2467 473.145 75.9 472.198 75.9C471.238 75.9 470.512 76.2567 470.018 76.97C469.525 77.6767 469.278 78.6033 469.278 79.75C469.278 80.49 469.388 81.1633 469.608 81.77C469.828 82.3767 470.155 82.86 470.588 83.22C471.022 83.58 471.558 83.76 472.198 83.76ZM481.962 85.13C481.402 85.13 480.949 85.0533 480.602 84.9C480.262 84.7467 479.999 84.54 479.812 84.28C479.632 84.02 479.509 83.7233 479.442 83.39C479.382 83.05 479.352 82.7 479.352 82.34V70.14H481.172V82.16C481.172 82.68 481.272 83.07 481.472 83.33C481.679 83.59 481.966 83.7333 482.332 83.76L482.892 83.77V84.97C482.739 85.0167 482.579 85.0533 482.412 85.08C482.246 85.1133 482.096 85.13 481.962 85.13ZM489.059 85.2C488.105 85.2 487.272 84.9967 486.559 84.59C485.852 84.1767 485.302 83.5733 484.909 82.78C484.515 81.9867 484.319 81.0167 484.319 79.87C484.319 78.79 484.502 77.8433 484.869 77.03C485.235 76.2167 485.772 75.5867 486.479 75.14C487.185 74.6867 488.049 74.46 489.069 74.46C490.022 74.46 490.849 74.67 491.549 75.09C492.249 75.5033 492.792 76.1133 493.179 76.92C493.572 77.7267 493.769 78.71 493.769 79.87C493.769 80.9233 493.589 81.85 493.229 82.65C492.869 83.45 492.339 84.0767 491.639 84.53C490.945 84.9767 490.085 85.2 489.059 85.2ZM489.069 83.74C489.682 83.74 490.202 83.5833 490.629 83.27C491.055 82.9567 491.379 82.5067 491.599 81.92C491.825 81.3333 491.939 80.6367 491.939 79.83C491.939 79.09 491.839 78.4267 491.639 77.84C491.445 77.2467 491.139 76.7767 490.719 76.43C490.299 76.0833 489.749 75.91 489.069 75.91C488.442 75.91 487.912 76.0667 487.479 76.38C487.045 76.6867 486.715 77.1333 486.489 77.72C486.269 78.3067 486.159 79.01 486.159 79.83C486.159 80.5567 486.255 81.2167 486.449 81.81C486.649 82.4033 486.962 82.8733 487.389 83.22C487.822 83.5667 488.382 83.74 489.069 83.74ZM499.01 85.2C498.337 85.2 497.743 85.0833 497.23 84.85C496.723 84.61 496.323 84.2667 496.03 83.82C495.743 83.3733 495.6 82.8333 495.6 82.2C495.6 81.0533 496 80.2 496.8 79.64C497.6 79.08 498.883 78.78 500.65 78.74L502.49 78.69V77.88C502.49 77.2467 502.3 76.7467 501.92 76.38C501.54 76.0067 500.953 75.82 500.16 75.82C499.567 75.8267 499.043 75.9667 498.59 76.24C498.137 76.5133 497.847 76.96 497.72 77.58H496.09C496.13 76.9067 496.317 76.34 496.65 75.88C496.99 75.4133 497.467 75.06 498.08 74.82C498.693 74.58 499.417 74.46 500.25 74.46C501.15 74.46 501.897 74.5867 502.49 74.84C503.09 75.0933 503.537 75.4667 503.83 75.96C504.13 76.4533 504.28 77.06 504.28 77.78V85H502.7L502.56 83.06C502.167 83.8667 501.66 84.4267 501.04 84.74C500.427 85.0467 499.75 85.2 499.01 85.2ZM499.56 83.87C499.913 83.87 500.26 83.8067 500.6 83.68C500.947 83.5533 501.26 83.3833 501.54 83.17C501.827 82.95 502.057 82.7067 502.23 82.44C502.403 82.1667 502.49 81.8867 502.49 81.6V79.83L500.96 79.86C500.167 79.8733 499.507 79.9533 498.98 80.1C498.453 80.2467 498.057 80.4767 497.79 80.79C497.523 81.1033 497.39 81.5133 497.39 82.02C497.39 82.6 497.593 83.0533 498 83.38C498.407 83.7067 498.927 83.87 499.56 83.87ZM510.935 85.2C509.588 85.2 508.521 84.74 507.735 83.82C506.955 82.9 506.565 81.5567 506.565 79.79C506.565 78.7167 506.721 77.78 507.035 76.98C507.348 76.18 507.818 75.56 508.445 75.12C509.071 74.68 509.851 74.46 510.785 74.46C511.285 74.46 511.725 74.5233 512.105 74.65C512.485 74.7767 512.815 74.9367 513.095 75.13C513.375 75.3233 513.601 75.5233 513.775 75.73C513.955 75.9367 514.088 76.1267 514.175 76.3V70.14H516.045V85H514.625L514.425 82.88C514.358 83.08 514.251 83.3133 514.105 83.58C513.958 83.84 513.751 84.0967 513.485 84.35C513.225 84.5967 512.885 84.8 512.465 84.96C512.045 85.12 511.535 85.2 510.935 85.2ZM511.265 83.78C512.305 83.78 513.048 83.4633 513.495 82.83C513.948 82.19 514.175 81.1467 514.175 79.7C514.168 78.8933 514.068 78.2067 513.875 77.64C513.681 77.0733 513.375 76.6433 512.955 76.35C512.541 76.05 511.988 75.9 511.295 75.9C510.448 75.9 509.758 76.2033 509.225 76.81C508.691 77.4167 508.425 78.38 508.425 79.7C508.425 80.9933 508.665 81.9967 509.145 82.71C509.625 83.4233 510.331 83.78 511.265 83.78ZM522.818 85.2C522.098 85.2 521.428 85.09 520.808 84.87C520.195 84.6433 519.685 84.2933 519.278 83.82C518.872 83.34 518.618 82.73 518.518 81.99H520.198C520.285 82.3967 520.452 82.7367 520.698 83.01C520.945 83.2767 521.248 83.48 521.608 83.62C521.975 83.7533 522.375 83.82 522.808 83.82C523.508 83.82 524.072 83.69 524.498 83.43C524.925 83.17 525.138 82.77 525.138 82.23C525.138 81.85 525.025 81.5467 524.798 81.32C524.578 81.0867 524.232 80.9167 523.758 80.81L521.618 80.28C520.785 80.08 520.118 79.7667 519.618 79.34C519.125 78.9133 518.875 78.3167 518.868 77.55C518.868 76.9433 519.015 76.41 519.308 75.95C519.602 75.49 520.038 75.1267 520.618 74.86C521.205 74.5933 521.935 74.46 522.808 74.46C523.935 74.46 524.842 74.7133 525.528 75.22C526.215 75.72 526.575 76.4567 526.608 77.43H524.968C524.902 76.9367 524.682 76.5467 524.308 76.26C523.935 75.9667 523.428 75.82 522.788 75.82C522.135 75.82 521.598 75.9533 521.178 76.22C520.765 76.48 520.558 76.8867 520.558 77.44C520.558 77.8067 520.705 78.0967 520.998 78.31C521.298 78.5167 521.732 78.69 522.298 78.83L524.378 79.35C524.852 79.4767 525.245 79.6433 525.558 79.85C525.872 80.0567 526.118 80.2867 526.298 80.54C526.478 80.7933 526.605 81.06 526.678 81.34C526.758 81.6133 526.798 81.8767 526.798 82.13C526.798 82.7633 526.642 83.31 526.328 83.77C526.015 84.2233 525.562 84.5767 524.968 84.83C524.375 85.0767 523.658 85.2 522.818 85.2ZM539.111 85.2C538.504 85.2 537.991 85.12 537.571 84.96C537.157 84.8 536.817 84.5967 536.551 84.35C536.284 84.0967 536.077 83.84 535.931 83.58C535.784 83.3133 535.677 83.08 535.611 82.88L535.411 85H534.001V70.14H535.861V76.3C535.947 76.1267 536.077 75.9367 536.251 75.73C536.431 75.5233 536.661 75.3233 536.941 75.13C537.221 74.9367 537.551 74.7767 537.931 74.65C538.317 74.5233 538.757 74.46 539.251 74.46C540.544 74.46 541.571 74.91 542.331 75.81C543.097 76.71 543.481 78.0367 543.481 79.79C543.481 80.8767 543.317 81.8267 542.991 82.64C542.664 83.4467 542.177 84.0767 541.531 84.53C540.884 84.9767 540.077 85.2 539.111 85.2ZM538.781 83.78C539.621 83.78 540.304 83.4567 540.831 82.81C541.357 82.1567 541.621 81.12 541.621 79.7C541.621 78.4933 541.374 77.56 540.881 76.9C540.394 76.2333 539.681 75.9 538.741 75.9C538.054 75.9 537.501 76.05 537.081 76.35C536.667 76.6433 536.361 77.0733 536.161 77.64C535.967 78.2067 535.867 78.8933 535.861 79.7C535.861 81.1467 536.084 82.19 536.531 82.83C536.984 83.4633 537.734 83.78 538.781 83.78ZM548.717 85.2C548.044 85.2 547.45 85.0833 546.937 84.85C546.43 84.61 546.03 84.2667 545.737 83.82C545.45 83.3733 545.307 82.8333 545.307 82.2C545.307 81.0533 545.707 80.2 546.507 79.64C547.307 79.08 548.59 78.78 550.357 78.74L552.197 78.69V77.88C552.197 77.2467 552.007 76.7467 551.627 76.38C551.247 76.0067 550.66 75.82 549.867 75.82C549.274 75.8267 548.75 75.9667 548.297 76.24C547.844 76.5133 547.554 76.96 547.427 77.58H545.797C545.837 76.9067 546.024 76.34 546.357 75.88C546.697 75.4133 547.174 75.06 547.787 74.82C548.4 74.58 549.124 74.46 549.957 74.46C550.857 74.46 551.604 74.5867 552.197 74.84C552.797 75.0933 553.244 75.4667 553.537 75.96C553.837 76.4533 553.987 77.06 553.987 77.78V85H552.407L552.267 83.06C551.874 83.8667 551.367 84.4267 550.747 84.74C550.134 85.0467 549.457 85.2 548.717 85.2ZM549.267 83.87C549.62 83.87 549.967 83.8067 550.307 83.68C550.654 83.5533 550.967 83.3833 551.247 83.17C551.534 82.95 551.764 82.7067 551.937 82.44C552.11 82.1667 552.197 81.8867 552.197 81.6V79.83L550.667 79.86C549.874 79.8733 549.214 79.9533 548.687 80.1C548.16 80.2467 547.764 80.4767 547.497 80.79C547.23 81.1033 547.097 81.5133 547.097 82.02C547.097 82.6 547.3 83.0533 547.707 83.38C548.114 83.7067 548.634 83.87 549.267 83.87ZM561.032 85.2C560.098 85.2 559.272 84.9967 558.552 84.59C557.838 84.1833 557.278 83.5833 556.872 82.79C556.472 81.9967 556.272 81.0233 556.272 79.87C556.272 78.79 556.455 77.8467 556.822 77.04C557.195 76.2267 557.735 75.5933 558.442 75.14C559.155 74.6867 560.018 74.46 561.032 74.46C561.772 74.46 562.435 74.6033 563.022 74.89C563.615 75.17 564.102 75.57 564.482 76.09C564.862 76.61 565.095 77.2233 565.182 77.93H563.542C563.482 77.57 563.342 77.24 563.122 76.94C562.908 76.64 562.625 76.4 562.272 76.22C561.925 76.04 561.515 75.95 561.042 75.95C560.155 75.95 559.432 76.27 558.872 76.91C558.318 77.55 558.042 78.53 558.042 79.85C558.042 81.0433 558.295 82 558.802 82.72C559.315 83.4333 560.068 83.79 561.062 83.79C561.535 83.79 561.948 83.7 562.302 83.52C562.655 83.3333 562.938 83.09 563.152 82.79C563.365 82.4833 563.502 82.1567 563.562 81.81H565.172C565.085 82.5033 564.848 83.1033 564.462 83.61C564.082 84.1167 563.595 84.51 563.002 84.79C562.415 85.0633 561.758 85.2 561.032 85.2ZM567.634 85V70.14H569.474V79.83L574.334 74.66H576.454L572.724 78.6L576.714 85H574.754L571.514 79.81L569.474 81.92V85H567.634ZM582.449 85.2C581.909 85.1933 581.399 85.1167 580.919 84.97C580.446 84.8167 580.026 84.5933 579.659 84.3C579.292 84.0067 579.002 83.6433 578.789 83.21C578.582 82.77 578.479 82.26 578.479 81.68V74.66H580.329V81.49C580.329 82.1633 580.536 82.71 580.949 83.13C581.369 83.55 581.999 83.76 582.839 83.76C583.599 83.76 584.209 83.5633 584.669 83.17C585.136 82.77 585.369 82.1767 585.369 81.39V74.66H587.209V85H585.739L585.549 83.02C585.422 83.54 585.206 83.96 584.899 84.28C584.599 84.6 584.236 84.8367 583.809 84.99C583.389 85.1367 582.936 85.2067 582.449 85.2ZM590.368 88.22V74.66H592.208L592.228 76.46C592.348 76.2467 592.501 76.0233 592.688 75.79C592.881 75.5567 593.115 75.34 593.388 75.14C593.668 74.94 593.991 74.7767 594.358 74.65C594.731 74.5233 595.155 74.46 595.628 74.46C596.455 74.46 597.181 74.65 597.808 75.03C598.441 75.4033 598.935 75.9767 599.288 76.75C599.641 77.5233 599.818 78.5033 599.818 79.69C599.818 80.8767 599.645 81.88 599.298 82.7C598.958 83.5133 598.465 84.1333 597.818 84.56C597.171 84.9867 596.391 85.2 595.478 85.2C595.018 85.2 594.608 85.1333 594.248 85C593.895 84.8733 593.585 84.7067 593.318 84.5C593.058 84.2867 592.838 84.06 592.658 83.82C592.485 83.58 592.341 83.35 592.228 83.13V88.22H590.368ZM595.128 83.76C595.981 83.76 596.678 83.4367 597.218 82.79C597.758 82.1367 598.028 81.1233 598.028 79.75C598.028 78.57 597.781 77.6333 597.288 76.94C596.795 76.2467 596.075 75.9 595.128 75.9C594.168 75.9 593.441 76.2567 592.948 76.97C592.455 77.6767 592.208 78.6033 592.208 79.75C592.208 80.49 592.318 81.1633 592.538 81.77C592.758 82.3767 593.085 82.86 593.518 83.22C593.951 83.58 594.488 83.76 595.128 83.76ZM605.943 85.2C605.223 85.2 604.553 85.09 603.933 84.87C603.32 84.6433 602.81 84.2933 602.403 83.82C601.997 83.34 601.743 82.73 601.643 81.99H603.323C603.41 82.3967 603.577 82.7367 603.823 83.01C604.07 83.2767 604.373 83.48 604.733 83.62C605.1 83.7533 605.5 83.82 605.933 83.82C606.633 83.82 607.197 83.69 607.623 83.43C608.05 83.17 608.263 82.77 608.263 82.23C608.263 81.85 608.15 81.5467 607.923 81.32C607.703 81.0867 607.357 80.9167 606.883 80.81L604.743 80.28C603.91 80.08 603.243 79.7667 602.743 79.34C602.25 78.9133 602 78.3167 601.993 77.55C601.993 76.9433 602.14 76.41 602.433 75.95C602.727 75.49 603.163 75.1267 603.743 74.86C604.33 74.5933 605.06 74.46 605.933 74.46C607.06 74.46 607.967 74.7133 608.653 75.22C609.34 75.72 609.7 76.4567 609.733 77.43H608.093C608.027 76.9367 607.807 76.5467 607.433 76.26C607.06 75.9667 606.553 75.82 605.913 75.82C605.26 75.82 604.723 75.9533 604.303 76.22C603.89 76.48 603.683 76.8867 603.683 77.44C603.683 77.8067 603.83 78.0967 604.123 78.31C604.423 78.5167 604.857 78.69 605.423 78.83L607.503 79.35C607.977 79.4767 608.37 79.6433 608.683 79.85C608.997 80.0567 609.243 80.2867 609.423 80.54C609.603 80.7933 609.73 81.06 609.803 81.34C609.883 81.6133 609.923 81.8767 609.923 82.13C609.923 82.7633 609.767 83.31 609.453 83.77C609.14 84.2233 608.687 84.5767 608.093 84.83C607.5 85.0767 606.783 85.2 605.943 85.2Z" fill="white"/>
<path d="M1152 64C1152 28.6538 1180.65 0 1216 0H1262C1297.35 0 1326 28.6538 1326 64C1326 99.3462 1297.35 128 1262 128H1216C1180.65 128 1152 99.3462 1152 64Z" fill="#014063"/>
<path d="M1205.61 57V42.54H1211.48C1212.59 42.54 1213.5 42.7133 1214.21 43.06C1214.93 43.4 1215.47 43.8833 1215.81 44.51C1216.16 45.13 1216.33 45.8567 1216.33 46.69C1216.33 47.4633 1216.21 48.1133 1215.95 48.64C1215.7 49.16 1215.37 49.5867 1214.96 49.92C1214.56 50.2467 1214.13 50.5133 1213.67 50.72L1216.43 57H1213.89L1211.4 51.13H1208.04V57H1205.61ZM1208.04 49.2H1210.93C1211.85 49.2 1212.57 48.9867 1213.08 48.56C1213.6 48.1333 1213.86 47.54 1213.86 46.78C1213.86 46.0333 1213.62 45.4567 1213.14 45.05C1212.66 44.6433 1212.03 44.44 1211.24 44.44H1208.04V49.2ZM1223.19 57.2C1222.2 57.2 1221.32 56.99 1220.56 56.57C1219.81 56.1433 1219.22 55.5367 1218.79 54.75C1218.37 53.9633 1218.16 53.0267 1218.16 51.94C1218.16 50.88 1218.35 49.94 1218.73 49.12C1219.12 48.2933 1219.68 47.6433 1220.4 47.17C1221.14 46.6967 1222.02 46.46 1223.05 46.46C1224.07 46.46 1224.93 46.6767 1225.62 47.11C1226.32 47.5433 1226.84 48.15 1227.2 48.93C1227.56 49.7033 1227.74 50.61 1227.74 51.65V52.39H1220.59C1220.59 52.9767 1220.68 53.4967 1220.87 53.95C1221.07 54.4033 1221.35 54.76 1221.73 55.02C1222.11 55.2733 1222.58 55.4 1223.14 55.4C1223.72 55.4 1224.21 55.2733 1224.63 55.02C1225.06 54.76 1225.34 54.3667 1225.48 53.84H1227.7C1227.58 54.56 1227.3 55.17 1226.84 55.67C1226.4 56.17 1225.85 56.55 1225.2 56.81C1224.56 57.07 1223.89 57.2 1223.19 57.2ZM1220.58 50.88H1225.44C1225.44 50.38 1225.35 49.93 1225.17 49.53C1225 49.1233 1224.74 48.8033 1224.38 48.57C1224.03 48.33 1223.58 48.21 1223.04 48.21C1222.51 48.21 1222.06 48.34 1221.69 48.6C1221.33 48.86 1221.05 49.1967 1220.86 49.61C1220.68 50.0167 1220.58 50.44 1220.58 50.88ZM1230.07 60.22V46.66H1232.5L1232.52 48.29C1232.65 48.0633 1232.82 47.84 1233.03 47.62C1233.24 47.4 1233.48 47.2033 1233.76 47.03C1234.04 46.8567 1234.35 46.72 1234.69 46.62C1235.03 46.5133 1235.4 46.46 1235.81 46.46C1236.6 46.46 1237.3 46.65 1237.92 47.03C1238.53 47.4033 1239.01 47.98 1239.36 48.76C1239.71 49.54 1239.89 50.5267 1239.89 51.72C1239.89 52.94 1239.71 53.9567 1239.35 54.77C1238.99 55.5833 1238.48 56.1933 1237.84 56.6C1237.19 57 1236.44 57.2 1235.59 57.2C1235.19 57.2 1234.83 57.1467 1234.51 57.04C1234.19 56.9333 1233.9 56.7867 1233.65 56.6C1233.39 56.4133 1233.17 56.21 1232.98 55.99C1232.79 55.77 1232.63 55.54 1232.51 55.3V60.22H1230.07ZM1235.05 55.38C1235.78 55.38 1236.39 55.09 1236.87 54.51C1237.35 53.9233 1237.59 53.0067 1237.59 51.76C1237.59 50.68 1237.36 49.83 1236.91 49.21C1236.46 48.5833 1235.84 48.27 1235.05 48.27C1234.19 48.27 1233.55 48.6 1233.13 49.26C1232.7 49.9133 1232.49 50.7467 1232.49 51.76C1232.49 52.4133 1232.58 53.0167 1232.77 53.57C1232.96 54.1167 1233.24 54.5567 1233.62 54.89C1234 55.2167 1234.47 55.38 1235.05 55.38ZM1245.08 57.15C1244.41 57.15 1243.88 57.0667 1243.48 56.9C1243.08 56.7333 1242.78 56.51 1242.58 56.23C1242.38 55.95 1242.25 55.6367 1242.19 55.29C1242.13 54.9367 1242.1 54.5767 1242.1 54.21V42.14H1244.48V53.93C1244.48 54.3767 1244.57 54.7233 1244.75 54.97C1244.94 55.2167 1245.24 55.36 1245.65 55.4L1246.17 55.42V56.95C1245.99 57.0033 1245.81 57.05 1245.62 57.09C1245.43 57.13 1245.25 57.15 1245.08 57.15ZM1248.39 57V46.66H1250.72V57H1248.39ZM1248.35 44.85V42.55H1250.76V44.85H1248.35ZM1257.85 57.2C1256.9 57.2 1256.06 56.9933 1255.32 56.58C1254.58 56.16 1254.01 55.5533 1253.59 54.76C1253.17 53.96 1252.96 52.9967 1252.96 51.87C1252.96 50.7967 1253.15 49.8567 1253.55 49.05C1253.95 48.2367 1254.51 47.6033 1255.24 47.15C1255.97 46.69 1256.84 46.46 1257.85 46.46C1258.65 46.46 1259.36 46.62 1259.98 46.94C1260.59 47.26 1261.08 47.7033 1261.45 48.27C1261.82 48.8367 1262.04 49.48 1262.12 50.2H1260.05C1259.99 49.8867 1259.88 49.59 1259.7 49.31C1259.52 49.0233 1259.27 48.7933 1258.97 48.62C1258.67 48.44 1258.3 48.35 1257.87 48.35C1257.09 48.35 1256.46 48.6367 1255.98 49.21C1255.5 49.7833 1255.26 50.6633 1255.26 51.85C1255.26 52.9433 1255.48 53.8133 1255.94 54.46C1256.4 55.1067 1257.05 55.43 1257.91 55.43C1258.33 55.43 1258.7 55.3367 1259.01 55.15C1259.31 54.9567 1259.55 54.72 1259.73 54.44C1259.91 54.1533 1260.02 53.8667 1260.07 53.58H1262.09C1262.03 54.28 1261.81 54.9033 1261.44 55.45C1261.06 55.9967 1260.57 56.4267 1259.96 56.74C1259.34 57.0467 1258.64 57.2 1257.85 57.2ZM1267.32 57.2C1266.66 57.2 1266.06 57.08 1265.54 56.84C1265.02 56.5933 1264.61 56.2433 1264.31 55.79C1264.01 55.33 1263.87 54.7733 1263.87 54.12C1263.87 52.98 1264.28 52.12 1265.1 51.54C1265.92 50.96 1267.24 50.6567 1269.04 50.63L1270.59 50.59V49.89C1270.59 49.3433 1270.42 48.9167 1270.1 48.61C1269.78 48.2967 1269.28 48.1433 1268.6 48.15C1268.09 48.1567 1267.63 48.2767 1267.22 48.51C1266.8 48.7367 1266.53 49.12 1266.4 49.66H1264.33C1264.37 48.9533 1264.57 48.3633 1264.94 47.89C1265.31 47.41 1265.82 47.0533 1266.47 46.82C1267.11 46.58 1267.86 46.46 1268.71 46.46C1269.69 46.46 1270.5 46.59 1271.12 46.85C1271.74 47.11 1272.19 47.4867 1272.49 47.98C1272.78 48.4667 1272.93 49.0567 1272.93 49.75V57H1270.88L1270.68 55.14C1270.31 55.92 1269.84 56.46 1269.27 56.76C1268.7 57.0533 1268.05 57.2 1267.32 57.2ZM1268.11 55.55C1268.41 55.55 1268.7 55.4967 1269 55.39C1269.29 55.2767 1269.55 55.1267 1269.79 54.94C1270.03 54.7467 1270.22 54.5333 1270.36 54.3C1270.5 54.0667 1270.58 53.8233 1270.59 53.57V51.94L1269.32 51.96C1268.69 51.9667 1268.14 52.0333 1267.67 52.16C1267.2 52.2867 1266.84 52.49 1266.58 52.77C1266.32 53.0433 1266.19 53.41 1266.19 53.87C1266.19 54.3967 1266.37 54.81 1266.74 55.11C1267.1 55.4033 1267.56 55.55 1268.11 55.55Z" fill="white"/>
<path d="M1210.27 85.2C1209.55 85.2 1208.88 85.09 1208.26 84.87C1207.64 84.6433 1207.13 84.2933 1206.73 83.82C1206.32 83.34 1206.07 82.73 1205.97 81.99H1207.65C1207.73 82.3967 1207.9 82.7367 1208.15 83.01C1208.39 83.2767 1208.7 83.48 1209.06 83.62C1209.42 83.7533 1209.82 83.82 1210.26 83.82C1210.96 83.82 1211.52 83.69 1211.95 83.43C1212.37 83.17 1212.59 82.77 1212.59 82.23C1212.59 81.85 1212.47 81.5467 1212.25 81.32C1212.03 81.0867 1211.68 80.9167 1211.21 80.81L1209.07 80.28C1208.23 80.08 1207.57 79.7667 1207.07 79.34C1206.57 78.9133 1206.32 78.3167 1206.32 77.55C1206.32 76.9433 1206.46 76.41 1206.76 75.95C1207.05 75.49 1207.49 75.1267 1208.07 74.86C1208.65 74.5933 1209.38 74.46 1210.26 74.46C1211.38 74.46 1212.29 74.7133 1212.98 75.22C1213.66 75.72 1214.02 76.4567 1214.06 77.43H1212.42C1212.35 76.9367 1212.13 76.5467 1211.76 76.26C1211.38 75.9667 1210.88 75.82 1210.24 75.82C1209.58 75.82 1209.05 75.9533 1208.63 76.22C1208.21 76.48 1208.01 76.8867 1208.01 77.44C1208.01 77.8067 1208.15 78.0967 1208.45 78.31C1208.75 78.5167 1209.18 78.69 1209.75 78.83L1211.83 79.35C1212.3 79.4767 1212.69 79.6433 1213.01 79.85C1213.32 80.0567 1213.57 80.2867 1213.75 80.54C1213.93 80.7933 1214.05 81.06 1214.13 81.34C1214.21 81.6133 1214.25 81.8767 1214.25 82.13C1214.25 82.7633 1214.09 83.31 1213.78 83.77C1213.46 84.2233 1213.01 84.5767 1212.42 84.83C1211.82 85.0767 1211.11 85.2 1210.27 85.2ZM1221.03 85.2C1220.07 85.2 1219.23 84.99 1218.49 84.57C1217.76 84.15 1217.19 83.5467 1216.77 82.76C1216.36 81.9733 1216.15 81.03 1216.15 79.93C1216.15 78.8433 1216.34 77.89 1216.71 77.07C1217.09 76.25 1217.63 75.61 1218.33 75.15C1219.05 74.69 1219.9 74.46 1220.9 74.46C1221.88 74.46 1222.7 74.67 1223.37 75.09C1224.05 75.51 1224.56 76.1033 1224.9 76.87C1225.26 77.63 1225.43 78.5333 1225.43 79.58V80.26H1218.02C1218.02 80.9133 1218.13 81.5067 1218.34 82.04C1218.56 82.5667 1218.89 82.9867 1219.33 83.3C1219.77 83.6133 1220.33 83.77 1221 83.77C1221.66 83.77 1222.23 83.6167 1222.7 83.31C1223.18 83.0033 1223.49 82.56 1223.62 81.98H1225.36C1225.24 82.68 1224.96 83.27 1224.52 83.75C1224.09 84.23 1223.57 84.5933 1222.95 84.84C1222.35 85.08 1221.71 85.2 1221.03 85.2ZM1218.03 79.01H1223.65C1223.65 78.4167 1223.55 77.8833 1223.35 77.41C1223.15 76.93 1222.85 76.5533 1222.43 76.28C1222.03 76 1221.51 75.86 1220.89 75.86C1220.25 75.86 1219.71 76.0167 1219.28 76.33C1218.86 76.6367 1218.54 77.0333 1218.33 77.52C1218.13 78 1218.03 78.4967 1218.03 79.01ZM1232.36 85.2C1231.4 85.2 1230.55 84.99 1229.82 84.57C1229.09 84.15 1228.51 83.5467 1228.1 82.76C1227.69 81.9733 1227.48 81.03 1227.48 79.93C1227.48 78.8433 1227.67 77.89 1228.04 77.07C1228.41 76.25 1228.95 75.61 1229.66 75.15C1230.37 74.69 1231.23 74.46 1232.23 74.46C1233.2 74.46 1234.03 74.67 1234.7 75.09C1235.37 75.51 1235.88 76.1033 1236.23 76.87C1236.58 77.63 1236.76 78.5333 1236.76 79.58V80.26H1229.35C1229.35 80.9133 1229.46 81.5067 1229.67 82.04C1229.89 82.5667 1230.22 82.9867 1230.66 83.3C1231.1 83.6133 1231.66 83.77 1232.33 83.77C1232.99 83.77 1233.56 83.6167 1234.03 83.31C1234.51 83.0033 1234.82 82.56 1234.95 81.98H1236.69C1236.57 82.68 1236.29 83.27 1235.85 83.75C1235.42 84.23 1234.89 84.5933 1234.28 84.84C1233.67 85.08 1233.03 85.2 1232.36 85.2ZM1229.36 79.01H1234.98C1234.98 78.4167 1234.88 77.8833 1234.68 77.41C1234.48 76.93 1234.17 76.5533 1233.76 76.28C1233.35 76 1232.84 75.86 1232.22 75.86C1231.57 75.86 1231.04 76.0167 1230.61 76.33C1230.18 76.6367 1229.87 77.0333 1229.66 77.52C1229.45 78 1229.35 78.4967 1229.36 79.01ZM1243.09 85.2C1241.74 85.2 1240.68 84.74 1239.89 83.82C1239.11 82.9 1238.72 81.5567 1238.72 79.79C1238.72 78.7167 1238.88 77.78 1239.19 76.98C1239.5 76.18 1239.97 75.56 1240.6 75.12C1241.23 74.68 1242.01 74.46 1242.94 74.46C1243.44 74.46 1243.88 74.5233 1244.26 74.65C1244.64 74.7767 1244.97 74.9367 1245.25 75.13C1245.53 75.3233 1245.76 75.5233 1245.93 75.73C1246.11 75.9367 1246.24 76.1267 1246.33 76.3V70.14H1248.2V85H1246.78L1246.58 82.88C1246.51 83.08 1246.41 83.3133 1246.26 83.58C1246.11 83.84 1245.91 84.0967 1245.64 84.35C1245.38 84.5967 1245.04 84.8 1244.62 84.96C1244.2 85.12 1243.69 85.2 1243.09 85.2ZM1243.42 83.78C1244.46 83.78 1245.2 83.4633 1245.65 82.83C1246.1 82.19 1246.33 81.1467 1246.33 79.7C1246.32 78.8933 1246.22 78.2067 1246.03 77.64C1245.84 77.0733 1245.53 76.6433 1245.11 76.35C1244.7 76.05 1244.14 75.9 1243.45 75.9C1242.6 75.9 1241.91 76.2033 1241.38 76.81C1240.85 77.4167 1240.58 78.38 1240.58 79.7C1240.58 80.9933 1240.82 81.9967 1241.3 82.71C1241.78 83.4233 1242.49 83.78 1243.42 83.78ZM1255.62 85.2C1254.66 85.2 1253.82 84.99 1253.08 84.57C1252.35 84.15 1251.78 83.5467 1251.36 82.76C1250.95 81.9733 1250.74 81.03 1250.74 79.93C1250.74 78.8433 1250.93 77.89 1251.3 77.07C1251.68 76.25 1252.22 75.61 1252.92 75.15C1253.64 74.69 1254.49 74.46 1255.49 74.46C1256.47 74.46 1257.29 74.67 1257.96 75.09C1258.64 75.51 1259.15 76.1033 1259.49 76.87C1259.85 77.63 1260.02 78.5333 1260.02 79.58V80.26H1252.61C1252.61 80.9133 1252.72 81.5067 1252.93 82.04C1253.15 82.5667 1253.48 82.9867 1253.92 83.3C1254.36 83.6133 1254.92 83.77 1255.59 83.77C1256.25 83.77 1256.82 83.6167 1257.29 83.31C1257.77 83.0033 1258.08 82.56 1258.21 81.98H1259.95C1259.83 82.68 1259.55 83.27 1259.11 83.75C1258.68 84.23 1258.16 84.5933 1257.54 84.84C1256.94 85.08 1256.3 85.2 1255.62 85.2ZM1252.62 79.01H1258.24C1258.24 78.4167 1258.14 77.8833 1257.94 77.41C1257.74 76.93 1257.44 76.5533 1257.02 76.28C1256.62 76 1256.1 75.86 1255.48 75.86C1254.84 75.86 1254.3 76.0167 1253.87 76.33C1253.45 76.6367 1253.13 77.0333 1252.92 77.52C1252.72 78 1252.62 78.4967 1252.62 79.01ZM1266.35 85.2C1265 85.2 1263.94 84.74 1263.15 83.82C1262.37 82.9 1261.98 81.5567 1261.98 79.79C1261.98 78.7167 1262.14 77.78 1262.45 76.98C1262.76 76.18 1263.23 75.56 1263.86 75.12C1264.49 74.68 1265.27 74.46 1266.2 74.46C1266.7 74.46 1267.14 74.5233 1267.52 74.65C1267.9 74.7767 1268.23 74.9367 1268.51 75.13C1268.79 75.3233 1269.02 75.5233 1269.19 75.73C1269.37 75.9367 1269.5 76.1267 1269.59 76.3V70.14H1271.46V85H1270.04L1269.84 82.88C1269.77 83.08 1269.67 83.3133 1269.52 83.58C1269.37 83.84 1269.17 84.0967 1268.9 84.35C1268.64 84.5967 1268.3 84.8 1267.88 84.96C1267.46 85.12 1266.95 85.2 1266.35 85.2ZM1266.68 83.78C1267.72 83.78 1268.46 83.4633 1268.91 82.83C1269.36 82.19 1269.59 81.1467 1269.59 79.7C1269.58 78.8933 1269.48 78.2067 1269.29 77.64C1269.1 77.0733 1268.79 76.6433 1268.37 76.35C1267.96 76.05 1267.4 75.9 1266.71 75.9C1265.86 75.9 1265.17 76.2033 1264.64 76.81C1264.11 77.4167 1263.84 78.38 1263.84 79.7C1263.84 80.9933 1264.08 81.9967 1264.56 82.71C1265.04 83.4233 1265.75 83.78 1266.68 83.78Z" fill="white"/>
<path d="M768 64C768 28.6538 796.654 0 832 0H1001C1036.35 0 1065 28.6538 1065 64C1065 99.3462 1036.35 128 1001 128H832C796.654 128 768 99.3462 768 64Z" fill="#014063"/>
<path d="M300.5 63C299.948 63 299.5 63.4477 299.5 64C299.5 64.5523 299.948 65 300.5 65V64V63ZM381.207 64.7071C381.598 64.3166 381.598 63.6834 381.207 63.2929L374.843 56.9289C374.453 56.5384 373.819 56.5384 373.429 56.9289C373.038 57.3195 373.038 57.9526 373.429 58.3431L379.086 64L373.429 69.6569C373.038 70.0474 373.038 70.6805 373.429 71.0711C373.819 71.4616 374.453 71.4616 374.843 71.0711L381.207 64.7071ZM300.5 64V65H380.5V64V63H300.5V64Z" fill="black" fill-opacity="0.8"/>
<path d="M684.5 63C683.948 63 683.5 63.4477 683.5 64C683.5 64.5523 683.948 65 684.5 65V64V63ZM765.207 64.7071C765.598 64.3166 765.598 63.6834 765.207 63.2929L758.843 56.9289C758.453 56.5384 757.819 56.5384 757.429 56.9289C757.038 57.3195 757.038 57.9526 757.429 58.3431L763.086 64L757.429 69.6569C757.038 70.0474 757.038 70.6805 757.429 71.0711C757.819 71.4616 758.453 71.4616 758.843 71.0711L765.207 64.7071ZM684.5 64V65H764.5V64V63H684.5V64Z" fill="black" fill-opacity="0.8"/>
<path d="M842.841 40.22V26.66H845.271L845.291 28.29C845.424 28.0633 845.594 27.84 845.801 27.62C846.014 27.4 846.258 27.2033 846.531 27.03C846.811 26.8567 847.121 26.72 847.461 26.62C847.801 26.5133 848.174 26.46 848.581 26.46C849.374 26.46 850.078 26.65 850.691 27.03C851.304 27.4033 851.784 27.98 852.131 28.76C852.484 29.54 852.661 30.5267 852.661 31.72C852.661 32.94 852.481 33.9567 852.121 34.77C851.761 35.5833 851.258 36.1933 850.611 36.6C849.964 37 849.214 37.2 848.361 37.2C847.968 37.2 847.608 37.1467 847.281 37.04C846.961 36.9333 846.674 36.7867 846.421 36.6C846.168 36.4133 845.944 36.21 845.751 35.99C845.564 35.77 845.408 35.54 845.281 35.3V40.22H842.841ZM847.821 35.38C848.554 35.38 849.161 35.09 849.641 34.51C850.121 33.9233 850.361 33.0067 850.361 31.76C850.361 30.68 850.134 29.83 849.681 29.21C849.234 28.5833 848.614 28.27 847.821 28.27C846.968 28.27 846.328 28.6 845.901 29.26C845.474 29.9133 845.261 30.7467 845.261 31.76C845.261 32.4133 845.354 33.0167 845.541 33.57C845.734 34.1167 846.018 34.5567 846.391 34.89C846.771 35.2167 847.248 35.38 847.821 35.38ZM858.614 37.2C858.107 37.2 857.617 37.1267 857.144 36.98C856.677 36.8267 856.257 36.6067 855.884 36.32C855.51 36.0267 855.214 35.6667 854.994 35.24C854.774 34.8133 854.664 34.3167 854.664 33.75V26.66H857.104V33.47C857.104 34.03 857.28 34.49 857.634 34.85C857.994 35.21 858.534 35.39 859.254 35.39C859.907 35.39 860.43 35.22 860.824 34.88C861.217 34.5333 861.414 34.0367 861.414 33.39V26.66H863.834V37H861.964L861.694 34.98C861.567 35.5467 861.344 35.9933 861.024 36.32C860.71 36.64 860.34 36.8667 859.914 37C859.494 37.1333 859.06 37.2 858.614 37.2ZM869.669 37.15C869.002 37.15 868.469 37.0667 868.069 36.9C867.669 36.7333 867.369 36.51 867.169 36.23C866.969 35.95 866.839 35.6367 866.779 35.29C866.719 34.9367 866.689 34.5767 866.689 34.21V22.14H869.069V33.93C869.069 34.3767 869.159 34.7233 869.339 34.97C869.525 35.2167 869.825 35.36 870.239 35.4L870.759 35.42V36.95C870.579 37.0033 870.395 37.05 870.209 37.09C870.022 37.13 869.842 37.15 869.669 37.15ZM875.723 37.15C875.057 37.15 874.523 37.0667 874.123 36.9C873.723 36.7333 873.423 36.51 873.223 36.23C873.023 35.95 872.893 35.6367 872.833 35.29C872.773 34.9367 872.743 34.5767 872.743 34.21V22.14H875.123V33.93C875.123 34.3767 875.213 34.7233 875.393 34.97C875.58 35.2167 875.88 35.36 876.293 35.4L876.813 35.42V36.95C876.633 37.0033 876.45 37.05 876.263 37.09C876.077 37.13 875.897 37.15 875.723 37.15ZM885.011 37.2C883.678 37.2 882.601 36.98 881.781 36.54C880.968 36.0933 880.378 35.4533 880.011 34.62C879.644 33.78 879.461 32.7667 879.461 31.58V22.54H881.951V31.83C881.951 32.95 882.224 33.7767 882.771 34.31C883.324 34.8433 884.071 35.11 885.011 35.11C885.644 35.11 886.194 34.9933 886.661 34.76C887.128 34.5267 887.488 34.17 887.741 33.69C887.994 33.2033 888.121 32.5833 888.121 31.83V22.54H890.581V31.72C890.581 32.8667 890.394 33.85 890.021 34.67C889.648 35.4833 889.051 36.11 888.231 36.55C887.418 36.9833 886.344 37.2 885.011 37.2ZM893.738 37V22.54H899.608C900.715 22.54 901.625 22.7133 902.338 23.06C903.058 23.4 903.592 23.8833 903.938 24.51C904.285 25.13 904.458 25.8567 904.458 26.69C904.458 27.4633 904.332 28.1133 904.078 28.64C903.825 29.16 903.495 29.5867 903.088 29.92C902.688 30.2467 902.258 30.5133 901.798 30.72L904.558 37H902.018L899.528 31.13H896.168V37H893.738ZM896.168 29.2H899.058C899.978 29.2 900.695 28.9867 901.208 28.56C901.728 28.1333 901.988 27.54 901.988 26.78C901.988 26.0333 901.748 25.4567 901.268 25.05C900.788 24.6433 900.155 24.44 899.368 24.44H896.168V29.2ZM907.469 37V22.54H909.899V37H907.469ZM920.684 37.15C920.018 37.15 919.484 37.0667 919.084 36.9C918.684 36.7333 918.384 36.51 918.184 36.23C917.984 35.95 917.854 35.6367 917.794 35.29C917.734 34.9367 917.704 34.5767 917.704 34.21V22.14H920.084V33.93C920.084 34.3767 920.174 34.7233 920.354 34.97C920.541 35.2167 920.841 35.36 921.254 35.4L921.774 35.42V36.95C921.594 37.0033 921.411 37.05 921.224 37.09C921.038 37.13 920.858 37.15 920.684 37.15ZM927.845 37.2C926.858 37.2 925.998 36.99 925.265 36.57C924.532 36.1433 923.962 35.5333 923.555 34.74C923.155 33.9467 922.955 32.9933 922.955 31.88C922.955 30.8 923.152 29.8533 923.545 29.04C923.938 28.2267 924.498 27.5933 925.225 27.14C925.958 26.6867 926.835 26.46 927.855 26.46C928.842 26.46 929.698 26.6767 930.425 27.11C931.152 27.5433 931.712 28.1633 932.105 28.97C932.505 29.7767 932.705 30.7467 932.705 31.88C932.705 32.9267 932.515 33.85 932.135 34.65C931.762 35.4433 931.212 36.0667 930.485 36.52C929.765 36.9733 928.885 37.2 927.845 37.2ZM927.855 35.35C928.415 35.35 928.875 35.1967 929.235 34.89C929.602 34.5833 929.875 34.1633 930.055 33.63C930.235 33.0967 930.325 32.49 930.325 31.81C930.325 31.1767 930.245 30.5933 930.085 30.06C929.925 29.5267 929.662 29.1 929.295 28.78C928.935 28.4533 928.455 28.29 927.855 28.29C927.288 28.29 926.818 28.44 926.445 28.74C926.078 29.0333 925.805 29.4467 925.625 29.98C925.445 30.5067 925.355 31.1167 925.355 31.81C925.355 32.4367 925.435 33.02 925.595 33.56C925.755 34.0933 926.018 34.5267 926.385 34.86C926.752 35.1867 927.242 35.35 927.855 35.35ZM939.271 37.2C938.324 37.2 937.481 36.9933 936.741 36.58C936.007 36.16 935.431 35.5533 935.011 34.76C934.591 33.96 934.381 32.9967 934.381 31.87C934.381 30.7967 934.577 29.8567 934.971 29.05C935.371 28.2367 935.934 27.6033 936.661 27.15C937.394 26.69 938.264 26.46 939.271 26.46C940.077 26.46 940.787 26.62 941.401 26.94C942.014 27.26 942.504 27.7033 942.871 28.27C943.244 28.8367 943.467 29.48 943.541 30.2H941.471C941.417 29.8867 941.301 29.59 941.121 29.31C940.941 29.0233 940.697 28.7933 940.391 28.62C940.091 28.44 939.724 28.35 939.291 28.35C938.511 28.35 937.881 28.6367 937.401 29.21C936.921 29.7833 936.681 30.6633 936.681 31.85C936.681 32.9433 936.907 33.8133 937.361 34.46C937.821 35.1067 938.477 35.43 939.331 35.43C939.757 35.43 940.124 35.3367 940.431 35.15C940.737 34.9567 940.977 34.72 941.151 34.44C941.331 34.1533 941.444 33.8667 941.491 33.58H943.511C943.451 34.28 943.234 34.9033 942.861 35.45C942.487 35.9967 941.994 36.4267 941.381 36.74C940.767 37.0467 940.064 37.2 939.271 37.2ZM948.741 37.2C948.081 37.2 947.488 37.08 946.961 36.84C946.441 36.5933 946.031 36.2433 945.731 35.79C945.438 35.33 945.291 34.7733 945.291 34.12C945.291 32.98 945.701 32.12 946.521 31.54C947.348 30.96 948.661 30.6567 950.461 30.63L952.011 30.59V29.89C952.011 29.3433 951.848 28.9167 951.521 28.61C951.201 28.2967 950.701 28.1433 950.021 28.15C949.514 28.1567 949.054 28.2767 948.641 28.51C948.228 28.7367 947.954 29.12 947.821 29.66H945.751C945.791 28.9533 945.994 28.3633 946.361 27.89C946.734 27.41 947.244 27.0533 947.891 26.82C948.538 26.58 949.284 26.46 950.131 26.46C951.118 26.46 951.921 26.59 952.541 26.85C953.161 27.11 953.618 27.4867 953.911 27.98C954.204 28.4667 954.351 29.0567 954.351 29.75V37H952.301L952.101 35.14C951.734 35.92 951.264 36.46 950.691 36.76C950.124 37.0533 949.474 37.2 948.741 37.2ZM949.531 35.55C949.831 35.55 950.128 35.4967 950.421 35.39C950.714 35.2767 950.978 35.1267 951.211 34.94C951.451 34.7467 951.641 34.5333 951.781 34.3C951.928 34.0667 952.004 33.8233 952.011 33.57V31.94L950.741 31.96C950.114 31.9667 949.564 32.0333 949.091 32.16C948.624 32.2867 948.261 32.49 948.001 32.77C947.741 33.0433 947.611 33.41 947.611 33.87C947.611 34.3967 947.794 34.81 948.161 35.11C948.528 35.4033 948.984 35.55 949.531 35.55ZM960.682 37.08C959.862 37.08 959.226 36.9733 958.772 36.76C958.326 36.54 958.016 36.23 957.842 35.83C957.669 35.43 957.582 34.9533 957.582 34.4V28.38H955.902V26.66H957.652L958.262 23.59H960.012V26.65H962.322V28.38H960.012L960.022 34.31C960.022 34.6167 960.056 34.8433 960.122 34.99C960.196 35.13 960.309 35.2233 960.462 35.27C960.622 35.31 960.832 35.33 961.092 35.33H962.372V36.87C962.232 36.9233 962.026 36.97 961.752 37.01C961.486 37.0567 961.129 37.08 960.682 37.08ZM964.658 37V26.66H966.988V37H964.658ZM964.618 24.85V22.55H967.028V24.85H964.618ZM974.115 37.2C973.128 37.2 972.268 36.99 971.535 36.57C970.801 36.1433 970.231 35.5333 969.825 34.74C969.425 33.9467 969.225 32.9933 969.225 31.88C969.225 30.8 969.421 29.8533 969.815 29.04C970.208 28.2267 970.768 27.5933 971.495 27.14C972.228 26.6867 973.105 26.46 974.125 26.46C975.111 26.46 975.968 26.6767 976.695 27.11C977.421 27.5433 977.981 28.1633 978.375 28.97C978.775 29.7767 978.975 30.7467 978.975 31.88C978.975 32.9267 978.785 33.85 978.405 34.65C978.031 35.4433 977.481 36.0667 976.755 36.52C976.035 36.9733 975.155 37.2 974.115 37.2ZM974.125 35.35C974.685 35.35 975.145 35.1967 975.505 34.89C975.871 34.5833 976.145 34.1633 976.325 33.63C976.505 33.0967 976.595 32.49 976.595 31.81C976.595 31.1767 976.515 30.5933 976.355 30.06C976.195 29.5267 975.931 29.1 975.565 28.78C975.205 28.4533 974.725 28.29 974.125 28.29C973.558 28.29 973.088 28.44 972.715 28.74C972.348 29.0333 972.075 29.4467 971.895 29.98C971.715 30.5067 971.625 31.1167 971.625 31.81C971.625 32.4367 971.705 33.02 971.865 33.56C972.025 34.0933 972.288 34.5267 972.655 34.86C973.021 35.1867 973.511 35.35 974.125 35.35ZM981.2 37V26.66H983.58V28.14C983.74 27.8733 983.957 27.6167 984.23 27.37C984.51 27.1233 984.854 26.9233 985.26 26.77C985.667 26.6167 986.144 26.54 986.69 26.54C987.33 26.54 987.924 26.6667 988.47 26.92C989.024 27.1733 989.467 27.57 989.8 28.11C990.14 28.65 990.31 29.3467 990.31 30.2V37H987.87V30.49C987.87 29.81 987.684 29.3067 987.31 28.98C986.937 28.6467 986.467 28.48 985.9 28.48C985.514 28.48 985.147 28.5467 984.8 28.68C984.454 28.8067 984.17 29.0033 983.95 29.27C983.737 29.53 983.63 29.8567 983.63 30.25V37H981.2Z" fill="white"/>
<path d="M807.377 103.14C806.723 103.14 806.145 102.998 805.641 102.713C805.141 102.428 804.749 102.008 804.465 101.453C804.185 100.898 804.045 100.216 804.045 99.409C804.045 98.653 804.173 97.9927 804.43 97.428C804.691 96.8587 805.069 96.4153 805.564 96.098C806.063 95.7807 806.667 95.622 807.377 95.622C807.895 95.622 808.359 95.7223 808.77 95.923C809.185 96.119 809.526 96.399 809.792 96.763C810.058 97.127 810.221 97.5563 810.282 98.051H809.134C809.092 97.799 808.994 97.568 808.84 97.358C808.69 97.148 808.492 96.98 808.245 96.854C808.002 96.728 807.715 96.665 807.384 96.665C806.763 96.665 806.257 96.889 805.865 97.337C805.477 97.785 805.284 98.471 805.284 99.395C805.284 100.23 805.461 100.9 805.816 101.404C806.175 101.903 806.702 102.153 807.398 102.153C807.729 102.153 808.018 102.09 808.266 101.964C808.513 101.833 808.711 101.663 808.861 101.453C809.01 101.238 809.106 101.01 809.148 100.767H810.275C810.214 101.252 810.048 101.672 809.778 102.027C809.512 102.382 809.171 102.657 808.756 102.853C808.345 103.044 807.885 103.14 807.377 103.14ZM814.937 103.14C814.269 103.14 813.686 102.998 813.187 102.713C812.692 102.424 812.307 102.001 812.032 101.446C811.756 100.891 811.619 100.212 811.619 99.409C811.619 98.653 811.747 97.9903 812.004 97.421C812.26 96.8517 812.636 96.4107 813.131 96.098C813.625 95.7807 814.23 95.622 814.944 95.622C815.611 95.622 816.19 95.769 816.68 96.063C817.17 96.3523 817.55 96.7793 817.821 97.344C818.096 97.9087 818.234 98.597 818.234 99.409C818.234 100.146 818.108 100.795 817.856 101.355C817.604 101.915 817.233 102.354 816.743 102.671C816.257 102.984 815.655 103.14 814.937 103.14ZM814.944 102.118C815.373 102.118 815.737 102.008 816.036 101.789C816.334 101.57 816.561 101.255 816.715 100.844C816.873 100.433 816.953 99.9457 816.953 99.381C816.953 98.863 816.883 98.3987 816.743 97.988C816.607 97.5727 816.393 97.2437 816.099 97.001C815.805 96.7583 815.42 96.637 814.944 96.637C814.505 96.637 814.134 96.7467 813.831 96.966C813.527 97.1807 813.296 97.4933 813.138 97.904C812.984 98.3147 812.907 98.807 812.907 99.381C812.907 99.8897 812.974 100.352 813.11 100.767C813.25 101.182 813.469 101.511 813.768 101.754C814.071 101.997 814.463 102.118 814.944 102.118ZM819.955 103V95.762H821.201V96.812C821.401 96.4947 821.677 96.217 822.027 95.979C822.377 95.741 822.832 95.622 823.392 95.622C823.653 95.622 823.919 95.6663 824.19 95.755C824.465 95.8437 824.717 95.9767 824.946 96.154C825.174 96.3313 825.352 96.5483 825.478 96.805C825.702 96.4503 826.005 96.1657 826.388 95.951C826.77 95.7317 827.202 95.622 827.683 95.622C827.935 95.622 828.198 95.6617 828.474 95.741C828.749 95.8157 829.003 95.951 829.237 96.147C829.475 96.3383 829.668 96.6067 829.818 96.952C829.967 97.2927 830.042 97.7313 830.042 98.268V103H828.74V98.394C828.74 97.9553 828.67 97.617 828.53 97.379C828.39 97.1363 828.205 96.966 827.977 96.868C827.753 96.77 827.512 96.721 827.256 96.721C827.032 96.721 826.794 96.7653 826.542 96.854C826.29 96.9427 826.075 97.092 825.898 97.302C825.72 97.512 825.632 97.799 825.632 98.163V103H824.344V98.016C824.344 97.7313 824.267 97.4933 824.113 97.302C823.963 97.1107 823.774 96.966 823.546 96.868C823.322 96.77 823.098 96.721 822.874 96.721C822.626 96.721 822.377 96.77 822.125 96.868C821.877 96.966 821.667 97.1223 821.495 97.337C821.327 97.547 821.243 97.8223 821.243 98.163V103H819.955ZM832.068 105.254V95.762H833.356L833.37 97.022C833.454 96.8727 833.561 96.7163 833.692 96.553C833.827 96.3897 833.991 96.238 834.182 96.098C834.378 95.958 834.604 95.8437 834.861 95.755C835.122 95.6663 835.419 95.622 835.75 95.622C836.329 95.622 836.837 95.755 837.276 96.021C837.719 96.2823 838.065 96.6837 838.312 97.225C838.559 97.7663 838.683 98.4523 838.683 99.283C838.683 100.114 838.562 100.816 838.319 101.39C838.081 101.959 837.736 102.393 837.283 102.692C836.83 102.991 836.284 103.14 835.645 103.14C835.323 103.14 835.036 103.093 834.784 103C834.537 102.911 834.32 102.795 834.133 102.65C833.951 102.501 833.797 102.342 833.671 102.174C833.55 102.006 833.449 101.845 833.37 101.691V105.254H832.068ZM835.4 102.132C835.997 102.132 836.485 101.906 836.863 101.453C837.241 100.996 837.43 100.286 837.43 99.325C837.43 98.499 837.257 97.8433 836.912 97.358C836.567 96.8727 836.063 96.63 835.4 96.63C834.728 96.63 834.219 96.8797 833.874 97.379C833.529 97.8737 833.356 98.5223 833.356 99.325C833.356 99.843 833.433 100.314 833.587 100.739C833.741 101.164 833.97 101.502 834.273 101.754C834.576 102.006 834.952 102.132 835.4 102.132ZM842.235 103.091C841.843 103.091 841.526 103.037 841.283 102.93C841.045 102.823 840.861 102.678 840.73 102.496C840.604 102.314 840.518 102.106 840.471 101.873C840.429 101.635 840.408 101.39 840.408 101.138V92.598H841.682V101.012C841.682 101.376 841.752 101.649 841.892 101.831C842.037 102.013 842.237 102.113 842.494 102.132L842.886 102.139V102.979C842.779 103.012 842.667 103.037 842.55 103.056C842.433 103.079 842.328 103.091 842.235 103.091ZM847.363 103.14C846.691 103.14 846.099 102.993 845.585 102.699C845.072 102.405 844.671 101.983 844.381 101.432C844.092 100.881 843.947 100.221 843.947 99.451C843.947 98.6903 844.078 98.023 844.339 97.449C844.601 96.875 844.979 96.427 845.473 96.105C845.973 95.783 846.572 95.622 847.272 95.622C847.954 95.622 848.53 95.769 849.001 96.063C849.473 96.357 849.83 96.7723 850.072 97.309C850.32 97.841 850.443 98.4733 850.443 99.206V99.682H845.256C845.256 100.139 845.331 100.555 845.48 100.928C845.634 101.297 845.865 101.591 846.173 101.81C846.481 102.029 846.871 102.139 847.342 102.139C847.804 102.139 848.201 102.032 848.532 101.817C848.868 101.602 849.083 101.292 849.176 100.886H850.394C850.31 101.376 850.114 101.789 849.806 102.125C849.503 102.461 849.137 102.715 848.707 102.888C848.283 103.056 847.835 103.14 847.363 103.14ZM845.263 98.807H849.197C849.197 98.3917 849.127 98.0183 848.987 97.687C848.847 97.351 848.633 97.0873 848.343 96.896C848.059 96.7 847.699 96.602 847.265 96.602C846.813 96.602 846.437 96.7117 846.138 96.931C845.84 97.1457 845.618 97.4233 845.473 97.764C845.329 98.1 845.259 98.4477 845.263 98.807ZM854.559 103.035C854.06 103.035 853.672 102.967 853.397 102.832C853.122 102.697 852.928 102.496 852.816 102.23C852.709 101.964 852.655 101.637 852.655 101.25V96.707H851.479V95.762H852.69L853.005 93.655H853.957V95.755H855.588V96.707H853.957V101.208C853.957 101.465 853.983 101.654 854.034 101.775C854.09 101.892 854.181 101.966 854.307 101.999C854.433 102.032 854.61 102.048 854.839 102.048H855.63V102.916C855.541 102.949 855.406 102.977 855.224 103C855.047 103.023 854.825 103.035 854.559 103.035ZM860.215 103.14C859.543 103.14 858.95 102.993 858.437 102.699C857.924 102.405 857.522 101.983 857.233 101.432C856.944 100.881 856.799 100.221 856.799 99.451C856.799 98.6903 856.93 98.023 857.191 97.449C857.452 96.875 857.83 96.427 858.325 96.105C858.824 95.783 859.424 95.622 860.124 95.622C860.805 95.622 861.382 95.769 861.853 96.063C862.324 96.357 862.681 96.7723 862.924 97.309C863.171 97.841 863.295 98.4733 863.295 99.206V99.682H858.108C858.108 100.139 858.183 100.555 858.332 100.928C858.486 101.297 858.717 101.591 859.025 101.81C859.333 102.029 859.723 102.139 860.194 102.139C860.656 102.139 861.053 102.032 861.384 101.817C861.72 101.602 861.935 101.292 862.028 100.886H863.246C863.162 101.376 862.966 101.789 862.658 102.125C862.355 102.461 861.988 102.715 861.559 102.888C861.134 103.056 860.686 103.14 860.215 103.14ZM858.115 98.807H862.049C862.049 98.3917 861.979 98.0183 861.839 97.687C861.699 97.351 861.484 97.0873 861.195 96.896C860.91 96.7 860.551 96.602 860.117 96.602C859.664 96.602 859.289 96.7117 858.99 96.931C858.691 97.1457 858.47 97.4233 858.325 97.764C858.18 98.1 858.11 98.4477 858.115 98.807ZM871.142 103.14C870.489 103.14 869.91 102.998 869.406 102.713C868.907 102.428 868.515 102.008 868.23 101.453C867.95 100.898 867.81 100.216 867.81 99.409C867.81 98.653 867.939 97.9927 868.195 97.428C868.457 96.8587 868.835 96.4153 869.329 96.098C869.829 95.7807 870.433 95.622 871.142 95.622C871.66 95.622 872.125 95.7223 872.535 95.923C872.951 96.119 873.291 96.399 873.557 96.763C873.823 97.127 873.987 97.5563 874.047 98.051H872.899C872.857 97.799 872.759 97.568 872.605 97.358C872.456 97.148 872.258 96.98 872.01 96.854C871.768 96.728 871.481 96.665 871.149 96.665C870.529 96.665 870.022 96.889 869.63 97.337C869.243 97.785 869.049 98.471 869.049 99.395C869.049 100.23 869.227 100.9 869.581 101.404C869.941 101.903 870.468 102.153 871.163 102.153C871.495 102.153 871.784 102.09 872.031 101.964C872.279 101.833 872.477 101.663 872.626 101.453C872.776 101.238 872.871 101.01 872.913 100.767H874.04C873.98 101.252 873.814 101.672 873.543 102.027C873.277 102.382 872.937 102.657 872.521 102.853C872.111 103.044 871.651 103.14 871.142 103.14ZM875.763 103V92.598H877.023V96.826C877.145 96.6253 877.308 96.4387 877.513 96.266C877.719 96.0887 877.968 95.9463 878.262 95.839C878.556 95.727 878.897 95.671 879.284 95.671C879.756 95.671 880.183 95.7597 880.565 95.937C880.948 96.1097 881.251 96.357 881.475 96.679C881.699 97.001 881.811 97.3837 881.811 97.827V103H880.516V98.086C880.516 97.652 880.367 97.3183 880.068 97.085C879.774 96.847 879.389 96.728 878.913 96.728C878.591 96.728 878.288 96.7817 878.003 96.889C877.719 96.9917 877.488 97.1503 877.31 97.365C877.138 97.575 877.051 97.8433 877.051 98.17V103H875.763ZM885.832 103.14C885.361 103.14 884.946 103.058 884.586 102.895C884.232 102.727 883.952 102.487 883.746 102.174C883.546 101.861 883.445 101.483 883.445 101.04C883.445 100.237 883.725 99.64 884.285 99.248C884.845 98.856 885.744 98.646 886.98 98.618L888.268 98.583V98.016C888.268 97.5727 888.135 97.2227 887.869 96.966C887.603 96.7047 887.193 96.574 886.637 96.574C886.222 96.5787 885.856 96.6767 885.538 96.868C885.221 97.0593 885.018 97.372 884.929 97.806H883.788C883.816 97.3347 883.947 96.938 884.18 96.616C884.418 96.2893 884.752 96.042 885.181 95.874C885.611 95.706 886.117 95.622 886.7 95.622C887.33 95.622 887.853 95.7107 888.268 95.888C888.688 96.0653 889.001 96.3267 889.206 96.672C889.416 97.0173 889.521 97.442 889.521 97.946V103H888.415L888.317 101.642C888.042 102.207 887.687 102.599 887.253 102.818C886.824 103.033 886.35 103.14 885.832 103.14ZM886.217 102.209C886.465 102.209 886.707 102.165 886.945 102.076C887.188 101.987 887.407 101.868 887.603 101.719C887.804 101.565 887.965 101.395 888.086 101.208C888.208 101.017 888.268 100.821 888.268 100.62V99.381L887.197 99.402C886.642 99.4113 886.18 99.4673 885.811 99.57C885.443 99.6727 885.165 99.8337 884.978 100.053C884.792 100.272 884.698 100.559 884.698 100.914C884.698 101.32 884.841 101.637 885.125 101.866C885.41 102.095 885.774 102.209 886.217 102.209ZM891.576 103V95.762H892.829V103H891.576ZM891.541 94.229V92.885H892.864V94.229H891.541ZM895.082 103V95.762H896.335V96.812C896.451 96.6113 896.612 96.4223 896.818 96.245C897.028 96.0677 897.28 95.9253 897.574 95.818C897.872 95.7107 898.215 95.657 898.603 95.657C899.06 95.657 899.48 95.748 899.863 95.93C900.25 96.112 900.558 96.3967 900.787 96.784C901.02 97.1667 901.137 97.6613 901.137 98.268V103H899.842V98.394C899.842 97.8293 899.692 97.4117 899.394 97.141C899.1 96.8657 898.717 96.728 898.246 96.728C897.919 96.728 897.613 96.7817 897.329 96.889C897.044 96.9917 896.813 97.1503 896.636 97.365C896.458 97.575 896.37 97.841 896.37 98.163V103H895.082ZM902.861 97.694V96.049H904.408V97.694H902.861ZM902.861 102.958V101.327H904.408V102.958H902.861ZM910.608 103V96.707H909.075V95.762H910.608V94.642C910.608 94.068 910.753 93.6317 911.042 93.333C911.336 93.0297 911.775 92.878 912.358 92.878H913.723L913.73 93.795H912.652C912.354 93.795 912.151 93.8743 912.043 94.033C911.936 94.1917 911.882 94.432 911.882 94.754V95.762H913.66V96.707H911.903V103H910.608ZM917.839 103.14C917.461 103.135 917.104 103.082 916.768 102.979C916.437 102.872 916.143 102.715 915.886 102.51C915.63 102.305 915.427 102.05 915.277 101.747C915.133 101.439 915.06 101.082 915.06 100.676V95.762H916.355V100.543C916.355 101.014 916.5 101.397 916.789 101.691C917.083 101.985 917.524 102.132 918.112 102.132C918.644 102.132 919.071 101.994 919.393 101.719C919.72 101.439 919.883 101.024 919.883 100.473V95.762H921.171V103H920.142L920.009 101.614C919.921 101.978 919.769 102.272 919.554 102.496C919.344 102.72 919.09 102.886 918.791 102.993C918.497 103.096 918.18 103.145 917.839 103.14ZM925.21 103.091C924.818 103.091 924.5 103.037 924.258 102.93C924.02 102.823 923.835 102.678 923.705 102.496C923.579 102.314 923.492 102.106 923.446 101.873C923.404 101.635 923.383 101.39 923.383 101.138V92.598H924.657V101.012C924.657 101.376 924.727 101.649 924.867 101.831C925.011 102.013 925.212 102.113 925.469 102.132L925.861 102.139V102.979C925.753 103.012 925.641 103.037 925.525 103.056C925.408 103.079 925.303 103.091 925.21 103.091ZM929.243 103.091C928.851 103.091 928.533 103.037 928.291 102.93C928.053 102.823 927.868 102.678 927.738 102.496C927.612 102.314 927.525 102.106 927.479 101.873C927.437 101.635 927.416 101.39 927.416 101.138V92.598H928.69V101.012C928.69 101.376 928.76 101.649 928.9 101.831C929.044 102.013 929.245 102.113 929.502 102.132L929.894 102.139V102.979C929.786 103.012 929.674 103.037 929.558 103.056C929.441 103.079 929.336 103.091 929.243 103.091ZM937.382 100.928L937.368 94.887H938.376L938.383 100.928H937.382ZM934.848 98.422V97.414L940.889 97.407V98.408L934.848 98.422ZM948.948 103.14C948.281 103.14 947.698 102.998 947.198 102.713C946.704 102.424 946.319 102.001 946.043 101.446C945.768 100.891 945.63 100.212 945.63 99.409C945.63 98.653 945.759 97.9903 946.015 97.421C946.272 96.8517 946.648 96.4107 947.142 96.098C947.637 95.7807 948.241 95.622 948.955 95.622C949.623 95.622 950.201 95.769 950.691 96.063C951.181 96.3523 951.562 96.7793 951.832 97.344C952.108 97.9087 952.245 98.597 952.245 99.409C952.245 100.146 952.119 100.795 951.867 101.355C951.615 101.915 951.244 102.354 950.754 102.671C950.269 102.984 949.667 103.14 948.948 103.14ZM948.955 102.118C949.385 102.118 949.749 102.008 950.047 101.789C950.346 101.57 950.572 101.255 950.726 100.844C950.885 100.433 950.964 99.9457 950.964 99.381C950.964 98.863 950.894 98.3987 950.754 97.988C950.619 97.5727 950.404 97.2437 950.11 97.001C949.816 96.7583 949.431 96.637 948.955 96.637C948.517 96.637 948.146 96.7467 947.842 96.966C947.539 97.1807 947.308 97.4933 947.149 97.904C946.995 98.3147 946.918 98.807 946.918 99.381C946.918 99.8897 946.986 100.352 947.121 100.767C947.261 101.182 947.481 101.511 947.779 101.754C948.083 101.997 948.475 102.118 948.955 102.118ZM953.967 105.254V95.762H955.255L955.269 97.022C955.353 96.8727 955.46 96.7163 955.591 96.553C955.726 96.3897 955.889 96.238 956.081 96.098C956.277 95.958 956.503 95.8437 956.76 95.755C957.021 95.6663 957.317 95.622 957.649 95.622C958.227 95.622 958.736 95.755 959.175 96.021C959.618 96.2823 959.963 96.6837 960.211 97.225C960.458 97.7663 960.582 98.4523 960.582 99.283C960.582 100.114 960.46 100.816 960.218 101.39C959.98 101.959 959.634 102.393 959.182 102.692C958.729 102.991 958.183 103.14 957.544 103.14C957.222 103.14 956.935 103.093 956.683 103C956.435 102.911 956.218 102.795 956.032 102.65C955.85 102.501 955.696 102.342 955.57 102.174C955.448 102.006 955.348 101.845 955.269 101.691V105.254H953.967ZM957.299 102.132C957.896 102.132 958.384 101.906 958.762 101.453C959.14 100.996 959.329 100.286 959.329 99.325C959.329 98.499 959.156 97.8433 958.811 97.358C958.465 96.8727 957.961 96.63 957.299 96.63C956.627 96.63 956.118 96.8797 955.773 97.379C955.427 97.8737 955.255 98.5223 955.255 99.325C955.255 99.843 955.332 100.314 955.486 100.739C955.64 101.164 955.868 101.502 956.172 101.754C956.475 102.006 956.851 102.132 957.299 102.132ZM964.631 103.035C964.132 103.035 963.745 102.967 963.469 102.832C963.194 102.697 963 102.496 962.888 102.23C962.781 101.964 962.727 101.637 962.727 101.25V96.707H961.551V95.762H962.762L963.077 93.655H964.029V95.755H965.66V96.707H964.029V101.208C964.029 101.465 964.055 101.654 964.106 101.775C964.162 101.892 964.253 101.966 964.379 101.999C964.505 102.032 964.683 102.048 964.911 102.048H965.702V102.916C965.614 102.949 965.478 102.977 965.296 103C965.119 103.023 964.897 103.035 964.631 103.035ZM967.455 103V95.762H968.708V103H967.455ZM967.42 94.229V92.885H968.743V94.229H967.42ZM973.777 103.14C973.109 103.14 972.526 102.998 972.027 102.713C971.532 102.424 971.147 102.001 970.872 101.446C970.596 100.891 970.459 100.212 970.459 99.409C970.459 98.653 970.587 97.9903 970.844 97.421C971.1 96.8517 971.476 96.4107 971.971 96.098C972.465 95.7807 973.07 95.622 973.784 95.622C974.451 95.622 975.03 95.769 975.52 96.063C976.01 96.3523 976.39 96.7793 976.661 97.344C976.936 97.9087 977.074 98.597 977.074 99.409C977.074 100.146 976.948 100.795 976.696 101.355C976.444 101.915 976.073 102.354 975.583 102.671C975.097 102.984 974.495 103.14 973.777 103.14ZM973.784 102.118C974.213 102.118 974.577 102.008 974.876 101.789C975.174 101.57 975.401 101.255 975.555 100.844C975.713 100.433 975.793 99.9457 975.793 99.381C975.793 98.863 975.723 98.3987 975.583 97.988C975.447 97.5727 975.233 97.2437 974.939 97.001C974.645 96.7583 974.26 96.637 973.784 96.637C973.345 96.637 972.974 96.7467 972.671 96.966C972.367 97.1807 972.136 97.4933 971.978 97.904C971.824 98.3147 971.747 98.807 971.747 99.381C971.747 99.8897 971.814 100.352 971.95 100.767C972.09 101.182 972.309 101.511 972.608 101.754C972.911 101.997 973.303 102.118 973.784 102.118ZM978.795 103V95.762H980.048V96.812C980.164 96.6113 980.325 96.4223 980.531 96.245C980.741 96.0677 980.993 95.9253 981.287 95.818C981.585 95.7107 981.928 95.657 982.316 95.657C982.773 95.657 983.193 95.748 983.576 95.93C983.963 96.112 984.271 96.3967 984.5 96.784C984.733 97.1667 984.85 97.6613 984.85 98.268V103H983.555V98.394C983.555 97.8293 983.405 97.4117 983.107 97.141C982.813 96.8657 982.43 96.728 981.959 96.728C981.632 96.728 981.326 96.7817 981.042 96.889C980.757 96.9917 980.526 97.1503 980.349 97.365C980.171 97.575 980.083 97.841 980.083 98.163V103H978.795ZM988.877 103.14C988.406 103.14 987.991 103.058 987.631 102.895C987.277 102.727 986.997 102.487 986.791 102.174C986.591 101.861 986.49 101.483 986.49 101.04C986.49 100.237 986.77 99.64 987.33 99.248C987.89 98.856 988.789 98.646 990.025 98.618L991.313 98.583V98.016C991.313 97.5727 991.18 97.2227 990.914 96.966C990.648 96.7047 990.238 96.574 989.682 96.574C989.267 96.5787 988.901 96.6767 988.583 96.868C988.266 97.0593 988.063 97.372 987.974 97.806H986.833C986.861 97.3347 986.992 96.938 987.225 96.616C987.463 96.2893 987.797 96.042 988.226 95.874C988.656 95.706 989.162 95.622 989.745 95.622C990.375 95.622 990.898 95.7107 991.313 95.888C991.733 96.0653 992.046 96.3267 992.251 96.672C992.461 97.0173 992.566 97.442 992.566 97.946V103H991.46L991.362 101.642C991.087 102.207 990.732 102.599 990.298 102.818C989.869 103.033 989.395 103.14 988.877 103.14ZM989.262 102.209C989.51 102.209 989.752 102.165 989.99 102.076C990.233 101.987 990.452 101.868 990.648 101.719C990.849 101.565 991.01 101.395 991.131 101.208C991.253 101.017 991.313 100.821 991.313 100.62V99.381L990.242 99.402C989.687 99.4113 989.225 99.4673 988.856 99.57C988.488 99.6727 988.21 99.8337 988.023 100.053C987.837 100.272 987.743 100.559 987.743 100.914C987.743 101.32 987.886 101.637 988.17 101.866C988.455 102.095 988.819 102.209 989.262 102.209ZM996.413 103.091C996.021 103.091 995.703 103.037 995.461 102.93C995.223 102.823 995.038 102.678 994.908 102.496C994.782 102.314 994.695 102.106 994.649 101.873C994.607 101.635 994.586 101.39 994.586 101.138V92.598H995.86V101.012C995.86 101.376 995.93 101.649 996.07 101.831C996.214 102.013 996.415 102.113 996.672 102.132L997.064 102.139V102.979C996.956 103.012 996.844 103.037 996.728 103.056C996.611 103.079 996.506 103.091 996.413 103.091ZM1004.69 103.14C1003.75 103.14 1003 102.818 1002.45 102.174C1001.9 101.53 1001.63 100.59 1001.63 99.353C1001.63 98.6017 1001.74 97.946 1001.96 97.386C1002.18 96.826 1002.51 96.392 1002.95 96.084C1003.39 95.776 1003.93 95.622 1004.58 95.622C1004.93 95.622 1005.24 95.6663 1005.51 95.755C1005.77 95.8437 1006.01 95.9557 1006.2 96.091C1006.4 96.2263 1006.56 96.3663 1006.68 96.511C1006.8 96.6557 1006.9 96.7887 1006.96 96.91V92.598H1008.27V103H1007.27L1007.13 101.516C1007.09 101.656 1007.01 101.819 1006.91 102.006C1006.81 102.188 1006.66 102.368 1006.47 102.545C1006.29 102.718 1006.05 102.86 1005.76 102.972C1005.47 103.084 1005.11 103.14 1004.69 103.14ZM1004.92 102.146C1005.65 102.146 1006.17 101.924 1006.48 101.481C1006.8 101.033 1006.96 100.303 1006.96 99.29C1006.95 98.7253 1006.88 98.2447 1006.75 97.848C1006.61 97.4513 1006.4 97.1503 1006.1 96.945C1005.81 96.735 1005.43 96.63 1004.94 96.63C1004.35 96.63 1003.87 96.8423 1003.49 97.267C1003.12 97.6917 1002.93 98.366 1002.93 99.29C1002.93 100.195 1003.1 100.898 1003.44 101.397C1003.77 101.896 1004.27 102.146 1004.92 102.146ZM1010.52 103V95.762H1011.77V103H1010.52ZM1010.49 94.229V92.885H1011.81V94.229H1010.49ZM1014.91 103V96.707H1013.38V95.762H1014.91V94.642C1014.91 94.068 1015.06 93.6317 1015.35 93.333C1015.64 93.0297 1016.08 92.878 1016.66 92.878H1018.03L1018.03 93.795H1016.96C1016.66 93.795 1016.45 93.8743 1016.35 94.033C1016.24 94.1917 1016.19 94.432 1016.19 94.754V95.762H1017.96V96.707H1016.21V103H1014.91ZM1020.11 103V96.707H1018.57V95.762H1020.11V94.642C1020.11 94.068 1020.25 93.6317 1020.54 93.333C1020.83 93.0297 1021.27 92.878 1021.86 92.878H1023.22L1023.23 93.795H1022.15C1021.85 93.795 1021.65 93.8743 1021.54 94.033C1021.43 94.1917 1021.38 94.432 1021.38 94.754V95.762H1023.16V96.707H1021.4V103H1020.11ZM1027.2 103.14C1026.7 103.14 1026.23 103.063 1025.79 102.909C1025.36 102.75 1025.01 102.505 1024.72 102.174C1024.44 101.838 1024.26 101.411 1024.19 100.893H1025.37C1025.43 101.178 1025.54 101.416 1025.72 101.607C1025.89 101.794 1026.1 101.936 1026.35 102.034C1026.61 102.127 1026.89 102.174 1027.19 102.174C1027.68 102.174 1028.08 102.083 1028.38 101.901C1028.67 101.719 1028.82 101.439 1028.82 101.061C1028.82 100.795 1028.74 100.583 1028.59 100.424C1028.43 100.261 1028.19 100.142 1027.86 100.067L1026.36 99.696C1025.78 99.556 1025.31 99.3367 1024.96 99.038C1024.61 98.7393 1024.44 98.3217 1024.43 97.785C1024.43 97.3603 1024.54 96.987 1024.74 96.665C1024.95 96.343 1025.25 96.0887 1025.66 95.902C1026.07 95.7153 1026.58 95.622 1027.19 95.622C1027.98 95.622 1028.62 95.7993 1029.1 96.154C1029.58 96.504 1029.83 97.0197 1029.85 97.701H1028.7C1028.66 97.3557 1028.5 97.0827 1028.24 96.882C1027.98 96.6767 1027.63 96.574 1027.18 96.574C1026.72 96.574 1026.35 96.6673 1026.05 96.854C1025.76 97.036 1025.62 97.3207 1025.62 97.708C1025.62 97.9647 1025.72 98.1677 1025.93 98.317C1026.14 98.4617 1026.44 98.583 1026.84 98.681L1028.29 99.045C1028.62 99.1337 1028.9 99.2503 1029.12 99.395C1029.34 99.5397 1029.51 99.7007 1029.64 99.878C1029.76 100.055 1029.85 100.242 1029.9 100.438C1029.96 100.629 1029.99 100.814 1029.99 100.991C1029.99 101.434 1029.88 101.817 1029.66 102.139C1029.44 102.456 1029.12 102.704 1028.7 102.881C1028.29 103.054 1027.79 103.14 1027.2 103.14Z" fill="white"/>
<path d="M833 64C833 54.0589 841.059 46 851 46H878C887.941 46 896 54.0589 896 64C896 73.9411 887.941 82 878 82H851C841.059 82 833 73.9411 833 64Z" fill="#4C99A4"/>
<path d="M846.701 72V56.817H857.033L857.023 59.379H849.788V63.1905H856.057V65.7H849.788V72H846.701ZM862.987 72.21C862.483 72.21 861.986 72.133 861.496 71.979C861.013 71.825 860.572 71.5975 860.173 71.2965C859.774 70.9955 859.452 70.6245 859.207 70.1835C858.969 69.7425 858.85 69.2315 858.85 68.6505V61.143H861.916V68.262C861.916 68.766 862.08 69.179 862.409 69.501C862.738 69.823 863.221 69.984 863.858 69.984C864.46 69.984 864.936 69.83 865.286 69.522C865.643 69.207 865.822 68.7695 865.822 68.2095V61.143H868.856V72H866.546L866.189 69.8475C866.063 70.4845 865.825 70.9745 865.475 71.3175C865.132 71.6535 864.737 71.8845 864.289 72.0105C863.848 72.1435 863.414 72.21 862.987 72.21ZM875.002 72.189C874.204 72.189 873.571 72.0945 873.102 71.9055C872.633 71.7165 872.286 71.468 872.062 71.16C871.838 70.845 871.695 70.4985 871.632 70.1205C871.569 69.7355 871.537 69.347 871.537 68.955V56.397H874.54V68.577C874.54 68.976 874.624 69.3015 874.792 69.5535C874.967 69.7985 875.293 69.949 875.769 70.005L876.283 70.0365V71.9265C876.073 71.9965 875.86 72.056 875.643 72.105C875.426 72.161 875.212 72.189 875.002 72.189ZM881.606 72.189C880.808 72.189 880.174 72.0945 879.705 71.9055C879.236 71.7165 878.89 71.468 878.666 71.16C878.442 70.845 878.298 70.4985 878.235 70.1205C878.172 69.7355 878.141 69.347 878.141 68.955V56.397H881.144V68.577C881.144 68.976 881.228 69.3015 881.396 69.5535C881.571 69.7985 881.896 69.949 882.372 70.005L882.887 70.0365V71.9265C882.677 71.9965 882.463 72.056 882.246 72.105C882.029 72.161 881.816 72.189 881.606 72.189Z" fill="#1A1B1D"/>
<path d="M939 64C939 54.0589 947.059 46 957 46H983C992.941 46 1001 54.0589 1001 64C1001 73.9411 992.941 82 983 82H957C947.059 82 939 73.9411 939 64Z" fill="#C3F8FB"/>
<path d="M952.701 72V56.817C952.778 56.817 952.992 56.817 953.342 56.817C953.699 56.817 954.115 56.817 954.591 56.817C955.074 56.817 955.554 56.8205 956.03 56.8275C956.513 56.8275 956.915 56.831 957.237 56.838C959.078 56.88 960.58 57.209 961.742 57.825C962.904 58.441 963.754 59.302 964.293 60.408C964.839 61.514 965.112 62.823 965.112 64.335C965.112 65.91 964.825 67.2715 964.251 68.4195C963.677 69.5605 962.799 70.4425 961.616 71.0655C960.44 71.6885 958.945 72 957.132 72H952.701ZM955.788 69.522H957.195C958.063 69.522 958.851 69.354 959.558 69.018C960.272 68.682 960.842 68.1325 961.269 67.3695C961.696 66.6065 961.91 65.588 961.91 64.314C961.91 63.131 961.721 62.172 961.343 61.437C960.965 60.695 960.426 60.1525 959.726 59.8095C959.026 59.4665 958.196 59.295 957.237 59.295H955.788V69.522ZM967.458 72V61.143H970.388V72H967.458ZM967.427 59.589V56.8275H970.409V59.589H967.427ZM974.243 72V63.2745H972.238V61.143H974.243V59.5785C974.243 58.7035 974.502 58.0245 975.02 57.5415C975.538 57.0585 976.266 56.817 977.204 56.817H979.693L979.714 58.854H978.275C977.89 58.854 977.624 58.952 977.477 59.148C977.33 59.337 977.257 59.652 977.257 60.093V61.143H979.609V63.2745H977.32V72H974.243ZM982.385 72V63.2745H980.379V61.143H982.385V59.5785C982.385 58.7035 982.644 58.0245 983.162 57.5415C983.68 57.0585 984.408 56.817 985.346 56.817H987.834L987.855 58.854H986.417C986.032 58.854 985.766 58.952 985.619 59.148C985.472 59.337 985.398 59.652 985.398 60.093V61.143H987.75V63.2745H985.461V72H982.385Z" fill="#1A1B1D"/>
<path d="M1068.5 63C1067.95 63 1067.5 63.4477 1067.5 64C1067.5 64.5523 1067.95 65 1068.5 65V64V63ZM1149.21 64.7071C1149.6 64.3166 1149.6 63.6834 1149.21 63.2929L1142.84 56.9289C1142.45 56.5384 1141.82 56.5384 1141.43 56.9289C1141.04 57.3195 1141.04 57.9526 1141.43 58.3431L1147.09 64L1141.43 69.6569C1141.04 70.0474 1141.04 70.6805 1141.43 71.0711C1141.82 71.4616 1142.45 71.4616 1142.84 71.0711L1149.21 64.7071ZM1068.5 64V65H1148.5V64V63H1068.5V64Z" fill="black" fill-opacity="0.8"/>
</svg>
