<svg width="1326" height="128" viewBox="0 0 1326 128" fill="none" xmlns="http://www.w3.org/2000/svg">
<path d="M0 64C0 28.6538 28.6538 0 64 0H233C268.346 0 297 28.6538 297 64V64C297 99.3462 268.346 128 233 128H64C28.6538 128 0 99.3462 0 64V64Z" fill="#014063"/>
<path d="M109.433 57.2C108.099 57.2 107.023 56.98 106.203 56.54C105.389 56.0933 104.799 55.4533 104.433 54.62C104.066 53.78 103.883 52.7667 103.883 51.58V42.54H106.373V51.83C106.373 52.95 106.646 53.7767 107.193 54.31C107.746 54.8433 108.493 55.11 109.433 55.11C110.066 55.11 110.616 54.9933 111.083 54.76C111.549 54.5267 111.909 54.17 112.163 53.69C112.416 53.2033 112.543 52.5833 112.543 51.83V42.54H115.003V51.72C115.003 52.8667 114.816 53.85 114.443 54.67C114.069 55.4833 113.473 56.11 112.653 56.55C111.839 56.9833 110.766 57.2 109.433 57.2ZM117.79 60.22V46.66H120.22L120.24 48.29C120.373 48.0633 120.543 47.84 120.75 47.62C120.963 47.4 121.207 47.2033 121.48 47.03C121.76 46.8567 122.07 46.72 122.41 46.62C122.75 46.5133 123.123 46.46 123.53 46.46C124.323 46.46 125.027 46.65 125.64 47.03C126.253 47.4033 126.733 47.98 127.08 48.76C127.433 49.54 127.61 50.5267 127.61 51.72C127.61 52.94 127.43 53.9567 127.07 54.77C126.71 55.5833 126.207 56.1933 125.56 56.6C124.913 57 124.163 57.2 123.31 57.2C122.917 57.2 122.557 57.1467 122.23 57.04C121.91 56.9333 121.623 56.7867 121.37 56.6C121.117 56.4133 120.893 56.21 120.7 55.99C120.513 55.77 120.357 55.54 120.23 55.3V60.22H117.79ZM122.77 55.38C123.503 55.38 124.11 55.09 124.59 54.51C125.07 53.9233 125.31 53.0067 125.31 51.76C125.31 50.68 125.083 49.83 124.63 49.21C124.183 48.5833 123.563 48.27 122.77 48.27C121.917 48.27 121.277 48.6 120.85 49.26C120.423 49.9133 120.21 50.7467 120.21 51.76C120.21 52.4133 120.303 53.0167 120.49 53.57C120.683 54.1167 120.967 54.5567 121.34 54.89C121.72 55.2167 122.197 55.38 122.77 55.38ZM133.742 57.2C133.022 57.2 132.339 57.0867 131.692 56.86C131.052 56.6267 130.512 56.2633 130.072 55.77C129.639 55.2767 129.366 54.64 129.252 53.86H131.392C131.486 54.24 131.649 54.55 131.882 54.79C132.122 55.03 132.402 55.2067 132.722 55.32C133.049 55.4267 133.386 55.48 133.732 55.48C134.352 55.48 134.852 55.3733 135.232 55.16C135.612 54.9467 135.802 54.6167 135.802 54.17C135.802 53.8433 135.696 53.5833 135.482 53.39C135.276 53.1967 134.936 53.05 134.462 52.95L132.502 52.5C131.622 52.3067 130.919 51.9867 130.392 51.54C129.866 51.0933 129.599 50.4633 129.592 49.65C129.586 49.0367 129.739 48.49 130.052 48.01C130.366 47.53 130.832 47.1533 131.452 46.88C132.072 46.6 132.836 46.46 133.742 46.46C134.949 46.46 135.916 46.73 136.642 47.27C137.376 47.8033 137.752 48.5667 137.772 49.56H135.702C135.629 49.1133 135.419 48.7667 135.072 48.52C134.726 48.2667 134.276 48.14 133.722 48.14C133.149 48.14 132.679 48.25 132.312 48.47C131.946 48.69 131.762 49.0267 131.762 49.48C131.762 49.7933 131.899 50.04 132.172 50.22C132.452 50.4 132.876 50.5533 133.442 50.68L135.302 51.13C135.836 51.2633 136.272 51.4433 136.612 51.67C136.952 51.8967 137.216 52.1467 137.402 52.42C137.596 52.6867 137.729 52.9633 137.802 53.25C137.882 53.53 137.922 53.79 137.922 54.03C137.922 54.6967 137.749 55.2667 137.402 55.74C137.062 56.2067 136.579 56.5667 135.952 56.82C135.332 57.0733 134.596 57.2 133.742 57.2ZM144.167 57.08C143.347 57.08 142.71 56.9733 142.257 56.76C141.81 56.54 141.5 56.23 141.327 55.83C141.153 55.43 141.067 54.9533 141.067 54.4V48.38H139.387V46.66H141.137L141.747 43.59H143.497V46.65H145.807V48.38H143.497L143.507 54.31C143.507 54.6167 143.54 54.8433 143.607 54.99C143.68 55.13 143.793 55.2233 143.947 55.27C144.107 55.31 144.317 55.33 144.577 55.33H145.857V56.87C145.717 56.9233 145.51 56.97 145.237 57.01C144.97 57.0567 144.613 57.08 144.167 57.08ZM148.103 57V46.66H150.433V48.9C150.599 48.3867 150.836 47.95 151.143 47.59C151.456 47.2233 151.823 46.9433 152.243 46.75C152.663 46.5567 153.119 46.46 153.613 46.46C153.733 46.46 153.849 46.4667 153.963 46.48C154.076 46.4933 154.159 46.5167 154.213 46.55V48.88C154.139 48.8467 154.043 48.8233 153.923 48.81C153.809 48.7967 153.709 48.79 153.623 48.79C153.123 48.75 152.679 48.77 152.293 48.85C151.913 48.93 151.589 49.0667 151.323 49.26C151.063 49.4467 150.866 49.6867 150.733 49.98C150.599 50.2667 150.533 50.6033 150.533 50.99V57H148.103ZM160.641 57.2C159.648 57.2 158.771 56.99 158.011 56.57C157.258 56.1433 156.668 55.5367 156.241 54.75C155.821 53.9633 155.611 53.0267 155.611 51.94C155.611 50.88 155.801 49.94 156.181 49.12C156.568 48.2933 157.125 47.6433 157.851 47.17C158.585 46.6967 159.468 46.46 160.501 46.46C161.521 46.46 162.378 46.6767 163.071 47.11C163.765 47.5433 164.291 48.15 164.651 48.93C165.011 49.7033 165.191 50.61 165.191 51.65V52.39H158.041C158.035 52.9767 158.128 53.4967 158.321 53.95C158.515 54.4033 158.801 54.76 159.181 55.02C159.561 55.2733 160.031 55.4 160.591 55.4C161.165 55.4 161.661 55.2733 162.081 55.02C162.508 54.76 162.791 54.3667 162.931 53.84H165.151C165.031 54.56 164.745 55.17 164.291 55.67C163.845 56.17 163.298 56.55 162.651 56.81C162.011 57.07 161.341 57.2 160.641 57.2ZM158.031 50.88H162.891C162.891 50.38 162.801 49.93 162.621 49.53C162.448 49.1233 162.185 48.8033 161.831 48.57C161.478 48.33 161.031 48.21 160.491 48.21C159.958 48.21 159.508 48.34 159.141 48.6C158.775 48.86 158.498 49.1967 158.311 49.61C158.125 50.0167 158.031 50.44 158.031 50.88ZM170.409 57.2C169.749 57.2 169.156 57.08 168.629 56.84C168.109 56.5933 167.699 56.2433 167.399 55.79C167.106 55.33 166.959 54.7733 166.959 54.12C166.959 52.98 167.369 52.12 168.189 51.54C169.016 50.96 170.329 50.6567 172.129 50.63L173.679 50.59V49.89C173.679 49.3433 173.516 48.9167 173.189 48.61C172.869 48.2967 172.369 48.1433 171.689 48.15C171.182 48.1567 170.722 48.2767 170.309 48.51C169.896 48.7367 169.622 49.12 169.489 49.66H167.419C167.459 48.9533 167.662 48.3633 168.029 47.89C168.402 47.41 168.912 47.0533 169.559 46.82C170.206 46.58 170.952 46.46 171.799 46.46C172.786 46.46 173.589 46.59 174.209 46.85C174.829 47.11 175.286 47.4867 175.579 47.98C175.872 48.4667 176.019 49.0567 176.019 49.75V57H173.969L173.769 55.14C173.402 55.92 172.932 56.46 172.359 56.76C171.792 57.0533 171.142 57.2 170.409 57.2ZM171.199 55.55C171.499 55.55 171.796 55.4967 172.089 55.39C172.382 55.2767 172.646 55.1267 172.879 54.94C173.119 54.7467 173.309 54.5333 173.449 54.3C173.596 54.0667 173.672 53.8233 173.679 53.57V51.94L172.409 51.96C171.782 51.9667 171.232 52.0333 170.759 52.16C170.292 52.2867 169.929 52.49 169.669 52.77C169.409 53.0433 169.279 53.41 169.279 53.87C169.279 54.3967 169.462 54.81 169.829 55.11C170.196 55.4033 170.652 55.55 171.199 55.55ZM178.61 57V46.66H180.98V48.14C181.28 47.6867 181.687 47.2933 182.2 46.96C182.72 46.6267 183.38 46.46 184.18 46.46C184.547 46.46 184.917 46.5233 185.29 46.65C185.67 46.7767 186.02 46.9633 186.34 47.21C186.667 47.4567 186.927 47.7633 187.12 48.13C187.447 47.6433 187.88 47.2433 188.42 46.93C188.967 46.6167 189.58 46.46 190.26 46.46C190.634 46.46 191.017 46.52 191.41 46.64C191.81 46.76 192.177 46.96 192.51 47.24C192.844 47.52 193.114 47.9033 193.32 48.39C193.527 48.87 193.63 49.4733 193.63 50.2V57H191.2V50.49C191.2 49.9767 191.11 49.5733 190.93 49.28C190.75 48.9867 190.517 48.78 190.23 48.66C189.95 48.5333 189.65 48.47 189.33 48.47C189.044 48.47 188.744 48.5267 188.43 48.64C188.124 48.7533 187.86 48.94 187.64 49.2C187.427 49.46 187.32 49.81 187.32 50.25V57H184.89V50.1C184.89 49.74 184.797 49.44 184.61 49.2C184.424 48.96 184.187 48.78 183.9 48.66C183.62 48.5333 183.334 48.47 183.04 48.47C182.74 48.47 182.434 48.5333 182.12 48.66C181.814 48.7867 181.557 48.98 181.35 49.24C181.144 49.5 181.04 49.8367 181.04 50.25V57H178.61Z" fill="white"/>
<path d="M111.027 85.2C109.68 85.2 108.613 84.74 107.827 83.82C107.047 82.9 106.657 81.5567 106.657 79.79C106.657 78.7167 106.813 77.78 107.127 76.98C107.44 76.18 107.91 75.56 108.537 75.12C109.163 74.68 109.943 74.46 110.877 74.46C111.377 74.46 111.817 74.5233 112.197 74.65C112.577 74.7767 112.907 74.9367 113.187 75.13C113.467 75.3233 113.693 75.5233 113.867 75.73C114.047 75.9367 114.18 76.1267 114.267 76.3V70.14H116.137V85H114.717L114.517 82.88C114.45 83.08 114.343 83.3133 114.197 83.58C114.05 83.84 113.843 84.0967 113.577 84.35C113.317 84.5967 112.977 84.8 112.557 84.96C112.137 85.12 111.627 85.2 111.027 85.2ZM111.357 83.78C112.397 83.78 113.14 83.4633 113.587 82.83C114.04 82.19 114.267 81.1467 114.267 79.7C114.26 78.8933 114.16 78.2067 113.967 77.64C113.773 77.0733 113.467 76.6433 113.047 76.35C112.633 76.05 112.08 75.9 111.387 75.9C110.54 75.9 109.85 76.2033 109.317 76.81C108.783 77.4167 108.517 78.38 108.517 79.7C108.517 80.9933 108.757 81.9967 109.237 82.71C109.717 83.4233 110.423 83.78 111.357 83.78ZM122.09 85.2C121.417 85.2 120.823 85.0833 120.31 84.85C119.803 84.61 119.403 84.2667 119.11 83.82C118.823 83.3733 118.68 82.8333 118.68 82.2C118.68 81.0533 119.08 80.2 119.88 79.64C120.68 79.08 121.963 78.78 123.73 78.74L125.57 78.69V77.88C125.57 77.2467 125.38 76.7467 125 76.38C124.62 76.0067 124.033 75.82 123.24 75.82C122.647 75.8267 122.123 75.9667 121.67 76.24C121.217 76.5133 120.927 76.96 120.8 77.58H119.17C119.21 76.9067 119.397 76.34 119.73 75.88C120.07 75.4133 120.547 75.06 121.16 74.82C121.773 74.58 122.497 74.46 123.33 74.46C124.23 74.46 124.977 74.5867 125.57 74.84C126.17 75.0933 126.617 75.4667 126.91 75.96C127.21 76.4533 127.36 77.06 127.36 77.78V85H125.78L125.64 83.06C125.247 83.8667 124.74 84.4267 124.12 84.74C123.507 85.0467 122.83 85.2 122.09 85.2ZM122.64 83.87C122.993 83.87 123.34 83.8067 123.68 83.68C124.027 83.5533 124.34 83.3833 124.62 83.17C124.907 82.95 125.137 82.7067 125.31 82.44C125.483 82.1667 125.57 81.8867 125.57 81.6V79.83L124.04 79.86C123.247 79.8733 122.587 79.9533 122.06 80.1C121.533 80.2467 121.137 80.4767 120.87 80.79C120.603 81.1033 120.47 81.5133 120.47 82.02C120.47 82.6 120.673 83.0533 121.08 83.38C121.487 83.7067 122.007 83.87 122.64 83.87ZM133.605 85.05C132.892 85.05 132.338 84.9533 131.945 84.76C131.552 84.5667 131.275 84.28 131.115 83.9C130.962 83.52 130.885 83.0533 130.885 82.5V76.01H129.205V74.66H130.935L131.385 71.65H132.745V74.65H135.075V76.01H132.745V82.44C132.745 82.8067 132.782 83.0767 132.855 83.25C132.935 83.4167 133.065 83.5233 133.245 83.57C133.425 83.6167 133.678 83.64 134.005 83.64H135.135V84.88C135.008 84.9267 134.815 84.9667 134.555 85C134.302 85.0333 133.985 85.05 133.605 85.05ZM140.43 85.2C139.757 85.2 139.163 85.0833 138.65 84.85C138.143 84.61 137.743 84.2667 137.45 83.82C137.163 83.3733 137.02 82.8333 137.02 82.2C137.02 81.0533 137.42 80.2 138.22 79.64C139.02 79.08 140.303 78.78 142.07 78.74L143.91 78.69V77.88C143.91 77.2467 143.72 76.7467 143.34 76.38C142.96 76.0067 142.373 75.82 141.58 75.82C140.987 75.8267 140.463 75.9667 140.01 76.24C139.557 76.5133 139.267 76.96 139.14 77.58H137.51C137.55 76.9067 137.737 76.34 138.07 75.88C138.41 75.4133 138.887 75.06 139.5 74.82C140.113 74.58 140.837 74.46 141.67 74.46C142.57 74.46 143.317 74.5867 143.91 74.84C144.51 75.0933 144.957 75.4667 145.25 75.96C145.55 76.4533 145.7 77.06 145.7 77.78V85H144.12L143.98 83.06C143.587 83.8667 143.08 84.4267 142.46 84.74C141.847 85.0467 141.17 85.2 140.43 85.2ZM140.98 83.87C141.333 83.87 141.68 83.8067 142.02 83.68C142.367 83.5533 142.68 83.3833 142.96 83.17C143.247 82.95 143.477 82.7067 143.65 82.44C143.823 82.1667 143.91 81.8867 143.91 81.6V79.83L142.38 79.86C141.587 79.8733 140.927 79.9533 140.4 80.1C139.873 80.2467 139.477 80.4767 139.21 80.79C138.943 81.1033 138.81 81.5133 138.81 82.02C138.81 82.6 139.013 83.0533 139.42 83.38C139.827 83.7067 140.347 83.87 140.98 83.87ZM153.695 85.2C153.088 85.2 152.575 85.12 152.155 84.96C151.741 84.8 151.401 84.5967 151.135 84.35C150.868 84.0967 150.661 83.84 150.515 83.58C150.368 83.3133 150.261 83.08 150.195 82.88L149.995 85H148.585V70.14H150.445V76.3C150.531 76.1267 150.661 75.9367 150.835 75.73C151.015 75.5233 151.245 75.3233 151.525 75.13C151.805 74.9367 152.135 74.7767 152.515 74.65C152.901 74.5233 153.341 74.46 153.835 74.46C155.128 74.46 156.155 74.91 156.915 75.81C157.681 76.71 158.065 78.0367 158.065 79.79C158.065 80.8767 157.901 81.8267 157.575 82.64C157.248 83.4467 156.761 84.0767 156.115 84.53C155.468 84.9767 154.661 85.2 153.695 85.2ZM153.365 83.78C154.205 83.78 154.888 83.4567 155.415 82.81C155.941 82.1567 156.205 81.12 156.205 79.7C156.205 78.4933 155.958 77.56 155.465 76.9C154.978 76.2333 154.265 75.9 153.325 75.9C152.638 75.9 152.085 76.05 151.665 76.35C151.251 76.6433 150.945 77.0733 150.745 77.64C150.551 78.2067 150.451 78.8933 150.445 79.7C150.445 81.1467 150.668 82.19 151.115 82.83C151.568 83.4633 152.318 83.78 153.365 83.78ZM163.301 85.2C162.628 85.2 162.034 85.0833 161.521 84.85C161.014 84.61 160.614 84.2667 160.321 83.82C160.034 83.3733 159.891 82.8333 159.891 82.2C159.891 81.0533 160.291 80.2 161.091 79.64C161.891 79.08 163.174 78.78 164.941 78.74L166.781 78.69V77.88C166.781 77.2467 166.591 76.7467 166.211 76.38C165.831 76.0067 165.244 75.82 164.451 75.82C163.858 75.8267 163.334 75.9667 162.881 76.24C162.428 76.5133 162.138 76.96 162.011 77.58H160.381C160.421 76.9067 160.608 76.34 160.941 75.88C161.281 75.4133 161.758 75.06 162.371 74.82C162.984 74.58 163.708 74.46 164.541 74.46C165.441 74.46 166.188 74.5867 166.781 74.84C167.381 75.0933 167.828 75.4667 168.121 75.96C168.421 76.4533 168.571 77.06 168.571 77.78V85H166.991L166.851 83.06C166.458 83.8667 165.951 84.4267 165.331 84.74C164.718 85.0467 164.041 85.2 163.301 85.2ZM163.851 83.87C164.204 83.87 164.551 83.8067 164.891 83.68C165.238 83.5533 165.551 83.3833 165.831 83.17C166.118 82.95 166.348 82.7067 166.521 82.44C166.694 82.1667 166.781 81.8867 166.781 81.6V79.83L165.251 79.86C164.458 79.8733 163.798 79.9533 163.271 80.1C162.744 80.2467 162.348 80.4767 162.081 80.79C161.814 81.1033 161.681 81.5133 161.681 82.02C161.681 82.6 161.884 83.0533 162.291 83.38C162.698 83.7067 163.218 83.87 163.851 83.87ZM175.078 85.2C174.358 85.2 173.688 85.09 173.068 84.87C172.455 84.6433 171.945 84.2933 171.538 83.82C171.131 83.34 170.878 82.73 170.778 81.99H172.458C172.545 82.3967 172.711 82.7367 172.958 83.01C173.205 83.2767 173.508 83.48 173.868 83.62C174.235 83.7533 174.635 83.82 175.068 83.82C175.768 83.82 176.331 83.69 176.758 83.43C177.185 83.17 177.398 82.77 177.398 82.23C177.398 81.85 177.285 81.5467 177.058 81.32C176.838 81.0867 176.491 80.9167 176.018 80.81L173.878 80.28C173.045 80.08 172.378 79.7667 171.878 79.34C171.385 78.9133 171.135 78.3167 171.128 77.55C171.128 76.9433 171.275 76.41 171.568 75.95C171.861 75.49 172.298 75.1267 172.878 74.86C173.465 74.5933 174.195 74.46 175.068 74.46C176.195 74.46 177.101 74.7133 177.788 75.22C178.475 75.72 178.835 76.4567 178.868 77.43H177.228C177.161 76.9367 176.941 76.5467 176.568 76.26C176.195 75.9667 175.688 75.82 175.048 75.82C174.395 75.82 173.858 75.9533 173.438 76.22C173.025 76.48 172.818 76.8867 172.818 77.44C172.818 77.8067 172.965 78.0967 173.258 78.31C173.558 78.5167 173.991 78.69 174.558 78.83L176.638 79.35C177.111 79.4767 177.505 79.6433 177.818 79.85C178.131 80.0567 178.378 80.2867 178.558 80.54C178.738 80.7933 178.865 81.06 178.938 81.34C179.018 81.6133 179.058 81.8767 179.058 82.13C179.058 82.7633 178.901 83.31 178.588 83.77C178.275 84.2233 177.821 84.5767 177.228 84.83C176.635 85.0767 175.918 85.2 175.078 85.2ZM185.845 85.2C184.885 85.2 184.039 84.99 183.305 84.57C182.572 84.15 181.999 83.5467 181.585 82.76C181.172 81.9733 180.965 81.03 180.965 79.93C180.965 78.8433 181.152 77.89 181.525 77.07C181.899 76.25 182.439 75.61 183.145 75.15C183.859 74.69 184.715 74.46 185.715 74.46C186.689 74.46 187.512 74.67 188.185 75.09C188.859 75.51 189.369 76.1033 189.715 76.87C190.069 77.63 190.245 78.5333 190.245 79.58V80.26H182.835C182.835 80.9133 182.942 81.5067 183.155 82.04C183.375 82.5667 183.705 82.9867 184.145 83.3C184.585 83.6133 185.142 83.77 185.815 83.77C186.475 83.77 187.042 83.6167 187.515 83.31C187.995 83.0033 188.302 82.56 188.435 81.98H190.175C190.055 82.68 189.775 83.27 189.335 83.75C188.902 84.23 188.379 84.5933 187.765 84.84C187.159 85.08 186.519 85.2 185.845 85.2ZM182.845 79.01H188.465C188.465 78.4167 188.365 77.8833 188.165 77.41C187.965 76.93 187.659 76.5533 187.245 76.28C186.839 76 186.325 75.86 185.705 75.86C185.059 75.86 184.522 76.0167 184.095 76.33C183.669 76.6367 183.352 77.0333 183.145 77.52C182.939 78 182.839 78.4967 182.845 79.01Z" fill="white"/>
<path d="M384 64C384 28.6538 412.654 0 448 0H617C652.346 0 681 28.6538 681 64V64C681 99.3462 652.346 128 617 128H448C412.654 128 384 99.3462 384 64V64Z" fill="#1A1B1D"/>
<path d="M441.392 57.2C440.058 57.2 438.982 56.98 438.162 56.54C437.348 56.0933 436.758 55.4533 436.392 54.62C436.025 53.78 435.842 52.7667 435.842 51.58V42.54H438.332V51.83C438.332 52.95 438.605 53.7767 439.152 54.31C439.705 54.8433 440.452 55.11 441.392 55.11C442.025 55.11 442.575 54.9933 443.042 54.76C443.508 54.5267 443.868 54.17 444.122 53.69C444.375 53.2033 444.502 52.5833 444.502 51.83V42.54H446.962V51.72C446.962 52.8667 446.775 53.85 446.402 54.67C446.028 55.4833 445.432 56.11 444.612 56.55C443.798 56.9833 442.725 57.2 441.392 57.2ZM453.709 57.2C452.989 57.2 452.306 57.0867 451.659 56.86C451.019 56.6267 450.479 56.2633 450.039 55.77C449.606 55.2767 449.332 54.64 449.219 53.86H451.359C451.452 54.24 451.616 54.55 451.849 54.79C452.089 55.03 452.369 55.2067 452.689 55.32C453.016 55.4267 453.352 55.48 453.699 55.48C454.319 55.48 454.819 55.3733 455.199 55.16C455.579 54.9467 455.769 54.6167 455.769 54.17C455.769 53.8433 455.662 53.5833 455.449 53.39C455.242 53.1967 454.902 53.05 454.429 52.95L452.469 52.5C451.589 52.3067 450.886 51.9867 450.359 51.54C449.832 51.0933 449.566 50.4633 449.559 49.65C449.552 49.0367 449.706 48.49 450.019 48.01C450.332 47.53 450.799 47.1533 451.419 46.88C452.039 46.6 452.802 46.46 453.709 46.46C454.916 46.46 455.882 46.73 456.609 47.27C457.342 47.8033 457.719 48.5667 457.739 49.56H455.669C455.596 49.1133 455.386 48.7667 455.039 48.52C454.692 48.2667 454.242 48.14 453.689 48.14C453.116 48.14 452.646 48.25 452.279 48.47C451.912 48.69 451.729 49.0267 451.729 49.48C451.729 49.7933 451.866 50.04 452.139 50.22C452.419 50.4 452.842 50.5533 453.409 50.68L455.269 51.13C455.802 51.2633 456.239 51.4433 456.579 51.67C456.919 51.8967 457.182 52.1467 457.369 52.42C457.562 52.6867 457.696 52.9633 457.769 53.25C457.849 53.53 457.889 53.79 457.889 54.03C457.889 54.6967 457.716 55.2667 457.369 55.74C457.029 56.2067 456.546 56.5667 455.919 56.82C455.299 57.0733 454.562 57.2 453.709 57.2ZM464.671 57.2C463.677 57.2 462.801 56.99 462.041 56.57C461.287 56.1433 460.697 55.5367 460.271 54.75C459.851 53.9633 459.641 53.0267 459.641 51.94C459.641 50.88 459.831 49.94 460.211 49.12C460.597 48.2933 461.154 47.6433 461.881 47.17C462.614 46.6967 463.497 46.46 464.531 46.46C465.551 46.46 466.407 46.6767 467.101 47.11C467.794 47.5433 468.321 48.15 468.681 48.93C469.041 49.7033 469.221 50.61 469.221 51.65V52.39H462.071C462.064 52.9767 462.157 53.4967 462.351 53.95C462.544 54.4033 462.831 54.76 463.211 55.02C463.591 55.2733 464.061 55.4 464.621 55.4C465.194 55.4 465.691 55.2733 466.111 55.02C466.537 54.76 466.821 54.3667 466.961 53.84H469.181C469.061 54.56 468.774 55.17 468.321 55.67C467.874 56.17 467.327 56.55 466.681 56.81C466.041 57.07 465.371 57.2 464.671 57.2ZM462.061 50.88H466.921C466.921 50.38 466.831 49.93 466.651 49.53C466.477 49.1233 466.214 48.8033 465.861 48.57C465.507 48.33 465.061 48.21 464.521 48.21C463.987 48.21 463.537 48.34 463.171 48.6C462.804 48.86 462.527 49.1967 462.341 49.61C462.154 50.0167 462.061 50.44 462.061 50.88ZM471.546 57V46.66H473.876V48.9C474.043 48.3867 474.279 47.95 474.586 47.59C474.899 47.2233 475.266 46.9433 475.686 46.75C476.106 46.5567 476.563 46.46 477.056 46.46C477.176 46.46 477.293 46.4667 477.406 46.48C477.519 46.4933 477.603 46.5167 477.656 46.55V48.88C477.583 48.8467 477.486 48.8233 477.366 48.81C477.253 48.7967 477.153 48.79 477.066 48.79C476.566 48.75 476.123 48.77 475.736 48.85C475.356 48.93 475.033 49.0667 474.766 49.26C474.506 49.4467 474.309 49.6867 474.176 49.98C474.043 50.2667 473.976 50.6033 473.976 50.99V57H471.546ZM489.721 57.2C489.168 57.2 488.694 57.1267 488.301 56.98C487.908 56.8333 487.578 56.6433 487.311 56.41C487.051 56.1767 486.841 55.9267 486.681 55.66C486.528 55.3867 486.411 55.1267 486.331 54.88L486.051 57H484.261V42.14H486.701V48.17C486.808 47.97 486.954 47.77 487.141 47.57C487.334 47.37 487.568 47.1867 487.841 47.02C488.114 46.8533 488.424 46.72 488.771 46.62C489.124 46.5133 489.514 46.46 489.941 46.46C491.228 46.46 492.244 46.9167 492.991 47.83C493.738 48.7433 494.111 50.06 494.111 51.78C494.111 52.8667 493.944 53.8167 493.611 54.63C493.284 55.4433 492.794 56.0767 492.141 56.53C491.494 56.9767 490.688 57.2 489.721 57.2ZM489.221 55.41C489.948 55.41 490.544 55.12 491.011 54.54C491.478 53.96 491.711 53.02 491.711 51.72C491.711 50.5867 491.491 49.73 491.051 49.15C490.611 48.5633 489.991 48.27 489.191 48.27C488.618 48.27 488.148 48.4 487.781 48.66C487.421 48.92 487.151 49.3067 486.971 49.82C486.798 50.3333 486.708 50.9667 486.701 51.72C486.701 53.04 486.901 53.9867 487.301 54.56C487.708 55.1267 488.348 55.41 489.221 55.41ZM499.204 57.2C498.544 57.2 497.951 57.08 497.424 56.84C496.904 56.5933 496.494 56.2433 496.194 55.79C495.901 55.33 495.754 54.7733 495.754 54.12C495.754 52.98 496.164 52.12 496.984 51.54C497.811 50.96 499.124 50.6567 500.924 50.63L502.474 50.59V49.89C502.474 49.3433 502.311 48.9167 501.984 48.61C501.664 48.2967 501.164 48.1433 500.484 48.15C499.977 48.1567 499.517 48.2767 499.104 48.51C498.691 48.7367 498.417 49.12 498.284 49.66H496.214C496.254 48.9533 496.457 48.3633 496.824 47.89C497.197 47.41 497.707 47.0533 498.354 46.82C499.001 46.58 499.747 46.46 500.594 46.46C501.581 46.46 502.384 46.59 503.004 46.85C503.624 47.11 504.081 47.4867 504.374 47.98C504.667 48.4667 504.814 49.0567 504.814 49.75V57H502.764L502.564 55.14C502.197 55.92 501.727 56.46 501.154 56.76C500.587 57.0533 499.937 57.2 499.204 57.2ZM499.994 55.55C500.294 55.55 500.591 55.4967 500.884 55.39C501.177 55.2767 501.441 55.1267 501.674 54.94C501.914 54.7467 502.104 54.5333 502.244 54.3C502.391 54.0667 502.467 53.8233 502.474 53.57V51.94L501.204 51.96C500.577 51.9667 500.027 52.0333 499.554 52.16C499.087 52.2867 498.724 52.49 498.464 52.77C498.204 53.0433 498.074 53.41 498.074 53.87C498.074 54.3967 498.257 54.81 498.624 55.11C498.991 55.4033 499.447 55.55 499.994 55.55ZM511.745 57.2C510.799 57.2 509.955 56.9933 509.215 56.58C508.482 56.16 507.905 55.5533 507.485 54.76C507.065 53.96 506.855 52.9967 506.855 51.87C506.855 50.7967 507.052 49.8567 507.445 49.05C507.845 48.2367 508.409 47.6033 509.135 47.15C509.869 46.69 510.739 46.46 511.745 46.46C512.552 46.46 513.262 46.62 513.875 46.94C514.489 47.26 514.979 47.7033 515.345 48.27C515.719 48.8367 515.942 49.48 516.015 50.2H513.945C513.892 49.8867 513.775 49.59 513.595 49.31C513.415 49.0233 513.172 48.7933 512.865 48.62C512.565 48.44 512.199 48.35 511.765 48.35C510.985 48.35 510.355 48.6367 509.875 49.21C509.395 49.7833 509.155 50.6633 509.155 51.85C509.155 52.9433 509.382 53.8133 509.835 54.46C510.295 55.1067 510.952 55.43 511.805 55.43C512.232 55.43 512.599 55.3367 512.905 55.15C513.212 54.9567 513.452 54.72 513.625 54.44C513.805 54.1533 513.919 53.8667 513.965 53.58H515.985C515.925 54.28 515.709 54.9033 515.335 55.45C514.962 55.9967 514.469 56.4267 513.855 56.74C513.242 57.0467 512.539 57.2 511.745 57.2ZM518.226 57V42.14H520.646V51.35L524.936 46.66H527.606L523.866 50.7L527.796 57H525.326L522.326 52.21L520.646 53.97V57H518.226ZM533.256 57.2C532.75 57.2 532.26 57.1267 531.786 56.98C531.32 56.8267 530.9 56.6067 530.526 56.32C530.153 56.0267 529.856 55.6667 529.636 55.24C529.416 54.8133 529.306 54.3167 529.306 53.75V46.66H531.746V53.47C531.746 54.03 531.923 54.49 532.276 54.85C532.636 55.21 533.176 55.39 533.896 55.39C534.55 55.39 535.073 55.22 535.466 54.88C535.86 54.5333 536.056 54.0367 536.056 53.39V46.66H538.476V57H536.606L536.336 54.98C536.21 55.5467 535.986 55.9933 535.666 56.32C535.353 56.64 534.983 56.8667 534.556 57C534.136 57.1333 533.703 57.2 533.256 57.2ZM541.331 60.22V46.66H543.761L543.781 48.29C543.915 48.0633 544.085 47.84 544.291 47.62C544.505 47.4 544.748 47.2033 545.021 47.03C545.301 46.8567 545.611 46.72 545.951 46.62C546.291 46.5133 546.665 46.46 547.071 46.46C547.865 46.46 548.568 46.65 549.181 47.03C549.795 47.4033 550.275 47.98 550.621 48.76C550.975 49.54 551.151 50.5267 551.151 51.72C551.151 52.94 550.971 53.9567 550.611 54.77C550.251 55.5833 549.748 56.1933 549.101 56.6C548.455 57 547.705 57.2 546.851 57.2C546.458 57.2 546.098 57.1467 545.771 57.04C545.451 56.9333 545.165 56.7867 544.911 56.6C544.658 56.4133 544.435 56.21 544.241 55.99C544.055 55.77 543.898 55.54 543.771 55.3V60.22H541.331ZM546.311 55.38C547.045 55.38 547.651 55.09 548.131 54.51C548.611 53.9233 548.851 53.0067 548.851 51.76C548.851 50.68 548.625 49.83 548.171 49.21C547.725 48.5833 547.105 48.27 546.311 48.27C545.458 48.27 544.818 48.6 544.391 49.26C543.965 49.9133 543.751 50.7467 543.751 51.76C543.751 52.4133 543.845 53.0167 544.031 53.57C544.225 54.1167 544.508 54.5567 544.881 54.89C545.261 55.2167 545.738 55.38 546.311 55.38ZM557.933 60.22V46.66H560.363L560.383 48.29C560.516 48.0633 560.686 47.84 560.893 47.62C561.106 47.4 561.349 47.2033 561.623 47.03C561.903 46.8567 562.213 46.72 562.553 46.62C562.893 46.5133 563.266 46.46 563.673 46.46C564.466 46.46 565.169 46.65 565.783 47.03C566.396 47.4033 566.876 47.98 567.223 48.76C567.576 49.54 567.753 50.5267 567.753 51.72C567.753 52.94 567.573 53.9567 567.213 54.77C566.853 55.5833 566.349 56.1933 565.703 56.6C565.056 57 564.306 57.2 563.453 57.2C563.059 57.2 562.699 57.1467 562.373 57.04C562.053 56.9333 561.766 56.7867 561.513 56.6C561.259 56.4133 561.036 56.21 560.843 55.99C560.656 55.77 560.499 55.54 560.373 55.3V60.22H557.933ZM562.913 55.38C563.646 55.38 564.253 55.09 564.733 54.51C565.213 53.9233 565.453 53.0067 565.453 51.76C565.453 50.68 565.226 49.83 564.773 49.21C564.326 48.5833 563.706 48.27 562.913 48.27C562.059 48.27 561.419 48.6 560.993 49.26C560.566 49.9133 560.353 50.7467 560.353 51.76C560.353 52.4133 560.446 53.0167 560.633 53.57C560.826 54.1167 561.109 54.5567 561.483 54.89C561.863 55.2167 562.339 55.38 562.913 55.38ZM569.964 57V46.66H572.294V48.9C572.461 48.3867 572.697 47.95 573.004 47.59C573.317 47.2233 573.684 46.9433 574.104 46.75C574.524 46.5567 574.981 46.46 575.474 46.46C575.594 46.46 575.711 46.4667 575.824 46.48C575.937 46.4933 576.021 46.5167 576.074 46.55V48.88C576.001 48.8467 575.904 48.8233 575.784 48.81C575.671 48.7967 575.571 48.79 575.484 48.79C574.984 48.75 574.541 48.77 574.154 48.85C573.774 48.93 573.451 49.0667 573.184 49.26C572.924 49.4467 572.727 49.6867 572.594 49.98C572.461 50.2667 572.394 50.6033 572.394 50.99V57H569.964ZM582.273 57.2C581.286 57.2 580.426 56.99 579.693 56.57C578.959 56.1433 578.389 55.5333 577.983 54.74C577.583 53.9467 577.383 52.9933 577.383 51.88C577.383 50.8 577.579 49.8533 577.973 49.04C578.366 48.2267 578.926 47.5933 579.653 47.14C580.386 46.6867 581.263 46.46 582.283 46.46C583.269 46.46 584.126 46.6767 584.853 47.11C585.579 47.5433 586.139 48.1633 586.533 48.97C586.933 49.7767 587.133 50.7467 587.133 51.88C587.133 52.9267 586.943 53.85 586.563 54.65C586.189 55.4433 585.639 56.0667 584.913 56.52C584.193 56.9733 583.313 57.2 582.273 57.2ZM582.283 55.35C582.843 55.35 583.303 55.1967 583.663 54.89C584.029 54.5833 584.303 54.1633 584.483 53.63C584.663 53.0967 584.753 52.49 584.753 51.81C584.753 51.1767 584.673 50.5933 584.513 50.06C584.353 49.5267 584.089 49.1 583.723 48.78C583.363 48.4533 582.883 48.29 582.283 48.29C581.716 48.29 581.246 48.44 580.873 48.74C580.506 49.0333 580.233 49.4467 580.053 49.98C579.873 50.5067 579.783 51.1167 579.783 51.81C579.783 52.4367 579.863 53.02 580.023 53.56C580.183 54.0933 580.446 54.5267 580.813 54.86C581.179 55.1867 581.669 55.35 582.283 55.35ZM593.699 57.2C592.752 57.2 591.909 56.9933 591.169 56.58C590.435 56.16 589.859 55.5533 589.439 54.76C589.019 53.96 588.809 52.9967 588.809 51.87C588.809 50.7967 589.005 49.8567 589.399 49.05C589.799 48.2367 590.362 47.6033 591.089 47.15C591.822 46.69 592.692 46.46 593.699 46.46C594.505 46.46 595.215 46.62 595.829 46.94C596.442 47.26 596.932 47.7033 597.299 48.27C597.672 48.8367 597.895 49.48 597.969 50.2H595.899C595.845 49.8867 595.729 49.59 595.549 49.31C595.369 49.0233 595.125 48.7933 594.819 48.62C594.519 48.44 594.152 48.35 593.719 48.35C592.939 48.35 592.309 48.6367 591.829 49.21C591.349 49.7833 591.109 50.6633 591.109 51.85C591.109 52.9433 591.335 53.8133 591.789 54.46C592.249 55.1067 592.905 55.43 593.759 55.43C594.185 55.43 594.552 55.3367 594.859 55.15C595.165 54.9567 595.405 54.72 595.579 54.44C595.759 54.1533 595.872 53.8667 595.919 53.58H597.939C597.879 54.28 597.662 54.9033 597.289 55.45C596.915 55.9967 596.422 56.4267 595.809 56.74C595.195 57.0467 594.492 57.2 593.699 57.2ZM604.807 57.2C603.814 57.2 602.937 56.99 602.177 56.57C601.424 56.1433 600.834 55.5367 600.407 54.75C599.987 53.9633 599.777 53.0267 599.777 51.94C599.777 50.88 599.967 49.94 600.347 49.12C600.734 48.2933 601.291 47.6433 602.017 47.17C602.751 46.6967 603.634 46.46 604.667 46.46C605.687 46.46 606.544 46.6767 607.237 47.11C607.931 47.5433 608.457 48.15 608.817 48.93C609.177 49.7033 609.357 50.61 609.357 51.65V52.39H602.207C602.201 52.9767 602.294 53.4967 602.487 53.95C602.681 54.4033 602.967 54.76 603.347 55.02C603.727 55.2733 604.197 55.4 604.757 55.4C605.331 55.4 605.827 55.2733 606.247 55.02C606.674 54.76 606.957 54.3667 607.097 53.84H609.317C609.197 54.56 608.911 55.17 608.457 55.67C608.011 56.17 607.464 56.55 606.817 56.81C606.177 57.07 605.507 57.2 604.807 57.2ZM602.197 50.88H607.057C607.057 50.38 606.967 49.93 606.787 49.53C606.614 49.1233 606.351 48.8033 605.997 48.57C605.644 48.33 605.197 48.21 604.657 48.21C604.124 48.21 603.674 48.34 603.307 48.6C602.941 48.86 602.664 49.1967 602.477 49.61C602.291 50.0167 602.197 50.44 602.197 50.88ZM615.604 57.2C614.884 57.2 614.2 57.0867 613.554 56.86C612.914 56.6267 612.374 56.2633 611.934 55.77C611.5 55.2767 611.227 54.64 611.114 53.86H613.254C613.347 54.24 613.51 54.55 613.744 54.79C613.984 55.03 614.264 55.2067 614.584 55.32C614.91 55.4267 615.247 55.48 615.594 55.48C616.214 55.48 616.714 55.3733 617.094 55.16C617.474 54.9467 617.664 54.6167 617.664 54.17C617.664 53.8433 617.557 53.5833 617.344 53.39C617.137 53.1967 616.797 53.05 616.324 52.95L614.364 52.5C613.484 52.3067 612.78 51.9867 612.254 51.54C611.727 51.0933 611.46 50.4633 611.454 49.65C611.447 49.0367 611.6 48.49 611.914 48.01C612.227 47.53 612.694 47.1533 613.314 46.88C613.934 46.6 614.697 46.46 615.604 46.46C616.81 46.46 617.777 46.73 618.504 47.27C619.237 47.8033 619.614 48.5667 619.634 49.56H617.564C617.49 49.1133 617.28 48.7667 616.934 48.52C616.587 48.2667 616.137 48.14 615.584 48.14C615.01 48.14 614.54 48.25 614.174 48.47C613.807 48.69 613.624 49.0267 613.624 49.48C613.624 49.7933 613.76 50.04 614.034 50.22C614.314 50.4 614.737 50.5533 615.304 50.68L617.164 51.13C617.697 51.2633 618.134 51.4433 618.474 51.67C618.814 51.8967 619.077 52.1467 619.264 52.42C619.457 52.6867 619.59 52.9633 619.664 53.25C619.744 53.53 619.784 53.79 619.784 54.03C619.784 54.6967 619.61 55.2667 619.264 55.74C618.924 56.2067 618.44 56.5667 617.814 56.82C617.194 57.0733 616.457 57.2 615.604 57.2ZM625.897 57.2C625.177 57.2 624.493 57.0867 623.847 56.86C623.207 56.6267 622.667 56.2633 622.227 55.77C621.793 55.2767 621.52 54.64 621.407 53.86H623.547C623.64 54.24 623.803 54.55 624.037 54.79C624.277 55.03 624.557 55.2067 624.877 55.32C625.203 55.4267 625.54 55.48 625.887 55.48C626.507 55.48 627.007 55.3733 627.387 55.16C627.767 54.9467 627.957 54.6167 627.957 54.17C627.957 53.8433 627.85 53.5833 627.637 53.39C627.43 53.1967 627.09 53.05 626.617 52.95L624.657 52.5C623.777 52.3067 623.073 51.9867 622.547 51.54C622.02 51.0933 621.753 50.4633 621.747 49.65C621.74 49.0367 621.893 48.49 622.207 48.01C622.52 47.53 622.987 47.1533 623.607 46.88C624.227 46.6 624.99 46.46 625.897 46.46C627.103 46.46 628.07 46.73 628.797 47.27C629.53 47.8033 629.907 48.5667 629.927 49.56H627.857C627.783 49.1133 627.573 48.7667 627.227 48.52C626.88 48.2667 626.43 48.14 625.877 48.14C625.303 48.14 624.833 48.25 624.467 48.47C624.1 48.69 623.917 49.0267 623.917 49.48C623.917 49.7933 624.053 50.04 624.327 50.22C624.607 50.4 625.03 50.5533 625.597 50.68L627.457 51.13C627.99 51.2633 628.427 51.4433 628.767 51.67C629.107 51.8967 629.37 52.1467 629.557 52.42C629.75 52.6867 629.883 52.9633 629.957 53.25C630.037 53.53 630.077 53.79 630.077 54.03C630.077 54.6967 629.903 55.2667 629.557 55.74C629.217 56.2067 628.733 56.5667 628.107 56.82C627.487 57.0733 626.75 57.2 625.897 57.2Z" fill="white"/>
<path d="M434.206 85V70.14H436.046V79.83L440.906 74.66H443.026L439.296 78.6L443.286 85H441.326L438.086 79.81L436.046 81.92V85H434.206ZM449.338 85.2C448.378 85.2 447.531 84.99 446.798 84.57C446.064 84.15 445.491 83.5467 445.078 82.76C444.664 81.9733 444.458 81.03 444.458 79.93C444.458 78.8433 444.644 77.89 445.018 77.07C445.391 76.25 445.931 75.61 446.638 75.15C447.351 74.69 448.208 74.46 449.208 74.46C450.181 74.46 451.004 74.67 451.678 75.09C452.351 75.51 452.861 76.1033 453.208 76.87C453.561 77.63 453.738 78.5333 453.738 79.58V80.26H446.328C446.328 80.9133 446.434 81.5067 446.648 82.04C446.868 82.5667 447.198 82.9867 447.638 83.3C448.078 83.6133 448.634 83.77 449.308 83.77C449.968 83.77 450.534 83.6167 451.008 83.31C451.488 83.0033 451.794 82.56 451.928 81.98H453.668C453.547 82.68 453.268 83.27 452.828 83.75C452.394 84.23 451.871 84.5933 451.258 84.84C450.651 85.08 450.011 85.2 449.338 85.2ZM446.338 79.01H451.958C451.958 78.4167 451.858 77.8833 451.658 77.41C451.458 76.93 451.151 76.5533 450.738 76.28C450.331 76 449.818 75.86 449.198 75.86C448.551 75.86 448.014 76.0167 447.588 76.33C447.161 76.6367 446.844 77.0333 446.638 77.52C446.431 78 446.331 78.4967 446.338 79.01ZM460.666 85.2C459.706 85.2 458.859 84.99 458.126 84.57C457.392 84.15 456.819 83.5467 456.406 82.76C455.992 81.9733 455.786 81.03 455.786 79.93C455.786 78.8433 455.972 77.89 456.346 77.07C456.719 76.25 457.259 75.61 457.966 75.15C458.679 74.69 459.536 74.46 460.536 74.46C461.509 74.46 462.332 74.67 463.006 75.09C463.679 75.51 464.189 76.1033 464.536 76.87C464.889 77.63 465.066 78.5333 465.066 79.58V80.26H457.656C457.656 80.9133 457.762 81.5067 457.976 82.04C458.196 82.5667 458.526 82.9867 458.966 83.3C459.406 83.6133 459.962 83.77 460.636 83.77C461.296 83.77 461.862 83.6167 462.336 83.31C462.816 83.0033 463.122 82.56 463.256 81.98H464.996C464.876 82.68 464.596 83.27 464.156 83.75C463.722 84.23 463.199 84.5933 462.586 84.84C461.979 85.08 461.339 85.2 460.666 85.2ZM457.666 79.01H463.286C463.286 78.4167 463.186 77.8833 462.986 77.41C462.786 76.93 462.479 76.5533 462.066 76.28C461.659 76 461.146 75.86 460.526 75.86C459.879 75.86 459.342 76.0167 458.916 76.33C458.489 76.6367 458.172 77.0333 457.966 77.52C457.759 78 457.659 78.4967 457.666 79.01ZM467.624 88.22V74.66H469.464L469.484 76.46C469.604 76.2467 469.757 76.0233 469.944 75.79C470.137 75.5567 470.37 75.34 470.644 75.14C470.924 74.94 471.247 74.7767 471.614 74.65C471.987 74.5233 472.41 74.46 472.884 74.46C473.71 74.46 474.437 74.65 475.064 75.03C475.697 75.4033 476.19 75.9767 476.544 76.75C476.897 77.5233 477.074 78.5033 477.074 79.69C477.074 80.8767 476.9 81.88 476.554 82.7C476.214 83.5133 475.72 84.1333 475.074 84.56C474.427 84.9867 473.647 85.2 472.734 85.2C472.274 85.2 471.864 85.1333 471.504 85C471.15 84.8733 470.84 84.7067 470.574 84.5C470.314 84.2867 470.094 84.06 469.914 83.82C469.74 83.58 469.597 83.35 469.484 83.13V88.22H467.624ZM472.384 83.76C473.237 83.76 473.934 83.4367 474.474 82.79C475.014 82.1367 475.284 81.1233 475.284 79.75C475.284 78.57 475.037 77.6333 474.544 76.94C474.05 76.2467 473.33 75.9 472.384 75.9C471.424 75.9 470.697 76.2567 470.204 76.97C469.71 77.6767 469.464 78.6033 469.464 79.75C469.464 80.49 469.574 81.1633 469.794 81.77C470.014 82.3767 470.34 82.86 470.774 83.22C471.207 83.58 471.744 83.76 472.384 83.76ZM483.199 85.2C482.479 85.2 481.809 85.09 481.189 84.87C480.576 84.6433 480.066 84.2933 479.659 83.82C479.253 83.34 478.999 82.73 478.899 81.99H480.579C480.666 82.3967 480.833 82.7367 481.079 83.01C481.326 83.2767 481.629 83.48 481.989 83.62C482.356 83.7533 482.756 83.82 483.189 83.82C483.889 83.82 484.453 83.69 484.879 83.43C485.306 83.17 485.519 82.77 485.519 82.23C485.519 81.85 485.406 81.5467 485.179 81.32C484.959 81.0867 484.613 80.9167 484.139 80.81L481.999 80.28C481.166 80.08 480.499 79.7667 479.999 79.34C479.506 78.9133 479.256 78.3167 479.249 77.55C479.249 76.9433 479.396 76.41 479.689 75.95C479.983 75.49 480.419 75.1267 480.999 74.86C481.586 74.5933 482.316 74.46 483.189 74.46C484.316 74.46 485.223 74.7133 485.909 75.22C486.596 75.72 486.956 76.4567 486.989 77.43H485.349C485.283 76.9367 485.063 76.5467 484.689 76.26C484.316 75.9667 483.809 75.82 483.169 75.82C482.516 75.82 481.979 75.9533 481.559 76.22C481.146 76.48 480.939 76.8867 480.939 77.44C480.939 77.8067 481.086 78.0967 481.379 78.31C481.679 78.5167 482.113 78.69 482.679 78.83L484.759 79.35C485.233 79.4767 485.626 79.6433 485.939 79.85C486.253 80.0567 486.499 80.2867 486.679 80.54C486.859 80.7933 486.986 81.06 487.059 81.34C487.139 81.6133 487.179 81.8767 487.179 82.13C487.179 82.7633 487.023 83.31 486.709 83.77C486.396 84.2233 485.943 84.5767 485.349 84.83C484.756 85.0767 484.039 85.2 483.199 85.2ZM498.182 85.2C497.642 85.1933 497.132 85.1167 496.652 84.97C496.178 84.8167 495.758 84.5933 495.392 84.3C495.025 84.0067 494.735 83.6433 494.522 83.21C494.315 82.77 494.212 82.26 494.212 81.68V74.66H496.062V81.49C496.062 82.1633 496.268 82.71 496.682 83.13C497.102 83.55 497.732 83.76 498.572 83.76C499.332 83.76 499.942 83.5633 500.402 83.17C500.868 82.77 501.102 82.1767 501.102 81.39V74.66H502.942V85H501.472L501.282 83.02C501.155 83.54 500.938 83.96 500.632 84.28C500.332 84.6 499.968 84.8367 499.542 84.99C499.122 85.1367 498.668 85.2067 498.182 85.2ZM506.1 88.22V74.66H507.94L507.96 76.46C508.08 76.2467 508.234 76.0233 508.42 75.79C508.614 75.5567 508.847 75.34 509.12 75.14C509.4 74.94 509.724 74.7767 510.09 74.65C510.464 74.5233 510.887 74.46 511.36 74.46C512.187 74.46 512.914 74.65 513.54 75.03C514.174 75.4033 514.667 75.9767 515.02 76.75C515.374 77.5233 515.55 78.5033 515.55 79.69C515.55 80.8767 515.377 81.88 515.03 82.7C514.69 83.5133 514.197 84.1333 513.55 84.56C512.904 84.9867 512.124 85.2 511.21 85.2C510.75 85.2 510.34 85.1333 509.98 85C509.627 84.8733 509.317 84.7067 509.05 84.5C508.79 84.2867 508.57 84.06 508.39 83.82C508.217 83.58 508.074 83.35 507.96 83.13V88.22H506.1ZM510.86 83.76C511.714 83.76 512.41 83.4367 512.95 82.79C513.49 82.1367 513.76 81.1233 513.76 79.75C513.76 78.57 513.514 77.6333 513.02 76.94C512.527 76.2467 511.807 75.9 510.86 75.9C509.9 75.9 509.174 76.2567 508.68 76.97C508.187 77.6767 507.94 78.6033 507.94 79.75C507.94 80.49 508.05 81.1633 508.27 81.77C508.49 82.3767 508.817 82.86 509.25 83.22C509.684 83.58 510.22 83.76 510.86 83.76ZM520.624 85.13C520.064 85.13 519.611 85.0533 519.264 84.9C518.924 84.7467 518.661 84.54 518.474 84.28C518.294 84.02 518.171 83.7233 518.104 83.39C518.044 83.05 518.014 82.7 518.014 82.34V70.14H519.834V82.16C519.834 82.68 519.934 83.07 520.134 83.33C520.341 83.59 520.628 83.7333 520.994 83.76L521.554 83.77V84.97C521.401 85.0167 521.241 85.0533 521.074 85.08C520.908 85.1133 520.758 85.13 520.624 85.13ZM527.721 85.2C526.767 85.2 525.934 84.9967 525.221 84.59C524.514 84.1767 523.964 83.5733 523.571 82.78C523.177 81.9867 522.981 81.0167 522.981 79.87C522.981 78.79 523.164 77.8433 523.531 77.03C523.897 76.2167 524.434 75.5867 525.141 75.14C525.847 74.6867 526.711 74.46 527.731 74.46C528.684 74.46 529.511 74.67 530.211 75.09C530.911 75.5033 531.454 76.1133 531.841 76.92C532.234 77.7267 532.431 78.71 532.431 79.87C532.431 80.9233 532.251 81.85 531.891 82.65C531.531 83.45 531.001 84.0767 530.301 84.53C529.607 84.9767 528.747 85.2 527.721 85.2ZM527.731 83.74C528.344 83.74 528.864 83.5833 529.291 83.27C529.717 82.9567 530.041 82.5067 530.261 81.92C530.487 81.3333 530.601 80.6367 530.601 79.83C530.601 79.09 530.501 78.4267 530.301 77.84C530.107 77.2467 529.801 76.7767 529.381 76.43C528.961 76.0833 528.411 75.91 527.731 75.91C527.104 75.91 526.574 76.0667 526.141 76.38C525.707 76.6867 525.377 77.1333 525.151 77.72C524.931 78.3067 524.821 79.01 524.821 79.83C524.821 80.5567 524.917 81.2167 525.111 81.81C525.311 82.4033 525.624 82.8733 526.051 83.22C526.484 83.5667 527.044 83.74 527.731 83.74ZM537.672 85.2C536.999 85.2 536.406 85.0833 535.892 84.85C535.386 84.61 534.986 84.2667 534.692 83.82C534.406 83.3733 534.262 82.8333 534.262 82.2C534.262 81.0533 534.662 80.2 535.462 79.64C536.262 79.08 537.546 78.78 539.312 78.74L541.152 78.69V77.88C541.152 77.2467 540.962 76.7467 540.582 76.38C540.202 76.0067 539.616 75.82 538.822 75.82C538.229 75.8267 537.706 75.9667 537.252 76.24C536.799 76.5133 536.509 76.96 536.382 77.58H534.752C534.792 76.9067 534.979 76.34 535.312 75.88C535.652 75.4133 536.129 75.06 536.742 74.82C537.356 74.58 538.079 74.46 538.912 74.46C539.812 74.46 540.559 74.5867 541.152 74.84C541.752 75.0933 542.199 75.4667 542.492 75.96C542.792 76.4533 542.942 77.06 542.942 77.78V85H541.362L541.222 83.06C540.829 83.8667 540.322 84.4267 539.702 84.74C539.089 85.0467 538.412 85.2 537.672 85.2ZM538.222 83.87C538.576 83.87 538.922 83.8067 539.262 83.68C539.609 83.5533 539.922 83.3833 540.202 83.17C540.489 82.95 540.719 82.7067 540.892 82.44C541.066 82.1667 541.152 81.8867 541.152 81.6V79.83L539.622 79.86C538.829 79.8733 538.169 79.9533 537.642 80.1C537.116 80.2467 536.719 80.4767 536.452 80.79C536.186 81.1033 536.052 81.5133 536.052 82.02C536.052 82.6 536.256 83.0533 536.662 83.38C537.069 83.7067 537.589 83.87 538.222 83.87ZM549.597 85.2C548.25 85.2 547.184 84.74 546.397 83.82C545.617 82.9 545.227 81.5567 545.227 79.79C545.227 78.7167 545.384 77.78 545.697 76.98C546.01 76.18 546.48 75.56 547.107 75.12C547.734 74.68 548.514 74.46 549.447 74.46C549.947 74.46 550.387 74.5233 550.767 74.65C551.147 74.7767 551.477 74.9367 551.757 75.13C552.037 75.3233 552.264 75.5233 552.437 75.73C552.617 75.9367 552.75 76.1267 552.837 76.3V70.14H554.707V85H553.287L553.087 82.88C553.02 83.08 552.914 83.3133 552.767 83.58C552.62 83.84 552.414 84.0967 552.147 84.35C551.887 84.5967 551.547 84.8 551.127 84.96C550.707 85.12 550.197 85.2 549.597 85.2ZM549.927 83.78C550.967 83.78 551.71 83.4633 552.157 82.83C552.61 82.19 552.837 81.1467 552.837 79.7C552.83 78.8933 552.73 78.2067 552.537 77.64C552.344 77.0733 552.037 76.6433 551.617 76.35C551.204 76.05 550.65 75.9 549.957 75.9C549.11 75.9 548.42 76.2033 547.887 76.81C547.354 77.4167 547.087 78.38 547.087 79.7C547.087 80.9933 547.327 81.9967 547.807 82.71C548.287 83.4233 548.994 83.78 549.927 83.78ZM557.928 85V74.66H559.718V85H557.928ZM557.878 72.47V70.55H559.768V72.47H557.878ZM562.936 85V74.66H564.726V76.16C564.893 75.8733 565.123 75.6033 565.416 75.35C565.716 75.0967 566.076 74.8933 566.496 74.74C566.923 74.5867 567.413 74.51 567.966 74.51C568.62 74.51 569.22 74.64 569.766 74.9C570.32 75.16 570.76 75.5667 571.086 76.12C571.42 76.6667 571.586 77.3733 571.586 78.24V85H569.736V78.42C569.736 77.6133 569.523 77.0167 569.096 76.63C568.676 76.2367 568.13 76.04 567.456 76.04C566.99 76.04 566.553 76.1167 566.146 76.27C565.74 76.4167 565.41 76.6433 565.156 76.95C564.903 77.25 564.776 77.63 564.776 78.09V85H562.936ZM578.849 88.42C577.229 88.42 575.966 88.1833 575.059 87.71C574.153 87.2433 573.699 86.5733 573.699 85.7C573.699 85.3267 573.786 85.01 573.959 84.75C574.133 84.4833 574.339 84.2633 574.579 84.09C574.819 83.9167 575.043 83.78 575.249 83.68C575.456 83.5733 575.593 83.4967 575.659 83.45C575.539 83.3833 575.396 83.3 575.229 83.2C575.063 83.1 574.913 82.9667 574.779 82.8C574.653 82.6333 574.589 82.4167 574.589 82.15C574.589 81.8233 574.743 81.5233 575.049 81.25C575.356 80.9767 575.813 80.7733 576.419 80.64C575.813 80.3333 575.339 79.9267 574.999 79.42C574.659 78.9133 574.489 78.3633 574.489 77.77C574.489 77.1033 574.669 76.5233 575.029 76.03C575.389 75.5367 575.906 75.16 576.579 74.9C577.253 74.6333 578.056 74.5 578.989 74.5C579.663 74.5 580.226 74.58 580.679 74.74C581.139 74.8933 581.566 75.1133 581.959 75.4C582.066 75.3533 582.236 75.2833 582.469 75.19C582.703 75.09 582.956 74.9833 583.229 74.87C583.509 74.7567 583.769 74.65 584.009 74.55C584.256 74.4433 584.453 74.3633 584.599 74.31L584.589 76.02L582.779 76.36C582.886 76.5733 582.969 76.8067 583.029 77.06C583.089 77.3133 583.119 77.55 583.119 77.77C583.119 78.3767 582.959 78.9267 582.639 79.42C582.326 79.9133 581.849 80.3067 581.209 80.6C580.569 80.8933 579.769 81.04 578.809 81.04C578.729 81.04 578.626 81.04 578.499 81.04C578.379 81.0333 578.276 81.0267 578.189 81.02C577.483 81.04 576.996 81.12 576.729 81.26C576.469 81.3933 576.339 81.5433 576.339 81.71C576.339 81.9033 576.489 82.0367 576.789 82.11C577.089 82.1833 577.596 82.2467 578.309 82.3C578.569 82.3133 578.889 82.33 579.269 82.35C579.656 82.37 580.086 82.3967 580.559 82.43C581.639 82.4967 582.473 82.7733 583.059 83.26C583.646 83.7467 583.939 84.4033 583.939 85.23C583.939 86.17 583.519 86.9367 582.679 87.53C581.846 88.1233 580.569 88.42 578.849 88.42ZM579.179 87.23C580.133 87.23 580.863 87.0867 581.369 86.8C581.883 86.5133 582.139 86.08 582.139 85.5C582.139 85.0867 581.983 84.75 581.669 84.49C581.356 84.2233 580.883 84.07 580.249 84.03L577.349 83.84C577.089 83.8267 576.819 83.8933 576.539 84.04C576.259 84.18 576.023 84.3767 575.829 84.63C575.636 84.8833 575.539 85.17 575.539 85.49C575.539 86.0367 575.836 86.4633 576.429 86.77C577.023 87.0767 577.939 87.23 579.179 87.23ZM578.869 79.85C579.609 79.85 580.206 79.6767 580.659 79.33C581.119 78.9833 581.349 78.47 581.349 77.79C581.349 77.09 581.119 76.5567 580.659 76.19C580.206 75.8233 579.609 75.64 578.869 75.64C578.109 75.64 577.496 75.8267 577.029 76.2C576.569 76.5667 576.339 77.0967 576.339 77.79C576.339 78.4433 576.559 78.95 576.999 79.31C577.446 79.67 578.069 79.85 578.869 79.85ZM595.3 85.2C593.953 85.2 592.887 84.74 592.1 83.82C591.32 82.9 590.93 81.5567 590.93 79.79C590.93 78.7167 591.087 77.78 591.4 76.98C591.713 76.18 592.183 75.56 592.81 75.12C593.437 74.68 594.217 74.46 595.15 74.46C595.65 74.46 596.09 74.5233 596.47 74.65C596.85 74.7767 597.18 74.9367 597.46 75.13C597.74 75.3233 597.967 75.5233 598.14 75.73C598.32 75.9367 598.453 76.1267 598.54 76.3V70.14H600.41V85H598.99L598.79 82.88C598.723 83.08 598.617 83.3133 598.47 83.58C598.323 83.84 598.117 84.0967 597.85 84.35C597.59 84.5967 597.25 84.8 596.83 84.96C596.41 85.12 595.9 85.2 595.3 85.2ZM595.63 83.78C596.67 83.78 597.413 83.4633 597.86 82.83C598.313 82.19 598.54 81.1467 598.54 79.7C598.533 78.8933 598.433 78.2067 598.24 77.64C598.047 77.0733 597.74 76.6433 597.32 76.35C596.907 76.05 596.353 75.9 595.66 75.9C594.813 75.9 594.123 76.2033 593.59 76.81C593.057 77.4167 592.79 78.38 592.79 79.7C592.79 80.9933 593.03 81.9967 593.51 82.71C593.99 83.4233 594.697 83.78 595.63 83.78ZM603.631 85V74.66H605.421V85H603.631ZM603.581 72.47V70.55H605.471V72.47H603.581ZM609.902 85V76.01H607.712V74.66H609.902V73.06C609.902 72.24 610.109 71.6167 610.522 71.19C610.942 70.7567 611.569 70.54 612.402 70.54H614.352L614.362 71.85H612.822C612.396 71.85 612.106 71.9633 611.952 72.19C611.799 72.4167 611.722 72.76 611.722 73.22V74.66H614.262V76.01H611.752V85H609.902ZM617.324 85V76.01H615.134V74.66H617.324V73.06C617.324 72.24 617.531 71.6167 617.944 71.19C618.364 70.7567 618.991 70.54 619.824 70.54H621.774L621.784 71.85H620.244C619.817 71.85 619.527 71.9633 619.374 72.19C619.221 72.4167 619.144 72.76 619.144 73.22V74.66H621.684V76.01H619.174V85H617.324ZM627.457 85.2C626.737 85.2 626.067 85.09 625.447 84.87C624.834 84.6433 624.324 84.2933 623.917 83.82C623.51 83.34 623.257 82.73 623.157 81.99H624.837C624.924 82.3967 625.09 82.7367 625.337 83.01C625.584 83.2767 625.887 83.48 626.247 83.62C626.614 83.7533 627.014 83.82 627.447 83.82C628.147 83.82 628.71 83.69 629.137 83.43C629.564 83.17 629.777 82.77 629.777 82.23C629.777 81.85 629.664 81.5467 629.437 81.32C629.217 81.0867 628.87 80.9167 628.397 80.81L626.257 80.28C625.424 80.08 624.757 79.7667 624.257 79.34C623.764 78.9133 623.514 78.3167 623.507 77.55C623.507 76.9433 623.654 76.41 623.947 75.95C624.24 75.49 624.677 75.1267 625.257 74.86C625.844 74.5933 626.574 74.46 627.447 74.46C628.574 74.46 629.48 74.7133 630.167 75.22C630.854 75.72 631.214 76.4567 631.247 77.43H629.607C629.54 76.9367 629.32 76.5467 628.947 76.26C628.574 75.9667 628.067 75.82 627.427 75.82C626.774 75.82 626.237 75.9533 625.817 76.22C625.404 76.48 625.197 76.8867 625.197 77.44C625.197 77.8067 625.344 78.0967 625.637 78.31C625.937 78.5167 626.37 78.69 626.937 78.83L629.017 79.35C629.49 79.4767 629.884 79.6433 630.197 79.85C630.51 80.0567 630.757 80.2867 630.937 80.54C631.117 80.7933 631.244 81.06 631.317 81.34C631.397 81.6133 631.437 81.8767 631.437 82.13C631.437 82.7633 631.28 83.31 630.967 83.77C630.654 84.2233 630.2 84.5767 629.607 84.83C629.014 85.0767 628.297 85.2 627.457 85.2Z" fill="white"/>
<path d="M1152 64C1152 28.6538 1180.65 0 1216 0H1262C1297.35 0 1326 28.6538 1326 64V64C1326 99.3462 1297.35 128 1262 128H1216C1180.65 128 1152 99.3462 1152 64V64Z" fill="#014063"/>
<path d="M1205.61 57V42.54H1211.48C1212.59 42.54 1213.5 42.7133 1214.21 43.06C1214.93 43.4 1215.47 43.8833 1215.81 44.51C1216.16 45.13 1216.33 45.8567 1216.33 46.69C1216.33 47.4633 1216.21 48.1133 1215.95 48.64C1215.7 49.16 1215.37 49.5867 1214.96 49.92C1214.56 50.2467 1214.13 50.5133 1213.67 50.72L1216.43 57H1213.89L1211.4 51.13H1208.04V57H1205.61ZM1208.04 49.2H1210.93C1211.85 49.2 1212.57 48.9867 1213.08 48.56C1213.6 48.1333 1213.86 47.54 1213.86 46.78C1213.86 46.0333 1213.62 45.4567 1213.14 45.05C1212.66 44.6433 1212.03 44.44 1211.24 44.44H1208.04V49.2ZM1223.19 57.2C1222.2 57.2 1221.32 56.99 1220.56 56.57C1219.81 56.1433 1219.22 55.5367 1218.79 54.75C1218.37 53.9633 1218.16 53.0267 1218.16 51.94C1218.16 50.88 1218.35 49.94 1218.73 49.12C1219.12 48.2933 1219.68 47.6433 1220.4 47.17C1221.14 46.6967 1222.02 46.46 1223.05 46.46C1224.07 46.46 1224.93 46.6767 1225.62 47.11C1226.32 47.5433 1226.84 48.15 1227.2 48.93C1227.56 49.7033 1227.74 50.61 1227.74 51.65V52.39H1220.59C1220.59 52.9767 1220.68 53.4967 1220.87 53.95C1221.07 54.4033 1221.35 54.76 1221.73 55.02C1222.11 55.2733 1222.58 55.4 1223.14 55.4C1223.72 55.4 1224.21 55.2733 1224.63 55.02C1225.06 54.76 1225.34 54.3667 1225.48 53.84H1227.7C1227.58 54.56 1227.3 55.17 1226.84 55.67C1226.4 56.17 1225.85 56.55 1225.2 56.81C1224.56 57.07 1223.89 57.2 1223.19 57.2ZM1220.58 50.88H1225.44C1225.44 50.38 1225.35 49.93 1225.17 49.53C1225 49.1233 1224.74 48.8033 1224.38 48.57C1224.03 48.33 1223.58 48.21 1223.04 48.21C1222.51 48.21 1222.06 48.34 1221.69 48.6C1221.33 48.86 1221.05 49.1967 1220.86 49.61C1220.68 50.0167 1220.58 50.44 1220.58 50.88ZM1230.07 60.22V46.66H1232.5L1232.52 48.29C1232.65 48.0633 1232.82 47.84 1233.03 47.62C1233.24 47.4 1233.48 47.2033 1233.76 47.03C1234.04 46.8567 1234.35 46.72 1234.69 46.62C1235.03 46.5133 1235.4 46.46 1235.81 46.46C1236.6 46.46 1237.3 46.65 1237.92 47.03C1238.53 47.4033 1239.01 47.98 1239.36 48.76C1239.71 49.54 1239.89 50.5267 1239.89 51.72C1239.89 52.94 1239.71 53.9567 1239.35 54.77C1238.99 55.5833 1238.48 56.1933 1237.84 56.6C1237.19 57 1236.44 57.2 1235.59 57.2C1235.19 57.2 1234.83 57.1467 1234.51 57.04C1234.19 56.9333 1233.9 56.7867 1233.65 56.6C1233.39 56.4133 1233.17 56.21 1232.98 55.99C1232.79 55.77 1232.63 55.54 1232.51 55.3V60.22H1230.07ZM1235.05 55.38C1235.78 55.38 1236.39 55.09 1236.87 54.51C1237.35 53.9233 1237.59 53.0067 1237.59 51.76C1237.59 50.68 1237.36 49.83 1236.91 49.21C1236.46 48.5833 1235.84 48.27 1235.05 48.27C1234.19 48.27 1233.55 48.6 1233.13 49.26C1232.7 49.9133 1232.49 50.7467 1232.49 51.76C1232.49 52.4133 1232.58 53.0167 1232.77 53.57C1232.96 54.1167 1233.24 54.5567 1233.62 54.89C1234 55.2167 1234.47 55.38 1235.05 55.38ZM1245.08 57.15C1244.41 57.15 1243.88 57.0667 1243.48 56.9C1243.08 56.7333 1242.78 56.51 1242.58 56.23C1242.38 55.95 1242.25 55.6367 1242.19 55.29C1242.13 54.9367 1242.1 54.5767 1242.1 54.21V42.14H1244.48V53.93C1244.48 54.3767 1244.57 54.7233 1244.75 54.97C1244.94 55.2167 1245.24 55.36 1245.65 55.4L1246.17 55.42V56.95C1245.99 57.0033 1245.81 57.05 1245.62 57.09C1245.43 57.13 1245.25 57.15 1245.08 57.15ZM1248.39 57V46.66H1250.72V57H1248.39ZM1248.35 44.85V42.55H1250.76V44.85H1248.35ZM1257.85 57.2C1256.9 57.2 1256.06 56.9933 1255.32 56.58C1254.58 56.16 1254.01 55.5533 1253.59 54.76C1253.17 53.96 1252.96 52.9967 1252.96 51.87C1252.96 50.7967 1253.15 49.8567 1253.55 49.05C1253.95 48.2367 1254.51 47.6033 1255.24 47.15C1255.97 46.69 1256.84 46.46 1257.85 46.46C1258.65 46.46 1259.36 46.62 1259.98 46.94C1260.59 47.26 1261.08 47.7033 1261.45 48.27C1261.82 48.8367 1262.04 49.48 1262.12 50.2H1260.05C1259.99 49.8867 1259.88 49.59 1259.7 49.31C1259.52 49.0233 1259.27 48.7933 1258.97 48.62C1258.67 48.44 1258.3 48.35 1257.87 48.35C1257.09 48.35 1256.46 48.6367 1255.98 49.21C1255.5 49.7833 1255.26 50.6633 1255.26 51.85C1255.26 52.9433 1255.48 53.8133 1255.94 54.46C1256.4 55.1067 1257.05 55.43 1257.91 55.43C1258.33 55.43 1258.7 55.3367 1259.01 55.15C1259.31 54.9567 1259.55 54.72 1259.73 54.44C1259.91 54.1533 1260.02 53.8667 1260.07 53.58H1262.09C1262.03 54.28 1261.81 54.9033 1261.44 55.45C1261.06 55.9967 1260.57 56.4267 1259.96 56.74C1259.34 57.0467 1258.64 57.2 1257.85 57.2ZM1267.32 57.2C1266.66 57.2 1266.06 57.08 1265.54 56.84C1265.02 56.5933 1264.61 56.2433 1264.31 55.79C1264.01 55.33 1263.87 54.7733 1263.87 54.12C1263.87 52.98 1264.28 52.12 1265.1 51.54C1265.92 50.96 1267.24 50.6567 1269.04 50.63L1270.59 50.59V49.89C1270.59 49.3433 1270.42 48.9167 1270.1 48.61C1269.78 48.2967 1269.28 48.1433 1268.6 48.15C1268.09 48.1567 1267.63 48.2767 1267.22 48.51C1266.8 48.7367 1266.53 49.12 1266.4 49.66H1264.33C1264.37 48.9533 1264.57 48.3633 1264.94 47.89C1265.31 47.41 1265.82 47.0533 1266.47 46.82C1267.11 46.58 1267.86 46.46 1268.71 46.46C1269.69 46.46 1270.5 46.59 1271.12 46.85C1271.74 47.11 1272.19 47.4867 1272.49 47.98C1272.78 48.4667 1272.93 49.0567 1272.93 49.75V57H1270.88L1270.68 55.14C1270.31 55.92 1269.84 56.46 1269.27 56.76C1268.7 57.0533 1268.05 57.2 1267.32 57.2ZM1268.11 55.55C1268.41 55.55 1268.7 55.4967 1269 55.39C1269.29 55.2767 1269.55 55.1267 1269.79 54.94C1270.03 54.7467 1270.22 54.5333 1270.36 54.3C1270.5 54.0667 1270.58 53.8233 1270.59 53.57V51.94L1269.32 51.96C1268.69 51.9667 1268.14 52.0333 1267.67 52.16C1267.2 52.2867 1266.84 52.49 1266.58 52.77C1266.32 53.0433 1266.19 53.41 1266.19 53.87C1266.19 54.3967 1266.37 54.81 1266.74 55.11C1267.1 55.4033 1267.56 55.55 1268.11 55.55Z" fill="white"/>
<path d="M1186.42 85.2C1185.74 85.2 1185.15 85.0833 1184.64 84.85C1184.13 84.61 1183.73 84.2667 1183.44 83.82C1183.15 83.3733 1183.01 82.8333 1183.01 82.2C1183.01 81.0533 1183.41 80.2 1184.21 79.64C1185.01 79.08 1186.29 78.78 1188.06 78.74L1189.9 78.69V77.88C1189.9 77.2467 1189.71 76.7467 1189.33 76.38C1188.95 76.0067 1188.36 75.82 1187.57 75.82C1186.97 75.8267 1186.45 75.9667 1186 76.24C1185.54 76.5133 1185.25 76.96 1185.13 77.58H1183.5C1183.54 76.9067 1183.72 76.34 1184.06 75.88C1184.4 75.4133 1184.87 75.06 1185.49 74.82C1186.1 74.58 1186.82 74.46 1187.66 74.46C1188.56 74.46 1189.3 74.5867 1189.9 74.84C1190.5 75.0933 1190.94 75.4667 1191.24 75.96C1191.54 76.4533 1191.69 77.06 1191.69 77.78V85H1190.11L1189.97 83.06C1189.57 83.8667 1189.07 84.4267 1188.45 84.74C1187.83 85.0467 1187.16 85.2 1186.42 85.2ZM1186.97 83.87C1187.32 83.87 1187.67 83.8067 1188.01 83.68C1188.35 83.5533 1188.67 83.3833 1188.95 83.17C1189.23 82.95 1189.46 82.7067 1189.64 82.44C1189.81 82.1667 1189.9 81.8867 1189.9 81.6V79.83L1188.37 79.86C1187.57 79.8733 1186.91 79.9533 1186.39 80.1C1185.86 80.2467 1185.46 80.4767 1185.2 80.79C1184.93 81.1033 1184.8 81.5133 1184.8 82.02C1184.8 82.6 1185 83.0533 1185.41 83.38C1185.81 83.7067 1186.33 83.87 1186.97 83.87ZM1194.57 88.22V74.66H1196.41L1196.43 76.46C1196.55 76.2467 1196.71 76.0233 1196.89 75.79C1197.09 75.5567 1197.32 75.34 1197.59 75.14C1197.87 74.94 1198.2 74.7767 1198.56 74.65C1198.94 74.5233 1199.36 74.46 1199.83 74.46C1200.66 74.46 1201.39 74.65 1202.01 75.03C1202.65 75.4033 1203.14 75.9767 1203.49 76.75C1203.85 77.5233 1204.02 78.5033 1204.02 79.69C1204.02 80.8767 1203.85 81.88 1203.5 82.7C1203.16 83.5133 1202.67 84.1333 1202.02 84.56C1201.38 84.9867 1200.6 85.2 1199.68 85.2C1199.22 85.2 1198.81 85.1333 1198.45 85C1198.1 84.8733 1197.79 84.7067 1197.52 84.5C1197.26 84.2867 1197.04 84.06 1196.86 83.82C1196.69 83.58 1196.55 83.35 1196.43 83.13V88.22H1194.57ZM1199.33 83.76C1200.19 83.76 1200.88 83.4367 1201.42 82.79C1201.96 82.1367 1202.23 81.1233 1202.23 79.75C1202.23 78.57 1201.99 77.6333 1201.49 76.94C1201 76.2467 1200.28 75.9 1199.33 75.9C1198.37 75.9 1197.65 76.2567 1197.15 76.97C1196.66 77.6767 1196.41 78.6033 1196.41 79.75C1196.41 80.49 1196.52 81.1633 1196.74 81.77C1196.96 82.3767 1197.29 82.86 1197.72 83.22C1198.16 83.58 1198.69 83.76 1199.33 83.76ZM1206.49 88.22V74.66H1208.33L1208.35 76.46C1208.47 76.2467 1208.62 76.0233 1208.81 75.79C1209 75.5567 1209.23 75.34 1209.51 75.14C1209.79 74.94 1210.11 74.7767 1210.48 74.65C1210.85 74.5233 1211.27 74.46 1211.75 74.46C1212.57 74.46 1213.3 74.65 1213.93 75.03C1214.56 75.4033 1215.05 75.9767 1215.41 76.75C1215.76 77.5233 1215.94 78.5033 1215.94 79.69C1215.94 80.8767 1215.76 81.88 1215.42 82.7C1215.08 83.5133 1214.58 84.1333 1213.94 84.56C1213.29 84.9867 1212.51 85.2 1211.6 85.2C1211.14 85.2 1210.73 85.1333 1210.37 85C1210.01 84.8733 1209.7 84.7067 1209.44 84.5C1209.18 84.2867 1208.96 84.06 1208.78 83.82C1208.6 83.58 1208.46 83.35 1208.35 83.13V88.22H1206.49ZM1211.25 83.76C1212.1 83.76 1212.8 83.4367 1213.34 82.79C1213.88 82.1367 1214.15 81.1233 1214.15 79.75C1214.15 78.57 1213.9 77.6333 1213.41 76.94C1212.91 76.2467 1212.19 75.9 1211.25 75.9C1210.29 75.9 1209.56 76.2567 1209.07 76.97C1208.57 77.6767 1208.33 78.6033 1208.33 79.75C1208.33 80.49 1208.44 81.1633 1208.66 81.77C1208.88 82.3767 1209.2 82.86 1209.64 83.22C1210.07 83.58 1210.61 83.76 1211.25 83.76ZM1221.01 85.13C1220.45 85.13 1220 85.0533 1219.65 84.9C1219.31 84.7467 1219.05 84.54 1218.86 84.28C1218.68 84.02 1218.56 83.7233 1218.49 83.39C1218.43 83.05 1218.4 82.7 1218.4 82.34V70.14H1220.22V82.16C1220.22 82.68 1220.32 83.07 1220.52 83.33C1220.73 83.59 1221.01 83.7333 1221.38 83.76L1221.94 83.77V84.97C1221.79 85.0167 1221.63 85.0533 1221.46 85.08C1221.29 85.1133 1221.14 85.13 1221.01 85.13ZM1224.41 85V74.66H1226.2V85H1224.41ZM1224.36 72.47V70.55H1226.25V72.47H1224.36ZM1233.67 85.2C1232.71 85.2 1231.86 84.99 1231.13 84.57C1230.4 84.15 1229.82 83.5467 1229.41 82.76C1229 81.9733 1228.79 81.03 1228.79 79.93C1228.79 78.8433 1228.98 77.89 1229.35 77.07C1229.72 76.25 1230.26 75.61 1230.97 75.15C1231.68 74.69 1232.54 74.46 1233.54 74.46C1234.51 74.46 1235.34 74.67 1236.01 75.09C1236.68 75.51 1237.19 76.1033 1237.54 76.87C1237.89 77.63 1238.07 78.5333 1238.07 79.58V80.26H1230.66C1230.66 80.9133 1230.77 81.5067 1230.98 82.04C1231.2 82.5667 1231.53 82.9867 1231.97 83.3C1232.41 83.6133 1232.97 83.77 1233.64 83.77C1234.3 83.77 1234.87 83.6167 1235.34 83.31C1235.82 83.0033 1236.13 82.56 1236.26 81.98H1238C1237.88 82.68 1237.6 83.27 1237.16 83.75C1236.73 84.23 1236.2 84.5933 1235.59 84.84C1234.98 85.08 1234.34 85.2 1233.67 85.2ZM1230.67 79.01H1236.29C1236.29 78.4167 1236.19 77.8833 1235.99 77.41C1235.79 76.93 1235.48 76.5533 1235.07 76.28C1234.66 76 1234.15 75.86 1233.53 75.86C1232.88 75.86 1232.35 76.0167 1231.92 76.33C1231.49 76.6367 1231.18 77.0333 1230.97 77.52C1230.76 78 1230.66 78.4967 1230.67 79.01ZM1244.29 85.2C1243.57 85.2 1242.9 85.09 1242.28 84.87C1241.67 84.6433 1241.16 84.2933 1240.75 83.82C1240.34 83.34 1240.09 82.73 1239.99 81.99H1241.67C1241.76 82.3967 1241.92 82.7367 1242.17 83.01C1242.42 83.2767 1242.72 83.48 1243.08 83.62C1243.45 83.7533 1243.85 83.82 1244.28 83.82C1244.98 83.82 1245.54 83.69 1245.97 83.43C1246.4 83.17 1246.61 82.77 1246.61 82.23C1246.61 81.85 1246.5 81.5467 1246.27 81.32C1246.05 81.0867 1245.7 80.9167 1245.23 80.81L1243.09 80.28C1242.26 80.08 1241.59 79.7667 1241.09 79.34C1240.6 78.9133 1240.35 78.3167 1240.34 77.55C1240.34 76.9433 1240.49 76.41 1240.78 75.95C1241.07 75.49 1241.51 75.1267 1242.09 74.86C1242.68 74.5933 1243.41 74.46 1244.28 74.46C1245.41 74.46 1246.31 74.7133 1247 75.22C1247.69 75.72 1248.05 76.4567 1248.08 77.43H1246.44C1246.37 76.9367 1246.15 76.5467 1245.78 76.26C1245.41 75.9667 1244.9 75.82 1244.26 75.82C1243.61 75.82 1243.07 75.9533 1242.65 76.22C1242.24 76.48 1242.03 76.8867 1242.03 77.44C1242.03 77.8067 1242.18 78.0967 1242.47 78.31C1242.77 78.5167 1243.2 78.69 1243.77 78.83L1245.85 79.35C1246.32 79.4767 1246.72 79.6433 1247.03 79.85C1247.34 80.0567 1247.59 80.2867 1247.77 80.54C1247.95 80.7933 1248.08 81.06 1248.15 81.34C1248.23 81.6133 1248.27 81.8767 1248.27 82.13C1248.27 82.7633 1248.11 83.31 1247.8 83.77C1247.49 84.2233 1247.03 84.5767 1246.44 84.83C1245.85 85.0767 1245.13 85.2 1244.29 85.2ZM1258.99 85.2C1257.64 85.2 1256.57 84.74 1255.79 83.82C1255.01 82.9 1254.62 81.5567 1254.62 79.79C1254.62 78.7167 1254.77 77.78 1255.09 76.98C1255.4 76.18 1255.87 75.56 1256.5 75.12C1257.12 74.68 1257.9 74.46 1258.84 74.46C1259.34 74.46 1259.78 74.5233 1260.16 74.65C1260.54 74.7767 1260.87 74.9367 1261.15 75.13C1261.43 75.3233 1261.65 75.5233 1261.83 75.73C1262.01 75.9367 1262.14 76.1267 1262.23 76.3V70.14H1264.1V85H1262.68L1262.48 82.88C1262.41 83.08 1262.3 83.3133 1262.16 83.58C1262.01 83.84 1261.8 84.0967 1261.54 84.35C1261.28 84.5967 1260.94 84.8 1260.52 84.96C1260.1 85.12 1259.59 85.2 1258.99 85.2ZM1259.32 83.78C1260.36 83.78 1261.1 83.4633 1261.55 82.83C1262 82.19 1262.23 81.1467 1262.23 79.7C1262.22 78.8933 1262.12 78.2067 1261.93 77.64C1261.73 77.0733 1261.43 76.6433 1261.01 76.35C1260.59 76.05 1260.04 75.9 1259.35 75.9C1258.5 75.9 1257.81 76.2033 1257.28 76.81C1256.74 77.4167 1256.48 78.38 1256.48 79.7C1256.48 80.9933 1256.72 81.9967 1257.2 82.71C1257.68 83.4233 1258.38 83.78 1259.32 83.78ZM1267.32 85V74.66H1269.11V85H1267.32ZM1267.27 72.47V70.55H1269.16V72.47H1267.27ZM1273.59 85V76.01H1271.4V74.66H1273.59V73.06C1273.59 72.24 1273.8 71.6167 1274.21 71.19C1274.63 70.7567 1275.26 70.54 1276.09 70.54H1278.04L1278.05 71.85H1276.51C1276.08 71.85 1275.79 71.9633 1275.64 72.19C1275.49 72.4167 1275.41 72.76 1275.41 73.22V74.66H1277.95V76.01H1275.44V85H1273.59ZM1281.01 85V76.01H1278.82V74.66H1281.01V73.06C1281.01 72.24 1281.22 71.6167 1281.63 71.19C1282.05 70.7567 1282.68 70.54 1283.51 70.54H1285.46L1285.47 71.85H1283.93C1283.5 71.85 1283.21 71.9633 1283.06 72.19C1282.91 72.4167 1282.83 72.76 1282.83 73.22V74.66H1285.37V76.01H1282.86V85H1281.01ZM1291.14 85.2C1290.42 85.2 1289.75 85.09 1289.13 84.87C1288.52 84.6433 1288.01 84.2933 1287.6 83.82C1287.2 83.34 1286.94 82.73 1286.84 81.99H1288.52C1288.61 82.3967 1288.78 82.7367 1289.02 83.01C1289.27 83.2767 1289.57 83.48 1289.93 83.62C1290.3 83.7533 1290.7 83.82 1291.13 83.82C1291.83 83.82 1292.4 83.69 1292.82 83.43C1293.25 83.17 1293.46 82.77 1293.46 82.23C1293.46 81.85 1293.35 81.5467 1293.12 81.32C1292.9 81.0867 1292.56 80.9167 1292.08 80.81L1289.94 80.28C1289.11 80.08 1288.44 79.7667 1287.94 79.34C1287.45 78.9133 1287.2 78.3167 1287.19 77.55C1287.19 76.9433 1287.34 76.41 1287.63 75.95C1287.93 75.49 1288.36 75.1267 1288.94 74.86C1289.53 74.5933 1290.26 74.46 1291.13 74.46C1292.26 74.46 1293.17 74.7133 1293.85 75.22C1294.54 75.72 1294.9 76.4567 1294.93 77.43H1293.29C1293.23 76.9367 1293.01 76.5467 1292.63 76.26C1292.26 75.9667 1291.75 75.82 1291.11 75.82C1290.46 75.82 1289.92 75.9533 1289.5 76.22C1289.09 76.48 1288.88 76.8867 1288.88 77.44C1288.88 77.8067 1289.03 78.0967 1289.32 78.31C1289.62 78.5167 1290.06 78.69 1290.62 78.83L1292.7 79.35C1293.18 79.4767 1293.57 79.6433 1293.88 79.85C1294.2 80.0567 1294.44 80.2867 1294.62 80.54C1294.8 80.7933 1294.93 81.06 1295 81.34C1295.08 81.6133 1295.12 81.8767 1295.12 82.13C1295.12 82.7633 1294.97 83.31 1294.65 83.77C1294.34 84.2233 1293.89 84.5767 1293.29 84.83C1292.7 85.0767 1291.98 85.2 1291.14 85.2Z" fill="white"/>
<path d="M768 64C768 28.6538 796.654 0 832 0H1001C1036.35 0 1065 28.6538 1065 64V64C1065 99.3462 1036.35 128 1001 128H832C796.654 128 768 99.3462 768 64V64Z" fill="#014063"/>
<path d="M300.5 63C299.948 63 299.5 63.4477 299.5 64C299.5 64.5523 299.948 65 300.5 65V64V63ZM381.207 64.7071C381.598 64.3166 381.598 63.6834 381.207 63.2929L374.843 56.9289C374.453 56.5384 373.819 56.5384 373.429 56.9289C373.038 57.3195 373.038 57.9526 373.429 58.3431L379.086 64L373.429 69.6569C373.038 70.0474 373.038 70.6805 373.429 71.0711C373.819 71.4616 374.453 71.4616 374.843 71.0711L381.207 64.7071ZM300.5 64V65H380.5V64V63H300.5V64Z" fill="black" fill-opacity="0.8"/>
<path d="M684.5 63C683.948 63 683.5 63.4477 683.5 64C683.5 64.5523 683.948 65 684.5 65V64V63ZM765.207 64.7071C765.598 64.3166 765.598 63.6834 765.207 63.2929L758.843 56.9289C758.453 56.5384 757.819 56.5384 757.429 56.9289C757.038 57.3195 757.038 57.9526 757.429 58.3431L763.086 64L757.429 69.6569C757.038 70.0474 757.038 70.6805 757.429 71.0711C757.819 71.4616 758.453 71.4616 758.843 71.0711L765.207 64.7071ZM684.5 64V65H764.5V64V63H684.5V64Z" fill="black" fill-opacity="0.8"/>
<path d="M842.841 37.22V23.66H845.271L845.291 25.29C845.424 25.0633 845.594 24.84 845.801 24.62C846.014 24.4 846.258 24.2033 846.531 24.03C846.811 23.8567 847.121 23.72 847.461 23.62C847.801 23.5133 848.174 23.46 848.581 23.46C849.374 23.46 850.078 23.65 850.691 24.03C851.304 24.4033 851.784 24.98 852.131 25.76C852.484 26.54 852.661 27.5267 852.661 28.72C852.661 29.94 852.481 30.9567 852.121 31.77C851.761 32.5833 851.258 33.1933 850.611 33.6C849.964 34 849.214 34.2 848.361 34.2C847.968 34.2 847.608 34.1467 847.281 34.04C846.961 33.9333 846.674 33.7867 846.421 33.6C846.168 33.4133 845.944 33.21 845.751 32.99C845.564 32.77 845.408 32.54 845.281 32.3V37.22H842.841ZM847.821 32.38C848.554 32.38 849.161 32.09 849.641 31.51C850.121 30.9233 850.361 30.0067 850.361 28.76C850.361 27.68 850.134 26.83 849.681 26.21C849.234 25.5833 848.614 25.27 847.821 25.27C846.968 25.27 846.328 25.6 845.901 26.26C845.474 26.9133 845.261 27.7467 845.261 28.76C845.261 29.4133 845.354 30.0167 845.541 30.57C845.734 31.1167 846.018 31.5567 846.391 31.89C846.771 32.2167 847.248 32.38 847.821 32.38ZM858.614 34.2C858.107 34.2 857.617 34.1267 857.144 33.98C856.677 33.8267 856.257 33.6067 855.884 33.32C855.51 33.0267 855.214 32.6667 854.994 32.24C854.774 31.8133 854.664 31.3167 854.664 30.75V23.66H857.104V30.47C857.104 31.03 857.28 31.49 857.634 31.85C857.994 32.21 858.534 32.39 859.254 32.39C859.907 32.39 860.43 32.22 860.824 31.88C861.217 31.5333 861.414 31.0367 861.414 30.39V23.66H863.834V34H861.964L861.694 31.98C861.567 32.5467 861.344 32.9933 861.024 33.32C860.71 33.64 860.34 33.8667 859.914 34C859.494 34.1333 859.06 34.2 858.614 34.2ZM869.669 34.15C869.002 34.15 868.469 34.0667 868.069 33.9C867.669 33.7333 867.369 33.51 867.169 33.23C866.969 32.95 866.839 32.6367 866.779 32.29C866.719 31.9367 866.689 31.5767 866.689 31.21V19.14H869.069V30.93C869.069 31.3767 869.159 31.7233 869.339 31.97C869.525 32.2167 869.825 32.36 870.239 32.4L870.759 32.42V33.95C870.579 34.0033 870.395 34.05 870.209 34.09C870.022 34.13 869.842 34.15 869.669 34.15ZM875.723 34.15C875.057 34.15 874.523 34.0667 874.123 33.9C873.723 33.7333 873.423 33.51 873.223 33.23C873.023 32.95 872.893 32.6367 872.833 32.29C872.773 31.9367 872.743 31.5767 872.743 31.21V19.14H875.123V30.93C875.123 31.3767 875.213 31.7233 875.393 31.97C875.58 32.2167 875.88 32.36 876.293 32.4L876.813 32.42V33.95C876.633 34.0033 876.45 34.05 876.263 34.09C876.077 34.13 875.897 34.15 875.723 34.15ZM885.011 34.2C883.678 34.2 882.601 33.98 881.781 33.54C880.968 33.0933 880.378 32.4533 880.011 31.62C879.644 30.78 879.461 29.7667 879.461 28.58V19.54H881.951V28.83C881.951 29.95 882.224 30.7767 882.771 31.31C883.324 31.8433 884.071 32.11 885.011 32.11C885.644 32.11 886.194 31.9933 886.661 31.76C887.128 31.5267 887.488 31.17 887.741 30.69C887.994 30.2033 888.121 29.5833 888.121 28.83V19.54H890.581V28.72C890.581 29.8667 890.394 30.85 890.021 31.67C889.648 32.4833 889.051 33.11 888.231 33.55C887.418 33.9833 886.344 34.2 885.011 34.2ZM893.738 34V19.54H899.608C900.715 19.54 901.625 19.7133 902.338 20.06C903.058 20.4 903.592 20.8833 903.938 21.51C904.285 22.13 904.458 22.8567 904.458 23.69C904.458 24.4633 904.332 25.1133 904.078 25.64C903.825 26.16 903.495 26.5867 903.088 26.92C902.688 27.2467 902.258 27.5133 901.798 27.72L904.558 34H902.018L899.528 28.13H896.168V34H893.738ZM896.168 26.2H899.058C899.978 26.2 900.695 25.9867 901.208 25.56C901.728 25.1333 901.988 24.54 901.988 23.78C901.988 23.0333 901.748 22.4567 901.268 22.05C900.788 21.6433 900.155 21.44 899.368 21.44H896.168V26.2ZM907.469 34V19.54H909.899V34H907.469ZM920.684 34.15C920.018 34.15 919.484 34.0667 919.084 33.9C918.684 33.7333 918.384 33.51 918.184 33.23C917.984 32.95 917.854 32.6367 917.794 32.29C917.734 31.9367 917.704 31.5767 917.704 31.21V19.14H920.084V30.93C920.084 31.3767 920.174 31.7233 920.354 31.97C920.541 32.2167 920.841 32.36 921.254 32.4L921.774 32.42V33.95C921.594 34.0033 921.411 34.05 921.224 34.09C921.038 34.13 920.858 34.15 920.684 34.15ZM927.845 34.2C926.858 34.2 925.998 33.99 925.265 33.57C924.532 33.1433 923.962 32.5333 923.555 31.74C923.155 30.9467 922.955 29.9933 922.955 28.88C922.955 27.8 923.152 26.8533 923.545 26.04C923.938 25.2267 924.498 24.5933 925.225 24.14C925.958 23.6867 926.835 23.46 927.855 23.46C928.842 23.46 929.698 23.6767 930.425 24.11C931.152 24.5433 931.712 25.1633 932.105 25.97C932.505 26.7767 932.705 27.7467 932.705 28.88C932.705 29.9267 932.515 30.85 932.135 31.65C931.762 32.4433 931.212 33.0667 930.485 33.52C929.765 33.9733 928.885 34.2 927.845 34.2ZM927.855 32.35C928.415 32.35 928.875 32.1967 929.235 31.89C929.602 31.5833 929.875 31.1633 930.055 30.63C930.235 30.0967 930.325 29.49 930.325 28.81C930.325 28.1767 930.245 27.5933 930.085 27.06C929.925 26.5267 929.662 26.1 929.295 25.78C928.935 25.4533 928.455 25.29 927.855 25.29C927.288 25.29 926.818 25.44 926.445 25.74C926.078 26.0333 925.805 26.4467 925.625 26.98C925.445 27.5067 925.355 28.1167 925.355 28.81C925.355 29.4367 925.435 30.02 925.595 30.56C925.755 31.0933 926.018 31.5267 926.385 31.86C926.752 32.1867 927.242 32.35 927.855 32.35ZM939.271 34.2C938.324 34.2 937.481 33.9933 936.741 33.58C936.007 33.16 935.431 32.5533 935.011 31.76C934.591 30.96 934.381 29.9967 934.381 28.87C934.381 27.7967 934.577 26.8567 934.971 26.05C935.371 25.2367 935.934 24.6033 936.661 24.15C937.394 23.69 938.264 23.46 939.271 23.46C940.077 23.46 940.787 23.62 941.401 23.94C942.014 24.26 942.504 24.7033 942.871 25.27C943.244 25.8367 943.467 26.48 943.541 27.2H941.471C941.417 26.8867 941.301 26.59 941.121 26.31C940.941 26.0233 940.697 25.7933 940.391 25.62C940.091 25.44 939.724 25.35 939.291 25.35C938.511 25.35 937.881 25.6367 937.401 26.21C936.921 26.7833 936.681 27.6633 936.681 28.85C936.681 29.9433 936.907 30.8133 937.361 31.46C937.821 32.1067 938.477 32.43 939.331 32.43C939.757 32.43 940.124 32.3367 940.431 32.15C940.737 31.9567 940.977 31.72 941.151 31.44C941.331 31.1533 941.444 30.8667 941.491 30.58H943.511C943.451 31.28 943.234 31.9033 942.861 32.45C942.487 32.9967 941.994 33.4267 941.381 33.74C940.767 34.0467 940.064 34.2 939.271 34.2ZM948.741 34.2C948.081 34.2 947.488 34.08 946.961 33.84C946.441 33.5933 946.031 33.2433 945.731 32.79C945.438 32.33 945.291 31.7733 945.291 31.12C945.291 29.98 945.701 29.12 946.521 28.54C947.348 27.96 948.661 27.6567 950.461 27.63L952.011 27.59V26.89C952.011 26.3433 951.848 25.9167 951.521 25.61C951.201 25.2967 950.701 25.1433 950.021 25.15C949.514 25.1567 949.054 25.2767 948.641 25.51C948.228 25.7367 947.954 26.12 947.821 26.66H945.751C945.791 25.9533 945.994 25.3633 946.361 24.89C946.734 24.41 947.244 24.0533 947.891 23.82C948.538 23.58 949.284 23.46 950.131 23.46C951.118 23.46 951.921 23.59 952.541 23.85C953.161 24.11 953.618 24.4867 953.911 24.98C954.204 25.4667 954.351 26.0567 954.351 26.75V34H952.301L952.101 32.14C951.734 32.92 951.264 33.46 950.691 33.76C950.124 34.0533 949.474 34.2 948.741 34.2ZM949.531 32.55C949.831 32.55 950.128 32.4967 950.421 32.39C950.714 32.2767 950.978 32.1267 951.211 31.94C951.451 31.7467 951.641 31.5333 951.781 31.3C951.928 31.0667 952.004 30.8233 952.011 30.57V28.94L950.741 28.96C950.114 28.9667 949.564 29.0333 949.091 29.16C948.624 29.2867 948.261 29.49 948.001 29.77C947.741 30.0433 947.611 30.41 947.611 30.87C947.611 31.3967 947.794 31.81 948.161 32.11C948.528 32.4033 948.984 32.55 949.531 32.55ZM960.682 34.08C959.862 34.08 959.226 33.9733 958.772 33.76C958.326 33.54 958.016 33.23 957.842 32.83C957.669 32.43 957.582 31.9533 957.582 31.4V25.38H955.902V23.66H957.652L958.262 20.59H960.012V23.65H962.322V25.38H960.012L960.022 31.31C960.022 31.6167 960.056 31.8433 960.122 31.99C960.196 32.13 960.309 32.2233 960.462 32.27C960.622 32.31 960.832 32.33 961.092 32.33H962.372V33.87C962.232 33.9233 962.026 33.97 961.752 34.01C961.486 34.0567 961.129 34.08 960.682 34.08ZM964.658 34V23.66H966.988V34H964.658ZM964.618 21.85V19.55H967.028V21.85H964.618ZM974.115 34.2C973.128 34.2 972.268 33.99 971.535 33.57C970.801 33.1433 970.231 32.5333 969.825 31.74C969.425 30.9467 969.225 29.9933 969.225 28.88C969.225 27.8 969.421 26.8533 969.815 26.04C970.208 25.2267 970.768 24.5933 971.495 24.14C972.228 23.6867 973.105 23.46 974.125 23.46C975.111 23.46 975.968 23.6767 976.695 24.11C977.421 24.5433 977.981 25.1633 978.375 25.97C978.775 26.7767 978.975 27.7467 978.975 28.88C978.975 29.9267 978.785 30.85 978.405 31.65C978.031 32.4433 977.481 33.0667 976.755 33.52C976.035 33.9733 975.155 34.2 974.115 34.2ZM974.125 32.35C974.685 32.35 975.145 32.1967 975.505 31.89C975.871 31.5833 976.145 31.1633 976.325 30.63C976.505 30.0967 976.595 29.49 976.595 28.81C976.595 28.1767 976.515 27.5933 976.355 27.06C976.195 26.5267 975.931 26.1 975.565 25.78C975.205 25.4533 974.725 25.29 974.125 25.29C973.558 25.29 973.088 25.44 972.715 25.74C972.348 26.0333 972.075 26.4467 971.895 26.98C971.715 27.5067 971.625 28.1167 971.625 28.81C971.625 29.4367 971.705 30.02 971.865 30.56C972.025 31.0933 972.288 31.5267 972.655 31.86C973.021 32.1867 973.511 32.35 974.125 32.35ZM981.2 34V23.66H983.58V25.14C983.74 24.8733 983.957 24.6167 984.23 24.37C984.51 24.1233 984.854 23.9233 985.26 23.77C985.667 23.6167 986.144 23.54 986.69 23.54C987.33 23.54 987.924 23.6667 988.47 23.92C989.024 24.1733 989.467 24.57 989.8 25.11C990.14 25.65 990.31 26.3467 990.31 27.2V34H987.87V27.49C987.87 26.81 987.684 26.3067 987.31 25.98C986.937 25.6467 986.467 25.48 985.9 25.48C985.514 25.48 985.147 25.5467 984.8 25.68C984.454 25.8067 984.17 26.0033 983.95 26.27C983.737 26.53 983.63 26.8567 983.63 27.25V34H981.2Z" fill="white"/>
<path d="M857.998 104.14C857.62 104.135 857.263 104.082 856.927 103.979C856.595 103.872 856.301 103.715 856.045 103.51C855.788 103.305 855.585 103.05 855.436 102.747C855.291 102.439 855.219 102.082 855.219 101.676V96.762H856.514V101.543C856.514 102.014 856.658 102.397 856.948 102.691C857.242 102.985 857.683 103.132 858.271 103.132C858.803 103.132 859.23 102.994 859.552 102.719C859.878 102.439 860.042 102.024 860.042 101.473V96.762H861.33V104H860.301L860.168 102.614C860.079 102.978 859.927 103.272 859.713 103.496C859.503 103.72 859.248 103.886 858.95 103.993C858.656 104.096 858.338 104.145 857.998 104.14ZM863.541 104V96.762H864.794V97.812C864.91 97.6113 865.071 97.4223 865.277 97.245C865.487 97.0677 865.739 96.9253 866.033 96.818C866.331 96.7107 866.674 96.657 867.062 96.657C867.519 96.657 867.939 96.748 868.322 96.93C868.709 97.112 869.017 97.3967 869.246 97.784C869.479 98.1667 869.596 98.6613 869.596 99.268V104H868.301V99.394C868.301 98.8293 868.151 98.4117 867.853 98.141C867.559 97.8657 867.176 97.728 866.705 97.728C866.378 97.728 866.072 97.7817 865.788 97.889C865.503 97.9917 865.272 98.1503 865.095 98.365C864.917 98.575 864.829 98.841 864.829 99.163V104H863.541ZM875.198 104.14C874.773 104.14 874.414 104.084 874.12 103.972C873.83 103.86 873.592 103.718 873.406 103.545C873.219 103.368 873.074 103.188 872.972 103.006C872.869 102.819 872.794 102.656 872.748 102.516L872.608 104H871.621V93.598H872.923V97.91C872.983 97.7887 873.074 97.6557 873.196 97.511C873.322 97.3663 873.483 97.2263 873.679 97.091C873.875 96.9557 874.106 96.8437 874.372 96.755C874.642 96.6663 874.95 96.622 875.296 96.622C876.201 96.622 876.92 96.937 877.452 97.567C877.988 98.197 878.257 99.1257 878.257 100.353C878.257 101.114 878.142 101.779 877.914 102.348C877.685 102.913 877.344 103.354 876.892 103.671C876.439 103.984 875.874 104.14 875.198 104.14ZM874.967 103.146C875.555 103.146 876.033 102.92 876.402 102.467C876.77 102.01 876.955 101.284 876.955 100.29C876.955 99.4453 876.782 98.792 876.437 98.33C876.096 97.8633 875.597 97.63 874.939 97.63C874.458 97.63 874.071 97.735 873.777 97.945C873.487 98.1503 873.273 98.4513 873.133 98.848C872.997 99.2447 872.927 99.7253 872.923 100.29C872.923 101.303 873.079 102.033 873.392 102.481C873.709 102.924 874.234 103.146 874.967 103.146ZM879.974 104V96.762H881.206V98.155C881.328 97.8097 881.498 97.525 881.717 97.301C881.937 97.0723 882.186 96.902 882.466 96.79C882.751 96.678 883.045 96.622 883.348 96.622C883.456 96.622 883.561 96.629 883.663 96.643C883.766 96.657 883.845 96.6803 883.901 96.713V97.966C883.831 97.9333 883.74 97.9123 883.628 97.903C883.521 97.889 883.43 97.882 883.355 97.882C883.066 97.8633 882.795 97.882 882.543 97.938C882.291 97.9893 882.07 98.0803 881.878 98.211C881.687 98.3417 881.535 98.5143 881.423 98.729C881.316 98.939 881.262 99.1957 881.262 99.499V104H879.974ZM888.232 104.14C887.564 104.14 886.981 103.998 886.482 103.713C885.987 103.424 885.602 103.001 885.327 102.446C885.051 101.891 884.914 101.212 884.914 100.409C884.914 99.653 885.042 98.9903 885.299 98.421C885.555 97.8517 885.931 97.4107 886.426 97.098C886.92 96.7807 887.525 96.622 888.239 96.622C888.906 96.622 889.485 96.769 889.975 97.063C890.465 97.3523 890.845 97.7793 891.116 98.344C891.391 98.9087 891.529 99.597 891.529 100.409C891.529 101.146 891.403 101.795 891.151 102.355C890.899 102.915 890.528 103.354 890.038 103.671C889.552 103.984 888.95 104.14 888.232 104.14ZM888.239 103.118C888.668 103.118 889.032 103.008 889.331 102.789C889.629 102.57 889.856 102.255 890.01 101.844C890.168 101.433 890.248 100.946 890.248 100.381C890.248 99.863 890.178 99.3987 890.038 98.988C889.902 98.5727 889.688 98.2437 889.394 98.001C889.1 97.7583 888.715 97.637 888.239 97.637C887.8 97.637 887.429 97.7467 887.126 97.966C886.822 98.1807 886.591 98.4933 886.433 98.904C886.279 99.3147 886.202 99.807 886.202 100.381C886.202 100.89 886.269 101.352 886.405 101.767C886.545 102.182 886.764 102.511 887.063 102.754C887.366 102.997 887.758 103.118 888.239 103.118ZM893.25 104V93.598H894.538V100.381L897.94 96.762H899.424L896.813 99.52L899.606 104H898.234L895.966 100.367L894.538 101.844V104H893.25ZM903.842 104.14C903.17 104.14 902.577 103.993 902.064 103.699C901.551 103.405 901.149 102.983 900.86 102.432C900.571 101.881 900.426 101.221 900.426 100.451C900.426 99.6903 900.557 99.023 900.818 98.449C901.079 97.875 901.457 97.427 901.952 97.105C902.451 96.783 903.051 96.622 903.751 96.622C904.432 96.622 905.009 96.769 905.48 97.063C905.951 97.357 906.308 97.7723 906.551 98.309C906.798 98.841 906.922 99.4733 906.922 100.206V100.682H901.735C901.735 101.139 901.81 101.555 901.959 101.928C902.113 102.297 902.344 102.591 902.652 102.81C902.96 103.029 903.35 103.139 903.821 103.139C904.283 103.139 904.68 103.032 905.011 102.817C905.347 102.602 905.562 102.292 905.655 101.886H906.873C906.789 102.376 906.593 102.789 906.285 103.125C905.982 103.461 905.615 103.715 905.186 103.888C904.761 104.056 904.313 104.14 903.842 104.14ZM901.742 99.807H905.676C905.676 99.3917 905.606 99.0183 905.466 98.687C905.326 98.351 905.111 98.0873 904.822 97.896C904.537 97.7 904.178 97.602 903.744 97.602C903.291 97.602 902.916 97.7117 902.617 97.931C902.318 98.1457 902.097 98.4233 901.952 98.764C901.807 99.1 901.737 99.4477 901.742 99.807ZM908.713 104V96.762H909.966V97.812C910.082 97.6113 910.243 97.4223 910.449 97.245C910.659 97.0677 910.911 96.9253 911.205 96.818C911.503 96.7107 911.846 96.657 912.234 96.657C912.691 96.657 913.111 96.748 913.494 96.93C913.881 97.112 914.189 97.3967 914.418 97.784C914.651 98.1667 914.768 98.6613 914.768 99.268V104H913.473V99.394C913.473 98.8293 913.323 98.4117 913.025 98.141C912.731 97.8657 912.348 97.728 911.877 97.728C911.55 97.728 911.244 97.7817 910.96 97.889C910.675 97.9917 910.444 98.1503 910.267 98.365C910.089 98.575 910.001 98.841 910.001 99.163V104H908.713ZM922.658 104.14C921.716 104.14 920.969 103.818 920.418 103.174C919.872 102.53 919.599 101.59 919.599 100.353C919.599 99.6017 919.709 98.946 919.928 98.386C920.148 97.826 920.477 97.392 920.915 97.084C921.354 96.776 921.9 96.622 922.553 96.622C922.903 96.622 923.211 96.6663 923.477 96.755C923.743 96.8437 923.974 96.9557 924.17 97.091C924.366 97.2263 924.525 97.3663 924.646 97.511C924.772 97.6557 924.866 97.7887 924.926 97.91V93.598H926.235V104H925.241L925.101 102.516C925.055 102.656 924.98 102.819 924.877 103.006C924.775 103.188 924.63 103.368 924.443 103.545C924.261 103.718 924.023 103.86 923.729 103.972C923.435 104.084 923.078 104.14 922.658 104.14ZM922.889 103.146C923.617 103.146 924.138 102.924 924.45 102.481C924.768 102.033 924.926 101.303 924.926 100.29C924.922 99.7253 924.852 99.2447 924.716 98.848C924.581 98.4513 924.366 98.1503 924.072 97.945C923.783 97.735 923.396 97.63 922.91 97.63C922.318 97.63 921.835 97.8423 921.461 98.267C921.088 98.6917 920.901 99.366 920.901 100.29C920.901 101.195 921.069 101.898 921.405 102.397C921.741 102.896 922.236 103.146 922.889 103.146ZM928.49 104V96.762H929.743V104H928.49ZM928.455 95.229V93.885H929.778V95.229H928.455ZM932.88 104V97.707H931.347V96.762H932.88V95.642C932.88 95.068 933.024 94.6317 933.314 94.333C933.608 94.0297 934.046 93.878 934.63 93.878H935.995L936.002 94.795H934.924C934.625 94.795 934.422 94.8743 934.315 95.033C934.207 95.1917 934.154 95.432 934.154 95.754V96.762H935.932V97.707H934.175V104H932.88ZM938.075 104V97.707H936.542V96.762H938.075V95.642C938.075 95.068 938.22 94.6317 938.509 94.333C938.803 94.0297 939.242 93.878 939.825 93.878H941.19L941.197 94.795H940.119C939.82 94.795 939.617 94.8743 939.51 95.033C939.403 95.1917 939.349 95.432 939.349 95.754V96.762H941.127V97.707H939.37V104H938.075ZM948.785 104.14C948.131 104.14 947.553 103.998 947.049 103.713C946.549 103.428 946.157 103.008 945.873 102.453C945.593 101.898 945.453 101.216 945.453 100.409C945.453 99.653 945.581 98.9927 945.838 98.428C946.099 97.8587 946.477 97.4153 946.972 97.098C947.471 96.7807 948.075 96.622 948.785 96.622C949.303 96.622 949.767 96.7223 950.178 96.923C950.593 97.119 950.934 97.399 951.2 97.763C951.466 98.127 951.629 98.5563 951.69 99.051H950.542C950.5 98.799 950.402 98.568 950.248 98.358C950.098 98.148 949.9 97.98 949.653 97.854C949.41 97.728 949.123 97.665 948.792 97.665C948.171 97.665 947.665 97.889 947.273 98.337C946.885 98.785 946.692 99.471 946.692 100.395C946.692 101.23 946.869 101.9 947.224 102.404C947.583 102.903 948.11 103.153 948.806 103.153C949.137 103.153 949.426 103.09 949.674 102.964C949.921 102.833 950.119 102.663 950.269 102.453C950.418 102.238 950.514 102.01 950.556 101.767H951.683C951.622 102.252 951.456 102.672 951.186 103.027C950.92 103.382 950.579 103.657 950.164 103.853C949.753 104.044 949.293 104.14 948.785 104.14ZM953.406 104V93.598H954.666V97.826C954.787 97.6253 954.951 97.4387 955.156 97.266C955.361 97.0887 955.611 96.9463 955.905 96.839C956.199 96.727 956.54 96.671 956.927 96.671C957.398 96.671 957.825 96.7597 958.208 96.937C958.591 97.1097 958.894 97.357 959.118 97.679C959.342 98.001 959.454 98.3837 959.454 98.827V104H958.159V99.086C958.159 98.652 958.01 98.3183 957.711 98.085C957.417 97.847 957.032 97.728 956.556 97.728C956.234 97.728 955.931 97.7817 955.646 97.889C955.361 97.9917 955.13 98.1503 954.953 98.365C954.78 98.575 954.694 98.8433 954.694 99.17V104H953.406ZM963.475 104.14C963.004 104.14 962.588 104.058 962.229 103.895C961.874 103.727 961.594 103.487 961.389 103.174C961.188 102.861 961.088 102.483 961.088 102.04C961.088 101.237 961.368 100.64 961.928 100.248C962.488 99.856 963.386 99.646 964.623 99.618L965.911 99.583V99.016C965.911 98.5727 965.778 98.2227 965.512 97.966C965.246 97.7047 964.835 97.574 964.28 97.574C963.865 97.5787 963.498 97.6767 963.181 97.868C962.864 98.0593 962.661 98.372 962.572 98.806H961.431C961.459 98.3347 961.59 97.938 961.823 97.616C962.061 97.2893 962.395 97.042 962.824 96.874C963.253 96.706 963.76 96.622 964.343 96.622C964.973 96.622 965.496 96.7107 965.911 96.888C966.331 97.0653 966.644 97.3267 966.849 97.672C967.059 98.0173 967.164 98.442 967.164 98.946V104H966.058L965.96 102.642C965.685 103.207 965.33 103.599 964.896 103.818C964.467 104.033 963.993 104.14 963.475 104.14ZM963.86 103.209C964.107 103.209 964.35 103.165 964.588 103.076C964.831 102.987 965.05 102.868 965.246 102.719C965.447 102.565 965.608 102.395 965.729 102.208C965.85 102.017 965.911 101.821 965.911 101.62V100.381L964.84 100.402C964.285 100.411 963.823 100.467 963.454 100.57C963.085 100.673 962.808 100.834 962.621 101.053C962.434 101.272 962.341 101.559 962.341 101.914C962.341 102.32 962.483 102.637 962.768 102.866C963.053 103.095 963.417 103.209 963.86 103.209ZM969.218 104V96.762H970.471V104H969.218ZM969.183 95.229V93.885H970.506V95.229H969.183ZM972.724 104V96.762H973.977V97.812C974.094 97.6113 974.255 97.4223 974.46 97.245C974.67 97.0677 974.922 96.9253 975.216 96.818C975.515 96.7107 975.858 96.657 976.245 96.657C976.703 96.657 977.123 96.748 977.505 96.93C977.893 97.112 978.201 97.3967 978.429 97.784C978.663 98.1667 978.779 98.6613 978.779 99.268V104H977.484V99.394C977.484 98.8293 977.335 98.4117 977.036 98.141C976.742 97.8657 976.36 97.728 975.888 97.728C975.562 97.728 975.256 97.7817 974.971 97.889C974.687 97.9917 974.456 98.1503 974.278 98.365C974.101 98.575 974.012 98.841 974.012 99.163V104H972.724Z" fill="white"/>
<path d="M817 66C817 56.0589 825.059 48 835 48H861C870.941 48 879 56.0589 879 66V66C879 75.9411 870.941 84 861 84H835C825.059 84 817 75.9411 817 66V66Z" fill="#C3F8FB"/>
<path d="M830.701 74V58.817C830.778 58.817 830.992 58.817 831.342 58.817C831.699 58.817 832.115 58.817 832.591 58.817C833.074 58.817 833.554 58.8205 834.03 58.8275C834.513 58.8275 834.915 58.831 835.237 58.838C837.078 58.88 838.58 59.209 839.742 59.825C840.904 60.441 841.754 61.302 842.293 62.408C842.839 63.514 843.112 64.823 843.112 66.335C843.112 67.91 842.825 69.2715 842.251 70.4195C841.677 71.5605 840.799 72.4425 839.616 73.0655C838.44 73.6885 836.945 74 835.132 74H830.701ZM833.788 71.522H835.195C836.063 71.522 836.851 71.354 837.558 71.018C838.272 70.682 838.842 70.1325 839.269 69.3695C839.696 68.6065 839.91 67.588 839.91 66.314C839.91 65.131 839.721 64.172 839.343 63.437C838.965 62.695 838.426 62.1525 837.726 61.8095C837.026 61.4665 836.196 61.295 835.237 61.295H833.788V71.522ZM845.458 74V63.143H848.388V74H845.458ZM845.427 61.589V58.8275H848.409V61.589H845.427ZM852.243 74V65.2745H850.238V63.143H852.243V61.5785C852.243 60.7035 852.502 60.0245 853.02 59.5415C853.538 59.0585 854.266 58.817 855.204 58.817H857.693L857.714 60.854H856.275C855.89 60.854 855.624 60.952 855.477 61.148C855.33 61.337 855.257 61.652 855.257 62.093V63.143H857.609V65.2745H855.32V74H852.243ZM860.385 74V65.2745H858.379V63.143H860.385V61.5785C860.385 60.7035 860.644 60.0245 861.162 59.5415C861.68 59.0585 862.408 58.817 863.346 58.817H865.834L865.855 60.854H864.417C864.032 60.854 863.766 60.952 863.619 61.148C863.472 61.337 863.398 61.652 863.398 62.093V63.143H865.75V65.2745H863.461V74H860.385Z" fill="#1A1B1D"/>
<path d="M895 66C895 56.0589 903.059 48 913 48H939C948.941 48 957 56.0589 957 66V66C957 75.9411 948.941 84 939 84H913C903.059 84 895 75.9411 895 66V66Z" fill="#C3F8FB"/>
<path d="M908.701 74V58.817C908.778 58.817 908.992 58.817 909.342 58.817C909.699 58.817 910.115 58.817 910.591 58.817C911.074 58.817 911.554 58.8205 912.03 58.8275C912.513 58.8275 912.915 58.831 913.237 58.838C915.078 58.88 916.58 59.209 917.742 59.825C918.904 60.441 919.754 61.302 920.293 62.408C920.839 63.514 921.112 64.823 921.112 66.335C921.112 67.91 920.825 69.2715 920.251 70.4195C919.677 71.5605 918.799 72.4425 917.616 73.0655C916.44 73.6885 914.945 74 913.132 74H908.701ZM911.788 71.522H913.195C914.063 71.522 914.851 71.354 915.558 71.018C916.272 70.682 916.842 70.1325 917.269 69.3695C917.696 68.6065 917.91 67.588 917.91 66.314C917.91 65.131 917.721 64.172 917.343 63.437C916.965 62.695 916.426 62.1525 915.726 61.8095C915.026 61.4665 914.196 61.295 913.237 61.295H911.788V71.522ZM923.458 74V63.143H926.388V74H923.458ZM923.427 61.589V58.8275H926.409V61.589H923.427ZM930.243 74V65.2745H928.238V63.143H930.243V61.5785C930.243 60.7035 930.502 60.0245 931.02 59.5415C931.538 59.0585 932.266 58.817 933.204 58.817H935.693L935.714 60.854H934.275C933.89 60.854 933.624 60.952 933.477 61.148C933.33 61.337 933.257 61.652 933.257 62.093V63.143H935.609V65.2745H933.32V74H930.243ZM938.385 74V65.2745H936.379V63.143H938.385V61.5785C938.385 60.7035 938.644 60.0245 939.162 59.5415C939.68 59.0585 940.408 58.817 941.346 58.817H943.834L943.855 60.854H942.417C942.032 60.854 941.766 60.952 941.619 61.148C941.472 61.337 941.398 61.652 941.398 62.093V63.143H943.75V65.2745H941.461V74H938.385Z" fill="#1A1B1D"/>
<path d="M973 66C973 56.0589 981.059 48 991 48H998C1007.94 48 1016 56.0589 1016 66V66C1016 75.9411 1007.94 84 998 84H991C981.059 84 973 75.9411 973 66V66Z" fill="#C3F8FB"/>
<path d="M986.04 74V70.661H989.4V74H986.04ZM992.438 74V70.661H995.798V74H992.438ZM998.836 74V70.661H1002.2V74H998.836Z" fill="#1A1B1D"/>
<path d="M1068.5 63C1067.95 63 1067.5 63.4477 1067.5 64C1067.5 64.5523 1067.95 65 1068.5 65V64V63ZM1149.21 64.7071C1149.6 64.3166 1149.6 63.6834 1149.21 63.2929L1142.84 56.9289C1142.45 56.5384 1141.82 56.5384 1141.43 56.9289C1141.04 57.3195 1141.04 57.9526 1141.43 58.3431L1147.09 64L1141.43 69.6569C1141.04 70.0474 1141.04 70.6805 1141.43 71.0711C1141.82 71.4616 1142.45 71.4616 1142.84 71.0711L1149.21 64.7071ZM1068.5 64V65H1148.5V64V63H1068.5V64Z" fill="black" fill-opacity="0.8"/>
</svg>
