<svg width="562" height="586" viewBox="0 0 562 586" fill="none" xmlns="http://www.w3.org/2000/svg">
<rect x="1" y="1" width="560" height="584" rx="19" stroke="#1A1B1D" stroke-width="2"/>
<rect x="25" y="109" width="221" height="452" rx="20" fill="#F5F6F6"/>
<path d="M77 188.5C77 156.191 103.191 130 135.5 130V130C167.809 130 194 156.191 194 188.5V188.5C194 220.809 167.809 247 135.5 247V247C103.191 247 77 220.809 77 188.5V188.5Z" fill="#014063"/>
<path d="M123.171 267.484V260.393H121.493V258.978H123.171V257.711C123.171 257.031 123.357 256.507 123.73 256.14C124.109 255.772 124.654 255.589 125.367 255.589H127.161L127.169 256.954H125.984C125.661 256.954 125.439 257.039 125.318 257.209C125.197 257.374 125.137 257.634 125.137 257.991V258.978H127.087V260.393H125.17V267.484H123.171ZM132.148 267.649C131.336 267.649 130.629 267.476 130.025 267.131C129.422 266.78 128.953 266.278 128.619 265.625C128.289 264.973 128.125 264.188 128.125 263.272C128.125 262.384 128.287 261.605 128.61 260.936C128.934 260.267 129.395 259.746 129.992 259.373C130.596 259 131.317 258.814 132.156 258.814C132.968 258.814 133.672 258.992 134.27 259.348C134.868 259.705 135.329 260.215 135.652 260.878C135.981 261.542 136.146 262.34 136.146 263.272C136.146 264.133 135.99 264.893 135.677 265.551C135.37 266.204 134.917 266.717 134.32 267.089C133.727 267.462 133.003 267.649 132.148 267.649ZM132.156 266.127C132.617 266.127 132.995 266.001 133.291 265.749C133.593 265.496 133.818 265.151 133.966 264.712C134.114 264.273 134.188 263.774 134.188 263.215C134.188 262.694 134.122 262.214 133.99 261.775C133.859 261.336 133.642 260.985 133.341 260.722C133.044 260.453 132.65 260.319 132.156 260.319C131.69 260.319 131.303 260.442 130.996 260.689C130.694 260.931 130.47 261.271 130.321 261.709C130.173 262.143 130.099 262.644 130.099 263.215C130.099 263.73 130.165 264.21 130.297 264.654C130.428 265.093 130.645 265.45 130.947 265.724C131.248 265.993 131.651 266.127 132.156 266.127ZM141.547 267.649C140.736 267.649 140.028 267.476 139.425 267.131C138.821 266.78 138.353 266.278 138.018 265.625C137.689 264.973 137.524 264.188 137.524 263.272C137.524 262.384 137.686 261.605 138.01 260.936C138.333 260.267 138.794 259.746 139.392 259.373C139.995 259 140.716 258.814 141.555 258.814C142.367 258.814 143.072 258.992 143.67 259.348C144.267 259.705 144.728 260.215 145.052 260.878C145.381 261.542 145.545 262.34 145.545 263.272C145.545 264.133 145.389 264.893 145.076 265.551C144.769 266.204 144.317 266.717 143.719 267.089C143.127 267.462 142.403 267.649 141.547 267.649ZM141.555 266.127C142.016 266.127 142.395 266.001 142.691 265.749C142.992 265.496 143.217 265.151 143.365 264.712C143.513 264.273 143.587 263.774 143.587 263.215C143.587 262.694 143.522 262.214 143.39 261.775C143.258 261.336 143.042 260.985 142.74 260.722C142.444 260.453 142.049 260.319 141.555 260.319C141.089 260.319 140.703 260.442 140.396 260.689C140.094 260.931 139.869 261.271 139.721 261.709C139.573 262.143 139.499 262.644 139.499 263.215C139.499 263.73 139.565 264.21 139.696 264.654C139.828 265.093 140.045 265.45 140.346 265.724C140.648 265.993 141.051 266.127 141.555 266.127ZM108.047 287.516C107.592 286.749 107.197 285.989 106.863 285.238C106.534 284.486 106.276 283.707 106.089 282.901C105.908 282.095 105.818 281.226 105.818 280.293C105.818 278.933 106.037 277.628 106.476 276.378C106.915 275.122 107.48 273.986 108.171 272.972H109.216C108.656 274.036 108.195 275.201 107.833 276.468C107.472 277.729 107.291 279.01 107.291 280.31C107.291 281.544 107.444 282.748 107.751 283.921C108.058 285.089 108.503 286.288 109.084 287.516H108.047ZM113.974 285.649C113.382 285.649 112.831 285.558 112.321 285.377C111.816 285.191 111.397 284.903 111.062 284.514C110.728 284.119 110.519 283.617 110.437 283.008H111.819C111.89 283.343 112.027 283.622 112.23 283.847C112.433 284.067 112.683 284.234 112.979 284.349C113.281 284.459 113.61 284.514 113.966 284.514C114.542 284.514 115.005 284.407 115.356 284.193C115.707 283.979 115.883 283.65 115.883 283.206C115.883 282.893 115.79 282.643 115.603 282.457C115.422 282.265 115.137 282.125 114.748 282.037L112.987 281.601C112.302 281.437 111.753 281.179 111.342 280.828C110.936 280.477 110.73 279.986 110.725 279.356C110.725 278.857 110.846 278.418 111.087 278.039C111.328 277.661 111.687 277.362 112.165 277.143C112.647 276.923 113.248 276.814 113.966 276.814C114.893 276.814 115.639 277.022 116.204 277.439C116.769 277.85 117.065 278.456 117.092 279.257H115.743C115.688 278.851 115.507 278.53 115.2 278.294C114.893 278.053 114.476 277.932 113.95 277.932C113.412 277.932 112.971 278.042 112.625 278.261C112.285 278.475 112.115 278.81 112.115 279.265C112.115 279.567 112.236 279.805 112.477 279.981C112.724 280.151 113.08 280.293 113.547 280.409L115.258 280.836C115.647 280.941 115.971 281.078 116.228 281.248C116.486 281.418 116.689 281.607 116.837 281.815C116.985 282.024 117.089 282.243 117.15 282.473C117.216 282.698 117.249 282.915 117.249 283.123C117.249 283.644 117.12 284.094 116.862 284.473C116.604 284.845 116.231 285.136 115.743 285.345C115.255 285.547 114.665 285.649 113.974 285.649ZM122.643 285.649C121.859 285.649 121.173 285.482 120.586 285.147C120.005 284.807 119.552 284.311 119.229 283.658C118.905 283.005 118.743 282.207 118.743 281.264C118.743 280.376 118.894 279.597 119.196 278.928C119.498 278.259 119.939 277.74 120.52 277.373C121.102 277 121.812 276.814 122.651 276.814C123.435 276.814 124.115 276.986 124.691 277.332C125.267 277.672 125.714 278.174 126.032 278.837C126.356 279.501 126.518 280.31 126.518 281.264C126.518 282.131 126.369 282.893 126.073 283.551C125.777 284.209 125.341 284.725 124.765 285.098C124.195 285.465 123.487 285.649 122.643 285.649ZM122.651 284.448C123.156 284.448 123.583 284.319 123.934 284.061C124.285 283.803 124.551 283.433 124.732 282.951C124.919 282.468 125.012 281.895 125.012 281.231C125.012 280.622 124.93 280.077 124.765 279.594C124.606 279.106 124.354 278.719 124.008 278.434C123.663 278.149 123.21 278.006 122.651 278.006C122.136 278.006 121.7 278.135 121.343 278.393C120.987 278.645 120.715 279.013 120.529 279.495C120.348 279.978 120.257 280.557 120.257 281.231C120.257 281.829 120.337 282.372 120.496 282.86C120.66 283.348 120.918 283.735 121.269 284.02C121.625 284.305 122.086 284.448 122.651 284.448ZM131.634 285.649C131.19 285.643 130.77 285.58 130.375 285.46C129.986 285.334 129.641 285.15 129.339 284.909C129.037 284.667 128.799 284.368 128.623 284.012C128.453 283.65 128.368 283.23 128.368 282.753V276.978H129.89V282.597C129.89 283.151 130.06 283.6 130.4 283.946C130.746 284.292 131.264 284.464 131.955 284.464C132.58 284.464 133.082 284.302 133.46 283.979C133.844 283.65 134.036 283.162 134.036 282.515V276.978H135.55V285.484H134.341L134.184 283.856C134.08 284.283 133.902 284.629 133.65 284.892C133.403 285.155 133.104 285.35 132.753 285.476C132.407 285.597 132.034 285.654 131.634 285.649ZM138.149 285.484V276.978H139.596V278.615C139.739 278.209 139.939 277.875 140.197 277.612C140.455 277.343 140.748 277.143 141.077 277.011C141.412 276.879 141.757 276.814 142.114 276.814C142.24 276.814 142.363 276.822 142.484 276.838C142.605 276.855 142.698 276.882 142.764 276.921V278.393C142.681 278.355 142.574 278.33 142.443 278.319C142.317 278.303 142.21 278.294 142.122 278.294C141.782 278.272 141.464 278.294 141.168 278.36C140.871 278.42 140.611 278.527 140.386 278.681C140.161 278.835 139.983 279.037 139.851 279.29C139.725 279.537 139.662 279.838 139.662 280.195V285.484H138.149ZM147.869 285.649C147.101 285.649 146.421 285.482 145.829 285.147C145.242 284.813 144.782 284.319 144.447 283.666C144.118 283.014 143.953 282.213 143.953 281.264C143.953 280.376 144.104 279.6 144.406 278.936C144.713 278.267 145.157 277.746 145.739 277.373C146.325 277 147.036 276.814 147.869 276.814C148.478 276.814 149.024 276.931 149.506 277.167C149.994 277.398 150.395 277.727 150.707 278.155C151.02 278.582 151.212 279.087 151.283 279.668H149.934C149.885 279.372 149.77 279.101 149.589 278.854C149.413 278.607 149.18 278.41 148.889 278.261C148.604 278.113 148.267 278.039 147.877 278.039C147.148 278.039 146.553 278.303 146.092 278.829C145.637 279.356 145.409 280.162 145.409 281.248C145.409 282.229 145.618 283.016 146.035 283.609C146.457 284.196 147.077 284.489 147.894 284.489C148.283 284.489 148.623 284.415 148.914 284.267C149.205 284.113 149.438 283.913 149.613 283.666C149.789 283.414 149.901 283.145 149.951 282.86H151.275C151.204 283.43 151.009 283.924 150.691 284.341C150.378 284.758 149.978 285.081 149.49 285.312C149.007 285.536 148.467 285.649 147.869 285.649ZM156.943 285.649C156.154 285.649 155.457 285.476 154.854 285.131C154.251 284.785 153.779 284.289 153.439 283.642C153.099 282.994 152.929 282.218 152.929 281.314C152.929 280.42 153.082 279.635 153.389 278.961C153.697 278.286 154.141 277.76 154.722 277.381C155.309 277.003 156.014 276.814 156.836 276.814C157.637 276.814 158.314 276.986 158.868 277.332C159.422 277.677 159.842 278.165 160.127 278.796C160.418 279.421 160.563 280.165 160.563 281.026V281.585H154.467C154.467 282.122 154.555 282.611 154.73 283.049C154.911 283.483 155.183 283.828 155.545 284.086C155.907 284.344 156.365 284.473 156.919 284.473C157.462 284.473 157.928 284.346 158.317 284.094C158.712 283.842 158.964 283.477 159.074 283H160.505C160.407 283.576 160.176 284.061 159.814 284.456C159.458 284.851 159.027 285.15 158.523 285.353C158.024 285.55 157.497 285.649 156.943 285.649ZM154.475 280.557H159.099C159.099 280.069 159.016 279.63 158.852 279.24C158.687 278.846 158.435 278.536 158.095 278.311C157.761 278.08 157.338 277.965 156.828 277.965C156.296 277.965 155.855 278.094 155.504 278.352C155.153 278.604 154.892 278.931 154.722 279.331C154.552 279.726 154.47 280.134 154.475 280.557ZM161.701 287.516C162.282 286.288 162.726 285.089 163.033 283.921C163.34 282.748 163.494 281.544 163.494 280.31C163.494 279.01 163.313 277.729 162.951 276.468C162.589 275.201 162.128 274.036 161.569 272.972H162.614C163.305 273.986 163.867 275.122 164.3 276.378C164.739 277.628 164.958 278.933 164.958 280.293C164.958 281.226 164.868 282.095 164.687 282.901C164.506 283.707 164.248 284.486 163.914 285.238C163.579 285.989 163.187 286.749 162.737 287.516H161.701Z" fill="#1A1B1D"/>
<path d="M27.4968 52.36C25.1088 52.36 23.0568 51.814 21.3408 50.722C19.6368 49.618 18.3228 48.058 17.3988 46.042C16.4868 44.014 16.0308 41.608 16.0308 38.824C16.0308 36.052 16.4868 33.682 17.3988 31.714C18.3108 29.746 19.6188 28.24 21.3228 27.196C23.0388 26.14 25.0968 25.612 27.4968 25.612C29.4048 25.612 31.0968 26.002 32.5728 26.782C34.0488 27.55 35.2368 28.594 36.1368 29.914C37.0488 31.234 37.5888 32.704 37.7568 34.324H33.1308C32.9508 33.364 32.6148 32.506 32.1228 31.75C31.6428 30.994 31.0068 30.394 30.2148 29.95C29.4228 29.506 28.4748 29.284 27.3708 29.284C25.9908 29.284 24.8148 29.614 23.8428 30.274C22.8828 30.922 22.1448 31.954 21.6288 33.37C21.1248 34.786 20.8728 36.622 20.8728 38.878C20.8728 42.298 21.4368 44.788 22.5648 46.348C23.6928 47.908 25.2948 48.688 27.3708 48.688C28.4748 48.688 29.4228 48.448 30.2148 47.968C31.0068 47.476 31.6428 46.828 32.1228 46.024C32.6148 45.208 32.9508 44.32 33.1308 43.36H37.7568C37.6128 44.536 37.3128 45.664 36.8568 46.744C36.4128 47.824 35.7828 48.79 34.9668 49.642C34.1508 50.482 33.1248 51.148 31.8888 51.64C30.6648 52.12 29.2008 52.36 27.4968 52.36ZM47.4085 52.27C46.2085 52.27 45.2485 52.12 44.5285 51.82C43.8085 51.52 43.2685 51.118 42.9085 50.614C42.5485 50.11 42.3145 49.546 42.2065 48.922C42.0985 48.286 42.0445 47.638 42.0445 46.978V25.252H46.3285V46.474C46.3285 47.278 46.4905 47.902 46.8145 48.346C47.1505 48.79 47.6905 49.048 48.4345 49.12L49.3705 49.156V51.91C49.0465 52.006 48.7165 52.09 48.3805 52.162C48.0445 52.234 47.7205 52.27 47.4085 52.27ZM60.2979 52.36C58.5219 52.36 56.9739 51.982 55.6539 51.226C54.3339 50.458 53.3079 49.36 52.5759 47.932C51.8559 46.504 51.4959 44.788 51.4959 42.784C51.4959 40.84 51.8499 39.136 52.5579 37.672C53.2659 36.208 54.2739 35.068 55.5819 34.252C56.9019 33.436 58.4799 33.028 60.3159 33.028C62.0919 33.028 63.6339 33.418 64.9419 34.198C66.2499 34.978 67.2579 36.094 67.9659 37.546C68.6859 38.998 69.0459 40.744 69.0459 42.784C69.0459 44.668 68.7039 46.33 68.0199 47.77C67.3479 49.198 66.3579 50.32 65.0499 51.136C63.7539 51.952 62.1699 52.36 60.2979 52.36ZM60.3159 49.03C61.3239 49.03 62.1519 48.754 62.7999 48.202C63.4599 47.65 63.9519 46.894 64.2759 45.934C64.5999 44.974 64.7619 43.882 64.7619 42.658C64.7619 41.518 64.6179 40.468 64.3299 39.508C64.0419 38.548 63.5679 37.78 62.9079 37.204C62.2599 36.616 61.3959 36.322 60.3159 36.322C59.2959 36.322 58.4499 36.592 57.7779 37.132C57.1179 37.66 56.6259 38.404 56.3019 39.364C55.9779 40.312 55.8159 41.41 55.8159 42.658C55.8159 43.786 55.9599 44.836 56.2479 45.808C56.5359 46.768 57.0099 47.548 57.6699 48.148C58.3299 48.736 59.2119 49.03 60.3159 49.03ZM79.7868 52.36C78.8748 52.36 77.9928 52.228 77.1408 51.964C76.3008 51.688 75.5448 51.292 74.8728 50.776C74.2008 50.248 73.6668 49.6 73.2708 48.832C72.8748 48.064 72.6768 47.17 72.6768 46.15V33.388H77.0688V45.646C77.0688 46.654 77.3868 47.482 78.0228 48.13C78.6708 48.778 79.6428 49.102 80.9388 49.102C82.1148 49.102 83.0568 48.796 83.7648 48.184C84.4728 47.56 84.8268 46.666 84.8268 45.502V33.388H89.1828V52H85.8168L85.3308 48.364C85.1028 49.384 84.7008 50.188 84.1248 50.776C83.5608 51.352 82.8948 51.76 82.1268 52C81.3708 52.24 80.5908 52.36 79.7868 52.36ZM101.058 52.36C98.5981 52.36 96.6661 51.514 95.2621 49.822C93.8581 48.13 93.1561 45.724 93.1561 42.604C93.1561 40.66 93.4381 38.974 94.0021 37.546C94.5781 36.106 95.4241 34.996 96.5401 34.216C97.6561 33.424 99.0301 33.028 100.662 33.028C101.43 33.028 102.126 33.124 102.75 33.316C103.386 33.496 103.95 33.736 104.442 34.036C104.934 34.336 105.348 34.666 105.684 35.026C106.032 35.386 106.302 35.746 106.494 36.106V25.252H110.904V52H107.664L107.178 48.184C107.022 48.628 106.8 49.096 106.512 49.588C106.236 50.068 105.858 50.518 105.378 50.938C104.91 51.358 104.322 51.7 103.614 51.964C102.906 52.228 102.054 52.36 101.058 52.36ZM101.958 49.138C103.53 49.138 104.676 48.628 105.396 47.608C106.128 46.576 106.494 44.872 106.494 42.496C106.482 41.14 106.314 40 105.99 39.076C105.678 38.152 105.198 37.456 104.55 36.988C103.902 36.52 103.056 36.286 102.012 36.286C100.692 36.286 99.6061 36.772 98.7541 37.744C97.9141 38.716 97.4941 40.3 97.4941 42.496C97.4941 44.68 97.8841 46.336 98.6641 47.464C99.4441 48.58 100.542 49.138 101.958 49.138ZM124.24 52V33.388H128.434V37.42C128.734 36.496 129.16 35.71 129.712 35.062C130.276 34.402 130.936 33.898 131.692 33.55C132.448 33.202 133.27 33.028 134.158 33.028C134.374 33.028 134.584 33.04 134.788 33.064C134.992 33.088 135.142 33.13 135.238 33.19V37.384C135.106 37.324 134.932 37.282 134.716 37.258C134.512 37.234 134.332 37.222 134.176 37.222C133.276 37.15 132.478 37.186 131.782 37.33C131.098 37.474 130.516 37.72 130.036 38.068C129.568 38.404 129.214 38.836 128.974 39.364C128.734 39.88 128.614 40.486 128.614 41.182V52H124.24ZM146.81 52.36C145.022 52.36 143.444 51.982 142.076 51.226C140.72 50.458 139.658 49.366 138.89 47.95C138.134 46.534 137.756 44.848 137.756 42.892C137.756 40.984 138.098 39.292 138.782 37.816C139.478 36.328 140.48 35.158 141.788 34.306C143.108 33.454 144.698 33.028 146.558 33.028C148.394 33.028 149.936 33.418 151.184 34.198C152.432 34.978 153.38 36.07 154.028 37.474C154.676 38.866 155 40.498 155 42.37V43.702H142.13C142.118 44.758 142.286 45.694 142.634 46.51C142.982 47.326 143.498 47.968 144.182 48.436C144.866 48.892 145.712 49.12 146.72 49.12C147.752 49.12 148.646 48.892 149.402 48.436C150.17 47.968 150.68 47.26 150.932 46.312H154.928C154.712 47.608 154.196 48.706 153.38 49.606C152.576 50.506 151.592 51.19 150.428 51.658C149.276 52.126 148.07 52.36 146.81 52.36ZM142.112 40.984H150.86C150.86 40.084 150.698 39.274 150.374 38.554C150.062 37.822 149.588 37.246 148.952 36.826C148.316 36.394 147.512 36.178 146.54 36.178C145.58 36.178 144.77 36.412 144.11 36.88C143.45 37.348 142.952 37.954 142.616 38.698C142.28 39.43 142.112 40.192 142.112 40.984ZM167.289 58.156C164.157 58.156 161.751 57.736 160.071 56.896C158.391 56.056 157.551 54.904 157.551 53.44C157.551 52.78 157.713 52.228 158.037 51.784C158.361 51.34 158.745 50.974 159.189 50.686C159.633 50.398 160.041 50.176 160.413 50.02C160.785 49.864 161.025 49.75 161.133 49.678C160.929 49.558 160.659 49.402 160.323 49.21C159.987 49.018 159.681 48.754 159.405 48.418C159.141 48.082 159.009 47.644 159.009 47.104C159.009 46.48 159.303 45.904 159.891 45.376C160.491 44.848 161.385 44.47 162.573 44.242C161.409 43.678 160.515 42.916 159.891 41.956C159.267 40.996 158.955 40 158.955 38.968C158.955 37.744 159.309 36.694 160.017 35.818C160.737 34.942 161.733 34.27 163.005 33.802C164.277 33.334 165.759 33.1 167.451 33.1C168.687 33.1 169.713 33.238 170.529 33.514C171.357 33.79 172.125 34.162 172.833 34.63C173.073 34.534 173.409 34.402 173.841 34.234C174.273 34.054 174.747 33.862 175.263 33.658C175.779 33.442 176.277 33.238 176.757 33.046C177.237 32.842 177.639 32.674 177.963 32.542L177.945 36.16L174.723 36.736C174.879 37.084 174.999 37.462 175.083 37.87C175.179 38.278 175.227 38.638 175.227 38.95C175.227 40.03 174.921 41.032 174.309 41.956C173.709 42.868 172.803 43.6 171.591 44.152C170.391 44.704 168.891 44.98 167.091 44.98C166.911 44.98 166.665 44.974 166.353 44.962C166.041 44.95 165.789 44.938 165.597 44.926C164.625 44.962 163.959 45.076 163.599 45.268C163.239 45.46 163.059 45.67 163.059 45.898C163.059 46.222 163.329 46.438 163.869 46.546C164.409 46.654 165.273 46.75 166.461 46.834C166.881 46.858 167.433 46.888 168.117 46.924C168.801 46.96 169.563 47.008 170.403 47.068C172.527 47.2 174.135 47.734 175.227 48.67C176.319 49.594 176.865 50.794 176.865 52.27C176.865 53.986 176.073 55.396 174.489 56.5C172.905 57.604 170.505 58.156 167.289 58.156ZM168.027 55.582C169.599 55.582 170.763 55.366 171.519 54.934C172.275 54.502 172.653 53.866 172.653 53.026C172.653 52.378 172.395 51.85 171.879 51.442C171.363 51.034 170.595 50.794 169.575 50.722L164.877 50.434C164.361 50.398 163.869 50.494 163.401 50.722C162.945 50.938 162.573 51.244 162.285 51.64C161.997 52.024 161.853 52.45 161.853 52.918C161.853 53.794 162.351 54.454 163.347 54.898C164.355 55.354 165.915 55.582 168.027 55.582ZM167.235 42.406C168.375 42.406 169.299 42.118 170.007 41.542C170.715 40.954 171.069 40.126 171.069 39.058C171.069 37.954 170.715 37.096 170.007 36.484C169.299 35.86 168.375 35.548 167.235 35.548C166.071 35.548 165.129 35.86 164.409 36.484C163.701 37.108 163.347 37.966 163.347 39.058C163.347 40.09 163.689 40.906 164.373 41.506C165.057 42.106 166.011 42.406 167.235 42.406ZM181.616 52V33.388H185.81V52H181.616ZM181.544 30.13V25.99H185.882V30.13H181.544ZM198.638 52.36C196.862 52.36 195.314 51.982 193.994 51.226C192.674 50.458 191.648 49.36 190.916 47.932C190.196 46.504 189.836 44.788 189.836 42.784C189.836 40.84 190.19 39.136 190.898 37.672C191.606 36.208 192.614 35.068 193.922 34.252C195.242 33.436 196.82 33.028 198.656 33.028C200.432 33.028 201.974 33.418 203.282 34.198C204.59 34.978 205.598 36.094 206.306 37.546C207.026 38.998 207.386 40.744 207.386 42.784C207.386 44.668 207.044 46.33 206.36 47.77C205.688 49.198 204.698 50.32 203.39 51.136C202.094 51.952 200.51 52.36 198.638 52.36ZM198.656 49.03C199.664 49.03 200.492 48.754 201.14 48.202C201.8 47.65 202.292 46.894 202.616 45.934C202.94 44.974 203.102 43.882 203.102 42.658C203.102 41.518 202.958 40.468 202.67 39.508C202.382 38.548 201.908 37.78 201.248 37.204C200.6 36.616 199.736 36.322 198.656 36.322C197.636 36.322 196.79 36.592 196.118 37.132C195.458 37.66 194.966 38.404 194.642 39.364C194.318 40.312 194.156 41.41 194.156 42.658C194.156 43.786 194.3 44.836 194.588 45.808C194.876 46.768 195.35 47.548 196.01 48.148C196.67 48.736 197.552 49.03 198.656 49.03ZM211.392 52V33.388H215.676V36.052C215.964 35.572 216.354 35.11 216.846 34.666C217.35 34.222 217.968 33.862 218.7 33.586C219.432 33.31 220.29 33.172 221.274 33.172C222.426 33.172 223.494 33.4 224.478 33.856C225.474 34.312 226.272 35.026 226.872 35.998C227.484 36.97 227.79 38.224 227.79 39.76V52H223.398V40.282C223.398 39.058 223.062 38.152 222.39 37.564C221.718 36.964 220.872 36.664 219.852 36.664C219.156 36.664 218.496 36.784 217.872 37.024C217.248 37.252 216.738 37.606 216.342 38.086C215.958 38.554 215.766 39.142 215.766 39.85V52H211.392ZM244.83 52V31.948H240.006V29.338C241.53 29.338 242.736 29.212 243.624 28.96C244.524 28.696 245.178 28.312 245.586 27.808C246.006 27.304 246.246 26.692 246.306 25.972H249.294V52H244.83ZM52.1788 96.446C51.1828 94.766 50.3188 93.104 49.5868 91.46C48.8668 89.816 48.3028 88.112 47.8948 86.348C47.4988 84.584 47.3008 82.682 47.3008 80.642C47.3008 77.666 47.7808 74.81 48.7408 72.074C49.7008 69.326 50.9368 66.842 52.4488 64.622H54.7348C53.5108 66.95 52.5028 69.5 51.7108 72.272C50.9188 75.032 50.5228 77.834 50.5228 80.678C50.5228 83.378 50.8588 86.012 51.5308 88.58C52.2028 91.136 53.1748 93.758 54.4468 96.446H52.1788ZM68.7112 92.36C66.3712 92.36 64.3732 91.826 62.7172 90.758C61.0732 89.69 59.8132 88.154 58.9372 86.15C58.0732 84.146 57.6412 81.728 57.6412 78.896C57.6412 76.076 58.0732 73.676 58.9372 71.696C59.8012 69.716 61.0552 68.21 62.6992 67.178C64.3552 66.134 66.3592 65.612 68.7112 65.612C70.5472 65.612 72.1732 65.996 73.5892 66.764C75.0052 67.52 76.1452 68.534 77.0092 69.806C77.8732 71.078 78.3832 72.476 78.5392 74H74.9932C74.8012 72.98 74.4352 72.056 73.8952 71.228C73.3552 70.4 72.6472 69.74 71.7712 69.248C70.8952 68.756 69.8452 68.51 68.6212 68.51C67.0492 68.51 65.7172 68.882 64.6252 69.626C63.5452 70.358 62.7232 71.492 62.1592 73.028C61.6072 74.564 61.3312 76.532 61.3312 78.932C61.3312 82.556 61.9492 85.22 63.1852 86.924C64.4332 88.616 66.2452 89.462 68.6212 89.462C69.8452 89.462 70.8952 89.204 71.7712 88.688C72.6472 88.172 73.3552 87.482 73.8952 86.618C74.4352 85.754 74.8012 84.818 74.9932 83.81H78.5392C78.4072 84.914 78.1072 85.982 77.6392 87.014C77.1832 88.034 76.5532 88.946 75.7492 89.75C74.9452 90.554 73.9552 91.19 72.7792 91.658C71.6152 92.126 70.2592 92.36 68.7112 92.36ZM87.9344 92.234C86.9264 92.234 86.1104 92.096 85.4864 91.82C84.8744 91.544 84.4004 91.172 84.0644 90.704C83.7404 90.236 83.5184 89.702 83.3984 89.102C83.2904 88.49 83.2364 87.86 83.2364 87.212V65.252H86.5124V86.888C86.5124 87.824 86.6924 88.526 87.0524 88.994C87.4244 89.462 87.9404 89.72 88.6004 89.768L89.6084 89.786V91.946C89.3324 92.03 89.0444 92.096 88.7444 92.144C88.4444 92.204 88.1744 92.234 87.9344 92.234ZM100.377 92.36C99.4052 92.348 98.4872 92.21 97.6232 91.946C96.7712 91.67 96.0151 91.268 95.3551 90.74C94.6951 90.212 94.1731 89.558 93.7891 88.778C93.4171 87.986 93.2311 87.068 93.2311 86.024V73.388H96.5611V85.682C96.5611 86.894 96.9331 87.878 97.6772 88.634C98.4331 89.39 99.5671 89.768 101.079 89.768C102.447 89.768 103.545 89.414 104.373 88.706C105.213 87.986 105.633 86.918 105.633 85.502V73.388H108.945V92H106.299L105.957 88.436C105.729 89.372 105.339 90.128 104.787 90.704C104.247 91.28 103.593 91.706 102.825 91.982C102.069 92.246 101.253 92.372 100.377 92.36ZM121.116 92.36C119.82 92.36 118.614 92.162 117.498 91.766C116.394 91.358 115.476 90.728 114.744 89.876C114.012 89.012 113.556 87.914 113.376 86.582H116.4C116.556 87.314 116.856 87.926 117.3 88.418C117.744 88.898 118.29 89.264 118.938 89.516C119.598 89.756 120.318 89.876 121.098 89.876C122.358 89.876 123.372 89.642 124.14 89.174C124.908 88.706 125.292 87.986 125.292 87.014C125.292 86.33 125.088 85.784 124.68 85.376C124.284 84.956 123.66 84.65 122.808 84.458L118.956 83.504C117.456 83.144 116.256 82.58 115.356 81.812C114.468 81.044 114.018 79.97 114.006 78.59C114.006 77.498 114.27 76.538 114.798 75.71C115.326 74.882 116.112 74.228 117.156 73.748C118.212 73.268 119.526 73.028 121.098 73.028C123.126 73.028 124.758 73.484 125.994 74.396C127.23 75.296 127.878 76.622 127.938 78.374H124.986C124.866 77.486 124.47 76.784 123.798 76.268C123.126 75.74 122.214 75.476 121.062 75.476C119.886 75.476 118.92 75.716 118.164 76.196C117.42 76.664 117.048 77.396 117.048 78.392C117.048 79.052 117.312 79.574 117.84 79.958C118.38 80.33 119.16 80.642 120.18 80.894L123.924 81.83C124.776 82.058 125.484 82.358 126.048 82.73C126.612 83.102 127.056 83.516 127.38 83.972C127.704 84.428 127.932 84.908 128.064 85.412C128.208 85.904 128.28 86.378 128.28 86.834C128.28 87.974 127.998 88.958 127.434 89.786C126.87 90.602 126.054 91.238 124.986 91.694C123.918 92.138 122.628 92.36 121.116 92.36ZM139.066 92.09C137.782 92.09 136.786 91.916 136.078 91.568C135.37 91.22 134.872 90.704 134.584 90.02C134.308 89.336 134.17 88.496 134.17 87.5V75.818H131.146V73.388H134.26L135.07 67.97H137.518V73.37H141.712V75.818H137.518V87.392C137.518 88.052 137.584 88.538 137.716 88.85C137.86 89.15 138.094 89.342 138.418 89.426C138.742 89.51 139.198 89.552 139.786 89.552H141.82V91.784C141.592 91.868 141.244 91.94 140.776 92C140.32 92.06 139.75 92.09 139.066 92.09ZM153.61 92.36C151.882 92.36 150.358 91.982 149.038 91.226C147.718 90.47 146.686 89.384 145.942 87.968C145.198 86.552 144.826 84.854 144.826 82.874C144.826 80.918 145.162 79.202 145.834 77.726C146.506 76.25 147.478 75.098 148.75 74.27C150.034 73.442 151.576 73.028 153.376 73.028C155.128 73.028 156.61 73.406 157.822 74.162C159.034 74.918 159.952 75.986 160.576 77.366C161.212 78.734 161.53 80.36 161.53 82.244V83.468H148.192C148.192 84.644 148.384 85.712 148.768 86.672C149.164 87.62 149.758 88.376 150.55 88.94C151.342 89.504 152.344 89.786 153.556 89.786C154.744 89.786 155.764 89.51 156.616 88.958C157.48 88.406 158.032 87.608 158.272 86.564H161.404C161.188 87.824 160.684 88.886 159.892 89.75C159.112 90.614 158.17 91.268 157.066 91.712C155.974 92.144 154.822 92.36 153.61 92.36ZM148.21 81.218H158.326C158.326 80.15 158.146 79.19 157.786 78.338C157.426 77.474 156.874 76.796 156.13 76.304C155.398 75.8 154.474 75.548 153.358 75.548C152.194 75.548 151.228 75.83 150.46 76.394C149.692 76.946 149.122 77.66 148.75 78.536C148.378 79.4 148.198 80.294 148.21 81.218ZM166.135 92V73.388H169.303V76.97C169.615 76.082 170.053 75.35 170.617 74.774C171.181 74.186 171.823 73.748 172.543 73.46C173.275 73.172 174.031 73.028 174.811 73.028C175.087 73.028 175.357 73.046 175.621 73.082C175.885 73.118 176.089 73.178 176.233 73.262V76.484C176.053 76.4 175.819 76.346 175.531 76.322C175.255 76.286 175.021 76.268 174.829 76.268C174.085 76.22 173.389 76.268 172.741 76.412C172.093 76.544 171.523 76.778 171.031 77.114C170.539 77.45 170.149 77.894 169.861 78.446C169.585 78.986 169.447 79.646 169.447 80.426V92H166.135ZM187.691 92L197.105 65.972H200.867L210.281 92H206.879L204.323 84.872H193.649L191.075 92H187.691ZM194.531 81.812H203.405L198.977 69.23L194.531 81.812ZM212.781 96.446C214.053 93.758 215.025 91.136 215.697 88.58C216.369 86.012 216.705 83.378 216.705 80.678C216.705 77.834 216.309 75.032 215.517 72.272C214.725 69.5 213.717 66.95 212.493 64.622H214.779C216.291 66.842 217.521 69.326 218.469 72.074C219.429 74.81 219.909 77.666 219.909 80.642C219.909 82.682 219.711 84.584 219.315 86.348C218.919 88.112 218.355 89.816 217.623 91.46C216.891 93.104 216.033 94.766 215.049 96.446H212.781Z" fill="#1A1B1D"/>
<path d="M135.894 162C125.338 162 113.848 164.578 113.848 170.184C113.848 175.79 125.338 178.369 135.894 178.369C146.449 178.369 157.794 175.79 157.794 170.184C157.794 164.578 146.449 162 135.894 162Z" fill="white"/>
<path fill-rule="evenodd" clip-rule="evenodd" d="M135.894 182.87C127.615 182.87 118.841 181.421 113.848 177.943V207.15C113.848 212.756 125.338 215.334 135.894 215.334C146.449 215.334 157.793 212.756 157.793 207.15V178.232C152.8 181.711 144.172 182.87 135.894 182.87ZM136.729 189.827C132.599 189.827 129.827 192.233 129.827 196.88V200.182C130.223 199.986 130.675 199.874 131.156 199.874C131.637 199.874 132.09 199.986 132.514 200.182V196.851C132.514 193.829 134.183 192.29 136.729 192.29C139.275 192.29 140.944 193.829 140.944 196.851V204.1H143.631V196.851C143.66 192.178 140.859 189.827 136.729 189.827ZM122.896 198.615C123.123 198.251 123.434 197.971 123.773 197.803C124.396 197.495 125.16 197.495 125.81 197.775C126.404 198.139 126.688 198.755 126.857 199.37C127.084 200.154 127.366 200.742 128.074 201.162C128.781 201.582 129.46 201.498 130.252 201.302C130.902 201.163 131.581 201.078 132.176 201.414C132.826 201.778 133.222 202.421 133.25 203.121V203.401C133.194 204.072 132.826 204.744 132.176 205.108C131.554 205.471 130.875 205.388 130.252 205.22C129.46 205.024 128.781 204.939 128.074 205.359C127.338 205.751 127.083 206.367 126.857 207.151C126.688 207.767 126.404 208.411 125.81 208.746C125.16 209.11 124.396 209.11 123.773 208.802C123.406 208.634 123.122 208.354 122.896 207.99C122.67 207.626 122.585 207.235 122.613 206.843C122.67 206.171 123.038 205.5 123.688 205.136C124.31 204.772 124.989 204.856 125.611 205.024C126.403 205.22 127.082 205.304 127.79 204.884H127.818C129.035 204.185 129.035 202.421 127.818 201.721H127.79C127.083 201.301 126.404 201.385 125.611 201.581C124.961 201.721 124.282 201.805 123.688 201.469C123.038 201.106 122.642 200.462 122.613 199.762C122.585 199.37 122.67 198.979 122.896 198.615Z" fill="white"/>
<path d="M77.4141 447.5C77.4141 415.191 103.605 389 135.914 389V389C168.223 389 194.414 415.191 194.414 447.5V447.5C194.414 479.809 168.223 506 135.914 506V506C103.605 506 77.4141 479.809 77.4141 447.5V447.5Z" fill="#0C4D31"/>
<path d="M93.2725 526.484V514.589C93.3219 514.589 93.4672 514.589 93.7085 514.589C93.9498 514.589 94.235 514.589 94.5641 514.589C94.8986 514.589 95.2359 514.592 95.5759 514.597C95.9215 514.597 96.2204 514.6 96.4726 514.605C97.9205 514.633 99.0969 514.882 100.002 515.354C100.912 515.82 101.579 516.486 102.001 517.353C102.429 518.214 102.643 519.253 102.643 520.471C102.643 521.743 102.415 522.826 101.96 523.72C101.51 524.614 100.819 525.3 99.8867 525.777C98.9598 526.249 97.7807 526.484 96.3492 526.484H93.2725ZM95.3045 524.831H96.3822C97.1993 524.831 97.9205 524.691 98.5457 524.411C99.171 524.126 99.6591 523.665 100.01 523.029C100.367 522.393 100.545 521.543 100.545 520.479C100.545 519.448 100.38 518.623 100.051 518.003C99.7221 517.383 99.2505 516.936 98.6362 516.662C98.022 516.382 97.2871 516.242 96.4315 516.242H95.3045V524.831ZM107.077 526.649C106.534 526.649 106.046 526.55 105.612 526.353C105.185 526.15 104.847 525.862 104.601 525.489C104.359 525.111 104.239 524.653 104.239 524.115C104.239 523.177 104.576 522.47 105.251 521.993C105.931 521.516 107.011 521.266 108.492 521.244L109.767 521.211V520.635C109.767 520.186 109.633 519.835 109.364 519.582C109.101 519.325 108.689 519.198 108.13 519.204C107.713 519.209 107.335 519.308 106.995 519.5C106.655 519.686 106.43 520.002 106.32 520.446H104.617C104.65 519.865 104.817 519.379 105.119 518.99C105.426 518.595 105.846 518.302 106.378 518.11C106.91 517.912 107.524 517.814 108.22 517.814C109.032 517.814 109.693 517.921 110.203 518.134C110.713 518.348 111.089 518.658 111.33 519.064C111.571 519.464 111.692 519.95 111.692 520.52V526.484H110.005L109.841 524.954C109.539 525.596 109.153 526.04 108.681 526.287C108.215 526.528 107.68 526.649 107.077 526.649ZM107.727 525.292C107.974 525.292 108.218 525.248 108.459 525.16C108.7 525.067 108.917 524.943 109.109 524.79C109.306 524.631 109.463 524.455 109.578 524.263C109.698 524.071 109.761 523.871 109.767 523.663V522.322L108.722 522.338C108.207 522.344 107.754 522.399 107.365 522.503C106.981 522.607 106.682 522.774 106.468 523.005C106.254 523.229 106.147 523.531 106.147 523.909C106.147 524.343 106.298 524.683 106.6 524.93C106.901 525.171 107.277 525.292 107.727 525.292ZM116.9 526.55C116.226 526.55 115.702 526.462 115.329 526.287C114.962 526.106 114.707 525.851 114.564 525.522C114.421 525.193 114.35 524.801 114.35 524.345V519.393H112.968V517.978H114.408L114.91 515.453H116.349V517.97H118.25V519.393H116.349L116.357 524.271C116.357 524.524 116.385 524.71 116.44 524.831C116.5 524.946 116.593 525.023 116.719 525.061C116.851 525.094 117.024 525.111 117.238 525.111H118.291V526.377C118.175 526.421 118.005 526.46 117.781 526.493C117.561 526.531 117.268 526.55 116.9 526.55ZM122.566 526.649C122.023 526.649 121.535 526.55 121.102 526.353C120.674 526.15 120.336 525.862 120.09 525.489C119.848 525.111 119.728 524.653 119.728 524.115C119.728 523.177 120.065 522.47 120.74 521.993C121.42 521.516 122.5 521.266 123.981 521.244L125.256 521.211V520.635C125.256 520.186 125.122 519.835 124.853 519.582C124.59 519.325 124.178 519.198 123.619 519.204C123.202 519.209 122.824 519.308 122.484 519.5C122.144 519.686 121.919 520.002 121.809 520.446H120.106C120.139 519.865 120.306 519.379 120.608 518.99C120.915 518.595 121.335 518.302 121.867 518.11C122.399 517.912 123.013 517.814 123.709 517.814C124.521 517.814 125.182 517.921 125.692 518.134C126.202 518.348 126.578 518.658 126.819 519.064C127.06 519.464 127.181 519.95 127.181 520.52V526.484H125.495L125.33 524.954C125.028 525.596 124.642 526.04 124.17 526.287C123.704 526.528 123.169 526.649 122.566 526.649ZM123.216 525.292C123.463 525.292 123.707 525.248 123.948 525.16C124.189 525.067 124.406 524.943 124.598 524.79C124.795 524.631 124.952 524.455 125.067 524.263C125.187 524.071 125.25 523.871 125.256 523.663V522.322L124.211 522.338C123.696 522.344 123.243 522.399 122.854 522.503C122.47 522.607 122.171 522.774 121.957 523.005C121.743 523.229 121.636 523.531 121.636 523.909C121.636 524.343 121.787 524.683 122.089 524.93C122.39 525.171 122.766 525.292 123.216 525.292ZM136.567 526.55C135.892 526.55 135.369 526.462 134.996 526.287C134.628 526.106 134.373 525.851 134.231 525.522C134.088 525.193 134.017 524.801 134.017 524.345V519.393H132.635V517.978H134.074L134.576 515.453H136.016V517.97H137.916V519.393H136.016L136.024 524.271C136.024 524.524 136.051 524.71 136.106 524.831C136.167 524.946 136.26 525.023 136.386 525.061C136.518 525.094 136.69 525.111 136.904 525.111H137.957V526.377C137.842 526.421 137.672 526.46 137.447 526.493C137.228 526.531 136.934 526.55 136.567 526.55ZM139.805 526.484V517.978H141.722V519.821C141.859 519.399 142.053 519.039 142.306 518.743C142.564 518.442 142.865 518.211 143.211 518.052C143.556 517.893 143.932 517.814 144.338 517.814C144.436 517.814 144.532 517.819 144.626 517.83C144.719 517.841 144.787 517.86 144.831 517.888V519.804C144.771 519.777 144.691 519.758 144.593 519.747C144.5 519.736 144.417 519.73 144.346 519.73C143.935 519.697 143.57 519.714 143.252 519.78C142.939 519.846 142.673 519.958 142.454 520.117C142.24 520.271 142.078 520.468 141.968 520.709C141.859 520.945 141.804 521.222 141.804 521.54V526.484H139.805ZM148.643 526.649C148.1 526.649 147.612 526.55 147.179 526.353C146.751 526.15 146.414 525.862 146.167 525.489C145.926 525.111 145.805 524.653 145.805 524.115C145.805 523.177 146.143 522.47 146.817 521.993C147.497 521.516 148.578 521.266 150.058 521.244L151.334 521.211V520.635C151.334 520.186 151.199 519.835 150.93 519.582C150.667 519.325 150.256 519.198 149.696 519.204C149.28 519.209 148.901 519.308 148.561 519.5C148.221 519.686 147.996 520.002 147.887 520.446H146.184C146.217 519.865 146.384 519.379 146.686 518.99C146.993 518.595 147.412 518.302 147.944 518.11C148.476 517.912 149.09 517.814 149.787 517.814C150.599 517.814 151.259 517.921 151.77 518.134C152.28 518.348 152.655 518.658 152.897 519.064C153.138 519.464 153.259 519.95 153.259 520.52V526.484H151.572L151.408 524.954C151.106 525.596 150.719 526.04 150.248 526.287C149.781 526.528 149.247 526.649 148.643 526.649ZM149.293 525.292C149.54 525.292 149.784 525.248 150.026 525.16C150.267 525.067 150.483 524.943 150.675 524.79C150.873 524.631 151.029 524.455 151.144 524.263C151.265 524.071 151.328 523.871 151.334 523.663V522.322L150.289 522.338C149.773 522.344 149.321 522.399 148.931 522.503C148.547 522.607 148.249 522.774 148.035 523.005C147.821 523.229 147.714 523.531 147.714 523.909C147.714 524.343 147.865 524.683 148.166 524.93C148.468 525.171 148.844 525.292 149.293 525.292ZM156.234 526.484V519.393H154.556V517.978H156.234V516.711C156.234 516.031 156.421 515.507 156.794 515.14C157.172 514.772 157.718 514.589 158.431 514.589H160.224L160.232 515.954H159.048C158.724 515.954 158.502 516.039 158.381 516.209C158.261 516.374 158.2 516.634 158.2 516.991V517.978H160.15V519.393H158.233V526.484H156.234ZM162.42 526.484V519.393H160.742V517.978H162.42V516.711C162.42 516.031 162.607 515.507 162.98 515.14C163.358 514.772 163.904 514.589 164.617 514.589H166.41L166.418 515.954H165.234C164.91 515.954 164.688 516.039 164.567 516.209C164.447 516.374 164.386 516.634 164.386 516.991V517.978H166.336V519.393H164.419V526.484H162.42ZM167.94 526.484V517.978H169.857V526.484H167.94ZM167.907 516.489V514.597H169.89V516.489H167.907ZM175.719 526.649C174.94 526.649 174.247 526.479 173.638 526.139C173.035 525.793 172.56 525.294 172.215 524.642C171.869 523.983 171.696 523.191 171.696 522.264C171.696 521.381 171.858 520.608 172.182 519.944C172.511 519.275 172.974 518.754 173.572 518.381C174.175 518.003 174.891 517.814 175.719 517.814C176.383 517.814 176.967 517.945 177.471 518.208C177.976 518.472 178.379 518.836 178.681 519.303C178.988 519.769 179.172 520.298 179.232 520.89H177.529C177.485 520.633 177.389 520.388 177.241 520.158C177.093 519.922 176.893 519.733 176.64 519.591C176.394 519.442 176.092 519.368 175.736 519.368C175.094 519.368 174.576 519.604 174.181 520.076C173.786 520.548 173.588 521.271 173.588 522.248C173.588 523.147 173.775 523.863 174.148 524.395C174.526 524.927 175.066 525.193 175.768 525.193C176.119 525.193 176.421 525.116 176.673 524.962C176.926 524.803 177.123 524.609 177.266 524.378C177.414 524.143 177.507 523.907 177.545 523.671H179.207C179.158 524.247 178.98 524.76 178.672 525.209C178.365 525.659 177.959 526.013 177.455 526.27C176.95 526.523 176.372 526.649 175.719 526.649Z" fill="#1A1B1D"/>
<rect x="317" y="109" width="219" height="452" rx="20" fill="#F5F6F6"/>
<path d="M368 188.5C368 156.191 394.191 130 426.5 130V130C458.809 130 485 156.191 485 188.5V188.5C485 220.809 458.809 247 426.5 247V247C394.191 247 368 220.809 368 188.5V188.5Z" fill="#014063"/>
<path d="M384.197 267.484V260.393H382.519V258.978H384.197V257.711C384.197 257.031 384.383 256.507 384.756 256.14C385.135 255.772 385.68 255.589 386.393 255.589H388.187L388.195 256.954H387.01C386.687 256.954 386.465 257.039 386.344 257.209C386.223 257.374 386.163 257.634 386.163 257.991V258.978H388.113V260.393H386.196V267.484H384.197ZM393.174 267.649C392.362 267.649 391.655 267.476 391.051 267.131C390.448 266.78 389.979 266.278 389.645 265.625C389.316 264.973 389.151 264.188 389.151 263.272C389.151 262.384 389.313 261.605 389.636 260.936C389.96 260.267 390.421 259.746 391.018 259.373C391.622 259 392.343 258.814 393.182 258.814C393.994 258.814 394.698 258.992 395.296 259.348C395.894 259.705 396.355 260.215 396.678 260.878C397.007 261.542 397.172 262.34 397.172 263.272C397.172 264.133 397.016 264.893 396.703 265.551C396.396 266.204 395.943 266.717 395.346 267.089C394.753 267.462 394.029 267.649 393.174 267.649ZM393.182 266.127C393.643 266.127 394.021 266.001 394.317 265.749C394.619 265.496 394.844 265.151 394.992 264.712C395.14 264.273 395.214 263.774 395.214 263.215C395.214 262.694 395.148 262.214 395.017 261.775C394.885 261.336 394.668 260.985 394.367 260.722C394.071 260.453 393.676 260.319 393.182 260.319C392.716 260.319 392.329 260.442 392.022 260.689C391.72 260.931 391.496 261.271 391.348 261.709C391.199 262.143 391.125 262.644 391.125 263.215C391.125 263.73 391.191 264.21 391.323 264.654C391.454 265.093 391.671 265.45 391.973 265.724C392.274 265.993 392.677 266.127 393.182 266.127ZM402.573 267.649C401.762 267.649 401.054 267.476 400.451 267.131C399.848 266.78 399.379 266.278 399.044 265.625C398.715 264.973 398.551 264.188 398.551 263.272C398.551 262.384 398.712 261.605 399.036 260.936C399.359 260.267 399.82 259.746 400.418 259.373C401.021 259 401.742 258.814 402.582 258.814C403.393 258.814 404.098 258.992 404.696 259.348C405.294 259.705 405.754 260.215 406.078 260.878C406.407 261.542 406.571 262.34 406.571 263.272C406.571 264.133 406.415 264.893 406.102 265.551C405.795 266.204 405.343 266.717 404.745 267.089C404.153 267.462 403.429 267.649 402.573 267.649ZM402.582 266.127C403.042 266.127 403.421 266.001 403.717 265.749C404.018 265.496 404.243 265.151 404.391 264.712C404.539 264.273 404.613 263.774 404.613 263.215C404.613 262.694 404.548 262.214 404.416 261.775C404.284 261.336 404.068 260.985 403.766 260.722C403.47 260.453 403.075 260.319 402.582 260.319C402.115 260.319 401.729 260.442 401.422 260.689C401.12 260.931 400.895 261.271 400.747 261.709C400.599 262.143 400.525 262.644 400.525 263.215C400.525 263.73 400.591 264.21 400.722 264.654C400.854 265.093 401.071 265.45 401.372 265.724C401.674 265.993 402.077 266.127 402.582 266.127ZM408.432 263.996V262.499L412.775 262.491V263.988L408.432 263.996ZM414.91 267.484V258.978H416.827V260.821C416.964 260.399 417.158 260.039 417.411 259.743C417.668 259.442 417.97 259.211 418.316 259.052C418.661 258.893 419.037 258.814 419.443 258.814C419.541 258.814 419.637 258.819 419.731 258.83C419.824 258.841 419.892 258.86 419.936 258.888V260.804C419.876 260.777 419.796 260.758 419.698 260.747C419.604 260.736 419.522 260.73 419.451 260.73C419.04 260.697 418.675 260.714 418.357 260.78C418.044 260.846 417.778 260.958 417.559 261.117C417.345 261.271 417.183 261.468 417.073 261.709C416.964 261.945 416.909 262.222 416.909 262.54V267.484H414.91ZM425.225 267.649C424.408 267.649 423.687 267.476 423.061 267.131C422.442 266.78 421.956 266.281 421.605 265.633C421.26 264.986 421.087 264.216 421.087 263.322C421.087 262.45 421.243 261.676 421.556 261.002C421.874 260.322 422.332 259.787 422.93 259.398C423.533 259.008 424.26 258.814 425.11 258.814C425.949 258.814 426.654 258.992 427.224 259.348C427.794 259.705 428.228 260.204 428.524 260.846C428.82 261.482 428.968 262.228 428.968 263.083V263.692H423.086C423.08 264.175 423.157 264.602 423.316 264.975C423.475 265.348 423.711 265.642 424.024 265.856C424.336 266.064 424.723 266.168 425.184 266.168C425.655 266.168 426.064 266.064 426.41 265.856C426.761 265.642 426.994 265.318 427.109 264.885H428.935C428.836 265.477 428.601 265.979 428.228 266.39C427.86 266.802 427.41 267.114 426.878 267.328C426.352 267.542 425.801 267.649 425.225 267.649ZM423.078 262.45H427.076C427.076 262.038 427.002 261.668 426.854 261.339C426.711 261.005 426.495 260.741 426.204 260.549C425.913 260.352 425.546 260.253 425.101 260.253C424.663 260.253 424.293 260.36 423.991 260.574C423.689 260.788 423.462 261.065 423.308 261.405C423.155 261.739 423.078 262.088 423.078 262.45ZM430.881 270.133V258.978H432.88L432.896 260.319C433.006 260.133 433.146 259.949 433.316 259.768C433.491 259.587 433.692 259.425 433.917 259.282C434.147 259.14 434.402 259.027 434.682 258.945C434.961 258.857 435.268 258.814 435.603 258.814C436.256 258.814 436.834 258.97 437.339 259.282C437.843 259.59 438.238 260.064 438.523 260.706C438.814 261.347 438.959 262.159 438.959 263.141C438.959 264.144 438.811 264.981 438.515 265.65C438.219 266.319 437.805 266.821 437.273 267.155C436.741 267.484 436.124 267.649 435.422 267.649C435.098 267.649 434.802 267.605 434.533 267.517C434.27 267.43 434.034 267.309 433.826 267.155C433.618 267.002 433.434 266.834 433.275 266.653C433.121 266.473 432.992 266.283 432.888 266.086V270.133H430.881ZM434.978 266.152C435.581 266.152 436.08 265.913 436.475 265.436C436.87 264.953 437.067 264.199 437.067 263.174C437.067 262.285 436.881 261.586 436.508 261.076C436.14 260.56 435.63 260.303 434.978 260.303C434.276 260.303 433.749 260.574 433.398 261.117C433.047 261.654 432.872 262.34 432.872 263.174C432.872 263.711 432.949 264.207 433.102 264.663C433.261 265.112 433.494 265.474 433.801 265.749C434.114 266.017 434.506 266.152 434.978 266.152ZM443.23 267.608C442.682 267.608 442.243 267.539 441.914 267.402C441.585 267.265 441.338 267.081 441.173 266.851C441.009 266.621 440.902 266.363 440.853 266.078C440.803 265.787 440.778 265.491 440.778 265.189V255.26H442.736V264.959C442.736 265.326 442.81 265.611 442.959 265.814C443.112 266.017 443.359 266.135 443.699 266.168L444.127 266.185V267.443C443.979 267.487 443.828 267.526 443.674 267.558C443.521 267.591 443.373 267.608 443.23 267.608ZM445.953 267.484V258.978H447.87V267.484H445.953ZM445.92 257.489V255.597H447.903V257.489H445.92ZM453.732 267.649C452.953 267.649 452.26 267.479 451.651 267.139C451.048 266.793 450.573 266.294 450.228 265.642C449.882 264.983 449.709 264.191 449.709 263.264C449.709 262.381 449.871 261.608 450.195 260.944C450.524 260.275 450.987 259.754 451.585 259.381C452.188 259.003 452.904 258.814 453.732 258.814C454.396 258.814 454.98 258.945 455.484 259.208C455.989 259.472 456.392 259.836 456.694 260.303C457.001 260.769 457.185 261.298 457.245 261.89H455.542C455.498 261.633 455.402 261.388 455.254 261.158C455.106 260.922 454.906 260.733 454.654 260.591C454.407 260.442 454.105 260.368 453.749 260.368C453.107 260.368 452.589 260.604 452.194 261.076C451.799 261.548 451.602 262.271 451.602 263.248C451.602 264.147 451.788 264.863 452.161 265.395C452.539 265.927 453.08 266.193 453.782 266.193C454.133 266.193 454.434 266.116 454.687 265.962C454.939 265.803 455.136 265.609 455.279 265.378C455.427 265.143 455.52 264.907 455.559 264.671H457.22C457.171 265.247 456.993 265.76 456.686 266.209C456.378 266.659 455.973 267.013 455.468 267.27C454.963 267.523 454.385 267.649 453.732 267.649ZM461.523 267.649C460.98 267.649 460.492 267.55 460.059 267.353C459.631 267.15 459.294 266.862 459.047 266.489C458.806 266.111 458.685 265.653 458.685 265.115C458.685 264.177 459.022 263.47 459.697 262.993C460.377 262.516 461.457 262.266 462.938 262.244L464.213 262.211V261.635C464.213 261.186 464.079 260.835 463.81 260.582C463.547 260.325 463.135 260.198 462.576 260.204C462.159 260.209 461.781 260.308 461.441 260.5C461.101 260.686 460.876 261.002 460.766 261.446H459.063C459.096 260.865 459.263 260.379 459.565 259.99C459.872 259.595 460.292 259.302 460.824 259.11C461.356 258.912 461.97 258.814 462.667 258.814C463.478 258.814 464.139 258.921 464.649 259.134C465.159 259.348 465.535 259.658 465.776 260.064C466.017 260.464 466.138 260.95 466.138 261.52V267.484H464.452L464.287 265.954C463.986 266.596 463.599 267.04 463.127 267.287C462.661 267.528 462.126 267.649 461.523 267.649ZM462.173 266.292C462.42 266.292 462.664 266.248 462.905 266.16C463.146 266.067 463.363 265.943 463.555 265.79C463.752 265.631 463.909 265.455 464.024 265.263C464.145 265.071 464.208 264.871 464.213 264.663V263.322L463.168 263.338C462.653 263.344 462.2 263.399 461.811 263.503C461.427 263.607 461.128 263.774 460.914 264.005C460.7 264.229 460.593 264.531 460.593 264.909C460.593 265.343 460.744 265.683 461.046 265.93C461.348 266.171 461.723 266.292 462.173 266.292ZM386.201 287.516C385.746 286.749 385.351 285.989 385.017 285.238C384.688 284.486 384.43 283.707 384.243 282.901C384.063 282.095 383.972 281.226 383.972 280.293C383.972 278.933 384.191 277.628 384.63 276.378C385.069 275.122 385.634 273.986 386.325 272.972H387.37C386.81 274.036 386.349 275.201 385.988 276.468C385.626 277.729 385.445 279.01 385.445 280.31C385.445 281.544 385.598 282.748 385.905 283.921C386.212 285.089 386.657 286.288 387.238 287.516H386.201ZM389.068 285.484V276.978H390.516V278.615C390.659 278.209 390.859 277.875 391.117 277.612C391.374 277.343 391.668 277.143 391.997 277.011C392.331 276.879 392.677 276.814 393.033 276.814C393.159 276.814 393.283 276.822 393.404 276.838C393.524 276.855 393.617 276.882 393.683 276.921V278.393C393.601 278.355 393.494 278.33 393.362 278.319C393.236 278.303 393.129 278.294 393.042 278.294C392.702 278.272 392.383 278.294 392.087 278.36C391.791 278.42 391.531 278.527 391.306 278.681C391.081 278.835 390.903 279.037 390.771 279.29C390.645 279.537 390.582 279.838 390.582 280.195V285.484H389.068ZM398.962 285.649C398.172 285.649 397.475 285.476 396.872 285.131C396.269 284.785 395.797 284.289 395.457 283.642C395.117 282.994 394.947 282.218 394.947 281.314C394.947 280.42 395.101 279.635 395.408 278.961C395.715 278.286 396.159 277.76 396.74 277.381C397.327 277.003 398.032 276.814 398.855 276.814C399.655 276.814 400.333 276.986 400.887 277.332C401.441 277.677 401.86 278.165 402.145 278.796C402.436 279.421 402.581 280.165 402.581 281.026V281.585H396.485C396.485 282.122 396.573 282.611 396.749 283.049C396.93 283.483 397.201 283.828 397.563 284.086C397.925 284.344 398.383 284.473 398.937 284.473C399.48 284.473 399.946 284.346 400.335 284.094C400.73 283.842 400.983 283.477 401.092 283H402.524C402.425 283.576 402.195 284.061 401.833 284.456C401.476 284.851 401.046 285.15 400.541 285.353C400.042 285.55 399.516 285.649 398.962 285.649ZM396.494 280.557H401.117C401.117 280.069 401.035 279.63 400.87 279.24C400.706 278.846 400.453 278.536 400.113 278.311C399.779 278.08 399.356 277.965 398.846 277.965C398.314 277.965 397.873 278.094 397.522 278.352C397.171 278.604 396.91 278.931 396.74 279.331C396.57 279.726 396.488 280.134 396.494 280.557ZM404.686 288.133V276.978H406.199L406.216 278.459C406.315 278.283 406.441 278.1 406.594 277.908C406.753 277.716 406.945 277.538 407.17 277.373C407.4 277.208 407.666 277.074 407.968 276.97C408.275 276.866 408.624 276.814 409.013 276.814C409.693 276.814 410.291 276.97 410.806 277.282C411.327 277.59 411.733 278.061 412.024 278.697C412.314 279.334 412.46 280.14 412.46 281.116C412.46 282.092 412.317 282.918 412.032 283.592C411.752 284.261 411.347 284.771 410.815 285.122C410.283 285.473 409.641 285.649 408.89 285.649C408.511 285.649 408.174 285.594 407.878 285.484C407.587 285.38 407.332 285.243 407.113 285.073C406.899 284.898 406.718 284.711 406.57 284.514C406.427 284.316 406.309 284.127 406.216 283.946V288.133H404.686ZM408.602 284.464C409.304 284.464 409.877 284.198 410.321 283.666C410.765 283.129 410.987 282.295 410.987 281.165C410.987 280.195 410.784 279.424 410.379 278.854C409.973 278.283 409.38 277.998 408.602 277.998C407.812 277.998 407.214 278.292 406.808 278.878C406.402 279.46 406.199 280.222 406.199 281.165C406.199 281.774 406.29 282.328 406.471 282.827C406.652 283.326 406.921 283.724 407.277 284.02C407.634 284.316 408.075 284.464 408.602 284.464ZM416.634 285.591C416.173 285.591 415.8 285.528 415.515 285.402C415.236 285.276 415.019 285.106 414.865 284.892C414.717 284.678 414.616 284.434 414.561 284.16C414.512 283.88 414.487 283.592 414.487 283.296V273.26H415.984V283.148C415.984 283.576 416.066 283.897 416.231 284.111C416.401 284.324 416.637 284.442 416.938 284.464L417.399 284.473V285.46C417.273 285.498 417.141 285.528 417.004 285.55C416.867 285.578 416.744 285.591 416.634 285.591ZM419.429 285.484V276.978H420.901V285.484H419.429ZM419.387 275.176V273.597H420.942V275.176H419.387ZM426.875 285.649C426.107 285.649 425.427 285.482 424.835 285.147C424.248 284.813 423.787 284.319 423.453 283.666C423.124 283.014 422.959 282.213 422.959 281.264C422.959 280.376 423.11 279.6 423.411 278.936C423.719 278.267 424.163 277.746 424.744 277.373C425.331 277 426.041 276.814 426.875 276.814C427.484 276.814 428.029 276.931 428.512 277.167C429 277.398 429.4 277.727 429.713 278.155C430.026 278.582 430.218 279.087 430.289 279.668H428.94C428.89 279.372 428.775 279.101 428.594 278.854C428.419 278.607 428.186 278.41 427.895 278.261C427.61 278.113 427.272 278.039 426.883 278.039C426.154 278.039 425.559 278.303 425.098 278.829C424.643 279.356 424.415 280.162 424.415 281.248C424.415 282.229 424.623 283.016 425.04 283.609C425.463 284.196 426.082 284.489 426.9 284.489C427.289 284.489 427.629 284.415 427.92 284.267C428.21 284.113 428.443 283.913 428.619 283.666C428.794 283.414 428.907 283.145 428.956 282.86H430.281C430.209 283.43 430.015 283.924 429.697 284.341C429.384 284.758 428.984 285.081 428.495 285.312C428.013 285.536 427.473 285.649 426.875 285.649ZM434.691 285.649C434.138 285.649 433.649 285.553 433.227 285.361C432.81 285.164 432.481 284.881 432.24 284.514C432.004 284.146 431.886 283.702 431.886 283.181C431.886 282.238 432.215 281.536 432.873 281.075C433.532 280.614 434.587 280.367 436.041 280.335L437.554 280.293V279.627C437.554 279.106 437.398 278.695 437.085 278.393C436.773 278.086 436.29 277.932 435.638 277.932C435.149 277.938 434.719 278.053 434.346 278.278C433.973 278.503 433.734 278.87 433.63 279.38H432.289C432.322 278.826 432.476 278.36 432.75 277.982C433.03 277.598 433.422 277.307 433.926 277.11C434.431 276.912 435.026 276.814 435.712 276.814C436.452 276.814 437.066 276.918 437.554 277.126C438.048 277.335 438.415 277.642 438.657 278.048C438.903 278.453 439.027 278.952 439.027 279.545V285.484H437.727L437.612 283.888C437.288 284.552 436.872 285.013 436.361 285.27C435.857 285.523 435.3 285.649 434.691 285.649ZM435.144 284.555C435.435 284.555 435.72 284.503 435.999 284.398C436.285 284.294 436.542 284.154 436.773 283.979C437.009 283.798 437.198 283.598 437.34 283.378C437.483 283.154 437.554 282.923 437.554 282.687V281.231L436.296 281.256C435.643 281.267 435.1 281.333 434.667 281.453C434.234 281.574 433.907 281.763 433.688 282.021C433.468 282.279 433.359 282.616 433.359 283.033C433.359 283.51 433.526 283.883 433.861 284.152C434.195 284.42 434.623 284.555 435.144 284.555ZM444.164 285.526C443.578 285.526 443.122 285.446 442.799 285.287C442.475 285.128 442.248 284.892 442.116 284.579C441.99 284.267 441.927 283.883 441.927 283.428V278.089H440.545V276.978H441.968L442.338 274.502H443.457V276.97H445.374V278.089H443.457V283.378C443.457 283.68 443.487 283.902 443.547 284.045C443.613 284.182 443.72 284.27 443.868 284.308C444.016 284.346 444.225 284.366 444.493 284.366H445.423V285.386C445.319 285.424 445.16 285.457 444.946 285.484C444.737 285.512 444.477 285.526 444.164 285.526ZM450.811 285.649C450.022 285.649 449.325 285.476 448.722 285.131C448.119 284.785 447.647 284.289 447.307 283.642C446.967 282.994 446.797 282.218 446.797 281.314C446.797 280.42 446.95 279.635 447.258 278.961C447.565 278.286 448.009 277.76 448.59 277.381C449.177 277.003 449.882 276.814 450.704 276.814C451.505 276.814 452.183 276.986 452.736 277.332C453.29 277.677 453.71 278.165 453.995 278.796C454.286 279.421 454.431 280.165 454.431 281.026V281.585H448.335C448.335 282.122 448.423 282.611 448.598 283.049C448.779 283.483 449.051 283.828 449.413 284.086C449.775 284.344 450.233 284.473 450.787 284.473C451.33 284.473 451.796 284.346 452.185 284.094C452.58 283.842 452.832 283.477 452.942 283H454.374C454.275 283.576 454.044 284.061 453.682 284.456C453.326 284.851 452.895 285.15 452.391 285.353C451.892 285.55 451.365 285.649 450.811 285.649ZM448.343 280.557H452.967C452.967 280.069 452.885 279.63 452.72 279.24C452.555 278.846 452.303 278.536 451.963 278.311C451.629 278.08 451.206 277.965 450.696 277.965C450.164 277.965 449.723 278.094 449.372 278.352C449.021 278.604 448.76 278.931 448.59 279.331C448.42 279.726 448.338 280.134 448.343 280.557ZM459.637 285.649C458.529 285.649 457.652 285.27 457.004 284.514C456.363 283.757 456.042 282.652 456.042 281.198C456.042 280.315 456.171 279.545 456.429 278.887C456.686 278.229 457.073 277.718 457.589 277.357C458.104 276.995 458.746 276.814 459.514 276.814C459.925 276.814 460.287 276.866 460.599 276.97C460.912 277.074 461.184 277.206 461.414 277.365C461.644 277.524 461.831 277.688 461.973 277.858C462.121 278.028 462.231 278.185 462.302 278.327V273.26H463.841V285.484H462.673L462.508 283.74C462.453 283.905 462.365 284.097 462.245 284.316C462.124 284.53 461.954 284.741 461.735 284.95C461.521 285.153 461.241 285.32 460.896 285.451C460.55 285.583 460.131 285.649 459.637 285.649ZM459.908 284.481C460.764 284.481 461.376 284.22 461.743 283.699C462.116 283.173 462.302 282.314 462.302 281.124C462.297 280.461 462.215 279.896 462.056 279.43C461.897 278.963 461.644 278.61 461.299 278.368C460.959 278.122 460.504 277.998 459.933 277.998C459.237 277.998 458.669 278.248 458.23 278.747C457.791 279.246 457.572 280.038 457.572 281.124C457.572 282.188 457.77 283.014 458.164 283.6C458.559 284.187 459.141 284.481 459.908 284.481ZM465.547 287.516C466.128 286.288 466.572 285.089 466.879 283.921C467.186 282.748 467.34 281.544 467.34 280.31C467.34 279.01 467.159 277.729 466.797 276.468C466.435 275.201 465.974 274.036 465.415 272.972H466.46C467.151 273.986 467.713 275.122 468.146 276.378C468.585 277.628 468.804 278.933 468.804 280.293C468.804 281.226 468.714 282.095 468.533 282.901C468.352 283.707 468.094 284.486 467.76 285.238C467.425 285.989 467.033 286.749 466.583 287.516H465.547Z" fill="#1A1B1D"/>
<path d="M316.579 52.36C314.191 52.36 312.139 51.814 310.423 50.722C308.719 49.618 307.405 48.058 306.481 46.042C305.569 44.014 305.113 41.608 305.113 38.824C305.113 36.052 305.569 33.682 306.481 31.714C307.393 29.746 308.701 28.24 310.405 27.196C312.121 26.14 314.179 25.612 316.579 25.612C318.487 25.612 320.179 26.002 321.655 26.782C323.131 27.55 324.319 28.594 325.219 29.914C326.131 31.234 326.671 32.704 326.839 34.324H322.213C322.033 33.364 321.697 32.506 321.205 31.75C320.725 30.994 320.089 30.394 319.297 29.95C318.505 29.506 317.557 29.284 316.453 29.284C315.073 29.284 313.897 29.614 312.925 30.274C311.965 30.922 311.227 31.954 310.711 33.37C310.207 34.786 309.955 36.622 309.955 38.878C309.955 42.298 310.519 44.788 311.647 46.348C312.775 47.908 314.377 48.688 316.453 48.688C317.557 48.688 318.505 48.448 319.297 47.968C320.089 47.476 320.725 46.828 321.205 46.024C321.697 45.208 322.033 44.32 322.213 43.36H326.839C326.695 44.536 326.395 45.664 325.939 46.744C325.495 47.824 324.865 48.79 324.049 49.642C323.233 50.482 322.207 51.148 320.971 51.64C319.747 52.12 318.283 52.36 316.579 52.36ZM336.491 52.27C335.291 52.27 334.331 52.12 333.611 51.82C332.891 51.52 332.351 51.118 331.991 50.614C331.631 50.11 331.397 49.546 331.289 48.922C331.181 48.286 331.127 47.638 331.127 46.978V25.252H335.411V46.474C335.411 47.278 335.573 47.902 335.897 48.346C336.233 48.79 336.773 49.048 337.517 49.12L338.453 49.156V51.91C338.129 52.006 337.799 52.09 337.463 52.162C337.127 52.234 336.803 52.27 336.491 52.27ZM349.38 52.36C347.604 52.36 346.056 51.982 344.736 51.226C343.416 50.458 342.39 49.36 341.658 47.932C340.938 46.504 340.578 44.788 340.578 42.784C340.578 40.84 340.932 39.136 341.64 37.672C342.348 36.208 343.356 35.068 344.664 34.252C345.984 33.436 347.562 33.028 349.398 33.028C351.174 33.028 352.716 33.418 354.024 34.198C355.332 34.978 356.34 36.094 357.048 37.546C357.768 38.998 358.128 40.744 358.128 42.784C358.128 44.668 357.786 46.33 357.102 47.77C356.43 49.198 355.44 50.32 354.132 51.136C352.836 51.952 351.252 52.36 349.38 52.36ZM349.398 49.03C350.406 49.03 351.234 48.754 351.882 48.202C352.542 47.65 353.034 46.894 353.358 45.934C353.682 44.974 353.844 43.882 353.844 42.658C353.844 41.518 353.7 40.468 353.412 39.508C353.124 38.548 352.65 37.78 351.99 37.204C351.342 36.616 350.478 36.322 349.398 36.322C348.378 36.322 347.532 36.592 346.86 37.132C346.2 37.66 345.708 38.404 345.384 39.364C345.06 40.312 344.898 41.41 344.898 42.658C344.898 43.786 345.042 44.836 345.33 45.808C345.618 46.768 346.092 47.548 346.752 48.148C347.412 48.736 348.294 49.03 349.398 49.03ZM368.869 52.36C367.957 52.36 367.075 52.228 366.223 51.964C365.383 51.688 364.627 51.292 363.955 50.776C363.283 50.248 362.749 49.6 362.353 48.832C361.957 48.064 361.759 47.17 361.759 46.15V33.388H366.151V45.646C366.151 46.654 366.469 47.482 367.105 48.13C367.753 48.778 368.725 49.102 370.021 49.102C371.197 49.102 372.139 48.796 372.847 48.184C373.555 47.56 373.909 46.666 373.909 45.502V33.388H378.265V52H374.899L374.413 48.364C374.185 49.384 373.783 50.188 373.207 50.776C372.643 51.352 371.977 51.76 371.209 52C370.453 52.24 369.673 52.36 368.869 52.36ZM390.14 52.36C387.68 52.36 385.748 51.514 384.344 49.822C382.94 48.13 382.238 45.724 382.238 42.604C382.238 40.66 382.52 38.974 383.084 37.546C383.66 36.106 384.506 34.996 385.622 34.216C386.738 33.424 388.112 33.028 389.744 33.028C390.512 33.028 391.208 33.124 391.832 33.316C392.468 33.496 393.032 33.736 393.524 34.036C394.016 34.336 394.43 34.666 394.766 35.026C395.114 35.386 395.384 35.746 395.576 36.106V25.252H399.986V52H396.746L396.26 48.184C396.104 48.628 395.882 49.096 395.594 49.588C395.318 50.068 394.94 50.518 394.46 50.938C393.992 51.358 393.404 51.7 392.696 51.964C391.988 52.228 391.136 52.36 390.14 52.36ZM391.04 49.138C392.612 49.138 393.758 48.628 394.478 47.608C395.21 46.576 395.576 44.872 395.576 42.496C395.564 41.14 395.396 40 395.072 39.076C394.76 38.152 394.28 37.456 393.632 36.988C392.984 36.52 392.138 36.286 391.094 36.286C389.774 36.286 388.688 36.772 387.836 37.744C386.996 38.716 386.576 40.3 386.576 42.496C386.576 44.68 386.966 46.336 387.746 47.464C388.526 48.58 389.624 49.138 391.04 49.138ZM413.322 52V33.388H417.516V37.42C417.816 36.496 418.242 35.71 418.794 35.062C419.358 34.402 420.018 33.898 420.774 33.55C421.53 33.202 422.352 33.028 423.24 33.028C423.456 33.028 423.666 33.04 423.87 33.064C424.074 33.088 424.224 33.13 424.32 33.19V37.384C424.188 37.324 424.014 37.282 423.798 37.258C423.594 37.234 423.414 37.222 423.258 37.222C422.358 37.15 421.56 37.186 420.864 37.33C420.18 37.474 419.598 37.72 419.118 38.068C418.65 38.404 418.296 38.836 418.056 39.364C417.816 39.88 417.696 40.486 417.696 41.182V52H413.322ZM435.892 52.36C434.104 52.36 432.526 51.982 431.158 51.226C429.802 50.458 428.74 49.366 427.972 47.95C427.216 46.534 426.838 44.848 426.838 42.892C426.838 40.984 427.18 39.292 427.864 37.816C428.56 36.328 429.562 35.158 430.87 34.306C432.19 33.454 433.78 33.028 435.64 33.028C437.476 33.028 439.018 33.418 440.266 34.198C441.514 34.978 442.462 36.07 443.11 37.474C443.758 38.866 444.082 40.498 444.082 42.37V43.702H431.212C431.2 44.758 431.368 45.694 431.716 46.51C432.064 47.326 432.58 47.968 433.264 48.436C433.948 48.892 434.794 49.12 435.802 49.12C436.834 49.12 437.728 48.892 438.484 48.436C439.252 47.968 439.762 47.26 440.014 46.312H444.01C443.794 47.608 443.278 48.706 442.462 49.606C441.658 50.506 440.674 51.19 439.51 51.658C438.358 52.126 437.152 52.36 435.892 52.36ZM431.194 40.984H439.942C439.942 40.084 439.78 39.274 439.456 38.554C439.144 37.822 438.67 37.246 438.034 36.826C437.398 36.394 436.594 36.178 435.622 36.178C434.662 36.178 433.852 36.412 433.192 36.88C432.532 37.348 432.034 37.954 431.698 38.698C431.362 39.43 431.194 40.192 431.194 40.984ZM456.371 58.156C453.239 58.156 450.833 57.736 449.153 56.896C447.473 56.056 446.633 54.904 446.633 53.44C446.633 52.78 446.795 52.228 447.119 51.784C447.443 51.34 447.827 50.974 448.271 50.686C448.715 50.398 449.123 50.176 449.495 50.02C449.867 49.864 450.107 49.75 450.215 49.678C450.011 49.558 449.741 49.402 449.405 49.21C449.069 49.018 448.763 48.754 448.487 48.418C448.223 48.082 448.091 47.644 448.091 47.104C448.091 46.48 448.385 45.904 448.973 45.376C449.573 44.848 450.467 44.47 451.655 44.242C450.491 43.678 449.597 42.916 448.973 41.956C448.349 40.996 448.037 40 448.037 38.968C448.037 37.744 448.391 36.694 449.099 35.818C449.819 34.942 450.815 34.27 452.087 33.802C453.359 33.334 454.841 33.1 456.533 33.1C457.769 33.1 458.795 33.238 459.611 33.514C460.439 33.79 461.207 34.162 461.915 34.63C462.155 34.534 462.491 34.402 462.923 34.234C463.355 34.054 463.829 33.862 464.345 33.658C464.861 33.442 465.359 33.238 465.839 33.046C466.319 32.842 466.721 32.674 467.045 32.542L467.027 36.16L463.805 36.736C463.961 37.084 464.081 37.462 464.165 37.87C464.261 38.278 464.309 38.638 464.309 38.95C464.309 40.03 464.003 41.032 463.391 41.956C462.791 42.868 461.885 43.6 460.673 44.152C459.473 44.704 457.973 44.98 456.173 44.98C455.993 44.98 455.747 44.974 455.435 44.962C455.123 44.95 454.871 44.938 454.679 44.926C453.707 44.962 453.041 45.076 452.681 45.268C452.321 45.46 452.141 45.67 452.141 45.898C452.141 46.222 452.411 46.438 452.951 46.546C453.491 46.654 454.355 46.75 455.543 46.834C455.963 46.858 456.515 46.888 457.199 46.924C457.883 46.96 458.645 47.008 459.485 47.068C461.609 47.2 463.217 47.734 464.309 48.67C465.401 49.594 465.947 50.794 465.947 52.27C465.947 53.986 465.155 55.396 463.571 56.5C461.987 57.604 459.587 58.156 456.371 58.156ZM457.109 55.582C458.681 55.582 459.845 55.366 460.601 54.934C461.357 54.502 461.735 53.866 461.735 53.026C461.735 52.378 461.477 51.85 460.961 51.442C460.445 51.034 459.677 50.794 458.657 50.722L453.959 50.434C453.443 50.398 452.951 50.494 452.483 50.722C452.027 50.938 451.655 51.244 451.367 51.64C451.079 52.024 450.935 52.45 450.935 52.918C450.935 53.794 451.433 54.454 452.429 54.898C453.437 55.354 454.997 55.582 457.109 55.582ZM456.317 42.406C457.457 42.406 458.381 42.118 459.089 41.542C459.797 40.954 460.151 40.126 460.151 39.058C460.151 37.954 459.797 37.096 459.089 36.484C458.381 35.86 457.457 35.548 456.317 35.548C455.153 35.548 454.211 35.86 453.491 36.484C452.783 37.108 452.429 37.966 452.429 39.058C452.429 40.09 452.771 40.906 453.455 41.506C454.139 42.106 455.093 42.406 456.317 42.406ZM470.699 52V33.388H474.893V52H470.699ZM470.627 30.13V25.99H474.965V30.13H470.627ZM487.72 52.36C485.944 52.36 484.396 51.982 483.076 51.226C481.756 50.458 480.73 49.36 479.998 47.932C479.278 46.504 478.918 44.788 478.918 42.784C478.918 40.84 479.272 39.136 479.98 37.672C480.688 36.208 481.696 35.068 483.004 34.252C484.324 33.436 485.902 33.028 487.738 33.028C489.514 33.028 491.056 33.418 492.364 34.198C493.672 34.978 494.68 36.094 495.388 37.546C496.108 38.998 496.468 40.744 496.468 42.784C496.468 44.668 496.126 46.33 495.442 47.77C494.77 49.198 493.78 50.32 492.472 51.136C491.176 51.952 489.592 52.36 487.72 52.36ZM487.738 49.03C488.746 49.03 489.574 48.754 490.222 48.202C490.882 47.65 491.374 46.894 491.698 45.934C492.022 44.974 492.184 43.882 492.184 42.658C492.184 41.518 492.04 40.468 491.752 39.508C491.464 38.548 490.99 37.78 490.33 37.204C489.682 36.616 488.818 36.322 487.738 36.322C486.718 36.322 485.872 36.592 485.2 37.132C484.54 37.66 484.048 38.404 483.724 39.364C483.4 40.312 483.238 41.41 483.238 42.658C483.238 43.786 483.382 44.836 483.67 45.808C483.958 46.768 484.432 47.548 485.092 48.148C485.752 48.736 486.634 49.03 487.738 49.03ZM500.474 52V33.388H504.758V36.052C505.046 35.572 505.436 35.11 505.928 34.666C506.432 34.222 507.05 33.862 507.782 33.586C508.514 33.31 509.372 33.172 510.356 33.172C511.508 33.172 512.576 33.4 513.56 33.856C514.556 34.312 515.354 35.026 515.954 35.998C516.566 36.97 516.872 38.224 516.872 39.76V52H512.48V40.282C512.48 39.058 512.144 38.152 511.472 37.564C510.8 36.964 509.954 36.664 508.934 36.664C508.238 36.664 507.578 36.784 506.954 37.024C506.33 37.252 505.82 37.606 505.424 38.086C505.04 38.554 504.848 39.142 504.848 39.85V52H500.474ZM529.61 52V49.66V48.454C529.61 47.122 529.856 45.976 530.348 45.016C530.84 44.044 531.494 43.198 532.31 42.478C533.126 41.758 534.02 41.122 534.992 40.57C535.976 40.006 536.948 39.478 537.908 38.986C538.88 38.482 539.774 37.966 540.59 37.438C541.406 36.898 542.06 36.298 542.552 35.638C543.056 34.978 543.308 34.192 543.308 33.28C543.308 32.116 542.894 31.168 542.066 30.436C541.25 29.692 540.14 29.32 538.736 29.32C537.248 29.32 536.018 29.746 535.046 30.598C534.086 31.45 533.516 32.65 533.336 34.198H529.088C529.112 32.614 529.49 31.174 530.222 29.878C530.954 28.582 532.04 27.55 533.48 26.782C534.92 26.002 536.714 25.612 538.862 25.612C540.722 25.612 542.324 25.936 543.668 26.584C545.024 27.22 546.068 28.114 546.8 29.266C547.544 30.406 547.916 31.738 547.916 33.262C547.916 34.594 547.67 35.734 547.178 36.682C546.698 37.63 546.056 38.452 545.252 39.148C544.46 39.832 543.584 40.438 542.624 40.966C541.676 41.494 540.722 41.992 539.762 42.46C538.814 42.916 537.938 43.396 537.134 43.9C536.342 44.392 535.7 44.956 535.208 45.592C534.728 46.228 534.488 46.99 534.488 47.878V48.256H547.97V52H529.61ZM345.655 96.446C344.659 94.766 343.795 93.104 343.063 91.46C342.343 89.816 341.779 88.112 341.371 86.348C340.975 84.584 340.777 82.682 340.777 80.642C340.777 77.666 341.257 74.81 342.217 72.074C343.177 69.326 344.413 66.842 345.925 64.622H348.211C346.987 66.95 345.979 69.5 345.187 72.272C344.395 75.032 343.999 77.834 343.999 80.678C343.999 83.378 344.335 86.012 345.007 88.58C345.679 91.136 346.651 93.758 347.923 96.446H345.655ZM362.188 92.36C359.848 92.36 357.85 91.826 356.194 90.758C354.55 89.69 353.29 88.154 352.414 86.15C351.55 84.146 351.118 81.728 351.118 78.896C351.118 76.076 351.55 73.676 352.414 71.696C353.278 69.716 354.532 68.21 356.176 67.178C357.832 66.134 359.836 65.612 362.188 65.612C364.024 65.612 365.65 65.996 367.066 66.764C368.482 67.52 369.622 68.534 370.486 69.806C371.35 71.078 371.86 72.476 372.016 74H368.47C368.278 72.98 367.912 72.056 367.372 71.228C366.832 70.4 366.124 69.74 365.248 69.248C364.372 68.756 363.322 68.51 362.098 68.51C360.526 68.51 359.194 68.882 358.102 69.626C357.022 70.358 356.2 71.492 355.636 73.028C355.084 74.564 354.808 76.532 354.808 78.932C354.808 82.556 355.426 85.22 356.662 86.924C357.91 88.616 359.722 89.462 362.098 89.462C363.322 89.462 364.372 89.204 365.248 88.688C366.124 88.172 366.832 87.482 367.372 86.618C367.912 85.754 368.278 84.818 368.47 83.81H372.016C371.884 84.914 371.584 85.982 371.116 87.014C370.66 88.034 370.03 88.946 369.226 89.75C368.422 90.554 367.432 91.19 366.256 91.658C365.092 92.126 363.736 92.36 362.188 92.36ZM381.411 92.234C380.403 92.234 379.587 92.096 378.963 91.82C378.351 91.544 377.877 91.172 377.541 90.704C377.217 90.236 376.995 89.702 376.875 89.102C376.767 88.49 376.713 87.86 376.713 87.212V65.252H379.989V86.888C379.989 87.824 380.169 88.526 380.529 88.994C380.901 89.462 381.417 89.72 382.077 89.768L383.085 89.786V91.946C382.809 92.03 382.521 92.096 382.221 92.144C381.921 92.204 381.651 92.234 381.411 92.234ZM393.854 92.36C392.882 92.348 391.964 92.21 391.1 91.946C390.248 91.67 389.492 91.268 388.832 90.74C388.172 90.212 387.65 89.558 387.266 88.778C386.894 87.986 386.708 87.068 386.708 86.024V73.388H390.038V85.682C390.038 86.894 390.41 87.878 391.154 88.634C391.91 89.39 393.044 89.768 394.556 89.768C395.924 89.768 397.022 89.414 397.85 88.706C398.69 87.986 399.11 86.918 399.11 85.502V73.388H402.422V92H399.776L399.434 88.436C399.206 89.372 398.816 90.128 398.264 90.704C397.724 91.28 397.07 91.706 396.302 91.982C395.546 92.246 394.73 92.372 393.854 92.36ZM414.593 92.36C413.297 92.36 412.091 92.162 410.975 91.766C409.871 91.358 408.953 90.728 408.221 89.876C407.489 89.012 407.033 87.914 406.853 86.582H409.877C410.033 87.314 410.333 87.926 410.777 88.418C411.221 88.898 411.767 89.264 412.415 89.516C413.075 89.756 413.795 89.876 414.575 89.876C415.835 89.876 416.849 89.642 417.617 89.174C418.385 88.706 418.769 87.986 418.769 87.014C418.769 86.33 418.565 85.784 418.157 85.376C417.761 84.956 417.137 84.65 416.285 84.458L412.433 83.504C410.933 83.144 409.733 82.58 408.833 81.812C407.945 81.044 407.495 79.97 407.483 78.59C407.483 77.498 407.747 76.538 408.275 75.71C408.803 74.882 409.589 74.228 410.633 73.748C411.689 73.268 413.003 73.028 414.575 73.028C416.603 73.028 418.235 73.484 419.471 74.396C420.707 75.296 421.355 76.622 421.415 78.374H418.463C418.343 77.486 417.947 76.784 417.275 76.268C416.603 75.74 415.691 75.476 414.539 75.476C413.363 75.476 412.397 75.716 411.641 76.196C410.897 76.664 410.525 77.396 410.525 78.392C410.525 79.052 410.789 79.574 411.317 79.958C411.857 80.33 412.637 80.642 413.657 80.894L417.401 81.83C418.253 82.058 418.961 82.358 419.525 82.73C420.089 83.102 420.533 83.516 420.857 83.972C421.181 84.428 421.409 84.908 421.541 85.412C421.685 85.904 421.757 86.378 421.757 86.834C421.757 87.974 421.475 88.958 420.911 89.786C420.347 90.602 419.531 91.238 418.463 91.694C417.395 92.138 416.105 92.36 414.593 92.36ZM432.543 92.09C431.259 92.09 430.263 91.916 429.555 91.568C428.847 91.22 428.349 90.704 428.061 90.02C427.785 89.336 427.647 88.496 427.647 87.5V75.818H424.623V73.388H427.737L428.547 67.97H430.995V73.37H435.189V75.818H430.995V87.392C430.995 88.052 431.061 88.538 431.193 88.85C431.337 89.15 431.571 89.342 431.895 89.426C432.219 89.51 432.675 89.552 433.263 89.552H435.297V91.784C435.069 91.868 434.721 91.94 434.253 92C433.797 92.06 433.227 92.09 432.543 92.09ZM447.087 92.36C445.359 92.36 443.835 91.982 442.515 91.226C441.195 90.47 440.163 89.384 439.419 87.968C438.675 86.552 438.303 84.854 438.303 82.874C438.303 80.918 438.639 79.202 439.311 77.726C439.983 76.25 440.955 75.098 442.227 74.27C443.511 73.442 445.053 73.028 446.853 73.028C448.605 73.028 450.087 73.406 451.299 74.162C452.511 74.918 453.429 75.986 454.053 77.366C454.689 78.734 455.007 80.36 455.007 82.244V83.468H441.669C441.669 84.644 441.861 85.712 442.245 86.672C442.641 87.62 443.235 88.376 444.027 88.94C444.819 89.504 445.821 89.786 447.033 89.786C448.221 89.786 449.241 89.51 450.093 88.958C450.957 88.406 451.509 87.608 451.749 86.564H454.881C454.665 87.824 454.161 88.886 453.369 89.75C452.589 90.614 451.647 91.268 450.543 91.712C449.451 92.144 448.299 92.36 447.087 92.36ZM441.687 81.218H451.803C451.803 80.15 451.623 79.19 451.263 78.338C450.903 77.474 450.351 76.796 449.607 76.304C448.875 75.8 447.951 75.548 446.835 75.548C445.671 75.548 444.705 75.83 443.937 76.394C443.169 76.946 442.599 77.66 442.227 78.536C441.855 79.4 441.675 80.294 441.687 81.218ZM459.611 92V73.388H462.779V76.97C463.091 76.082 463.529 75.35 464.093 74.774C464.657 74.186 465.299 73.748 466.019 73.46C466.751 73.172 467.507 73.028 468.287 73.028C468.563 73.028 468.833 73.046 469.097 73.082C469.361 73.118 469.565 73.178 469.709 73.262V76.484C469.529 76.4 469.295 76.346 469.007 76.322C468.731 76.286 468.497 76.268 468.305 76.268C467.561 76.22 466.865 76.268 466.217 76.412C465.569 76.544 464.999 76.778 464.507 77.114C464.015 77.45 463.625 77.894 463.337 78.446C463.061 78.986 462.923 79.646 462.923 80.426V92H459.611ZM483.112 92V65.972H491.482C494.65 65.972 497.044 66.554 498.664 67.718C500.296 68.882 501.112 70.562 501.112 72.758C501.112 74.138 500.752 75.32 500.032 76.304C499.324 77.288 498.076 78.098 496.288 78.734C497.308 78.95 498.166 79.262 498.862 79.67C499.57 80.078 500.134 80.558 500.554 81.11C500.986 81.65 501.292 82.25 501.472 82.91C501.664 83.57 501.76 84.266 501.76 84.998C501.76 87.35 500.92 89.108 499.24 90.272C497.572 91.424 495.076 92 491.752 92H483.112ZM486.442 89.228H491.716C493.888 89.228 495.538 88.874 496.666 88.166C497.806 87.446 498.376 86.342 498.376 84.854C498.376 83.762 498.094 82.88 497.53 82.208C496.978 81.524 496.228 81.026 495.28 80.714C494.332 80.402 493.276 80.246 492.112 80.246H486.442V89.228ZM486.442 77.42H492.112C492.796 77.42 493.474 77.354 494.146 77.222C494.818 77.09 495.436 76.862 496 76.538C496.564 76.214 497.02 75.782 497.368 75.242C497.716 74.69 497.89 74 497.89 73.172C497.89 71.66 497.308 70.544 496.144 69.824C494.992 69.092 493.492 68.726 491.644 68.726H486.442V77.42ZM504.605 96.446C505.877 93.758 506.849 91.136 507.521 88.58C508.193 86.012 508.529 83.378 508.529 80.678C508.529 77.834 508.133 75.032 507.341 72.272C506.549 69.5 505.541 66.95 504.317 64.622H506.603C508.115 66.842 509.345 69.326 510.293 72.074C511.253 74.81 511.733 77.666 511.733 80.642C511.733 82.682 511.535 84.584 511.139 86.348C510.743 88.112 510.179 89.816 509.447 91.46C508.715 93.104 507.857 94.766 506.873 96.446H504.605Z" fill="#1A1B1D"/>
<path d="M426.891 162C416.41 162 405 164.578 405 170.184C405 175.79 416.41 178.369 426.891 178.369C437.372 178.369 448.637 175.79 448.637 170.184C448.637 164.578 437.372 162 426.891 162Z" fill="white"/>
<path fill-rule="evenodd" clip-rule="evenodd" d="M426.891 182.87C418.671 182.87 409.958 181.421 405 177.943V207.15C405 212.756 416.41 215.334 426.891 215.334C437.372 215.334 448.637 212.756 448.637 207.15V178.232C443.679 181.711 435.111 182.87 426.891 182.87ZM427.72 189.827C423.619 189.827 420.867 192.233 420.867 196.88V200.182C421.26 199.986 421.709 199.874 422.187 199.874C422.664 199.874 423.114 199.986 423.535 200.182V196.851C423.535 193.829 425.192 192.29 427.72 192.29C430.249 192.29 431.906 193.829 431.906 196.851V204.1H434.574V196.851C434.602 192.178 431.822 189.827 427.72 189.827ZM413.985 198.615C414.21 198.251 414.519 197.971 414.856 197.803C415.474 197.495 416.233 197.495 416.879 197.775C417.469 198.139 417.75 198.755 417.918 199.37C418.143 200.154 418.424 200.742 419.126 201.162C419.828 201.582 420.502 201.498 421.289 201.302C421.935 201.163 422.609 201.078 423.199 201.414C423.845 201.778 424.238 202.421 424.266 203.121V203.401C424.21 204.072 423.845 204.744 423.199 205.108C422.581 205.471 421.907 205.388 421.289 205.22C420.503 205.024 419.829 204.939 419.126 205.359C418.395 205.751 418.143 206.367 417.918 207.151C417.75 207.767 417.469 208.411 416.879 208.746C416.233 209.11 415.474 209.11 414.856 208.802C414.491 208.634 414.21 208.354 413.985 207.99C413.76 207.626 413.676 207.235 413.704 206.843C413.76 206.171 414.125 205.5 414.771 205.136C415.389 204.772 416.063 204.856 416.681 205.024C417.467 205.22 418.141 205.304 418.844 204.884H418.872C420.08 204.185 420.08 202.421 418.872 201.721H418.844C418.142 201.301 417.468 201.385 416.681 201.581C416.035 201.721 415.361 201.805 414.771 201.469C414.125 201.106 413.732 200.462 413.704 199.762C413.676 199.37 413.761 198.979 413.985 198.615Z" fill="white"/>
<path d="M197.914 187.5C197.362 187.5 196.914 187.948 196.914 188.5C196.914 189.052 197.362 189.5 197.914 189.5V188.5V187.5ZM227.553 189.5C228.105 189.5 228.553 189.052 228.553 188.5C228.553 187.948 228.105 187.5 227.553 187.5V188.5V189.5ZM326.553 187.5C326 187.5 325.553 187.948 325.553 188.5C325.553 189.052 326 189.5 326.553 189.5V188.5V187.5ZM365.207 189.207C365.597 188.817 365.597 188.183 365.207 187.793L358.843 181.429C358.452 181.038 357.819 181.038 357.429 181.429C357.038 181.819 357.038 182.453 357.429 182.843L363.086 188.5L357.429 194.157C357.038 194.547 357.038 195.181 357.429 195.571C357.819 195.962 358.452 195.962 358.843 195.571L365.207 189.207ZM197.914 188.5V189.5H227.553V188.5V187.5H197.914V188.5ZM326.553 188.5V189.5H364.5V188.5V187.5H326.553V188.5Z" fill="black" fill-opacity="0.8"/>
<path d="M236.711 182.5V170.864H240.859C241.76 170.864 242.508 171.019 243.103 171.33C243.702 171.64 244.149 172.07 244.444 172.619C244.74 173.165 244.887 173.795 244.887 174.511C244.887 175.223 244.738 175.85 244.438 176.392C244.143 176.93 243.696 177.348 243.098 177.648C242.503 177.947 241.755 178.097 240.853 178.097H237.711V176.585H240.694C241.262 176.585 241.724 176.504 242.08 176.341C242.44 176.178 242.704 175.941 242.87 175.631C243.037 175.32 243.12 174.947 243.12 174.511C243.12 174.072 243.035 173.691 242.865 173.369C242.698 173.047 242.435 172.801 242.075 172.631C241.719 172.456 241.251 172.369 240.671 172.369H238.467V182.5H236.711ZM242.455 177.25L245.33 182.5H243.33L240.512 177.25H242.455ZM250.363 182.676C249.503 182.676 248.763 182.492 248.142 182.125C247.524 181.754 247.047 181.233 246.71 180.562C246.377 179.888 246.21 179.098 246.21 178.193C246.21 177.299 246.377 176.511 246.71 175.83C247.047 175.148 247.517 174.616 248.119 174.233C248.725 173.85 249.433 173.659 250.244 173.659C250.736 173.659 251.214 173.741 251.676 173.903C252.138 174.066 252.553 174.322 252.92 174.67C253.288 175.019 253.577 175.472 253.789 176.028C254.002 176.581 254.108 177.254 254.108 178.045V178.648H247.17V177.375H252.443C252.443 176.928 252.352 176.532 252.17 176.188C251.988 175.839 251.733 175.564 251.403 175.364C251.077 175.163 250.695 175.062 250.255 175.062C249.778 175.062 249.361 175.18 249.005 175.415C248.653 175.646 248.38 175.949 248.187 176.324C247.998 176.695 247.903 177.098 247.903 177.534V178.528C247.903 179.112 248.005 179.608 248.21 180.017C248.418 180.426 248.708 180.739 249.079 180.955C249.45 181.167 249.884 181.273 250.38 181.273C250.702 181.273 250.996 181.227 251.261 181.136C251.526 181.042 251.755 180.902 251.948 180.716C252.142 180.53 252.289 180.301 252.392 180.028L254 180.318C253.871 180.792 253.64 181.206 253.306 181.562C252.977 181.915 252.562 182.189 252.062 182.386C251.566 182.58 251 182.676 250.363 182.676ZM255.817 185.773V173.773H257.476V175.188H257.618C257.716 175.006 257.858 174.795 258.044 174.557C258.229 174.318 258.487 174.11 258.817 173.932C259.146 173.75 259.582 173.659 260.123 173.659C260.828 173.659 261.457 173.837 262.01 174.193C262.563 174.549 262.996 175.062 263.311 175.733C263.629 176.403 263.788 177.21 263.788 178.153C263.788 179.097 263.631 179.905 263.317 180.58C263.002 181.25 262.57 181.767 262.021 182.131C261.472 182.491 260.845 182.67 260.14 182.67C259.61 182.67 259.176 182.581 258.839 182.403C258.506 182.225 258.245 182.017 258.055 181.778C257.866 181.54 257.72 181.328 257.618 181.142H257.515V185.773H255.817ZM257.481 178.136C257.481 178.75 257.57 179.288 257.748 179.75C257.926 180.212 258.184 180.574 258.521 180.835C258.858 181.093 259.271 181.222 259.76 181.222C260.267 181.222 260.692 181.087 261.032 180.818C261.373 180.545 261.631 180.176 261.805 179.71C261.983 179.244 262.072 178.72 262.072 178.136C262.072 177.561 261.985 177.044 261.811 176.585C261.64 176.127 261.383 175.765 261.038 175.5C260.697 175.235 260.271 175.102 259.76 175.102C259.267 175.102 258.851 175.229 258.51 175.483C258.173 175.737 257.917 176.091 257.743 176.545C257.568 177 257.481 177.53 257.481 178.136ZM267.214 170.864V182.5H265.516V170.864H267.214ZM269.324 182.5V173.773H271.023V182.5H269.324ZM270.182 172.426C269.886 172.426 269.633 172.328 269.42 172.131C269.212 171.93 269.108 171.691 269.108 171.415C269.108 171.134 269.212 170.896 269.42 170.699C269.633 170.498 269.886 170.398 270.182 170.398C270.477 170.398 270.729 170.498 270.938 170.699C271.15 170.896 271.256 171.134 271.256 171.415C271.256 171.691 271.15 171.93 270.938 172.131C270.729 172.328 270.477 172.426 270.182 172.426ZM276.808 182.676C275.964 182.676 275.236 182.485 274.627 182.102C274.021 181.716 273.555 181.184 273.229 180.506C272.903 179.828 272.74 179.051 272.74 178.176C272.74 177.29 272.907 176.508 273.24 175.83C273.574 175.148 274.043 174.616 274.649 174.233C275.255 173.85 275.969 173.659 276.791 173.659C277.454 173.659 278.045 173.782 278.564 174.028C279.083 174.271 279.502 174.612 279.82 175.051C280.142 175.491 280.333 176.004 280.394 176.591H278.74C278.649 176.182 278.441 175.83 278.115 175.534C277.793 175.239 277.361 175.091 276.82 175.091C276.346 175.091 275.932 175.216 275.575 175.466C275.223 175.712 274.949 176.064 274.752 176.523C274.555 176.977 274.456 177.515 274.456 178.136C274.456 178.773 274.553 179.322 274.746 179.784C274.939 180.246 275.212 180.604 275.564 180.858C275.92 181.112 276.339 181.239 276.82 181.239C277.142 181.239 277.433 181.18 277.695 181.062C277.96 180.941 278.182 180.769 278.36 180.545C278.541 180.322 278.668 180.053 278.74 179.739H280.394C280.333 180.303 280.149 180.807 279.843 181.25C279.536 181.693 279.125 182.042 278.61 182.295C278.098 182.549 277.498 182.676 276.808 182.676ZM284.574 182.693C284.021 182.693 283.521 182.591 283.074 182.386C282.627 182.178 282.273 181.877 282.012 181.483C281.754 181.089 281.625 180.606 281.625 180.034C281.625 179.542 281.72 179.136 281.909 178.818C282.099 178.5 282.354 178.248 282.676 178.062C282.998 177.877 283.358 177.737 283.756 177.642C284.154 177.547 284.559 177.475 284.972 177.426C285.495 177.366 285.919 177.316 286.245 177.278C286.57 177.237 286.807 177.17 286.955 177.08C287.103 176.989 287.176 176.841 287.176 176.636V176.597C287.176 176.1 287.036 175.716 286.756 175.443C286.479 175.17 286.067 175.034 285.517 175.034C284.945 175.034 284.495 175.161 284.165 175.415C283.839 175.665 283.614 175.943 283.489 176.25L281.892 175.886C282.082 175.356 282.358 174.928 282.722 174.602C283.089 174.273 283.512 174.034 283.989 173.886C284.466 173.735 284.968 173.659 285.495 173.659C285.843 173.659 286.212 173.701 286.603 173.784C286.997 173.864 287.364 174.011 287.705 174.227C288.05 174.443 288.332 174.752 288.551 175.153C288.771 175.551 288.881 176.068 288.881 176.705V182.5H287.222V181.307H287.154C287.044 181.527 286.879 181.742 286.659 181.955C286.44 182.167 286.158 182.343 285.813 182.483C285.468 182.623 285.055 182.693 284.574 182.693ZM284.943 181.33C285.413 181.33 285.815 181.237 286.148 181.051C286.485 180.866 286.741 180.623 286.915 180.324C287.093 180.021 287.182 179.697 287.182 179.352V178.227C287.122 178.288 287.004 178.345 286.83 178.398C286.659 178.447 286.464 178.491 286.245 178.528C286.025 178.562 285.811 178.595 285.603 178.625C285.394 178.652 285.22 178.674 285.08 178.693C284.75 178.735 284.449 178.805 284.176 178.903C283.908 179.002 283.692 179.144 283.529 179.33C283.37 179.511 283.29 179.754 283.29 180.057C283.29 180.477 283.445 180.795 283.756 181.011C284.067 181.223 284.462 181.33 284.943 181.33ZM295.042 173.773V175.136H290.275V173.773H295.042ZM291.553 171.682H293.252V179.938C293.252 180.267 293.301 180.515 293.4 180.682C293.498 180.845 293.625 180.956 293.78 181.017C293.939 181.074 294.112 181.102 294.297 181.102C294.434 181.102 294.553 181.093 294.655 181.074C294.758 181.055 294.837 181.04 294.894 181.028L295.201 182.432C295.102 182.47 294.962 182.508 294.78 182.545C294.598 182.587 294.371 182.61 294.098 182.614C293.651 182.621 293.235 182.542 292.848 182.375C292.462 182.208 292.15 181.951 291.911 181.602C291.672 181.254 291.553 180.816 291.553 180.29V171.682ZM296.745 182.5V173.773H298.444V182.5H296.745ZM297.603 172.426C297.307 172.426 297.054 172.328 296.841 172.131C296.633 171.93 296.529 171.691 296.529 171.415C296.529 171.134 296.633 170.896 296.841 170.699C297.054 170.498 297.307 170.398 297.603 170.398C297.898 170.398 298.15 170.498 298.359 170.699C298.571 170.896 298.677 171.134 298.677 171.415C298.677 171.691 298.571 171.93 298.359 172.131C298.15 172.328 297.898 172.426 297.603 172.426ZM302.252 177.318V182.5H300.553V173.773H302.184V175.193H302.292C302.493 174.731 302.807 174.36 303.235 174.08C303.667 173.799 304.21 173.659 304.866 173.659C305.46 173.659 305.981 173.784 306.428 174.034C306.875 174.28 307.222 174.648 307.468 175.136C307.714 175.625 307.837 176.229 307.837 176.949V182.5H306.139V177.153C306.139 176.521 305.974 176.027 305.644 175.67C305.315 175.311 304.862 175.131 304.286 175.131C303.892 175.131 303.542 175.216 303.235 175.386C302.932 175.557 302.692 175.807 302.514 176.136C302.339 176.462 302.252 176.856 302.252 177.318ZM313.599 185.955C312.906 185.955 312.309 185.864 311.809 185.682C311.313 185.5 310.908 185.259 310.593 184.96C310.279 184.661 310.044 184.333 309.889 183.977L311.349 183.375C311.451 183.542 311.588 183.718 311.758 183.903C311.932 184.093 312.167 184.254 312.463 184.386C312.762 184.519 313.146 184.585 313.616 184.585C314.26 184.585 314.792 184.428 315.213 184.114C315.633 183.803 315.843 183.307 315.843 182.625V180.909H315.735C315.633 181.095 315.485 181.301 315.292 181.528C315.103 181.756 314.841 181.953 314.508 182.119C314.175 182.286 313.741 182.369 313.207 182.369C312.517 182.369 311.896 182.208 311.343 181.886C310.794 181.561 310.358 181.081 310.036 180.449C309.718 179.812 309.559 179.03 309.559 178.102C309.559 177.174 309.716 176.379 310.031 175.716C310.349 175.053 310.784 174.545 311.338 174.193C311.891 173.837 312.517 173.659 313.218 173.659C313.76 173.659 314.197 173.75 314.531 173.932C314.864 174.11 315.123 174.318 315.309 174.557C315.498 174.795 315.644 175.006 315.747 175.188H315.872V173.773H317.536V182.693C317.536 183.443 317.362 184.059 317.014 184.54C316.665 185.021 316.194 185.377 315.599 185.608C315.008 185.839 314.341 185.955 313.599 185.955ZM313.582 180.96C314.07 180.96 314.483 180.847 314.82 180.619C315.161 180.388 315.419 180.059 315.593 179.631C315.771 179.199 315.86 178.682 315.86 178.08C315.86 177.492 315.773 176.975 315.599 176.528C315.425 176.081 315.169 175.733 314.832 175.483C314.495 175.229 314.078 175.102 313.582 175.102C313.07 175.102 312.644 175.235 312.303 175.5C311.963 175.761 311.705 176.117 311.531 176.568C311.36 177.019 311.275 177.523 311.275 178.08C311.275 178.652 311.362 179.153 311.536 179.585C311.711 180.017 311.968 180.354 312.309 180.597C312.654 180.839 313.078 180.96 313.582 180.96ZM246.721 206.67C246.016 206.67 245.387 206.491 244.834 206.131C244.285 205.767 243.853 205.25 243.539 204.58C243.228 203.905 243.073 203.097 243.073 202.153C243.073 201.21 243.23 200.403 243.544 199.733C243.863 199.062 244.298 198.549 244.851 198.193C245.404 197.837 246.031 197.659 246.732 197.659C247.274 197.659 247.709 197.75 248.039 197.932C248.372 198.11 248.63 198.318 248.811 198.557C248.997 198.795 249.141 199.006 249.243 199.188H249.346V194.864H251.044V206.5H249.385V205.142H249.243C249.141 205.328 248.993 205.54 248.8 205.778C248.611 206.017 248.349 206.225 248.016 206.403C247.683 206.581 247.251 206.67 246.721 206.67ZM247.096 205.222C247.584 205.222 247.997 205.093 248.334 204.835C248.675 204.574 248.933 204.212 249.107 203.75C249.285 203.288 249.374 202.75 249.374 202.136C249.374 201.53 249.287 201 249.113 200.545C248.938 200.091 248.683 199.737 248.346 199.483C248.008 199.229 247.592 199.102 247.096 199.102C246.584 199.102 246.158 199.235 245.817 199.5C245.476 199.765 245.219 200.127 245.044 200.585C244.874 201.044 244.789 201.561 244.789 202.136C244.789 202.72 244.876 203.244 245.05 203.71C245.224 204.176 245.482 204.545 245.823 204.818C246.167 205.087 246.592 205.222 247.096 205.222ZM255.833 206.693C255.28 206.693 254.78 206.591 254.333 206.386C253.886 206.178 253.532 205.877 253.27 205.483C253.013 205.089 252.884 204.606 252.884 204.034C252.884 203.542 252.979 203.136 253.168 202.818C253.357 202.5 253.613 202.248 253.935 202.062C254.257 201.877 254.617 201.737 255.015 201.642C255.412 201.547 255.818 201.475 256.231 201.426C256.753 201.366 257.178 201.316 257.503 201.278C257.829 201.237 258.066 201.17 258.214 201.08C258.361 200.989 258.435 200.841 258.435 200.636V200.597C258.435 200.1 258.295 199.716 258.015 199.443C257.738 199.17 257.325 199.034 256.776 199.034C256.204 199.034 255.753 199.161 255.424 199.415C255.098 199.665 254.873 199.943 254.748 200.25L253.151 199.886C253.34 199.356 253.617 198.928 253.981 198.602C254.348 198.273 254.77 198.034 255.248 197.886C255.725 197.735 256.227 197.659 256.753 197.659C257.102 197.659 257.471 197.701 257.861 197.784C258.255 197.864 258.623 198.011 258.964 198.227C259.308 198.443 259.59 198.752 259.81 199.153C260.03 199.551 260.14 200.068 260.14 200.705V206.5H258.481V205.307H258.412C258.303 205.527 258.138 205.742 257.918 205.955C257.698 206.167 257.416 206.343 257.072 206.483C256.727 206.623 256.314 206.693 255.833 206.693ZM256.202 205.33C256.672 205.33 257.073 205.237 257.407 205.051C257.744 204.866 258 204.623 258.174 204.324C258.352 204.021 258.441 203.697 258.441 203.352V202.227C258.38 202.288 258.263 202.345 258.089 202.398C257.918 202.447 257.723 202.491 257.503 202.528C257.284 202.562 257.07 202.595 256.861 202.625C256.653 202.652 256.479 202.674 256.339 202.693C256.009 202.735 255.708 202.805 255.435 202.903C255.166 203.002 254.95 203.144 254.787 203.33C254.628 203.511 254.549 203.754 254.549 204.057C254.549 204.477 254.704 204.795 255.015 205.011C255.325 205.223 255.721 205.33 256.202 205.33ZM266.3 197.773V199.136H261.533V197.773H266.3ZM262.812 195.682H264.511V203.938C264.511 204.267 264.56 204.515 264.658 204.682C264.757 204.845 264.884 204.956 265.039 205.017C265.198 205.074 265.37 205.102 265.556 205.102C265.692 205.102 265.812 205.093 265.914 205.074C266.016 205.055 266.096 205.04 266.153 205.028L266.459 206.432C266.361 206.47 266.221 206.508 266.039 206.545C265.857 206.587 265.63 206.61 265.357 206.614C264.91 206.621 264.494 206.542 264.107 206.375C263.721 206.208 263.408 205.951 263.17 205.602C262.931 205.254 262.812 204.816 262.812 204.29V195.682ZM270.543 206.693C269.99 206.693 269.49 206.591 269.043 206.386C268.596 206.178 268.242 205.877 267.981 205.483C267.723 205.089 267.595 204.606 267.595 204.034C267.595 203.542 267.689 203.136 267.879 202.818C268.068 202.5 268.324 202.248 268.646 202.062C268.968 201.877 269.327 201.737 269.725 201.642C270.123 201.547 270.528 201.475 270.941 201.426C271.464 201.366 271.888 201.316 272.214 201.278C272.54 201.237 272.776 201.17 272.924 201.08C273.072 200.989 273.146 200.841 273.146 200.636V200.597C273.146 200.1 273.005 199.716 272.725 199.443C272.449 199.17 272.036 199.034 271.487 199.034C270.915 199.034 270.464 199.161 270.134 199.415C269.809 199.665 269.583 199.943 269.458 200.25L267.862 199.886C268.051 199.356 268.327 198.928 268.691 198.602C269.059 198.273 269.481 198.034 269.958 197.886C270.435 197.735 270.937 197.659 271.464 197.659C271.812 197.659 272.182 197.701 272.572 197.784C272.966 197.864 273.333 198.011 273.674 198.227C274.019 198.443 274.301 198.752 274.521 199.153C274.74 199.551 274.85 200.068 274.85 200.705V206.5H273.191V205.307H273.123C273.013 205.527 272.848 205.742 272.629 205.955C272.409 206.167 272.127 206.343 271.782 206.483C271.437 206.623 271.024 206.693 270.543 206.693ZM270.913 205.33C271.382 205.33 271.784 205.237 272.117 205.051C272.454 204.866 272.71 204.623 272.884 204.324C273.062 204.021 273.151 203.697 273.151 203.352V202.227C273.091 202.288 272.973 202.345 272.799 202.398C272.629 202.447 272.434 202.491 272.214 202.528C271.994 202.562 271.78 202.595 271.572 202.625C271.363 202.652 271.189 202.674 271.049 202.693C270.72 202.735 270.418 202.805 270.146 202.903C269.877 203.002 269.661 203.144 269.498 203.33C269.339 203.511 269.259 203.754 269.259 204.057C269.259 204.477 269.415 204.795 269.725 205.011C270.036 205.223 270.432 205.33 270.913 205.33ZM285.149 197.773V199.136H280.217V197.773H285.149ZM281.569 206.5V196.761C281.569 196.216 281.689 195.763 281.927 195.403C282.166 195.04 282.482 194.769 282.876 194.591C283.27 194.409 283.698 194.318 284.16 194.318C284.501 194.318 284.793 194.347 285.035 194.403C285.278 194.456 285.457 194.506 285.575 194.551L285.177 195.926C285.098 195.903 284.995 195.877 284.87 195.847C284.745 195.812 284.594 195.795 284.416 195.795C284.003 195.795 283.707 195.898 283.529 196.102C283.355 196.307 283.268 196.602 283.268 196.989V206.5H281.569ZM288.424 194.864V206.5H286.726V194.864H288.424ZM294.21 206.676C293.392 206.676 292.678 206.489 292.068 206.114C291.458 205.739 290.985 205.214 290.648 204.54C290.31 203.866 290.142 203.078 290.142 202.176C290.142 201.271 290.31 200.479 290.648 199.801C290.985 199.123 291.458 198.597 292.068 198.222C292.678 197.847 293.392 197.659 294.21 197.659C295.028 197.659 295.742 197.847 296.352 198.222C296.962 198.597 297.435 199.123 297.773 199.801C298.11 200.479 298.278 201.271 298.278 202.176C298.278 203.078 298.11 203.866 297.773 204.54C297.435 205.214 296.962 205.739 296.352 206.114C295.742 206.489 295.028 206.676 294.21 206.676ZM294.216 205.25C294.746 205.25 295.185 205.11 295.534 204.83C295.882 204.549 296.14 204.176 296.307 203.71C296.477 203.244 296.562 202.731 296.562 202.17C296.562 201.614 296.477 201.102 296.307 200.636C296.14 200.167 295.882 199.79 295.534 199.506C295.185 199.222 294.746 199.08 294.216 199.08C293.682 199.08 293.239 199.222 292.886 199.506C292.538 199.79 292.278 200.167 292.108 200.636C291.941 201.102 291.858 201.614 291.858 202.17C291.858 202.731 291.941 203.244 292.108 203.71C292.278 204.176 292.538 204.549 292.886 204.83C293.239 205.11 293.682 205.25 294.216 205.25ZM301.625 206.5L299.057 197.773H300.813L302.523 204.182H302.608L304.324 197.773H306.08L307.784 204.153H307.869L309.568 197.773H311.324L308.761 206.5H307.028L305.256 200.199H305.125L303.352 206.5H301.625Z" fill="black" fill-opacity="0.8"/>
<path d="M136.004 369.49C136.004 370.042 136.452 370.49 137.004 370.49C137.556 370.49 138.004 370.042 138.004 369.49H137.004H136.004ZM137.711 303.75C137.32 303.359 136.687 303.359 136.297 303.75L129.933 310.114C129.542 310.504 129.542 311.137 129.933 311.528C130.323 311.919 130.957 311.919 131.347 311.528L137.004 305.871L142.661 311.528C143.051 311.919 143.684 311.919 144.075 311.528C144.465 311.137 144.465 310.504 144.075 310.114L137.711 303.75ZM137.004 369.49H138.004V304.457H137.004H136.004V369.49H137.004Z" fill="black" fill-opacity="0.8"/>
<path d="M111.977 436C111.516 436.797 110.654 437.333 109.667 437.333C108.194 437.333 107 436.139 107 434.667C107 433.194 108.194 432 109.667 432C110.654 432 111.516 432.536 111.977 433.333H116.333C120.752 433.333 124.334 436.915 124.334 441.333C124.334 444.279 126.721 446.667 129.667 446.667H131V445.334C131 443.861 132.194 442.667 133.667 442.667H139C140.473 442.667 141.667 443.861 141.667 445.334V446.667H143C145.946 446.667 148.334 444.279 148.334 441.333C148.334 436.915 151.916 433.333 156.334 433.333H160.334V432L165.667 434.667L160.334 437.333V436H156.334C153.388 436 151.001 438.388 151.001 441.333C151.001 443.382 150.23 445.251 148.963 446.667H160.334V445.334L165.667 448L160.334 450.667V449.334H148.963C150.23 450.749 151.001 452.618 151.001 454.667C151.001 457.613 153.388 460 156.334 460H160.334V458.667L165.667 461.334L160.334 464V462.667H156.334C151.916 462.667 148.334 459.085 148.334 454.667C148.334 451.721 145.946 449.334 143 449.334H141.667V450.667C141.667 452.14 140.473 453.334 139 453.334H133.667C132.194 453.334 131 452.14 131 450.667V449.334H129.667C126.721 449.334 124.334 451.721 124.334 454.667C124.334 459.085 120.752 462.667 116.333 462.667H111.977C111.516 463.464 110.654 464 109.667 464C108.194 464 107 462.806 107 461.334C107 459.861 108.194 458.667 109.667 458.667C110.654 458.667 111.516 459.203 111.977 460H116.333C119.279 460 121.667 457.613 121.667 454.667C121.667 452.618 122.437 450.749 123.704 449.334H111.977C111.516 450.131 110.654 450.667 109.667 450.667C108.194 450.667 107 449.473 107 448C107 446.527 108.194 445.334 109.667 445.334C110.654 445.334 111.516 445.87 111.977 446.667H123.704C122.437 445.251 121.667 443.382 121.667 441.333C121.667 438.388 119.279 436 116.333 436H111.977Z" fill="white"/>
</svg>
