<svg xmlns="http://www.w3.org/2000/svg" xmlns:xlink="http://www.w3.org/1999/xlink" xmlns:lucid="lucid" width="4961.96" height="1104"><g transform="translate(2324.9444444444443 940)" lucid:page-tab-id="0_0"><path d="M-2500-1000h5500V500h-5500z" fill="#fff"/><path d="M2102.4-531.42a6 6 0 0 1 6-6h501.1a6 6 0 0 1 6 6v408a6 6 0 0 1-6 6h-501.1a6 6 0 0 1-6-6z" stroke="#5e5e5e" stroke-width="3" fill-opacity="0"/><g filter="url(#a)"><path d="M-2180-445.16a2 2 0 0 1 2-2h316a2 2 0 0 1 2 2v276a2 2 0 0 1-2 2h-316a2 2 0 0 1-2-2z" fill="#fff"/><path d="M-1932.74-249.88c6.03 0 11.18-1.87 15.45-5.6 4.28-3.72 6.4-8.23 6.4-13.5v-95.45c0-5.27-2.12-9.77-6.4-13.5-4.26-3.73-9.4-5.6-15.44-5.6h-174.52c-6.03 0-11.18 1.87-15.45 5.6-4.28 3.73-6.4 8.23-6.4 13.5v95.45c0 5.27 2.12 9.78 6.4 13.5 4.25 3.73 9.4 5.6 15.44 5.6h-43.65v19.1h261.8v-19.1zm-174.52-114.55h174.52v95.45h-174.52z" fill="#757575"/></g><path d="M-1516.8-314.93l149.12-130.48c4.16-3.65 10.88-3.65 15.04-.3 0 .3.32.3.32.3l149.12 130.47c4.16 3.64 4.16 9.52.32 13.16-.32 0-.32.28-.32.28L-1352.64-171c-4.16 3.63-10.56 3.63-14.72 0l-149.44-130.5c-4.16-3.63-4.16-9.5-.32-13.15.32 0 .32-.28.32-.28z" stroke="#000" stroke-opacity="0" fill="url(#b)"/><path d="M-1321.12-386.14l-37.6-32.74c-.8-.63-2.08-.63-2.87 0l-37.6 32.74c-.64.43-.96 1.06-.72 1.7.24.84 1.2 1.34 2.15 1.13h22c1.03 0 1.9.76 1.9 1.68v31.12c0 .9.88 1.7 2 1.7h23.42c1.12 0 2-.8 2-1.7v-31.12c0-.92.87-1.7 1.9-1.7h22c.8.15 1.5-.06 1.9-.63.57-.7.33-1.7-.47-2.2zM-1448.9-345.38l-37.26 33.1c-.72.7-.72 1.7 0 2.4l37.26 32.75c.4.42.9.56 1.45.56 1.13-.07 1.94-.84 1.94-1.75v-19.18c0-.9.8-1.68 1.92-1.68H-1407.94c.97-.07 1.7-.84 1.62-1.75v-20.5c.08-.15.16-.36.24-.57.16-.84-.56-1.6-1.53-1.75h-35.5c-.96.07-1.85-.56-1.93-1.4v-18.96c.4-.98-.16-2.03-1.2-2.3-1.14-.36-2.27.13-2.67 1.04zM-1269.82-277l37.9-32.98c.72-.7.72-1.65 0-2.35l-37.9-33c-.32-.26-.64-.4-1.13-.4-1.05-.07-2.02.7-2.02 1.66v19.43c0 .9-.8 1.6-1.8 1.6H-1310.7c-.97.06-1.7.82-1.62 1.65v20.76c0 .83.8 1.52 1.78 1.52h35.62c1.06 0 1.95.83 1.95 1.73v19.3c0 .35.16.63.4.9.73.77 1.94.84 2.75.2z" stroke="#000" stroke-opacity="0" fill="#fff"/><path d="M-1310.4-308.22c.1-19.96-14.38-36.77-36.3-42.02-26.3-6.45-53.67 7.05-61 30.02-7.45 23.1 8.02 46.97 34.4 53.43v14.86c-5.85 2.55-10 6.16-13.1 11.4-7.72 12.92-1.87 28.97 13.1 35.73 14.9 6.74 33.24 1.64 40.98-11.42 7.63-13.06 1.78-29.1-13.1-35.72v-15.6c21.03-5.56 34.72-21.62 35.02-40.68z" stroke="#000" stroke-opacity="0" fill="#fff"/><path d="M-1330.88-308.5c0 13.92-12.9 25.2-28.8 25.2s-28.8-11.28-28.8-25.2c0-13.9 12.9-25.2 28.8-25.2s28.8 11.3 28.8 25.2z" stroke="#000" stroke-opacity="0" fill="#a9b3ff"/><path d="M-347.85-183.75a6 6 0 0 1 6-6h228a6 6 0 0 1 6 6v48a6 6 0 0 1-6 6h-228a6 6 0 0 1-6-6z" fill="none"/><use xlink:href="#c" transform="matrix(1,0,0,1,-347.85260491273493,-189.75154233899207) translate(46.25308641975312 37.11111111111111)"/><use xlink:href="#d" transform="matrix(1,0,0,1,-347.85260491273493,-189.75154233899207) translate(102.9814814814815 37.11111111111111)"/><use xlink:href="#e" transform="matrix(1,0,0,1,-347.85260491273493,-189.75154233899207) translate(122.73456790123457 37.11111111111111)"/><path d="M495.46-434.3a6.95 6.95 0 0 1 9.08 0L655.46-303.9a5.18 5.18 0 0 1 0 7.84L504.54-165.7a6.95 6.95 0 0 1-9.08 0L344.54-296.1a5.18 5.18 0 0 1 0-7.84z" stroke="#5e5e5e" stroke-width="3" fill-opacity="0"/><path d="M380-332.2a6 6 0 0 1 6-6h228a6 6 0 0 1 6 6v48a6 6 0 0 1-6 6H386a6 6 0 0 1-6-6z" fill="none"/><use xlink:href="#f" transform="matrix(1,0,0,1,380,-338.21071925284673) translate(49.74382716049385 37.55555555555556)"/><path d="M-69.4-303.58" stroke="#5e5e5e" stroke-width="2" fill="none"/><path d="M-72.63-303.58l-14.27 4.64v-9.27z" stroke="#5e5e5e" stroke-width="2" fill="#5e5e5e"/><path d="M620-614a6 6 0 0 1 6-6h228a6 6 0 0 1 6 6v48a6 6 0 0 1-6 6H626a6 6 0 0 1-6-6z" fill="none"/><use xlink:href="#g" transform="matrix(1,0,0,1,620,-620) translate(-9.7222222222222 38)"/><path d="M-2140-154.06a6 6 0 0 1 6-6h228a6 6 0 0 1 6 6v48a6 6 0 0 1-6 6h-228a6 6 0 0 1-6-6z" fill="none"/><use xlink:href="#h" transform="matrix(1,0,0,1,-2140,-160.05484461028914) translate(64.55555555555557 38)"/><path d="M640 26a6 6 0 0 1 6-6h228a6 6 0 0 1 6 6v48a6 6 0 0 1-6 6H646a6 6 0 0 1-6-6z" fill="none"/><use xlink:href="#i" transform="matrix(1,0,0,1,640,20.000000000000227) translate(67.94444444444446 38)"/><path d="M1060-687.8a6 6 0 0 1 6-6h228a6 6 0 0 1 6 6v48a6 6 0 0 1-6 6h-228a6 6 0 0 1-6-6z" fill="none"/><use xlink:href="#j" transform="matrix(1,0,0,1,1060,-693.79) translate(75.55555555555557 38)"/><path d="M1040 26a6 6 0 0 1 6-6h228a6 6 0 0 1 6 6v48a6 6 0 0 1-6 6h-228a6 6 0 0 1-6-6z" fill="none"/><use xlink:href="#k" transform="matrix(1,0,0,1,1040,20.000000000000227) translate(75.55555555555557 38)"/><path d="M-360-714a6 6 0 0 1 6-6h1628a6 6 0 0 1 6 6v848a6 6 0 0 1-6 6H-354a6 6 0 0 1-6-6z" fill-opacity="0"/><path d="M-276.48-720h77.53m38.76 0h77.53m38.77 0H33.6m38.76 0h77.53m38.77 0h77.52m38.75 0h77.53m38.76 0h77.52m38.76 0h77.53m38.76 0h77.53m38.76 0h77.52m38.76 0h77.52m38.77 0h77.52m38.75 0h77.53m38.76 0H1274l.94.07.9.22.88.35.8.5.72.6.6.72.5.8.37.88.23.9.07.95v40.38m0 40.38v80.76m0 40.38v80.77m0 40.38v80.76m0 40.4v80.75m0 40.38v80.76m0 40.38v80.76m0 40.38V134l-.07.94-.22.9-.35.88-.5.8-.6.72-.72.6-.8.5-.88.37-.9.23-.95.07h-38.76m-38.76 0h-77.53m-38.76 0h-77.53m-38.76 0H886.4m-38.76 0H770.1m-38.77 0H653.8m-38.75 0h-77.53m-38.76 0h-77.52m-38.76 0h-77.53m-38.76 0h-77.53m-38.76 0H72.39m-38.76 0H-43.9m-38.77 0h-77.52m-38.75 0h-77.53m-38.76 0H-354l-.94-.07-.9-.22-.88-.35-.8-.5-.72-.6-.6-.72-.5-.8-.37-.88-.23-.9-.07-.95V93.62m0-40.38v-80.76m0-40.4v-80.75m0-40.38v-80.76m0-40.4v-80.75m0-40.38v-80.77m0-40.38v-80.76m0-40.38V-714l.07-.94.22-.9.35-.88.5-.8.6-.72.72-.6.8-.5.88-.37.9-.23.95-.07h38.76" stroke="#fc9432" stroke-width="8" fill="none"/><path d="M2102.4-452.2a6 6 0 0 1 6-6h228a6 6 0 0 1 6 6v48a6 6 0 0 1-6 6h-228a6 6 0 0 1-6-6z" fill="none"/><use xlink:href="#l" transform="matrix(1,0,0,1,2102.4081604682906,-458.21071925284673) translate(36.728395061728406 21.111111111111114)"/><use xlink:href="#m" transform="matrix(1,0,0,1,2102.4081604682906,-458.21071925284673) translate(100.80246913580248 21.111111111111114)"/><use xlink:href="#n" transform="matrix(1,0,0,1,2102.4081604682906,-458.21071925284673) translate(190.92592592592592 21.111111111111114)"/><use xlink:href="#o" transform="matrix(1,0,0,1,2102.4081604682906,-458.21071925284673) translate(120 47.777777777777786)"/><path d="M2357.76-214a6 6 0 0 1 6-6h228a6 6 0 0 1 6 6v48a6 6 0 0 1-6 6h-228a6 6 0 0 1-6-6z" fill="none"/><use xlink:href="#l" transform="matrix(1,0,0,1,2357.7561277414206,-220) translate(36.728395061728406 17.77777777777778)"/><use xlink:href="#m" transform="matrix(1,0,0,1,2357.7561277414206,-220) translate(100.80246913580248 17.77777777777778)"/><use xlink:href="#p" transform="matrix(1,0,0,1,2357.7561277414206,-220) translate(190.92592592592592 17.77777777777778)"/><use xlink:href="#q" transform="matrix(1,0,0,1,2357.7561277414206,-220) translate(120 44.44444444444444)"/><use xlink:href="#o" transform="matrix(1,0,0,1,2357.7561277414206,-220) translate(120 71.11111111111111)"/><path d="M2117.76-214a6 6 0 0 1 6-6h228a6 6 0 0 1 6 6v18.25a6 6 0 0 1-6 6h-228a6 6 0 0 1-6-6z" fill="none"/><use xlink:href="#l" transform="matrix(1,0,0,1,2117.7561277414206,-220) translate(36.728395061728406 19.944444444444443)"/><use xlink:href="#m" transform="matrix(1,0,0,1,2117.7561277414206,-220) translate(100.80246913580248 19.944444444444443)"/><use xlink:href="#r" transform="matrix(1,0,0,1,2117.7561277414206,-220) translate(190.92592592592592 19.944444444444443)"/><path d="M500-438.48v-192.4a6 6 0 0 1 6-6h435.54" stroke="#5e5e5e" stroke-width="2" fill="none"/><path d="M501-437.4l-1-.08-1 .07v-1.1h2z" stroke="#5e5e5e" stroke-width=".05" fill="#5e5e5e"/><path d="M956.8-636.9l-14.26 4.64v-9.27z" stroke="#5e5e5e" stroke-width="2" fill="#5e5e5e"/><path d="M1823.24-355.5h138.28a.06.06 0 0 0 .06-.06.06.06 0 0 1 .05-.05h120.78M1823.27-355.5h-1.03" stroke="#5e5e5e" stroke-width="2" fill="none"/><path d="M2097.67-355.6l-14.26 4.63v-9.27z" stroke="#5e5e5e" stroke-width="2" fill="#5e5e5e"/><path d="M-68.4-303.58h204.85l.03-.03H323.8M-68.37-303.58h-1.03" stroke="#5e5e5e" stroke-width="2" fill="none"/><path d="M339.08-303.6l-14.26 4.63v-9.27z" stroke="#5e5e5e" stroke-width="2" fill="#5e5e5e"/><path d="M904-574a6 6 0 0 1 6-6h228a6 6 0 0 1 6 6v48a6 6 0 0 1-6 6H910a6 6 0 0 1-6-6z" fill="none"/><use xlink:href="#s" transform="matrix(1,0,0,1,904,-580) translate(48.9012345679013 23.111111111111097)"/><use xlink:href="#t" transform="matrix(1,0,0,1,904,-580) translate(29.44135802469144 57.77777777777774)"/><path d="M904-114a6 6 0 0 1 6-6h228a6 6 0 0 1 6 6v48a6 6 0 0 1-6 6H910a6 6 0 0 1-6-6z" fill="none"/><use xlink:href="#u" transform="matrix(1,0,0,1,904,-120) translate(82.40432098765434 23.111111111111097)"/><use xlink:href="#t" transform="matrix(1,0,0,1,904,-120) translate(29.44135802469144 57.77777777777774)"/><path d="M1280-392.2a6 6 0 0 1 6-6h228a6 6 0 0 1 6 6v48a6 6 0 0 1-6 6h-228a6 6 0 0 1-6-6z" fill="none"/><use xlink:href="#v" transform="matrix(1,0,0,1,1280,-398.21071925284673) translate(29.120370370370424 23.111111111111097)"/><use xlink:href="#w" transform="matrix(1,0,0,1,1280,-398.21071925284673) translate(92.35493827160495 23.111111111111097)"/><use xlink:href="#x" transform="matrix(1,0,0,1,1280,-398.21071925284673) translate(71.93209876543213 57.77777777777774)"/><path d="M-420-914a6 6 0 0 1 6-6h228a6 6 0 0 1 6 6v48a6 6 0 0 1-6 6h-228a6 6 0 0 1-6-6z" fill="none"/><use xlink:href="#y" transform="matrix(1,0,0,1,-420,-920) translate(27.481481481481552 21.333333333333314)"/><use xlink:href="#z" transform="matrix(1,0,0,1,-420,-920) translate(138.51851851851853 21.333333333333314)"/><use xlink:href="#A" transform="matrix(1,0,0,1,-420,-920) translate(94.88888888888891 53.333333333333286)"/><path d="M-900-534a6 6 0 0 1 6-6h228a6 6 0 0 1 6 6v48a6 6 0 0 1-6 6h-228a6 6 0 0 1-6-6z" fill="none"/><use xlink:href="#B" transform="matrix(1,0,0,1,-900,-540) translate(4.351851851851961 26.666666666666643)"/><use xlink:href="#C" transform="matrix(1,0,0,1,-900,-540) translate(143.14814814814812 26.666666666666643)"/><use xlink:href="#D" transform="matrix(1,0,0,1,-900,-540) translate(60.74074074074079 66.6666666666666)"/><path d="M-1199.1-308.2h250.6" stroke="#5e5e5e" stroke-width="2" fill="none"/><path d="M-1199.07-307.2h-1.1l.1-1.57-.08-.44h1.08z" stroke="#5e5e5e" stroke-width=".05" fill="#5e5e5e"/><path d="M-933.24-308.2l-14.26 4.63v-9.28z" stroke="#5e5e5e" stroke-width="2" fill="#5e5e5e"/><path d="M-1859-307.16h320.65" stroke="#5e5e5e" stroke-width="2" fill="none"/><path d="M-1858.97-306.16h-1.03v-2h1.03z" stroke="#5e5e5e" stroke-width=".05" fill="#5e5e5e"/><path d="M-1523.08-307.16l-14.27 4.64v-9.27z" stroke="#5e5e5e" stroke-width="2" fill="#5e5e5e"/><path d="M-1480-531.42a6 6 0 0 1 6-6h228a6 6 0 0 1 6 6v48a6 6 0 0 1-6 6h-228a6 6 0 0 1-6-6z" fill="none"/><use xlink:href="#E" transform="matrix(1,0,0,1,-1480,-537.4245695316229) translate(60.833333333333385 26.666666666666643)"/><use xlink:href="#F" transform="matrix(1,0,0,1,-1480,-537.4245695316229) translate(10.046296296296404 66.6666666666666)"/><path d="M-300.34-856.83c-1.14.1-2.05.34-2.96.8l-39.44 19.43c-2.16 1.02-3.64 2.84-4.1 5.23l-9.77 43.76c-.47 2.04-.13 4.1 1 5.9.13.23.24.34.47.57l27.28 35c1.48 1.94 3.52 2.97 5.9 2.97h43.9c2.38 0 4.42-1.03 5.9-2.96l27.28-35c1.48-1.94 2.05-4.2 1.48-6.6l-9.77-43.65c-.45-2.4-1.93-4.2-4.1-5.23l-39.43-19.44c-1.25-.57-2.4-.9-3.64-.8z" stroke="#000" stroke-opacity="0" stroke-width="3.83" fill="#326ce5"/><path d="M-300.36-860c-1.2.12-2.16.36-3.12.84l-41.64 20.52c-2.28 1.08-3.84 3-4.32 5.52l-10.32 46.2c-.48 2.16-.12 4.32 1.08 6.24.12.24.24.36.48.6l28.8 36.96c1.56 2.04 3.72 3.12 6.24 3.12h46.32c2.52 0 4.68-1.08 6.24-3.12l28.8-36.96c1.56-2.04 2.16-4.44 1.56-6.84l-10.32-46.2c-.48-2.52-2.04-4.44-4.32-5.52l-41.64-20.52c-1.32-.6-2.52-.96-3.84-.84zm0 3.24c1.32-.12 2.4.12 3.6.72l39.6 19.44c2.04 1.08 3.48 2.88 4.08 5.28l9.72 43.68c.48 2.4 0 4.56-1.44 6.48l-27.36 35.04c-1.44 1.92-3.48 3-5.88 3h-43.92c-2.4 0-4.44-1.08-5.88-3l-27.36-35.04c-.12-.12-.24-.36-.36-.6-1.2-1.8-1.56-3.72-1.08-5.88l9.72-43.68c.6-2.4 1.92-4.2 4.08-5.28l39.6-19.44c.96-.48 1.8-.72 2.88-.84z" stroke="#000" stroke-opacity="0" stroke-width="3.83" fill="#fff"/><path d="M-305.98-757.93c0 3.56-1.2 5.35-3.64 5.35-1.53 0-2.56-.6-3.08-1.8h-.05c.03.07.04.6.04 1.63v4h-1.66v-12.17c0-1.05-.02-1.74-.06-2.1h1.6l.02.3.05.7.02.66h.04c.3-.62.7-1.1 1.17-1.37.48-.3 1.1-.45 1.9-.45 1.23 0 2.14.42 2.74 1.27.62.82.92 2.15.92 3.97zm-1.73.03c0-1.42-.2-2.44-.56-3.05-.38-.62-.97-.92-1.8-.92-.64 0-1.15.15-1.52.44-.37.27-.65.72-.85 1.32-.2.58-.28 1.38-.28 2.33 0 1.35.2 2.33.6 2.97.43.63 1.1.95 2.04.95.82 0 1.4-.3 1.78-.92.38-.62.57-1.66.57-3.13zM-295.52-757.9c0 1.8-.4 3.13-1.15 4-.76.88-1.88 1.32-3.33 1.32-1.44 0-2.54-.46-3.28-1.36-.74-.92-1.1-2.24-1.1-3.96 0-3.53 1.47-5.3 4.44-5.3 1.52 0 2.63.45 3.34 1.3.72.87 1.08 2.2 1.08 4zm-1.73 0c0-1.4-.22-2.43-.62-3.07-.4-.64-1.08-.95-2.04-.95-.98 0-1.68.3-2.1.97-.44.65-.66 1.67-.66 3.05 0 1.35.2 2.37.64 3.05.42.68 1.1 1 2 1 1 0 1.7-.3 2.12-.97.43-.66.65-1.7.65-3.08zM-287.2-754.42c-.3.65-.7 1.12-1.22 1.4-.5.3-1.13.43-1.87.43-1.24 0-2.17-.43-2.76-1.3-.58-.86-.88-2.18-.88-3.94 0-3.57 1.2-5.35 3.65-5.35.76 0 1.38.16 1.9.44.5.28.9.74 1.2 1.35v-5.4h1.64v11.9c0 1.08.03 1.8.06 2.13h-1.58l-.06-.7c0-.37-.03-.68-.03-.95zm-5-3.48c0 1.43.18 2.46.54 3.07.37.63.96.94 1.8.94.93 0 1.6-.33 2.02-1 .43-.67.64-1.7.64-3.1 0-1.36-.2-2.36-.64-2.98-.42-.63-1.1-.96-2-.96-.84 0-1.44.33-1.82.97-.36.63-.55 1.65-.55 3.07z" stroke="#000" stroke-opacity="0" fill="#fff"/><path d="M-324.08-819.8L-300-827l24.08 7.2-24.08 7.2zM-324.08-817.05v26.4l22.44 12.83.1-32.32zM-275.92-817.05v26.4l-22.44 12.83-.1-32.32z" stroke="#000" stroke-opacity="0" stroke-width="3.77" fill="#fff"/><path d="M-822.92-437.95l-37.96 7.96v58.7l37.96 9.2 38.12-17.3v-43.84l-38.12-14.7z" stroke="#000" stroke-opacity="0" fill="url(#G)"/><path d="M-821.6-363.1l34.75-15.88c.82-.44 1.35-1.2 1.57-2.15v-39.68c-.08-1.27-.75-2.23-1.72-2.75l-35.12-13.5h-1.57l-34.44 7.2c-1.2.37-1.95 1.4-2.02 2.74v53.02c0 1.4.82 2.6 2.02 2.9l34.82 8.22c.6.15 1.12.07 1.72-.15z" stroke="#000" stroke-opacity="0" fill-opacity="0"/><path d="M-860.88-429.96v58.78l38.4 9.2v-75.37zm16.2 54.26l-10.75-2.4v-45.23l10.75-1.96zm16.75 3.46l-12.37-2.26v-51.7l12.37-2.4z" stroke="#000" stroke-opacity="0" fill="#341a6e"/><path d="M-740.88-437.2l-37.92 7.96v58.7l37.92 9.18 37.92-17.44v-43.69l-37.92-14.7z" stroke="#000" stroke-opacity="0" fill="url(#H)"/><path d="M-778.8-429.2v58.77l38.16 9.2v-75.37zm16.1 54.25l-10.8-2.4v-45.23l10.8-1.96zm16.76 3.47l-12.37-2.26v-51.7l12.36-2.56z" stroke="#000" stroke-opacity="0" fill="#341a6e"/><path d="M-861.8-356.85l-37.96 7.96v58.7l37.96 9.2 38.12-17.3v-43.84l-38.12-14.7z" stroke="#000" stroke-opacity="0" fill="url(#I)"/><path d="M-899.9-349v58.31l38.4 9.2v-75.35zm16.1 54.4l-10.8-2.57v-45.2l10.8-2.12zm16.85 3.92l-12.36-2.26v-52.3l12.35-2.42z" stroke="#000" stroke-opacity="0" fill="#341a6e"/><path d="M-780-357.57l-37.92 8v58.72l37.92 9.36 37.92-17.5v-43.8L-780-357.58z" stroke="#000" stroke-opacity="0" fill="url(#J)"/><path d="M-817.92-349.62v58.94l38.16 9.2v-75.37zm16.03 54.4l-10.72-2.55v-45.2l10.73-2.13zm16.72 3.33l-12.32-2.25v-51.7l12.32-2.4z" stroke="#000" stroke-opacity="0" fill="#341a6e"/><path d="M-698.12-356.85l-37.96 7.96v58.7l37.96 9.2 38.12-17.3v-43.84l-38.12-14.7z" stroke="#000" stroke-opacity="0" fill="url(#K)"/><path d="M-736.08-348.86v58.18l38.4 9.2v-75.37zm16.2 54.4l-10.75-2.56v-45.2l10.75-2.12zm16.75 3.32l-12.37-2.26v-51.7l12.37-2.4z" stroke="#000" stroke-opacity="0" fill="#341a6e"/><path d="M-823.88-275l-37.96 7.8v58.7l37.96 9.33 38.12-17.44v-43.7l-38.12-14.7z" stroke="#000" stroke-opacity="0" fill="url(#L)"/><path d="M-822.28-200.28l34.63-15.05c1.05-.45 1.65-1.5 1.65-2.75v-39.15c.15-1.5-.53-2.82-1.73-3.34l-35.08-13.57c-.6-.23-1.14-.23-1.66 0l-34.56 7.12c-1.2.22-2.1 1.4-2.1 2.8v53.34c0 1.4.83 2.6 2.03 2.9l34.94 7.7c.6.22 1.2.22 1.88 0z" stroke="#000" stroke-opacity="0" fill-opacity="0"/><path d="M-861.84-267.3v58.8l38.4 9.33v-76.56zm16.2 54.43l-10.75-2.6v-45.18l10.76-2.14zm16.75 3.44l-12.36-2.22v-51.9l12.37-2.38z" stroke="#000" stroke-opacity="0" fill="#341a6e"/><path d="M-741.8-274.53l-37.96 7.96v58.7l37.96 9.18 38.12-17.28v-43.84l-38.12-14.7z" stroke="#000" stroke-opacity="0" fill="url(#M)"/><path d="M-779.76-266.43v58.78l38.4 9.2v-75.36zm16.2 54.4l-10.75-2.55v-45.2l10.75-2.12zm16.75 3.33l-12.38-2.26v-51.7l12.37-2.4z" stroke="#000" stroke-opacity="0" fill="#341a6e"/><path d="M-861.04-430.3v73.69l-38.96 7.67.24 58.8L-862-281v72.7l38 9.37 82.48.72 37.77-17.3v-43.9l5.74-21.37 37.04-16.8v-44.88l-36.57-14.16-5.26-22.33v-43.68l-37.76-14.17-82.47-1.44z" stroke="#000" stroke-opacity="0" fill-opacity="0"/><path d="M-660-318.2" stroke="#5e5e5e" stroke-width="2" fill="none"/><path stroke="#5e5e5e" stroke-width=".05" fill="#5e5e5e"/><path d="M-661.96-318.2l-12.92 7.63v-15.28z" stroke="#5e5e5e" stroke-width="2" fill="#5e5e5e"/><path d="M-659-318.2h146.96a.04.04 0 0 0 .04-.05.04.04 0 0 1 .04-.05H-373" stroke="#5e5e5e" stroke-width="2" fill="none"/><path d="M-658.97-317.2H-660v-2h1.03z" stroke="#5e5e5e" stroke-width=".05" fill="#5e5e5e"/><path d="M-365.96-318.3l-12.92 7.64v-15.27z" stroke="#5e5e5e" stroke-width="2" fill="#5e5e5e"/><path d="M-189.32-236.28c-.26 3.4-3.53 5.94-7.58 5.77h-115.52c-4.05.16-7.32-2.38-7.58-5.78v-157.96c.26-3.4 3.53-5.93 7.45-5.76h115.65c3.92-.17 7.32 2.37 7.58 5.76z" stroke="#000" stroke-opacity="0" fill="url(#N)"/><path d="M-300.84-327.66c-.38-6.95 5.98-12.86 14.22-13.2h65.1c8.25.34 14.6 6.25 14.23 13.2.4 6.95-5.97 12.87-14.2 13.2h-65.12c-8.24-.33-14.6-6.25-14.22-13.2zM-300.84-366.63c-.38-6.98 5.98-12.9 14.22-13.24h65.1c8.25.34 14.6 6.26 14.23 13.24.4 6.94-5.97 12.84-14.2 13.18h-65.12c-8.24-.34-14.6-6.24-14.22-13.18z" stroke="#000" stroke-opacity="0" fill="#003067"/><path d="M-272.06-366.72c0 4.87-4.7 8.83-10.5 8.83s-10.5-3.95-10.5-8.82c0-4.88 4.7-8.84 10.5-8.84s10.5 3.96 10.5 8.84zM-272.06-327.54c0 4.88-4.7 8.83-10.5 8.83s-10.5-3.97-10.5-8.84c0-4.88 4.7-8.83 10.5-8.83s10.5 3.95 10.5 8.83z" stroke="#000" stroke-opacity="0" fill="#50e6ff"/><path d="M-140.35-294.48l-39.84-16.73-41.3 16.72-15.13 24.83v46.38c0 1.64 1.58 3 3.62 3h105.63c2.03 0 3.6-1.36 3.6-3v-46.38z" stroke="#000" stroke-opacity="0" fill="url(#O)"/><path d="M-245.47-256.2c-3.15 0-5.58-2.06-5.58-4.6 0-.7.14-1.35.43-2l17.75-32.6c.58-.95 1.3-1.6 2.44-2.1l48.4-21.94c1.72-.77 3.58-.77 5.3 0l46.68 21.94c1 .45 1.72 1.1 2.15 1.98l19.48 32.6c1.28 2.24.28 5.05-2.44 6.2-2.72 1.14-6 .25-7.45-2.05l-18.62-31.32-42.53-19.96-44.1 19.97-17.05 31.14c-.86 1.72-2.72 2.75-4.87 2.75z" stroke="#000" stroke-opacity="0" fill="#50e6ff"/><path d="M-188.5-284.6h15.34c2.38 0 3.57 1 3.57 3v13.75c0 2-1.18 3-3.56 3h-15.34c-2.38 0-3.57-1-3.57-3v-13.76c0-2 1.2-3 3.57-3zM-180.72-236.82l21.74-12.22c-.6-.36-1.26-.52-2-.52h-39.5c-.73 0-1.38.16-2 .52zM-157.7-223.68v-22.47l-19.95 11.23 19.96 11.24zM-184.2-234.92l-19.97-11.23v22.47l19.97-11.24zM-157.7-220.22h.16v-.23l-.17.23zM-204.17-220.45v.23h.18l-.17-.23zM-203.53-220.28h45.2l-22.6-12.75-22.6 12.75z" stroke="#000" stroke-opacity="0" fill="#005ba1"/><path d="M1086.46-8.9l-26.36-45.3c-2.05-3.64-5.64-5.7-9.86-5.8h-52.48c-4.22.1-7.8 2.16-9.86 5.8L961.54-9.02c-2.05 3.52-2.05 7.62 0 11.26l26.36 45.52c2.05 3.75 5.5 5.92 9.86 6.03h52.48c4.22-.12 7.8-2.3 9.86-6.04l26.36-45.17v-.02c2.05-3.75 2.05-7.85 0-11.5z" stroke="#000" stroke-opacity="0" fill="#4285f4"/><path d="M1081.7 10.6l-32.15-31.8-8.6 2.56 2.25 2.24-1.87 1.13 10.84 10.8-5.8 1.42-12.43-12.3-15.98-2.85-10.57 7.2-.94 16.34-11.6-11.77-6.16.68-.47 5.92 54.13 53.6h7.94c4.3-.16 7.85-2.33 9.9-6z" stroke="#000" stroke-opacity="0" fill-opacity=".07"/><path d="M1021.37-20.45c-9.88 0-17.9 7.93-17.9 17.7 0 9.78 8.02 17.7 17.9 17.7 9.87 0 17.88-7.92 17.88-17.7 0-9.77-8-17.7-17.88-17.7zm0 31.52c-7.73 0-14-6.2-14-13.85 0-7.65 6.27-13.85 14-13.85 7.72 0 13.98 6.2 13.98 13.85 0 7.65-6.26 13.85-13.98 13.85z" stroke="#000" stroke-opacity="0" fill="#fff"/><path d="M1028.1-.65c-.3-.3-.6-.52-1-.75-2.85-1.72-5.98-2.06-9.14-1-1.2.36-2.16.86-3.13 1.63-.8.56-1.23 1.34-1.3 2.3v3.5h15.7V2.2c.1-1.1-.28-2.1-1.13-2.85zM1021.35-4.75h.03c2.24-.03 4.03-1.86 4-4.07-.03-2.22-1.87-4-4.1-3.96-2.25.03-4.04 1.85-4 4.07.02 2.2 1.84 3.96 4.07 3.95zM1052.67-7.55h-3.65l2.72 2.68h-7.77v3.12h7.77l-2.72 2.7h3.65l4.3-4.26-4.3-4.25zM1041.33-15.26l2.24 2.22 3.42-3.4v3.8l2.57-2.55v-6h-6.07l-2.58 2.56h3.83l-3.42 3.38zM1047 10.2l-3.43-3.4-2.24 2.22 3.42 3.38h-3.83l2.58 2.55h6.07v-6L1047 6.4v3.8zM991.56-7.82c-2.62 0-4.75 2.1-4.75 4.7s2.14 4.7 4.76 4.7c2.62 0 4.75-2.1 4.75-4.7s-2.12-4.7-4.74-4.7zm0 7.3c-1.45 0-2.64-1.17-2.64-2.6 0-1.46 1.2-2.62 2.64-2.62 1.45 0 2.64 1.16 2.64 2.6v.02c0 1.44-1.2 2.6-2.64 2.6z" stroke="#000" stroke-opacity="0" fill="#fff"/><path d="M1086.46-642.7L1060.1-688c-2.05-3.63-5.64-5.68-9.86-5.8h-52.48c-4.22.12-7.8 2.17-9.86 5.8l-26.36 45.2c-2.05 3.5-2.05 7.6 0 11.25l26.36 45.52c2.05 3.75 5.5 5.92 9.86 6.03h52.48c4.22-.1 7.8-2.28 9.86-6.03l26.36-45.18c2.05-3.76 2.05-7.86 0-11.5z" stroke="#000" stroke-opacity="0" fill="#4285f4"/><path d="M1081.7-623.2l-32.15-31.78-8.6 2.55 2.25 2.24-1.87 1.14 10.84 10.8-5.8 1.42-12.43-12.3-15.98-2.85-10.57 7.2-.94 16.35-11.6-11.77-6.16.68-.47 5.92 54.13 53.6h7.94c4.3-.16 7.85-2.33 9.9-6z" stroke="#000" stroke-opacity="0" fill-opacity=".07"/><path d="M1021.37-654.24c-9.88 0-17.9 7.93-17.9 17.7 0 9.78 8.02 17.7 17.9 17.7 9.87 0 17.88-7.92 17.88-17.7 0-9.77-8-17.7-17.88-17.7zm0 31.52c-7.73 0-14-6.2-14-13.85 0-7.65 6.27-13.85 14-13.85 7.72 0 13.98 6.2 13.98 13.85 0 7.65-6.26 13.85-13.98 13.85z" stroke="#000" stroke-opacity="0" fill="#fff"/><path d="M1028.1-634.44c-.3-.3-.6-.52-1-.75-2.85-1.7-5.98-2.05-9.14-.98-1.2.35-2.16.85-3.13 1.62-.8.56-1.23 1.34-1.3 2.3v3.5h15.7v-2.83c.1-1.1-.28-2.1-1.13-2.84zM1021.35-638.54h.03c2.24-.03 4.03-1.86 4-4.07-.03-2.23-1.87-4-4.1-3.97-2.25.03-4.04 1.85-4 4.07.02 2.2 1.84 3.97 4.07 3.96zM1052.67-641.34h-3.65l2.72 2.68h-7.77v3.12h7.77l-2.72 2.7h3.65l4.3-4.26-4.3-4.24zM1041.33-649.04l2.24 2.2 3.42-3.38v3.8l2.57-2.56v-6h-6.07l-2.58 2.55h3.83l-3.42 3.38zM1047-623.6l-3.43-3.4-2.24 2.23 3.42 3.38h-3.83l2.58 2.56h6.07v-6l-2.58-2.55v3.8zM991.56-641.6c-2.62 0-4.75 2.1-4.75 4.7 0 2.58 2.14 4.7 4.76 4.7 2.62 0 4.75-2.12 4.75-4.7 0-2.6-2.12-4.7-4.74-4.7zm0 7.3c-1.45 0-2.64-1.18-2.64-2.62 0-1.45 1.2-2.6 2.64-2.6 1.45 0 2.64 1.15 2.64 2.6 0 1.45-1.2 2.62-2.64 2.62z" stroke="#000" stroke-opacity="0" fill="#fff"/><path d="M1677.08-474.56l-37.96 7.96v58.7l37.96 9.18 38.12-17.3v-43.83l-38.12-14.7z" stroke="#000" stroke-opacity="0" fill="url(#P)"/><path d="M1678.4-399.72l34.75-15.87c.82-.43 1.34-1.18 1.57-2.14v-39.68c-.08-1.26-.75-2.22-1.72-2.74l-35.12-13.5h-1.57l-34.44 7.2c-1.2.37-1.94 1.4-2.02 2.74v53.03c0 1.4.82 2.6 2.02 2.9l34.82 8.23c.6.15 1.12.07 1.72-.15z" stroke="#000" stroke-opacity="0" fill-opacity="0"/><path d="M1639.12-466.57v58.78l38.4 9.2v-75.36zm16.2 54.26l-10.75-2.42v-45.22l10.76-1.96zm16.75 3.45l-12.37-2.26v-51.7l12.37-2.4z" stroke="#000" stroke-opacity="0" fill="#341a6e"/><path d="M1759.12-473.8l-37.92 7.95v58.7l37.92 9.18 37.92-17.44v-43.7l-37.92-14.7z" stroke="#000" stroke-opacity="0" fill="url(#Q)"/><path d="M1721.2-465.82v58.78l38.16 9.2v-75.37zm16.1 54.26l-10.8-2.4v-45.23l10.8-1.95zm16.76 3.47l-12.37-2.25v-51.7l12.36-2.56z" stroke="#000" stroke-opacity="0" fill="#341a6e"/><path d="M1638.2-393.46l-37.96 7.96v58.7l37.96 9.18 38.12-17.3v-43.83l-38.12-14.7z" stroke="#000" stroke-opacity="0" fill="url(#R)"/><path d="M1600.1-385.62v58.33l38.4 9.2v-75.36zm16.1 54.4l-10.8-2.55V-379l10.8-2.1zm16.85 3.93l-12.36-2.25v-52.3l12.35-2.42z" stroke="#000" stroke-opacity="0" fill="#341a6e"/><path d="M1720-394.18l-37.92 8v58.72l37.92 9.36 37.92-17.5v-43.82L1720-394.18z" stroke="#000" stroke-opacity="0" fill="url(#S)"/><path d="M1682.08-386.23v58.94l38.16 9.2v-75.36zm16.03 54.4l-10.72-2.55v-45.2l10.73-2.12zm16.72 3.33l-12.32-2.26v-51.7l12.32-2.4z" stroke="#000" stroke-opacity="0" fill="#341a6e"/><path d="M1801.88-393.46l-37.96 7.96v58.7l37.96 9.18 38.12-17.3v-43.83l-38.12-14.7z" stroke="#000" stroke-opacity="0" fill="url(#T)"/><path d="M1763.92-385.47v58.18l38.4 9.2v-75.36zm16.2 54.4l-10.75-2.56v-45.2l10.76-2.12zm16.75 3.32L1784.5-330v-51.7l12.37-2.42z" stroke="#000" stroke-opacity="0" fill="#341a6e"/><path d="M1676.12-311.62l-37.96 7.8v58.7l37.96 9.34 38.12-17.44v-43.7l-38.12-14.7z" stroke="#000" stroke-opacity="0" fill="url(#U)"/><path d="M1677.72-236.9l34.63-15.04c1.05-.45 1.65-1.5 1.65-2.75v-39.14c.15-1.5-.53-2.82-1.73-3.34l-35.08-13.57c-.6-.23-1.14-.23-1.66 0l-34.56 7.12c-1.2.22-2.1 1.4-2.1 2.8v53.34c0 1.4.83 2.6 2.03 2.9l34.94 7.7c.6.23 1.2.23 1.88 0z" stroke="#000" stroke-opacity="0" fill-opacity="0"/><path d="M1638.16-303.92v58.8l38.4 9.34v-76.56zm16.2 54.44l-10.75-2.6v-45.18l10.77-2.14zm16.75 3.44l-12.36-2.22v-51.9l12.37-2.38z" stroke="#000" stroke-opacity="0" fill="#341a6e"/><path d="M1758.2-311.14l-37.96 7.96v58.7l37.96 9.18 38.12-17.3v-43.83l-38.12-14.7z" stroke="#000" stroke-opacity="0" fill="url(#V)"/><path d="M1720.24-303.04v58.8l38.4 9.18v-75.36zm16.2 54.42l-10.75-2.57v-45.2l10.74-2.1zm16.75 3.3l-12.38-2.25v-51.7l12.37-2.4z" stroke="#000" stroke-opacity="0" fill="#341a6e"/><path d="M1638.96-466.9v73.68l-38.96 7.68.24 58.8 37.77 9.12v72.72l38.02 9.36 82.46.72 37.77-17.28v-43.92l5.74-21.36 37.04-16.8v-44.88l-36.57-14.16-5.26-22.32v-43.68l-37.76-14.16-82.47-1.44z" stroke="#000" stroke-opacity="0" fill-opacity="0"/><path d="M1088.96-3.1H1714a6 6 0 0 0 6-6v-217.06" stroke="#5e5e5e" stroke-width="2" fill="none"/><path d="M1088.98-2.1h-1.13l.15-1.38-.1-.63h1.08z" stroke="#5e5e5e" stroke-width=".05" fill="#5e5e5e"/><path d="M1720-233.2l7.64 12.92h-15.28z" stroke="#5e5e5e" stroke-width="2" fill="#5e5e5e"/><path d="M1088.96-636.9H1714a6 6 0 0 1 6 6v147.84" stroke="#5e5e5e" stroke-width="2" fill="none"/><path d="M1088.98-635.9h-1.13l.15-1.37-.1-.63h1.08z" stroke="#5e5e5e" stroke-width=".05" fill="#5e5e5e"/><path d="M1720-476.03l-7.64-12.92h15.28z" stroke="#5e5e5e" stroke-width="2" fill="#5e5e5e"/><path d="M2379.66-496.83c-1.14.1-2.05.34-2.96.8l-39.44 19.43c-2.16 1.02-3.64 2.84-4.1 5.23l-9.77 43.76c-.47 2.04-.13 4.1 1 5.9.13.23.24.34.47.57l27.28 35c1.48 1.94 3.52 2.97 5.9 2.97h43.9c2.38 0 4.42-1.03 5.9-2.96l27.28-35c1.48-1.94 2.05-4.2 1.48-6.6l-9.77-43.65c-.45-2.4-1.93-4.2-4.1-5.23l-39.43-19.44c-1.26-.56-2.4-.9-3.64-.8z" stroke="#000" stroke-opacity="0" stroke-width="3.83" fill="#326ce5"/><path d="M2379.64-500c-1.2.12-2.16.36-3.12.84l-41.64 20.52c-2.28 1.08-3.84 3-4.32 5.52l-10.32 46.2c-.48 2.16-.12 4.32 1.08 6.24.12.24.24.36.48.6l28.8 36.96c1.56 2.04 3.72 3.12 6.24 3.12h46.32c2.52 0 4.68-1.08 6.24-3.12l28.8-36.96c1.56-2.04 2.16-4.44 1.56-6.84l-10.32-46.2c-.48-2.52-2.04-4.44-4.32-5.52l-41.64-20.52c-1.32-.6-2.52-.96-3.84-.84zm0 3.24c1.32-.12 2.4.12 3.6.72l39.6 19.44c2.04 1.08 3.48 2.88 4.08 5.28l9.72 43.68c.48 2.4 0 4.56-1.44 6.48l-27.36 35.04c-1.44 1.92-3.48 3-5.88 3h-43.92c-2.4 0-4.44-1.08-5.88-3l-27.36-35.04c-.12-.12-.24-.36-.36-.6-1.2-1.8-1.56-3.72-1.08-5.88l9.72-43.68c.6-2.4 1.92-4.2 4.08-5.28l39.6-19.44c.96-.48 1.8-.72 2.88-.84z" stroke="#000" stroke-opacity="0" stroke-width="3.83" fill="#fff"/><path d="M2374.02-397.93c0 3.56-1.2 5.35-3.64 5.35-1.53 0-2.56-.6-3.08-1.8h-.05c.03.07.04.6.04 1.63v4h-1.66v-12.17c0-1.05-.02-1.74-.06-2.1h1.6c0 .04.02.14.02.3l.05.7.02.66h.03c.3-.62.7-1.08 1.17-1.37.48-.3 1.1-.45 1.9-.45 1.23 0 2.14.42 2.74 1.27.62.82.92 2.15.92 3.97zm-1.73.03c0-1.42-.2-2.44-.56-3.05-.38-.62-.97-.92-1.78-.92-.66 0-1.17.15-1.54.44-.37.27-.65.72-.85 1.32-.2.58-.28 1.38-.28 2.33 0 1.35.2 2.33.6 2.97.43.63 1.1.95 2.04.95.82 0 1.4-.3 1.78-.92.38-.62.57-1.66.57-3.13zM2384.48-397.9c0 1.8-.4 3.13-1.15 4-.76.88-1.88 1.32-3.33 1.32-1.45 0-2.54-.46-3.28-1.36-.74-.92-1.1-2.24-1.1-3.96 0-3.53 1.47-5.3 4.44-5.3 1.52 0 2.63.45 3.34 1.3.72.87 1.08 2.2 1.08 4zm-1.73 0c0-1.4-.22-2.43-.62-3.07-.4-.64-1.1-.95-2.04-.95-.98 0-1.68.3-2.1.97-.44.65-.66 1.67-.66 3.05 0 1.35.2 2.37.64 3.05.42.68 1.1 1 2 1 1 0 1.7-.3 2.12-.97.43-.66.65-1.7.65-3.08zM2392.8-394.42c-.3.66-.7 1.12-1.22 1.4-.5.3-1.13.44-1.87.44-1.24 0-2.17-.45-2.76-1.3-.6-.88-.88-2.2-.88-3.96 0-3.57 1.22-5.35 3.65-5.35.76 0 1.38.16 1.9.44.5.28.9.74 1.2 1.35v-5.4h1.64v11.9c0 1.08.03 1.8.06 2.13h-1.58l-.06-.7c0-.37-.03-.68-.03-.95zm-5-3.48c0 1.44.18 2.46.54 3.07.37.63.96.94 1.8.94.93 0 1.6-.33 2.02-1 .43-.67.64-1.7.64-3.1 0-1.36-.2-2.36-.64-2.98-.42-.63-1.1-.96-2-.96-.84 0-1.44.33-1.82.97-.36.63-.55 1.65-.55 3.07z" stroke="#000" stroke-opacity="0" fill="#fff"/><path d="M2355.92-459.8L2380-467l24.1 7.2-24.1 7.2zM2355.92-457.05v26.4l22.43 12.83.12-32.32zM2404.08-457.05v26.4l-22.44 12.83-.1-32.32z" stroke="#000" stroke-opacity="0" stroke-width="3.77" fill="#fff"/><path d="M2237.4-335.04c-1.12.1-2.03.34-2.94.8L2195-314.82c-2.15 1-3.63 2.83-4.08 5.22l-9.78 43.76c-.45 2.05-.1 4.1 1.03 5.9.1.24.22.35.45.58l27.28 35c1.48 1.94 3.53 2.97 5.92 2.97h43.88c2.38 0 4.43-1.03 5.9-2.96l27.3-35c1.47-1.94 2.03-4.22 1.47-6.6l-9.78-43.65c-.46-2.4-1.94-4.2-4.1-5.23l-39.45-19.45c-1.25-.57-2.4-.9-3.64-.8z" stroke="#000" stroke-opacity="0" stroke-width="3.83" fill="#326ce5"/><path d="M2237.4-338.2c-1.2.1-2.16.35-3.12.83l-41.64 20.52c-2.28 1.08-3.84 3-4.32 5.52l-10.32 46.2c-.48 2.16-.12 4.32 1.08 6.24.12.25.24.37.48.6l28.8 36.97c1.56 2.04 3.72 3.12 6.24 3.12h46.32c2.52 0 4.68-1.1 6.24-3.13l28.8-36.96c1.56-2.03 2.16-4.43 1.56-6.83l-10.32-46.2c-.48-2.52-2.04-4.44-4.32-5.52l-41.64-20.52c-1.32-.6-2.52-.96-3.84-.84zm0 3.23c1.32-.12 2.4.12 3.6.72l39.6 19.44c2.04 1.07 3.48 2.87 4.08 5.27l9.72 43.68c.48 2.4 0 4.56-1.44 6.48l-27.36 35.04c-1.44 1.92-3.48 3-5.88 3h-43.92c-2.4 0-4.44-1.08-5.88-3l-27.36-35.04c-.12-.12-.24-.36-.36-.6-1.2-1.8-1.56-3.72-1.08-5.88l9.72-43.68c.6-2.4 1.92-4.2 4.08-5.28l39.6-19.45c.96-.48 1.8-.72 2.88-.84z" stroke="#000" stroke-opacity="0" stroke-width="3.83" fill="#fff"/><path d="M2231.78-236.14c0 3.56-1.22 5.35-3.65 5.35-1.52 0-2.55-.58-3.08-1.78h-.04c.03.06.04.6.04 1.6v4h-1.64v-12.15c0-1.05-.03-1.74-.06-2.1h1.6l.02.3c.02.15.03.38.04.7l.03.66h.03c.3-.62.68-1.1 1.17-1.37.48-.3 1.1-.45 1.9-.45 1.23 0 2.14.43 2.74 1.28.6.83.9 2.16.9 3.98zm-1.73.03c0-1.43-.2-2.45-.56-3.06-.4-.62-.98-.92-1.8-.92-.65 0-1.15.15-1.52.43-.38.28-.65.72-.85 1.33-.2.6-.3 1.38-.3 2.34 0 1.35.22 2.33.64 2.97.4.62 1.1.94 2.03.94.8 0 1.4-.3 1.78-.92.38-.62.57-1.66.57-3.13zM2242.23-236.1c0 1.78-.38 3.12-1.14 4-.77.87-1.9 1.3-3.34 1.3-1.45 0-2.54-.45-3.28-1.35-.74-.92-1.1-2.24-1.1-3.96 0-3.54 1.47-5.3 4.44-5.3 1.5 0 2.62.44 3.34 1.3.72.86 1.07 2.2 1.07 4zm-1.73 0c0-1.42-.2-2.44-.62-3.08-.4-.64-1.08-.95-2.04-.95s-1.66.3-2.1.97c-.42.65-.64 1.66-.64 3.05 0 1.34.2 2.36.64 3.04.42.68 1.1 1 2 1 1 0 1.7-.3 2.12-.97.42-.66.64-1.7.64-3.08zM2250.55-232.63c-.3.66-.7 1.12-1.2 1.4-.52.3-1.14.43-1.9.43-1.24 0-2.16-.44-2.76-1.3-.6-.87-.88-2.2-.88-3.95 0-3.57 1.2-5.35 3.64-5.35.75 0 1.38.15 1.9.43.48.28.9.74 1.2 1.35V-245h1.64v11.9c0 1.07.02 1.78.06 2.12h-1.58c-.02-.1-.03-.34-.06-.7l-.03-.95zm-5-3.48c0 1.42.18 2.45.54 3.06.37.62.96.94 1.8.94.92 0 1.6-.34 2.02-1 .42-.68.63-1.72.63-3.12 0-1.35-.2-2.35-.63-2.97-.42-.62-1.1-.95-2.02-.95-.83 0-1.43.33-1.8.97-.37.63-.55 1.65-.55 3.07z" stroke="#000" stroke-opacity="0" fill="#fff"/><path d="M2213.67-298l24.1-7.2 24.07 7.2-24.08 7.2zM2213.67-295.26v26.4l22.44 12.83.12-32.32zM2261.84-295.26v26.4l-22.44 12.83-.1-32.32z" stroke="#000" stroke-opacity="0" stroke-width="3.77" fill="#fff"/><path d="M2477.4-341.53c-1.12.12-2.03.34-2.94.8L2435-321.3c-2.15 1.03-3.63 2.85-4.08 5.23l-9.78 43.77c-.45 2.04-.1 4.1 1.03 5.9.1.23.22.35.45.58l27.28 35c1.48 1.94 3.53 2.96 5.92 2.96h43.88c2.38 0 4.43-1.02 5.9-2.95l27.3-35.02c1.47-1.94 2.03-4.2 1.47-6.6l-9.78-43.65c-.46-2.38-1.94-4.2-4.1-5.23l-39.45-19.43c-1.25-.57-2.4-.9-3.64-.8z" stroke="#000" stroke-opacity="0" stroke-width="3.83" fill="#326ce5"/><path d="M2477.4-344.7c-1.2.12-2.16.36-3.12.84l-41.64 20.52c-2.28 1.08-3.84 3-4.32 5.52l-10.32 46.2c-.48 2.16-.12 4.32 1.08 6.24.12.24.24.36.48.6l28.8 36.96c1.56 2.04 3.72 3.12 6.24 3.12h46.32c2.52 0 4.68-1.08 6.24-3.12l28.8-36.96c1.56-2.04 2.16-4.44 1.56-6.84l-10.32-46.2c-.48-2.52-2.04-4.44-4.32-5.52l-41.64-20.52c-1.32-.6-2.52-.96-3.84-.84zm0 3.24c1.32-.12 2.4.12 3.6.72l39.6 19.44c2.04 1.08 3.48 2.88 4.08 5.28l9.72 43.68c.48 2.4 0 4.56-1.44 6.48l-27.36 35.04c-1.44 1.92-3.48 3-5.88 3h-43.92c-2.4 0-4.44-1.08-5.88-3l-27.36-35.04c-.12-.12-.24-.36-.36-.6-1.2-1.8-1.56-3.72-1.08-5.88l9.72-43.68c.6-2.4 1.92-4.2 4.08-5.28l39.6-19.44c.96-.48 1.8-.72 2.88-.84z" stroke="#000" stroke-opacity="0" stroke-width="3.83" fill="#fff"/><path d="M2471.78-242.63c0 3.56-1.22 5.35-3.65 5.35-1.52 0-2.55-.6-3.08-1.78h-.04c.03.05.04.6.04 1.6v4h-1.64v-12.15c0-1.06-.03-1.76-.06-2.1h1.6l.02.27c.02.16.03.4.04.72l.03.64h.03c.3-.62.68-1.08 1.17-1.37.48-.3 1.1-.45 1.9-.45 1.23 0 2.14.42 2.74 1.27.6.83.9 2.16.9 3.97zm-1.73.03c0-1.4-.2-2.44-.56-3.04-.4-.62-.98-.92-1.8-.92-.65 0-1.15.14-1.52.43-.38.27-.65.72-.85 1.33-.2.6-.3 1.38-.3 2.33 0 1.36.22 2.34.64 2.97.4.64 1.1.95 2.03.95.8 0 1.4-.3 1.78-.92.38-.62.57-1.66.57-3.13zM2482.23-242.6c0 1.8-.38 3.14-1.14 4-.77.9-1.9 1.32-3.34 1.32-1.45 0-2.54-.46-3.28-1.36-.74-.92-1.1-2.23-1.1-3.95 0-3.52 1.47-5.28 4.44-5.28 1.5 0 2.62.43 3.34 1.3.72.85 1.07 2.2 1.07 4zm-1.73 0c0-1.4-.2-2.43-.62-3.07-.4-.63-1.08-.95-2.04-.95s-1.66.32-2.1.97c-.42.65-.64 1.67-.64 3.06 0 1.35.2 2.37.64 3.05.42.68 1.1 1 2 1 1 0 1.7-.3 2.12-.97.42-.65.64-1.68.64-3.07zM2490.55-239.1c-.3.64-.7 1.1-1.2 1.4-.52.28-1.14.42-1.9.42-1.24 0-2.16-.44-2.76-1.3-.6-.88-.88-2.2-.88-3.96 0-3.57 1.2-5.34 3.64-5.34.75 0 1.38.14 1.9.42.48.3.9.74 1.2 1.35v-5.39h1.64v11.92c0 1.06.02 1.77.06 2.12h-1.58c-.02-.1-.03-.35-.06-.72l-.03-.93zm-5-3.5c0 1.44.18 2.46.54 3.07.37.63.96.94 1.8.94.92 0 1.6-.33 2.02-1 .42-.66.63-1.7.63-3.1 0-1.36-.2-2.35-.63-2.98-.42-.63-1.1-.95-2.02-.95-.83 0-1.43.32-1.8.97-.37.62-.55 1.64-.55 3.06z" stroke="#000" stroke-opacity="0" fill="#fff"/><path d="M2453.67-304.5l24.1-7.2 24.07 7.2-24.08 7.2zM2453.67-301.74v26.4l22.44 12.83.12-32.34zM2501.84-301.74v26.4l-22.44 12.83-.1-32.34z" stroke="#000" stroke-opacity="0" stroke-width="3.77" fill="#fff"/><path d="M500-161.52V-9.1a6 6 0 0 0 6 6h445.05" stroke="#341a6e" stroke-width="2" fill="none"/><path d="M500-162.52l1-.07v1.1h-2v-1.1z" stroke="#341a6e" stroke-width=".05" fill="#341a6e"/><path d="M958.08-3.1l-12.9 7.63v-15.27z" stroke="#341a6e" stroke-width="2" fill="#341a6e"/><defs><filter id="a" filterUnits="objectBoundingBox" x="0" y="0" width="1.01" height="1.01"><feOffset result="offOut" in="SourceAlpha" dy="1"/><feGaussianBlur result="blurOut" in="offOut" stdDeviation=".75"/><feColorMatrix result="colorOut" in="blurOut" values="0 0 0 0 0 0 0 0 0 0 0 0 0 0 0 0 0 0 0.4 0"/><feBlend in="SourceGraphic" in2="colorOut"/></filter><linearGradient gradientUnits="userSpaceOnUse" id="b" x1="-1360" y1="-139.47" x2="-1360" y2="-464.05"><stop offset="0%" stop-color="#a9a9ed"/><stop offset="2%" stop-color="#aaaaed"/><stop offset="100%" stop-color="#c1cff6"/></linearGradient><path fill="#333" d="M35-132v-50h50v50H35zM35 0v-49h50V0H35" id="W"/><path fill="#333" d="M138-131c27 9 52 24 51 61 0 53-36 74-89 74S11-19 11-69c0-35 22-54 51-61-78-25-46-121 38-121 51 0 83 19 83 66 0 30-18 49-45 54zm-38-16c24 0 32-13 32-36 1-23-11-34-32-34-22 0-33 12-32 34 0 22 9 36 32 36zm1 116c27 0 37-17 37-43 0-25-13-39-39-39-24 0-37 15-37 40 0 27 11 42 39 42" id="X"/><path fill="#333" d="M101-251c68 0 84 54 84 127C185-50 166 4 99 4S15-52 14-124c-1-75 17-127 87-127zm-1 216c37-5 36-46 36-89s4-89-36-89c-39 0-36 45-36 89 0 43-3 85 36 89" id="Y"/><g id="c"><use transform="matrix(0.06172839506172839,0,0,0.06172839506172839,0,0)" xlink:href="#W"/><use transform="matrix(0.0987654320987654,0,0,0.0987654320987654,7.34567901234568,0)" xlink:href="#X"/><use transform="matrix(0.0987654320987654,0,0,0.0987654320987654,27.098765432098755,0)" xlink:href="#Y"/></g><path fill="#333" d="M4 7l51-268h42L46 7H4" id="Z"/><use transform="matrix(0.0987654320987654,0,0,0.0987654320987654,0,0)" xlink:href="#Z" id="d"/><path fill="#333" d="M165-50V0h-47v-50H5v-38l105-160h55v161h33v37h-33zm-47-37l2-116L46-87h72" id="aa"/><path fill="#333" d="M128-127c34 4 56 21 59 58 7 91-148 94-172 28-4-9-6-17-7-26l51-5c1 24 16 35 40 36 23 0 39-12 38-36-1-31-31-36-65-34v-40c32 2 59-3 59-33 0-20-13-33-34-33s-33 13-35 32l-50-3c6-44 37-68 86-68 50 0 83 20 83 66 0 35-22 52-53 58" id="ab"/><g id="e"><use transform="matrix(0.0987654320987654,0,0,0.0987654320987654,0,0)" xlink:href="#W"/><use transform="matrix(0.0987654320987654,0,0,0.0987654320987654,11.753086419753082,0)" xlink:href="#aa"/><use transform="matrix(0.0987654320987654,0,0,0.0987654320987654,31.506172839506164,0)" xlink:href="#aa"/><use transform="matrix(0.0987654320987654,0,0,0.0987654320987654,51.259259259259245,0)" xlink:href="#ab"/></g><path fill="#333" d="M233-177c-1 41-23 64-60 70L243 0h-38l-65-103H63V0H30v-248c88 3 205-21 203 71zM63-129c60-2 137 13 137-47 0-61-80-42-137-45v92" id="ac"/><path fill="#333" d="M100-194c63 0 86 42 84 106H49c0 40 14 67 53 68 26 1 43-12 49-29l28 8c-11 28-37 45-77 45C44 4 14-33 15-96c1-61 26-98 85-98zm52 81c6-60-76-77-97-28-3 7-6 17-6 28h103" id="ad"/><path fill="#333" d="M145-31C134-9 116 4 85 4 32 4 16-35 15-94c0-59 17-99 70-100 32-1 48 14 60 33 0-11-1-24 2-32h30l-1 268h-32zM93-21c41 0 51-33 51-76s-8-73-50-73c-40 0-46 35-46 75s5 74 45 74" id="ae"/><path fill="#333" d="M84 4C-5 8 30-112 23-190h32v120c0 31 7 50 39 49 72-2 45-101 50-169h31l1 190h-30c-1-10 1-25-2-33-11 22-28 36-60 37" id="af"/><path fill="#333" d="M135-143c-3-34-86-38-87 0 15 53 115 12 119 90S17 21 10-45l28-5c4 36 97 45 98 0-10-56-113-15-118-90-4-57 82-63 122-42 12 7 21 19 24 35" id="ag"/><path fill="#333" d="M59-47c-2 24 18 29 38 22v24C64 9 27 4 27-40v-127H5v-23h24l9-43h21v43h35v23H59v120" id="ah"/><g id="f"><use transform="matrix(0.10493827160493824,0,0,0.10493827160493824,0,0)" xlink:href="#ac"/><use transform="matrix(0.10493827160493824,0,0,0.10493827160493824,27.179012345679002,0)" xlink:href="#ad"/><use transform="matrix(0.10493827160493824,0,0,0.10493827160493824,48.16666666666665,0)" xlink:href="#ae"/><use transform="matrix(0.10493827160493824,0,0,0.10493827160493824,69.1543209876543,0)" xlink:href="#af"/><use transform="matrix(0.10493827160493824,0,0,0.10493827160493824,90.14197530864195,0)" xlink:href="#ad"/><use transform="matrix(0.10493827160493824,0,0,0.10493827160493824,111.12962962962959,0)" xlink:href="#ag"/><use transform="matrix(0.10493827160493824,0,0,0.10493827160493824,130.01851851851848,0)" xlink:href="#ah"/></g><path fill="#333" d="M275 0h-61l-44-196L126 0H64L0-248h53L97-49l45-199h58l43 199 44-199h52" id="ai"/><path fill="#333" d="M24 0v-248h195v40H76v63h132v40H76v65h150V0H24" id="aj"/><path fill="#333" d="M182-130c37 4 62 22 62 59C244 23 116-4 24 0v-248c84 5 203-23 205 63 0 31-19 50-47 55zM76-148c40-3 101 13 101-30 0-44-60-28-101-31v61zm0 110c48-3 116 14 116-37 0-48-69-32-116-35v72" id="ak"/><path fill="#333" d="M169-182c-1-43-94-46-97-3 18 66 151 10 154 114 3 95-165 93-204 36-6-8-10-19-12-30l50-8c3 46 112 56 116 5-17-69-150-10-154-114-4-87 153-88 188-35 5 8 8 18 10 28" id="al"/><path fill="#333" d="M140-251c80 0 125 45 125 126S219 4 139 4C58 4 15-44 15-125s44-126 125-126zm-1 214c52 0 73-35 73-88 0-50-21-86-72-86-52 0-73 35-73 86s22 88 72 88" id="am"/><path fill="#333" d="M67-125c0 53 21 87 73 88 37 1 54-22 65-47l45 17C233-25 199 4 140 4 58 4 20-42 15-125 8-235 124-281 211-232c18 10 29 29 36 50l-46 12c-8-25-30-41-62-41-52 0-71 34-72 86" id="an"/><path fill="#333" d="M195 0l-88-114-31 24V0H24v-248h52v113l112-113h60L142-143 257 0h-62" id="ao"/><path fill="#333" d="M136-208V0H84v-208H4v-40h212v40h-80" id="ap"/><g id="g"><use transform="matrix(0.11111111111111108,0,0,0.11111111111111108,0,0)" xlink:href="#ai"/><use transform="matrix(0.11111111111111108,0,0,0.11111111111111108,37.66666666666666,0)" xlink:href="#aj"/><use transform="matrix(0.11111111111111108,0,0,0.11111111111111108,64.33333333333331,0)" xlink:href="#ak"/><use transform="matrix(0.11111111111111108,0,0,0.11111111111111108,93.11111111111109,0)" xlink:href="#al"/><use transform="matrix(0.11111111111111108,0,0,0.11111111111111108,119.77777777777774,0)" xlink:href="#am"/><use transform="matrix(0.11111111111111108,0,0,0.11111111111111108,150.88888888888886,0)" xlink:href="#an"/><use transform="matrix(0.11111111111111108,0,0,0.11111111111111108,179.66666666666663,0)" xlink:href="#ao"/><use transform="matrix(0.11111111111111108,0,0,0.11111111111111108,208.4444444444444,0)" xlink:href="#aj"/><use transform="matrix(0.11111111111111108,0,0,0.11111111111111108,235.11111111111103,0)" xlink:href="#ap"/></g><path fill="#333" d="M238-95c0 69-44 99-111 99C63 4 22-25 22-93v-155h51v151c-1 38 19 59 55 60 90 1 49-130 58-211h52v153" id="aq"/><path fill="#333" d="M240-174c0 40-23 61-54 70L253 0h-59l-57-94H76V0H24v-248c93 4 217-23 216 74zM76-134c48-2 112 12 112-38 0-48-66-32-112-35v73" id="ar"/><g id="h"><use transform="matrix(0.11111111111111108,0,0,0.11111111111111108,0,0)" xlink:href="#aq"/><use transform="matrix(0.11111111111111108,0,0,0.11111111111111108,28.777777777777768,0)" xlink:href="#al"/><use transform="matrix(0.11111111111111108,0,0,0.11111111111111108,55.44444444444443,0)" xlink:href="#aj"/><use transform="matrix(0.11111111111111108,0,0,0.11111111111111108,82.11111111111109,0)" xlink:href="#ar"/></g><path fill="#333" d="M186 0v-106H76V0H24v-248h52v99h110v-99h50V0h-50" id="as"/><path fill="#333" d="M24-248c93 1 206-16 204 79-1 75-69 88-152 82V0H24v-248zm52 121c47 0 100 7 100-41 0-47-54-39-100-39v80" id="at"/><g id="i"><use transform="matrix(0.11111111111111108,0,0,0.11111111111111108,0,0)" xlink:href="#as"/><use transform="matrix(0.11111111111111108,0,0,0.11111111111111108,28.777777777777768,0)" xlink:href="#ap"/><use transform="matrix(0.11111111111111108,0,0,0.11111111111111108,53.11111111111109,0)" xlink:href="#ap"/><use transform="matrix(0.11111111111111108,0,0,0.11111111111111108,77.44444444444441,0)" xlink:href="#at"/></g><path fill="#333" d="M52 0c1-96 47-148 87-207H15v-41h169v40c-36 62-79 113-81 208H52" id="au"/><path fill="#333" d="M115-159c48 0 72 30 72 78 0 54-30 85-83 85-64 0-91-50-91-122 0-98 58-163 141-120 15 8 21 24 27 44l-47 6c-5-31-48-31-61-4-7 14-11 33-11 60 9-17 28-27 53-27zM102-35c24 0 36-20 36-45s-11-43-37-43c-23 0-36 14-36 38 0 27 11 50 37 50" id="av"/><g id="j"><use transform="matrix(0.11111111111111108,0,0,0.11111111111111108,0,0)" xlink:href="#au"/><use transform="matrix(0.11111111111111108,0,0,0.11111111111111108,22.222222222222214,0)" xlink:href="#av"/><use transform="matrix(0.11111111111111108,0,0,0.11111111111111108,44.44444444444443,0)" xlink:href="#X"/><use transform="matrix(0.11111111111111108,0,0,0.11111111111111108,66.66666666666664,0)" xlink:href="#au"/></g><g id="k"><use transform="matrix(0.11111111111111108,0,0,0.11111111111111108,0,0)" xlink:href="#au"/><use transform="matrix(0.11111111111111108,0,0,0.11111111111111108,22.222222222222214,0)" xlink:href="#aa"/><use transform="matrix(0.11111111111111108,0,0,0.11111111111111108,44.44444444444443,0)" xlink:href="#au"/><use transform="matrix(0.11111111111111108,0,0,0.11111111111111108,66.66666666666664,0)" xlink:href="#aa"/></g><path fill="#333" d="M190 0L58-211 59 0H30v-248h39L202-35l-2-213h31V0h-41" id="aw"/><path fill="#333" d="M100-194c62-1 85 37 85 99 1 63-27 99-86 99S16-35 15-95c0-66 28-99 85-99zM99-20c44 1 53-31 53-75 0-43-8-75-51-75s-53 32-53 75 10 74 51 75" id="ax"/><path fill="#333" d="M155-56V0h-30v-56H8v-25l114-167h33v167h35v25h-35zm-30-156c-27 46-58 90-88 131h88v-131" id="ay"/><path fill="#333" d="M24-231v-30h32v30H24zM-9 49c24 4 33-6 33-30v-209h32V24c2 40-23 58-65 49V49" id="az"/><g id="l"><use transform="matrix(0.06172839506172839,0,0,0.06172839506172839,0,0)" xlink:href="#aw"/><use transform="matrix(0.06172839506172839,0,0,0.06172839506172839,15.987654320987653,0)" xlink:href="#ad"/><use transform="matrix(0.06172839506172839,0,0,0.06172839506172839,28.333333333333332,0)" xlink:href="#ax"/><use transform="matrix(0.06172839506172839,0,0,0.06172839506172839,40.67901234567901,0)" xlink:href="#ay"/><use transform="matrix(0.06172839506172839,0,0,0.06172839506172839,53.02469135802469,0)" xlink:href="#az"/></g><path fill="#333" d="M33 0v-248h34V0H33" id="aA"/><path fill="#333" d="M117-194c89-4 53 116 60 194h-32v-121c0-31-8-49-39-48C34-167 62-67 57 0H25l-1-190h30c1 10-1 24 2 32 11-22 29-35 61-36" id="aB"/><path fill="#333" d="M141-36C126-15 110 5 73 4 37 3 15-17 15-53c-1-64 63-63 125-63 3-35-9-54-41-54-24 1-41 7-42 31l-33-3c5-37 33-52 76-52 45 0 72 20 72 64v82c-1 20 7 32 28 27v20c-31 9-61-2-59-35zM48-53c0 20 12 33 32 33 41-3 63-29 60-74-43 2-92-5-92 41" id="aC"/><path fill="#333" d="M96-169c-40 0-48 33-48 73s9 75 48 75c24 0 41-14 43-38l32 2c-6 37-31 61-74 61-59 0-76-41-82-99-10-93 101-131 147-64 4 7 5 14 7 22l-32 3c-4-21-16-35-41-35" id="aD"/><g id="m"><use transform="matrix(0.06172839506172839,0,0,0.06172839506172839,0,0)" xlink:href="#aA"/><use transform="matrix(0.06172839506172839,0,0,0.06172839506172839,6.172839506172839,0)" xlink:href="#aB"/><use transform="matrix(0.06172839506172839,0,0,0.06172839506172839,18.51851851851852,0)" xlink:href="#ag"/><use transform="matrix(0.06172839506172839,0,0,0.06172839506172839,29.62962962962963,0)" xlink:href="#ah"/><use transform="matrix(0.06172839506172839,0,0,0.06172839506172839,35.80246913580247,0)" xlink:href="#aC"/><use transform="matrix(0.06172839506172839,0,0,0.06172839506172839,48.148148148148145,0)" xlink:href="#aB"/><use transform="matrix(0.06172839506172839,0,0,0.06172839506172839,60.49382716049382,0)" xlink:href="#aD"/><use transform="matrix(0.06172839506172839,0,0,0.06172839506172839,71.60493827160494,0)" xlink:href="#ad"/></g><path fill="#333" d="M27 0v-27h64v-190l-56 39v-29l58-41h29v221h61V0H27" id="aE"/><use transform="matrix(0.06172839506172839,0,0,0.06172839506172839,0,0)" xlink:href="#aE" id="n"/><path fill="#333" d="M126-127c33 6 58 20 58 59 0 88-139 92-164 29-3-8-5-16-6-25l32-3c6 27 21 44 54 44 32 0 52-15 52-46 0-38-36-46-79-43v-28c39 1 72-4 72-42 0-27-17-43-46-43-28 0-47 15-49 41l-32-3c6-42 35-63 81-64 48-1 79 21 79 65 0 36-21 52-52 59" id="aF"/><use transform="matrix(0.06172839506172839,0,0,0.06172839506172839,0,0)" xlink:href="#aF" id="p"/><path fill="#333" d="M101-251c82-7 93 87 43 132L82-64C71-53 59-42 53-27h129V0H18c2-99 128-94 128-182 0-28-16-43-45-43s-46 15-49 41l-32-3c6-41 34-60 81-64" id="aG"/><use transform="matrix(0.06172839506172839,0,0,0.06172839506172839,0,0)" xlink:href="#aG" id="r"/><path fill="#333" d="M266 0h-40l-56-210L115 0H75L2-248h35L96-30l15-64 43-154h32l59 218 59-218h35" id="aH"/><path fill="#333" d="M115-194c53 0 69 39 70 98 0 66-23 100-70 100C84 3 66-7 56-30L54 0H23l1-261h32v101c10-23 28-34 59-34zm-8 174c40 0 45-34 45-75 0-40-5-75-45-74-42 0-51 32-51 76 0 43 10 73 51 73" id="aI"/><path fill="#333" d="M143 0L79-87 56-68V0H24v-261h32v163l83-92h37l-77 82L181 0h-38" id="aJ"/><g id="s"><use transform="matrix(0.08024691358024685,0,0,0.08024691358024685,0,0)" xlink:href="#aH"/><use transform="matrix(0.08024691358024685,0,0,0.08024691358024685,26.641975308641957,0)" xlink:href="#ad"/><use transform="matrix(0.08024691358024685,0,0,0.08024691358024685,42.691358024691326,0)" xlink:href="#aI"/><use transform="matrix(0.08024691358024685,0,0,0.08024691358024685,58.7407407407407,0)" xlink:href="#ag"/><use transform="matrix(0.08024691358024685,0,0,0.08024691358024685,73.18518518518513,0)" xlink:href="#ax"/><use transform="matrix(0.08024691358024685,0,0,0.08024691358024685,89.2345679012345,0)" xlink:href="#aD"/><use transform="matrix(0.08024691358024685,0,0,0.08024691358024685,103.67901234567894,0)" xlink:href="#aJ"/><use transform="matrix(0.08024691358024685,0,0,0.08024691358024685,118.12345679012336,0)" xlink:href="#ad"/><use transform="matrix(0.08024691358024685,0,0,0.08024691358024685,134.17283950617272,0)" xlink:href="#ah"/></g><path fill="#333" d="M108 0H70L1-190h34L89-25l56-165h34" id="aK"/><path fill="#333" d="M114-163C36-179 61-72 57 0H25l-1-190h30c1 12-1 29 2 39 6-27 23-49 58-41v29" id="aL"/><path fill="#333" d="M30-248c87 1 191-15 191 75 0 78-77 80-158 76V0H30v-248zm33 125c57 0 124 11 124-50 0-59-68-47-124-48v98" id="aM"/><path fill="#333" d="M141 0L90-78 38 0H4l68-98-65-92h35l48 74 47-74h35l-64 92 68 98h-35" id="aN"/><path fill="#333" d="M179-190L93 31C79 59 56 82 12 73V49c39 6 53-20 64-50L1-190h34L92-34l54-156h33" id="aO"/><g id="t"><use transform="matrix(0.08024691358024685,0,0,0.08024691358024685,0,0)" xlink:href="#ac"/><use transform="matrix(0.08024691358024685,0,0,0.08024691358024685,20.783950617283935,0)" xlink:href="#ad"/><use transform="matrix(0.08024691358024685,0,0,0.08024691358024685,36.83333333333331,0)" xlink:href="#aK"/><use transform="matrix(0.08024691358024685,0,0,0.08024691358024685,51.277777777777736,0)" xlink:href="#ad"/><use transform="matrix(0.08024691358024685,0,0,0.08024691358024685,67.32716049382711,0)" xlink:href="#aL"/><use transform="matrix(0.08024691358024685,0,0,0.08024691358024685,76.87654320987649,0)" xlink:href="#ag"/><use transform="matrix(0.08024691358024685,0,0,0.08024691358024685,91.32098765432092,0)" xlink:href="#ad"/><use transform="matrix(0.08024691358024685,0,0,0.08024691358024685,107.3703703703703,0)" xlink:href="#aM"/><use transform="matrix(0.08024691358024685,0,0,0.08024691358024685,126.62962962962953,0)" xlink:href="#aL"/><use transform="matrix(0.08024691358024685,0,0,0.08024691358024685,136.1790123456789,0)" xlink:href="#ax"/><use transform="matrix(0.08024691358024685,0,0,0.08024691358024685,152.22839506172826,0)" xlink:href="#aN"/><use transform="matrix(0.08024691358024685,0,0,0.08024691358024685,166.67283950617266,0)" xlink:href="#aO"/></g><path fill="#333" d="M197 0v-115H63V0H30v-248h33v105h134v-105h34V0h-34" id="aP"/><path fill="#333" d="M127-220V0H93v-220H8v-28h204v28h-85" id="aQ"/><g id="u"><use transform="matrix(0.08024691358024685,0,0,0.08024691358024685,0,0)" xlink:href="#aP"/><use transform="matrix(0.08024691358024685,0,0,0.08024691358024685,20.783950617283935,0)" xlink:href="#aQ"/><use transform="matrix(0.08024691358024685,0,0,0.08024691358024685,38.358024691358,0)" xlink:href="#aQ"/><use transform="matrix(0.08024691358024685,0,0,0.08024691358024685,55.93209876543206,0)" xlink:href="#aM"/></g><path fill="#333" d="M194 0L95-120 63-95V0H30v-248h33v124l119-124h40L117-140 236 0h-42" id="aR"/><path fill="#333" d="M134-131c28 9 52 24 51 62-1 50-34 73-85 73S17-19 16-69c0-36 21-54 49-61-75-25-45-126 34-121 46 3 78 18 79 63 0 33-17 51-44 57zm-34-11c31 1 46-15 46-44 0-28-17-43-47-42-29 0-46 13-45 42 1 28 16 44 46 44zm1 122c35 0 51-18 51-52 0-30-18-46-53-46-33 0-51 17-51 47 0 34 19 51 53 51" id="aS"/><path fill="#333" d="M47-170H22l-4-78h33" id="aT"/><g id="v"><use transform="matrix(0.08024691358024685,0,0,0.08024691358024685,0,0)" xlink:href="#aR"/><use transform="matrix(0.08024691358024685,0,0,0.08024691358024685,19.259259259259245,0)" xlink:href="#aS"/><use transform="matrix(0.08024691358024685,0,0,0.08024691358024685,35.30864197530862,0)" xlink:href="#aT"/><use transform="matrix(0.08024691358024685,0,0,0.08024691358024685,40.7654320987654,0)" xlink:href="#ag"/></g><path fill="#333" d="M212-179c-10-28-35-45-73-45-59 0-87 40-87 99 0 60 29 101 89 101 43 0 62-24 78-52l27 14C228-24 195 4 139 4 59 4 22-46 18-125c-6-104 99-153 187-111 19 9 31 26 39 46" id="aU"/><path fill="#333" d="M24 0v-261h32V0H24" id="aV"/><g id="w"><use transform="matrix(0.08024691358024685,0,0,0.08024691358024685,0,0)" xlink:href="#aU"/><use transform="matrix(0.08024691358024685,0,0,0.08024691358024685,20.783950617283935,0)" xlink:href="#aV"/><use transform="matrix(0.08024691358024685,0,0,0.08024691358024685,27.123456790123438,0)" xlink:href="#af"/><use transform="matrix(0.08024691358024685,0,0,0.08024691358024685,43.17283950617281,0)" xlink:href="#ag"/><use transform="matrix(0.08024691358024685,0,0,0.08024691358024685,57.61728395061724,0)" xlink:href="#ah"/><use transform="matrix(0.08024691358024685,0,0,0.08024691358024685,65.64197530864193,0)" xlink:href="#ad"/><use transform="matrix(0.08024691358024685,0,0,0.08024691358024685,81.69135802469131,0)" xlink:href="#aL"/><use transform="matrix(0.08024691358024685,0,0,0.08024691358024685,91.24074074074069,0)" xlink:href="#aA"/><use transform="matrix(0.08024691358024685,0,0,0.08024691358024685,99.26543209876537,0)" xlink:href="#aM"/></g><path fill="#333" d="M185-189c-5-48-123-54-124 2 14 75 158 14 163 119 3 78-121 87-175 55-17-10-28-26-33-46l33-7c5 56 141 63 141-1 0-78-155-14-162-118-5-82 145-84 179-34 5 7 8 16 11 25" id="aW"/><path fill="#333" d="M24-231v-30h32v30H24zM24 0v-190h32V0H24" id="aX"/><g id="x"><use transform="matrix(0.08024691358024685,0,0,0.08024691358024685,0,0)" xlink:href="#aW"/><use transform="matrix(0.08024691358024685,0,0,0.08024691358024685,19.259259259259245,0)" xlink:href="#ad"/><use transform="matrix(0.08024691358024685,0,0,0.08024691358024685,35.30864197530862,0)" xlink:href="#aL"/><use transform="matrix(0.08024691358024685,0,0,0.08024691358024685,44.858024691358,0)" xlink:href="#aK"/><use transform="matrix(0.08024691358024685,0,0,0.08024691358024685,59.30246913580243,0)" xlink:href="#aX"/><use transform="matrix(0.08024691358024685,0,0,0.08024691358024685,65.64197530864193,0)" xlink:href="#aD"/><use transform="matrix(0.08024691358024685,0,0,0.08024691358024685,80.08641975308636,0)" xlink:href="#ad"/></g><path fill="#333" d="M185-48c-13 30-37 53-82 52C43 2 14-33 14-96s30-98 90-98c62 0 83 45 84 108H66c0 31 8 55 39 56 18 0 30-7 34-22zm-45-69c5-46-57-63-70-21-2 6-4 13-4 21h74" id="aY"/><path fill="#333" d="M128 0H69L1-190h53L99-40l48-150h52" id="aZ"/><path fill="#333" d="M135-150c-39-12-60 13-60 57V0H25l-1-190h47c2 13-1 29 3 40 6-28 27-53 61-41v41" id="ba"/><path fill="#333" d="M137-138c1-29-70-34-71-4 15 46 118 7 119 86 1 83-164 76-172 9l43-7c4 19 20 25 44 25 33 8 57-30 24-41C81-84 22-81 20-136c-2-80 154-74 161-7" id="bb"/><g id="y"><use transform="matrix(0.07407407407407401,0,0,0.07407407407407401,0,0)" xlink:href="#ar"/><use transform="matrix(0.07407407407407401,0,0,0.07407407407407401,19.18518518518517,0)" xlink:href="#aY"/><use transform="matrix(0.07407407407407401,0,0,0.07407407407407401,33.99999999999997,0)" xlink:href="#aZ"/><use transform="matrix(0.07407407407407401,0,0,0.07407407407407401,48.814814814814774,0)" xlink:href="#aY"/><use transform="matrix(0.07407407407407401,0,0,0.07407407407407401,63.62962962962958,0)" xlink:href="#ba"/><use transform="matrix(0.07407407407407401,0,0,0.07407407407407401,73.99999999999994,0)" xlink:href="#bb"/><use transform="matrix(0.07407407407407401,0,0,0.07407407407407401,88.81481481481477,0)" xlink:href="#aY"/></g><path fill="#333" d="M110-194c64 0 96 36 96 99 0 64-35 99-97 99-61 0-95-36-95-99 0-62 34-99 96-99zm-1 164c35 0 45-28 45-65 0-40-10-65-43-65-34 0-45 26-45 65 0 36 10 65 43 65" id="bc"/><path fill="#333" d="M144 0l-44-69L55 0H2l70-98-66-92h53l41 62 40-62h54l-67 91 71 99h-54" id="bd"/><path fill="#333" d="M123 10C108 53 80 86 19 72V37c35 8 53-11 59-39L3-190h52l48 148c12-52 28-100 44-148h51" id="be"/><g id="z"><use transform="matrix(0.07407407407407401,0,0,0.07407407407407401,0,0)" xlink:href="#at"/><use transform="matrix(0.07407407407407401,0,0,0.07407407407407401,17.777777777777764,0)" xlink:href="#ba"/><use transform="matrix(0.07407407407407401,0,0,0.07407407407407401,28.148148148148124,0)" xlink:href="#bc"/><use transform="matrix(0.07407407407407401,0,0,0.07407407407407401,44.37037037037033,0)" xlink:href="#bd"/><use transform="matrix(0.07407407407407401,0,0,0.07407407407407401,59.18518518518514,0)" xlink:href="#be"/></g><path fill="#333" d="M88-194c31-1 46 15 58 34l-1-101h50l1 261h-48c-2-10 0-23-3-31C134-8 116 4 84 4 32 4 16-41 15-95c0-56 19-97 73-99zm17 164c33 0 40-30 41-66 1-37-9-64-41-64s-38 30-39 65c0 43 13 65 39 65" id="bf"/><g id="A"><use transform="matrix(0.07407407407407401,0,0,0.07407407407407401,0,0)" xlink:href="#at"/><use transform="matrix(0.07407407407407401,0,0,0.07407407407407401,17.777777777777764,0)" xlink:href="#bc"/><use transform="matrix(0.07407407407407401,0,0,0.07407407407407401,33.99999999999997,0)" xlink:href="#bf"/></g><g id="B"><use transform="matrix(0.0925925925925925,0,0,0.0925925925925925,0,0)" xlink:href="#ar"/><use transform="matrix(0.0925925925925925,0,0,0.0925925925925925,23.98148148148146,0)" xlink:href="#aY"/><use transform="matrix(0.0925925925925925,0,0,0.0925925925925925,42.49999999999996,0)" xlink:href="#aZ"/><use transform="matrix(0.0925925925925925,0,0,0.0925925925925925,61.01851851851846,0)" xlink:href="#aY"/><use transform="matrix(0.0925925925925925,0,0,0.0925925925925925,79.53703703703697,0)" xlink:href="#ba"/><use transform="matrix(0.0925925925925925,0,0,0.0925925925925925,92.49999999999991,0)" xlink:href="#bb"/><use transform="matrix(0.0925925925925925,0,0,0.0925925925925925,111.01851851851842,0)" xlink:href="#aY"/></g><g id="C"><use transform="matrix(0.0925925925925925,0,0,0.0925925925925925,0,0)" xlink:href="#at"/><use transform="matrix(0.0925925925925925,0,0,0.0925925925925925,22.2222222222222,0)" xlink:href="#ba"/><use transform="matrix(0.0925925925925925,0,0,0.0925925925925925,35.18518518518515,0)" xlink:href="#bc"/><use transform="matrix(0.0925925925925925,0,0,0.0925925925925925,55.46296296296291,0)" xlink:href="#bd"/><use transform="matrix(0.0925925925925925,0,0,0.0925925925925925,73.98148148148141,0)" xlink:href="#be"/></g><path fill="#333" d="M25-224v-37h50v37H25zM25 0v-190h50V0H25" id="bg"/><path fill="#333" d="M190-63c-7 42-38 67-86 67-59 0-84-38-90-98-12-110 154-137 174-36l-49 2c-2-19-15-32-35-32-30 0-35 28-38 64-6 74 65 87 74 30" id="bh"/><g id="D"><use transform="matrix(0.0925925925925925,0,0,0.0925925925925925,0,0)" xlink:href="#al"/><use transform="matrix(0.0925925925925925,0,0,0.0925925925925925,22.2222222222222,0)" xlink:href="#aY"/><use transform="matrix(0.0925925925925925,0,0,0.0925925925925925,40.740740740740705,0)" xlink:href="#ba"/><use transform="matrix(0.0925925925925925,0,0,0.0925925925925925,53.70370370370365,0)" xlink:href="#aZ"/><use transform="matrix(0.0925925925925925,0,0,0.0925925925925925,72.22222222222216,0)" xlink:href="#bg"/><use transform="matrix(0.0925925925925925,0,0,0.0925925925925925,81.48148148148141,0)" xlink:href="#bh"/><use transform="matrix(0.0925925925925925,0,0,0.0925925925925925,99.9999999999999,0)" xlink:href="#aY"/></g><path fill="#333" d="M24 0v-248h52V0H24" id="bi"/><path fill="#333" d="M135-194c87-1 58 113 63 194h-50c-7-57 23-157-34-157-59 0-34 97-39 157H25l-1-190h47c2 12-1 28 3 38 12-26 28-41 61-42" id="bj"/><path fill="#333" d="M195-6C206 82 75 100 31 46c-4-6-6-13-8-21l49-6c3 16 16 24 34 25 40 0 42-37 40-79-11 22-30 35-61 35-53 0-70-43-70-97 0-56 18-96 73-97 30 0 46 14 59 34l2-30h47zm-90-29c32 0 41-27 41-63 0-35-9-62-40-62-32 0-39 29-40 63 0 36 9 62 39 62" id="bk"/><g id="E"><use transform="matrix(0.0925925925925925,0,0,0.0925925925925925,0,0)" xlink:href="#bi"/><use transform="matrix(0.0925925925925925,0,0,0.0925925925925925,9.25925925925925,0)" xlink:href="#bj"/><use transform="matrix(0.0925925925925925,0,0,0.0925925925925925,29.53703703703701,0)" xlink:href="#bk"/><use transform="matrix(0.0925925925925925,0,0,0.0925925925925925,49.81481481481477,0)" xlink:href="#ba"/><use transform="matrix(0.0925925925925925,0,0,0.0925925925925925,62.777777777777715,0)" xlink:href="#aY"/><use transform="matrix(0.0925925925925925,0,0,0.0925925925925925,81.29629629629622,0)" xlink:href="#bb"/><use transform="matrix(0.0925925925925925,0,0,0.0925925925925925,99.81481481481472,0)" xlink:href="#bb"/></g><path fill="#333" d="M24 0v-248h52v208h133V0H24" id="bl"/><path fill="#333" d="M133-34C117-15 103 5 69 4 32 3 11-16 11-54c-1-60 55-63 116-61 1-26-3-47-28-47-18 1-26 9-28 27l-52-2c7-38 36-58 82-57s74 22 75 68l1 82c-1 14 12 18 25 15v27c-30 8-71 5-69-32zm-48 3c29 0 43-24 42-57-32 0-66-3-65 30 0 17 8 27 23 27" id="bm"/><path fill="#333" d="M25 0v-261h50V0H25" id="bn"/><g id="F"><use transform="matrix(0.0925925925925925,0,0,0.0925925925925925,0,0)" xlink:href="#bl"/><use transform="matrix(0.0925925925925925,0,0,0.0925925925925925,20.277777777777757,0)" xlink:href="#bc"/><use transform="matrix(0.0925925925925925,0,0,0.0925925925925925,40.555555555555515,0)" xlink:href="#bm"/><use transform="matrix(0.0925925925925925,0,0,0.0925925925925925,59.07407407407402,0)" xlink:href="#bf"/><use transform="matrix(0.0925925925925925,0,0,0.0925925925925925,79.35185185185178,0)" xlink:href="#ak"/><use transform="matrix(0.0925925925925925,0,0,0.0925925925925925,103.33333333333323,0)" xlink:href="#bm"/><use transform="matrix(0.0925925925925925,0,0,0.0925925925925925,121.85185185185173,0)" xlink:href="#bn"/><use transform="matrix(0.0925925925925925,0,0,0.0925925925925925,131.11111111111097,0)" xlink:href="#bm"/><use transform="matrix(0.0925925925925925,0,0,0.0925925925925925,149.62962962962948,0)" xlink:href="#bj"/><use transform="matrix(0.0925925925925925,0,0,0.0925925925925925,169.90740740740722,0)" xlink:href="#bh"/><use transform="matrix(0.0925925925925925,0,0,0.0925925925925925,188.42592592592572,0)" xlink:href="#aY"/><use transform="matrix(0.0925925925925925,0,0,0.0925925925925925,206.94444444444426,0)" xlink:href="#ba"/></g><linearGradient gradientUnits="userSpaceOnUse" id="G" x1="-900" y1="-318.21" x2="-660" y2="-318.21"><stop offset="0%" stop-color="#b77af4"/><stop offset="100%" stop-color="#773adc"/></linearGradient><linearGradient gradientUnits="userSpaceOnUse" id="H" x1="-900" y1="-318.21" x2="-660" y2="-318.21"><stop offset="0%" stop-color="#b77af4"/><stop offset="100%" stop-color="#773adc"/></linearGradient><linearGradient gradientUnits="userSpaceOnUse" id="I" x1="-900" y1="-318.21" x2="-660.42" y2="-318.21"><stop offset="0%" stop-color="#b77af4"/><stop offset="100%" stop-color="#773adc"/></linearGradient><linearGradient gradientUnits="userSpaceOnUse" id="J" x1="-900" y1="-318.45" x2="-660" y2="-318.45"><stop offset="0%" stop-color="#b77af4"/><stop offset="100%" stop-color="#773adc"/></linearGradient><linearGradient gradientUnits="userSpaceOnUse" id="K" x1="-900" y1="-318.21" x2="-660" y2="-318.21"><stop offset="0%" stop-color="#b77af4"/><stop offset="100%" stop-color="#773adc"/></linearGradient><linearGradient gradientUnits="userSpaceOnUse" id="L" x1="-900" y1="-318.21" x2="-660" y2="-318.21"><stop offset="0%" stop-color="#b77af4"/><stop offset="100%" stop-color="#773adc"/></linearGradient><linearGradient gradientUnits="userSpaceOnUse" id="M" x1="-900" y1="-318.21" x2="-660" y2="-318.21"><stop offset="0%" stop-color="#b77af4"/><stop offset="100%" stop-color="#773adc"/></linearGradient><linearGradient gradientUnits="userSpaceOnUse" id="N" x1="-213.95" y1="-399.99" x2="-213.95" y2="-220.27"><stop offset="0%" stop-color="#b3b2b3"/><stop offset="37.5%" stop-color="#afaeaf"/><stop offset="76.3%" stop-color="#a2a2a2"/><stop offset="100%" stop-color="#979797"/></linearGradient><linearGradient gradientUnits="userSpaceOnUse" id="O" x1="-213.94" y1="-220.27" x2="-213.94" y2="-399.98"><stop offset="0%" stop-color="#0078d4"/><stop offset="15.6%" stop-color="#1380da"/><stop offset="52.8%" stop-color="#3c91e5"/><stop offset="82.2%" stop-color="#559cec"/><stop offset="100%" stop-color="#5ea0ef"/></linearGradient><linearGradient gradientUnits="userSpaceOnUse" id="P" x1="1600" y1="-354.82" x2="1840" y2="-354.82"><stop offset="0%" stop-color="#b77af4"/><stop offset="100%" stop-color="#773adc"/></linearGradient><linearGradient gradientUnits="userSpaceOnUse" id="Q" x1="1600" y1="-354.82" x2="1840" y2="-354.82"><stop offset="0%" stop-color="#b77af4"/><stop offset="100%" stop-color="#773adc"/></linearGradient><linearGradient gradientUnits="userSpaceOnUse" id="R" x1="1600" y1="-354.82" x2="1839.58" y2="-354.82"><stop offset="0%" stop-color="#b77af4"/><stop offset="100%" stop-color="#773adc"/></linearGradient><linearGradient gradientUnits="userSpaceOnUse" id="S" x1="1600" y1="-355.06" x2="1840" y2="-355.06"><stop offset="0%" stop-color="#b77af4"/><stop offset="100%" stop-color="#773adc"/></linearGradient><linearGradient gradientUnits="userSpaceOnUse" id="T" x1="1600" y1="-354.82" x2="1840" y2="-354.82"><stop offset="0%" stop-color="#b77af4"/><stop offset="100%" stop-color="#773adc"/></linearGradient><linearGradient gradientUnits="userSpaceOnUse" id="U" x1="1600" y1="-354.82" x2="1840" y2="-354.82"><stop offset="0%" stop-color="#b77af4"/><stop offset="100%" stop-color="#773adc"/></linearGradient><linearGradient gradientUnits="userSpaceOnUse" id="V" x1="1600" y1="-354.82" x2="1840" y2="-354.82"><stop offset="0%" stop-color="#b77af4"/><stop offset="100%" stop-color="#773adc"/></linearGradient></defs></g></svg>