<?xml version="1.0" encoding="UTF-8" standalone="no"?>
<!DOCTYPE svg PUBLIC "-//W3C//DTD SVG 1.1//EN" "http://www.w3.org/Graphics/SVG/1.1/DTD/svg11.dtd">
<svg version="1.1" xmlns="http://www.w3.org/2000/svg" xmlns:xl="http://www.w3.org/1999/xlink" xmlns:dc="http://purl.org/dc/elements/1.1/" viewBox="0 0 2200 2700" width="2200" height="2700">
  <defs>
    <marker orient="auto" overflow="visible" markerUnits="strokeWidth" id="FilledArrow_Marker" stroke-linejoin="miter" stroke-miterlimit="10" viewBox="-1 -3 7 6" markerWidth="7" markerHeight="6" color="#a5a5a5">
      <g>
        <path d="M 4.8 0 L 0 -1.8 L 0 1.8 Z" fill="currentColor" stroke="currentColor" stroke-width="1"/>
      </g>
    </marker>
    <marker orient="auto" overflow="visible" markerUnits="strokeWidth" id="FilledArrow_Marker_2" stroke-linejoin="miter" stroke-miterlimit="10" viewBox="-1 -3 7 6" markerWidth="7" markerHeight="6" color="#a5a5a5">
      <g>
        <path d="M 4.8 0 L 0 -1.8 L 0 1.8 Z" fill="currentColor" stroke="currentColor" stroke-width="1"/>
      </g>
    </marker>
    <marker orient="auto" overflow="visible" markerUnits="strokeWidth" id="FilledArrow_Marker_3" stroke-linejoin="miter" stroke-miterlimit="10" viewBox="-1 -3 6 6" markerWidth="6" markerHeight="6" color="#0b73d9">
      <g>
        <path d="M 3.2 0 L 0 -1.2 L 0 1.2 Z" fill="currentColor" stroke="currentColor" stroke-width="1"/>
      </g>
    </marker>
    <marker orient="auto" overflow="visible" markerUnits="strokeWidth" id="FilledArrow_Marker_4" stroke-linejoin="miter" stroke-miterlimit="10" viewBox="-1 -3 7 6" markerWidth="7" markerHeight="6" color="#0b73d9">
      <g>
        <path d="M 4.8 0 L 0 -1.8 L 0 1.8 Z" fill="currentColor" stroke="currentColor" stroke-width="1"/>
      </g>
    </marker>
  </defs>
  <g id="Canvas_1" fill-opacity="1" stroke-opacity="1" stroke-dasharray="none" fill="none" stroke="none">
    <title>Canvas 1</title>
    <g id="Canvas_1_Layer_1">
      <title>Layer 1</title>
      <g id="Graphic_314">
        <rect x="80" y="2384.8508" width="1944" height="251" fill="white"/>
        <rect x="80" y="2384.8508" width="1944" height="251" stroke="#0b73d9" stroke-linecap="round" stroke-linejoin="round" stroke-width="2"/>
      </g>
      <g id="Graphic_313">
        <rect x="80" y="2110.0998" width="1944" height="251" fill="white"/>
        <rect x="80" y="2110.0998" width="1944" height="251" stroke="#0b73d9" stroke-linecap="round" stroke-linejoin="round" stroke-width="2"/>
      </g>
      <g id="Graphic_253">
        <rect x="78.44262" y="539.1784" width="1944" height="223" fill="white"/>
        <rect x="78.44262" y="539.1784" width="1944" height="223" stroke="#0b73d9" stroke-linecap="round" stroke-linejoin="round" stroke-width="2"/>
      </g>
      <g id="Graphic_28">
        <path d="M 153.25512 581.06535 L 635.2551 581.06535 C 645.19625 581.06535 653.2551 589.1242 653.2551 599.06535 L 653.2551 713.06535 C 653.2551 723.0065 645.19625 731.06535 635.2551 731.06535 L 171.25512 731.06535 C 161.314 731.06535 153.25512 723.0065 153.25512 713.06535 Z" fill="#f3f5f8"/>
        <path d="M 153.25512 581.06535 L 635.2551 581.06535 C 645.19625 581.06535 653.2551 589.1242 653.2551 599.06535 L 653.2551 713.06535 C 653.2551 723.0065 645.19625 731.06535 635.2551 731.06535 L 171.25512 731.06535 C 161.314 731.06535 153.25512 723.0065 153.25512 713.06535 Z" stroke="#d6dce6" stroke-linecap="butt" stroke-linejoin="round" stroke-width="2"/>
        <text transform="translate(158.25512 629.56535)" fill="#172033">
          <tspan font-family="Helvetica" font-size="26" fill="#172033" x="30.379395" y="25">Determine the execution context type</tspan>
          <tspan font-family="Helvetica" font-size="18" fill="#4a566c" x="35.864258" y="49">The type of the target database determined in step 1</tspan>
        </text>
      </g>
      <g id="Graphic_27">
        <title>Text</title>
        <text transform="translate(90.74788 536.56535)" fill="#0b73d9">
          <tspan font-family="Helvetica" font-size="75" fill="#0b73d9" x="0" y="73">3</tspan>
        </text>
      </g>
      <g id="Graphic_153">
        <path d="M 831.6926 565.31584 L 1098.1926 565.31584 C 1105.9246 565.31584 1112.1926 571.58386 1112.1926 579.31584 L 1112.1926 604.31584 C 1112.1926 612.0478 1105.9246 618.31584 1098.1926 618.31584 L 845.6926 618.31584 C 837.9606 618.31584 831.6926 612.0478 831.6926 604.31584 Z" fill="#fafbfc"/>
        <path d="M 831.6926 565.31584 L 1098.1926 565.31584 C 1105.9246 565.31584 1112.1926 571.58386 1112.1926 579.31584 L 1112.1926 604.31584 C 1112.1926 612.0478 1105.9246 618.31584 1098.1926 618.31584 L 845.6926 618.31584 C 837.9606 618.31584 831.6926 612.0478 831.6926 604.31584 Z" stroke="#d6dce6" stroke-linecap="butt" stroke-linejoin="round" stroke-width="2"/>
        <text transform="translate(836.6926 563.81584)" fill="#2b3548">
          <tspan font-family="Helvetica" font-size="23" fill="#2b3548" x="31.682617" y="23">Target database is a </tspan>
          <tspan font-family="Helvetica" font-size="23" fill="#2b3548" x="32.322754" y="51">composite database</tspan>
        </text>
      </g>
      <g id="Graphic_154">
        <path d="M 831.6926 704.1486 L 1098.1926 704.1486 C 1105.9246 704.1486 1112.1926 710.4166 1112.1926 718.1486 L 1112.1926 743.1486 C 1112.1926 750.8806 1105.9246 757.1486 1098.1926 757.1486 L 845.6926 757.1486 C 837.9606 757.1486 831.6926 750.8806 831.6926 743.1486 Z" fill="#fafbfc"/>
        <path d="M 831.6926 704.1486 L 1098.1926 704.1486 C 1105.9246 704.1486 1112.1926 710.4166 1112.1926 718.1486 L 1112.1926 743.1486 C 1112.1926 750.8806 1105.9246 757.1486 1098.1926 757.1486 L 845.6926 757.1486 C 837.9606 757.1486 831.6926 750.8806 831.6926 743.1486 Z" stroke="#d6dce6" stroke-linecap="butt" stroke-linejoin="round" stroke-width="2"/>
        <text transform="translate(836.6926 702.6486)" fill="#2b3548">
          <tspan font-family="Helvetica" font-size="23" fill="#2b3548" x="8.036865" y="23">Target database is in this </tspan>
          <tspan font-family="Helvetica" font-size="23" fill="#2b3548" x="102.02466" y="51">DBMS</tspan>
        </text>
      </g>
      <g id="Graphic_155">
        <path d="M 832.2998 631.1608 L 1098.7998 631.1608 C 1106.5318 631.1608 1112.7998 637.4288 1112.7998 645.1608 L 1112.7998 670.1608 C 1112.7998 677.8928 1106.5318 684.1608 1098.7998 684.1608 L 846.2998 684.1608 C 838.5678 684.1608 832.2998 677.8928 832.2998 670.1608 Z" fill="#fafbfc"/>
        <path d="M 832.2998 631.1608 L 1098.7998 631.1608 C 1106.5318 631.1608 1112.7998 637.4288 1112.7998 645.1608 L 1112.7998 670.1608 C 1112.7998 677.8928 1106.5318 684.1608 1098.7998 684.1608 L 846.2998 684.1608 C 838.5678 684.1608 832.2998 677.8928 832.2998 670.1608 Z" stroke="#d6dce6" stroke-linecap="butt" stroke-linejoin="round" stroke-width="2"/>
        <text transform="translate(837.2998 629.6608)" fill="#2b3548">
          <tspan font-family="Helvetica" font-size="23" fill="#2b3548" x="31.682617" y="23">Target database is a </tspan>
          <tspan font-family="Helvetica" font-size="23" fill="#2b3548" x="72.61206" y="51">remote alias</tspan>
        </text>
      </g>
      <g id="Line_158">
        <line x1="651.6926" y1="656.06535" x2="820.1858" y2="590.7956" marker-end="url(#FilledArrow_Marker)" stroke="#a5a5a5" stroke-linecap="round" stroke-linejoin="round" stroke-width="2"/>
      </g>
      <g id="Line_157">
        <line x1="651.6926" y1="656.81535" x2="820.3998" y2="657.2599" marker-end="url(#FilledArrow_Marker)" stroke="#a5a5a5" stroke-linecap="round" stroke-linejoin="round" stroke-width="2"/>
      </g>
      <g id="Line_156">
        <line x1="651.6926" y1="656.06535" x2="819.889" y2="730.2247" marker-end="url(#FilledArrow_Marker)" stroke="#a5a5a5" stroke-linecap="round" stroke-linejoin="round" stroke-width="2"/>
      </g>
      <g id="Graphic_159">
        <path d="M 1224.9881 705.8369 L 1491.488 705.8369 C 1499.22 705.8369 1505.488 712.1049 1505.488 719.8369 L 1505.488 744.8369 C 1505.488 752.5689 1499.22 758.8369 1491.488 758.8369 L 1238.9881 758.8369 C 1231.2561 758.8369 1224.9881 752.5689 1224.9881 744.8369 Z" fill="#d6dce6"/>
        <path d="M 1224.9881 705.8369 L 1491.488 705.8369 C 1499.22 705.8369 1505.488 712.1049 1505.488 719.8369 L 1505.488 744.8369 C 1505.488 752.5689 1499.22 758.8369 1491.488 758.8369 L 1238.9881 758.8369 C 1231.2561 758.8369 1224.9881 752.5689 1224.9881 744.8369 Z" stroke="#d6dce6" stroke-linecap="butt" stroke-linejoin="round" stroke-width="2"/>
        <text transform="translate(1229.9881 717.8369)" fill="black">
          <tspan font-family="Helvetica" font-size="24" fill="black" x="95.22461" y="23">Internal</tspan>
        </text>
      </g>
      <g id="Graphic_161">
        <path d="M 1221.8063 635.9225 L 1488.3063 635.9225 C 1496.0382 635.9225 1502.3063 642.1905 1502.3063 649.9225 L 1502.3063 674.9225 C 1502.3063 682.6545 1496.0382 688.9225 1488.3063 688.9225 L 1235.8063 688.9225 C 1228.0743 688.9225 1221.8063 682.6545 1221.8063 674.9225 Z" fill="#d6dce6"/>
        <path d="M 1221.8063 635.9225 L 1488.3063 635.9225 C 1496.0382 635.9225 1502.3063 642.1905 1502.3063 649.9225 L 1502.3063 674.9225 C 1502.3063 682.6545 1496.0382 688.9225 1488.3063 688.9225 L 1235.8063 688.9225 C 1228.0743 688.9225 1221.8063 682.6545 1221.8063 674.9225 Z" stroke="#d6dce6" stroke-linecap="butt" stroke-linejoin="round" stroke-width="2"/>
        <text transform="translate(1226.8063 647.9225)" fill="black">
          <tspan font-family="Helvetica" font-size="24" fill="black" x="91.22852" y="23">External</tspan>
        </text>
      </g>
      <g id="Graphic_162">
        <path d="M 1220.6926 565.31584 L 1487.1926 565.31584 C 1494.9246 565.31584 1501.1926 571.58386 1501.1926 579.31584 L 1501.1926 604.31584 C 1501.1926 612.0478 1494.9246 618.31584 1487.1926 618.31584 L 1234.6926 618.31584 C 1226.9606 618.31584 1220.6926 612.0478 1220.6926 604.31584 Z" fill="#d6dce6"/>
        <path d="M 1220.6926 565.31584 L 1487.1926 565.31584 C 1494.9246 565.31584 1501.1926 571.58386 1501.1926 579.31584 L 1501.1926 604.31584 C 1501.1926 612.0478 1494.9246 618.31584 1487.1926 618.31584 L 1234.6926 618.31584 C 1226.9606 618.31584 1220.6926 612.0478 1220.6926 604.31584 Z" stroke="#d6dce6" stroke-linecap="butt" stroke-linejoin="round" stroke-width="2"/>
        <text transform="translate(1225.6926 577.31584)" fill="black">
          <tspan font-family="Helvetica" font-size="24" fill="black" x="75.22656" y="23">Compoisite</tspan>
        </text>
      </g>
      <g id="Line_163">
        <line x1="1113.1926" y1="731.25495" x2="1211.0882" y2="731.6752" marker-end="url(#FilledArrow_Marker)" stroke="#a5a5a5" stroke-linecap="round" stroke-linejoin="round" stroke-width="2"/>
      </g>
      <g id="Line_164">
        <line x1="1113.1926" y1="591.81584" x2="1206.7926" y2="591.81584" marker-end="url(#FilledArrow_Marker)" stroke="#a5a5a5" stroke-linecap="round" stroke-linejoin="round" stroke-width="2"/>
      </g>
      <g id="Line_165">
        <line x1="1113.7998" y1="659.3876" x2="1207.9072" y2="660.538" marker-end="url(#FilledArrow_Marker)" stroke="#a5a5a5" stroke-linecap="round" stroke-linejoin="round" stroke-width="2"/>
      </g>
      <g id="Graphic_252">
        <rect x="75.49" y="46" width="1944" height="223" fill="white"/>
        <rect x="75.49" y="46" width="1944" height="223" stroke="#028bff" stroke-linecap="round" stroke-linejoin="round" stroke-width="2"/>
      </g>
      <g id="Graphic_251">
        <rect x="75.49" y="290.0283" width="1944" height="223" fill="white"/>
        <rect x="75.49" y="290.0283" width="1944" height="223" stroke="#0b73d9" stroke-linecap="round" stroke-linejoin="round" stroke-width="2"/>
      </g>
      <g id="Graphic_26">
        <title>Text</title>
        <text transform="translate(405.23047 508.0283)" fill="#ea0b29">
          <tspan font-family="Helvetica" font-weight="bold" font-size="24" fill="#ea0b29" x="0" y="23">No</tspan>
        </text>
      </g>
      <g id="Graphic_5">
        <path d="M 169 92.5 L 633 92.5 C 642.9411 92.5 651 100.55887 651 110.5 L 651 219.5 C 651 229.44113 642.9411 237.5 633 237.5 L 169 237.5 C 159.05887 237.5 151 229.44113 151 219.5 L 151 110.5 C 151 100.55887 159.05887 92.5 169 92.5 Z" fill="#f3f5f8"/>
        <path d="M 169 92.5 L 633 92.5 C 642.9411 92.5 651 100.55887 651 110.5 L 651 219.5 C 651 229.44113 642.9411 237.5 633 237.5 L 169 237.5 C 159.05887 237.5 151 229.44113 151 219.5 L 151 110.5 C 151 100.55887 159.05887 92.5 169 92.5 Z" stroke="#d6dce6" stroke-linecap="butt" stroke-linejoin="round" stroke-width="2"/>
        <text transform="translate(156 123)" fill="#172033">
          <tspan font-family="Helvetica" font-size="26" fill="#172033" x="69.39209" y="25">Determine the target database </tspan>
          <tspan font-family="Helvetica" font-size="26" fill="#172033" x="135.1665" y="56">(execution context)</tspan>
          <tspan font-family="Helvetica" font-size="18" fill="#4a566c" x="100.42871" y="80">Pick the first source that has a value</tspan>
        </text>
      </g>
      <g id="Graphic_11">
        <path d="M 845 79.17041 L 1097.5 79.17041 C 1105.232 79.17041 1111.5 85.43842 1111.5 93.17041 L 1111.5 115.17041 C 1111.5 122.9024 1105.232 129.17041 1097.5 129.17041 L 845 129.17041 C 837.268 129.17041 831 122.9024 831 115.17041 L 831 93.17041 C 831 85.43842 837.268 79.17041 845 79.17041 Z" fill="#fafbfc"/>
        <path d="M 845 79.17041 L 1097.5 79.17041 C 1105.232 79.17041 1111.5 85.43842 1111.5 93.17041 L 1111.5 115.17041 C 1111.5 122.9024 1105.232 129.17041 1097.5 129.17041 L 845 129.17041 C 837.268 129.17041 831 122.9024 831 115.17041 L 831 93.17041 C 831 85.43842 837.268 79.17041 845 79.17041 Z" stroke="#d6dce6" stroke-linecap="butt" stroke-linejoin="round" stroke-width="2"/>
        <text transform="translate(836 89.67041)" fill="black">
          <tspan font-family="Helvetica" font-size="24" fill="black" x="30.53711" y="23">Cypher USE clause</tspan>
        </text>
      </g>
      <g id="Graphic_13">
        <path d="M 845 137 L 1097.5 137 C 1105.232 137 1111.5 143.26801 1111.5 151 L 1111.5 176 C 1111.5 183.73199 1105.232 190 1097.5 190 L 845 190 C 837.268 190 831 183.73199 831 176 L 831 151 C 831 143.26801 837.268 137 845 137 Z" fill="#fafbfc"/>
        <path d="M 845 137 L 1097.5 137 C 1105.232 137 1111.5 143.26801 1111.5 151 L 1111.5 176 C 1111.5 183.73199 1105.232 190 1097.5 190 L 845 190 C 837.268 190 831 183.73199 831 176 L 831 151 C 831 143.26801 837.268 137 845 137 Z" stroke="#d6dce6" stroke-linecap="butt" stroke-linejoin="round" stroke-width="2"/>
        <text transform="translate(836 149)" fill="#2b3548">
          <tspan font-family="Helvetica" font-size="24" fill="#2b3548" x="6.519531" y="23">Driver session database</tspan>
        </text>
      </g>
      <g id="Graphic_15">
        <path d="M 845 200.5 L 1097.5 200.5 C 1105.232 200.5 1111.5 206.76801 1111.5 214.5 L 1111.5 239.5 C 1111.5 247.232 1105.232 253.5 1097.5 253.5 L 845 253.5 C 837.268 253.5 831 247.232 831 239.5 L 831 214.5 C 831 206.76801 837.268 200.5 845 200.5 Z" fill="#fafbfc"/>
        <path d="M 845 200.5 L 1097.5 200.5 C 1105.232 200.5 1111.5 206.76801 1111.5 214.5 L 1111.5 239.5 C 1111.5 247.232 1105.232 253.5 1097.5 253.5 L 845 253.5 C 837.268 253.5 831 247.232 831 239.5 L 831 214.5 C 831 206.76801 837.268 200.5 845 200.5 Z" stroke="#d6dce6" stroke-linecap="butt" stroke-linejoin="round" stroke-width="2"/>
        <text transform="translate(836 214)" fill="#2b3548">
          <tspan font-family="Helvetica" font-size="22" fill="#2b3548" x="8.669434" y="21">Home or default database</tspan>
        </text>
      </g>
      <g id="Graphic_4">
        <title>Text</title>
        <text transform="translate(83.72192 51.5)" fill="#0b73d9">
          <tspan font-family="Helvetica" font-size="75" fill="#0b73d9" x="0" y="73">1</tspan>
        </text>
      </g>
      <g id="Line_142">
        <line x1="652.5009" y1="164.33845" x2="818.8213" y2="106.25324" marker-end="url(#FilledArrow_Marker_2)" stroke="#a5a5a5" stroke-linecap="round" stroke-linejoin="round" stroke-width="2"/>
      </g>
      <g id="Line_143">
        <line x1="652" y1="164.33976" x2="817.1" y2="163.90548" marker-end="url(#FilledArrow_Marker_2)" stroke="#a5a5a5" stroke-linecap="round" stroke-linejoin="round" stroke-width="2"/>
      </g>
      <g id="Line_144">
        <line x1="651" y1="165" x2="820.8331" y2="224.83818" marker-end="url(#FilledArrow_Marker_2)" stroke="#a5a5a5" stroke-linecap="round" stroke-linejoin="round" stroke-width="2"/>
      </g>
      <g id="Line_149">
        <line x1="401" y1="238.5" x2="401" y2="307.54633" marker-end="url(#FilledArrow_Marker_3)" stroke="#0b73d9" stroke-linecap="round" stroke-linejoin="round" stroke-width="4"/>
      </g>
      <g id="Graphic_19">
        <path d="M 169 327.44633 L 633 327.44633 C 642.9411 327.44633 651 335.5052 651 345.44633 L 651 459.4463 C 651 469.38745 642.9411 477.4463 633 477.4463 L 169 477.4463 C 159.05887 477.4463 151 469.38745 151 459.4463 L 151 345.44633 C 151 335.5052 159.05887 327.44633 169 327.44633 Z" fill="#f3f5f8"/>
        <path d="M 169 327.44633 L 633 327.44633 C 642.9411 327.44633 651 335.5052 651 345.44633 L 651 459.4463 C 651 469.38745 642.9411 477.4463 633 477.4463 L 169 477.4463 C 159.05887 477.4463 151 469.38745 151 459.4463 L 151 345.44633 C 151 335.5052 159.05887 327.44633 169 327.44633 Z" stroke="#d6dce6" stroke-linecap="butt" stroke-linejoin="round" stroke-width="2"/>
        <text transform="translate(156 360.44633)" fill="#172033">
          <tspan font-family="Helvetica" font-size="26" fill="#172033" x="62.904785" y="25">Open transaction already exists</tspan>
          <tspan font-family="Helvetica" font-size="26" fill="#172033" x="106.95752" y="56">for the target database?</tspan>
          <tspan font-family="Helvetica" font-size="18" fill="#4a566c" x="182.47021" y="80">Local or remote</tspan>
        </text>
      </g>
      <g id="Graphic_22">
        <title>Text</title>
        <text transform="translate(754.3555 360.44633)" fill="#0b73d9">
          <tspan font-family="Helvetica" font-weight="bold" font-size="24" fill="#0b73d9" x="0" y="23">Yes</tspan>
        </text>
      </g>
      <g id="Graphic_18">
        <title>Text</title>
        <text transform="translate(86.38859 287.5)" fill="#0b73d9">
          <tspan font-family="Helvetica" font-size="75" fill="#0b73d9" x="0" y="73">2</tspan>
        </text>
      </g>
      <g id="Graphic_146">
        <path d="M 900 375.5911 L 1152.5 375.5911 C 1160.232 375.5911 1166.5 381.8591 1166.5 389.5911 L 1166.5 414.5911 C 1166.5 422.3231 1160.232 428.5911 1152.5 428.5911 L 900 428.5911 C 892.268 428.5911 886 422.3231 886 414.5911 L 886 389.5911 C 886 381.8591 892.268 375.5911 900 375.5911 Z" fill="#0b73d9" fill-opacity=".7034328"/>
        <path d="M 900 375.5911 L 1152.5 375.5911 C 1160.232 375.5911 1166.5 381.8591 1166.5 389.5911 L 1166.5 414.5911 C 1166.5 422.3231 1160.232 428.5911 1152.5 428.5911 L 900 428.5911 C 892.268 428.5911 886 422.3231 886 414.5911 L 886 389.5911 C 886 381.8591 892.268 375.5911 900 375.5911 Z" stroke="#0b73d9" stroke-linecap="butt" stroke-linejoin="round" stroke-width="2"/>
        <text transform="translate(891 389.0911)" fill="#2b3548">
          <tspan font-family="Helvetica" font-size="22" fill="#2b3548" x="11.129395" y="21">Proceed directly to step 6</tspan>
        </text>
      </g>
      <g id="Line_151">
        <line x1="652" y1="402.30372" x2="866.1" y2="402.1821" marker-end="url(#FilledArrow_Marker_3)" stroke="#0b73d9" stroke-linecap="round" stroke-linejoin="round" stroke-width="4"/>
      </g>
      <g id="Graphic_77">
        <title>Text</title>
      </g>
      <g id="Group_300">
        <g id="Graphic_272">
          <rect x="80" y="781.1639" width="1944" height="1308.7739" fill="white"/>
          <rect x="80" y="781.1639" width="1944" height="1308.7739" stroke="#0b73d9" stroke-linecap="round" stroke-linejoin="round" stroke-width="2"/>
        </g>
        <g id="Group_299">
          <g id="Graphic_51">
            <path d="M 169.98567 825.9455 L 633.9857 825.9455 C 643.9268 825.9455 651.9857 834.0043 651.9857 843.9455 L 651.9857 947.9455 C 651.9857 957.8866 643.9268 965.9455 633.9857 965.9455 L 169.98567 965.9455 C 160.04454 965.9455 151.98567 957.8866 151.98567 947.9455 L 151.98567 843.9455 C 151.98567 834.0043 160.04454 825.9455 169.98567 825.9455 Z" fill="#f3f5f8"/>
            <path d="M 169.98567 825.9455 L 633.9857 825.9455 C 643.9268 825.9455 651.9857 834.0043 651.9857 843.9455 L 651.9857 947.9455 C 651.9857 957.8866 643.9268 965.9455 633.9857 965.9455 L 169.98567 965.9455 C 160.04454 965.9455 151.98567 957.8866 151.98567 947.9455 L 151.98567 843.9455 C 151.98567 834.0043 160.04454 825.9455 169.98567 825.9455 Z" stroke="#0b73d9" stroke-linecap="butt" stroke-linejoin="round" stroke-width="2"/>
            <text transform="translate(156.98567 880.4455)" fill="#172033">
              <tspan font-family="Helvetica" font-size="26" fill="#172033" x="41.214844" y="25">Determine the location of execution</tspan>
            </text>
          </g>
          <g id="Graphic_50">
            <title>Text</title>
            <text transform="translate(95.43621 780.6639)" fill="#0b73d9">
              <tspan font-family="Helvetica" font-size="75" fill="#0b73d9" x="0" y="73">4</tspan>
            </text>
          </g>
          <g id="Graphic_88">
            <path d="M 1584.918 1037.835 L 1846.918 1037.835 C 1854.65 1037.835 1860.918 1044.103 1860.918 1051.835 L 1860.918 1103.835 C 1860.918 1111.567 1854.65 1117.835 1846.918 1117.835 L 1584.918 1117.835 C 1577.186 1117.835 1570.918 1111.567 1570.918 1103.835 L 1570.918 1051.835 C 1570.918 1044.103 1577.186 1037.835 1584.918 1037.835 Z" fill="#e9f3ff"/>
            <path d="M 1584.918 1037.835 L 1846.918 1037.835 C 1854.65 1037.835 1860.918 1044.103 1860.918 1051.835 L 1860.918 1103.835 C 1860.918 1111.567 1854.65 1117.835 1846.918 1117.835 L 1584.918 1117.835 C 1577.186 1117.835 1570.918 1111.567 1570.918 1103.835 L 1570.918 1051.835 C 1570.918 1044.103 1577.186 1037.835 1584.918 1037.835 Z" stroke="#0b73d9" stroke-linecap="butt" stroke-linejoin="round" stroke-width="2"/>
            <text transform="translate(1575.918 1063.835)" fill="black">
              <tspan font-family="Helvetica" font-size="23" fill="black" x="112.50781" y="23">Local</tspan>
            </text>
          </g>
          <g id="Graphic_190">
            <path d="M 257.91803 1037.835 L 509.91803 1037.835 C 517.65 1037.835 523.91803 1044.103 523.91803 1051.835 L 523.91803 1113.835 C 523.91803 1121.567 517.65 1127.835 509.91803 1127.835 L 257.91803 1127.835 C 250.18605 1127.835 243.91803 1121.567 243.91803 1113.835 L 243.91803 1051.835 C 243.91803 1044.103 250.18605 1037.835 257.91803 1037.835 Z" fill="#d6dce6"/>
            <path d="M 257.91803 1037.835 L 509.91803 1037.835 C 517.65 1037.835 523.91803 1044.103 523.91803 1051.835 L 523.91803 1113.835 C 523.91803 1121.567 517.65 1127.835 509.91803 1127.835 L 257.91803 1127.835 C 250.18605 1127.835 243.91803 1121.567 243.91803 1113.835 L 243.91803 1051.835 C 243.91803 1044.103 250.18605 1037.835 257.91803 1037.835 Z" stroke="#0b73d9" stroke-linecap="butt" stroke-linejoin="round" stroke-width="2"/>
            <text transform="translate(248.91803 1067.335)" fill="black">
              <tspan font-family="Helvetica" font-size="26" fill="black" x="72.86279" y="25">Composite</tspan>
            </text>
          </g>
          <g id="Graphic_191">
            <path d="M 257.91803 1218.8523 L 509.91803 1218.8523 C 517.65 1218.8523 523.91803 1225.1203 523.91803 1232.8523 L 523.91803 1294.8523 C 523.91803 1302.5843 517.65 1308.8523 509.91803 1308.8523 L 257.91803 1308.8523 C 250.18605 1308.8523 243.91803 1302.5843 243.91803 1294.8523 L 243.91803 1232.8523 C 243.91803 1225.1203 250.18605 1218.8523 257.91803 1218.8523 Z" fill="#d6dce6"/>
            <path d="M 257.91803 1218.8523 L 509.91803 1218.8523 C 517.65 1218.8523 523.91803 1225.1203 523.91803 1232.8523 L 523.91803 1294.8523 C 523.91803 1302.5843 517.65 1308.8523 509.91803 1308.8523 L 257.91803 1308.8523 C 250.18605 1308.8523 243.91803 1302.5843 243.91803 1294.8523 L 243.91803 1232.8523 C 243.91803 1225.1203 250.18605 1218.8523 257.91803 1218.8523 Z" stroke="#0b73d9" stroke-linecap="butt" stroke-linejoin="round" stroke-width="2"/>
            <text transform="translate(248.91803 1248.3523)" fill="black">
              <tspan font-family="Helvetica" font-size="26" fill="black" x="87.31006" y="25">External</tspan>
            </text>
          </g>
          <g id="Graphic_192"/>
          <g id="Line_207">
            <line x1="524.91803" y1="1082.3058" x2="1557.0181" y2="1078.4315" marker-end="url(#FilledArrow_Marker_4)" stroke="#0b73d9" stroke-linecap="round" stroke-linejoin="round" stroke-width="2"/>
          </g>
          <g id="Graphic_66">
            <path d="M 261.91803 1399.8696 L 513.91803 1399.8696 C 521.65 1399.8696 527.91803 1406.1376 527.91803 1413.8696 L 527.91803 1475.8696 C 527.91803 1483.6016 521.65 1489.8696 513.91803 1489.8696 L 261.91803 1489.8696 C 254.18605 1489.8696 247.91803 1483.6016 247.91803 1475.8696 L 247.91803 1413.8696 C 247.91803 1406.1376 254.18605 1399.8696 261.91803 1399.8696 Z" fill="#d6dce6"/>
            <path d="M 261.91803 1399.8696 L 513.91803 1399.8696 C 521.65 1399.8696 527.91803 1406.1376 527.91803 1413.8696 L 527.91803 1475.8696 C 527.91803 1483.6016 521.65 1489.8696 513.91803 1489.8696 L 261.91803 1489.8696 C 254.18605 1489.8696 247.91803 1483.6016 247.91803 1475.8696 L 247.91803 1413.8696 C 247.91803 1406.1376 254.18605 1399.8696 261.91803 1399.8696 Z" stroke="#0b73d9" stroke-linecap="butt" stroke-linejoin="round" stroke-width="2"/>
            <text transform="translate(252.91803 1429.3696)" fill="black">
              <tspan font-family="Helvetica" font-size="26" fill="black" x="91.63916" y="25">Internal</tspan>
            </text>
          </g>
          <g id="Graphic_80">
            <path d="M 1102.995 1576.1904 L 1358.995 1576.1904 C 1365.6224 1576.1904 1370.995 1581.563 1370.995 1588.1904 L 1370.995 1654.1904 C 1370.995 1660.8178 1365.6224 1666.1904 1358.995 1666.1904 L 1102.995 1666.1904 C 1096.3675 1666.1904 1090.995 1660.8178 1090.995 1654.1904 L 1090.995 1588.1904 C 1090.995 1581.563 1096.3675 1576.1904 1102.995 1576.1904 Z" stroke="#0b73d9" stroke-linecap="butt" stroke-linejoin="round" stroke-width="2"/>
            <text transform="translate(1095.995 1590.1904)" fill="#2b3548">
              <tspan font-family="Helvetica" font-size="26" fill="#2b3548" x="3.4575195" y="25">Is the database hosted </tspan>
              <tspan font-family="Helvetica" font-size="26" fill="#2b3548" x="49.73828" y="56">on this server?</tspan>
            </text>
          </g>
          <g id="Graphic_92">
            <path d="M 1101.2913 1766.482 L 1363.2913 1766.482 C 1371.0232 1766.482 1377.2913 1772.75 1377.2913 1780.482 L 1377.2913 1816.2315 C 1377.2913 1823.9635 1371.0232 1830.2315 1363.2913 1830.2315 L 1101.2913 1830.2315 C 1093.5593 1830.2315 1087.2913 1823.9635 1087.2913 1816.2315 L 1087.2913 1780.482 C 1087.2913 1772.75 1093.5593 1766.482 1101.2913 1766.482 Z" fill="white"/>
            <path d="M 1101.2913 1766.482 L 1363.2913 1766.482 C 1371.0232 1766.482 1377.2913 1772.75 1377.2913 1780.482 L 1377.2913 1816.2315 C 1377.2913 1823.9635 1371.0232 1830.2315 1363.2913 1830.2315 L 1101.2913 1830.2315 C 1093.5593 1830.2315 1087.2913 1823.9635 1087.2913 1816.2315 L 1087.2913 1780.482 C 1087.2913 1772.75 1093.5593 1766.482 1101.2913 1766.482 Z" stroke="#0b73d9" stroke-linecap="butt" stroke-linejoin="round" stroke-width="2"/>
            <text transform="translate(1092.2913 1767.3567)" fill="black">
              <tspan font-family="Helvetica" font-size="26" fill="black" x="18.620117" y="25">Is server-side routing </tspan>
              <tspan font-family="Helvetica" font-size="26" fill="black" x="86.50195" y="56">enabled?</tspan>
            </text>
          </g>
          <g id="Graphic_99">
            <title>Text</title>
            <text transform="translate(1029.2789 1771.5375)" fill="#465166">
              <tspan font-family="Helvetica" font-size="17" fill="#465166" x="0" y="16">No</tspan>
            </text>
          </g>
          <g id="Graphic_100">
            <path d="M 893.918 1770.878 L 959.918 1770.878 C 973.7252 1770.878 984.918 1782.071 984.918 1795.878 L 984.918 1795.878 C 984.918 1809.6852 973.7252 1820.878 959.918 1820.878 L 893.918 1820.878 C 880.1109 1820.878 868.918 1809.6852 868.918 1795.878 L 868.918 1795.878 C 868.918 1782.071 880.1109 1770.878 893.918 1770.878 Z" fill="#ffe2e8"/>
            <path d="M 893.918 1770.878 L 959.918 1770.878 C 973.7252 1770.878 984.918 1782.071 984.918 1795.878 L 984.918 1795.878 C 984.918 1809.6852 973.7252 1820.878 959.918 1820.878 L 893.918 1820.878 C 880.1109 1820.878 868.918 1809.6852 868.918 1795.878 L 868.918 1795.878 C 868.918 1782.071 880.1109 1770.878 893.918 1770.878 Z" stroke="#0b73d9" stroke-linecap="butt" stroke-linejoin="round" stroke-width="2"/>
            <text transform="translate(873.918 1786.654)" fill="black">
              <tspan font-family="Helvetica Neue" font-size="16" fill="black" x="40.56" y="15">Fail</tspan>
            </text>
          </g>
          <g id="Graphic_196">
            <path d="M 1589.918 1745.878 L 1851.918 1745.878 C 1859.65 1745.878 1865.918 1752.146 1865.918 1759.878 L 1865.918 1831.878 C 1865.918 1839.61 1859.65 1845.878 1851.918 1845.878 L 1589.918 1845.878 C 1582.186 1845.878 1575.918 1839.61 1575.918 1831.878 L 1575.918 1759.878 C 1575.918 1752.146 1582.186 1745.878 1589.918 1745.878 Z" fill="#fff3df"/>
            <path d="M 1589.918 1745.878 L 1851.918 1745.878 C 1859.65 1745.878 1865.918 1752.146 1865.918 1759.878 L 1865.918 1831.878 C 1865.918 1839.61 1859.65 1845.878 1851.918 1845.878 L 1589.918 1845.878 C 1582.186 1845.878 1575.918 1839.61 1575.918 1831.878 L 1575.918 1759.878 C 1575.918 1752.146 1582.186 1745.878 1589.918 1745.878 Z" stroke="#0b73d9" stroke-linecap="butt" stroke-linejoin="round" stroke-width="2"/>
            <text transform="translate(1580.918 1758.51)" fill="black">
              <tspan font-family="Helvetica Neue" font-size="26" fill="black" x="94.487" y="25">Remote</tspan>
              <tspan font-family="Helvetica Neue" font-size="18" fill="#4a566c" x="28.139" y="48.727997">using the routing advertised </tspan>
              <tspan font-family="Helvetica Neue" font-size="18" fill="#4a566c" x="52.322" y="70.231995">address of that server</tspan>
            </text>
          </g>
          <g id="Graphic_197">
            <path d="M 739.6915 1584.4436 L 964.7182 1584.4436 C 971.3456 1584.4436 976.7182 1589.8161 976.7182 1596.4436 L 976.7182 1642.1936 C 976.7182 1648.821 971.3456 1654.1936 964.7182 1654.1936 L 739.6915 1654.1936 C 733.06405 1654.1936 727.6915 1648.821 727.6915 1642.1936 L 727.6915 1596.4436 C 727.6915 1589.8161 733.06405 1584.4436 739.6915 1584.4436 Z" fill="#f6f8fb"/>
            <path d="M 739.6915 1584.4436 L 964.7182 1584.4436 C 971.3456 1584.4436 976.7182 1589.8161 976.7182 1596.4436 L 976.7182 1642.1936 C 976.7182 1648.821 971.3456 1654.1936 964.7182 1654.1936 L 739.6915 1654.1936 C 733.06405 1654.1936 727.6915 1648.821 727.6915 1642.1936 L 727.6915 1596.4436 C 727.6915 1589.8161 733.06405 1584.4436 739.6915 1584.4436 Z" stroke="#0b73d9" stroke-linecap="butt" stroke-linejoin="round" stroke-width="2"/>
            <text transform="translate(732.6915 1588.3186)" fill="black">
              <tspan font-family="Helvetica" font-size="26" fill="black" x="15.938637" y="25">Transaction mode </tspan>
              <tspan font-family="Helvetica" font-size="26" fill="black" x="83.39518" y="56">READ</tspan>
            </text>
          </g>
          <g id="Graphic_200">
            <path d="M 739.6915 1407.9946 L 979.6915 1407.9946 C 986.3189 1407.9946 991.6915 1413.3672 991.6915 1419.9946 L 991.6915 1469.7446 C 991.6915 1476.372 986.3189 1481.7446 979.6915 1481.7446 L 739.6915 1481.7446 C 733.06405 1481.7446 727.6915 1476.372 727.6915 1469.7446 L 727.6915 1419.9946 C 727.6915 1413.3672 733.06405 1407.9946 739.6915 1407.9946 Z" fill="#f6f8fb"/>
            <path d="M 739.6915 1407.9946 L 979.6915 1407.9946 C 986.3189 1407.9946 991.6915 1413.3672 991.6915 1419.9946 L 991.6915 1469.7446 C 991.6915 1476.372 986.3189 1481.7446 979.6915 1481.7446 L 739.6915 1481.7446 C 733.06405 1481.7446 727.6915 1476.372 727.6915 1469.7446 L 727.6915 1419.9946 C 727.6915 1413.3672 733.06405 1407.9946 739.6915 1407.9946 Z" stroke="#0b73d9" stroke-linecap="butt" stroke-linejoin="round" stroke-width="2"/>
            <text transform="translate(732.6915 1429.3696)" fill="black">
              <tspan font-family="Helvetica" font-size="26" fill="black" x="20.07373" y="25">bolt:// URI scheme</tspan>
            </text>
          </g>
          <g id="Graphic_201">
            <path d="M 739.6915 1942.6146 L 959.4649 1942.6146 C 966.0923 1942.6146 971.4649 1947.9871 971.4649 1954.6146 L 971.4649 2000.3646 C 971.4649 2006.992 966.0923 2012.3646 959.4649 2012.3646 L 739.6915 2012.3646 C 733.06405 2012.3646 727.6915 2006.992 727.6915 2000.3646 L 727.6915 1954.6146 C 727.6915 1947.9871 733.06405 1942.6146 739.6915 1942.6146 Z" fill="#f6f8fb"/>
            <path d="M 739.6915 1942.6146 L 959.4649 1942.6146 C 966.0923 1942.6146 971.4649 1947.9871 971.4649 1954.6146 L 971.4649 2000.3646 C 971.4649 2006.992 966.0923 2012.3646 959.4649 2012.3646 L 739.6915 2012.3646 C 733.06405 2012.3646 727.6915 2006.992 727.6915 2000.3646 L 727.6915 1954.6146 C 727.6915 1947.9871 733.06405 1942.6146 739.6915 1942.6146 Z" stroke="#0b73d9" stroke-linecap="butt" stroke-linejoin="round" stroke-width="2"/>
            <text transform="translate(732.6915 1946.4896)" fill="black">
              <tspan font-family="Helvetica" font-size="26" fill="black" x="13.312012" y="25">Transaction mode </tspan>
              <tspan font-family="Helvetica" font-size="26" fill="black" x="75.00488" y="56">WRITE</tspan>
            </text>
          </g>
          <g id="Line_202">
            <line x1="528.91803" y1="1444.8696" x2="713.7915" y2="1444.8696" marker-end="url(#FilledArrow_Marker_4)" stroke="#0b73d9" stroke-linecap="round" stroke-linejoin="round" stroke-width="2"/>
          </g>
          <g id="Graphic_218">
            <path d="M 1104.995 1931.1933 L 1366.995 1931.1933 C 1374.727 1931.1933 1380.995 1937.4613 1380.995 1945.1933 L 1380.995 2017.1933 C 1380.995 2024.9253 1374.727 2031.1933 1366.995 2031.1933 L 1104.995 2031.1933 C 1097.263 2031.1933 1090.995 2024.9253 1090.995 2017.1933 L 1090.995 1945.1933 C 1090.995 1937.4613 1097.263 1931.1933 1104.995 1931.1933 Z" fill="white"/>
            <path d="M 1104.995 1931.1933 L 1366.995 1931.1933 C 1374.727 1931.1933 1380.995 1937.4613 1380.995 1945.1933 L 1380.995 2017.1933 C 1380.995 2024.9253 1374.727 2031.1933 1366.995 2031.1933 L 1104.995 2031.1933 C 1097.263 2031.1933 1090.995 2024.9253 1090.995 2017.1933 L 1090.995 1945.1933 C 1090.995 1937.4613 1097.263 1931.1933 1104.995 1931.1933 Z" stroke="#0b73d9" stroke-linecap="butt" stroke-linejoin="round" stroke-width="2"/>
            <text transform="translate(1095.995 1934.6933)" fill="black">
              <tspan font-family="Helvetica" font-size="26" fill="black" x="8.45752" y="25">Is the database hosted </tspan>
              <tspan font-family="Helvetica" font-size="26" fill="black" x=".5356445" y="56">on this server the leader </tspan>
              <tspan font-family="Helvetica" font-size="26" fill="black" x="35.200195" y="87">for that database?</tspan>
            </text>
          </g>
          <g id="Line_219">
            <line x1="992.6915" y1="1444.3692" x2="1557.0181" y2="1442.2458" marker-end="url(#FilledArrow_Marker_4)" stroke="#0b73d9" stroke-linecap="round" stroke-linejoin="round" stroke-width="2"/>
          </g>
          <g id="Graphic_220">
            <path d="M 1584.918 1401.648 L 1846.918 1401.648 C 1854.65 1401.648 1860.918 1407.916 1860.918 1415.648 L 1860.918 1467.648 C 1860.918 1475.38 1854.65 1481.648 1846.918 1481.648 L 1584.918 1481.648 C 1577.186 1481.648 1570.918 1475.38 1570.918 1467.648 L 1570.918 1415.648 C 1570.918 1407.916 1577.186 1401.648 1584.918 1401.648 Z" fill="#e9f3ff"/>
            <path d="M 1584.918 1401.648 L 1846.918 1401.648 C 1854.65 1401.648 1860.918 1407.916 1860.918 1415.648 L 1860.918 1467.648 C 1860.918 1475.38 1854.65 1481.648 1846.918 1481.648 L 1584.918 1481.648 C 1577.186 1481.648 1570.918 1475.38 1570.918 1467.648 L 1570.918 1415.648 C 1570.918 1407.916 1577.186 1401.648 1584.918 1401.648 Z" stroke="#0b73d9" stroke-linecap="butt" stroke-linejoin="round" stroke-width="2"/>
            <text transform="translate(1575.918 1427.648)" fill="black">
              <tspan font-family="Helvetica" font-size="23" fill="black" x="112.50781" y="23">Local</tspan>
            </text>
          </g>
          <g id="Line_221">
            <line x1="488.19596" y1="1490.8696" x2="729.1912" y2="1601.4202" marker-end="url(#FilledArrow_Marker_4)" stroke="#0b73d9" stroke-linecap="round" stroke-linejoin="round" stroke-width="2"/>
          </g>
          <g id="Line_222">
            <line x1="1231.3315" y1="1667.1904" x2="1231.9563" y2="1752.5823" marker-end="url(#FilledArrow_Marker_4)" stroke="#0b73d9" stroke-linecap="round" stroke-linejoin="round" stroke-width="2"/>
          </g>
          <g id="Line_223">
            <line x1="1378.2913" y1="1797.616" x2="1562.0182" y2="1796.6841" marker-end="url(#FilledArrow_Marker_4)" stroke="#0b73d9" stroke-linecap="round" stroke-linejoin="round" stroke-width="2"/>
          </g>
          <g id="Line_224">
            <line x1="1086.2913" y1="1797.1717" x2="998.8133" y2="1796.4616" marker-end="url(#FilledArrow_Marker_4)" stroke="#0b73d9" stroke-linecap="round" stroke-linejoin="round" stroke-width="2"/>
          </g>
          <g id="Graphic_225">
            <title>Text</title>
            <text transform="translate(1462.7382 1765.3523)" fill="#465166">
              <tspan font-family="Helvetica" font-size="17" fill="#465166" x="0" y="16">Yes</tspan>
            </text>
          </g>
          <g id="Line_226">
            <line x1="977.7182" y1="1619.9388" x2="1077.0951" y2="1620.4299" marker-end="url(#FilledArrow_Marker_4)" stroke="#0b73d9" stroke-linecap="round" stroke-linejoin="round" stroke-width="2"/>
          </g>
          <g id="Graphic_227">
            <title>Text</title>
            <text transform="translate(1460.73 1593.3523)" fill="#465166">
              <tspan font-family="Helvetica" font-size="17" fill="#465166" x="0" y="16">Yes</tspan>
            </text>
          </g>
          <g id="Line_228">
            <line x1="1371.995" y1="1620.6461" x2="1557.0181" y2="1619.932" marker-end="url(#FilledArrow_Marker_4)" stroke="#0b73d9" stroke-linecap="round" stroke-linejoin="round" stroke-width="2"/>
          </g>
          <g id="Graphic_229">
            <path d="M 1584.918 1579.3186 L 1846.918 1579.3186 C 1854.65 1579.3186 1860.918 1585.5866 1860.918 1593.3186 L 1860.918 1645.3186 C 1860.918 1653.0506 1854.65 1659.3186 1846.918 1659.3186 L 1584.918 1659.3186 C 1577.186 1659.3186 1570.918 1653.0506 1570.918 1645.3186 L 1570.918 1593.3186 C 1570.918 1585.5866 1577.186 1579.3186 1584.918 1579.3186 Z" fill="#e9f3ff"/>
            <path d="M 1584.918 1579.3186 L 1846.918 1579.3186 C 1854.65 1579.3186 1860.918 1585.5866 1860.918 1593.3186 L 1860.918 1645.3186 C 1860.918 1653.0506 1854.65 1659.3186 1846.918 1659.3186 L 1584.918 1659.3186 C 1577.186 1659.3186 1570.918 1653.0506 1570.918 1645.3186 L 1570.918 1593.3186 C 1570.918 1585.5866 1577.186 1579.3186 1584.918 1579.3186 Z" stroke="#0b73d9" stroke-linecap="butt" stroke-linejoin="round" stroke-width="2"/>
            <text transform="translate(1575.918 1605.3186)" fill="black">
              <tspan font-family="Helvetica" font-size="23" fill="black" x="112.50781" y="23">Local</tspan>
            </text>
          </g>
          <g id="Graphic_230">
            <title>Text</title>
            <text transform="translate(1242.2789 1690.3696)" fill="#465166">
              <tspan font-family="Helvetica" font-size="17" fill="#465166" x="0" y="16">No</tspan>
            </text>
          </g>
          <g id="Line_233">
            <line x1="427.78955" y1="1490.8696" x2="810.0335" y2="1931.8667" marker-end="url(#FilledArrow_Marker_4)" stroke="#0b73d9" stroke-linecap="round" stroke-linejoin="round" stroke-width="2"/>
          </g>
          <g id="Graphic_275">
            <title>Text</title>
            <text transform="translate(1460.73 1953.945)" fill="#465166">
              <tspan font-family="Helvetica" font-size="17" fill="#465166" x="0" y="16">Yes</tspan>
            </text>
          </g>
          <g id="Line_276">
            <line x1="1381.995" y1="1981.578" x2="1562.018" y2="1982.0521" marker-end="url(#FilledArrow_Marker_4)" stroke="#0b73d9" stroke-linecap="round" stroke-linejoin="round" stroke-width="2"/>
          </g>
          <g id="Graphic_278">
            <path d="M 1589.918 1942.4708 L 1851.918 1942.4708 C 1859.65 1942.4708 1865.918 1948.7388 1865.918 1956.4708 L 1865.918 2008.4708 C 1865.918 2016.2027 1859.65 2022.4708 1851.918 2022.4708 L 1589.918 2022.4708 C 1582.186 2022.4708 1575.918 2016.2027 1575.918 2008.4708 L 1575.918 1956.4708 C 1575.918 1948.7388 1582.186 1942.4708 1589.918 1942.4708 Z" fill="#e9f3ff"/>
            <path d="M 1589.918 1942.4708 L 1851.918 1942.4708 C 1859.65 1942.4708 1865.918 1948.7388 1865.918 1956.4708 L 1865.918 2008.4708 C 1865.918 2016.2027 1859.65 2022.4708 1851.918 2022.4708 L 1589.918 2022.4708 C 1582.186 2022.4708 1575.918 2016.2027 1575.918 2008.4708 L 1575.918 1956.4708 C 1575.918 1948.7388 1582.186 1942.4708 1589.918 1942.4708 Z" stroke="#0b73d9" stroke-linecap="butt" stroke-linejoin="round" stroke-width="2"/>
            <text transform="translate(1580.918 1968.4708)" fill="black">
              <tspan font-family="Helvetica" font-size="23" fill="black" x="112.50781" y="23">Local</tspan>
            </text>
          </g>
          <g id="Line_279">
            <line x1="1234.9619" y1="1930.1933" x2="1233.2185" y2="1844.1288" marker-end="url(#FilledArrow_Marker_4)" stroke="#0b73d9" stroke-linecap="round" stroke-linejoin="round" stroke-width="2"/>
          </g>
          <g id="Graphic_280">
            <title>Text</title>
            <text transform="translate(1208.2789 1870.5914)" fill="#465166">
              <tspan font-family="Helvetica" font-size="17" fill="#465166" x="0" y="16">No</tspan>
            </text>
          </g>
          <g id="Line_288">
            <line x1="972.4649" y1="1978.6674" x2="1077.0955" y2="1979.6703" marker-end="url(#FilledArrow_Marker_4)" stroke="#0b73d9" stroke-linecap="round" stroke-linejoin="round" stroke-width="2"/>
          </g>
          <g id="Line_290">
            <line x1="524.91803" y1="1263.323" x2="1557.0181" y2="1259.4488" marker-end="url(#FilledArrow_Marker_4)" stroke="#0b73d9" stroke-linecap="round" stroke-linejoin="round" stroke-width="2"/>
          </g>
          <g id="Graphic_289">
            <path d="M 1584.918 1218.8523 L 1846.918 1218.8523 C 1854.65 1218.8523 1860.918 1225.1203 1860.918 1232.8523 L 1860.918 1284.8523 C 1860.918 1292.5843 1854.65 1298.8523 1846.918 1298.8523 L 1584.918 1298.8523 C 1577.186 1298.8523 1570.918 1292.5843 1570.918 1284.8523 L 1570.918 1232.8523 C 1570.918 1225.1203 1577.186 1218.8523 1584.918 1218.8523 Z" fill="#e9f3ff"/>
            <path d="M 1584.918 1218.8523 L 1846.918 1218.8523 C 1854.65 1218.8523 1860.918 1225.1203 1860.918 1232.8523 L 1860.918 1284.8523 C 1860.918 1292.5843 1854.65 1298.8523 1846.918 1298.8523 L 1584.918 1298.8523 C 1577.186 1298.8523 1570.918 1292.5843 1570.918 1284.8523 L 1570.918 1232.8523 C 1570.918 1225.1203 1577.186 1218.8523 1584.918 1218.8523 Z" stroke="#0b73d9" stroke-linecap="butt" stroke-linejoin="round" stroke-width="2"/>
            <text transform="translate(1575.918 1233.8523)" fill="black">
              <tspan font-family="Helvetica" font-size="23" fill="black" x="112.50781" y="23">Local</tspan>
              <tspan font-family="Helvetica" font-size="18" fill="#4a566c" x="44.950684" y="46">for this part of the query</tspan>
            </text>
          </g>
          <g id="Line_292">
            <path d="M 201.91803 968.8523 L 200.91803 1448.6805 L 198.09985 1443.0341 L 246.91803 1443.5062" stroke="#0b73d9" stroke-linecap="round" stroke-linejoin="round" stroke-width="2"/>
          </g>
          <g id="Line_294">
            <line x1="201.6838" y1="1081.2398" x2="242.91803" y2="1081.6007" stroke="#0b73d9" stroke-linecap="round" stroke-linejoin="round" stroke-width="2"/>
          </g>
          <g id="Line_295">
            <line x1="201.30476" y1="1263.1158" x2="242.91803" y2="1263.2836" stroke="#0b73d9" stroke-linecap="round" stroke-linejoin="round" stroke-width="2"/>
          </g>
        </g>
      </g>
      <g id="Line_152">
        <line x1="400" y1="730" x2="400.90996" y2="806.0468" marker-end="url(#FilledArrow_Marker_3)" stroke="#0b73d9" stroke-linecap="round" stroke-linejoin="round" stroke-width="4"/>
      </g>
      <g id="Line_302">
        <line x1="956.8229" y1="2089.9378" x2="841.5513" y2="2179.4112" marker-end="url(#FilledArrow_Marker_3)" stroke="#0b73d9" stroke-linecap="round" stroke-linejoin="round" stroke-width="4"/>
      </g>
      <g id="Graphic_303">
        <path d="M 552.7649 2192 L 939.2351 2192 C 946.9671 2192 953.2351 2198.268 953.2351 2206 L 953.2351 2301.1557 C 953.2351 2308.8876 946.9671 2315.1557 939.2351 2315.1557 L 552.7649 2315.1557 C 545.0329 2315.1557 538.7649 2308.8876 538.7649 2301.1557 L 538.7649 2206 C 538.7649 2198.268 545.0329 2192 552.7649 2192 Z" fill="#e9f3ff"/>
        <path d="M 552.7649 2192 L 939.2351 2192 C 946.9671 2192 953.2351 2198.268 953.2351 2206 L 953.2351 2301.1557 C 953.2351 2308.8876 946.9671 2315.1557 939.2351 2315.1557 L 552.7649 2315.1557 C 545.0329 2315.1557 538.7649 2308.8876 538.7649 2301.1557 L 538.7649 2206 C 538.7649 2198.268 545.0329 2192 552.7649 2192 Z" stroke="#b8d4f2" stroke-linecap="butt" stroke-linejoin="round" stroke-width="2"/>
        <text transform="translate(543.7649 2206.7138)" fill="black">
          <tspan font-family="Helvetica Neue" font-size="26" fill="black" x="170.6971" y="25">Local</tspan>
          <tspan font-family="Helvetica" font-size="26" fill="#172033" x="92.38892" y="56.728">Open a transaction</tspan>
          <tspan font-family="Helvetica" font-size="26" fill="#172033" x="30.962646" y="87.728">to the database on this server</tspan>
        </text>
      </g>
      <g id="Graphic_304">
        <path d="M 1164.7649 2192 L 1551.2351 2192 C 1558.9671 2192 1565.2351 2198.268 1565.2351 2206 L 1565.2351 2301.1557 C 1565.2351 2308.8876 1558.9671 2315.1557 1551.2351 2315.1557 L 1164.7649 2315.1557 C 1157.0329 2315.1557 1150.7649 2308.8876 1150.7649 2301.1557 L 1150.7649 2206 C 1150.7649 2198.268 1157.0329 2192 1164.7649 2192 Z" fill="#fff3df"/>
        <path d="M 1164.7649 2192 L 1551.2351 2192 C 1558.9671 2192 1565.2351 2198.268 1565.2351 2206 L 1565.2351 2301.1557 C 1565.2351 2308.8876 1558.9671 2315.1557 1551.2351 2315.1557 L 1164.7649 2315.1557 C 1157.0329 2315.1557 1150.7649 2308.8876 1150.7649 2301.1557 L 1150.7649 2206 C 1150.7649 2198.268 1157.0329 2192 1164.7649 2192 Z" stroke="#efd29d" stroke-linecap="butt" stroke-linejoin="round" stroke-width="2"/>
        <text transform="translate(1155.7649 2206.7138)" fill="black">
          <tspan font-family="Helvetica Neue" font-size="26" fill="black" x="156.7221" y="25">Remote</tspan>
          <tspan font-family="Helvetica" font-size="26" fill="#172033" x="56.27075" y="56.728">Open a driver transaction</tspan>
          <tspan font-family="Helvetica" font-size="26" fill="#172033" x="2.0681152" y="87.728">using the URI determined in step 4</tspan>
        </text>
      </g>
      <g id="Graphic_306">
        <path d="M 796 2455 L 1308 2455 C 1317.9411 2455 1326 2463.059 1326 2473 L 1326 2573 C 1326 2582.941 1317.9411 2591 1308 2591 L 796 2591 C 786.0589 2591 778 2582.941 778 2573 L 778 2473 C 778 2463.059 786.0589 2455 796 2455 Z" fill="#0b73d9" fill-opacity=".69770704"/>
        <path d="M 796 2455 L 1308 2455 C 1317.9411 2455 1326 2463.059 1326 2473 L 1326 2573 C 1326 2582.941 1317.9411 2591 1308 2591 L 796 2591 C 786.0589 2591 778 2582.941 778 2573 L 778 2473 C 778 2463.059 786.0589 2455 796 2455 Z" stroke="#d6dce6" stroke-linecap="butt" stroke-linejoin="round" stroke-width="2"/>
        <text transform="translate(783 2507.5)" fill="black">
          <tspan font-family="Helvetica" font-size="26" fill="black" x="29.06494" y="25">Execute the query in the open transaction</tspan>
        </text>
      </g>
      <g id="Graphic_305">
        <title>Text</title>
        <text transform="translate(105.72192 2384.3508)" fill="#0b73d9">
          <tspan font-family="Helvetica" font-size="75" fill="#0b73d9" x="0" y="73">6</tspan>
        </text>
      </g>
      <g id="Line_307">
        <line x1="1051.5" y1="2364.5952" x2="1051.5738" y2="2432.582" marker-end="url(#FilledArrow_Marker_3)" stroke="#0b73d9" stroke-linecap="round" stroke-linejoin="round" stroke-width="4"/>
      </g>
      <g id="Line_310">
        <line x1="400.22254" y1="478.4463" x2="399.37366" y2="561.42886" marker-end="url(#FilledArrow_Marker_3)" stroke="#0b73d9" stroke-linecap="round" stroke-linejoin="round" stroke-width="4"/>
      </g>
      <g id="Line_311">
        <line x1="1165.5185" y1="2089.9378" x2="1269.9933" y2="2178.758" marker-end="url(#FilledArrow_Marker_3)" stroke="#0b73d9" stroke-linecap="round" stroke-linejoin="round" stroke-width="4"/>
      </g>
      <g id="Graphic_120">
        <title>Text</title>
        <text transform="translate(99.72192 2118.5)" fill="#0b73d9">
          <tspan font-family="Helvetica" font-size="75" fill="#0b73d9" x="0" y="73">5</tspan>
        </text>
      </g>
    </g>
  </g>
</svg>
