<?xml version="1.0" encoding="UTF-8" standalone="no"?>
<!DOCTYPE svg PUBLIC "-//W3C//DTD SVG 1.1//EN" "http://www.w3.org/Graphics/SVG/1.1/DTD/svg11.dtd">
<svg version="1.1" xmlns="http://www.w3.org/2000/svg" xmlns:xl="http://www.w3.org/1999/xlink" xmlns:dc="http://purl.org/dc/elements/1.1/" viewBox="0 0 2200 2700" width="2200" height="2700">
  <defs>
    <marker orient="auto" overflow="visible" markerUnits="strokeWidth" id="FilledArrow_Marker" stroke-linejoin="miter" stroke-miterlimit="10" viewBox="-1 -3 7 6" markerWidth="7" markerHeight="6" color="#a5a5a5">
      <g>
        <path d="M 4.8 0 L 0 -1.8 L 0 1.8 Z" fill="currentColor" stroke="currentColor" stroke-width="1"/>
      </g>
    </marker>
    <marker orient="auto" overflow="visible" markerUnits="strokeWidth" id="FilledArrow_Marker_2" stroke-linejoin="miter" stroke-miterlimit="10" viewBox="-1 -3 7 6" markerWidth="7" markerHeight="6" color="#a5a5a5">
      <g>
        <path d="M 4.8 0 L 0 -1.8 L 0 1.8 Z" fill="currentColor" stroke="currentColor" stroke-width="1"/>
      </g>
    </marker>
    <marker orient="auto" overflow="visible" markerUnits="strokeWidth" id="FilledArrow_Marker_3" stroke-linejoin="miter" stroke-miterlimit="10" viewBox="-1 -3 6 6" markerWidth="6" markerHeight="6" color="#0b73d9">
      <g>
        <path d="M 3.2 0 L 0 -1.2 L 0 1.2 Z" fill="currentColor" stroke="currentColor" stroke-width="1"/>
      </g>
    </marker>
    <marker orient="auto" overflow="visible" markerUnits="strokeWidth" id="FilledArrow_Marker_4" stroke-linejoin="miter" stroke-miterlimit="10" viewBox="-1 -3 7 6" markerWidth="7" markerHeight="6" color="#0b73d9">
      <g>
        <path d="M 4.8 0 L 0 -1.8 L 0 1.8 Z" fill="currentColor" stroke="currentColor" stroke-width="1"/>
      </g>
    </marker>
  </defs>
  <g id="Canvas_1" fill-opacity="1" stroke-opacity="1" stroke-dasharray="none" fill="none" stroke="none">
    <title>Canvas 1</title>
    <g id="Canvas_1_Layer_1">
      <title>Layer 1</title>
      <g id="Graphic_314">
        <rect x="80" y="2384.8508" width="1944" height="251" fill="white"/>
        <rect x="80" y="2384.8508" width="1944" height="251" stroke="#0b73d9" stroke-linecap="round" stroke-linejoin="round" stroke-width="2"/>
      </g>
      <g id="Graphic_313">
        <rect x="80" y="2110.0998" width="1944" height="251" fill="white"/>
        <rect x="80" y="2110.0998" width="1944" height="251" stroke="#0b73d9" stroke-linecap="round" stroke-linejoin="round" stroke-width="2"/>
      </g>
      <g id="Graphic_253">
        <rect x="78.44262" y="539.1784" width="1944" height="223" fill="white"/>
        <rect x="78.44262" y="539.1784" width="1944" height="223" stroke="#0b73d9" stroke-linecap="round" stroke-linejoin="round" stroke-width="2"/>
      </g>
      <g id="Graphic_28">
        <path d="M 153.25512 581.06535 L 635.2551 581.06535 C 645.19625 581.06535 653.2551 589.1242 653.2551 599.06535 L 653.2551 713.06535 C 653.2551 723.0065 645.19625 731.06535 635.2551 731.06535 L 171.25512 731.06535 C 161.314 731.06535 153.25512 723.0065 153.25512 713.06535 Z" fill="#f3f5f8"/>
        <path d="M 153.25512 581.06535 L 635.2551 581.06535 C 645.19625 581.06535 653.2551 589.1242 653.2551 599.06535 L 653.2551 713.06535 C 653.2551 723.0065 645.19625 731.06535 635.2551 731.06535 L 171.25512 731.06535 C 161.314 731.06535 153.25512 723.0065 153.25512 713.06535 Z" stroke="#d6dce6" stroke-linecap="butt" stroke-linejoin="round" stroke-width="2"/>
        <text transform="translate(158.25512 629.56535)" fill="#172033">
          <tspan font-family="Helvetica" font-size="26" fill="#172033" x="30.379395" y="25">Determine the execution context type</tspan>
          <tspan font-family="Helvetica" font-size="18" fill="#4a566c" x="35.864258" y="49">The type of the target database determined in step 1</tspan>
        </text>
      </g>
      <g id="Graphic_27">
        <title>Text</title>
        <text transform="translate(90.74788 536.56535)" fill="#0b73d9">
          <tspan font-family="Helvetica" font-size="75" fill="#0b73d9" x="0" y="73">3</tspan>
        </text>
      </g>
      <g id="Graphic_153">
        <path d="M 831.6926 565.31584 L 1098.1926 565.31584 C 1105.9246 565.31584 1112.1926 571.58386 1112.1926 579.31584 L 1112.1926 604.31584 C 1112.1926 612.0478 1105.9246 618.31584 1098.1926 618.31584 L 845.6926 618.31584 C 837.9606 618.31584 831.6926 612.0478 831.6926 604.31584 Z" fill="#fafbfc"/>
        <path d="M 831.6926 565.31584 L 1098.1926 565.31584 C 1105.9246 565.31584 1112.1926 571.58386 1112.1926 579.31584 L 1112.1926 604.31584 C 1112.1926 612.0478 1105.9246 618.31584 1098.1926 618.31584 L 845.6926 618.31584 C 837.9606 618.31584 831.6926 612.0478 831.6926 604.31584 Z" stroke="#d6dce6" stroke-linecap="butt" stroke-linejoin="round" stroke-width="2"/>
        <text transform="translate(836.6926 563.81584)" fill="#2b3548">
          <tspan font-family="Helvetica" font-size="23" fill="#2b3548" x="31.682617" y="23">Target database is a </tspan>
          <tspan font-family="Helvetica" font-size="23" fill="#2b3548" x="32.322754" y="51">composite database</tspan>
        </text>
      </g>
      <g id="Graphic_154">
        <path d="M 831.6926 704.1486 L 1098.1926 704.1486 C 1105.9246 704.1486 1112.1926 710.4166 1112.1926 718.1486 L 1112.1926 743.1486 C 1112.1926 750.8806 1105.9246 757.1486 1098.1926 757.1486 L 845.6926 757.1486 C 837.9606 757.1486 831.6926 750.8806 831.6926 743.1486 Z" fill="#fafbfc"/>
        <path d="M 831.6926 704.1486 L 1098.1926 704.1486 C 1105.9246 704.1486 1112.1926 710.4166 1112.1926 718.1486 L 1112.1926 743.1486 C 1112.1926 750.8806 1105.9246 757.1486 1098.1926 757.1486 L 845.6926 757.1486 C 837.9606 757.1486 831.6926 750.8806 831.6926 743.1486 Z" stroke="#d6dce6" stroke-linecap="butt" stroke-linejoin="round" stroke-width="2"/>
        <text transform="translate(836.6926 702.6486)" fill="#2b3548">
          <tspan font-family="Helvetica" font-size="23" fill="#2b3548" x="8.036865" y="23">Target database is in this </tspan>
          <tspan font-family="Helvetica" font-size="23" fill="#2b3548" x="102.02466" y="51">DBMS</tspan>
        </text>
      </g>
      <g id="Graphic_155">
        <path d="M 832.2998 631.1608 L 1098.7998 631.1608 C 1106.5318 631.1608 1112.7998 637.4288 1112.7998 645.1608 L 1112.7998 670.1608 C 1112.7998 677.8928 1106.5318 684.1608 1098.7998 684.1608 L 846.2998 684.1608 C 838.5678 684.1608 832.2998 677.8928 832.2998 670.1608 Z" fill="#fafbfc"/>
        <path d="M 832.2998 631.1608 L 1098.7998 631.1608 C 1106.5318 631.1608 1112.7998 637.4288 1112.7998 645.1608 L 1112.7998 670.1608 C 1112.7998 677.8928 1106.5318 684.1608 1098.7998 684.1608 L 846.2998 684.1608 C 838.5678 684.1608 832.2998 677.8928 832.2998 670.1608 Z" stroke="#d6dce6" stroke-linecap="butt" stroke-linejoin="round" stroke-width="2"/>
        <text transform="translate(837.2998 629.6608)" fill="#2b3548">
          <tspan font-family="Helvetica" font-size="23" fill="#2b3548" x="31.682617" y="23">Target database is a </tspan>
          <tspan font-family="Helvetica" font-size="23" fill="#2b3548" x="72.61206" y="51">remote alias</tspan>
        </text>
      </g>
      <g id="Line_158">
        <line x1="651.6926" y1="656.06535" x2="820.1858" y2="590.7956" marker-end="url(#FilledArrow_Marker)" stroke="#a5a5a5" stroke-linecap="round" stroke-linejoin="round" stroke-width="2"/>
      </g>
      <g id="Line_157">
        <line x1="651.6926" y1="656.81535" x2="820.3998" y2="657.2599" marker-end="url(#FilledArrow_Marker)" stroke="#a5a5a5" stroke-linecap="round" stroke-linejoin="round" stroke-width="2"/>
      </g>
      <g id="Line_156">
        <line x1="651.6926" y1="656.06535" x2="819.889" y2="730.2247" marker-end="url(#FilledArrow_Marker)" stroke="#a5a5a5" stroke-linecap="round" stroke-linejoin="round" stroke-width="2"/>
      </g>
      <g id="Graphic_159">
        <path d="M 1224.9881 705.8369 L 1491.488 705.8369 C 1499.22 705.8369 1505.488 712.1049 1505.488 719.8369 L 1505.488 744.8369 C 1505.488 752.5689 1499.22 758.8369 1491.488 758.8369 L 1238.9881 758.8369 C 1231.2561 758.8369 1224.9881 752.5689 1224.9881 744.8369 Z" fill="#d6dce6"/>
        <path d="M 1224.9881 705.8369 L 1491.488 705.8369 C 1499.22 705.8369 1505.488 712.1049 1505.488 719.8369 L 1505.488 744.8369 C 1505.488 752.5689 1499.22 758.8369 1491.488 758.8369 L 1238.9881 758.8369 C 1231.2561 758.8369 1224.9881 752.5689 1224.9881 744.8369 Z" stroke="#d6dce6" stroke-linecap="butt" stroke-linejoin="round" stroke-width="2"/>
        <text transform="translate(1229.9881 717.8369)" fill="black">
          <tspan font-family="Helvetica" font-size="24" fill="black" x="95.22461" y="23">Internal</tspan>
        </text>
      </g>
      <g id="Graphic_161">
        <path d="M 1221.8063 635.9225 L 1488.3063 635.9225 C 1496.0382 635.9225 1502.3063 642.1905 1502.3063 649.9225 L 1502.3063 674.9225 C 1502.3063 682.6545 1496.0382 688.9225 1488.3063 688.9225 L 1235.8063 688.9225 C 1228.0743 688.9225 1221.8063 682.6545 1221.8063 674.9225 Z" fill="#d6dce6"/>
        <path d="M 1221.8063 635.9225 L 1488.3063 635.9225 C 1496.0382 635.9225 1502.3063 642.1905 1502.3063 649.9225 L 1502.3063 674.9225 C 1502.3063 682.6545 1496.0382 688.9225 1488.3063 688.9225 L 1235.8063 688.9225 C 1228.0743 688.9225 1221.8063 682.6545 1221.8063 674.9225 Z" stroke="#d6dce6" stroke-linecap="butt" stroke-linejoin="round" stroke-width="2"/>
        <text transform="translate(1226.8063 647.9225)" fill="black">
          <tspan font-family="Helvetica" font-size="24" fill="black" x="91.22852" y="23">External</tspan>
        </text>
      </g>
      <g id="Graphic_162">
        <path d="M 1220.6926 565.31584 L 1487.1926 565.31584 C 1494.9246 565.31584 1501.1926 571.58386 1501.1926 579.31584 L 1501.1926 604.31584 C 1501.1926 612.0478 1494.9246 618.31584 1487.1926 618.31584 L 1234.6926 618.31584 C 1226.9606 618.31584 1220.6926 612.0478 1220.6926 604.31584 Z" fill="#d6dce6"/>
        <path d="M 1220.6926 565.31584 L 1487.1926 565.31584 C 1494.9246 565.31584 1501.1926 571.58386 1501.1926 579.31584 L 1501.1926 604.31584 C 1501.1926 612.0478 1494.9246 618.31584 1487.1926 618.31584 L 1234.6926 618.31584 C 1226.9606 618.31584 1220.6926 612.0478 1220.6926 604.31584 Z" stroke="#d6dce6" stroke-linecap="butt" stroke-linejoin="round" stroke-width="2"/>
        <text transform="translate(1225.6926 577.31584)" fill="black">
          <tspan font-family="Helvetica" font-size="24" fill="black" x="75.22656" y="23">Compoisite</tspan>
        </text>
      </g>
      <g id="Line_163">
        <line x1="1113.1926" y1="731.25495" x2="1211.0882" y2="731.6752" marker-end="url(#FilledArrow_Marker)" stroke="#a5a5a5" stroke-linecap="round" stroke-linejoin="round" stroke-width="2"/>
      </g>
      <g id="Line_164">
        <line x1="1113.1926" y1="591.81584" x2="1206.7926" y2="591.81584" marker-end="url(#FilledArrow_Marker)" stroke="#a5a5a5" stroke-linecap="round" stroke-linejoin="round" stroke-width="2"/>
      </g>
      <g id="Line_165">
        <line x1="1113.7998" y1="659.3876" x2="1207.9072" y2="660.538" marker-end="url(#FilledArrow_Marker)" stroke="#a5a5a5" stroke-linecap="round" stroke-linejoin="round" stroke-width="2"/>
      </g>
      <g id="Graphic_252">
        <rect x="75.49" y="46" width="1944" height="223" fill="white"/>
        <rect x="75.49" y="46" width="1944" height="223" stroke="#028bff" stroke-linecap="round" stroke-linejoin="round" stroke-width="2"/>
      </g>
      <g id="Graphic_251">
        <rect x="75.49" y="290.0283" width="1944" height="223" fill="white"/>
        <rect x="75.49" y="290.0283" width="1944" height="223" stroke="#0b73d9" stroke-linecap="round" stroke-linejoin="round" stroke-width="2"/>
      </g>
      <g id="Graphic_26">
        <title>Text</title>
        <text transform="translate(405.23047 508.0283)" fill="#ea0b29">
          <tspan font-family="Helvetica" font-weight="bold" font-size="24" fill="#ea0b29" x="0" y="23">No</tspan>
        </text>
      </g>
      <g id="Graphic_5">
        <path d="M 169 92.5 L 633 92.5 C 642.9411 92.5 651 100.55887 651 110.5 L 651 219.5 C 651 229.44113 642.9411 237.5 633 237.5 L 169 237.5 C 159.05887 237.5 151 229.44113 151 219.5 L 151 110.5 C 151 100.55887 159.05887 92.5 169 92.5 Z" fill="#f3f5f8"/>
        <path d="M 169 92.5 L 633 92.5 C 642.9411 92.5 651 100.55887 651 110.5 L 651 219.5 C 651 229.44113 642.9411 237.5 633 237.5 L 169 237.5 C 159.05887 237.5 151 229.44113 151 219.5 L 151 110.5 C 151 100.55887 159.05887 92.5 169 92.5 Z" stroke="#d6dce6" stroke-linecap="butt" stroke-linejoin="round" stroke-width="2"/>
        <text transform="translate(156 123)" fill="#172033">
          <tspan font-family="Helvetica" font-size="26" fill="#172033" x="69.39209" y="25">Determine the target database </tspan>
          <tspan font-family="Helvetica" font-size="26" fill="#172033" x="135.1665" y="56">(execution context)</tspan>
          <tspan font-family="Helvetica" font-size="18" fill="#4a566c" x="100.42871" y="80">Pick the first source that has a value</tspan>
        </text>
      </g>
      <g id="Graphic_11">
        <path d="M 845 79.17041 L 1097.5 79.17041 C 1105.232 79.17041 1111.5 85.43842 1111.5 93.17041 L 1111.5 115.17041 C 1111.5 122.9024 1105.232 129.17041 1097.5 129.17041 L 845 129.17041 C 837.268 129.17041 831 122.9024 831 115.17041 L 831 93.17041 C 831 85.43842 837.268 79.17041 845 79.17041 Z" fill="#fafbfc"/>
        <path d="M 845 79.17041 L 1097.5 79.17041 C 1105.232 79.17041 1111.5 85.43842 1111.5 93.17041 L 1111.5 115.17041 C 1111.5 122.9024 1105.232 129.17041 1097.5 129.17041 L 845 129.17041 C 837.268 129.17041 831 122.9024 831 115.17041 L 831 93.17041 C 831 85.43842 837.268 79.17041 845 79.17041 Z" stroke="#d6dce6" stroke-linecap="butt" stroke-linejoin="round" stroke-width="2"/>
        <text transform="translate(836 89.67041)" fill="black">
          <tspan font-family="Helvetica" font-size="24" fill="black" x="30.53711" y="23">Cypher USE clause</tspan>
        </text>
      </g>
      <g id="Graphic_13">
        <path d="M 845 137 L 1097.5 137 C 1105.232 137 1111.5 143.26801 1111.5 151 L 1111.5 176 C 1111.5 183.73199 1105.232 190 1097.5 190 L 845 190 C 837.268 190 831 183.73199 831 176 L 831 151 C 831 143.26801 837.268 137 845 137 Z" fill="#fafbfc"/>
        <path d="M 845 137 L 1097.5 137 C 1105.232 137 1111.5 143.26801 1111.5 151 L 1111.5 176 C 1111.5 183.73199 1105.232 190 1097.5 190 L 845 190 C 837.268 190 831 183.73199 831 176 L 831 151 C 831 143.26801 837.268 137 845 137 Z" stroke="#d6dce6" stroke-linecap="butt" stroke-linejoin="round" stroke-width="2"/>
        <text transform="translate(836 149)" fill="#2b3548">
          <tspan font-family="Helvetica" font-size="24" fill="#2b3548" x="6.519531" y="23">Driver session database</tspan>
        </text>
      </g>
      <g id="Graphic_15">
        <path d="M 845 200.5 L 1097.5 200.5 C 1105.232 200.5 1111.5 206.76801 1111.5 214.5 L 1111.5 239.5 C 1111.5 247.232 1105.232 253.5 1097.5 253.5 L 845 253.5 C 837.268 253.5 831 247.232 831 239.5 L 831 214.5 C 831 206.76801 837.268 200.5 845 200.5 Z" fill="#fafbfc"/>
        <path d="M 845 200.5 L 1097.5 200.5 C 1105.232 200.5 1111.5 206.76801 1111.5 214.5 L 1111.5 239.5 C 1111.5 247.232 1105.232 253.5 1097.5 253.5 L 845 253.5 C 837.268 253.5 831 247.232 831 239.5 L 831 214.5 C 831 206.76801 837.268 200.5 845 200.5 Z" stroke="#d6dce6" stroke-linecap="butt" stroke-linejoin="round" stroke-width="2"/>
        <text transform="translate(836 214)" fill="#2b3548">
          <tspan font-family="Helvetica" font-size="22" fill="#2b3548" x="8.669434" y="21">Home or default database</tspan>
        </text>
      </g>
      <g id="Graphic_4">
        <title>Text</title>
        <text transform="translate(83.72192 51.5)" fill="#0b73d9">
          <tspan font-family="Helvetica" font-size="75" fill="#0b73d9" x="0" y="73">1</tspan>
        </text>
      </g>
      <g id="Line_142">
        <line x1="652.5009" y1="164.33845" x2="818.8213" y2="106.25324" marker-end="url(#FilledArrow_Marker_2)" stroke="#a5a5a5" stroke-linecap="round" stroke-linejoin="round" stroke-width="2"/>
      </g>
      <g id="Line_143">
        <line x1="652" y1="164.33976" x2="817.1" y2="163.90548" marker-end="url(#FilledArrow_Marker_2)" stroke="#a5a5a5" stroke-linecap="round" stroke-linejoin="round" stroke-width="2"/>
      </g>
      <g id="Line_144">
        <line x1="651" y1="165" x2="820.8331" y2="224.83818" marker-end="url(#FilledArrow_Marker_2)" stroke="#a5a5a5" stroke-linecap="round" stroke-linejoin="round" stroke-width="2"/>
      </g>
      <g id="Line_149">
        <line x1="401" y1="238.5" x2="401" y2="307.54633" marker-end="url(#FilledArrow_Marker_3)" stroke="#0b73d9" stroke-linecap="round" stroke-linejoin="round" stroke-width="4"/>
      </g>
      <g id="Graphic_19">
        <path d="M 169 327.44633 L 633 327.44633 C 642.9411 327.44633 651 335.5052 651 345.44633 L 651 459.4463 C 651 469.38745 642.9411 477.4463 633 477.4463 L 169 477.4463 C 159.05887 477.4463 151 469.38745 151 459.4463 L 151 345.44633 C 151 335.5052 159.05887 327.44633 169 327.44633 Z" fill="#f3f5f8"/>
        <path d="M 169 327.44633 L 633 327.44633 C 642.9411 327.44633 651 335.5052 651 345.44633 L 651 459.4463 C 651 469.38745 642.9411 477.4463 633 477.4463 L 169 477.4463 C 159.05887 477.4463 151 469.38745 151 459.4463 L 151 345.44633 C 151 335.5052 159.05887 327.44633 169 327.44633 Z" stroke="#d6dce6" stroke-linecap="butt" stroke-linejoin="round" stroke-width="2"/>
        <text transform="translate(156 360.44633)" fill="#172033">
          <tspan font-family="Helvetica" font-size="26" fill="#172033" x="62.904785" y="25">Open transaction already exists</tspan>
          <tspan font-family="Helvetica" font-size="26" fill="#172033" x="106.95752" y="56">for the target database?</tspan>
          <tspan font-family="Helvetica" font-size="18" fill="#4a566c" x="182.47021" y="80">Local or remote</tspan>
        </text>
      </g>
      <g id="Graphic_22">
        <title>Text</title>
        <text transform="translate(754.3555 360.44633)" fill="#0b73d9">
          <tspan font-family="Helvetica" font-weight="bold" font-size="24" fill="#0b73d9" x="0" y="23">Yes</tspan>
        </text>
      </g>
      <g id="Graphic_18">
        <title>Text</title>
        <text transform="translate(86.38859 287.5)" fill="#0b73d9">
          <tspan font-family="Helvetica" font-size="75" fill="#0b73d9" x="0" y="73">2</tspan>
        </text>
      </g>
      <g id="Graphic_146">
        <path d="M 900 375.5911 L 1152.5 375.5911 C 1160.232 375.5911 1166.5 381.8591 1166.5 389.5911 L 1166.5 414.5911 C 1166.5 422.3231 1160.232 428.5911 1152.5 428.5911 L 900 428.5911 C 892.268 428.5911 886 422.3231 886 414.5911 L 886 389.5911 C 886 381.8591 892.268 375.5911 900 375.5911 Z" fill="#0b73d9" fill-opacity=".7034328"/>
        <path d="M 900 375.5911 L 1152.5 375.5911 C 1160.232 375.5911 1166.5 381.8591 1166.5 389.5911 L 1166.5 414.5911 C 1166.5 422.3231 1160.232 428.5911 1152.5 428.5911 L 900 428.5911 C 892.268 428.5911 886 422.3231 886 414.5911 L 886 389.5911 C 886 381.8591 892.268 375.5911 900 375.5911 Z" stroke="#0b73d9" stroke-linecap="butt" stroke-linejoin="round" stroke-width="2"/>
        <text transform="translate(891 389.0911)" fill="#2b3548">
          <tspan font-family="Helvetica" font-size="22" fill="#2b3548" x="11.129395" y="21">Proceed directly to step 6</tspan>
        </text>
      </g>
      <g id="Line_151">
        <line x1="652" y1="402.30372" x2="866.1" y2="402.1821" marker-end="url(#FilledArrow_Marker_3)" stroke="#0b73d9" stroke-linecap="round" stroke-linejoin="round" stroke-width="4"/>
      </g>
      <g id="Graphic_77">
        <title>Text</title>
      </g>
      <g id="Group_300">
        <g id="Graphic_272">
          <rect x="78.44262" y="781.7522" width="1944" height="1308.7739" fill="white"/>
          <rect x="78.44262" y="781.7522" width="1944" height="1308.7739" stroke="#0b73d9" stroke-linecap="round" stroke-linejoin="round" stroke-width="2"/>
        </g>
        <g id="Graphic_51">
          <path d="M 168.4283 826.5337 L 632.4283 826.5337 C 642.3694 826.5337 650.4283 834.5926 650.4283 844.5337 L 650.4283 948.5337 C 650.4283 958.4748 642.3694 966.5337 632.4283 966.5337 L 168.4283 966.5337 C 158.48717 966.5337 150.4283 958.4748 150.4283 948.5337 L 150.4283 844.5337 C 150.4283 834.5926 158.48717 826.5337 168.4283 826.5337 Z" fill="#f3f5f8"/>
          <path d="M 168.4283 826.5337 L 632.4283 826.5337 C 642.3694 826.5337 650.4283 834.5926 650.4283 844.5337 L 650.4283 948.5337 C 650.4283 958.4748 642.3694 966.5337 632.4283 966.5337 L 168.4283 966.5337 C 158.48717 966.5337 150.4283 958.4748 150.4283 948.5337 L 150.4283 844.5337 C 150.4283 834.5926 158.48717 826.5337 168.4283 826.5337 Z" stroke="#0b73d9" stroke-linecap="butt" stroke-linejoin="round" stroke-width="2"/>
          <text transform="translate(155.4283 881.0337)" fill="#172033">
            <tspan font-family="Helvetica" font-size="26" fill="#172033" x="41.214844" y="25">Determine the location of execution</tspan>
          </text>
        </g>
        <g id="Graphic_50">
          <title>Text</title>
          <text transform="translate(93.87883 781.2522)" fill="#0b73d9">
            <tspan font-family="Helvetica" font-size="75" fill="#0b73d9" x="0" y="73">4</tspan>
          </text>
        </g>
        <g id="Graphic_88">
          <path d="M 1583.3607 1038.4233 L 1845.3607 1038.4233 C 1853.0926 1038.4233 1859.3607 1044.6913 1859.3607 1052.4233 L 1859.3607 1104.4233 C 1859.3607 1112.1553 1853.0926 1118.4233 1845.3607 1118.4233 L 1583.3607 1118.4233 C 1575.6287 1118.4233 1569.3607 1112.1553 1569.3607 1104.4233 L 1569.3607 1052.4233 C 1569.3607 1044.6913 1575.6287 1038.4233 1583.3607 1038.4233 Z" fill="#e9f3ff"/>
          <path d="M 1583.3607 1038.4233 L 1845.3607 1038.4233 C 1853.0926 1038.4233 1859.3607 1044.6913 1859.3607 1052.4233 L 1859.3607 1104.4233 C 1859.3607 1112.1553 1853.0926 1118.4233 1845.3607 1118.4233 L 1583.3607 1118.4233 C 1575.6287 1118.4233 1569.3607 1112.1553 1569.3607 1104.4233 L 1569.3607 1052.4233 C 1569.3607 1044.6913 1575.6287 1038.4233 1583.3607 1038.4233 Z" stroke="#0b73d9" stroke-linecap="butt" stroke-linejoin="round" stroke-width="2"/>
          <text transform="translate(1574.3607 1064.4233)" fill="black">
            <tspan font-family="Helvetica" font-size="23" fill="black" x="112.50781" y="23">Local</tspan>
          </text>
        </g>
        <g id="Graphic_190">
          <path d="M 256.36066 1038.4233 L 508.36066 1038.4233 C 516.09264 1038.4233 522.36066 1044.6913 522.36066 1052.4233 L 522.36066 1114.4233 C 522.36066 1122.1553 516.09264 1128.4233 508.36066 1128.4233 L 256.36066 1128.4233 C 248.62867 1128.4233 242.36066 1122.1553 242.36066 1114.4233 L 242.36066 1052.4233 C 242.36066 1044.6913 248.62867 1038.4233 256.36066 1038.4233 Z" fill="#d6dce6"/>
          <path d="M 256.36066 1038.4233 L 508.36066 1038.4233 C 516.09264 1038.4233 522.36066 1044.6913 522.36066 1052.4233 L 522.36066 1114.4233 C 522.36066 1122.1553 516.09264 1128.4233 508.36066 1128.4233 L 256.36066 1128.4233 C 248.62867 1128.4233 242.36066 1122.1553 242.36066 1114.4233 L 242.36066 1052.4233 C 242.36066 1044.6913 248.62867 1038.4233 256.36066 1038.4233 Z" stroke="#0b73d9" stroke-linecap="butt" stroke-linejoin="round" stroke-width="2"/>
          <text transform="translate(247.36066 1067.9233)" fill="black">
            <tspan font-family="Helvetica" font-size="26" fill="black" x="72.86279" y="25">Composite</tspan>
          </text>
        </g>
        <g id="Graphic_191">
          <path d="M 256.36066 1219.4406 L 508.36066 1219.4406 C 516.09264 1219.4406 522.36066 1225.7086 522.36066 1233.4406 L 522.36066 1295.4406 C 522.36066 1303.1726 516.09264 1309.4406 508.36066 1309.4406 L 256.36066 1309.4406 C 248.62867 1309.4406 242.36066 1303.1726 242.36066 1295.4406 L 242.36066 1233.4406 C 242.36066 1225.7086 248.62867 1219.4406 256.36066 1219.4406 Z" fill="#d6dce6"/>
          <path d="M 256.36066 1219.4406 L 508.36066 1219.4406 C 516.09264 1219.4406 522.36066 1225.7086 522.36066 1233.4406 L 522.36066 1295.4406 C 522.36066 1303.1726 516.09264 1309.4406 508.36066 1309.4406 L 256.36066 1309.4406 C 248.62867 1309.4406 242.36066 1303.1726 242.36066 1295.4406 L 242.36066 1233.4406 C 242.36066 1225.7086 248.62867 1219.4406 256.36066 1219.4406 Z" stroke="#0b73d9" stroke-linecap="butt" stroke-linejoin="round" stroke-width="2"/>
          <text transform="translate(247.36066 1248.9406)" fill="black">
            <tspan font-family="Helvetica" font-size="26" fill="black" x="87.31006" y="25">External</tspan>
          </text>
        </g>
        <g id="Graphic_192"/>
        <g id="Line_207">
          <path d="M 523.36066 1082.5886 L 934.2656 1080.1562 L 1555.4607 1078.7763" marker-end="url(#FilledArrow_Marker_4)" stroke="#0b73d9" stroke-linecap="round" stroke-linejoin="round" stroke-width="2"/>
        </g>
        <g id="Graphic_66">
          <path d="M 260.36066 1400.4579 L 512.36066 1400.4579 C 520.09264 1400.4579 526.36066 1406.7259 526.36066 1414.4579 L 526.36066 1476.4579 C 526.36066 1484.1898 520.09264 1490.4579 512.36066 1490.4579 L 260.36066 1490.4579 C 252.62867 1490.4579 246.36066 1484.1898 246.36066 1476.4579 L 246.36066 1414.4579 C 246.36066 1406.7259 252.62867 1400.4579 260.36066 1400.4579 Z" fill="#d6dce6"/>
          <path d="M 260.36066 1400.4579 L 512.36066 1400.4579 C 520.09264 1400.4579 526.36066 1406.7259 526.36066 1414.4579 L 526.36066 1476.4579 C 526.36066 1484.1898 520.09264 1490.4579 512.36066 1490.4579 L 260.36066 1490.4579 C 252.62867 1490.4579 246.36066 1484.1898 246.36066 1476.4579 L 246.36066 1414.4579 C 246.36066 1406.7259 252.62867 1400.4579 260.36066 1400.4579 Z" stroke="#0b73d9" stroke-linecap="butt" stroke-linejoin="round" stroke-width="2"/>
          <text transform="translate(251.36066 1429.9579)" fill="black">
            <tspan font-family="Helvetica" font-size="26" fill="black" x="91.63916" y="25">Internal</tspan>
          </text>
        </g>
        <g id="Graphic_80">
          <path d="M 1101.4376 1576.7786 L 1357.4376 1576.7786 C 1364.065 1576.7786 1369.4376 1582.1512 1369.4376 1588.7786 L 1369.4376 1654.7786 C 1369.4376 1661.406 1364.065 1666.7786 1357.4376 1666.7786 L 1101.4376 1666.7786 C 1094.8102 1666.7786 1089.4376 1661.406 1089.4376 1654.7786 L 1089.4376 1588.7786 C 1089.4376 1582.1512 1094.8102 1576.7786 1101.4376 1576.7786 Z" stroke="#0b73d9" stroke-linecap="butt" stroke-linejoin="round" stroke-width="2"/>
          <text transform="translate(1094.4376 1590.7786)" fill="#2b3548">
            <tspan font-family="Helvetica" font-size="26" fill="#2b3548" x="3.4575195" y="25">Is the database hosted </tspan>
            <tspan font-family="Helvetica" font-size="26" fill="#2b3548" x="49.73828" y="56">on this server?</tspan>
          </text>
        </g>
        <g id="Graphic_92">
          <path d="M 1099.7339 1767.0702 L 1361.7339 1767.0702 C 1369.4659 1767.0702 1375.7339 1773.3382 1375.7339 1781.0702 L 1375.7339 1816.8197 C 1375.7339 1824.5517 1369.4659 1830.8197 1361.7339 1830.8197 L 1099.7339 1830.8197 C 1092.0019 1830.8197 1085.7339 1824.5517 1085.7339 1816.8197 L 1085.7339 1781.0702 C 1085.7339 1773.3382 1092.0019 1767.0702 1099.7339 1767.0702 Z" fill="white"/>
          <path d="M 1099.7339 1767.0702 L 1361.7339 1767.0702 C 1369.4659 1767.0702 1375.7339 1773.3382 1375.7339 1781.0702 L 1375.7339 1816.8197 C 1375.7339 1824.5517 1369.4659 1830.8197 1361.7339 1830.8197 L 1099.7339 1830.8197 C 1092.0019 1830.8197 1085.7339 1824.5517 1085.7339 1816.8197 L 1085.7339 1781.0702 C 1085.7339 1773.3382 1092.0019 1767.0702 1099.7339 1767.0702 Z" stroke="#0b73d9" stroke-linecap="butt" stroke-linejoin="round" stroke-width="2"/>
          <text transform="translate(1090.7339 1767.945)" fill="black">
            <tspan font-family="Helvetica" font-size="26" fill="black" x="18.620117" y="25">Is server-side routing </tspan>
            <tspan font-family="Helvetica" font-size="26" fill="black" x="86.50195" y="56">enabled?</tspan>
          </text>
        </g>
        <g id="Graphic_99">
          <title>Text</title>
          <text transform="translate(1027.7215 1772.1258)" fill="#465166">
            <tspan font-family="Helvetica" font-size="17" fill="#465166" x="0" y="16">No</tspan>
          </text>
        </g>
        <g id="Graphic_100">
          <path d="M 892.3607 1771.4663 L 958.3607 1771.4663 C 972.1678 1771.4663 983.3607 1782.6592 983.3607 1796.4663 L 983.3607 1796.4663 C 983.3607 1810.2734 972.1678 1821.4663 958.3607 1821.4663 L 892.3607 1821.4663 C 878.5535 1821.4663 867.3607 1810.2734 867.3607 1796.4663 L 867.3607 1796.4663 C 867.3607 1782.6592 878.5535 1771.4663 892.3607 1771.4663 Z" fill="#ffe2e8"/>
          <path d="M 892.3607 1771.4663 L 958.3607 1771.4663 C 972.1678 1771.4663 983.3607 1782.6592 983.3607 1796.4663 L 983.3607 1796.4663 C 983.3607 1810.2734 972.1678 1821.4663 958.3607 1821.4663 L 892.3607 1821.4663 C 878.5535 1821.4663 867.3607 1810.2734 867.3607 1796.4663 L 867.3607 1796.4663 C 867.3607 1782.6592 878.5535 1771.4663 892.3607 1771.4663 Z" stroke="#0b73d9" stroke-linecap="butt" stroke-linejoin="round" stroke-width="2"/>
          <text transform="translate(872.3607 1787.2423)" fill="black">
            <tspan font-family="Helvetica Neue" font-size="16" fill="black" x="40.56" y="15">Fail</tspan>
          </text>
        </g>
        <g id="Graphic_196">
          <path d="M 1588.3607 1746.4663 L 1850.3607 1746.4663 C 1858.0926 1746.4663 1864.3607 1752.7343 1864.3607 1760.4663 L 1864.3607 1832.4663 C 1864.3607 1840.1983 1858.0926 1846.4663 1850.3607 1846.4663 L 1588.3607 1846.4663 C 1580.6287 1846.4663 1574.3607 1840.1983 1574.3607 1832.4663 L 1574.3607 1760.4663 C 1574.3607 1752.7343 1580.6287 1746.4663 1588.3607 1746.4663 Z" fill="#fff3df"/>
          <path d="M 1588.3607 1746.4663 L 1850.3607 1746.4663 C 1858.0926 1746.4663 1864.3607 1752.7343 1864.3607 1760.4663 L 1864.3607 1832.4663 C 1864.3607 1840.1983 1858.0926 1846.4663 1850.3607 1846.4663 L 1588.3607 1846.4663 C 1580.6287 1846.4663 1574.3607 1840.1983 1574.3607 1832.4663 L 1574.3607 1760.4663 C 1574.3607 1752.7343 1580.6287 1746.4663 1588.3607 1746.4663 Z" stroke="#0b73d9" stroke-linecap="butt" stroke-linejoin="round" stroke-width="2"/>
          <text transform="translate(1579.3607 1759.0983)" fill="black">
            <tspan font-family="Helvetica Neue" font-size="26" fill="black" x="94.487" y="25">Remote</tspan>
            <tspan font-family="Helvetica Neue" font-size="18" fill="#4a566c" x="28.139" y="48.727997">using the routing advertised </tspan>
            <tspan font-family="Helvetica Neue" font-size="18" fill="#4a566c" x="52.322" y="70.231995">address of that server</tspan>
          </text>
        </g>
        <g id="Graphic_197">
          <path d="M 738.1341 1585.0318 L 963.1608 1585.0318 C 969.7882 1585.0318 975.1608 1590.4044 975.1608 1597.0318 L 975.1608 1642.7818 C 975.1608 1649.4092 969.7882 1654.7818 963.1608 1654.7818 L 738.1341 1654.7818 C 731.5067 1654.7818 726.1341 1649.4092 726.1341 1642.7818 L 726.1341 1597.0318 C 726.1341 1590.4044 731.5067 1585.0318 738.1341 1585.0318 Z" fill="#f6f8fb"/>
          <path d="M 738.1341 1585.0318 L 963.1608 1585.0318 C 969.7882 1585.0318 975.1608 1590.4044 975.1608 1597.0318 L 975.1608 1642.7818 C 975.1608 1649.4092 969.7882 1654.7818 963.1608 1654.7818 L 738.1341 1654.7818 C 731.5067 1654.7818 726.1341 1649.4092 726.1341 1642.7818 L 726.1341 1597.0318 C 726.1341 1590.4044 731.5067 1585.0318 738.1341 1585.0318 Z" stroke="#0b73d9" stroke-linecap="butt" stroke-linejoin="round" stroke-width="2"/>
          <text transform="translate(731.1341 1588.9068)" fill="black">
            <tspan font-family="Helvetica" font-size="26" fill="black" x="15.938637" y="25">Transaction mode </tspan>
            <tspan font-family="Helvetica" font-size="26" fill="black" x="83.39518" y="56">READ</tspan>
          </text>
        </g>
        <g id="Graphic_200">
          <path d="M 738.1341 1408.5829 L 978.1341 1408.5829 C 984.7615 1408.5829 990.1341 1413.9554 990.1341 1420.5829 L 990.1341 1470.3329 C 990.1341 1476.9603 984.7615 1482.3329 978.1341 1482.3329 L 738.1341 1482.3329 C 731.5067 1482.3329 726.1341 1476.9603 726.1341 1470.3329 L 726.1341 1420.5829 C 726.1341 1413.9554 731.5067 1408.5829 738.1341 1408.5829 Z" fill="#f6f8fb"/>
          <path d="M 738.1341 1408.5829 L 978.1341 1408.5829 C 984.7615 1408.5829 990.1341 1413.9554 990.1341 1420.5829 L 990.1341 1470.3329 C 990.1341 1476.9603 984.7615 1482.3329 978.1341 1482.3329 L 738.1341 1482.3329 C 731.5067 1482.3329 726.1341 1476.9603 726.1341 1470.3329 L 726.1341 1420.5829 C 726.1341 1413.9554 731.5067 1408.5829 738.1341 1408.5829 Z" stroke="#0b73d9" stroke-linecap="butt" stroke-linejoin="round" stroke-width="2"/>
          <text transform="translate(731.1341 1429.9579)" fill="black">
            <tspan font-family="Helvetica" font-size="26" fill="black" x="20.07373" y="25">bolt:// URI scheme</tspan>
          </text>
        </g>
        <g id="Graphic_201">
          <path d="M 738.1341 1943.2028 L 957.9075 1943.2028 C 964.535 1943.2028 969.9075 1948.5754 969.9075 1955.2028 L 969.9075 2000.9528 C 969.9075 2007.5802 964.535 2012.9528 957.9075 2012.9528 L 738.1341 2012.9528 C 731.5067 2012.9528 726.1341 2007.5802 726.1341 2000.9528 L 726.1341 1955.2028 C 726.1341 1948.5754 731.5067 1943.2028 738.1341 1943.2028 Z" fill="#f6f8fb"/>
          <path d="M 738.1341 1943.2028 L 957.9075 1943.2028 C 964.535 1943.2028 969.9075 1948.5754 969.9075 1955.2028 L 969.9075 2000.9528 C 969.9075 2007.5802 964.535 2012.9528 957.9075 2012.9528 L 738.1341 2012.9528 C 731.5067 2012.9528 726.1341 2007.5802 726.1341 2000.9528 L 726.1341 1955.2028 C 726.1341 1948.5754 731.5067 1943.2028 738.1341 1943.2028 Z" stroke="#0b73d9" stroke-linecap="butt" stroke-linejoin="round" stroke-width="2"/>
          <text transform="translate(731.1341 1947.0778)" fill="black">
            <tspan font-family="Helvetica" font-size="26" fill="black" x="13.312012" y="25">Transaction mode </tspan>
            <tspan font-family="Helvetica" font-size="26" fill="black" x="75.00488" y="56">WRITE</tspan>
          </text>
        </g>
        <g id="Line_202">
          <line x1="527.36066" y1="1445.4579" x2="712.2341" y2="1445.4579" marker-end="url(#FilledArrow_Marker_4)" stroke="#0b73d9" stroke-linecap="round" stroke-linejoin="round" stroke-width="2"/>
        </g>
        <g id="Graphic_218">
          <path d="M 1103.4376 1931.7815 L 1365.4376 1931.7815 C 1373.1696 1931.7815 1379.4376 1938.0495 1379.4376 1945.7815 L 1379.4376 2017.7815 C 1379.4376 2025.5135 1373.1696 2031.7815 1365.4376 2031.7815 L 1103.4376 2031.7815 C 1095.7056 2031.7815 1089.4376 2025.5135 1089.4376 2017.7815 L 1089.4376 1945.7815 C 1089.4376 1938.0495 1095.7056 1931.7815 1103.4376 1931.7815 Z" fill="white"/>
          <path d="M 1103.4376 1931.7815 L 1365.4376 1931.7815 C 1373.1696 1931.7815 1379.4376 1938.0495 1379.4376 1945.7815 L 1379.4376 2017.7815 C 1379.4376 2025.5135 1373.1696 2031.7815 1365.4376 2031.7815 L 1103.4376 2031.7815 C 1095.7056 2031.7815 1089.4376 2025.5135 1089.4376 2017.7815 L 1089.4376 1945.7815 C 1089.4376 1938.0495 1095.7056 1931.7815 1103.4376 1931.7815 Z" stroke="#0b73d9" stroke-linecap="butt" stroke-linejoin="round" stroke-width="2"/>
          <text transform="translate(1094.4376 1935.2815)" fill="black">
            <tspan font-family="Helvetica" font-size="26" fill="black" x="8.45752" y="25">Is the database hosted </tspan>
            <tspan font-family="Helvetica" font-size="26" fill="black" x=".5356445" y="56">on this server the leader </tspan>
            <tspan font-family="Helvetica" font-size="26" fill="black" x="35.200195" y="87">for that database?</tspan>
          </text>
        </g>
        <g id="Line_219">
          <line x1="991.1341" y1="1444.9574" x2="1555.4607" y2="1442.834" marker-end="url(#FilledArrow_Marker_4)" stroke="#0b73d9" stroke-linecap="round" stroke-linejoin="round" stroke-width="2"/>
        </g>
        <g id="Graphic_220">
          <path d="M 1583.3607 1402.2362 L 1845.3607 1402.2362 C 1853.0926 1402.2362 1859.3607 1408.5042 1859.3607 1416.2362 L 1859.3607 1468.2362 C 1859.3607 1475.9682 1853.0926 1482.2362 1845.3607 1482.2362 L 1583.3607 1482.2362 C 1575.6287 1482.2362 1569.3607 1475.9682 1569.3607 1468.2362 L 1569.3607 1416.2362 C 1569.3607 1408.5042 1575.6287 1402.2362 1583.3607 1402.2362 Z" fill="#e9f3ff"/>
          <path d="M 1583.3607 1402.2362 L 1845.3607 1402.2362 C 1853.0926 1402.2362 1859.3607 1408.5042 1859.3607 1416.2362 L 1859.3607 1468.2362 C 1859.3607 1475.9682 1853.0926 1482.2362 1845.3607 1482.2362 L 1583.3607 1482.2362 C 1575.6287 1482.2362 1569.3607 1475.9682 1569.3607 1468.2362 L 1569.3607 1416.2362 C 1569.3607 1408.5042 1575.6287 1402.2362 1583.3607 1402.2362 Z" stroke="#0b73d9" stroke-linecap="butt" stroke-linejoin="round" stroke-width="2"/>
          <text transform="translate(1574.3607 1428.2362)" fill="black">
            <tspan font-family="Helvetica" font-size="23" fill="black" x="112.50781" y="23">Local</tspan>
          </text>
        </g>
        <g id="Line_221">
          <line x1="486.6386" y1="1491.4579" x2="727.6339" y2="1602.0084" marker-end="url(#FilledArrow_Marker_4)" stroke="#0b73d9" stroke-linecap="round" stroke-linejoin="round" stroke-width="2"/>
        </g>
        <g id="Line_222">
          <line x1="1229.7742" y1="1667.7786" x2="1230.399" y2="1753.1705" marker-end="url(#FilledArrow_Marker_4)" stroke="#0b73d9" stroke-linecap="round" stroke-linejoin="round" stroke-width="2"/>
        </g>
        <g id="Line_223">
          <line x1="1376.7339" y1="1798.2043" x2="1560.4608" y2="1797.2724" marker-end="url(#FilledArrow_Marker_4)" stroke="#0b73d9" stroke-linecap="round" stroke-linejoin="round" stroke-width="2"/>
        </g>
        <g id="Line_224">
          <line x1="1084.7339" y1="1797.76" x2="997.2559" y2="1797.0499" marker-end="url(#FilledArrow_Marker_4)" stroke="#0b73d9" stroke-linecap="round" stroke-linejoin="round" stroke-width="2"/>
        </g>
        <g id="Graphic_225">
          <title>Text</title>
          <text transform="translate(1461.1808 1765.9406)" fill="#465166">
            <tspan font-family="Helvetica" font-size="17" fill="#465166" x="0" y="16">Yes</tspan>
          </text>
        </g>
        <g id="Line_226">
          <line x1="976.1608" y1="1620.527" x2="1075.5377" y2="1621.0181" marker-end="url(#FilledArrow_Marker_4)" stroke="#0b73d9" stroke-linecap="round" stroke-linejoin="round" stroke-width="2"/>
        </g>
        <g id="Graphic_227">
          <title>Text</title>
          <text transform="translate(1459.1726 1593.9406)" fill="#465166">
            <tspan font-family="Helvetica" font-size="17" fill="#465166" x="0" y="16">Yes</tspan>
          </text>
        </g>
        <g id="Line_228">
          <line x1="1370.4376" y1="1621.2343" x2="1555.4608" y2="1620.5202" marker-end="url(#FilledArrow_Marker_4)" stroke="#0b73d9" stroke-linecap="round" stroke-linejoin="round" stroke-width="2"/>
        </g>
        <g id="Graphic_229">
          <path d="M 1583.3607 1579.9068 L 1845.3607 1579.9068 C 1853.0926 1579.9068 1859.3607 1586.1748 1859.3607 1593.9068 L 1859.3607 1645.9068 C 1859.3607 1653.6388 1853.0926 1659.9068 1845.3607 1659.9068 L 1583.3607 1659.9068 C 1575.6287 1659.9068 1569.3607 1653.6388 1569.3607 1645.9068 L 1569.3607 1593.9068 C 1569.3607 1586.1748 1575.6287 1579.9068 1583.3607 1579.9068 Z" fill="#e9f3ff"/>
          <path d="M 1583.3607 1579.9068 L 1845.3607 1579.9068 C 1853.0926 1579.9068 1859.3607 1586.1748 1859.3607 1593.9068 L 1859.3607 1645.9068 C 1859.3607 1653.6388 1853.0926 1659.9068 1845.3607 1659.9068 L 1583.3607 1659.9068 C 1575.6287 1659.9068 1569.3607 1653.6388 1569.3607 1645.9068 L 1569.3607 1593.9068 C 1569.3607 1586.1748 1575.6287 1579.9068 1583.3607 1579.9068 Z" stroke="#0b73d9" stroke-linecap="butt" stroke-linejoin="round" stroke-width="2"/>
          <text transform="translate(1574.3607 1605.9068)" fill="black">
            <tspan font-family="Helvetica" font-size="23" fill="black" x="112.50781" y="23">Local</tspan>
          </text>
        </g>
        <g id="Graphic_230">
          <title>Text</title>
          <text transform="translate(1240.7215 1690.9579)" fill="#465166">
            <tspan font-family="Helvetica" font-size="17" fill="#465166" x="0" y="16">No</tspan>
          </text>
        </g>
        <g id="Line_233">
          <line x1="426.2322" y1="1491.4579" x2="808.4762" y2="1932.455" marker-end="url(#FilledArrow_Marker_4)" stroke="#0b73d9" stroke-linecap="round" stroke-linejoin="round" stroke-width="2"/>
        </g>
        <g id="Graphic_275">
          <title>Text</title>
          <text transform="translate(1459.1726 1954.5332)" fill="#465166">
            <tspan font-family="Helvetica" font-size="17" fill="#465166" x="0" y="16">Yes</tspan>
          </text>
        </g>
        <g id="Line_276">
          <line x1="1380.4376" y1="1982.1661" x2="1560.4607" y2="1982.6404" marker-end="url(#FilledArrow_Marker_4)" stroke="#0b73d9" stroke-linecap="round" stroke-linejoin="round" stroke-width="2"/>
        </g>
        <g id="Graphic_278">
          <path d="M 1588.3607 1943.059 L 1850.3607 1943.059 C 1858.0926 1943.059 1864.3607 1949.327 1864.3607 1957.059 L 1864.3607 2009.059 C 1864.3607 2016.791 1858.0926 2023.059 1850.3607 2023.059 L 1588.3607 2023.059 C 1580.6287 2023.059 1574.3607 2016.791 1574.3607 2009.059 L 1574.3607 1957.059 C 1574.3607 1949.327 1580.6287 1943.059 1588.3607 1943.059 Z" fill="#e9f3ff"/>
          <path d="M 1588.3607 1943.059 L 1850.3607 1943.059 C 1858.0926 1943.059 1864.3607 1949.327 1864.3607 1957.059 L 1864.3607 2009.059 C 1864.3607 2016.791 1858.0926 2023.059 1850.3607 2023.059 L 1588.3607 2023.059 C 1580.6287 2023.059 1574.3607 2016.791 1574.3607 2009.059 L 1574.3607 1957.059 C 1574.3607 1949.327 1580.6287 1943.059 1588.3607 1943.059 Z" stroke="#0b73d9" stroke-linecap="butt" stroke-linejoin="round" stroke-width="2"/>
          <text transform="translate(1579.3607 1969.059)" fill="black">
            <tspan font-family="Helvetica" font-size="23" fill="black" x="112.50781" y="23">Local</tspan>
          </text>
        </g>
        <g id="Line_279">
          <line x1="1233.4045" y1="1930.7815" x2="1231.6611" y2="1844.717" marker-end="url(#FilledArrow_Marker_4)" stroke="#0b73d9" stroke-linecap="round" stroke-linejoin="round" stroke-width="2"/>
        </g>
        <g id="Graphic_280">
          <title>Text</title>
          <text transform="translate(1206.7215 1871.1796)" fill="#465166">
            <tspan font-family="Helvetica" font-size="17" fill="#465166" x="0" y="16">No</tspan>
          </text>
        </g>
        <g id="Line_288">
          <line x1="970.9075" y1="1979.2556" x2="1075.5382" y2="1980.2585" marker-end="url(#FilledArrow_Marker_4)" stroke="#0b73d9" stroke-linecap="round" stroke-linejoin="round" stroke-width="2"/>
        </g>
        <g id="Line_292">
          <path d="M 200.36066 969.4406 L 199.36066 1449.2687 L 196.54247 1443.6224 L 245.36066 1444.0944" stroke="#0b73d9" stroke-linecap="round" stroke-linejoin="round" stroke-width="2"/>
        </g>
        <g id="Line_294">
          <line x1="200.12643" y1="1081.828" x2="241.36066" y2="1082.189" stroke="#0b73d9" stroke-linecap="round" stroke-linejoin="round" stroke-width="2"/>
        </g>
        <g id="Line_295">
          <line x1="199.74739" y1="1263.704" x2="241.36066" y2="1263.8719" stroke="#0b73d9" stroke-linecap="round" stroke-linejoin="round" stroke-width="2"/>
        </g>
      </g>
      <g id="Line_152">
        <line x1="400" y1="730" x2="400.1971" y2="806.6338" marker-end="url(#FilledArrow_Marker_3)" stroke="#0b73d9" stroke-linecap="round" stroke-linejoin="round" stroke-width="4"/>
      </g>
      <g id="Line_302">
        <line x1="956.8229" y1="2089.9378" x2="841.5513" y2="2179.4112" marker-end="url(#FilledArrow_Marker_3)" stroke="#0b73d9" stroke-linecap="round" stroke-linejoin="round" stroke-width="4"/>
      </g>
      <g id="Graphic_303">
        <path d="M 552.7649 2192 L 939.2351 2192 C 946.9671 2192 953.2351 2198.268 953.2351 2206 L 953.2351 2301.1557 C 953.2351 2308.8876 946.9671 2315.1557 939.2351 2315.1557 L 552.7649 2315.1557 C 545.0329 2315.1557 538.7649 2308.8876 538.7649 2301.1557 L 538.7649 2206 C 538.7649 2198.268 545.0329 2192 552.7649 2192 Z" fill="#e9f3ff"/>
        <path d="M 552.7649 2192 L 939.2351 2192 C 946.9671 2192 953.2351 2198.268 953.2351 2206 L 953.2351 2301.1557 C 953.2351 2308.8876 946.9671 2315.1557 939.2351 2315.1557 L 552.7649 2315.1557 C 545.0329 2315.1557 538.7649 2308.8876 538.7649 2301.1557 L 538.7649 2206 C 538.7649 2198.268 545.0329 2192 552.7649 2192 Z" stroke="#b8d4f2" stroke-linecap="butt" stroke-linejoin="round" stroke-width="2"/>
        <text transform="translate(543.7649 2206.7138)" fill="black">
          <tspan font-family="Helvetica Neue" font-size="26" fill="black" x="170.6971" y="25">Local</tspan>
          <tspan font-family="Helvetica" font-size="26" fill="#172033" x="92.38892" y="56.728">Open a transaction</tspan>
          <tspan font-family="Helvetica" font-size="26" fill="#172033" x="30.962646" y="87.728">to the database on this server</tspan>
        </text>
      </g>
      <g id="Graphic_304">
        <path d="M 1164.7649 2192 L 1551.2351 2192 C 1558.9671 2192 1565.2351 2198.268 1565.2351 2206 L 1565.2351 2301.1557 C 1565.2351 2308.8876 1558.9671 2315.1557 1551.2351 2315.1557 L 1164.7649 2315.1557 C 1157.0329 2315.1557 1150.7649 2308.8876 1150.7649 2301.1557 L 1150.7649 2206 C 1150.7649 2198.268 1157.0329 2192 1164.7649 2192 Z" fill="#fff3df"/>
        <path d="M 1164.7649 2192 L 1551.2351 2192 C 1558.9671 2192 1565.2351 2198.268 1565.2351 2206 L 1565.2351 2301.1557 C 1565.2351 2308.8876 1558.9671 2315.1557 1551.2351 2315.1557 L 1164.7649 2315.1557 C 1157.0329 2315.1557 1150.7649 2308.8876 1150.7649 2301.1557 L 1150.7649 2206 C 1150.7649 2198.268 1157.0329 2192 1164.7649 2192 Z" stroke="#efd29d" stroke-linecap="butt" stroke-linejoin="round" stroke-width="2"/>
        <text transform="translate(1155.7649 2206.7138)" fill="black">
          <tspan font-family="Helvetica Neue" font-size="26" fill="black" x="156.7221" y="25">Remote</tspan>
          <tspan font-family="Helvetica" font-size="26" fill="#172033" x="56.27075" y="56.728">Open a driver transaction</tspan>
          <tspan font-family="Helvetica" font-size="26" fill="#172033" x="2.0681152" y="87.728">using the URI determined in step 4</tspan>
        </text>
      </g>
      <g id="Graphic_306">
        <path d="M 796 2455 L 1308 2455 C 1317.9411 2455 1326 2463.059 1326 2473 L 1326 2573 C 1326 2582.941 1317.9411 2591 1308 2591 L 796 2591 C 786.0589 2591 778 2582.941 778 2573 L 778 2473 C 778 2463.059 786.0589 2455 796 2455 Z" fill="#0b73d9" fill-opacity=".69770704"/>
        <path d="M 796 2455 L 1308 2455 C 1317.9411 2455 1326 2463.059 1326 2473 L 1326 2573 C 1326 2582.941 1317.9411 2591 1308 2591 L 796 2591 C 786.0589 2591 778 2582.941 778 2573 L 778 2473 C 778 2463.059 786.0589 2455 796 2455 Z" stroke="#d6dce6" stroke-linecap="butt" stroke-linejoin="round" stroke-width="2"/>
        <text transform="translate(783 2507.5)" fill="black">
          <tspan font-family="Helvetica" font-size="26" fill="black" x="29.06494" y="25">Execute the query in the open transaction</tspan>
        </text>
      </g>
      <g id="Graphic_305">
        <title>Text</title>
        <text transform="translate(105.72192 2384.3508)" fill="#0b73d9">
          <tspan font-family="Helvetica" font-size="75" fill="#0b73d9" x="0" y="73">6</tspan>
        </text>
      </g>
      <g id="Line_307">
        <line x1="1051.5" y1="2364.5952" x2="1051.5738" y2="2432.582" marker-end="url(#FilledArrow_Marker_3)" stroke="#0b73d9" stroke-linecap="round" stroke-linejoin="round" stroke-width="4"/>
      </g>
      <g id="Line_310">
        <line x1="400.22254" y1="478.4463" x2="399.37366" y2="561.42886" marker-end="url(#FilledArrow_Marker_3)" stroke="#0b73d9" stroke-linecap="round" stroke-linejoin="round" stroke-width="4"/>
      </g>
      <g id="Line_311">
        <line x1="1165.5185" y1="2089.9378" x2="1269.9933" y2="2178.758" marker-end="url(#FilledArrow_Marker_3)" stroke="#0b73d9" stroke-linecap="round" stroke-linejoin="round" stroke-width="4"/>
      </g>
      <g id="Graphic_120">
        <title>Text</title>
        <text transform="translate(99.72192 2118.5)" fill="#0b73d9">
          <tspan font-family="Helvetica" font-size="75" fill="#0b73d9" x="0" y="73">5</tspan>
        </text>
      </g>
      <g id="Graphic_315">
        <path d="M 1570 1214 L 1832 1214 C 1839.732 1214 1846 1220.268 1846 1228 L 1846 1300 C 1846 1307.732 1839.732 1314 1832 1314 L 1570 1314 C 1562.268 1314 1556 1307.732 1556 1300 L 1556 1228 C 1556 1220.268 1562.268 1214 1570 1214 Z" fill="#fff3df"/>
        <path d="M 1570 1214 L 1832 1214 C 1839.732 1214 1846 1220.268 1846 1228 L 1846 1300 C 1846 1307.732 1839.732 1314 1832 1314 L 1570 1314 C 1562.268 1314 1556 1307.732 1556 1300 L 1556 1228 C 1556 1220.268 1562.268 1214 1570 1214 Z" stroke="#0b73d9" stroke-linecap="butt" stroke-linejoin="round" stroke-width="2"/>
        <text transform="translate(1561 1226.632)" fill="black">
          <tspan font-family="Helvetica Neue" font-size="26" fill="black" x="94.487" y="25">Remote</tspan>
          <tspan font-family="Helvetica Neue" font-size="18" fill="#4a566c" x="28.139" y="48.727997">using the routing advertised </tspan>
          <tspan font-family="Helvetica Neue" font-size="18" fill="#4a566c" x="52.322" y="70.231995">address of that server</tspan>
        </text>
      </g>
      <g id="Line_316">
        <line x1="523.36066" y1="1264.3935" x2="1542.1" y2="1264.0531" marker-end="url(#FilledArrow_Marker_4)" stroke="#0b73d9" stroke-linecap="round" stroke-linejoin="round" stroke-width="2"/>
      </g>
    </g>
  </g>
</svg>
