<svg width="870" height="491" viewBox="0 0 870 491" fill="none" xmlns="http://www.w3.org/2000/svg">
<path d="M67 92C67 56.6538 95.6538 28 131 28V28C166.346 28 195 56.6538 195 92V92C195 127.346 166.346 156 131 156V156C95.6538 156 67 127.346 67 92V92Z" fill="#FFDF81"/>
<path d="M109.204 97V86.878H112.627C113.351 86.878 113.995 86.9993 114.559 87.242C115.124 87.4847 115.567 87.844 115.889 88.32C116.216 88.796 116.379 89.3817 116.379 90.077C116.379 90.749 116.228 91.323 115.924 91.799C115.626 92.275 115.208 92.6367 114.671 92.884C114.135 93.1313 113.512 93.255 112.802 93.255H110.534V97H109.204ZM110.527 92.163H112.774C113.47 92.163 114.034 91.9693 114.468 91.582C114.902 91.1947 115.119 90.6673 115.119 90C115.119 89.328 114.895 88.8193 114.447 88.474C113.999 88.1287 113.421 87.956 112.711 87.956H110.527V92.163ZM119.746 97.14C119.274 97.14 118.859 97.0583 118.5 96.895C118.145 96.727 117.865 96.4867 117.66 96.174C117.459 95.8613 117.359 95.4833 117.359 95.04C117.359 94.2373 117.639 93.64 118.199 93.248C118.759 92.856 119.657 92.646 120.894 92.618L122.182 92.583V92.016C122.182 91.5727 122.049 91.2227 121.783 90.966C121.517 90.7047 121.106 90.574 120.551 90.574C120.135 90.5787 119.769 90.6767 119.452 90.868C119.134 91.0593 118.931 91.372 118.843 91.806H117.702C117.73 91.3347 117.86 90.938 118.094 90.616C118.332 90.2893 118.665 90.042 119.095 89.874C119.524 89.706 120.03 89.622 120.614 89.622C121.244 89.622 121.766 89.7107 122.182 89.888C122.602 90.0653 122.914 90.3267 123.12 90.672C123.33 91.0173 123.435 91.442 123.435 91.946V97H122.329L122.231 95.642C121.955 96.2067 121.601 96.5987 121.167 96.818C120.737 97.0327 120.264 97.14 119.746 97.14ZM120.131 96.209C120.378 96.209 120.621 96.1647 120.859 96.076C121.101 95.9873 121.321 95.8683 121.517 95.719C121.717 95.565 121.878 95.3947 122 95.208C122.121 95.0167 122.182 94.8207 122.182 94.62V93.381L121.111 93.402C120.555 93.4113 120.093 93.4673 119.725 93.57C119.356 93.6727 119.078 93.8337 118.892 94.053C118.705 94.2723 118.612 94.5593 118.612 94.914C118.612 95.32 118.754 95.6373 119.039 95.866C119.323 96.0947 119.687 96.209 120.131 96.209ZM127.806 97.035C127.307 97.035 126.919 96.9673 126.644 96.832C126.369 96.6967 126.175 96.496 126.063 96.23C125.956 95.964 125.902 95.6373 125.902 95.25V90.707H124.726V89.762H125.937L126.252 87.655H127.204V89.755H128.835V90.707H127.204V95.208C127.204 95.4647 127.23 95.6537 127.281 95.775C127.337 95.8917 127.428 95.9663 127.554 95.999C127.68 96.0317 127.857 96.048 128.086 96.048H128.877V96.916C128.788 96.9487 128.653 96.9767 128.471 97C128.294 97.0233 128.072 97.035 127.806 97.035ZM130.629 97V89.762H131.882V97H130.629ZM130.594 88.229V86.885H131.917V88.229H130.594ZM137.112 97.14C136.44 97.14 135.848 96.993 135.334 96.699C134.821 96.405 134.42 95.9827 134.13 95.432C133.841 94.8813 133.696 94.221 133.696 93.451C133.696 92.6903 133.827 92.023 134.088 91.449C134.35 90.875 134.728 90.427 135.222 90.105C135.722 89.783 136.321 89.622 137.021 89.622C137.703 89.622 138.279 89.769 138.75 90.063C139.222 90.357 139.579 90.7723 139.821 91.309C140.069 91.841 140.192 92.4733 140.192 93.206V93.682H135.005C135.005 94.1393 135.08 94.5547 135.229 94.928C135.383 95.2967 135.614 95.5907 135.922 95.81C136.23 96.0293 136.62 96.139 137.091 96.139C137.553 96.139 137.95 96.0317 138.281 95.817C138.617 95.6023 138.832 95.292 138.925 94.886H140.143C140.059 95.376 139.863 95.789 139.555 96.125C139.252 96.461 138.886 96.7153 138.456 96.888C138.032 97.056 137.584 97.14 137.112 97.14ZM135.012 92.807H138.946C138.946 92.3917 138.876 92.0183 138.736 91.687C138.596 91.351 138.382 91.0873 138.092 90.896C137.808 90.7 137.448 90.602 137.014 90.602C136.562 90.602 136.186 90.7117 135.887 90.931C135.589 91.1457 135.367 91.4233 135.222 91.764C135.078 92.1 135.008 92.4477 135.012 92.807ZM141.983 97V89.762H143.236V90.812C143.353 90.6113 143.514 90.4223 143.719 90.245C143.929 90.0677 144.181 89.9253 144.475 89.818C144.774 89.7107 145.117 89.657 145.504 89.657C145.961 89.657 146.381 89.748 146.764 89.93C147.151 90.112 147.459 90.3967 147.688 90.784C147.921 91.1667 148.038 91.6613 148.038 92.268V97H146.743V92.394C146.743 91.8293 146.594 91.4117 146.295 91.141C146.001 90.8657 145.618 90.728 145.147 90.728C144.82 90.728 144.515 90.7817 144.23 90.889C143.945 90.9917 143.714 91.1503 143.537 91.365C143.36 91.575 143.271 91.841 143.271 92.163V97H141.983ZM152.415 97.035C151.916 97.035 151.529 96.9673 151.253 96.832C150.978 96.6967 150.784 96.496 150.672 96.23C150.565 95.964 150.511 95.6373 150.511 95.25V90.707H149.335V89.762H150.546L150.861 87.655H151.813V89.755H153.444V90.707H151.813V95.208C151.813 95.4647 151.839 95.6537 151.89 95.775C151.946 95.8917 152.037 95.9663 152.163 95.999C152.289 96.0317 152.467 96.048 152.695 96.048H153.486V96.916C153.398 96.9487 153.262 96.9767 153.08 97C152.903 97.0233 152.681 97.035 152.415 97.035Z" fill="black"/>
<path d="M640 83C640 47.6538 668.654 19 704 19V19C739.346 19 768 47.6538 768 83V83C768 118.346 739.346 147 704 147V147C668.654 147 640 118.346 640 83V83Z" fill="#C990C0"/>
<path d="M679.948 88V77.878C679.981 77.878 680.079 77.8803 680.242 77.885C680.41 77.885 680.613 77.885 680.851 77.885C681.089 77.8803 681.337 77.8803 681.593 77.885C681.85 77.885 682.086 77.8873 682.3 77.892C683.542 77.9107 684.547 78.1137 685.317 78.501C686.092 78.8837 686.659 79.4413 687.018 80.174C687.382 80.9067 687.564 81.8073 687.564 82.876C687.564 83.996 687.368 84.9363 686.976 85.697C686.589 86.4577 685.996 87.0317 685.198 87.419C684.405 87.8063 683.395 88 682.167 88H679.948ZM681.278 86.887H682.167C683.003 86.887 683.721 86.7587 684.323 86.502C684.925 86.2407 685.387 85.8183 685.709 85.235C686.036 84.6517 686.199 83.8723 686.199 82.897C686.199 81.9217 686.041 81.1493 685.723 80.58C685.411 80.0107 684.958 79.6047 684.365 79.362C683.773 79.1147 683.059 78.991 682.223 78.991H681.278V86.887ZM689.424 88V80.762H690.677V88H689.424ZM689.389 79.229V77.885H690.712V79.229H689.389ZM695.452 88.14C694.948 88.14 694.479 88.063 694.045 87.909C693.616 87.7503 693.259 87.5053 692.974 87.174C692.69 86.838 692.512 86.411 692.442 85.893H693.618C693.679 86.1777 693.796 86.4157 693.968 86.607C694.141 86.7937 694.353 86.936 694.605 87.034C694.862 87.1273 695.142 87.174 695.445 87.174C695.935 87.174 696.33 87.083 696.628 86.901C696.927 86.719 697.076 86.439 697.076 86.061C697.076 85.795 696.997 85.5827 696.838 85.424C696.684 85.2607 696.442 85.1417 696.11 85.067L694.612 84.696C694.029 84.556 693.562 84.3367 693.212 84.038C692.867 83.7393 692.692 83.3217 692.687 82.785C692.687 82.3603 692.79 81.987 692.995 81.665C693.201 81.343 693.506 81.0887 693.912 80.902C694.323 80.7153 694.834 80.622 695.445 80.622C696.234 80.622 696.869 80.7993 697.349 81.154C697.83 81.504 698.082 82.0197 698.105 82.701H696.957C696.911 82.3557 696.757 82.0827 696.495 81.882C696.234 81.6767 695.879 81.574 695.431 81.574C694.974 81.574 694.598 81.6673 694.304 81.854C694.015 82.036 693.87 82.3207 693.87 82.708C693.87 82.9647 693.973 83.1677 694.178 83.317C694.388 83.4617 694.692 83.583 695.088 83.681L696.544 84.045C696.876 84.1337 697.151 84.2503 697.37 84.395C697.59 84.5397 697.762 84.7007 697.888 84.878C698.014 85.0553 698.103 85.242 698.154 85.438C698.21 85.6293 698.238 85.8137 698.238 85.991C698.238 86.4343 698.129 86.817 697.909 87.139C697.69 87.4563 697.373 87.7037 696.957 87.881C696.542 88.0537 696.04 88.14 695.452 88.14ZM702.989 88.14C702.317 88.14 701.725 87.993 701.211 87.699C700.698 87.405 700.297 86.9827 700.007 86.432C699.718 85.8813 699.573 85.221 699.573 84.451C699.573 83.6903 699.704 83.023 699.965 82.449C700.227 81.875 700.605 81.427 701.099 81.105C701.599 80.783 702.198 80.622 702.898 80.622C703.58 80.622 704.156 80.769 704.627 81.063C705.099 81.357 705.456 81.7723 705.698 82.309C705.946 82.841 706.069 83.4733 706.069 84.206V84.682H700.882C700.882 85.1393 700.957 85.5547 701.106 85.928C701.26 86.2967 701.491 86.5907 701.799 86.81C702.107 87.0293 702.497 87.139 702.968 87.139C703.43 87.139 703.827 87.0317 704.158 86.817C704.494 86.6023 704.709 86.292 704.802 85.886H706.02C705.936 86.376 705.74 86.789 705.432 87.125C705.129 87.461 704.763 87.7153 704.333 87.888C703.909 88.056 703.461 88.14 702.989 88.14ZM700.889 83.807H704.823C704.823 83.3917 704.753 83.0183 704.613 82.687C704.473 82.351 704.259 82.0873 703.969 81.896C703.685 81.7 703.325 81.602 702.891 81.602C702.439 81.602 702.063 81.7117 701.764 81.931C701.466 82.1457 701.244 82.4233 701.099 82.764C700.955 83.1 700.885 83.4477 700.889 83.807ZM709.808 88.14C709.337 88.14 708.921 88.0583 708.562 87.895C708.207 87.727 707.927 87.4867 707.722 87.174C707.521 86.8613 707.421 86.4833 707.421 86.04C707.421 85.2373 707.701 84.64 708.261 84.248C708.821 83.856 709.719 83.646 710.956 83.618L712.244 83.583V83.016C712.244 82.5727 712.111 82.2227 711.845 81.966C711.579 81.7047 711.168 81.574 710.613 81.574C710.198 81.5787 709.831 81.6767 709.514 81.868C709.197 82.0593 708.994 82.372 708.905 82.806H707.764C707.792 82.3347 707.923 81.938 708.156 81.616C708.394 81.2893 708.728 81.042 709.157 80.874C709.586 80.706 710.093 80.622 710.676 80.622C711.306 80.622 711.829 80.7107 712.244 80.888C712.664 81.0653 712.977 81.3267 713.182 81.672C713.392 82.0173 713.497 82.442 713.497 82.946V88H712.391L712.293 86.642C712.018 87.2067 711.663 87.5987 711.229 87.818C710.8 88.0327 710.326 88.14 709.808 88.14ZM710.193 87.209C710.44 87.209 710.683 87.1647 710.921 87.076C711.164 86.9873 711.383 86.8683 711.579 86.719C711.78 86.565 711.941 86.3947 712.062 86.208C712.183 86.0167 712.244 85.8207 712.244 85.62V84.381L711.173 84.402C710.618 84.4113 710.156 84.4673 709.787 84.57C709.418 84.6727 709.141 84.8337 708.954 85.053C708.767 85.2723 708.674 85.5593 708.674 85.914C708.674 86.32 708.816 86.6373 709.101 86.866C709.386 87.0947 709.75 87.209 710.193 87.209ZM718.052 88.14C717.548 88.14 717.079 88.063 716.645 87.909C716.216 87.7503 715.859 87.5053 715.574 87.174C715.289 86.838 715.112 86.411 715.042 85.893H716.218C716.279 86.1777 716.395 86.4157 716.568 86.607C716.741 86.7937 716.953 86.936 717.205 87.034C717.462 87.1273 717.742 87.174 718.045 87.174C718.535 87.174 718.929 87.083 719.228 86.901C719.527 86.719 719.676 86.439 719.676 86.061C719.676 85.795 719.597 85.5827 719.438 85.424C719.284 85.2607 719.041 85.1417 718.71 85.067L717.212 84.696C716.629 84.556 716.162 84.3367 715.812 84.038C715.467 83.7393 715.292 83.3217 715.287 82.785C715.287 82.3603 715.39 81.987 715.595 81.665C715.8 81.343 716.106 81.0887 716.512 80.902C716.923 80.7153 717.434 80.622 718.045 80.622C718.834 80.622 719.468 80.7993 719.949 81.154C720.43 81.504 720.682 82.0197 720.705 82.701H719.557C719.51 82.3557 719.356 82.0827 719.095 81.882C718.834 81.6767 718.479 81.574 718.031 81.574C717.574 81.574 717.198 81.6673 716.904 81.854C716.615 82.036 716.47 82.3207 716.47 82.708C716.47 82.9647 716.573 83.1677 716.778 83.317C716.988 83.4617 717.291 83.583 717.688 83.681L719.144 84.045C719.475 84.1337 719.751 84.2503 719.97 84.395C720.189 84.5397 720.362 84.7007 720.488 84.878C720.614 85.0553 720.703 85.242 720.754 85.438C720.81 85.6293 720.838 85.8137 720.838 85.991C720.838 86.4343 720.728 86.817 720.509 87.139C720.29 87.4563 719.972 87.7037 719.557 87.881C719.142 88.0537 718.64 88.14 718.052 88.14ZM725.589 88.14C724.917 88.14 724.324 87.993 723.811 87.699C723.298 87.405 722.896 86.9827 722.607 86.432C722.318 85.8813 722.173 85.221 722.173 84.451C722.173 83.6903 722.304 83.023 722.565 82.449C722.826 81.875 723.204 81.427 723.699 81.105C724.198 80.783 724.798 80.622 725.498 80.622C726.179 80.622 726.756 80.769 727.227 81.063C727.698 81.357 728.055 81.7723 728.298 82.309C728.545 82.841 728.669 83.4733 728.669 84.206V84.682H723.482C723.482 85.1393 723.557 85.5547 723.706 85.928C723.86 86.2967 724.091 86.5907 724.399 86.81C724.707 87.0293 725.097 87.139 725.568 87.139C726.03 87.139 726.427 87.0317 726.758 86.817C727.094 86.6023 727.309 86.292 727.402 85.886H728.62C728.536 86.376 728.34 86.789 728.032 87.125C727.729 87.461 727.362 87.7153 726.933 87.888C726.508 88.056 726.06 88.14 725.589 88.14ZM723.489 83.807H727.423C727.423 83.3917 727.353 83.0183 727.213 82.687C727.073 82.351 726.858 82.0873 726.569 81.896C726.284 81.7 725.925 81.602 725.491 81.602C725.038 81.602 724.663 81.7117 724.364 81.931C724.065 82.1457 723.844 82.4233 723.699 82.764C723.554 83.1 723.484 83.4477 723.489 83.807Z" fill="white"/>
<path d="M333 427C333 391.654 361.654 363 397 363V363C432.346 363 461 391.654 461 427V427C461 462.346 432.346 491 397 491V491C361.654 491 333 462.346 333 427V427Z" fill="#F79767"/>
<path d="M370.588 432.14C370.094 432.14 369.625 432.082 369.181 431.965C368.738 431.844 368.334 431.664 367.97 431.426C367.611 431.188 367.312 430.894 367.074 430.544C366.841 430.189 366.694 429.779 366.633 429.312H367.991C368.075 429.695 368.241 430.017 368.488 430.278C368.74 430.539 369.051 430.735 369.419 430.866C369.793 430.997 370.201 431.062 370.644 431.062C371.074 431.062 371.468 430.994 371.827 430.859C372.191 430.724 372.483 430.528 372.702 430.271C372.922 430.01 373.031 429.697 373.031 429.333C373.031 428.932 372.901 428.61 372.639 428.367C372.378 428.12 371.974 427.921 371.428 427.772L369.342 427.233C368.871 427.116 368.453 426.953 368.089 426.743C367.73 426.528 367.448 426.248 367.242 425.903C367.037 425.553 366.934 425.119 366.934 424.601C366.934 424.027 367.093 423.528 367.41 423.103C367.728 422.674 368.157 422.342 368.698 422.109C369.244 421.871 369.86 421.752 370.546 421.752C371.34 421.752 372.007 421.89 372.548 422.165C373.094 422.44 373.507 422.802 373.787 423.25C374.067 423.698 374.207 424.176 374.207 424.685H372.877C372.835 424.223 372.7 423.859 372.471 423.593C372.243 423.322 371.958 423.129 371.617 423.012C371.277 422.891 370.906 422.83 370.504 422.83C369.781 422.83 369.233 422.996 368.859 423.327C368.491 423.654 368.306 424.043 368.306 424.496C368.306 424.911 368.439 425.238 368.705 425.476C368.971 425.714 369.363 425.898 369.881 426.029L371.911 426.554C372.513 426.694 372.992 426.897 373.346 427.163C373.706 427.429 373.962 427.739 374.116 428.094C374.275 428.444 374.354 428.824 374.354 429.235C374.354 429.795 374.198 430.294 373.885 430.733C373.573 431.172 373.134 431.517 372.569 431.769C372.009 432.016 371.349 432.14 370.588 432.14ZM377.074 434.31C376.65 434.31 376.358 434.28 376.199 434.219C376.041 434.158 375.961 434.128 375.961 434.128V433.288L376.703 433.302C376.969 433.311 377.191 433.293 377.368 433.246C377.546 433.199 377.688 433.136 377.795 433.057C377.903 432.978 377.984 432.889 378.04 432.791C378.101 432.693 378.15 432.6 378.187 432.511L378.439 431.825L375.611 424.762H376.92L379.055 430.348L381.176 424.762H382.443L379.398 432.546C379.207 433.003 378.995 433.36 378.761 433.617C378.533 433.874 378.276 434.053 377.991 434.156C377.711 434.259 377.406 434.31 377.074 434.31ZM383.845 432V424.762H385.091V425.812C385.292 425.495 385.567 425.217 385.917 424.979C386.267 424.741 386.722 424.622 387.282 424.622C387.544 424.622 387.81 424.666 388.08 424.755C388.356 424.844 388.608 424.977 388.836 425.154C389.065 425.331 389.242 425.548 389.368 425.805C389.592 425.45 389.896 425.166 390.278 424.951C390.661 424.732 391.093 424.622 391.573 424.622C391.825 424.622 392.089 424.662 392.364 424.741C392.64 424.816 392.894 424.951 393.127 425.147C393.365 425.338 393.559 425.607 393.708 425.952C393.858 426.293 393.932 426.731 393.932 427.268V432H392.63V427.394C392.63 426.955 392.56 426.617 392.42 426.379C392.28 426.136 392.096 425.966 391.867 425.868C391.643 425.77 391.403 425.721 391.146 425.721C390.922 425.721 390.684 425.765 390.432 425.854C390.18 425.943 389.966 426.092 389.788 426.302C389.611 426.512 389.522 426.799 389.522 427.163V432H388.234V427.016C388.234 426.731 388.157 426.493 388.003 426.302C387.854 426.111 387.665 425.966 387.436 425.868C387.212 425.77 386.988 425.721 386.764 425.721C386.517 425.721 386.267 425.77 386.015 425.868C385.768 425.966 385.558 426.122 385.385 426.337C385.217 426.547 385.133 426.822 385.133 427.163V432H383.845ZM395.959 434.254V424.762H397.247L397.261 426.022C397.345 425.873 397.452 425.716 397.583 425.553C397.718 425.39 397.881 425.238 398.073 425.098C398.269 424.958 398.495 424.844 398.752 424.755C399.013 424.666 399.309 424.622 399.641 424.622C400.219 424.622 400.728 424.755 401.167 425.021C401.61 425.282 401.955 425.684 402.203 426.225C402.45 426.766 402.574 427.452 402.574 428.283C402.574 429.114 402.452 429.816 402.21 430.39C401.972 430.959 401.626 431.393 401.174 431.692C400.721 431.991 400.175 432.14 399.536 432.14C399.214 432.14 398.927 432.093 398.675 432C398.427 431.911 398.21 431.795 398.024 431.65C397.842 431.501 397.688 431.342 397.562 431.174C397.44 431.006 397.34 430.845 397.261 430.691V434.254H395.959ZM399.291 431.132C399.888 431.132 400.376 430.906 400.754 430.453C401.132 429.996 401.321 429.286 401.321 428.325C401.321 427.499 401.148 426.843 400.803 426.358C400.457 425.873 399.953 425.63 399.291 425.63C398.619 425.63 398.11 425.88 397.765 426.379C397.419 426.874 397.247 427.522 397.247 428.325C397.247 428.843 397.324 429.314 397.478 429.739C397.632 430.164 397.86 430.502 398.164 430.754C398.467 431.006 398.843 431.132 399.291 431.132ZM406.623 432.035C406.124 432.035 405.737 431.967 405.461 431.832C405.186 431.697 404.992 431.496 404.88 431.23C404.773 430.964 404.719 430.637 404.719 430.25V425.707H403.543V424.762H404.754L405.069 422.655H406.021V424.755H407.652V425.707H406.021V430.208C406.021 430.465 406.047 430.654 406.098 430.775C406.154 430.892 406.245 430.966 406.371 430.999C406.497 431.032 406.675 431.048 406.903 431.048H407.694V431.916C407.606 431.949 407.47 431.977 407.288 432C407.111 432.023 406.889 432.035 406.623 432.035ZM412.118 432.14C411.451 432.14 410.868 431.998 410.368 431.713C409.874 431.424 409.489 431.001 409.213 430.446C408.938 429.891 408.8 429.212 408.8 428.409C408.8 427.653 408.929 426.99 409.185 426.421C409.442 425.852 409.818 425.411 410.312 425.098C410.807 424.781 411.411 424.622 412.125 424.622C412.793 424.622 413.371 424.769 413.861 425.063C414.351 425.352 414.732 425.779 415.002 426.344C415.278 426.909 415.415 427.597 415.415 428.409C415.415 429.146 415.289 429.795 415.037 430.355C414.785 430.915 414.414 431.354 413.924 431.671C413.439 431.984 412.837 432.14 412.118 432.14ZM412.125 431.118C412.555 431.118 412.919 431.008 413.217 430.789C413.516 430.57 413.742 430.255 413.896 429.844C414.055 429.433 414.134 428.946 414.134 428.381C414.134 427.863 414.064 427.399 413.924 426.988C413.789 426.573 413.574 426.244 413.28 426.001C412.986 425.758 412.601 425.637 412.125 425.637C411.687 425.637 411.316 425.747 411.012 425.966C410.709 426.181 410.478 426.493 410.319 426.904C410.165 427.315 410.088 427.807 410.088 428.381C410.088 428.89 410.156 429.352 410.291 429.767C410.431 430.182 410.651 430.511 410.949 430.754C411.253 430.997 411.645 431.118 412.125 431.118ZM417.136 432V424.762H418.382V425.812C418.583 425.495 418.858 425.217 419.208 424.979C419.558 424.741 420.013 424.622 420.573 424.622C420.835 424.622 421.101 424.666 421.371 424.755C421.647 424.844 421.899 424.977 422.127 425.154C422.356 425.331 422.533 425.548 422.659 425.805C422.883 425.45 423.187 425.166 423.569 424.951C423.952 424.732 424.384 424.622 424.864 424.622C425.116 424.622 425.38 424.662 425.655 424.741C425.931 424.816 426.185 424.951 426.418 425.147C426.656 425.338 426.85 425.607 426.999 425.952C427.149 426.293 427.223 426.731 427.223 427.268V432H425.921V427.394C425.921 426.955 425.851 426.617 425.711 426.379C425.571 426.136 425.387 425.966 425.158 425.868C424.934 425.77 424.694 425.721 424.437 425.721C424.213 425.721 423.975 425.765 423.723 425.854C423.471 425.943 423.257 426.092 423.079 426.302C422.902 426.512 422.813 426.799 422.813 427.163V432H421.525V427.016C421.525 426.731 421.448 426.493 421.294 426.302C421.145 426.111 420.956 425.966 420.727 425.868C420.503 425.77 420.279 425.721 420.055 425.721C419.808 425.721 419.558 425.77 419.306 425.868C419.059 425.966 418.849 426.122 418.676 426.337C418.508 426.547 418.424 426.822 418.424 427.163V432H417.136Z" fill="black"/>
<path d="M198.5 91C197.948 91 197.5 91.4477 197.5 92C197.5 92.5523 197.948 93 198.5 93V92V91ZM366.5 93C367.052 93 367.5 92.5523 367.5 92C367.5 91.4477 367.052 91 366.5 91V92V93ZM468.5 82C467.948 82 467.5 82.4477 467.5 83C467.5 83.5523 467.948 84 468.5 84V83V82ZM637.207 83.7071C637.598 83.3166 637.598 82.6834 637.207 82.2929L630.843 75.9289C630.453 75.5384 629.819 75.5384 629.429 75.9289C629.038 76.3195 629.038 76.9526 629.429 77.3431L635.086 83L629.429 88.6569C629.038 89.0474 629.038 89.6805 629.429 90.0711C629.819 90.4616 630.453 90.4616 630.843 90.0711L637.207 83.7071ZM198.5 92V93H366.5V92V91H198.5V92ZM468.5 83V84H636.5V83V82H468.5V83Z" fill="black" fill-opacity="0.8"/>
<path d="M379.421 93.5H375.654V81.8636H379.541C380.681 81.8636 381.66 82.0966 382.478 82.5625C383.296 83.0246 383.923 83.6894 384.359 84.5568C384.798 85.4205 385.018 86.4564 385.018 87.6648C385.018 88.8769 384.796 89.9186 384.353 90.7898C383.914 91.661 383.277 92.3314 382.444 92.8011C381.611 93.267 380.603 93.5 379.421 93.5ZM377.41 91.9659H379.325C380.211 91.9659 380.948 91.7992 381.535 91.4659C382.122 91.1288 382.561 90.642 382.853 90.0057C383.145 89.3655 383.291 88.5852 383.291 87.6648C383.291 86.7519 383.145 85.9773 382.853 85.3409C382.565 84.7045 382.135 84.2216 381.563 83.892C380.991 83.5625 380.281 83.3977 379.433 83.3977H377.41V91.9659ZM388.781 81.8636V93.5H387.025V81.8636H388.781ZM392.145 93.5H390.281L394.468 81.8636H396.497L400.684 93.5H398.821L395.531 83.9773H395.44L392.145 93.5ZM392.457 88.9432H398.503V90.4205H392.457V88.9432ZM409.517 85.5398C409.407 85.1951 409.259 84.8864 409.074 84.6136C408.892 84.3371 408.674 84.1023 408.42 83.9091C408.167 83.7121 407.877 83.5625 407.551 83.4602C407.229 83.358 406.875 83.3068 406.488 83.3068C405.833 83.3068 405.242 83.4754 404.716 83.8125C404.189 84.1496 403.773 84.6439 403.466 85.2955C403.163 85.9432 403.011 86.7367 403.011 87.6761C403.011 88.6193 403.165 89.4167 403.471 90.0682C403.778 90.7197 404.199 91.214 404.733 91.5511C405.267 91.8883 405.875 92.0568 406.557 92.0568C407.189 92.0568 407.74 91.928 408.21 91.6705C408.684 91.4129 409.049 91.0492 409.307 90.5795C409.568 90.1061 409.699 89.5492 409.699 88.9091L410.153 88.9943H406.824V87.5455H411.398V88.8693C411.398 89.8466 411.189 90.6951 410.773 91.4148C410.36 92.1307 409.788 92.6837 409.057 93.0739C408.329 93.464 407.496 93.6591 406.557 93.6591C405.504 93.6591 404.579 93.4167 403.784 92.9318C402.992 92.447 402.375 91.7595 401.932 90.8693C401.488 89.9754 401.267 88.9148 401.267 87.6875C401.267 86.7595 401.396 85.9261 401.653 85.1875C401.911 84.4489 402.273 83.822 402.738 83.3068C403.208 82.7879 403.759 82.392 404.392 82.1193C405.028 81.8428 405.723 81.7045 406.477 81.7045C407.106 81.7045 407.691 81.7973 408.233 81.983C408.778 82.1686 409.263 82.4318 409.687 82.7727C410.115 83.1136 410.47 83.5189 410.75 83.9886C411.03 84.4545 411.22 84.9716 411.318 85.5398H409.517ZM422.842 81.8636V93.5H421.229L415.314 84.9659H415.206V93.5H413.45V81.8636H415.075L420.996 90.4091H421.104V81.8636H422.842ZM435.335 87.6818C435.335 88.9242 435.108 89.9924 434.654 90.8864C434.199 91.7765 433.576 92.4621 432.784 92.9432C431.996 93.4205 431.101 93.6591 430.097 93.6591C429.089 93.6591 428.19 93.4205 427.398 92.9432C426.61 92.4621 425.989 91.7746 425.534 90.8807C425.08 89.9867 424.852 88.9205 424.852 87.6818C424.852 86.4394 425.08 85.3731 425.534 84.483C425.989 83.589 426.61 82.9034 427.398 82.4261C428.19 81.9451 429.089 81.7045 430.097 81.7045C431.101 81.7045 431.996 81.9451 432.784 82.4261C433.576 82.9034 434.199 83.589 434.654 84.483C435.108 85.3731 435.335 86.4394 435.335 87.6818ZM433.597 87.6818C433.597 86.7348 433.443 85.9375 433.136 85.2898C432.833 84.6383 432.417 84.1458 431.886 83.8125C431.36 83.4754 430.763 83.3068 430.097 83.3068C429.426 83.3068 428.828 83.4754 428.301 83.8125C427.775 84.1458 427.358 84.6383 427.051 85.2898C426.748 85.9375 426.597 86.7348 426.597 87.6818C426.597 88.6288 426.748 89.428 427.051 90.0795C427.358 90.7273 427.775 91.2197 428.301 91.5568C428.828 91.8902 429.426 92.0568 430.097 92.0568C430.763 92.0568 431.36 91.8902 431.886 91.5568C432.417 91.2197 432.833 90.7273 433.136 90.0795C433.443 89.428 433.597 88.6288 433.597 87.6818ZM443.695 84.9205C443.634 84.3826 443.384 83.9659 442.945 83.6705C442.505 83.3712 441.952 83.2216 441.286 83.2216C440.809 83.2216 440.396 83.2973 440.047 83.4489C439.699 83.5966 439.428 83.8011 439.235 84.0625C439.045 84.3201 438.951 84.6136 438.951 84.9432C438.951 85.2197 439.015 85.4583 439.144 85.6591C439.276 85.8598 439.449 86.0284 439.661 86.1648C439.877 86.2973 440.108 86.4091 440.354 86.5C440.6 86.5871 440.837 86.6591 441.064 86.7159L442.201 87.0114C442.572 87.1023 442.952 87.2254 443.343 87.3807C443.733 87.536 444.094 87.7405 444.428 87.9943C444.761 88.2481 445.03 88.5625 445.235 88.9375C445.443 89.3125 445.547 89.7614 445.547 90.2841C445.547 90.9432 445.377 91.5284 445.036 92.0398C444.699 92.5511 444.208 92.9545 443.564 93.25C442.924 93.5455 442.149 93.6932 441.24 93.6932C440.369 93.6932 439.615 93.5549 438.979 93.2784C438.343 93.0019 437.844 92.6098 437.485 92.1023C437.125 91.5909 436.926 90.9848 436.888 90.2841H438.649C438.684 90.7045 438.82 91.0549 439.059 91.3352C439.301 91.6117 439.61 91.8182 439.985 91.9545C440.363 92.0871 440.778 92.1534 441.229 92.1534C441.725 92.1534 442.166 92.0758 442.553 91.9205C442.943 91.7614 443.25 91.5417 443.473 91.2614C443.697 90.9773 443.809 90.6458 443.809 90.267C443.809 89.9223 443.71 89.6402 443.513 89.4205C443.32 89.2008 443.057 89.0189 442.723 88.875C442.394 88.7311 442.021 88.6042 441.604 88.4943L440.229 88.1193C439.297 87.8655 438.559 87.4924 438.013 87C437.471 86.5076 437.201 85.8561 437.201 85.0455C437.201 84.375 437.382 83.7898 437.746 83.2898C438.11 82.7898 438.602 82.4015 439.223 82.125C439.844 81.8447 440.545 81.7045 441.326 81.7045C442.113 81.7045 442.809 81.8428 443.411 82.1193C444.017 82.3958 444.494 82.7765 444.843 83.2614C445.191 83.7424 445.373 84.2955 445.388 84.9205H443.695ZM449.225 81.8636V93.5H447.469V81.8636H449.225ZM457.952 84.9205C457.892 84.3826 457.642 83.9659 457.202 83.6705C456.763 83.3712 456.21 83.2216 455.543 83.2216C455.066 83.2216 454.653 83.2973 454.305 83.4489C453.956 83.5966 453.685 83.8011 453.492 84.0625C453.303 84.3201 453.208 84.6136 453.208 84.9432C453.208 85.2197 453.272 85.4583 453.401 85.6591C453.534 85.8598 453.706 86.0284 453.918 86.1648C454.134 86.2973 454.365 86.4091 454.611 86.5C454.858 86.5871 455.094 86.6591 455.322 86.7159L456.458 87.0114C456.829 87.1023 457.21 87.2254 457.6 87.3807C457.99 87.536 458.352 87.7405 458.685 87.9943C459.019 88.2481 459.287 88.5625 459.492 88.9375C459.7 89.3125 459.805 89.7614 459.805 90.2841C459.805 90.9432 459.634 91.5284 459.293 92.0398C458.956 92.5511 458.466 92.9545 457.822 93.25C457.181 93.5455 456.407 93.6932 455.498 93.6932C454.626 93.6932 453.873 93.5549 453.236 93.2784C452.6 93.0019 452.102 92.6098 451.742 92.1023C451.382 91.5909 451.183 90.9848 451.145 90.2841H452.907C452.941 90.7045 453.077 91.0549 453.316 91.3352C453.558 91.6117 453.867 91.8182 454.242 91.9545C454.621 92.0871 455.036 92.1534 455.486 92.1534C455.983 92.1534 456.424 92.0758 456.81 91.9205C457.2 91.7614 457.507 91.5417 457.731 91.2614C457.954 90.9773 458.066 90.6458 458.066 90.267C458.066 89.9223 457.967 89.6402 457.77 89.4205C457.577 89.2008 457.314 89.0189 456.981 88.875C456.651 88.7311 456.278 88.6042 455.861 88.4943L454.486 88.1193C453.555 87.8655 452.816 87.4924 452.27 87C451.729 86.5076 451.458 85.8561 451.458 85.0455C451.458 84.375 451.64 83.7898 452.003 83.2898C452.367 82.7898 452.859 82.4015 453.481 82.125C454.102 81.8447 454.803 81.7045 455.583 81.7045C456.371 81.7045 457.066 81.8428 457.668 82.1193C458.274 82.3958 458.751 82.7765 459.1 83.2614C459.448 83.7424 459.63 84.2955 459.645 84.9205H457.952Z" fill="black" fill-opacity="0.8"/>
<path d="M184.779 158.119C184.436 157.687 183.807 157.614 183.374 157.958C182.942 158.301 182.87 158.93 183.213 159.363L183.996 158.741L184.779 158.119ZM240.002 229.274L239.219 229.896L239.219 229.896L240.002 229.274ZM244.945 235.5L245.728 234.878L245.728 234.878L244.945 235.5ZM247.735 240.622C248.078 241.054 248.707 241.127 249.14 240.783C249.573 240.44 249.645 239.811 249.301 239.378L248.518 240L247.735 240.622ZM280.268 278.378C279.925 277.946 279.296 277.873 278.863 278.217C278.431 278.56 278.359 279.189 278.702 279.622L279.485 279L280.268 278.378ZM288.002 289.726L288.785 289.104L288.785 289.104L288.002 289.726ZM343.893 361.252C344.442 361.315 344.938 360.922 345.001 360.373L346.027 351.432C346.09 350.883 345.697 350.387 345.148 350.324C344.599 350.261 344.103 350.655 344.04 351.204L343.128 359.151L335.18 358.239C334.631 358.176 334.136 358.57 334.073 359.118C334.01 359.667 334.403 360.163 334.952 360.226L343.893 361.252ZM183.996 158.741L183.213 159.363L239.219 229.896L240.002 229.274L240.785 228.653L184.779 158.119L183.996 158.741ZM240.002 229.274L239.219 229.896L244.162 236.122L244.945 235.5L245.728 234.878L240.785 228.653L240.002 229.274ZM244.945 235.5L244.162 236.122L247.735 240.622L248.518 240L249.301 239.378L245.728 234.878L244.945 235.5ZM279.485 279L278.702 279.622L287.219 290.347L288.002 289.726L288.785 289.104L280.268 278.378L279.485 279ZM288.002 289.726L287.219 290.347L343.224 360.881L344.007 360.259L344.791 359.637L288.785 289.104L288.002 289.726Z" fill="black" fill-opacity="0.8"/>
<path d="M248.814 265.5V253.864H250.569V258.92H256.371V253.864H258.132V265.5H256.371V260.426H250.569V265.5H248.814ZM261.496 265.5H259.632L263.82 253.864H265.848L270.036 265.5H268.172L264.882 255.977H264.791L261.496 265.5ZM261.808 260.943H267.854V262.42H261.808V260.943ZM277.793 256.92C277.732 256.383 277.482 255.966 277.043 255.67C276.603 255.371 276.05 255.222 275.384 255.222C274.906 255.222 274.494 255.297 274.145 255.449C273.797 255.597 273.526 255.801 273.333 256.062C273.143 256.32 273.048 256.614 273.048 256.943C273.048 257.22 273.113 257.458 273.242 257.659C273.374 257.86 273.547 258.028 273.759 258.165C273.975 258.297 274.206 258.409 274.452 258.5C274.698 258.587 274.935 258.659 275.162 258.716L276.298 259.011C276.67 259.102 277.05 259.225 277.44 259.381C277.831 259.536 278.192 259.741 278.526 259.994C278.859 260.248 279.128 260.562 279.333 260.938C279.541 261.312 279.645 261.761 279.645 262.284C279.645 262.943 279.475 263.528 279.134 264.04C278.797 264.551 278.306 264.955 277.662 265.25C277.022 265.545 276.247 265.693 275.338 265.693C274.467 265.693 273.713 265.555 273.077 265.278C272.44 265.002 271.942 264.61 271.583 264.102C271.223 263.591 271.024 262.985 270.986 262.284H272.747C272.781 262.705 272.918 263.055 273.156 263.335C273.399 263.612 273.708 263.818 274.083 263.955C274.461 264.087 274.876 264.153 275.327 264.153C275.823 264.153 276.264 264.076 276.651 263.92C277.041 263.761 277.348 263.542 277.571 263.261C277.795 262.977 277.906 262.646 277.906 262.267C277.906 261.922 277.808 261.64 277.611 261.42C277.418 261.201 277.154 261.019 276.821 260.875C276.492 260.731 276.119 260.604 275.702 260.494L274.327 260.119C273.395 259.866 272.656 259.492 272.111 259C271.569 258.508 271.298 257.856 271.298 257.045C271.298 256.375 271.48 255.79 271.844 255.29C272.208 254.79 272.7 254.402 273.321 254.125C273.942 253.845 274.643 253.705 275.423 253.705C276.211 253.705 276.906 253.843 277.509 254.119C278.115 254.396 278.592 254.777 278.94 255.261C279.289 255.742 279.471 256.295 279.486 256.92H277.793Z" fill="black" fill-opacity="0.8"/>
<path d="M645.298 150.277C645.666 149.865 645.63 149.233 645.218 148.865C644.806 148.498 644.173 148.533 643.806 148.945L644.552 149.611L645.298 150.277ZM568.999 234.27L569.745 234.936L569.745 234.936L568.999 234.27ZM567.155 234.834C566.787 235.246 566.823 235.878 567.235 236.246C567.647 236.614 568.28 236.578 568.647 236.166L567.901 235.5L567.155 234.834ZM533.842 275.166C534.21 274.754 534.174 274.122 533.762 273.754C533.35 273.386 532.718 273.422 532.35 273.834L533.096 274.5L533.842 275.166ZM531.999 275.73L532.745 276.395L532.745 276.395L531.999 275.73ZM529.08 279L528.334 278.334L528.334 278.334L529.08 279ZM468.499 346.883L469.245 347.549L469.245 347.549L468.499 346.883ZM455.447 360.445C455.478 360.997 455.951 361.418 456.502 361.387L465.488 360.876C466.039 360.845 466.461 360.373 466.429 359.821C466.398 359.27 465.925 358.848 465.374 358.88L457.387 359.334L456.933 351.346C456.902 350.795 456.429 350.373 455.878 350.405C455.326 350.436 454.905 350.909 454.936 351.46L455.447 360.445ZM644.552 149.611L643.806 148.945L568.252 233.605L568.999 234.27L569.745 234.936L645.298 150.277L644.552 149.611ZM568.999 234.27L568.252 233.605L567.155 234.834L567.901 235.5L568.647 236.166L569.745 234.936L568.999 234.27ZM533.096 274.5L532.35 273.834L531.252 275.064L531.999 275.73L532.745 276.395L533.842 275.166L533.096 274.5ZM531.999 275.73L531.252 275.064L528.334 278.334L529.08 279L529.826 279.666L532.745 276.395L531.999 275.73ZM529.08 279L528.334 278.334L467.752 346.217L468.499 346.883L469.245 347.549L529.826 279.666L529.08 279ZM468.499 346.883L467.752 346.217L455.699 359.723L456.445 360.389L457.191 361.055L469.245 347.549L468.499 346.883Z" fill="black" fill-opacity="0.8"/>
<path d="M551.138 255.182C551.138 256.424 550.911 257.492 550.457 258.386C550.002 259.277 549.379 259.962 548.587 260.443C547.799 260.92 546.904 261.159 545.9 261.159C544.892 261.159 543.993 260.92 543.201 260.443C542.413 259.962 541.792 259.275 541.337 258.381C540.883 257.487 540.655 256.42 540.655 255.182C540.655 253.939 540.883 252.873 541.337 251.983C541.792 251.089 542.413 250.403 543.201 249.926C543.993 249.445 544.892 249.205 545.9 249.205C546.904 249.205 547.799 249.445 548.587 249.926C549.379 250.403 550.002 251.089 550.457 251.983C550.911 252.873 551.138 253.939 551.138 255.182ZM549.4 255.182C549.4 254.235 549.246 253.437 548.94 252.79C548.637 252.138 548.22 251.646 547.69 251.312C547.163 250.975 546.566 250.807 545.9 250.807C545.229 250.807 544.631 250.975 544.104 251.312C543.578 251.646 543.161 252.138 542.854 252.79C542.551 253.437 542.4 254.235 542.4 255.182C542.4 256.129 542.551 256.928 542.854 257.58C543.161 258.227 543.578 258.72 544.104 259.057C544.631 259.39 545.229 259.557 545.9 259.557C546.566 259.557 547.163 259.39 547.69 259.057C548.22 258.72 548.637 258.227 548.94 257.58C549.246 256.928 549.4 256.129 549.4 255.182ZM553.151 261V249.364H560.367V250.875H554.907V254.42H559.85V255.926H554.907V261H553.151Z" fill="black" fill-opacity="0.8"/>
<path d="M0.966 62V54.762H2.632V55.798C2.744 55.6113 2.89567 55.4317 3.087 55.259C3.283 55.0863 3.52333 54.9463 3.808 54.839C4.09267 54.7317 4.42633 54.678 4.809 54.678C5.257 54.678 5.67233 54.7667 6.055 54.944C6.44233 55.1213 6.75267 55.399 6.986 55.777C7.224 56.155 7.343 56.6427 7.343 57.24V62H5.635V57.443C5.635 56.967 5.50433 56.6147 5.243 56.386C4.98167 56.1527 4.65267 56.036 4.256 56.036C3.98533 56.036 3.72867 56.0827 3.486 56.176C3.24333 56.2647 3.045 56.4023 2.891 56.589C2.74167 56.771 2.667 56.9997 2.667 57.275V62H0.966ZM11.2211 62.14C10.7591 62.14 10.3438 62.056 9.97511 61.888C9.61111 61.7153 9.32411 61.4703 9.11411 61.153C8.90878 60.831 8.80611 60.4413 8.80611 59.984C8.80611 59.186 9.09311 58.584 9.66711 58.178C10.2458 57.772 11.1651 57.5597 12.4251 57.541L13.5101 57.513V57.023C13.5101 56.6403 13.3958 56.3417 13.1671 56.127C12.9431 55.9077 12.5931 55.8003 12.1171 55.805C11.7624 55.8097 11.4404 55.8937 11.1511 56.057C10.8618 56.2157 10.6704 56.484 10.5771 56.862H9.12811C9.15611 56.3673 9.29844 55.9543 9.55511 55.623C9.81644 55.287 10.1734 55.0373 10.6261 54.874C11.0788 54.706 11.6014 54.622 12.1941 54.622C12.8848 54.622 13.4471 54.713 13.8811 54.895C14.3151 55.077 14.6348 55.3407 14.8401 55.686C15.0454 56.0267 15.1481 56.4397 15.1481 56.925V62H13.7131L13.5731 60.698C13.3164 61.244 12.9874 61.622 12.5861 61.832C12.1894 62.0373 11.7344 62.14 11.2211 62.14ZM11.7741 60.985C11.9841 60.985 12.1918 60.9477 12.3971 60.873C12.6024 60.7937 12.7868 60.6887 12.9501 60.558C13.1181 60.4227 13.2511 60.2733 13.3491 60.11C13.4518 59.9467 13.5054 59.7763 13.5101 59.599V58.458L12.6211 58.472C12.1824 58.4767 11.7974 58.5233 11.4661 58.612C11.1394 58.7007 10.8851 58.843 10.7031 59.039C10.5211 59.2303 10.4301 59.487 10.4301 59.809C10.4301 60.1777 10.5584 60.467 10.8151 60.677C11.0718 60.8823 11.3914 60.985 11.7741 60.985ZM16.9621 62V54.762H18.6211V55.798C18.8311 55.4807 19.1158 55.2053 19.4751 54.972C19.8391 54.7387 20.3011 54.622 20.8611 54.622C21.1178 54.622 21.3768 54.6663 21.6381 54.755C21.9041 54.8437 22.1491 54.9743 22.3731 55.147C22.6018 55.3197 22.7838 55.5343 22.9191 55.791C23.1478 55.4503 23.4511 55.1703 23.8291 54.951C24.2118 54.7317 24.6411 54.622 25.1171 54.622C25.3784 54.622 25.6468 54.664 25.9221 54.748C26.2021 54.832 26.4588 54.972 26.6921 55.168C26.9254 55.364 27.1144 55.6323 27.2591 55.973C27.4038 56.309 27.4761 56.7313 27.4761 57.24V62H25.7751V57.443C25.7751 57.0837 25.7121 56.8013 25.5861 56.596C25.4601 56.3907 25.2968 56.246 25.0961 56.162C24.9001 56.0733 24.6901 56.029 24.4661 56.029C24.2654 56.029 24.0554 56.0687 23.8361 56.148C23.6214 56.2273 23.4371 56.358 23.2831 56.54C23.1338 56.722 23.0591 56.967 23.0591 57.275V62H21.3581V57.17C21.3581 56.918 21.2928 56.708 21.1621 56.54C21.0314 56.372 20.8658 56.246 20.6651 56.162C20.4691 56.0733 20.2684 56.029 20.0631 56.029C19.8531 56.029 19.6384 56.0733 19.4191 56.162C19.2044 56.2507 19.0248 56.386 18.8801 56.568C18.7354 56.75 18.6631 56.9857 18.6631 57.275V62H16.9621ZM32.5068 62.14C31.8115 62.14 31.1978 61.993 30.6658 61.699C30.1385 61.4003 29.7255 60.9757 29.4268 60.425C29.1328 59.8743 28.9858 59.2187 28.9858 58.458C28.9858 57.716 29.1188 57.058 29.3848 56.484C29.6555 55.9053 30.0451 55.4503 30.5538 55.119C31.0671 54.7877 31.6855 54.622 32.4088 54.622C33.1228 54.622 33.7225 54.7737 34.2078 55.077C34.6931 55.3803 35.0618 55.805 35.3138 56.351C35.5658 56.8923 35.6918 57.527 35.6918 58.255V58.773H30.6868C30.6821 59.1837 30.7475 59.5477 30.8828 59.865C31.0181 60.1823 31.2188 60.432 31.4848 60.614C31.7508 60.7913 32.0798 60.88 32.4718 60.88C32.8731 60.88 33.2208 60.7913 33.5148 60.614C33.8135 60.432 34.0118 60.1567 34.1098 59.788H35.6638C35.5798 60.292 35.3791 60.719 35.0618 61.069C34.7491 61.419 34.3665 61.685 33.9138 61.867C33.4658 62.049 32.9968 62.14 32.5068 62.14ZM30.6798 57.716H34.0818C34.0818 57.366 34.0188 57.051 33.8928 56.771C33.7715 56.4863 33.5871 56.2623 33.3398 56.099C33.0925 55.931 32.7798 55.847 32.4018 55.847C32.0285 55.847 31.7135 55.938 31.4568 56.12C31.2001 56.302 31.0065 56.5377 30.8758 56.827C30.7451 57.1117 30.6798 57.408 30.6798 57.716ZM37.0815 56.932V54.986H39.0065V56.932H37.0815ZM37.0815 61.958V60.026H39.0065V61.958H37.0815ZM3.738 86.14C3.234 86.14 2.75567 86.0607 2.303 85.902C1.855 85.7387 1.477 85.4843 1.169 85.139C0.865667 84.7937 0.674333 84.348 0.595 83.802H2.093C2.15833 84.068 2.27267 84.285 2.436 84.453C2.604 84.621 2.8 84.7447 3.024 84.824C3.25267 84.8987 3.48833 84.936 3.731 84.936C4.165 84.936 4.515 84.8613 4.781 84.712C5.047 84.5627 5.18 84.3317 5.18 84.019C5.18 83.7903 5.10533 83.6083 4.956 83.473C4.81133 83.3377 4.57333 83.235 4.242 83.165L2.87 82.85C2.254 82.7147 1.76167 82.4907 1.393 82.178C1.02433 81.8653 0.837667 81.4243 0.833 80.855C0.828333 80.4257 0.935667 80.043 1.155 79.707C1.37433 79.371 1.701 79.1073 2.135 78.916C2.569 78.72 3.10333 78.622 3.738 78.622C4.58267 78.622 5.25933 78.811 5.768 79.189C6.28133 79.5623 6.545 80.0967 6.559 80.792H5.11C5.05867 80.4793 4.91167 80.2367 4.669 80.064C4.42633 79.8867 4.11133 79.798 3.724 79.798C3.32267 79.798 2.99367 79.875 2.737 80.029C2.48033 80.183 2.352 80.4187 2.352 80.736C2.352 80.9553 2.44767 81.128 2.639 81.254C2.835 81.38 3.13133 81.4873 3.528 81.576L4.83 81.891C5.20333 81.9843 5.509 82.1103 5.747 82.269C5.985 82.4277 6.16933 82.6027 6.3 82.794C6.43533 82.9807 6.52867 83.1743 6.58 83.375C6.636 83.571 6.664 83.753 6.664 83.921C6.664 84.3877 6.54267 84.7867 6.3 85.118C6.062 85.4447 5.72367 85.6967 5.285 85.874C4.851 86.0513 4.33533 86.14 3.738 86.14ZM10.9431 86.14C10.4391 86.14 9.96074 86.0607 9.50808 85.902C9.06008 85.7387 8.68208 85.4843 8.37408 85.139C8.07074 84.7937 7.87941 84.348 7.80008 83.802H9.29808C9.36341 84.068 9.47774 84.285 9.64108 84.453C9.80908 84.621 10.0051 84.7447 10.2291 84.824C10.4577 84.8987 10.6934 84.936 10.9361 84.936C11.3701 84.936 11.7201 84.8613 11.9861 84.712C12.2521 84.5627 12.3851 84.3317 12.3851 84.019C12.3851 83.7903 12.3104 83.6083 12.1611 83.473C12.0164 83.3377 11.7784 83.235 11.4471 83.165L10.0751 82.85C9.45908 82.7147 8.96674 82.4907 8.59808 82.178C8.22941 81.8653 8.04274 81.4243 8.03808 80.855C8.03341 80.4257 8.14074 80.043 8.36008 79.707C8.57941 79.371 8.90608 79.1073 9.34008 78.916C9.77408 78.72 10.3084 78.622 10.9431 78.622C11.7877 78.622 12.4644 78.811 12.9731 79.189C13.4864 79.5623 13.7501 80.0967 13.7641 80.792H12.3151C12.2637 80.4793 12.1167 80.2367 11.8741 80.064C11.6314 79.8867 11.3164 79.798 10.9291 79.798C10.5277 79.798 10.1987 79.875 9.94208 80.029C9.68541 80.183 9.55708 80.4187 9.55708 80.736C9.55708 80.9553 9.65274 81.128 9.84408 81.254C10.0401 81.38 10.3364 81.4873 10.7331 81.576L12.0351 81.891C12.4084 81.9843 12.7141 82.1103 12.9521 82.269C13.1901 82.4277 13.3744 82.6027 13.5051 82.794C13.6404 82.9807 13.7337 83.1743 13.7851 83.375C13.8411 83.571 13.8691 83.753 13.8691 83.921C13.8691 84.3877 13.7477 84.7867 13.5051 85.118C13.2671 85.4447 12.9287 85.6967 12.4901 85.874C12.0561 86.0513 11.5404 86.14 10.9431 86.14ZM15.4172 86V78.762H17.0832V79.798C17.1952 79.6113 17.3468 79.4317 17.5382 79.259C17.7342 79.0863 17.9745 78.9463 18.2592 78.839C18.5438 78.7317 18.8775 78.678 19.2602 78.678C19.7082 78.678 20.1235 78.7667 20.5062 78.944C20.8935 79.1213 21.2038 79.399 21.4372 79.777C21.6752 80.155 21.7942 80.6427 21.7942 81.24V86H20.0862V81.443C20.0862 80.967 19.9555 80.6147 19.6942 80.386C19.4328 80.1527 19.1038 80.036 18.7072 80.036C18.4365 80.036 18.1798 80.0827 17.9372 80.176C17.6945 80.2647 17.4962 80.4023 17.3422 80.589C17.1928 80.771 17.1182 80.9997 17.1182 81.275V86H15.4172ZM23.3823 80.932V78.986H25.3073V80.932H23.3823ZM23.3823 85.958V84.026H25.3073V85.958H23.3823ZM3.059 110.14C2.597 110.14 2.18167 110.056 1.813 109.888C1.449 109.715 1.162 109.47 0.952 109.153C0.746667 108.831 0.644 108.441 0.644 107.984C0.644 107.186 0.931 106.584 1.505 106.178C2.08367 105.772 3.003 105.56 4.263 105.541L5.348 105.513V105.023C5.348 104.64 5.23367 104.342 5.005 104.127C4.781 103.908 4.431 103.8 3.955 103.805C3.60033 103.81 3.27833 103.894 2.989 104.057C2.69967 104.216 2.50833 104.484 2.415 104.862H0.966C0.994 104.367 1.13633 103.954 1.393 103.623C1.65433 103.287 2.01133 103.037 2.464 102.874C2.91667 102.706 3.43933 102.622 4.032 102.622C4.72267 102.622 5.285 102.713 5.719 102.895C6.153 103.077 6.47267 103.341 6.678 103.686C6.88333 104.027 6.986 104.44 6.986 104.925V110H5.551L5.411 108.698C5.15433 109.244 4.82533 109.622 4.424 109.832C4.02733 110.037 3.57233 110.14 3.059 110.14ZM3.612 108.985C3.822 108.985 4.02967 108.948 4.235 108.873C4.44033 108.794 4.62467 108.689 4.788 108.558C4.956 108.423 5.089 108.273 5.187 108.11C5.28967 107.947 5.34333 107.776 5.348 107.599V106.458L4.459 106.472C4.02033 106.477 3.63533 106.523 3.304 106.612C2.97733 106.701 2.723 106.843 2.541 107.039C2.359 107.23 2.268 107.487 2.268 107.809C2.268 108.178 2.39633 108.467 2.653 108.677C2.90967 108.882 3.22933 108.985 3.612 108.985ZM11.488 110.14C10.5313 110.14 9.77998 109.811 9.23398 109.153C8.68798 108.495 8.41498 107.559 8.41498 106.346C8.41498 105.59 8.52465 104.934 8.74398 104.379C8.96798 103.819 9.29698 103.387 9.73098 103.084C10.165 102.776 10.6993 102.622 11.334 102.622C11.6327 102.622 11.9033 102.659 12.146 102.734C12.3933 102.804 12.6127 102.897 12.804 103.014C12.9953 103.131 13.1563 103.259 13.287 103.399C13.4223 103.539 13.5273 103.679 13.602 103.819V99.598H15.317V110H14.057L13.868 108.516C13.8073 108.689 13.721 108.871 13.609 109.062C13.5017 109.249 13.3547 109.424 13.168 109.587C12.986 109.75 12.7573 109.883 12.482 109.986C12.2067 110.089 11.8753 110.14 11.488 110.14ZM11.838 108.887C12.4493 108.887 12.895 108.689 13.175 108.292C13.4597 107.891 13.602 107.228 13.602 106.304C13.5973 105.777 13.532 105.333 13.406 104.974C13.2847 104.615 13.098 104.344 12.846 104.162C12.594 103.98 12.265 103.889 11.859 103.889C11.3457 103.889 10.9233 104.078 10.592 104.456C10.2653 104.834 10.102 105.45 10.102 106.304C10.102 107.153 10.2537 107.797 10.557 108.236C10.8603 108.67 11.2873 108.887 11.838 108.887ZM19.9235 110.14C18.9669 110.14 18.2155 109.811 17.6695 109.153C17.1235 108.495 16.8505 107.559 16.8505 106.346C16.8505 105.59 16.9602 104.934 17.1795 104.379C17.4035 103.819 17.7325 103.387 18.1665 103.084C18.6005 102.776 19.1349 102.622 19.7695 102.622C20.0682 102.622 20.3389 102.659 20.5815 102.734C20.8289 102.804 21.0482 102.897 21.2395 103.014C21.4309 103.131 21.5919 103.259 21.7225 103.399C21.8579 103.539 21.9629 103.679 22.0375 103.819V99.598H23.7525V110H22.4925L22.3035 108.516C22.2429 108.689 22.1565 108.871 22.0445 109.062C21.9372 109.249 21.7902 109.424 21.6035 109.587C21.4215 109.75 21.1929 109.883 20.9175 109.986C20.6422 110.089 20.3109 110.14 19.9235 110.14ZM20.2735 108.887C20.8849 108.887 21.3305 108.689 21.6105 108.292C21.8952 107.891 22.0375 107.228 22.0375 106.304C22.0329 105.777 21.9675 105.333 21.8415 104.974C21.7202 104.615 21.5335 104.344 21.2815 104.162C21.0295 103.98 20.7005 103.889 20.2945 103.889C19.7812 103.889 19.3589 104.078 19.0275 104.456C18.7009 104.834 18.5375 105.45 18.5375 106.304C18.5375 107.153 18.6892 107.797 18.9925 108.236C19.2959 108.67 19.7229 108.887 20.2735 108.887ZM25.7394 110V102.762H27.3704V104.33C27.4871 103.971 27.6528 103.665 27.8674 103.413C28.0868 103.156 28.3434 102.96 28.6374 102.825C28.9314 102.69 29.2511 102.622 29.5964 102.622C29.6804 102.622 29.7621 102.627 29.8414 102.636C29.9208 102.645 29.9791 102.662 30.0164 102.685V104.316C29.9651 104.293 29.8974 104.276 29.8134 104.267C29.7341 104.258 29.6641 104.253 29.6034 104.253C29.2534 104.225 28.9431 104.239 28.6724 104.295C28.4064 104.351 28.1801 104.447 27.9934 104.582C27.8114 104.713 27.6738 104.881 27.5804 105.086C27.4871 105.287 27.4404 105.522 27.4404 105.793V110H25.7394ZM34.5166 110.14C33.8212 110.14 33.2076 109.993 32.6756 109.699C32.1482 109.4 31.7352 108.976 31.4366 108.425C31.1426 107.874 30.9956 107.219 30.9956 106.458C30.9956 105.716 31.1286 105.058 31.3946 104.484C31.6652 103.905 32.0549 103.45 32.5636 103.119C33.0769 102.788 33.6952 102.622 34.4186 102.622C35.1326 102.622 35.7322 102.774 36.2176 103.077C36.7029 103.38 37.0716 103.805 37.3236 104.351C37.5756 104.892 37.7016 105.527 37.7016 106.255V106.773H32.6966C32.6919 107.184 32.7572 107.548 32.8926 107.865C33.0279 108.182 33.2286 108.432 33.4946 108.614C33.7606 108.791 34.0896 108.88 34.4816 108.88C34.8829 108.88 35.2306 108.791 35.5246 108.614C35.8232 108.432 36.0216 108.157 36.1196 107.788H37.6736C37.5896 108.292 37.3889 108.719 37.0716 109.069C36.7589 109.419 36.3762 109.685 35.9236 109.867C35.4756 110.049 35.0066 110.14 34.5166 110.14ZM32.6896 105.716H36.0916C36.0916 105.366 36.0286 105.051 35.9026 104.771C35.7812 104.486 35.5969 104.262 35.3496 104.099C35.1022 103.931 34.7896 103.847 34.4116 103.847C34.0382 103.847 33.7232 103.938 33.4666 104.12C33.2099 104.302 33.0162 104.538 32.8856 104.827C32.7549 105.112 32.6896 105.408 32.6896 105.716ZM42.0739 110.14C41.5699 110.14 41.0916 110.061 40.6389 109.902C40.1909 109.739 39.8129 109.484 39.5049 109.139C39.2016 108.794 39.0103 108.348 38.9309 107.802H40.4289C40.4943 108.068 40.6086 108.285 40.7719 108.453C40.9399 108.621 41.1359 108.745 41.3599 108.824C41.5886 108.899 41.8243 108.936 42.0669 108.936C42.5009 108.936 42.8509 108.861 43.1169 108.712C43.3829 108.563 43.5159 108.332 43.5159 108.019C43.5159 107.79 43.4413 107.608 43.2919 107.473C43.1473 107.338 42.9093 107.235 42.5779 107.165L41.2059 106.85C40.5899 106.715 40.0976 106.491 39.7289 106.178C39.3603 105.865 39.1736 105.424 39.1689 104.855C39.1643 104.426 39.2716 104.043 39.4909 103.707C39.7103 103.371 40.0369 103.107 40.4709 102.916C40.9049 102.72 41.4393 102.622 42.0739 102.622C42.9186 102.622 43.5953 102.811 44.1039 103.189C44.6173 103.562 44.8809 104.097 44.8949 104.792H43.4459C43.3946 104.479 43.2476 104.237 43.0049 104.064C42.7623 103.887 42.4473 103.798 42.0599 103.798C41.6586 103.798 41.3296 103.875 41.0729 104.029C40.8163 104.183 40.6879 104.419 40.6879 104.736C40.6879 104.955 40.7836 105.128 40.9749 105.254C41.1709 105.38 41.4673 105.487 41.8639 105.576L43.1659 105.891C43.5393 105.984 43.8449 106.11 44.0829 106.269C44.3209 106.428 44.5053 106.603 44.6359 106.794C44.7713 106.981 44.8646 107.174 44.9159 107.375C44.9719 107.571 44.9999 107.753 44.9999 107.921C44.9999 108.388 44.8786 108.787 44.6359 109.118C44.3979 109.445 44.0596 109.697 43.6209 109.874C43.1869 110.051 42.6713 110.14 42.0739 110.14ZM49.279 110.14C48.775 110.14 48.2967 110.061 47.844 109.902C47.396 109.739 47.018 109.484 46.71 109.139C46.4067 108.794 46.2153 108.348 46.136 107.802H47.634C47.6993 108.068 47.8137 108.285 47.977 108.453C48.145 108.621 48.341 108.745 48.565 108.824C48.7937 108.899 49.0293 108.936 49.272 108.936C49.706 108.936 50.056 108.861 50.322 108.712C50.588 108.563 50.721 108.332 50.721 108.019C50.721 107.79 50.6463 107.608 50.497 107.473C50.3523 107.338 50.1143 107.235 49.783 107.165L48.411 106.85C47.795 106.715 47.3027 106.491 46.934 106.178C46.5653 105.865 46.3787 105.424 46.374 104.855C46.3693 104.426 46.4767 104.043 46.696 103.707C46.9153 103.371 47.242 103.107 47.676 102.916C48.11 102.72 48.6443 102.622 49.279 102.622C50.1237 102.622 50.8003 102.811 51.309 103.189C51.8223 103.562 52.086 104.097 52.1 104.792H50.651C50.5997 104.479 50.4527 104.237 50.21 104.064C49.9673 103.887 49.6523 103.798 49.265 103.798C48.8637 103.798 48.5347 103.875 48.278 104.029C48.0213 104.183 47.893 104.419 47.893 104.736C47.893 104.955 47.9887 105.128 48.18 105.254C48.376 105.38 48.6723 105.487 49.069 105.576L50.371 105.891C50.7443 105.984 51.05 106.11 51.288 106.269C51.526 106.428 51.7103 106.603 51.841 106.794C51.9763 106.981 52.0697 107.174 52.121 107.375C52.177 107.571 52.205 107.753 52.205 107.921C52.205 108.388 52.0837 108.787 51.841 109.118C51.603 109.445 51.2647 109.697 50.826 109.874C50.392 110.051 49.8763 110.14 49.279 110.14ZM53.5151 104.932V102.986H55.4401V104.932H53.5151ZM53.5151 109.958V108.026H55.4401V109.958H53.5151ZM3.654 134.14C2.69733 134.14 1.946 133.811 1.4 133.153C0.854 132.495 0.581 131.559 0.581 130.346C0.581 129.59 0.690667 128.934 0.91 128.379C1.134 127.819 1.463 127.387 1.897 127.084C2.331 126.776 2.86533 126.622 3.5 126.622C3.79867 126.622 4.06933 126.659 4.312 126.734C4.55933 126.804 4.77867 126.897 4.97 127.014C5.16133 127.131 5.32233 127.259 5.453 127.399C5.58833 127.539 5.69333 127.679 5.768 127.819V123.598H7.483V134H6.223L6.034 132.516C5.97333 132.689 5.887 132.871 5.775 133.062C5.66767 133.249 5.52067 133.424 5.334 133.587C5.152 133.75 4.92333 133.883 4.648 133.986C4.37267 134.089 4.04133 134.14 3.654 134.14ZM4.004 132.887C4.61533 132.887 5.061 132.689 5.341 132.292C5.62567 131.891 5.768 131.228 5.768 130.304C5.76333 129.777 5.698 129.333 5.572 128.974C5.45067 128.615 5.264 128.344 5.012 128.162C4.76 127.98 4.431 127.889 4.025 127.889C3.51167 127.889 3.08933 128.078 2.758 128.456C2.43133 128.834 2.268 129.45 2.268 130.304C2.268 131.153 2.41967 131.797 2.723 132.236C3.02633 132.67 3.45333 132.887 4.004 132.887ZM12.4395 134.14C11.7489 134.14 11.1469 133.993 10.6335 133.699C10.1202 133.4 9.72121 132.973 9.43655 132.418C9.15655 131.863 9.01655 131.195 9.01655 130.416C9.01655 129.66 9.15421 128.997 9.42955 128.428C9.70488 127.859 10.0969 127.415 10.6055 127.098C11.1189 126.781 11.7325 126.622 12.4465 126.622C13.1372 126.622 13.7369 126.774 14.2455 127.077C14.7542 127.38 15.1462 127.814 15.4215 128.379C15.7015 128.944 15.8415 129.623 15.8415 130.416C15.8415 131.149 15.7085 131.795 15.4425 132.355C15.1812 132.91 14.7962 133.347 14.2875 133.664C13.7835 133.981 13.1675 134.14 12.4395 134.14ZM12.4465 132.845C12.8385 132.845 13.1605 132.738 13.4125 132.523C13.6692 132.308 13.8605 132.014 13.9865 131.641C14.1125 131.268 14.1755 130.843 14.1755 130.367C14.1755 129.924 14.1195 129.515 14.0075 129.142C13.8955 128.769 13.7112 128.47 13.4545 128.246C13.2025 128.017 12.8665 127.903 12.4465 127.903C12.0499 127.903 11.7209 128.008 11.4595 128.218C11.2029 128.423 11.0115 128.713 10.8855 129.086C10.7595 129.455 10.6965 129.882 10.6965 130.367C10.6965 130.806 10.7525 131.214 10.8645 131.592C10.9765 131.965 11.1609 132.269 11.4175 132.502C11.6742 132.731 12.0172 132.845 12.4465 132.845ZM21.2216 134.14C20.8343 134.14 20.5029 134.089 20.2276 133.986C19.9523 133.883 19.7213 133.75 19.5346 133.587C19.3526 133.424 19.2056 133.249 19.0936 133.062C18.9863 132.871 18.9046 132.689 18.8486 132.516L18.6526 134H17.3996V123.598H19.1076V127.819C19.1823 127.679 19.2849 127.539 19.4156 127.399C19.5509 127.259 19.7143 127.131 19.9056 127.014C20.0969 126.897 20.3139 126.804 20.5566 126.734C20.8039 126.659 21.0769 126.622 21.3756 126.622C22.2763 126.622 22.9879 126.942 23.5106 127.581C24.0333 128.22 24.2946 129.142 24.2946 130.346C24.2946 131.107 24.1779 131.772 23.9446 132.341C23.7159 132.91 23.3729 133.354 22.9156 133.671C22.4629 133.984 21.8983 134.14 21.2216 134.14ZM20.8716 132.887C21.3803 132.887 21.7979 132.684 22.1246 132.278C22.4513 131.872 22.6146 131.214 22.6146 130.304C22.6146 129.511 22.4606 128.911 22.1526 128.505C21.8446 128.094 21.4106 127.889 20.8506 127.889C20.4493 127.889 20.1203 127.98 19.8636 128.162C19.6116 128.344 19.4226 128.615 19.2966 128.974C19.1753 129.333 19.1123 129.777 19.1076 130.304C19.1076 131.228 19.2476 131.891 19.5276 132.292C19.8123 132.689 20.2603 132.887 20.8716 132.887ZM25.5971 128.932V126.986H27.5221V128.932H25.5971ZM25.5971 133.958V132.026H27.5221V133.958H25.5971Z" fill="black"/>
<path d="M382.788 17.14C382.401 17.14 382.069 17.0887 381.794 16.986C381.519 16.8833 381.288 16.7503 381.101 16.587C380.919 16.4237 380.772 16.2487 380.66 16.062C380.553 15.8707 380.471 15.6887 380.415 15.516L380.219 17H378.966V6.598H380.674V10.819C380.749 10.679 380.851 10.539 380.982 10.399C381.117 10.259 381.281 10.1307 381.472 10.014C381.663 9.89733 381.88 9.804 382.123 9.734C382.37 9.65933 382.643 9.622 382.942 9.622C383.843 9.622 384.554 9.94167 385.077 10.581C385.6 11.2203 385.861 12.142 385.861 13.346C385.861 14.1067 385.744 14.7717 385.511 15.341C385.282 15.9103 384.939 16.3537 384.482 16.671C384.029 16.9837 383.465 17.14 382.788 17.14ZM382.438 15.887C382.947 15.887 383.364 15.684 383.691 15.278C384.018 14.872 384.181 14.214 384.181 13.304C384.181 12.5107 384.027 11.911 383.719 11.505C383.411 11.0943 382.977 10.889 382.417 10.889C382.016 10.889 381.687 10.98 381.43 11.162C381.178 11.344 380.989 11.6147 380.863 11.974C380.742 12.3333 380.679 12.7767 380.674 13.304C380.674 14.228 380.814 14.8907 381.094 15.292C381.379 15.6887 381.827 15.887 382.438 15.887ZM388.196 19.31C387.729 19.31 387.405 19.2727 387.223 19.198C387.041 19.128 386.95 19.093 386.95 19.093V18.001L387.678 18.022C387.972 18.036 388.21 18.0197 388.392 17.973C388.579 17.9263 388.723 17.861 388.826 17.777C388.929 17.6977 389.003 17.6113 389.05 17.518C389.101 17.4293 389.141 17.3523 389.169 17.287L389.358 16.755L386.537 9.762H388.231L390.156 14.879L392.074 9.762H393.74L390.758 17.266C390.534 17.812 390.291 18.232 390.03 18.526C389.773 18.8247 389.491 19.03 389.183 19.142C388.88 19.254 388.551 19.31 388.196 19.31ZM394.724 11.932V9.986H396.649V11.932H394.724ZM394.724 16.958V15.026H396.649V16.958H394.724ZM381.654 41.14C380.697 41.14 379.946 40.811 379.4 40.153C378.854 39.495 378.581 38.5593 378.581 37.346C378.581 36.59 378.691 35.9343 378.91 35.379C379.134 34.819 379.463 34.3873 379.897 34.084C380.331 33.776 380.865 33.622 381.5 33.622C381.799 33.622 382.069 33.6593 382.312 33.734C382.559 33.804 382.779 33.8973 382.97 34.014C383.161 34.1307 383.322 34.259 383.453 34.399C383.588 34.539 383.693 34.679 383.768 34.819V30.598H385.483V41H384.223L384.034 39.516C383.973 39.6887 383.887 39.8707 383.775 40.062C383.668 40.2487 383.521 40.4237 383.334 40.587C383.152 40.7503 382.923 40.8833 382.648 40.986C382.373 41.0887 382.041 41.14 381.654 41.14ZM382.004 39.887C382.615 39.887 383.061 39.6887 383.341 39.292C383.626 38.8907 383.768 38.228 383.768 37.304C383.763 36.7767 383.698 36.3333 383.572 35.974C383.451 35.6147 383.264 35.344 383.012 35.162C382.76 34.98 382.431 34.889 382.025 34.889C381.512 34.889 381.089 35.078 380.758 35.456C380.431 35.834 380.268 36.45 380.268 37.304C380.268 38.1533 380.42 38.7973 380.723 39.236C381.026 39.67 381.453 39.887 382.004 39.887ZM389.495 41.14C389.033 41.14 388.617 41.056 388.249 40.888C387.885 40.7153 387.598 40.4703 387.388 40.153C387.182 39.831 387.08 39.4413 387.08 38.984C387.08 38.186 387.367 37.584 387.941 37.178C388.519 36.772 389.439 36.5597 390.699 36.541L391.784 36.513V36.023C391.784 35.6403 391.669 35.3417 391.441 35.127C391.217 34.9077 390.867 34.8003 390.391 34.805C390.036 34.8097 389.714 34.8937 389.425 35.057C389.135 35.2157 388.944 35.484 388.851 35.862H387.402C387.43 35.3673 387.572 34.9543 387.829 34.623C388.09 34.287 388.447 34.0373 388.9 33.874C389.352 33.706 389.875 33.622 390.468 33.622C391.158 33.622 391.721 33.713 392.155 33.895C392.589 34.077 392.908 34.3407 393.114 34.686C393.319 35.0267 393.422 35.4397 393.422 35.925V41H391.987L391.847 39.698C391.59 40.244 391.261 40.622 390.86 40.832C390.463 41.0373 390.008 41.14 389.495 41.14ZM390.048 39.985C390.258 39.985 390.465 39.9477 390.671 39.873C390.876 39.7937 391.06 39.6887 391.224 39.558C391.392 39.4227 391.525 39.2733 391.623 39.11C391.725 38.9467 391.779 38.7763 391.784 38.599V37.458L390.895 37.472C390.456 37.4767 390.071 37.5233 389.74 37.612C389.413 37.7007 389.159 37.843 388.977 38.039C388.795 38.2303 388.704 38.487 388.704 38.809C388.704 39.1777 388.832 39.467 389.089 39.677C389.345 39.8823 389.665 39.985 390.048 39.985ZM397.853 41.056C397.279 41.056 396.834 40.9813 396.516 40.832C396.204 40.678 395.987 40.461 395.865 40.181C395.744 39.901 395.683 39.5673 395.683 39.18V34.966H394.507V33.762H395.732L396.159 31.613H397.384V33.755H399.001V34.966H397.384L397.391 39.117C397.391 39.3317 397.415 39.4903 397.461 39.593C397.513 39.691 397.592 39.7563 397.699 39.789C397.811 39.817 397.958 39.831 398.14 39.831H399.036V40.909C398.938 40.9463 398.794 40.979 398.602 41.007C398.416 41.0397 398.166 41.056 397.853 41.056ZM403.603 41.14C402.907 41.14 402.294 40.993 401.762 40.699C401.234 40.4003 400.821 39.9757 400.523 39.425C400.229 38.8743 400.082 38.2187 400.082 37.458C400.082 36.716 400.215 36.058 400.481 35.484C400.751 34.9053 401.141 34.4503 401.65 34.119C402.163 33.7877 402.781 33.622 403.505 33.622C404.219 33.622 404.818 33.7737 405.304 34.077C405.789 34.3803 406.158 34.805 406.41 35.351C406.662 35.8923 406.788 36.527 406.788 37.255V37.773H401.783C401.778 38.1837 401.843 38.5477 401.979 38.865C402.114 39.1823 402.315 39.432 402.581 39.614C402.847 39.7913 403.176 39.88 403.568 39.88C403.969 39.88 404.317 39.7913 404.611 39.614C404.909 39.432 405.108 39.1567 405.206 38.788H406.76C406.675 39.292 406.475 39.719 406.158 40.069C405.845 40.419 405.462 40.685 405.01 40.867C404.562 41.049 404.093 41.14 403.603 41.14ZM401.776 36.716H405.178C405.178 36.366 405.115 36.051 404.989 35.771C404.867 35.4863 404.683 35.2623 404.436 35.099C404.188 34.931 403.876 34.847 403.498 34.847C403.124 34.847 402.809 34.938 402.553 35.12C402.296 35.302 402.102 35.5377 401.972 35.827C401.841 36.1117 401.776 36.408 401.776 36.716ZM408.177 35.932V33.986H410.102V35.932H408.177ZM408.177 40.958V39.026H410.102V40.958H408.177ZM381.654 65.14C380.697 65.14 379.946 64.811 379.4 64.153C378.854 63.495 378.581 62.5593 378.581 61.346C378.581 60.59 378.691 59.9343 378.91 59.379C379.134 58.819 379.463 58.3873 379.897 58.084C380.331 57.776 380.865 57.622 381.5 57.622C381.799 57.622 382.069 57.6593 382.312 57.734C382.559 57.804 382.779 57.8973 382.97 58.014C383.161 58.1307 383.322 58.259 383.453 58.399C383.588 58.539 383.693 58.679 383.768 58.819V54.598H385.483V65H384.223L384.034 63.516C383.973 63.6887 383.887 63.8707 383.775 64.062C383.668 64.2487 383.521 64.4237 383.334 64.587C383.152 64.7503 382.923 64.8833 382.648 64.986C382.373 65.0887 382.041 65.14 381.654 65.14ZM382.004 63.887C382.615 63.887 383.061 63.6887 383.341 63.292C383.626 62.8907 383.768 62.228 383.768 61.304C383.763 60.7767 383.698 60.3333 383.572 59.974C383.451 59.6147 383.264 59.344 383.012 59.162C382.76 58.98 382.431 58.889 382.025 58.889C381.512 58.889 381.089 59.078 380.758 59.456C380.431 59.834 380.268 60.45 380.268 61.304C380.268 62.1533 380.42 62.7973 380.723 63.236C381.026 63.67 381.453 63.887 382.004 63.887ZM390.601 65.14C389.905 65.14 389.292 64.993 388.76 64.699C388.232 64.4003 387.819 63.9757 387.521 63.425C387.227 62.8743 387.08 62.2187 387.08 61.458C387.08 60.716 387.213 60.058 387.479 59.484C387.749 58.9053 388.139 58.4503 388.648 58.119C389.161 57.7877 389.779 57.622 390.503 57.622C391.217 57.622 391.816 57.7737 392.302 58.077C392.787 58.3803 393.156 58.805 393.408 59.351C393.66 59.8923 393.786 60.527 393.786 61.255V61.773H388.781C388.776 62.1837 388.841 62.5477 388.977 62.865C389.112 63.1823 389.313 63.432 389.579 63.614C389.845 63.7913 390.174 63.88 390.566 63.88C390.967 63.88 391.315 63.7913 391.609 63.614C391.907 63.432 392.106 63.1567 392.204 62.788H393.758C393.674 63.292 393.473 63.719 393.156 64.069C392.843 64.419 392.46 64.685 392.008 64.867C391.56 65.049 391.091 65.14 390.601 65.14ZM388.774 60.716H392.176C392.176 60.366 392.113 60.051 391.987 59.771C391.865 59.4863 391.681 59.2623 391.434 59.099C391.186 58.931 390.874 58.847 390.496 58.847C390.122 58.847 389.807 58.938 389.551 59.12C389.294 59.302 389.1 59.5377 388.97 59.827C388.839 60.1117 388.774 60.408 388.774 60.716ZM398.158 65.14C397.654 65.14 397.176 65.0607 396.723 64.902C396.275 64.7387 395.897 64.4843 395.589 64.139C395.286 63.7937 395.094 63.348 395.015 62.802H396.513C396.578 63.068 396.693 63.285 396.856 63.453C397.024 63.621 397.22 63.7447 397.444 63.824C397.673 63.8987 397.908 63.936 398.151 63.936C398.585 63.936 398.935 63.8613 399.201 63.712C399.467 63.5627 399.6 63.3317 399.6 63.019C399.6 62.7903 399.525 62.6083 399.376 62.473C399.231 62.3377 398.993 62.235 398.662 62.165L397.29 61.85C396.674 61.7147 396.182 61.4907 395.813 61.178C395.444 60.8653 395.258 60.4243 395.253 59.855C395.248 59.4257 395.356 59.043 395.575 58.707C395.794 58.371 396.121 58.1073 396.555 57.916C396.989 57.72 397.523 57.622 398.158 57.622C399.003 57.622 399.679 57.811 400.188 58.189C400.701 58.5623 400.965 59.0967 400.979 59.792H399.53C399.479 59.4793 399.332 59.2367 399.089 59.064C398.846 58.8867 398.531 58.798 398.144 58.798C397.743 58.798 397.414 58.875 397.157 59.029C396.9 59.183 396.772 59.4187 396.772 59.736C396.772 59.9553 396.868 60.128 397.059 60.254C397.255 60.38 397.551 60.4873 397.948 60.576L399.25 60.891C399.623 60.9843 399.929 61.1103 400.167 61.269C400.405 61.4277 400.589 61.6027 400.72 61.794C400.855 61.9807 400.949 62.1743 401 62.375C401.056 62.571 401.084 62.753 401.084 62.921C401.084 63.3877 400.963 63.7867 400.72 64.118C400.482 64.4447 400.144 64.6967 399.705 64.874C399.271 65.0513 398.755 65.14 398.158 65.14ZM405.67 65.14C405.007 65.14 404.417 64.9953 403.899 64.706C403.386 64.412 402.982 63.9873 402.688 63.432C402.394 62.872 402.247 62.1977 402.247 61.409C402.247 60.6577 402.385 59.9997 402.66 59.435C402.94 58.8657 403.334 58.4223 403.843 58.105C404.356 57.783 404.965 57.622 405.67 57.622C406.235 57.622 406.732 57.734 407.161 57.958C407.59 58.182 407.933 58.4923 408.19 58.889C408.451 59.2857 408.608 59.736 408.659 60.24H407.21C407.173 60.0207 407.091 59.813 406.965 59.617C406.839 59.4163 406.669 59.2553 406.454 59.134C406.244 59.008 405.987 58.945 405.684 58.945C405.138 58.945 404.697 59.1457 404.361 59.547C404.025 59.9483 403.857 60.5643 403.857 61.395C403.857 62.1603 404.016 62.7693 404.333 63.222C404.655 63.6747 405.115 63.901 405.712 63.901C406.011 63.901 406.267 63.8357 406.482 63.705C406.697 63.5697 406.865 63.404 406.986 63.208C407.112 63.0073 407.191 62.8067 407.224 62.606H408.638C408.596 63.096 408.444 63.5323 408.183 63.915C407.922 64.2977 407.576 64.5987 407.147 64.818C406.718 65.0327 406.225 65.14 405.67 65.14ZM410.206 65V57.762H411.837V59.33C411.954 58.9707 412.12 58.665 412.334 58.413C412.554 58.1563 412.81 57.9603 413.104 57.825C413.398 57.6897 413.718 57.622 414.063 57.622C414.147 57.622 414.229 57.6267 414.308 57.636C414.388 57.6453 414.446 57.6617 414.483 57.685V59.316C414.432 59.2927 414.364 59.2763 414.28 59.267C414.201 59.2577 414.131 59.253 414.07 59.253C413.72 59.225 413.41 59.239 413.139 59.295C412.873 59.351 412.647 59.4467 412.46 59.582C412.278 59.7127 412.141 59.8807 412.047 60.086C411.954 60.2867 411.907 60.5223 411.907 60.793V65H410.206ZM415.867 65V57.762H417.498V65H415.867ZM415.839 56.495V54.885H417.526V56.495H415.839ZM419.517 67.254V57.762H421.218L421.232 58.903C421.325 58.7443 421.444 58.588 421.589 58.434C421.738 58.28 421.908 58.1423 422.1 58.021C422.296 57.8997 422.513 57.804 422.751 57.734C422.989 57.6593 423.25 57.622 423.535 57.622C424.09 57.622 424.582 57.755 425.012 58.021C425.441 58.2823 425.777 58.686 426.02 59.232C426.267 59.778 426.391 60.4687 426.391 61.304C426.391 62.158 426.265 62.8697 426.013 63.439C425.761 64.0083 425.408 64.4353 424.956 64.72C424.503 65 423.978 65.14 423.381 65.14C423.105 65.14 422.853 65.1027 422.625 65.028C422.401 64.9533 422.2 64.8507 422.023 64.72C421.845 64.5893 421.689 64.447 421.554 64.293C421.423 64.139 421.313 63.978 421.225 63.81V67.254H419.517ZM423.003 63.866C423.516 63.866 423.941 63.663 424.277 63.257C424.613 62.8463 424.781 62.2047 424.781 61.332C424.781 60.576 424.622 59.981 424.305 59.547C423.992 59.1083 423.558 58.889 423.003 58.889C422.405 58.889 421.957 59.12 421.659 59.582C421.36 60.0393 421.211 60.6227 421.211 61.332C421.211 61.7893 421.276 62.2117 421.407 62.599C421.542 62.9817 421.74 63.2897 422.002 63.523C422.268 63.7517 422.601 63.866 423.003 63.866ZM430.57 65.056C429.996 65.056 429.551 64.9813 429.233 64.832C428.921 64.678 428.704 64.461 428.582 64.181C428.461 63.901 428.4 63.5673 428.4 63.18V58.966H427.224V57.762H428.449L428.876 55.613H430.101V57.755H431.718V58.966H430.101L430.108 63.117C430.108 63.3317 430.132 63.4903 430.178 63.593C430.23 63.691 430.309 63.7563 430.416 63.789C430.528 63.817 430.675 63.831 430.857 63.831H431.753V64.909C431.655 64.9463 431.511 64.979 431.319 65.007C431.133 65.0397 430.883 65.056 430.57 65.056ZM433.353 65V57.762H434.984V65H433.353ZM433.325 56.495V54.885H435.012V56.495H433.325ZM439.973 65.14C439.282 65.14 438.68 64.993 438.167 64.699C437.653 64.4003 437.254 63.9733 436.97 63.418C436.69 62.8627 436.55 62.1953 436.55 61.416C436.55 60.66 436.687 59.9973 436.963 59.428C437.238 58.8587 437.63 58.4153 438.139 58.098C438.652 57.7807 439.266 57.622 439.98 57.622C440.67 57.622 441.27 57.7737 441.779 58.077C442.287 58.3803 442.679 58.8143 442.955 59.379C443.235 59.9437 443.375 60.6227 443.375 61.416C443.375 62.1487 443.242 62.795 442.976 63.355C442.714 63.9103 442.329 64.3467 441.821 64.664C441.317 64.9813 440.701 65.14 439.973 65.14ZM439.98 63.845C440.372 63.845 440.694 63.7377 440.946 63.523C441.202 63.3083 441.394 63.0143 441.52 62.641C441.646 62.2677 441.709 61.843 441.709 61.367C441.709 60.9237 441.653 60.5153 441.541 60.142C441.429 59.7687 441.244 59.47 440.988 59.246C440.736 59.0173 440.4 58.903 439.98 58.903C439.583 58.903 439.254 59.008 438.993 59.218C438.736 59.4233 438.545 59.7127 438.419 60.086C438.293 60.4547 438.23 60.8817 438.23 61.367C438.23 61.8057 438.286 62.214 438.398 62.592C438.51 62.9653 438.694 63.2687 438.951 63.502C439.207 63.7307 439.55 63.845 439.98 63.845ZM444.933 65V57.762H446.599V58.798C446.711 58.6113 446.862 58.4317 447.054 58.259C447.25 58.0863 447.49 57.9463 447.775 57.839C448.059 57.7317 448.393 57.678 448.776 57.678C449.224 57.678 449.639 57.7667 450.022 57.944C450.409 58.1213 450.719 58.399 450.953 58.777C451.191 59.155 451.31 59.6427 451.31 60.24V65H449.602V60.443C449.602 59.967 449.471 59.6147 449.21 59.386C448.948 59.1527 448.619 59.036 448.223 59.036C447.952 59.036 447.695 59.0827 447.453 59.176C447.21 59.2647 447.012 59.4023 446.858 59.589C446.708 59.771 446.634 59.9997 446.634 60.275V65H444.933ZM452.898 59.932V57.986H454.823V59.932H452.898ZM452.898 64.958V63.026H454.823V64.958H452.898Z" fill="black"/>
<path d="M778.966 77V69.762H780.632V70.798C780.744 70.6113 780.896 70.4317 781.087 70.259C781.283 70.0863 781.523 69.9463 781.808 69.839C782.093 69.7317 782.426 69.678 782.809 69.678C783.257 69.678 783.672 69.7667 784.055 69.944C784.442 70.1213 784.753 70.399 784.986 70.777C785.224 71.155 785.343 71.6427 785.343 72.24V77H783.635V72.443C783.635 71.967 783.504 71.6147 783.243 71.386C782.982 71.1527 782.653 71.036 782.256 71.036C781.985 71.036 781.729 71.0827 781.486 71.176C781.243 71.2647 781.045 71.4023 780.891 71.589C780.742 71.771 780.667 71.9997 780.667 72.275V77H778.966ZM789.221 77.14C788.759 77.14 788.344 77.056 787.975 76.888C787.611 76.7153 787.324 76.4703 787.114 76.153C786.909 75.831 786.806 75.4413 786.806 74.984C786.806 74.186 787.093 73.584 787.667 73.178C788.246 72.772 789.165 72.5597 790.425 72.541L791.51 72.513V72.023C791.51 71.6403 791.396 71.3417 791.167 71.127C790.943 70.9077 790.593 70.8003 790.117 70.805C789.762 70.8097 789.44 70.8937 789.151 71.057C788.862 71.2157 788.67 71.484 788.577 71.862H787.128C787.156 71.3673 787.298 70.9543 787.555 70.623C787.816 70.287 788.173 70.0373 788.626 69.874C789.079 69.706 789.601 69.622 790.194 69.622C790.885 69.622 791.447 69.713 791.881 69.895C792.315 70.077 792.635 70.3407 792.84 70.686C793.045 71.0267 793.148 71.4397 793.148 71.925V77H791.713L791.573 75.698C791.316 76.244 790.987 76.622 790.586 76.832C790.189 77.0373 789.734 77.14 789.221 77.14ZM789.774 75.985C789.984 75.985 790.192 75.9477 790.397 75.873C790.602 75.7937 790.787 75.6887 790.95 75.558C791.118 75.4227 791.251 75.2733 791.349 75.11C791.452 74.9467 791.505 74.7763 791.51 74.599V73.458L790.621 73.472C790.182 73.4767 789.797 73.5233 789.466 73.612C789.139 73.7007 788.885 73.843 788.703 74.039C788.521 74.2303 788.43 74.487 788.43 74.809C788.43 75.1777 788.558 75.467 788.815 75.677C789.072 75.8823 789.391 75.985 789.774 75.985ZM794.962 77V69.762H796.621V70.798C796.831 70.4807 797.116 70.2053 797.475 69.972C797.839 69.7387 798.301 69.622 798.861 69.622C799.118 69.622 799.377 69.6663 799.638 69.755C799.904 69.8437 800.149 69.9743 800.373 70.147C800.602 70.3197 800.784 70.5343 800.919 70.791C801.148 70.4503 801.451 70.1703 801.829 69.951C802.212 69.7317 802.641 69.622 803.117 69.622C803.378 69.622 803.647 69.664 803.922 69.748C804.202 69.832 804.459 69.972 804.692 70.168C804.925 70.364 805.114 70.6323 805.259 70.973C805.404 71.309 805.476 71.7313 805.476 72.24V77H803.775V72.443C803.775 72.0837 803.712 71.8013 803.586 71.596C803.46 71.3907 803.297 71.246 803.096 71.162C802.9 71.0733 802.69 71.029 802.466 71.029C802.265 71.029 802.055 71.0687 801.836 71.148C801.621 71.2273 801.437 71.358 801.283 71.54C801.134 71.722 801.059 71.967 801.059 72.275V77H799.358V72.17C799.358 71.918 799.293 71.708 799.162 71.54C799.031 71.372 798.866 71.246 798.665 71.162C798.469 71.0733 798.268 71.029 798.063 71.029C797.853 71.029 797.638 71.0733 797.419 71.162C797.204 71.2507 797.025 71.386 796.88 71.568C796.735 71.75 796.663 71.9857 796.663 72.275V77H794.962ZM810.507 77.14C809.811 77.14 809.198 76.993 808.666 76.699C808.138 76.4003 807.725 75.9757 807.427 75.425C807.133 74.8743 806.986 74.2187 806.986 73.458C806.986 72.716 807.119 72.058 807.385 71.484C807.655 70.9053 808.045 70.4503 808.554 70.119C809.067 69.7877 809.685 69.622 810.409 69.622C811.123 69.622 811.722 69.7737 812.208 70.077C812.693 70.3803 813.062 70.805 813.314 71.351C813.566 71.8923 813.692 72.527 813.692 73.255V73.773H808.687C808.682 74.1837 808.747 74.5477 808.883 74.865C809.018 75.1823 809.219 75.432 809.485 75.614C809.751 75.7913 810.08 75.88 810.472 75.88C810.873 75.88 811.221 75.7913 811.515 75.614C811.813 75.432 812.012 75.1567 812.11 74.788H813.664C813.58 75.292 813.379 75.719 813.062 76.069C812.749 76.419 812.366 76.685 811.914 76.867C811.466 77.049 810.997 77.14 810.507 77.14ZM808.68 72.716H812.082C812.082 72.366 812.019 72.051 811.893 71.771C811.771 71.4863 811.587 71.2623 811.34 71.099C811.092 70.931 810.78 70.847 810.402 70.847C810.028 70.847 809.713 70.938 809.457 71.12C809.2 71.302 809.006 71.5377 808.876 71.827C808.745 72.1117 808.68 72.408 808.68 72.716ZM815.082 71.932V69.986H817.007V71.932H815.082ZM815.082 76.958V75.026H817.007V76.958H815.082ZM781.654 101.14C780.697 101.14 779.946 100.811 779.4 100.153C778.854 99.495 778.581 98.5593 778.581 97.346C778.581 96.59 778.691 95.9343 778.91 95.379C779.134 94.819 779.463 94.3873 779.897 94.084C780.331 93.776 780.865 93.622 781.5 93.622C781.799 93.622 782.069 93.6593 782.312 93.734C782.559 93.804 782.779 93.8973 782.97 94.014C783.161 94.1307 783.322 94.259 783.453 94.399C783.588 94.539 783.693 94.679 783.768 94.819V90.598H785.483V101H784.223L784.034 99.516C783.973 99.6887 783.887 99.8707 783.775 100.062C783.668 100.249 783.521 100.424 783.334 100.587C783.152 100.75 782.923 100.883 782.648 100.986C782.373 101.089 782.041 101.14 781.654 101.14ZM782.004 99.887C782.615 99.887 783.061 99.6887 783.341 99.292C783.626 98.8907 783.768 98.228 783.768 97.304C783.763 96.7767 783.698 96.3333 783.572 95.974C783.451 95.6147 783.264 95.344 783.012 95.162C782.76 94.98 782.431 94.889 782.025 94.889C781.512 94.889 781.089 95.078 780.758 95.456C780.431 95.834 780.268 96.45 780.268 97.304C780.268 98.1533 780.42 98.7973 780.723 99.236C781.026 99.67 781.453 99.887 782.004 99.887ZM790.601 101.14C789.905 101.14 789.292 100.993 788.76 100.699C788.232 100.4 787.819 99.9757 787.521 99.425C787.227 98.8743 787.08 98.2187 787.08 97.458C787.08 96.716 787.213 96.058 787.479 95.484C787.749 94.9053 788.139 94.4503 788.648 94.119C789.161 93.7877 789.779 93.622 790.503 93.622C791.217 93.622 791.816 93.7737 792.302 94.077C792.787 94.3803 793.156 94.805 793.408 95.351C793.66 95.8923 793.786 96.527 793.786 97.255V97.773H788.781C788.776 98.1837 788.841 98.5477 788.977 98.865C789.112 99.1823 789.313 99.432 789.579 99.614C789.845 99.7913 790.174 99.88 790.566 99.88C790.967 99.88 791.315 99.7913 791.609 99.614C791.907 99.432 792.106 99.1567 792.204 98.788H793.758C793.674 99.292 793.473 99.719 793.156 100.069C792.843 100.419 792.46 100.685 792.008 100.867C791.56 101.049 791.091 101.14 790.601 101.14ZM788.774 96.716H792.176C792.176 96.366 792.113 96.051 791.987 95.771C791.865 95.4863 791.681 95.2623 791.434 95.099C791.186 94.931 790.874 94.847 790.496 94.847C790.122 94.847 789.807 94.938 789.551 95.12C789.294 95.302 789.1 95.5377 788.97 95.827C788.839 96.1117 788.774 96.408 788.774 96.716ZM798.158 101.14C797.654 101.14 797.176 101.061 796.723 100.902C796.275 100.739 795.897 100.484 795.589 100.139C795.286 99.7937 795.094 99.348 795.015 98.802H796.513C796.578 99.068 796.693 99.285 796.856 99.453C797.024 99.621 797.22 99.7447 797.444 99.824C797.673 99.8987 797.908 99.936 798.151 99.936C798.585 99.936 798.935 99.8613 799.201 99.712C799.467 99.5627 799.6 99.3317 799.6 99.019C799.6 98.7903 799.525 98.6083 799.376 98.473C799.231 98.3377 798.993 98.235 798.662 98.165L797.29 97.85C796.674 97.7147 796.182 97.4907 795.813 97.178C795.444 96.8653 795.258 96.4243 795.253 95.855C795.248 95.4257 795.356 95.043 795.575 94.707C795.794 94.371 796.121 94.1073 796.555 93.916C796.989 93.72 797.523 93.622 798.158 93.622C799.003 93.622 799.679 93.811 800.188 94.189C800.701 94.5623 800.965 95.0967 800.979 95.792H799.53C799.479 95.4793 799.332 95.2367 799.089 95.064C798.846 94.8867 798.531 94.798 798.144 94.798C797.743 94.798 797.414 94.875 797.157 95.029C796.9 95.183 796.772 95.4187 796.772 95.736C796.772 95.9553 796.868 96.128 797.059 96.254C797.255 96.38 797.551 96.4873 797.948 96.576L799.25 96.891C799.623 96.9843 799.929 97.1103 800.167 97.269C800.405 97.4277 800.589 97.6027 800.72 97.794C800.855 97.9807 800.949 98.1743 801 98.375C801.056 98.571 801.084 98.753 801.084 98.921C801.084 99.3877 800.963 99.7867 800.72 100.118C800.482 100.445 800.144 100.697 799.705 100.874C799.271 101.051 798.755 101.14 798.158 101.14ZM805.67 101.14C805.007 101.14 804.417 100.995 803.899 100.706C803.386 100.412 802.982 99.9873 802.688 99.432C802.394 98.872 802.247 98.1977 802.247 97.409C802.247 96.6577 802.385 95.9997 802.66 95.435C802.94 94.8657 803.334 94.4223 803.843 94.105C804.356 93.783 804.965 93.622 805.67 93.622C806.235 93.622 806.732 93.734 807.161 93.958C807.59 94.182 807.933 94.4923 808.19 94.889C808.451 95.2857 808.608 95.736 808.659 96.24H807.21C807.173 96.0207 807.091 95.813 806.965 95.617C806.839 95.4163 806.669 95.2553 806.454 95.134C806.244 95.008 805.987 94.945 805.684 94.945C805.138 94.945 804.697 95.1457 804.361 95.547C804.025 95.9483 803.857 96.5643 803.857 97.395C803.857 98.1603 804.016 98.7693 804.333 99.222C804.655 99.6747 805.115 99.901 805.712 99.901C806.011 99.901 806.267 99.8357 806.482 99.705C806.697 99.5697 806.865 99.404 806.986 99.208C807.112 99.0073 807.191 98.8067 807.224 98.606H808.638C808.596 99.096 808.444 99.5323 808.183 99.915C807.922 100.298 807.576 100.599 807.147 100.818C806.718 101.033 806.225 101.14 805.67 101.14ZM810.206 101V93.762H811.837V95.33C811.954 94.9707 812.12 94.665 812.334 94.413C812.554 94.1563 812.81 93.9603 813.104 93.825C813.398 93.6897 813.718 93.622 814.063 93.622C814.147 93.622 814.229 93.6267 814.308 93.636C814.388 93.6453 814.446 93.6617 814.483 93.685V95.316C814.432 95.2927 814.364 95.2763 814.28 95.267C814.201 95.2577 814.131 95.253 814.07 95.253C813.72 95.225 813.41 95.239 813.139 95.295C812.873 95.351 812.647 95.4467 812.46 95.582C812.278 95.7127 812.141 95.8807 812.047 96.086C811.954 96.2867 811.907 96.5223 811.907 96.793V101H810.206ZM815.867 101V93.762H817.498V101H815.867ZM815.839 92.495V90.885H817.526V92.495H815.839ZM819.517 103.254V93.762H821.218L821.232 94.903C821.325 94.7443 821.444 94.588 821.589 94.434C821.738 94.28 821.908 94.1423 822.1 94.021C822.296 93.8997 822.513 93.804 822.751 93.734C822.989 93.6593 823.25 93.622 823.535 93.622C824.09 93.622 824.582 93.755 825.012 94.021C825.441 94.2823 825.777 94.686 826.02 95.232C826.267 95.778 826.391 96.4687 826.391 97.304C826.391 98.158 826.265 98.8697 826.013 99.439C825.761 100.008 825.408 100.435 824.956 100.72C824.503 101 823.978 101.14 823.381 101.14C823.105 101.14 822.853 101.103 822.625 101.028C822.401 100.953 822.2 100.851 822.023 100.72C821.845 100.589 821.689 100.447 821.554 100.293C821.423 100.139 821.313 99.978 821.225 99.81V103.254H819.517ZM823.003 99.866C823.516 99.866 823.941 99.663 824.277 99.257C824.613 98.8463 824.781 98.2047 824.781 97.332C824.781 96.576 824.622 95.981 824.305 95.547C823.992 95.1083 823.558 94.889 823.003 94.889C822.405 94.889 821.957 95.12 821.659 95.582C821.36 96.0393 821.211 96.6227 821.211 97.332C821.211 97.7893 821.276 98.2117 821.407 98.599C821.542 98.9817 821.74 99.2897 822.002 99.523C822.268 99.7517 822.601 99.866 823.003 99.866ZM830.57 101.056C829.996 101.056 829.551 100.981 829.233 100.832C828.921 100.678 828.704 100.461 828.582 100.181C828.461 99.901 828.4 99.5673 828.4 99.18V94.966H827.224V93.762H828.449L828.876 91.613H830.101V93.755H831.718V94.966H830.101L830.108 99.117C830.108 99.3317 830.132 99.4903 830.178 99.593C830.23 99.691 830.309 99.7563 830.416 99.789C830.528 99.817 830.675 99.831 830.857 99.831H831.753V100.909C831.655 100.946 831.511 100.979 831.319 101.007C831.133 101.04 830.883 101.056 830.57 101.056ZM833.353 101V93.762H834.984V101H833.353ZM833.325 92.495V90.885H835.012V92.495H833.325ZM839.973 101.14C839.282 101.14 838.68 100.993 838.167 100.699C837.653 100.4 837.254 99.9733 836.97 99.418C836.69 98.8627 836.55 98.1953 836.55 97.416C836.55 96.66 836.687 95.9973 836.963 95.428C837.238 94.8587 837.63 94.4153 838.139 94.098C838.652 93.7807 839.266 93.622 839.98 93.622C840.67 93.622 841.27 93.7737 841.779 94.077C842.287 94.3803 842.679 94.8143 842.955 95.379C843.235 95.9437 843.375 96.6227 843.375 97.416C843.375 98.1487 843.242 98.795 842.976 99.355C842.714 99.9103 842.329 100.347 841.821 100.664C841.317 100.981 840.701 101.14 839.973 101.14ZM839.98 99.845C840.372 99.845 840.694 99.7377 840.946 99.523C841.202 99.3083 841.394 99.0143 841.52 98.641C841.646 98.2677 841.709 97.843 841.709 97.367C841.709 96.9237 841.653 96.5153 841.541 96.142C841.429 95.7687 841.244 95.47 840.988 95.246C840.736 95.0173 840.4 94.903 839.98 94.903C839.583 94.903 839.254 95.008 838.993 95.218C838.736 95.4233 838.545 95.7127 838.419 96.086C838.293 96.4547 838.23 96.8817 838.23 97.367C838.23 97.8057 838.286 98.214 838.398 98.592C838.51 98.9653 838.694 99.2687 838.951 99.502C839.207 99.7307 839.55 99.845 839.98 99.845ZM844.933 101V93.762H846.599V94.798C846.711 94.6113 846.862 94.4317 847.054 94.259C847.25 94.0863 847.49 93.9463 847.775 93.839C848.059 93.7317 848.393 93.678 848.776 93.678C849.224 93.678 849.639 93.7667 850.022 93.944C850.409 94.1213 850.719 94.399 850.953 94.777C851.191 95.155 851.31 95.6427 851.31 96.24V101H849.602V96.443C849.602 95.967 849.471 95.6147 849.21 95.386C848.948 95.1527 848.619 95.036 848.223 95.036C847.952 95.036 847.695 95.0827 847.453 95.176C847.21 95.2647 847.012 95.4023 846.858 95.589C846.708 95.771 846.634 95.9997 846.634 96.275V101H844.933ZM852.898 95.932V93.986H854.823V95.932H852.898ZM852.898 100.958V99.026H854.823V100.958H852.898Z" fill="black"/>
<path d="M470.966 421V413.762H472.632V414.798C472.744 414.611 472.896 414.432 473.087 414.259C473.283 414.086 473.523 413.946 473.808 413.839C474.093 413.732 474.426 413.678 474.809 413.678C475.257 413.678 475.672 413.767 476.055 413.944C476.442 414.121 476.753 414.399 476.986 414.777C477.224 415.155 477.343 415.643 477.343 416.24V421H475.635V416.443C475.635 415.967 475.504 415.615 475.243 415.386C474.982 415.153 474.653 415.036 474.256 415.036C473.985 415.036 473.729 415.083 473.486 415.176C473.243 415.265 473.045 415.402 472.891 415.589C472.742 415.771 472.667 416 472.667 416.275V421H470.966ZM481.221 421.14C480.759 421.14 480.344 421.056 479.975 420.888C479.611 420.715 479.324 420.47 479.114 420.153C478.909 419.831 478.806 419.441 478.806 418.984C478.806 418.186 479.093 417.584 479.667 417.178C480.246 416.772 481.165 416.56 482.425 416.541L483.51 416.513V416.023C483.51 415.64 483.396 415.342 483.167 415.127C482.943 414.908 482.593 414.8 482.117 414.805C481.762 414.81 481.44 414.894 481.151 415.057C480.862 415.216 480.67 415.484 480.577 415.862H479.128C479.156 415.367 479.298 414.954 479.555 414.623C479.816 414.287 480.173 414.037 480.626 413.874C481.079 413.706 481.601 413.622 482.194 413.622C482.885 413.622 483.447 413.713 483.881 413.895C484.315 414.077 484.635 414.341 484.84 414.686C485.045 415.027 485.148 415.44 485.148 415.925V421H483.713L483.573 419.698C483.316 420.244 482.987 420.622 482.586 420.832C482.189 421.037 481.734 421.14 481.221 421.14ZM481.774 419.985C481.984 419.985 482.192 419.948 482.397 419.873C482.602 419.794 482.787 419.689 482.95 419.558C483.118 419.423 483.251 419.273 483.349 419.11C483.452 418.947 483.505 418.776 483.51 418.599V417.458L482.621 417.472C482.182 417.477 481.797 417.523 481.466 417.612C481.139 417.701 480.885 417.843 480.703 418.039C480.521 418.23 480.43 418.487 480.43 418.809C480.43 419.178 480.558 419.467 480.815 419.677C481.072 419.882 481.391 419.985 481.774 419.985ZM486.962 421V413.762H488.621V414.798C488.831 414.481 489.116 414.205 489.475 413.972C489.839 413.739 490.301 413.622 490.861 413.622C491.118 413.622 491.377 413.666 491.638 413.755C491.904 413.844 492.149 413.974 492.373 414.147C492.602 414.32 492.784 414.534 492.919 414.791C493.148 414.45 493.451 414.17 493.829 413.951C494.212 413.732 494.641 413.622 495.117 413.622C495.378 413.622 495.647 413.664 495.922 413.748C496.202 413.832 496.459 413.972 496.692 414.168C496.925 414.364 497.114 414.632 497.259 414.973C497.404 415.309 497.476 415.731 497.476 416.24V421H495.775V416.443C495.775 416.084 495.712 415.801 495.586 415.596C495.46 415.391 495.297 415.246 495.096 415.162C494.9 415.073 494.69 415.029 494.466 415.029C494.265 415.029 494.055 415.069 493.836 415.148C493.621 415.227 493.437 415.358 493.283 415.54C493.134 415.722 493.059 415.967 493.059 416.275V421H491.358V416.17C491.358 415.918 491.293 415.708 491.162 415.54C491.031 415.372 490.866 415.246 490.665 415.162C490.469 415.073 490.268 415.029 490.063 415.029C489.853 415.029 489.638 415.073 489.419 415.162C489.204 415.251 489.025 415.386 488.88 415.568C488.735 415.75 488.663 415.986 488.663 416.275V421H486.962ZM502.507 421.14C501.811 421.14 501.198 420.993 500.666 420.699C500.138 420.4 499.725 419.976 499.427 419.425C499.133 418.874 498.986 418.219 498.986 417.458C498.986 416.716 499.119 416.058 499.385 415.484C499.655 414.905 500.045 414.45 500.554 414.119C501.067 413.788 501.685 413.622 502.409 413.622C503.123 413.622 503.722 413.774 504.208 414.077C504.693 414.38 505.062 414.805 505.314 415.351C505.566 415.892 505.692 416.527 505.692 417.255V417.773H500.687C500.682 418.184 500.747 418.548 500.883 418.865C501.018 419.182 501.219 419.432 501.485 419.614C501.751 419.791 502.08 419.88 502.472 419.88C502.873 419.88 503.221 419.791 503.515 419.614C503.813 419.432 504.012 419.157 504.11 418.788H505.664C505.58 419.292 505.379 419.719 505.062 420.069C504.749 420.419 504.366 420.685 503.914 420.867C503.466 421.049 502.997 421.14 502.507 421.14ZM500.68 416.716H504.082C504.082 416.366 504.019 416.051 503.893 415.771C503.771 415.486 503.587 415.262 503.34 415.099C503.092 414.931 502.78 414.847 502.402 414.847C502.028 414.847 501.713 414.938 501.457 415.12C501.2 415.302 501.006 415.538 500.876 415.827C500.745 416.112 500.68 416.408 500.68 416.716ZM507.082 415.932V413.986H509.007V415.932H507.082ZM507.082 420.958V419.026H509.007V420.958H507.082ZM473.654 445.14C472.697 445.14 471.946 444.811 471.4 444.153C470.854 443.495 470.581 442.559 470.581 441.346C470.581 440.59 470.691 439.934 470.91 439.379C471.134 438.819 471.463 438.387 471.897 438.084C472.331 437.776 472.865 437.622 473.5 437.622C473.799 437.622 474.069 437.659 474.312 437.734C474.559 437.804 474.779 437.897 474.97 438.014C475.161 438.131 475.322 438.259 475.453 438.399C475.588 438.539 475.693 438.679 475.768 438.819V434.598H477.483V445H476.223L476.034 443.516C475.973 443.689 475.887 443.871 475.775 444.062C475.668 444.249 475.521 444.424 475.334 444.587C475.152 444.75 474.923 444.883 474.648 444.986C474.373 445.089 474.041 445.14 473.654 445.14ZM474.004 443.887C474.615 443.887 475.061 443.689 475.341 443.292C475.626 442.891 475.768 442.228 475.768 441.304C475.763 440.777 475.698 440.333 475.572 439.974C475.451 439.615 475.264 439.344 475.012 439.162C474.76 438.98 474.431 438.889 474.025 438.889C473.512 438.889 473.089 439.078 472.758 439.456C472.431 439.834 472.268 440.45 472.268 441.304C472.268 442.153 472.42 442.797 472.723 443.236C473.026 443.67 473.453 443.887 474.004 443.887ZM482.601 445.14C481.905 445.14 481.292 444.993 480.76 444.699C480.232 444.4 479.819 443.976 479.521 443.425C479.227 442.874 479.08 442.219 479.08 441.458C479.08 440.716 479.213 440.058 479.479 439.484C479.749 438.905 480.139 438.45 480.648 438.119C481.161 437.788 481.779 437.622 482.503 437.622C483.217 437.622 483.816 437.774 484.302 438.077C484.787 438.38 485.156 438.805 485.408 439.351C485.66 439.892 485.786 440.527 485.786 441.255V441.773H480.781C480.776 442.184 480.841 442.548 480.977 442.865C481.112 443.182 481.313 443.432 481.579 443.614C481.845 443.791 482.174 443.88 482.566 443.88C482.967 443.88 483.315 443.791 483.609 443.614C483.907 443.432 484.106 443.157 484.204 442.788H485.758C485.674 443.292 485.473 443.719 485.156 444.069C484.843 444.419 484.46 444.685 484.008 444.867C483.56 445.049 483.091 445.14 482.601 445.14ZM480.774 440.716H484.176C484.176 440.366 484.113 440.051 483.987 439.771C483.865 439.486 483.681 439.262 483.434 439.099C483.186 438.931 482.874 438.847 482.496 438.847C482.122 438.847 481.807 438.938 481.551 439.12C481.294 439.302 481.1 439.538 480.97 439.827C480.839 440.112 480.774 440.408 480.774 440.716ZM490.158 445.14C489.654 445.14 489.176 445.061 488.723 444.902C488.275 444.739 487.897 444.484 487.589 444.139C487.286 443.794 487.094 443.348 487.015 442.802H488.513C488.578 443.068 488.693 443.285 488.856 443.453C489.024 443.621 489.22 443.745 489.444 443.824C489.673 443.899 489.908 443.936 490.151 443.936C490.585 443.936 490.935 443.861 491.201 443.712C491.467 443.563 491.6 443.332 491.6 443.019C491.6 442.79 491.525 442.608 491.376 442.473C491.231 442.338 490.993 442.235 490.662 442.165L489.29 441.85C488.674 441.715 488.182 441.491 487.813 441.178C487.444 440.865 487.258 440.424 487.253 439.855C487.248 439.426 487.356 439.043 487.575 438.707C487.794 438.371 488.121 438.107 488.555 437.916C488.989 437.72 489.523 437.622 490.158 437.622C491.003 437.622 491.679 437.811 492.188 438.189C492.701 438.562 492.965 439.097 492.979 439.792H491.53C491.479 439.479 491.332 439.237 491.089 439.064C490.846 438.887 490.531 438.798 490.144 438.798C489.743 438.798 489.414 438.875 489.157 439.029C488.9 439.183 488.772 439.419 488.772 439.736C488.772 439.955 488.868 440.128 489.059 440.254C489.255 440.38 489.551 440.487 489.948 440.576L491.25 440.891C491.623 440.984 491.929 441.11 492.167 441.269C492.405 441.428 492.589 441.603 492.72 441.794C492.855 441.981 492.949 442.174 493 442.375C493.056 442.571 493.084 442.753 493.084 442.921C493.084 443.388 492.963 443.787 492.72 444.118C492.482 444.445 492.144 444.697 491.705 444.874C491.271 445.051 490.755 445.14 490.158 445.14ZM497.67 445.14C497.007 445.14 496.417 444.995 495.899 444.706C495.386 444.412 494.982 443.987 494.688 443.432C494.394 442.872 494.247 442.198 494.247 441.409C494.247 440.658 494.385 440 494.66 439.435C494.94 438.866 495.334 438.422 495.843 438.105C496.356 437.783 496.965 437.622 497.67 437.622C498.235 437.622 498.732 437.734 499.161 437.958C499.59 438.182 499.933 438.492 500.19 438.889C500.451 439.286 500.608 439.736 500.659 440.24H499.21C499.173 440.021 499.091 439.813 498.965 439.617C498.839 439.416 498.669 439.255 498.454 439.134C498.244 439.008 497.987 438.945 497.684 438.945C497.138 438.945 496.697 439.146 496.361 439.547C496.025 439.948 495.857 440.564 495.857 441.395C495.857 442.16 496.016 442.769 496.333 443.222C496.655 443.675 497.115 443.901 497.712 443.901C498.011 443.901 498.267 443.836 498.482 443.705C498.697 443.57 498.865 443.404 498.986 443.208C499.112 443.007 499.191 442.807 499.224 442.606H500.638C500.596 443.096 500.444 443.532 500.183 443.915C499.922 444.298 499.576 444.599 499.147 444.818C498.718 445.033 498.225 445.14 497.67 445.14ZM502.206 445V437.762H503.837V439.33C503.954 438.971 504.12 438.665 504.334 438.413C504.554 438.156 504.81 437.96 505.104 437.825C505.398 437.69 505.718 437.622 506.063 437.622C506.147 437.622 506.229 437.627 506.308 437.636C506.388 437.645 506.446 437.662 506.483 437.685V439.316C506.432 439.293 506.364 439.276 506.28 439.267C506.201 439.258 506.131 439.253 506.07 439.253C505.72 439.225 505.41 439.239 505.139 439.295C504.873 439.351 504.647 439.447 504.46 439.582C504.278 439.713 504.141 439.881 504.047 440.086C503.954 440.287 503.907 440.522 503.907 440.793V445H502.206ZM507.867 445V437.762H509.498V445H507.867ZM507.839 436.495V434.885H509.526V436.495H507.839ZM511.517 447.254V437.762H513.218L513.232 438.903C513.325 438.744 513.444 438.588 513.589 438.434C513.738 438.28 513.908 438.142 514.1 438.021C514.296 437.9 514.513 437.804 514.751 437.734C514.989 437.659 515.25 437.622 515.535 437.622C516.09 437.622 516.582 437.755 517.012 438.021C517.441 438.282 517.777 438.686 518.02 439.232C518.267 439.778 518.391 440.469 518.391 441.304C518.391 442.158 518.265 442.87 518.013 443.439C517.761 444.008 517.408 444.435 516.956 444.72C516.503 445 515.978 445.14 515.381 445.14C515.105 445.14 514.853 445.103 514.625 445.028C514.401 444.953 514.2 444.851 514.023 444.72C513.845 444.589 513.689 444.447 513.554 444.293C513.423 444.139 513.313 443.978 513.225 443.81V447.254H511.517ZM515.003 443.866C515.516 443.866 515.941 443.663 516.277 443.257C516.613 442.846 516.781 442.205 516.781 441.332C516.781 440.576 516.622 439.981 516.305 439.547C515.992 439.108 515.558 438.889 515.003 438.889C514.405 438.889 513.957 439.12 513.659 439.582C513.36 440.039 513.211 440.623 513.211 441.332C513.211 441.789 513.276 442.212 513.407 442.599C513.542 442.982 513.74 443.29 514.002 443.523C514.268 443.752 514.601 443.866 515.003 443.866ZM522.57 445.056C521.996 445.056 521.551 444.981 521.233 444.832C520.921 444.678 520.704 444.461 520.582 444.181C520.461 443.901 520.4 443.567 520.4 443.18V438.966H519.224V437.762H520.449L520.876 435.613H522.101V437.755H523.718V438.966H522.101L522.108 443.117C522.108 443.332 522.132 443.49 522.178 443.593C522.23 443.691 522.309 443.756 522.416 443.789C522.528 443.817 522.675 443.831 522.857 443.831H523.753V444.909C523.655 444.946 523.511 444.979 523.319 445.007C523.133 445.04 522.883 445.056 522.57 445.056ZM525.353 445V437.762H526.984V445H525.353ZM525.325 436.495V434.885H527.012V436.495H525.325ZM531.973 445.14C531.282 445.14 530.68 444.993 530.167 444.699C529.653 444.4 529.254 443.973 528.97 443.418C528.69 442.863 528.55 442.195 528.55 441.416C528.55 440.66 528.687 439.997 528.963 439.428C529.238 438.859 529.63 438.415 530.139 438.098C530.652 437.781 531.266 437.622 531.98 437.622C532.67 437.622 533.27 437.774 533.779 438.077C534.287 438.38 534.679 438.814 534.955 439.379C535.235 439.944 535.375 440.623 535.375 441.416C535.375 442.149 535.242 442.795 534.976 443.355C534.714 443.91 534.329 444.347 533.821 444.664C533.317 444.981 532.701 445.14 531.973 445.14ZM531.98 443.845C532.372 443.845 532.694 443.738 532.946 443.523C533.202 443.308 533.394 443.014 533.52 442.641C533.646 442.268 533.709 441.843 533.709 441.367C533.709 440.924 533.653 440.515 533.541 440.142C533.429 439.769 533.244 439.47 532.988 439.246C532.736 439.017 532.4 438.903 531.98 438.903C531.583 438.903 531.254 439.008 530.993 439.218C530.736 439.423 530.545 439.713 530.419 440.086C530.293 440.455 530.23 440.882 530.23 441.367C530.23 441.806 530.286 442.214 530.398 442.592C530.51 442.965 530.694 443.269 530.951 443.502C531.207 443.731 531.55 443.845 531.98 443.845ZM536.933 445V437.762H538.599V438.798C538.711 438.611 538.862 438.432 539.054 438.259C539.25 438.086 539.49 437.946 539.775 437.839C540.059 437.732 540.393 437.678 540.776 437.678C541.224 437.678 541.639 437.767 542.022 437.944C542.409 438.121 542.719 438.399 542.953 438.777C543.191 439.155 543.31 439.643 543.31 440.24V445H541.602V440.443C541.602 439.967 541.471 439.615 541.21 439.386C540.948 439.153 540.619 439.036 540.223 439.036C539.952 439.036 539.695 439.083 539.453 439.176C539.21 439.265 539.012 439.402 538.858 439.589C538.708 439.771 538.634 440 538.634 440.275V445H536.933ZM544.898 439.932V437.986H546.823V439.932H544.898ZM544.898 444.958V443.026H546.823V444.958H544.898Z" fill="black"/>
</svg>
