<svg width="920" height="489" viewBox="0 0 920 489" fill="none" xmlns="http://www.w3.org/2000/svg">
<path fill-rule="evenodd" clip-rule="evenodd" d="M200 385.867C200 439.376 243.371 482.75 296.875 482.75C350.379 482.75 393.75 439.376 393.75 385.867C393.75 332.374 350.379 289 296.875 289C243.371 289.001 200 332.374 200 385.867ZM309.333 387.537H350.101C350.888 387.537 351.528 388.178 351.528 388.965V429.735C351.528 430.522 350.888 431.163 350.101 431.163H309.333C308.547 431.163 307.906 430.522 307.906 429.735V388.965C307.906 388.179 308.547 387.537 309.333 387.537ZM258.101 384.367C271.898 384.367 283.082 395.552 283.082 409.35C283.082 423.148 271.898 434.333 258.101 434.333C244.304 434.333 233.12 423.148 233.12 409.35C233.12 395.552 244.304 384.367 258.101 384.367ZM298.111 316.43L324.485 362.112C325.036 363.068 324.351 364.254 323.249 364.254H270.502C269.399 364.254 268.715 363.068 269.266 362.112L295.639 316.43C296.187 315.48 297.563 315.48 298.111 316.43Z" fill="#014063"/>
<path d="M6.25 142.82C6.25 110.235 72.5688 95.25 133.49 95.25C194.41 95.25 259.887 110.235 259.887 142.82C259.887 175.406 194.41 190.391 133.49 190.391C72.5688 190.391 6.25 175.406 6.25 142.82Z" fill="#014063"/>
<path d="M6.25 187.917C35.0685 208.134 85.7116 216.558 133.49 216.558C181.268 216.558 231.068 209.819 259.887 189.602V275.633C213.817 291.084 180.625 334.602 180.625 385.867C180.625 391.351 181.005 396.745 181.739 402.027C166.212 404.195 149.69 405.255 133.49 405.255C72.5688 405.255 6.25 390.27 6.25 357.684V187.917Z" fill="#014063"/>
<path d="M259.887 296.312V357.684C259.887 377.934 234.602 391.386 200.838 398.67C200.285 394.481 200 390.207 200 385.867C200 345.471 224.733 310.845 259.887 296.312Z" fill="#014063"/>
<circle cx="298" cy="384" r="93" fill="white" stroke="#014063" stroke-width="10"/>
<path fill-rule="evenodd" clip-rule="evenodd" d="M720 378.867C720 432.376 763.371 475.75 816.875 475.75C870.379 475.75 913.75 432.376 913.75 378.867C913.75 325.374 870.379 282 816.875 282C763.371 282.001 720 325.374 720 378.867ZM829.333 380.537H870.101C870.888 380.537 871.528 381.178 871.528 381.965V422.735C871.528 423.522 870.888 424.163 870.101 424.163H829.333C828.547 424.163 827.906 423.522 827.906 422.735V381.965C827.906 381.179 828.547 380.537 829.333 380.537ZM778.101 377.367C791.898 377.367 803.082 388.552 803.082 402.35C803.082 416.148 791.898 427.333 778.101 427.333C764.304 427.333 753.12 416.148 753.12 402.35C753.12 388.552 764.304 377.367 778.101 377.367ZM818.111 309.43L844.485 355.112C845.036 356.068 844.351 357.254 843.249 357.254H790.502C789.399 357.254 788.715 356.068 789.266 355.112L815.639 309.43C816.187 308.48 817.563 308.48 818.111 309.43Z" fill="#014063"/>
<path d="M526.25 135.82C526.25 103.235 592.569 88.25 653.49 88.25C714.41 88.25 779.887 103.235 779.887 135.82C779.887 168.406 714.41 183.391 653.49 183.391C592.569 183.391 526.25 168.406 526.25 135.82Z" fill="#014063"/>
<path d="M526.25 180.917C555.069 201.134 605.712 209.558 653.49 209.558C701.268 209.558 751.068 202.819 779.887 182.602V268.633C733.817 284.084 700.625 327.602 700.625 378.867C700.625 384.351 701.005 389.745 701.739 395.027C686.212 397.195 669.69 398.255 653.49 398.255C592.569 398.255 526.25 383.27 526.25 350.684V180.917Z" fill="#014063"/>
<path d="M779.887 289.312V350.684C779.887 370.934 754.602 384.386 720.838 391.67C720.285 387.481 720 383.207 720 378.867C720 338.471 744.733 303.845 779.887 289.312Z" fill="#014063"/>
<circle cx="818" cy="377" r="93" fill="white" stroke="#014063" stroke-width="10"/>
<path d="M571.913 42V18.864H587.801L587.785 22.8H576.601V28.416H586.313V32.272H576.569V38.016L587.961 38.032V42H571.913ZM601.393 42.32C599.142 42.32 597.34 41.9467 595.985 41.2C594.63 40.4427 593.649 39.3707 593.041 37.984C592.444 36.5973 592.145 34.944 592.145 33.024V18.864H596.897V33.376C596.897 35.104 597.313 36.368 598.145 37.168C598.977 37.9573 600.06 38.352 601.393 38.352C602.278 38.352 603.062 38.1813 603.745 37.84C604.428 37.488 604.961 36.9493 605.345 36.224C605.74 35.488 605.937 34.5387 605.937 33.376V18.864H610.657V33.184C610.657 35.0507 610.353 36.672 609.745 38.048C609.137 39.4133 608.15 40.4693 606.785 41.216C605.43 41.952 603.633 42.32 601.393 42.32ZM628.781 42.32C627.245 42.32 625.874 41.9787 624.669 41.296C623.463 40.6133 622.514 39.6373 621.821 38.368C621.138 37.088 620.797 35.5627 620.797 33.792C620.797 32.0853 621.127 30.5813 621.789 29.28C622.45 27.9787 623.378 26.9653 624.573 26.24C625.778 25.504 627.181 25.136 628.781 25.136C630.167 25.136 631.362 25.4187 632.365 25.984C633.378 26.5493 634.173 27.312 634.749 28.272C635.335 29.232 635.671 30.304 635.757 31.488H631.869C631.794 31.0507 631.639 30.6187 631.405 30.192C631.17 29.7547 630.839 29.3973 630.413 29.12C629.986 28.832 629.453 28.688 628.813 28.688C627.725 28.688 626.839 29.1093 626.157 29.952C625.485 30.784 625.149 32.0533 625.149 33.76C625.149 35.3707 625.479 36.6507 626.141 37.6C626.802 38.5387 627.725 39.008 628.909 39.008C629.538 39.008 630.061 38.8533 630.477 38.544C630.903 38.2347 631.234 37.8667 631.469 37.44C631.703 37.0027 631.853 36.5973 631.917 36.224H635.709C635.634 37.3653 635.303 38.4 634.717 39.328C634.13 40.2453 633.33 40.976 632.317 41.52C631.314 42.0533 630.135 42.32 628.781 42.32ZM644.972 42.32C644.204 42.32 643.446 42.2027 642.7 41.968C641.964 41.7333 641.292 41.3867 640.684 40.928C640.076 40.4693 639.585 39.904 639.212 39.232C638.849 38.56 638.668 37.7813 638.668 36.896V25.456H643.34V36.304C643.34 37.072 643.59 37.7013 644.092 38.192C644.593 38.6827 645.329 38.928 646.3 38.928C647.217 38.928 647.942 38.6933 648.476 38.224C649.02 37.744 649.292 37.0773 649.292 36.224V25.456H653.916V42H650.396L649.852 38.72C649.66 39.6907 649.297 40.4373 648.764 40.96C648.241 41.472 647.638 41.824 646.956 42.016C646.284 42.2187 645.622 42.32 644.972 42.32ZM664.483 42.32C663.331 42.32 662.222 42.1333 661.155 41.76C660.099 41.376 659.198 40.7787 658.451 39.968C657.715 39.1467 657.251 38.0853 657.059 36.784H661.091C661.24 37.3707 661.496 37.8347 661.859 38.176C662.232 38.5173 662.654 38.7627 663.123 38.912C663.592 39.0507 664.04 39.12 664.467 39.12C665.363 39.12 666.083 38.9813 666.627 38.704C667.182 38.416 667.459 37.9787 667.459 37.392C667.459 36.944 667.294 36.5867 666.963 36.32C666.643 36.0533 666.11 35.8507 665.363 35.712L662.451 35.104C660.99 34.7947 659.811 34.272 658.915 33.536C658.03 32.7893 657.582 31.7333 657.571 30.368C657.56 29.376 657.816 28.4853 658.339 27.696C658.872 26.9067 659.656 26.2827 660.691 25.824C661.736 25.3653 663.011 25.136 664.515 25.136C666.552 25.136 668.179 25.584 669.395 26.48C670.622 27.376 671.246 28.64 671.267 30.272H667.363C667.246 29.632 666.926 29.1413 666.403 28.8C665.891 28.448 665.24 28.272 664.451 28.272C663.651 28.272 662.99 28.416 662.467 28.704C661.944 28.992 661.683 29.4293 661.683 30.016C661.683 30.4533 661.896 30.8 662.323 31.056C662.75 31.3013 663.411 31.5147 664.307 31.696L666.995 32.304C667.923 32.528 668.675 32.8373 669.251 33.232C669.838 33.616 670.291 34.0373 670.611 34.496C670.931 34.9547 671.15 35.4187 671.267 35.888C671.395 36.3467 671.459 36.7627 671.459 37.136C671.459 38.2347 671.166 39.1733 670.579 39.952C669.992 40.72 669.176 41.3067 668.131 41.712C667.086 42.1173 665.87 42.32 664.483 42.32ZM681.695 42.176C680.234 42.176 679.103 41.9893 678.303 41.616C677.514 41.2427 676.965 40.72 676.655 40.048C676.357 39.376 676.207 38.5973 676.207 37.712V28.704H673.519V25.456H676.351L677.535 20.464H680.863V25.44H684.543V28.704H680.863L680.895 37.52C680.895 37.9253 680.943 38.2293 681.039 38.432C681.146 38.624 681.306 38.752 681.519 38.816C681.743 38.8693 682.026 38.896 682.367 38.896H684.591V41.776C684.367 41.872 684.031 41.9627 683.583 42.048C683.135 42.1333 682.506 42.176 681.695 42.176ZM694.477 42.32C692.855 42.32 691.442 41.9733 690.237 41.28C689.042 40.5867 688.114 39.6053 687.453 38.336C686.802 37.0667 686.477 35.5627 686.477 33.824C686.477 32.0853 686.802 30.5653 687.453 29.264C688.114 27.9627 689.042 26.9493 690.237 26.224C691.442 25.4987 692.861 25.136 694.493 25.136C696.125 25.136 697.538 25.4933 698.733 26.208C699.927 26.912 700.85 27.9147 701.501 29.216C702.151 30.5173 702.477 32.0533 702.477 33.824C702.477 35.488 702.157 36.96 701.517 38.24C700.887 39.5093 699.975 40.5067 698.781 41.232C697.597 41.9573 696.162 42.32 694.477 42.32ZM694.493 38.848C695.314 38.848 695.975 38.608 696.477 38.128C696.978 37.648 697.341 37.0187 697.565 36.24C697.789 35.4507 697.901 34.592 697.901 33.664C697.901 32.7893 697.799 31.9627 697.597 31.184C697.394 30.4053 697.042 29.776 696.541 29.296C696.039 28.816 695.357 28.576 694.493 28.576C693.671 28.576 693.005 28.8053 692.493 29.264C691.991 29.712 691.623 30.3253 691.389 31.104C691.154 31.872 691.037 32.7253 691.037 33.664C691.037 34.528 691.143 35.36 691.357 36.16C691.57 36.9493 691.927 37.5947 692.429 38.096C692.93 38.5973 693.618 38.848 694.493 38.848ZM705.587 42V25.456H710.163V27.792C710.664 27.0667 711.336 26.4427 712.179 25.92C713.032 25.3973 714.104 25.136 715.395 25.136C715.96 25.136 716.536 25.2373 717.123 25.44C717.71 25.6427 718.259 25.9413 718.771 26.336C719.294 26.72 719.715 27.2053 720.035 27.792C720.568 27.0347 721.267 26.4053 722.131 25.904C723.006 25.392 723.976 25.136 725.043 25.136C725.662 25.136 726.286 25.2373 726.915 25.44C727.555 25.6427 728.142 25.9733 728.675 26.432C729.208 26.8907 729.635 27.504 729.955 28.272C730.286 29.0293 730.451 29.968 730.451 31.088V42H725.779V31.664C725.779 31.0027 725.646 30.4747 725.379 30.08C725.123 29.6747 724.792 29.3867 724.387 29.216C723.992 29.0347 723.571 28.944 723.123 28.944C722.707 28.944 722.286 29.0293 721.859 29.2C721.432 29.36 721.07 29.6213 720.771 29.984C720.472 30.3467 720.323 30.8213 720.323 31.408V42H715.667V31.248C715.667 30.7467 715.534 30.3253 715.267 29.984C715 29.6427 714.664 29.3867 714.259 29.216C713.864 29.0347 713.459 28.944 713.043 28.944C712.616 28.944 712.19 29.0347 711.763 29.216C711.336 29.3867 710.979 29.6587 710.691 30.032C710.403 30.3947 710.259 30.8533 710.259 31.408V42H705.587ZM741.763 42.32C740.12 42.32 738.675 41.9787 737.427 41.296C736.19 40.6027 735.224 39.6267 734.531 38.368C733.838 37.1093 733.491 35.6267 733.491 33.92C733.491 32.2667 733.806 30.7787 734.435 29.456C735.075 28.1227 735.992 27.072 737.187 26.304C738.382 25.5253 739.827 25.136 741.523 25.136C743.208 25.136 744.622 25.4933 745.763 26.208C746.904 26.912 747.768 27.8987 748.355 29.168C748.942 30.4267 749.235 31.8827 749.235 33.536V34.8H738.115C738.115 35.6427 738.254 36.3787 738.531 37.008C738.808 37.6267 739.208 38.1067 739.731 38.448C740.264 38.7787 740.904 38.944 741.651 38.944C742.451 38.944 743.15 38.7733 743.747 38.432C744.344 38.0907 744.766 37.5307 745.011 36.752H749.219C749.027 37.9253 748.558 38.928 747.811 39.76C747.064 40.592 746.158 41.2267 745.091 41.664C744.024 42.1013 742.915 42.32 741.763 42.32ZM738.115 32.016H744.867C744.867 31.3547 744.739 30.7467 744.483 30.192C744.238 29.6373 743.864 29.2 743.363 28.88C742.872 28.56 742.254 28.4 741.507 28.4C740.792 28.4 740.179 28.576 739.667 28.928C739.166 29.2693 738.776 29.7173 738.499 30.272C738.232 30.8267 738.104 31.408 738.115 32.016ZM752.521 42V25.456H757.017V29.376C757.283 28.5333 757.657 27.7973 758.137 27.168C758.627 26.528 759.219 26.032 759.913 25.68C760.606 25.3173 761.39 25.136 762.265 25.136C762.414 25.136 762.553 25.1467 762.681 25.168C762.819 25.1787 762.921 25.2 762.985 25.232V29.68C762.889 29.6373 762.771 29.6107 762.633 29.6C762.505 29.5893 762.387 29.5787 762.281 29.568C761.363 29.4933 760.579 29.52 759.929 29.648C759.278 29.776 758.75 29.9947 758.345 30.304C757.939 30.6133 757.646 30.992 757.465 31.44C757.283 31.888 757.193 32.3893 757.193 32.944V42H752.521ZM779.795 42.32C778.174 42.32 776.761 41.9733 775.555 41.28C774.361 40.5867 773.433 39.6053 772.771 38.336C772.121 37.0667 771.795 35.5627 771.795 33.824C771.795 32.0853 772.121 30.5653 772.771 29.264C773.433 27.9627 774.361 26.9493 775.555 26.224C776.761 25.4987 778.179 25.136 779.811 25.136C781.443 25.136 782.857 25.4933 784.051 26.208C785.246 26.912 786.169 27.9147 786.819 29.216C787.47 30.5173 787.795 32.0533 787.795 33.824C787.795 35.488 787.475 36.96 786.835 38.24C786.206 39.5093 785.294 40.5067 784.099 41.232C782.915 41.9573 781.481 42.32 779.795 42.32ZM779.811 38.848C780.633 38.848 781.294 38.608 781.795 38.128C782.297 37.648 782.659 37.0187 782.883 36.24C783.107 35.4507 783.219 34.592 783.219 33.664C783.219 32.7893 783.118 31.9627 782.915 31.184C782.713 30.4053 782.361 29.776 781.859 29.296C781.358 28.816 780.675 28.576 779.811 28.576C778.99 28.576 778.323 28.8053 777.811 29.264C777.31 29.712 776.942 30.3253 776.707 31.104C776.473 31.872 776.355 32.7253 776.355 33.664C776.355 34.528 776.462 35.36 776.675 36.16C776.889 36.9493 777.246 37.5947 777.747 38.096C778.249 38.5973 778.937 38.848 779.811 38.848ZM790.906 42V25.456H795.402V29.376C795.668 28.5333 796.042 27.7973 796.522 27.168C797.012 26.528 797.604 26.032 798.298 25.68C798.991 25.3173 799.775 25.136 800.65 25.136C800.799 25.136 800.938 25.1467 801.066 25.168C801.204 25.1787 801.306 25.2 801.37 25.232V29.68C801.274 29.6373 801.156 29.6107 801.018 29.6C800.89 29.5893 800.772 29.5787 800.666 29.568C799.748 29.4933 798.964 29.52 798.314 29.648C797.663 29.776 797.135 29.9947 796.73 30.304C796.324 30.6133 796.031 30.992 795.85 31.44C795.668 31.888 795.578 32.3893 795.578 32.944V42H790.906ZM810.238 42.32C808.019 42.32 806.291 41.5573 805.054 40.032C803.817 38.496 803.198 36.3627 803.198 33.632C803.198 31.904 803.449 30.4053 803.95 29.136C804.451 27.8667 805.193 26.8853 806.174 26.192C807.155 25.488 808.355 25.136 809.774 25.136C810.371 25.136 810.926 25.2053 811.438 25.344C811.961 25.472 812.435 25.6533 812.862 25.888C813.289 26.1227 813.662 26.3947 813.982 26.704C814.302 27.0133 814.563 27.344 814.766 27.696V18.224H819.454V42H816.062L815.534 38.608C815.374 39.0667 815.161 39.5147 814.894 39.952C814.638 40.3893 814.302 40.7893 813.886 41.152C813.47 41.504 812.958 41.7867 812.35 42C811.753 42.2133 811.049 42.32 810.238 42.32ZM811.262 38.96C812.435 38.96 813.31 38.5493 813.886 37.728C814.473 36.9067 814.766 35.52 814.766 33.568C814.755 32.4373 814.622 31.4987 814.366 30.752C814.11 30.0053 813.726 29.4507 813.214 29.088C812.713 28.7147 812.073 28.528 811.294 28.528C810.281 28.528 809.438 28.9173 808.766 29.696C808.094 30.464 807.758 31.7547 807.758 33.568C807.758 35.4133 808.073 36.7733 808.702 37.648C809.331 38.5227 810.185 38.96 811.262 38.96ZM830.971 42.32C829.328 42.32 827.883 41.9787 826.635 41.296C825.397 40.6027 824.432 39.6267 823.739 38.368C823.045 37.1093 822.699 35.6267 822.699 33.92C822.699 32.2667 823.013 30.7787 823.643 29.456C824.283 28.1227 825.2 27.072 826.395 26.304C827.589 25.5253 829.035 25.136 830.731 25.136C832.416 25.136 833.829 25.4933 834.971 26.208C836.112 26.912 836.976 27.8987 837.563 29.168C838.149 30.4267 838.443 31.8827 838.443 33.536V34.8H827.323C827.323 35.6427 827.461 36.3787 827.739 37.008C828.016 37.6267 828.416 38.1067 828.939 38.448C829.472 38.7787 830.112 38.944 830.859 38.944C831.659 38.944 832.357 38.7733 832.955 38.432C833.552 38.0907 833.973 37.5307 834.219 36.752H838.427C838.235 37.9253 837.765 38.928 837.019 39.76C836.272 40.592 835.365 41.2267 834.299 41.664C833.232 42.1013 832.123 42.32 830.971 42.32ZM827.323 32.016H834.075C834.075 31.3547 833.947 30.7467 833.691 30.192C833.445 29.6373 833.072 29.2 832.571 28.88C832.08 28.56 831.461 28.4 830.715 28.4C830 28.4 829.387 28.576 828.875 28.928C828.373 29.2693 827.984 29.7173 827.707 30.272C827.44 30.8267 827.312 31.408 827.323 32.016ZM841.728 42V25.456H846.224V29.376C846.491 28.5333 846.864 27.7973 847.344 27.168C847.835 26.528 848.427 26.032 849.12 25.68C849.813 25.3173 850.597 25.136 851.472 25.136C851.621 25.136 851.76 25.1467 851.888 25.168C852.027 25.1787 852.128 25.2 852.192 25.232V29.68C852.096 29.6373 851.979 29.6107 851.84 29.6C851.712 29.5893 851.595 29.5787 851.488 29.568C850.571 29.4933 849.787 29.52 849.136 29.648C848.485 29.776 847.957 29.9947 847.552 30.304C847.147 30.6133 846.853 30.992 846.672 31.44C846.491 31.888 846.4 32.3893 846.4 32.944V42H841.728ZM861.46 42.32C860.308 42.32 859.199 42.1333 858.132 41.76C857.076 41.376 856.175 40.7787 855.428 39.968C854.692 39.1467 854.228 38.0853 854.036 36.784H858.068C858.218 37.3707 858.474 37.8347 858.836 38.176C859.21 38.5173 859.631 38.7627 860.1 38.912C860.57 39.0507 861.018 39.12 861.444 39.12C862.34 39.12 863.06 38.9813 863.604 38.704C864.159 38.416 864.436 37.9787 864.436 37.392C864.436 36.944 864.271 36.5867 863.94 36.32C863.62 36.0533 863.087 35.8507 862.34 35.712L859.428 35.104C857.967 34.7947 856.788 34.272 855.892 33.536C855.007 32.7893 854.559 31.7333 854.548 30.368C854.538 29.376 854.794 28.4853 855.316 27.696C855.85 26.9067 856.634 26.2827 857.668 25.824C858.714 25.3653 859.988 25.136 861.492 25.136C863.53 25.136 865.156 25.584 866.372 26.48C867.599 27.376 868.223 28.64 868.244 30.272H864.34C864.223 29.632 863.903 29.1413 863.38 28.8C862.868 28.448 862.218 28.272 861.428 28.272C860.628 28.272 859.967 28.416 859.444 28.704C858.922 28.992 858.66 29.4293 858.66 30.016C858.66 30.4533 858.874 30.8 859.3 31.056C859.727 31.3013 860.388 31.5147 861.284 31.696L863.972 32.304C864.9 32.528 865.652 32.8373 866.228 33.232C866.815 33.616 867.268 34.0373 867.588 34.496C867.908 34.9547 868.127 35.4187 868.244 35.888C868.372 36.3467 868.436 36.7627 868.436 37.136C868.436 38.2347 868.143 39.1733 867.556 39.952C866.97 40.72 866.154 41.3067 865.108 41.712C864.063 42.1173 862.847 42.32 861.46 42.32Z" fill="black"/>
<path d="M36.0063 42L44.2783 18.864H49.2223L57.4943 42H52.8383L50.9503 36.64H42.6143L40.6943 42H36.0063ZM43.6703 32.56H49.8143L46.7583 23.36L43.6703 32.56ZM60.8883 42V18.864H67.6723L72.9683 35.36L78.3123 18.864H85.0803V42H80.3603V24.304L74.7923 42H71.1283L65.5923 24.384V42H60.8883ZM90.1833 42V18.864H106.071L106.055 22.8H94.8713V28.416H104.583V32.272H94.8393V38.016L106.231 38.032V42H90.1833ZM123.975 42.32C122.439 42.32 121.068 41.9787 119.863 41.296C118.658 40.6133 117.708 39.6373 117.015 38.368C116.332 37.088 115.991 35.5627 115.991 33.792C115.991 32.0853 116.322 30.5813 116.983 29.28C117.644 27.9787 118.572 26.9653 119.767 26.24C120.972 25.504 122.375 25.136 123.975 25.136C125.362 25.136 126.556 25.4187 127.559 25.984C128.572 26.5493 129.367 27.312 129.943 28.272C130.53 29.232 130.866 30.304 130.951 31.488H127.063C126.988 31.0507 126.834 30.6187 126.599 30.192C126.364 29.7547 126.034 29.3973 125.607 29.12C125.18 28.832 124.647 28.688 124.007 28.688C122.919 28.688 122.034 29.1093 121.351 29.952C120.679 30.784 120.343 32.0533 120.343 33.76C120.343 35.3707 120.674 36.6507 121.335 37.6C121.996 38.5387 122.919 39.008 124.103 39.008C124.732 39.008 125.255 38.8533 125.671 38.544C126.098 38.2347 126.428 37.8667 126.663 37.44C126.898 37.0027 127.047 36.5973 127.111 36.224H130.903C130.828 37.3653 130.498 38.4 129.911 39.328C129.324 40.2453 128.524 40.976 127.511 41.52C126.508 42.0533 125.33 42.32 123.975 42.32ZM140.166 42.32C139.398 42.32 138.641 42.2027 137.894 41.968C137.158 41.7333 136.486 41.3867 135.878 40.928C135.27 40.4693 134.779 39.904 134.406 39.232C134.043 38.56 133.862 37.7813 133.862 36.896V25.456H138.534V36.304C138.534 37.072 138.785 37.7013 139.286 38.192C139.787 38.6827 140.523 38.928 141.494 38.928C142.411 38.928 143.137 38.6933 143.67 38.224C144.214 37.744 144.486 37.0773 144.486 36.224V25.456H149.11V42H145.59L145.046 38.72C144.854 39.6907 144.491 40.4373 143.958 40.96C143.435 41.472 142.833 41.824 142.15 42.016C141.478 42.2187 140.817 42.32 140.166 42.32ZM159.677 42.32C158.525 42.32 157.416 42.1333 156.349 41.76C155.293 41.376 154.392 40.7787 153.645 39.968C152.909 39.1467 152.445 38.0853 152.253 36.784H156.285C156.435 37.3707 156.691 37.8347 157.053 38.176C157.427 38.5173 157.848 38.7627 158.317 38.912C158.787 39.0507 159.235 39.12 159.661 39.12C160.557 39.12 161.277 38.9813 161.821 38.704C162.376 38.416 162.653 37.9787 162.653 37.392C162.653 36.944 162.488 36.5867 162.157 36.32C161.837 36.0533 161.304 35.8507 160.557 35.712L157.645 35.104C156.184 34.7947 155.005 34.272 154.109 33.536C153.224 32.7893 152.776 31.7333 152.765 30.368C152.755 29.376 153.011 28.4853 153.533 27.696C154.067 26.9067 154.851 26.2827 155.885 25.824C156.931 25.3653 158.205 25.136 159.709 25.136C161.747 25.136 163.373 25.584 164.589 26.48C165.816 27.376 166.44 28.64 166.461 30.272H162.557C162.44 29.632 162.12 29.1413 161.597 28.8C161.085 28.448 160.435 28.272 159.645 28.272C158.845 28.272 158.184 28.416 157.661 28.704C157.139 28.992 156.877 29.4293 156.877 30.016C156.877 30.4533 157.091 30.8 157.517 31.056C157.944 31.3013 158.605 31.5147 159.501 31.696L162.189 32.304C163.117 32.528 163.869 32.8373 164.445 33.232C165.032 33.616 165.485 34.0373 165.805 34.496C166.125 34.9547 166.344 35.4187 166.461 35.888C166.589 36.3467 166.653 36.7627 166.653 37.136C166.653 38.2347 166.36 39.1733 165.773 39.952C165.187 40.72 164.371 41.3067 163.325 41.712C162.28 42.1173 161.064 42.32 159.677 42.32ZM176.89 42.176C175.428 42.176 174.298 41.9893 173.498 41.616C172.708 41.2427 172.159 40.72 171.85 40.048C171.551 39.376 171.402 38.5973 171.402 37.712V28.704H168.714V25.456H171.546L172.73 20.464H176.058V25.44H179.738V28.704H176.058L176.09 37.52C176.09 37.9253 176.138 38.2293 176.234 38.432C176.34 38.624 176.5 38.752 176.714 38.816C176.938 38.8693 177.22 38.896 177.562 38.896H179.786V41.776C179.562 41.872 179.226 41.9627 178.778 42.048C178.33 42.1333 177.7 42.176 176.89 42.176ZM189.671 42.32C188.05 42.32 186.636 41.9733 185.431 41.28C184.236 40.5867 183.308 39.6053 182.647 38.336C181.996 37.0667 181.671 35.5627 181.671 33.824C181.671 32.0853 181.996 30.5653 182.647 29.264C183.308 27.9627 184.236 26.9493 185.431 26.224C186.636 25.4987 188.055 25.136 189.687 25.136C191.319 25.136 192.732 25.4933 193.927 26.208C195.122 26.912 196.044 27.9147 196.695 29.216C197.346 30.5173 197.671 32.0533 197.671 33.824C197.671 35.488 197.351 36.96 196.711 38.24C196.082 39.5093 195.17 40.5067 193.975 41.232C192.791 41.9573 191.356 42.32 189.671 42.32ZM189.687 38.848C190.508 38.848 191.17 38.608 191.671 38.128C192.172 37.648 192.535 37.0187 192.759 36.24C192.983 35.4507 193.095 34.592 193.095 33.664C193.095 32.7893 192.994 31.9627 192.791 31.184C192.588 30.4053 192.236 29.776 191.735 29.296C191.234 28.816 190.551 28.576 189.687 28.576C188.866 28.576 188.199 28.8053 187.687 29.264C187.186 29.712 186.818 30.3253 186.583 31.104C186.348 31.872 186.231 32.7253 186.231 33.664C186.231 34.528 186.338 35.36 186.551 36.16C186.764 36.9493 187.122 37.5947 187.623 38.096C188.124 38.5973 188.812 38.848 189.687 38.848ZM200.781 42V25.456H205.357V27.792C205.859 27.0667 206.531 26.4427 207.373 25.92C208.227 25.3973 209.299 25.136 210.589 25.136C211.155 25.136 211.731 25.2373 212.317 25.44C212.904 25.6427 213.453 25.9413 213.965 26.336C214.488 26.72 214.909 27.2053 215.229 27.792C215.763 27.0347 216.461 26.4053 217.325 25.904C218.2 25.392 219.171 25.136 220.237 25.136C220.856 25.136 221.48 25.2373 222.109 25.44C222.749 25.6427 223.336 25.9733 223.869 26.432C224.403 26.8907 224.829 27.504 225.149 28.272C225.48 29.0293 225.645 29.968 225.645 31.088V42H220.973V31.664C220.973 31.0027 220.84 30.4747 220.573 30.08C220.317 29.6747 219.987 29.3867 219.581 29.216C219.187 29.0347 218.765 28.944 218.317 28.944C217.901 28.944 217.48 29.0293 217.053 29.2C216.627 29.36 216.264 29.6213 215.965 29.984C215.667 30.3467 215.517 30.8213 215.517 31.408V42H210.861V31.248C210.861 30.7467 210.728 30.3253 210.461 29.984C210.195 29.6427 209.859 29.3867 209.453 29.216C209.059 29.0347 208.653 28.944 208.237 28.944C207.811 28.944 207.384 29.0347 206.957 29.216C206.531 29.3867 206.173 29.6587 205.885 30.032C205.597 30.3947 205.453 30.8533 205.453 31.408V42H200.781ZM236.957 42.32C235.315 42.32 233.869 41.9787 232.621 41.296C231.384 40.6027 230.419 39.6267 229.725 38.368C229.032 37.1093 228.685 35.6267 228.685 33.92C228.685 32.2667 229 30.7787 229.629 29.456C230.269 28.1227 231.187 27.072 232.381 26.304C233.576 25.5253 235.021 25.136 236.717 25.136C238.403 25.136 239.816 25.4933 240.957 26.208C242.099 26.912 242.963 27.8987 243.549 29.168C244.136 30.4267 244.429 31.8827 244.429 33.536V34.8H233.309C233.309 35.6427 233.448 36.3787 233.725 37.008C234.003 37.6267 234.403 38.1067 234.925 38.448C235.459 38.7787 236.099 38.944 236.845 38.944C237.645 38.944 238.344 38.7733 238.941 38.432C239.539 38.0907 239.96 37.5307 240.205 36.752H244.413C244.221 37.9253 243.752 38.928 243.005 39.76C242.259 40.592 241.352 41.2267 240.285 41.664C239.219 42.1013 238.109 42.32 236.957 42.32ZM233.309 32.016H240.061C240.061 31.3547 239.933 30.7467 239.677 30.192C239.432 29.6373 239.059 29.2 238.557 28.88C238.067 28.56 237.448 28.4 236.701 28.4C235.987 28.4 235.373 28.576 234.861 28.928C234.36 29.2693 233.971 29.7173 233.693 30.272C233.427 30.8267 233.299 31.408 233.309 32.016ZM247.715 42V25.456H252.211V29.376C252.478 28.5333 252.851 27.7973 253.331 27.168C253.822 26.528 254.414 26.032 255.107 25.68C255.8 25.3173 256.584 25.136 257.459 25.136C257.608 25.136 257.747 25.1467 257.875 25.168C258.014 25.1787 258.115 25.2 258.179 25.232V29.68C258.083 29.6373 257.966 29.6107 257.827 29.6C257.699 29.5893 257.582 29.5787 257.475 29.568C256.558 29.4933 255.774 29.52 255.123 29.648C254.472 29.776 253.944 29.9947 253.539 30.304C253.134 30.6133 252.84 30.992 252.659 31.44C252.478 31.888 252.387 32.3893 252.387 32.944V42H247.715ZM274.99 42.32C273.368 42.32 271.955 41.9733 270.75 41.28C269.555 40.5867 268.627 39.6053 267.966 38.336C267.315 37.0667 266.99 35.5627 266.99 33.824C266.99 32.0853 267.315 30.5653 267.966 29.264C268.627 27.9627 269.555 26.9493 270.75 26.224C271.955 25.4987 273.374 25.136 275.006 25.136C276.638 25.136 278.051 25.4933 279.246 26.208C280.44 26.912 281.363 27.9147 282.014 29.216C282.664 30.5173 282.99 32.0533 282.99 33.824C282.99 35.488 282.67 36.96 282.03 38.24C281.4 39.5093 280.488 40.5067 279.294 41.232C278.11 41.9573 276.675 42.32 274.99 42.32ZM275.006 38.848C275.827 38.848 276.488 38.608 276.99 38.128C277.491 37.648 277.854 37.0187 278.078 36.24C278.302 35.4507 278.414 34.592 278.414 33.664C278.414 32.7893 278.312 31.9627 278.11 31.184C277.907 30.4053 277.555 29.776 277.054 29.296C276.552 28.816 275.87 28.576 275.006 28.576C274.184 28.576 273.518 28.8053 273.006 29.264C272.504 29.712 272.136 30.3253 271.902 31.104C271.667 31.872 271.55 32.7253 271.55 33.664C271.55 34.528 271.656 35.36 271.87 36.16C272.083 36.9493 272.44 37.5947 272.942 38.096C273.443 38.5973 274.131 38.848 275.006 38.848ZM286.1 42V25.456H290.596V29.376C290.863 28.5333 291.236 27.7973 291.716 27.168C292.207 26.528 292.799 26.032 293.492 25.68C294.185 25.3173 294.969 25.136 295.844 25.136C295.993 25.136 296.132 25.1467 296.26 25.168C296.399 25.1787 296.5 25.2 296.564 25.232V29.68C296.468 29.6373 296.351 29.6107 296.212 29.6C296.084 29.5893 295.967 29.5787 295.86 29.568C294.943 29.4933 294.159 29.52 293.508 29.648C292.857 29.776 292.329 29.9947 291.924 30.304C291.519 30.6133 291.225 30.992 291.044 31.44C290.863 31.888 290.772 32.3893 290.772 32.944V42H286.1ZM305.432 42.32C303.214 42.32 301.486 41.5573 300.248 40.032C299.011 38.496 298.392 36.3627 298.392 33.632C298.392 31.904 298.643 30.4053 299.144 29.136C299.646 27.8667 300.387 26.8853 301.368 26.192C302.35 25.488 303.55 25.136 304.968 25.136C305.566 25.136 306.12 25.2053 306.632 25.344C307.155 25.472 307.63 25.6533 308.056 25.888C308.483 26.1227 308.856 26.3947 309.176 26.704C309.496 27.0133 309.758 27.344 309.96 27.696V18.224H314.648V42H311.256L310.728 38.608C310.568 39.0667 310.355 39.5147 310.088 39.952C309.832 40.3893 309.496 40.7893 309.08 41.152C308.664 41.504 308.152 41.7867 307.544 42C306.947 42.2133 306.243 42.32 305.432 42.32ZM306.456 38.96C307.63 38.96 308.504 38.5493 309.08 37.728C309.667 36.9067 309.96 35.52 309.96 33.568C309.95 32.4373 309.816 31.4987 309.56 30.752C309.304 30.0053 308.92 29.4507 308.408 29.088C307.907 28.7147 307.267 28.528 306.488 28.528C305.475 28.528 304.632 28.9173 303.96 29.696C303.288 30.464 302.952 31.7547 302.952 33.568C302.952 35.4133 303.267 36.7733 303.896 37.648C304.526 38.5227 305.379 38.96 306.456 38.96ZM326.165 42.32C324.522 42.32 323.077 41.9787 321.829 41.296C320.592 40.6027 319.626 39.6267 318.933 38.368C318.24 37.1093 317.893 35.6267 317.893 33.92C317.893 32.2667 318.208 30.7787 318.837 29.456C319.477 28.1227 320.394 27.072 321.589 26.304C322.784 25.5253 324.229 25.136 325.925 25.136C327.61 25.136 329.024 25.4933 330.165 26.208C331.306 26.912 332.17 27.8987 332.757 29.168C333.344 30.4267 333.637 31.8827 333.637 33.536V34.8H322.517C322.517 35.6427 322.656 36.3787 322.933 37.008C323.21 37.6267 323.61 38.1067 324.133 38.448C324.666 38.7787 325.306 38.944 326.053 38.944C326.853 38.944 327.552 38.7733 328.149 38.432C328.746 38.0907 329.168 37.5307 329.413 36.752H333.621C333.429 37.9253 332.96 38.928 332.213 39.76C331.466 40.592 330.56 41.2267 329.493 41.664C328.426 42.1013 327.317 42.32 326.165 42.32ZM322.517 32.016H329.269C329.269 31.3547 329.141 30.7467 328.885 30.192C328.64 29.6373 328.266 29.2 327.765 28.88C327.274 28.56 326.656 28.4 325.909 28.4C325.194 28.4 324.581 28.576 324.069 28.928C323.568 29.2693 323.178 29.7173 322.901 30.272C322.634 30.8267 322.506 31.408 322.517 32.016ZM336.923 42V25.456H341.419V29.376C341.685 28.5333 342.059 27.7973 342.539 27.168C343.029 26.528 343.621 26.032 344.315 25.68C345.008 25.3173 345.792 25.136 346.667 25.136C346.816 25.136 346.955 25.1467 347.083 25.168C347.221 25.1787 347.323 25.2 347.387 25.232V29.68C347.291 29.6373 347.173 29.6107 347.035 29.6C346.907 29.5893 346.789 29.5787 346.683 29.568C345.765 29.4933 344.981 29.52 344.331 29.648C343.68 29.776 343.152 29.9947 342.747 30.304C342.341 30.6133 342.048 30.992 341.867 31.44C341.685 31.888 341.595 32.3893 341.595 32.944V42H336.923ZM356.655 42.32C355.503 42.32 354.393 42.1333 353.327 41.76C352.271 41.376 351.369 40.7787 350.623 39.968C349.887 39.1467 349.423 38.0853 349.231 36.784H353.263C353.412 37.3707 353.668 37.8347 354.031 38.176C354.404 38.5173 354.825 38.7627 355.295 38.912C355.764 39.0507 356.212 39.12 356.639 39.12C357.535 39.12 358.255 38.9813 358.799 38.704C359.353 38.416 359.631 37.9787 359.631 37.392C359.631 36.944 359.465 36.5867 359.135 36.32C358.815 36.0533 358.281 35.8507 357.535 35.712L354.623 35.104C353.161 34.7947 351.983 34.272 351.087 33.536C350.201 32.7893 349.753 31.7333 349.743 30.368C349.732 29.376 349.988 28.4853 350.511 27.696C351.044 26.9067 351.828 26.2827 352.863 25.824C353.908 25.3653 355.183 25.136 356.687 25.136C358.724 25.136 360.351 25.584 361.567 26.48C362.793 27.376 363.417 28.64 363.439 30.272H359.535C359.417 29.632 359.097 29.1413 358.575 28.8C358.063 28.448 357.412 28.272 356.623 28.272C355.823 28.272 355.161 28.416 354.639 28.704C354.116 28.992 353.855 29.4293 353.855 30.016C353.855 30.4533 354.068 30.8 354.495 31.056C354.921 31.3013 355.583 31.5147 356.479 31.696L359.167 32.304C360.095 32.528 360.847 32.8373 361.423 33.232C362.009 33.616 362.463 34.0373 362.783 34.496C363.103 34.9547 363.321 35.4187 363.439 35.888C363.567 36.3467 363.631 36.7627 363.631 37.136C363.631 38.2347 363.337 39.1733 362.751 39.952C362.164 40.72 361.348 41.3067 360.303 41.712C359.257 42.1173 358.041 42.32 356.655 42.32Z" fill="black"/>
<path d="M761 337.967C761 328.596 768.596 321 777.967 321V321C787.338 321 794.934 328.596 794.934 337.967V337.967C794.934 347.338 787.338 354.934 777.967 354.934V354.934C768.596 354.934 761 347.338 761 337.967V337.967Z" fill="#FFDF81"/>
<path d="M761 414.967C761 405.596 768.596 398 777.967 398V398C787.338 398 794.934 405.596 794.934 414.967V414.967C794.934 424.338 787.338 431.934 777.967 431.934V431.934C768.596 431.934 761 424.338 761 414.967V414.967Z" fill="#C990C0"/>
<path d="M841.066 337.967C841.066 328.596 848.663 321 858.034 321V321C867.404 321 875.001 328.596 875.001 337.967V337.967C875.001 347.338 867.404 354.934 858.034 354.934V354.934C848.663 354.934 841.066 347.338 841.066 337.967V337.967Z" fill="#56C7E4"/>
<path d="M317.555 409.898C317.555 401.767 324.147 395.175 332.278 395.175C340.409 395.175 347.001 401.767 347.001 409.898C347.001 418.03 340.409 424.622 332.278 424.622C324.147 424.622 317.555 418.03 317.555 409.898Z" fill="#C990C0"/>
<path d="M798.434 337.967H837.566" stroke="black" stroke-opacity="0.8" stroke-width="2" stroke-linecap="round" stroke-linejoin="bevel"/>
<path d="M249 342.723C249 334.592 255.592 328 263.723 328V328C271.855 328 278.447 334.592 278.447 342.723V342.723C278.447 350.855 271.855 357.447 263.723 357.447V357.447C255.592 357.447 249 350.855 249 342.723V342.723Z" fill="#F79767"/>
<path d="M280.945 359.6L315.054 393.022" stroke="black" stroke-opacity="0.8" stroke-width="2" stroke-linecap="round" stroke-linejoin="bevel"/>
<path d="M249 409.898C249 401.767 255.592 395.175 263.723 395.175C271.855 395.175 278.447 401.767 278.447 409.898C278.447 418.03 271.855 424.622 263.723 424.622C255.592 424.622 249 418.03 249 409.898Z" fill="#F16767"/>
<path d="M281.945 409.898H314.053" stroke="black" stroke-opacity="0.8" stroke-width="2" stroke-linecap="round" stroke-linejoin="bevel"/>
</svg>
