<svg width="920" height="489" viewBox="0 0 920 489" fill="none" xmlns="http://www.w3.org/2000/svg">
<path d="M761 415.38C761 406.009 768.596 398.413 777.967 398.413V398.413C787.338 398.413 794.934 406.009 794.934 415.38V415.38C794.934 424.751 787.338 432.347 777.967 432.347V432.347C768.596 432.347 761 424.751 761 415.38V415.38Z" fill="#C990C0"/>
<path fill-rule="evenodd" clip-rule="evenodd" d="M200 385.867C200 439.376 243.371 482.75 296.875 482.75C350.379 482.75 393.75 439.376 393.75 385.867C393.75 332.374 350.379 289 296.875 289C243.371 289.001 200 332.374 200 385.867ZM309.333 387.537H350.101C350.888 387.537 351.528 388.178 351.528 388.965V429.735C351.528 430.522 350.888 431.163 350.101 431.163H309.333C308.547 431.163 307.906 430.522 307.906 429.735V388.965C307.906 388.179 308.547 387.537 309.333 387.537ZM258.101 384.367C271.898 384.367 283.082 395.552 283.082 409.35C283.082 423.148 271.898 434.333 258.101 434.333C244.304 434.333 233.12 423.148 233.12 409.35C233.12 395.552 244.304 384.367 258.101 384.367ZM298.111 316.43L324.485 362.112C325.036 363.068 324.351 364.254 323.249 364.254H270.502C269.399 364.254 268.715 363.068 269.266 362.112L295.639 316.43C296.187 315.48 297.563 315.48 298.111 316.43Z" fill="#014063"/>
<path d="M6.25 142.82C6.25 110.235 72.5688 95.25 133.49 95.25C194.41 95.25 259.887 110.235 259.887 142.82C259.887 175.406 194.41 190.391 133.49 190.391C72.5688 190.391 6.25 175.406 6.25 142.82Z" fill="#014063"/>
<path d="M6.25 187.917C35.0685 208.134 85.7116 216.558 133.49 216.558C181.268 216.558 231.068 209.819 259.887 189.602V275.633C213.817 291.084 180.625 334.602 180.625 385.867C180.625 391.351 181.005 396.745 181.739 402.027C166.212 404.195 149.69 405.255 133.49 405.255C72.5688 405.255 6.25 390.27 6.25 357.684V187.917Z" fill="#014063"/>
<path d="M259.887 296.312V357.684C259.887 377.934 234.602 391.386 200.838 398.67C200.285 394.481 200 390.207 200 385.867C200 345.471 224.733 310.845 259.887 296.312Z" fill="#014063"/>
<circle cx="298" cy="384" r="93" fill="white" stroke="#014063" stroke-width="10"/>
<path fill-rule="evenodd" clip-rule="evenodd" d="M720 378.867C720 432.376 763.371 475.75 816.875 475.75C870.379 475.75 913.75 432.376 913.75 378.867C913.75 325.374 870.379 282 816.875 282C763.371 282.001 720 325.374 720 378.867ZM829.333 380.537H870.101C870.888 380.537 871.528 381.178 871.528 381.965V422.735C871.528 423.522 870.888 424.163 870.101 424.163H829.333C828.547 424.163 827.906 423.522 827.906 422.735V381.965C827.906 381.179 828.547 380.537 829.333 380.537ZM778.101 377.367C791.898 377.367 803.082 388.552 803.082 402.35C803.082 416.148 791.898 427.333 778.101 427.333C764.304 427.333 753.12 416.148 753.12 402.35C753.12 388.552 764.304 377.367 778.101 377.367ZM818.111 309.43L844.485 355.112C845.036 356.068 844.351 357.254 843.249 357.254H790.502C789.399 357.254 788.715 356.068 789.266 355.112L815.639 309.43C816.187 308.48 817.563 308.48 818.111 309.43Z" fill="#014063"/>
<path d="M526.25 135.82C526.25 103.235 592.569 88.25 653.49 88.25C714.41 88.25 779.887 103.235 779.887 135.82C779.887 168.406 714.41 183.391 653.49 183.391C592.569 183.391 526.25 168.406 526.25 135.82Z" fill="#014063"/>
<path d="M526.25 180.917C555.069 201.134 605.712 209.558 653.49 209.558C701.268 209.558 751.068 202.819 779.887 182.602V268.633C733.817 284.084 700.625 327.602 700.625 378.867C700.625 384.351 701.005 389.745 701.739 395.027C686.212 397.195 669.69 398.255 653.49 398.255C592.569 398.255 526.25 383.27 526.25 350.684V180.917Z" fill="#014063"/>
<path d="M779.887 289.312V350.684C779.887 370.934 754.602 384.386 720.838 391.67C720.285 387.481 720 383.207 720 378.867C720 338.471 744.733 303.845 779.887 289.312Z" fill="#014063"/>
<circle cx="818" cy="377" r="93" fill="white" stroke="#014063" stroke-width="10"/>
<path d="M522.913 42V18.864H538.801L538.785 22.8H527.601V28.416H537.313V32.272H527.569V38.016L538.961 38.032V42H522.913ZM552.393 42.32C550.142 42.32 548.34 41.9467 546.985 41.2C545.63 40.4427 544.649 39.3707 544.041 37.984C543.444 36.5973 543.145 34.944 543.145 33.024V18.864H547.897V33.376C547.897 35.104 548.313 36.368 549.145 37.168C549.977 37.9573 551.06 38.352 552.393 38.352C553.278 38.352 554.062 38.1813 554.745 37.84C555.428 37.488 555.961 36.9493 556.345 36.224C556.74 35.488 556.937 34.5387 556.937 33.376V18.864H561.657V33.184C561.657 35.0507 561.353 36.672 560.745 38.048C560.137 39.4133 559.15 40.4693 557.785 41.216C556.43 41.952 554.633 42.32 552.393 42.32ZM579.781 42.32C578.245 42.32 576.874 41.9787 575.669 41.296C574.463 40.6133 573.514 39.6373 572.821 38.368C572.138 37.088 571.797 35.5627 571.797 33.792C571.797 32.0853 572.127 30.5813 572.789 29.28C573.45 27.9787 574.378 26.9653 575.573 26.24C576.778 25.504 578.181 25.136 579.781 25.136C581.167 25.136 582.362 25.4187 583.365 25.984C584.378 26.5493 585.173 27.312 585.749 28.272C586.335 29.232 586.671 30.304 586.757 31.488H582.869C582.794 31.0507 582.639 30.6187 582.405 30.192C582.17 29.7547 581.839 29.3973 581.413 29.12C580.986 28.832 580.453 28.688 579.813 28.688C578.725 28.688 577.839 29.1093 577.157 29.952C576.485 30.784 576.149 32.0533 576.149 33.76C576.149 35.3707 576.479 36.6507 577.141 37.6C577.802 38.5387 578.725 39.008 579.909 39.008C580.538 39.008 581.061 38.8533 581.477 38.544C581.903 38.2347 582.234 37.8667 582.469 37.44C582.703 37.0027 582.853 36.5973 582.917 36.224H586.709C586.634 37.3653 586.303 38.4 585.717 39.328C585.13 40.2453 584.33 40.976 583.317 41.52C582.314 42.0533 581.135 42.32 579.781 42.32ZM595.972 42.32C595.204 42.32 594.446 42.2027 593.7 41.968C592.964 41.7333 592.292 41.3867 591.684 40.928C591.076 40.4693 590.585 39.904 590.212 39.232C589.849 38.56 589.668 37.7813 589.668 36.896V25.456H594.34V36.304C594.34 37.072 594.59 37.7013 595.092 38.192C595.593 38.6827 596.329 38.928 597.3 38.928C598.217 38.928 598.942 38.6933 599.476 38.224C600.02 37.744 600.292 37.0773 600.292 36.224V25.456H604.916V42H601.396L600.852 38.72C600.66 39.6907 600.297 40.4373 599.764 40.96C599.241 41.472 598.638 41.824 597.956 42.016C597.284 42.2187 596.622 42.32 595.972 42.32ZM615.483 42.32C614.331 42.32 613.222 42.1333 612.155 41.76C611.099 41.376 610.198 40.7787 609.451 39.968C608.715 39.1467 608.251 38.0853 608.059 36.784H612.091C612.24 37.3707 612.496 37.8347 612.859 38.176C613.232 38.5173 613.654 38.7627 614.123 38.912C614.592 39.0507 615.04 39.12 615.467 39.12C616.363 39.12 617.083 38.9813 617.627 38.704C618.182 38.416 618.459 37.9787 618.459 37.392C618.459 36.944 618.294 36.5867 617.963 36.32C617.643 36.0533 617.11 35.8507 616.363 35.712L613.451 35.104C611.99 34.7947 610.811 34.272 609.915 33.536C609.03 32.7893 608.582 31.7333 608.571 30.368C608.56 29.376 608.816 28.4853 609.339 27.696C609.872 26.9067 610.656 26.2827 611.691 25.824C612.736 25.3653 614.011 25.136 615.515 25.136C617.552 25.136 619.179 25.584 620.395 26.48C621.622 27.376 622.246 28.64 622.267 30.272H618.363C618.246 29.632 617.926 29.1413 617.403 28.8C616.891 28.448 616.24 28.272 615.451 28.272C614.651 28.272 613.99 28.416 613.467 28.704C612.944 28.992 612.683 29.4293 612.683 30.016C612.683 30.4533 612.896 30.8 613.323 31.056C613.75 31.3013 614.411 31.5147 615.307 31.696L617.995 32.304C618.923 32.528 619.675 32.8373 620.251 33.232C620.838 33.616 621.291 34.0373 621.611 34.496C621.931 34.9547 622.15 35.4187 622.267 35.888C622.395 36.3467 622.459 36.7627 622.459 37.136C622.459 38.2347 622.166 39.1733 621.579 39.952C620.992 40.72 620.176 41.3067 619.131 41.712C618.086 42.1173 616.87 42.32 615.483 42.32ZM632.695 42.176C631.234 42.176 630.103 41.9893 629.303 41.616C628.514 41.2427 627.965 40.72 627.655 40.048C627.357 39.376 627.207 38.5973 627.207 37.712V28.704H624.519V25.456H627.351L628.535 20.464H631.863V25.44H635.543V28.704H631.863L631.895 37.52C631.895 37.9253 631.943 38.2293 632.039 38.432C632.146 38.624 632.306 38.752 632.519 38.816C632.743 38.8693 633.026 38.896 633.367 38.896H635.591V41.776C635.367 41.872 635.031 41.9627 634.583 42.048C634.135 42.1333 633.506 42.176 632.695 42.176ZM645.477 42.32C643.855 42.32 642.442 41.9733 641.237 41.28C640.042 40.5867 639.114 39.6053 638.453 38.336C637.802 37.0667 637.477 35.5627 637.477 33.824C637.477 32.0853 637.802 30.5653 638.453 29.264C639.114 27.9627 640.042 26.9493 641.237 26.224C642.442 25.4987 643.861 25.136 645.493 25.136C647.125 25.136 648.538 25.4933 649.733 26.208C650.927 26.912 651.85 27.9147 652.501 29.216C653.151 30.5173 653.477 32.0533 653.477 33.824C653.477 35.488 653.157 36.96 652.517 38.24C651.887 39.5093 650.975 40.5067 649.781 41.232C648.597 41.9573 647.162 42.32 645.477 42.32ZM645.493 38.848C646.314 38.848 646.975 38.608 647.477 38.128C647.978 37.648 648.341 37.0187 648.565 36.24C648.789 35.4507 648.901 34.592 648.901 33.664C648.901 32.7893 648.799 31.9627 648.597 31.184C648.394 30.4053 648.042 29.776 647.541 29.296C647.039 28.816 646.357 28.576 645.493 28.576C644.671 28.576 644.005 28.8053 643.493 29.264C642.991 29.712 642.623 30.3253 642.389 31.104C642.154 31.872 642.037 32.7253 642.037 33.664C642.037 34.528 642.143 35.36 642.357 36.16C642.57 36.9493 642.927 37.5947 643.429 38.096C643.93 38.5973 644.618 38.848 645.493 38.848ZM656.587 42V25.456H661.163V27.792C661.664 27.0667 662.336 26.4427 663.179 25.92C664.032 25.3973 665.104 25.136 666.395 25.136C666.96 25.136 667.536 25.2373 668.123 25.44C668.71 25.6427 669.259 25.9413 669.771 26.336C670.294 26.72 670.715 27.2053 671.035 27.792C671.568 27.0347 672.267 26.4053 673.131 25.904C674.006 25.392 674.976 25.136 676.043 25.136C676.662 25.136 677.286 25.2373 677.915 25.44C678.555 25.6427 679.142 25.9733 679.675 26.432C680.208 26.8907 680.635 27.504 680.955 28.272C681.286 29.0293 681.451 29.968 681.451 31.088V42H676.779V31.664C676.779 31.0027 676.646 30.4747 676.379 30.08C676.123 29.6747 675.792 29.3867 675.387 29.216C674.992 29.0347 674.571 28.944 674.123 28.944C673.707 28.944 673.286 29.0293 672.859 29.2C672.432 29.36 672.07 29.6213 671.771 29.984C671.472 30.3467 671.323 30.8213 671.323 31.408V42H666.667V31.248C666.667 30.7467 666.534 30.3253 666.267 29.984C666 29.6427 665.664 29.3867 665.259 29.216C664.864 29.0347 664.459 28.944 664.043 28.944C663.616 28.944 663.19 29.0347 662.763 29.216C662.336 29.3867 661.979 29.6587 661.691 30.032C661.403 30.3947 661.259 30.8533 661.259 31.408V42H656.587ZM692.763 42.32C691.12 42.32 689.675 41.9787 688.427 41.296C687.19 40.6027 686.224 39.6267 685.531 38.368C684.838 37.1093 684.491 35.6267 684.491 33.92C684.491 32.2667 684.806 30.7787 685.435 29.456C686.075 28.1227 686.992 27.072 688.187 26.304C689.382 25.5253 690.827 25.136 692.523 25.136C694.208 25.136 695.622 25.4933 696.763 26.208C697.904 26.912 698.768 27.8987 699.355 29.168C699.942 30.4267 700.235 31.8827 700.235 33.536V34.8H689.115C689.115 35.6427 689.254 36.3787 689.531 37.008C689.808 37.6267 690.208 38.1067 690.731 38.448C691.264 38.7787 691.904 38.944 692.651 38.944C693.451 38.944 694.15 38.7733 694.747 38.432C695.344 38.0907 695.766 37.5307 696.011 36.752H700.219C700.027 37.9253 699.558 38.928 698.811 39.76C698.064 40.592 697.158 41.2267 696.091 41.664C695.024 42.1013 693.915 42.32 692.763 42.32ZM689.115 32.016H695.867C695.867 31.3547 695.739 30.7467 695.483 30.192C695.238 29.6373 694.864 29.2 694.363 28.88C693.872 28.56 693.254 28.4 692.507 28.4C691.792 28.4 691.179 28.576 690.667 28.928C690.166 29.2693 689.776 29.7173 689.499 30.272C689.232 30.8267 689.104 31.408 689.115 32.016ZM703.521 42V25.456H708.017V29.376C708.283 28.5333 708.657 27.7973 709.137 27.168C709.627 26.528 710.219 26.032 710.913 25.68C711.606 25.3173 712.39 25.136 713.265 25.136C713.414 25.136 713.553 25.1467 713.681 25.168C713.819 25.1787 713.921 25.2 713.985 25.232V29.68C713.889 29.6373 713.771 29.6107 713.633 29.6C713.505 29.5893 713.387 29.5787 713.281 29.568C712.363 29.4933 711.579 29.52 710.929 29.648C710.278 29.776 709.75 29.9947 709.345 30.304C708.939 30.6133 708.646 30.992 708.465 31.44C708.283 31.888 708.193 32.3893 708.193 32.944V42H703.521ZM730.795 42.32C729.174 42.32 727.761 41.9733 726.555 41.28C725.361 40.5867 724.433 39.6053 723.771 38.336C723.121 37.0667 722.795 35.5627 722.795 33.824C722.795 32.0853 723.121 30.5653 723.771 29.264C724.433 27.9627 725.361 26.9493 726.555 26.224C727.761 25.4987 729.179 25.136 730.811 25.136C732.443 25.136 733.857 25.4933 735.051 26.208C736.246 26.912 737.169 27.9147 737.819 29.216C738.47 30.5173 738.795 32.0533 738.795 33.824C738.795 35.488 738.475 36.96 737.835 38.24C737.206 39.5093 736.294 40.5067 735.099 41.232C733.915 41.9573 732.481 42.32 730.795 42.32ZM730.811 38.848C731.633 38.848 732.294 38.608 732.795 38.128C733.297 37.648 733.659 37.0187 733.883 36.24C734.107 35.4507 734.219 34.592 734.219 33.664C734.219 32.7893 734.118 31.9627 733.915 31.184C733.713 30.4053 733.361 29.776 732.859 29.296C732.358 28.816 731.675 28.576 730.811 28.576C729.99 28.576 729.323 28.8053 728.811 29.264C728.31 29.712 727.942 30.3253 727.707 31.104C727.473 31.872 727.355 32.7253 727.355 33.664C727.355 34.528 727.462 35.36 727.675 36.16C727.889 36.9493 728.246 37.5947 728.747 38.096C729.249 38.5973 729.937 38.848 730.811 38.848ZM741.906 42V25.456H746.402V29.376C746.668 28.5333 747.042 27.7973 747.522 27.168C748.012 26.528 748.604 26.032 749.298 25.68C749.991 25.3173 750.775 25.136 751.65 25.136C751.799 25.136 751.938 25.1467 752.066 25.168C752.204 25.1787 752.306 25.2 752.37 25.232V29.68C752.274 29.6373 752.156 29.6107 752.018 29.6C751.89 29.5893 751.772 29.5787 751.666 29.568C750.748 29.4933 749.964 29.52 749.314 29.648C748.663 29.776 748.135 29.9947 747.73 30.304C747.324 30.6133 747.031 30.992 746.85 31.44C746.668 31.888 746.578 32.3893 746.578 32.944V42H741.906ZM761.238 42.32C759.019 42.32 757.291 41.5573 756.054 40.032C754.817 38.496 754.198 36.3627 754.198 33.632C754.198 31.904 754.449 30.4053 754.95 29.136C755.451 27.8667 756.193 26.8853 757.174 26.192C758.155 25.488 759.355 25.136 760.774 25.136C761.371 25.136 761.926 25.2053 762.438 25.344C762.961 25.472 763.435 25.6533 763.862 25.888C764.289 26.1227 764.662 26.3947 764.982 26.704C765.302 27.0133 765.563 27.344 765.766 27.696V18.224H770.454V42H767.062L766.534 38.608C766.374 39.0667 766.161 39.5147 765.894 39.952C765.638 40.3893 765.302 40.7893 764.886 41.152C764.47 41.504 763.958 41.7867 763.35 42C762.753 42.2133 762.049 42.32 761.238 42.32ZM762.262 38.96C763.435 38.96 764.31 38.5493 764.886 37.728C765.473 36.9067 765.766 35.52 765.766 33.568C765.755 32.4373 765.622 31.4987 765.366 30.752C765.11 30.0053 764.726 29.4507 764.214 29.088C763.713 28.7147 763.073 28.528 762.294 28.528C761.281 28.528 760.438 28.9173 759.766 29.696C759.094 30.464 758.758 31.7547 758.758 33.568C758.758 35.4133 759.073 36.7733 759.702 37.648C760.331 38.5227 761.185 38.96 762.262 38.96ZM781.971 42.32C780.328 42.32 778.883 41.9787 777.635 41.296C776.397 40.6027 775.432 39.6267 774.739 38.368C774.045 37.1093 773.699 35.6267 773.699 33.92C773.699 32.2667 774.013 30.7787 774.643 29.456C775.283 28.1227 776.2 27.072 777.395 26.304C778.589 25.5253 780.035 25.136 781.731 25.136C783.416 25.136 784.829 25.4933 785.971 26.208C787.112 26.912 787.976 27.8987 788.563 29.168C789.149 30.4267 789.443 31.8827 789.443 33.536V34.8H778.323C778.323 35.6427 778.461 36.3787 778.739 37.008C779.016 37.6267 779.416 38.1067 779.939 38.448C780.472 38.7787 781.112 38.944 781.859 38.944C782.659 38.944 783.357 38.7733 783.955 38.432C784.552 38.0907 784.973 37.5307 785.219 36.752H789.427C789.235 37.9253 788.765 38.928 788.019 39.76C787.272 40.592 786.365 41.2267 785.299 41.664C784.232 42.1013 783.123 42.32 781.971 42.32ZM778.323 32.016H785.075C785.075 31.3547 784.947 30.7467 784.691 30.192C784.445 29.6373 784.072 29.2 783.571 28.88C783.08 28.56 782.461 28.4 781.715 28.4C781 28.4 780.387 28.576 779.875 28.928C779.373 29.2693 778.984 29.7173 778.707 30.272C778.44 30.8267 778.312 31.408 778.323 32.016ZM792.728 42V25.456H797.224V29.376C797.491 28.5333 797.864 27.7973 798.344 27.168C798.835 26.528 799.427 26.032 800.12 25.68C800.813 25.3173 801.597 25.136 802.472 25.136C802.621 25.136 802.76 25.1467 802.888 25.168C803.027 25.1787 803.128 25.2 803.192 25.232V29.68C803.096 29.6373 802.979 29.6107 802.84 29.6C802.712 29.5893 802.595 29.5787 802.488 29.568C801.571 29.4933 800.787 29.52 800.136 29.648C799.485 29.776 798.957 29.9947 798.552 30.304C798.147 30.6133 797.853 30.992 797.672 31.44C797.491 31.888 797.4 32.3893 797.4 32.944V42H792.728ZM812.46 42.32C811.308 42.32 810.199 42.1333 809.132 41.76C808.076 41.376 807.175 40.7787 806.428 39.968C805.692 39.1467 805.228 38.0853 805.036 36.784H809.068C809.218 37.3707 809.474 37.8347 809.836 38.176C810.21 38.5173 810.631 38.7627 811.1 38.912C811.57 39.0507 812.018 39.12 812.444 39.12C813.34 39.12 814.06 38.9813 814.604 38.704C815.159 38.416 815.436 37.9787 815.436 37.392C815.436 36.944 815.271 36.5867 814.94 36.32C814.62 36.0533 814.087 35.8507 813.34 35.712L810.428 35.104C808.967 34.7947 807.788 34.272 806.892 33.536C806.007 32.7893 805.559 31.7333 805.548 30.368C805.538 29.376 805.794 28.4853 806.316 27.696C806.85 26.9067 807.634 26.2827 808.668 25.824C809.714 25.3653 810.988 25.136 812.492 25.136C814.53 25.136 816.156 25.584 817.372 26.48C818.599 27.376 819.223 28.64 819.244 30.272H815.34C815.223 29.632 814.903 29.1413 814.38 28.8C813.868 28.448 813.218 28.272 812.428 28.272C811.628 28.272 810.967 28.416 810.444 28.704C809.922 28.992 809.66 29.4293 809.66 30.016C809.66 30.4533 809.874 30.8 810.3 31.056C810.727 31.3013 811.388 31.5147 812.284 31.696L814.972 32.304C815.9 32.528 816.652 32.8373 817.228 33.232C817.815 33.616 818.268 34.0373 818.588 34.496C818.908 34.9547 819.127 35.4187 819.244 35.888C819.372 36.3467 819.436 36.7627 819.436 37.136C819.436 38.2347 819.143 39.1733 818.556 39.952C817.97 40.72 817.154 41.3067 816.108 41.712C815.063 42.1173 813.847 42.32 812.46 42.32Z" fill="black"/>
<path d="M9.00625 42L17.2783 18.864H22.2223L30.4943 42H25.8383L23.9503 36.64H15.6143L13.6943 42H9.00625ZM16.6703 32.56H22.8143L19.7583 23.36L16.6703 32.56ZM33.8883 42V18.864H40.6723L45.9683 35.36L51.3123 18.864H58.0803V42H53.3603V24.304L47.7923 42H44.1283L38.5923 24.384V42H33.8883ZM63.1833 42V18.864H79.0713L79.0553 22.8H67.8713V28.416H77.5833V32.272H67.8393V38.016L79.2313 38.032V42H63.1833ZM96.975 42.32C95.439 42.32 94.0683 41.9787 92.863 41.296C91.6577 40.6133 90.7083 39.6373 90.015 38.368C89.3323 37.088 88.991 35.5627 88.991 33.792C88.991 32.0853 89.3217 30.5813 89.983 29.28C90.6443 27.9787 91.5723 26.9653 92.767 26.24C93.9723 25.504 95.375 25.136 96.975 25.136C98.3617 25.136 99.5563 25.4187 100.559 25.984C101.572 26.5493 102.367 27.312 102.943 28.272C103.53 29.232 103.866 30.304 103.951 31.488H100.063C99.9883 31.0507 99.8337 30.6187 99.599 30.192C99.3643 29.7547 99.0337 29.3973 98.607 29.12C98.1803 28.832 97.647 28.688 97.007 28.688C95.919 28.688 95.0337 29.1093 94.351 29.952C93.679 30.784 93.343 32.0533 93.343 33.76C93.343 35.3707 93.6737 36.6507 94.335 37.6C94.9963 38.5387 95.919 39.008 97.103 39.008C97.7323 39.008 98.255 38.8533 98.671 38.544C99.0977 38.2347 99.4283 37.8667 99.663 37.44C99.8977 37.0027 100.047 36.5973 100.111 36.224H103.903C103.828 37.3653 103.498 38.4 102.911 39.328C102.324 40.2453 101.524 40.976 100.511 41.52C99.5083 42.0533 98.3297 42.32 96.975 42.32ZM113.166 42.32C112.398 42.32 111.641 42.2027 110.894 41.968C110.158 41.7333 109.486 41.3867 108.878 40.928C108.27 40.4693 107.779 39.904 107.406 39.232C107.043 38.56 106.862 37.7813 106.862 36.896V25.456H111.534V36.304C111.534 37.072 111.785 37.7013 112.286 38.192C112.787 38.6827 113.523 38.928 114.494 38.928C115.411 38.928 116.137 38.6933 116.67 38.224C117.214 37.744 117.486 37.0773 117.486 36.224V25.456H122.11V42H118.59L118.046 38.72C117.854 39.6907 117.491 40.4373 116.958 40.96C116.435 41.472 115.833 41.824 115.15 42.016C114.478 42.2187 113.817 42.32 113.166 42.32ZM132.677 42.32C131.525 42.32 130.416 42.1333 129.349 41.76C128.293 41.376 127.392 40.7787 126.645 39.968C125.909 39.1467 125.445 38.0853 125.253 36.784H129.285C129.435 37.3707 129.691 37.8347 130.053 38.176C130.427 38.5173 130.848 38.7627 131.317 38.912C131.787 39.0507 132.235 39.12 132.661 39.12C133.557 39.12 134.277 38.9813 134.821 38.704C135.376 38.416 135.653 37.9787 135.653 37.392C135.653 36.944 135.488 36.5867 135.157 36.32C134.837 36.0533 134.304 35.8507 133.557 35.712L130.645 35.104C129.184 34.7947 128.005 34.272 127.109 33.536C126.224 32.7893 125.776 31.7333 125.765 30.368C125.755 29.376 126.011 28.4853 126.533 27.696C127.067 26.9067 127.851 26.2827 128.885 25.824C129.931 25.3653 131.205 25.136 132.709 25.136C134.747 25.136 136.373 25.584 137.589 26.48C138.816 27.376 139.44 28.64 139.461 30.272H135.557C135.44 29.632 135.12 29.1413 134.597 28.8C134.085 28.448 133.435 28.272 132.645 28.272C131.845 28.272 131.184 28.416 130.661 28.704C130.139 28.992 129.877 29.4293 129.877 30.016C129.877 30.4533 130.091 30.8 130.517 31.056C130.944 31.3013 131.605 31.5147 132.501 31.696L135.189 32.304C136.117 32.528 136.869 32.8373 137.445 33.232C138.032 33.616 138.485 34.0373 138.805 34.496C139.125 34.9547 139.344 35.4187 139.461 35.888C139.589 36.3467 139.653 36.7627 139.653 37.136C139.653 38.2347 139.36 39.1733 138.773 39.952C138.187 40.72 137.371 41.3067 136.325 41.712C135.28 42.1173 134.064 42.32 132.677 42.32ZM149.89 42.176C148.428 42.176 147.298 41.9893 146.498 41.616C145.708 41.2427 145.159 40.72 144.85 40.048C144.551 39.376 144.402 38.5973 144.402 37.712V28.704H141.714V25.456H144.546L145.73 20.464H149.058V25.44H152.738V28.704H149.058L149.09 37.52C149.09 37.9253 149.138 38.2293 149.234 38.432C149.34 38.624 149.5 38.752 149.714 38.816C149.938 38.8693 150.22 38.896 150.562 38.896H152.786V41.776C152.562 41.872 152.226 41.9627 151.778 42.048C151.33 42.1333 150.7 42.176 149.89 42.176ZM162.671 42.32C161.05 42.32 159.636 41.9733 158.431 41.28C157.236 40.5867 156.308 39.6053 155.647 38.336C154.996 37.0667 154.671 35.5627 154.671 33.824C154.671 32.0853 154.996 30.5653 155.647 29.264C156.308 27.9627 157.236 26.9493 158.431 26.224C159.636 25.4987 161.055 25.136 162.687 25.136C164.319 25.136 165.732 25.4933 166.927 26.208C168.122 26.912 169.044 27.9147 169.695 29.216C170.346 30.5173 170.671 32.0533 170.671 33.824C170.671 35.488 170.351 36.96 169.711 38.24C169.082 39.5093 168.17 40.5067 166.975 41.232C165.791 41.9573 164.356 42.32 162.671 42.32ZM162.687 38.848C163.508 38.848 164.17 38.608 164.671 38.128C165.172 37.648 165.535 37.0187 165.759 36.24C165.983 35.4507 166.095 34.592 166.095 33.664C166.095 32.7893 165.994 31.9627 165.791 31.184C165.588 30.4053 165.236 29.776 164.735 29.296C164.234 28.816 163.551 28.576 162.687 28.576C161.866 28.576 161.199 28.8053 160.687 29.264C160.186 29.712 159.818 30.3253 159.583 31.104C159.348 31.872 159.231 32.7253 159.231 33.664C159.231 34.528 159.338 35.36 159.551 36.16C159.764 36.9493 160.122 37.5947 160.623 38.096C161.124 38.5973 161.812 38.848 162.687 38.848ZM173.781 42V25.456H178.357V27.792C178.859 27.0667 179.531 26.4427 180.373 25.92C181.227 25.3973 182.299 25.136 183.589 25.136C184.155 25.136 184.731 25.2373 185.317 25.44C185.904 25.6427 186.453 25.9413 186.965 26.336C187.488 26.72 187.909 27.2053 188.229 27.792C188.763 27.0347 189.461 26.4053 190.325 25.904C191.2 25.392 192.171 25.136 193.237 25.136C193.856 25.136 194.48 25.2373 195.109 25.44C195.749 25.6427 196.336 25.9733 196.869 26.432C197.403 26.8907 197.829 27.504 198.149 28.272C198.48 29.0293 198.645 29.968 198.645 31.088V42H193.973V31.664C193.973 31.0027 193.84 30.4747 193.573 30.08C193.317 29.6747 192.987 29.3867 192.581 29.216C192.187 29.0347 191.765 28.944 191.317 28.944C190.901 28.944 190.48 29.0293 190.053 29.2C189.627 29.36 189.264 29.6213 188.965 29.984C188.667 30.3467 188.517 30.8213 188.517 31.408V42H183.861V31.248C183.861 30.7467 183.728 30.3253 183.461 29.984C183.195 29.6427 182.859 29.3867 182.453 29.216C182.059 29.0347 181.653 28.944 181.237 28.944C180.811 28.944 180.384 29.0347 179.957 29.216C179.531 29.3867 179.173 29.6587 178.885 30.032C178.597 30.3947 178.453 30.8533 178.453 31.408V42H173.781ZM209.957 42.32C208.315 42.32 206.869 41.9787 205.621 41.296C204.384 40.6027 203.419 39.6267 202.725 38.368C202.032 37.1093 201.685 35.6267 201.685 33.92C201.685 32.2667 202 30.7787 202.629 29.456C203.269 28.1227 204.187 27.072 205.381 26.304C206.576 25.5253 208.021 25.136 209.717 25.136C211.403 25.136 212.816 25.4933 213.957 26.208C215.099 26.912 215.963 27.8987 216.549 29.168C217.136 30.4267 217.429 31.8827 217.429 33.536V34.8H206.309C206.309 35.6427 206.448 36.3787 206.725 37.008C207.003 37.6267 207.403 38.1067 207.925 38.448C208.459 38.7787 209.099 38.944 209.845 38.944C210.645 38.944 211.344 38.7733 211.941 38.432C212.539 38.0907 212.96 37.5307 213.205 36.752H217.413C217.221 37.9253 216.752 38.928 216.005 39.76C215.259 40.592 214.352 41.2267 213.285 41.664C212.219 42.1013 211.109 42.32 209.957 42.32ZM206.309 32.016H213.061C213.061 31.3547 212.933 30.7467 212.677 30.192C212.432 29.6373 212.059 29.2 211.557 28.88C211.067 28.56 210.448 28.4 209.701 28.4C208.987 28.4 208.373 28.576 207.861 28.928C207.36 29.2693 206.971 29.7173 206.693 30.272C206.427 30.8267 206.299 31.408 206.309 32.016ZM220.715 42V25.456H225.211V29.376C225.478 28.5333 225.851 27.7973 226.331 27.168C226.822 26.528 227.414 26.032 228.107 25.68C228.8 25.3173 229.584 25.136 230.459 25.136C230.608 25.136 230.747 25.1467 230.875 25.168C231.014 25.1787 231.115 25.2 231.179 25.232V29.68C231.083 29.6373 230.966 29.6107 230.827 29.6C230.699 29.5893 230.582 29.5787 230.475 29.568C229.558 29.4933 228.774 29.52 228.123 29.648C227.472 29.776 226.944 29.9947 226.539 30.304C226.134 30.6133 225.84 30.992 225.659 31.44C225.478 31.888 225.387 32.3893 225.387 32.944V42H220.715ZM247.99 42.32C246.368 42.32 244.955 41.9733 243.75 41.28C242.555 40.5867 241.627 39.6053 240.966 38.336C240.315 37.0667 239.99 35.5627 239.99 33.824C239.99 32.0853 240.315 30.5653 240.966 29.264C241.627 27.9627 242.555 26.9493 243.75 26.224C244.955 25.4987 246.374 25.136 248.006 25.136C249.638 25.136 251.051 25.4933 252.246 26.208C253.44 26.912 254.363 27.9147 255.014 29.216C255.664 30.5173 255.99 32.0533 255.99 33.824C255.99 35.488 255.67 36.96 255.03 38.24C254.4 39.5093 253.488 40.5067 252.294 41.232C251.11 41.9573 249.675 42.32 247.99 42.32ZM248.006 38.848C248.827 38.848 249.488 38.608 249.99 38.128C250.491 37.648 250.854 37.0187 251.078 36.24C251.302 35.4507 251.414 34.592 251.414 33.664C251.414 32.7893 251.312 31.9627 251.11 31.184C250.907 30.4053 250.555 29.776 250.054 29.296C249.552 28.816 248.87 28.576 248.006 28.576C247.184 28.576 246.518 28.8053 246.006 29.264C245.504 29.712 245.136 30.3253 244.902 31.104C244.667 31.872 244.55 32.7253 244.55 33.664C244.55 34.528 244.656 35.36 244.87 36.16C245.083 36.9493 245.44 37.5947 245.942 38.096C246.443 38.5973 247.131 38.848 248.006 38.848ZM259.1 42V25.456H263.596V29.376C263.863 28.5333 264.236 27.7973 264.716 27.168C265.207 26.528 265.799 26.032 266.492 25.68C267.185 25.3173 267.969 25.136 268.844 25.136C268.993 25.136 269.132 25.1467 269.26 25.168C269.399 25.1787 269.5 25.2 269.564 25.232V29.68C269.468 29.6373 269.351 29.6107 269.212 29.6C269.084 29.5893 268.967 29.5787 268.86 29.568C267.943 29.4933 267.159 29.52 266.508 29.648C265.857 29.776 265.329 29.9947 264.924 30.304C264.519 30.6133 264.225 30.992 264.044 31.44C263.863 31.888 263.772 32.3893 263.772 32.944V42H259.1ZM278.432 42.32C276.214 42.32 274.486 41.5573 273.248 40.032C272.011 38.496 271.392 36.3627 271.392 33.632C271.392 31.904 271.643 30.4053 272.144 29.136C272.646 27.8667 273.387 26.8853 274.368 26.192C275.35 25.488 276.55 25.136 277.968 25.136C278.566 25.136 279.12 25.2053 279.632 25.344C280.155 25.472 280.63 25.6533 281.056 25.888C281.483 26.1227 281.856 26.3947 282.176 26.704C282.496 27.0133 282.758 27.344 282.96 27.696V18.224H287.648V42H284.256L283.728 38.608C283.568 39.0667 283.355 39.5147 283.088 39.952C282.832 40.3893 282.496 40.7893 282.08 41.152C281.664 41.504 281.152 41.7867 280.544 42C279.947 42.2133 279.243 42.32 278.432 42.32ZM279.456 38.96C280.63 38.96 281.504 38.5493 282.08 37.728C282.667 36.9067 282.96 35.52 282.96 33.568C282.95 32.4373 282.816 31.4987 282.56 30.752C282.304 30.0053 281.92 29.4507 281.408 29.088C280.907 28.7147 280.267 28.528 279.488 28.528C278.475 28.528 277.632 28.9173 276.96 29.696C276.288 30.464 275.952 31.7547 275.952 33.568C275.952 35.4133 276.267 36.7733 276.896 37.648C277.526 38.5227 278.379 38.96 279.456 38.96ZM299.165 42.32C297.522 42.32 296.077 41.9787 294.829 41.296C293.592 40.6027 292.626 39.6267 291.933 38.368C291.24 37.1093 290.893 35.6267 290.893 33.92C290.893 32.2667 291.208 30.7787 291.837 29.456C292.477 28.1227 293.394 27.072 294.589 26.304C295.784 25.5253 297.229 25.136 298.925 25.136C300.61 25.136 302.024 25.4933 303.165 26.208C304.306 26.912 305.17 27.8987 305.757 29.168C306.344 30.4267 306.637 31.8827 306.637 33.536V34.8H295.517C295.517 35.6427 295.656 36.3787 295.933 37.008C296.21 37.6267 296.61 38.1067 297.133 38.448C297.666 38.7787 298.306 38.944 299.053 38.944C299.853 38.944 300.552 38.7733 301.149 38.432C301.746 38.0907 302.168 37.5307 302.413 36.752H306.621C306.429 37.9253 305.96 38.928 305.213 39.76C304.466 40.592 303.56 41.2267 302.493 41.664C301.426 42.1013 300.317 42.32 299.165 42.32ZM295.517 32.016H302.269C302.269 31.3547 302.141 30.7467 301.885 30.192C301.64 29.6373 301.266 29.2 300.765 28.88C300.274 28.56 299.656 28.4 298.909 28.4C298.194 28.4 297.581 28.576 297.069 28.928C296.568 29.2693 296.178 29.7173 295.901 30.272C295.634 30.8267 295.506 31.408 295.517 32.016ZM309.923 42V25.456H314.419V29.376C314.685 28.5333 315.059 27.7973 315.539 27.168C316.029 26.528 316.621 26.032 317.315 25.68C318.008 25.3173 318.792 25.136 319.667 25.136C319.816 25.136 319.955 25.1467 320.083 25.168C320.221 25.1787 320.323 25.2 320.387 25.232V29.68C320.291 29.6373 320.173 29.6107 320.035 29.6C319.907 29.5893 319.789 29.5787 319.683 29.568C318.765 29.4933 317.981 29.52 317.331 29.648C316.68 29.776 316.152 29.9947 315.747 30.304C315.341 30.6133 315.048 30.992 314.867 31.44C314.685 31.888 314.595 32.3893 314.595 32.944V42H309.923ZM329.655 42.32C328.503 42.32 327.393 42.1333 326.327 41.76C325.271 41.376 324.369 40.7787 323.623 39.968C322.887 39.1467 322.423 38.0853 322.231 36.784H326.263C326.412 37.3707 326.668 37.8347 327.031 38.176C327.404 38.5173 327.825 38.7627 328.295 38.912C328.764 39.0507 329.212 39.12 329.639 39.12C330.535 39.12 331.255 38.9813 331.799 38.704C332.353 38.416 332.631 37.9787 332.631 37.392C332.631 36.944 332.465 36.5867 332.135 36.32C331.815 36.0533 331.281 35.8507 330.535 35.712L327.623 35.104C326.161 34.7947 324.983 34.272 324.087 33.536C323.201 32.7893 322.753 31.7333 322.743 30.368C322.732 29.376 322.988 28.4853 323.511 27.696C324.044 26.9067 324.828 26.2827 325.863 25.824C326.908 25.3653 328.183 25.136 329.687 25.136C331.724 25.136 333.351 25.584 334.567 26.48C335.793 27.376 336.417 28.64 336.439 30.272H332.535C332.417 29.632 332.097 29.1413 331.575 28.8C331.063 28.448 330.412 28.272 329.623 28.272C328.823 28.272 328.161 28.416 327.639 28.704C327.116 28.992 326.855 29.4293 326.855 30.016C326.855 30.4533 327.068 30.8 327.495 31.056C327.921 31.3013 328.583 31.5147 329.479 31.696L332.167 32.304C333.095 32.528 333.847 32.8373 334.423 33.232C335.009 33.616 335.463 34.0373 335.783 34.496C336.103 34.9547 336.321 35.4187 336.439 35.888C336.567 36.3467 336.631 36.7627 336.631 37.136C336.631 38.2347 336.337 39.1733 335.751 39.952C335.164 40.72 334.348 41.3067 333.303 41.712C332.257 42.1173 331.041 42.32 329.655 42.32Z" fill="black"/>
<rect x="763.481" y="397.7" width="29.819" height="29.819" rx="14.9095" fill="white"/>
<rect x="763.481" y="397.7" width="29.819" height="29.819" rx="14.9095" stroke="#C990C0" stroke-width="0.961905"/>
<path d="M763 342.39C763 333.891 769.891 327 778.39 327V327C786.89 327 793.781 333.891 793.781 342.39V342.39C793.781 350.89 786.89 357.781 778.39 357.781V357.781C769.891 357.781 763 350.89 763 342.39V342.39Z" fill="#FFDF81"/>
<path d="M843.078 342.39C843.078 333.891 849.969 327 858.469 327V327C866.969 327 873.859 333.891 873.859 342.39V342.39C873.859 350.89 866.969 357.781 858.469 357.781V357.781C849.969 357.781 843.078 350.89 843.078 342.39V342.39Z" fill="#56C7E4"/>
<path d="M797.281 342.391H839.578" stroke="black" stroke-opacity="0.8" stroke-width="2" stroke-linecap="round" stroke-linejoin="bevel"/>
<path d="M778.391 361.281V393.719" stroke="black" stroke-opacity="0.8" stroke-width="2" stroke-linecap="round" stroke-linejoin="bevel"/>
<rect x="243.481" y="404.7" width="29.819" height="29.819" rx="14.9095" fill="white"/>
<rect x="243.481" y="404.7" width="29.819" height="29.819" rx="14.9095" stroke="#C990C0" stroke-width="0.961905"/>
<path d="M243 349.39C243 340.891 249.891 334 258.39 334V334C266.89 334 273.781 340.891 273.781 349.39V349.39C273.781 357.89 266.89 364.781 258.39 364.781V364.781C249.891 364.781 243 357.89 243 349.39V349.39Z" fill="#FFDF81"/>
<path d="M323.078 349.39C323.078 340.891 329.969 334 338.469 334V334C346.969 334 353.859 340.891 353.859 349.39V349.39C353.859 357.89 346.969 364.781 338.469 364.781V364.781C329.969 364.781 323.078 357.89 323.078 349.39V349.39Z" fill="#56C7E4"/>
<path d="M277.281 349.391H319.578" stroke="black" stroke-opacity="0.8" stroke-width="2" stroke-linecap="round" stroke-linejoin="bevel"/>
<path d="M258.391 368.281V400.719" stroke="black" stroke-opacity="0.8" stroke-width="2" stroke-linecap="round" stroke-linejoin="bevel"/>
</svg>
