<?xml version="1.0" encoding="UTF-8"?>
<svg width="800px" height="900px" viewBox="0 0 800 900" version="1.1" xmlns="http://www.w3.org/2000/svg" xmlns:xlink="http://www.w3.org/1999/xlink">
    <!-- Generator: Sketch 53.2 (72643) - https://sketchapp.com -->
    <title>topologies_primary_secondary</title>
    <desc>Created with Sketch.</desc>
    <defs>
        <rect id="path-1" x="446" y="192" width="292" height="143" rx="7"></rect>
        <mask id="mask-2" maskContentUnits="userSpaceOnUse" maskUnits="objectBoundingBox" x="0" y="0" width="292" height="143" fill="white">
            <use xlink:href="#path-1"></use>
        </mask>
        <rect id="path-3" x="446" y="711" width="292" height="145" rx="7"></rect>
        <mask id="mask-4" maskContentUnits="userSpaceOnUse" maskUnits="objectBoundingBox" x="0" y="0" width="292" height="145" fill="white">
            <use xlink:href="#path-3"></use>
        </mask>
        <rect id="path-5" x="96" y="90" width="203" height="165" rx="7"></rect>
        <mask id="mask-6" maskContentUnits="userSpaceOnUse" maskUnits="objectBoundingBox" x="0" y="0" width="203" height="165" fill="white">
            <use xlink:href="#path-5"></use>
        </mask>
        <rect id="path-7" x="51" y="456" width="292" height="290" rx="7"></rect>
        <mask id="mask-8" maskContentUnits="userSpaceOnUse" maskUnits="objectBoundingBox" x="0" y="0" width="292" height="290" fill="white">
            <use xlink:href="#path-7"></use>
        </mask>
        <rect id="path-9" x="490" y="62" width="237" height="118" rx="7"></rect>
        <mask id="mask-10" maskContentUnits="userSpaceOnUse" maskUnits="objectBoundingBox" x="0" y="0" width="237" height="118" fill="white">
            <use xlink:href="#path-9"></use>
        </mask>
        <rect id="path-11" x="446" y="433" width="292" height="265" rx="7"></rect>
        <mask id="mask-12" maskContentUnits="userSpaceOnUse" maskUnits="objectBoundingBox" x="0" y="0" width="292" height="265" fill="white">
            <use xlink:href="#path-11"></use>
        </mask>
    </defs>
    <g id="topologies_primary_secondary" stroke="none" stroke-width="1" fill="none" fill-rule="evenodd">
        <rect id="Rectangle-20" stroke="#979797" x="5.5" y="5.5" width="789" height="889"></rect>
        <path d="M6.5,359.5 L793.5,359.5" id="Line-40" stroke="#DFDFDF" stroke-linecap="square"></path>
        <path d="M400.5,6.5 L400.5,893.5" id="Line-40" stroke="#DFDFDF" stroke-linecap="square"></path>
        <text id="Standalone" font-family="OpenSans-Regular, Open Sans" font-size="16" font-weight="normal" fill="#333333">
            <tspan x="155" y="46">Standalone</tspan>
        </text>
        <text id="Replicas-only" font-family="OpenSans-Regular, Open Sans" font-size="16" font-weight="normal" fill="#333333">
            <tspan x="543" y="46">Replicas-only</tspan>
        </text>
        <use id="Rectangle" stroke="#979797" mask="url(#mask-2)" stroke-width="2" fill-opacity="0.3" fill="#F7B7B7" stroke-dasharray="1" xlink:href="#path-1"></use>
        <use id="Rectangle" stroke="#979797" mask="url(#mask-4)" stroke-width="2" fill-opacity="0.3" fill="#F7B7B7" stroke-dasharray="1" xlink:href="#path-3"></use>
        <circle id="Oval-5" stroke="#979797" fill="#D1EBD4" cx="518" cy="263" r="50"></circle>
        <text id="READ-REPLICA" font-family="OpenSans-Regular, Open Sans" font-size="16" font-weight="normal" fill="#333333">
            <tspan x="497.710938" y="255">READ </tspan>
            <tspan x="487.296875" y="277">REPLICA</tspan>
        </text>
        <circle id="Oval-5" stroke="#979797" fill="#D1EBD4" cx="518" cy="780" r="50"></circle>
        <text id="READ-REPLICA" font-family="OpenSans-Regular, Open Sans" font-size="16" font-weight="normal" fill="#333333">
            <tspan x="497.710938" y="772">READ </tspan>
            <tspan x="487.296875" y="794">REPLICA</tspan>
        </text>
        <circle id="Oval-5" stroke="#979797" fill="#D1EBD4" cx="670" cy="780" r="50"></circle>
        <text id="READ-REPLICA" font-family="OpenSans-Regular, Open Sans" font-size="16" font-weight="normal" fill="#333333">
            <tspan x="649.710938" y="772">READ </tspan>
            <tspan x="639.296875" y="794">REPLICA</tspan>
        </text>
        <circle id="Oval-5" stroke="#979797" fill="#D1EBD4" cx="670" cy="263" r="50"></circle>
        <text id="READ-REPLICA" font-family="OpenSans-Regular, Open Sans" font-size="16" font-weight="normal" fill="#333333">
            <tspan x="649.710938" y="255">READ </tspan>
            <tspan x="639.296875" y="277">REPLICA</tspan>
        </text>
        <text id="Fault-tolerant" font-family="OpenSans-Regular, Open Sans" font-size="16" font-weight="normal" fill="#333333">
            <tspan x="147" y="401">Fault tolerant</tspan>
        </text>
        <text id="Fault-tolerant-plus" font-family="OpenSans-Regular, Open Sans" font-size="16" font-weight="normal" fill="#333333">
            <tspan x="494" y="401">Fault tolerant plus replicas</tspan>
        </text>
        <use id="Rectangle" stroke="#979797" mask="url(#mask-6)" stroke-width="2" fill-opacity="0.3" fill="#AEC0F7" stroke-dasharray="1" xlink:href="#path-5"></use>
        <use id="Rectangle" stroke="#979797" mask="url(#mask-8)" stroke-width="2" fill-opacity="0.3" fill="#AEC0F7" stroke-dasharray="1" xlink:href="#path-7"></use>
        <text id="primary" font-family="OpenSans-Italic, Open Sans" font-size="16" font-style="italic" font-weight="normal" fill="#333333">
            <tspan x="231" y="114">primary</tspan>
        </text>
        <text id="primaries" font-family="OpenSans-Italic, Open Sans" font-size="16" font-style="italic" font-weight="normal" fill="#333333">
            <tspan x="258" y="488">primaries</tspan>
        </text>
        <use id="Rectangle" stroke="#979797" mask="url(#mask-10)" stroke-width="2" fill-opacity="0.3" fill="#AEC0F7" stroke-dasharray="1" xlink:href="#path-9"></use>
        <text id="secondaries" font-family="OpenSans-Italic, Open Sans" font-size="16" font-style="italic" font-weight="normal" fill="#333333">
            <tspan x="550" y="322">secondaries</tspan>
        </text>
        <text id="secondaries" font-family="OpenSans-Italic, Open Sans" font-size="16" font-style="italic" font-weight="normal" fill="#333333">
            <tspan x="550" y="845">secondaries</tspan>
        </text>
        <circle id="Oval-5" stroke="#979797" fill="#FFF3CD" cx="592" cy="119" r="50"></circle>
        <text id="SINGLE" font-family="OpenSans-Regular, Open Sans" font-size="16" font-weight="normal" fill="#333333">
            <tspan x="565" y="125">SINGLE</tspan>
        </text>
        <circle id="Oval-5" stroke="#979797" fill="#FFF3CD" cx="197" cy="174" r="50"></circle>
        <text id="SINGLE" font-family="OpenSans-Regular, Open Sans" font-size="16" font-weight="normal" fill="#333333">
            <tspan x="170" y="180">SINGLE</tspan>
        </text>
        <circle id="Oval-5" stroke="#979797" fill="#BCE9F4" cx="197" cy="535" r="50"></circle>
        <text id="CORE" font-family="OpenSans-Regular, Open Sans" font-size="16" font-weight="normal" fill="#333333">
            <tspan x="176" y="541">CORE</tspan>
        </text>
        <circle id="Oval-5" stroke="#979797" fill="#BCE9F4" cx="123" cy="672" r="50"></circle>
        <text id="CORE" font-family="OpenSans-Regular, Open Sans" font-size="16" font-weight="normal" fill="#333333">
            <tspan x="102" y="678">CORE</tspan>
        </text>
        <circle id="Oval-5" stroke="#979797" fill="#BCE9F4" cx="275" cy="672" r="50"></circle>
        <text id="CORE" font-family="OpenSans-Regular, Open Sans" font-size="16" font-weight="normal" fill="#333333">
            <tspan x="254" y="678">CORE</tspan>
        </text>
        <text id="primary" font-family="OpenSans-Italic, Open Sans" font-size="16" font-style="italic" font-weight="normal" fill="#333333">
            <tspan x="659" y="84">primary</tspan>
        </text>
        <path id="Line-41" d="M536.884411,205.186821 L559.053656,161.274662 L559.278995,160.828318 L560.171682,161.278995 L559.946344,161.725338 L537.777098,205.637498 L541.347846,207.440206 L533.274662,213.446344 L533.313662,203.384113 L536.884411,205.186821 Z" fill="#979797" fill-rule="nonzero"></path>
        <path id="Line-41" d="M152.025289,584.273441 L139.862116,607.687549 L143.411738,609.531508 L135.269505,615.443703 L135.425089,605.3826 L138.974711,607.226559 L151.137884,583.812451 L147.588262,581.968492 L155.730495,576.056297 L155.574911,586.1174 L152.025289,584.273441 Z" fill="#979797" fill-rule="nonzero"></path>
        <path id="Line-42" d="M184,671 L214,671 L214,667 L223,671.5 L214,676 L214,672 L184,672 L184,676 L175,671.5 L184,667 L184,671 Z" fill="#979797" fill-rule="nonzero"></path>
        <use id="Rectangle" stroke="#979797" mask="url(#mask-12)" stroke-width="2" fill-opacity="0.3" fill="#AEC0F7" stroke-dasharray="1" xlink:href="#path-11"></use>
        <text id="primaries" font-family="OpenSans-Italic, Open Sans" font-size="16" font-style="italic" font-weight="normal" fill="#333333">
            <tspan x="657" y="459">primaries</tspan>
        </text>
        <circle id="Oval-5" stroke="#979797" fill="#BCE9F4" cx="592" cy="493" r="50"></circle>
        <text id="CORE" font-family="OpenSans-Regular, Open Sans" font-size="16" font-weight="normal" fill="#333333">
            <tspan x="571" y="499">CORE</tspan>
        </text>
        <circle id="Oval-5" stroke="#979797" fill="#BCE9F4" cx="518" cy="631" r="50"></circle>
        <text id="CORE" font-family="OpenSans-Regular, Open Sans" font-size="16" font-weight="normal" fill="#333333">
            <tspan x="497" y="637">CORE</tspan>
        </text>
        <circle id="Oval-5" stroke="#979797" fill="#BCE9F4" cx="670" cy="631" r="50"></circle>
        <text id="CORE" font-family="OpenSans-Regular, Open Sans" font-size="16" font-weight="normal" fill="#333333">
            <tspan x="649" y="637">CORE</tspan>
        </text>
        <path id="Line-41" d="M547.025289,543.273441 L534.862116,566.687549 L538.411738,568.531508 L530.269505,574.443703 L530.425089,564.3826 L533.974711,566.226559 L546.137884,542.812451 L542.588262,540.968492 L550.730495,535.056297 L550.574911,545.1174 L547.025289,543.273441 Z" fill="#979797" fill-rule="nonzero"></path>
        <path id="Line-42" d="M579.493993,630.406629 L607.995019,630.093431 L607.951066,626.093673 L616.99997,630.494506 L608.049961,635.093129 L608.006007,631.093371 L579.504981,631.406569 L579.548934,635.406327 L570.50003,631.005494 L579.450039,626.406871 L579.493993,630.406629 Z" fill="#979797" fill-rule="nonzero"></path>
        <path id="Line-42" d="M517.5,717 L517.5,682.5 L517.5,682 L518.5,682 L518.5,682.5 L518.5,717 L522.5,717 L518,726 L513.5,717 L517.5,717 Z" fill="#979797" fill-rule="nonzero"></path>
        <path id="Line-42" d="M670.5,717 L670.5,682.5 L670.5,682 L671.5,682 L671.5,682.5 L671.5,717 L675.5,717 L671,726 L666.5,717 L670.5,717 Z" fill="#979797" fill-rule="nonzero"></path>
        <path id="Path-65" d="M648.195053,205.653747 L625.554513,161.227027 L626.445487,160.772973 L649.086027,205.199693 L652.649924,203.383477 L652.727027,213.445487 L644.631157,207.469964 L648.195053,205.653747 Z" fill="#979797" fill-rule="nonzero"></path>
        <path id="Path-66" d="M239.748556,583.067618 L254.11281,607.424397 L257.558274,605.392457 L258.253993,615.430683 L249.805981,609.964322 L253.251444,607.932382 L238.88719,583.575603 L235.441726,585.607543 L234.746007,575.569317 L243.194019,581.035678 L239.748556,583.067618 Z" fill="#979797" fill-rule="nonzero"></path>
        <path id="Path-66" d="M635.748556,543.067618 L650.11281,567.424397 L653.558274,565.392457 L654.253993,575.430683 L645.805981,569.964322 L649.251444,567.932382 L634.88719,543.575603 L631.441726,545.607543 L630.746007,535.569317 L639.194019,541.035678 L635.748556,543.067618 Z" fill="#979797" fill-rule="nonzero"></path>
    </g>
</svg>